<svg width="25" height="25" viewBox="0 0 25 25" fill="none" xmlns="http://www.w3.org/2000/svg">
<path d="M21.5 12.5V19.5C21.5 20.0304 21.2893 20.5391 20.9142 20.9142C20.5391 21.2893 20.0304 21.5 19.5 21.5H5.5C4.96957 21.5 4.46086 21.2893 4.08579 20.9142C3.71071 20.5391 3.5 20.0304 3.5 19.5V5.5C3.5 4.96957 3.71071 4.46086 4.08579 4.08579C4.46086 3.71071 4.96957 3.5 5.5 3.5H12.5M16.5 5.5H22.5M19.5 2.5V8.5M21 15.2963L18.1197 12.1055C17.7697 11.7178 17.295 11.5 16.8 11.5C16.305 11.5 15.8303 11.7178 15.4803 12.1055L7 21.5M11.5 9.5C11.5 10.6046 10.6046 11.5 9.5 11.5C8.39543 11.5 7.5 10.6046 7.5 9.5C7.5 8.39543 8.39543 7.5 9.5 7.5C10.6046 7.5 11.5 8.39543 11.5 9.5Z" stroke="#FF416C" stroke-width="2" stroke-linecap="round" stroke-linejoin="round"/>
</svg>
