<svg width="1920" height="624" viewBox="0 0 1920 624" fill="none" xmlns="http://www.w3.org/2000/svg">
<g filter="url(#filter0_d_2_296)">
<g filter="url(#filter1_d_2_296)">
<path d="M1919.82 605.615H0V97.767C12.1208 97.3222 21.3008 91.6284 9.26904 78.8176C12.121 66.1847 95.8975 81.3086 38.6798 83.0879C40.1058 87.5361 80.2117 77.839 92.3325 81.9314C89.3915 76.1487 96.8778 64.0496 105.969 58.1779C92.0652 49.8153 96.4324 48.9256 170.316 62.8041C185.111 53.7297 220.76 46.4346 226.643 51.7725C239.922 38.9617 299.724 45.2781 287.425 41.8085C330.918 35.4921 266.214 49.1036 348.743 47.0574C358.546 51.8615 377.708 66.2737 385.64 46.7905C399.276 16.7206 411.04 54.8862 427.617 46.7905C441.788 43.7657 454.8 88.9595 467.456 49.6374C480.201 71.6115 492.589 66.8074 505.69 63.3378C517.365 72.946 526.902 79.7962 539.29 80.33C551.856 77.1273 561.393 94.8312 574.94 89.6712C596.151 99.8131 613.709 65.1171 629.394 113.958C637.059 154.971 639.644 106.485 650.249 129.883C663.796 132.107 678.502 181.126 691.246 142.605C703.011 147.854 695.079 141.982 698.376 156.839C702.387 155.416 717.271 187.799 728.055 164.757C746.949 157.996 765.843 166.447 784.738 164.757C797.482 163.689 812.544 155.505 827.072 166.714C841.688 180.237 855.859 169.739 866.999 156.483C876.981 131.662 882.239 129.438 893.558 132.018C905.59 149.633 919.939 131.573 932.594 127.036C936.516 107.909 940.616 147.142 944.537 127.392C950.419 119.652 956.569 114.314 962.451 124.456C973.324 124.901 990.882 132.463 1000.6 122.054C1006.57 76.5045 1009.15 96.2546 1015.39 112.268C1028.14 113.336 1048.28 91.8953 1062 105.329C1074.39 102.838 1074.3 100.436 1082.77 115.649C1089.45 163.156 1100.86 139.58 1110.31 131.395C1117.26 131.662 1118.51 149.633 1123.32 137.445C1137.4 112.446 1148.54 133.531 1166.19 156.039C1176.26 158.441 1189.27 162.444 1198.81 162.088C1202.91 180.326 1206.12 164.668 1210.39 169.205C1221.18 164.223 1233.83 171.874 1244.53 170.984C1252.19 169.65 1254.15 178.28 1262.26 181.037C1268.68 171.073 1277.24 160.576 1283.74 180.771C1296.76 176.678 1310.57 212.264 1324.38 179.614C1338.2 178.546 1351.83 189.133 1364.4 183.439C1380.18 201.499 1398.18 186.108 1414.13 180.771C1433.12 182.995 1447.11 193.937 1467.43 180.948C1480.53 166.714 1493.81 146.252 1507.09 181.482C1520.37 191.624 1533.65 186.286 1546.75 180.948C1557.89 185.575 1557.53 181.749 1569.03 170.54C1587.57 166.269 1599.15 157.195 1617.78 148.743C1632.04 154.526 1630.88 139.046 1640.15 131.395C1639.7 125.791 1645.05 94.3863 1656.64 96.6994C1671.88 110.044 1679.1 115.382 1690.59 90.8278C1708.15 86.4685 1715.99 87.803 1723.75 89.5823C1746.65 78.0169 1743.18 135.488 1748.17 88.7816C1769.47 67.875 1766.53 62.0034 1775.71 73.6577C1796.92 88.7816 1811.09 69.9212 1826.78 73.3908C1855.47 75.259 1851.2 97.5001 1862.96 78.8176C1863.14 78.5507 1863.14 78.1059 1863.14 77.75C1863.94 79.3514 1864.92 81.3976 1866.35 83.9775C1875.62 88.2478 1886.58 91.8953 1884.44 84.2444C1894.42 83.2658 1907.61 90.4719 1913.05 84.4224C1915.63 84.5113 1915.72 85.5789 1920 84.5113V419.235C1920 419.235 1920 419.235 1920 419.324V476.706C1918.57 482.577 1918.04 487.203 1920 492.185V605.526L1919.82 605.615Z" fill="white"/>
</g>
<path d="M1919.82 624.476H0V116.628C12.1208 116.183 21.3008 110.49 9.26904 97.6789C12.121 85.046 95.8975 100.17 38.6798 101.949C40.1058 106.397 80.2117 96.7003 92.3325 100.793C89.3915 95.01 96.8778 82.9109 105.969 77.0392C92.0652 68.6766 96.4324 67.787 170.316 81.6654C185.111 72.591 220.76 65.296 226.643 70.6338C239.922 57.823 299.724 64.1394 287.425 60.6698C330.918 54.3534 266.214 67.9649 348.743 65.9187C358.546 70.7228 377.708 85.135 385.64 65.6518C399.276 35.5819 411.04 73.7476 427.617 65.6518C441.788 62.6271 454.8 107.821 467.456 68.4987C480.201 90.4728 492.589 85.6688 505.69 82.1992C517.365 91.8073 526.902 98.6575 539.29 99.1913C551.856 95.9886 561.393 113.692 574.94 108.533C596.151 118.674 613.709 83.9784 629.394 132.82C637.059 173.832 639.644 125.347 650.249 148.744C663.796 150.968 678.502 199.988 691.246 161.466C703.011 166.715 695.079 160.843 698.376 175.701C702.387 174.277 717.271 206.66 728.055 183.618C746.949 176.857 765.843 185.309 784.738 183.618C797.482 182.551 812.544 174.366 827.072 185.576C841.688 199.098 855.859 188.6 866.999 175.345C876.981 150.524 882.239 148.3 893.558 150.968C905.59 168.583 919.939 150.524 932.594 145.986C936.516 126.859 940.616 166.092 944.537 146.342C950.419 138.602 956.569 133.265 962.451 143.407C973.324 143.851 990.882 151.413 1000.6 141.004C1006.57 95.4548 1009.15 115.205 1015.39 131.218C1028.14 132.286 1048.28 110.846 1062 124.279C1074.39 121.788 1074.3 119.386 1082.77 134.599C1089.45 182.106 1100.86 158.53 1110.31 150.346C1117.26 150.613 1118.51 168.583 1123.32 156.395C1137.4 131.396 1148.54 152.481 1166.19 174.989C1176.26 177.391 1189.27 181.394 1198.81 181.038C1202.91 199.276 1206.12 183.618 1210.39 188.156C1221.18 183.174 1233.83 190.824 1244.53 189.935C1252.19 188.6 1254.15 197.23 1262.26 199.988C1268.68 190.024 1277.24 179.526 1283.74 199.721C1296.76 195.628 1310.57 231.214 1324.38 198.564C1338.2 197.497 1351.83 208.083 1364.4 202.39C1380.18 220.449 1398.18 205.059 1414.13 199.721C1433.12 201.945 1447.11 212.888 1467.43 199.899C1480.53 185.665 1493.81 165.203 1507.09 200.433C1520.37 210.574 1533.65 205.237 1546.75 199.899C1557.89 204.525 1557.53 200.699 1569.03 189.49C1587.57 185.22 1599.15 176.145 1617.78 167.694C1632.04 173.476 1630.88 157.997 1640.15 150.346C1639.7 144.741 1645.05 113.337 1656.64 115.65C1671.88 128.994 1679.1 134.332 1690.59 109.778C1708.15 105.419 1715.99 106.753 1723.75 108.533C1746.65 96.9672 1743.18 154.438 1748.17 107.732C1769.47 86.8253 1766.53 80.9537 1775.71 92.608C1796.92 107.732 1811.09 88.8715 1826.78 92.3411C1855.47 94.2093 1851.2 116.45 1862.96 97.7679C1863.14 97.501 1863.14 97.0562 1863.14 96.7003C1863.94 98.3017 1864.92 100.348 1866.35 102.928C1875.62 107.198 1886.58 110.846 1884.44 103.195C1894.42 102.216 1907.61 109.422 1913.05 103.373C1915.63 103.462 1915.72 104.529 1920 103.462V438.185C1920 438.185 1920 438.185 1920 438.274V495.656C1918.57 501.528 1918.04 506.154 1920 511.136V624.476H1919.82Z" fill="#EDEDED"/>
</g>
<defs>
<filter id="filter0_d_2_296" x="-4" y="35" width="1928" height="597.477" filterUnits="userSpaceOnUse" color-interpolation-filters="sRGB">
<feFlood flood-opacity="0" result="BackgroundImageFix"/>
<feColorMatrix in="SourceAlpha" type="matrix" values="0 0 0 0 0 0 0 0 0 0 0 0 0 0 0 0 0 0 127 0" result="hardAlpha"/>
<feOffset dy="4"/>
<feGaussianBlur stdDeviation="2"/>
<feComposite in2="hardAlpha" operator="out"/>
<feColorMatrix type="matrix" values="0 0 0 0 0 0 0 0 0 0 0 0 0 0 0 0 0 0 0.25 0"/>
<feBlend mode="normal" in2="BackgroundImageFix" result="effect1_dropShadow_2_296"/>
<feBlend mode="normal" in="SourceGraphic" in2="effect1_dropShadow_2_296" result="shape"/>
</filter>
<filter id="filter1_d_2_296" x="-20" y="0.0527344" width="1960" height="610.562" filterUnits="userSpaceOnUse" color-interpolation-filters="sRGB">
<feFlood flood-opacity="0" result="BackgroundImageFix"/>
<feColorMatrix in="SourceAlpha" type="matrix" values="0 0 0 0 0 0 0 0 0 0 0 0 0 0 0 0 0 0 127 0" result="hardAlpha"/>
<feOffset dy="-15"/>
<feGaussianBlur stdDeviation="10"/>
<feComposite in2="hardAlpha" operator="out"/>
<feColorMatrix type="matrix" values="0 0 0 0 0 0 0 0 0 0 0 0 0 0 0 0 0 0 0.03 0"/>
<feBlend mode="normal" in2="BackgroundImageFix" result="effect1_dropShadow_2_296"/>
<feBlend mode="normal" in="SourceGraphic" in2="effect1_dropShadow_2_296" result="shape"/>
</filter>
</defs>
</svg>
