<svg width="16" height="16" viewBox="0 0 16 16" fill="none" xmlns="http://www.w3.org/2000/svg">
<path d="M13.3335 14V8.66667C13.3335 8.31305 13.193 7.97391 12.943 7.72386C12.6929 7.47381 12.3538 7.33334 12.0002 7.33334H4.00016C3.64654 7.33334 3.3074 7.47381 3.05735 7.72386C2.80731 7.97391 2.66683 8.31305 2.66683 8.66667V14M2.66683 10.6667C2.66683 10.6667 3.00016 10 4.00016 10C5.00016 10 5.66683 11.3333 6.66683 11.3333C7.66683 11.3333 8.3335 10 9.3335 10C10.3335 10 11.0002 11.3333 12.0002 11.3333C13.0002 11.3333 13.3335 10.6667 13.3335 10.6667M1.3335 14H14.6668M4.66683 5.33334V7.33334M8.00016 5.33334V7.33334M11.3335 5.33334V7.33334M4.66683 2.66667H4.6735M8.00016 2.66667H8.00683M11.3335 2.66667H11.3402" stroke="#FF416C" stroke-width="1.2" stroke-linecap="round" stroke-linejoin="round"/>
</svg>