<svg width="16" height="16" viewBox="0 0 16 16" fill="none" xmlns="http://www.w3.org/2000/svg">
    <path d="M8 5.33333V14M8 5.33333C7.75885 4.3396 7.34363 3.49004 6.80849 2.89544C6.27335 2.30084 5.64312 1.9888 5 2C4.55797 2 4.13405 2.1756 3.82149 2.48816C3.50893 2.80072 3.33333 3.22464 3.33333 3.66667C3.33333 4.1087 3.50893 4.53262 3.82149 4.84518C4.13405 5.15774 4.55797 5.33333 5 5.33333M8 5.33333C8.24115 4.3396 8.65637 3.49004 9.19151 2.89544C9.72665 2.30084 10.3569 1.9888 11 2C11.442 2 11.866 2.1756 12.1785 2.48816C12.4911 2.80072 12.6667 3.22464 12.6667 3.66667C12.6667 4.1087 12.4911 4.53262 12.1785 4.84518C11.866 5.15774 11.442 5.33333 11 5.33333M12.6667 8V12.6667C12.6667 13.0203 12.5262 13.3594 12.2761 13.6095C12.0261 13.8595 11.687 14 11.3333 14H4.66667C4.31304 14 3.97391 13.8595 3.72386 13.6095C3.47381 13.3594 3.33333 13.0203 3.33333 12.6667V8M2.66667 5.33333H13.3333C13.7015 5.33333 14 5.63181 14 6V7.33333C14 7.70152 13.7015 8 13.3333 8H2.66667C2.29848 8 2 7.70152 2 7.33333V6C2 5.63181 2.29848 5.33333 2.66667 5.33333Z" stroke="#FF416C" stroke-width="1.2" stroke-linecap="round" stroke-linejoin="round"/>
</svg>