<svg width="16" height="16" viewBox="0 0 16 16" fill="none" xmlns="http://www.w3.org/2000/svg">
<path d="M6.66683 10.6667C7.00016 10.8667 7.46683 11 8.00016 11C8.5335 11 9.00016 10.8667 9.3335 10.6667M10.0002 8H10.0068M12.9202 4.542C13.3876 5.2216 13.7098 5.99027 13.8668 6.8C14.0923 6.90918 14.2824 7.07965 14.4154 7.29188C14.5484 7.50411 14.619 7.74952 14.619 8C14.619 8.25048 14.5484 8.49589 14.4154 8.70812C14.2824 8.92035 14.0923 9.09082 13.8668 9.2C13.579 10.5423 12.8396 11.7454 11.772 12.6084C10.7043 13.4714 9.37299 13.9421 8.00016 13.9421C6.62733 13.9421 5.29602 13.4714 4.22837 12.6084C3.16072 11.7454 2.4213 10.5423 2.13349 9.2C1.90807 9.09082 1.71795 8.92035 1.58493 8.70812C1.4519 8.49589 1.38135 8.25048 1.38135 8C1.38135 7.74952 1.4519 7.50411 1.58493 7.29188C1.71795 7.07965 1.90807 6.90918 2.13349 6.8C2.40967 5.447 3.14409 4.23068 4.21285 3.35624C5.2816 2.48181 6.61927 2.00279 8.00016 2C9.3335 2 10.3335 2.73333 10.3335 3.66667C10.3335 4.6 9.7335 5.33333 9.00016 5.33333C8.46683 5.33333 8.00016 5.06667 8.00016 4.66667M6.00016 8H6.00683" stroke="#FF416C" stroke-width="1.2" stroke-linecap="round" stroke-linejoin="round"/>
</svg>
