<svg width="14" height="14" viewBox="0 0 14 14" fill="none" xmlns="http://www.w3.org/2000/svg">
    <path d="M6.12503 1.75L4.6667 5.25L7.00003 12.8333M7.00003 12.8333L9.33336 5.25L7.87503 1.75M7.00003 12.8333C7.18506 12.8333 7.36715 12.7893 7.53182 12.7049C7.69649 12.6205 7.83872 12.4982 7.94678 12.348L12.6076 5.9395C12.7555 5.73769 12.8346 5.49369 12.8332 5.2435C12.8319 4.99331 12.7501 4.75018 12.6 4.55L10.85 2.21667C10.7414 2.07177 10.6004 1.95417 10.4384 1.87317C10.2764 1.79217 10.0978 1.75 9.9167 1.75H4.08336C3.9019 1.75002 3.72294 1.79237 3.56072 1.87369C3.39849 1.955 3.25747 2.07304 3.14886 2.21842L1.40003 4.55C1.24986 4.75012 1.16799 4.99321 1.16652 5.2434C1.16505 5.49359 1.24405 5.73763 1.39186 5.9395L6.0527 12.348C6.16076 12.4982 6.30299 12.6205 6.46766 12.7049C6.63233 12.7893 6.815 12.8333 7.00003 12.8333ZM1.1667 5.25H12.8334" stroke="#FF416C" stroke-linecap="round" stroke-linejoin="round"/>
</svg>
