<svg width="10" height="14" viewBox="0 0 10 14" fill="none" xmlns="http://www.w3.org/2000/svg">
<path d="M6.2002 0.100388V0.101364C6.28843 0.0993638 6.37624 0.113992 6.45801 0.147263L6.56055 0.200974L6.65039 0.273239L7.65137 1.27422C7.7575 1.38024 7.81951 1.52278 7.82617 1.67265C7.83278 1.82253 7.78288 1.96977 7.68652 2.08476L5.87402 4.25664C6.90693 4.52927 7.81507 5.15275 8.43945 6.02422C9.09935 6.94544 9.39596 8.07844 9.27246 9.20488C9.1489 10.3312 8.61426 11.3724 7.77051 12.1287C6.92669 12.885 5.83337 13.3035 4.7002 13.3035C3.56702 13.3035 2.4737 12.8851 1.62988 12.1287C0.786133 11.3724 0.251489 10.3312 0.12793 9.20488C0.00443138 8.07844 0.301038 6.94544 0.960938 6.02422C1.58929 5.14721 2.50484 4.52064 3.5459 4.25078L1.73828 2.08379C1.64221 1.96888 1.59205 1.8223 1.59863 1.67265C1.6053 1.5227 1.66818 1.38026 1.77441 1.27422L2.77539 0.273239C2.83063 0.219368 2.89635 0.176471 2.96777 0.147263C3.04103 0.117535 3.1192 0.101876 3.19824 0.100388H6.2002ZM6.00098 5.55937C5.37985 5.30213 4.69649 5.23394 4.03711 5.36504C3.37762 5.49622 2.77138 5.82025 2.2959 6.2957C1.8204 6.7712 1.49642 7.37738 1.36523 8.03691C1.23407 8.69642 1.30127 9.38051 1.55859 10.0018C1.81594 10.6229 2.25246 11.1536 2.81152 11.5271C3.37061 11.9007 4.02781 12.1004 4.7002 12.1004C5.60193 12.1004 6.46687 11.7419 7.10449 11.1043C7.74206 10.4667 8.10059 9.60169 8.10059 8.7C8.10055 8.02765 7.90085 7.37037 7.52734 6.81133C7.15375 6.2522 6.62225 5.81671 6.00098 5.55937ZM3.00977 1.73613L4.7002 3.76347L6.38965 1.73613L5.9541 1.30058H3.44629L3.00977 1.73613Z" fill="#FF416C" stroke="#FF416C" stroke-width="0.2"/>
</svg>
