<svg width="90" height="74" viewBox="0 0 90 74" fill="none" xmlns="http://www.w3.org/2000/svg">
<path fill-rule="evenodd" clip-rule="evenodd" d="M43.8308 16.9665V20.4938C23.1498 21.1013 6.46833 37.797 5.86134 58.4994H1.16838C0.814161 58.4994 0.478239 58.6609 0.257061 58.9372C0.035883 59.2135 -0.0489508 59.5764 0.0275469 59.9226C0.0275469 59.9226 0.71601 63.0221 1.42445 66.2131C2.43388 70.7624 6.46665 74 11.123 74H78.8767C83.5331 74 87.5658 70.7624 88.5753 66.2131C89.2837 63.0221 89.9722 59.9226 89.9722 59.9226C90.0487 59.5764 89.9656 59.2135 89.7427 58.9372C89.5215 58.6609 89.1856 58.4994 88.8314 58.4994H84.1384C83.5314 37.7987 66.8516 21.1013 46.169 20.4938V16.9665H50.8437C51.4889 16.9665 52.0127 16.4421 52.0127 15.7963C52.0127 15.1504 51.4889 14.6261 50.8437 14.6261H39.1561C38.5109 14.6261 37.987 15.1504 37.987 15.7963C37.987 16.4421 38.5109 16.9665 39.1561 16.9665H43.8308ZM87.3729 60.8398L86.292 65.7071C85.5187 69.186 82.4372 71.6613 78.8751 71.6613H11.1214C7.5609 71.6613 4.47774 69.186 3.70444 65.7071L2.6235 60.8398H87.3713H87.3729ZM81.7986 58.4994H8.19952C8.81815 38.6992 25.0706 22.8158 44.9999 22.8158C64.9292 22.8158 81.1816 38.6992 81.8003 58.4994H81.7986ZM78.6023 1.92037C81.2232 -0.653072 85.4322 -0.638085 88.0348 1.96698C89.292 3.2254 89.9988 4.9316 89.9988 6.71103C89.9988 8.49047 89.292 10.1967 88.0365 11.4551L79.4338 20.0726C79.2276 20.279 78.9532 20.4005 78.6655 20.4138H78.6073C78.3313 20.4138 78.0718 20.319 77.8673 20.1492L77.8157 20.1059L77.7758 20.0693L69.1698 11.4551C66.5523 8.83504 66.5523 4.58703 69.1698 1.96532C71.7724 -0.639752 75.9814 -0.654738 78.6023 1.9187V1.92037ZM78.6057 17.5924L70.8228 9.80213C69.1183 8.09593 69.1183 5.32942 70.8228 3.62156C72.5274 1.91537 75.2913 1.91537 76.9976 3.62156L77.7758 4.40058C78.2331 4.85834 78.9732 4.85834 79.4288 4.40058L80.2071 3.62156C81.9117 1.91537 84.6756 1.91537 86.3818 3.62156C87.2 4.44054 87.6606 5.55249 87.6606 6.71103C87.6606 7.86958 87.2 8.98153 86.3818 9.8005L78.6057 17.5907V17.5924Z" fill="#2D2D35"/>
</svg>
