<svg width="90" height="86" viewBox="0 0 90 86" fill="none" xmlns="http://www.w3.org/2000/svg">
<g clip-path="url(#clip0_2_483)">
<path d="M11.9197 53.8338C11.6725 53.8338 11.4528 53.7514 11.233 53.6141C10.8486 53.312 10.6563 52.8177 10.8211 52.3233L13.0731 45.4298L7.19582 41.1729C6.81132 40.8982 6.61907 40.3764 6.78386 39.9095C6.94864 39.4426 7.3606 39.1131 7.88242 39.1131H15.133L17.385 32.2196C17.5223 31.7527 17.9892 31.4231 18.4836 31.4231C18.9779 31.4231 19.4174 31.7527 19.5547 32.2196L21.8067 39.1131H29.0573C29.5516 39.1131 29.9911 39.4426 30.1558 39.9095C30.2932 40.3764 30.1558 40.8982 29.7439 41.1729L23.8666 45.4298L26.1186 52.3233C26.2559 52.7902 26.1186 53.312 25.7067 53.6141C25.2947 53.9162 24.7729 53.9162 24.3609 53.6141L18.4836 49.3297L12.6063 53.6141C12.414 53.7514 12.1668 53.8338 11.9197 53.8338ZM18.4561 46.803C18.6758 46.803 18.923 46.8854 19.1153 47.0227L22.8229 49.7142L21.4222 45.3749C21.2849 44.908 21.4222 44.3862 21.8342 44.0841L25.5144 41.3926H20.9554C20.461 41.3926 20.0216 41.063 19.8568 40.6236L18.4561 36.2568L17.0554 40.6236C16.8907 41.0905 16.4787 41.3926 15.9569 41.3926H11.3978L15.078 44.0841C15.4625 44.3862 15.6548 44.8805 15.49 45.3749L14.0893 49.7142L17.797 47.0227C17.9892 46.8854 18.2364 46.803 18.4836 46.803H18.4561Z" fill="#2D2D35"/>
<path d="M36.6108 85.9407C36.3087 85.9407 36.0341 85.8309 35.8143 85.6111C35.3749 85.1717 35.3749 84.4302 35.8143 83.9908C49.8211 70.0115 30.3764 48.4522 30.1842 48.2599C29.7722 47.793 29.7997 47.079 30.2666 46.6395C30.7335 46.2001 31.4475 46.2276 31.887 46.7219C32.1067 46.9416 52.9794 70.0939 37.4347 85.6111C37.215 85.8309 36.9129 85.9407 36.6383 85.9407H36.6108Z" fill="#2D2D35"/>
<path d="M27.2725 85.9402C27.1077 85.9402 26.9704 85.9128 26.8056 85.8304C26.2289 85.5832 25.9817 84.8966 26.2289 84.3199C33.2048 68.6653 19.7748 59.9866 19.1981 59.6296C18.6488 59.3 18.5115 58.586 18.841 58.0641C19.1706 57.5423 19.8847 57.3501 20.4065 57.7071C20.5713 57.7895 36.0885 67.759 28.3162 85.2536C28.1239 85.6931 27.712 85.9402 27.2725 85.9402Z" fill="#2D2D35"/>
<path d="M16.0661 85.9406C15.8739 85.9406 15.6816 85.8857 15.4894 85.7758C14.9401 85.4737 14.7478 84.7597 15.0774 84.2379C17.3569 80.2555 18.0161 76.6303 17.0823 73.4719C15.7915 69.1875 11.8641 67.1826 11.8366 67.1552C11.2599 66.853 11.0402 66.1664 11.3148 65.6172C11.5895 65.0404 12.2761 64.8207 12.8528 65.0953C13.0451 65.1777 17.6865 67.5397 19.252 72.7853C20.4055 76.5754 19.6639 80.8048 17.0548 85.3364C16.8351 85.6934 16.4506 85.9132 16.0661 85.9132V85.9406Z" fill="#2D2D35"/>
<path d="M4.88862 65.4249C2.19713 65.4249 0 63.2278 0 60.5363C0 57.8448 2.19713 55.6477 4.88862 55.6477C7.5801 55.6477 9.74977 57.8174 9.74977 60.5363C9.74977 63.2553 7.5801 65.4249 4.88862 65.4249ZM4.88862 57.9547C3.46048 57.9547 2.30699 59.1082 2.30699 60.5363C2.30699 61.9645 3.46048 63.118 4.88862 63.118C6.31675 63.118 7.47025 61.9645 7.47025 60.5363C7.47025 59.1082 6.31675 57.9547 4.88862 57.9547Z" fill="#2D2D35"/>
<path d="M8.6238 73.6088H4.88867V77.3439H8.6238V73.6088Z" fill="#2D2D35"/>
<path d="M78.0805 53.8338C77.8608 53.8338 77.6136 53.7514 77.4213 53.6141L71.544 49.3297L65.6667 53.6141C65.2822 53.9162 64.7329 53.9162 64.3209 53.6141C63.909 53.312 63.7442 52.8177 63.909 52.3233L66.161 45.4298L60.2837 41.1729C59.8992 40.8982 59.707 40.3764 59.8717 39.9095C60.0091 39.4426 60.4485 39.1131 60.9703 39.1131H68.2208L70.4729 32.2196C70.6102 31.7527 71.0497 31.4231 71.544 31.4231C72.0384 31.4231 72.4778 31.7527 72.6426 32.2196L74.8946 39.1131H82.1452C82.6395 39.1131 83.0789 39.4426 83.2163 39.9095C83.3811 40.3764 83.2163 40.8982 82.8043 41.1729L76.927 45.4298L79.179 52.3233C79.3438 52.7902 79.179 53.312 78.7671 53.6141C78.5748 53.7514 78.3277 53.8338 78.0805 53.8338ZM71.544 46.803C71.7637 46.803 72.0109 46.8854 72.2306 47.0227L75.9383 49.7142L74.5376 45.3749C74.4003 44.908 74.5376 44.3862 74.9496 44.0841L78.6572 41.3926H74.0982C73.6038 41.3926 73.1644 41.063 72.9996 40.6236L71.5715 36.2568L70.1708 40.6236C70.0335 41.0905 69.5941 41.3926 69.0997 41.3926H64.5407L68.2483 44.0841C68.6328 44.3862 68.7976 44.8805 68.6603 45.3749L67.2596 49.7142L70.9398 47.0502C71.132 46.9129 71.3792 46.8305 71.6264 46.8305L71.544 46.803Z" fill="#2D2D35"/>
<path d="M51.8794 22.498C51.6322 22.498 51.4125 22.4431 51.1928 22.2783L45.3155 18.0214L39.4382 22.2783C39.0262 22.5804 38.5044 22.5804 38.0924 22.2783C37.6805 21.9762 37.5157 21.4818 37.6805 20.9875L39.9325 14.094L34.0552 9.83705C33.6707 9.53494 33.4784 9.01313 33.6432 8.54624C33.7806 8.07934 34.2474 7.74977 34.7418 7.74977H41.9923L44.2444 0.856275C44.3817 0.389384 44.8486 0.0598145 45.343 0.0598145C45.8373 0.0598145 46.2767 0.389384 46.4415 0.856275L48.6936 7.74977H55.9441C56.4385 7.74977 56.8779 8.07934 57.0427 8.54624C57.18 9.01313 57.0427 9.53494 56.6307 9.83705L50.7534 14.094L53.0055 20.9875C53.1702 21.4544 53.0055 21.9762 52.5935 22.2783C52.3738 22.4156 52.1541 22.498 51.9069 22.498H51.8794ZM45.343 15.4672C45.5901 15.4672 45.8098 15.5496 46.0021 15.6869L49.7098 18.3784L48.3091 14.0391C48.1443 13.5722 48.3091 13.0504 48.721 12.7482L52.4012 10.0568H47.8422C47.3478 10.0568 46.9084 9.72719 46.7436 9.2603L45.343 4.92097L43.9423 9.2603C43.7775 9.72719 43.3655 10.0568 42.8437 10.0568H38.2847L41.9649 12.7482C42.3768 13.0504 42.5416 13.5447 42.3768 14.0391L40.9762 18.3784L44.6564 15.6869C44.8761 15.5496 45.0958 15.4672 45.343 15.4672Z" fill="#2D2D35"/>
<path d="M53.3891 85.9397C53.087 85.9397 52.8124 85.8299 52.5926 85.6102C37.0754 70.0655 57.9482 46.9406 58.1679 46.7209C58.5798 46.254 59.2939 46.2266 59.7883 46.6385C60.2551 47.0505 60.2826 47.792 59.8432 48.2589C59.6509 48.4786 40.2338 70.0105 54.213 83.9898C54.6525 84.4292 54.6525 85.1707 54.213 85.6102C53.9933 85.8299 53.6912 85.9397 53.4166 85.9397H53.3891Z" fill="#2D2D35"/>
<path d="M62.7281 85.9402C62.2887 85.9402 61.8767 85.6931 61.6844 85.2536C53.8846 67.759 69.4293 57.7895 69.5941 57.7071C70.1434 57.3501 70.83 57.5423 71.1596 58.0641C71.4891 58.586 71.3244 59.3 70.8025 59.6296C70.2258 59.9866 56.8233 68.6653 63.7717 84.3199C64.0464 84.8966 63.7717 85.5832 63.195 85.8304C63.0577 85.8853 62.8929 85.9402 62.7281 85.9402Z" fill="#2D2D35"/>
<path d="M73.9339 85.9408C73.5494 85.9408 73.1375 85.7211 72.9452 85.3641C70.3361 80.805 69.5946 76.603 70.7481 72.813C72.341 67.5948 76.955 65.2054 77.1472 65.123C77.724 64.8209 78.4106 65.0681 78.6852 65.6448C78.9599 66.1941 78.7401 66.8807 78.1634 67.1554C78.1085 67.1554 74.2086 69.2152 72.9177 73.4996C71.984 76.6305 72.6431 80.2558 74.9226 84.2381C75.2247 84.7873 75.0599 85.4739 74.5107 85.7761C74.3184 85.8859 74.1262 85.9408 73.9339 85.9408Z" fill="#2D2D35"/>
<path d="M85.1112 65.4249C82.4471 65.4249 80.25 63.2278 80.25 60.5363C80.25 57.8448 82.4471 55.6477 85.1112 55.6477C87.7752 55.6477 89.9998 57.8174 89.9998 60.5363C89.9998 63.2553 87.8301 65.4249 85.1112 65.4249ZM85.1112 57.9547C83.683 57.9547 82.5295 59.1082 82.5295 60.5363C82.5295 61.9645 83.683 63.118 85.1112 63.118C86.5393 63.118 87.7203 61.9645 87.7203 60.5363C87.7203 59.1082 86.5668 57.9547 85.1112 57.9547Z" fill="#2D2D35"/>
<path d="M81.3762 77.343H85.1113V73.6079H81.3762V77.343Z" fill="#2D2D35"/>
<path d="M70.1711 23.212H73.9062V19.4769H70.1711V23.212Z" fill="#2D2D35"/>
<path d="M23.5364 12.0071H27.2715V8.27196H23.5364V12.0071Z" fill="#2D2D35"/>
<path d="M16.0657 26.9465H19.8008V23.2114H16.0657V26.9465Z" fill="#2D2D35"/>
<path d="M49.6832 48.6167C49.5184 48.6167 49.3536 48.6167 49.1888 48.5068C48.6121 48.2322 48.3649 47.5456 48.6395 46.9963L61.7125 19.0104C61.9597 18.4336 62.6463 18.1864 63.223 18.4611C63.7998 18.7357 64.0469 19.4223 63.7723 19.9716L50.6994 47.9576C50.5071 48.3695 50.0951 48.6167 49.6832 48.6167Z" fill="#2D2D35"/>
<path d="M42.1852 48.6161C41.7458 48.6161 41.3339 48.3689 41.1416 47.9569L28.0687 19.971C27.794 19.3942 28.0687 18.7351 28.618 18.4604C29.1947 18.2133 29.8539 18.4604 30.1285 19.0097L43.2014 46.9957C43.4761 47.5724 43.2014 48.259 42.6521 48.5062C42.4874 48.5886 42.3226 48.6161 42.1578 48.6161H42.1852Z" fill="#2D2D35"/>
<path d="M45.919 41.1466C45.2873 41.1466 44.793 40.6248 44.793 39.9932V26.9202C44.793 26.2885 45.2873 25.7942 45.919 25.7942C46.5507 25.7942 47.0725 26.316 47.0725 26.9202V39.9932C47.0725 40.6248 46.5507 41.1466 45.919 41.1466Z" fill="#2D2D35"/>
</g>
<defs>
<clipPath id="clip0_2_483">
<rect width="90" height="85.8804" fill="white" transform="translate(0 0.0598145)"/>
</clipPath>
</defs>
</svg>
