<svg width="90" height="90" viewBox="0 0 90 90" fill="none" xmlns="http://www.w3.org/2000/svg">
<path fill-rule="evenodd" clip-rule="evenodd" d="M24.5488 65.4512C28.3952 79.5898 41.3348 90 56.689 90C75.0732 90 90 75.0732 90 56.689C90 41.3365 79.5898 28.3952 65.4512 24.5504C61.6048 10.4085 48.6635 0 33.311 0C14.9268 0 0 14.9268 0 33.311C0 48.6635 10.4085 61.6048 24.5488 65.4512ZM32.3548 65.8653C31.4385 63.4523 30.8764 60.8681 30.7267 58.1757C30.6951 57.6835 30.6818 57.1879 30.6818 56.689C30.6818 42.3359 42.3343 30.6835 56.6874 30.6835C56.7356 30.6835 56.7838 30.6835 56.832 30.6835C56.6425 28.9723 56.27 27.3143 55.7345 25.7328C39.1231 26.2334 25.786 39.8415 25.7178 56.5576V56.566V56.5876L25.7145 56.704C25.7145 57.1463 25.7245 57.5887 25.7428 58.0327L25.7461 58.1125C25.7494 58.1774 25.7528 58.2406 25.7561 58.3054C25.7644 58.4551 25.7727 58.6031 25.7827 58.7511C25.9058 60.6203 26.1951 62.4462 26.6408 64.2123V64.214C30 77.679 42.1863 87.6652 56.6874 87.6652C73.7827 87.6652 87.6619 73.786 87.6619 56.6907C87.6619 42.8598 78.5754 31.1325 66.0532 27.1646V27.1746C66.0649 27.2245 66.0732 27.2744 66.0831 27.3243V27.3309L66.0881 27.3542L66.1031 27.4374L66.1098 27.4756L66.1131 27.4989L66.1181 27.5222L66.1247 27.5621L66.138 27.6419L66.143 27.6668V27.6752C66.153 27.7251 66.1613 27.7749 66.1696 27.8265V27.8365L66.1746 27.8614L66.1879 27.9379L66.1946 27.9811L66.1979 28.0044L66.2012 28.0261L66.2079 28.0626L66.2228 28.1541L66.2262 28.1741V28.179C66.2345 28.2306 66.2428 28.2805 66.2511 28.332V28.342L66.2561 28.3653L66.2661 28.4385L66.2727 28.4884L66.2761 28.5116L66.2794 28.5283L66.2844 28.5632L66.301 28.6813C66.3076 28.7345 66.316 28.7877 66.3226 28.8409V28.8509L66.3259 28.8692L66.3359 28.9423L66.3442 29.0039V29.0205L66.3476 29.0322C66.3609 29.1402 66.3742 29.2483 66.3875 29.3564V29.3631L66.3891 29.3731L66.3974 29.4496L66.4058 29.5294V29.536V29.5394C66.5222 30.5654 66.592 31.6048 66.612 32.6574C76.046 36.5571 82.6896 45.8548 82.6896 56.6923C82.6896 71.0454 71.0371 82.6979 56.684 82.6979C45.5604 82.6979 36.0599 75.7001 32.3514 65.8686L32.3548 65.8653ZM66.5671 35.1818C65.6341 52.0776 52.0809 65.6325 35.1802 66.5687C38.9235 74.704 47.1502 80.3564 56.6874 80.3564C69.75 80.3564 80.3564 69.7517 80.3564 56.6874C80.3564 47.1502 74.704 38.9235 66.5687 35.1802L66.5671 35.1818ZM64.2838 33.1962C64.2738 30.6436 63.9562 28.1641 63.3592 25.791C63.3592 25.791 63.3592 25.7894 63.3592 25.7877C60 12.3243 47.8121 2.33814 33.311 2.33814C16.2173 2.33814 2.33814 16.2156 2.33814 33.311C2.33814 47.1419 11.4229 58.8692 23.9468 62.837V62.827C23.9351 62.7772 23.9268 62.7273 23.9169 62.6774V62.6707L23.9119 62.6474L23.8969 62.5643L23.8902 62.526L23.8853 62.5028L23.8819 62.4795L23.8753 62.4396L23.862 62.3598L23.857 62.3348V62.3265C23.847 62.2766 23.8387 62.2267 23.8304 62.1752V62.1652L23.8237 62.1402L23.8104 62.0637L23.8038 62.0205L23.8004 61.9972L23.7971 61.9756L23.7905 61.939L23.7755 61.8476L23.7722 61.8276V61.8226C23.7639 61.7711 23.7555 61.7212 23.7472 61.6696V61.6596L23.7422 61.6364L23.7323 61.5632L23.7256 61.5133L23.7223 61.4917L23.719 61.4751L23.714 61.4401L23.6973 61.3287V61.3221C23.689 61.2688 23.6824 61.2156 23.6741 61.1624V61.1524L23.6707 61.1341L23.6608 61.0626L23.6524 61.0011V60.9845L23.6491 60.9728C23.6358 60.8647 23.6225 60.7566 23.6092 60.6486V60.6419L23.6075 60.6319L23.5992 60.5554L23.5909 60.4756V60.469V60.4656C23.4745 59.4396 23.4047 58.4002 23.3847 57.3476C13.9507 53.4479 7.30709 44.1502 7.30709 33.3126C7.30709 18.9595 18.9595 7.30709 33.3126 7.30709C44.4363 7.30709 53.9368 14.3049 57.6452 24.1364C58.5599 26.5493 59.1236 29.1336 59.2733 31.8259C59.3049 32.3182 59.3182 32.8137 59.3182 33.3126C59.3182 47.6657 47.6657 59.3182 33.3126 59.3182C33.2644 59.3182 33.2162 59.3182 33.168 59.3182C33.3575 61.0294 33.73 62.6857 34.2655 64.2688C50.8769 63.7683 64.214 50.1602 64.2821 33.444C64.2821 33.755 64.2821 33.4157 64.2821 33.4157L64.2855 33.2993V33.1962H64.2838ZM56.9767 33.0216C56.8803 33.0216 56.7838 33.02 56.6857 33.02C43.6231 33.02 33.0166 43.6247 33.0166 56.689C33.0166 56.7855 33.0166 56.8836 33.0183 56.98C33.1147 56.98 33.2112 56.9817 33.3093 56.9817C46.3719 56.9817 56.9784 46.3769 56.9784 33.3126C56.9784 33.2162 56.9784 33.1197 56.9767 33.0216ZM54.8165 23.4313C51.0732 15.296 42.8465 9.64357 33.3093 9.64357C20.2467 9.64357 9.64024 20.2483 9.64024 33.3126C9.64024 42.8498 15.2927 51.0765 23.4279 54.8198C24.3609 37.9241 37.9141 24.3692 54.8149 23.4329L54.8165 23.4313Z" fill="#2D2D35"/>
</svg>
