<svg width="90" height="116" viewBox="0 0 90 116" fill="none" xmlns="http://www.w3.org/2000/svg">
<path fill-rule="evenodd" clip-rule="evenodd" d="M44.2234 115.675C44.7748 116.11 45.5513 116.108 46.1005 115.669C46.1005 115.669 61.8613 103.072 74.4666 85.3804C82.9659 73.4523 90 59.218 90 44.9622C90 20.1459 69.8351 0 45 0C20.1649 0 0 20.148 0 44.9622C0 59.2909 7.08562 73.5424 15.6493 85.4618C28.3489 103.141 44.2256 115.673 44.2256 115.673L44.2234 115.675ZM45.1523 112.544C41.6084 109.607 28.72 98.4937 18.097 83.7064C9.89798 72.2928 3.01401 58.6843 3.01401 44.9622C3.01401 21.8091 21.8275 3.01147 45 3.01147C68.1725 3.01147 86.9838 21.8091 86.9838 44.9622C86.9838 58.6136 80.1514 72.2092 72.0103 83.6335C61.4666 98.4294 48.6747 109.592 45.1523 112.544ZM45 15.0639C28.5656 15.0639 15.2224 28.3958 15.2224 44.8164C15.2224 61.2371 28.5656 74.5691 45 74.5691C61.4344 74.5691 74.7776 61.2371 74.7776 44.8164C74.7776 28.3958 61.4344 15.0639 45 15.0639ZM45 18.0775C59.7698 18.0775 71.7636 30.0591 71.7636 44.8186C71.7636 59.5781 59.7719 71.5576 45 71.5576C30.2281 71.5576 18.2364 59.5759 18.2364 44.8186C18.2364 30.0612 30.2281 18.0775 45 18.0775ZM43.936 61.7215L30.6164 48.4131C26.6821 44.4821 26.6821 38.1097 30.6164 34.1787C34.5507 30.2477 40.9284 30.2477 44.8627 34.1787L45.0021 34.3181L45.1416 34.1787C49.0759 30.2477 55.4536 30.2477 59.3879 34.1787C61.2778 36.0671 62.3376 38.6263 62.3376 41.297C62.3376 43.9676 61.2757 46.5269 59.3879 48.4131L46.0747 61.7258C45.8087 61.9916 45.4548 62.148 45.0837 62.1652H45.0086C44.5989 62.1652 44.2149 62.0001 43.9381 61.7215H43.936ZM45.0064 58.5299L32.7487 46.2825C29.9921 43.5282 29.9921 39.0636 32.7487 36.3093C35.5053 33.555 39.9738 33.555 42.7304 36.3093L43.936 37.5139C44.5259 38.1012 45.4805 38.1012 46.0683 37.5139L47.2739 36.3093C50.0305 33.555 54.499 33.555 57.2556 36.3093C58.5792 37.6318 59.3235 39.4258 59.3235 41.2948C59.3235 43.1639 58.5792 44.9579 57.2556 46.2804L45.0086 58.5278L45.0064 58.5299Z" fill="#2D2D35"/>
</svg>
