<?xml version="1.0" encoding="UTF-8"?>
<svg width="1200pt" height="1200pt" version="1.1" viewBox="0 0 1200 1200" xmlns="http://www.w3.org/2000/svg">
 <path d="m655.12 122.67h24.742v24.738h-24.742z"/>
 <path d="m826.67 205.77h24.738v24.738h-24.738z"/>
 <path d="m849.55 650.08h24.738v24.742h-24.738z"/>
 <path d="m926.29 463.49h24.738v24.738h-24.738z"/>
 <path d="m676.67 795.84c29.848 49.824 34.762 81.203 26.691 89.277-0.57031 0.57031-1.3203 1.0977-2.2578 1.5625l-2.5234 0.95312c-10.082 2.8477-33.266-0.10938-75.336-23.867-46.738-26.395-101.13-69.586-153.16-121.62-52.031-52.031-95.219-106.43-121.61-153.16-20.957-37.105-25.727-59.523-24.605-71.215l3.4141-9.0391c6.4414-6.0625 32.105-7.1914 88.5 26.465l14.414-24.148c-59.414-35.465-101.93-43.086-122.96-22.059-5.957 5.957-9.6445 13.516-11.098 22.613l-230.01 609.13c-2.793 7.3906-0.99219 15.773 4.5898 21.359 3.8398 3.8398 9.0039 5.8945 14.258 5.8945 2.3867 0 4.793-0.42578 7.1016-1.2969l608.68-229.8 7.4727-2.8203c1.1289-0.37109 2.2227-0.79297 3.2969-1.2461l5.3594-2.0234-0.21875-0.57422c2.375-1.4688 4.5781-3.1953 6.5898-5.207 21.113-21.113 13.352-63.859-22.449-123.62zm-28.797 110.93-378.02 142.73c-54.863-6.6992-99.645-26.527-130.1-44.141l34.375-91.035c40.059 23.98 105.89 53.422 187.63 53.422 69.59 0 150.7-21.352 237.21-85.586 17.234 10.352 33.711 18.73 48.906 24.613zm-463.64-19.219 33.293-88.172c28.41 19.691 74.582 42.875 134.48 42.875 40.766 0 87.895-10.781 140.06-40.691 27.141 24.188 54.871 46.176 81.477 64.285-174.87 124.19-324.02 62.059-389.3 21.703zm286.02-106.04c-116.94 62.957-203.55 19.473-242.44-9.3672l27.395-72.555c19.141 12.789 46.117 24.734 80.199 24.734 19.781 0 41.953-4.0352 66.355-14.254 15.062 17.375 31.285 34.809 48.438 51.957 6.5938 6.5977 13.289 13.09 20.051 19.484zm-146.27-178.7c14.945 26.465 34.969 55.18 58.691 84.477-54.699 19.621-94.484 1.957-117.21-14.871l40.328-106.79c4.5625 11.391 10.617 23.781 18.188 37.188zm-194.29 429.19c23.305 13.105 53.758 27.004 89.922 36.465l-120.93 45.66z"/>
 <path d="m906.21 264.89 31.367 9.7539 9.7578 31.395c1.6484 5.2656 6.0508 9.0664 11.5 9.9219 0.76172 0.12109 1.5195 0.17969 2.2773 0.17969 4.6328 0 8.9766-2.2188 11.707-6.0859l18.969-26.82 32.852 0.41797c5.4453 0.0625 10.492-2.9375 12.996-7.8438 2.5078-4.9102 2.0234-10.707-1.2812-15.152l-19.648-26.328 10.551-31.109 0.003906-0.015625c1.7617-5.2227 0.44141-10.883-3.4609-14.781-3.8984-3.8945-9.5625-5.2227-14.797-3.4531l-31.109 10.551-26.32-19.641c-4.4219-3.3047-10.223-3.8047-15.141-1.2969-4.918 2.5039-7.9297 7.4883-7.8594 13.012l0.41797 32.848-26.812 18.965c-4.5156 3.1875-6.7812 8.5586-5.9102 14.016 0.87891 5.4492 4.6914 9.8477 9.9414 11.469zm44.973-25.703c3.8242-2.7305 6.0742-7.168 6.0234-11.895l-0.15625-12.242 9.7852 7.3008c3.7773 2.832 8.7109 3.6328 13.254 2.1172l11.594-3.9297-3.9414 11.617c-1.5117 4.4805-0.72266 9.418 2.1055 13.203l7.3203 9.8125-12.27-0.15625c-4.6836-0.082031-9.1328 2.2031-11.902 6.0781l-7.0703 9.9961-3.6211-11.652c-1.3984-4.543-4.9414-8.0977-9.4844-9.5078l-11.691-3.6367z"/>
 <path d="m1133.6 763.2c-2.5156-4.9492-7.5508-7.9258-13.086-7.9062l-43.707 0.55859-25.246-35.699c-3.207-4.5312-8.6016-6.793-14.082-5.9297-5.4805 0.87109-9.9102 4.6992-11.559 10.004l-12.977 41.738-41.75 12.977c-5.2969 1.6484-9.125 6.0781-9.9961 11.559-0.87109 5.4805 1.4023 10.879 5.9414 14.09l35.688 25.238-0.55859 43.703c-0.074219 5.5547 2.957 10.574 7.9062 13.094 2.0938 1.0664 4.3477 1.5938 6.5898 1.5938 3.0547 0 6.0781-0.97656 8.6406-2.8906l35.031-26.141 41.395 14.035c5.2656 1.7852 10.965 0.45313 14.891-3.4727 3.9258-3.9219 5.2578-9.6289 3.4727-14.891l-14.035-41.395 26.129-35.02c3.332-4.4531 3.8359-10.293 1.3125-15.246zm-56.379 52.5 7.4609 22.004-21.969-7.4492c-4.5391-1.5547-9.5352-0.76562-13.344 2.0938l-18.621 13.895 0.29688-23.176c0.078125-4.8008-2.2148-9.3164-6.1133-12.062l-18.973-13.418 22.215-6.9062c4.5273-1.4141 8.0781-4.9648 9.5-9.5234l6.8984-22.188 13.398 18.945c2.7656 3.9258 7.2695 6.2148 12.027 6.1406l23.23-0.29688-13.875 18.594c-2.8828 3.8438-3.6719 8.8477-2.1328 13.348z"/>
 <path d="m333.56 149.96 40.43 28.59-0.63281 49.527c-0.066407 5.5625 2.9727 10.59 7.9297 13.117 2.1016 1.0703 4.3594 1.5977 6.6055 1.5977 3.0625 0 6.0977-0.97656 8.6758-2.8984l39.688-29.617 46.898 15.906c5.2734 1.7891 10.992 0.45312 14.934-3.4805 3.9414-3.9375 5.2773-9.6602 3.4883-14.941l-15.902-46.895 29.609-39.684c3.332-4.4609 3.8359-10.316 1.3086-15.281-2.5234-4.9648-7.6172-8.0039-13.133-7.9414l-49.516 0.63281-28.582-40.418c-3.2109-4.5547-8.6289-6.8477-14.129-5.9766-5.5039 0.86719-9.9531 4.707-11.613 10.035l-14.699 47.289-47.297 14.699c-5.3203 1.6562-9.1641 6.1055-10.027 11.609-0.86328 5.5156 1.4258 10.93 5.9648 14.129zm66.559-15.703c4.5391-1.418 8.0977-4.9727 9.5391-9.5547l8.6445-27.805 16.809 23.766c2.7227 3.8516 7.1523 6.1445 11.938 6.1445h0.11328l29.113-0.37109-17.406 23.324c-2.875 3.8438-3.6641 8.8477-2.125 13.363l9.3477 27.574-27.547-9.3438c-4.5391-1.5508-9.5469-0.76172-13.379 2.1055l-23.336 17.414 0.37109-29.082c0.074219-4.7969-2.2227-9.3125-6.1367-12.078l-23.773-16.812z"/>
 <path d="m817.34 570.11 4.7734 27.719c60.887-10.484 123.26-5.6914 180.37 13.852l9.1055-26.609c-61.555-21.066-128.73-26.246-194.25-14.961z"/>
 <path d="m559.03 720.38 19.887 19.883 32.637-32.633c46.629-46.633 104.29-81.062 166.74-99.566l-7.9883-26.965c-66.934 19.832-128.71 56.711-178.64 106.64z"/>
 <path d="m640.77 249.21c-3.2969-16.223-7.6758-32.371-13.027-47.996l-26.609 9.1094c4.9531 14.48 9.0195 29.449 12.074 44.488z"/>
 <path d="m645.53 278.34-27.906 3.4883c12.078 96.648-15.773 198.02-76.426 278.11l22.422 16.977c65.039-85.883 94.895-194.71 81.91-298.57z"/>
 <path d="m505.18 601.25-32.637 32.637 19.887 19.887 32.637-32.637c4.6328-4.6328 9.2266-9.4414 13.648-14.289l-20.781-18.953c-4.1328 4.5352-8.4258 9.0273-12.754 13.355z"/>
 <path d="m870.8 748.07c21.234 6.4609 42.633 15.035 63.609 25.484l12.543-25.172c-22.371-11.148-45.238-20.305-67.961-27.219z"/>
 <path d="m605.22 770.43-22.305 22.305 19.887 19.887 22.305-22.305c48.32-48.32 123.68-67.191 206.77-51.793l5.1289-27.652c-92.336-17.121-176.82 4.5898-231.79 59.559z"/>
 <path d="m463.84 265.27-25.172 12.543c10.59 21.254 19.254 42.945 25.75 64.473l26.926-8.125c-6.957-23.043-16.207-46.223-27.504-68.891z"/>
 <path d="m399.61 609.42 19.887 19.887 22.305-22.305c54.965-54.965 76.672-139.44 59.562-231.77l-27.652 5.125c15.398 83.082-3.4805 158.44-51.793 206.75z"/>
 <path d="m908.43 283.9 19.887 19.887-194.38 194.38-19.887-19.887z"/>
 <path d="m705.92 526.2-129.41 129.41-19.887-19.887 129.41-129.41z"/>
 <path d="m497.72 734.39-19.887-19.887 56.559-56.559 19.887 19.887z"/>
</svg>
