<?xml version="1.0" encoding="UTF-8"?>
<svg width="1200pt" height="1200pt" version="1.1" viewBox="0 0 1200 1200" xmlns="http://www.w3.org/2000/svg">
 <path d="m39.938 783.61c-12.141-3.5156-21.797-11.016-27.234-21.141-1.6406-3-3.7969-6.5156-4.8281-7.8281-5.8125-7.3125-9.8906-43.078-6.7031-58.547 2.0156-9.6094 4.5938-12.938 11.156-14.25 2.7656-0.5625 5.3906-2.5312 6.6562-5.0156 3.0469-5.8594 12.797-20.203 17.719-25.969 2.2969-2.7188 6.4219-7.6875 9.1406-11.016 12.703-15.703 36.844-37.547 61.922-56.062 9.2344-6.7969 19.734-15.047 23.297-18.328 3.6094-3.2344 13.359-9.375 21.703-13.594s19.641-10.5 25.125-13.969c9.9844-6.2812 29.203-15.656 32.203-15.656 0.89062 0 5.1562-1.6875 9.4688-3.7969 6.8906-3.3281 14.484-5.7656 18.234-5.8125 0.65625 0 3.5625-1.0312 6.4688-2.2031 6.2344-2.5781 8.0156-2.7656 8.0156-0.65625 0 0.84375-3.3281 3.3281-7.4062 5.5312s-10.219 5.7188-13.641 7.8281-10.078 4.9219-14.812 6.2812-17.812 7.6875-29.062 14.016c-11.297 6.375-21.188 11.578-21.984 11.578-1.875 0-20.953 12.141-23.016 14.625-0.84375 1.0312-8.5781 6.8906-17.156 13.031-8.5781 6.0938-17.016 12.375-18.703 13.969-1.7344 1.5469-9.9375 8.6719-18.234 15.797-14.625 12.516-32.859 32.484-45.797 50.25-10.922 15-16.594 23.484-16.875 25.406-0.14062 1.0312-0.70312 2.5781-1.2656 3.4219-1.6875 2.7656 0 32.531 2.3438 40.547 4.2656 14.766 9.6562 24.328 18 31.969 9.7969 8.9531 14.484 9.9844 39.141 8.8125 24.938-1.2188 40.031-3.6094 69.094-11.016 11.766-3 27.094-6.5156 33.984-7.8281s17.625-4.125 23.812-6.2344c9.9844-3.4219 32.625-9.5156 50.25-13.453 3.4219-0.75 9.0469-2.1562 12.469-3.0938s9.375-2.3438 13.172-3.1406 9.0938-2.1562 11.719-3c9.7969-3.1875 41.062-12.281 53.109-15.469 34.078-8.9531 43.125-11.578 55.359-15.938 48.141-17.203 98.766-39.094 120.1-51.984 4.7344-2.8594 19.828-10.969 33.516-18 27.375-14.109 44.953-24.703 59.297-35.906 5.1562-4.0312 17.766-13.078 28.078-20.156 11.812-8.1562 24-18.281 33.094-27.562 10.688-10.922 13.828-21.469 9.375-31.734-1.6875-3.8438-4.3125-11.25-5.8125-16.359-4.4062-14.812-7.3594-20.625-17.297-34.125-15.422-21-16.781-22.547-24.094-26.812-6.2812-3.6562-8.9062-4.1719-24.562-4.5938-9.6094-0.28125-21.703 0.14062-26.859 0.84375-5.1562 0.75-16.312 1.7812-24.797 2.25-8.4844 0.51562-15.891 1.2188-16.453 1.5469-1.5938 0.98438-38.812 7.0312-43.453 7.0781-2.2969 0-14.719 2.7188-27.562 6-45.188 11.578-71.859 18.703-85.031 22.688-24.891 7.5469-28.875 8.625-54.609 14.859-14.156 3.4219-35.156 9.7969-46.688 14.156-27.047 10.219-35.438 10.031-14.156-0.32812 20.766-10.125 44.297-18.281 66.703-23.156 7.7812-1.6875 23.391-6.2344 37.828-10.969 17.531-5.7656 30.844-9.7969 46.031-13.969 8.5781-2.3438 22.266-6.1875 30.422-8.4844 16.266-4.5938 29.297-7.4531 50.672-11.062 7.7344-1.3125 21.234-3.75 30.094-5.4375 8.8125-1.6875 20.766-3.4219 26.531-3.7969 5.7656-0.42188 17.625-1.5469 26.344-2.5312s25.031-1.4531 36.234-1.0781c19.312 0.70312 20.906 0.98438 30.656 5.9531 5.6719 2.8594 11.672 7.0312 13.359 9.2344s6 7.7812 9.6094 12.422c15.234 19.594 20.766 29.812 28.125 51.844 1.125 3.3281 16.594 4.3125 81.422 5.1094 46.641 0.5625 76.922 2.9531 91.266 7.1719 15.75 4.6406 42.984 8.9062 69.422 10.828 24.094 1.7812 51.375 4.5938 62.391 6.4219 5.1562 0.89062 15.328 2.5312 22.641 3.6562l13.266 2.0625-10.688 0.1875c-5.8594 0.09375-19.031-0.51562-29.25-1.4062-37.828-3.1875-55.547-4.8281-66.938-6.2344-6.4219-0.79688-20.812-2.2031-31.969-3.0938s-33.609-3-49.922-4.6875c-58.594-6-117.89-7.9688-135.47-4.4531-8.5781 1.7344-8.8594 1.9219-8.8594 6.8906 0 2.8125-0.42188 6.2344-0.9375 7.5938-0.84375 2.2031 2.5781 2.4844 31.781 2.4844 31.125 0 105.66 4.5 129.05 7.7812 17.016 2.3906 50.625 5.0625 52.828 4.2188 2.8594-1.0781 34.406 1.3125 55.547 4.2188 28.219 3.8906 51 8.7188 67.078 14.25 8.1562 2.8125 20.438 7.0312 27.281 9.375 18.328 6.2344 31.781 11.531 40.125 15.703 4.0312 2.0625 8.8125 3.7031 10.641 3.7031 2.8594 0 17.391 10.453 20.578 14.812 2.7656 3.75 0.75 8.625-6.8438 16.312-7.0781 7.1719-8.5781 8.0625-12.75 7.2188-2.8594-0.5625-8.1094 0.23438-13.406 2.0156-17.625 6-38.531 8.8594-87.469 11.859-21.891 1.3594-45.047 3.2344-51.469 4.2188-15.234 2.2969-160.31 2.1094-187.97-0.23438-11.156-0.9375-25.172-2.0625-31.219-2.4844-27.844-1.9219-68.766-7.9219-105.28-15.422-14.156-2.9062-32.297-6.3281-40.266-7.5938l-14.531-2.3438-29.156 14.953c-16.031 8.2031-31.641 16.5-34.641 18.375-7.0312 4.4062-44.531 22.594-46.641 22.594-2.2969 0-0.32812 9 3.6094 16.359 2.7188 5.0625 5.4844 7.3125 15 11.953 6.4219 3.1406 16.266 7.125 21.844 8.8125 5.5781 1.7344 18.234 5.625 28.078 8.6719s21.094 6 24.938 6.5625 12.656 2.2969 19.5 3.8438 20.531 3.6094 30.422 4.6406c9.8438 0.98438 20.766 2.4375 24.188 3.1875 6.4688 1.4062 32.625 5.25 47.578 7.0312 4.7344 0.5625 14.438 2.0156 21.609 3.2344 49.688 8.3906 219.66 13.219 328.55 9.375 31.078-1.125 33.75-1.4531 51.469-6.6094 21.844-6.375 31.219-10.734 39.609-18.516 3.375-3.0938 8.4375-7.3594 11.297-9.4688 7.9688-5.9062 11.344-10.125 13.688-17.391 1.1719-3.6562 4.4062-9.2812 7.1719-12.516 4.5469-5.2969 5.1562-7.3125 6.7031-21.422 1.875-17.625 1.1719-35.578-2.2031-56.109-3.2812-19.875-6.375-25.359-19.781-35.156-6.1875-4.5469-13.031-9.7969-15.141-11.719-3.75-3.375-17.766-10.781-39.047-20.625-9.1875-4.2656-21.75-7.5469-40.125-10.453-3.6562-0.5625-7.0312-1.6875-7.5-2.4844-1.0781-1.7812-2.6719-1.8281 16.594 0.89062 8.9531 1.2656 20.016 3.4219 24.656 4.7812 11.391 3.4219 49.922 21.844 54.75 26.203 2.1562 1.9219 8.0625 6.2812 13.125 9.6562 14.203 9.4688 20.484 16.406 22.688 25.078 2.6719 10.453 3 29.438 0.98438 60.281l-1.6875 26.203 3.5156 2.2969c2.5781 1.6875 3.2812 3.2812 2.625 5.8594-0.46875 1.9688-1.0781 4.5469-1.3125 5.8125-1.3594 7.3594-6.2812 14.438-14.25 20.484-4.875 3.7031-13.266 10.266-18.656 14.625s-14.297 9.75-19.734 11.953c-26.531 10.781-45.281 16.781-57.562 18.328-21.188 2.7188-145.26 3.7031-201.61 1.6406-62.859-2.3438-124.64-6.7969-152.39-11.016-5.5781-0.84375-16.828-2.25-25.031-3.0938s-26.109-3.375-39.797-5.5312c-13.688-2.2031-31.172-4.7344-38.906-5.625s-20.719-3.0938-28.875-4.8281-18.469-3.7969-22.969-4.5469c-4.4531-0.75-12.891-3.0938-18.703-5.1562s-17.25-5.625-25.406-7.9219c-16.547-4.5938-39.328-14.672-45-19.922-4.6406-4.2656-8.0156-11.953-8.0156-18.234v-4.7344l-5.8594 2.4844c-3.2344 1.3594-9 3.5625-12.891 4.875-3.8438 1.3125-7.7344 2.9062-8.5781 3.5156s-5.0625 2.3438-9.375 3.8438-9.1875 3.375-10.922 4.125c-12.656 5.7188-44.062 15.422-83.438 25.781-4.7344 1.2188-10.312 2.9062-12.469 3.6562-7.125 2.5781-56.672 16.781-76.453 21.938-10.734 2.7656-28.266 7.7344-39 11.016s-24.75 7.1719-31.219 8.625c-6.4219 1.4531-21.188 5.0625-32.766 8.0156-34.5 8.7656-52.594 11.391-83.438 12.094-20.531 0.46875-30 0.09375-35.297-1.4531zm873.71-148.82c0-3-55.781-10.688-106.08-14.672-32.438-2.5781-113.06-2.625-115.59-0.09375-2.0625 2.0625-1.4531 2.2969 15.75 5.0156 33.469 5.3438 69.797 8.2031 120.1 9.375 72.234 1.6875 85.781 1.7812 85.781 0.32813zm79.5-3.2812c9.8906-0.79687 26.203-1.9219 36.188-2.4375l18.188-1.0312-2.1562-6.1875c-1.2188-3.375-3.9844-14.719-6.1875-25.219-2.2031-10.453-4.3594-20.156-4.7812-21.562-0.9375-3.0938 3.4688-4.5469 8.3906-2.7188 4.3125 1.5938 7.4062 8.6719 8.7188 20.062 0.5625 4.7344 1.7344 14.391 2.6719 21.469l1.6875 12.891h6.8438c3.75 0 6.8438-0.375 6.8438-0.79688 0-0.42187-1.3594-6.9375-3.0469-14.438s-3.4688-17.156-3.9375-21.422c-2.3906-20.203-1.7344-18.891-11.438-22.5-13.875-5.1094-30.188-8.9062-57.234-13.172-32.391-5.1562-36.797-5.5312-70.172-6.4219-15.422-0.42188-35.438-1.7344-44.438-2.9531-16.031-2.2031-35.531-3.9375-81.094-7.1719-12.422-0.89063-37.828-1.5938-56.391-1.5938l-33.75 0.046874-12.234 11.203c-6.75 6.1406-19.641 15.938-28.641 21.703-9 5.8125-20.25 13.594-24.938 17.344-4.7344 3.75-13.312 9.9375-19.078 13.781s-10.5 7.5-10.547 8.1094c-0.046875 0.65625 2.25 1.1719 5.0156 1.1719s13.5 1.4531 23.766 3.2344c30.234 5.25 32.062 5.2969 43.125 1.4062 9.0469-3.1875 13.172-3.5156 47.344-3.9375 20.578-0.23438 43.734 0.14062 51.469 0.89062 7.7344 0.70313 18.938 1.4062 24.938 1.5938 23.438 0.60938 98.766 9.0469 111.94 12.562 3.2344 0.84375 14.438 2.9531 24.891 4.6875 10.453 1.6875 19.359 3.4688 19.828 3.9375s2.9531 0.42188 5.4844-0.09375c2.5312-0.51562 12.75-1.5938 22.641-2.3906zm28.359-9.0469c-1.9688-3.7969-9.3281-28.406-9.9375-33.141-0.375-3.1875 0.28125-3.9844 3.5625-4.3594 3.8906-0.46875 4.1719 0.14062 8.9531 18.328 2.7188 10.312 4.9688 19.5 4.9688 20.344 0 2.6719-6.0469 1.7344-7.5469-1.1719zm-37.031-15.422c-3.375-7.4062-6.375-14.062-6.6562-14.812s1.6875-1.3594 4.3594-1.3594c4.2656 0 5.25 0.84375 7.7812 6.6094 1.5938 3.6562 3.9844 10.312 5.2969 14.812 1.5938 5.4375 1.2188 8.2031-1.125 8.2031-2.9531 0-4.5938-2.2969-9.6562-13.5zm106.31 16.219c0.28125-0.28125-0.46875-3.8906-1.7344-8.0156-1.2188-4.125-2.8594-13.781-3.6562-21.422-0.75-7.6875-1.6875-14.25-1.9688-14.531-0.32812-0.32812-2.4844-1.0781-4.7344-1.6406-3.8438-0.98438-4.125-0.70313-3.6094 3.375 0.32812 2.4375 0.98438 12.375 1.5469 22.078 1.2188 22.312 1.4062 22.688 8.25 21.562 3-0.46875 5.6719-1.125 5.9531-1.4062zm14.062-7.0312c-0.5625-2.3438-1.4062-10.078-1.9688-17.203-1.1719-15.422-3.6562-18.656-3.6094-4.7344 0.046875 16.125 1.6875 26.203 4.2656 26.203 1.7344 0 2.0625-1.0781 1.3125-4.3125zm22.172-2.5781c0.89062-0.5625 1.4062-2.9531 1.125-5.2969s-0.60938-5.4844-0.70312-6.9375c-0.09375-1.5-3-4.125-6.4219-5.8594l-6.2344-3.1875v24.703l5.2969-1.1719c2.9062-0.65625 6-1.6406 6.9375-2.2031zm-1068.7 48.234c-2.3906-2.3906-2.4375-2.9531-0.14062-6.7969 1.3594-2.2969 5.2969-6.2812 8.7656-8.8594 3.4688-2.5781 12-9.75 18.984-15.984 7.7344-6.8906 14.062-11.297 16.219-11.297 1.9219 0 3.5156 0.65625 3.5156 1.4062 0 0.79688-7.7344 8.7188-17.156 17.672-9.4219 8.9062-17.156 16.781-17.156 17.438 0 2.2031 25.547-0.98438 36.656-4.5938 21.469-6.9844 78.281-26.906 92.812-32.531 8.1562-3.1406 18.328-7.0781 22.641-8.7188 4.3125-1.6406 14.484-5.5312 22.641-8.625s21.469-8.4844 29.625-11.953c13.266-5.6719 36.234-14.156 63.188-23.391 5.1562-1.7812 10.031-3.8438 10.828-4.5469 0.79688-0.75 2.6719-1.3594 4.0781-1.3594 2.2969 0 6.2344-1.5469 25.641-10.125 2.5781-1.125 13.453-5.5781 24.188-9.8438 10.734-4.2656 26.531-11.156 35.109-15.328l15.609-7.5938 8.9531-27.188c4.9219-14.953 8.7188-27.422 8.4375-27.703s-9.0469 1.5938-19.453 4.1719c-10.406 2.5781-20.062 4.6875-21.422 4.6875-6.2812 0-65.766 23.438-95.062 37.453-21.328 10.219-50.766 22.266-51.797 21.188-1.7344-1.7344 1.2656-3.5625 29.203-17.719 43.734-22.078 97.406-44.016 115.73-47.203 13.641-2.3906 46.969-11.062 48.75-12.703 0.79688-0.75 4.2188-1.3125 7.5938-1.3125s12.141-1.0312 19.594-2.2969c41.25-7.0781 84.188-12.047 98.062-11.344 7.9219 0.42188 15.422 1.5938 16.688 2.625 3.1406 2.5781 0.60938 7.9219-5.4375 11.344-2.5312 1.4531-4.5938 3.7031-4.5938 5.0156 0 2.8125-4.6875 5.5781-9.4219 5.5781-4.2656 0-27.562 11.625-32.719 16.312-2.1562 1.9688-5.8594 4.0312-8.2031 4.5938-2.3906 0.5625-11.859 4.5938-21.047 8.9531-9.1875 4.3594-20.625 9.7031-25.312 11.859-4.7344 2.1562-19.125 9-31.969 15.234-27.281 13.172-44.953 21.141-56.953 25.688-4.7344 1.7812-9.9844 3.9375-11.719 4.7344-13.406 6.1875-64.219 25.734-85.078 32.719-11.859 3.9844-29.578 10.781-42.844 16.5-23.016 9.8906-167.26 60.422-181.74 63.656-2.1562 0.46875-12.375 1.3125-22.734 1.9219-16.453 0.89062-19.172 0.70312-21.469-1.5938zm415.74-154.36c6.5625-2.7188 7.7344-4.2188 11.297-14.109 1.5469-4.3125 4.0781-10.594 5.5781-14.062 11.203-25.266 10.875-24.375 8.0625-23.578-1.4531 0.42188-5.3906 1.2656-8.6719 1.8281s-6.1875 1.8281-6.4688 2.8125c-3.8906 13.922-6.4219 21.562-8.7656 26.812-6 13.453-9.1406 22.5-7.8281 22.5 0.75 0 3.75-1.0312 6.75-2.25zm38.531-16.969c6.375-3.2344 6.9375-3.9844 7.4531-10.453 0.32812-3.8438 2.9531-11.719 5.8594-17.484 5.1094-10.172 5.2031-10.547 1.9219-10.5-7.8281 0.046875-9.7969 1.7344-14.25 12.188-2.4375 5.7188-7.1719 14.953-10.453 20.484s-5.9531 10.594-5.9531 11.25c0 1.4531 6.375-0.75 15.469-5.3906zm37.688-16.734c2.25-1.2188 3-3.2812 3-8.2031 0-3.6094 0.65625-8.8594 1.4531-11.625 1.3594-4.6875 1.1719-5.0625-2.2969-5.0625-3.1875 0-4.7344 2.0156-9.8906 12.703-7.9219 16.5-6 19.547 7.7344 12.188zm31.641-16.266c10.5-4.9219 11.484-5.7656 10.781-9.375-0.84375-4.3125-4.3594-4.9219-16.266-3-5.6719 0.9375-5.7188 1.0312-6.2344 9.3281-0.28125 4.6406-0.375 8.3906-0.1875 8.3906s5.5312-2.4375 11.906-5.3906zm-149.29 52.594c6.0938-18.75 14.906-35.344 19.125-36 1.8281-0.28125 3.2812-0.1875 3.2812 0.14062 0 0.375-3.4219 7.9688-7.5469 16.875-4.1719 8.9062-8.0156 17.438-8.5312 18.938-0.51562 1.5-2.3906 2.7188-4.0781 2.7188-2.25 0-2.8594-0.75-2.25-2.7188z"/>
</svg>
