<?xml version="1.0" encoding="UTF-8"?>
<svg width="1200pt" height="1200pt" version="1.1" viewBox="0 0 1200 1200" xmlns="http://www.w3.org/2000/svg">
 <path d="m495.1 1198.8c-7.7344-0.60938-18.797-2.3438-24.562-3.8906-5.8125-1.5469-14.016-3.2344-18.234-3.75-9-1.0781-50.859-10.641-65.625-14.953-5.5781-1.6406-10.922-3.8438-11.812-4.9219-2.25-2.7188 1.1719-17.016 4.2656-17.859 1.2188-0.32812 11.062-1.3125 21.891-2.1562 19.781-1.5469 35.906-3.7969 61.781-8.625 15.141-2.8125 37.594-11.297 43.547-16.453 2.0156-1.7812 6.7031-5.0625 10.406-7.3125 4.1719-2.5781 8.3906-6.7969 11.156-11.25 2.4375-3.9375 4.4531-7.4531 4.4531-7.875 0-2.2031 10.875-11.719 14.156-12.469 2.1562-0.46875 4.5-1.5938 5.25-2.5312 2.1562-2.6719 3.7031-49.219 3.75-112.55 0-46.312 0.375-58.922 1.7812-58.828 0.98438 0.09375 2.3438 0.23438 3 0.32812 1.9219 0.32812 2.8594 15.141 3.7969 59.156 0.46875 21.984 1.0781 40.406 1.4062 40.875 1.3594 2.1562 2.7188 24.844 2.7188 45.094v22.125h15.797l0.75-5.7188c0.42188-3.1406-0.14062-16.594-1.2656-29.812-1.7812-21.094-2.625-115.78-1.2656-139.92 1.0781-18.938 0.79688-61.734-0.5625-86.344-0.84375-15.422-1.5469-40.594-1.5469-55.875 0-25.922-0.23438-28.031-2.9531-31.734-1.9688-2.6719-2.7188-5.25-2.25-8.0156 0.375-2.25 1.5-8.8125 2.4375-14.578 1.9688-11.766 6.75-23.484 12.562-30.891 3.5156-4.5 17.766-15.422 20.062-15.422 0.51562 0 3.5625-1.875 6.7031-4.1719s9.0938-5.3906 13.172-6.9375 10.781-5.2969 14.953-8.3906c4.125-3.0938 12.891-8.4375 19.453-11.812 37.125-19.266 40.547-21.375 38.297-23.531-2.8594-2.7656-30-10.031-45.844-12.328-9.75-1.4062-18.141-2.9531-18.656-3.4688-1.4062-1.4062 13.547-1.0781 25.781 0.5625 13.922 1.875 39.609 7.7344 46.875 10.641 5.9531 2.3906 8.8125 6 7.5 9.4219-1.4062 3.7031-9.5156 8.9062-30.984 19.969-11.484 5.9062-22.125 11.812-23.672 13.172-4.2188 3.7031-14.719 9.3281-21.047 11.297-7.2656 2.25-29.953 15.703-35.297 20.953-6.6094 6.4688-11.672 18.141-14.672 33.938-4.3125 22.547-4.4062 23.812-2.8125 40.031 0.84375 8.3906 1.8281 50.297 2.25 93.141 1.4062 148.08 3.0938 216.37 5.4375 223.22 0.375 1.1719 1.0312 4.1719 1.3594 6.75 0.70312 4.8281 3.0938 8.7188 5.3438 8.7188 0.75 0 4.3594 3.0938 8.0156 6.8906 3.7031 3.7969 10.734 8.9062 15.609 11.391 4.9219 2.4844 10.547 5.7188 12.516 7.1719 3.75 2.7656 22.359 9.9375 34.312 13.219 3.7969 1.0312 7.4531 2.4844 8.2031 3.1875 0.84375 0.84375 5.8594-1.8281 13.5-7.125 12.281-8.5312 12.797-9.1406 36.141-40.312 11.297-15.141 13.922-25.078 13.875-52.688-0.046875-42.562-6.6094-61.547-25.547-74.016l-5.7656-3.7969-5.7188 3.0938c-5.8125 3.1406-10.594 10.406-15.047 22.734-3.2812 9.0469-4.0312 33.516-1.3594 43.453 2.1562 8.0625 2.1562 8.4844-0.51562 11.156-3.6094 3.6094-13.312 4.2188-39 2.5312-20.203-1.3594-24.422-2.5781-23.578-7.0781 0.23438-1.3125 0.89062-6.4688 1.4531-11.484 1.2656-11.484 12.281-38.953 19.828-49.5 5.6719-7.9219 24.75-26.297 27.281-26.297 0.79688 0 4.125-1.3125 7.3594-2.9531 7.6875-3.7969 18.281-4.5938 42.375-3.0469 14.297 0.89062 21.188 1.9688 25.266 3.8906 3.0938 1.4531 5.9531 3.0469 6.3281 3.5156s4.875 3.1875 9.9844 6 13.641 9.0938 18.938 13.875c5.2969 4.8281 11.766 10.641 14.344 13.031 9.2812 8.4375 17.344 24.891 21.188 43.172 5.25 25.172-2.25 54.328-21.562 83.625-9.7969 14.906-17.812 22.359-29.859 27.844-5.8594 2.6719-11.812 5.6719-13.312 6.7031-2.5312 1.7812-2.2969 2.1094 4.0312 5.8125 5.4844 3.2344 9.1406 4.125 20.156 4.9688 8.625 0.65625 17.672 2.4844 25.312 5.0156 11.203 3.75 11.859 4.2188 12.281 8.2969 0.60938 6.4219-4.5 10.688-17.531 14.484-6.0469 1.7812-13.828 4.0781-17.297 5.1094-14.531 4.3125-92.766 17.203-115.12 18.984-8.8594 0.70312-28.125 1.3125-42.797 1.3125-14.672 0.046875-40.594 0.98438-57.562 2.1094-32.906 2.2031-53.203 2.3906-75.797 0.60938zm54.047-8.25c16.594-1.7812 50.484-3.375 105.98-5.0156 14.062-0.42188 30.328-1.9219 43.5-4.0781 11.578-1.875 26.766-4.125 33.703-5.0156 30.984-3.9375 68.859-12.094 73.266-15.703 5.4844-4.5938 4.875-6.3281-3.4688-9.5625-4.4531-1.7344-13.922-3.6562-21.234-4.3594-10.734-1.0312-14.625-2.1094-20.906-5.625-8.8594-4.9688-9.75-4.9219-26.953 1.3125-6.5625 2.3906-14.766 4.3594-18.234 4.4062-3.4688 0-8.6719 0.70312-11.578 1.5-7.9219 2.2031-59.109-0.70312-68.719-3.8906-7.1719-2.3906-7.4531-2.6719-7.5938-7.7344-0.1875-6.1406 1.0312-6.4688 11.297-2.9531 7.5469 2.5781 25.219 2.0156 35.203-1.0781l5.625-1.7344-9.9844-1.0781c-5.4844-0.60938-12.75-2.1094-16.125-3.3281-3.375-1.2656-8.7656-3.0938-11.953-4.1719-6.6094-2.1562-14.906-6.1875-15.938-7.7812-0.375-0.5625-3.5625-2.5781-7.0312-4.4531-10.688-5.7188-18-11.062-21.609-15.797-3.2344-4.2188-4.2188-4.5938-14.016-5.4375-8.8594-0.75-11.812-0.42188-18.422 2.1094-7.3594 2.8125-8.4375 3.8438-15.844 15.328-4.4062 6.7969-9.8438 13.406-12.188 14.719-2.2969 1.3594-7.9219 5.25-12.516 8.6719-4.5469 3.4219-11.812 7.4531-16.125 8.9062s-9.1406 3.2812-10.688 4.0312c-5.8594 2.8594-10.641 4.125-23.391 6.1406-26.438 4.2188-45.844 6.375-64.359 7.1719-15.375 0.65625-19.266 1.2656-20.719 3.1406-2.8125 3.75-2.1562 8.7188 1.4062 10.172 5.8594 2.4375 49.359 11.25 66.328 13.406 9.2812 1.1719 20.016 3.1875 23.859 4.4531 11.672 3.8438 48.375 5.5781 69.469 3.2812zm158.63-50.578c13.125-1.5469 22.734-4.9219 44.578-15.703 14.719-7.2656 18.375-9.75 25.406-17.438 7.3125-7.9688 17.156-22.969 23.016-35.016 1.125-2.2969 3.8438-11.062 6-19.406 3.7969-14.625 3.8906-15.609 2.1562-26.672-4.3125-27.516-11.016-43.266-22.359-52.734-3.375-2.8125-7.5-6.6094-9.1406-8.3906-4.7812-5.2969-20.438-16.5-30.609-21.891-8.25-4.3594-10.547-4.9688-18.938-4.8281l-9.5625 0.14062 5.7656 1.8281c7.875 2.4844 21.984 12.328 27.328 19.078 6.2812 7.9219 10.359 18.984 11.906 32.156 0.42188 3.4688 1.0781 7.4531 1.5 8.8594 1.3125 4.4062 0.75 35.062-0.84375 44.906-2.3906 14.859-11.484 32.719-22.688 44.578-2.5781 2.7188-6.2812 7.0312-8.25 9.5156-10.266 13.266-12.328 15.469-17.391 18.609-3.0469 1.875-10.406 6.7031-16.359 10.734-5.9531 4.0312-13.922 8.1094-17.672 9.0938l-6.8438 1.7812 8.4375 1.6875c4.6406 0.9375 9.7031 1.4062 11.25 1.0312 1.5469-0.32812 7.5469-1.1719 13.359-1.875zm-28.734-116.95c-2.6719-8.5781-3.75-19.875-3.0469-32.062l0.75-13.5-13.5-14.625-8.625 10.5 3.0469 1.5c3.4688 1.7344 15.188 17.766 14.156 19.359-1.7812 2.8594-6.5156 0.32812-12.609-6.7969l-6.7031-7.8281-3.2344 7.3594c-5.25 11.859-7.0781 18.234-8.1562 28.266l-0.98438 9.4219 16.641 0.46875c9.1406 0.23438 18.141 0.5625 19.969 0.75 2.8594 0.28125 3.1875-0.14062 2.3438-2.8594zm3.1875-59.672c1.4531-4.7812 1.3125-5.5781-1.6406-8.4844-2.8594-2.8594-3.7031-3.0469-6.9844-1.5469-4.3125 1.9688-4.5938 3-1.5469 5.5312 1.2188 0.98438 3.1406 3.6094 4.2656 5.7656 2.7188 5.2969 3.9844 5.0156 5.9062-1.3125zm13.5-16.547c2.625-1.9688 2.5781-2.0625-0.9375-2.0625-4.8281 0-8.2969 1.4062-7.3125 2.9531 1.1719 1.875 5.1562 1.4531 8.25-0.89062zm-140.11-58.5c-0.46875-8.7188-0.84375-39.984-0.79688-69.469 0.046875-53.25-0.46875-63.375-3.4688-65.297-1.0312-0.65625-1.5469-9.7031-1.5938-27.375-0.046875-35.016-0.79688-37.219-16.5-50.203-6.3281-5.25-12.047-10.359-12.609-11.344s-6.8906-6.2344-14.016-11.625-16.594-13.219-21-17.344-10.594-9.0938-13.781-11.016-8.0625-5.6719-10.875-8.3906-8.2969-6.5156-12.188-8.4375c-9.0469-4.5-9.6094-8.2969-1.5469-10.922 6.8906-2.25 46.219-8.4375 71.672-11.25 6.75-0.75 9.7031-1.6406 9.4688-2.8594-0.65625-3.0469-0.42188-62.859 0.23438-64.922 1.1719-3.7031 2.9062-73.5 2.4375-100.17-0.23438-14.625-1.0312-27.75-1.7812-29.156-0.75-1.3594-1.9219-6.4688-2.5781-11.25-0.70312-4.8281-1.9688-13.5-2.8125-19.312-2.4844-16.5-2.0625-75.328 0.65625-90.562 2.4844-14.016 4.7812-30.516 4.875-35.578 0.046875-1.8281 2.1562-5.3906 4.6875-7.9219 4.5469-4.5469 5.0156-4.6406 20.484-5.6719 15.234-0.98438 15.797-1.125 15.047-3.9844-0.42188-1.6406-0.79688-5.8125-0.79688-9.3281 0-5.1562-0.60938-6.6094-3.0938-7.7344-4.4062-1.9688-15.938-16.828-20.766-26.672-2.625-5.4375-5.4375-15.422-7.875-28.078-3.3281-17.25-3.7031-21.891-3-37.922 0.89062-21.094 2.7188-29.719 8.2969-38.766 2.2031-3.5625 3.9844-6.8438 3.9844-7.2656s2.2969-4.6406 5.0625-9.3281c3.375-5.625 5.9531-8.5312 7.7344-8.5312 2.5312 0 2.5781 0.23438 0.42188 5.25-1.2188 2.9062-3.8438 9.7031-5.8125 15.094s-4.125 10.547-4.8281 11.438c-4.125 5.1562-4.5938 45.422-0.70312 64.406 1.2656 6.1875 2.9531 14.719 3.7969 18.938 1.7812 9.1875 5.4844 17.625 11.766 26.953l4.5938 6.8438 0.79688-13.031c0.98438-16.172 3-23.344 6.9844-24.844 3.6094-1.3125 7.6406-0.46875 8.3906 1.7812 0.60938 1.7344-5.1562 55.078-6.5625 60.656-0.84375 3.3281-0.60938 3.4219 6.5156 3.4688 4.0781 0.046875 9.9375 1.0312 13.031 2.25s9.3281 2.6719 13.828 3.3281c9 1.2188 17.016 6.4219 20.297 13.078 3.4688 7.0781 6.0938 27.094 6.7031 51.516 0.60938 23.344 0.23438 27.234-3.75 40.266-1.4531 4.6875-3.1875 41.25-3 62.906 0.14062 17.297 1.5938 33.234 4.0312 44.906 7.5938 36 9.1875 58.359 5.5781 77.391-1.1719 6.0938-2.4375 22.734-2.8125 37.031-0.84375 30.422-1.9688 41.531-4.3594 43.547-1.1719 0.98438-7.6875 0.98438-20.531 0.046875-39.609-2.9531-53.438-3.2344-73.828-1.5469-29.953 2.4375-61.875 6.4688-73.266 9.2344l-3.4219 0.84375 3.75 2.4844c2.0625 1.3594 5.8125 4.7344 8.3438 7.4531 2.4844 2.7656 6.0938 5.8125 7.9688 6.75 4.5469 2.3438 5.7656 3.3281 17.484 14.109 5.4844 5.0625 12.844 11.344 16.312 13.969 11.438 8.5781 39.516 38.203 42.562 44.906 2.4844 5.4844 2.9062 9.4219 3.0938 29.484 0.14062 12.75 1.0312 33.609 2.0156 46.312 1.7812 23.156 1.0312 107.67-1.125 127.03-0.79688 7.1719-1.4062 8.4844-3.9375 8.8594-2.8594 0.42188-3.0469-0.28125-3.8438-15.422zm69.891-332.72c0.5625-21.234 1.5938-35.297 3.0938-42.094 2.8594-13.078 3.4219-35.156 1.1719-49.547-0.9375-6.1875-2.7188-17.531-3.8906-25.266-3.375-21.844-3.6094-24-4.5469-44.906-1.7812-39.375-1.2188-57.891 2.2031-70.875 2.8594-10.969 3.0469-14.016 2.2969-37.922-1.0312-32.625-3.4219-45.516-9.3281-50.906-3.5625-3.2344-8.25-4.6875-12.891-4.0781-0.51562 0.09375-3.9844-0.84375-7.7344-2.0156-3.9375-1.2656-15.141-2.4844-26.719-2.9531-26.812-1.125-27.281-0.79688-29.297 20.625-0.42188 4.2656-1.3594 12.141-2.1094 17.531-0.75 5.3906-1.6406 11.719-1.9219 14.016-3.75 28.922-2.7656 110.44 1.7812 149.48 1.9219 16.359 2.3906 33.703 2.3906 88.734l0.046875 68.391 12.656-0.28125c14.719-0.32813 41.203 1.3594 58.266 3.7969 6.5625 0.9375 12.375 1.3594 12.844 0.89063 0.51562-0.42188 1.3125-15.141 1.7812-32.672zm-55.781-268.69c-1.875-2.0156-4.0781-6-4.9688-8.9062-2.3906-7.9688-6.2812-11.719-12.469-11.859-3.7031-0.09375-5.3906-0.84375-5.7188-2.4844-0.32812-1.7344 0.9375-2.5781 4.9688-3.2344 9.8438-1.6875 21.188 5.3438 25.031 15.516 2.625 6.8438 4.5 6.6562 7.5469-0.70312 2.9062-7.0312 12.375-9.2812 18.562-4.4531 2.6719 2.1094 4.8281 2.5312 9.6562 1.9219l6.2344-0.79688-3.4219 3.7031c-3.8906 4.2188-10.359 4.9219-15.094 1.6406-2.8125-1.9688-3.0938-1.8281-5.1094 3.2812-2.7656 6.8906-7.6406 10.031-15.562 10.031-5.0156 0-7.0312-0.75-9.7031-3.6562zm12.234-78c-0.60938-0.98438 0.60938-2.8594 2.9062-4.5469 7.125-5.2969 16.406-15.469 19.312-21.094 8.9531-17.578 10.922-56.344 4.6875-93.422-3.8906-23.156-6.2812-31.688-12.844-45.609-2.8594-6.0938-5.25-14.109-6.2812-21.047-0.89062-6.1875-2.0625-12.703-2.5312-14.484l-0.89062-3.2344-5.8125 4.2188c-3.1875 2.2969-7.7812 7.0781-10.219 10.594s-4.875 6.375-5.4844 6.375c-2.4844 0-2.625-1.9219-0.60938-7.8281 3.1406-9.2344 16.453-18.797 26.25-18.797 5.5312 0 4.7812-1.5938 10.641 22.922 1.6406 6.8438 3.5156 13.453 4.2188 14.719 6.5625 11.953 10.219 23.25 14.766 45.844 4.3125 21.234 5.2031 28.875 5.6719 47.906 0.5625 22.031 0.42188 23.016-3.7969 37.219-5.3906 18-13.594 29.344-26.672 37.031-8.9062 5.2031-11.672 5.9062-13.266 3.2812z"/>
</svg>
