<?xml version="1.0" encoding="UTF-8"?>
<svg width="1200pt" height="1200pt" version="1.1" viewBox="0 0 1200 1200" xmlns="http://www.w3.org/2000/svg">
 <path d="m134.26 410.95 24.887 41.605-39.516 28.078c-1.9805 1.4336-2.8945 3.9219-2.3086 6.2969 0.58594 2.375 2.5508 4.1562 4.9727 4.5039l48 6.4688-2.6641 48.406c-0.13281 2.4531 1.2461 4.7422 3.4805 5.7695 2.2305 1.0312 4.8672 0.59375 6.6484-1.1016l35.027-33.527 36.168 32.281v-0.003906c1.8359 1.6523 4.4961 2.0078 6.7031 0.89844 2.2031-1.1094 3.5078-3.4531 3.2812-5.9141l-4.3789-48.277 47.797-8.1719-0.003907 0.003906c2.4258-0.41797 4.3516-2.2734 4.8594-4.6836 0.50391-2.4062-0.51172-4.8828-2.5664-6.2383l-40.43-26.629 23.41-42.457 0.003906 0.003906c1.1914-2.1602 0.94141-4.8281-0.62891-6.7266-1.5703-1.8984-4.1445-2.6445-6.4883-1.8789l-46.094 15-18.59-44.773h0.003906c-1.0742-2.1641-3.2383-3.5781-5.6523-3.6953-2.4609 0.046875-4.6406 1.5859-5.5078 3.8867l-17.016 45.406-46.598-13.391v0.003906c-2.3672-0.67969-4.9062 0.16016-6.4062 2.1094-1.5039 1.9531-1.6641 4.6289-0.39453 6.7461zm55.414 17.594v-0.003906c3.0117 0.87109 6.1836-0.72266 7.2852-3.6602l13.621-36.359 14.891 35.867c1.2031 2.8867 4.418 4.3633 7.3906 3.3984l36.926-12-18.758 33.996c-1.5117 2.7422-0.66016 6.1836 1.957 7.9062l32.398 21.371-38.27 6.5391 0.003907 0.003907c-3.0586 0.52734-5.207 3.3008-4.957 6.3945l3.4922 38.676-28.969-25.848c-2.332-2.0898-5.8828-2.0312-8.1484 0.13281l-28.043 26.855 2.1367-38.773c0.17188-3.1211-2.0859-5.8555-5.1836-6.2734l-38.473-5.1836 31.645-22.5c2.5469-1.8164 3.2734-5.2852 1.668-7.9688l-19.887-33.289z"/>
 <path d="m315.35 539.82c180.25 69.781 271.62 240.25 271.62 506.58 0 3.3164 2.6836 6 6 6 3.3125 0 6-2.6836 6-6 0-271.81-93.973-446.02-279.28-517.79v0.003906c-3.0703-1.1289-6.4766 0.41016-7.6641 3.457-1.1836 3.0508 0.29297 6.4844 3.3203 7.7266z"/>
 <path d="m520.12 1052.4c1.5898 0 3.1172-0.62891 4.2422-1.7539 1.125-1.1289 1.7578-2.6523 1.7578-4.2461 0-197.38-111.05-328.62-312.67-369.6v0.003906c-3.25-0.66406-6.418 1.4336-7.082 4.6797-0.66016 3.2461 1.4336 6.418 4.6797 7.0781 195.45 39.684 303.07 166.8 303.07 357.8h0.003907c-0.011719 1.5977 0.61719 3.1328 1.7422 4.2656 1.1289 1.1328 2.6602 1.7695 4.2578 1.7695z"/>
 <path d="m455.36 1052.4h0.17969c1.5938-0.042969 3.1016-0.71875 4.1953-1.875s1.6836-2.6992 1.6367-4.293c-2.1836-76.895-45.07-139.59-124.04-181.29v0.003907c-1.4141-0.85156-3.1133-1.082-4.7031-0.64062s-2.9258 1.5195-3.6992 2.9805c-0.76953 1.457-0.90234 3.1719-0.37109 4.7305 0.53125 1.5625 1.6797 2.8359 3.1797 3.5234 52.234 27.602 115.04 79.668 117.6 171.02 0.089844 3.2578 2.7656 5.8477 6.0234 5.832z"/>
 <path d="m300.57 860.69c2.875-0.007812 5.3359-2.0469 5.8789-4.8672 0.54297-2.8203-0.99219-5.6289-3.6562-6.6992-49.586-19.125-101.92-30.168-155-32.699-1.6016-0.15234-3.1953 0.37109-4.3945 1.4453-1.2031 1.0703-1.9023 2.5938-1.9297 4.2031-0.18359 3.3086 2.3438 6.1406 5.6523 6.3242 51.777 2.4766 102.82 13.234 151.2 31.863 0.71484 0.28906 1.4844 0.4375 2.2539 0.42969z"/>
 <path d="m911.7 506.94 47.785 8.1602-4.3672 48.289v-0.003906c-0.22266 2.4531 1.0781 4.7969 3.2773 5.9023 2.2031 1.1055 4.8555 0.75781 6.6953-0.88672l36.168-32.281 35.027 33.527v0.003906c1.7773 1.7031 4.418 2.1445 6.6562 1.1172 2.2383-1.0312 3.6211-3.3242 3.4844-5.7852l-2.6758-48.406 48-6.4805h-0.003906c2.4219-0.34375 4.3945-2.125 4.9844-4.5 0.58594-2.375-0.32422-4.8672-2.3047-6.3008l-39.504-28.078 24.91-41.617c1.2617-2.1133 1.1055-4.7852-0.39453-6.7344-1.5039-1.9531-4.043-2.7891-6.4102-2.1094l-46.598 13.379-17.004-45.395 0.003907-0.003907c-0.86328-2.3086-3.0547-3.8555-5.5234-3.8984-2.4375 0.035156-4.6406 1.4766-5.6484 3.6953l-18.59 44.773-46.066-15.035c-2.3438-0.76172-4.9102-0.011719-6.4766 1.8867-1.5664 1.8984-1.8164 4.5586-0.62891 6.7148l23.41 42.457-40.477 26.676h0.003906c-2.0664 1.3555-3.0859 3.8359-2.5781 6.25 0.50781 2.418 2.4453 4.2734 4.8789 4.6836zm49.414-30.648h0.003907c2.6094-1.7266 3.457-5.168 1.9414-7.9102l-18.754-33.984 36.926 12h-0.003907c2.9805 0.97266 6.207-0.51172 7.4062-3.4062l14.879-35.867 13.633 36.359c1.0938 2.9336 4.2617 4.5312 7.2695 3.6719l37.32-10.727-19.934 33.324h0.003907c-1.6133 2.6875-0.87891 6.1641 1.6797 7.9766l31.645 22.488-38.484 5.1953c-3.1016 0.42188-5.3555 3.1562-5.1836 6.2773l2.1367 38.773-27.996-26.844c-2.2656-2.1641-5.8164-2.2227-8.1484-0.13281l-29.055 25.836 3.6016-38.664c0.28125-3.1172-1.8828-5.9297-4.9688-6.457l-38.281-6.5391z"/>
 <path d="m537.5 269.69 47.785 8.1602-4.3672 48.289c-0.22266 2.4531 1.0781 4.793 3.2773 5.8984 2.1992 1.1094 4.8555 0.75781 6.6914-0.88281l36.18-32.281 35.02 33.527c1.1172 1.0664 2.6055 1.6602 4.1484 1.6562 1.6523 0.003906 3.2266-0.67188 4.3633-1.8672 1.1367-1.1992 1.7266-2.8086 1.6367-4.457l-2.6367-48.418 48-6.4805c2.4219-0.34375 4.3906-2.125 4.9805-4.4961 0.58594-2.375-0.32422-4.8711-2.3047-6.3047l-39.516-28.078 24.84-41.641c1.2656-2.1172 1.1094-4.793-0.39844-6.7461-1.5039-1.9492-4.0508-2.7852-6.418-2.0977l-46.539 13.332-17.016-45.395v-0.003906c-0.85938-2.3047-3.043-3.8516-5.5078-3.8984-2.4336 0.050782-4.6289 1.4844-5.6523 3.6953l-18.59 44.773-46.105-15h0.003906c-2.3438-0.76562-4.9141-0.019531-6.4844 1.8789-1.5742 1.8984-1.8242 4.5664-0.62891 6.7227l23.426 42.445-40.492 26.738c-2.0625 1.3516-3.0859 3.832-2.5781 6.2461 0.50391 2.4141 2.4375 4.2734 4.8711 4.6836zm49.418-30.648c2.6133-1.7227 3.4648-5.1641 1.9531-7.9062l-18.754-33.996 36.91 12c2.9805 0.97266 6.207-0.51172 7.4062-3.4102l14.891-35.867 13.621 36.359c1.1211 2.9141 4.2891 4.4766 7.2812 3.6016l37.371-10.621-19.934 33.324c-1.6133 2.6914-0.87891 6.168 1.6797 7.9805l31.645 22.488-38.473 5.1836c-3.1094 0.41406-5.375 3.1562-5.1953 6.2891l2.1484 38.773-28.055-26.855-0.003907-0.003906c-2.2578-2.1602-5.8008-2.2227-8.1328-0.14453l-28.969 25.848 3.4922-38.664v0.003906c0.28125-3.1211-1.8828-5.9336-4.9688-6.457l-38.281-6.5391z"/>
 <path d="m659.18 1052.4c1.5898 0 3.1172-0.62891 4.2422-1.7539 1.125-1.1289 1.7578-2.6523 1.7578-4.2461 0-266.4 91.379-436.8 271.61-506.61v0.003906c1.5312-0.53906 2.7812-1.6758 3.4648-3.1523 0.67969-1.4727 0.73047-3.1641 0.14453-4.6797-0.58594-1.5156-1.7617-2.7266-3.2617-3.3594-1.4961-0.63281-3.1836-0.62891-4.6797 0.007812-185.32 71.793-279.28 246-279.28 517.79 0 1.5938 0.63281 3.1172 1.7578 4.2461 1.125 1.125 2.6523 1.7539 4.2422 1.7539z"/>
 <path d="m574.56 683.57c-1.5195 0.46875-2.793 1.5234-3.5391 2.9297-0.74609 1.4062-0.89844 3.0508-0.42969 4.5703 8.1484 26.508 15.602 54.254 22.164 82.488 0.62891 2.7148 3.043 4.6406 5.832 4.6445 0.47656 0.007812 0.95312-0.050781 1.4141-0.16797 3.2227-0.75391 5.2266-3.9766 4.4766-7.1992-6.6133-28.488-14.148-56.52-22.367-83.293-0.46875-1.5312-1.5273-2.8125-2.9453-3.5586-1.418-0.74609-3.0781-0.89453-4.6055-0.41406z"/>
 <path d="m469.63 432c0.95703 2.1953 3.125 3.6094 5.5195 3.6016 0.82422 0.011719 1.6445-0.15234 2.3984-0.48047 1.4648-0.625 2.6211-1.8047 3.2148-3.2812 0.59375-1.4766 0.57812-3.1289-0.046875-4.5938-12.238-28.715-21.816-52.355-30.145-74.398-1.168-3.1016-4.6289-4.668-7.7305-3.4961-3.1016 1.168-4.668 4.6289-3.5 7.7344 8.3398 22.258 17.977 46.043 30.289 74.914z"/>
 <path d="m558.27 652.32c0.82812 2.457 3.1406 4.1016 5.7344 4.0781 0.64844 0 1.293-0.10938 1.9062-0.32422 3.1367-1.0586 4.8242-4.457 3.7695-7.5938-22.691-67.199-48.996-128.4-72.191-182.32-1.3242-3.0469-4.8672-4.4414-7.9141-3.1133-3.0469 1.3242-4.4414 4.8672-3.1133 7.9141 23.062 53.676 49.27 114.56 71.809 181.36z"/>
 <path d="m675.29 721.56c2.6875 0 5.0469-1.7891 5.7695-4.3789 10.609-38.016 20.52-70.98 30.312-100.8 0.98828-3.1328-0.73047-6.4766-3.8516-7.5-3.1211-1.0234-6.4844 0.64844-7.5469 3.7578-9.8516 30-19.812 63.098-30.469 101.29-0.42578 1.5312-0.22656 3.1719 0.55469 4.5586 0.78516 1.3867 2.0859 2.4062 3.6211 2.832 0.52344 0.15625 1.0625 0.23438 1.6094 0.23828z"/>
 <path d="m716.98 581.28c3.1094 1.1172 6.5391-0.49219 7.668-3.6016 16.164-45.207 35.051-89.398 56.555-132.32 11.762-24.324 23.93-49.465 37.355-81.602v0.003906c1.2812-3.0586-0.16406-6.5781-3.2188-7.8555-3.0586-1.2812-6.5781 0.16406-7.8555 3.2227-13.297 31.801-25.391 56.797-37.078 80.977h-0.003906c-21.695 43.305-40.746 87.887-57.047 133.5-0.53906 1.4961-0.46094 3.1484 0.21875 4.5898 0.67969 1.4414 1.9062 2.5508 3.4062 3.0898z"/>
 <path d="m732 1052.4c1.5898 0 3.1172-0.62891 4.2422-1.7539 1.125-1.1289 1.7578-2.6523 1.7578-4.2461 0-191.05 107.64-318.12 303.07-357.8v0.003906c3.25-0.66406 5.3438-3.8359 4.6836-7.082-0.66406-3.2461-3.8359-5.3438-7.082-4.6797-201.6 40.969-312.67 172.21-312.67 369.56 0 1.5938 0.63281 3.1172 1.7578 4.2461 1.125 1.125 2.6523 1.7539 4.2422 1.7539z"/>
 <path d="m1009 836.27c-0.39844-1.543-1.3945-2.8672-2.7656-3.6719-1.375-0.80859-3.0117-1.0391-4.5547-0.63672-131.14 33.852-208.01 111.97-210.88 214.32-0.046875 1.5898 0.54297 3.1328 1.6367 4.293 1.0938 1.1562 2.6016 1.8281 4.1953 1.875h0.16797c3.25 0 5.9102-2.5859 6-5.832 2.6992-96.613 76.297-170.62 201.88-203.02 1.5469-0.39844 2.875-1.3945 3.6836-2.7695 0.8125-1.375 1.0391-3.0195 0.63672-4.5625z"/>
 <path d="m1037.1 836.4c0.37109 0.003906 0.73828-0.027344 1.1016-0.09375 22.086-4.0469 44.402-6.707 66.816-7.957 3.3086-0.19141 5.832-3.0273 5.6406-6.3359-0.22266-3.2891-3.0391-5.7969-6.3359-5.6406-22.918 1.2773-45.734 3.9922-68.316 8.125-3.0586 0.55469-5.1914 3.3555-4.9062 6.4531 0.28516 3.0977 2.8906 5.4609 6 5.4492z"/>
 <path d="m633.7 372.17c0-3.3125-2.6875-6-6-6s-6 2.6875-6 6v225.36c0 3.3125 2.6875 6 6 6s6-2.6875 6-6z"/>
 <path d="m627.7 625.49c-3.3125 0-6 2.6875-6 6v63.48c0 3.3125 2.6875 6 6 6s6-2.6875 6-6v-63.48c0-1.5898-0.63281-3.1172-1.7578-4.2422s-2.6484-1.7578-4.2422-1.7578z"/>
 <path d="m148.97 662.59c1.5898 0 3.1211-0.62891 4.2461-1.7539l20.195-20.207c1.1602-1.1172 1.8203-2.6562 1.832-4.2656 0.015624-1.6094-0.61719-3.1562-1.7539-4.293-1.1406-1.1367-2.6875-1.7734-4.2969-1.7578s-3.1445 0.67578-4.2617 1.832l-20.195 20.207h-0.003906c-1.707 1.7148-2.2188 4.293-1.293 6.5312s3.1094 3.6992 5.5312 3.707z"/>
 <path d="m90 721.56c1.5938 0.003906 3.1211-0.625 4.2461-1.75l20.211-20.207c1.1562-1.1211 1.8164-2.6562 1.832-4.2656 0.011719-1.6094-0.62109-3.1562-1.7578-4.293-1.1406-1.1406-2.6875-1.7734-4.2969-1.7578-1.6094 0.011719-3.1445 0.67188-4.2617 1.832l-20.219 20.207c-1.7148 1.7188-2.2227 4.2969-1.293 6.5352 0.92969 2.2383 3.1133 3.6992 5.5391 3.6992z"/>
 <path d="m144.73 699.6 20.195 20.207h0.003907c2.3516 2.2734 6.0938 2.2422 8.4102-0.074219 2.3125-2.3125 2.3477-6.0547 0.070312-8.4102l-20.195-20.207c-2.3516-2.2734-6.0938-2.2422-8.4102 0.070312-2.3125 2.3164-2.3477 6.0586-0.074219 8.4141z"/>
 <path d="m105.83 660.7c2.3555 2.2734 6.0977 2.2422 8.4102-0.074218 2.3164-2.3125 2.3477-6.0547 0.074219-8.4102l-20.066-20.062c-2.3398-2.3477-6.1406-2.3477-8.4883-0.007813-2.3477 2.3438-2.3477 6.1445-0.003906 8.4922z"/>
 <path d="m139.86 861.82c0-3.3125-2.6875-6-6-6s-6 2.6875-6 6v13.992c0 3.3125 2.6875 6 6 6s6-2.6875 6-6z"/>
 <path d="m133.86 896.64c-3.3125 0-6 2.6875-6 6v13.992c0 3.3125 2.6875 6 6 6s6-2.6875 6-6v-13.992c0-1.5938-0.63281-3.1172-1.7578-4.2422s-2.6484-1.7578-4.2422-1.7578z"/>
 <path d="m147.28 883.2c-3.3164 0-6 2.6875-6 6 0 3.3164 2.6836 6 6 6h13.992c3.3125 0 6-2.6836 6-6 0-3.3125-2.6875-6-6-6z"/>
 <path d="m106.45 883.2c-3.3164 0-6 2.6875-6 6 0 3.3164 2.6836 6 6 6h13.895c3.3125 0 6-2.6836 6-6 0-3.3125-2.6875-6-6-6z"/>
 <path d="m966.62 889.2v13.992c0 3.3125 2.6836 6 6 6 3.3125 0 6-2.6875 6-6v-13.992c0-3.3125-2.6875-6-6-6-3.3164 0-6 2.6875-6 6z"/>
 <path d="m978.62 944.04v-14.039c0-3.3125-2.6875-6-6-6-3.3164 0-6 2.6875-6 6v14.039c0 3.3164 2.6836 6 6 6 3.3125 0 6-2.6836 6-6z"/>
 <path d="m1e3 910.63h-13.98c-3.3125 0-6 2.6836-6 6 0 3.3125 2.6875 6 6 6h13.98c3.3164 0 6-2.6875 6-6 0-3.3164-2.6836-6-6-6z"/>
 <path d="m959.11 910.63h-13.887c-3.3125 0-6 2.6836-6 6 0 3.3125 2.6875 6 6 6h13.887c3.3125 0 6-2.6875 6-6 0-3.3164-2.6875-6-6-6z"/>
 <path d="m1082.6 331.62c1.5898 0 3.1172-0.63281 4.2422-1.7578s1.7578-2.6523 1.7578-4.2422v-13.98c0-3.3125-2.6875-6-6-6-3.3164 0-6 2.6875-6 6v13.98c0 1.5898 0.62891 3.1172 1.7539 4.2422s2.6523 1.7578 4.2461 1.7578z"/>
 <path d="m1082.6 372.46c1.5898 0 3.1172-0.63281 4.2422-1.7578s1.7578-2.6523 1.7578-4.2422v-13.992c0-3.3164-2.6875-6-6-6-3.3164 0-6 2.6836-6 6v13.992c0 1.5898 0.62891 3.1172 1.7539 4.2422s2.6523 1.7578 4.2461 1.7578z"/>
 <path d="m1110 333.05h-13.992c-3.3125 0-6 2.6875-6 6 0 3.3164 2.6875 6 6 6h13.992c3.3125 0 6-2.6836 6-6 0-3.3125-2.6875-6-6-6z"/>
 <path d="m1055.2 345.05h13.895c3.3164 0 6-2.6836 6-6 0-3.3125-2.6836-6-6-6h-13.895c-3.3125 0-6 2.6875-6 6 0 3.3164 2.6875 6 6 6z"/>
 <path d="m807.16 194.8c1.5898 0 3.1172-0.63281 4.2422-1.7578s1.7578-2.6523 1.7578-4.2422v-13.992c0-3.3125-2.6875-6-6-6s-6 2.6875-6 6v13.992c0 1.5898 0.63281 3.1172 1.7578 4.2422s2.6523 1.7578 4.2422 1.7578z"/>
 <path d="m807.16 235.62c1.5898 0 3.1172-0.63281 4.2422-1.7578s1.7578-2.6523 1.7578-4.2422v-13.992c0-3.3164-2.6875-6-6-6s-6 2.6836-6 6v13.992c0 1.5898 0.63281 3.1172 1.7578 4.2422s2.6523 1.7578 4.2422 1.7578z"/>
 <path d="m779.75 208.21h13.898c3.3125 0 6-2.6836 6-6 0-3.3125-2.6875-6-6-6h-13.898c-3.3125 0-6 2.6875-6 6 0 3.3164 2.6875 6 6 6z"/>
 <path d="m359.55 366.82c0-3.3125-2.6836-6-6-6-3.3125 0-6 2.6875-6 6v13.992c0 3.3125 2.6875 6 6 6 3.3164 0 6-2.6875 6-6z"/>
 <path d="m353.55 401.65c-3.3125 0-6 2.6875-6 6v13.992c0 3.3125 2.6875 6 6 6 3.3164 0 6-2.6875 6-6v-13.992c0-1.5898-0.62891-3.1172-1.7578-4.2422-1.125-1.125-2.6484-1.7578-4.2422-1.7578z"/>
 <path d="m361.07 394.23c0 1.5938 0.63281 3.1172 1.7578 4.2461 1.125 1.125 2.6523 1.7539 4.2422 1.7539h13.898c3.3125 0 6-2.6836 6-6 0-3.3125-2.6875-6-6-6h-13.898c-3.3125 0-6 2.6875-6 6z"/>
 <path d="m120.48 318h13.992c3.3125 0 6-2.6875 6-6s-2.6875-6-6-6h-13.992c-3.3125 0-6 2.6875-6 6s2.6875 6 6 6z"/>
 <path d="m161.3 318h13.992c3.3125 0 6-2.6875 6-6s-2.6875-6-6-6h-13.992c-3.3125 0-6 2.6875-6 6s2.6875 6 6 6z"/>
 <path d="m147.89 304.43c1.5938 0 3.1172-0.63281 4.2422-1.7578s1.7578-2.6523 1.7578-4.2422v-13.898c0-3.3125-2.6836-6-6-6-3.3125 0-6 2.6875-6 6v13.898c0 1.5898 0.63281 3.1172 1.7578 4.2422s2.6523 1.7578 4.2422 1.7578z"/>
 <path d="m336.9 246.8c1.5938 0 3.125-0.63672 4.25-1.7656l20.207-20.195c1.1562-1.1172 1.8164-2.6523 1.832-4.2617s-0.61719-3.1602-1.7578-4.2969c-1.1367-1.1367-2.6836-1.7695-4.293-1.7578-1.6094 0.015625-3.1484 0.67578-4.2656 1.832l-20.207 20.195c-1.7188 1.7148-2.2344 4.2969-1.3086 6.543 0.92969 2.2422 3.1172 3.707 5.543 3.707z"/>
 <path d="m277.93 305.77c1.5938 0 3.1211-0.63672 4.2461-1.7656l20.219-20.195c2.2773-2.3555 2.2422-6.0977-0.070313-8.4102-2.3164-2.3164-6.0586-2.3477-8.4141-0.074219l-20.207 20.195c-1.7188 1.7148-2.2344 4.2969-1.3086 6.5391 0.92969 2.2461 3.1172 3.707 5.5469 3.7109z"/>
 <path d="m352.87 304.01c2.3438 2.3438 6.1406 2.3438 8.4844 0s2.3438-6.1406 0-8.4844l-20.207-20.195c-1.1172-1.1562-2.6562-1.8164-4.2656-1.832-1.6094-0.011719-3.1562 0.62109-4.293 1.7578-1.1367 1.1367-1.7695 2.6836-1.7578 4.293 0.015625 1.6094 0.67578 3.1484 1.832 4.2656z"/>
 <path d="m293.76 244.91c1.1172 1.1602 2.6523 1.8203 4.2617 1.832 1.6094 0.015625 3.1562-0.61719 4.2969-1.7578 1.1367-1.1367 1.7695-2.6836 1.7539-4.293-0.011719-1.6094-0.67188-3.1445-1.832-4.2617l-20.062-20.066c-1.1172-1.1562-2.6523-1.8164-4.2617-1.832-1.6094-0.011719-3.1602 0.62109-4.2969 1.7578-1.1367 1.1367-1.7695 2.6875-1.7578 4.2969 0.015625 1.6094 0.67578 3.1445 1.832 4.2617z"/>
 <path d="m932.09 276.29c1.5898-0.003906 3.1133-0.64062 4.2344-1.7656l20.207-20.195c2.3438-2.3555 2.332-6.1641-0.023438-8.5078-2.3555-2.3438-6.1641-2.332-8.5078 0.023438l-20.16 20.195c-1.7188 1.7188-2.2344 4.3008-1.3047 6.5469 0.92969 2.2461 3.1211 3.707 5.5547 3.7031z"/>
 <path d="m873.12 335.26c1.5859-0.003906 3.1094-0.63281 4.2344-1.7539l20.246-20.207c2.2734-2.3555 2.2383-6.0977-0.074218-8.4102-2.3164-2.3164-6.0586-2.3477-8.4102-0.074219l-20.207 20.195h-0.003906c-1.7188 1.7148-2.2344 4.3008-1.3047 6.5469 0.92969 2.2422 3.125 3.707 5.5547 3.7031z"/>
 <path d="m948 333.5c2.3477 2.3438 6.1484 2.3398 8.4883-0.007812 2.3438-2.3438 2.3438-6.1445-0.003906-8.4883l-20.16-20.207c-1.1172-1.1602-2.6562-1.8164-4.2656-1.832s-3.1562 0.61719-4.293 1.7578c-1.1367 1.1367-1.7695 2.6836-1.7578 4.293 0.015626 1.6094 0.67578 3.1445 1.832 4.2656z"/>
 <path d="m888.95 274.39c2.3398 2.3438 6.1406 2.3438 8.4844 0 2.3398-2.3398 2.3398-6.1406 0-8.4844l-20.074-20.062h-0.003906c-2.3555-2.2734-6.0977-2.2422-8.4102 0.074219-2.3164 2.3125-2.3477 6.0547-0.074218 8.4102z"/>
 <path d="m223.78 793.2c1.5898 0 3.1172-0.63281 4.2422-1.7578s1.7578-2.6484 1.7578-4.2422v-25.27c0-1.5938-0.63281-3.1172-1.7578-4.2461-1.125-1.125-2.6523-1.7539-4.2422-1.7539h-25.273c-3.3125 0-6 2.6836-6 6v25.27c0 1.5938 0.63281 3.1172 1.7578 4.2422s2.6523 1.7578 4.2422 1.7578zm-19.273-25.273h13.273v13.273h-13.273z"/>
 <path d="m847.85 631.78c-3.3125 0-6 2.6836-6 6v25.199c0 1.5898 0.63281 3.1172 1.7578 4.2422s2.6523 1.7578 4.2422 1.7578h25.273c1.5898 0 3.1172-0.63281 4.2422-1.7578s1.7578-2.6523 1.7578-4.2422v-25.199c0-1.5938-0.63281-3.1172-1.7578-4.2422-1.125-1.1289-2.6523-1.7578-4.2422-1.7578zm19.273 25.199h-13.273v-13.199h13.273z"/>
</svg>
