<?xml version="1.0" encoding="UTF-8"?>
<svg width="1200pt" height="1200pt" version="1.1" viewBox="0 0 1200 1200" xmlns="http://www.w3.org/2000/svg">
 <path d="m118.38 647.63-10.379-6.0117c28.633-49.523 69.336-91.871 117.73-122.46l6.4219 10.152c-46.754 29.543-86.102 70.465-113.76 118.32zm962.21 276.61c-7.1641 21.875-16.754 43.355-28.535 63.84l10.402 5.9766c12.191-21.191 22.129-43.414 29.543-66.07l-11.41-3.7422zm-184.71 204.79 4.8945 10.957c55.523-24.828 103.96-63.863 140.04-112.89l-9.6602-7.1172c-34.859 47.363-81.648 85.066-135.28 109.04zm-137.9-12.875c-64.379 0-124-20.676-172.74-55.668-50.617 36.324-110.22 55.621-172.79 55.621-164.03 0-297.48-133.82-297.48-298.32 0-164.5 133.45-298.32 297.48-298.32 62.605 0 122.23 19.32 172.86 55.68 48.73-34.957 108.32-55.621 172.67-55.621 164.05 0 297.52 133.82 297.52 298.31s-133.46 298.31-297.52 298.31zm0-584.63c-157.43 0-285.5 128.44-285.5 286.31s128.07 286.31 285.5 286.31 285.52-128.44 285.52-286.31-128.09-286.31-285.52-286.31zm-297.5 286.31c0-71.484 25.223-137.16 67.199-188.59-34.441-21.359-74.09-32.734-115.22-32.734-121.68 0-220.68 99.266-220.68 221.28s99 221.4 220.68 221.4c41.137 0 80.797-11.387 115.22-32.746-41.977-51.434-67.211-117.12-67.211-188.61zm114.64 235.04c-14.281-11.195-27.516-23.641-39.539-37.211-36.695 23.184-79.117 35.52-123.12 35.52-128.29 0-232.68-104.7-232.68-233.4s104.38-233.28 232.68-233.28c44.004 0 86.41 12.336 123.11 35.508 12.047-13.598 25.309-26.062 39.613-37.273-47.902-33.457-103.93-51.277-162.73-51.277-157.41 0-285.48 128.45-285.48 286.32 0 157.87 128.06 286.32 285.48 286.32 58.766 0 114.77-17.809 162.66-51.227zm-49.848-235.04c0-128.68 104.4-233.35 232.73-233.35s232.74 104.69 232.74 233.35c0 128.66-104.4 233.35-232.74 233.35-128.34 0-232.73-104.69-232.73-233.35zm59.988 137.41c30.898-39 48-87.445 48-137.46 0-50.016-17.09-98.531-47.953-137.41-29.977 37.801-48.035 85.523-48.035 137.46s18.035 99.613 47.988 137.41zm172.73-358.77c-42.254 0-81.613 12.18-115.2 32.902 43.309 53.074 67.273 119.61 67.273 188.4 0 68.797-23.965 135.43-67.262 188.51 33.59 20.723 72.949 32.891 115.2 32.891 121.71 0 220.74-99.301 220.74-221.35s-99.023-221.35-220.74-221.35zm-164.75 74.555c33.492 41.316 52.02 93.133 52.02 146.75 0 53.617-18.551 105.36-52.066 146.8 11.723 13.234 24.898 25.129 39.457 35.242 42.121-51.109 65.426-115.46 65.426-182.03s-23.305-130.81-65.426-181.92c-14.531 10.094-27.684 21.973-39.395 35.184zm-304.31-365.2c0-44.27 24.324-78.602 61.969-87.48 32.52-7.668 64.453 6.7578 83.746 37.078 19.285-30.324 51.191-44.734 83.734-37.078 37.645 8.8672 61.969 43.199 61.969 87.48 0 91.645-136.99 167.63-142.81 170.82l-2.8789 1.5703-2.8789-1.5703c-5.8203-3.1914-142.82-79.176-142.82-170.82zm12 0c0 77.676 113.98 147.2 133.71 158.65 19.715-11.449 133.7-81.023 133.7-158.65 0-46.777-28.391-70.066-52.727-75.793-30.203-7.0938-59.855 8.6992-75.613 40.262l-5.3633 10.766-5.3633-10.766c-13.246-26.543-36.336-41.941-61.297-41.941-4.7383 0-9.5156 0.55078-14.316 1.6797-24.324 5.7344-52.727 29.016-52.727 75.793zm-99.574-137.58h12v-48.133h47.988v-12h-47.988v-48.133h-12v48.133h-47.977v12h47.977zm507.45 238.19h12v-48.133h47.988v-12h-47.988v-48.133h-12v48.133h-47.988v12h47.988z"/>
</svg>
