<?xml version="1.0" encoding="UTF-8"?>
<svg width="1200pt" height="1200pt" version="1.1" viewBox="0 0 1200 1200" xmlns="http://www.w3.org/2000/svg">
 <path d="m1099.5 1105.5c0-0.5625-0.1875-1.0781-0.375-1.6406-0.1875-0.375-0.1875-0.5625-0.375-0.75s-0.1875-0.5625-0.375-0.75l-186-245.44c-11.109-14.531-28.734-23.25-47.109-23.25h-137.95c62.531-99.281 127.08-217.26 136.36-294.19 0.75-6.1875 1.0781-12 1.0781-17.625 0-145.45-118.17-263.63-263.63-263.63-63.984 0-122.34 23.109-168.19 61.266l-100.92-100.36 5.8125-57.094c0.375-3.7969-0.89062-7.6406-3.6562-10.172l-127.64-120.89c-3.0938-2.9062-7.4531-4.1719-11.625-2.9062-4.125 0.89062-7.4062 3.9844-8.6719 8.3438l-16.734 62.156-60.562 19.828c-4.1719 1.4531-7.0781 4.7344-7.9688 8.9062-1.125 3.9844 0.1875 8.3906 3.2812 11.484l120.89 119.62c2.3438 2.2031 5.4375 3.2812 8.5312 3.2812 0.5625 0 1.0781 0 1.4531-0.1875l55.828-7.8281 104.34 103.83c-36 45.094-57.797 102-57.797 164.21 0 49.078 29.25 125.63 86.906 227.44 10.172 18 21.094 36.375 32.344 54.891 5.8125 9.6562 12 19.453 18.188 29.25h-138.19c-18.375 0-35.812 8.7188-46.922 23.25l-185.95 245.86c-0.1875 0.1875-0.1875 0.375-0.1875 0.5625-0.1875 0.375-0.375 0.75-0.5625 1.0781-0.1875 0.375-0.1875 0.75-0.1875 1.0781 0 0.1875-0.1875 0.375-0.1875 0.75v40.359c0 14.531 11.812 26.531 26.531 26.531h943.82c14.531 0 26.531-11.812 26.531-26.531v-40.359c-0.14062-0.1875-0.14062-0.1875-0.14062-0.375zm-793.82-854.02 14.203-2.0156c5.4375-0.89062 9.6562-5.25 10.359-10.922l0.5625-4.7344 215.44 214.36c-1.4531 7.0781-1.8281 14.344-1.0781 21.797-6.375-2.2031-13.453-2.9062-20.719-2.2031-0.375 0-0.75 0.1875-0.89062 0.1875zm177.1 302.58c2.5312 4.7344 5.8125 9.2812 9.4688 13.078 16.172 16.734 41.25 26.016 69.281 26.016h3.4688c0.75 0 1.4531 0 2.2031-0.1875-4.3594 5.8125-9.0938 11.438-13.266 17.438 7.2656-6 14.203-12.375 21.281-18.562h0.1875v-0.1875c37.078-33.094 70.547-69.656 99.281-110.34-5.625 4.7344-11.109 9.6562-16.734 14.531-0.5625-11.812-2.0156-24.188-4.7344-37.266l-0.375-1.2656c-0.5625-2.5312-1.2656-5.1094-1.8281-7.4531-5.4375-19.266-14.016-32.344-26.016-39.797-19.266-12.562-47.625-8.3438-64.359 9.4688-4.5469 4.7344-8.0156 10.359-10.734 16.359l-28.359-28.172c23.438-16.359 51.797-26.203 82.547-26.203 50.906 0 98.531 27.094 124.55 70.547 13.453 22.359 20.719 48.188 20.719 74.719 0 80.016-65.109 145.26-145.26 145.26-26.016 0-51.281-6.8906-73.453-20.016-0.375-0.1875-0.5625-0.375-0.89062-0.375-43.828-26.203-70.922-73.828-70.922-124.92 0-30 9.2812-57.797 24.891-80.906l26.016 26.016c-10.359 3.9844-19.828 10.922-26.203 19.641-12.188 17.109-12.562 41.812-0.75 62.578zm-69.094-27.469c0-42.375 14.016-81.656 37.641-113.25l24.188 24c-17.625 25.453-28.172 56.016-28.172 89.25 0 55.453 29.625 107.25 77.438 135.47 0.375 0.1875 0.5625 0.375 0.89063 0.375 23.625 13.828 50.906 21.094 78.75 21.094 86.531 0 157.08-70.547 157.08-157.08 0-28.734-7.6406-56.531-22.359-80.719-28.172-47.109-79.828-76.359-134.72-76.359-33.984 0-65.438 10.922-91.078 29.438l-24-23.812c32.016-24.375 71.812-39.094 115.08-39.094 105.09 0 190.55 85.453 190.55 190.55s-85.453 190.55-190.55 190.55c-105.09-0.046875-190.74-85.312-190.74-190.4zm33.469 430.55c0 36.75 69.094 65.438 157.08 65.438 88.172 0 157.08-28.734 157.08-65.438 0-24.562-30.891-45.469-77.812-56.531 5.625-8.2031 11.25-16.922 17.109-25.641 29.625 5.1094 56.906 12.188 79.453 21.656 40.734 16.734 63.281 38.344 63.281 60.562 0 49.078-109.45 90.562-239.11 90.562-62.906 0-122.34-9.4688-167.26-26.344-10.547-3.9844-19.641-8.0156-27.469-12.188-20.203-10.734-44.203-28.547-44.203-51.797 0-35.25 56.906-66.562 137.11-81.281 3.4688 5.25 6.8906 10.547 10.547 15.984 2.3438 3.4688 4.5469 6.75 6.75 10.172-44.016 11.016-72.562 31.219-72.562 54.844zm79.266-45.094c18.375 27.094 33.656 48.75 43.828 63.094 7.2656 9.9844 18.375 15.797 30.75 15.797s23.438-5.8125 30.562-15.797c12.375-17.109 27.797-39.094 44.719-64.359 45.281 9.9844 73.078 28.359 73.078 46.172 0 25.828-58.359 53.625-145.26 53.625-86.906 0-145.26-27.656-145.26-53.625 0.14062-16.922 25.594-34.734 67.594-44.906zm-405.98 188.02 178.74-236.02c8.9062-11.625 22.922-18.75 37.641-18.75h145.64c4.1719 6.375 8.3438 12.891 12.562 19.453-84.375 16.172-141.66 50.906-141.66 92.203 0 23.109 17.438 44.531 50.531 62.203 8.3438 4.5469 17.812 8.7188 28.922 12.891 46.172 17.438 107.11 27.281 171.47 27.281 140.72 0 250.92-44.906 250.92-102.19 0-27.281-25.078-52.734-70.547-71.438-22.172-9.2812-48.375-16.547-76.922-21.656 3.9844-6.1875 8.0156-12.375 12-18.75h145.45c14.719 0 28.734 6.8906 37.641 18.75l178.74 236.02z"/>
 <path d="m942.19 747.79c0-21.656 7.4531-41.109 19.453-55.266 11.812-14.203 28.547-23.109 46.734-23.109-18.188 0-34.922-8.7188-46.734-22.734-12-14.203-19.453-33.656-19.453-55.266 0 21.656-7.4531 41.109-19.266 55.266-12 14.016-28.547 22.734-46.734 22.734 36.562 0.046875 66 35.297 66 78.375z"/>
 <path d="m876.19 786.74c0-10.734 3.6562-20.344 9.6562-27.469 5.8125-7.0781 14.203-11.438 23.25-11.438-9.0938 0-17.25-4.3594-23.25-11.25-6-7.0781-9.6562-16.734-9.6562-27.469 0 10.734-3.6562 20.344-9.6562 27.469-6 6.8906-14.203 11.25-23.25 11.25 18.188-0.046876 32.906 17.438 32.906 38.906z"/>
</svg>
