<?xml version="1.0" encoding="UTF-8"?>
<svg width="1200pt" height="1200pt" version="1.1" viewBox="0 0 1200 1200" xmlns="http://www.w3.org/2000/svg">
 <path d="m128.29 1024.5 168.88 54.949c1.2344 0.39844 2.4844 0.58984 3.7148 0.58984 5.0547 0 9.7617-3.2227 11.414-8.293 2.0469-6.3047-1.3984-13.078-7.6992-15.129l-72.605-23.625 27.062-81.777c0.34375-0.62891 0.76172-1.2031 0.99609-1.9062 9.3516-28.113 33.496-34.703 72.117-43.125 56.332-12.293 126.43-27.586 135.06-156.42 12.961-193.51 115.98-386.24 117.03-388.17 2.6797-4.9648 1.3242-10.828-2.6836-14.449-0.28906-0.27344-0.58984-0.50781-0.90625-0.75391-0.44922-0.33203-0.76172-0.78516-1.2656-1.0547-0.41797-0.22656-0.87891-0.22656-1.3125-0.39844-0.35938-0.15625-0.62109-0.44141-1.0039-0.56641l-107.55-34.992c9.0078-32.402 5.8359-66.473-9.4297-96.723-16.457-32.59-44.762-56.801-79.688-68.168-71.719-23.332-149.32 15.555-172.96 86.676-20.316 61.082 5.7344 128.52 61.867 160.32 0.73047 0.42188 14.008 7.9141 31.535 9.8945-21.262 75.609-56.34 173.74-110.88 258.02-70.406 108.8-23.121 162.33 14.879 205.34 25.977 29.402 41.422 48.844 32.09 76.91l-27.77 83.918-73.457-23.898c-6.293-2.0117-13.074 1.3984-15.129 7.6992-2.043 6.3086 1.3984 13.082 7.6992 15.133zm428.25-661.57c-8.0781 16.008-22.543 46.055-38.582 85.621-10.566 2.9961-22.672 4.7578-39.094-0.57812-21.461-6.9883-29.898-19.219-39.664-33.383-10.695-15.504-22.809-33.078-51.98-42.57-21.828-7.0938-38.652-4.957-53.23-0.83594 8.3516-33.586 13.512-60.176 16.195-75.402zm-275.31 7.7109c-46.254-26.199-67.699-81.672-51-131.91 19.512-58.641 83.559-90.684 142.77-71.422 28.805 9.3672 52.137 29.316 65.691 56.156 12.395 24.547 15.098 52.156 8.0469 78.484l-102.39-33.312c-3.375-1.0898-7.0391-0.64844-10.039 1.2109-3.0078 1.8633-5.0352 4.957-5.5469 8.4492-0.13672 0.92578-6.2539 41.082-21.477 99.457-14.012-0.54297-25.879-7.0156-26.047-7.1172zm-58.387 478.21c-36.008-40.758-73.23-82.898-12.723-176.41 58.926-91.047 95.422-195.62 116.7-273.7l0.89453-0.30469c16.395-5.6836 30.547-10.594 52.078-3.5859 21.453 6.9805 29.883 19.203 39.648 33.363 10.688 15.504 22.809 33.078 51.988 42.574 10.414 3.3906 19.637 4.6602 27.887 4.6602 2.8789 0 5.6133-0.17969 8.2656-0.44922-28.062 73.938-57.562 172.54-64.297 273.16-7.4219 110.84-62.742 122.91-116.23 134.58-23.66 5.1602-47.801 10.473-65.895 24.57-6.125-21.965-22.371-40.414-38.312-58.457z"/>
 <path d="m280.43 267.55c1.2305 0.39844 2.4805 0.58984 3.7031 0.58984 5.0625 0 9.7656-3.2305 11.414-8.3008 2.0469-6.3047-1.4062-13.074-7.7109-15.117l-22.867-7.418c-6.3047-2.0469-13.074 1.4141-15.117 7.7109-2.0469 6.3047 1.4062 13.074 7.7109 15.117z"/>
 <path d="m350.65 234.14c1.2617 0.42188 2.543 0.62109 3.7969 0.62109 5.0273 0 9.707-3.1797 11.387-8.2148l8.2734-24.828c2.0977-6.2891-1.3008-13.078-7.5859-15.176-6.3086-2.1211-13.09 1.3047-15.18 7.5938l-8.2734 24.828c-2.1055 6.2852 1.293 13.078 7.582 15.176z"/>
 <path d="m283.84 287.05-23.371 11.684c-5.9219 2.9648-8.332 10.172-5.3672 16.102 2.1055 4.2031 6.3398 6.6328 10.746 6.6328 1.7969 0 3.6328-0.40234 5.3555-1.2656l23.371-11.684c5.9219-2.9648 8.332-10.172 5.3672-16.102-2.957-5.918-10.152-8.3398-16.102-5.3672z"/>
 <path d="m374.09 255.25c2.1055 4.207 6.3398 6.6328 10.746 6.6328 1.8047 0 3.6328-0.40234 5.3555-1.2656l24.484-12.254c5.9297-2.9727 8.332-10.176 5.3672-16.102-2.9727-5.9297-10.172-8.3281-16.102-5.3672l-24.484 12.254c-5.9297 2.9688-8.332 10.18-5.3672 16.102z"/>
 <path d="m312.08 197.07c-3.0078-5.9062-10.234-8.25-16.137-5.2383-5.9062 3.0078-8.25 10.234-5.2383 16.137l11.883 23.301c2.1133 4.1602 6.3281 6.5508 10.699 6.5508 1.832 0 3.6914-0.42187 5.4375-1.3125 5.9062-3.0078 8.25-10.234 5.2383-16.137z"/>
 <path d="m339.84 840.6c2.1328 0.12109 4.2656 0.17969 6.4023 0.17969 5.7969 0 11.582-0.45312 17.277-1.3555 5.5977-0.88672 9.8164-5.5664 10.109-11.227l9.9219-189.45c0.29687-5.6836-3.4414-10.793-8.9414-12.234-7.1602-1.875-14.539-3.0352-21.926-3.457-60.426-3.3906-112.54 42.527-116.08 102.49-1.7148 28.887 7.9688 56.742 27.27 78.422 19.527 21.941 46.512 34.945 75.965 36.625zm-79.285-113.62c2.6719-45.121 40.645-80.09 85.77-80.09 1.6602 0 3.3242 0.046876 4.9961 0.14453 2.5781 0.14453 5.1562 0.40234 7.7227 0.77734l-8.8477 168.89c-2.9727 0.12891-5.9766 0.12891-8.9883-0.058594-23.051-1.3125-44.148-11.473-59.41-28.609-15.031-16.887-22.57-38.57-21.242-61.051z"/>
 <path d="m301.92 745.7 8.2227 0.46875c0.23438 0.011719 0.46875 0.015625 0.69922 0.015625 6.3164 0 11.609-4.9336 11.973-11.316 0.375-6.6211-4.6797-12.289-11.297-12.668l-8.2227-0.46875c-6.7383-0.23828-12.297 4.6914-12.672 11.301-0.375 6.6211 4.6797 12.289 11.297 12.668z"/>
 <path d="m315.11 706.09c2.332 3.3594 6.0664 5.1562 9.8672 5.1562 2.3594 0 4.7461-0.69922 6.832-2.1445 5.4453-3.7773 6.793-11.258 3.0117-16.699l-6.7383-9.7031c-3.7852-5.4453-11.258-6.793-16.699-3.0117-5.4453 3.7773-6.793 11.258-3.0117 16.699z"/>
 <path d="m310.86 760.26-7.2461 8.3516c-4.3398 5.0117-3.8086 12.586 1.1953 16.934 2.2734 1.9688 5.0742 2.9336 7.8633 2.9336 3.3594 0 6.6992-1.3984 9.0703-4.1328l7.2461-8.3516c4.3398-5.0117 3.8086-12.586-1.1953-16.934-5.0234-4.3398-12.598-3.8047-16.934 1.1992z"/>
 <path d="m732.78 749.73c8.625 128.84 78.727 144.13 135.06 156.42 38.617 8.4219 62.766 15.012 72.117 43.125 0.23438 0.70312 0.64844 1.2812 0.99609 1.9062l27.062 81.777-72.605 23.625c-6.2969 2.0508-9.7422 8.8242-7.6992 15.129 1.6523 5.0703 6.3594 8.293 11.414 8.293 1.2305 0 2.4805-0.19531 3.7148-0.58984l168.88-54.949c6.2969-2.0508 9.7422-8.8242 7.6992-15.129-2.0508-6.2969-8.8125-9.707-15.129-7.6992l-73.457 23.898-27.777-83.934c-9.3242-28.047 6.1211-47.488 32.098-76.891 37.996-43.016 85.285-96.547 14.879-205.34-54.539-84.277-89.621-182.41-110.88-258.02 17.523-1.9805 30.781-9.4609 31.457-9.8555 56.207-31.832 82.262-99.273 61.945-160.36-23.66-71.133-101.23-110-172.96-86.676-34.926 11.367-63.23 35.578-79.688 68.168-15.266 30.25-18.438 64.32-9.4297 96.723l-107.55 34.992c-0.38281 0.125-0.64453 0.41016-1.0039 0.56641-0.43359 0.17188-0.89453 0.17188-1.3125 0.40234-0.50391 0.27344-0.81641 0.72266-1.2656 1.0547-0.31641 0.24609-0.61719 0.48047-0.90625 0.75781-4.0078 3.6211-5.3633 9.4844-2.6836 14.449 1.043 1.9141 104.07 194.65 117.03 388.15zm117.04-453.97c2.6836 15.227 7.8477 41.816 16.195 75.402-14.586-4.1211-31.422-6.2578-53.234 0.83594-29.168 9.4922-41.285 27.066-51.98 42.57-9.7617 14.164-18.199 26.391-39.664 33.375-16.414 5.3359-28.516 3.5781-39.094 0.58203-16.039-39.57-30.504-69.613-38.582-85.621zm127.34 553.06c-15.941 18.043-32.184 36.496-38.316 58.449-18.094-14.098-42.234-19.406-65.895-24.566-53.488-11.672-108.81-23.734-116.23-134.58-6.7383-100.62-36.234-199.22-64.297-273.16 2.6523 0.26953 5.3867 0.44922 8.2656 0.44922 8.25 0 17.473-1.2656 27.887-4.6602 29.18-9.4961 41.301-27.07 51.988-42.574 9.7656-14.164 18.199-26.387 39.648-33.363 21.516-7.0039 35.684-2.1055 52.078 3.5859l0.89453 0.30469c21.277 78.07 57.773 182.65 116.7 273.7 60.508 93.516 23.285 135.65-12.719 176.41zm-215.84-625.38c13.551-26.84 36.887-46.789 65.691-56.156 59.203-19.285 123.25 12.773 142.77 71.422 16.699 50.234-4.7461 105.71-51.078 131.95-0.13672 0.078125-11.98 6.5156-25.965 7.0703-15.223-58.371-21.34-98.523-21.477-99.449-0.51562-3.4922-2.543-6.5859-5.5469-8.4492-3-1.8594-6.6719-2.2852-10.039-1.2109l-102.39 33.312c-7.0547-26.332-4.3555-53.941 8.043-78.488z"/>
 <path d="m904.45 259.85c1.6445 5.0742 6.3516 8.3008 11.414 8.3008 1.2266 0 2.4727-0.19531 3.7031-0.58984l22.867-7.418c6.3047-2.0469 9.7578-8.8125 7.7109-15.117-2.0391-6.2969-8.8008-9.7578-15.117-7.7109l-22.867 7.418c-6.3047 2.043-9.7578 8.8125-7.7109 15.117z"/>
 <path d="m856.94 218.96-8.2734-24.828c-2.0977-6.2891-8.8828-9.7148-15.18-7.5938-6.2891 2.0977-9.6836 8.8906-7.5859 15.176l8.2734 24.828c1.6758 5.0352 6.3594 8.2148 11.387 8.2148 1.2539 0 2.5391-0.19922 3.7969-0.62109 6.2812-2.0938 9.6797-8.8867 7.582-15.176z"/>
 <path d="m939.54 298.73-23.371-11.684c-5.9492-2.9727-13.141-0.55078-16.102 5.3672-2.9648 5.9297-0.55469 13.137 5.3672 16.102l23.371 11.684c1.7227 0.85938 3.5547 1.2656 5.3555 1.2656 4.4062 0 8.6406-2.4297 10.746-6.6328 2.9609-5.9297 0.55469-13.137-5.3672-16.102z"/>
 <path d="m820.55 239.14-24.484-12.254c-5.918-2.9727-13.137-0.57031-16.102 5.3672-2.9648 5.9219-0.5625 13.133 5.3672 16.102l24.484 12.254c1.7227 0.85938 3.5508 1.2656 5.3555 1.2656 4.3984 0 8.6406-2.4258 10.746-6.6328 2.9648-5.9219 0.5625-13.133-5.3672-16.102z"/>
 <path d="m881.27 236.51c1.7461 0.89063 3.6055 1.3125 5.4375 1.3125 4.3711 0 8.582-2.3906 10.699-6.5508l11.883-23.301c3.0117-5.8984 0.66797-13.133-5.2383-16.137-5.9062-3.0117-13.133-0.66797-16.137 5.2383l-11.883 23.301c-3.0117 5.8984-0.66797 13.133 5.2383 16.137z"/>
 <path d="m847.32 623.06c-7.3984 0.42188-14.777 1.582-21.938 3.457-5.5039 1.4414-9.2383 6.5508-8.9414 12.234l9.9219 189.45c0.29297 5.6602 4.5117 10.34 10.109 11.227 5.6953 0.90234 11.484 1.3555 17.277 1.3555 2.1328 0 4.2656-0.058594 6.3906-0.17969 29.465-1.6797 56.449-14.684 75.98-36.621 19.301-21.68 28.984-49.535 27.27-78.422-3.5469-59.961-55.691-105.79-116.07-102.5zm70.871 164.96c-15.258 17.141-36.359 27.297-59.422 28.609-3 0.17578-6.0117 0.1875-8.9766 0.058594l-8.8477-168.89c2.5664-0.375 5.1445-0.63281 7.7344-0.77734 47.027-2.8281 87.98 33.16 90.758 79.945 1.3281 22.484-6.2109 44.168-21.246 61.051z"/>
 <path d="m896.71 721.73-8.2227 0.46875c-6.6133 0.38281-11.672 6.0469-11.297 12.668 0.36328 6.3828 5.6523 11.316 11.973 11.316 0.23047 0 0.46094-0.007812 0.69922-0.015625l8.2227-0.46875c6.6133-0.38281 11.672-6.0469 11.297-12.668-0.37891-6.6133-5.9883-11.543-12.672-11.301z"/>
 <path d="m875.02 711.25c3.8008 0 7.5352-1.7969 9.8672-5.1562l6.7383-9.7031c3.7773-5.4453 2.4297-12.922-3.0117-16.699-5.4531-3.7969-12.926-2.4297-16.699 3.0117l-6.7383 9.7031c-3.7773 5.4453-2.4297 12.922 3.0117 16.699 2.0859 1.4531 4.4727 2.1445 6.832 2.1445z"/>
 <path d="m889.14 760.26c-4.3398-4.9961-11.918-5.5312-16.934-1.1953-5.0039 4.3477-5.5391 11.922-1.1953 16.934l7.2461 8.3516c2.3711 2.7305 5.7109 4.1328 9.0703 4.1328 2.7891 0 5.5898-0.96484 7.8633-2.9336 5.0039-4.3477 5.5391-11.922 1.1953-16.934z"/>
 <path d="m651.81 235.23c3 0 6.0078-1.1172 8.3359-3.3672l43.109-41.637c4.7656-4.6055 4.8984-12.199 0.29297-16.969-4.5938-4.7578-12.195-4.8906-16.969-0.29297l-43.109 41.637c-4.7656 4.6055-4.8984 12.199-0.29297 16.969 2.3594 2.4336 5.4922 3.6602 8.6328 3.6602z"/>
 <path d="m539.86 231.86c2.332 2.25 5.3359 3.3672 8.3359 3.3672 3.1406 0 6.2734-1.2266 8.6328-3.6641 4.6055-4.7695 4.4727-12.363-0.29297-16.969l-43.109-41.637c-4.7695-4.6016-12.359-4.4648-16.969 0.29297-4.6055 4.7695-4.4727 12.363 0.29297 16.969z"/>
 <path d="m600 196.24c6.6289 0 12-5.3711 12-12v-52.242c0-6.6289-5.3711-12-12-12s-12 5.3711-12 12v52.242c0 6.625 5.3711 12 12 12z"/>
</svg>
