<?xml version="1.0" encoding="UTF-8"?>
<svg width="1200pt" height="1200pt" version="1.1" viewBox="0 0 1200 1200" xmlns="http://www.w3.org/2000/svg">
 <path d="m442.36 243.45h-292.55c-10.34 0-18.723 8.3828-18.723 18.723v37.457c-19.871 0-38.922 7.8906-52.965 21.938-14.051 14.051-21.941 33.102-21.941 52.965 0 19.871 7.8906 38.922 21.941 52.965 14.047 14.051 33.098 21.941 52.965 21.941v37.453c0 10.348 8.3828 18.727 18.723 18.727h112.36v34.617l-167.43 464.66c-3.5039 9.7227 1.5469 20.457 11.273 23.965 9.7227 3.5039 20.457-1.5469 23.965-11.273l164.23-455.79h23.992l0.14844 449.44c0.003906 10.336 8.3984 18.723 18.734 18.723 10.336-0.003906 18.723-8.3984 18.723-18.734l-0.15234-449.43h24.293l164.23 455.79c3.5039 9.7266 14.242 14.777 23.965 11.273 9.7266-3.5039 14.777-14.242 11.273-23.965l-167.43-464.66v-34.617h112.36c10.34 0 18.723-8.3828 18.723-18.727v-37.453h52.336l127.55 54.664c5.7852 2.4805 12.426 1.8867 17.684-1.5781 5.2539-3.4648 8.418-9.3398 8.418-15.637v-224.72c0-6.293-3.1641-12.168-8.418-15.633-5.2578-3.4648-11.902-4.0586-17.684-1.5781l-127.55 54.664h-52.336v-37.457c0-10.34-8.3828-18.723-18.723-18.723h-42.445l-14.727-43.465c-2.5742-7.6016-9.707-12.715-17.734-12.715h-168.54c-10.336 0-18.727 8.3906-18.727 18.723 0 10.336 8.3906 18.727 18.727 18.727h155.11l6.3477 18.727zm-67.828 262.17v18.727h-74.902v-18.727zm599.25-246.95-1.2188-1.168c-38.168-36.645-100.14-36.645-138.32 0-38.773 37.227-38.773 97.672 0 134.9l126.56 121.5c7.2461 6.957 18.691 6.957 25.938 0l126.56-121.5c38.777-37.227 38.777-97.672 0-134.9-38.172-36.645-100.14-36.645-138.32 0l-1.2148 1.168zm-767.79 22.234v187.27h-37.453v-187.27zm505.62 9.6719v167.92l-93.633-40.125v-87.664zm-338.42 18.504c-20.57-14.352-49.125-12.352-67.48 6.0039-20.598 20.598-20.598 54.039 0 74.637l54.238 54.238c7.3125 7.3125 19.168 7.3125 26.48 0l54.238-54.238c20.598-20.598 20.598-54.039 0-74.637-18.355-18.355-46.902-20.355-67.48-6.0039zm169.88 28.004v74.906h37.457v-74.906zm-411.98 0c-9.9336 0-19.461 3.9453-26.484 10.973-7.0234 7.0234-10.973 16.547-10.973 26.48s3.9453 19.461 10.973 26.484c7.0234 7.0234 16.555 10.973 26.484 10.973zm847.14 1.0352-4.4531 4.2773-4.457-4.2773c-9.7422-9.3555-25.57-9.3555-35.312 0-9.7422 9.3516-9.7422 24.543 0 33.898l39.77 38.176 39.766-38.176c9.7422-9.3516 9.7422-24.543 0-33.898s-25.57-9.3555-35.312 0zm-624.18 3.6211 5.7539 5.7656c6.625 6.625 13.379 5.6211 13.379 5.6211s6.7539 1.0039 13.379-5.6211l5.9414-5.9414c5.9805-5.9805 15.691-5.9805 21.672 0 5.9805 5.9805 5.9805 15.695 0 21.676l-40.992 40.992-40.992-40.992c-5.9805-5.9805-5.9805-15.695 0-21.676 5.9805-5.9805 15.695-5.9805 21.672 0z" fill-rule="evenodd"/>
</svg>
