<?xml version="1.0" encoding="UTF-8"?>
<svg width="1200pt" height="1200pt" version="1.1" viewBox="0 0 1200 1200" xmlns="http://www.w3.org/2000/svg">
 <path d="m471.61 924.1c-6.4688-1.5-12.938 2.4375-14.438 8.9062l-34.875 146.26c-3.9375 23.391 14.062 44.766 37.828 44.766h244.92c26.297 0 44.812-25.969 36.281-50.812l-48.469-141.32c-2.1562-6.2812-9-9.6094-15.234-7.4531-6.2812 2.1562-9.6094 8.9531-7.4531 15.234l48.469 141.32c3.1875 9.3281-3.7031 19.031-13.594 19.031l-244.97-0.046875c-9.1406 0-15.562-8.4844-14.344-15.984l34.734-145.5c1.5469-6.375-2.4375-12.891-8.8594-14.391z"/>
 <path d="m502.97 1042.4c5.4375 3.7031 12.938 2.3438 16.688-3.1875 23.859-35.062 11.906-97.219 11.391-99.844-1.2656-6.5156-7.7344-10.781-14.109-9.4219-6.5156 1.2656-10.734 7.5938-9.4219 14.109 3 15.188 7.5 59.438-7.6875 81.703-3.7969 5.4375-2.3438 12.891 3.1406 16.641z"/>
 <path d="m628.08 930.89c-5.8594-0.046875-12.234 4.8281-12.516 11.438-0.14062 2.6719-2.5781 65.953 26.344 97.031 4.5 4.8281 12.094 5.1094 16.969 0.60938 4.8281-4.5 5.1094-12.094 0.60938-16.969-18.281-19.641-20.578-64.125-19.922-79.594 0.28125-6.6094-4.8281-12.234-11.484-12.516z"/>
 <path d="m437.16 453.84c1.7344 6.375 8.25 10.172 14.719 8.4375 6.375-1.7344 10.172-8.3438 8.4375-14.719-15.984-58.641-48.609-69.094-52.266-70.078-6.1875-1.6875-12.516 1.7344-14.531 7.7344-9.7031 28.828-11.062 57.469-4.3125 83.625v0.14062c0.79688 6.6094 6.7969 11.25 13.406 10.406 7.125-0.89062 11.953-7.8281 10.125-15-4.7344-18.75-4.9688-37.453-0.5625-56.906 7.6875 6.9844 17.953 20.625 24.984 46.359z"/>
 <path d="m580.03 433.18c0.9375 6.5625 7.1719 11.156 13.547 10.266 6.5625-0.89062 11.156-6.9844 10.266-13.547-8.3438-60.234-39.328-74.719-42.844-76.172-5.8125-2.4375-12.609 0.09375-15.375 5.8125-13.312 27.328-18.375 55.547-15 82.406v0.14062c0 6.6094 5.3438 11.203 11.953 11.203s11.953-6.1406 11.953-12.797c-2.2969-19.219-0.14062-37.781 6.7031-56.484 6.7031 7.9688 15.141 22.734 18.797 49.172z"/>
 <path d="m891.74 454.64c21.797 15.703 53.25 9.2812 69.75-6.0938 0.28125-0.28125 0.65625-0.375 0.9375-0.70312 4.5938-5.1562 44.719-51.562 42.094-87.844-0.51563-6.9844-6.75-11.953-13.734-11.016-2.8594 0.46875-14.672 1.0312-20.812-3.8438-6.9375-5.4375-1.1719-12.891-9.9844-18.234-3.2812-1.9688-7.3594-2.2969-10.828-0.79688-4.2656 1.7812-40.641 17.906-53.531 45.797-19.875 17.297-27.047 43.219-18.703 63.703-17.531 15.047-30.984 39.938-39.75 59.953l-59.953-3.8438c28.594-47.625 57.984-107.25 57.75-151.18 9.75 2.0625 18.516 3 26.203 3 28.594 0 43.219-11.297 43.406-11.531 1.3594-0.84375 13.781-8.9531 24.234-32.578 2.6719-6.0469-0.09375-13.125-6.1406-15.844-6.0469-2.625-13.125 0.09375-15.844 6.1406-7.2656 16.5-15 21.938-15.844 22.547-1.0781 0.79688-26.766 19.172-81.562-5.4375-33.516-15.094-29.297-49.734-19.828-76.125 5.3906-14.953 6.8906-31.359 4.3594-47.391-4.3594-27.562-1.9219-37.312-0.84375-39.984 9.2812-1.125 13.688 6.0469 14.438 7.4062 3.5625 6.9375 12.797 8.7656 18.703 3.4688 1.5938 0 17.625-16.547 39.281 8.1562 4.4062 5.0156 11.953 5.4375 16.922 1.125 4.9688-4.3594 5.4844-11.953 1.125-16.922-17.016-19.406-39.609-27.938-62.719-17.062-7.4062-6.8438-18.984-12.609-34.172-9.4219-23.484 4.8281-20.625 40.547-16.453 66.984 1.9219 12.047 0.79687 24.328-3.2344 35.531-17.906 50.016-6.0469 88.688 32.578 106.08 3.8438 1.7344 7.3594 2.9531 10.969 4.3125-0.42188 2.2031 12.375 39.703-60.375 156.94l-42.609-2.7188c-16.125-1.0781-20.391-12.75-21.984-14.109-10.266-15.703-29.438-22.781-47.672-17.578 15.984-43.359 22.406-88.453 19.781-136.74 35.625-4.875 50.297-22.828 50.438-23.109 1.125-1.1719 11.344-11.906 16.078-37.312 1.2188-6.5156-3.0938-12.797-9.6094-13.969-6.375-1.1719-12.797 3.0938-13.969 9.6094-3.2812 17.766-9.5625 24.797-10.266 25.594-0.89063 1.0312-21.656 24.797-80.625 13.406-36.094-6.9844-39.938-41.672-36.797-69.516 1.7812-15.844-0.51562-32.109-6.6562-47.156-10.594-25.828-10.406-35.859-9.9844-38.719 8.6719-3.1406 14.672 2.7188 15.703 3.8906 5.1562 6.1406 14.438 5.3438 18.938-0.79688 2.3906-3.2812 15.562-18.703 40.219-1.1719 5.3906 3.8906 12.891 2.5781 16.734-2.8125 3.75-5.3438 2.4844-12.844-2.9062-16.688-21.469-15.328-45.469-17.766-64.969-2.2031-8.7656-4.9688-21.375-7.875-35.391-1.3125-21.75 10.125-10.781 44.203-0.65625 68.953 4.6406 11.297 6.375 23.531 5.0156 35.344-5.9531 52.781 14.484 87.703 56.062 95.766 10.5 2.0156 19.875 2.9062 28.594 3.2344 2.8125 51.141-5.3438 98.344-24.891 143.72-27.188 7.0781-59.672 14.484-93.516 19.922 5.3906-55.266-3.1406-107.44-27.328-167.11 33.891-21.609 39.141-46.875 39.141-47.156 0.51562-1.5469 4.6406-15.797-2.9062-40.5-1.9219-6.3281-8.5781-9.8438-15-7.9688-6.3281 1.9219-9.8906 8.625-7.9688 15 5.25 17.25 2.9531 26.391 2.7188 27.422-0.28125 1.3125-7.8281 32.062-65.391 49.078-35.25 10.312-54.656-18.562-64.688-44.719-5.6719-14.859-15.234-28.266-27.609-38.766-21.281-18.047-25.781-27.047-26.719-29.766 6.2812-6.8438 14.297-4.3125 15.75-3.7969 7.3125 3.0469 15.469-1.7812 16.453-9.5625 0-0.09375 1.5-9.1406 9.0469-14.859 6.0469-4.5938 14.859-6.1406 26.062-4.5469 6.6094 1.0312 12.609-3.6562 13.547-10.172 0.9375-6.5625-3.6094-12.656-10.172-13.547-30.141-4.3125-50.016 8.3906-58.641 27.938-10.078-0.375-22.594 2.8125-32.062 15.141-14.625 18.984 10.781 44.203 31.172 61.5 9.3281 7.9219 16.5 17.953 20.719 29.062 16.922 44.062 48.891 72.422 93.891 59.156 7.8281-2.2969 14.812-4.9219 21.234-7.6875 22.781 57 30.469 106.5 24.422 159.14 0 0.14062 0.046876 0.23438 0.046876 0.32812-61.547 7.875-95.25 4.875-125.72-0.46875-1.3594-11.109-11.016-80.109-40.125-115.69 14.906-21.328 12.516-53.156-6.7031-77.672-8.4375-35.859-50.156-63.984-51.984-65.156-6.75-4.5-15.984-1.0781-18.188 6.7031-1.5469 5.4375-4.125 8.9062-8.1094 11.016-8.8125 4.5938-22.641 1.5469-27.141 0-6.7031-2.3438-13.781 1.5938-15.562 8.25-10.969 40.969 25.266 103.59 29.438 110.58 0.1875 0.28125 0.51562 0.42188 0.70312 0.70312 15 21.141 50.812 36.047 79.453 21.281 18.891 23.391 29.438 69.75 33.328 95.016-6.2812-1.5-11.156-3.0469-12.469-4.4062 0-0.09375-0.046875-0.14062-0.046875-0.1875-0.14062-0.98438-0.51562-1.875-0.89062-2.8125-4.4531-11.203-19.547-9.4219-22.5 1.0312 0 0.046875-0.046875 0.09375-0.09375 0.14062-10.312 38.625-6.2812 74.484-4.0312 88.266-5.7188 54.188 57.328 164.44 97.781 228.74l-10.031-1.8281c-19.594-3.5156-37.875 11.531-37.875 31.688v68.625c0 20.531 19.031 35.859 39.141 31.312l127.87-28.406c2.4375 10.547 11.859 18.422 23.109 18.422h45.469c11.391 0 20.953-8.0625 23.25-18.797l129.28 28.781c2.2969 0.42187 4.6875 0.70312 7.0781 0.70312 17.344 0 32.016-14.109 32.016-32.109v-68.625c0-19.828-17.719-35.156-37.875-31.688l-130.64 23.766c-2.4375-10.594-11.859-18.516-23.156-18.516h-45.469c-11.156 0-20.484 7.7344-23.016 18.141l-86.953-15.75c-47.953-73.875-99-166.6-106.03-215.72 30.844 17.297 103.69 41.438 274.92 53.953 10.078 0.75 18.281 8.5312 19.641 19.359 0.14063 2.4375-1.4062 4.5938-3.75 5.1562l-55.125 13.078c-27.188 6.4219-27.281 59.062 2.9062 60.938 31.359 1.8281 129.42 5.4844 199.64-14.016-3.4688 7.9688-7.2188 16.5-11.625 26.109-3.6562 7.9688 2.1562 17.016 10.922 17.016 4.5469 0 8.9062-2.5781 10.922-6.9844 9.7031-21.188 17.297-38.672 31.5-74.625 18.891-47.812 29.812-67.312 33.75-101.44 1.8281-15.891 4.875-30.469 9.0469-44.766 2.0625-3.0938 18.328-58.078 44.719-81.562zm-640.64-187.64c5.1094-2.625 9.4219-6.2812 12.844-10.781 11.625 9.7969 26.344 25.312 30.656 40.969-9 21.469-26.016 36.797-51.844 46.547-9.4688-17.906-23.25-49.078-23.438-72.141 9.0938 1.125 21.094 0.98438 31.781-4.5938zm9.3281 95.438c20.766-9.4688 36.75-22.641 47.766-39.469 12.328 33.891-16.453 57.609-47.766 39.469zm483.32 451.69c4.875-0.9375 9.6562 2.7656 9.6562 8.0625v68.625c0 5.25-4.9219 9.0469-9.8906 7.875l-133.97-29.812v-30.328zm-158.26 5.4375v58.922l0.23437 9.6562-45.234 0.23438v-60.234l-0.23438-8.3906zm-69 49.688-132.47 29.438c-5.0625 1.2188-9.8906-2.7188-9.8906-7.875v-68.625c0-5.1094 4.6406-8.9531 9.6094-8.0625l132.74 24.047zm297.61-291.1c-3.2812 28.547-10.641 41.906-39.422 113.39-67.078 26.156-186.66 20.812-209.44 20.391-2.3438-6.7969-0.70312-13.641 0.23438-14.625l55.078-13.078c38.297-8.9062 23.906-68.625-19.641-71.859-242.86-17.766-277.03-59.484-277.18-59.484-0.23438-0.42188-0.5625-0.75-0.84375-1.1719-1.3125-11.531-2.2969-29.906 0.60937-50.438 11.016 4.2188 26.531 6.8906 46.406 10.312 81.656 13.875 195.37-10.219 274.31-32.953 8.1562-2.3906 16.688 0.70312 21.188 7.6406 9.75 15.75 24.188 23.859 40.5 24.891l121.22 7.7812c-6.3281 18.891-10.594 38.062-13.031 59.203zm87.703-146.63c-5.8594-7.3594-6-17.812-1.4062-27.562 6.2344 13.312 15.891 24.938 28.969 34.828-10.922 2.7188-21.562 0.32812-27.562-7.2656zm44.859-77.25c5.4375 9.4688 15.938 17.062 32.766 18.703-4.2656 17.578-18.656 38.672-28.781 51.469-18.094-11.438-28.781-25.781-32.766-43.359 5.5781-11.062 18.281-20.719 28.781-26.812z"/>
 <path d="m726.47 457.4c6.0938 2.2969 13.078-0.79688 15.422-7.0781 21.234-56.953 0.84375-84.422-1.5469-87.375-4.0312-4.9219-11.203-5.8594-16.312-2.1562-24.516 17.625-42.234 39.844-52.688 66.094-2.4844 5.2969-0.79688 11.719 4.2188 15.047 6.375 4.2656 15.094 1.4531 17.859-5.625 7.0781-18 17.812-33.328 32.719-46.547 2.2031 10.172 2.5781 27.188-6.75 52.219-2.2969 6.1875 0.84375 13.125 7.0781 15.422z"/>
 <path d="m427.18 83.109c-35.578-2.7188-62.531 30.797-63.703 32.203-4.1719 5.1562-3.375 12.656 1.7344 16.828s12.656 3.4219 16.875-1.6875c0.23438-0.23438 20.531-24.797 43.5-23.438 12.844 0.9375 24.938 10.594 35.906 28.781 3.4219 5.6719 10.781 7.5 16.453 4.0781s7.5-10.781 4.0781-16.453c-15.281-25.312-33.75-38.859-54.844-40.312z"/>
 <path d="m522.42 177c1.2656-7.3125-0.51562-14.438-5.0625-20.578-13.641-18.422-40.734-3.7031-58.125 11.25-5.0156 4.3125-5.5781 11.906-1.2656 16.922s11.906 5.5781 16.922 1.2656c8.0625-6.9375 19.125-13.359 23.812-14.016 0.14062 0.46875 0.09375 0.79688 0.046875 1.125-1.8281 10.828-29.906 29.953-65.109 53.859-19.922 13.547-30.891 28.5-32.531 44.391-1.875 17.578 8.5781 29.109 9.7969 30.328 2.3438 2.4375 5.4375 3.6562 8.5312 3.6562 10.312 0 15.891-12.328 8.9531-20.156-0.1875-0.1875-4.1719-4.7812-3.3281-11.625 3.375-27.516 90.891-58.359 97.359-96.422z"/>
 <path d="m366.94 194.44c-6.5625-1.3125-12.844 2.9062-14.156 9.375s2.8594 12.797 9.3281 14.109c43.312 8.8594 82.641-7.4062 78.984-51.797-0.5625-6.6094-6.3281-11.531-12.938-10.969-6.6094 0.51562-11.531 6.3281-10.969 12.938 0.75 9.375-1.2188 16.031-6.0469 20.297-11.156 10.031-35.719 7.7812-44.203 6.0469z"/>
 <path d="m705.14 84.562c-30.094-18.375-69.75-1.5-71.391-0.75-6.0938 2.625-8.8594 9.7031-6.2344 15.797s9.75 8.9062 15.797 6.2344c40.359-14.859 65.109-2.9531 68.016 41.391 0.42188 6.3281 5.6719 11.203 11.953 11.203 6.9844 0 12.422-5.8594 12-12.797-1.9219-29.531-12.047-50.062-30.141-61.078z"/>
 <path d="m742.13 176.86c-13.969-9.375-39.891-4.2656-47.484-2.4844-6.4688 1.5469-10.453 7.9688-8.9062 14.438 1.5 6.4688 8.0156 10.359 14.391 8.9531 10.547-2.4844 23.156-3.0938 27.609-1.4531-1.7344 10.781-68.062 17.016-83.062 18.797-23.859 2.8594-40.453 11.016-49.266 24.281-9.0938 13.688-10.406 40.078 6.0469 40.078 8.1094 0 13.547-7.6406 11.672-15.094-0.046875-0.23438-1.5-6.1875 2.3906-11.906 15.656-22.781 107.62-9.9844 130.87-40.688 7.9219-10.453 7.7344-26.859-4.2656-34.922z"/>
 <path d="m679.26 164.72c2.5781-6.1406-0.32812-13.172-6.4219-15.703-6.1406-2.5781-13.172 0.32812-15.703 6.4219-3.6562 8.6719-8.4375 13.641-14.719 15.234-14.438 3.7031-35.297-9.6562-42.047-15.094-5.1562-4.125-12.703-3.3281-16.875 1.8281s-3.375 12.703 1.7812 16.875c34.406 27.797 76.781 31.594 93.984-9.5625z"/>
 <path d="m880.87 108.7c-6.5156 1.1719-10.875 7.4062-9.7031 13.922s7.4062 10.828 13.922 9.7031c0.375-0.09375 32.156-5.2969 48.188 10.594 9.1875 9.0938 12.047 24.328 8.5312 45.281-1.125 6.5156 3.2812 12.75 9.8438 13.828 6.1875 1.1719 12.703-3.0938 13.828-9.8438 4.9219-29.109-0.23438-51.422-15.281-66.328-25.078-24.797-67.547-17.484-69.328-17.156z"/>
 <path d="m795.37 280.69c0.28125 6.4219 5.5781 11.391 11.953 11.391h0.375c6.5625-0.1875 11.766-5.7656 11.625-12.328 0-0.23438-0.046875-6.375 5.0625-11.016 6.2344-5.625 18.094-7.6875 34.219-5.8594 41.625 4.7812 109.03 17.625 112.08-22.594 1.6875-22.875-28.5-29.391-51.422-29.391-6.6094 0-12 5.3438-12 12 0 6.6094 5.3438 12 12 12 10.828 0 23.203 2.3438 27.234 4.9219-1.6875 4.0312-14.391 8.3906-85.172-0.79688-23.859-2.6719-41.812 1.4062-53.484 12.281-12.562 11.719-12.609 26.531-12.469 29.391z"/>
 <path d="m906.61 197.9c3.8906-5.3438 2.7188-12.844-2.6719-16.734-5.3438-3.8906-12.844-2.6719-16.734 2.6719-5.5312 7.5938-11.344 11.344-17.812 11.438-15.328 0.046875-32.156-17.438-37.453-24.328-4.0781-5.2031-11.672-6.1875-16.828-2.1094-5.25 4.0781-6.1875 11.578-2.1562 16.828 27.281 35.109 67.547 48.234 93.656 12.234z"/>
</svg>
