<?xml version="1.0" encoding="UTF-8"?>
<svg width="1200pt" height="1200pt" version="1.1" viewBox="0 0 1200 1200" xmlns="http://www.w3.org/2000/svg">
 <path d="m1022.2 398.72c-12-14.203-19.266-33.469-19.266-54.75 0 21.469-7.2656 40.734-19.078 54.75-12 13.828-28.172 22.547-46.359 22.547 36.188 0 65.25 34.734 65.25 77.625 0-21.469 7.2656-40.734 19.266-54.75 11.625-14.203 28.172-22.734 46.359-22.734-18-0.14062-34.547-8.8594-46.172-22.688z"/>
 <path d="m937.45 460.36c0 10.734-3.6562 20.203-9.4688 27.281-6 6.8906-14.016 11.25-23.109 11.25 18 0 32.531 17.25 32.531 38.531 0-10.734 3.6562-20.203 9.6562-27.281 5.8125-7.0781 14.016-11.25 23.109-11.25-8.9062 0-17.25-4.3594-23.109-11.25-5.9531-7.0781-9.6094-16.734-9.6094-27.281z"/>
 <path d="m1096.9 95.25c-0.375-2.3438-0.75-4.7344-1.2656-6.8906-5.625-23.25-23.812-43.078-46.172-50.719-24.75-8.3438-54-1.8281-72.75 16.547-11.109 10.922-16.172 24.375-13.641 36 1.6406 8.0156 7.4531 15.094 15.281 18.75 6.5625 2.9062 13.641 2.7188 19.266-0.75 5.4375-3.2812 8.3438-8.3438 11.109-12.891 2.3438-3.9844 4.3594-7.4531 7.4531-9.0938 2.5312-1.2656 5.4375-0.75 6.75-0.1875 3.0938 1.0781 5.625 3.4688 6.8906 6.375 2.7188 6.375-0.1875 14.016-3.9844 18.891-4.1719 5.1094-10.359 8.9062-19.641 12.562-9.7969 3.7969-20.203 6.1875-31.266 6.8906-3.9844 0.375-8.3438 0.375-12.375 0.1875-6.1875-0.1875-12.375-1.0781-18.891-1.8281-7.4531-0.89062-15.094-1.8281-22.922-2.0156-13.453-0.1875-24.891 2.2031-35.109 7.2656-2.9062 1.4531-5.8125 3.2812-8.5312 5.4375-12.75 9.9844-20.203 25.266-21.469 44.203-1.0781 16.547 2.7188 34.172 11.109 51.281 0.75 1.6406 1.6406 3.0938 2.5312 4.5469l-155.44 158.34c-15.984-7.6406-32.906-12.891-50.203-14.906-2.9062-0.375-6-0.5625-9.0938-0.75-60.891-3.2812-121.45 16.734-166.55 54.891-3.7969 3.0938-6 7.6406-6.1875 12.562s2.0156 9.6562 5.625 12.891c7.4531 6.8906 12 18 12.188 29.625 0 3.2812-0.1875 6.1875-0.75 8.9062-3.4688 18.75-15.281 34.547-27.984 50.531-10.359 12.891-21.797 26.344-35.812 35.25-15.094 9.6562-31.453 12.562-45.094 8.2031-10.734-3.6562-19.828-12.891-22.359-23.109-1.2656-4.9219-4.5469-9.0938-8.9062-11.25-3.9844-2.0156-8.5312-2.3438-12.891-0.75-85.641 33.797-155.81 105.66-187.82 192.19-18.375 50.203-22.547 105.47-12.188 159.79 3.2812 17.438 8.2031 35.438 14.531 53.25 6.75 18.375 15.469 35.25 26.016 50.531l-84.188 129.47c-2.7188 4.5469-1.8281 10.359 2.0156 14.016 2.2031 2.0156 4.7344 2.9062 7.4531 2.9062 2.2031 0 4.5469-0.75 6.375-2.0156l120.89-84.188c52.922 56.531 129.47 89.812 205.26 89.812 13.828 0 27.797-1.0781 41.438-3.4688 52.734-8.9062 105.66-33.984 152.53-72.562 40.547-33.281 73.078-79.641 102.19-124.92 5.25-8.0156 4.3594-18.75-2.0156-25.828-24.891-27.656-34.172-62.906-28.547-108 2.0156-15.656 6.375-27.656 13.078-36.562 8.0156-10.547 20.016-16.547 31.266-15.656 6.375 0.5625 14.016 3.9844 19.266 9.0938 4.5469 4.1719 10.734 6.1875 16.734 5.4375 6.1875-0.5625 11.625-3.7969 15.281-8.9062 16.547-22.922 33.469-48.188 46.734-76.359 18.75-39.656 25.828-77.812 21.469-113.44-4.1719-33.469-19.641-67.828-44.719-99.656-13.453-16.922-28.734-32.016-44.203-45.656l152.34-155.11c0.5625 0.1875 1.2656 0.375 1.8281 0.5625 5.4375 1.0781 11.109 1.6406 16.734 1.6406 23.109 0 47.625-8.5312 70.547-24.891 34.547-24.75 57.797-60.375 67.078-103.27 6.2344-23.016 7.125-47.719 3.7031-73.219zm-286.18 454.92c5.1094 53.625-10.922 105.47-46.172 150.19-1.2656 1.8281-3.2812 1.8281-4.1719 1.8281-2.0156-0.1875-3.6562-1.4531-4.5469-3.2812-6-12.375-17.625-21.469-29.625-23.25-16.734-2.5312-34.359 6.75-51.281 26.719-30.562 36.562-50.531 82.734-56.203 130.18-1.6406 13.078-2.5312 32.344 7.4531 47.25 5.8125 8.5312 16.172 14.531 26.531 15.469 1.8281 0.1875 3.6562 1.0781 4.5469 2.5312 0.5625 0.89062 1.0781 2.2031 0.5625 3.9844-28.734 78.375-91.453 141.28-172.18 172.36-76.734 29.625-161.26 26.906-226.18-7.2656-39.469-20.719-70.547-58.172-87.797-105.09-6.1875-17.25-11.109-34.547-14.203-51.281-9.9844-52.359-6-105.47 11.625-153.66 30.75-83.438 98.344-152.72 181.08-185.26 0.5625-0.1875 0.89062-0.375 1.4531-0.375s1.2656 0.1875 1.8281 0.5625c1.4531 0.75 2.5312 2.2031 2.9062 3.7969 3.6562 14.203 15.469 26.531 30 31.266 17.109 5.4375 37.078 2.0156 55.078-9.4688 15.656-9.9844 27.656-24.188 38.719-37.828 13.078-16.547 26.344-34.359 30.375-55.828 0.5625-3.4688 0.89062-7.0781 0.89062-11.109-0.375-15.094-6.1875-28.922-15.984-38.203-1.0781-1.0781-1.8281-2.5312-1.8281-3.9844 0-1.4531 0.75-2.9062 2.0156-3.7969 42.75-36.375 100.55-55.266 158.53-52.172 2.7188 0.1875 5.4375 0.375 8.2031 0.75 14.719 1.6406 29.25 6 42.891 12.188l-129.79 132.19c-5.25 5.25-6.5625 13.453-3.0938 19.828 1.0781 2.0156 2.5312 3.6562 3.6562 5.625l-209.86 228.61c-9.6562-5.625-19.828-10.172-30.375-13.453-9.6562-3.0938-20.016 1.6406-24.188 10.922-23.438 51.656-53.812 97.828-92.906 141.1-6 6.5625-12.375 13.266-18.75 19.828-6.8906 6.8906-7.6406 17.812-2.0156 25.641 6.8906 9.7969 15.281 17.812 25.078 24 3.2812 2.0156 6.8906 3.0938 10.359 3.0938 4.9219 0 9.7969-1.8281 13.641-5.4375 36.375-33.797 74.203-62.719 112.55-85.641 0.1875-0.1875 0.5625-0.1875 0.75-0.375 18.75-11.25 37.078-20.906 54.891-28.734 4.9219-2.2031 8.9062-6.375 10.734-11.25 1.8281-4.9219 1.6406-10.359-0.5625-15.094-5.8125-12.188-13.453-23.625-22.547-33.797l207.47-226.18c3.4688 1.8281 6.75 3.7969 10.359 5.25 1.8281 0.75 3.7969 1.0781 5.8125 1.0781 4.5469 0 8.9062-1.8281 12.188-5.25l135.1-137.63c20.438 25.547 34.031 56.297 36.984 88.453zm-395.68 312.74c0.89063 1.8281 0.89063 3.9844 0.1875 6-0.75 2.2031-2.3438 3.7969-4.5469 4.7344-18 8.0156-36.75 17.625-55.641 28.922-0.1875 0.1875-0.5625 0.1875-0.75 0.375-39.281 23.438-78 52.922-115.27 87.469-2.7188 2.5312-6.75 2.9062-9.7969 1.0781-8.3438-5.25-15.656-12.375-21.797-20.906-2.3438-3.2812-2.0156-7.8281 0.89062-10.547 6.5625-6.75 12.891-13.453 19.078-20.203 39.984-44.203 70.922-91.266 94.922-144.19 1.2656-3.0938 4.3594-4.9219 7.4531-4.9219 0.89062 0 1.6406 0.1875 2.5312 0.375 35.859 11.062 66.75 37.969 82.734 71.812zm215.68-272.02c-1.4531 1.4531-3.7969 2.0156-5.4375 1.4531-18-7.2656-32.203-20.344-42.375-39.094-1.0781-1.8281-0.5625-4.3594 1.0781-6l291.79-297.28c12.75 19.078 30.188 33.469 49.641 40.734zm451.97-424.74c-8.7188 39.984-30.375 73.266-62.344 96.188-15.094 10.734-45.094 27.656-78.375 21.281-26.531-5.1094-50.719-25.078-64.547-53.625-7.4531-15.281-10.922-30.891-9.9844-45.469 1.0781-15.797 6.75-27.797 16.922-35.625 2.0156-1.6406 4.3594-3.0938 6.75-4.1719 8.0156-3.9844 17.25-6 27.797-6h1.6406c7.0781 0.1875 14.203 0.89062 21.656 2.0156 6.5625 0.75 13.078 1.6406 20.016 2.0156 4.5469 0.1875 9.2812 0.1875 13.641-0.1875 12-0.89062 23.625-3.4688 34.547-7.8281 11.25-4.3594 19.078-9.2812 24.562-15.984 7.4531-9.0938 9.7969-21.094 5.8125-30.75-2.3438-5.8125-7.4531-10.547-13.641-12.891-5.625-2.0156-11.25-1.8281-16.172 0.75-6 3.0938-9.2812 8.5312-12.188 13.453-2.2031 3.6562-4.1719 7.0781-7.0781 8.9062-3.2812 2.0156-6.75 0.89062-8.5312 0-4.1719-1.8281-7.6406-6-8.5312-10.359-1.6406-7.8281 2.2031-17.25 10.359-25.453 15.656-15.281 40.172-20.906 60.75-13.828 18.75 6.375 33.797 23.109 38.531 42.375 0.375 1.8281 0.89062 3.6562 1.0781 5.625 3.3281 24.281 2.4375 47.766-2.6719 69.562z"/>
 <path d="m342 260.34c3.2812 10.359 9.7969 19.266 18.75 24.562 3.2812 2.2031 7.2656 3.7969 12.375 5.25 9.2812 2.5312 18.891 1.8281 28.172-1.8281 10.172-3.9844 18.562-11.109 24.188-20.531l50.719-84.891 89.625 21.094-26.719 45.469c-9.6562-9.2812-23.438-13.453-36-10.547-9.9844 2.3438-19.078 8.9062-24.891 17.625-8.7188 13.078-9.2812 30.891-1.6406 44.531 6 10.734 16.922 18.75 29.438 21.094 2.7188 0.5625 5.25 0.75 7.6406 0.75h1.8281c16.734-0.75 30.375-9.2812 36.188-22.547l63.281-105.8 18.891-31.266c2.5312-5.2969 2.9062-10.969 0.70312-16.219-2.3438-5.1094-6.5625-8.5312-12.188-9.9844l-129.28-28.922c-9.2812-2.2031-18.891 2.0156-23.812 10.172l-59.109 98.906c-2.7188-2.3438-5.625-4.3594-8.7188-5.8125-4.9219-2.5312-10.172-3.7969-15.984-3.9844-5.1094-0.375-9.7969 0-14.344 1.2656-0.1875 0-0.5625 0-0.75 0.1875-6 1.6406-11.438 4.1719-15.797 7.6406-1.8281 1.2656-3.6562 2.9062-5.25 4.9219-5.1094 5.8125-8.3438 12.891-9.0938 20.531-0.5625 3.6562-0.375 7.8281 0.1875 11.438 0.14062 1.6406 0.70312 4.5469 1.5938 6.8906z"/>
 <path d="m211.26 399.47c-5.8125 3.4688-13.078 9.6562-19.078 15.984-2.9062 3.2812-5.1094 6.1875-7.0781 9.4688-0.5625 1.0781-1.0781 2.0156-1.4531 2.9062-7.0781 14.719-4.3594 30.75 7.0781 43.078 3.2812 3.4688 6.8906 6.375 10.922 8.7188 0.1875 0.1875 0.5625 0.1875 0.75 0.375 7.8281 4.3594 16.172 6.5625 24.375 6.5625 6 0 12-1.2656 17.25-3.6562 1.6406-0.5625 3.2812-1.4531 5.1094-2.7188 13.641-8.2031 25.266-23.812 28.547-38.344 2.0156-9.2812 0.5625-17.812-4.1719-24.891-1.8281-2.7188-9.2812-9.9844-11.109-11.438l-76.547-71.25c1.2656-0.89062 2.5312-1.6406 3.9844-2.5312 5.1094-3.2812 9.7969-6.5625 14.906-8.2031 7.6406-2.3438 16.734-1.6406 25.828 2.0156 4.9219 2.0156 8.9062 3.6562 12.75 5.25 3.6562 1.4531 7.2656 3.0938 11.625 4.7344 2.2031 0.89062 4.7344 0.375 6.375-1.4531s2.0156-4.3594 1.0781-6.5625c-12.891-27.797-41.109-41.438-77.438-37.453l-4.7344 0.5625c-8.2031 0.89062-16.734 2.0156-24.75 1.8281-1.4531 0-2.9062-0.1875-4.9219-0.5625-0.75 0-1.6406-0.1875-2.9062-0.375s-2.3438-0.375-3.7969-0.75l-1.2656-0.375c-5.625-1.2656-10.922-2.5312-18.188 3.2812-0.375 0.1875-7.4531 6.375-7.6406 13.266 0 2.7188 0.89062 5.4375 2.9062 7.2656z"/>
</svg>
