<?xml version="1.0" encoding="UTF-8"?>
<svg width="1200pt" height="1200pt" version="1.1" viewBox="0 0 1200 1200" xmlns="http://www.w3.org/2000/svg">
 <path d="m400.31 166.4c-26.062 3.5625-34.031 21.891-24.188 36.562 4.3125 6.0938 10.922 10.219 17.578 12.281 0.98438 0.32812 1.5 0.42188 1.5 0.375 0.28125-0.5625-10.734-4.2188-16.312-14.297-0.14062-0.28125-0.23438-0.5625-0.375-0.84375 10.031 18.516 57.75 21.188 74.766 15.234 12.516-4.4062 18.422-11.297 20.016-19.547 0.98438 7.6406-0.09375 14.719-6 17.906-27.094 12.375-70.875-1.5-72.094 1.5469-0.5625 1.1719 2.9531 3.8906 10.359 6.6094 15.281 5.4844 38.438 8.1094 56.297 4.0781 4.0781-0.79688 8.6719-2.8594 9.8906-3.4219 20.672-10.266 10.641-42.047 0.09375-62.438-2.5312-4.7812-5.25-9.4688-8.1562-14.156-7.4062-11.766-17.484-25.734-28.031-34.875-17.531-15.094-30.75-11.578-38.203 0.84375-9.5625 16.547-7.8281 38.391 4.3125 53.906-0.42188 0.046875-0.79688 0.14062-1.1719 0.1875-0.09375 0-0.1875 0.046875-0.28125 0.046875zm-23.203 30.281c-1.3125-4.875-0.65625-9.7031 2.3438-13.781-2.7188 5.25-3.3281 9.8438-2.3438 13.781zm34.406-84.141c3.2344-1.3125 7.125-0.046875 11.062 2.2969-1.6875-0.46875-3.4219-0.75-5.25-0.65625-5.8594 0.32812-10.688 4.0312-13.828 9.0469 1.6406-4.2188 4.3125-9.1875 8.0156-10.688z"/>
 <path d="m594.89 278.95c0.14062 0.046875 0.23438 0 0.375 0.046875 0 0.14062 0.23438 0.5625 0.32812 1.1719 1.6406 7.3594 8.9531 1.3125 6.7031-0.23438-1.125-0.84375-2.0156 1.0781-3.0938 1.125-0.89062 0.09375-1.5938-1.3594-2.8594-1.9688 1.3125 0.14062 2.8125 0.5625 8.3906-0.375 1.6406-0.28125 2.7188-0.60938 2.7188-0.70312s-1.0312-0.375-2.7188-0.65625c-3.4219-0.65625-7.2656-0.5625-9.2344-0.98438-4.3594-0.79688-6.7969-3.5625-7.6875-2.625-1.0781 0.79688 1.875 4.0312 7.0781 5.2031z"/>
 <path d="m601.87 267.05c0.046875-0.046875-1.0312-0.79688-2.8125-1.7812-3.8438-2.1094-7.0312-3.1875-10.922-4.0781-5.8125-1.3594-10.594-1.0781-10.5 0.14062 0.046875 1.5 4.2188 0.70312 13.594 3.4219 5.4375 1.5938 10.547 2.5312 10.641 2.2969z"/>
 <path d="m609.94 225.98c19.312 7.2188 27.797 0.65625 38.297 10.406 8.5781 7.8281 6.1406 14.906 8.3906 29.203 1.1719 7.0312 3.7031 16.922 9.0938 21.609 1.7344 1.5469 3.0469 1.875 3.375 1.4531 0.89062-1.125-2.25-4.0781-4.5469-11.062-3.8906-11.062-3.8906-25.781-4.3594-29.578-1.8281-12.234-12.375-22.219-25.828-22.125-5.5781 0.28125-10.172 0.375-14.344 0.09375-10.547-0.65625-18.141-3.0938-10.078 0z"/>
 <path d="m708.71 251.72c-7.9688-4.7344-14.719-4.3594-19.828-1.125-7.6875 4.8281-10.875 13.922-10.969 22.875 0 4.875 1.5 4.9219 2.9531 0.42188 1.7344-5.2031 3.0938-14.484 10.641-18.984 2.0156-1.1719 4.3125-1.8281 6.7969-1.5469 4.6406 0.46875 10.922 4.1719 13.125 7.8281 1.2656 1.9688 1.7812 4.3594 1.7344 6.8906-0.09375 8.3906-5.7656 19.875-15.562 26.625-7.1719 4.875-13.312 4.875-13.219 5.25 0.42188 0 3.75 0.70312 8.7188-0.60938 18.422-4.3594 30.797-28.359 22.828-40.922-1.875-2.9531-4.5469-5.0625-7.2188-6.7031z"/>
 <path d="m570 116.44c-6.2344 6.8438-15.938 11.625-24.094 16.031-26.297 14.203-29.859 27.234-27.844 45 2.3906 19.219 18 30.281 36.656 32.156-2.0625 24.234 8.0625 34.547 9.1875 46.969 1.5469 15.609-9.3281 30.375-7.3125 39.516 2.4375 10.547 18.234 9.75 27.328 4.1719 1.3594-0.84375 2.2031-1.5938 2.6719-2.2031 1.5 2.9531 5.9062 7.4062 6.2344 7.8281 2.7656 2.9062 5.0156 5.1094 5.8594 4.2188 0.9375-0.98438-1.3125-3-3.9375-6l-1.8281-1.9688c-2.5312-2.5781-5.4844-4.0312-6.2344-4.2188 2.3906-3.7969-11.812 3.9375-20.906 1.1719-12.328-3.8438 5.5312-21.094 3.375-42.984-1.5469-13.922-11.109-20.953-12.984-46.312 7.875 0.60938 12.516-0.5625 15.281 0.98438 4.875 2.3906 14.766 14.859 26.25 10.781 2.25-0.79688 3.7031-2.1094 4.3594-3.1875s0.60938-1.875 0.14062-2.2969c-2.2031-2.0156-6.8438 3.1406-16.875-6.0469-2.3906-2.0156-4.6875-5.0156-9.375-7.8281-7.4062-4.3125-15.234-0.46875-27.797-4.3125-7.875-2.3438-15.516-8.1094-18.328-15.891-1.3125-3.4219-1.6406-8.0625-1.7344-12.422-0.75-22.828 26.062-29.578 40.031-46.781 1.9688-1.6406 1.1719-1.4531 6.75-6.375 21.047-18.469 50.344-26.203 76.969-19.266 14.25 3.7031 36.234 15.703 52.453 33.047 22.266 23.203 24.891 45.469 31.641 69.328 2.6719 9.8438 5.5781 17.719 8.2969 22.781 2.6719 5.1094 5.0156 7.4062 6.0469 6.8906 2.3438-1.0781-1.0781-9.2812-5.625-31.734-4.4531-20.438-7.2656-37.359-18.094-55.312-16.781-28.219-49.031-49.688-72.375-54.75-30.984-6.75-63.703 5.7656-81.562 28.453 1.2656-2.7188 1.5469-4.4062 1.4531-4.4531-0.14062-0.14062-1.3125 1.9688-4.0781 5.0156z"/>
 <path d="m695.29 333.05c-1.9688 1.3125 11.25 16.688 13.219 18.891 4.1719 4.5938 9 8.7656 12.094 10.922 2.2969 1.6406 2.4844 2.0156-10.125-12.703-9.6094-10.875-14.016-17.906-15.188-17.109z"/>
 <path d="m603.32 319.69c4.6875 21.75 16.547 35.156 38.391 30.516 13.594-3 26.484-11.297 37.547-18.328 5.4375-3.4688 10.312-7.125 13.5-11.156 6.4219-7.9219 5.625-15.234 4.3594-15.234-1.5469-0.09375-1.5 5.5781-7.7344 12.281-3 3.2812-7.4062 6.4688-12.844 9.7969-15.328 9.4219-39.188 24.656-55.125 15.75-8.9062-4.875-13.266-14.484-17.016-23.297 0.42188 0 2.4375 0.70312 5.8594-0.65625 1.3125-0.5625 1.9219-1.125 1.7344-1.6875 0-0.046875-0.046875-0.09375-0.09375-0.14062 3.9375 0 5.4844-1.9219 4.9219-2.625-1.0312-1.3594-3.6094 1.6875-9.2812-1.1719-1.9219-0.9375-3.7969-1.9688-5.1562-2.6719v-0.046875h-0.09375c-2.2969-1.1719-2.1562-1.0312-1.1719 0.375-2.4844 1.5938-2.6719 6.5156 2.2031 8.2969zm-1.5938-7.5469c0.046875 0.09375 7.3125 4.9219 7.6875 5.1562-2.5312 0.42188-4.5469 0.75-6.6562-0.9375-0.046875-0.09375-0.09375-0.1875-0.14062-0.1875v0.046875c-1.2656-1.0781-1.5469-2.8125-0.89062-4.0781z"/>
 <path d="m485.53 738.05c-0.65625 1.125 2.8125 3.9844 9.2344 7.5938 23.953 13.453 48.797 19.219 82.078 15.562 4.7344-0.51562 4.5469-0.5625 0-1.0781-40.453-4.2656-48-3.9844-80.016-18.469-6.5625-3-10.688-4.7344-11.297-3.6094z"/>
 <path d="m493.55 726.56c2.0156 3.0469 6.3281 6.0469 8.2969 7.5 1.3125 0.98438 2.9062 1.8281 4.5469 2.8125 14.062 7.6406 29.156 10.219 45.281 8.9531 1.0781-0.09375 9.6094-0.9375 9.6094-1.4062 0-0.09375-0.9375-0.28125-2.5781-0.51562-10.969-1.4062-28.969-3.4219-39.328-7.0781-11.719-3.7031-18.562-9.4219-23.812-12.422-2.9531-1.6406-3.75-0.375-2.0156 2.1562z"/>
 <path d="m528.14 696.61c-4.7344-0.32812-10.125-1.3594-14.578 0.79688-4.7344 2.2031-7.1719 8.6719-1.8281 15.844 4.0312 5.2969 10.734 6.8438 16.688 8.2031 30.844 6.75 51.469 17.812 52.359 15.844 1.0781-1.875-21.609-13.969-51.234-20.766-5.2031-1.1719-10.781-2.5781-13.688-6.4219-1.5-1.875-2.2969-4.5-1.7344-6.0938 1.125-3.8438 9.6094-2.3906 13.547-2.1094 0.42188 0.046875 27.375 1.9219 25.688 1.8281 29.109 2.1094 57.891 10.688 87.984-0.70312 4.7344-1.7812 7.125-3.2812 7.125-3.2812-0.046875-0.14062-2.625 0.98438-7.4531 2.25-21.422 5.7188-41.297 3.2812-62.859-0.51562 2.0625-3.5625 2.1562-10.641 2.1562-14.766-0.046875-7.2188-1.4531-15.656-1.8281-18-3.2812-17.531-7.0781-28.359-13.266-41.812-9.6562-20.109-25.219-35.625-35.812-41.438-2.7188-1.5938-4.2656-2.3438-4.4062-2.1562-0.32812 0.42188 7.3594 8.4844 10.828 13.734 0.28125 0.42188 6.2344 8.6719 9.8906 15.234 4.7344 7.6875 13.594 25.922 17.297 37.922 1.3125 3.5625 2.1562 7.125 3.1875 10.5 5.5312 21.609 5.4375 34.594 7.7344 40.031-15.703-2.5312-30.844-2.9062-37.359-3.5156z"/>
 <path d="m565.92 772.6c-0.1875-2.8125-11.203-1.3594-25.359-3.75-13.641-1.9688-35.625-8.3906-35.812-7.9219-0.046875 0.046875 0.60938 0.5625 1.8281 1.3594 22.406 15.375 59.812 14.391 59.344 10.312z"/>
 <path d="m578.26 787.22c31.734-2.2031 57.234-10.125 56.297-12.891-0.375-1.3594-4.875-0.51562-12.141 0.98438-14.625 3.0938-26.859 5.3906-44.484 6.6094-37.125 2.7188-51 0.65625-40.453 2.7188 2.2031 0.51562 25.359 3.5156 40.781 2.5781z"/>
 <path d="m221.81 409.92c-25.031-38.719-82.266-32.016-98.672 9.3281-11.906-19.406-16.078-43.734-18.516-66.328-1.7344-16.266-2.5312-25.266-3.8438-25.172-1.3125-0.046875-2.3906 8.9531-2.0625 25.547 0.60938 26.578 5.6719 55.922 21.234 77.297-2.2969 12.469-0.1875 24.047-0.1875 24.75 0.14062 14.766 4.3594 38.203 12.469 59.672 7.0312 19.219 18.375 41.344 35.531 62.859 93.609 118.03 250.69 88.688 389.48 75.516-132.61 3.8906-290.39 40.312-385.55-78.703-23.391-29.109-39.516-63.516-47.344-102.94 14.812 37.406 54.234 59.719 89.719 78.562 38.953 19.688 76.688 31.734 120.56 35.109 9.5156 0.375 18.703 0.89062 27.562 0.28125 8.8594-0.046875 17.297-1.2656 25.406-2.1562 3.0938-0.23438 4.0781-0.51562 22.875-4.0781 23.203-6.2812 13.547-3.1875 37.172-11.391 3.8906-1.5 6.2344-2.5781 20.016-8.5312 2.4844-1.1719 13.172-6.7969 17.906-9.375 6.7969-3.7969-11.062 4.6406-18.609 7.6875-22.688 8.3438-37.172 13.969-68.438 18.656-3.75 0.46875-7.5938 1.3125-11.578 1.5-7.9688 0.5625-16.219 1.4531-24.891 1.2188-8.6719 0.32812-17.578-0.51562-26.812-1.125-38.156-4.0781-74.203-14.578-116.58-36.703-42.141-23.062-90.469-51.797-89.297-99.891 40.453 39.938 125.11 19.828 92.438-31.594zm-90.938 19.828c7.7812-32.156 46.078-46.219 72.469-24.938 9.8438 7.7812 20.203 24.469 13.594 34.688-9.5156 14.812-56.578 23.906-86.062-9.75z"/>
 <path d="m686.81 686.58c-8.1094 4.1719-13.594 3.7031-13.5 4.0312 0 0 1.2656 0.09375 3.7031-0.14062 15.516-1.4531 29.297-16.406 40.172-27.047 25.594-25.359 61.875-61.125 87-87.094 45.938-48.281 86.297-101.11 86.344-167.39-0.32812-11.344-3.6562-25.406-12.844-31.547-1.8281-1.2656-3-1.5938-3.0938-1.3594-0.89062 1.1719 8.6719 5.3906 11.156 23.812 0.9375 6.9375 0.51562 10.5 0.09375 19.547-3.2344 40.922-21.141 73.312-44.859 105.98-27.234 36.234-50.016 55.688-125.76 136.08-8.25 8.6719-17.719 19.641-28.406 25.125z"/>
 <path d="m654.1 399.52c4.3594-3.4219 9.1875-6.375 14.25-9.8438 16.875-12.188 37.453-32.391 37.031-33.141-0.14062-0.28125-5.6719 1.9219-13.688 6.2812-8.0625 4.3125-18.656 10.828-29.344 18.141-10.172 7.0781-23.531 14.203-27.656 26.719-5.3906 16.219 8.6719 30.609 12.094 27.469 4.125-3.6094-10.547-16.781 1.0312-30 1.6875-1.875 3.8438-3.75 6.2812-5.625z"/>
 <path d="m713.86 370.92c-1.0781 0.65625-1.2188 2.8594 1.2188 5.3906 4.7812 5.1562 14.297 5.1562 20.672 4.9219 16.078-0.51562 34.547-5.7188 49.828-15.938 16.547-11.109 27.234-29.484 28.875-44.625 0.375-3 0.28125-4.7344 0.09375-4.7344-0.42188-0.14062-2.625 6.2812-8.2031 14.625-17.297 26.016-46.734 40.266-78.656 41.672-9.8438 0.42188-11.859-2.6719-13.828-1.3125z"/>
 <path d="m746.21 287.29c0.14062 4.6875 3.2812 7.9219 9.6094 6.7031 8.0156-1.1719 14.578-5.2031 20.391-10.734 12.281-11.625 20.109-30 10.969-19.5-4.1719 4.7344-12.328 16.359-22.125 21.703-5.0625 2.7656-10.5 3.7969-12.281 3.5625-0.5625-0.09375-0.75-0.23438-0.9375-0.46875-0.375-0.32812-0.51562-2.1094 0-3.8438 6.1406-19.125 23.203-42.75 14.344-66-2.625-7.0781-7.4062-12.234-11.25-14.344-2.8594-1.6406-0.1875 0.046875 2.4375 3.0938 5.8594 6.7969 9.3281 18.281 6.375 31.594-3.6562 17.297-17.672 39.422-17.531 48.234z"/>
 <path d="m797.26 255.71c-0.375-1.7812-0.65625-2.7188-0.75-2.7188s-0.1875 1.0312-0.32812 2.7656c-0.1875 4.9688-2.0625 14.391-3.1875 17.531-9.8438 33.75-32.484 42.047-30.562 45.328 1.4531 2.5781 19.734-6.8438 31.078-31.5 3.6562-8.6719 4.875-17.531 4.5938-23.906-0.14062-3.1875-0.42187-5.7656-0.84375-7.5z"/>
 <path d="m810.32 282c-3.2812 17.766-9.7031 23.906-16.922 34.078-2.5781 3.8906 0.65625 4.5938 7.2188-2.1562 3.5156-3.2812 9.4219-12.234 11.859-19.359 4.4531-11.531 4.6406-24.469 1.4062-35.109-0.9375-2.9062-1.7812-5.25-2.5781-6.7969-0.75-1.5469-1.2188-2.3906-1.3125-2.3906-0.1875 0.046875 0.70312 5.5312 0.70312 5.7188 1.0312 8.8594 0.9375 15.609 0.42188 19.922-0.14062 1.9688-0.5625 3.9844-0.79688 6.0938z"/>
 <path d="m828.42 299.02c3.9844 1.4062 10.734-26.859 2.6719-47.344-1.6406-4.1719-3.1875-6.5625-3.3281-6.5156-0.42188 0.14062 2.3438 19.594 1.7344 31.641-0.28125 12.375-3.5625 21.469-1.0781 22.219z"/>
 <path d="m770.34 176.95c24.047 10.969 50.719 38.156 62.766 59.156 6.1875 11.438 7.3125 15.562 9.4688 23.016 0.51562 2.6719 1.2656 5.0625 1.4531 7.1719 0.28125 2.1562 0.70312 3.9844 0.79688 5.4844 1.4062 13.641 6.375-4.4531-0.375-22.828-10.828-33.984-56.109-77.906-91.406-78.281-5.2031-0.09375 4.875 0.51562 17.297 6.2812z"/>
 <path d="m222.24 844.55c-23.25 20.859-13.172 45.141-3.5625 75 9.2344 27.984 17.625 55.594 36.938 78.188 29.625 35.203 77.391 46.266 122.06 38.906 20.719 50.109 110.67 58.688 157.45 35.812 37.031-17.812 50.203-55.828 59.203-94.969 10.688-46.5 14.859-90.516 14.297-127.5-0.375-22.594-2.2031-34.828-3.3281-34.641-4.2188-0.1875 2.4844 66.703-20.062 159.98-8.8125 36.516-20.766 71.906-54.516 88.031-41.25 19.969-123 13.219-142.4-28.828 17.625-3.8438 39.797-11.438 49.406-26.672 2.2969-3.6094 3.8906-7.9688 4.1719-12.469 1.5938-23.719-29.062-34.5-48.375-22.5-17.859 11.531-23.391 33.188-18.984 53.578-41.203 6.5156-84.469-3.5625-111.66-34.969-18.516-21.094-27.141-48.141-36.422-74.578-11.297-32.672-21.703-55.594 10.266-75.047 3.5625-1.8281 7.3594-4.7344 18.562-8.7656 29.344-10.453 55.125-7.9688 100.83-27.469 23.016-10.031 34.5-18.234 34.5-18.234s-0.79688 0.32812-2.2969 1.125c-85.969 44.391-123.19 21.516-166.08 56.016zm169.97 143.26c8.8125-10.594 22.5-11.391 31.922-5.9531 9.0938 5.3906 10.547 17.109-1.4531 27.047-10.125 8.3438-24.984 12.656-37.828 15.516-0.046875-0.1875 0.51562-28.641 7.3594-36.609z"/>
 <path d="m1092.9 625.22c-0.5625-9-1.9219-17.812-3.8438-26.344-6.8906-29.672-24.516-42.938-67.781-25.266-2.0625-6.1406-6.7031-16.781-10.125-30.047-7.1719-25.5-8.9531-52.641-9.6094-52.688-0.09375 0-0.28125 1.1719-0.46875 3.2344-1.5938 12.844-0.60938 30.891 5.0156 50.859 3.75 13.406 8.3906 24.281 11.812 30-29.156 12.562-47.016 27-119.06 39.516 26.953-25.828 51.234-52.594 72.141-83.344 68.391-100.97 64.031-202.36 38.391-240.37-25.125-37.875-77.719-29.484-119.67-25.688-37.078 3.7031-45.75 3.9375 32.391 0.9375 30.797-0.65625 64.266 1.6406 81.141 28.734 22.453 35.672 24.422 133.87-41.016 230.44-35.016 51.422-81.938 94.219-129.42 134.02-61.359 51.234-90.234 72.797-158.72 97.781-18.328 6.8906 11.109 4.6406 47.016-10.547 44.672-19.312 81.328-48.984 118.17-79.406 17.484-14.484 35.859-30.188 54.328-47.531 22.078 1.0312 60.703-5.2969 99.047-21.938 21.562-9.4219 60.703-32.344 77.25-15.891 2.3438 2.25 4.2188 5.2031 5.7188 8.4844 3.8438 9.0938 6.2812 25.641 6.8438 35.719 0.9375 15-0.42188 30.234-4.2188 44.625-5.9531 20.391-33.047 44.766-31.969 66.281 0.79687 10.359 7.5938 16.5 9 24.328 2.3906 11.109-3.75 25.969-19.359 34.828-11.25 6.4688-28.031 10.125-40.781 11.25-49.078 4.5469-60.703-34.172-95.719-54.047-2.8125-1.5-0.65625-0.046876 3.0938 2.7188 36.938 30.328 46.312 70.125 115.12 55.734 16.688-3.5625 32.766-10.734 41.766-25.312 4.6875-7.5938 7.5938-17.203 5.7188-27.094-1.5938-9.1406-8.1562-16.547-8.4844-23.109-0.5625-15.703 25.406-41.156 31.828-62.766 4.0312-15.797 5.4375-32.016 4.4531-48.094z"/>
 <path d="m775.97 586.69c0.375 0.28125 0.79688 0.51562 1.0781 0.75 1.0781 0.89062 1.0312 0.75 1.2656 1.3594 0.09375 0.23438 0.32812 0.65625 0.5625 0.9375 0.32812 0.42188 1.2656 0.79688 1.5469 0.79688 0.23438 0 0.51562 0 0.75-0.046875 1.0781-0.23438 4.7344-3.1406 1.5938-4.0781-1.3125-6.0469-9.7969-5.3906-14.719-43.266-1.4531-10.172-2.3438-21.891-6.375-34.453-6.2812-19.078-19.5-32.203-39-36.328-13.781-2.7188-74.297-3.6562-74.438-2.5312-0.046875 0.46875 22.969 5.1094 64.266 10.688 62.25 8.6719 31.453 82.547 63.469 106.17zm4.5-0.75c0.14062-0.046875 0.32812-0.046875 0.51562-0.046875 0.09375 0 0.375 0.046875 0.65625 0.1875-0.09375 0-1.2656 0-1.2188-0.09375 0.046875 0-0.046875 0 0.046875-0.046875z"/>
 <path d="m797.48 947.81c-2.1094-4.3594-3.4688-6.75-3.6562-6.6562-0.42188 0.14062 3.4219 14.297 3.9375 15.938 12.844 39.656 28.641 71.391 76.266 122.34 3.75 3.9844 36.609 38.672 40.406 34.734 4.4531-4.2656-29.578-35.438-55.172-67.547-19.922-24.094-44.438-61.547-61.781-98.812z"/>
 <path d="m949.74 998.81c-19.5-29.812-51.469-61.359-52.219-60.75-1.5938 1.2188 41.672 59.953 57.281 90.609 15.703 28.5 27.703 68.953 33 67.078 2.5312-0.79688 1.2656-9.0469-2.8594-21.984-6.7969-22.406-18.938-49.312-35.203-74.953z"/>
 <path d="m613.22 1046.6c-11.156-5.1562-18.375-11.953-15-8.5312 16.359 16.031 40.125 21.609 62.812 23.203 45.797 3.1406 80.766-8.25 100.03-50.109 12.094-26.203 10.172-49.875 16.219-62.953 7.4531-16.641 32.25-6.1406 50.438-3.8438 36.609 4.5469 72.281-4.7344 100.22-24.609 19.875 28.969 50.016 51.469 80.531 68.906 6.375 3.5156 12.141 6.4688 17.109 8.6719 9.9375 4.3594 16.453 5.8594 17.438 3.6562 1.1719-2.5312-4.2188-6.2344-13.312-11.625-54.516-31.969-66.75-45.469-100.27-70.594 59.578-43.453 58.172-114.98 50.906-94.219-6.5625 20.297-10.875 33.609-23.016 51.469-29.109 43.219-78.422 64.266-128.26 57.844-17.109-1.9688-49.781-15.609-61.406 9.7969-7.2656 15.984-4.8281 38.156-15.75 63.375-16.875 38.766-48 49.125-90.609 48.656-20.719-0.14062-37.406-4.125-48.094-9.0938z"/>
 <path d="m1028.4 899.16c-8.8125-9.2344-18.188-16.688-25.406-21.656s-12.328-7.4531-12.562-7.1719 3.2812 4.6406 8.8125 11.297c25.828 31.078 27.375 29.203 51.984 61.219 4.4531 5.625 3.4688 4.4531 5.9531 7.0312 1.5469 1.5469 2.9531 2.25 4.0781 1.6875 1.2656-0.5625 1.5938-2.0625 1.2188-4.4531-1.7812-11.953-25.828-39.047-34.078-47.953z"/>
 <path d="m555.52 515.95c-1.8281-0.32812-3.4219-0.60938-4.7344-0.84375-5.5781-1.2656-5.8594 0.23438-0.9375 2.8125 32.438 13.594 80.297-6 100.17-56.625 1.0781-2.8125 1.5938-4.4531 1.5-4.5-0.046875 0-0.28125 0.32812-0.70312 1.0312-22.359 37.734-52.125 65.484-95.297 58.125z"/>
 <path d="m356.63 923.26c34.359-13.922 75.562-46.031 102.94-84.141 6.7969-9.5625 10.031-15.891 9.0469-16.5-4.3125-3-24.938 44.016-99.797 91.781-19.594 12.328-21.047 12.516-12.188 8.8594z"/>
 <path d="m748.31 910.36c2.5312 13.969 2.1562 18.984 2.5312 18.984 2.0625-17.812-1.9219-38.531-6.4219-63.891l-4.2656-22.5c-6.5156-33.516-11.438-59.531-13.875-59.016-2.7188 0.42188 2.4844 26.391 8.6719 60l4.2656 22.5c3.1875 16.828 7.0781 32.438 9.0938 43.922z"/>
 <path d="m975.98 687.94c-34.688-11.25-53.25-20.766-54.375-18.141-2.0156 4.0781 56.438 27.984 92.531 32.016 6.9375 0.79688 8.3906 1.5469-38.156-13.875z"/>
 <path d="m983.39 176.81c-3.6094-2.9062-3.3281-2.5312-0.60938 0.60938 35.391 39.281 64.453 76.078 78.469 126.84 9.9375 39.094 3.5625 69.844-5.7656 109.73-11.812 49.641-24.562 85.406-20.859 86.625 2.4844 0.98437 9.375-13.688 17.719-38.953 4.1719-12.656 8.625-27.938 12.984-45.234 10.172-41.344 16.781-73.453 6.1875-114.84-13.078-48.656-49.125-93.188-88.125-124.78z"/>
 <path d="m1094.6 331.64c3.6562 0.75 5.4375-7.5469 6.0469-11.203 0.98438-6.4688 0.89062-15.047 0.046875-21.375-2.1094-18.891-8.0625-36.094-19.359-51.188-4.875-6.4219-8.6719-9.9375-8.9531-9.7031-1.1719 0.70312 14.297 35.672 18.047 62.156 2.5312 15.844-0.375 30.469 4.1719 31.312z"/>
 <path d="m567.28 354.19c0.84375 0.14062 1.2188-0.375 2.8594-1.875 4.5-4.2188 1.0781-8.8125-3-6.6094-1.0781 0.60938-1.5 1.2656-1.4531 1.3125 0.046875 0.09375 0.79688 0 1.8281 0 4.6406 0.14062 0.32812 3.75-0.32812 5.0156-0.65625 1.125-0.51562 2.0625 0.09375 2.1562z"/>
 <path d="m369.05 328.74c4.5938 1.2656 11.438-30.328 51.141-61.734 6.8438-5.3438 15.703-12.047 24.609-13.172 1.2656-0.14062 2.7656-0.28125 3.75-0.09375 19.359 0.28125 20.25 67.828 20.812 87.281 0.14062 5.9062 0.75 33.141 1.7812 33.094 0.09375 0 0.1875-0.79688 0.375-2.2969 3.6094-29.297 7.9219-65.672 2.625-95.203 28.125 3.375 32.203 21.984 44.109 33-7.7344 13.359-8.3438 13.547-5.4375 11.391 2.25-1.5938 5.7656-4.7344 8.9062-8.5781 9.6562 6.4688 17.297 2.0156 25.453 3.5625 2.0625 0.32812 3.7969 1.2656 4.3125 2.0156 1.5938 2.1094-1.3594 11.484 0.5625 11.719 1.5 0.23438 3.3281-5.5312 3.7031-7.0781 0.28125-1.6875 0.98438-3.7969-0.375-6.8438-1.7344-2.8125-4.5-3.8438-7.125-4.5-9.0938-2.1562-15.375 2.2031-23.297-3.0938 4.6406-6.7969 9-16.875 10.031-24.984 0.42188-3.9375-0.09375-6.375-1.2656-6.4688-2.7656-0.23438-2.8594 8.5781-8.0156 19.125-1.4062 3.1875-3 6-4.6875 9-7.2188-7.2656-10.828-16.453-21.047-22.781-7.5-4.875-16.5-7.4531-25.922-6.4688-2.2969-12-6.9844-25.688-18.047-30.797-7.8281-2.9531-15.703-1.7344-23.344 1.6875-14.578 6.6562-40.594 28.875-54.797 52.828-9.1406 15-11.484 28.781-8.8125 29.391z"/>
 <path d="m350.81 306.56c-24.234-3.7969-48.797 21.047-40.641 60.047 1.125 5.1094 2.7188 9.9375 4.5 14.438 4.8281 12.234 11.859 26.109 24.562 30.234 7.125 2.4844 15.797 1.8281 21.047-3.1406 0.75-0.79688 1.0781-1.2188 0.98438-1.3125-0.14062-0.23438-1.9219 1.2188-5.5312 1.875-3.5156 0.70312-8.9531 0.46875-14.297-2.5312-9.6094-5.1562-14.062-18.188-17.391-28.453-3.7969-11.859-6.75-24.891-3.75-36.938 5.0625-21.797 24.422-31.031 41.391-21.891 2.6719 1.4531 4.3125 2.5312 5.3906 1.8281 2.8125-1.6406-2.5781-12.141-16.266-14.156z"/>
 <path d="m462.47 391.64c1.125-0.23438 1.9688-0.14062 2.2969-0.65625 0.375-0.51562-0.046875-1.6406-1.9219-2.2969-1.7812-0.60938-5.0156-0.32812-7.5469 2.4375-4.2656 4.875-3.4219 14.344 6.9375 21.328 9.7969 6.7031 22.172 7.6875 32.109 2.9062 3.2344 1.125 7.125-0.28125 9.0938-3.0469l-0.89062 1.6875c3.2812-3.1406 3.1875-9.2344-0.23438-12.281s-9.3281-2.3438-11.906 1.4531c-1.9688 2.9062-1.5469 7.0312 0.5625 9.7969-8.4844 1.5938-18.562 0.09375-25.828-4.875-9.75-6.2812-8.9531-15.328-2.6719-16.453z"/>
 <path d="m496.03 308.53c2.9062-7.7812 8.625-8.2031 7.9219-10.031-0.75-2.25-10.031 3.1406-9.2812 9.8438 0.14062 1.3594 0.5625 2.1562 0.65625 2.1562 0.046875 0 0.28125-0.84375 0.70312-1.9688z"/>
 <path d="m499.03 432.37c0.23438 1.3125 6.5625 0.75 16.781-1.3125 20.906-4.4531 42.188-11.578 58.125-25.734 12.141-10.688 23.062-29.531 10.266-39.375-3.9844-2.8125-8.4375-3.2344-11.812-6.2344-2.2969-2.0625-2.4375-4.0312-2.5781-3.9844 0 0-0.09375 0.46875 0.09375 1.3125 1.1719 5.9531 8.7188 7.6875 12.609 11.109 9.6094 9.4219-2.0156 24.141-12.047 33.188-15.75 14.016-36.281 19.969-55.641 25.359-10.031 2.625-16.078 4.4531-15.797 5.6719z"/>
 <path d="m380.81 418.4c-1.2656 0.46875-1.5 2.5312-0.79688 6.0469 10.547 38.859 70.969 65.438 93.797 42.891 4.4062-4.1719 7.1719-9.8906 7.5-15.609 12-0.14062 19.031-11.578 15.141-20.859-0.65625-1.5-1.2656-2.1562-1.3594-2.1094s0.14062 0.89062 0.23438 2.3906c0.70312 10.688-9.2344 16.688-16.734 12.891l-5.3906-2.7188 0.42188 6.7031c0.23438 4.2656-2.1094 8.9531-6.1875 12.234-9.8906 7.9219-26.719 4.5469-38.625 0.046875-34.875-13.828-42.797-43.969-48-41.906z"/>
 <path d="m545.48 354.66c-0.046875 2.2031 12.422 0.51562 18.375-6.1875 1.2188-1.3594 1.8281-2.4375 1.7344-2.4844-0.046875-0.046875-1.0781 0.51562-2.625 1.4062-1.9688 1.125-6.5625 3.4688-8.9531 4.2656-4.6406 1.7812-8.5781 1.7344-8.5312 3z"/>
 <path d="m293.21 446.58c-11.906 20.672-27.797 27.234-26.531 29.438 0.5625 1.1719 18.516-5.7188 30.984-26.812 6.1406-10.312 8.8594-14.859 20.484-14.719 3.4688 0 7.0781 0.32812 10.828 0 15.797-1.2188 29.531-12.516 33.844-24.891 2.0625-5.8594-4.5469 12.422-24.844 18.422-8.2969 2.3438-13.688 1.2656-19.781 1.1719-14.109-0.14062-18.094 5.625-24.984 17.391z"/>
 <path d="m368.16 392.02c2.7656-0.42188 0.70312-9.4219 1.0312-21.188 0-3.8906 0.23438-6.0938 1.2656-23.438 0.5625-8.9531 0.28125-7.3594-0.79688-5.2031-9.6562 19.312-5.1562 50.578-1.5 49.828z"/>
 <path d="m362.9 424.45c-8.9062 16.078-8.5312 29.953-20.109 45.891-2.4844 3.4688-4.1719 5.4844-3.375 6.4688 0.79688 1.0312 3.5156-0.1875 6.7969-3.5625 6.0938-6.2344 10.219-16.312 12.844-24.656 2.1094-7.0781 5.4844-25.781 5.0156-25.969-0.046875-0.046875-0.46875 0.60938-1.1719 1.8281z"/>
 <path d="m576.1 406.31c-0.28125 0.23438 3.2344 6.3281 3.7969 7.2656 5.3438 8.8594 11.156 15.375 18.188 22.219 10.453 10.078 19.5 16.828 20.953 14.906 1.9219-2.3906-8.2031-8.8594-23.859-25.453-4.0781-4.3125-18.609-19.266-19.078-18.938z"/>
 <path d="m512.68 543c11.062-7.3594 24.422-18.75 34.125-29.953 13.922-16.875 14.25-25.781 10.219-38.016-4.7812-14.484-18.328-30.516-30.516-38.391-2.9531-1.9219-4.8281-2.6719-4.9219-2.5312-0.14062 0.14062 1.2656 1.5469 3.4688 4.125 9.2812 10.453 25.312 36.141 23.484 50.438-2.0156 14.672-30.234 37.922-41.156 47.109-8.4375 7.0781-13.547 11.25-12.375 13.406 1.2188 2.4375 8.1562 0.14062 17.672-6.1875z"/>
 <path d="m441.89 319.22c0.046875-1.3125-2.2969-2.1094-6.2812-2.1562-10.5-0.09375-26.766 4.5938-36.656 14.906-2.9531 3.0938-4.3594 5.4375-4.2188 5.5781s2.3906-1.3125 5.9531-3.375c5.2031-3 14.906-7.6875 21-9.5156 5.4844-1.8281 10.594-2.5781 14.25-3.1406s5.9062-1.0312 5.9531-2.2969z"/>
 <path d="m440.68 368.02c0.65625-2.5781-7.2188-4.3594-17.344-3.9844-6.6562 0.28125-13.125 1.5-19.312 4.875-3.0469 1.6875-4.7344 3.1406-4.6875 3.3281 0.14062 0.42188 16.734-2.625 24.234-2.9062 9.4219-0.65625 16.594 1.1719 17.109-1.3125z"/>
 <path d="m413.48 415.69c-2.6719 0.14062-4.3125 0.65625-4.3125 0.84375s1.5469 0.89062 3.7969 1.9219c2.3438 1.0312 5.3438 2.3906 8.3906 3.7969 9.8438 4.1719 13.781 9.2344 15.797 7.2188 1.9219-1.8281-2.3906-6.1875-9.1406-9.9375-4.4062-2.4375-9.0938-4.125-14.531-3.8438z"/>
 <path d="m559.45 338.68c-0.70312-0.89062-2.4844-0.98438-4.2188-3.7969-0.65625-1.0312-1.2188-2.0625-1.5469-2.9531s-0.51562-1.5469-0.60938-1.5938c-0.046875 0-0.51562 0.5625-0.75 1.6406-0.84375 3.6562 2.6719 7.5938 5.5781 8.1094 1.0781 0.1875 1.7344-0.09375 1.7812-0.65625 1.2188-0.70312 2.7656-0.46875 3.8438 0.1875 2.25 1.2188 1.3594 4.9688 2.7188 5.3438 0.65625 0.1875 1.1719-0.375 1.3594-1.4531s0.09375-2.7188-0.89062-4.3594c-2.1562-3.2812-6.1406-2.6719-7.2656-0.46875z"/>
 <path d="m627.74 198.66c-1.7344 2.7188-3.0938 5.0156-3.8438 6.6562-3.9844 8.1562 2.7656-3.9375 18.703-16.453 22.594-19.359 45.141-20.953 44.531-24.281-0.70312-4.3594-40.219 4.7812-59.391 34.078z"/>
</svg>
