<?xml version="1.0" encoding="UTF-8"?>
<svg width="1200pt" height="1200pt" version="1.1" viewBox="0 0 1200 1200" xmlns="http://www.w3.org/2000/svg">
 <path d="m1122.4 1013.3c-0.1875-24.375-33.469-45.281-87.656-62.203v-58.359c2.7188-1.2656 5.25-2.9062 7.6406-5.1094 8.9062-8.0156 14.016-20.906 14.016-35.25 0-8.0156-1.6406-15.281-3.0938-22.547-1.2656-6-2.5312-11.812-2.9062-17.438-0.1875-4.3594-0.1875-8.7188 0-13.078v-173.26c0-6.8906-0.1875-25.078-123.79-40.172v-76.359c1.8281-0.89062 3.6562-2.2031 5.25-3.4688 6.8906-6.1875 10.922-16.359 11.109-27.469 0-6-1.2656-11.625-2.3438-17.109-0.89062-4.5469-1.8281-8.7188-2.0156-12.891-0.1875-3.2812-0.1875-6.5625 0-9.6562v-130.04c0-6.5625-2.5312-21.094-104.53-32.531-38.531-4.3594-83.812-7.4531-130.55-9.0938h-0.375l19.641-18.891c15.281-14.531 32.344-31.078 44.344-51.094 17.812-29.438 22.359-65.812 12.562-97.078-1.4531-4.9219-3.0938-9.0938-4.7344-12.562-12.562-27.281-36.562-48.188-63.984-56.344-21.656-6-44.719-4.5469-64.922 4.3594-16.547 7.2656-30.75 19.641-40.922 35.438-10.734-16.312-24.75-28.5-41.484-35.812-2.3438-1.0781-4.7344-2.0156-7.0781-2.7188-18.375-6.375-38.906-6.8906-57.656-1.6406-32.203 9.4688-58.547 35.812-68.719 68.906-5.4375 17.438-6.375 36.562-2.9062 55.266 2.5312 14.719 7.8281 28.734 15.469 41.812 5.625 9.4688 12.75 18.75 21.797 28.359 7.2656 8.0156 15.281 15.656 22.547 22.734l19.453 18.891c-2.2031 0-4.3594 0.1875-6.5625 0.1875-45.469 1.6406-90.188 4.7344-128.53 8.9062-0.75 0-1.2656 0-1.8281 0.1875-45.984 5.1094-77.109 11.438-92.016 18.75-3.0938 1.4531-12.562 5.8125-12.562 14.203v6.5625c0 3.6562-0.1875 7.2656-0.1875 11.109-0.1875 8.0156-0.375 16.359 0.375 24.562s-1.4531 16.547-3.7969 25.266c-1.4531 5.4375-3.0938 11.25-3.7969 17.109-1.0781 7.8281-1.6406 19.266 5.625 26.906 3.2812 3.4688 8.3438 4.7344 13.828 5.25v159.79c-122.53 15.094-122.72 33.094-122.72 40.172v8.7656c0 4.9219-0.1875 9.7969-0.1875 14.719-0.375 10.734-0.5625 21.797 0.375 32.719 1.0781 11.25-2.0156 22.547-5.25 34.547-2.0156 7.2656-3.9844 14.906-5.1094 22.734-1.4531 10.172-2.2031 24.562 6.8906 34.172 4.3594 4.7344 11.625 7.0781 19.266 9.0938v166.74c-56.906 17.109-92.203 38.531-92.344 63.656v48.938c0 69.281 265.64 110.53 522.37 110.53 256.73 0 522.37-41.438 522.37-110.53zm-845.81-703.97c0.1875-0.375 1.0781-1.8281 6-3.9844 9.6562-4.7344 32.719-11.625 87.656-17.625 0.75 0 1.2656 0 1.8281-0.1875 38.719-4.1719 83.109-7.2656 128.21-8.9062 5.8125-0.1875 11.812-0.375 17.812-0.5625l44.016 42.375c1.0781 1.0781 2.5312 1.6406 3.9844 1.6406h76.922c1.4531 0 2.9062-0.5625 3.9844-1.6406l43.828-42.375c3.9844 0.1875 8.0156 0.1875 11.812 0.375 46.547 1.6406 91.266 4.7344 129.66 9.0938 80.203 8.9062 92.203 19.266 93.984 21.281-3.4688 4.5469-28.359 14.344-102.19 21.984-34.359 3.7969-75.281 6.5625-121.45 8.2031-9.4688 0.375-19.266 0.5625-29.25 0.75-45.984 1.2656-97.641 1.0781-144 0.1875l-29.109-0.89063c-45.469-1.6406-88.922-4.7344-125.81-8.7188-88.781-9.375-97.359-20.625-97.875-21zm33.422 183.47c3.9844 4.3594 9.6562 6.75 16.359 6.5625 8.2031-0.1875 16.359-3.9844 21.281-10.172 6.1875-7.8281 9.4688-19.641 9.7969-35.438v-7.0781c-0.1875-12.375 0.375-12.75 6.375-13.078 9.9844-0.375 17.25 8.0156 19.641 16.359 4.3594 15.656-1.8281 30.188-8.3438 45.656-1.6406 3.7969-3.2812 7.6406-4.7344 11.438-8.9062 23.25-7.8281 43.078 2.9062 56.016 14.719 17.438 42.75 15.281 58.734 2.3438 19.078-15.656 22.922-40.547 23.438-54.188 0.1875-4.1719 0.1875-8.5312 0-12.891-0.1875-16.172-0.375-31.266 11.438-42.891 2.9062-2.9062 6.8906-4.5469 11.25-4.3594 3.6562 0 7.0781 1.4531 9.4688 3.9844 6 6.1875 3.6562 14.719-0.5625 26.906l-1.2656 3.7969c-2.5312 7.8281-3.7969 19.266 0.5625 27.984 2.3438 4.7344 6.1875 8.0156 10.922 9.4688 5.1094 1.6406 10.734 0.89062 15.797-2.0156 6.5625-3.9844 11.812-11.625 13.078-19.641 1.0781-6.375 0.75-12.562 0.375-18.562-0.375-4.5469-0.5625-8.7188-0.1875-12.891 0.75-7.8281 5.625-16.172 12.375-15.797 3.1406 0.28125 5.1094 1.5469 6.75 3.9375 3.2812 5.25 3.7969 14.531 0.89062 21.656-1.2656 3.0938-2.7188 6.375-4.3594 9.4688-4.7344 9.7969-10.359 21.094-7.4531 33.281 2.2031 9.6562 9.6562 17.109 20.016 20.531 13.078 4.1719 28.359 1.2656 38.016-7.2656 13.828-12.188 20.531-32.203 19.641-59.625l-0.1875-5.25c-0.375-9.0938-0.75-17.812 1.4531-26.016 2.2031-8.0156 8.3438-16.922 16.922-17.812 5.25-0.5625 9.6562 2.0156 12.188 4.3594 5.4375 4.9219 8.9062 13.078 8.9062 20.719-0.1875 10.922-4.7344 20.906-9.6562 31.453-2.5312 5.4375-5.1094 10.922-7.0781 16.734-6 17.625-3.9844 37.453 5.4375 53.109 11.109 18.188 32.203 29.812 53.438 29.812 1.4531 0 2.9062 0 4.5469-0.1875 14.016-1.0781 27.281-7.2656 36.188-16.734 9.7969-10.547 14.344-25.266 11.812-38.719-2.7188-14.531-13.078-26.016-23.812-36.188-8.3438-8.0156-28.172-26.906-27.984-42.891 0.1875-5.625 2.7188-10.734 8.0156-15.469 1.6406-1.4531 3.9844-2.5312 6.5625-3.0938 21.656-4.9219 26.531 2.3438 33.469 12.562 2.0156 2.9062 3.7969 5.625 6.1875 8.2031 5.8125 6.75 15.656 12.75 25.828 9.2812 9.0938-3.2812 12.75-12.188 15.797-19.266l1.4531-3.4688c1.8281-4.1719 5.1094-8.0156 8.0156-8.9062 1.2656-0.5625 2.0156-0.1875 2.5312 0 5.8125 2.9062 6.8906 9.2812 8.3438 19.453 1.4531 10.734 3.2812 24 16.172 30.562 13.453 6.8906 31.266 2.2031 39.656-10.359 4.5469-6.75 6-14.531 7.2656-21.984 0.375-1.8281 0.75-3.6562 1.0781-5.25 1.2656-6.375 4.1719-14.531 10.359-17.25 6-2.5312 13.453 1.4531 16.734 6.75 3.4688 5.8125 3.9844 14.016 1.2656 22.359-1.0781 3.6562-2.9062 7.2656-4.5469 10.922-2.0156 4.5469-4.1719 9.0938-5.625 14.203-2.5312 9.4688-2.2031 23.109 7.6406 30.75 3.9844 3.0938 8.9062 4.3594 14.203 4.3594v78.562c0 7.2656-5.1094 13.641-12.188 15.469-77.109 18.234-202.22 20.625-302.58 20.625-67.641 0-117.09-1.0781-160.18-3.6562-58.359-3.0938-103.83-8.7188-138.89-16.922-7.2656-1.6406-12.375-8.0156-12.375-15.469v-165.47c4.5469 0.1875 10.172 0.5625 10.922 1.8281 0.75 2.7188-0.375 14.203-0.75 18l-0.375 3.4688c-1.4531 18.75 2.5312 33.281 11.625 43.312zm-144.19 133.08c0-0.1875 3.2812-14.906 111.66-28.359 2.2031 10.359 9.9844 18.891 20.719 21.281 35.812 8.3438 81.797 14.016 140.9 17.109 43.266 2.5312 92.906 3.6562 160.92 3.6562 101.11 0 227.11-2.5312 305.44-21.656 10.359-2.5312 18-10.547 20.344-20.344 109.64 13.453 112.92 28.359 112.92 28.547s-3.7969 17.438-138.74 31.453c-80.719 8.5312-186.56 13.266-297.79 13.266-113.44 0-221.26-4.9219-303.79-14.016-129.1-14.016-132.56-30.75-132.56-30.938zm39.656 242.53c4.7344 5.1094 11.25 7.8281 19.078 7.6406 9.9844-0.1875 20.531-5.4375 27.094-13.453 6.5625-8.2031 6.375-19.828 6-30.891-0.1875-6.75-0.375-13.078 1.0781-17.625 4.7344-15.281 9.7969-22.734 26.203-23.438 14.203-0.75 24.891 11.25 28.359 23.438 6 21.656-2.3438 41.25-11.109 62.203-2.2031 5.1094-4.3594 10.172-6.1875 15.281-6.75 17.625-15.094 50.344 3.6562 72.891 18.891 22.547 55.078 19.641 75.656 2.9062 24.891-20.344 29.812-53.25 30.562-70.922 0.1875-5.625 0.1875-11.25 0-17.109-0.375-21.984-0.5625-42.75 15.797-58.734 4.3594-4.1719 10.359-6.375 16.547-6.5625 5.4375 0 10.359 2.2031 14.016 5.8125 8.7188 9.0938 5.625 20.906-0.375 38.016l-1.8281 5.1094c-3.2812 10.172-4.9219 24.891 0.75 35.812 2.9062 5.8125 7.6406 9.7969 13.641 11.812 6.375 2.2031 13.078 1.2656 19.453-2.5312 8.3438-5.1094 14.906-14.906 16.547-24.891 1.4531-8.3438 0.89062-16.547 0.5625-24.375-0.375-6.1875-0.75-12-0.1875-17.625 1.0781-11.438 8.7188-23.438 18.75-22.922 4.1719 0.1875 7.2656 2.2031 9.6562 6 4.7344 7.4531 5.4375 20.719 1.4531 30.75-1.6406 4.1719-3.7969 8.5312-5.8125 12.75-6.5625 13.641-13.453 27.656-9.7969 43.078 2.9062 12.188 12.188 21.656 25.453 26.016 16.922 5.4375 36.562 1.6406 48.891-9.2812 18.188-15.797 26.719-42.188 25.641-78.188l-0.375-7.0781c-0.5625-12.375-1.0781-24.188 2.0156-35.25 3.0938-11.625 11.812-23.812 24.375-25.266 8.0156-0.89063 14.203 2.9062 17.812 6.375 7.8281 7.0781 12.562 18.562 12.375 29.25-0.1875 15.094-6.375 28.547-12.891 42.75-3.2812 7.0781-6.75 14.531-9.4688 22.172-7.8281 23.109-5.1094 48.891 7.2656 69.281 14.531 23.812 42 38.906 69.797 38.906 2.0156 0 3.9844 0 5.8125-0.1875 18.375-1.4531 35.438-9.4688 47.109-21.797 12.75-13.641 18.562-32.719 15.094-50.016-3.6562-18.891-17.25-33.984-31.266-47.438-11.438-10.922-38.344-36.562-38.016-58.734 0.1875-8.2031 3.7969-15.469 11.438-22.172 2.3438-2.2031 5.8125-3.7969 9.6562-4.7344 30.188-6.75 37.453 3.9844 46.734 17.438 2.5312 3.6562 5.1094 7.2656 8.0156 10.734 7.0781 8.2031 19.828 15.984 32.531 11.625 11.25-3.9844 15.984-15.094 20.016-24.75l1.5-4.4531c2.5312-6.1875 7.4531-11.438 11.812-13.078 1.8281-0.75 3.4688-0.75 5.1094 0.1875 9.0938 4.5469 10.547 15.094 12.188 27.469 2.0156 14.531 4.1719 30.891 20.531 39.281 17.109 8.7188 39.797 2.9062 50.531-13.078 5.8125-8.7188 7.6406-18.891 9.4688-28.547 0.375-2.3438 0.89062-4.7344 1.2656-7.0781 1.8281-9.0938 6-20.531 15.094-24.562 8.9062-3.7969 20.203 2.0156 24.891 9.7969 4.9219 8.2031 5.625 19.828 1.8281 31.641-1.6406 4.9219-3.7969 9.6562-6 14.719-2.7188 6-5.4375 12-7.2656 18.75-3.2812 12-2.7188 29.438 9.6562 39.094 5.4375 4.1719 12.562 6 19.641 5.4375v118.73c0 13.078-8.7188 24.375-21.281 27.469-98.203 24.891-244.55 39.094-401.63 39.094-154.55 0-299.26-13.828-396.89-37.828-12.938-3.2812-21.656-14.578-21.656-27.656v-230.21c7.0781 1.8281 13.828 3.9844 15.656 7.4531 1.8281 3.2812 1.6406 7.6406 1.2656 13.078-0.1875 3.0938-0.5625 6.5625-1.0781 10.172-2.2031 17.109-4.5938 38.391 7.7812 52.031zm893.29 164.9c-7.0781 6-16.547 11.812-28.359 17.109-2.9062 1.2656-6 2.7188-9.2812 3.9844s-6.75 2.7188-10.547 3.9844c-2.2031 0.89062-4.3594 1.6406-6.75 2.3438l-4.1719 1.4531c-3.9844 1.2656-8.0156 2.5312-12.562 3.7969-1.8281 0.5625-3.6562 1.0781-5.4375 1.6406l-3.2812 0.89062c-3.7969 1.0781-7.6406 2.2031-11.625 3.0938l-6.8906 1.8281c-14.344 3.6562-30 6.8906-46.547 10.172l-4.5469 0.89062c-3.6562 0.75-7.2656 1.4531-11.109 2.0156l-16.172 2.7188c-3.0938 0.5625-6.375 1.0781-9.4688 1.4531l-7.2656 1.0781c-27.094 4.1719-57.656 7.6406-93.094 11.109-12.562 1.0781-25.266 2.2031-38.203 3.0938-27.797 2.0156-57.281 3.6562-87.656 4.7344-20.531 0.5625-41.625 1.0781-63.094 1.2656-7.4531 0.1875-15.094 0-22.734 0.1875-7.6406 0-15.281 0-22.734-0.1875-7.4531 0-14.906-0.1875-22.359-0.375-7.4531 0-14.906-0.1875-22.172-0.5625-20.203-0.5625-40.359-1.2656-60-2.3438l-25.266-1.2656c-0.75 0-1.6406-0.1875-2.3438-0.1875l-2.0156-0.1875c-20.906-1.2656-39.281-2.7188-55.828-4.3594-1.0781-0.1875-1.8281-0.1875-2.0156-0.1875l-27.656-2.7188c-9.0938-0.89062-17.812-2.0156-26.531-3.0938-38.344-4.7344-74.016-10.547-105.98-17.438-6.8906-1.4531-13.453-2.9062-20.344-4.7344-0.5625-0.1875-1.0781-0.375-1.8281-0.375-19.078-4.5469-36.188-9.6562-50.719-15.094-3.7969-1.4531-7.6406-2.7188-11.812-4.5469-3.2812-1.2656-6.375-2.7188-9.4688-3.9844s-6.1875-2.9062-9.0938-4.3594c-2.7188-1.2656-5.4375-2.7188-7.8281-4.3594-2.5312-1.4531-4.9219-2.9062-7.0781-4.5469-1.7812-0.84375-3.6094-2.2969-5.625-3.9375-8.0156-6.75-12-13.453-12-19.828 0-17.812 28.922-36.188 80.719-52.172v54.562c0 18.562 12.375 34.547 30.375 38.906 98.531 24.375 244.36 38.203 399.79 38.203 158.02 0 305.44-14.344 404.53-39.469 17.625-4.5469 30-20.344 30-38.906v-51.984c48.891 15.656 75.984 33.469 75.984 50.719 0.09375 6.5156-4.125 13.266-11.906 19.969z"/>
 <path d="m903.47 187.82c0-21.469 7.2656-40.734 19.266-54.75 11.625-14.203 28.172-22.734 46.359-22.734-18 0-34.547-8.7188-46.359-22.547-12-14.203-19.266-33.469-19.266-54.75 0 21.469-7.2656 40.734-19.078 54.75-12 13.828-28.172 22.547-46.359 22.547 36.328-0.14062 65.438 34.734 65.438 77.484z"/>
 <path d="m837.98 226.36c0-10.734 3.6562-20.203 9.6562-27.281 5.8125-7.0781 14.016-11.25 23.109-11.25-8.9062 0-17.25-4.3594-23.109-11.25-6-7.0781-9.6562-16.547-9.6562-27.281 0 10.734-3.6562 20.203-9.4688 27.281-6 6.8906-14.016 11.25-23.109 11.25 18.234 0 32.578 17.25 32.578 38.531z"/>
</svg>
