<?xml version="1.0" encoding="UTF-8"?>
<svg width="1200pt" height="1200pt" version="1.1" viewBox="0 0 1200 1200" xmlns="http://www.w3.org/2000/svg">
 <path d="m603.42 1119.6 214.69-108.38c0.23438-0.09375 0.42188-0.1875 0.60938-0.32812 4.2188-2.1562 8.8594-2.5312 13.453-1.0312l216.37 67.641c29.109 9.0469 57.609-15.047 53.859-44.719l-53.766-449.68c-1.7812-14.297-10.875-26.906-23.766-32.906l-200.86-93.703c-11.109-5.1562-23.297-4.875-30.656-1.3594-4.5469 2.1094-21.703 11.531-29.953 15.938-5.8594 3.1406-8.0156 10.406-4.875 16.266s10.453 8.0156 16.266 4.875l12.141-6.5625 6 214.13c0.1875 6.5156 5.5312 11.672 12 11.672h0.32812c6.6094-0.1875 11.859-5.7188 11.672-12.328l-6.2344-221.72c6.6094 1.6875-19.031-9.0469 204.05 94.547 5.4844 2.5312 9.3281 7.9688 10.125 14.062l53.719 449.72c1.5938 12.422-10.453 22.688-22.875 18.844l-216.28-67.594c-4.7344-1.5-9.6094-2.0156-14.438-1.8281l-5.2031-184.64c-0.1875-6.6562-6-12.094-12.328-11.672-6.6094 0.1875-11.859 5.6719-11.672 12.328l5.3906 191.68-208.55 105.28c-5.1562 2.5781-11.25 2.4844-16.312-0.1875-237.14-125.76-216.89-116.77-227.21-119.95l76.781-500.86c10.969-0.89062 15.375 7.1719 21.984 11.812 5.0625 4.3594 12.656 3.75 16.922-1.3125 4.3125-5.0156 3.75-12.609-1.3125-16.922-6.375-3.4688-18.656-25.219-51.844-14.531-9.3281 3.7969-169.22 75.094-230.26 102.23-13.125 5.9062-22.219 17.906-24.234 32.062l-68.156 467.29c-4.9219 34.078 31.219 59.25 61.5 42.609l177.74-98.203c5.2031-2.9531 11.531-2.9531 16.922-0.1875l219.89 117.23c12 6.2812 26.297 6.4219 38.344 0.375zm-464.48-40.266c-12.891 7.0781-28.266-3.6094-26.156-18.141l68.109-467.26c0.84375-5.9062 4.7812-11.156 10.266-13.594l208.92-92.906-75.188 490.31c-9.1875 2.8125 1.4531-1.5-185.95 101.58z"/>
 <path d="m501.84 878.06c-4.6406 4.5938-5.0156 12.094-0.14062 16.969l44.812 45.75c4.875 4.875 12.656 4.4531 16.969 0.14062 4.6406-4.6406 4.8281-12.328 0.14062-16.969l-44.812-45.75c-4.5-4.6406-12.469-4.6406-16.969-0.14062z"/>
 <path d="m300.89 907.03-61.125 18.703c-14.859 4.4531-8.6719 27.328 6.8906 22.875l61.266-18.562c6.2344-1.9219 9.9375-8.625 8.0156-15.047-1.9219-6.0469-8.8125-9.75-15.047-7.9688z"/>
 <path d="m438.66 865.26-61.125 18.562c-7.0312 2.2031-10.125 9.9375-8.0156 14.906 2.0156 7.0781 9.7969 10.172 14.859 8.0156 60.562-19.547 64.312-16.734 68.297-24.328 5.25-9.375-3.8906-20.25-14.016-17.156z"/>
 <path d="m635.29 1055.5c6.5625 0 12-5.2969 12-12-0.84375-26.672 2.1562-32.062-3.375-37.594l-24.328-24.797c-4.3594-4.3594-11.953-5.1562-16.969-0.14062-4.9219 4.6406-4.8281 12.328-0.14062 16.969l20.812 21.281v24.328c0 6.7031 5.4375 11.953 12 11.953z"/>
 <path d="m1003.1 936.94 12.938 62.719c1.2188 6.1406 7.0312 10.734 14.109 9.2812 6.5625-1.2656 10.734-7.6875 9.2812-14.062l-12.797-62.719c-1.4531-6.2344-7.8281-10.547-14.25-9.2812-6.7969 1.3594-10.641 7.6406-9.2812 14.062z"/>
 <path d="m1010.3 853.6-4.9688-24.469c-3.8438-18.094-18.562-31.828-36.984-34.219-6.5625-0.65625-12.469 3.9844-13.453 10.406-0.70312 6.9844 3.9375 12.797 10.406 13.453 8.2969 1.125 14.719 7.1719 16.5 15.375l5.1094 24.656c1.1719 5.8125 6.9375 10.688 14.062 9.2812 6.6094-1.3125 10.688-7.875 9.4219-14.25-0.09375-0.09375-0.09375-0.09375-0.09375-0.23438z"/>
 <path d="m976.6 668.29-60 22.219c-14.953 5.6719-6.4688 28.078 8.2969 22.547l60-22.406c6.2344-2.25 9.4219-9.1406 7.0312-15.375-2.25-6-9.2812-9.2344-15.328-6.9844z"/>
 <path d="m907.92 837.56c-3.9844-4.5-11.203-5.2969-16.172-1.7812-25.031 17.016-32.109 26.109-50.391 31.219-6.2812 1.875-10.219 7.875-8.4844 14.859 1.6875 6.0938 8.25 10.219 14.859 8.2969 23.016-6.375 34.734-19.312 58.078-35.016 5.7188-4.2188 6.3281-11.438 2.7188-16.641-0.14062-0.28125-0.42188-0.60938-0.60938-0.9375z"/>
 <path d="m841.55 718.55-59.859 22.219c-4.7812 1.7812-7.8281 6.375-7.8281 11.344 0 8.3438 7.9219 13.922 16.172 11.203l60-22.219c6.9375-2.9062 9.0938-9.9375 7.0312-15.516-2.25-6.0938-9.4688-9.2812-15.516-7.0312z"/>
 <path d="m739.78 794.21c-5.9062 0.28125-11.578 5.9531-10.875 13.125 2.3906 24.656 14.062 47.016 32.953 63.375 8.2969 6.9844 19.828 0.28125 19.828-8.9531 0-3.5156-1.4531-7.0312-4.1719-9.2812-14.25-12.141-22.875-29.109-24.797-47.531-0.46875-6.5625-6.2344-11.531-12.938-10.734z"/>
 <path d="m629.9 75.984c-105.56 0-191.48 85.875-191.48 191.48 0 84.656 118.36 250.03 169.26 317.21 11.203 14.766 33.234 14.766 44.438 0 50.906-67.172 169.26-232.5 169.26-317.21-0.046875-105.56-85.922-191.48-191.48-191.48zm3.0938 494.21c-2.0625 2.7188-4.125 2.7188-6.1875 0-79.453-104.86-164.39-239.48-164.39-302.68 0-92.344 75.141-167.48 167.48-167.48s167.48 75.141 167.48 167.48c-0.046875 63.188-84.938 197.76-164.39 302.68z"/>
 <path d="m242.34 603.52c-2.3906-5.9062-9.6094-8.9531-15.516-6.5625-11.625 5.4375-18.281 5.0156-21.422 12.469-3.1406 7.0781 1.8281 16.641 11.016 16.641 4.2188 0 6.375-1.875 19.359-6.8906 6.0938-2.5312 9.0938-9.4219 6.5625-15.656z"/>
 <path d="m331.31 567.52c-2.3906-6.0938-9.6094-9.0938-15.516-6.7031l-14.859 6.0938c-5.625 2.2031-9.2812 8.8594-6.5625 15.703 2.4375 6.1875 9.5625 9.1875 15.516 6.5625l14.859-6.0938c6.1406-2.4844 9.1875-9.6562 6.5625-15.562z"/>
 <path d="m574.45 626.76c-2.2031-6.2812-9.0469-9.6094-15.281-7.4062-18.094 6.2812-27.328 15.234-27.328 26.484 0 35.672 92.859 36.703 103.45 36.703s103.45-1.0312 103.45-36.703c0-14.953-16.031-25.641-47.578-31.781-6.4688-1.1719-12.797 2.9531-14.062 9.4688s3 12.797 9.4688 14.062c14.109 2.7656 21.984 6.0469 25.875 8.2969-28.266 16.688-125.44 16.922-154.18 0 1.7812-1.0781 4.5469-2.3906 8.8125-3.8906 6.2344-2.1094 9.5625-8.9531 7.3594-15.234z"/>
 <path d="m748.64 690.71c-2.0156-6.2812-8.8125-9.75-15.094-7.7344-38.906 12.609-87.094 19.828-132.19 19.828-98.719 0-159.32-34.031-159.32-58.406 0-12.469 27.797-30.656 81-41.297 6.5156-1.3125 10.734-7.6406 9.4219-14.109-1.3125-6.5156-7.5938-10.688-14.109-9.4219-177.71 35.625-100.78 147.24 83.062 147.24 47.484 0 98.344-7.6406 139.55-21 6.2812-2.0156 9.75-8.7656 7.6875-15.094z"/>
 <path d="m687.32 598.78c15.797 2.1562 29.953 4.7812 41.953 7.8281 6.3281 1.6406 12.938-2.1562 14.578-8.6719 1.6406-6.4219-2.25-12.984-8.6719-14.578-12.891-3.2812-27.938-6.0938-44.625-8.3438-6.5156-0.89062-12.609 3.7031-13.5 10.266s3.7031 12.609 10.266 13.5z"/>
 <path d="m637.36 187.69c-4.5938 3.1406-10.5 3.2344-15 0.1875-38.109-25.828-85.172-14.719-95.344 35.578-14.438 71.156 55.125 115.45 85.734 131.16 10.688 5.4844 23.438 5.3906 34.078-0.375 31.266-16.922 102.19-64.031 84.797-134.9-11.719-47.906-55.688-58.031-94.266-31.641zm-1.9688 145.45c-3.6562 1.9688-8.0156 2.0156-11.672 0.14062-25.734-13.219-84.328-49.922-73.172-105.05 2.9062-14.297 9.2812-23.531 19.031-27.516 12.469-5.0625 27.891-0.75 39.375 7.0312 12.703 8.5781 29.203 8.5312 42-0.23438 13.266-9.0938 28.125-12.234 38.766-8.1562 9.0469 3.4688 15.281 12.094 18.609 25.688 13.359 54.656-46.547 93.797-72.938 108.09z"/>
 <path d="m919.64 364.78c71.672 12.75 153.94 2.0156 183.79-64.453 13.781-30.703 7.1719-52.125-0.75-64.688-12.656-20.016-39-32.812-68.766-33.422-5.25-0.09375-9.9844-3.9375-11.484-9.3281-15.281-54.188-68.438-80.438-115.83-39.797-69.188 59.297-28.266 161.21-14.109 191.06 5.1562 10.828 15.281 18.562 27.141 20.625zm2.5781-193.45c12.328-10.594 26.859-17.297 42.328-12.609s29.109 20.672 34.781 40.734c4.4531 15.703 18.141 26.484 34.125 26.812 21.469 0.42188 40.641 9.1406 48.938 22.266 6.9844 11.062 6.7031 25.172-0.84375 42-29.531 65.766-120.14 57.328-157.69 50.672-4.2656-0.75-7.7812-3.4219-9.6562-7.3125-15.844-33.281-46.688-115.64 8.0156-162.56z"/>
 <path d="m309.14 157.5c-49.641-37.781-99.609-9.8906-114 46.547-1.4062 5.5781-6.1406 9.5156-11.766 9.75-57.281 2.3438-97.172 48.984-67.219 106.41 34.453 66.094 117.28 74.156 188.76 58.219 11.391-2.5312 21-10.453 25.641-21.234 13.969-32.391 53.672-142.55-21.422-199.69zm-0.65625 190.22c-1.5938 3.7031-4.875 6.4219-8.8125 7.3125-37.266 8.2969-127.69 20.438-162.28-45.891-9.0469-17.391-10.031-33.234-2.7656-45.797 8.4844-14.625 27.938-24.656 49.641-25.5 16.312-0.65625 30-11.859 34.078-27.797 5.5312-21.797 18.562-38.719 33.938-44.062 14.859-5.1562 29.672 1.0781 42.281 10.688 61.266 46.5 26.156 142.69 13.922 171.05z"/>
</svg>
