<?xml version="1.0" encoding="UTF-8"?>
<svg width="1200pt" height="1200pt" version="1.1" viewBox="0 0 1200 1200" xmlns="http://www.w3.org/2000/svg">
 <path d="m545.63 911.44c-12-14.203-19.453-33.656-19.453-55.266 0 21.656-7.4531 41.109-19.266 55.266-12 14.016-28.547 22.734-46.734 22.734 36.562 0 66 35.109 66 78.375 0-21.656 7.4531-41.109 19.453-55.266 11.812-14.203 28.547-23.109 46.734-23.109-18.188 0-34.734-8.7188-46.734-22.734z"/>
 <path d="m460.18 973.64c0 10.734-3.6562 20.344-9.6562 27.469-6 6.8906-14.203 11.25-23.25 11.25 18.188 0 32.906 17.438 32.906 38.906 0-10.734 3.6562-20.344 9.6562-27.469 5.8125-7.0781 14.203-11.438 23.25-11.438-9.0938 0-17.25-4.3594-23.25-11.25-6-6.9375-9.6562-16.734-9.6562-27.469z"/>
 <path d="m1150.2 268.36c0-0.75-0.1875-1.2656-0.375-1.8281 0-0.1875 0-0.375-0.1875-0.5625-0.375-0.75-0.89062-1.4531-1.6406-2.0156-0.1875-0.1875-0.375-0.1875-0.5625-0.1875-0.375-0.1875-0.89062-0.5625-1.2656-0.75l-239.44-71.625c1.4531-27.797-0.1875-55.641-5.1094-83.438-3.7969-21.797-12.188-52.547-38.531-67.078-16.922-9.0938-39.281-9.9844-61.453-2.2031-18.891 6.5625-34.922 18-51.094 29.438l-20.344 14.531c-18.375 13.359-36.703 26.438-54.891 39.703l-87.281-26.016c-12.188-3.6562-25.078-3.4688-37.266 0.5625l-52.734 17.625-64.734-46.359c-15.656-11.109-31.641-22.547-50.531-29.109-22.359-7.8281-44.719-7.0781-61.453 2.2031-26.344 14.344-34.547 45.094-38.531 67.078-4.7344 26.344-6.375 53.25-5.25 80.203l-223.64 74.719c-0.375 0.1875-0.75 0.375-1.2656 0.75-0.1875 0.1875-0.375 0.1875-0.5625 0.1875l-0.1875 0.1875c-0.75 0.5625-1.2656 1.2656-1.6406 2.0156v0.1875c-0.375 0.75-0.5625 1.4531-0.5625 2.2031v124.17c0 20.719 14.016 39.094 34.172 44.531l14.203 3.7969c10.734 59.109 18.562 119.44 23.25 179.11 8.3438 105.47 7.4531 212.21-2.9062 316.92-0.375 3.9844-0.375 8.2031 0.1875 12.375 2.5312 19.453 15.469 35.812 33.797 42.375l469.45 174.19c0.5625 0.1875 1.0781 0.375 1.8281 0.375h0.375c0.75 0 1.2656-0.1875 1.8281-0.375l428.9-173.63c21.656-8.7188 34.734-30.375 32.531-54-10.359-114.89-10.547-231.1-0.5625-345.79 4.3594-51.656 10.922-102.56 19.078-151.45l11.25-3.2812c19.453-5.8125 33.094-24 33.094-44.344v-124.92c0.046875-0.28125 0.046875-0.46875 0.046875-0.46875zm-277.08 29.438c11.625-9.7969 19.641-24 24.562-43.078 1.2656-4.9219 2.3438-9.7969 3.2812-14.719 2.2031-12.188 3.7969-24.375 4.9219-36.562l217.08 64.922-197.11 53.25-55.266-21.797c0.70312-0.70312 1.6406-1.2656 2.5312-2.0156zm-86.906 223.45c-0.89062-3.0938-1.8281-6.1875-2.9062-9.2812 11.812 0.1875 21.469 9.9844 21.469 21.797 0 12-9.7969 21.984-21.984 21.984-12 0-21.984-9.7969-21.984-21.984 0-8.0156 4.3594-15.094 10.922-18.891 0.89062 3.0938 2.0156 6.1875 2.9062 9.2812 0.75 2.7188 3.0938 4.3594 5.625 4.3594 0.5625 0 1.0781 0 1.4531-0.1875 3.5625-0.70312 5.3906-3.9844 4.5-7.0781zm-17.297-47.25c-14.531-30.75-34.547-58.734-59.109-81.984l146.72-39.656v48.188c-13.453 5.25-26.531 12.188-38.719 20.719-20.344 14.391-36.891 32.391-48.891 52.734zm-7.7812 11.25c-38.531 1.6406-81.797 5.25-118.17 24-4.5469 2.3438-8.9062 4.9219-13.078 7.6406v-103.27l66.562-18c27.375 24.75 49.594 55.641 64.688 89.625zm107.06-88.5v-47.25l51.281-13.828v53.812c-17.109-0.375-34.547 1.9688-51.281 7.2656zm-63.984-80.391h3.2812c14.719 0 33.281-1.2656 49.828-8.7188l29.438 11.625 19.453 7.4531-8.7188 2.3438-35.109 9.4688-59.625-22.359c0.51562 0 1.0781 0.1875 1.4531 0.1875zm-46.547-4.1719 9.2812 3.4688 75.984 28.172-143.44 38.719c-8.5312-7.2656-17.438-14.203-26.203-20.906-13.453-10.359-27.469-20.906-39.281-33.094-7.4531-7.6406-17.25-19.641-24.188-34.359 15.797-2.0156 30-7.0781 39.469-19.266 33.094 18.516 70.172 31.266 108.38 37.266zm-227.81-87.094c-0.5625-12.375-1.2656-24.75-1.8281-37.266l-0.1875-3.0938c-0.375-9.0938-0.89062-17.625 2.9062-24.75 8.3438-15.469 23.625-22.922 47.109-22.922 10.172 0 22.172 1.4531 35.625 4.1719 13.641 2.9062 28.922 6.8906 34.547 18.188 3.2812 6.375 2.9062 14.719 2.7188 21.984l-1.6406 47.25c-0.5625 15.469-1.6406 29.109-9.2812 39.094-11.438 14.719-33.797 16.359-56.531 15.797-19.453-0.375-40.547-2.7188-48.562-17.625-3.4688-6.5625-3.7969-14.906-4.1719-22.172zm24.703-117.09c9.7969-3.2812 20.203-3.4688 30-0.5625l78.562 23.438c-2.7188 2.0156-5.4375 3.7969-8.2031 5.8125-2.3438 1.6406-4.7344 3.2812-7.0781 5.1094-10.172-7.4531-23.438-10.359-31.828-12.188-15.469-3.2812-57.469-12-83.25 9.6562l-22.922-16.359zm-91.641 196.55c23.109-6.375 45.469-15.281 66.375-26.344 12.562 14.344 35.109 16.922 54 17.25h6.1875c2.7188 0 5.25 0 8.0156-0.1875 7.4531 18 19.266 32.719 28.172 41.625 12.562 12.75 26.719 23.625 40.547 34.172 6.5625 4.9219 12.891 9.9844 19.453 15.281l-61.828 16.734-242.9-60zm154.92 109.27v111.66c-12.891 10.172-24.375 22.547-33.797 36.188l-214.74-58.547v-150.74zm-329.06 616.18-132.19-49.078c-14.203-5.1094-24.188-17.812-26.203-32.906-0.375-3.4688-0.5625-6.5625-0.1875-9.7969 10.359-105.47 11.438-212.72 2.9062-318.89-4.5469-58.172-12.188-116.91-22.359-174.56l177.98 48.562zm0-549.1-184.03-50.156-17.812-4.9219c-14.906-3.9844-25.453-17.812-25.453-33.281v-116.53l227.11 56.203v148.69zm-212.02-213.1 201.47-67.453c0.89062 13.266 2.5312 26.344 4.9219 39.656 2.9062 15.797 7.6406 33.984 18.75 48 2.5312 3.7969 5.4375 6.8906 8.9062 9.7969 4.7344 3.9844 9.7969 7.0781 15.281 9.4688l-32.203 14.203zm280.92 787.64-57.094-21.281v-698.9l21.094 5.25 36 8.9062zm-44.766-729.24 30-13.266c11.812 2.7188 23.812 3.4688 33.984 3.4688h3.2812c11.625-0.1875 23.438-1.0781 35.109-2.3438l-52.172 24.562zm304.92 825.79-248.53-92.203c0-0.1875 0.1875-0.375 0.1875-0.5625v-543.98l208.18 56.906c-15.094 25.641-23.812 55.266-24.188 85.266-0.1875 4.3594 0 8.5312 0.1875 12.891 2.2031 28.922 10.922 56.531 25.266 80.203 11.812 19.266 24.891 34.547 39.094 47.109v354.37zm12-0.1875v-344.34c47.438 35.625 104.53 43.266 160.55 50.531 9.0938 1.2656 18 2.3438 27.094 3.6562 12.562 1.8281 25.828 4.1719 39.094 7.2656v190.18c0 0.1875 0.1875 0.5625 0.1875 0.75zm289.64-117.47-51.281 20.719v-183.05c17.625 4.9219 34.922 11.812 51.281 21.656zm130.92-52.875-119.11 48.188v-128.21c3.7969 2.7188 7.8281 5.625 11.438 8.9062 2.5312 2.2031 5.8125 3.4688 9.2812 3.4688 1.6406 0 3.2812-0.1875 4.7344-0.89062 4.9219-1.6406 8.2031-5.8125 9.0938-10.922 6.5625-42.75 24.562-82.734 41.438-116.34 5.625-11.25 11.25-22.172 17.109-33.281 10.922-20.906 22.172-42.75 31.828-64.547 4.3594-9.2812 8.3438-19.266 12.562-30.375 0.89062-2.3438 1.4531-4.5469 2.3438-6.8906-5.4375 96.188-3.9844 193.08 4.7344 288.89 1.6406 18.328-8.5781 35.062-25.453 42zm31.828-458.02c-0.5625-2.9062-1.0781-5.8125-1.8281-8.5312-5.625-20.531-15.656-40.172-29.109-57.469l42-12.562c-4.1719 25.641-7.8281 52.031-11.062 78.562zm56.156-129.98c0 15.094-10.172 28.734-24.562 33.094l-14.719 4.3594h-0.1875l-56.016 16.734c-7.0781-7.8281-14.719-15.281-23.109-21.797-26.344-20.531-57.094-32.906-88.547-35.812v-57.656l207.1-56.016z"/>
</svg>
