<?xml version="1.0" encoding="UTF-8"?>
<svg width="1200pt" height="1200pt" version="1.1" viewBox="0 0 1200 1200" xmlns="http://www.w3.org/2000/svg">
 <path d="m597.37 883.4s2.1094 1.0781 3.7031 1.0781c1.5469 0 2.625 0 3.6562-1.0781 46.969-31.125 280.26-196.31 280.26-399.47 0-156.24-127.22-283.92-283.92-283.92-156.74 0-283.92 127.18-283.92 283.92 0 196.82 214.22 355.69 280.22 399.47zm-195.79-419.02c0-70.172 57-127.69 127.18-127.69 22.688 0 45.938 8.4375 68.062 25.312 2.1094 1.5938 5.2969 1.5938 7.9219 0 23.25-16.875 46.453-25.875 69.141-25.875 70.219 0 127.74 57 127.74 127.74 0 116.62-124.55 199.45-190.55 226.4-5.7656 2.625-11.578 3.1406-18.469 0-65.953-27.469-190.5-109.78-190.5-226.4z"/>
 <path d="m597.89 640.69s2.1094 0.51562 2.625 0.51562c0.5625 0 2.1094 0 2.6719-0.51562 15.281-7.4062 148.78-74.438 148.78-176.26 0-43.828-35.344-79.172-79.125-79.172-16.359 0-34.828 10.031-55.969 30.609-8.9531 8.9531-24.281 8.9531-33.234 0-20.578-20.062-39.562-30.609-55.922-30.609-43.828 0-79.172 35.859-79.172 79.172 0 83.906 97.641 151.97 148.82 176.26z"/>
 <path d="m745.64 837.47s-3.6562 0-5.25 1.5469c-37.5 33.797-79.172 65.438-123.52 93.938-2.1094 1.5938-3.7031 2.1094-3.7031 2.6719-7.875 4.2188-16.359 4.2188-24.797 0-0.51562 0-2.1094-1.5938-4.2188-2.6719-43.781-28.5-84.938-59.625-122.95-93.938-1.5938-1.0312-3.1406-1.5469-5.25-1.5469-128.26 16.359-205.31 51.703-205.31 77.016 0 30.094 120.32 85.5 349.36 85.5s349.36-55.922 349.36-85.5c0-25.312-76.5-61.219-204.74-77.016z"/>
</svg>
