<?xml version="1.0" encoding="UTF-8"?>
<svg width="1200pt" height="1200pt" version="1.1" viewBox="0 0 1200 1200" xmlns="http://www.w3.org/2000/svg">
 <path d="m102.23 966.79c2.9062 0.046875 5.8594-0.14062 8.4844-1.5 6.4219 2.6719 19.922 1.5469 22.031-0.375 0.09375-0.09375 0.14062-0.1875 0.1875-0.28125 8.9062 48.891 46.875 98.062 91.312 80.203 35.719 1.0781 63.609-21.844 76.641-53.531 200.26 21.094 198.98 18.609 208.78 13.312 2.8594 2.7656 7.2188 5.9062 10.969 4.5938 2.5312-0.28125 11.953 0.046875 21.094 0.5625 14.156 72.469 79.172 122.34 136.08 87.984 5.625-1.0781 11.297-2.1562 16.875-3.5156 41.344-10.359 60.516-51.797 63.188-92.016 2.1094 0 30.422 2.0625 95.906-2.625 10.266 48.141 60.047 80.719 111.14 64.734 48.516 2.1562 88.453-38.344 83.953-88.266 2.0156-0.23438 31.359-3.5625 33.094-3.7969 16.922-5.4375 30.516-20.109 34.641-37.359 6.7031-27.609-11.953-54.703-30.516-58.219-20.953-4.1719-25.359-1.2188-36.141 5.6719-12.094-28.172-23.109-56.625-35.391-87.703-2.9062-7.3125-14.109-2.9531-11.156 4.4531l3.3281 8.3906c-0.98438 1.0781-1.5938 2.5312-1.5469 4.125 0.5625 21.891-6.9844 39.797-26.578 48.047-13.312 5.5781-50.25 10.078-69.422 10.078-63.469 0.046875-91.875-29.719-134.16-52.406-48.188-53.812-10.875-194.63-179.21-265.6-40.5-17.062-84-26.016-127.36-26.719 142.13-46.547 316.64 2.5312 410.76 78.234-28.828-0.375-115.45-1.3594-116.39-0.84375-8.4844 4.6406-10.312 10.406-9.375 16.266-3.3281 12.141 5.0625 20.156 25.922 52.641 22.641 34.312 22.453 36.469 29.578 40.641 9.6094 5.625 21.938 2.4375 30.094 2.9062 57.328 3.8438 120.98-6.8438 122.86-7.0781 1.9688 3.6562 4.0312 7.1719 6 11.016 3.6562 7.125 14.297 1.5469 10.688-5.4844-47.531-93.047-116.77-166.5-280.45-206.16 1.125-41.156-13.688-50.344-16.219-89.625 16.312 18.141 39.844 6.6562 35.766-9.9375l-5.1094-20.625c81.891-12.609 139.78-58.875 138.61-142.69-0.84375-62.906-47.203-96.656-98.484-94.5-7.5938 0.28125-7.9688 11.719 0.42188 12 43.641-2.3906 85.266 26.156 86.016 82.688 1.0781 76.969-52.031 118.64-126.84 130.45-9.6094 1.4531-21.562 3.3281-25.359-2.8594-9.7031-15.375-16.688-32.016-21.141-49.219-2.0156-7.6875-13.594-4.6406-11.625 3 3.6562 14.203 9.1875 28.266 15.656 40.547-18.469 15.281-24.516 9.6562-29.438 19.875-3.2344 6.6562-1.0312 13.594 5.7188 18.047 8.7188 5.7656 17.859 1.9688 23.766 0.98438-1.2656 47.297 16.594 59.859 16.266 99.094-16.594-3.7031-33.328-6.5625-49.828-8.25-38.719-38.812-67.734-65.438-55.875-120.32 2.7656-1.2188 2.7656 0.09375 8.6719 3.7031 7.5 4.5469 19.922 6.0469 28.125 0 9.4219-6.9375 9.2344-17.953 3.4219-24l-9.7969-10.219c7.7344-2.8125 15.375-6.5625 22.969-11.438 85.219-53.953 151.45-170.58 69.141-228.42-46.781-32.859-108.14-6.375-129.79 46.266-3 7.3125 8.0625 11.953 11.109 4.5469 18.656-45.375 71.531-69.328 111.8-41.016 91.688 64.453-33 208.26-100.92 222.19-16.031 3.5156-31.5 1.3125-45.938-6.5625-44.859-24.703-112.5-96.234-110.39-145.87 1.3125-41.438 36.844-82.969 85.453-74.625 42.281 14.297 46.078 36.984 54.656 27.984 2.25-2.3906 2.1562-6.1875-0.23438-8.4844-19.172-18.141-40.969-29.109-53.719-31.594-56.438-9.3281-101.06 44.156-102.84 89.391-1.875 52.594 66.75 125.48 113.67 151.31 8.5312 4.7344 14.344 5.9062 21.469 8.25-2.1094 4.875-4.8281 10.641-8.2969 14.578-2.6719 3-6.375 7.125-5.9062 13.688 0.79688 11.531 13.453 15.891 23.766 10.641-4.5938 48.188 16.969 75.094 50.812 108.38-81.891-5.2969-184.78 14.156-246.79 72.047-30.047 28.078-50.531 64.594-68.156 99.891-7.3594 14.859-14.953 30.656-20.625 46.969-57.234 12.422-92.719 18.375-122.9 34.688-67.828 36.375-82.078 121.64-75.844 198.37 0.375 13.875 5.0625 21.609 18.891 20.297zm837.89-267.56c-73.828 7.4531-91.594 2.8594-109.45 3.9375-19.266 1.0781-17.25-2.2969-25.453-14.062-40.031-61.875-46.5-65.391-36-71.906 20.25-0.23438 102.8 0.98438 107.62 1.0312 22.266 20.859 42.469 39.422 63.281 81zm-260.16-303.84c-0.98438-0.98438-2.25-1.6406-3.75-1.7812-12-1.5-18.234 4.2656-23.484 0.79688-5.9531-3.9375 4.3594-5.4844 8.8125-7.8281 5.0625-2.7188 9.7969-6 14.344-9.5625 5.9531 9.6094 13.031 11.766 24.562 11.297l5.4844 22.219c1.3594 5.4844-11.953 7.5938-18.328-5.9062-1.3125-2.7656-2.9531-6.2344-6.2812-8.6719-0.32812-0.28125-0.9375-0.32812-1.3594-0.5625zm-122.16-18.938c-2.6719-0.1875-2.7188-0.98438-2.7656-1.7344-0.28125-3.6562 5.6719-3.7969 14.016-24.516 12.047 1.875 18.141 0.79688 28.875-1.0312l14.062 14.672c3.8438 4.0312-6.4688 12.797-18.797 4.0312-19.781-13.688-25.734 9.2812-35.391 8.5781zm-426.89 550.08c-2.7188 7.0781-6.9375 20.625-7.9688 28.125-0.14062 0-0.32812 0.046875-0.46875 0.046875-2.1094 0.1875-6.4688 0.46875-7.4062-0.1875-0.32812-0.32812-1.3125-1.9688-2.1094-5.7656-1.5938-57.047 16.078-123.24 71.109-102.66-29.016 6.0938-49.969 39.047-53.156 80.438zm75.469 110.06c-30.094 0-57.703-36.422-63.047-83.297-5.5312-48.094 16.594-104.86 59.344-95.297 11.156 10.641 18.891 26.109 23.812 43.078-8.1094-7.0312-18.094-10.594-28.219-8.9531-28.969 4.7344-40.219 45.938-22.734 75.141 4.0781 6.8438 14.391 0.65625 10.312-6.1406-13.125-21.938-5.6719-53.906 14.344-57.141 14.391-2.3438 28.875 11.953 32.109 31.922 5.8594 36-20.391 39.281-21.984 40.594-7.6875 0.46875-7.3125 12 0.375 12 8.8594 0 20.109-5.8594 27.234-17.953 3.6094 6.375 9.4219 11.391 16.547 14.109-5.9531 25.922-23.156 52.266-48.094 51.938zm333.66-38.906c-11.297-0.65625-17.391-0.70312-20.578-0.32812-0.09375-0.046875-0.1875-0.23438-0.28125-0.32812 4.125-4.7344 6.75-10.547 7.4531-16.641 9.0469-77.203 39.844-116.39 96.516-123.37 15.234-0.75 29.531 3.5625 43.359 12.516-2.3906 0.75-4.8281 1.5-7.2656 2.3906-7.2188-0.046875-14.531 0.375-22.078 1.125-63.516-10.594-105.14 54.516-97.125 124.64zm109.12 98.344c-43.875 7.125-87.047-34.547-96.562-92.906-7.9688-49.125 11.016-96.703 45.188-113.2 41.859-20.297 101.16 12.047 113.58 87.516 10.219 62.203-22.219 111.61-62.203 118.59zm289.4-39.516c-34.781 0-64.781-24.516-72.703-57.891 46.172-3.6562 96.703-9.4219 147.66-15.891-0.75 41.062-34.078 73.781-74.953 73.781zm-668.26-327.98c18.047-4.2188 20.625-3.6094 22.031-7.9688 5.4844-16.734 13.078-32.578 21.047-48.656 31.312-62.625 59.531-104.62 122.53-134.11 0.46875 0.09375 0.9375 0.1875 1.4062 0.14062 85.922-7.0312 189.19 23.484 243.61 88.078 55.781 65.953 45.609 131.53 71.812 180.14-77.109-34.031-170.06-40.922-253.92-44.203 19.969-108.84 8.0625-37.875 24.422-150.79 1.7344-12.094 1.7812-23.203-16.734-26.766-29.203-5.5312-100.92-7.9688-120.19 14.719-40.453 47.625-71.719 102.66-92.156 161.53-47.625 1.125-95.156 3.1406-142.45 6.375 34.125-24.328 77.625-28.828 118.59-38.484zm216.37 33.094c-59.719-2.1094-119.67-2.5781-179.63-1.3594 20.016-55.828 49.875-108.05 88.359-153.37 15.047-17.719 82.453-15.75 108.8-10.734 10.922 2.1094 8.6719 0.89062 3.1406 42.281-7.5938 56.766-7.2656 49.922-20.672 123.19zm-347.34 15.656c4.5469 5.3906 0.75-0.75 150.94-4.5938-5.2969 16.594-9.9844 33.375-13.547 50.484-1.6406 7.8281 10.172 10.078 11.766 2.4375 3.75-18.047 8.6719-35.812 14.438-53.297 60.562-1.3125 121.22-0.89062 181.55 1.2188-6.6562 37.125-12.562 74.578-15.703 113.39-1.5938 19.5 3.0938 59.062-1.5938 64.828-6.0938 7.3125-41.953 3.5156-162.66-5.625-7.6875-0.79688-9 11.344-0.89062 11.953 122.86 9.4219 161.48 15.047 172.82 1.2188 9.2812-11.344 2.25-46.781 4.2656-71.438 3.1406-39 9.1875-76.641 15.891-114 334.78 12.984 278.86 107.62 413.68 107.62 20.203 0 57.891-4.5 72.844-10.734 16.219-6.7969 28.5-20.719 32.438-40.594 7.4531 18.938 15.188 38.203 23.391 57.234-41.109 14.297-94.781 15.844-137.29 17.719-8.1094 0.5625-6.8438 12.797 0.84375 11.953 22.359-0.9375 44.766-1.7812 68.203-4.1719 50.906-4.125 80.344-17.062 78.562-16.594 0.046875-0.046875 0.14062-0.046875 0.1875-0.046875 13.875-5.25 9.75-12.516 34.266-7.6875 12.047 2.2969 26.109 23.062 21.141 43.641-3.1875 13.219-13.641 24.516-25.453 28.453-102.09 10.734-220.45 23.438-222.19 23.625-22.688 2.3438-44.719 3.2812-64.359-12.047-8.0156-6.0938-11.156-11.438-12.047-20.484-0.98438-8.9531 1.0781-18 5.8125-25.5 7.5469-11.859 7.875-7.0781 32.297-7.5938 7.8281-0.1875 7.875-12.234-0.28125-12-22.5 0.5625-30.281-5.3906-42.141 13.172-6.1406 9.7969-8.8594 21.609-7.5938 33.141 1.3125 13.312 7.7812 26.672 31.125 37.359-14.531 0.375-28.453 0.46875-41.062-0.046875-24.984-65.203-67.406-149.21-136.92-145.22-62.578 7.6875-97.734 51.516-107.39 133.97-1.0312 9.0938-9.8438 17.953-20.859 17.344-73.406-4.1719-154.45-11.391-231.28-21.797-9.6094-1.5938-16.828-10.172-16.828-19.922 0-47.484-15.328-106.97-60.562-121.13-64.594-20.016-87.516 53.625-84 121.36-5.5312-0.65625-5.9531-3.2344-5.9531-12.281-0.51562-56.391 1.5938-124.78 44.156-165.32z"/>
 <path d="m623.11 936.37c-33.234 5.4375-47.062 53.484-26.344 88.078 4.125 6.8438 14.344 0.60938 10.312-6.1406-16.594-27.75-6.4219-66.094 18-70.078 17.906-2.7656 35.719 14.625 39.703 39.141 3.75 22.969-6.75 48.516-27.375 49.922-7.6406 0.5625-7.2188 12 0.42188 12 22.453 0 44.719-27.422 38.812-63.797-5.0625-31.078-29.062-53.156-53.531-49.125z"/>
 <path d="m555.52 729.24c10.547 6.0938 19.031 4.7812 44.766 6.9844 23.812 2.0156 59.109 5.5312 75.094-11.625 39.469-42.234-80.578-120.66-114.38-114.75-12.938 2.25-12.469 14.203-14.062 24.75-3.5625 22.734-6.3281 49.594-7.5 68.625-0.75 13.688-1.125 21.703 16.078 26.016zm2.1094-25.266c1.3594-26.766 5.0625-51.141 7.0312-64.688 1.2188-9.7969 1.875-13.547 10.266-13.547 27.141 0 95.766 51 97.031 77.297 0.23438 4.9219-1.5 9.2812-5.2969 13.312-12.234 13.125-46.875 9.4219-65.297 7.875-25.734-2.1562-33.469-0.89062-40.969-5.9531-4.3594-2.8125-3.1406-7.2656-2.7656-14.297z"/>
 <path d="m467.16 620.76c-24.656-1.8281-31.031-0.46875-38.016-0.32812-8.5312 0.23438-14.859 0.46875-21.797 3.0469-3.6094 0.51562-7.0312 1.2656-9.7031 2.8125-10.922 6.1406-34.219 48.328-39.891 59.531-5.9531 11.953-20.109 32.672-7.0312 40.312 2.8594 4.9219 8.2031 8.1094 16.125 9.2344 30.328 4.125 42.844 3.6562 61.828 4.4062 16.172 0.65625 32.672 0.375 40.312-14.531 3.0938-6.1406 2.2969-4.7344 14.438-86.719 1.6406-11.719-4.6406-17.156-16.266-17.766zm-9 99.047c-4.2188 8.2969-14.719 8.5312-29.109 7.9688-18.797-0.79688-30.609-0.1875-60.609-4.3125-2.9062-0.42188-6.5625-1.3594-7.6406-3.5156-2.3438-4.8281 4.4062-16.734 8.4375-23.859 6.4219-11.391 14.109-28.031 32.672-52.828 6.7031-9.0938 6.75-10.406 31.688-11.016 20.953-1.5 36.281 1.2656 37.875 1.3594-11.578 83.906-11.625 82.781-13.312 86.203z"/>
 <path d="m387.52 350.95 34.359-39.094c5.25-6-3.7969-13.922-9-7.9219l-34.359 39.047c-5.2969 6.0469 3.7969 13.875 9 7.9688z"/>
 <path d="m335.86 313.4c21.422-10.031 43.688-18.844 66.141-26.156 7.5469-2.4844 3.7969-13.875-3.75-11.391-22.922 7.5-45.609 16.453-67.5 26.719-7.0312 3.2812-2.25 14.203 5.1094 10.828z"/>
 <path d="m394.74 257.16c7.4062 0 8.1562-10.922 0.84375-11.953l-64.078-9.1875c-7.7344-1.2188-9.6562 10.781-1.6875 11.859 56.062 8.0156 63.234 9.2812 64.922 9.2812z"/>
</svg>
