<?xml version="1.0" encoding="UTF-8"?>
<svg width="1200pt" height="1200pt" version="1.1" viewBox="0 0 1200 1200" xmlns="http://www.w3.org/2000/svg">
 <path d="m239.06 295.18c6.6094-0.42188 11.625-6.0938 11.25-12.703l-5.6719-91.406c-0.42188-6.6094-6.0938-11.625-12.703-11.25-6.6094 0.42188-11.625 6.0938-11.25 12.703l5.6719 91.406c0.42188 6.6562 6.1406 11.672 12.703 11.25z"/>
 <path d="m173.68 308.68c4.875-4.5 5.2031-12.047 0.75-16.969l-77.344-84.281c-4.4531-4.875-12.094-5.2031-16.969-0.75-4.875 4.5-5.2031 12.047-0.75 16.969l77.344 84.281c4.5469 4.9688 12.141 5.2031 16.969 0.75z"/>
 <path d="m76.266 775.6v225.14c0 67.969 55.406 123.24 123.47 123.24h640.97c67.969 0 123.24-55.266 123.24-123.24l-0.046875-372.52c0-67.969-55.266-123.24-123.24-123.24h-640.92c-68.109 0-123.47 55.266-123.47 123.24zm123.47-246.61h640.97c54.703 0 99.234 44.531 99.234 99.234v96.891h-151.78c-6.6094 0-12 5.3906-12 12s5.3906 12 12 12h151.78v167.11h-151.78c-6.6094 0-12 5.3906-12 12s5.3906 12 12 12h151.78v60.516c0 54.703-44.531 99.234-99.234 99.234l-640.97 0.046875c-54.844 0-99.469-44.531-99.469-99.234v-99.094h136.36c6.6094 0 12-5.3906 12-12s-5.3906-12-12-12l-136.36-0.046875v-89.953h136.36c6.6094 0 12-5.3906 12-12s-5.3906-12-12-12l-136.36 0.046875v-135.47c0-54.75 44.625-99.281 99.469-99.281z"/>
 <path d="m435.94 385.03-43.406 56.531c-4.0312 5.25-3.0469 12.797 2.2031 16.828s12.797 3.0469 16.828-2.2031l43.406-56.531c10.688-13.922 27.562-22.219 45.094-22.219h139.74c18.938 0 36.562 9.375 47.016 24.891l40.641 62.953c2.2969 3.5625 6.1406 5.4844 10.078 5.4844 9.375 0 15.281-10.453 10.078-18.516l-40.781-63.141c-15.047-22.312-40.125-35.672-67.031-35.672h-139.74c-24.984-0.046875-48.938 11.766-64.125 31.594z"/>
 <path d="m607.22 401.21h-68.156c-14.062 0-27.609 6.6562-36.141 17.812l-21.141 27.562c-4.0312 5.25-3.0469 12.797 2.2031 16.828s12.797 3.0469 16.828-2.2031l21.141-27.562c4.0781-5.2969 10.453-8.4375 17.109-8.4375h68.156c7.1719 0 13.875 3.5625 17.766 9.3281l19.828 30.703c3.6094 5.625 11.109 7.125 16.594 3.5625 5.5781-3.6094 7.1719-11.016 3.5625-16.594l-19.922-30.891c-8.5312-12.609-22.641-20.109-37.828-20.109z"/>
 <path d="m195.28 440.63v25.875c0 6.6094 5.3906 12 12 12s12-5.3906 12-12v-23.25h75.516v23.25c0 6.6094 5.3906 12 12 12s12-5.3906 12-12v-25.875c0-11.766-9.5625-21.375-21.375-21.375h-80.812c-11.766 0-21.328 9.5625-21.328 21.375z"/>
 <path d="m693.89 124.82-77.203 182.86c-2.5781 6.0938 0.28125 13.125 6.375 15.703 6.0938 2.5781 13.125-0.28125 15.703-6.375l77.203-182.9c11.953-28.453 44.625-41.719 73.125-29.766l276.56 116.62c28.312 11.906 41.672 44.719 29.766 73.125l-112.08 266.02c-3.3281 7.9219 2.5312 16.641 11.062 16.641 4.6875 0 9.1406-2.7656 11.062-7.3594l112.08-266.02c17.062-40.641-2.0625-87.516-42.562-104.53l-276.56-116.58c-40.688-17.062-87.469 1.875-104.53 42.562z"/>
 <path d="m893.63 252.28c-33.281-42.844-82.219-54.891-115.27-9.0938-55.781 77.297 23.859 192.98 27.281 197.9 2.25 3.2344 5.9531 5.1094 9.8438 5.1094 0.60938 0 1.1719-0.046874 1.7812-0.14062 5.9062-0.89063 144.79-22.875 162.37-116.53 5.5312-29.578-4.5-47.297-13.875-56.906-18.188-18.562-47.859-22.781-72.141-20.344zm54.938 37.125c7.875 8.0625 10.406 20.109 7.5 35.719-12.375 65.953-107.3 90.141-134.86 95.859-14.906-23.859-62.719-109.17-23.344-163.69 9.2344-12.75 19.5-19.219 30.656-19.219h0.375c18.281 0.23438 37.969 17.156 49.359 33.844 2.625 3.8438 7.2188 5.8125 11.812 5.0625 19.922-3.2812 45.75-0.65625 58.5 12.422z"/>
 <path d="m520.08 1041.2c125.02 0 226.69-101.72 226.69-226.74 0-125.02-101.67-226.69-226.69-226.69-125.02 0-226.74 101.67-226.74 226.69 0.046875 125.06 101.72 226.74 226.74 226.74zm0-429.37c111.75 0 202.69 90.938 202.69 202.69 0 111.75-90.938 202.74-202.69 202.74s-202.74-90.938-202.74-202.74c0.046875-111.8 90.984-202.69 202.74-202.69z"/>
 <path d="m520.08 983.95c93.422 0 169.45-76.031 169.45-169.45s-76.031-169.45-169.45-169.45-169.45 76.031-169.45 169.45 76.031 169.45 169.45 169.45zm0-314.9c80.203 0 145.45 65.25 145.45 145.45s-65.25 145.45-145.45 145.45-145.45-65.25-145.45-145.45 65.25-145.45 145.45-145.45z"/>
 <path d="m444.74 807.71c-4.3594 47.25 32.906 82.922 75.281 82.922 42 0 76.219-34.125 76.219-76.031 0-45.281-39.656-81.094-85.078-75.656-27.422-39.516-88.969-19.734-88.969 27.75-0.046874 17.203 9 32.344 22.547 41.016zm127.45 6.8906c0 28.688-23.438 52.031-52.219 52.031-28.453 0-51.609-23.016-51.938-51.375 29.719 1.8281 54.094-22.406 51.422-52.781 29.625-0.32812 52.734 23.625 52.734 52.125zm-101.16-72.797c13.688 0 24.844 11.156 24.844 24.844s-11.156 24.844-24.844 24.844c-13.734 0-24.844-11.156-24.844-24.844-0.046874-13.688 11.109-24.844 24.844-24.844z"/>
 <path d="m237.1 648.74h91.688c14.109 0 25.594-11.484 25.594-25.594v-30.328c0-14.109-11.484-25.594-25.594-25.594h-91.688c-14.109 0-25.594 11.484-25.594 25.594v30.328c0 14.109 11.484 25.594 25.594 25.594zm0-57.516c93.469 0.70313 93.281-1.5 93.281 1.5938v30.328c0 0.89062-0.70312 1.5938-1.5938 1.5938-93.469-0.70313-93.281 1.5-93.281-1.5938 0.65625-28.594-1.3594-31.922 1.5938-31.922z"/>
</svg>
