<?xml version="1.0" encoding="UTF-8"?>
<svg width="1200pt" height="1200pt" version="1.1" viewBox="0 0 1200 1200" xmlns="http://www.w3.org/2000/svg">
 <path d="m1111.1 646.18c8.9531-83.484-0.9375-176.72-0.89062-175.13-0.28125-52.125-42.797-102.42-119.77-141.61-7.125-3.6094-12.516 7.0781-5.4375 10.688 128.86 65.625 156.19 161.95 37.922 240.79-6.6094 4.4062 0.046875 14.391 6.6562 9.9844 29.719-19.828 57.375-45 71.625-77.906 2.8125 49.312 2.1562 92.812-2.0156 131.86-0.42188 3.7969-1.9219 7.5938-4.2188 10.781-72.234 93.188-220.82 136.92-337.69 152.86 16.078-76.875-1.4531-151.74-41.953-207.79-36.281-50.203-79.688-77.531-92.203-148.64 7.9219 8.7656 17.719 16.828 26.297 23.672 79.172 58.266 96.422 57.281 130.78 81.938 55.875 40.031 88.219 111.56 82.359 182.26-0.79687 11.062 13.594 16.031 19.781 6.5156 12.844-20.531 22.875-39.281 29.953-63.609 77.438 30.188 82.969 48.703 94.969 43.969 3.1875-1.2656 5.5781-4.0781 6.3281-7.5 5.9531-26.156-1.5-54.938-7.4531-81.469-18.938-87.797-83.109-162.32-167.76-192.66 30.422-3.375 60.703-9.8438 89.812-19.922 15.047-5.0156 22.641-10.688 23.906-26.25 0.1875-6.7969-0.9375-13.406-1.0781-18.562-0.46875-69.094-31.266-134.9-82.219-181.55-7.0312-6.5156-15.797-14.578-29.625-12.422l-1.6406 0.28125c-6.4219-55.406-83.531-117.98-137.95-102.28-26.109 7.2188-41.344 27.844-53.578 44.391-27 36.844-44.953 80.344-53.203 121.97-74.953-0.84375-158.11 6.9375-233.06 23.438-17.766-4.0312-35.016-7.6875-58.219-10.219-33.938-3.9844-73.312-7.5-94.969 19.359-16.781 8.3438-28.688 26.812-25.594 57.328-57.328 34.594-91.125 76.969-91.125 122.63-6 53.812-6 109.78-0.5625 167.76 0.79688 8.2031 3.8906 11.578 4.9219 13.453l-0.79688 0.046875c-2.7188 45.234-3.7969 90.703-3.4688 136.13 0.46875 104.95-18.562 177.61 161.81 267.28 181.64 90 518.9 99.844 733.97-10.219 124.31-66.609 115.59-107.25 116.11-232.31 0.1875-49.875-0.98437-94.219-3.5625-135.47 3.9844-4.7344 11.438-10.688 12.844-23.859zm-405.56-38.391c49.781 68.812 61.172 165.56 23.016 250.4-10.172 22.547-20.719 48.281-38.156 64.172-11.766-30.516-26.438-59.719-43.594-86.812-3.375-5.4375-10.734-6.6562-15.844-2.7188-19.031 14.484-37.641 23.109-55.078 30 45.984-54.562 64.359-132.42 42.094-202.82-15.891-49.734-43.312-80.203-54.797-144.24 19.547-28.734 31.406-62.719 32.953-80.016 0 0 11.297 2.4375 12.891 2.7188 7.875 84.469 59.531 118.08 96.516 169.31zm288.84 32.672c5.4375 24.188 12.422 51.141 7.875 74.25-27-17.016-56.25-31.641-87.188-43.594-5.9062-1.9688-12.375 1.4531-14.016 7.3125-6.2344 21.797-15.047 39-26.25 57.328 4.2188-73.078-29.812-146.29-87.703-187.78-40.922-29.391-71.531-33.562-124.36-76.828-11.344-9.1875-26.25-20.438-35.484-32.906 11.156-2.7188 18.75-9.2812 23.062-18.469 46.594 19.5 96.844 29.391 153.42 27.891 3.7969 0.9375 8.8125 1.8281 22.406 5.8594 84.422 26.719 149.58 100.36 168.24 186.94zm-338.76-504.42c11.156-15.047 24.984-33.844 47.156-39.984 46.969-13.453 117.56 43.641 122.9 92.812-21.469 3.75-38.766 8.8125-62.156 21.516-6.9844 3.7969-1.2656 14.344 5.7188 10.547 28.312-15.375 45.844-18.234 71.859-22.594 7.2188-1.1719 11.766 2.1562 19.547 9.375 48.984 44.766 77.953 107.58 78.375 172.97 0.046875 0.98438 0 0.60938 0.79688 11.906-22.078-19.828-63.188-27.891-93.469-24.469-56.391 6.5625-77.859 40.172-192.79 21.844-3.9844-21.609-17.859-41.531-33.938-54.188 28.922-30.938 61.5-55.875 95.812-80.25 6.4219-4.7344-0.79688-14.391-7.0781-9.6562-35.25 25.031-68.859 50.812-98.578 82.828-3.0938-1.875-6.5156-3.6562-10.172-5.25-4.0312-61.031 15.188-131.72 56.016-187.4zm-14.438 274.4c-10.781 40.688-80.109 3.2812-89.344-43.266-5.9531-29.344 12.375-43.688 39.703-34.125 35.906 14.109 56.953 55.031 49.641 77.391zm-50.812-145.08c-2.8125 18.562-3.8438 36.656-3.0469 54.141-17.719-3.7969-34.453-0.046875-43.453 16.688-3.4219 3.2812-6.0469 7.2188-7.6406 11.953-39.375-26.203-86.016-47.812-136.18-63.234 60.094-11.812 125.02-18.656 190.31-19.547zm-381.89 38.812c12.141-35.672 54.562-32.484 91.641-28.125 77.953 8.5781 164.95 38.297 234.42 85.453 0 1.125-0.09375 2.2031 0 3.375-38.484-1.3125-78.281-0.46875-147.05 8.3438-7.7344 0.98438-6.5156 12.844 1.5469 11.906 69.375-8.9062 109.12-9.6562 147.74-8.1562 4.3594 15.094 12.234 26.531 23.203 37.359-12.234 14.906-21.047 32.812-33.562 47.625-48.797 57.703-87.281 53.25-123.79 80.062-17.906 13.219-29.062 31.734-32.719 49.688-55.266-35.016-103.36-85.547-122.16-149.63-2.3906-8.9531-2.5781-11.766-0.32812-13.641 14.766-7.4531 26.25-24.984 97.5-37.078 8.0156-1.3594 5.5781-13.406-2.0156-11.812-35.578 6.0469-62.297 13.453-89.859 30.984-7.2656-4.6406-13.453-9.4688-18.328-14.766-27.047-29.391-33.844-70.078-26.25-91.594zm-91.828 334.64c-3.5625-38.109-4.5938-75.375-3.2812-111.05 31.828 42.984 108.89 89.719 157.6 106.27 131.39 51.75 283.31 55.125 281.72 54.938 7.7344 0 8.0156-11.625 0.28125-12-92.531-4.3594-192.14-20.484-278.44-54.422-1.6406-0.98438-157.31-55.781-157.31-150.98 0-43.828 33.375-79.828 69.141-105.14 7.2188 21.562 21.047 42.141 42.047 56.625 5.7656 4.2188 14.297-2.7656-1.6875 7.2188-8.3906 5.4375-6.5156 12.844-4.1719 21.516 19.172 66.797 72.422 121.69 131.95 157.82 14.156 8.625 30.469 26.859 70.547 10.828 49.266-19.641 95.344-49.5 128.76-91.5 14.203 63.75 37.266 86.531 52.688 134.68 15.984 50.531 10.078 106.97-15.938 155.63-148.55-1.875-400.22-41.109-471.61-172.36-1.2188-2.1562-2.0156-4.9219-2.2969-8.0625zm43.875 335.95c-15.703-15.703-25.453-32.391-29.109-49.641-7.8281-38.25-5.7188-80.062-5.8594-119.67-0.65625-100.92 4.1719-100.36 3.1406-117.47 10.359 9.9844 21.938 19.406 34.734 28.266 28.875 23.156 61.828 40.547 95.391 54.75-11.625 241.4-13.031 224.21-9.8906 242.95 2.7656 17.062 20.531 26.344 31.406 34.031-37.828-16.359-90.938-43.922-119.81-73.219zm676.18 102c0.65625-1.0312 4.6875-2.1094 9.8438-3 0.1875 11.766-201.47 52.547-405.42 18.656 0.51563-1.9219 0.32813-3.9844-1.0781-5.4844-18.469-20.391-17.531-45.891-16.5-72.891 0.89062-23.766 0.23437-10.781 0.46875-127.6 0-7.9219-12-7.9219-12 0-0.23438 121.87 0.42187 104.11-0.42188 127.18-0.84375 23.156-1.7344 46.922 9.9844 67.969-49.5-12.516-143.11-29.766-149.95-63.422-3.0469-14.578-2.2031 3.2812 1.2656-241.6 85.734 33.281 195.42 52.5 310.82 54.609-6.0469 9.7969-12.656 19.219-20.203 27.75-7.5938 8.4375 1.5 21.188 11.859 17.062 19.406-7.4062 40.359-16.547 62.016-32.859 16.828 26.672 31.125 55.406 42.516 85.359 2.6719 7.1719 11.719 9.1406 16.781 4.4531 20.344-17.391 31.641-44.812 42.844-69.703 6.1406-13.688 11.016-27.797 14.812-42 36.562-4.8281 72.328-11.719 106.55-20.625-6.6094 210.94-4.5469 242.53-24.188 276.14zm184.36-74.531c7.875-18.984 6.2812-45.797 5.3906-72.797-0.1875-7.9219-12.188-7.6875-12 0.28125 2.4375 42.422 3.5625 71.25-22.453 90.094-8.5312 4.6875-16.828 9-24.469 12.844-65.766 26.438-92.859 28.781-104.34 31.219 11.906-32.484 10.078-43.406 9.7031-266.72 93.656-25.922 166.92-65.062 214.08-114.19 2.0625 37.547 3.0938 77.625 2.9062 122.44-0.42188 102.75 8.9531 144.71-68.812 196.82z"/>
 <path d="m930.19 89.766-24.703 46.219c-3.75 7.0312 6.8438 12.609 10.594 5.6719l24.703-46.219c3.75-7.0312-6.8906-12.656-10.594-5.6719z"/>
 <path d="m988.78 118.17c-18.562 14.203-38.203 27.328-58.406 39-6.8438 3.9844-0.84375 14.344 6 10.406 20.625-11.953 40.734-25.359 59.672-39.891 6.3281-4.7812-0.98438-14.344-7.2656-9.5156z"/>
 <path d="m945.37 198.28c1.5938 0 66.234-2.625 64.594-2.6719 8.2969-0.375 6.8906-12.75-0.51562-12l-64.312 2.6719c-7.7812 0.32812-7.5 12 0.23438 12z"/>
</svg>
