<?xml version="1.0" encoding="UTF-8"?>
<svg width="1200pt" height="1200pt" version="1.1" viewBox="0 0 1200 1200" xmlns="http://www.w3.org/2000/svg">
 <path d="m755.81 947.9c-2.6719-0.98438-7.125-2.8125-9.9375-4.125s-5.5781-2.3906-6.1875-2.3906c-0.5625 0-2.5312-1.1719-4.3125-2.5781s-6.375-3.5625-10.125-4.7344c-3.7969-1.1719-10.125-3.75-14.109-5.7656-3.9844-1.9688-8.625-3.9844-10.266-4.4531-4.875-1.4531-61.781-29.719-67.266-33.422-3-2.0625-5.2031-4.5938-5.5781-6.4688-0.32812-1.6875-0.14062-3.0469 0.46875-3.0469 0.5625 0 1.0312-1.0312 1.0312-2.25 0-1.6406-3.4219-3.9375-12.984-8.6719-7.125-3.5156-18.094-8.9062-24.281-11.953s-11.812-6.2344-12.516-7.0312c-0.65625-0.79688-0.84375-3.0938-0.42188-5.1562 0.60938-2.8594 1.4531-3.6562 3.75-3.6562 2.1094 0 2.9062 0.65625 2.9062 2.3906 0 1.7812 1.2656 2.7188 5.1562 3.6562 7.4531 1.875 19.219 6.1875 22.312 8.2031 1.4531 0.9375 3.375 1.5 4.1719 1.2188 0.89062-0.28125 2.3438-5.8594 3.5156-13.734 4.3125-28.031 18.844-75.891 30.938-101.81 2.8594-6.1875 5.25-11.531 5.25-11.906 0-1.7812 19.969-33.703 24.938-39.938 2.25-2.7656 4.0312-5.4844 4.0312-6.0469s-2.5781-1.875-5.7188-2.9062c-3.1406-1.0781-6.7031-2.3438-7.9688-2.9062-1.9688-0.84375-2.1562-0.46875-1.8281 3.75 0.375 4.0781 0.046875 4.7344-2.25 5.0625-1.4531 0.1875-3.7031-0.1875-4.9688-0.84375-1.9219-1.0312-2.5781-0.65625-3.9844 2.0625-0.9375 1.7812-2.0156 3.5625-2.3906 3.8906s-3.0469 4.9688-5.9062 10.266-9.1406 16.453-13.969 24.797c-11.672 20.109-14.812 25.875-22.922 42.328-3.7969 7.6406-7.3594 14.812-7.9219 15.938-2.25 4.4531-5.7188 16.734-7.8281 27.891-2.1562 11.344-2.1562 11.859-0.046875 13.359 2.0156 1.5 1.875 1.875-2.2031 5.4375-5.5312 4.8281-10.453 5.1094-14.812 0.75-2.9062-2.9062-3.0938-3.6562-2.3906-11.203 1.2188-13.641 2.8594-22.266 5.4844-29.203 1.4062-3.6562 2.5312-6.7031 2.5312-6.75s-2.25-0.79688-4.9688-1.5938-8.0625-3.1406-11.766-5.2031c-8.2969-4.5-14.344-5.3906-47.766-6.8906-33.844-1.5469-45.75-2.7188-61.922-6.2344-2.7188-0.5625-10.031-1.6406-16.312-2.3438-18.375-2.0625-59.25-13.078-71.859-19.359-1.3125-0.65625-5.9531-2.4844-10.266-4.0781s-11.062-4.0781-15-5.5781c-6.7031-2.5781-7.1719-2.625-8.2969-0.60938-1.1719 2.0625-4.7812 6.2344-15.094 17.391-6.4688 7.0312-14.391 19.031-24.047 36.422-3.3281 6-9.0938 12.891-23.344 27.938-6.2812 6.6562-12.562 13.875-13.922 16.078s-3.5156 5.5781-4.7812 7.4531c-1.2656 1.9219-4.8281 7.1719-7.875 11.766-3.0469 4.5469-9.3281 11.906-14.016 16.312-4.6406 4.4062-9.2812 9.1875-10.266 10.594s-4.2188 5.7188-7.1719 9.6094c-2.9531 3.8438-6.1875 8.625-7.2656 10.547-3.0938 5.625-4.2188 7.4062-6.4219 9.9375-1.125 1.3125-3.7031 4.7344-5.7188 7.5-4.125 5.8125-12.094 10.031-18.797 10.031-9.1875 0-11.672-4.875-5.8594-11.484 1.7344-2.0156 6.8906-9.2344 11.438-16.031 4.5469-6.8438 9.0938-13.266 10.125-14.297s1.875-2.2969 1.875-2.8125 5.4844-6.6094 12.141-13.5c10.875-11.25 22.922-25.453 22.922-27.094 0-1.9688 11.297-16.547 22.594-29.156 20.344-22.688 20.578-23.062 26.672-33.891 3.1406-5.625 6.8438-12.188 8.1562-14.578 1.3125-2.3438 7.8281-9.7969 14.484-16.5 15.047-15.234 30.703-32.812 35.625-39.938 5.5312-8.0156 11.953-11.25 28.031-14.016 19.5-3.375 21.141-3.8438 31.5-9.375 5.1562-2.7188 12.469-5.8594 16.312-6.9844s8.9062-2.7656 11.203-3.6562c2.3438-0.89062 8.5312-2.7188 13.781-4.0781s9.7969-2.6719 10.078-2.9531c1.9219-1.9219-9.6562-10.969-24.469-18.984-3.9844-2.1562-9.7031-6.1406-12.703-8.8594s-9.5156-7.6406-14.484-10.969c-11.156-7.4062-13.312-9.7031-13.312-14.016 0-4.6875 7.125-11.297 14.953-13.922 7.6875-2.5781 24.562-2.625 33.703-0.046875 3.5156 0.98438 10.172 2.4375 14.859 3.1875 9.6094 1.5938 19.359 4.5469 23.016 6.8906 1.3594 0.89062 5.4375 2.625 9.0469 3.9375 3.6094 1.2656 9.375 3.7031 12.797 5.3906 9.2812 4.5938 12.141 5.0625 13.031 2.25 0.42188-1.3125 4.125-5.8594 8.2969-10.172 6.1875-6.4219 9.0469-8.3906 15.984-10.969 9.6094-3.5625 28.781-8.8125 36.844-10.031 8.625-1.3125 13.734-3.5625 24.75-10.828 10.312-6.7969 11.438-8.3438 9.0469-12.75-1.7812-3.375-3.7031-3-17.344 3.2812-10.219 4.7344-13.688 5.7188-21.375 6.1875-13.5 0.79688-18.656-2.4844-20.391-13.031l-0.70312-4.2188-8.1562-0.375c-7.3594-0.32812-8.8594 0.046875-15.703 3.7969-4.1719 2.2969-9.4688 4.7344-11.766 5.4844-2.3438 0.75-5.5781 2.5781-7.2656 4.0781-9.5625 8.6719-25.969 17.812-32.016 17.812-5.1094 0-3.5156-2.9531 6-10.781 10.031-8.2969 12.094-11.156 11.625-16.125-0.70312-7.2188 14.625-23.859 25.406-27.516 3.5625-1.2188 5.2969-2.25 3.8906-2.2969-3.2344-0.09375-3.9844-2.0156-2.625-6.7031 2.7656-9.7969-1.0781-26.578-6.9375-30.422-2.3906-1.5938-4.875-1.7812-13.5-1.0781-5.8125 0.46875-13.594 0.98438-17.297 1.2188-3.9844 0.23438-8.2031 1.2656-10.266 2.625-4.5469 2.9062-17.391 16.359-17.391 18.234 0 2.2031-17.016 14.906-19.922 14.906-1.4062 0-3.5156-0.70312-4.5938-1.5-1.8281-1.3594-1.6406-2.0156 2.25-6.9375 6.75-8.5781 27.375-29.062 31.359-31.172 2.0156-1.0312 6.75-2.2031 10.594-2.5781s6.8438-1.2656 6.6562-1.9219c-0.1875-0.75-6.8438-1.125-17.25-1.0312-13.5 0.14062-18.656 0.70312-25.406 2.7656-4.6406 1.4062-11.203 3.2812-14.484 4.125-3.3281 0.84375-6.9375 2.0625-8.0625 2.6719-4.9688 2.7656-28.641 23.203-30.375 26.203-3.7969 6.5156-10.969 2.3906-7.5-4.3125 1.875-3.5625 12.562-14.344 21.047-21.141 3.0938-2.4844 5.8594-4.7812 6.1875-5.1562 0.65625-0.70312 16.5-6.7031 28.406-10.734 8.7656-2.9531 33.375-5.1094 46.547-4.125 15.234 1.1719 19.453-1.2188 12-6.75-3.0938-2.2969-4.0312-2.4844-5.5781-1.1719-2.3906 2.0156-18.188 2.1094-41.484 0.28125-13.922-1.0781-19.125-1.0781-25.406 0.1875-22.641 4.5-21.609 4.1719-26.719 9-1.0781 1.0312-8.8594 8.1094-17.297 15.75-16.5 14.953-22.266 21.703-28.641 33.562-2.25 4.1719-4.9688 9.2344-6.0938 11.297s-3.1406 4.9688-4.5469 6.4219c-1.3594 1.4531-2.4844 3.0938-2.4844 3.5625s-5.8594 8.0625-12.984 16.828c-12.797 15.656-26.156 29.672-37.219 39.047-3.0938 2.625-10.312 9.2812-16.078 14.859-7.4062 7.1719-14.203 12.281-23.156 17.438-6.9844 4.0312-15.703 9.5625-19.359 12.328s-9.375 6.5625-12.703 8.4375-12.047 8.3906-19.359 14.484c-14.391 11.953-21.75 17.625-22.969 17.625-1.9688 0-15.75 10.453-23.156 17.578-10.406 10.031-19.875 17.438-27.609 21.656-3.3281 1.7812-9.3281 5.9531-13.312 9.2344s-13.969 10.969-22.172 17.156c-8.2031 6.1406-19.875 15.141-25.922 19.969s-13.922 10.547-17.531 12.703c-3.5625 2.1562-10.969 7.0781-16.359 10.875-5.4375 3.7969-10.453 6.9375-11.156 6.9375-2.7656 0-5.6719-3.2344-4.9219-5.5312 0.42188-1.2656 8.5312-7.4062 18-13.594s19.125-12.938 21.469-14.953c2.2969-2.0625 10.453-8.3438 18.094-14.016s17.438-13.547 21.75-17.484 12.469-10.219 18.141-13.922c12.094-7.9219 14.953-10.172 25.406-20.062 10.031-9.5156 16.219-14.391 29.016-22.781 5.6719-3.7031 12.188-8.5781 14.484-10.828 2.3438-2.25 6.9375-6.2344 10.266-8.8594s6.3281-5.0625 6.6562-5.4375 3.6094-2.5312 7.2656-4.8281 12.047-8.1094 18.656-12.938 12.469-8.8125 13.031-8.8125c2.5312 0 11.156-7.125 25.172-20.766 8.2969-8.1094 17.953-17.062 21.469-19.922 6.4688-5.2969 12.328-11.484 14.297-15.141 0.60938-1.125 7.0781-8.2031 14.391-15.703 15.797-16.266 17.438-18.328 28.5-35.016 6.8438-10.359 12.797-17.062 30.141-34.125 11.906-11.672 23.391-21.984 25.594-22.875s8.3438-2.625 13.688-3.7969c5.2969-1.1719 11.531-2.7188 13.781-3.375 5.9062-1.7812 34.5-1.2188 47.625 0.89062 6.1406 0.98438 12.891 1.8281 15.047 1.8281h3.9375l-6.3281-8.6719c-3.5156-4.7812-7.7812-9.9844-9.5156-11.625l-3.1875-2.9531 2.7656-5.0156c2.625-4.7344 9-26.766 9-31.125 0-2.8594 1.9688-3.375 18.562-4.7812 8.0625-0.70312 18.844-2.0625 23.953-3.0469s12.844-1.8281 17.203-1.8281c7.3594-0.046875 8.25 0.23438 12.984 4.2656 5.8125 4.9688 6.5156 5.1562 8.1562 2.1562 2.1094-3.9375 16.641-17.578 28.734-26.953 15-11.672 14.625-11.531 58.125-17.906 11.578-1.6875 31.031-1.6406 43.641 0.14062 7.875 1.0781 10.641 1.0781 12.469-0.046875 1.6406-1.0312 5.4375-1.2656 12.234-0.75 18.609 1.3594 32.859 1.5469 38.625 0.46875 4.125-0.75 8.0625-0.51562 13.828 0.84375 13.734 3.1875 28.5 3.3281 39.609 0.375 5.2969-1.4062 11.25-3.375 13.172-4.4062s7.2188-2.0156 11.719-2.1562c9.4688-0.375 12.516-1.1719 16.922-4.4531 2.0156-1.5 6.0469-2.5781 10.922-3.0469 4.9219-0.42188 11.156-2.1562 17.156-4.7812 5.1562-2.25 14.156-5.2031 19.969-6.5156s12.141-2.9531 14.156-3.6562c32.672-11.578 51.656-17.109 68.109-19.828 5.5312-0.9375 18.891-4.4531 29.625-7.8281 34.641-10.922 56.859-17.812 62.438-19.359 3-0.79688 7.5938-2.2031 10.266-3.1406 11.812-4.0312 43.547-12.656 54.469-14.812 15.047-3 16.406-3.2812 25.312-5.5312 24.469-6.1875 30-6.9844 37.969-5.6719 13.031 2.1562 14.625 7.0312 3.4688 10.547-3.5156 1.125-8.5781 2.4844-11.25 3-2.6719 0.5625-7.0312 1.5469-9.6562 2.25-2.6719 0.70312-12.984 2.6719-22.969 4.3594-17.203 2.9531-33.844 6.7031-40.5 9.1875-3.8906 1.4062-36.984 10.359-46.688 12.562-4.0781 0.9375-9.5156 2.5312-12.094 3.5625s-10.406 3.4219-17.391 5.3438-18.422 5.25-25.406 7.3594-20.016 5.3906-29.016 7.2656c-22.734 4.6875-20.953 4.2188-47.766 12.703-13.312 4.2188-27.328 8.2969-31.125 9.0469-7.3125 1.5-8.0625 2.9531-2.25 4.2188 3.5156 0.79688 7.3125 4.1719 9.5156 8.4844 1.7344 3.375 4.9688 17.062 5.625 23.578 0.28125 3 1.125 9.5156 1.875 14.484s1.6406 12.328 1.9688 16.312 1.0781 10.781 1.6406 15.094 1.125 12.75 1.2188 18.75c0.1875 12.703 0.75 18.984 2.2969 25.875 0.60938 2.7188 0.75 6.75 0.28125 8.9062s-0.46875 9.0938 0 15.422 1.2656 16.641 1.7344 22.969 0.89062 17.062 0.89062 23.859 0.42188 12.375 0.89062 12.375 2.4375-0.51562 4.3594-1.1719 12.094-2.25 22.547-3.5625 20.109-2.9531 21.375-3.6562 3.8906-1.2656 5.8125-1.2656 5.9062-0.75 8.8594-1.6406c17.344-5.3906 43.312-8.25 51.188-5.625 4.1719 1.3594 6.1875 4.0312 4.8281 6.3281-1.6406 2.625-10.969 5.7656-17.391 5.8125-6.5156 0.046875-10.172 0.75-32.016 6-6 1.4531-16.031 3.1406-22.359 3.75-6.3281 0.65625-18.844 2.0156-27.844 3.0469-19.031 2.2031-24.984 1.5938-26.062-2.6719-0.42188-1.5938-1.2188-2.9062-1.8281-2.9062s-1.5938-1.2188-2.1562-2.7188c-1.2656-3.3281-4.9688-46.406-5.4375-63.141-0.1875-6.6562-0.98438-14.531-1.7812-17.531-1.4531-5.5781-4.4531-23.906-8.7656-53.812-1.3594-9.3281-2.7656-17.719-3.1406-18.75-0.375-0.98438-0.79688-2.625-0.9375-3.6094-1.5469-11.297-2.25-14.625-3.1406-15.188-0.60938-0.375-1.0781-1.9688-1.0781-3.5625s-0.46875-4.125-1.0312-5.6719-1.7344-4.9688-2.5781-7.5938c-2.4844-7.9219-4.3594-9.3281-11.438-8.4844-11.297 1.3594-30.234 4.4062-33.891 5.4844-2.0156 0.5625-5.9531 1.6406-8.8125 2.3906l-5.2031 1.3594 4.0312 5.6719c7.6406 10.781 12 23.156 15.328 43.406 1.2656 7.8281 2.625 15.609 2.9531 17.297 0.375 1.6406 1.7812 9.5625 3.1875 17.531s3.2344 16.125 4.125 18.141c4.875 11.297 9.4219 32.297 8.5312 39.562-0.28125 2.1562-0.75 11.391-1.125 20.438l-0.65625 16.5 3.8906 0.60938c2.1562 0.32812 10.312 2.8594 18.141 5.5781s15.047 4.9688 16.031 4.9688 1.7812 0.89062 1.7812 1.9688c0 1.7344-1.0781 1.875-8.1562 1.2188-4.5-0.42188-14.391-2.4375-22.031-4.4062s-15.703-3.6094-17.906-3.6094c-4.8281 0-11.062-5.4844-11.25-9.8906-0.046875-1.5469-0.1875-4.1719-0.23438-5.8125s0.23438-5.4844 0.65625-8.4844c1.6875-11.859 2.0156-16.922 1.0312-16.922-2.1562 0-18.422 10.172-19.5 12.141-1.9219 3.5625-15.984 14.062-24.797 18.469-8.1094 4.0781-18.516 8.1094-33.797 13.125-7.9219 2.5781-14.719 2.5312-41.719-0.23438-14.109-1.4531-30.234-1.6406-42.328-0.51562-14.859 1.3594-26.109 3.4688-28.125 5.2031-1.5 1.3125-6.5625 2.1094-16.875 2.7656-15.281 0.9375-23.906 2.0625-23.906 3.0469 0 0.32812 1.5469 1.875 3.4688 3.5156 6.7969 5.7188 5.6719 9.2812-5.5781 17.812-20.812 15.797-19.172 15-38.438 19.078-6.6562 1.4062-13.359 3.2344-14.953 4.0781-2.7656 1.4531-2.4375 1.6875 7.2656 6.4219 5.5781 2.7188 13.922 6.6562 18.609 8.7656 4.6406 2.1094 12.281 6.75 16.969 10.312 5.8594 4.4531 11.109 7.2656 16.922 9.0469 13.125 4.0312 47.859 21.703 53.578 27.234 1.5469 1.5 4.4531 3.0938 6.4219 3.5156s5.0625 1.5469 6.8438 2.4844 4.4531 1.6875 5.9531 1.6875 10.078 2.4375 19.125 5.3906c15.234 5.0156 24.094 9.1406 34.219 15.984 10.594 7.1719 18.938 9.4688 47.906 13.312 2.6719 0.32812 12.141 3.0469 21.047 5.9531s17.672 5.2969 19.453 5.2969c3.5625 0 11.859 2.3906 36.281 10.453 8.9531 2.9531 21.75 6.9844 28.406 8.8594 14.953 4.3125 29.156 9 38.672 12.844 3.9844 1.5938 12.141 4.3125 18.141 6 25.922 7.3594 36.422 10.078 39.047 10.125 4.5 0.09375 9.8906 3.4688 9.8906 6.1875 0 5.3906-13.5 7.5938-25.641 4.125-5.4844-1.5469-57.375-19.031-64.453-21.656-13.734-5.2031-15.656-5.8125-36.281-11.438-4.6406-1.2656-13.078-4.0312-18.75-6.1406-13.172-4.875-23.016-7.7344-38.062-11.016-6.6562-1.4531-13.453-3.2812-15.094-4.125-4.1719-2.0625-22.828-6.1406-42.328-9.1875-17.109-2.6719-16.219-2.3438-45.938-17.438-16.078-8.1562-15.516-8.2031-19.828 0.42188-1.5469 3.0938-4.2188 8.1094-5.9062 11.062-6.375 11.156-15.047 28.688-18.281 36.891-3.1875 8.0625-4.8281 12.094-8.5312 20.719-0.89062 2.1094-2.0156 5.9062-2.4844 8.4844s-1.5938 5.7188-2.4844 7.0312-1.6406 3.7969-1.6406 5.4844c0 1.7344-0.46875 3.6094-0.98438 4.2656-0.5625 0.60938-2.0156 5.4844-3.2344 10.828-1.2188 5.2969-2.5781 10.219-3 10.875s-1.4531 4.4531-2.2969 8.4844c-0.84375 3.9844-1.9219 8.1094-2.4844 9.0938-0.9375 1.7812-2.5781 8.3438-3.0938 12.047-0.14062 0.98438-0.5625 2.625-0.9375 3.6094s-1.5469 4.7812-2.5781 8.3906-3.0469 7.7812-4.4062 9.2812l-2.5312 2.7188 4.3125 3.7969c2.7188 2.3906 4.5938 5.3438 5.1094 7.875 0.42188 2.25 1.4062 4.5938 2.1562 5.2031s6.5156 2.8594 12.797 4.9219c6.2812 2.1094 13.078 4.5469 15.094 5.4844 14.156 6.3281 26.156 11.531 26.625 11.531 0.32812 0 5.2031 2.1562 10.922 4.8281 5.6719 2.6719 10.688 4.8281 11.109 4.8281 1.5938 0 29.109 11.156 35.906 14.578 3.9375 1.9688 7.875 3.5625 8.8125 3.5625s4.9688 2.2969 8.9531 5.1094c5.3438 3.75 7.1719 5.7656 6.8906 7.5469-0.70312 4.9219-15 6.9844-24.516 3.5625zm-158.68-180.61c5.5781-10.219 14.297-25.969 15.422-27.797 1.2656-2.0625 16.781-29.109 21.469-37.453 7.125-12.656 18.891-27.797 21.562-27.797 2.5781 0 3.2344-2.3906 0.84375-3.1406-7.4062-2.3906-14.953-6.1875-22.828-11.531-9.75-6.5156-23.766-13.359-32.109-15.609-5.5781-1.5-9.1406-3.8906-17.203-11.484-2.8594-2.6719-11.578-8.0625-19.406-12-7.8281-3.9375-16.5-8.6719-19.266-10.547-2.7656-1.875-5.3906-3.375-5.9062-3.4219-1.2656-0.046874-12.844 8.3906-13.922 10.125-0.51562 0.79688-2.9531 3-5.4375 4.875-2.4844 1.875-4.5469 4.125-4.5469 5.0156 0 0.89062 3.5625 4.2188 7.9219 7.4062 13.781 10.031 13.359 9.6562 11.906 12-3.7969 6.1875-20.531 3.75-29.812-4.3594-8.0625-7.0312-19.219-14.25-33.328-21.516-20.438-10.547-21-10.781-29.297-12.328-4.3125-0.79687-10.547-2.25-13.828-3.1875-9-2.625-19.031-2.25-22.875 0.79688-5.4844 4.3125-4.3125 7.5469 5.1562 13.641 4.5938 2.9531 11.344 8.1094 15 11.438 3.6562 3.3281 11.766 9.4219 17.953 13.547 13.922 9.2344 15.328 10.547 23.484 21.328 3.8438 5.1094 10.641 11.906 16.594 16.5 5.5312 4.3125 11.812 9.8438 13.922 12.234 6.5625 7.5 4.3594 11.531-4.9219 9.0469-3.7031-0.98437-7.2188-3.75-14.578-11.438l-9.7031-10.125-3.6094 1.875c-3.0469 1.5938-4.3594 1.6406-8.2031 0.375-6.5625-2.1562-15.844-0.28125-39.797 8.0625-15.844 5.5312-24.047 7.0781-51.562 9.7031-7.125 0.70312-7.5 0.89062-9.2812 5.1094-1.0312 2.3906-3.3281 6.7031-5.0625 9.5156l-3.1875 5.1562h2.8594c2.7656 0 25.078 10.594 36.094 17.156 7.125 4.2188 19.172 8.0156 39.281 12.281 12.328 2.625 14.906 3.0469 23.156 3.7031 4.0781 0.32813 14.156 1.6875 22.359 3.0469 9.5625 1.5469 26.062 2.8594 45.75 3.6562 16.969 0.65625 33.562 1.7812 36.891 2.5312 20.531 4.5469 28.359 6.6094 32.625 8.5312 5.4375 2.4375 5.3438 2.4844 9.375-4.9688zm-21.469-204.89c18.891-8.9062 35.625-14.531 46.547-15.656 7.7812-0.79688 13.641-1.9688 36.891-7.4062 6.6562-1.5469 17.25-3.1406 23.578-3.5156 6.3281-0.375 14.484-1.2656 18.141-1.9688 4.8281-0.89062 8.8125-0.84375 14.484 0.23438 4.3125 0.79688 10.828 1.6875 14.484 1.9688s7.7344 0.9375 9.0469 1.5c6.0469 2.5312 12.609 3.7031 15.328 2.625 5.6719-2.1562 27.75-12.562 32.203-15.141 3.75-2.2031 13.5-11.531 13.5-12.938 0-1.5 7.5-8.25 9.1875-8.2969 0.75 0 2.25-1.0781 3.375-2.2969 1.125-1.2656 5.3438-3.75 9.3281-5.5312 7.0781-3.1875 11.859-3.5625 22.219-1.6875 2.8125 0.51562 2.9062-1.0781 1.4062-21.328-0.98437-13.125-1.2656-14.812-3.7969-24.797-0.9375-3.6562-4.2188-16.406-7.2656-28.312-5.9531-23.25-10.922-36.75-16.125-43.547-1.7812-2.3438-4.125-5.4844-5.2031-6.9844-1.875-2.625-2.2031-2.6719-7.2656-1.0781-8.5312 2.6719-36.562 3.1406-45.891 0.70312-4.3594-1.125-18.562-2.6719-32.391-3.5625-21.703-1.3594-25.172-1.3125-29.344 0.32812-4.2188 1.6406-6.8906 1.6406-25.547 0.046875-21.375-1.8281-26.203-1.6875-55.734 1.7812-15.984 1.875-15.797 1.7812-26.156 9.5625-1.6406 1.2656-6.0469 4.2656-9.7969 6.75-13.219 8.7188-26.484 21.938-26.484 26.391 0 0.89062 3.2812 4.875 7.3125 8.7656l7.3125 7.125-2.4375 4.0781c-6 10.031-10.781 21.609-8.9531 21.609 3.0469 0 35.438-27.422 35.438-30 0-1.4062 7.4531-3.8438 14.203-4.6406 6.3281-0.75 30.375 1.1719 41.391 3.3281 3.6562 0.70312 11.531 2.5781 17.531 4.1719s13.312 3.2344 16.312 3.6562c6.9844 0.98438 11.531 3.7031 9.7969 5.8125-0.70312 0.84375-4.3594 3.0938-8.1562 5.0156-4.3125 2.2031-11.625 8.0156-19.453 15.609-21.703 21-22.922 22.031-30.094 26.156-3.8906 2.2031-9.5156 6.6094-12.609 9.7969-3.0469 3.1875-6.1875 5.8125-6.9375 5.8125s-1.4062 1.0312-1.4062 2.3438c0 5.0625-15 15.797-22.078 15.797-3.1875 0-16.688 8.3906-23.062 14.344-6.7031 6.2344-8.3906 10.453-9 22.453-0.65625 12.844 0.60937 17.016 4.9219 15.75 1.4531-0.42188 6.4688-2.5781 11.109-4.7812zm-31.547-17.109c1.1719-3.0469 0.23437-3.2344-8.0156-1.8281-4.1719 0.75-9.7031 1.5469-12.234 1.8281-9.0938 1.0312-5.8594 1.9688 6.7031 1.9688 10.734 0 12.891-0.32812 13.547-1.9688zm-9.5625-9.5156c5.0156-2.1094 8.9062-6.0938 9.75-9.9844 0.375-1.8281 1.3594-4.9219 2.2031-6.9375 1.1719-2.8594 1.2188-5.3438 0.09375-11.484-1.3125-7.2656-3.75-14.297-5.4844-15.703-0.42188-0.32812-1.2188-1.5-1.8281-2.5781-0.60937-1.0781-3.75-3.9844-7.0312-6.4688l-5.9062-4.5-13.828 0.046875c-14.016 0.046875-24.047 2.1094-26.859 5.5312-1.0781 1.2656 0.75 1.5938 9.6562 1.6875 11.297 0.09375 19.078 2.0625 25.453 6.4688 6.4219 4.4062 12.844 23.578 10.641 31.641-1.3125 4.8281-5.0156 8.0625-9.2344 8.0625-3.2344 0-3.6562 2.1562-0.65625 3.2812 1.1719 0.42188 2.5781 1.5 3.0938 2.4375 1.0312 1.7344 3 1.4062 9.8906-1.4531zm43.172-27.234c3.5156-1.3594 8.2969-4.0312 10.641-6l4.2188-3.5625-5.0156-0.046875c-2.9062 0-7.5-1.3125-10.875-3-3.2344-1.6406-7.9688-3.3281-10.594-3.7969-4.3125-0.75-4.6406-0.60938-3.7969 1.4531 0.51562 1.2656 2.1094 5.6719 3.5156 9.8438 1.4062 4.125 3.2344 7.5469 4.0312 7.5469 0.79688 0 4.3594-1.0781 7.875-2.4375zm24.234-16.922c0.70312 0 3.7969-2.625 6.8438-5.8594 3.0469-3.2344 8.5312-7.4531 12.188-9.375 4.125-2.1562 11.953-8.7656 20.531-17.297 13.828-13.734 24.797-23.062 27.188-23.109 0.70312 0 0.28125-0.60938-0.89063-1.2656-2.625-1.5-40.875-5.9531-51.469-5.9531-7.3125 0-8.0156 0.28125-13.312 4.9688-3.0938 2.7188-9.4219 7.1719-14.109 9.8438-9.9375 5.7188-30 18.984-34.734 22.922-1.8281 1.5-4.125 4.7812-5.1094 7.2188-1.7812 4.3594-1.7344 4.5 1.3594 6.9375 3.7031 2.9062 2.5781 2.625 12.516 3.0469 18.047 0.75 30.234 5.2031 30.234 11.016v3.1406l3.7031-3.1406c2.0625-1.7344 4.3125-3.1406 5.0156-3.1406zm-65.953-21.984c1.7812-1.6875 4.3594-7.5938 7.0781-16.312 2.3438-7.5469 5.3438-16.219 6.7031-19.312 1.3125-3.0938 2.2031-5.8125 2.0156-6.0469-0.23438-0.23438-3.5625 0-7.4062 0.46875l-6.9844 0.89062 5.1562 6.5625-4.125 1.7344c-3.7031 1.5469-4.4062 2.625-6.7031 10.641-1.4062 4.875-3.4219 11.766-4.4531 15.234-1.0312 3.5156-1.5469 6.8906-1.125 7.5469 1.3125 2.1094 6.9844 1.2656 9.8906-1.4062zm-18.891-2.2031c0.46875-1.6406 2.0156-7.9219 3.4219-13.922s3.3281-13.547 4.3125-16.781l1.8281-5.9062-7.5469 0.79688c-4.1719 0.46875-10.875 1.6406-14.906 2.625-5.1562 1.2656-9.1406 1.5-13.219 0.84375-6.8438-1.125-8.4844-3.6562-3.1406-4.7344 4.7344-0.9375 5.7188-2.25 6.5625-8.9062 0.375-3 1.2656-7.875 1.875-10.875 0.65625-3 0.75-5.8594 0.23437-6.375-0.51562-0.51562-4.4062-0.51562-8.6719 0l-7.7344 0.9375-1.4531 9.6562c-0.79688 5.2969-2.2969 12.516-3.375 15.984-1.7344 5.5781-1.7344 6.5156-0.14063 8.4844 0.98438 1.1719 3.4219 4.5938 5.3906 7.5938s7.2656 9.5625 11.812 14.578l8.25 9.1406 7.7344-0.09375c7.2188-0.09375 7.8281-0.28125 8.6719-3.0938zm-1.6406-41.25c3.375-1.2656 2.6719-2.8594-3.9375-8.7188-5.0156-4.4531-5.25-4.5-6.5156-2.1562-0.70313 1.3594-1.6406 4.875-2.0625 7.8281l-0.75 5.3906 5.2969-0.70312c2.9062-0.375 6.5156-1.125 7.9688-1.6875zm29.016-4.2656c3.2812-0.89062 3.4219-2.1562 0.60937-5.0156-1.1719-1.1719-5.0625-5.5312-8.625-9.6562l-6.5156-7.5469-6.75 0.09375c-3.7031 0.046875-8.6719 0.79688-11.016 1.6406l-4.2188 1.5469 3.8438 1.9688c2.1094 1.0781 6.9844 5.5312 10.781 9.8438 6.8438 7.7344 7.0312 7.875 13.078 7.875 3.375 0 7.3594-0.32812 8.8594-0.75zm227.58 469.22c-1.6406-0.9375-6.1875-1.7344-10.078-1.7812-13.547-0.09375-19.734-5.4375-18.516-16.078 0.5625-5.0625 1.4531-6.9375 4.4062-9.4219 6.8438-5.8125 19.781-6.7031 27.141-1.875 8.8594 5.8125 11.766 28.125 3.9375 30.234-3.4688 0.9375-3.375 0.9375-6.8906-1.0781zm-1.1719-8.7656c-1.9219-6.375-4.6875-11.859-7.0781-14.016-2.2969-2.1094-2.4844-2.0625-4.7812 1.2188-3.8438 5.4844-4.2656 9.3281-1.4062 12.938 2.0625 2.625 3.4688 3.1875 8.3438 3.1875 5.8594 0 5.8594 0 4.875-3.3281zm-92.016-12.141c-7.6875-4.9688-11.062-10.125-11.719-17.906-0.46875-5.8125-0.23437-6.6562 2.9531-9.6094 5.6719-5.25 10.078-6.9375 18.516-7.0312 9.6094-0.09375 17.906 3.4688 22.734 9.7969 2.4844 3.2812 3.3281 5.9062 3.7031 11.906 0.65625 10.594-1.125 13.219-9.7031 14.156-22.594 2.4375-20.484 2.5312-26.484-1.3594zm20.344-6.6094c3.1875-2.9531 3.4219-5.7188 0.9375-10.5-2.2031-4.2656-8.625-9.75-11.391-9.75-3.2812 0-7.4062 4.5938-7.3594 8.2031 0 3.8438 2.4844 9 6.3281 13.078 3.1875 3.375 7.125 3 11.484-1.0312zm263.34-355.03c-21.234-8.5781-16.875-28.5 8.1094-36.797 12.75-4.2188 25.5-0.79688 30.047 8.0625 1.8281 3.5625 2.2969 6.5625 2.0156 13.219-0.375 8.5781-0.65625 9.1875-5.8125 11.156-0.98438 0.375-3.7031 1.875-6.0469 3.2812-6.1406 3.75-20.297 4.3125-28.312 1.0781zm18.562-9.9375c1.3594-1.4531 2.4844-3.6094 2.4844-4.7344 0-1.1719 0.75-2.8594 1.6875-3.7969 1.4531-1.4531 1.4062-2.25 0-5.6719-1.5938-3.75-1.9688-3.9375-6.1406-3.2812-9.0938 1.4531-14.906 13.828-8.5781 18.281 3.75 2.625 7.6875 2.3438 10.547-0.75zm53.062-0.98438c-2.4375-1.2656-5.5312-4.1719-6.9375-6.4219-2.3906-3.8906-2.4375-4.3594-0.60938-9.6562 3.6562-10.734 16.5-13.359 31.266-6.375 3.5156 1.6875 6.75 3.8438 7.125 4.8281 0.9375 2.4375-0.51562 13.969-1.7344 13.969-0.5625 0-3.9844 1.3594-7.5938 3-7.9219 3.6094-15.328 3.8438-21.469 0.5625zm15.047-6.9375c1.7812-1.9688 1.7344-2.4375-0.5625-6.1406-2.625-4.1719-4.2656-3.8906-5.2031 0.9375-0.5625 2.9062 1.1719 7.3125 2.8594 7.3125 0.51562 0 1.8281-0.98438 2.9062-2.1562zm-582.1-109.83c-0.46875-0.46875-0.84375-2.0156-0.84375-3.4688 0-4.875-6.6094-9.9375-16.5-12.609-5.9531-1.5938-7.8281-4.6406-3.4219-5.5312 1.6406-0.32812 4.3594-0.89062 6.0469-1.2656 2.1094-0.42188 4.5938-3 7.875-8.0625 2.625-4.0781 4.7812-7.875 4.7812-8.4844s2.0625-0.9375 4.5469-0.70312l4.5469 0.375 0.65625 6.6562c0.75 7.5 3.6562 13.781 7.2188 15.703 3.0469 1.6406 3.0469 3.375-0.09375 6.7031-1.3594 1.4531-3.4688 4.5-4.6875 6.75-1.5938 3-3.1406 4.1719-5.7188 4.4531-1.9219 0.1875-3.9375-0.046875-4.4062-0.51562zm-0.23438-18.141c-1.0781-1.0781-2.3438-1.5938-2.7656-1.125-0.46875 0.46875 0 1.3125 0.98438 1.9219 2.8594 1.8281 3.9375 1.3125 1.8281-0.79688zm72.656 15.75c-0.42188-1.0312-0.75-4.5-0.75-7.6875 0-5.4844-0.1875-5.8125-3.6562-6.5156-2.0156-0.42188-6.6094-2.9062-10.219-5.5781s-7.0781-4.875-7.6875-4.875c-1.9219 0-7.4531-4.9219-7.4531-6.6094 0-0.98438 2.0625-1.9688 5.1562-2.4844 2.8125-0.46875 5.9062-1.4531 6.8438-2.2031 3.1875-2.5312 8.5781-12.094 8.5781-15.234 0-1.6875 0.46875-3.7969 0.98438-4.6406 1.5-2.3438 8.8594-3.1406 11.484-1.1719 1.9688 1.4531 2.0625 2.25 0.84375 6.7969-2.4375 9.0469-0.09375 11.719 8.3438 9.6094 3.5625-0.89062 5.8594-0.89062 7.9219 0.046875l2.8594 1.3125-4.7344 10.781c-2.625 5.9531-5.625 14.531-6.7031 19.125s-2.1094 9-2.3906 9.8438c-0.65625 2.25-8.5781 1.9219-9.4688-0.42188zm3.4219-29.062c0.75-3.4688 0.5625-3.8438-2.9062-4.5-2.7188-0.5625-4.8281-0.046875-7.7812 1.9219l-4.0781 2.6719 5.625 3.7031c6.2812 4.1719 7.5469 3.6094 9.1406-3.7969z"/>
</svg>
