<?xml version="1.0" encoding="UTF-8"?>
<svg width="1200pt" height="1200pt" version="1.1" viewBox="0 0 1200 1200" xmlns="http://www.w3.org/2000/svg">
 <path d="m1065.1 913.26c85.266-83.344 56.578-178.74-50.156-246-6.7031-4.2656-13.125 5.9062-6.4219 10.172 97.5 61.406 129.42 147.79 48.188 227.26-81.75 79.828-258.52 131.39-450.37 131.39-273.89 0-496.74-101.53-496.74-226.36 0-43.688 29.672-77.297 28.734-75.656 12.938-16.5 30.188-32.344 51.234-47.062 6.4688-4.5469-0.32812-14.391-6.8906-9.8438-34.5 24.234-47.531 42.844-53.812 49.547-14.531 18.609-43.969 66-43.969 103.64 0 128.34 225.05 232.55 502.74 232.55 161.95-0.046875 362.02-36.891 477.47-149.63z"/>
 <path d="m245.34 769.03c-11.953 16.453-18.234 33.656-18.234 51.234 0 54.234 59.391 104.62 158.9 134.86 7.7812 2.25 10.922-9.2344 3.5156-11.484-94.172-28.594-150.42-74.672-150.42-123.37 0-12.094 3.5156-24.047 10.266-35.766 0.51562 1.9219 0.98437 3.8438 1.5 5.7188 3.8438 12.891 13.594 23.578 26.109 28.594 150.42 58.641 329.44 97.5 546.19 118.5-122.95 43.312-261.56 34.5-249.56 34.5-7.8281 0-8.0156 11.766-0.1875 12 90.281 2.4844 193.74-9.375 276.94-44.016 13.078 1.1719 14.719 1.4531 18.047 1.4531 21.375 0 40.031-15.703 43.312-37.172 11.438-77.953 19.078-165.14 14.766-243.47-0.51562-12.047-2.8125-53.531-7.3125-65.625 0.1875-0.42188 0.5625-0.65625 0.65625-1.125 0.60938-3.1875-1.5-6.2812-4.6406-6.9375-10.969-17.438-123.28-121.97-179.02-170.53-6-5.2031-13.875 3.8438-7.875 9.0469 59.344 51.703 115.69 104.67 167.76 157.6l-119.62-24.141c3.2812-1.5938 6.75-2.8594 10.406-3.4688 7.6875-1.3125 6-13.031-2.0156-11.812-18.047 3.1406-26.625 14.016-28.219 15.188-30.938 33.328-8.3906 70.688-17.719 100.31-12.188 38.578-66.703 42.328-83.297 4.4062-13.359-30.844 10.125-67.781 8.3438-105.52-0.79688-27.328-18.562-35.391-44.906-39.188-3.6094-0.60938-7.4062 2.3906-6.6562 6.8438l-180.98-36.516c4.3594-2.8125 9.4219-4.5938 14.859-3.5625 7.9219 1.3594 9.8906-10.359 2.1562-11.812-17.062-3.0938-33.141 8.9062-40.312 24.891-6.6562 15.516-5.9062 28.547-6.8438 45.891-4.1719 99.75-74.766 112.73-90.234 55.828-4.8281-18.047-2.4375-38.906-0.84375-60.422 3.3281-57.234-17.859-105-74.25-95.297 28.172-29.578 69.562-54.281 126.61-75.281 7.4062-2.7188 3.375-13.969-4.1719-11.25-60.281 22.219-103.92 48.562-133.36 80.484-5.4844 5.8125-10.406 16.406-10.828 27.281-4.1719 107.77 6.1406 207.14 31.172 303.14zm654.56 133.31c-2.5312 16.453-17.578 28.266-34.172 26.859-228.05-19.312-415.08-57.516-571.26-116.58-3.375-18.281-5.8594-38.859-7.3594-61.453-0.60938-8.8125 7.3594-15.797 15.891-14.156 637.6 118.08 598.92 115.69 603.98 110.53-1.9688 17.906-4.3125 36.188-7.0781 54.797zm-135.74-333.66 143.16 28.922c1.2188 2.7656 2.2031 5.5781 2.625 8.6719 2.0625 15.891 3.375 32.062 4.2656 49.078l-162-37.312c-1.3125-17.766-0.65625-34.359 11.953-49.359zm-342.56-69.234 227.34 45.891c6.3281 12.281 1.6875 35.156-1.3594 48.562l-234-53.812c0.42188-13.781 0.84375-29.156 8.0156-40.641zm-122.11 104.11c9.4219 34.594 43.453 57.094 77.766 31.547 20.859-15.984 32.719-43.969 35.531-82.875l232.18 53.344c-4.9219 20.906-9.0938 42.375-0.28125 62.719 21 47.906 90.188 43.641 105.75-5.625 3.3281-10.641 3.3281-21.516 2.6719-32.25 45.188 10.312 160.4 36.938 161.72 36.891 1.6406 34.922 1.1719 71.109-1.4531 110.3l-626.86-129.84c-4.9688-1.0312-8.7656-4.9219-9.6562-9.8906-5.1562-29.297-7.5938-58.828-7.4062-90.328 0-11.109-0.9375-18.047 5.1562-22.734 6.8906-5.2969 13.125-0.60938 23.906 1.0781 0.23438 27.516-5.8594 51.984 0.98438 77.672zm-73.219-137.16c0.09375-2.1562 0.75-4.0781 1.2188-6.0938l56.25 11.438c9.0938 11.906 12.75 28.031 14.016 41.859-6.0469-0.60938-18.188-7.6406-30.609 1.875-12.328 9.4688-9.8438 22.078-9.8438 45.938 0 34.078 2.8594 68.812 10.359 104.2 1.5 7.3594 7.5 13.031 14.859 14.203l629.81 111.05c-1.1719 16.031-2.6719 32.438-4.5 49.359-2.7188-4.1719 33.375 5.1562-602.63-114.98-16.5-3.0938-31.172 10.219-30.094 26.719 1.3125 20.203 3.4688 38.812 6.2812 55.734-1.5938-1.125-14.344-5.2031-19.031-20.812-28.781-101.25-40.641-206.11-36.094-320.48z"/>
 <path d="m517.03 232.74c7.875 1.6406 10.312-9.9375 2.6719-11.719-48.984-11.203-75.938 0.75-95.391 20.672-41.438 23.625-49.594 79.5-25.172 118.64 22.125 35.438 77.766 56.719 117.42 70.875-4.125 6.1875-7.1719 13.219-8.5781 20.531-1.5 7.7812 10.312 10.031 11.766 2.25 7.3594-38.578 58.312-52.031 83.625-20.719 3 3.6562 7.8281 2.4844 9.75-0.5625 26.578-42.188 58.172-35.719 70.547 19.969 1.7344 7.7344 13.453 5.1562 11.719-2.625-4.5-20.156-10.969-39.891-28.641-50.719 17.625-52.031 49.969-184.31 16.688-228.19-27.844-36.516-84.844-47.062-123.37-14.484-25.406 21.516-37.875 54.141-34.5 85.734 0.9375 8.25 12.75 6.3281 11.953-1.3125-3-26.578 7.4062-55.828 30.328-75.281 32.859-27.844 82.078-18.938 106.08 12.562 30.609 40.359-2.25 168.52-18.281 216.37-20.719-5.2031-36.281 7.6875-48.422 25.031-19.172-17.812-50.812-22.922-75.469-4.3594-36.891-15.047-94.688-41.156-112.41-76.359-8.1094-16.172-10.125-37.734-5.25-56.25 11.062-41.484 47.484-62.859 102.94-50.062z"/>
 <path d="m791.26 146.29-40.641 25.828c-6.75 4.3125-0.23438 14.344 6.4219 10.125l40.641-25.828c6.7031-4.2656 0.23437-14.391-6.4219-10.125z"/>
 <path d="m825.47 195.42c-21.234 3-42.891 4.6406-64.312 4.875-7.875 0.09375-7.875 12 0.046875 12 16.875 0 42.188-1.6406 65.906-4.9688 7.875-1.1719 6.3281-13.125-1.6406-11.906z"/>
 <path d="m760.13 230.29c-7.1719-3.5625-12.422 7.125-5.4375 10.688 54.797 27.703 52.734 27.516 55.406 27.516 6.3281 0 8.2969-8.5312 2.7188-11.344z"/>
</svg>
