<?xml version="1.0" encoding="UTF-8"?>
<svg width="1200pt" height="1200pt" version="1.1" viewBox="0 0 1200 1200" xmlns="http://www.w3.org/2000/svg">
 <path d="m973.64 1055.8c9.6562 0.09375 14.953 0.1875 14.953 0.1875 2.5312 0 4.5938 2.0625 4.5938 4.5938 0 2.5781-2.0625 4.6406-4.5938 4.6406 0 0-102.47 1.1719-232.97 1.9219-49.078 0.28125-102.19 0.46875-155.26 0.42188-53.109 0-106.17-0.375-155.29-0.65625-130.5-0.79688-232.92-1.7812-232.92-1.7812-2.5312 0-4.5938-2.0156-4.5938-4.5469 0-2.4844 2.0625-4.5469 4.5938-4.5469 0 0 5.2031-0.046875 14.859-0.14062l-0.14062-11.672c-0.09375-9.9375 3.9375-18.984 10.406-25.594s15.516-10.734 25.547-10.828c2.9531 0 6.0938-0.046875 9.375-0.046875-3.7031-4.9219-5.8594-11.062-5.625-17.625 0.32812-7.6406 3.4688-14.484 8.7188-19.266 1.6406-1.5469 3.5156-2.8594 5.4844-3.9375l-0.51562-72.562c-1.125-1.5469-1.1719-3.6562-0.046875-5.25l-0.5625-79.406c-0.046875-4.9219 0.89062-9.7031 2.7188-14.203 1.8281-4.4531 4.5-8.5312 7.9688-12.047s7.5469-6.2344 12-8.1094 9.3281-2.9062 14.25-2.9062c12.234-0.09375 27.703-0.1875 45.609-0.28125-4.4062-5.1094-7.0781-11.812-6.7969-19.125 0.28125-6.9844 3-13.359 7.5-18.047l-1.1719-124.92c-0.09375-10.266 4.0312-19.547 10.688-26.297 6.6562-6.7969 15.984-11.016 26.297-11.109h4.125c-3.5156-4.875-5.5781-10.875-5.3906-17.297 0.32812-7.6406 3.5156-14.484 8.7188-19.266 5.0625-4.6406 11.859-7.5469 19.266-7.1719v-0.09375h0.23438c-3.3281-4.7344-5.2031-10.547-5.0156-16.734 0.32812-7.6406 3.5156-14.484 8.7188-19.266 3-2.7188 6.6094-4.875 10.547-6.0938l-1.3125-105.42c-0.09375-10.266 4.0312-19.594 10.734-26.438s16.078-11.109 26.438-11.203c6.5156 0 13.922-0.046875 21.938-0.09375l-1.875-50.766c-0.09375-3.2344 0.5625-6.4219 1.6875-9.375 1.1719-2.9531 3-5.6719 5.25-8.0156 2.2969-2.3438 5.0156-4.1719 7.9688-5.3906 2.9531-1.2656 6.1875-1.875 9.4688-1.875 3.2344 0.046875 6.4688 0.65625 9.4219 1.9219 2.9062 1.2656 5.625 3.0938 7.875 5.4375s4.0312 5.0156 5.1562 8.0156c1.1719 2.9062 1.7812 6.0938 1.6875 9.2812l-1.7344 50.484c11.344-0.046875 23.203-0.09375 35.25-0.14062-0.28125-8.9062-0.89062-28.172-1.3594-47.484-0.32812-12.656-0.51562-25.312-0.70312-35.062-0.046875-3.2812 0.60938-6.4688 1.7812-9.4219 1.2188-3 3.0469-5.7188 5.3438-8.0156 2.2969-2.3438 5.0156-4.1719 7.9688-5.3906s6.1875-1.875 9.4688-1.875c3.2344 0.046875 6.4688 0.70312 9.4219 1.9219 2.9062 1.2656 5.625 3.0469 7.9219 5.3906 2.25 2.3438 4.0781 5.0625 5.25 8.0156s1.7812 6.1406 1.7344 9.375l-2.0156 82.594c12.328 0.046875 24.469 0.14062 36.047 0.1875l-1.875-50.578c-0.046875-3.2344 0.5625-6.4219 1.7344-9.375s2.9531-5.6719 5.2031-8.0156c2.2969-2.3438 5.0156-4.1719 7.9688-5.3906 3-1.2656 6.1875-1.875 9.4688-1.875 3.2812 0.046875 6.4688 0.65625 9.4219 1.9219 2.9062 1.2656 5.625 3.0938 7.875 5.4375s4.0312 5.0156 5.2031 8.0156c1.125 2.9062 1.7344 6.0938 1.6406 9.2812l-1.7812 50.953c7.8281 0.046875 15 0.14062 21.328 0.14062 10.312 0.14062 19.641 4.3125 26.297 11.156 6.6562 6.75 10.734 16.031 10.641 26.25l-1.125 104.62c5.1562 0.89062 9.8906 3.3281 13.641 6.75 5.2969 4.8281 8.4844 11.719 8.8125 19.406 0.1875 6.1875-1.6875 12-4.9688 16.734 6.4219 0.32812 12.234 3.0469 16.734 7.125 5.2969 4.7812 8.4844 11.719 8.8125 19.406 0.1875 6.5625-1.9219 12.656-5.5312 17.531h3.7969c10.219 0.09375 19.453 4.2656 26.109 11.016s10.734 15.984 10.641 26.156l-0.98438 122.11c0.60938 0.46875 1.2188 0.98438 1.7812 1.5 5.2969 4.7812 8.4375 11.719 8.8125 19.359 0.23438 7.4062-2.4844 14.25-7.0312 19.406 16.688 0.09375 31.172 0.1875 42.75 0.23438 4.9219 0 9.75 0.98438 14.156 2.8594 4.4531 1.875 8.5312 4.5938 11.953 8.0625s6.1406 7.5469 7.9219 12c1.8281 4.4531 2.7656 9.2344 2.7188 14.109l-0.98438 156.24c2.6719 1.2188 5.1094 2.8125 7.2656 4.7812 5.2969 4.7812 8.4844 11.719 8.8125 19.406 0.1875 6.6562-1.9688 12.844-5.7656 17.766 2.7188 0.046875 5.25 0.046875 7.6875 0.09375 9.9844 0.046875 19.031 4.125 25.5 10.734 6.4688 6.5625 10.406 15.562 10.359 25.5zm-737.29 0c37.781-0.32812 116.2-0.98438 208.74-1.5469 49.125-0.28125 102.19-0.60938 155.29-0.65625 53.062-0.046875 106.17 0.1875 155.26 0.42188 92.578 0.51562 171.05 1.3125 208.82 1.6875l-0.046875-11.484c-0.09375-7.3125-3.1406-13.875-7.9219-18.609-4.7812-4.6875-11.391-7.5469-18.609-7.5-6.9844 0.046875-15.047 0.14062-24 0.1875-1.9688 0.42188-4.0312 0.65625-6.0938 0.70312-1.875-0.046875-3.7031-0.28125-5.4375-0.60938-10.266 0.046875-21.516 0.14062-33.609 0.23438-1.4062 0.23438-2.8125 0.32812-4.2656 0.375-1.2188-0.046875-2.4375-0.14062-3.6094-0.32812-36.188 0.28125-79.172 0.60938-125.48 0.84375-43.125 0.23438-89.062 0.46875-135 0.51562-45.984 0.046875-91.922-0.09375-135.05-0.28125-46.125-0.23438-89.016-0.5625-125.11-0.84375-0.65625 0.046875-1.2656 0.09375-1.9219 0.09375-0.70313-0.046875-1.3594-0.046875-2.0625-0.14062-13.359-0.09375-25.734-0.1875-36.984-0.28125-1.5 0.23438-3.0938 0.375-4.7344 0.42188-1.6406-0.046875-3.3281-0.23438-4.9219-0.51562-10.078-0.09375-19.078-0.14062-26.766-0.23438-7.1719-0.046875-13.734 2.7656-18.516 7.4531-4.7812 4.7344-7.8281 11.25-7.875 18.516zm53.719-91.969c1.4531-0.1875 2.9531-0.23438 4.4531-0.14062v-0.09375c7.4531-0.375 14.25 2.4844 19.406 7.125 0.9375 0.84375 1.8281 1.7812 2.625 2.7656 0.75-0.9375 1.5938-1.8281 2.4844-2.625 5.1094-4.6406 11.859-7.5469 19.266-7.1719v-0.09375c7.4531-0.375 14.25 2.4844 19.406 7.125 0.9375 0.84375 1.7812 1.7812 2.625 2.7656 0.75-0.9375 1.5938-1.8281 2.4844-2.625 5.0625-4.6406 11.859-7.5469 19.266-7.1719v-0.09375c7.4531-0.375 14.25 2.4844 19.359 7.125 0.89063 0.79688 1.6875 1.6406 2.4844 2.5781 0.70312-0.89062 1.4531-1.6875 2.2969-2.4375 5.0625-4.6406 11.859-7.5469 19.266-7.1719v-0.09375c7.4531-0.375 14.25 2.4844 19.359 7.125 0.9375 0.84375 1.8281 1.7812 2.625 2.7656 0.79688-0.9375 1.6406-1.8281 2.5312-2.625 5.0625-4.6406 11.812-7.5469 19.219-7.1719v-0.09375c7.4531-0.375 14.297 2.4844 19.406 7.125 0.9375 0.84375 1.8281 1.7812 2.625 2.7656 0.79688-0.9375 1.5938-1.8281 2.5312-2.625 5.0625-4.6406 11.812-7.5469 19.219-7.1719v-0.09375c7.4531-0.375 14.25 2.4844 19.406 7.125 0.9375 0.84375 1.8281 1.7812 2.625 2.7656 0.75-0.9375 1.5938-1.8281 2.4844-2.625 5.1094-4.6406 11.859-7.5469 19.266-7.1719v-0.09375c7.4531-0.375 14.25 2.4844 19.359 7.125 0.98437 0.84375 1.8281 1.7812 2.6719 2.7656 0.75-0.9375 1.5938-1.8281 2.4844-2.625 5.0625-4.6406 11.859-7.5469 19.266-7.1719v-0.09375c7.4531-0.375 14.25 2.4844 19.359 7.125 0.9375 0.84375 1.8281 1.7812 2.625 2.7656 0.79687-0.9375 1.6406-1.8281 2.5312-2.625 5.0625-4.6406 11.812-7.5469 19.219-7.1719v-0.09375c7.4531-0.375 14.25 2.4844 19.406 7.125 0.9375 0.84375 1.8281 1.7812 2.625 2.7656 0.75-0.9375 1.5938-1.8281 2.4844-2.625 5.1094-4.6406 11.859-7.5469 19.266-7.1719v-0.09375c7.4531-0.375 14.25 2.4844 19.406 7.125 0.9375 0.84375 1.7812 1.7812 2.625 2.7656 0.75-0.9375 1.5938-1.8281 2.4844-2.625 5.0625-4.6406 11.859-7.5469 19.266-7.1719v-0.09375c7.4531-0.375 14.25 2.4844 19.359 7.125 0.9375 0.84375 1.8281 1.7812 2.625 2.7656 0.79688-0.9375 1.6406-1.8281 2.5312-2.625 5.0625-4.6406 11.859-7.5469 19.266-7.1719v-0.09375c7.4062-0.375 14.25 2.4844 19.359 7.125 0.84375 0.79688 1.6406 1.5938 2.3906 2.4844 0.70312-0.84375 1.5-1.5938 2.2969-2.3438 5.0625-4.6406 11.812-7.5469 19.219-7.1719v-0.09375c7.4531-0.375 14.297 2.4844 19.406 7.125 1.3125 1.1719 2.4844 2.4844 3.5156 3.8906 0.98437-1.3594 2.1094-2.625 3.375-3.75 5.0625-4.6406 11.859-7.5469 19.266-7.1719v-0.09375c7.4531-0.375 14.25 2.4844 19.359 7.125 0.84375 0.79688 1.6875 1.5938 2.3906 2.4844 0.70313-0.84375 1.5-1.5938 2.2969-2.3438 5.0625-4.6406 11.859-7.5469 19.266-7.1719v-0.09375c0.98438-0.046875 1.9688-0.046875 2.9531 0l-0.42188-61.453c-3.8906 2.625-8.1094 4.8281-12.562 6.6562-7.5469 3.0938-15.797 4.7812-24.422 5.1562-7.5938 0.14062-15-0.75-21.938-2.9062-7.125-2.2031-13.828-5.625-19.688-9.9844-8.5781-6.3281-15.562-14.578-20.531-24-6.1406 13.594-15.562 25.453-27.375 34.406-14.625 11.109-32.906 17.578-52.688 17.953-7.7344-0.046875-15.281-0.98438-22.453-2.9062-11.156-2.9531-21.422-8.0625-30.375-14.859-10.172-7.7812-18.609-17.719-24.609-29.109-2.5312 8.25-6.9375 15.703-12.703 21.891-6.1406 6.5625-13.922 11.578-22.594 14.531-5.625 1.9219-11.625 2.9062-17.859 2.9062-15.891-0.375-30.234-6.8906-40.312-17.625-6.2344-6.6094-10.875-14.766-13.312-23.766-6.0938 12.047-14.812 22.547-25.5 30.703-8.9062 6.7969-19.172 11.906-30.328 14.859-7.1719 1.9219-14.719 2.8594-22.5 2.9062-19.781-0.375-38.016-6.8438-52.688-17.953-11.766-8.9531-21.234-20.812-27.328-34.406-4.9688 9.4219-12 17.672-20.531 24-5.9062 4.3594-12.562 7.7812-19.734 9.9844-6.8906 2.1562-14.297 3.0469-21.891 2.9062-8.6719-0.375-16.875-2.0625-24.469-5.1562-3.9844-1.6406-7.8281-3.6094-11.438-5.9062zm114.84-191.86c0.1875-0.046875 0.32813-0.046875 0.51563-0.046875l-0.28125-0.28125c-0.046876 0.09375-0.14063 0.1875-0.23438 0.32812zm43.547-0.1875h0.5625c-0.09375-0.14062-0.1875-0.23438-0.28125-0.375-0.09375 0.14062-0.1875 0.23438-0.28125 0.375zm43.875-0.14062h0.375c-0.09375-0.09375-0.14063-0.14062-0.1875-0.23438-0.046876 0.09375-0.09375 0.14062-0.1875 0.23438zm43.875-0.09375h0.1875c-0.046876-0.046875-0.09375-0.09375-0.09375-0.14062-0.046876 0.046875-0.09375 0.09375-0.09375 0.14062zm43.781-0.046875h0.14062c-0.046874-0.046875-0.046874-0.046875-0.09375-0.09375 0 0.046875 0 0.046875-0.046874 0.09375zm43.734 0.046875h0.23438l-0.14063-0.14062c-0.046874 0.046875-0.046874 0.09375-0.09375 0.14062zm43.688 0.09375c0.14063 0.046875 0.23438 0.046875 0.375 0.046875-0.046874-0.09375-0.14062-0.1875-0.1875-0.28125-0.046874 0.09375-0.14062 0.1875-0.1875 0.23438zm43.641 0.1875h0.65625c-0.14063-0.14062-0.23438-0.28125-0.32813-0.42188-0.14062 0.14062-0.23437 0.28125-0.32812 0.42188zm43.594 0.1875h0.98437c-0.1875-0.1875-0.32812-0.42188-0.51562-0.60938-0.14063 0.1875-0.28125 0.42188-0.46875 0.60938zm43.594 0.1875c0.28125 0 0.5625 0 0.89062 0.046875-0.14062-0.1875-0.32812-0.375-0.46875-0.5625-0.14062 0.1875-0.28125 0.375-0.42187 0.51562zm112.03 118.27-0.51563-80.766c-0.046874-3.4219-0.75-6.7031-2.0156-9.7969-1.3125-3.0469-3.1875-5.8594-5.625-8.2031-2.3906-2.3906-5.2031-4.2188-8.25-5.4844-3.0938-1.2188-6.375-1.875-9.75-1.8281-53.625 0.1875-168.66 0.98438-283.74 1.125-48.891 0.046875-97.734-0.09375-141.89-0.23438-59.859-0.1875-111.05-0.51562-141.89-0.65625-3.3281-0.046875-6.6094 0.5625-9.6562 1.8281-3 1.2188-5.8125 3.0469-8.2031 5.3906s-4.2656 5.1094-5.5312 8.1562c-1.3125 3.0469-2.0156 6.3281-2.0156 9.7031l-0.60938 81.047c4.6875 2.9062 9.7969 5.2031 15.188 6.8906 6.5156 1.9688 13.406 2.9062 20.625 2.625 6.1875-0.14062 12.094-1.3594 17.719-3.0938 5.8594-1.8281 11.344-4.3125 16.406-7.5469 10.359-6.6094 18.984-15.891 24.047-27.328 0.89062-2.3438 3.6094-3.5625 5.9531-2.625 1.7812 0.70312 2.9062 2.3438 2.9531 4.125 5.8125 15.328 16.266 28.219 29.531 37.359 12.938 8.9062 28.641 14.109 45.562 13.781 6.6094 0.046875 12.984-0.79688 19.078-2.2969 9.5625-2.2969 18.469-6.2812 26.344-11.672 13.5-9.2344 24.141-22.359 29.906-37.969 0.5625-1.7344 2.0625-2.8594 3.7031-3.1406 0.60938-0.28125 1.2656-0.42188 1.9688-0.42188 2.5312 0 4.5938 2.0156 4.5938 4.5469 0.46875 12.609 6.1406 23.672 14.625 31.688 8.2969 7.7812 19.453 12.516 31.734 12.234 7.1719 0.046875 13.969-1.6406 20.016-4.5938 4.2188-2.0156 8.1094-4.6406 11.484-7.7812 8.5312-7.9688 14.25-18.984 14.766-31.547 0-2.5312 2.1094-4.6406 4.6406-4.6406s4.5938 2.1094 4.5938 4.6406v0.14062c5.8594 15.328 16.406 28.219 29.672 37.312 7.875 5.3906 16.781 9.375 26.344 11.672 6.1406 1.5 12.516 2.3438 19.078 2.2969 16.922 0.32812 32.625-4.875 45.609-13.781 13.219-9.1406 23.719-22.031 29.484-37.359 0.09375-1.7812 1.1719-3.4219 2.9531-4.125 2.3906-0.9375 5.0625 0.28125 6 2.625 5.0625 11.438 13.641 20.719 24.047 27.328 5.0156 3.2344 10.547 5.7188 16.359 7.5469 5.625 1.7344 11.578 2.9531 17.766 3.0938 7.1719 0.28125 14.109-0.65625 20.625-2.625 5.8125-1.8281 11.297-4.3594 16.312-7.6406zm-538.03-161.9c3.4219-1.4062 7.1719-2.1562 11.109-1.9688v-0.046875c7.4531-0.375 14.25 2.4844 19.359 7.125 0.89062 0.79688 1.6875 1.6406 2.4844 2.5312 0.70313-0.84375 1.4531-1.6406 2.2969-2.3906 5.0625-4.6406 11.859-7.5469 19.266-7.2188v-0.046875c7.4531-0.375 14.25 2.4844 19.359 7.125 0.9375 0.84375 1.8281 1.7812 2.625 2.7656 0.79687-0.9375 1.6406-1.8281 2.5312-2.625 5.0625-4.6406 11.812-7.5469 19.219-7.2188v-0.046875c7.4531-0.375 14.297 2.4844 19.406 7.125 0.9375 0.84375 1.8281 1.7812 2.625 2.7656 0.79687-0.9375 1.5938-1.8281 2.5312-2.625 5.0625-4.6406 11.812-7.5469 19.219-7.2188v-0.046875c7.4531-0.375 14.25 2.4844 19.406 7.125 0.9375 0.84375 1.8281 1.7812 2.625 2.7656 0.75-0.9375 1.5938-1.8281 2.4844-2.625 5.1094-4.6406 11.859-7.5469 19.266-7.2188v-0.046875c7.4531-0.375 14.25 2.4844 19.359 7.125 0.98438 0.84375 1.8281 1.7812 2.6719 2.7656 0.75-0.9375 1.5938-1.8281 2.4844-2.625 5.0625-4.6406 11.859-7.5469 19.266-7.2188v-0.046875c7.4531-0.375 14.25 2.4844 19.359 7.125 0.9375 0.84375 1.8281 1.7812 2.625 2.7656 0.79688-0.9375 1.6406-1.8281 2.5312-2.625 5.0625-4.6406 11.812-7.5469 19.219-7.2188v-0.046875c7.4531-0.375 14.297 2.4844 19.406 7.125 0.9375 0.84375 1.8281 1.7812 2.625 2.7656 0.75-0.9375 1.5938-1.8281 2.4844-2.625 5.1094-4.6406 11.859-7.5469 19.266-7.2188v-0.046875c7.4531-0.375 14.25 2.4844 19.406 7.125 0.9375 0.84375 1.8281 1.7812 2.625 2.7656 0.75-0.9375 1.5938-1.8281 2.4844-2.625 5.0625-4.6406 11.859-7.5469 19.266-7.2188v-0.046875c7.4531-0.375 14.25 2.4844 19.359 7.125 0.98437 0.84375 1.8281 1.7812 2.625 2.7656 0.79687-0.9375 1.6406-1.8281 2.5312-2.625 5.0625-4.6406 11.859-7.5469 19.266-7.2188v-0.046875c7.4062-0.375 14.25 2.4844 19.359 7.125 0.84375 0.75 1.6406 1.5938 2.3906 2.4844 0.70313-0.84375 1.5-1.6406 2.2969-2.3438 5.0625-4.6406 11.812-7.5469 19.266-7.2188v-0.046875c2.9062-0.14062 5.7188 0.1875 8.3438 0.9375l-0.42187-48.938c-0.9375 0.1875-1.9219 0.375-2.9062 0.51562-2.1094 0.28125-4.1719 0.46875-6.3281 0.5625-11.906 0.5625-23.297-1.7812-33.422-6.5625-7.0312-3.3281-13.453-7.8281-18.844-13.312-5.4375-5.4844-9.8906-11.906-13.125-18.938-0.9375-2.1562-1.8281-4.3125-2.5781-6.5625-2.4844 5.0156-5.6719 9.6094-9.4688 13.688-6.0938 6.5625-13.875 11.578-22.547 14.531-5.625 1.9219-11.672 2.9062-17.906 2.9062-15.844-0.375-30.188-6.8906-40.266-17.625-4.3594-4.6406-7.9688-9.9844-10.547-15.891-2.5781 5.9531-6.1875 11.391-10.547 16.078-6.1406 6.5625-13.875 11.578-22.594 14.531-5.5781 1.9219-11.625 2.9062-17.859 2.9062-15.844-0.375-30.188-6.8906-40.312-17.625-4.3594-4.6406-7.9219-9.9844-10.5-15.891-2.5781 5.9531-6.1875 11.391-10.594 16.078-6.0938 6.5625-13.875 11.578-22.547 14.531-5.625 1.9219-11.625 2.9062-17.859 2.9062-15.891-0.375-30.234-6.8906-40.312-17.625-3.7969-4.0312-7.0312-8.6719-9.5156-13.734-0.79687 2.2969-1.6875 4.5938-2.7188 6.7969-3.2344 7.0312-7.6406 13.453-13.078 18.938-5.3906 5.4844-11.812 9.9844-18.844 13.312-10.125 4.7812-21.516 7.125-33.422 6.5625-2.1562-0.09375-4.2656-0.28125-6.3281-0.5625-0.14063-0.046875-0.32813-0.046875-0.46875-0.09375zm26.672 22.781c-0.1875-3.7969-1.5938-7.2188-3.9844-9.8438-2.9062-3.2344-6.9375-5.4844-11.578-5.7188v-0.046875c-4.6875 0.1875-8.7656 2.3906-11.719 5.625-2.7656 3.0469-4.3125 7.2188-4.125 11.672 0.1875 4.3125 2.2031 8.0625 5.0625 10.781 2.8125 2.625 6.6094 4.2188 10.781 4.125 4.125 0.046875 7.875-1.5938 10.641-4.2656 2.4375-2.3438 4.2656-5.4844 4.7812-9.0469v-1.5938c0.046874-0.5625 0.09375-1.125 0.14062-1.6875zm429.19-82.219-0.51562-59.062c-0.046875-7.0312-2.9531-13.359-7.6406-17.953-4.5938-4.5469-10.922-7.3125-17.906-7.2656-42.375 0.23438-122.02 0.89062-201.66 1.0312-34.641 0.046875-69.281-0.046875-100.83-0.1875-41.062-0.14062-76.922-0.46875-100.83-0.60938-6.9375-0.046875-13.219 2.6719-17.812 7.1719-4.5938 4.5469-7.5 10.828-7.5938 17.812l-0.5625 59.203c0.42188 0 0.84375 0.046875 1.2656 0.046875 1.8281 0.046875 3.6562 0 5.4844-0.09375 9.9844-0.42188 19.172-3.4688 27.375-8.0156 5.5312-3.0469 10.547-6.9375 15-11.344 5.625-5.5312 10.406-11.859 13.781-19.125 3.375-7.125 5.6719-14.906 6.1875-23.25 0-2.5781 2.0625-4.6406 4.5938-4.6406 2.5781 0 4.6406 2.0625 4.6406 4.6406 0.046874 0.84375 0.09375 1.6875 0.09375 2.5312 1.0781 11.531 6.5625 21.703 14.484 29.156 8.2969 7.7812 19.453 12.516 31.734 12.234 7.1719 0.046875 13.969-1.6406 20.016-4.5938 4.2188-2.0625 8.1094-4.6406 11.484-7.7812 8.5312-7.9688 14.25-18.984 14.766-31.547 0-2.5781 2.0625-4.6406 4.6406-4.6406 2.5312 0 4.5938 2.0625 4.5938 4.6406 0.046874 0.65625 0.046874 1.3125 0.046874 1.9219 0.98438 11.812 6.4688 22.172 14.578 29.766 8.25 7.7812 19.453 12.516 31.688 12.234 7.1719 0.046875 13.969-1.6406 20.016-4.5938 4.2188-2.0625 8.1094-4.6406 11.531-7.7812 8.5312-7.9688 14.203-18.984 14.766-31.547 0-2.5781 2.0625-4.6406 4.5938-4.6406s4.6406 2.0625 4.6406 4.6406c0 0.65625 0.046876 1.3125 0.046876 1.9219 0.9375 11.812 6.4688 22.172 14.531 29.766 8.2969 7.7812 19.453 12.516 31.688 12.234 7.2188 0.046875 14.016-1.6406 20.062-4.5938 4.2188-2.0625 8.1094-4.6406 11.484-7.7812 8.3438-7.7812 13.969-18.516 14.719-30.75 0-0.28125 0.046876-0.51562 0.046876-0.79688 0-2.5781 2.0625-4.6406 4.6406-4.6406 2.5312 0 4.5938 2.0625 4.5938 4.6406 0.51563 8.3438 2.8125 16.125 6.1875 23.25 3.375 7.2656 8.1562 13.594 13.781 19.125 4.4531 4.4062 9.4219 8.2969 15 11.344 8.2031 4.5469 17.391 7.5938 27.375 8.0156 1.8281 0.09375 3.6562 0.14062 5.4844 0.09375 1.2188-0.046875 2.4375-0.09375 3.7031-0.1875zm-378.84-183.56c7.2188-0.1875 13.781 2.625 18.75 7.125 0.9375 0.89062 1.8281 1.8281 2.625 2.8125 0.79688-0.9375 1.6406-1.8281 2.5312-2.6719 5.0625-4.6406 11.812-7.5 19.219-7.1719v-0.09375c7.4531-0.375 14.25 2.4844 19.406 7.125 0.9375 0.89062 1.8281 1.8281 2.625 2.8125 0.75-0.9375 1.5938-1.8281 2.4844-2.6719 5.1094-4.6406 11.859-7.5 19.266-7.1719v-0.09375c7.4531-0.375 14.25 2.4844 19.406 7.125 0.9375 0.89062 1.7812 1.8281 2.625 2.8125 0.75-0.9375 1.5938-1.8281 2.4844-2.6719 5.0625-4.6406 11.859-7.5 19.266-7.1719v-0.09375c7.4531-0.375 14.25 2.4844 19.359 7.125 0.9375 0.89062 1.8281 1.8281 2.625 2.8125 0.79688-0.9375 1.6406-1.8281 2.5312-2.6719 5.0625-4.6406 11.812-7.5 19.266-7.1719v-0.09375c7.4062-0.375 14.25 2.4844 19.359 7.125 0.9375 0.89062 1.8281 1.8281 2.625 2.8125 0.79688-0.9375 1.5938-1.8281 2.5312-2.6719 5.0625-4.6406 11.812-7.5 19.219-7.1719v-0.09375c7.4531-0.375 14.25 2.4844 19.406 7.125 0.9375 0.89062 1.8281 1.8281 2.625 2.8125 0.75-0.9375 1.5938-1.8281 2.4844-2.6719 5.1094-4.6406 11.859-7.5 19.266-7.1719v-0.09375c7.4531-0.375 14.25 2.4844 19.359 7.125 0.98438 0.89062 1.8281 1.8281 2.6719 2.8125 0.75-0.9375 1.5938-1.8281 2.4844-2.6719 4.2656-3.8906 9.75-6.5625 15.75-7.0781l-0.84375-78.844c-0.75 0.9375-1.5 1.8281-2.2969 2.7188-4.7344 5.1562-10.828 9.0938-17.578 11.484-4.4062 1.5-9.1406 2.25-14.016 2.2969-12.375-0.375-23.625-5.4844-31.406-13.969-2.7188-2.9062-5.0156-6.2344-6.8438-9.7969-1.8281 3.6094-4.1719 6.9844-6.8906 9.9844-4.7344 5.1562-10.828 9.0938-17.578 11.484-4.4062 1.5-9.1406 2.25-14.016 2.2969-12.375-0.375-23.625-5.4844-31.406-13.969-2.7188-2.9062-5.0156-6.2344-6.8438-9.7969-1.8281 3.6094-4.1719 6.9844-6.8906 9.9844-4.7344 5.1562-10.781 9.0938-17.578 11.484-4.4062 1.5-9.0938 2.25-14.016 2.2969-12.375-0.375-23.625-5.4844-31.406-13.969-3.4219-3.7031-6.1875-7.9688-8.1562-12.656-1.9688 4.7344-4.7812 9.0938-8.2031 12.844-4.7344 5.1562-10.828 9.0938-17.578 11.484-4.4062 1.5-9.1406 2.25-14.016 2.2969-12.375-0.375-23.625-5.4844-31.406-13.969-0.79688-0.84375-1.5469-1.7344-2.2969-2.6719zm58.078-142.08c8.1094-0.046875 16.781-0.09375 25.828-0.14062l-1.7344-50.531c-0.046875-1.4531-0.46875-2.8594-1.0312-4.2188-0.60938-1.2656-1.4531-2.4375-2.4844-3.4688-1.0312-0.98438-2.2969-1.6875-3.6094-2.2031-1.2656-0.51562-2.6719-0.79688-4.0781-0.79688-1.4531 0-2.8125 0.32812-4.125 0.84375-1.2656 0.51562-2.4844 1.2656-3.4688 2.2969-1.0312 0.98438-1.875 2.1094-2.4375 3.4219s-0.9375 2.6719-0.98438 4.125zm80.156-0.32812h12.891c4.3125 0 8.6719 0 12.984 0.046875l-2.0156-82.594c0-1.4531-0.375-2.8594-0.9375-4.1719s-1.4062-2.4844-2.4375-3.4688c-0.98438-1.0312-2.2031-1.7812-3.5156-2.2969-1.2656-0.51562-2.6719-0.75-4.0781-0.75-1.4531 0-2.8125 0.28125-4.0781 0.79688-1.3125 0.5625-2.4844 1.3125-3.5156 2.2969-0.98438 1.0312-1.7812 2.2031-2.3438 3.4688s-0.89062 2.6719-0.89062 4.125c-0.1875 9.75-0.375 22.406-0.70312 35.062-0.46875 19.312-1.0781 38.578-1.3594 47.484zm80.859 0.32812c9.0469 0.046875 17.719 0.14062 25.875 0.1875l-1.7812-50.859c-0.046875-1.4531-0.42188-2.8594-1.0312-4.2188-0.5625-1.2656-1.4531-2.4375-2.4844-3.4688-1.0312-0.98438-2.25-1.6875-3.5625-2.2031s-2.7188-0.79688-4.125-0.79688-2.8125 0.32812-4.0781 0.84375c-1.3125 0.51562-2.4844 1.2656-3.5156 2.2969-1.0312 0.98438-1.875 2.1094-2.4375 3.4219s-0.9375 2.6719-0.9375 4.125zm81.984 36.703c-0.375-6.5156-3.1875-12.375-7.5938-16.688-4.5469-4.4531-10.875-7.1719-17.812-7.125-29.812 0.1875-77.203 0.75-124.55 0.79688-47.391 0-94.734-0.42188-124.6-0.5625-6.8438-0.046875-13.125 2.625-17.672 7.0781-4.5469 4.5-7.4531 10.734-7.5469 17.625v0.60938c1.3125 7.5 5.2031 14.016 10.547 18.938 6 5.5312 14.062 8.8125 22.828 8.5312 5.1562 0.09375 9.9844-1.125 14.344-3.1875 3.0469-1.4531 5.8594-3.2812 8.3438-5.4844 6.2344-5.7188 10.547-13.594 11.062-22.688 0-2.5312 2.0625-4.6406 4.6406-4.6406 0.46875 0 0.98438 0.09375 1.4062 0.23438 0.375-0.09375 0.79688-0.14062 1.2188-0.14062 2.4844 0 4.5469 2.0156 4.5469 4.5469 0.46875 9.1406 4.7344 17.062 10.969 22.828 6 5.5312 14.062 8.8125 22.828 8.5312 5.1562 0.09375 9.9844-1.125 14.344-3.1875 3.0469-1.4531 5.8594-3.2812 8.3438-5.4844 6.2344-5.7188 10.547-13.594 11.062-22.688 0-2.5312 2.0625-4.6406 4.6406-4.6406 2.5312 0 4.5938 2.1094 4.5938 4.6406 0.046875 0.5625 0.046875 1.125 0.09375 1.6875 0.84375 8.4375 4.9688 15.75 10.828 21.141 6 5.5312 14.062 8.8125 22.828 8.5312 5.1562 0.09375 9.9844-1.125 14.344-3.1875 3.0469-1.4531 5.8594-3.2812 8.3438-5.4844 6.2344-5.7188 10.547-13.594 11.062-22.688 0-2.5312 2.0625-4.6406 4.6406-4.6406 2.5312 0 4.5938 2.1094 4.5938 4.6406 0.046875 0.5625 0.046875 1.125 0.046875 1.6875 0.89062 8.4375 5.0156 15.75 10.875 21.141 6 5.5312 14.062 8.8125 22.828 8.5312 5.1562 0.09375 9.9844-1.125 14.344-3.1875 3.0469-1.4531 5.8594-3.2812 8.3438-5.4844 5.7188-5.25 9.8438-12.328 10.875-20.531zm-10.922 133.97c0.60938 3.4219 2.4375 6.4219 4.8281 8.6719 2.8125 2.6719 6.6094 4.2188 10.781 4.125 4.125 0.046875 7.875-1.5938 10.641-4.2188 2.8125-2.7188 4.7812-6.4219 4.9219-10.641 0.1875-4.4062-1.2656-8.5312-4.0312-11.578-2.8594-3.1875-6.8906-5.4375-11.531-5.6719v-0.09375c-4.6875 0.23438-8.7656 2.4375-11.719 5.625-2.2969 2.5781-3.75 5.8594-4.0781 9.4688 0.09375 0.75 0.1875 1.5 0.1875 2.25 0.046875 0.70312 0.046875 1.4062 0 2.0625zm20.578 43.266c0.60938 3.4219 2.4375 6.4219 4.8281 8.6719 2.8125 2.6719 6.6094 4.2188 10.781 4.125 4.125 0.046875 7.875-1.5938 10.594-4.2188 2.8594-2.7188 4.8281-6.4219 4.9688-10.641 0.1875-4.4062-1.2656-8.5312-4.0312-11.578-2.9062-3.1875-6.8906-5.4375-11.531-5.7188v-0.046875c-4.6875 0.23438-8.7656 2.4375-11.719 5.625-2.2969 2.5312-3.75 5.8594-4.0781 9.4219 0.09375 0.75 0.14062 1.5 0.1875 2.2969 0.046875 0.70312 0.046875 1.4062 0 2.0625zm44.953 199.22c0.84375 2.7656 2.4375 5.25 4.5 7.1719 2.8125 2.625 6.6094 4.2188 10.781 4.125 4.125 0.046874 7.8281-1.5938 10.594-4.2656 2.8594-2.7188 4.8281-6.375 4.9688-10.641 0.1875-4.4062-1.2656-8.5312-4.0312-11.531-2.9062-3.2344-6.8906-5.4844-11.531-5.7188v-0.046876c-4.6875 0.1875-8.7656 2.3906-11.719 5.625-1.9688 2.1562-3.2812 4.8281-3.8438 7.7812 0.23438 1.3125 0.375 2.5781 0.42188 3.8906 0.046875 1.2188 0 2.4375-0.14062 3.6094zm87.609 237.05c0.79688 2.8125 2.3906 5.25 4.4531 7.1719 2.8125 2.6719 6.6094 4.2188 10.781 4.125 4.125 0.046876 7.875-1.5938 10.641-4.2656 2.8125-2.7188 4.7812-6.375 4.9219-10.594 0.1875-4.4531-1.2656-8.5312-4.0312-11.578-2.9062-3.1875-6.8906-5.4844-11.531-5.7188v-0.046874c-4.6875 0.1875-8.7656 2.4375-11.719 5.625-1.9688 2.1562-3.2812 4.8281-3.8438 7.8281 0.23438 1.2656 0.375 2.5312 0.42188 3.8906 0.046875 1.1719 0 2.3906-0.09375 3.5625zm-569.86-1.5c0.65625 3.4219 2.4375 6.375 4.875 8.6719 2.7656 2.6719 6.5625 4.2188 10.734 4.125 4.125 0.046876 7.875-1.5938 10.641-4.2656 2.8125-2.7188 4.8281-6.375 4.9219-10.594 0.23438-4.4531-1.2188-8.5312-3.9844-11.578-2.9062-3.1875-6.9375-5.4844-11.578-5.7188v-0.046874c-4.6875 0.1875-8.7656 2.4375-11.672 5.625-2.3438 2.5312-3.7969 5.8125-4.0781 9.4219 0.09375 0.75 0.14062 1.5 0.1875 2.2969 0 0.65625 0 1.3594-0.046875 2.0625zm74.953-3.7969c-0.1875-3.75-1.5938-7.2188-3.9844-9.8438-2.9062-3.1875-6.9375-5.4844-11.578-5.7188v-0.046874c-4.6875 0.1875-8.7656 2.4375-11.719 5.625-2.2969 2.5312-3.75 5.8125-4.0781 9.4219 0.09375 0.75 0.1875 1.5 0.1875 2.2969 0.046875 0.65625 0.046875 1.3594 0 2.0625 0.60938 3.4219 2.4375 6.375 4.8281 8.6719 2.8125 2.6719 6.6094 4.2188 10.781 4.125 4.125 0.046876 7.875-1.5938 10.641-4.2656 2.4375-2.3438 4.2656-5.4844 4.7812-9.0469v-1.5469c0.046875-0.60938 0.09375-1.1719 0.14062-1.7344zm12.516 5.0625c0.79688 2.8594 2.4375 5.3906 4.5469 7.4062 2.8125 2.6719 6.6094 4.2188 10.781 4.125 4.125 0.046876 7.875-1.5938 10.641-4.2656 2.8125-2.7188 4.7812-6.375 4.9219-10.594 0.1875-4.4531-1.2656-8.5312-4.0312-11.578-2.8594-3.1875-6.8906-5.4844-11.531-5.7188v-0.046874c-4.6875 0.1875-8.7656 2.4375-11.719 5.625-2.0156 2.2031-3.375 5.0156-3.8906 8.0625 0.1875 1.2188 0.32812 2.3906 0.375 3.6562 0.046875 1.125 0 2.2031-0.09375 3.3281zm43.5-1.2656c0.60938 3.4219 2.3906 6.375 4.8281 8.6719 2.8125 2.6719 6.6094 4.2188 10.734 4.125 4.1719 0.046876 7.875-1.5938 10.641-4.2656 2.8594-2.7188 4.8281-6.375 4.9688-10.594 0.1875-4.4531-1.2656-8.5312-4.0312-11.578-2.9062-3.1875-6.8906-5.4844-11.578-5.7188v-0.046874c-4.6406 0.1875-8.7188 2.4375-11.672 5.625-2.3438 2.5312-3.75 5.8125-4.0781 9.4219 0.09375 0.75 0.14062 1.5 0.1875 2.2969 0.046875 0.65625 0 1.3594 0 2.0625zm43.781 0c0.60938 3.4219 2.3906 6.375 4.8281 8.6719 2.7656 2.6719 6.6094 4.2188 10.734 4.125 4.125 0.046876 7.875-1.5938 10.641-4.2656 2.8125-2.7188 4.8281-6.375 4.9688-10.594 0.1875-4.4531-1.2656-8.5312-4.0312-11.578-2.9062-3.1875-6.9375-5.4844-11.578-5.7188v-0.046874c-4.6875 0.1875-8.7656 2.4375-11.672 5.625-2.3438 2.5312-3.75 5.8125-4.0781 9.4219 0.09375 0.75 0.14062 1.5 0.1875 2.2969zm43.734 0c0.60938 3.4219 2.4375 6.375 4.8281 8.6719 2.8125 2.6719 6.6094 4.2188 10.781 4.125 4.125 0.046876 7.875-1.5938 10.641-4.2656 2.8125-2.7188 4.8281-6.375 4.9219-10.594 0.23438-4.4531-1.2656-8.5312-3.9844-11.578-2.9062-3.1875-6.9375-5.4844-11.578-5.7188v-0.046874c-4.6875 0.1875-8.7656 2.4375-11.719 5.625-2.2969 2.5312-3.75 5.8125-4.0312 9.4219 0.046875 0.75 0.14062 1.5 0.1875 2.2969 0 0.65625 0 1.3594-0.046875 2.0625zm43.781 0c0.60938 3.4219 2.4375 6.375 4.8281 8.6719 2.8125 2.6719 6.6094 4.2188 10.781 4.125 4.125 0.046876 7.875-1.5938 10.641-4.2656 2.8125-2.7188 4.7812-6.375 4.9219-10.594 0.1875-4.4531-1.2656-8.5312-4.0312-11.578-2.8594-3.1875-6.8906-5.4844-11.531-5.7188v-0.046874c-4.6875 0.1875-8.7656 2.4375-11.719 5.625-2.2969 2.5312-3.75 5.8125-4.0781 9.4219 0.09375 0.75 0.1875 1.5 0.1875 2.2969 0.046875 0.65625 0.046875 1.3594 0 2.0625zm43.781 0c0.60938 3.4219 2.3906 6.375 4.8281 8.6719 2.8125 2.6719 6.6094 4.2188 10.734 4.125 4.1719 0.046876 7.875-1.5938 10.641-4.2656 2.8594-2.7188 4.8281-6.375 4.9688-10.594 0.1875-4.4531-1.2656-8.5312-4.0312-11.578-2.9062-3.1875-6.8906-5.4844-11.578-5.7188v-0.046874c-4.6406 0.1875-8.7188 2.4375-11.672 5.625-2.3438 2.5312-3.75 5.8125-4.0781 9.4219 0.09375 0.75 0.14062 1.5 0.1875 2.2969zm43.734 0c0.65625 3.4219 2.4375 6.375 4.875 8.6719 2.7656 2.6719 6.5625 4.2188 10.734 4.125 4.125 0.046876 7.875-1.5938 10.641-4.2656 2.8125-2.7188 4.8281-6.375 4.9688-10.594 0.1875-4.4531-1.2656-8.5312-4.0312-11.578-2.9062-3.1875-6.9375-5.4844-11.578-5.7188v-0.046874c-4.6875 0.1875-8.7656 2.4375-11.672 5.625-2.3438 2.5312-3.75 5.8125-4.0781 9.4219 0.09375 0.75 0.14062 1.5 0.1875 2.2969 0 0.65625 0 1.3594-0.046875 2.0625zm43.781 0c0.60938 3.4219 2.4375 6.375 4.8281 8.6719 2.8125 2.6719 6.6094 4.2188 10.781 4.125 4.125 0.046876 7.875-1.5938 10.641-4.2656 2.8125-2.7188 4.7812-6.375 4.9219-10.594 0.23438-4.4531-1.2656-8.5312-3.9844-11.578-2.9062-3.1875-6.9375-5.4844-11.578-5.7188v-0.046874c-4.6875 0.1875-8.7656 2.4375-11.719 5.625-2.2969 2.5312-3.75 5.8125-4.0781 9.4219 0.09375 0.75 0.1875 1.5 0.1875 2.2969 0.046875 0.65625 0.046875 1.3594 0 2.0625zm74.906-4.3594c-0.28125-3.5156-1.6875-6.7969-3.9844-9.2812-2.9062-3.1875-6.8906-5.4844-11.531-5.7188v-0.046874c-4.6875 0.1875-8.7656 2.4375-11.719 5.625-2.2969 2.5312-3.75 5.8125-4.0781 9.4219 0.09375 0.75 0.14062 1.5 0.1875 2.2969 0.046875 0.65625 0.046875 1.3594 0 2.0625 0.60938 3.4219 2.4375 6.375 4.8281 8.6719 2.8125 2.6719 6.6094 4.2188 10.781 4.125 4.125 0.046876 7.875-1.5938 10.594-4.2656 2.3906-2.25 4.125-5.2031 4.7344-8.5312v-2.0625c0.046875-0.79688 0.09375-1.5469 0.1875-2.2969zm12.516 5.8594c0.84375 2.8125 2.4375 5.25 4.5 7.1719 2.8125 2.6719 6.6094 4.2188 10.734 4.125 4.1719 0.046876 7.875-1.5938 10.641-4.2656 2.8594-2.7188 4.8281-6.375 4.9688-10.594 0.1875-4.4531-1.2656-8.5312-4.0312-11.578-2.9062-3.1875-6.8906-5.4844-11.578-5.7188v-0.046874c-4.6406 0.1875-8.7188 2.4375-11.672 5.625-1.9688 2.1562-3.2812 4.8281-3.8438 7.8281 0.23438 1.2656 0.375 2.5312 0.42188 3.8906 0.046875 1.1719 0 2.3906-0.14062 3.5625zm76.312-5.8594c-0.28125-3.5156-1.6875-6.7969-3.9844-9.2812-2.8594-3.1875-6.8906-5.4844-11.531-5.7188v-0.046874c-4.6875 0.1875-8.7656 2.4375-11.719 5.625-2.8125 3.0469-4.3125 7.2188-4.125 11.719 0.14062 4.2656 2.1562 8.0156 5.0625 10.734 2.8125 2.6719 6.6094 4.2188 10.781 4.125 4.125 0.046876 7.875-1.5938 10.641-4.2656 2.3438-2.25 4.125-5.2031 4.6875-8.5312v-2.0625c0.046875-0.79688 0.09375-1.5469 0.1875-2.2969zm-468.56-231.47c0.79688 2.9062 2.4375 5.4375 4.5469 7.4531 2.8125 2.625 6.6094 4.2188 10.781 4.125 4.125 0.046874 7.875-1.5938 10.641-4.2656 2.8125-2.7188 4.7812-6.375 4.9219-10.641 0.1875-4.4062-1.2656-8.5312-4.0312-11.531-2.8594-3.2344-6.8906-5.4844-11.531-5.7188v-0.046876c-4.6875 0.1875-8.7656 2.3906-11.719 5.625-2.0156 2.2031-3.375 5.0156-3.8906 8.0625 0.1875 1.1719 0.32812 2.3906 0.375 3.6094 0.046875 1.125 0 2.25-0.09375 3.3281zm43.5-1.2188c0.60938 3.4219 2.4375 6.375 4.8281 8.6719 2.8125 2.625 6.6094 4.2188 10.734 4.125 4.1719 0.046874 7.875-1.5938 10.641-4.2656 2.8594-2.7188 4.8281-6.375 4.9688-10.641 0.1875-4.4062-1.2656-8.5312-4.0312-11.531-2.9062-3.2344-6.8906-5.4844-11.578-5.7188v-0.046876c-4.6406 0.1875-8.7188 2.3906-11.672 5.625-2.2969 2.5312-3.75 5.8125-4.0781 9.4219 0.09375 0.75 0.14062 1.5 0.1875 2.25 0.046875 0.70312 0.046875 1.4062 0 2.1094zm43.781 0c0.60938 3.4219 2.3906 6.375 4.8281 8.6719 2.7656 2.625 6.6094 4.2188 10.734 4.125 4.125 0.046874 7.875-1.5938 10.641-4.2656 2.8594-2.7188 4.8281-6.375 4.9688-10.641 0.1875-4.4062-1.2656-8.5312-4.0312-11.531-2.9062-3.2344-6.9375-5.4844-11.578-5.7188v-0.046876c-4.6875 0.1875-8.7656 2.3906-11.672 5.625-2.3438 2.5312-3.75 5.8125-4.0781 9.4219 0.09375 0.75 0.14062 1.5 0.1875 2.25zm43.734 0c0.60938 3.4219 2.4375 6.375 4.8281 8.6719 2.8125 2.625 6.6094 4.2188 10.781 4.125 4.125 0.046874 7.875-1.5938 10.641-4.2656 2.8125-2.7188 4.8281-6.375 4.9219-10.641 0.23438-4.4062-1.2656-8.5312-3.9844-11.531-2.9062-3.2344-6.9375-5.4844-11.578-5.7188v-0.046876c-4.6875 0.1875-8.7656 2.3906-11.672 5.625-2.3438 2.5312-3.7969 5.8125-4.0781 9.4219 0.09375 0.75 0.14062 1.5 0.1875 2.25 0 0.70312 0 1.4062-0.046875 2.1094zm43.781 0c0.60938 3.4219 2.4375 6.375 4.8281 8.6719 2.8125 2.625 6.6094 4.2188 10.781 4.125 4.125 0.046874 7.875-1.5938 10.641-4.2656 2.8125-2.7188 4.7812-6.375 4.9219-10.641 0.1875-4.4062-1.2656-8.5312-4.0312-11.531-2.8594-3.2344-6.8906-5.4844-11.531-5.7188v-0.046876c-4.6875 0.1875-8.7656 2.3906-11.719 5.625-2.2969 2.5312-3.75 5.8125-4.0781 9.4219 0.09375 0.75 0.1875 1.5 0.1875 2.25 0.046875 0.70312 0.046875 1.4062 0 2.1094zm43.781 0c0.60938 3.4219 2.3906 6.375 4.8281 8.6719 2.8125 2.625 6.6094 4.2188 10.734 4.125 4.1719 0.046874 7.875-1.5938 10.641-4.2656 2.8594-2.7188 4.8281-6.375 4.9688-10.641 0.1875-4.4062-1.2656-8.5312-4.0312-11.531-2.9062-3.2344-6.8906-5.4844-11.578-5.7188v-0.046876c-4.6406 0.1875-8.7188 2.3906-11.672 5.625-2.3438 2.5312-3.75 5.8125-4.0781 9.4219 0.09375 0.75 0.14062 1.5 0.1875 2.25zm43.781 0c0.60938 3.4219 2.3906 6.375 4.8281 8.6719 2.7656 2.625 6.5625 4.2188 10.734 4.125 4.125 0.046874 7.875-1.5938 10.641-4.2656 2.8125-2.7188 4.8281-6.375 4.9688-10.641 0.1875-4.4062-1.2656-8.5312-4.0312-11.531-2.9062-3.2344-6.9375-5.4844-11.578-5.7188v-0.046876c-4.6875 0.1875-8.7656 2.3906-11.672 5.625-2.3438 2.5312-3.75 5.8125-4.0781 9.4219 0.09375 0.75 0.14062 1.5 0.1875 2.25zm43.734 0c0.60938 3.4219 2.4375 6.375 4.8281 8.6719 2.8125 2.625 6.6094 4.2188 10.781 4.125 4.125 0.046874 7.875-1.5938 10.641-4.2656 2.8125-2.7188 4.7812-6.375 4.9219-10.641 0.23438-4.4062-1.2656-8.5312-3.9844-11.531-2.9062-3.2344-6.9375-5.4844-11.578-5.7188v-0.046876c-4.6875 0.1875-8.7656 2.3906-11.719 5.625-2.2969 2.5312-3.75 5.8125-4.0312 9.4219 0.046875 0.75 0.14062 1.5 0.14062 2.25 0.046875 0.70312 0.046875 1.4062 0 2.1094zm43.781 0c0.60938 3.4219 2.4375 6.375 4.8281 8.6719 2.8125 2.625 6.6094 4.2188 10.781 4.125 4.125 0.046874 7.875-1.5938 10.594-4.2656 2.3906-2.25 4.1719-5.2031 4.7344-8.5312v-2.1094c0.046875-0.75 0.09375-1.5 0.1875-2.25-0.28125-3.5625-1.6875-6.7969-3.9844-9.2812-2.9062-3.2344-6.8906-5.4844-11.531-5.7188v-0.046876c-4.6875 0.1875-8.7656 2.3906-11.719 5.625-2.2969 2.5312-3.75 5.8125-4.0781 9.4219 0.09375 0.75 0.1875 1.5 0.1875 2.25 0.046875 0.70312 0.046875 1.4062 0 2.1094zm-307.69-197.72c0.60938 3.4219 2.3906 6.4219 4.8281 8.6719 2.8125 2.6719 6.6094 4.2188 10.734 4.125 4.1719 0.046875 7.875-1.5938 10.641-4.2188 2.8594-2.7188 4.8281-6.4219 4.9688-10.641 0.1875-4.4062-1.2656-8.5312-4.0312-11.578-2.9062-3.1875-6.8906-5.4375-11.578-5.7188v-0.046875c-4.6406 0.23438-8.7188 2.4375-11.672 5.625-2.3438 2.5312-3.75 5.8594-4.0781 9.4219 0.09375 0.75 0.14062 1.5 0.1875 2.2969 0.046875 0.70312 0 1.4062 0 2.0625zm43.781 0c0.60938 3.4219 2.3906 6.4219 4.8281 8.6719 2.7656 2.6719 6.6094 4.2188 10.734 4.125 4.125 0.046875 7.875-1.5938 10.641-4.2188 2.8125-2.7188 4.8281-6.4219 4.9688-10.641 0.1875-4.4062-1.2656-8.5312-4.0312-11.578-2.9062-3.1875-6.9375-5.4375-11.578-5.7188v-0.046875c-4.6875 0.23438-8.7656 2.4375-11.672 5.625-2.3438 2.5312-3.75 5.8594-4.0781 9.4219 0.09375 0.75 0.14062 1.5 0.1875 2.2969zm43.734 0c0.60938 3.4219 2.4375 6.4219 4.8281 8.6719 2.8125 2.6719 6.6094 4.2188 10.781 4.125 4.125 0.046875 7.875-1.5938 10.641-4.2188 2.8125-2.7188 4.8281-6.4219 4.9219-10.641 0.23438-4.4062-1.2656-8.5312-3.9844-11.578-2.9062-3.1875-6.9375-5.4375-11.578-5.7188v-0.046875c-4.6875 0.23438-8.7656 2.4375-11.672 5.625-2.3438 2.5312-3.7969 5.8594-4.0781 9.4219 0.046875 0.75 0.14062 1.5 0.1875 2.2969 0 0.70312 0 1.4062-0.046875 2.0625zm43.781 0c0.60938 3.4219 2.4375 6.4219 4.8281 8.6719 2.8125 2.6719 6.6094 4.2188 10.781 4.125 4.125 0.046875 7.875-1.5938 10.641-4.2188 2.8125-2.7188 4.7812-6.4219 4.9219-10.641 0.1875-4.4062-1.2656-8.5312-4.0312-11.578-2.9062-3.1875-6.8906-5.4375-11.531-5.7188v-0.046875c-4.6875 0.23438-8.7656 2.4375-11.719 5.625-2.2969 2.5312-3.75 5.8594-4.0781 9.4219 0.09375 0.75 0.1875 1.5 0.1875 2.2969 0.046875 0.70312 0.046875 1.4062 0 2.0625zm43.781 0c0.60938 3.4219 2.3906 6.4219 4.8281 8.6719 2.7656 2.6719 6.6094 4.2188 10.734 4.125 4.125 0.046875 7.875-1.5938 10.641-4.2188 2.8594-2.7188 4.8281-6.4219 4.9688-10.641 0.1875-4.4062-1.2656-8.5312-4.0312-11.578-2.9062-3.1875-6.8906-5.4375-11.578-5.7188v-0.046875c-4.6406 0.23438-8.7188 2.4375-11.672 5.625-2.3438 2.5312-3.75 5.8594-4.0781 9.4219 0.09375 0.75 0.14062 1.5 0.1875 2.2969zm43.734 0c0.65625 3.4219 2.4375 6.4219 4.875 8.6719 2.7656 2.6719 6.5625 4.2188 10.734 4.125 4.125 0.046875 7.875-1.5938 10.641-4.2188 2.8125-2.7188 4.8281-6.4219 4.9219-10.641 0.23438-4.4062-1.2188-8.5312-3.9844-11.578-2.9062-3.1875-6.9375-5.4375-11.578-5.7188v-0.046875c-4.6875 0.23438-8.7656 2.4375-11.672 5.625-2.3438 2.5312-3.7969 5.8594-4.0781 9.4219 0.09375 0.75 0.14062 1.5 0.1875 2.2969 0 0.70312 0 1.4062-0.046875 2.0625zm43.781 0c0.60938 3.4219 2.4375 6.4219 4.8281 8.6719 2.8125 2.6719 6.6094 4.2188 10.781 4.125 4.125 0.046875 7.875-1.5938 10.641-4.2188 2.8125-2.7188 4.7812-6.4219 4.9219-10.641 0.1875-4.4062-1.2656-8.5312-3.9844-11.578-2.9062-3.1875-6.9375-5.4375-11.578-5.7188v-0.046875c-4.6875 0.23438-8.7656 2.4375-11.719 5.625-2.2969 2.5312-3.75 5.8594-4.0781 9.4219 0.09375 0.75 0.1875 1.5 0.1875 2.2969 0.046875 0.70312 0.046875 1.4062 0 2.0625zm-239.39-43.266c0.60938 3.4219 2.3906 6.4219 4.8281 8.6719 2.8125 2.6719 6.6094 4.2188 10.734 4.125 4.125 0.046875 7.875-1.5938 10.641-4.2188 2.8594-2.7188 4.8281-6.4219 4.9688-10.641 0.1875-4.4062-1.2656-8.5312-4.0312-11.578-2.9062-3.1875-6.8906-5.4375-11.578-5.6719v-0.09375c-4.6406 0.23438-8.7188 2.4375-11.672 5.625-2.3438 2.5781-3.75 5.8594-4.0781 9.4688 0.09375 0.75 0.14062 1.5 0.1875 2.25zm43.734 0c0.65625 3.4219 2.4375 6.4219 4.8281 8.6719 2.8125 2.6719 6.6094 4.2188 10.781 4.125 4.125 0.046875 7.875-1.5938 10.641-4.2188 2.8125-2.7188 4.8281-6.4219 4.9688-10.641 0.1875-4.4062-1.2656-8.5312-4.0312-11.578-2.9062-3.1875-6.9375-5.4375-11.578-5.6719v-0.09375c-4.6875 0.23438-8.7656 2.4375-11.672 5.625-2.3438 2.5781-3.7969 5.8594-4.0781 9.4688 0.09375 0.75 0.14062 1.5 0.1875 2.25 0 0.70312 0 1.4062-0.046875 2.0625zm43.781 0c0.60938 3.4219 2.4375 6.4219 4.8281 8.6719 2.8125 2.6719 6.6094 4.2188 10.781 4.125 4.125 0.046875 7.875-1.5938 10.641-4.2188 2.8125-2.7188 4.7812-6.4219 4.9219-10.641 0.1875-4.4062-1.2656-8.5312-3.9844-11.578-2.9062-3.1875-6.9375-5.4375-11.578-5.6719v-0.09375c-4.6875 0.23438-8.7656 2.4375-11.719 5.625-2.2969 2.5781-3.75 5.8594-4.0781 9.4688 0.09375 0.75 0.1875 1.5 0.1875 2.25 0.046875 0.70312 0.046875 1.4062 0 2.0625zm43.781 0c0.60938 3.4219 2.4375 6.4219 4.8281 8.6719 2.8125 2.6719 6.6094 4.2188 10.781 4.125 4.125 0.046875 7.8281-1.5938 10.594-4.2188 2.8594-2.7188 4.8281-6.4219 4.9688-10.641 0.1875-4.4062-1.2656-8.5312-4.0312-11.578-2.9062-3.1875-6.8906-5.4375-11.531-5.6719v-0.09375c-4.6875 0.23438-8.7656 2.4375-11.719 5.625-2.2969 2.5781-3.75 5.8594-4.0781 9.4688 0.09375 0.75 0.14062 1.5 0.1875 2.25 0.046875 0.70312 0.046875 1.4062 0 2.0625zm43.781 0c0.60938 3.4219 2.3906 6.4219 4.8281 8.6719 2.7656 2.6719 6.6094 4.2188 10.734 4.125 4.125 0.046875 7.875-1.5938 10.641-4.2188 2.8594-2.7188 4.8281-6.4219 4.9688-10.641 0.1875-4.4062-1.2656-8.5312-4.0312-11.578-2.9062-3.1875-6.9375-5.4375-11.578-5.6719v-0.09375c-4.6875 0.23438-8.7656 2.4375-11.672 5.625-2.3438 2.5781-3.75 5.8594-4.0781 9.4688 0.09375 0.75 0.14062 1.5 0.1875 2.25zm43.734 0c0.65625 3.4219 2.4375 6.4219 4.8281 8.6719 2.8125 2.6719 6.6094 4.2188 10.781 4.125 4.125 0.046875 7.875-1.5938 10.641-4.2188 2.8125-2.7188 4.8281-6.4219 4.9219-10.641 0.23438-4.4062-1.2656-8.5312-3.9844-11.578-2.9062-3.1875-6.9375-5.4375-11.578-5.6719v-0.09375c-4.6875 0.23438-8.7656 2.4375-11.672 5.625-2.3438 2.5781-3.7969 5.8594-4.0781 9.4688 0.09375 0.75 0.14062 1.5 0.1875 2.25 0 0.70312 0 1.4062-0.046875 2.0625zm-401.11 458.68v-0.046874c-4.6875 0.1875-8.7188 2.4375-11.672 5.625-2.8125 3.0469-4.3125 7.2188-4.125 11.719 0.14062 4.2656 2.1562 8.0156 5.0625 10.734 2.7656 2.6719 6.6094 4.2188 10.734 4.125 4.125 0.046876 7.875-1.5938 10.641-4.2656 2.8594-2.7188 4.8281-6.375 4.9688-10.594 0.1875-4.4531-1.2656-8.5312-4.0312-11.578-2.9062-3.1875-6.8906-5.4844-11.578-5.7188zm130.92-434.76v-0.046875c-4.6875 0.23438-8.7656 2.4375-11.719 5.625-2.7656 3.0938-4.3125 7.2188-4.125 11.719 0.14062 4.2656 2.1562 8.0156 5.0625 10.734 2.8125 2.6719 6.6094 4.2188 10.781 4.125 4.125 0.046875 7.875-1.5938 10.641-4.2188 2.8125-2.7188 4.7812-6.4219 4.9219-10.641 0.1875-4.4062-1.2656-8.5312-4.0312-11.578-2.8594-3.1875-6.8906-5.4375-11.531-5.7188zm23.203-43.219v-0.09375c-4.6875 0.23438-8.7656 2.4375-11.719 5.625-2.8125 3.0938-4.3125 7.2656-4.125 11.719 0.14062 4.2656 2.1562 8.0156 5.0625 10.734 2.8125 2.6719 6.6094 4.2188 10.781 4.125 4.125 0.046875 7.875-1.5938 10.641-4.2188 2.8125-2.7188 4.7812-6.4219 4.9219-10.641 0.1875-4.4062-1.2656-8.5312-4.0312-11.578-2.9062-3.1875-6.8906-5.4375-11.531-5.6719zm236.48-321.61s10.828 15.469 18.047 32.297c3.75 8.6719 6.3281 17.766 6.5625 25.359 0.1875 20.062-14.203 30.141-28.453 30.094-14.062-0.09375-28.359-10.078-28.312-30v-0.09375c0.1875-7.5469 2.8125-16.594 6.5156-25.312 7.1719-16.781 17.906-32.344 17.859-32.344 0.84375-1.3125 2.2969-2.0625 3.8906-2.0625 1.5469 0 3.0469 0.75 3.8906 2.0625zm-3.9375 12c-3.1875 6-7.6406 15.094-11.016 24.516-2.625 7.3594-4.5938 14.906-4.4531 21.047 0.375 10.875 7.9219 16.172 15.609 16.172 7.5938 0 15.047-5.3438 15.188-16.078 0.14062-6.2344-1.8281-13.734-4.4062-21.047-3.375-9.4688-7.8281-18.609-10.922-24.609zm-76.969-51.141s10.828 15.469 18.047 32.297c3.75 8.7188 6.375 17.766 6.6094 25.359 0.1875 20.062-14.25 30.141-28.453 30.094-14.062-0.09375-28.406-10.031-28.312-30v-0.09375c0.1875-7.5469 2.8125-16.594 6.5156-25.312 7.1719-16.781 17.906-32.344 17.859-32.344 0.84375-1.2656 2.2969-2.0625 3.8906-2.0625 1.5469 0 3 0.79687 3.8438 2.0625zm-3.9375 12c-3.1406 6-7.5938 15.094-10.969 24.562-2.6719 7.3125-4.6406 14.859-4.4531 21 0.32812 10.875 7.9219 16.219 15.562 16.172 7.5938 0 15.094-5.3438 15.188-16.078 0.1875-6.1875-1.7812-13.688-4.3594-21.047-3.375-9.4688-7.8281-18.609-10.969-24.609zm-80.391 27.141s10.828 15.469 18.047 32.297c3.75 8.6719 6.3281 17.766 6.5625 25.359 0.1875 20.062-14.25 30.141-28.453 30.094-14.062-0.09375-28.359-10.078-28.312-30v-0.09375c0.1875-7.5469 2.8125-16.594 6.5156-25.312 7.1719-16.781 17.906-32.344 17.859-32.344 0.84375-1.3125 2.2969-2.0625 3.8906-2.0625 1.5469 0 3.0469 0.75 3.8906 2.0625zm-3.9375 12c-3.1875 6-7.6406 15.094-11.016 24.516-2.625 7.3594-4.5938 14.906-4.4531 21.047 0.375 10.875 7.9219 16.172 15.609 16.172 7.5938 0 15.047-5.3438 15.188-16.078 0.14062-6.2344-1.8281-13.734-4.4062-21.047-3.375-9.4688-7.8281-18.609-10.922-24.609z" fill-rule="evenodd"/>
</svg>
