<?xml version="1.0" encoding="UTF-8"?>
<svg width="1200pt" height="1200pt" version="1.1" viewBox="0 0 1200 1200" xmlns="http://www.w3.org/2000/svg">
 <path d="m804.28 218.06c-3.0938 2.6719-6.5156 3.8906-9.4219 3.6094-6.1875-0.42188-7.4531-4.6875-8.1094-4.4062-0.28125 0.046875-0.32812 1.2188 0.79688 2.8594 1.125 1.5938 3.6094 3.375 7.125 3.7969 4.2656 0.46875 8.0156-1.1719 11.297-3.9375 5.3438-4.5 12.984-15.281 14.719-23.812 2.3438-11.625-4.5-21-12.797-21.422-3.6562-0.32812-6.5625 0.84375-8.1562 2.1094s-2.1094 2.2969-2.1094 2.2969c0.046875 0.046875 0.75-0.89062 2.3906-1.8281 3.2812-1.9688 8.625-1.9219 12.516 0.79688 4.125 2.7656 7.1719 9.5625 5.4844 17.531-0.79688 4.1719-8.8125 18.188-13.734 22.406z"/>
 <path d="m705.32 142.74c-1.5938-0.28125-2.0156 9.8906-3.1875 15.938-4.2188 16.219-4.9688 17.531-7.5469 30.844-0.42188 2.3438-0.375 2.2969 0.51562 0.14062 4.6406-11.906 6.2812-17.016 9.6094-30.516 0.375-2.1094 2.0156-16.219 0.60938-16.406z"/>
 <path d="m683.76 156.56c0.32812 1.875 0.65625 2.8125 0.9375 2.7656 2.25-0.046875-2.5312-13.688 18.141-34.406 28.453-27.516 60.891-37.922 88.828-35.203 8.4375 0.98438 17.766 2.2031 23.484 7.4062 3.9844 3.6562 3.0938 7.2188 5.9062 11.25 3.5625 4.7344 8.4844 5.9062 11.859 8.1562 15.656 9.0469 26.156 26.391 29.344 44.578 3.0469 17.156 0 33.422-4.0312 46.312-4.125 12.984-9.6094 22.875-12.703 30.047-3.5625 7.9688-4.1719 11.062-4.3125 11.438 1.5938-3.5156 2.5781-5.8594 5.25-10.969 5.9062-11.484 25.594-41.25 20.156-77.578-2.9062-19.594-13.969-38.484-31.031-48.469-4.0781-2.4375-8.3906-3.8906-10.172-6.6094-2.7188-3.6562-0.89062-13.5-19.594-18.656-32.438-7.5938-64.453 1.9219-90.234 21.047-15.094 10.969-33.703 30.375-31.828 48.891z"/>
 <path d="m785.81 189.94c-1.4531 1.875-3.5156 5.0156-7.3125 6.5156-4.7344 1.8281-8.9531-0.14062-10.078-5.9531-0.84375-3.6562-1.1719-30.281-3.1875-38.531-2.1094-8.2031-7.3594-11.859-15.703-12.562-6.2344-0.375-30.844 0.84375-32.859 1.125 0 0 1.5469 0.14062 4.3125 0.23438 24.609 0.65625 24.469 0.375 28.359 0.84375 7.3125 0.84375 11.531 3.8438 13.359 11.016 1.875 7.5 2.2031 33.75 3.2812 38.391 1.9219 9.8906 12.234 11.062 18.562 3.6094 2.4375-2.9062 4.4531-7.3125 3.9375-7.5469-0.375-0.23438-1.2656 0.89062-2.6719 2.8594z"/>
 <path d="m702.28 184.26c-1.5 1.5-2.2969 2.5312-1.9219 3 1.2656 1.5469 9.0938-6.7031 13.406-8.625 5.5781-2.8125 14.25 1.2656 10.688-0.84375-3.75-2.2031-7.7344-3.3281-11.766-1.5938-3.1875 1.4531-6.9844 4.8281-10.406 8.0625z"/>
 <path d="m712.22 196.36c-3.9375 1.3125-7.8281 2.0156-7.8281 2.25 0 0.046875 0.9375 0.46875 2.5312 0.70312 7.875 1.1719 16.547-5.5312 15.047-6.9375-1.125-1.1719-3.2344 1.9688-9.75 3.9844z"/>
 <path d="m742.31 298.64c1.875 7.1719 3.2344 12.703 4.4531 12.375 1.3125-0.32812-0.1875-5.8594-1.875-13.031-0.42188-1.5938-0.75-3.2344-1.3594-4.875-1.3125-3.75-4.2656-6.75-10.312-8.0156-2.2969-0.46875-1.0312-0.14062 2.3438 2.1094 4.8281 3.2344 5.3438 5.7656 6.75 11.438z"/>
 <path d="m662.21 180.74c-3.9844-2.6719-8.7188-1.6875-8.7188-1.3125 0 0.09375 0.98438 0.32812 2.3906 0.84375 1.4062 0.51562 3.1406 1.4062 4.7812 2.625 4.7812 3.3281 4.8281 8.25 6.2812 8.0156 1.7344 0 0.65625-6.4688-4.7344-10.172z"/>
 <path d="m649.74 195.24c1.9219 3.8906 5.7656 6.7031 9.9375 7.9688 3.9375 1.2656 14.531 3.6094 17.062 0.375 0.51562-0.60938 0.51562-1.0781 0.23438-1.2656-0.60938-0.375-1.3125 0.42188-3.3281 0.51562-5.5312 0.1875-16.172-2.0156-21.234-6-1.9219-1.4531-3.75-3.8438-2.6719-1.5938z"/>
 <path d="m672.94 189.94c-0.75 5.6719-0.375 7.6875-0.42188 8.1094 0.046875 0 0.1875-0.79688 0.46875-2.1562 2.5781-12.75 10.547-30.094 3.4688-43.922-1.4531-2.8594-3.3281-5.1562-5.1562-6.7031-3.7969-3.1406-6.9375-3.3281-7.0312-2.8125-0.51562 1.6406 15.188 4.6875 11.859 29.016-0.89062 6.9844-2.5781 13.5-3.1875 18.469z"/>
 <path d="m654.94 145.69c-10.453 11.344-19.922 20.859-35.484 21.234-12.656 0.32812-26.812-3.1406-35.672-12.281-6.8438-6.9844-8.2031-13.266-9-12.938-0.32812 0.09375-0.14062 1.6406 0.89062 4.3125 6.5625 16.922 25.641 23.953 43.922 23.578 7.2188-0.14062 14.578-2.4844 20.531-6.6094 16.594-11.156 28.031-35.625 40.5-34.453 3.0469 0.1875 4.4531 1.4531 4.5 1.3594 0 0-0.32812-0.32812-1.0312-0.75-2.7188-1.5469-6.1406-1.5469-9.0938-0.51562-2.1562 0.65625-14.016 10.453-20.062 17.062z"/>
 <path d="m612.84 178.74c0.375-0.98438 0.51562-1.5938 0.51562-1.5938-0.046875 0-0.375 0.46875-0.98438 1.3594-9.2812 12.797-23.484 14.344-32.203 6.1406-2.3906-2.2031-3.3281-3.9844-3.9375-3.7031-1.5469 0.5625 3.3281 10.266 15.188 11.344 9.4688 0.79688 17.953-5.1562 21.422-13.547z"/>
 <path d="m561.28 173.29c4.875-2.8594 8.8594-1.5938 8.8125-1.8281 0 0-0.84375-0.42188-2.4844-0.60938-5.7188-0.65625-11.953 2.9531-13.969 8.9062-1.2656 3.8906-1.0781 8.1562-0.42188 12.422 2.625 15.188 13.594 25.219 24.562 26.766-1.4062 1.5-1.5938 3.2812-1.2656 5.3438 1.2188 7.125 4.125 10.453 11.016 7.9688 0.84375-0.32812 1.7344-0.75 2.5781-1.2188 1.9219 9.6094 9.8438 13.828 18.422 21.422 14.109 12.047 14.391 12.375 16.781 14.062 2.9531 2.2031 13.922 10.453 17.203 12.234 6.75 3.4219 13.781 1.6406 14.625-6.4219 0.375-3.7969-0.23438-7.2188 1.2656-9.7969 1.3594-2.5781 5.7188-3.1875 6.2344-7.0781 0.23438-2.7188-2.4844-4.0312-1.3125-5.3438 0.32812-0.32812 1.0781-0.89062 1.3125-1.6875 0.65625-3.0469-2.8594-4.3125 0.14062-8.4844 1.6406-2.0156 2.9531-2.9062 3.2344-3.1875 5.5312 1.6406 6.1406 1.875 7.7344 1.875 1.9688-0.046875 4.2188-1.6406 4.6875-4.8281 1.7344 3.3281 6 3.8438 10.031 4.8281 3.2812 0.79688 5.4375 1.125 6.2344 0.9375 1.3125 0.375 1.5938 2.0156 1.4531 3.3281-0.046875 1.5938-2.0156 4.9219-0.28125 6.9375 1.0781 1.3125 3.1406 0.79688 1.5469 3.2812-0.65625 0.89062-1.5938 2.3438-1.6875 3.9375-0.28125 3.3281 1.6875 6.7031 5.2031 7.6406 4.0781 1.4062 0.1875 4.9219 2.0156 13.078 2.0156 8.9531 8.9531 13.406 16.688 11.531 6.6094-1.5469 12.281-6.5156 18.047-10.828 7.0781-5.4375 14.109-11.156 20.156-17.484 6.5625-6.9375 9.3281-12.094 8.8594-12.328-1.5-1.125-3.1406 6.9844-30.609 27.75-5.2969 3.9375-11.156 8.9531-17.016 10.312-6.9375 1.6875-11.953-2.7188-13.641-9.5156-1.2188-4.875-0.1875-7.0781-0.32812-9.9844-0.14062-2.4375-1.3125-3.75-3.4688-4.4531-3.0469-0.79688-4.3594-3.1875-4.2656-5.625 0.046875-2.1562 1.9219-3.5625 1.9219-5.4375 0.046875-0.89062-0.75-1.6875-1.3594-1.9219-3.375-1.2188-1.2188-4.5938-1.2656-6.8906 0-1.4062-0.51562-3.1875-1.875-3.4688 1.9688-1.1719-10.406-4.1719-12.328-5.2031-2.4375-1.2656-2.4844-3.6094-1.5938-6.1875 2.6719-7.3594 10.875-13.688 13.547-21.094 1.7812-4.5469 1.0781-6.8438 1.0781-7.2188-0.046875 0-0.14062 0.70312-0.42188 1.9219-2.625 10.547-15.562 17.344-17.203 27.609-1.5-4.6875-4.3125-12.188-8.5312-21.609-1.0312-2.2031-1.0312-2.1562-0.51562 0.1875 5.3438 21.516 7.9219 23.531 6.75 26.484-0.98438 2.5781-2.8594 1.6875-5.4844 1.0312-2.6719-0.65625-12.234-3.375-12.562-2.2031-0.375 1.125 6.8906 3.1406 8.4375 3.5625-3.2344 1.875-6.0469 4.8281-4.9688 8.3438 0.28125 1.0312 0.84375 2.2031 0.5625 3-0.14062 0.42188-0.51562 0.60938-1.0781 1.125-0.60938 0.46875-0.98438 1.6406-0.70312 2.4375 0.51562 1.5469 1.5 2.5781 1.2656 3.6094-0.46875 2.7188-4.5938 3.2812-6.3281 6.2344-2.9062 4.6406-0.32812 11.578-3.6562 14.859-2.2031 2.1562-6.1406 1.8281-9.2812 0.09375-2.9531-1.5469-13.969-9.8438-16.828-11.953-3.5625-2.4844-18.422-15.562-24.094-19.828-5.1094-3.9375-9.5156-7.8281-11.391-14.438 6.7969-5.25 0-14.297-1.125-13.594l-5.9531-0.70312s-0.046875 0-0.046875 0.046875c-0.1875 0-0.75 0.28125-1.4531 0.46875-0.79688 0.32812-1.9688 0.5625-3.3281 1.2656-1.4062-0.42188-3.4219-1.0312-5.8594-2.1094-9.1406-4.0312-15.891-12.703-17.812-23.812-0.65625-3.9844-0.9375-8.0156-0.046875-11.344 0.75-3.2812 3.0938-5.7188 5.4375-7.125z"/>
 <path d="m509.11 218.81c3.5156-1.5938 5.7188-2.0625 5.7188-2.2031 0 0-2.25 0-6.0938 1.1719-18.328 5.7188-28.688 25.734-22.734 46.266 8.3906 28.5 47.109 46.828 69.516 26.531 5.6719-5.1562 9.5625-12.797 9.5625-24.656-0.046875-6.8906-1.4531-7.9219-2.9531-0.28125-1.875 8.625-2.9531 15.328-9.7969 21.328-23.016 19.734-64.359-5.1562-63.422-37.359 0.14062-8.5312 3.3281-15.984 7.6406-21.094 4.1719-5.1562 9.0469-8.1094 12.562-9.7031z"/>
 <path d="m562.31 227.53c-0.09375-0.23438-2.0156-4.1719-2.25-4.0781 1.7344 8.3438 2.625 13.125 2.9531 14.906 2.25 12.328 1.125 19.453 2.5781 19.547 2.1094 0.23438 2.25-18.094-3.2812-30.375z"/>
 <path d="m817.31 359.48c8.7656-4.0312 19.453-6.7031 24.891-13.453 1.5938-2.0156 2.0156-3.3281 1.7812-3.4219-0.32812-0.23438-1.1719 0.70312-3 2.25-15.984 13.219-29.344-0.89062-90.844 63.375-60.141 63-82.172 114.05-105.7 127.78-19.5 11.672-44.719-9.3281-63.375-23.344-33.141-24.281-56.016-40.359-75.422-74.203 1.8281 3.9375 3.8906 8.625 7.6875 14.484 17.297 28.172 50.203 51.375 79.172 73.781 9.8438 7.3125 21.891 15.234 33.984 17.297 1.6875 0.28125 3.4219 0.51562 5.2031 0.51562 27.984 2.0625 45.188-42.375 98.859-106.5 6.6094-4.7344 20.766-16.172 38.344-29.25 31.359-23.344-3.0469 2.5312 60.797-45.328-0.42188 0.28125-20.297 12.422-46.359 31.312-3.2812 2.4844-28.078 20.438-46.312 35.578 5.625-6.5156 11.25-12.75 16.781-18.609 16.031-16.922 42.281-42.469 63.516-52.266z"/>
 <path d="m844.5 310.92c-15.328-0.1875-36.234 1.8281-47.672 12.047-1.0312 0.84375-1.5938 1.3594-1.5469 1.4062 2.4375-1.2188 6.9375-4.0312 14.25-6.2344 18.141-6.0469 41.953-4.125 41.906-6.1875 0-0.65625-2.625-0.9375-6.9375-1.0312z"/>
 <path d="m803.39 330.37c-1.125 0.70312-1.7344 1.125-1.7344 1.1719 9-3.1406 20.25-7.4531 32.766-9.6094 13.172-2.4844 23.625-1.7344 23.625-3.0469 0.23438-2.625-33.656-1.9688-54.656 11.484z"/>
 <path d="m858.98 324.61c-0.046875-2.2969-29.672 0.75-46.828 9.5156-2.1094 1.0781-2.0625 1.0781 0.1875 0.51562 6.3281-1.5938 19.828-4.9688 26.672-6.1875 11.203-2.25 20.062-2.5781 19.969-3.8438z"/>
 <path d="m840.56 336.74c-0.14062-2.2031-17.156 0.32812-26.625 5.25-2.25 1.1719-3.5625 2.0625-3.5156 2.1562s1.5938-0.28125 4.0312-0.84375c2.5312-0.60938 5.8125-1.4531 9.1406-2.25 10.969-2.9062 17.109-2.8594 16.969-4.3125z"/>
 <path d="m153.42 491.86c2.8594-0.09375 5.1562-0.1875 7.7344-0.14062 16.734 0.23438 41.438 5.2031 52.547 17.719 12.562 14.25 0.42188 25.547-3.6562 75-1.3125 16.406-1.9219 32.625 2.9062 47.016 4.6406 14.438 15.469 25.125 27.188 28.922 5.7656 2.0156 12.094 1.875 16.875 0.75 4.7812-1.0312 8.7656-2.2969 12.188-2.625 3.4219-0.42188 6.0469 0.1875 8.0625 1.5 2.0156 1.3594 3.4219 3.1406 4.2188 4.7344 1.6875 3.2344 2.0156 5.3906 2.7188 5.2969 0.60938 0.046875 1.5-2.1562 0.46875-6.5156-0.5625-2.2031-1.8281-4.8281-4.4531-7.2188-2.625-2.4375-7.0781-3.8906-11.344-3.6562-4.3125 0.046875-8.6719 1.125-13.031 1.7344-4.3594 0.70312-8.5781 0.46875-13.125-1.2656-8.9531-3.3281-17.672-12.141-21.234-24.328-5.625-17.766-1.5938-49.828 1.5469-68.297 3.7031-21.609 7.9688-30.656 5.9062-42.375-4.6875-27.703-45.75-37.688-74.297-36.703 0.42188-0.23438 86.953-52.266 156.56-110.67 40.453-34.219 46.266-45.188 87.094-76.594 13.875-10.641 26.953-20.719 38.016-31.172 21.656-20.578 44.016-46.125 52.828-74.531 5.3438 15.094 16.781 24.375 29.016 27.234 7.0312 1.5938 10.922 0.60938 10.875-0.1875 0.23438-2.9531-43.312-4.7344-34.781-60.703 3.0469-18.469 7.875-31.969 22.406-44.625 21.984-19.453 49.031-21.891 65.859-13.359 11.391 5.3906 17.438 15.328 20.203 18.422l2.2031-5.5781c4.2656-10.828 16.406-16.5 28.266-16.312 10.969 0.1875 20.109 5.7656 26.484 11.109 12.516 10.734 20.109 26.531 16.828 19.312-0.51562-1.125-1.3125-2.8125-2.4844-4.9219-2.3438-4.1719-6-10.266-12.234-16.594-21.375-21.328-49.359-16.266-60.562-0.046875-4.6406-5.25-6.2344-6.1406-9.75-8.9062-1.7812-1.125-3.5625-2.3438-5.4844-3.2812-2.8594-1.5938-8.5312-3.7031-12.141-4.4531-2.1094-0.5625-4.3125-0.79688-6.4688-1.0781-30.516-2.625-61.359 16.688-73.594 43.266-6.8438 15.422-11.109 40.781-5.0156 59.438-6.3281 16.266-16.078 30.422-27.422 43.312-22.875 25.828-43.359 40.5-67.406 57.75-42.422 30.562-43.969 37.688-89.156 74.812-70.828 57.75-153.66 108.23-156.84 110.06-5.5312 3.0938-6.75 10.875-2.0625 15.844 1.9688 1.9688 4.9688 3.0469 7.5469 2.9062z"/>
 <path d="m147.98 473.02c0.046875 0 0.046875-0.046875 0.09375-0.09375-0.28125 0.1875-0.28125 0.1875-0.09375 0.09375z"/>
 <path d="m735.66 322.31c-6.5625 6.5625-7.5 17.062-7.7344 26.531-0.046875 2.3438 0 3.8906 0.1875 4.5-4.0781 3.7969-8.25 7.7344-12.422 11.812-0.79688-1.6406-4.4062-4.8281-10.266-8.8594-28.312-19.594-66.75-33.562-93.609-35.859-2.6719-0.28125-4.1719-0.32812-4.2188-0.23438 37.734 12.047 57.938 17.766 95.391 39.844 5.6719 3.3281 9.6562 5.6719 11.578 6.1406-15.375 15.047-28.547 29.109-43.312 46.5-0.98438-7.3594-6.5625-18.094-10.781-24.375-5.6719-8.5312-16.031-20.109-23.297-27.234-10.453-10.266-22.922-19.828-35.203-28.031-1.0781-0.70312-1.875-1.2188-2.4844-1.5938-0.32812-0.1875-0.51562-0.32812-0.70312-0.42188 0.79688-10.875 2.9531-22.359 8.5312-31.734 5.8125-10.031 15.656-18.938 28.219-20.906 2.0625-0.23438 3.2344-0.32812 3.2344-0.375-0.46875 0.09375-11.109-2.1094-23.484 7.9688-15.422 12.375-19.078 32.953-19.172 52.734 0.046875 6.8906 0.42188 11.062 1.0312 11.016 0.70312 0 0.89062-4.1719 1.1719-10.969 0.09375-2.25 0.23438-4.875 0.42188-7.6406 0.42188 0.32812 1.3594 1.1719 2.8125 2.3906 11.156 9.1406 22.031 17.953 33.656 29.484 29.344 28.828 31.688 43.922 35.203 50.578-22.125 26.156-25.453 33.984-35.531 40.266-4.125 2.5312-8.9531 3.8438-13.5 2.9531-8.7656-1.5-15.562-10.078-21.047-16.828-27.375-34.219-33.234-44.953-48.797-69.047 0.51562 0.79688 14.484 27.141 39.141 59.906 5.8125 7.6406 12.844 16.734 17.297 20.953 8.5312 8.0156 18.094 10.406 28.219 4.1719 13.828-8.4844 17.391-21.516 58.641-65.953 22.969-24.562 48.188-48 75-69.375 5.25-4.0781 12.562-11.297 18.609-8.625-1.4531 7.1719-4.125 12.469-6.0938 15.938-2.1094 3.5625-3.5156 5.3438-3.3281 5.4844 0.14062 0.1875 1.875-1.3594 4.3125-4.8281 4.4062-6.4219 6.1406-12.469 6.8906-15.562 0.70312 2.2969 0.42188 5.1562 0 7.5938 21-9.8906 44.906-13.453 67.875-10.078-5.8594-10.828-10.734-22.219-14.531-33.938 0.14062 0.046875 0.28125 0.046875 0.375-0.046875 0.51562-0.32812 0.28125-1.2188-0.14062-2.5312 0.375-0.14062 0.60938-0.23438 0.60938-0.23438s-0.28125 0.046875-0.65625 0.14062c-1.2656-3.9375-1.9219-6.7031-1.8281-11.719 0.14062-5.9531 0.23438-11.438-0.046875-11.438-0.5625-0.09375-5.3906 14.297-0.23438 23.672-30.516 7.1719-55.5 18.516-80.391 31.922-6.0938 3.375-20.625 11.625-25.594 15.938zm-6.9375 30.422c0.28125-0.98438 0.46875-2.2969 0.65625-3.7031 0.60938 1.1719 1.6875 1.0781 3.0469 0.32812-1.3125 1.1719-2.5781 2.3438-3.7031 3.375zm113.2-78.047c0.09375 0.1875 0.1875 0.28125 0.28125 0.42188-3.6094 0.98438-7.1719 2.0156-10.734 3.0938 3.375-1.125 6.8438-2.2969 10.453-3.5156zm-54.469 34.828c-1.7344-0.32812-4.2188-0.14062-7.5469 1.3594 2.4375-1.4062 5.1562-2.4375 7.5469-1.3594z"/>
 <path d="m875.48 332.63c13.125 13.125 30.281 23.812 35.672 41.156 4.0312 12.469 2.0156 27.422 1.0312 43.125-2.25 31.219-4.7344 65.297-14.109 98.672-7.9219 29.625-24.094 57.047-34.547 87.375-25.5 71.766-22.969 131.48-6.2812 177.47 16.875 46.641 47.906 71.719 38.062 55.641-12.75-20.109-21.516-33.938-29.625-58.547-18.516-55.969-12.328-115.08 7.8281-171 5.1562-14.672 11.438-28.781 17.906-43.219 22.828-51.047 26.812-82.594 29.578-145.87 0.5625-15.75 2.1094-31.969-2.9531-45.938-8.625-24.047-34.219-33.422-49.922-53.109-17.438-21.141-19.734-40.875-20.531-40.781 2.3906 18.656 11.766 39.047 27.891 55.031z"/>
 <path d="m353.48 648.32c0.42188 0.42188 5.6719-5.0156 13.875-16.172 10.172-13.922 17.062-26.438 22.453-39.188 40.359-1.6406 78.188-12.281 115.27-25.922 44.531-16.922 79.922-35.906 80.344-36.094-33.938 14.953-60.562 27.234-99.797 39.562 8.1094-36.844-13.266-70.453-25.688-125.68 10.5 6.6562 26.109 3.1875 34.219-6.0469 2.1094-2.4375 2.7656-4.3125 2.2969-4.5938-1.6875-1.125-4.875 8.0156-19.5 11.156-8.3906 1.5938-13.125 0.14063-17.062-0.75-6.6562-29.812-12.609-67.641 5.9062-92.859 6.3281-8.9062 15.188-14.953 29.109-25.781 17.719-13.828 28.219-22.547 27.422-23.484-0.75-1.125-12 6.6094-30.094 19.922-19.781 14.719-34.031 23.156-40.828 48.516-2.2031 8.25-3.1875 17.062-3.2344 26.016 0 29.25 10.5 68.297 20.859 95.953 9.9844 27 19.312 50.156 16.453 77.672-30.328 9.4688-61.922 16.359-93.562 17.578 15.422-40.453 11.766-86.156-20.719-115.92-62.25-55.547-132.79 42.188-65.953 99.422 22.266 18.469 51.141 22.078 80.062 21.469-4.5 10.875-10.078 21.797-20.203 37.359-7.7344 11.438-12.234 17.484-11.625 17.859zm-45-80.766c-61.406-52.594 2.0156-142.26 59.109-91.5 31.125 28.453 34.5 72.328 19.453 112.22-27.844 0.5625-56.906-2.625-78.562-20.719z"/>
 <path d="m451.4 639.61c50.578 12.328 106.22-3 155.29-17.859 7.0312-2.1094 59.203-18.656 67.547-21.609 50.203-17.859 94.734-40.781 125.81-59.719 25.031-15.188 55.312-36.609 48.375-32.953-11.672 6.375-22.125 13.031-51.094 28.078-66.656 34.641-122.44 54.562-193.74 76.078-56.625 17.531-109.5 31.406-167.02 17.109-4.4531-1.0312-7.9219-1.875-10.266-2.3906-10.406-2.0156 0.14062 7.0781 25.078 13.266z"/>
 <path d="m1032.1 732.56c20.109 64.828-22.5 133.69-90.844 150.28-14.344 3.1406-6 1.8281-23.766 4.3125-104.72 10.453-195.32-88.828-234.24-186.37-13.312-33.281-18.047-57.609-21.609-87.656 0.046875 0.46875 0.09375 20.156 4.6875 41.766 10.922 56.859 43.031 121.36 86.859 168.24 55.406 59.297 114.33 78.422 165.24 73.969 4.2188-0.5625 8.4844-1.125 12.703-1.6406 29.578-5.4844 56.906-17.156 80.625-41.812 36-37.219 43.734-89.156 28.406-130.18 37.688-46.547 56.812-125.21 35.203-198.32-1.8281-5.8594-3.5156-11.016-5.3906-15.375-1.7344-4.3594-3.2812-8.0156-4.8281-10.828-2.9531-5.6719-4.7344-8.4844-5.25-8.1562-1.1719 0.42188 1.9219 8.3438 5.5781 20.531 3.9375 11.812 9.3281 36 10.594 58.453 3.0938 53.812-13.172 107.16-40.359 143.26-14.625-30.094-44.344-53.484-77.672-44.906-29.438 8.0625-44.859 36.422-29.156 64.359 20.906 35.531 70.266 33.656 103.22 0.09375zm-98.953-25.125c1.1719-14.578 13.359-25.312 27.609-29.156 29.625-7.4531 55.688 16.125 67.406 43.828-25.688 28.172-57 31.453-75.984 19.969-11.578-6.9375-20.25-20.859-19.031-34.641z"/>
 <path d="m159.14 882.84c-12 34.359-25.031 61.125-22.688 62.109 1.1719 0.65625 5.3906-5.2031 11.672-16.875 7.1719-13.312 14.391-29.859 19.734-43.781 18.469 2.1094 36.703-2.0156 54.375-8.2031 36-12.938 60.328-33.047 88.219-59.062 35.953-33.938 38.109-35.109 68.719-72.234 53.953-65.906 68.953-82.312 72.328-100.5 0.79688-3.7969-0.42188 0.375-1.9219 3.9844-7.4062 17.578-18.562 27.328-75.984 91.734-31.688 35.625-30.703 34.078-69.938 69.656-27.094 24.422-50.672 44.062-84.984 56.438-15.141 5.3438-31.266 9.1406-47.156 7.9688 4.1719-12.75 6.5625-25.641 3.2344-38.578-5.3906-20.906-21.938-30.984-38.531-27.609-33.656 6.75-26.297 63.328 22.922 74.953zm-28.922-60.797c4.5-4.4531 11.766-5.4375 17.484-3.9844 9.1875 2.2031 15.188 10.734 17.672 19.969 3.1875 11.859 0.46875 24.047-2.8594 34.781-33.562-7.2188-43.641-39.328-32.297-50.766z"/>
 <path d="m563.63 387.79c18.469 22.688 39.469 47.297 63.984 31.359 6-4.1719 3.1406-2.4375 6.8438-5.625 0.51562-0.5625 3.1875-3.7969 3.6094-4.3125 1.7812-2.8125 1.0312-1.5938 2.8594-4.5469 1.3594-2.9531 2.2969-4.7344 2.8594-7.0312 0.46875-1.5469 0.98438-3.0469 1.0781-4.5938 0.51562-4.875 0.5625-1.125 0.32812-8.4375-0.09375-1.0781-1.0312-5.3906-1.7344-6.7031-0.9375-1.8281-1.4531-3.5156-2.5312-4.5-3.8906-4.6406-4.6875-3-2.5781 1.4531 0.65625 1.0781 0.84375 2.6719 1.4531 4.2656 0.32812 0.79688 0.46875 1.7344 0.5625 2.7188 0.375 3.4219 0.46875 0.51562 0.32812 6.5625 0 1.2188-0.375 2.4375-0.5625 3.75-0.09375 1.0781-1.1719 4.9688-2.6719 7.9688-1.2188 2.5312-0.46875 1.2656-3.5625 6.0469-0.23438 0.28125-2.9062 3.4688-3.1875 3.75-3.375 2.8594-0.60938 1.0781-5.9531 4.7812-20.578 13.312-38.859-8.3438-58.219-24.984-2.25-1.9219-3.5625-2.9531-3.6094-2.8594 0 0 0.23438 0.32812 0.70312 0.9375z"/>
 <path d="m195.19 974.34c0.28125-1.4531 0.32812-2.25 0.32812-2.25-0.1875-0.09375-0.375 3.1406-3.6562 7.8281-4.5938 6.375-12.094 10.828-19.031 15.938-17.953 13.734-16.219 28.969-6.5156 35.109 11.906 7.6406 26.25 1.5 37.312 5.2969 6.0469 2.1094 5.8125 3.8438 5.1094 7.0312-2.1094 8.7656-12.703 15.234-14.391 26.391-0.9375 6.375 1.7812 12.75 6 17.203 10.547 11.766 27.656 10.266 42.984 7.6875 66.141-10.594 132.28-65.344 192.66-54.328 52.781 9.4688 37.969 68.484 122.9 75.281 60.469 4.5469 113.67-29.625 150.19-41.766 66.984-23.438 141.24 17.203 204-26.953 8.25-5.7656 13.641-11.484 16.875-15.609 3.2344-4.125 4.2656-6.7031 3.7969-6.9375-0.5625-0.51562-2.4844 1.3594-6.2812 4.6406-69.375 60.188-143.44 8.9531-221.53 35.25-37.781 12.469-89.016 45.328-146.26 40.828-17.438-1.4062-35.672-5.9062-49.641-16.172-24.422-17.859-30.562-51.234-72.141-58.969-51.891-9.2344-106.97 25.734-153.61 44.109-16.312 6.4688-49.266 17.344-66.422 14.438-11.578-1.875-17.906-10.781-17.109-17.812 0.89062-8.5781 11.156-15.609 13.406-26.016 0.23438-1.3594 0.51562-2.7188 0.375-4.3594-0.09375-1.5938-0.9375-3.6094-2.1094-4.7812-8.2969-8.25-25.078-4.0781-33.609-4.7812-14.719-1.0312-18.938-10.172-15.188-19.359 6.7969-16.641 27.375-20.859 31.547-36.938z"/>
 <path d="m399.79 387.94c4.4062-16.828 15.797-22.688 28.688-35.391 32.766-31.453 50.531-64.781 48.375-65.859-2.7188-1.6406-18.047 29.859-52.078 62.062-14.203 13.781-25.828 20.203-29.859 37.969-3.2344 13.594-2.1562 26.25-14.531 39.188-5.2969 5.5781-10.969 8.7656-15.047 10.547-4.7812 2.0625-9.1406 2.9062-4.7344 2.25 6.1875-0.84375 14.719-4.4531 21.703-10.781 14.25-12.938 14.016-27.094 17.484-39.984z"/>
 <path d="m400.97 1013.6c-0.79688 1.3125-1.2188 2.0625-1.1719 2.0625 3.75-4.7344 10.031-12.188 20.062-27.281 0.28125-0.42188 12-18.234 18.609-30.891 24.188-43.781 44.578-99.797 59.672-147.61 5.7188-18.281 8.7188-29.484 7.5469-29.812-5.2969-2.0156-40.547 137.06-101.11 227.76-1.5469 2.4844-2.7656 4.4531-3.6094 5.7656z"/>
 <path d="m674.06 938.11c8.25 23.578 18.281 48.938 22.688 71.719 4.0781 20.578 2.7656 31.969 3.2344 32.016 0.046875-7.3125 4.5-23.766-8.0156-66.281-5.4375-18.562-15.188-45.609-25.594-75.609-19.125-54.234-33.844-96.328-36.141-95.391-2.0156 0.60938 3.2812 17.625 43.828 133.55z"/>
</svg>
