<?xml version="1.0" encoding="UTF-8"?>
<svg width="1200pt" height="1200pt" version="1.1" viewBox="0 0 1200 1200" xmlns="http://www.w3.org/2000/svg">
 <path d="m493.36 475.36c33.844-0.75 56.297-15.188 62.719-24.797 39.844-46.969 3.4688-142.74-81-213.74-84.281-71.203-184.69-90.422-224.34-43.5-72 87 102.09 284.34 242.63 282.05zm-241.97-260.81c106.73-22.688 280.08 112.36 292.87 231.47-14.016 12.609-32.391 16.922-51.141 17.344-120.66 3.5156-275.44-158.44-241.74-248.81z"/>
 <path d="m459.37 924.05c3.1406 1.7812 7.7344 0.51562 8.7188-3.8906 22.406 36.797 81.562 90.984 98.484 100.69 83.766 46.875 204.71 10.078 287.34-40.453 11.391 5.7656 2.4375 3.9844 102.14-15.797 8.25-1.7344 15.188-7.875 18.094-16.125l27.656-84.375c2.5781-7.3125 1.125-15.328-3.375-21.656 49.359-75.844 63.422-156.1 40.312-232.5-2.7188-9.0938-6.8438-14.906-10.359-20.109 0.046876-0.32812 0.14063-0.60938 0.14063-0.98438-8.25-124.45-73.359-196.5-217.6-240.98-40.312-12.562-81.891-25.547-117.47-48.844 32.062-28.125 54.141-71.016 61.031-119.02 20.484-144.37-129.14-104.53-144.1-15.094-7.0781 42.281 12.562 96.375 63 134.81-24.188 16.969-54.891 27.188-82.594 34.875-17.203-40.219-41.766-74.297-79.219-109.83-80.578-75.562-227.76-140.02-299.76-59.203v0.046875c-22.875 22.453-49.922 64.969-53.25 73.875-22.922 60.188 3.9375 145.13 65.812 216.42-22.828 184.13 73.688 376.5 234.98 468.14zm398.72 39.656-3.8906 2.4375-56.625-63.281c22.594-4.9219 45.047-9.6094 47.016-10.266 3.1406 8.625 6.4688 9.1875 23.812 29.625 1.2188 1.3594 2.625 2.5781 4.125 3.6094zm64.547-128.81c-2.4844-2.7656-5.5781-4.7344-8.8594-6.0938 3.0938-9.9375 11.156-40.5 13.219-48.141 3 2.2969 59.156 65.203 61.828 69.281-4.9219 1.125-46.641 10.734-44.297 10.219-2.25-3.8906-2.1094-2.8594-21.891-25.266zm3.7969 69.188c-1.3125 4.125-4.7812 7.2188-8.9531 8.0625l-28.594 5.8125c-4.2188 0.84375-8.6719-0.5625-11.531-3.75l-19.172-21.516c-3-3.4219-3.9844-7.9219-2.6719-11.953l8.2031-24.562c0.75-1.7344 0.75-5.3438 4.9219-8.7656 4.125-3.5156 10.969-3.2812 33.469-8.3438 4.5-0.89062 8.7656 0.60938 11.578 3.75 29.625 33.984 25.359 19.5 12.75 61.266zm-24.469-76.875c-3.0469 0.32812-30.75 5.2969-36.188 7.9219-8.7188-9.5156-37.219-40.734-35.484-38.859 1.5938-0.32812 90.234-18.75 84.797-17.625-0.42188 1.7344-7.6406 28.875-13.125 48.562zm-48.328-48.047c-24.328 5.7656-28.734 3.9844-36.938 11.016-8.0156 6.8906-7.5938 15-17.625 42.75-64.875 53.531-138.42 83.438-197.48 80.109-17.438-0.70312-34.922-4.9219-50.297-13.875-12.797-149.48 200.95-353.39 361.08-343.6 14.812 20.719 18.047 48.328 14.953 74.016-5.3438 46.641-32.203 101.06-73.688 149.58zm-32.344 25.031 35.344 38.672c-3.5156 4.9219-12.609 33.469-13.266 38.25-2.2969-0.23438 1.3125-0.46875-50.484 10.5 0.23438-3 28.922-89.016 28.406-87.422zm47.062 166.36c1.8281-4.7344 16.359-42.938 15.469-40.594 7.9219 0.89062 6.2344-0.65625 36.141-6.0469 0.60938-0.14062 1.125-0.42188 1.7344-0.60938l22.922 31.406zm88.453-19.359-24.844-34.078c6.8906-7.0312 5.8125-11.625 14.953-37.031 0.42188-1.9688 1.2656-3.3281 1.0312-8.4844l41.953-9.6562c-28.781 82.922-24.234 84.281-33.094 89.25zm70.453-337.78c27.141 89.766-3.9375 167.9-36.844 219.56-18.938-21.094-51.469-57.984-54.75-60.938 54.234-81.609 71.156-164.06 48-223.36 9.1875 11.109 39.469 50.906 43.594 64.734zm-405.05-446.48c12.422-74.109 138.52-116.34 120.42 11.438-6.6562 46.266-28.172 87.375-59.438 113.67-39.047-27.562-68.906-77.719-60.984-125.11zm61.594 140.11c37.5 25.5 81.234 39.141 123.61 52.359 130.74 40.266 193.78 103.78 207.24 210.24-62.297-88.688-128.9-120.79-234.28-94.688-7.7344 1.9219-4.7344 13.594 2.9062 11.625 177.66-43.922 265.55 95.109 141.66 280.08-8.0156-2.8125-24.75 3.9375-52.594 8.625 37.969-47.672 61.734-98.391 66.984-144.28 3.4688-29.25-0.51562-59.344-17.766-82.922 0.46875 0.046875 0.98438 0 1.4531 0.046875-1.3594-2.0156-2.9062-3.75-4.4062-5.5312-53.953-61.031-186.28-31.922-295.45 64.922-114.98 101.67-164.86 249.56-81.281 301.22-0.046875-0.51562-0.046875-1.0312-0.046875-1.5469 7.3594 6.4688 31.969 16.734 59.297 17.859 66.281 3.7969 138.56-31.688 191.34-71.812-8.1094 28.5-16.688 37.453-8.1094 51.984-29.672 19.547-59.812 35.109-89.719 46.031-7.3125 2.6719-3.5156 14.016 4.125 11.297 31.172-11.344 62.484-27.562 93.281-47.953l51.844 57.891c-99.656 59.719-205.5 74.719-271.26 37.922-9.5625-5.5312-40.5-34.219-48.375-41.859 34.922 15.516 72.328 14.156 70.734 13.969 7.9219 0 7.9219-12 0-12-189.24-0.375-176.29-240.94 28.172-402.1 6.2344-4.875-1.1719-14.344-7.4062-9.4219-99.984 78.703-211.74 238.36-151.18 354-153.61-87.75-246.42-269.29-229.13-445.13 75.844 80.203 185.16 127.78 284.34 81.281 3.8438-1.8281 7.5938-4.4062 11.25-7.5938 66.328-59.859 97.828-107.16 64.359-195.79 29.016-8.0625 63.516-19.688 88.406-38.719zm-514.08-63.281c2.2031-5.8594 17.906-29.016 21.375-34.031-2.9531 14.484-3.375 30.375-0.9375 47.391 1.0781 7.8281 12.984 6.1875 11.859-1.6875-5.9062-41.484 7.6406-72.469 21.328-84.469 72.375-70.312 204.74-7.9219 279.94 62.625 37.594 35.672 61.781 69.656 78.375 110.3 67.078 163.08-104.25 223.87-271.22 83.391-35.016-29.625-63.797-64.172-83.25-99.844-3.7969-6.9375-14.344-1.2656-10.547 5.7188 20.156 36.984 49.875 72.703 86.016 103.27 65.953 55.5 173.63 103.83 249.47 68.297-6 6.2812-29.391 29.719-37.688 33.703-178.45 83.625-395.16-162.19-344.72-294.66z"/>
 <path d="m896.76 1113.9c1.9688 2.5781 5.9531 1.5 6.4219-1.6875 3.1875-21.516 15-41.719 32.156-55.078 2.5781-2.0156 1.5-6.0469-1.7812-6.4219-24.938-2.8594-44.672-13.359-58.781-32.203-1.9219-2.5781-5.9062-1.5938-6.4219 1.5938-3.5156 21.047-15.234 40.688-32.156 53.766-2.6719 2.0625-1.5 6.2344 1.9219 6.5156 23.812 1.9688 43.266 13.359 58.641 33.516z"/>
 <path d="m827.02 232.45c24.047 14.672 38.578 36.562 44.25 66.891 1.7344 9.1875 13.641 11.719 18.984 4.0781 14.953-21.234 38.109-36.328 63.609-41.391 9.3281-1.8281 11.672-13.969 3.75-19.172-25.594-16.781-40.453-38.156-45.328-65.484-1.6406-9.1875-13.359-11.859-18.891-4.3594-14.953 20.531-37.875 35.109-62.859 39.984-9.5625 1.875-11.859 14.344-3.5156 19.453zm74.062-49.688c5.8594 27.797 21.656 50.719 47.062 68.203-26.062 6-49.734 21.422-65.719 42.797-6.5156-30.516-22.031-53.953-46.172-69.703 25.5-5.8594 48.797-20.672 64.828-41.297z"/>
</svg>
