<?xml version="1.0" encoding="UTF-8"?>
<svg width="1200pt" height="1200pt" version="1.1" viewBox="0 0 1200 1200" xmlns="http://www.w3.org/2000/svg">
 <path d="m559.63 534.26c-8.6484 11.223-17.914 21.953-27.758 32.141-18.648 19.938-39.449 37.754-62.016 53.121-7.9688 5.7109-16.469 10.625-24.172 16.602v-0.003906c-19.059 13.156-41.113 21.332-64.145 23.773-12.664 2.5625-25.617 3.4141-38.512 2.5234-2.2656-0.54688-4.6562-0.10938-6.582 1.207-1.9219 1.3164-3.1992 3.3867-3.5117 5.6992-5.4453 16.336-11.422 32.535-16.602 48.871-15.406 49.137-30.723 98.363-45.949 147.68-10.359 33.199-19.125 66.402-27.887 100.4-2.125 8.3672-2.125 9.2969 6.1094 14.078v-0.003906c21.527 14.078 42.074 29.609 61.488 46.48 12.453 9.5469 22.848 21.52 30.543 35.195 5.8438 10.094 11.422 20.453 16.602 30.941 5.3164 10.707 4.7656 23.395-1.4609 33.598-10.758 20.586-30.277 26.559-50.465 32.801v0.003906c-18.797 4.1445-38.328 3.5508-56.84-1.7266-29.746-6.375-59.23-13.547-88.445-21.516-11.527-3.6953-22.613-8.6406-33.07-14.738-13.281-7.1719-28.02-13.281-42.098-20.586-9.6953-5.2383-18.449-12.062-25.895-20.188-3.4531-3.5391-7.4375-7.2578-11.953-11.152-21.461-18.398-37.219-42.539-45.418-69.59-3.043-12.336-0.93359-25.375 5.8438-36.121 8.5781-14.785 23.977-24.301 41.035-25.367 35.754-4.4258 72.043-0.83984 106.24 10.492 5.3125 1.5938 10.625 2.6562 15.805 4.3828 5.1797 1.7266 8.3672 0 10.359-5.7109 7.1719-21.336 13.855-42.938 20.055-64.809 14.344-49.535 26.559-99.469 39.84-149.54 4.6484-18.594 7.8359-37.449 11.688-56.176h-0.003907c1.5234-8.8906 4.0664-17.582 7.5703-25.895 1.9922-4.3828 0.66406-7.0391-3.9844-9.0312-14.684-6.4766-27.645-16.301-37.848-28.684-5.1797-5.9766-11.023-11.156-16.336-16.867-12.57-13.871-23.609-29.055-32.934-45.285-12.309-22.863-20.281-47.809-23.508-73.574-3.4961-14.789-5.1484-29.953-4.9141-45.152 1.8594-21.914 2.5234-43.691 5.3125-65.473v0.003906c2.7656-22.488 9.0391-44.398 18.594-64.941 2.7891-6.1094 6.1094-11.82 9.1641-17.664 0-1.0625 1.1953-2.3906 2.125-2.7891 14.609-5.1797 25.895-17 42.23-18.859v0.003906c38.879-4.5898 78.207-3.7852 116.86 2.3906 46.395 9.1328 91.488 23.941 134.27 44.09 19.309 8.4961 37.219 19.871 53.121 33.73 4.8164 5.1055 11.746 7.6602 18.723 6.9062 7.3125-1.0312 14.684 1.4336 19.906 6.6523 5.2227 5.2227 7.6875 12.598 6.6562 19.906-0.50781 4.207 1.0234 8.3984 4.1172 11.289 10.641 11.609 19.582 24.664 26.559 38.777 2.7734 7.0586 5.082 14.289 6.9062 21.648 9.6953-4.25 15.805-13.281 25.496-17.133-2.3906-4.3828-5.8438-5.4453-8.5-7.5703-15.273-11.555-16.336-29.082-1.1953-44.488h0.003906c4.1328-3.1133 9.3945-4.3203 14.473-3.3203 6.0938 0.76563 11.914-2.75 14.078-8.4961 5.5547-9.6758 13.945-17.414 24.039-22.164 10.098-4.75 21.406-6.2852 32.402-4.3984 9.8008 1.8555 18.137 8.2656 22.441 17.266 1.5938 3.0547 2.6562 6.5078 4.1172 10.094 4.7148-0.27734 9.2852-1.7383 13.281-4.25 30.383-11.238 61.918-19.078 94.023-23.375 33.223-5.6016 67.273-3.8359 99.734 5.1797 13.832 3.125 25.277 12.785 30.68 25.898 5.8438 14.344 13.281 28.285 18.859 42.895h-0.003907c7.2773 20.551 11.746 41.996 13.281 63.742 3.1562 29.98 1.6328 60.266-4.5156 89.777-4.6367 21.785-12.141 42.863-22.312 62.68-6.0703 16.086-15.074 30.898-26.559 43.695-9.2969 8.2344-15.672 19.656-26.559 25.363-4.5156 2.125-4.7812 5.5781-2.7891 9.8281 3.7188 7.3047 6.9062 14.875 10.758 22.047l-0.003906-0.003906c9.8516 18.738 18.719 37.977 26.562 57.637 14.344 34.527 30.277 68.527 47.543 101.73l28.551 55.113 4.1172 7.1719c0.60547 1.6328 1.9219 2.9023 3.5781 3.4453 1.6562 0.54297 3.4688 0.30078 4.9219-0.65625 7.9688-3.3203 16.469-5.3125 24.438-8.3672 17.105-6.0117 35.004-9.457 53.121-10.227 20.508-1.5352 40.938 3.8398 58.031 15.273 7.8203 5.3906 13.828 13.016 17.242 21.879 3.4141 8.8594 4.0703 18.547 1.8828 27.789-1.8086 11.238-6.0703 21.938-12.484 31.34-28.016 42.32-67.359 75.91-113.54 96.945-26.41 13.504-53.594 25.434-81.41 35.727-25.09 9.4375-52.664 9.9531-78.086 1.4609-12.375-4.0586-23.125-11.969-30.68-22.578-4.2656-6.1758-6.6211-13.477-6.7734-20.98-0.49219-16.496 4.1484-32.738 13.281-46.484 18.895-27.828 42.648-52.031 70.121-71.445 17.531-13.281 17.664-13.281 8.7656-31.738-17-36.52-30.941-74.504-50.863-109.43-22.711-39.84-39.176-82.602-58.832-123.77-1.6719-5.6758-7.5703-8.9766-13.281-7.4375-31.988 3.0742-64.262 1.0547-95.617-5.9766-44.742-10.762-85.746-33.414-118.68-65.555s-56.578-72.578-68.434-117.05c-0.79688-2.6562-1.4609-5.3125-2.2578-7.9688s-0.79688-1.1953-1.8594-3.0547zm-387.91-229.21c-5.6367 11.562-10.086 23.664-13.281 36.121-4.0977 17.871-6.8086 36.031-8.1016 54.316-3.5938 29.527-2.3828 59.441 3.5859 88.578 3.4258 20.57 9.9609 40.5 19.391 59.098 18.457 34.145 44.266 63.766 75.562 86.719 11.137 8.4531 24.102 14.184 37.848 16.734l20.719 3.3203c7.3047 1.0625 15.672 4.7812 21.781 2.5234 8.3672-2.9219 12.352 4.5156 18.859 4.1172h5.8438c6.6406 0 13.281-0.92969 19.789-1.8594h-0.003907c20.465-2.1172 40.34-8.1094 58.562-17.664 44.344-24.984 83.551-58.152 115.54-97.742 4.6133-4.918 8.2227-10.695 10.625-16.996 2.2852-7.0195 4.9883-13.895 8.1016-20.586 0.92969-2.3906 3.5859-4.3828 1.7266-7.4375-1.8594-3.0547-5.4453 0-7.9688 1.1953-17.617 5.2031-35.957 7.5352-54.316 6.9062-46.516 0.13672-92.691-7.957-136.39-23.906-29.988-10.219-58.348-24.711-84.199-43.027-12.617-9.8281-25.098-19.789-37.316-30.145-27.211-23.398-49.742-51.746-66.402-83.531-2.2578-6.1445-5.6367-11.82-9.957-16.734zm401.99 245.29c1.4023 9.4336 3.9414 18.668 7.5664 27.488 11.266 25.848 26.949 49.531 46.348 69.988 16.68 18.688 36.223 34.602 57.902 47.145 45.031 25.164 96.523 36.398 147.94 32.27 15.559-0.5625 30.871-4.0312 45.152-10.223 7.7031-3.8516 15.406-7.7031 22.711-12.219 10.348-5.3555 20.059-11.859 28.949-19.391 17.762-15.055 31.457-34.324 39.844-56.043 0.74219-1.8164 1.6758-3.5547 2.7891-5.1758 9.7031-18.781 16.637-38.863 20.582-59.629 8.1133-41.145 7.1641-83.566-2.7891-124.3-3.9375-17.059-10.383-33.438-19.121-48.605-1.1953 2.6562-1.9922 4.3828-2.6562 6.1094-7.2305 21.543-19.059 41.254-34.664 57.77-20.586 20.051-44.375 36.523-70.383 48.738-28.012 14.672-57.039 27.32-86.855 37.848-35.441 13.57-72.492 22.5-110.22 26.562-20.289 2.3477-40.844 0.125-60.16-6.5078zm-70.918-176.09c4.9844-6.0859 10.742-11.488 17.133-16.07 4.1172-2.5234 3.8516-4.7812 0-8.1016-11.926-11.207-25.328-20.727-39.844-28.285-32.125-16.23-65.637-29.562-100.13-39.844-49.066-15.191-100.75-20.031-151.79-14.207-13.281 0.94922-25.984 5.8008-36.52 13.941-5.1914 2.5977-9.0469 7.2656-10.613 12.852-1.5703 5.5898-0.70312 11.582 2.3789 16.5 8.3867 18.523 19.191 35.848 32.141 51.527 14.391 17.824 30.539 34.152 48.207 48.738 37.578 32.055 81.527 55.773 128.95 69.586 35.223 10.695 71.824 16.152 108.63 16.203 17.16 0.53125 34.312-1.2578 50.996-5.3125 14.895-3.1562 28.012-11.898 36.652-24.434 6.1484-7.3828 8.1953-17.355 5.4453-26.562-5.5508-17.973-15.031-34.484-27.754-48.34-3.1875-3.7188-6.375-2.5234-8.7656 0-10.625 13.281-25.762 21.914-33.996 37.051-2.125 3.8516-4.3828 4.6484-8.1016 1.1953-7.8047-7.2852-17.699-11.93-28.289-13.277-6.207-1.0312-11.992-3.8008-16.695-7.9844-4.6992-4.1836-8.1211-9.6094-9.8633-15.656-2.4766-6.168-1.8594-13.148 1.6562-18.789s9.5117-9.2656 16.137-9.7617c8.9727-0.82031 17.828 2.5039 24.039 9.0312zm161.89 189.24c17.621-1.1719 35.07-4.1992 52.059-9.0312 63.082-15.234 123.36-40.332 178.62-74.371 27.906-17.637 50.133-42.953 64.012-72.906 2.9688-5.9727 4.7305-12.469 5.1797-19.125 0.87109-5.8047 0.085937-11.738-2.2656-17.117-2.3477-5.3789-6.168-9.9883-11.016-13.293-7.6211-4.8125-16.098-8.1055-24.969-9.6953-26.77-5.582-54.293-6.6172-81.406-3.0547-31.648 4.2148-62.793 11.598-92.961 22.047-12.086 4.6484-24.438 8.6328-27.754 23.773 0 2.5234-3.3203 4.3828-4.3828 6.7734-5.8438 13.281-17.531 22.18-22.18 35.855-1.1953 3.5859-4.5156 3.8516-7.7031 3.5859v-0.003906c-10.168-0.66406-20.371-0.66406-30.543 0-4.5391 0.49219-9.125-0.23828-13.281-2.125-4.6836-2.1133-10.164-1.3398-14.078 1.9922-13.762 8.1797-25.875 18.852-35.723 31.477-11.027 12.633-19.992 26.93-26.559 42.363-3.3984 6.1953-3.8828 13.574-1.3203 20.16 2.5625 6.5859 7.9062 11.699 14.598 13.969 25.426 12.43 53.375 18.836 81.676 18.727zm-385.13 593.09c19.281 1.4766 38.48-3.7773 54.316-14.875 19.258-13.281 28.02-31.871 12.484-54.184-4.5664-6.7852-8.4805-13.988-11.688-21.512-5.3359-11.402-13.031-21.543-22.574-29.75-9.6953-8.8984-20.586-16.602-31.074-24.703l-0.003907 0.003907c-10.539-9.293-21.973-17.52-34.129-24.57-6.6406-3.3203-7.8359-2.7891-9.4297 4.3828-3.4531 15.273-6.5078 30.543-9.9609 45.816-2.0156 8.6016-7.7539 15.863-15.656 19.812-7.9023 3.9531-17.152 4.1875-25.246 0.64062-9.8086-4.2461-18.801-10.18-26.559-17.531-9.5625-8.6328-10.359-11.555-4.9141-23.242v0.003907c7.125-14.875 13.203-30.23 18.195-45.949 2.5234-8.1016 1.8594-9.0312-6.5078-11.688-8.3672-2.6562-13.281-3.5859-20.188-5.7109-30.566-9.9258-62.988-12.785-94.82-8.3672-10.656 0.50391-20.82 4.625-28.816 11.688-6.7656 6.0234-11.48 14.012-13.48 22.844-2 8.8359-1.1875 18.074 2.3242 26.426 7.0078 19.148 18.215 36.48 32.801 50.73 12.969 13.5 27 25.938 41.965 37.184 15.008 10.094 32.27 15.672 47.941 24.438 12.91 7.3398 26.762 12.879 41.168 16.465 13.281 3.0547 26.559 6.6406 39.84 9.6953h0.003906c20.855 6.2305 42.312 10.238 64.008 11.953zm701.73-156.57c-2.1406 0.98438-4.2266 2.0898-6.2422 3.3203-23.375 15.75-44.621 34.453-63.211 55.645-13.887 14.434-23.457 32.469-27.625 52.059-1.7539 7.0742-1.4336 14.508 0.92188 21.406 2.3555 6.9023 6.6445 12.977 12.359 17.504 11.953 9.5156 26.473 15.25 41.699 16.469 17.219 0.53125 34.391-1.9883 50.73-7.4375 18.469-6.2188 36.449-13.809 53.785-22.711 42.895-16.305 81.797-41.621 114.08-74.234 11.375-12.867 21.305-26.938 29.613-41.965 5.1328-9.3594 7.2656-20.07 6.1094-30.68-0.023438-13.227-7.0469-25.453-18.461-32.137-14.84-8.6367-31.695-13.219-48.871-13.281-26.277 1.0469-52.152 6.8516-76.359 17.133-5.3125 2.125-6.1094 4.9141-3.8516 9.9609 5.6367 12.445 12.16 24.473 19.523 35.988 3.7109 3.8867 5.6719 9.125 5.4219 14.492-0.25391 5.3711-2.6914 10.402-6.75 13.926-8.9883 10.457-20.859 18.035-34.133 21.781-3.0312 0.66797-5.8828 1.9805-8.3633 3.8516-5.1797 3.7188-7.5703 2.7891-9.9609-3.4531-7.8359-19.789-20.055-37.449-30.414-57.637zm-783.53 53.121c13.281-1.7266 21.117-5.0469 22.977-18.992 3.2344-20.426 7.668-40.648 13.277-60.555 12.219-46.48 24.305-92.961 39.176-138.78 14.211-43.824 27.621-87.914 41.566-131.87 3.7188-11.422 7.9688-22.844 11.82-34.262 2.5234-7.7031 2.125-8.2344-5.9766-10.227l0.003907-0.003906c-1.5234-0.40234-3.0781-0.67188-4.6484-0.79688l-39.84-5.7109c-8.7656-1.1953-8.7656-1.3281-11.422 6.9062-1.1758 3.75-2.1523 7.5625-2.9219 11.422-5.3125 24.305-9.9609 48.871-16.07 73.043-10.492 41.301-20.32 82.734-32.668 123.51-4.1172 13.281-7.4375 26.559-11.688 39.84-8.5 26.559-17.133 53.121-26.559 79.016v-0.003906c-2.625 10.234-6.3203 20.16-11.023 29.617-5.7109 9.9609-5.5781 11.688 3.0547 20.055v-0.003906c8.2305 9.1289 19.086 15.484 31.074 18.195zm867.2-32.934c-0.84766-3.3789-2.3867-6.543-4.5156-9.2969-8.3672-15.008-17.797-29.48-25.098-44.887-10.758-22.578-22.711-44.488-34.395-66.402-19.523-37.051-36.652-75.164-53.121-113.55-10.535-24.879-21.781-49.359-33.73-73.441-2.6562-5.1797-4.6484-4.6484-8.7656-2.2578l-0.003906 0.003906c-11.402 6.8203-23.352 12.684-35.723 17.527-7.4375 3.0547-7.8359 3.3203-4.3828 11.023 7.5703 17.531 15.672 34.926 23.375 52.457h-0.003906c5.3477 13.66 11.559 26.969 18.594 39.84 17.836 30.734 33.672 62.586 47.41 95.352 13.281 29.348 26.559 58.434 41.301 86.719 6.2422 11.688 13.281 23.109 19.391 34.66 1.5938 2.7891 2.9219 5.1797 7.1719 3.9844v0.003906c14.949-3.5859 28.355-11.871 38.246-23.641 2.1523-2.1055 3.6719-4.7734 4.3828-7.6992zm-407.84-608.1c0.23438-4.4258 0.23438-8.8594 0-13.281-0.59375-4.4883-2.6445-8.6602-5.8359-11.871-3.1875-3.2148-7.3438-5.2969-11.828-5.9258-4.0273-0.95312-8.2578-0.54687-12.031 1.1602-3.7734 1.707-6.875 4.6133-8.8164 8.2695-2.3242 3.6992-3.2383 8.1055-2.5781 12.422 0.65625 4.3125 2.8438 8.25 6.1641 11.086 2.8867 3.1836 6.418 5.7148 10.355 7.4375 12.32 6.2344 26.051 9.1641 39.844 8.4961 12.484-1.3281 22.445-2.3906 27.488-15.273 1.0625-2.7891 4.1172-4.6484 5.8438-7.3047v0.003907c7.0781-8.332 12.691-17.809 16.602-28.023 2.7266-6.875 2.1172-14.625-1.6484-20.988-3.7695-6.3672-10.27-10.629-17.609-11.547-16.129-3.1133-32.703 2.5469-43.559 14.875-9.2969 8.6328-9.1641 13.281-1.5938 23.375v-0.003906c1.4727 1.8359 2.6406 3.9023 3.4531 6.1094 1.6641 3.4844 2.1484 7.418 1.3828 11.203-0.76562 3.7852-2.7422 7.2188-5.6328 9.7812zm-173.71-40.637c-3.2031-0.15234-6.3906 0.58594-9.2031 2.1328s-5.1445 3.8398-6.7305 6.6289c-2.4141 4.6289-1.8945 10.238 1.3281 14.344 2.2422 4.9961 5.7969 9.2891 10.289 12.422 4.4883 3.1328 9.7461 4.9922 15.207 5.375 2.7422 0.22656 5.4531 0.71484 8.1016 1.4609 5.9766 1.4609 10.891 8.8984 16.469 7.1719s8.5-9.4297 13.281-13.281h-0.003906c7.3867-5.6914 14.152-12.148 20.188-19.258 4.8281-4.3555 7.6562-10.5 7.8359-16.996-0.85547-4.7773-3.7109-8.9609-7.8438-11.5-4.1367-2.5352-9.1602-3.1836-13.805-1.7812-14.887 2.8789-27.121 13.445-32.137 27.754-1.2031 5.0898-3.8828 9.7109-7.7031 13.281-1.5938 1.3281-3.4531 2.3906-5.1797 0.79688-1.7266-1.5938 0-3.5859 0.79687-4.9141 4.4102-3.6133 5.3828-9.9727 2.2578-14.742-1.1641-2.543-3.0078-4.7188-5.3281-6.2891-2.3164-1.5703-5.0234-2.4727-7.8203-2.6055z"/>
 <path d="m536.79 277.29c0-15.141 5.7109-22.711 20.984-24.305 7.5703-0.79688 9.0312-4.1172 10.094-10.758v0.003907c2.3594-21.062 15.34-39.453 34.395-48.738 9.5586-4.1367 20.32-4.5352 30.156-1.1172 9.8359 3.418 18.031 10.406 22.965 19.578 5.7656 10.082 8.1914 21.734 6.9297 33.281-1.2656 11.547-6.1562 22.398-13.969 30.992-12.035 12.875-21.582 27.871-28.152 44.227-1.1953 4.1172-5.1797 4.3828-8.7656 3.3203s-9.6953-3.0547-14.477-4.6484c-8.582-2.8594-17.523-4.5117-26.559-4.9141-9.1719-0.91797-17.68-5.1992-23.883-12.016-6.2031-6.8164-9.6641-15.688-9.7188-24.906zm36.52 12.617c0-7.8359 2.7891-13.281 0-19.125l0.003906 0.003906c-1.4961-3.3203-3.8984-6.1523-6.9258-8.1758-3.0312-2.0195-6.5664-3.1445-10.207-3.2461-7.3242 1.0234-12.637 7.4922-12.219 14.875-1.0039 7.9336 1.2539 15.934 6.2617 22.168s12.336 10.168 20.301 10.898c12.777 1.2148 25.383 3.8398 37.582 7.8359 1.5039 0.94922 3.375 1.1055 5.0156 0.41797 1.6406-0.6875 2.8438-2.1328 3.2188-3.8711 7.2656-13.781 16.184-26.625 26.559-38.246 1.1953-1.5938 2.6562-2.9219 3.7188-4.5156 6.9141-8.8672 10.426-19.922 9.8867-31.152-0.53516-11.234-5.0781-21.902-12.809-30.07-4.9844-4.9648-11.258-8.4297-18.113-10-6.8555-1.5742-14.016-1.1914-20.664 1.1016-22.18 9.4297-41.035 44.621-26.559 66.402h-0.003907c1.9453 3.4375 2.9062 7.3398 2.7891 11.285 0.55078 5.6953-2.6055 11.098-7.832 13.414z"/>
 <path d="m545.15 205.45c0 11.156 0 12.617-9.2969 11.156-13.98-1.3086-28.066-0.95312-41.965 1.0625-7.9727 0.72656-15.969-1.1094-22.824-5.2422-6.8555-4.1328-12.211-10.344-15.289-17.734-1.8086-7.1641-0.94141-14.742 2.4297-21.316 3.3711-6.5742 9.0234-11.695 15.898-14.406 6.6406-0.79688 7.3047-3.3203 7.5703-8.6328h-0.003906c0.28906-5.0625 1.043-10.086 2.2578-15.008 3.25-13.742 13.254-24.895 26.562-29.613 25.762-10.625 47.809 13.281 49.004 33.73 0.50391 9.7969-0.75781 19.602-3.7188 28.953-2.125 7.0391-4.9141 14.078-7.1719 21.117v-0.003907c-2.0117 5.0898-3.1797 10.473-3.4531 15.938zm-24.305 2.5234h12.219c1.168 0.19531 2.3594-0.13281 3.2578-0.90234 0.89844-0.76953 1.4062-1.8984 1.3906-3.082 2.4766-12.25 6.3086-24.188 11.422-35.59 3.8555-10.301 4.9102-21.434 3.0547-32.273-0.98828-9.1328-6.0547-17.332-13.781-22.301-7.7266-4.9727-17.285-6.1836-26.008-3.2969-8.7227 2.8867-15.676 9.5625-18.91 18.16-5.8711 12.785-5.2305 27.613 1.7266 39.844 2.4609 3.5312 3.9297 7.6562 4.25 11.949 0 1.4609 0 3.3203-2.3906 3.7188-2.3906 0.39844-2.7891-0.92969-3.1875-2.6562-1.0508-5.0859-3.6484-9.7227-7.4375-13.277-4.1172-4.5391-11-5.2266-15.934-1.5938-5.5039 4.293-8.6328 10.953-8.4219 17.93 0.21094 6.9766 3.7305 13.438 9.4844 17.395 7.8633 6 17.871 8.4531 27.621 6.7734z"/>
 <path d="m742.89 84.461c11.535-0.62109 22.566 4.7969 29.125 14.309 6.5547 9.5117 7.6992 21.746 3.0117 32.305-4.4844 10.98-11.762 20.594-21.113 27.891-4.8125 3.9219-8.8633 8.6914-11.953 14.078-4.5156 8.7656-9.0312 9.2969-15.672 2.125v-0.003907c-5.0156-4.9258-11.176-8.5273-17.926-10.488-8.9609-2.9961-16.918-8.4219-22.977-15.672-2.1484-2.2617-3.9805-4.8086-5.4453-7.5703-3.1523-5.4023-3.2109-12.07-0.15234-17.531 3.0547-5.4609 8.7734-8.8945 15.027-9.0273 5.4102 0.58984 10.5-2.6719 12.219-7.8359 2.9492-6.9766 7.9727-12.883 14.383-16.922 6.4102-4.0352 13.906-6.0078 21.473-5.6562zm-7.8359 87.785c3.1406-6.832 8.0469-12.699 14.211-17 3.9922-3.1484 7.6836-6.6602 11.023-10.492 8.1289-8.1953 11.707-19.867 9.5625-31.207-0.6875-4.4492-2.5703-8.6289-5.4453-12.09-2.8789-3.4648-6.6406-6.0781-10.891-7.5664-6.6602-2.4453-13.926-2.6953-20.738-0.71484-6.8086 1.9844-12.809 6.0977-17.109 11.738-2.7461 2.5547-4.4844 6.0117-4.8984 9.7383-0.41406 3.7305 0.52344 7.4844 2.6406 10.578 2.7617 4.7305 3.8398 10.254 3.0547 15.672 0 1.4609 0 3.3203-1.9922 3.7188-1.9922 0.39844-3.4531-1.4609-3.5859-3.4531-0.28516-6.293-3.0547-12.215-7.7031-16.465-3.3594-3.8672-9.1016-4.5586-13.281-1.5938-3.9453 2.0664-5.9727 6.5586-4.9141 10.887 0.58984 3.9062 2.457 7.5 5.3125 10.227 5.4727 6.0312 12.363 10.598 20.055 13.281 9.2109 3.0508 17.645 8.082 24.699 14.742z"/>
 <path d="m759.5 320.85c-9.1641-7.1875-20.258-11.488-31.875-12.352-7.7617-1-15.18-3.8242-21.645-8.2344-5.75-3.5742-9.5234-9.6016-10.227-16.336-0.80078-3.6602-0.13672-7.4844 1.8516-10.664 1.9844-3.1758 5.1328-5.4492 8.7734-6.332 8.6328-1.0625 11.289-6.2422 14.742-12.617 4.1641-7.3398 10.723-13.031 18.574-16.125 7.8555-3.0938 16.531-3.4023 24.586-0.875 6.9766 2.2734 12.758 7.2461 16.051 13.809 3.293 6.5586 3.8242 14.164 1.4766 21.121-1.2461 4.0898-2.8906 8.0469-4.9141 11.816-5.6406 8.8633-9.6445 18.672-11.816 28.953-0.81641 3.2148-2.8047 6.0117-5.5781 7.8359zm-30.812-29.086c-1.1406-0.11328-2.1719-0.72656-2.8125-1.6758-0.64062-0.94922-0.82812-2.1367-0.50781-3.2383 0-8.7656-6.375-10.625-12.086-13.281l0.003906 0.003907c-2.2188-1.0078-4.7852-0.86719-6.875 0.37891-2.0938 1.2461-3.4453 3.4336-3.6172 5.8594-1.25 5.1406 0.94531 10.5 5.4453 13.281 7.0195 4.9961 15.117 8.2734 23.637 9.5625 6.2266 0.70703 12.285 2.457 17.93 5.1797 8.3672 3.9844 8.6328 3.7188 11.953-5.4453 1.5078-4.0117 3.375-7.8789 5.5781-11.555 3.2344-4.9023 5.9922-10.105 8.2305-15.539 1.9688-4.082 2.6562-8.6641 1.9688-13.145-0.6875-4.4805-2.7148-8.6484-5.8164-11.953-4.3867-3.5977-9.6406-5.9727-15.242-6.8828-5.5977-0.91016-11.336-0.32031-16.633 1.7031-6.543 3.5352-11.832 9.0078-15.137 15.672-3.4531 6.2422 1.1953 10.227 3.3203 15.008l-0.003907-0.003907c1.5977 2.3516 2.5039 5.1016 2.6211 7.9414 0.11719 2.8398-0.55859 5.6562-1.957 8.1289z"/>
 <path d="m881.27 282.2c-7.0547-4.3711-15.578-5.7148-23.637-3.7188h-9.2969c-2.8984 0.57812-5.8984 0.29297-8.6367-0.81641-2.7344-1.1094-5.0898-2.9922-6.7695-5.4219-1.082-3.1797-1.25-6.5977-0.47266-9.8633 0.77734-3.2656 2.4609-6.2461 4.8555-8.5977 5.1328-4.0508 8.6641-9.793 9.9609-16.203 1.2344-4.5859 4-8.6172 7.8359-11.422 2.5703-2.1719 5.6914-3.5898 9.0195-4.1055 3.3242-0.51563 6.7305-0.10547 9.8398 1.1875 3.4805 1.3906 6.5 3.7344 8.707 6.7656 2.2109 3.0312 3.5156 6.6211 3.7734 10.363 0.61719 4.4609 0.20703 9.0039-1.1953 13.281-4.0547 8.9336-5.4375 18.852-3.9844 28.551zm-21.914-14.609c-5.0469-2.125-4.25-6.6406-6.7734-9.0312l0.003906 0.003906c-2.5156-2.5898-6.4883-3.0859-9.5625-1.1953-3.0977 1.8945-4.8125 5.4219-4.3828 9.0312-0.085937 1.5859 0.52734 3.1289 1.6758 4.2266 1.1484 1.0977 2.7188 1.6406 4.3008 1.4844h23.375c1.8594 0 4.3828 0 5.0469-2.2578 4.3828-8.6758 6.8711-18.18 7.3008-27.891-1.2695-5.832-5.5039-10.566-11.152-12.484-3.0898-0.36328-6.2148 0.20312-8.9844 1.6211-2.7656 1.418-5.0469 3.6289-6.5547 6.3477-3.3203 6.1094-2.7891 9.1641 2.3906 15.141 4.1836 3.7891 5.5156 9.8086 3.3203 15.008z"/>
 <path d="m638.11 88.844c-1.6758 0.16797-3.2578-0.8125-3.8516-2.3906-1.0625-2.957-2.957-5.543-5.4531-7.4531-2.4961-1.9062-5.4883-3.0547-8.6211-3.3047-4.9375-1.1992-9.7422-2.8906-14.344-5.043-4.5156-1.8594-8.5-4.7812-8.1016-10.227 0.39844-5.4453 1.8594-10.891 7.3047-12.484 7.5078-2.5508 13.676-8.0039 17.133-15.141 2.8828-5.4648 9.1602-8.2188 15.137-6.6406 3.2656 0.68359 6.2656 2.3008 8.625 4.6602 2.3555 2.3594 3.9766 5.3555 4.6562 8.6211 1.6289 6.1211 1.0156 12.621-1.7266 18.328-5.0508 8.8008-8.3438 18.496-9.6953 28.551 0.26562 1.0625-1.0625 1.8594-1.0625 2.5234zm7.9688-39.84c0.15234-2.9492-0.48828-5.8828-1.8594-8.5-2.125-3.8516-4.6484-7.3047-9.6953-7.1719-5.0469 0.13281-8.1016 3.9844-10.094 8.5h0.003906c-1.0898 2.957-1.0898 6.207 0 9.1641 0 2.125 1.4609 4.3828 1.8594 6.6406 0.39844 2.2578 0 4.1172-1.8594 5.0469-1.8594 0.92969-3.3203-0.66406-4.25-2.5234l-3.0547-4.9141c-0.3125-1.3984-1.3047-2.543-2.6406-3.0547-1.3359-0.50781-2.8398-0.30859-4 0.53125-2.6914 0.8125-4.6992 3.0742-5.1797 5.8438 0 2.9219 1.4609 4.3828 3.7188 5.1797 7.1719 2.832 14.477 5.4883 21.914 7.9688 1.4609 0 3.5859 1.0625 4.25 0h-0.003906c4.582-7.0703 8.1133-14.766 10.492-22.844z"/>
 <path d="m444.22 215.27c-0.78125 5.0078-3.1016 9.6484-6.6406 13.277-4.4648 3.8242-7.7383 8.8477-9.4297 14.477-1.0625 4.25-4.25 5.7109-7.5703 1.5938h0.003907c-5.6211-5.8945-12.172-10.832-19.391-14.609-4.9141-3.1875-8.6328-6.7734-7.4375-13.281v0.003906c0.82422-5.7266 6.0781-9.7422 11.82-9.0312 3.0859 0.10547 5.9453-1.6094 7.3047-4.3828 1.668-3.3594 4.5-5.9961 7.9727-7.4141 3.4727-1.418 7.3438-1.5195 10.883-0.28906 3.75 1.7344 6.918 4.5078 9.1328 7.9922 2.2109 3.4844 3.375 7.5352 3.3516 11.664zm-27.887 12.086c-3.9844-2.125-2.2578-5.8438-3.5859-8.3672-1.4102-2.9297-4.6758-4.4805-7.8359-3.7188-1.9922 0-3.8516 1.1953-4.25 3.3203-0.39844 2.125 1.9922 4.7812 4.25 6.2422l13.281 8.2344c1.9922 1.3281 4.3828 2.2578 6.2422 0v-0.003906c4.7539-4.0859 9.1914-8.5234 13.277-13.277 2.2188-3.8008 1.6758-8.6055-1.3281-11.82-1.6641-3.6875-5.5508-5.8477-9.5625-5.3125-5.4453 0.66406-7.9688 3.9844-7.5703 10.891-0.79297 4.5156 1.4648 9.4297-2.918 13.809z"/>
 <path d="m325.36 534.79c3.9648-10.262 11.848-18.527 21.914-22.973 6.6094-3.0703 13.957-4.1914 21.18-3.2266 7.2227 0.96484 14.02 3.9727 19.59 8.6719 4.9805 4.1758 8.5977 9.7422 10.398 15.988 1.7969 6.2461 1.6914 12.887-0.30469 19.07-3.3125 10.895-9.6719 20.617-18.328 28.02l-16.734 14.609h0.003906c-4.1758 3.7773-7.6406 8.2773-10.227 13.281-4.6484 8.3672-7.3047 8.7656-12.086 0-5.2695-9.2109-13.578-16.301-23.504-20.055-9.707-4.1523-18.676-9.8477-26.562-16.863-3.5-3.0664-6.0391-7.0781-7.3047-11.555-2.6562-9.1641-3.5859-17.664 5.3125-24.172 3.8711-3.6602 8.75-6.0742 14.008-6.9258 5.2539-0.85156 10.648-0.10547 15.477 2.1445zm22.312 68.793c0.74219-1.7969 1.6328-3.5273 2.6562-5.1797 9.8281-11.688 22.445-20.586 32.801-31.738 7.6719-6.6719 11.324-16.852 9.6445-26.875-1.6797-10.027-8.4531-18.457-17.875-22.262-5.5508-2.4375-11.688-3.2188-17.672-2.2539s-11.559 3.6367-16.062 7.6992c-9.2969 6.1094-9.0312 15.273-5.5781 25.098 1.0938 3.6055 1.0547 7.4609-0.10938 11.047-1.1602 3.5859-3.3945 6.7266-6.3984 9.0078-2.5234 2.3906-5.7109 3.4531-7.9688 0-2.2578-3.4531 1.3281-3.7188 2.9219-5.3125 8.5-7.7031 8.5-12.617 0-19.922h0.003906c-2.8711-2.6406-6.0859-4.875-9.5625-6.6406-3.9766-1.7422-8.4375-2.0156-12.598-0.77734-4.1602 1.2422-7.7422 3.918-10.113 7.5508-1.9688 3.2109-2.7031 7.0312-2.0703 10.742 0.63672 3.7148 2.5977 7.0703 5.5234 9.4453 6.2812 6.4805 13.77 11.672 22.047 15.27 12.445 5.0977 23.047 13.848 30.41 25.102z"/>
 <path d="m918.99 643.29c-5.8281-0.33984-11.656 0.70703-17 3.0547-12.055 2.8945-24.746-0.61719-33.598-9.2969-3.2148-2.3164-5.5664-5.6328-6.6953-9.4258-1.1289-3.7969-0.97266-7.8594 0.45312-11.555 2.6562-7.5703 7.0391-14.344 16.602-13.281 5.4453 0 6.2422-2.9219 7.4375-6.9062h-0.003906c1.8086-10.098 7.7227-18.992 16.336-24.566 4.6875-2.793 10.121-4.0781 15.562-3.6719 5.4414 0.40234 10.625 2.4727 14.848 5.9297 15.141 13.281 16.203 21.781 7.5703 42.629-3.7656 6.6484-6.9219 13.629-9.4297 20.848-0.79688 6.7734-6.5039 7.1719-12.082 6.2422zm-26.559-14.609c-1.9922-3.4531 0-6.1094 0-8.7656l-0.003906 0.003906c0.41797-4.0234-2.0977-7.7656-5.9766-8.8984-5.3125-3.0117-12.035-1.5859-15.668 3.3203-2.1016 2.8906-2.9492 6.5078-2.3477 10.031 0.59766 3.5234 2.5938 6.6602 5.5352 8.6914 8.1875 6.9609 19.422 9.1289 29.613 5.7109 4.9492-2.2891 10.352-3.4258 15.805-3.3203 2.5234 0 4.6484 0 5.3125-3.3203 2.0781-6.2852 5.2227-12.172 9.293-17.395 3.7656-6.0234 5.4453-13.117 4.7812-20.188-1.1953-7.9727-6.4414-14.758-13.855-17.926-7.418-3.168-15.945-2.2617-22.531 2.3867-4.6758 3.5039-7.9258 8.582-9.1445 14.293-1.2227 5.7148-0.33203 11.676 2.5039 16.785 2.1133 2.8164 3.0195 6.3594 2.5234 9.8438-0.5 3.4883-2.3633 6.6328-5.1797 8.7461z"/>
 <path d="m763.35 671.18c-9.2422 1.418-18.648 1.418-27.891 0-4.6562-0.51953-9.0664-2.3555-12.715-5.2969-3.6484-2.9414-6.3789-6.8633-7.8672-11.305-1.9102-4.3906-1.9414-9.375-0.085938-13.789 1.8555-4.4141 5.4375-7.8789 9.9141-9.5859 6.5078-2.2578 7.5703-6.1094 9.0312-11.555l-0.003906 0.003906c1.5078-7.6172 6.2734-14.195 13.039-18 6.7695-3.8086 14.863-4.4609 22.156-1.7891 4.0117 1 7.625 3.2031 10.355 6.3125 2.7266 3.1055 4.4414 6.9766 4.9141 11.086 1.8984 9.5938 0.88281 19.539-2.9219 28.551-2.1914 5.4023-4.0117 10.949-5.4453 16.602-1.7227 8.7656-1.7227 8.7656-12.48 8.7656zm-18.992-18.328c-1.7773-1.6992-2.7852-4.0508-2.7891-6.5078-1.7266-8.1016-4.1172-10.359-10.492-9.6953-2.9492 0.20312-5.6953 1.5859-7.6172 3.832-1.9258 2.2461-2.8633 5.1758-2.6055 8.1211-0.054687 3.3633 0.99609 6.6484 2.9844 9.3555 1.9922 2.7109 4.8125 4.6953 8.0352 5.6523 10.984 3.1172 22.617 3.1172 33.602 0 2.0039-0.23828 3.6758-1.6484 4.25-3.5859 5.457-10.812 8.75-22.586 9.6914-34.664 0.73047-5.5977-1.2578-11.211-5.3555-15.098s-9.8047-5.5781-15.359-4.5547c-3.7461 0.15234-7.3789 1.3555-10.477 3.4688-3.0977 2.1133-5.543 5.0508-7.0547 8.4844-3.7617 6.0273-2.3906 13.922 3.1875 18.324 4.3828 4.6484 3.4531 10.359 0 16.867z"/>
 <path d="m862.95 557.37c0 4.25 1.0625 8.5 1.8594 12.617 0.79688 4.1172 0 6.2422-4.7812 5.7109v-0.003907c-6.1992-0.59766-12.441 0.50391-18.062 3.1875-10.359 3.9844-14.742 2.7891-18.461-3.5859h0.003906c-2.0078-3.6055-2.6562-7.8125-1.8281-11.855 0.82812-4.0469 3.0781-7.6602 6.3398-10.188 2.7734-1.9414 4.8242-4.7422 5.8438-7.9688 2.7891-8.8984 8.2344-13.281 15.008-11.953 6.7734 1.3281 12.352 5.1797 14.078 14.609 0.19531 3.0977 0.19531 6.1992 0 9.2969zm-5.5781-2.7891c0.10938-1.9453 0.10938-3.8984 0-5.8438 0-5.1797-4.5156-6.9062-8.6328-8.2344-2.3125-0.83594-4.8945 0.11719-6.1094 2.2578-2.1836 3.3516-2.1836 7.6719 0 11.023 0.78125 0.87109 1.4922 1.8047 2.125 2.7891 2.125 3.3203 4.5156 7.5703 0 10.227s-5.5781-1.9922-7.0391-5.0469c-0.41797-1.3281-1.4766-2.3516-2.8164-2.7266-1.3398-0.375-2.7773-0.050782-3.8242 0.86719-3.0742 2.6172-4.0039 6.9805-2.2578 10.625 0.53516 1.5 1.6602 2.7188 3.1172 3.3711 1.4531 0.64844 3.1094 0.67969 4.5859 0.082031 3.7188-1.0625 7.1719-2.7891 10.891-3.9844 9.5625-2.7891 9.5625-2.6562 9.9609-15.008z"/>
 <path d="m392.56 319.52c-1.3047 8.8477-5.3438 17.066-11.555 23.504-8.1016 8.6328-19.125 14.742-24.039 26.559-1.1953 3.0547-5.1797 2.5234-6.9062 0-8.2344-11.555-21.781-15.805-32.402-24.039l0.003906 0.003906c-5.6289-3.6211-9.4688-9.4414-10.582-16.039-1.1094-6.5977 0.60938-13.359 4.7383-18.621 1.7383-3.3789 4.8398-5.8477 8.5234-6.7891 3.6797-0.9375 7.5859-0.25781 10.73 1.875 5.8438 3.0547 10.094 4.1172 14.477-2.3906 4.6758-5.3828 10.965-9.1094 17.93-10.625 4.6836-1.2461 9.6484-0.90625 14.117 0.96484 4.4688 1.875 8.1914 5.1797 10.582 9.3945 2.3125 5.1328 3.7891 10.602 4.3828 16.203zm-39.043 41.434c5.6523-6.4219 12.023-12.172 18.992-17.133 4.957-3.7812 8.8125-8.8281 11.152-14.609 2.1758-4.5039 2.7031-9.6289 1.4883-14.48-1.2109-4.8516-4.0898-9.1289-8.1289-12.078-4.2148-2.0117-8.9766-2.5664-13.543-1.582-4.5664 0.98438-8.6758 3.457-11.688 7.0273l-0.79688 0.92969c-3.1875 3.5859-5.9766 7.4375-3.5859 12.617 2.3906 5.1758-1.4609 9.957-1.4609 14.207-0.03125 0.80078-0.39062 1.5508-0.99609 2.0781-0.60156 0.52734-1.3945 0.78516-2.1914 0.71094-1.7266 0-2.3906-1.5938-3.0547-3.0547-1.0469-4.3438-1.4492-8.8164-1.1953-13.277-0.65234-2.9805-2.1523-5.707-4.3203-7.8516-2.168-2.1445-4.9102-3.6133-7.8984-4.2344-5.5508 0.85156-9.9609 5.1094-11.02 10.625-1.0234 3.5742-0.83594 7.3906 0.53125 10.848 1.3711 3.457 3.8438 6.3672 7.0391 8.2734z"/>
 <path d="m815.67 470.52c-6.5664 1.2617-13.367-0.17188-18.859-3.9844-3.457-1.4023-6.3789-3.8711-8.3398-7.0469-1.957-3.1797-2.8516-6.8984-2.5508-10.617 0.18359-4.1328 1.5273-8.1289 3.875-11.535 2.3516-3.4062 5.6094-6.082 9.4062-7.7227 1.6914-0.92969 3.5352-1.5586 5.4453-1.8594 4.043-0.34766 7.125-3.7734 7.0391-7.832 2.2617-14.449 10.566-27.246 22.84-35.195 5.3086-4.625 11.984-7.3906 19.012-7.8711 7.0234-0.47656 14.012 1.3516 19.902 5.2148 5.6133 4.7734 9.4766 11.289 10.965 18.504 1.4922 7.2188 0.53125 14.73-2.7344 21.34-3.0938 7.1602-7.1602 13.863-12.082 19.918-5.3867 5.1562-9.3633 11.602-11.555 18.727-0.21484 2.8828-2.6914 5.0664-5.5781 4.9141-12.75-1.0625-24.172 5.1797-36.785 5.0469zm62.152-63.613h-0.003907c0.67578-4.918-0.41406-9.9141-3.0781-14.102-2.6602-4.1875-6.7188-7.2969-11.457-8.7773-4.7344-1.4766-9.8438-1.2305-14.414 0.69922-12.477 3.9414-22.676 13.027-28.02 24.969-2.4922 4.0234-3.7344 8.6914-3.5664 13.422 0.16406 4.7266 1.7266 9.3008 4.4961 13.137 2.5195 3.0078 3.8438 6.8359 3.7148 10.758 0 1.9922-0.92969 4.1172-2.9219 4.5156-1.9922 0.39844-3.0547-1.8594-3.0547-3.8516h0.003907c-0.023438-2.7539-1.0625-5.4023-2.9219-7.4375-3.5859-3.4531-6.7734-7.7031-13.281-5.8438-2.8555 1.0273-5.3828 2.8047-7.3242 5.1367-1.9375 2.3359-3.2148 5.1484-3.6992 8.1445-1.0625 6.5078 3.1875 9.1641 7.8359 11.555 5.8711 3.2148 12.648 4.3828 19.258 3.3203 9.3672-2.6094 18.91-4.5625 28.551-5.8438 2.7891 0 3.8516-2.125 4.9141-4.25 4.0156-7.1641 8.7812-13.887 14.211-20.055 6.1484-7.1719 9.9102-16.086 10.754-25.496z"/>
</svg>
