<?xml version="1.0" encoding="UTF-8"?>
<svg width="1200pt" height="1200pt" version="1.1" viewBox="0 0 1200 1200" xmlns="http://www.w3.org/2000/svg">
 <path d="m994.22 1157.4-0.14062-68.859c-4.2188-20.766-23.625-35.859-46.219-35.859-3.9375 0-7.6875 0.60938-11.391 1.4531v-227.06c0-10.922-8.8594-19.781-19.781-19.781h-23.859l-0.14062-31.453c-3.8438-19.547-21.375-33.938-42.375-35.531v-202.78c0-10.922-8.8594-19.781-19.781-19.781h-6.4688l-0.14062-24c-4.2188-20.766-23.625-35.859-46.219-35.859-5.625 0-11.062 0.9375-16.078 2.625v-215.34c0-10.922-8.8594-19.781-19.781-19.781h-52.219v-104.53c0-17.156-13.312-31.219-30.141-32.766 12.375-2.2969 21.703-13.078 21.703-26.062 0-14.625-11.859-26.531-26.531-26.531-14.625 0-26.531 11.859-26.531 26.531 0 13.219 9.6094 24 22.219 26.062-16.547 1.7812-29.531 15.703-29.531 32.625v104.53h-12.234v-49.453c0-15.375-8.5312-28.547-21.234-36.141l6.2344-10.078c3.1406-4.9219 3.4688-10.453 0.9375-15-3.2344-5.7656-10.688-9.2344-20.391-9.8438 10.312-3.6094 17.766-13.453 17.766-24.938 0-14.625-11.859-26.531-26.531-26.531-14.578 0.046875-26.578 12.141-26.578 26.672 0 11.391 7.3125 21.141 17.531 24.844-9.9375 0.60938-17.531 3.9375-20.766 9.8438-2.625 4.5469-2.2969 10.219 0.84375 15.234l5.8594 9.6094c-12.938 7.4531-21.703 20.859-21.703 36.375v49.453h-56.391c-10.922 0-19.781 8.8594-19.781 19.781v216c-6-2.5312-12.609-4.0781-19.547-4.0781-22.688 0-42.141 15.141-46.312 37.219v23.297h-6.1406c-10.922 0-19.781 8.8594-19.781 19.781v202.78c-21.141 1.5469-38.766 15.938-42.703 36.844v30.234h-28.547c-10.922 0-19.781 8.8594-19.781 19.781l-0.09375 226.69c-3-0.60938-6-0.84375-9.2344-0.84375-22.688 0-42.141 15.141-46.312 37.219v66.609c0 0.9375 0.23438 1.7812 0.60938 2.625 0.60938 3 3.1406 5.3906 6.375 5.3906h772.69c0.9375 0 1.7812-0.23438 2.625-0.60938 3.2344-0.375 6-3.1406 6-6.6094zm-188.76-395.16c-7.4531-9.9375-19.781-16.547-33.703-16.547-14.156 0-26.766 6.7031-34.078 17.062-7.4531-10.312-20.062-17.062-34.078-17.062-14.156 0-26.625 6.6094-34.078 16.922-7.4531-10.219-19.922-16.922-34.078-16.922s-26.766 6.7031-34.078 17.062c-7.4531-10.312-20.062-17.062-34.078-17.062-14.156 0-26.766 6.7031-34.078 17.062-7.4531-10.312-20.062-17.062-34.078-17.062-14.156 0-26.766 6.7031-34.078 17.062-7.4531-10.312-20.062-17.062-34.078-17.062-13.922 0-26.297 6.4688-33.703 16.453-6.6094-10.922-18-18.703-31.312-21.375v-108c12.703 3.4688 25.922 5.3906 39 5.3906 2.625 0 5.3906-0.375 8.0625-0.46875v53.297c0 3.6094 3 6.6094 6.6094 6.6094 3.6094 0 6.6094-3 6.6094-6.6094v-54.469c29.062-4.4531 51.141-16.922 65.156-27.375v52.781c0 3.6094 3 6.6094 6.6094 6.6094 3.6094 0 6.6094-3 6.6094-6.6094v-51.938c14.625 9 30.141 15.844 46.453 20.391 10.781 3 25.078 5.625 41.531 6.2344v54.938c0 3.6094 3 6.6094 6.6094 6.6094 3.6094 0 6.6094-3 6.6094-6.6094v-54.844c10.453-0.46875 21.609-1.7812 33.375-4.6875 19.922-4.7812 38.766-13.219 56.156-24.703v47.766c0 3.6094 3 6.6094 6.6094 6.6094 3.6094 0 6.6094-3 6.6094-6.6094v-46.453c15.609 11.391 37.781 22.781 66.375 26.531-0.14062 0.60937-0.375 1.0781-0.375 1.6875v55.688c0 3.6094 3 6.6094 6.6094 6.6094 3.6094 0 6.6094-3 6.6094-6.6094v-55.688c0-0.375-0.14062-0.60938-0.14062-0.84375 1.0781 0 2.0625 0.23437 3.1406 0.23437 14.766 0 30.609-2.5312 46.547-7.3125v112.22c-13.781 2.1562-25.266 10.078-31.875 21.094zm-123.74-405.24c-0.23438-0.23438-0.60938-0.375-0.84375-0.46875-2.625-2.5312-6.8438-2.3906-9.375 0.23438-13.688 14.531-28.781 24.703-44.859 30.141-24 8.1562-44.859 3.7031-58.219-1.5469-13.922-5.3906-27.141-14.391-39.234-26.625-0.60938-0.70312-1.4531-1.2188-2.2969-1.4531-2.3906-1.2188-5.2969-0.84375-7.4531 0.9375-9.4688 8.625-20.297 15.234-32.297 19.547-9.4688 3.4688-19.547 5.2969-29.625 5.7656v-11.297c3 1.6875 6.375 2.625 9.9375 2.625 11.391 0 20.625-9.2344 20.625-20.625s-9.2344-20.625-20.625-20.625c-3.6094 0-6.9375 0.9375-9.9375 2.625v-34.312c8.1562 9 19.219 14.625 31.219 14.625 15.844 0 29.859-9.375 37.781-23.625 8.0625 14.391 22.078 23.625 37.781 23.625 15.938 0 30-9.375 37.922-23.859 8.0625 14.391 22.078 23.859 37.922 23.859 15.938 0 30-9.375 37.922-23.859 8.0625 14.391 22.078 23.859 37.922 23.859 12.609 0 23.859-6 32.156-15.469l0.09375 34.922c-2.7656-1.4531-6-2.2969-9.375-2.2969-11.391 0-20.625 9.2344-20.625 20.625s9.2344 20.625 20.625 20.625c3.375 0 6.4688-0.84375 9.375-2.2969v11.297c-11.531-0.23438-22.781-2.3906-33.469-6.375-12.141-4.7344-23.297-11.578-33.047-20.578zm-221.63-2.625c0-4.0781 3.375-7.4531 7.4531-7.4531s7.4531 3.375 7.4531 7.4531-3.375 7.4531-7.4531 7.4531c-4.0781-0.046875-7.4531-3.375-7.4531-7.4531zm286.45 0c0 4.0781-3.375 7.4531-7.4531 7.4531s-7.4531-3.375-7.4531-7.4531 3.375-7.4531 7.4531-7.4531 7.4531 3.2344 7.4531 7.4531zm-105.23-292.31c0-7.3125 6-13.312 13.312-13.312s13.312 6 13.312 13.312-6 13.312-13.312 13.312-13.312-6-13.312-13.312zm12.469 39h2.7656c10.922 0 19.781 8.8594 19.781 19.781v16.312h-42.375v-16.312c0-10.922 8.9062-19.781 19.828-19.781zm-19.828 49.312h14.156v38.766c0 3.6094 3 6.6094 6.6094 6.6094s6.6094-3 6.6094-6.6094v-38.766h15v75h-15v-18c0-3.6094-3-6.6094-6.6094-6.6094s-6.6094 3-6.6094 6.6094v18h-14.156zm-81.938-70.453c0-7.3125 6-13.312 13.312-13.312s13.312 6 13.312 13.312-6 13.312-13.312 13.312-13.312-5.8594-13.312-13.312zm-4.3125 43.078c-0.14062-0.23438-0.84375-1.4531-0.60938-1.9219 0.70312-1.3125 4.5469-3.375 11.859-3.375h12c8.2969 0 11.531 2.5312 12 3.375 0.14062 0.23438-0.23438 0.9375-0.60938 1.5469l-7.5469 12c-3.375-0.84375-6.7031-1.3125-10.312-1.3125-3.375 0-6.6094 0.46875-9.7031 1.0781zm-13.922 52.922c0-16.078 13.781-29.156 30.844-29.156 16.922 0 30.844 13.078 30.844 29.156v49.453h-61.547l-0.046875-49.453zm-69.609 62.625h277.69c3.6094 0 6.6094 3 6.6094 6.6094v24.234c-0.46875 0.70313-0.70312 1.5469-0.84375 2.3906-2.625 18.234-15.703 31.453-31.219 31.453-15.234 0-28.312-12.938-31.219-30.844-0.14062-1.0781-0.60938-1.9219-1.2188-2.7656-0.9375-1.7812-2.625-3.1406-4.7812-3.4688-3.6094-0.46875-6.9375 2.0625-7.4531 5.625-2.625 18.234-15.703 31.453-31.219 31.453-15.234 0-28.312-12.938-31.219-30.844-0.14062-1.0781-0.60938-1.9219-1.2188-2.7656-0.9375-1.7812-2.625-3.1406-4.7812-3.4688-3.6094-0.46875-6.9375 2.0625-7.4531 5.625-2.625 18.234-15.703 31.453-31.219 31.453-15.234 0-28.312-12.938-31.219-30.844 0-0.23437-0.23438-0.46875-0.23438-0.84375-0.46875-2.7656-2.5312-5.0625-5.5312-5.3906-3.6094-0.46875-6.9375 2.0625-7.4531 5.625-2.625 18.234-15.703 31.453-31.312 31.453-15.234 0-28.312-12.938-31.219-30.844 0-0.14062 0-0.14062-0.14062-0.23437v-27.141c0.046875-3.4688 3.0469-6.4688 6.6562-6.4688zm-6.6094 229.08v-70.688c11.766-0.46875 23.297-2.7656 34.219-6.8438 9.2344-3.375 17.859-8.0625 25.781-13.688v33.375c0 3.6094 3 6.6094 6.6094 6.6094s6.6094-3 6.6094-6.6094v-31.781c10.312 8.5312 21.375 15.141 32.859 19.547 9.375 3.6094 18.844 5.7656 28.453 6.4688v34.688c0 3.6094 3 6.6094 6.6094 6.6094s6.6094-3 6.6094-6.6094v-34.781c8.625-0.46875 17.156-1.9219 25.547-4.6875 13.922-4.6875 27.141-12.609 39.375-23.297v33.703c0 3.6094 3 6.6094 6.6094 6.6094s6.6094-3 6.6094-6.6094v-34.453c8.2969 6 17.156 10.922 26.766 14.531 12.234 4.5469 25.078 7.0781 38.156 7.3125v69c0 0.375 0.14062 0.70312 0.23438 0.9375-4.5469 3.375-8.625 7.5469-11.531 12.375-7.4531-9.8438-19.781-16.312-33.609-16.312-14.156 0-26.625 6.6094-34.078 16.922-7.4531-10.219-19.922-16.922-33.938-16.922-14.156 0-26.766 6.7031-34.078 17.062-7.4531-10.312-20.062-17.062-34.078-17.062-14.156 0-26.766 6.7031-34.078 17.062-7.4531-10.312-20.062-17.062-34.078-17.062-13.688 0-25.781 6.2344-33.375 15.938-2.2969-3.7031-5.1562-6.9375-8.3906-9.8438-0.046875-0.42188 0.1875-0.89063 0.1875-1.5zm-66 27.844c2.8594-14.625 16.922-25.219 33.234-25.219 16.688 0 30.703 10.781 33.375 25.688 0.14062 0.375 0.23438 0.60937 0.375 0.9375 0.375 2.7656 2.3906 5.0625 5.2969 5.5312 0.375 0.14062 0.84375 0.14062 1.2188 0.14062 3.1406 0 5.8594-2.2969 6.4688-5.3906 2.1562-12 13.781-20.766 27.469-20.766 13.453 0 24.938 8.5312 27.375 20.391 0.23438 0.9375 0.70312 1.9219 1.2188 2.625 0.9375 1.5469 2.5312 2.625 4.3125 3 0.375 0.14062 0.84375 0.14062 1.2188 0.14062 3.1406 0 5.8594-2.2969 6.4688-5.3906 2.1562-12 13.781-20.766 27.469-20.766 13.453 0 24.938 8.5312 27.375 20.391 0.23438 0.9375 0.70312 1.9219 1.2188 2.625 0.9375 1.5469 2.5312 2.7656 4.3125 3 0.375 0.14062 0.84375 0.14062 1.2188 0.14062 3.1406 0 5.8594-2.2969 6.4688-5.3906 2.1562-12 13.781-20.766 27.469-20.766 13.453 0 25.078 8.5312 27.375 20.391 0 0.14062 0.14062 0.375 0.23438 0.46875 0.46875 2.625 2.5312 4.6875 5.2969 5.2969 0.375 0.14063 0.84375 0.14063 1.2188 0.14063 3.1406 0 5.8594-2.2969 6.4688-5.3906 2.1562-12 13.781-20.766 27.469-20.766 13.453 0 25.078 8.5312 27.375 20.391 0.60938 2.8594 3 4.9219 5.7656 5.1562 0.60938 0.14063 1.3125 0.14063 2.0625 0 0 0 0.14062 0 0.14062-0.14062 2.625-0.46875 5.0625-2.3906 5.5312-5.2969 2.625-14.859 16.688-25.688 33.375-25.688 16.312 0 30.375 10.547 33.141 24v22.688l-418.87 0.046876zm-19.172 35.297h458.02c3.6094 0 6.6094 3 6.6094 6.6094v77.625c-0.23438 0-0.375 0-0.60938 0.14062-21.141 6.7031-41.766 9.1406-59.859 6.8438-33-4.2188-56.625-19.781-70.688-32.156-0.23438-0.14062-0.375-0.23437-0.60938-0.375-0.375-0.23437-0.70312-0.46875-1.0781-0.60937-0.375-0.23438-0.84375-0.375-1.2188-0.46875-0.375-0.14063-0.70312-0.14063-1.2188-0.14063-0.46875 0-0.84375 0-1.3125 0.14063-0.46875 0.14062-0.84375 0.14062-1.2188 0.375-0.375 0.14062-0.84375 0.375-1.2188 0.60937-0.23438 0.14063-0.375 0.14063-0.60938 0.23438-18.844 14.297-39.609 24.234-61.781 29.531-33.469 8.1562-62.766 3.7031-81.375-1.4531-19.219-5.2969-37.453-14.156-54.141-26.156-1.2188-0.84375-2.3906-1.0781-3.7031-1.0781h-0.46875c-0.46875 0-0.84375 0-1.2188 0.14062-1.2188 0.23438-2.2969 0.60938-3.2344 1.4531-11.531 10.078-36 27.703-70.688 32.156-18.234 2.2969-37.219 0.46875-55.078-4.9219v-81.703c0.09375-3.7969 3.0938-6.7969 6.7031-6.7969zm-49.453 247.55c2.8594-14.625 16.922-25.219 33.234-25.219 16.688 0 30.609 10.781 33.375 25.688 0.23438 1.3125 0.9375 2.3906 1.7812 3.2344 0.9375 1.4531 2.5312 2.625 4.3125 3 0.375 0.14063 0.84375 0.14063 1.2188 0.14063 3.1406 0 5.8594-2.2969 6.4688-5.3906 2.1562-12 13.781-20.766 27.469-20.766 13.453 0 24.938 8.5312 27.375 20.391 0.23438 0.9375 0.70312 1.9219 1.3125 2.625 0.9375 1.5469 2.5312 2.625 4.3125 3 0.375 0.14063 0.84375 0.14063 1.2188 0.14063 3.1406 0 5.8594-2.2969 6.4688-5.3906 2.1562-12 13.781-20.766 27.469-20.766 13.453 0 24.938 8.5312 27.375 20.391 0.23438 0.9375 0.70312 1.9219 1.2188 2.625 0.9375 1.5469 2.5312 2.7656 4.3125 3.1406 0.375 0.14062 0.84375 0.14062 1.2188 0.14062 3.1406 0 5.8594-2.2969 6.4688-5.3906 2.1562-12 13.781-20.766 27.469-20.766 13.453 0 24.938 8.5312 27.375 20.391 0.23438 0.9375 0.70312 1.9219 1.2188 2.625 0.9375 1.5469 2.5312 2.625 4.3125 3 0.375 0.14062 0.84375 0.14062 1.2188 0.14062 3.1406 0 5.8594-2.1562 6.4688-5.3906 2.1562-12 13.781-20.766 27.469-20.766 13.453 0 25.078 8.5312 27.375 20.391 0 0.14062 0.14062 0.375 0.23438 0.46875 0.46875 2.625 2.5312 4.6875 5.2969 5.2969 0.375 0.14063 0.84375 0.14063 1.2188 0.14063 3.1406 0 5.8594-2.2969 6.4688-5.3906 2.1562-12 13.781-20.766 27.469-20.766 13.453 0 25.078 8.5312 27.375 20.391 0.23438 0.9375 0.70312 1.9219 1.2188 2.625 0.9375 1.5469 2.5312 2.625 4.4531 3 0.375 0.14063 0.84375 0.14063 1.2188 0.14063 3.1406 0 5.8594-2.2969 6.4688-5.3906 2.1562-12 13.781-20.766 27.469-20.766 13.453 0 25.078 8.5312 27.375 20.391 0.70312 3.6094 4.2188 5.8594 7.7812 5.1562 0.375-0.14062 0.60938-0.23437 0.9375-0.375 2.5312-0.60937 4.6875-2.5312 5.1562-5.2969 2.625-14.859 16.688-25.688 33.375-25.688 16.312 0 30.375 10.688 33.141 24v30.234h-556.18zm-41.766 42.141h635.39c3.6094 0 6.6094 3 6.6094 6.6094v88.219c-21 4.0781-42.375 5.2969-63.375 3.2344-15.938-1.4531-48.375-6.7031-85.688-25.312-11.391-5.7656-22.688-12.375-33.234-19.688-0.23438-0.14062-0.46875-0.14062-0.60938-0.23437-2.3906-2.7656-6.4688-3-9.2344-0.70313-19.688 16.547-41.859 29.156-65.766 37.219-29.062 9.7031-75.469 17.531-132.24-0.46875-24.375-7.7812-47.156-19.922-67.781-35.859-2.3906-1.7812-5.5312-1.6875-7.9219-0.14063-0.23438 0.14063-0.46875 0.14063-0.70312 0.375-10.547 7.3125-21.703 14.062-33.234 19.688-37.219 18.609-69.609 23.859-85.688 25.312-20.859 1.9219-42.234 0.84375-63.234-3.2344v-88.219c0.09375-3.7969 3.0938-6.7969 6.7031-6.7969zm-6.6094 108.09c9.9375 1.7812 19.922 2.8594 29.859 3.375v58.312c0 3.6094 3 6.6094 6.6094 6.6094s6.6094-3 6.6094-6.6094v-57.609c7.0781 0 14.297-0.375 21.375-0.9375 9.375-0.84375 24.234-3.1406 42.234-8.1562v48c0 3.6094 3 6.6094 6.6094 6.6094s6.6094-3 6.6094-6.6094v-52.219c10.922-3.7031 22.547-8.2969 34.922-14.391 9.2344-4.5469 18.141-9.9375 26.859-15.469v60.094c0 3.6094 3 6.6094 6.6094 6.6094s6.6094-3 6.6094-6.6094v-57.234c16.688 11.391 34.688 20.531 53.625 27.141v52.078c0 3.6094 3 6.6094 6.6094 6.6094s6.6094-3 6.6094-6.6094v-47.859c20.062 5.7656 38.859 8.5312 56.062 9.2344v57.469c0 3.6094 3 6.6094 6.6094 6.6094s6.6094-3 6.6094-6.6094v-57.375c22.219-0.46875 41.297-4.0781 56.766-8.625v47.297c0 3.6094 3 6.6094 6.6094 6.6094s6.6094-3 6.6094-6.6094v-51.844c19.312-7.2188 37.547-17.156 54.234-29.625v59.391c0 3.6094 3 6.6094 6.6094 6.6094s6.6094-3 6.6094-6.6094v-59.156c8.2969 5.2969 16.688 10.312 25.453 14.625 12.141 6 23.625 10.688 34.453 14.297v52.312c0 3.6094 3 6.6094 6.6094 6.6094s6.6094-3 6.6094-6.6094v-48.234c18.141 5.1562 33.234 7.4531 42.703 8.2969 6 0.60938 12 0.70313 18.141 0.84375v57.703c0 3.6094 3 6.6094 6.6094 6.6094s6.6094-3 6.6094-6.6094v-58.078c11.156-0.46875 22.219-1.5469 33.234-3.6094v130.69c-6.9375 3.9375-12.609 9.6094-16.547 16.312-7.4531-10.312-20.062-17.062-34.078-17.062-14.156 0-26.766 6.7031-34.078 17.062-7.4531-10.312-20.062-17.062-34.078-17.062-14.156 0-26.625 6.6094-34.078 16.922-7.4531-10.219-19.922-16.922-34.078-16.922-14.297 0-26.859 6.7031-34.219 17.156-7.4531-10.453-20.062-17.156-34.219-17.156s-26.766 6.7031-34.078 17.062c-7.4531-10.312-20.062-17.062-34.078-17.062-14.156 0-26.625 6.6094-34.078 16.922-7.4531-10.219-19.922-16.922-33.938-16.922-14.156 0-26.766 6.7031-34.078 17.062-7.4531-10.312-20.062-17.062-34.078-17.062-14.156 0-26.766 6.7031-34.078 17.062-7.4531-10.312-20.062-17.062-34.078-17.062-14.156 0-26.766 6.7031-34.078 17.062-7.4531-10.312-20.062-17.062-34.078-17.062-13.922 0-26.297 6.4688-33.703 16.453-4.3125-7.2188-10.781-12.938-18.469-16.922l-0.1875-129.52zm-22.406 137.29c16.688 0 30.703 10.781 33.375 25.688 0.23438 1.3125 0.9375 2.3906 1.7812 3.2344 0.9375 1.4531 2.3906 2.5312 4.3125 2.8594 0.375 0.14062 0.84375 0.14062 1.2188 0.14062 3.1406 0 5.8594-2.2969 6.4688-5.3906 2.1562-12 13.781-20.766 27.469-20.766 13.453 0 24.938 8.5312 27.375 20.391 0.23438 0.9375 0.70312 1.9219 1.3125 2.625 0.9375 1.5469 2.5312 2.625 4.3125 3 0.375 0.14062 0.84375 0.14062 1.2188 0.14062 3.1406 0 5.8594-2.2969 6.4688-5.3906 2.1562-12 13.781-20.766 27.469-20.766 13.453 0 24.938 8.5312 27.375 20.391 0.23438 0.9375 0.70312 1.9219 1.3125 2.625 0.9375 1.5469 2.5312 2.625 4.3125 3 0.375 0.14062 0.84375 0.14062 1.2188 0.14062 3.1406 0 5.8594-2.2969 6.4688-5.3906 2.1562-12 13.781-20.766 27.469-20.766 13.453 0 24.938 8.5312 27.375 20.391 0.23438 0.9375 0.70312 1.9219 1.3125 2.625 0.9375 1.5469 2.5312 2.625 4.3125 3 0.375 0.14062 0.84375 0.14062 1.2188 0.14062 3.1406 0 5.8594-2.2969 6.4688-5.3906 2.1562-12 13.781-20.766 27.469-20.766 13.453 0 24.938 8.5312 27.375 20.391 0 0.14062 0.14062 0.375 0.23438 0.46875 0.46875 2.5312 2.5312 4.6875 5.2969 5.1562 0.375 0.14062 0.84375 0.14062 1.2188 0.14062 3.1406 0 5.8594-2.2969 6.4688-5.3906 2.1562-12 13.781-20.766 27.469-20.766 13.453 0 25.078 8.5312 27.375 20.391 0.23438 0.9375 0.70312 1.9219 1.2188 2.625 0.9375 1.5469 2.5312 2.625 4.4531 3 0.375 0.14062 0.84375 0.14062 1.2188 0.14062 3.1406 0 5.8594-2.2969 6.4688-5.3906 2.1562-12 13.781-20.766 27.469-20.766 13.453 0 25.078 8.5312 27.375 20.391 0.375 1.9219 1.5469 3.375 3.1406 4.3125 0.84375 0.60938 1.7812 1.2188 2.8594 1.4531 0.375 0.14062 0.84375 0.14062 1.2188 0.14062 3.1406 0 5.8594-2.1562 6.4688-5.3906 2.1562-12 13.781-20.766 27.469-20.766 13.453 0 25.078 8.5312 27.375 20.391 0 0.14062 0.14062 0.375 0.23438 0.46875 0.46875 2.5312 2.5312 4.6875 5.2969 5.1562 0.375 0.14062 0.84375 0.14062 1.2188 0.14062 3.1406 0 5.8594-2.2969 6.4688-5.3906 2.1562-12 13.781-20.766 27.469-20.766 13.453 0 25.078 8.5312 27.375 20.391 0.23438 0.9375 0.70312 1.9219 1.2188 2.625 0.9375 1.5469 2.5312 2.625 4.3125 3 0.375 0.14062 0.84375 0.14062 1.2188 0.14062 3.1406 0 5.8594-2.2969 6.4688-5.3906 2.1562-12 13.781-20.766 27.469-20.766 13.453 0 25.078 8.5312 27.375 20.391 0.70312 3.6094 4.2188 5.8594 7.7812 5.1562 0.375-0.14062 0.60938-0.23438 0.84375-0.375 2.7656-0.375 5.2969-2.2969 5.8594-5.2969 2.625-14.859 16.688-25.688 33.375-25.688 16.312 0 30.375 10.688 33.141 24v61.453h-761.53l-0.14062-60.141c3-14.719 16.922-25.406 33.281-25.406z"/>
 <path d="m599.06 609.14c11.391 0 20.625-9.2344 20.625-20.625s-9.2344-20.625-20.625-20.625-20.625 9.2344-20.625 20.625c-0.046875 11.344 9.1875 20.625 20.625 20.625zm0-28.078c4.0781 0 7.4531 3.375 7.4531 7.4531s-3.375 7.4531-7.4531 7.4531-7.4531-3.375-7.4531-7.4531c0-4.125 3.3281-7.4531 7.4531-7.4531z"/>
 <path d="m599.06 333.61c-11.391 0-20.625 9.2344-20.625 20.625s9.2344 20.625 20.625 20.625 20.625-9.2344 20.625-20.625c0-11.297-9.2344-20.625-20.625-20.625zm0 28.172c-4.0781 0-7.4531-3.375-7.4531-7.4531s3.375-7.4531 7.4531-7.4531 7.4531 3.375 7.4531 7.4531c-0.046875 4.125-3.375 7.4531-7.4531 7.4531z"/>
 <path d="m599.06 903.14c11.391 0 20.625-9.2344 20.625-20.625s-9.2344-20.625-20.625-20.625-20.625 9.2344-20.625 20.625c-0.046875 11.344 9.1875 20.625 20.625 20.625zm0-28.078c4.0781 0 7.4531 3.375 7.4531 7.4531s-3.375 7.4531-7.4531 7.4531-7.4531-3.375-7.4531-7.4531c0-4.125 3.3281-7.4531 7.4531-7.4531z"/>
 <path d="m345.71 903.14c11.391 0 20.625-9.2344 20.625-20.625s-9.2344-20.625-20.625-20.625-20.625 9.2344-20.625 20.625c0 11.344 9.2344 20.625 20.625 20.625zm0-28.078c4.0781 0 7.4531 3.375 7.4531 7.4531s-3.375 7.4531-7.4531 7.4531-7.4531-3.375-7.4531-7.4531c0.046875-4.125 3.375-7.4531 7.4531-7.4531z"/>
 <path d="m854.39 903.14c11.391 0 20.625-9.2344 20.625-20.625s-9.2344-20.625-20.625-20.625-20.625 9.2344-20.625 20.625c0 11.344 9.2344 20.625 20.625 20.625zm0-28.078c4.0781 0 7.4531 3.375 7.4531 7.4531s-3.375 7.4531-7.4531 7.4531-7.4531-3.375-7.4531-7.4531c0-4.125 3.375-7.4531 7.4531-7.4531z"/>
 <path d="m419.86 609.14c11.391 0 20.625-9.2344 20.625-20.625s-9.2344-20.625-20.625-20.625-20.625 9.2344-20.625 20.625c0 11.344 9.2344 20.625 20.625 20.625zm0-28.078c4.0781 0 7.4531 3.375 7.4531 7.4531s-3.375 7.4531-7.4531 7.4531-7.4531-3.375-7.4531-7.4531c0.046875-4.125 3.375-7.4531 7.4531-7.4531z"/>
 <path d="m781.55 609.14c11.391 0 20.625-9.2344 20.625-20.625s-9.2344-20.625-20.625-20.625-20.625 9.2344-20.625 20.625c0 11.344 9.2344 20.625 20.625 20.625zm0-28.078c4.0781 0 7.4531 3.375 7.4531 7.4531s-3.375 7.4531-7.4531 7.4531-7.4531-3.375-7.4531-7.4531c0.046875-4.125 3.375-7.4531 7.4531-7.4531z"/>
</svg>
