<?xml version="1.0" encoding="UTF-8"?>
<svg width="1200pt" height="1200pt" version="1.1" viewBox="0 0 1200 1200" xmlns="http://www.w3.org/2000/svg">
 <path d="m1056 1076.6c-0.41016-1.4883-1.5703-2.6602-3.0469-3.1055-27.621-8.2734-53.145-24.902-71.859-46.805-21.902-25.641-34.301-56.461-48.246-94.102-60.27-162.77-115.35-329.79-163.68-496.39-19.711-67.934-32.812-133.32-46.688-202.55l-2.2305-11.082c0.88672-1.2148 1.7227-2.4766 2.3008-3.832 2.6602-6.2305 2.5898-13.645-0.15234-19.824-1.4883-3.375-3.6914-6.2695-5.625-8.8125l-13.77-18.137c-0.48828-0.63672-1.1328-1.043-1.8164-1.3398 0.73437-1.4883 1.3125-3.0195 1.5234-4.6016 0.52734-3.9961-0.87891-7.9023-3.4453-10.543 0.58594-1.8594 0.60938-3.8945-0.058593-5.7891-1.4414-4.1406-5.8008-6.7383-10.137-6.082-1.4062 0.22266-2.625 0.74219-3.6094 1.168-0.070313 0.027344-0.15234 0.066407-0.23438 0.10156-0.070312-0.25391-0.11719-0.51172-0.17578-0.73438-0.48047-2.2227-1.5-6.8359-6.3516-7.5508-1.2891-0.19531-3.2109 0.71484-4.207 1.5781-2.8867 2.5039-6.6055 5.7695-9.082 9.5586-5.9414-5.0703-13.246-8.3594-20.883-8.9727-9.2695-0.70312-21.809 2.9531-28.043 11.426-1.2148 1.6523-1.9961 3.4414-2.5742 5.2695-1.8281 1.9961-3.7891 3.9648-5.7695 5.9492-6.7227 6.7148-13.672 13.664-16.828 22.84l-0.42188 1.2422c-1.2656 3.7109-2.5781 7.4805-4.7031 9.7852-1.3594-5.3633-1.2734-11.527-1.0703-17.617l0.12891-4.1953c0.25391-11.949-1.2031-23.859-2.6289-35.391 0.15625-0.28906 0.39844-0.47656 0.51953-0.80078 1.5273-4.0898-1.2031-8.4375-4.0781-12.145-6.8789-8.8828-20.523-13.109-26.078-14.516-14.227-3.6055-29.215-2.5312-42.109-1.2461-7.1914 0.70312-14.172 1.6094-20.555 4.8867-17.707 9.0859-22.125 31.379-20.355 49.203 0.64453 6.4805 1.8906 12.914 3.1016 19.137 2.0625 10.629 4.0156 20.668 3.1758 30.801-0.10547 1.2461 0.31641 2.4883 1.1719 3.418 0.054687 0.058594 0.13281 0.074219 0.1875 0.12891-0.85547 0.48828-1.5859 1.1641-1.9688 2.0859-1.8398 4.3906-3.0391 9-3.8203 13.695-1.8242-1.2422-5.4297-3.3672-9.4297-1.7695-4.0195 1.5703-5.2734 5.6406-5.8789 7.6055l-4.1211 13.469c-28.938 38.27-43.48 72.059-48.508 112.82-2.0625 16.695-1.9688 33.672-1.8828 50.762 0.62109 112.23-0.26953 213.43-17.539 315.3-0.32812 1.9336-0.9375 5.5312 1.2617 8.5781 2.0977 2.9414 5.5039 3.5977 7.3281 3.9609l18.82 3.6602c-8.8047 76.605-15.121 154.5-18.699 231.59-0.21094 4.4297-0.55469 11.848 4.0977 17.062 2.2227 2.5 5.0391 3.918 7.9414 4.9688-0.078125 0.25-0.21875 0.46875-0.25391 0.73828l-7.1602 53.918c-0.49609 3.75-1.3281 10.031 2.3008 14.895 3.1406 4.2305 8.1133 5.543 12.535 6.4336 34.816 7.0781 72.289 10.547 114.28 10.547 3.375 0 6.793-0.023437 10.23-0.070313 14.074-0.19922 22.605-4.4414 25.34-12.621 3.043-9.0703-3.4258-18.152-11.062-22.078-4.7227-2.4375-9.7344-3.4336-14.574-4.3945-2.0547-0.41016-4.1172-0.80859-6.1445-1.3477-4.457-1.1562-8.5859-3.0352-12.531-5.2266l46.094-4.2305c1.8164-0.16406 4.5664-0.43359 6.9102-2.2617 3.3242-2.625 3.8008-6.7852 4.0586-9.0234 0.46875-4.1016 1.2539-10.969-2.9883-16.02-3.4922-4.1836-8.918-5.2266-12.516-5.9297l-59.535-11.328c-2.0977-4.6055-2.2578-10.508-1.3125-15.52 0.64062-3.3867 1.6172-6.7148 2.582-10.043 1.6211-5.5664 3.293-11.32 3.5781-17.449 0.21484-4.5469-0.35156-8.9414-0.90234-13.195-0.33203-2.5664-0.66797-5.1328-0.80859-7.7109-0.38672-7.1133 0.74219-14.473 1.8398-21.586l44.344-288.81c1.8008 1.4727 3.9648 2.4961 6.3086 2.4961 0.95312 0 1.918-0.14062 2.8555-0.43359 0.12109-0.035156 2.0391-0.44531 2.1641-0.50391 0.70703 0.22266 1.6875 0.51562 2.8398 0.58594 4.9961 0.023438 7.6641-3.6562 9.3906-6.2344 0.73437-1.0898 1.6367-2.4453 2.2852-2.7773 0.69141-0.36719 2.4883-0.17969 3.9258-0.042969 3.1602 0.30469 7.9609 0.76562 11.098-3.2695 0.98438-1.2695 1.4492-2.625 1.7812-3.6094l0.41016-1.0469c0.27344-0.48438 1.3711-1.125 2.332-1.6797 1.3828-0.80859 3.1094-1.8164 4.5117-3.4102 2.9141-3.3047 3.4961-7.6875 1.9453-13.004 8.8555-7.75 16.926-16.312 24.207-25.516-2.082 105.17-3.6094 216.25-1.4297 321.99 0.36328 17.824 0.80859 40.02 8.2734 59.848 1.5352 4.043 3.4805 8.1445 7.3828 10.828 4.1367 2.8594 9.1055 3.082 12.727 3.2578l35.68 1.6953c3.2031 10.34 3.9492 21.531 4.5742 32.406 0.082032 1.4062 0.15234 2.7305-0.046874 3.8555-0.28125 1.6875-1.2773 3.4805-2.332 5.3789-2.2383 4.0078-4.4883 6.7266-6.8555 9.6094-2.1953 2.6602-4.4453 5.5742-6.7227 9.3281-7.7422-1.9844-15.906 0.875-23.113 3.8672l-19.207 7.9922c-7.6992 3.1875-11.484 8.3789-10.113 13.898 0.89062 3.5391 4.0078 7.8047 13.816 8.0508 0.72656 0.019531 1.6875 0.25 2.6602 0.49219-8.4727 3.3828-10.344 8.2266-10.289 11.824 0.035156 1.8281 1.1602 3.4688 2.8711 4.125 15.879 6.1641 32.59 9.4453 49.664 9.7617 0.75 0.011718 1.4648 0.023437 2.1797 0.023437 6.7734 0 12.094-0.60938 17.016-1.9102 6.5742-1.7695 12.504-4.8984 18.281-7.957l50.895-26.941c1.8633-0.98438 4.6641-2.4609 6.375-5.2852 1.793-2.9297 1.7812-6.2109 1.5234-9.0469-1.207-13.184-6.5391-25.992-15.035-36.094-0.77734-0.92188-1.8984-1.4492-3.0977-1.5508-2.1172-3.0273-4.1055-6.1367-5.7852-9.4062-2.7539-5.332-4.957-11.051-7.1016-16.582l-1.1797-3.0391 9.207 0.4375c0.59766 0.023438 1.2891 0.058594 2.0391 0.058594 1.9453 0 4.2656-0.23438 6.4336-1.418 4.8984-2.625 6.1992-8.3555 6.8203-11.098 1.0391-4.5469 1.7188-8.1719 2.2852-11.598 11.035 40.961 22.848 81.238 34.758 120.55 0.42188 1.3828 1.4883 2.4844 2.8477 2.9531 41.438 14.227 80.016 35.93 109.05 53.285 3.4453 2.0508 7.3359 4.3711 12 4.8633 0.63281 0.058594 1.2422 0.09375 1.8398 0.09375 6.1523 0 11.449-3.1523 16.16-5.9766l3.1172-1.8164c12.668-7.0664 28.582-8.5078 43.98-9.9023 20.988-1.9102 42.691-3.8789 57.281-19.98 1.0391-1.1523 1.4141-2.7461 1.0039-4.2344zm-360.25-899.37c0.039063 0.058594 0.046875 0.12891 0.089844 0.1875l13.781 18.129c1.7109 2.2617 3.4922 4.6016 4.5586 7.0156 1.7578 3.9492 1.793 8.6836 0.10547 12.656-1.6523 3.8633-6.2695 7.2969-9.5977 5.918-0.69141-0.28125-1.4062-0.32031-2.1094-0.25-1.3281-12.77-4.5234-25.434-9.4805-37.18-0.39844-0.93359-0.9375-1.9141-1.4453-2.8828 0.57031-0.47656 1.0898-0.95312 1.5391-1.3711 0.52734-0.49219 1.0312-0.99609 1.5586-1.3711 0.37109-0.26562 0.65234-0.57422 1-0.85156zm-27.051 264.02c0.17578-0.62891 0.25-1.2969 0.12891-1.9844 0-0.007812-0.007812-0.011718-0.007812-0.019531 0.003906-0.42578 0.074218-0.85156 0.078124-1.2773 0-0.019531-0.011718-0.039062-0.011718-0.058593 0-0.023438 0.011718-0.042969 0.011718-0.066407-0.59766-26.078 1.8047-46.562 5.4766-68.473 4.0391 1.1055 8.1836 1.7695 12.348 1.7695 3.4727 0 6.9141-0.51172 10.309-1.2773-0.003906 0.0625 0.003906 0.12109 0.003906 0.18359-0.45703 11.055-2.8359 20.988-5.1328 30.598-3.9961 16.703-7.6406 32.582-0.70312 51.094-6.25 3.8477-15.828 8.0117-24.188 10.949 0.96094-7.1016 1.5312-14.25 1.6875-21.438zm32.055 10.387c-7.6562-17.293-4.1602-31.941-0.097656-48.895 2.4023-10.02 4.875-20.387 5.3789-32.316 0.066407-1.5547-0.046875-3.0898-0.046875-4.6406 0.53125-1.0859 0.64844-2.3672 0.17578-3.582-0.050782-0.12891-0.15625-0.21484-0.21484-0.33594-0.41406-13.273-2.7539-26.223-5.1172-37.609-3.9961-19.258-13.848-42.836-29.992-56.066l15.484-6.8906c3.0898-1.3789 6.5391-3.0156 9.4805-5.6914 9.7344 81.812 16.355 154.47 20.047 220.12-6.1562-6.5703-10.242-14.176-15.098-24.09zm-23.945-303.42c0.58594 1.8906 1.6289 3.9609 3.9609 5.2031 3.3047 1.7734 6.3984 0.42188 8.2266-0.36328 0.53906-0.21484 1.207-0.49609 1.6172-0.15234-1.6172 0.92969-2.4961 2.7695-2.2031 4.6211 0.29297 1.8477 1.7109 3.3242 3.5391 3.6992 1.1016 0.22266 2.0508 2.0781 1.8398 3.6133-0.25781 1.9961-1.8281 4.1602-4.2891 5.9297-0.82031 0.58984-1.6523 1.3555-2.4727 2.1289-0.58203 0.55078-1.3789 1.3281-0.98047 1.5703-0.74609-0.46094-1.4805-0.94531-2.2656-1.3359-0.62109-0.30859-1.2539-0.60938-1.8281-1.0039-2.2734-1.5234-3.5977-4.6719-4.9922-8.0117-0.46875-1.1133-0.9375-2.2266-1.4414-3.3047-0.99609-2.1211-2.2383-4.082-3.582-5.9648 0.40234-1.875 2.5234-4.3594 4.8711-6.6289zm-53.074 7.293c3.5977-4.8867 12.797-8.3711 20.074-7.7812 9.7031 0.77344 19.172 7.5703 23.555 16.918 0.45703 0.96094 0.87891 1.957 1.3008 2.957 1.7578 4.207 3.7617 8.9766 8.2734 11.992 0.89062 0.60547 1.8516 1.1016 2.8242 1.582 0.70312 0.35156 1.4297 0.67969 2.0391 1.1484 1.2891 0.99609 2.1914 2.9648 3 4.8867 6.0469 14.316 9.3281 30.094 9.4922 45.641 0.058594 5.4141-0.375 12.117-4.2305 15.922-1.875 1.8477-4.6875 3.0938-7.3945 4.3047l-19.98 8.8945c-1.5703-2.5078-1.5586-6.5156-0.70312-9.75 0.57422-2.1641 1.3945-4.2539 2.2031-6.3477 1.3711-3.5469 2.7891-7.2109 3.2812-11.316 0.65625-5.3906-0.41016-10.609-1.3477-15.215-0.73828-3.6211-1.9688-9.6719-6.9375-12.996-2.5195-1.6953-5.3086-2.2344-8.0508-2.2344-2.6484 0-5.2617 0.49609-7.5938 0.94531-4.3828 0.83203-7.1484 1.2422-8.4141-0.16016-2.2852-2.5977-2.2266-8.1289-2.1797-13.477 0.046874-4.0977 0.082031-8.3281-0.92578-11.914-1.1953-4.2188-3.5742-7.2617-5.6719-9.9492-1.4414-1.8516-2.8125-3.6055-3.5742-5.4883-1.2656-3.1602-0.94922-5.957 0.96094-8.5625zm-24.316 32.867 0.41016-1.207c2.4844-7.207 8.6836-13.414 14.684-19.406 0.019531-0.019531 0.039062-0.042969 0.0625-0.0625 1.2344 2.9336 3.0508 5.3164 4.6836 7.4023 1.8164 2.3281 3.3867 4.3359 4.1016 6.8672 0.65625 2.3398 0.62109 5.7539 0.58594 9.3672-0.070313 6.7266-0.14063 14.352 4.4414 19.535 0.011718 0 0.011718 0.007813 0.011718 0.007813 4.7227 5.3281 11.438 4.043 16.816 3.0273 3.6445-0.68359 7.0781-1.3398 8.9648-0.078125 1.7461 1.168 2.5078 4.2539 3.1289 7.3203 0.84375 4.125 1.7109 8.3906 1.2305 12.332-0.36328 2.9883-1.5234 5.9844-2.7422 9.1523-0.9375 2.4023-1.8516 4.8164-2.5078 7.2969-1.6641 6.2891-1.1172 14.863 4.7617 19.895 0.23438 0.34766 0.54688 0.625 0.88281 0.90234 0.14453 0.10156 0.19922 0.25781 0.34766 0.35547 0.027344 0.019532 0.0625 0.007813 0.089844 0.027344 0.054687 0.035156 0.085937 0.09375 0.14453 0.125 17.672 10.039 28.371 34.918 32.508 54.855 2.1953 10.551 4.3906 22.461 4.9141 34.523-6.8828 1.9219-14.164 1.9414-21.016-0.089843 0.79688-4.4844 1.6172-9.0391 2.4844-13.77 0.44531-2.4453-1.1836-4.7344-3.6328-5.1797-2.3672-0.44141-4.793 1.2188-5.2383 3.668-5.5078 30.094-10.242 56.199-9.6406 90.895-11.277 1.6328-21.668 1.4453-34.703-0.79297-2.1914-0.375-2.4844-0.67188-2.6016-0.64453-0.11719-0.53516 0.45703-2.2227 0.72656-3.0234 7.793-22.816 5.4492-46.953 3.1641-70.289-1.5117-15.605-3.082-31.738-1.5469-47.133 0.58594-5.7852 1.7695-13.117 5.7773-18.609 3.0938-4.2344 8.9766-7.7656 14.32-6.1758 3.4688 1.0039 6.3867 3.8672 9.8438 7.5117l6.7266 7.0781c1.7227 1.8242 4.5703 1.8867 6.3633 0.17188 1.8047-1.7031 1.8867-4.5508 0.17578-6.3594l-6.75-7.0977c-3.457-3.6484-7.7695-8.1914-13.852-9.9492-5.9805-1.7422-12.668-0.12109-18.16 3.7969-1.9727-4.8594-4.8789-9.4844-7.6445-13.711-1.3477-2.0703-2.6602-4.0781-3.7969-6.0273-2.5547-4.3984-5.5312-8.4258-8.4102-12.309l-2.1562-2.9102c1.707-0.55469 3.4727-0.89453 5.1523-1.5547l1.3711-0.55078c2.2969-0.92969 4.4766-1.8047 6.5508-2.0391 2.4727-0.27344 4.2539-2.4961 3.9844-4.9688-0.26953-2.4648-2.5547-4.2109-4.9688-3.9727-3.3047 0.36328-6.293 1.5703-8.9336 2.6328l-1.3047 0.52734c-8.1328 3.2031-16.695 5.0352-25.23 5.582-1.2656-5.8711 1.9766-12.547 7.3711-15.188 1.7383-0.85547 2.7422-2.7305 2.4805-4.6523s-1.7305-3.4609-3.6406-3.8164c-1.1523-0.21484-2.25-1.1406-2.9297-2.4805-0.67187-1.3398-0.76562-2.7773-0.25391-3.8359 0.89062-1.8398 0.36719-3.9336-1.0703-5.2422 0.38281-0.21094 0.66406-0.60938 1.082-0.73828 1.3984-0.43359 2.5078-1.5156 2.957-2.918 0.29688-0.92578 0.17969-1.8672-0.12109-2.7656 5.3594-3.6719 7.7422-9.9883 9.5508-15.309zm-57.785 412.73c-2.6406-0.83594-4.9023-3.4961-7.1836-6.3867-19.961-25.363-37.43-53.25-54.316-80.227-7.0039-11.18-14.242-22.738-19.492-34.934-6.5781-15.297-10.117-31.457-13.746-49.484-3.418-16.941-6.6484-33.914-9.6992-50.922-4.2539-23.707-7.4648-45.035-3.6836-66.043 1.957-10.883 5.6406-19.68 10.945-26.156 6.0664-7.4062 14.516-11.785 22.688-11.785 0.15234 0 0.30859 0 0.46094 0.007812 10.617 0.22266 21.375 8.1094 27.398 20.09 5.7695 11.496 7.1719 24.859 8.5195 37.781l6.293 60.281c0.71484 6.8281 1.5234 14.559 4.6211 21.59 1.7695 4.0078 4.1523 7.5352 6.457 10.953 0.84375 1.2617 1.6953 2.5156 2.5078 3.793 9.8438 15.504 14.051 33.469 18.504 52.492 4.6211 19.746 9.3984 40.16 21.105 57.363 1.5508 2.2773 3.3398 4.5781 5.1641 6.9141 6.1758 7.9258 12.012 15.41 9.8945 23.754-2.7031 10.609-15.078 22.02-25.43 28.117-4.6797 2.75-8.2891 3.6328-11.008 2.8008zm-46.414 336.56c0.51953 4.043 1.0156 7.8516 0.83594 11.613-0.23437 5.0625-1.6953 10.066-3.2344 15.352-0.58984 2.0273-1.0391 4.0781-1.5664 6.1172 0.61719-12.477 1.8555-24.949 3.5117-37.391 0.16406 1.4336 0.26953 2.875 0.45312 4.3086zm-0.94531 62.953-3 1.8242c-0.13672-2.8359-0.23437-5.6719-0.28906-8.5117 0.48828 1.4414 1.1133 2.7656 1.8125 4.0391 0.18359 0.60156 0.48828 1.1328 0.89453 1.6055 0.21484 0.32812 0.34766 0.73047 0.58203 1.043zm83.52-456.45c-0.83984-1.1055-1.6875-2.1953-2.5195-3.2656-1.5703-2.0156-3.0859-3.9961-4.4531-5.9609 0.26953-0.45703 0.69141-0.80469 0.78516-1.3555 7.1094-40.258 5.2812-81.898-4.2148-121.7 1.543-1.0039 2.3984-2.8633 1.957-4.7617-6.3281-27.234-15.715-62.734-32.277-95.801-2.8984-5.7852-5.9961-11.277-9.1797-16.625l5.0078-19.387c0.42578-1.6758 0.96484-3.7578 0.73828-6.0859-0.28906-2.9297-1.6523-5.2578-3.0273-7.3945-0.066406-0.10156-0.15234-0.19141-0.21875-0.29297 0.082031-0.21094 0.29688-0.32812 0.34766-0.55469 1.9258-8.7422 8.5781-16.441 16.957-19.617 0.73828-0.27734 1.3047-0.76953 1.7812-1.332 2.9922 1.1562 5.9336 2.4375 9 3.3945 1.1914 0.36719 2.918 0.91016 4.8828 0.91016 0.90234 0 1.8516-0.10938 2.8203-0.41016 5.2969-1.6211 7.043-7.2656 7.7891-9.6719 1.2852-4.125 1.6055-7.8594 1.0391-10.941 1.2695-0.082032 2.543-0.5625 3.7461-1.3828 0.16797 0.43359 0.27734 0.88281 0.48828 1.3047 0.58984 1.168 1.3242 2.2344 2.1719 3.1719-5.2422 5.3867-7.8242 13.348-6.2305 20.77 0.57812 2.7656 1.8477 4.7539 3.7578 5.9062 1.5586 0.9375 3.1641 1.0898 4.3359 1.0898 0.33984 0 0.64844-0.011719 0.91016-0.023438 4.7734-0.21484 9.4922-0.83594 14.133-1.8125 0.10156 0.18359 0.13672 0.39062 0.26562 0.5625l3.7148 5.0156c2.7344 3.6992 5.5664 7.5156 7.8594 11.473 1.207 2.0781 2.6172 4.2344 4.0586 6.4453 3.582 5.4766 7.1602 11.113 8.1133 16.422-4.1211 6.6055-5.5898 14.16-6.25 20.371l-0.046875-0.011719c-2.3984 4.8398-7.4375 14.988-11.547 20.645-0.60547-0.23438-1.2422-0.36328-1.9023-0.30078-1.207 0.082031-2.332 0.64844-3.1172 1.5781-12.836 15.137-19.609 35.18-18.578 55.008 0.48047 9.2578 2.5977 18.238 4.6367 26.922 3.0234 12.844 6.0352 23.84 9.043 34.832 2.9844 10.891 5.9648 21.777 8.9531 34.492 0.089844 0.38672 0.42188 0.59766 0.59766 0.93359-1.9961 7.707-3.8906 15.453-6.2305 23.031-3.3633 10.871-11.426 25.684-20.098 34.406zm-16.523-390.13c-0.1875-0.57812-0.38281-1.1602-0.48438-1.7383-0.5625-3.0586 2.4258-6.2578 5.5078-7.4648 2.2734-0.88672 4.625-1.332 6.6797-1.7422 0.37891-0.074219 0.75391-0.16797 1.1328-0.24609 1.2227 10.066 2.3672 20.336 2.1484 30.418l-0.12109 4.0781c-0.28906 8.4844-0.61328 17.918 3.2812 25.996-3.3828 2.6016-5.7266 6.5156-6.2656 10.816 0 0 0 0.011719-0.007812 0.035157-0.25391-0.046876-0.49609-0.09375-0.69922-0.13672-1.9609-0.39062-7.9961-1.5938-9.6406 4.1602-0.62891 2.2148 0.51562 4.5469 2.6484 5.4023 1.0039 0.40234 1.2109 3.7734-0.09375 7.9688-1.0312 3.3398-1.7031 3.6992-1.8281 3.7383-0.28125 0.070312-1.082-0.082031-2.3789-0.48438-10.066-3.1406-19.754-7.4531-28.797-12.82-2.1484-1.2656-4.8984-0.57031-6.1641 1.5703-1.2695 2.1406-0.57031 4.8984 1.5703 6.1641 3.7227 2.2109 7.6289 4.1016 11.539 5.9688-6.8125 3.9844-12.148 10.043-15.203 17.316-10.738-13.941-24.098-25.723-39.383-34.5 1.5078 0.16406 3.1016 0.33203 4.7461 0.33203 2.1211 0 4.3203-0.27344 6.5117-1.2031 10.023-4.2305 10.324-17.297 10.473-23.582 0.13672-6.1016 2.0898-12.855 6.0703-13.285 2.3516-0.32422 5.1445 1.6211 8.1133 3.6211 4.2656 2.8633 9.5859 6.4336 15.867 4.3711 5.8477-1.9219 8.1641-7.3242 10.02-11.672 1.2344-2.8828 2.4023-5.6094 4.2031-6.8203 0.84375-0.57422 1.8594-0.96484 2.8477-1.3828 2.9883-1.2539 7.0781-2.9766 8.332-7.6211 0.76562-2.8398-0.042968-5.3945-0.625-7.2578zm-38.23 112.68c0.81641 1.2617 1.5469 2.4609 1.6406 3.3867 0.070313 0.75-0.22266 1.8828-0.49609 2.9648l-2.8867 11.164c-12.176-18.234-26.168-33.566-41.84-45.816 0.38672-0.57812 0.6875-1.2188 0.77734-1.957 0.38281-3.1094 1.0391-6.1758 1.957-9.1641 16.414 9.8164 30.465 23.355 40.848 39.422zm92.867 76.277-4.5156-4.0156c1.3164-1.7656 2.6719-3.8242 4.0664-6.1719 0.085938 3.4023 0.22266 6.793 0.44922 10.188zm-7.3633 125.74c-1.7734-6.8359-3.5391-13.344-5.3047-19.805-2.9844-10.898-5.9727-21.793-8.957-34.523-1.957-8.2969-3.9727-16.875-4.4141-25.328-0.83594-16.02 4.082-32.207 13.594-45.102l12.668 11.25c0.21484 0.19531 0.52344 0.12109 0.76562 0.26562 0.21094 2.2578 0.41406 4.5273 0.62891 6.7656 2.2852 23.414 4.4414 45.539-2.7305 66.52-0.83203 2.4609-2.0039 6.1406-0.26953 9.7383-0.015624 0.070313-0.0625 0.12109-0.070312 0.19531-1.6133 10.043-3.6992 20.051-5.9102 30.023zm-114.11-346.49c4.9766-2.5547 10.789-3.293 17.328-3.9375 12.164-1.2109 26.207-2.2148 39.023 1.0234 9.6719 2.4453 17.582 6.668 21.172 11.293 1.0664 1.3789 1.6992 2.3594 2.0781 3.043-0.85156 0.21484-1.9258 0.42578-2.8125 0.60547-2.5312 0.50391-5.4102 1.0977-8.2031 2.1914-6.4609 2.5234-12.551 9.5039-11.09 17.465 0.17188 0.94531 0.45703 1.8906 0.75781 2.8359 0.22266 0.69922 0.58984 1.8633 0.51953 2.207-0.25781 0.45312-2.1289 1.2344-3.1289 1.6602-1.543 0.64844-3.0859 1.3281-4.3984 2.2148-3.9883 2.6953-5.8242 6.9727-7.4336 10.746-1.6016 3.7383-2.707 6.0508-4.5508 6.6562-1.9922 0.66406-4.3594-0.80859-8.0469-3.2891-3.9805-2.6758-8.5078-5.6914-14.098-5.1055-10.066 1.082-13.883 12.094-14.105 22.031-0.16016 7.0312-0.87109 13.77-4.9688 15.496-1.7734 0.76172-4.1406 0.51562-6.8945 0.20312-0.050781-0.007812-0.10156-0.011718-0.14453-0.015624 0.14453-9.793-1.7148-19.391-3.5273-28.711-1.168-6.0234-2.3789-12.246-2.9844-18.309-1.418-14.199 1.8008-33.27 15.508-40.305zm-29.328 118.94c0.29688-0.97266 0.51562-1.4922 0.47656-1.7031 0.29688 0.12109 0.82813 0.39844 1.6992 1.0156 24.797 17.391 45.57 42.586 61.734 74.871 3.6602 7.3047 6.918 14.746 9.9102 22.191-3.0312-5.5508-5.9922-11.141-9.3828-16.48-1.3281-2.1055-4.125-2.7344-6.2031-1.3906-2.1055 1.3281-2.7266 4.1094-1.3906 6.2031 36.723 57.879 51.629 129.14 41.961 196.96-6.2305-13.074-9.6914-27.574-13.238-42.746-4.4297-18.922-9.0078-38.48-19.676-55.27-0.85547-1.3477-1.7539-2.6719-2.6406-3.9961-2.1797-3.2305-4.2344-6.2734-5.6758-9.5508-2.5312-5.7344-3.2344-12.426-3.9102-18.895l-6.293-60.281c-1.3711-13.082-2.918-27.914-9.4336-40.887-7.5-14.922-21.34-24.758-35.25-25.047-6.1445-0.039063-12.422 1.8633-18.211 5.125 3.2539-4.7617 6.7188-9.5898 10.473-14.527 0.17578-0.23438 0.24219-0.50781 0.36719-0.76172 0.10938-0.22266 0.27344-0.40234 0.34766-0.64453zm-71.953 493.27c-0.10547-0.39844 0.10547-1.6523 0.17578-2.0625 17.391-102.59 18.293-204.19 17.66-317.51-0.082031-16.137-0.17187-32.824 1.8164-48.949 1.9648-15.918 5.4141-30.512 10.574-44.715-1.7578 19.215 1.1836 38.492 4.9531 59.527 3.0586 17.074 6.3047 34.109 9.7344 51.117 3.7266 18.52 7.3789 35.164 14.309 51.266 5.5195 12.82 12.945 24.68 20.129 36.152 15.727 25.109 32.043 50.938 50.414 75.039-3.7656 27.602-7.2109 54.746-10.645 81.891-3.3281 26.273-6.6562 52.547-10.285 79.23l-82.828-16.105c-0.54297-0.33203-1.1445-0.57422-1.8164-0.65234-0.39062-0.054687-0.75391 0.03125-1.125 0.078126l-21.445-4.168c-1.0391-0.19922-1.6836-0.375-1.6211-0.14062zm9.0039 244.65c3.5586-76.664 9.8359-154.09 18.578-230.29l84.203 16.375c0.28906 0.058594 0.57422 0.082031 0.85938 0.082031 0.92969 0 1.8516-0.29297 2.6172-0.84375 1.0078-0.71484 1.6719-1.8164 1.8398-3.0469 3.8867-28.348 7.4062-56.191 10.934-84.047 3.0742-24.277 6.1875-48.602 9.5-73.215 0.13672 0.14453 0.27734 0.28125 0.41797 0.42578-4.7031 66.758-10.898 138.53-24.043 211.81-2.4648 13.746-5.2227 27.492-7.9805 41.25-9.5156 47.496-19.348 96.574-16.898 145.73-24.152 0.51563-48.289-3.2578-71.539-10.301-2.7109-0.83203-5.2617-1.7109-6.6562-3.2812-2.043-2.2852-2.0234-6.5156-1.832-10.652zm132.94 77.801c4.4219 0.87891 8.6016 1.7109 12.199 3.5625 4.2695 2.2031 8.0352 7.125 6.6562 11.227-1.7383 5.1797-10.172 6.3867-16.934 6.4805-45.445 0.63281-85.609-2.7773-122.6-10.289-2.9141-0.59766-5.8594-1.3125-7.1133-3-1.3281-1.7812-1.0234-5.0977-0.59766-8.3203l7.0898-53.402c20.5 5.6836 41.516 8.7461 62.734 9.0547 10.859 16.051 27.684 36.934 51.898 43.234 2.1953 0.5625 4.4297 1.0195 6.6641 1.4531zm30.246-41.156c1.6289 1.9336 1.3594 5.6133 0.94922 9.2109-0.24609 2.1328-0.51562 2.8008-0.66797 2.9648-0.32812 0.21094-1.6445 0.33984-2.1992 0.39844l-56.75 5.2109c-6.8594-5.8281-12.711-12.625-17.617-19.219l14.762-8.957c0.91406-0.55859 1.4648-1.4609 1.8008-2.4492l52.406 9.9727c3.2188 0.61719 5.9805 1.2617 7.3164 2.8672zm-27.559-380.22c0.66406-8.6094 1.3516-17.254 1.9531-25.711 0.65625 0.17188 1.3398 0.22266 2.0156 0.30859-0.023437 0.10938-0.097656 0.19531-0.11328 0.30469zm54.883-43c-0.44141 0.50391-1.3398 1.0234-2.293 1.582-1.8398 1.0742-4.125 2.4023-5.5898 4.957-0.48047 0.82812-0.82031 1.7305-1.3633 3.5352-0.48047 0.21094-2.2148 0.035157-3.2695-0.066406-2.6328-0.26953-5.8828-0.58594-8.918 1.0078-2.707 1.3945-4.3242 3.8164-5.6328 5.7617-0.55078 0.82031-1.3789 2.0547-2.1133 2.0547h-0.023437c-0.94531-0.28906-2.2383-0.67188-3.8555-0.55469-1.3281 0.10938-2.3711 0.55469-3.6914 1.1016l1.3828 4.2852-2.4883-4.957c-0.375-0.72656-1.125-1.9922-2.4609-2.9102 1.5859-0.65625 3.1523-1.2461 4.8594-2.2461 10.418-6.1445 23.398-17.41 28.312-30.043 2.0352 2.4805 3.9531 4.8242 5.1602 7.0391 2.5391 4.668 3.2461 8.0234 1.9844 9.4531zm4.6875-15.629c-1.5078-2.3359-3.2617-4.6094-5.0586-6.8008-1.957-2.3828-3.7578-4.6289-5.0039-6.7695-0.58594-4.1641-2.2422-8.0273-4.3828-11.668 10.508-9.9336 19.789-26.973 23.566-39.246 6.8867-22.332 12.215-45.336 16.098-68.418 0.375 0.074219 0.80469 0.17188 1.0859 0.21875 7.9688 1.3633 15.141 2.0469 22.102 2.0469 4.5859 0 9.1133-0.40234 13.688-0.98828-2.2539 49.898-24.984 98.188-62.094 131.62zm93.129 437.66c2.5312-3.0703 5.1328-6.2344 7.7812-10.957 1.3125-2.3672 2.8125-5.0625 3.3398-8.2383 0.375-2.1211 0.25781-4.125 0.15234-5.8945-0.58594-10.383-1.332-21.051-4.0898-31.441l4.6328 0.21875 4.6367 27.016c0.39844 2.3906 0.83203 4.8516 0.45703 6.9141-0.49219 2.7773-2.543 5.4609-4.6055 7.9688l-3.4922 4.1719c-5.0859 6.0039-10.262 12.18-13.664 19.363-0.33203-0.36719-0.66406-0.72656-1.0039-1.0625 1.9141-3.1172 3.8398-5.6055 5.8555-8.0586zm-57.363 27.164c0.070312-0.41016 1.3477-1.957 4.8398-3.3984l19.195-7.9805c6.8906-2.8711 14.086-5.4258 19.535-2.7305 2.7852 1.3789 7.0234 8.1328 10.246 14.676-2.5312-0.57812-5.1211-1.1055-7.9375-1.2109-7.9844-0.28906-16.387 2.7656-24.195 5.9141-1.7773-0.19141-4.1523-0.92578-6.5312-1.7148-3.3047-1.1016-6.7031-2.2383-9.8555-2.3086-3.8086-0.097656-5.1562-0.98828-5.2969-1.2461zm137.05-10.289c-0.42188 0.69141-1.8398 1.4414-2.8945 1.9922l-50.941 26.965c-5.5312 2.9297-10.77 5.6953-16.359 7.1953-4.582 1.207-9.7734 1.6758-16.699 1.582-14.191-0.25781-28.113-2.707-41.473-7.2891 0.91406-0.51562 2.1094-1.0547 3.6328-1.5586 2.9531-1.0078 6.1406-2.3086 9.457-3.668 7.8398-3.1992 17.051-6.7734 23.777-6.5742 2.7773 0.09375 5.5547 0.77344 8.4961 1.4766 6.7617 1.6641 14.426 3.5039 22.793-1.9336 8.9414-4.4766 15.855-11.848 21.973-18.352l28.457-30.297c0.12109 0.015625 0.21875 0.125 0.34375 0.13281 5.4023 7.8945 8.8164 17.219 9.6836 26.746 0.082031 0.82812 0.24609 2.7617-0.24609 3.582zm-30.199-64.758c2.2266 5.7422 4.5234 11.684 7.4883 17.449 1.8906 3.6641 4.1016 7.168 6.4805 10.562l-28.57 30.418c-5.918 6.3047-12.047 12.832-19.641 16.559-0.17578 0.09375-0.35156 0.1875-0.51562 0.30469-2.5469 1.6875-4.9922 2.2578-7.5391 2.2422-1.25-3.0039-3.2578-7.3477-5.7344-11.641 2.3203-8.2031 8.0508-15.148 14.223-22.441l3.5859-4.2773c2.6836-3.2695 5.625-7.1836 6.5039-12.082 0.64453-3.6094 0.070313-7.0195-0.45703-10.031l-4.3008-25.055 25.859 1.2266zm27.152-48.141c-0.99609 10.418-1.5469 16.148-4.207 27.82-0.30469 1.3359-1.0312 4.4883-2.3438 5.1914-0.78516 0.41016-2.4844 0.35156-3.75 0.26953l-15.785-0.75c-0.27734-0.039063-0.54297-0.054688-0.82422-0.039063l-87.277-4.1445c-3.2812-0.14062-6.1641-0.375-8.0273-1.6641-1.8633-1.2891-3.0586-3.9375-4.0781-6.5977-6.3984-17.027-7.2422-35.062-7.6875-56.859-2.2617-109.63-0.53906-225.23 1.6523-333.83 0.003906-0.22266-0.085938-0.41406-0.11328-0.625 15.086-22.484 25.574-47.922 30.594-74.543 8.4336-2.6523 20.926-7.5938 29.633-12.75 5.7109 11.285 11.242 20.359 21.273 28.293 0.10156 0.082031 0.23828 0.050781 0.34766 0.12109 0.74219 14.539 1.3945 28.859 1.8477 42.734 0.36328 11.109 0.66797 22.219 0.97266 33.324 0.9375 33.773 1.8984 68.691 4.5586 103 6.5352 84.152 23.219 166.29 43.742 245.67zm229.79 173.32c-16.336 1.4766-33.223 3.0117-47.555 11.016-1.1133 0.60938-2.2266 1.2773-3.3398 1.9453-2.7383 1.6367-5.3828 3.1523-7.957 4.0039 0.35938-1.3086 0.20312-2.7383-0.67969-3.8945-53.18-69.902-77.766-155.48-102.23-252-27.75-109.43-49.055-199.71-67.031-284.11-0.51562-2.4219-2.8477-3.9961-5.3438-3.4609-2.4258 0.51562-3.9844 2.9062-3.4688 5.3359 18.012 84.516 39.34 174.9 67.125 284.44 24.379 96.168 48.961 181.6 101.63 252.27-0.94922-0.51562-1.8867-1.0156-2.8789-1.6094-28.852-17.238-67.113-38.766-108.5-53.273-36.762-121.42-73.359-251.16-83.801-385.73-2.6484-34.078-3.6094-68.883-4.5352-102.55-0.30469-11.121-0.60938-22.246-0.97266-33.367-2.707-83.121-10.594-177.6-24.105-288.83-0.0625-0.51953-0.25391-0.99219-0.47656-1.4375 0.34766-2.6992 0.52344-5.375 0.5-7.832-0.011719-0.97656-0.14453-1.9531-0.17578-2.9297 1.0586 0.26172 2.1133 0.61719 3.1758 0.61719 2.1055 0 4.1328-0.61328 6.082-1.4766l1.2891 6.4453c13.91 69.418 27.059 134.99 46.863 203.29 48.398 166.81 103.54 334.03 163.89 497 11.215 30.27 25.16 67.934 49.84 96.82 18.141 21.234 42.316 37.793 68.707 47.168-12.082 9.0664-28.641 10.566-46.043 12.148z"/>
</svg>
