<?xml version="1.0" encoding="UTF-8"?>
<svg width="1200pt" height="1200pt" version="1.1" viewBox="0 0 1200 1200" xmlns="http://www.w3.org/2000/svg">
 <path d="m509.3 252c3.5195 3.4688 9.1758 3.4492 12.676-0.042969 3.4961-3.4922 3.5195-9.1523 0.058594-12.676l-32.266-32.281c-10.191-10.215-15.918-24.055-15.918-38.484 0-14.426 5.7266-28.266 15.918-38.48 10.133-10.277 23.969-16.055 38.398-16.035 14.434-0.03125 28.277 5.7148 38.445 15.961 3.5742 3.3867 9.1758 3.3867 12.75 0 10.172-10.25 24.023-15.996 38.461-15.961 14.422-0.035156 28.254 5.7148 38.398 15.961 7.3789 7.4062 12.465 16.777 14.656 27-4.4648 1.6914-8.6836 3.9766-12.539 6.793-10.406-7.582-23.18-11.199-36.016-10.195-12.836 1.0039-24.891 6.5625-33.992 15.672-10.125 10.152-15.812 23.91-15.812 38.25 0 14.34 5.6875 28.098 15.812 38.25l14.594 14.609-30 30-7.9805-7.9961h0.003906c-1.6836-1.7109-3.9766-2.6797-6.3789-2.6914-2.3984-0.011719-4.7031 0.9375-6.4023 2.6328-1.6953 1.6953-2.6484 4-2.6367 6.3984 0.007812 2.4023 0.97266 4.6992 2.6836 6.3828l14.34 14.371v-0.003906c1.6875 1.6914 3.9766 2.6406 6.3672 2.6406 2.3867 0 4.6797-0.94922 6.3672-2.6406l36.375-36.434 36.316 36.359c1.6875 1.6914 3.9766 2.6406 6.3672 2.6406 2.3867 0 4.6797-0.94922 6.3672-2.6406l63.645-63.719c10.125-10.156 15.812-23.91 15.812-38.25s-5.6875-28.098-15.812-38.25c-10.102-10.168-23.855-15.867-38.191-15.824h-1.6367 0.003906c-3.4297-16.207-12.32-30.746-25.188-41.18-12.867-10.434-28.93-16.129-45.492-16.137-16.285-0.050781-32.102 5.4414-44.852 15.57-12.742-10.125-28.547-15.613-44.82-15.57-19.215-0.0625-37.656 7.5898-51.18 21.238-13.559 13.594-21.176 32.008-21.176 51.203 0 19.199 7.6172 37.613 21.176 51.203zm206.32-70.051c6.7461 6.7734 10.531 15.941 10.531 25.5 0 9.5586-3.7852 18.727-10.531 25.5l-57.27 57.348-36.227-36.27-0.089844-0.12109-0.12109-0.089844-20.836-20.867c-6.7422-6.7734-10.531-15.941-10.531-25.5 0-9.5586 3.7891-18.727 10.531-25.5 6.7539-6.7461 15.906-10.535 25.449-10.535 9.543 0 18.695 3.7891 25.449 10.535 3.5703 3.3867 9.1641 3.3867 12.734 0 6.75-6.75 15.906-10.543 25.453-10.543 9.5469 0 18.703 3.793 25.457 10.543z"/>
 <path d="m357 642.51c0 4.9688-4.0312 9-9 9s-9-4.0312-9-9c0-4.9727 4.0312-9 9-9s9 4.0273 9 9"/>
 <path d="m546 267.02c0 4.9688-4.0312 9-9 9s-9-4.0312-9-9c0-4.9727 4.0312-9 9-9s9 4.0273 9 9"/>
 <path d="m496.5 883.52c0 4.9688-4.0312 9-9 9s-9-4.0312-9-9c0-4.9727 4.0312-9 9-9s9 4.0273 9 9"/>
 <path d="m708 901.52c0 4.9688-4.0312 9-9 9s-9-4.0312-9-9c0-4.9727 4.0312-9 9-9s9 4.0273 9 9"/>
 <path d="m357 678.51c0 4.9688-4.0312 9-9 9s-9-4.0312-9-9c0-4.9727 4.0312-9 9-9s9 4.0273 9 9"/>
 <path d="m357 714.51c0 4.9688-4.0312 9-9 9s-9-4.0312-9-9c0-4.9727 4.0312-9 9-9s9 4.0273 9 9"/>
 <path d="m593.76 930c4.1328-1.2969 6.7539-5.3594 6.2383-9.6602l-43.828-332.52c-1.1719-8.8867-6.6719-16.613-14.688-20.625l-81.465-40.695h-0.13672 0.003907c-0.30469-0.13672-0.61719-0.25781-0.93359-0.35938-0.26953-0.089844-0.52344-0.19531-0.79688-0.26953h-0.14844l-54.238-12.523v-0.003906c-3.1914-3.8242-6.8086-7.2734-10.785-10.273v-5.582c14.387-8.0898 26.227-20.039 34.18-34.504 7.9531-14.465 11.699-30.867 10.82-47.348v-65.445c3.7617-2.3086 6.8125-5.6094 8.8203-9.543 3.957-11.367 1.8203-23.969-5.6562-33.402-9.6484-15.84-23.398-28.777-39.797-37.445-16.395-8.668-34.828-12.746-53.352-11.801-46.727 0-63.48 9.7656-69.211 18.27-11.43 0.078125-22.039 5.9531-28.168 15.602-11.445 19.711 2.7148 49.621 7.3789 58.5v65.129c-0.87891 16.484 2.8711 32.883 10.82 47.348 7.9531 14.465 19.793 26.418 34.18 34.508v5.5781c-3.9766 3.0039-7.5938 6.4492-10.785 10.277l-54.238 12.523h-0.14844c-0.26953 0-0.52344 0.17969-0.79688 0.26953-0.31641 0.097656-0.62891 0.21484-0.92969 0.34766h-0.13672l-81.465 40.844c-8.0156 4.0117-13.516 11.738-14.684 20.625l-43.742 332.52c-0.52344 4.2812 2.0625 8.332 6.1641 9.6602-3.5078 9.6484-5.6094 19.754-6.2383 30 2.3281 18.617 9.4375 36.312 20.641 51.359 1.832 1.8984 4.3516 2.9766 6.9883 3 0.86719-0.003906 1.7305-0.12109 2.5664-0.34375 4.0195-1.0664 8.9102-2.3711 19.262-36.781l7.1836 7.1836v0.003906c1.6875 1.6875 3.9727 2.6367 6.3594 2.6367h9c2.7305 0.003906 5.3125-1.2344 7.0234-3.3633 1.707-2.1289 2.3594-4.9219 1.7656-7.5859l-6.2109-27.961c3.3398-0.92188 5.8164-3.7266 6.3164-7.1523l29.836-185.61 6.1797 57.766-35.73 178.65c-0.48828 2.4531 0.0625 4.9961 1.5234 7.0273 1.4648 2.0273 3.7031 3.3555 6.1875 3.668l10.109 1.2617v91.242c0 4.9688 4.0312 9 9 9s9-4.0312 9-9v-89.039l60.465 7.5c2.6484 0.32812 5.3125 0.49609 7.9805 0.49219 14.328 0.007813 28.219-4.918 39.344-13.949 4.6641-3.7344 8.7734-8.1133 12.211-13.004h30c3.4219 4.9102 7.5234 9.3086 12.18 13.066 11.125 9.0273 25.02 13.953 39.344 13.949 2.668 0 5.3359-0.16406 7.9805-0.49609l60.465-7.5v88.98c0 4.9688 4.0312 9 9 9 4.9727 0 9-4.0312 9-9v-91.289l10.109-1.2617c2.4844-0.30859 4.7266-1.6367 6.1875-3.668 1.4609-2.0273 2.0156-4.5742 1.5234-7.0273l-15.793-79.152c-0.98047-4.875-5.7227-8.0352-10.598-7.0586-4.875 0.97656-8.0352 5.7227-7.0586 10.598l13.934 69.645-78.977 9.8711h0.003906c-12.105 1.5117-24.305-1.9531-33.805-9.6016-9.5-7.6484-15.492-18.828-16.598-30.977l-12.602-138.6 105.52-123.11 0.003907 0.003906c1.9023-2.2148 2.6094-5.2109 1.9062-8.0391l-17.488-69.945 15-67.664 71.145 35.566v-0.003907c2.6758 1.3359 4.5156 3.918 4.9023 6.8867l42.781 324.82-45.781 13.078-38.91-241.99c-0.71484-4.4531-4.6133-7.6914-9.1211-7.5742-4.5078 0.12109-8.2305 3.5547-8.7109 8.0391l-13.5 126c-0.10156 0.91016-0.0625 1.832 0.11719 2.7305l7.5742 37.875c0.98047 4.875 5.7227 8.0352 10.598 7.0547 4.875-0.97656 8.0352-5.7188 7.0586-10.598l-7.3047-36.523 6.1953-57.766 29.836 185.62c0.55078 3.4102 3.0039 6.1992 6.3125 7.1875l-6.2109 27.93h0.003906c-0.59375 2.6641 0.058594 5.4531 1.7656 7.582 1.7109 2.1289 4.293 3.3672 7.0234 3.3672h9c2.3867-0.003906 4.6719-0.95312 6.3594-2.6406l7.1836-7.1836c10.363 34.41 15.254 35.715 19.262 36.781v-0.003906c0.83594 0.22656 1.6992 0.33984 2.5664 0.34766 2.6367-0.023437 5.1562-1.1055 6.9883-3 11.188-15.039 18.293-32.719 20.625-51.316-0.62891-10.246-2.7305-20.352-6.2383-30zm-245.76-17.039 1.8281 20.055h-3.6445zm0-122.64c-24.695-58.996-42.277-120.72-52.379-183.87 2.7695 5 5.8359 9.8281 9.1797 14.461 1.5664 2.082 3.957 3.3828 6.5547 3.5703h0.64453c2.3867-0.003907 4.6719-0.95312 6.3594-2.6406l29.641-29.594 29.641 29.641c1.6875 1.6875 3.9727 2.6367 6.3594 2.6367h0.62891c2.6016-0.18359 4.9922-1.4844 6.5547-3.5703 3.3477-4.6328 6.4102-9.4609 9.1797-14.457-10.098 63.133-27.676 124.84-52.363 183.82zm34.5-189-20.266-20.266c15.625-13.906 25.781-32.922 28.652-53.641 3.3633 5 5.8984 10.512 7.5 16.32 1.0703 20.41-4.5039 40.613-15.887 57.586zm-7.5-93.809c0 0.46484-0.34375 44.266-27 61.605-26.52-17.297-27-61.156-27-61.621v-1.832c17.359 6.6328 36.52 6.8125 54 0.51172zm-69.93 19.906v-0.003907c2.8672 20.719 13.027 39.734 28.648 53.641l-20.219 20.266c-11.359-16.98-16.918-37.184-15.84-57.586 1.5742-5.7969 4.0781-11.305 7.4102-16.305zm-38.879-226.5c2.6562-4.5742 9-6.8984 18.809-6.8984v-0.003906c4.3633 0 8.1016-3.1289 8.8633-7.4258 1.0664-1.3789 9.8984-10.574 54.137-10.574 15.324-0.96484 30.621 2.2461 44.258 9.2969 13.641 7.0469 25.109 17.664 33.188 30.723 0.24219 0.48438 0.52734 0.94531 0.85547 1.3789 2.4297 3.2539 6.375 11.297 4.4258 15.18-0.71875 1.5-4.3789 6-21.703 6.3906-52.125-31.695-104.59-14.113-121.38 2.6719h-0.003906c-1.6328 1.9922-4.0312 3.1992-6.6016 3.3281-2.5703 0.12891-5.0781-0.83594-6.8984-2.6562-5.4453-10.062-13.695-31.5-7.9492-41.414zm9.8086 114.58v-52.98c8.9844 1.6953 18.203-1.3867 24.359-8.1445 11.371-11.371 56.684-27.164 101.31 1.2305h0.003906c1.4414 0.91797 3.1172 1.4102 4.8281 1.4102 4.5156 0.015625 9.0273-0.28125 13.5-0.88672v59.371c0.94141 14.102-2.3672 28.164-9.5 40.367-7.1367 12.203-17.766 21.984-30.52 28.078l-0.30078 0.17969-0.21094 0.089844c-9.6211 5.6367-20.582 8.5859-31.734 8.5391-11.156-0.042968-22.09-3.082-31.668-8.793-12.766-6.0898-23.406-15.871-30.551-28.074-7.1445-12.207-10.457-26.277-9.5156-40.387zm-9.2109 198-16.066-72.285 30.555-7.0508h0.003906c-0.54688 1.9766-0.99219 3.9805-1.3359 6-0.074218 0.46484-0.089843 0.91406-0.14844 1.3789-15 60.105 16.949 163.21 39.766 224.93l-69.691-81.316 16.875-67.5v0.003906c0.33594-1.3633 0.35156-2.7852 0.042968-4.1562zm-119.43 340.16c-2.2695-2.2461-5.5586-3.1211-8.6406-2.3008-3.0859 0.82031-5.5039 3.2148-6.3594 6.2891-2.7734 10.156-6.3164 21.602-9.3164 29.879h0.003906c-4.625-8.5625-7.6875-17.883-9.0469-27.523 0.71094-8.5391 2.582-16.941 5.5664-24.977l31.68 9 3.8398 17.281zm162.14 32.414c-9.4844 7.6875-21.703 11.156-33.812 9.6016l-78.977-9.8711 34.094-170.5h0.003907c0.17969-0.89844 0.22266-1.8203 0.12109-2.7305l-13.5-126c-0.48047-4.4844-4.207-7.9219-8.7148-8.0391-4.5078-0.11719-8.4062 3.1211-9.1211 7.5742l-38.863 241.98-45.797-13.078 42.734-324.82c0.39063-2.9688 2.2266-5.5508 4.9062-6.8867l71.145-35.566 15 67.664-17.488 69.945v0.003907c-0.70703 2.8281 0.003907 5.8242 1.9023 8.0391l105.52 123.11-12.602 138.6 0.003907-0.003906c-1.0547 12.156-7.0391 23.352-16.559 30.977zm32.176-17.07c1.1836-4.0117 1.9727-8.1328 2.3516-12.301l0.52344-5.6992h6.9141l0.52344 5.6992h0.003906c0.38281 4.168 1.1719 8.2891 2.3555 12.301zm34.828-202.5c22.816-61.711 54.75-164.8 39.766-224.93 0-0.46484-0.074219-0.92969-0.14844-1.3789h-0.003907c-0.34375-2.0195-0.78906-4.0234-1.332-6l30.555 7.0508-16.125 72.254c-0.32422 1.3594-0.32422 2.7773 0 4.1406l16.875 67.5zm196.5 221.04c-3-8.2969-6.5391-19.738-9.3164-29.895-0.85156-3.0742-3.2734-5.4688-6.3555-6.2891-3.0859-0.82031-6.375 0.054687-8.6445 2.3008l-7.7109 7.7109 3.8398-17.281 31.68-9h0.003906c2.957 8.0156 4.8086 16.398 5.5039 24.914-1.3438 9.6406-4.3906 18.965-9 27.539z"/>
 <path d="m356.54 1038.2c-1.2266-3.668-4.6641-6.1445-8.5352-6.1445s-7.3086 2.4766-8.5352 6.1445l-18 54c-1.4609 4.6797 1.0898 9.668 5.7422 11.219 4.6484 1.5547 9.6836-0.89844 11.328-5.5195l9.4648-28.363 9.4648 28.395c0.71875 2.3086 2.3398 4.2305 4.4922 5.332 2.1523 1.0977 4.6562 1.2891 6.9492 0.52344s4.1836-2.4219 5.2422-4.5977c1.0586-2.1719 1.1953-4.6797 0.38672-6.957z"/>
 <path d="m683.5 923.67c-4.1484-2.7344-9.7305-1.5859-12.465 2.5625-33.648 50.797-57.652 107.36-70.812 166.84-0.51562 2.332-0.082031 4.7734 1.2031 6.7852 1.2852 2.0117 3.3203 3.4297 5.6484 3.9414 0.63672 0.14062 1.2852 0.21094 1.9375 0.21094 4.2188-0.007813 7.8672-2.9453 8.7734-7.0664 12.699-57.336 35.844-111.84 68.281-160.8 1.3164-1.9922 1.7852-4.4297 1.3047-6.7695-0.48047-2.3438-1.8711-4.3945-3.8711-5.707z"/>
 <path d="m1103.8 1093.1c-21.855-96.195-71.113-184-141.81-252.81l67.156-62.684c2.0547-1.9258 3.0938-4.6992 2.8047-7.5l-16.02-149.4v-0.003906c-0.66797-10.723-4.5312-21-11.094-29.512-6.5586-8.5078-15.516-14.859-25.719-18.23l-25.273-8.4297-2.8516 8.5352 2.4141-8.6719-16.051-4.5h0.003906c1-25.113 6.9102-49.789 17.398-72.629 12.055-26.344 18.445-54.926 18.75-83.895 0.12891-34.645-10.551-68.465-30.555-96.75-7.3945-10.43-16.473-19.555-26.867-27-18.359-14.137-40.91-21.738-64.078-21.602h-8.2188c-20.707-0.10938-40.105 10.09-51.75 27.211-10.336 1.3555-19.727 6.7148-26.145 14.926-22.996 29.484-35.453 65.82-35.387 103.21 0.30078 28.969 6.6836 57.551 18.734 83.895 10.488 22.84 16.398 47.516 17.402 72.629l-16.051 4.5 2.4141 8.6719-2.8516-8.5352-25.273 8.4297c-10.152 3.332-19.074 9.625-25.629 18.062-6.5508 8.4414-10.438 18.645-11.152 29.305l-16.094 149.75c-0.28906 2.8008 0.75 5.5781 2.8047 7.5l67.172 62.699c-9.7031 9.3438-19.363 19.5-28.77 30.285h-0.003906c-1.5781 1.8008-2.3789 4.1523-2.2188 6.543 0.16016 2.3867 1.2656 4.6133 3.0703 6.1875 1.8047 1.5703 4.1641 2.3594 6.5508 2.1875 2.3906-0.16797 4.6094-1.2852 6.1758-3.0977 9.2852-10.68 18.809-20.641 28.379-29.789l52.965 49.5 12.781 38.324h0.10547l-4.1406 8.3398c-0.61719 1.2461-0.93359 2.6172-0.92969 4.0039v16.262c0 2.8945 1.3906 5.6094 3.7383 7.3008 2.3477 1.6914 5.3672 2.1523 8.1094 1.2344l54-18c3.1406-1.0586 5.4453-3.7539 6-7.0195l8.7305-51.227 52.199-48.719c68.527 66.41 116.26 151.31 137.4 244.36 0.91406 4.1602 4.6211 7.1094 8.8789 7.0664 0.65234 0 1.3008-0.070312 1.9336-0.21094 4.8477-1.0664 7.9141-5.8594 6.8555-10.711zm-219.33-205.08h-12.613l112.93-129c1.7109-1.957 2.4961-4.5625 2.1445-7.1406l-4.7539-34.859h25.996l5.4141 50.488zm-32.461-4.6484-66.797-76.352c5.4141-28.023 3.4375-56.973-5.7266-84-0.39453-1.1055-1-2.125-1.7852-3-16.785-16.484-27.172-38.391-29.312-61.816 9.3164-7.5 42.719-28.922 82.738 10.184l12.824 25.664 0.12109 0.17969 0.003906 0.003906c0.16406 0.29688 0.34375 0.58203 0.53906 0.85547 0.14844 0.22656 0.28516 0.44922 0.44922 0.64453 0.16406 0.19531 0.39062 0.42188 0.60156 0.61328 0.20703 0.22656 0.42969 0.44141 0.66016 0.64844 0.17969 0.14844 0.39062 0.26953 0.58594 0.42188l-0.003906-0.003907c0.29297 0.20703 0.60156 0.39844 0.91797 0.57031l0.16406 0.10547c0.14844 0.074219 0.31641 0.12109 0.48047 0.17969 0.32812 0.14453 0.66016 0.26953 1.0039 0.375 0.25391 0 0.49609 0.12109 0.75 0.16406 0.31641 0.066407 0.63672 0.11719 0.96094 0.15234h0.80859c0.30859 0.015625 0.62109 0.015625 0.92969 0 0.28516 0 0.57031-0.089844 0.83984-0.13672 0.26953-0.046876 0.57031-0.10547 0.83984-0.19531 0.31641-0.10156 0.62891-0.22266 0.92969-0.35938 0.16406 0 0.34375-0.12109 0.52344-0.19531l0.17969-0.10547h0.003907c0.30078-0.16797 0.58984-0.35156 0.87109-0.55469 0.21094-0.14844 0.43359-0.26953 0.61328-0.43359 0.17969-0.16406 0.43359-0.40625 0.64453-0.61328 0.21094-0.21094 0.42188-0.42188 0.61328-0.64453 0.19531-0.22656 0.30078-0.42188 0.43359-0.62891l0.003906-0.003907c0.19531-0.27344 0.375-0.55859 0.53906-0.85547l0.10547-0.17969 12.824-25.664c40.051-39.121 73.5-17.672 82.738-10.184l0.003906-0.003906c-2.1406 23.43-12.527 45.336-29.312 61.816-0.78516 0.875-1.3906 1.8945-1.7852 3-9.168 27.027-11.145 55.977-5.7422 84zm-109.75-182.85c5.6641 10.898 12.668 21.047 20.848 30.211 6.1523 18.848 8.3789 38.758 6.543 58.5l-34.172-39zm226.27 49.711-34.172 39h0.003906c-1.8359-19.742 0.38672-39.652 6.5391-58.5 8.1797-9.1641 15.184-19.312 20.848-30.211zm-202.54-269.61c-11.207-24.23-17.164-50.559-17.477-77.25-0.085938-33.348 11.008-65.766 31.5-92.07 4.1445-5.3125 10.512-8.4102 17.25-8.4023 3.2656 0 6.2734-1.7695 7.8594-4.6172 3.875-6.8242 9.5039-12.484 16.305-16.398 6.8008-3.9141 14.52-5.9375 22.367-5.8633h8.2188c19.398-0.12109 38.27 6.3164 53.551 18.27 8.7734 6.2578 16.441 13.934 22.695 22.711 17.848 25.254 27.375 55.445 27.254 86.371-0.3125 26.691-6.2695 53.02-17.477 77.25-10.598 23.445-16.875 48.613-18.523 74.293l-31.5-8.7891v-30.766c31.715-17.512 52.133-50.16 54-86.34-0.875-21.988-3.9805-43.832-9.2695-65.191-0.62891-2.5234-2.3203-4.6484-4.6328-5.832-2.3164-1.1875-5.0273-1.3125-7.4414-0.34766-39.988 15.988-90.164-16.801-90.66-17.129-4.1367-2.7578-9.7227-1.6445-12.48 2.4883-3.3633 5.9102-8.5898 10.535-14.863 13.148-6.2734 2.6172-13.238 3.0781-19.801 1.3125-2.3789-0.79297-4.9844-0.55859-7.1797 0.64844-2.1992 1.207-3.7969 3.2773-4.4023 5.7109-5.2891 21.359-8.3945 43.203-9.2695 65.191 1.8711 36.176 22.289 68.816 54 86.324v30.781l-31.5 8.7891c-1.6484-25.68-7.9258-50.848-18.523-74.293zm62.609 21.121v-0.003906c-27.98-13.867-46.48-41.562-48.586-72.719 0.62109-17.723 2.9219-35.348 6.8711-52.637 15.289 1.1289 30.219-4.9766 40.332-16.5 15.586 8.7617 53.762 26.805 90.18 17.746h0.003907c3.8047 16.887 6.0195 34.09 6.6133 51.391-2.1094 31.152-20.609 58.836-48.586 72.703l-23.414 7.8008zm-122.55 120.09v-0.003906c0.44141-7.1484 3.0156-14.004 7.3906-19.676 4.375-5.6719 10.348-9.9062 17.148-12.152l25.051-8.3555 71.789-20.012c3.8945-1.082 6.5859-4.6289 6.5859-8.668v-30.449l15.148 5.0547c1.8516 0.61719 3.8516 0.61719 5.7031 0l15.148-5.0547v30.449c0 4.0391 2.6914 7.5859 6.5859 8.668l71.789 20.012 25.066 8.3555c6.8516 2.2812 12.859 6.5742 17.242 12.32 4.3828 5.7422 6.9336 12.672 7.3281 19.883l8.2344 76.828-26.52 0.003906-6.3008-46.215c-0.25781-1.9453-1.1445-3.75-2.5195-5.1445-0.51172-0.52344-52.051-50.684-111.72 9h-0.003906c-0.67969 0.68359-1.2461 1.4727-1.6797 2.3398l-5.4453 10.906-5.4453-10.906c-0.43359-0.86719-1.0078-1.6562-1.6914-2.3398-59.672-59.672-111.21-9.5117-111.72-9h-0.003906c-1.3789 1.3945-2.2617 3.1992-2.5195 5.1445l-6.3008 46.215h-26.609zm-10.199 95.203h25.996l-4.7383 34.785h-0.003906c-0.35156 2.5781 0.43359 5.1797 2.1445 7.1406l112.93 129h-12.613l-129.12-120.51zm132.66 189h9.5859l-5.7305 11.566zm5.5039 50.52v-1.7539l24.18-48.781h19.32l-6.5117 38.16z"/>
 <path d="m330 397.5v-9c0-4.9688-4.0312-9-9-9s-9 4.0312-9 9v9c0 4.9688 4.0312 9 9 9s9-4.0312 9-9z"/>
 <path d="m375 406.5c4.9688 0 9-4.0312 9-9v-9c0-4.9688-4.0312-9-9-9s-9 4.0312-9 9v9c0 4.9688 4.0312 9 9 9z"/>
 <path d="m825 397.5c-4.9688 0-9 4.0312-9 9v9c0 4.9688 4.0312 9 9 9s9-4.0312 9-9v-9c0-2.3867-0.94922-4.6758-2.6367-6.3633s-3.9766-2.6367-6.3633-2.6367z"/>
 <path d="m879 424.5c4.9688 0 9-4.0312 9-9v-9c0-4.9688-4.0312-9-9-9s-9 4.0312-9 9v9c0 2.3867 0.94922 4.6758 2.6367 6.3633s3.9766 2.6367 6.3633 2.6367z"/>
</svg>
