<?xml version="1.0" encoding="UTF-8"?>
<svg width="1200pt" height="1200pt" version="1.1" viewBox="0 0 1200 1200" xmlns="http://www.w3.org/2000/svg">
 <path d="m589.18 1199.4c-11.344-0.84375-12.984-3.0469-2.9062-3.9375 3.6562-0.32812 18.281-0.79688 32.578-1.125 22.547-0.46875 37.734-1.8281 47.109-4.2188 1.1719-0.28125 7.3594-1.7812 13.781-3.2812 20.109-4.6875 33.609-8.1094 41.812-10.641 4.3594-1.3125 13.547-4.125 20.344-6.2344l12.422-3.8438 2.2031-7.125c1.2188-3.9375 2.4375-8.7656 2.7188-10.828 0.28125-2.0156 0.75-4.3125 0.98438-5.0625s0.75-3.6094 1.125-6.375 0.89062-5.3906 1.1719-5.8125c0.84375-1.4062-2.0625-0.84375-3.7969 0.70312-2.25 2.0156-18.562 10.172-20.391 10.172-0.79688 0-2.7188 0.70312-4.3125 1.5-9.5625 4.9688-43.406 12.422-65.391 14.391-16.5 1.4531-61.359 1.5-68.016 0.046875-2.4844-0.51562-9.2812-1.3125-15.094-1.6875-22.172-1.5-55.594-7.7344-55.594-10.359 0-0.5625 1.3125-0.75 2.9062-0.46875s5.7656 1.0781 9.2812 1.6875c18.891 3.4219 108.38 5.1094 124.4 2.3438 31.5-5.4375 53.531-11.672 71.531-20.344 11.438-5.4844 14.156-9.375 19.078-27.328 0.84375-3.1406 1.875-6.1875 2.2031-6.75 0.60938-1.0312 0.60938-11.109 0-14.531-1.0312-5.7656-6-10.5-15-14.25-8.5781-3.5625-33-9.9844-50.812-13.359-6.9844-1.3125-15.234-3.5156-18.328-4.875s-8.1094-2.7656-11.109-3.0938c-3-0.375-6.7969-1.125-8.4375-1.7812-1.6406-0.60938-3.2812-0.79688-3.7031-0.375s-0.79688 10.5-0.89062 22.406-0.42188 21.938-0.79688 22.312c-0.98438 0.98438-7.1719 0.60938-8.2969-0.51562-0.5625-0.5625-1.0781-1.6406-1.2188-2.4375s-0.51562-1.9219-0.89062-2.5312c-1.0781-1.7344-4.0312-30.75-4.5469-45-1.7344-44.484-2.6719-78.516-2.5312-90.328 0.09375-8.5312-0.28125-14.016-0.98438-14.719-1.6406-1.6406-5.5312 1.1719-14.531 10.266-7.4062 7.5-11.906 10.125-19.781 11.578l-3.9844 0.70312v14.531c0 7.9688-0.046875 24.984-0.1875 37.828-0.09375 12.797-0.046875 33.609 0.09375 46.219 0.28125 24.703-0.1875 27.375-4.7344 27.375-3.5625 0-4.3125-3.6562-2.7656-13.688 0.65625-4.4062 1.2188-10.312 1.2188-13.078v-5.0156h-4.1719c-2.2969 0-9.0938 0.98438-15.094 2.25-6 1.2188-13.078 2.625-15.703 3.0938-9.3281 1.7344-21.797 5.3906-27.516 8.0625-3.1875 1.5-10.359 4.3594-15.891 6.375-15.938 5.7188-21 8.3906-27.375 14.531-3.2812 3.1406-7.5469 7.0312-9.5156 8.6719-4.875 4.0312-8.625 10.312-8.625 14.484s5.1562 9.9844 12.609 14.25c2.6719 1.5 5.8125 3.5625 6.9844 4.5 4.3125 3.5625 19.781 11.766 25.406 13.5 6.5625 2.0156 7.5469 3.4688 2.3906 3.4688-6 0-39.656-12.375-43.125-15.891-0.60938-0.60938-6.2812-4.5469-8.2969-5.7188-3.3281-1.9688 0.89062 42.094 4.3594 45.562 0.375 0.375 5.5781 2.8125 11.578 5.3906 7.9219 3.4219 15.047 5.5312 26.25 7.7344 8.4375 1.6406 17.391 3.75 19.875 4.6406s9.8906 2.3438 16.406 3.1875c13.828 1.8281 21.797 3.4688 24.047 4.875 1.4062 0.89062 1.4062 1.125 0 2.0625-4.0781 2.6719-29.859-0.46875-47.109-5.7188-4.6406-1.4062-14.203-3.6562-21.188-4.9219-9.9844-1.8281-15.75-3.7031-26.953-8.5781-7.8281-3.4219-14.484-6.4688-14.766-6.75-2.2969-2.2969-3.3281-36.141-1.7812-59.016 0.65625-9.5625 2.9531-13.125 16.078-24.891 11.156-9.9844 15.984-12.984 28.453-17.484 4.0781-1.5 11.719-4.4531 16.922-6.6094 5.25-2.1562 11.672-4.5469 14.297-5.3906 10.172-3.1406 41.953-9 51.188-9.4688 9-0.42188 9.75-0.60938 10.078-2.7656 0.60938-3.9844-2.4844-51.281-3.6094-54.75-0.23438-0.79688-0.75-8.625-1.0781-17.484-0.32812-8.8125-0.75-16.547-0.9375-17.203-0.42188-1.3594-10.5-4.0312-21.938-5.8125-17.062-2.6719-28.828-0.32812-58.922 11.625-11.25 4.5-16.359 5.2031-22.547 3.0938-6-2.0625-12.516-7.125-14.766-11.531-1.7812-3.5156-2.6719-4.1719-5.3906-4.1719-1.7812 0-8.1094-1.1719-14.062-2.5781-9.2344-2.2031-11.766-2.4375-17.625-1.5938-3.75 0.5625-9.5156 0.98438-12.75 1.0312-4.3125 0-7.3594 0.75-11.109 2.7656-2.8594 1.5-6.8438 3.6094-8.9062 4.7344-2.0156 1.0781-8.9531 4.2188-15.375 7.0312-11.578 5.0156-11.719 5.0625-23.297 5.0625-9.7031 0-13.875-0.5625-24.891-3.4219-7.2656-1.875-15.141-4.2188-17.484-5.2031-6.1406-2.625-15.047-8.4844-21.703-14.391-9.7969-8.625-11.812-9.1875-29.625-8.3438-25.125 1.2188-30.422 0.46875-43.781-6.1875-14.391-7.125-23.531-15.188-28.359-24.938l-3.375-6.8438 0.79688-14.531c0.42188-7.9688 0.9375-16.266 1.125-18.375 0.23438-3.1406-0.60938-5.2969-4.5938-11.25-10.875-16.312-10.406-16.078-31.5-16.688-15.328-0.46875-17.297-0.75-22.359-3.1875-6.7969-3.3281-21.375-17.391-24.609-23.672-3.6094-7.0312-2.7188-12.422 6.375-40.312 2.3906-7.2656 4.5938-13.969 4.9688-14.812 0.32812-0.89062 1.2188-4.2188 1.9219-7.4062s3.4688-15 6.1406-26.203 6.8438-31.688 9.2344-45.516 4.9688-28.734 5.7656-33.094c2.625-14.625 4.8281-28.031 5.25-31.781 0.375-3.1875 2.9062-19.688 4.2656-27.422 0.79688-4.5469 1.5469-11.062 2.1562-18.094 0.32812-3.7969 1.2188-13.781 2.0156-22.219s1.5-20.344 1.6406-26.484c0.09375-6.0938 0.32812-12.328 0.51562-13.781s0.65625-8.4844 1.0781-15.609c0.75-12.844 0.75-12.984-1.5-12.984-1.3594 0-2.0156-0.46875-1.5938-1.125 0.375-0.60938-0.60938-3-2.2031-5.2969-2.4844-3.6094-2.8125-4.8281-2.25-9.1875 1.7812-13.5 29.297-57.469 44.297-70.734 3.0938-2.7656 17.297-11.719 26.297-16.641 3.7969-2.0625 9.4219-5.25 12.469-7.0312 3.0469-1.8281 5.8125-3.2812 6.1406-3.2812s2.1094-0.70312 3.9375-1.5469 7.875-3.0469 13.406-4.8281 14.578-5.4375 20.109-8.0625c12.656-6 66.375-23.953 80.484-26.906 16.031-3.3281 20.672-4.0312 21.422-3.2812 0.46875 0.46875-3.3281 2.3438-8.4375 4.125-9.7031 3.375-31.219 11.016-57.469 20.344-8.4375 3-20.109 7.7344-25.922 10.547s-13.922 6.1875-18 7.5c-8.8594 2.9062-19.312 7.1719-21 8.5781-2.0625 1.6875-8.2031 5.5781-17.625 11.062-15.234 8.8594-23.203 15.562-32.812 27.656-6.2812 7.9219-8.4844 10.875-8.4844 11.484 0 0.79688-9.1406 12.891-11.719 15.469-0.89062 0.89062-4.6406 6.0938-8.2969 11.578-4.875 7.3125-6.4688 10.5-5.9531 12.094 2.3906 7.6875 2.9062 16.312 3.0469 49.828 0.14062 35.438-1.4531 69.234-3.6562 77.812-0.51562 2.0156-1.2188 5.625-1.5469 7.9219-0.32812 2.3438-1.2656 7.5938-2.0625 11.625-0.79688 4.0781-1.6875 9.3281-2.0156 11.625-0.32812 2.3438-2.0625 11.156-3.8438 19.594-2.6719 12.375-7.1719 36.234-10.969 57.984-0.75 4.3594-4.5938 21.938-6.8438 31.5-1.0781 4.6406-3.2812 13.875-4.8281 20.484s-5.0156 18.281-7.6406 25.922c-5.4844 15.891-5.3906 15.562-7.4531 25.828-1.7812 8.9062-1.0312 11.391 5.7656 18.984 5.1094 5.7188 16.875 15.094 19.734 15.703 1.2188 0.23438 9.1406 0.65625 17.578 0.84375 19.078 0.46875 23.766 2.25 30 11.344 1.6406 2.3906 1.7812 2.4375 1.875 0.51562 0.23438-5.25 0.84375-14.391 1.3594-21.141 0.32812-4.0781 0.89062-13.594 1.2188-21.188 0.375-7.5938 1.0312-16.406 1.5-19.594s0.65625-23.953 0.42188-46.078c-0.65625-57.938-0.5625-99.891 0.23438-105.09 0.75-5.1094 2.1094-6.4688 4.1719-4.3594 1.3594 1.4062 1.875 6.9844 3.1875 35.859 1.3125 29.438 1.8281 36.375 4.3594 61.922 2.4375 24.516 2.2969 80.484-0.28125 104.95-0.28125 2.8125-0.70312 8.25-0.89062 12.047s-0.70312 10.922-1.0781 15.891c-0.65625 8.25-1.2188 12.562-3.7031 28.078-1.0781 6.7969-0.5625 14.484 1.2188 17.625 1.9688 3.5156 7.4062 10.688 9.3281 12.281 3.1406 2.6719 12.703 8.625 19.266 12.094l6.7031 3.5156h24.375c27.891 0.046875 26.062-0.46875 41.203 10.875 14.25 10.688 19.453 12.609 45.094 16.5 10.078 1.5469 12.047 1.1719 24.891-4.5938 8.8594-3.9844 14.953-7.1719 18.516-9.75s10.781-3.7969 30.562-5.1562c15.609-1.0781 17.344-0.98438 25.875 1.0781 5.0156 1.2188 10.219 2.5781 11.484 3.0938 1.6875 0.60938 2.8594 0.32812 4.2188-0.98438 2.4375-2.4375 7.9219-19.734 9.9844-31.406 0.89062-5.1094 2.7656-15.047 4.1719-22.078 3.4688-17.203 4.2656-29.531 2.7656-42.422-0.65625-5.8594-1.3125-20.344-1.3594-32.25-0.09375-11.906-0.70312-27.562-1.3594-34.828s-1.0781-18-0.89062-23.812 0.60938-20.062 0.9375-31.688c0.42188-16.453 1.0312-22.875 2.7188-29.109 2.2969-8.5312 2.6719-9.3281 5.2031-9.6562 3.375-0.46875 4.0781 0.1875 4.7812 4.5469 0.42188 2.4844 0.98438 5.4375 1.3125 6.6094 1.2188 4.6875 1.4531 32.109 0.32812 39.141-1.5 9.2812-1.9688 13.031-2.7188 21.75-0.32812 3.7969-0.84375 8.2969-1.0781 10.078-0.28125 1.7344-0.51562 8.6719-0.5625 15.375s-0.79688 18.141-1.6875 25.406c-1.2188 10.125-1.4062 18.938-0.89062 37.594 0.70312 24 0.65625 24.703-3 50.297-3.7031 25.875-8.25 49.125-10.5 53.812-1.0781 2.2031-0.79688 2.8594 2.8594 6.0938 2.25 1.9688 5.7656 4.4062 7.8281 5.3906 4.2656 2.0156 4.5469 1.9219 27.094-7.5469 20.344-8.5312 25.594-9.5156 46.594-8.7188 9.9844 0.375 20.484 1.1719 23.391 1.7812s7.6875 1.3594 10.594 1.7344 5.6719 1.1719 6.1406 1.8281c1.2188 1.7344 4.875-3.375 7.2656-10.125 5.4844-15.469 11.391-48.141 12.141-67.031 0.65625-16.031 0.70312-16.406 3.5156-16.406 2.6719 0 2.9531 1.3125 3.7031 17.484 0.32812 6.9844 1.125 15.797 1.7812 19.594s1.1719 8.5312 1.1719 10.594c0.046875 6.3281-1.5 22.312-2.3906 25.547-0.46875 1.6875-0.75 3.0469-0.5625 3.0469 0.14062 0 3.0469-0.9375 6.4219-2.1094s8.5781-2.1094 11.531-2.1094c15.188 0 35.812 6.7031 49.688 16.125 8.5312 5.8125 27.938 12.375 38.953 13.219 9.6562 0.75 13.734-0.42188 22.359-6.3281 6.0938-4.1719 6.4688-4.2656 17.062-4.7344 5.9531-0.23438 13.406 0 16.641 0.60938l5.8125 1.0781 7.6406-7.9219c11.109-11.531 11.719-14.672 6.2344-32.625-3.375-11.062-3.2812-10.453-5.3438-24.891-0.89062-6.0938-2.0625-13.5-2.6719-16.406-0.5625-2.9062-1.7344-8.8594-2.5781-13.219s-2.4844-12-3.6562-16.922c-3.375-14.297-4.125-21.328-4.9219-45-0.375-12.234-0.9375-22.594-1.2188-23.016-0.89062-1.5-1.6875-47.906-0.9375-54.984 0.5625-5.1094 1.2188-7.2656 2.4844-7.7344 2.5312-0.98438 4.0312 1.7344 4.2656 7.5938 1.0781 28.828 2.4375 59.719 2.7656 61.312 0.1875 1.125 0.70312 8.4375 1.0781 16.312s0.89062 15.469 1.125 16.922 0.70312 5.25 1.0312 8.4844c0.5625 5.4844 2.1094 12.094 6.3281 27 1.9688 6.9844 5.6719 23.109 9.5625 41.812 2.2969 10.969 6.0469 24.656 8.7656 31.781 0.5625 1.4531 0.79688 4.2188 0.5625 6.0938-0.51562 4.0781-0.89062 4.0312 15.328 2.0156 13.453-1.6406 19.266-0.98438 32.016 3.8906 18.328 6.9375 27.469 9.1875 32.812 8.1562 2.625-0.51562 6.1875-1.6406 7.9688-2.5312 1.7344-0.89062 6.6562-2.1562 10.922-2.8125 8.3438-1.3125 10.781-0.51562 10.781 3.3281 0 3.6562 8.4844 3.8906 16.406 0.46875 1.7344-0.75 4.8281-2.0156 6.8906-2.7656 9.0938-3.375 15.75-6.8906 20.625-11.016 5.1562-4.3125 16.594-10.125 19.969-10.125 0.9375 0 4.4531-1.2188 7.8281-2.7656 9.4219-4.2656 11.531-4.6875 25.734-5.7188 9.2812-0.65625 14.766-1.5938 18.234-3.0938l5.0156-2.1562-0.46875-5.0625c-1.7344-18.891-2.625-23.297-6.4688-31.688-0.84375-1.8281-2.2031-6.7031-3.0938-10.922-2.1094-9.9375-6.7969-20.859-12-27.844-4.875-6.5625-11.484-18.609-15.469-28.359-1.5469-3.7969-3.4688-8.2969-4.2188-10.078-0.75-1.7344-1.7344-4.3594-2.1562-5.8125s-3.375-9.3281-6.6562-17.484c-3.2344-8.1562-6.7969-18.141-7.875-22.219-3.0938-11.578-5.4844-31.547-5.5781-46.078-0.046875-12.938 0-13.266 2.2969-13.594 2.0625-0.28125 2.3906 0.14062 2.3906 3.375 0 2.0625 1.125 10.031 2.5312 17.812 1.4062 7.7344 3.0938 17.438 3.75 21.516 1.6875 10.359 4.9688 20.812 9.6094 30.703 4.7344 10.125 10.359 22.453 11.531 25.406 5.8125 14.625 19.406 38.531 26.156 46.078 3.4688 3.8906 9.4219 16.594 10.922 23.297 1.2188 5.5781 2.5312 9.2812 6.5156 18.516 0.98438 2.3438 2.3906 6.3281 3.0469 8.8594 1.4531 5.5312 3.2344 8.5781 4.9688 8.5781 1.8281 0 6.75-6.1875 8.8594-11.203 1.875-4.3594 3.2812-10.828 3.2344-14.719-0.046875-2.625-3.75-20.297-5.8125-27.656-1.5938-5.7188-4.5-25.125-5.3438-35.859-0.60938-7.875-1.4531-15.047-2.7188-23.297-0.51562-3.5156-1.7344-12.094-2.625-19.078-0.9375-6.9844-2.0625-14.625-2.5781-16.922-0.46875-2.3438-0.89062-4.9688-0.9375-5.8125-0.046875-0.89062-0.32812-11.578-0.65625-23.812s-1.3125-32.016-2.1094-43.922c-0.84375-11.953-1.8281-26.203-2.1562-31.734-0.375-5.5312-0.79688-10.266-0.98438-10.594-0.1875-0.28125-0.60938-4.3594-0.98438-9-0.89062-11.484-1.7812-20.625-2.3438-23.812-0.51562-3-5.5312-36.656-6.2812-42.375-0.79688-5.7188-1.4531-23.25-1.5938-40.781-0.046875-8.7188-0.375-17.25-0.70312-18.938l-0.5625-3.0469-5.7656 6.2344c-3.1875 3.4219-6.0938 6.2344-6.4688 6.2812-1.0312 0.046875-12.656 7.6406-17.625 11.531-2.3438 1.8281-5.0156 3.75-5.9531 4.3594-4.2188 2.625-8.1094 5.4375-11.625 8.4375-9.7969 8.2969-16.406 12.656-21.703 14.344-2.25 0.70312-5.0625 1.875-6.2344 2.5781s-5.2031 2.3906-9 3.75-8.2969 3.2812-10.078 4.3125c-13.312 7.7812-19.312 10.031-33.375 12.609-7.9688 1.4531-18.047 4.2188-19.594 5.3906s-19.312 6.9844-25.406 8.3438c-2.9062 0.65625-12.188 2.1562-20.625 3.375s-19.641 2.8594-24.891 3.7031-14.297 2.2031-20.109 3.0469c-12.281 1.7812-24 4.0781-32.297 6.2344-23.625 6.1875-101.25 9.5625-120.71 5.25-4.3594-0.98438-12.703-1.875-18.516-1.9688-65.016-1.3125-86.578-2.1094-110.11-4.0781-10.5-0.89062-24.047-1.875-30.188-2.25-18.375-1.0312-40.875-4.4062-57.188-8.4844-11.062-2.8125-13.734-3.2812-32.812-6.2812-5.5312-0.84375-17.672-2.7656-27-4.2188s-21.703-3.4219-27.516-4.3125c-15.938-2.4844-57.562-14.672-64.078-18.75-7.4062-4.6406-16.5-8.9531-21.609-10.219-7.6875-1.9219-21.75-7.5-21.75-8.6719 0-0.5625-0.46875-0.98438-1.0781-0.98438s-3.4219-1.6875-6.3281-3.7031-6.6094-3.7031-8.2031-3.75c-1.5938 0-3.8438-0.75-4.9688-1.5938s-2.6719-1.5469-3.4688-1.5469c-5.25 0-26.766-21.422-26.766-26.625 0-1.5938-0.42188-3.1406-0.9375-3.4688s-0.70312-1.5469-0.42188-2.7188c0.375-1.4531 1.4531-2.1094 3.4688-2.1094 2.3438 0 3.2344 0.79688 4.7344 4.0781 2.4375 5.4375 13.688 16.688 19.734 19.734 2.6719 1.3594 5.4375 3.2344 6.2344 4.125 0.75 0.9375 1.7344 1.6875 2.2031 1.6875 1.125 0 13.641 6.0938 17.438 8.5312 7.7812 4.9219 14.391 7.8281 23.297 10.172 5.5312 1.4531 15.328 5.4375 23.297 9.375 14.438 7.1719 18.562 8.7656 30.703 11.625 4.0781 0.98438 11.109 2.9062 15.609 4.3125 13.641 4.2188 72.188 14.203 83.156 14.203 1.7812 0 9.0938 1.125 16.266 2.5312s17.344 2.8594 22.594 3.2812c5.25 0.375 12.375 1.125 15.891 1.6875 5.7188 0.84375 23.25 2.3438 61.969 5.2031 7.3125 0.5625 13.969 1.2188 14.812 1.5s21.797 0.79688 46.547 1.1719c43.312 0.60938 53.156 1.1719 65.531 3.6562 7.4062 1.5 62.016 1.5469 75.844 0.09375 12.891-1.3594 18.562-2.2969 34.828-5.8125 6.9375-1.5 18.844-3.6562 26.484-4.8281 14.766-2.25 24.375-3.7969 32.953-5.2031 2.9062-0.46875 10.078-1.6406 15.891-2.5781 13.922-2.2031 22.031-4.125 29.109-6.9375 12.984-5.1094 19.922-7.3594 26.156-8.4844 9.0938-1.5938 17.766-4.7344 23.812-8.625 6-3.8438 19.5-10.453 21.375-10.453 2.625 0 18.234-8.2969 21.281-11.344 3.2344-3.2344 18.047-14.062 19.172-14.062 0.32812 0 4.0312-2.3906 8.1562-5.2969s8.0625-5.2969 8.6719-5.2969c0.65625 0 4.9688-3.5625 9.6094-7.9219s10.453-8.8594 12.891-10.078l4.5-2.1562-0.375-18.281c-0.51562-25.219-3.0469-36.188-10.828-47.203-4.0312-5.7188-7.7812-9.375-13.828-13.688-8.0156-5.6719-14.156-11.062-14.156-12.422 0-0.375-2.7188-3.375-6.0938-6.7031-4.5938-4.5938-8.1562-6.9375-14.578-9.6562-4.6406-1.9688-12.047-5.1094-16.406-6.9844-8.5312-3.6562-16.266-6.2812-22.219-7.4062-7.3125-1.4062-17.578-5.1094-25.266-9.1406-4.3125-2.25-8.2031-4.0781-8.7188-4.0781-2.1094 0-5.25 3.9375-6.7031 8.4375-3.5625 10.875-4.9219 23.578-4.8281 45.047 0.09375 26.625 1.2188 38.156 3.8906 40.828 1.0781 1.0781 5.7656 3.6094 10.453 5.625 10.078 4.3594 13.5 7.125 13.031 10.359-1.4062 9.6562-34.125 12.141-80.297 6.0469-9-1.1719-16.266-4.2656-18.703-7.9688-1.5-2.2969-1.4531-2.8594 0.375-6.4219 1.1719-2.2031 3.6562-4.7812 5.8125-5.8594 5.5312-2.8594 24.938-9.2812 28.219-9.3281 4.0312-0.046875 6.6094-2.3906 7.5938-6.9375 0.89062-3.9375 1.7344-40.406 1.2656-55.5-0.1875-6.8906-0.98438-12.75-2.9531-21.938-0.84375-4.0312-7.7344-9.8438-11.625-9.8438-1.875 0-7.4062-1.2188-12.281-2.6719-13.688-4.125-30.609-7.9219-35.438-7.9219h-4.3594l1.0312 52.594-3.0469 3.2344c-3 3.1875-9.7969 6.4688-23.812 11.484-25.312 9-70.688 7.3594-82.5-3-2.0156-1.7344-4.3594-3.75-5.25-4.4062-2.3438-1.7812-8.1094-16.734-10.5-27.141-1.125-4.9688-2.3438-13.172-2.6719-18.234s-0.9375-12-1.2656-15.375c-0.375-3.375-0.70312-7.0781-0.75-8.25-0.09375-1.7812-1.7344-2.5312-9.6562-4.5-17.438-4.3594-57.469-5.2969-122.81-2.8594-18.656 0.70312-18 0.60938-32.297 2.9531-5.5312 0.89062-21.75 2.3906-36 3.3281s-30.328 2.1562-35.672 2.7188c-12.422 1.3125-29.016 1.3125-26.766 0 2.3906-1.4062 22.125-5.2031 33.234-6.4219 5.2969-0.5625 18.891-2.0156 30.234-3.1875s23.812-2.8594 27.703-3.7031c12.609-2.7656 47.109-4.6406 96.141-5.2969 33.188-0.42188 46.875 0.32812 64.875 3.6094 5.6719 1.0312 10.312 1.4531 10.312 0.9375 0-1.3594 1.0781-24.094 1.5469-33.609 1.125-21.141 1.4531-26.062 1.875-27.516 3.7031-12.938 7.3125-21.797 14.672-36.234 1.0781-2.1562 2.0156-4.6406 2.0156-5.5312 0-3 2.4375-6.9844 4.3125-6.9844 2.0625 0 1.8281 1.6875-2.2969 14.344-1.125 3.5156-2.7656 9.7031-3.5625 13.781-0.84375 4.0781-2.2031 10.5-3.0469 14.25-1.6875 7.7344-1.875 10.594-0.5625 10.594 1.6406 0 0.9375 6.0938-0.79688 6.7969-1.4531 0.5625-1.6406 2.7656-1.2188 17.297 0.23438 9.1875 0.09375 21.094-0.375 26.531s-0.42188 10.875 0 12.141c0.46875 1.2656 0.42188 3.9375-0.09375 6-1.2656 5.1562-1.0781 19.875 0.28125 22.453 0.60938 1.1719 1.3125 5.7188 1.5469 10.078 0.23438 4.4062 0.89062 10.406 1.5 13.406s1.7344 8.6719 2.5312 12.609 1.6875 7.4062 1.9688 7.7344c3 3 14.109 8.25 19.359 9.1406 15.516 2.625 43.031 0.75 55.359-3.7969s18.984-7.4531 20.578-8.9531c1.6875-1.5938 2.3438-8.25 1.9688-20.391l-0.09375-2.8125-6.6094 1.5938c-8.9531 2.1562-37.172 2.0156-49.781-0.32812-11.625-2.1094-14.016-3.8906-15.75-11.672-1.2188-5.4375-1.1719-6.0469 0.60938-7.3594 1.7344-1.2656 1.875-2.5781 1.2656-12.844-0.375-6.2812-0.9375-19.031-1.2656-28.359-1.125-32.344-1.4531-39.188-1.7812-41.203-0.65625-4.1719 2.0156-4.6875 47.672-8.7656l20.484-1.8281-0.70312-9.3281c-0.375-5.1562-1.5938-12.047-2.625-15.375-2.8594-9-7.0781-26.719-9.6094-40.453-1.2188-6.7031-3.1406-16.219-4.2188-21.188-3.6094-16.594-7.2188-43.359-7.3125-54.656l-0.046875-4.3594-14.578-0.46875c-10.359-0.32812-15.703-0.98438-18.516-2.25-7.9688-3.5156-7.8281-3.7031-8.5781 14.391-0.375 8.8594-0.9375 18.047-1.2188 20.391-1.875 13.828-4.0312 22.828-10.312 43.688-2.9531 9.75-3.5156 10.875-5.7656 10.875-2.7656 0-3.0469-1.5-1.4531-7.4062 1.6406-6.0469 6.1875-34.828 6.8438-43.359 0.9375-11.953 1.8281-43.781 2.1094-76.266 0.28125-31.453 0.79688-34.781 6.1875-40.312 3.375-3.9844 14.672-6.8906 25.828-6.8906 8.0625 0 9.7031 0.375 15.609 3.4688 10.359 5.3906 10.406 5.5312 11.438 57.422 0.32812 15.422 0.75 29.484 0.9375 31.219s0.65625 6.5156 1.0312 10.594c0.60938 6.9375 0.84375 8.7656 2.2031 16.922 2.4375 14.672 3.9375 22.734 4.8281 25.453 0.5625 1.7812 2.6719 11.297 4.6875 21.188 3.9375 19.359 7.3125 33.469 8.4375 35.344 0.375 0.65625 1.4062 1.1719 2.25 1.1719 1.0312 0 1.5469 1.2656 1.5938 3.9844 0.046875 2.2031 0.23438 4.6875 0.375 5.5781 0.5625 3.0469 1.9688 22.828 2.2969 32.297 0.1875 5.25 0.79688 11.391 1.3594 13.688 0.9375 3.7031 2.2031 23.203 2.625 40.312 0.1875 7.4062-0.46875 7.0781 17.109 8.9531 5.8125 0.60938 11.859 1.4062 13.359 1.7812l2.7656 0.65625-1.9688-5.6719c-1.5938-4.6406-1.875-7.8281-1.4531-17.812 0.28125-6.7031 0.70312-13.359 1.0312-14.812 0.28125-1.4531 1.0781-5.4844 1.7344-9s1.2656-6.8438 1.4062-7.4062 0.79688-3.9375 1.5469-7.4062c1.5938-7.6406 6.5156-21.891 10.031-28.828 1.6875-3.375 2.3906-6.1406 2.0156-8.3906-0.42188-2.9062-0.09375-3.5625 2.8125-5.0625 10.688-5.5312 32.812-8.0156 47.719-5.3906 8.9062 1.5469 20.203 6.2812 25.875 10.828 4.6406 3.7031 6.4688 9 11.578 33.703 4.1719 20.109 5.4844 30.328 5.2031 41.297-0.23438 9.8906-3.2344 26.766-5.4844 30.703-0.98438 1.7344-4.7812 5.0625-8.3906 7.4062s-6.5625 4.5-6.6094 4.8281c-0.046875 1.2188 15.562 6.6094 24.797 8.5781 17.391 3.6562 23.25 5.2969 31.266 8.8125 4.3594 1.9219 11.297 4.8281 15.375 6.4688 11.344 4.5938 18.375 9.5156 26.25 18.562 3.9375 4.5469 9.375 9.5625 12 11.203 12.609 7.7344 21.188 18.656 24.422 31.031 2.4844 9.6094 2.5781 10.359 2.9062 30.703 0.1875 10.781 0.84375 23.625 1.5 28.594 1.2188 9.4219 3.0938 29.953 3.9375 43.406 0.28125 4.3594 0.70312 9.8438 0.98438 12.188 1.4531 11.812 1.875 14.859 2.2031 15.422 0.1875 0.32812 0.84375 3.6562 1.4531 7.4062 1.5 9.3281 1.9688 11.953 3.75 21.094 0.84375 4.3594 2.0625 12.188 2.6719 17.391s1.3125 9.7031 1.5 10.078c0.375 0.60938 1.4062 9.8438 2.25 19.688 0.23438 2.9062 0.9375 9.5625 1.5 14.812 0.60938 5.25 1.3594 13.359 1.7344 18s0.89062 8.8594 1.1719 9.3281 0.70312 14.297 0.89062 30.703 0.84375 32.953 1.4062 36.75 1.3594 9.5156 1.7344 12.703 1.0781 8.6719 1.5938 12.188 2.1562 15.469 3.6562 26.625c3.8906 28.922 5.625 39.047 8.1094 47.484 2.3906 8.0156 3.5625 13.219 4.6875 20.625 0.375 2.625 0.75 5.0156 0.84375 5.2969s-0.89062 3.8438-2.1562 7.9219c-4.6406 14.953-12.75 22.781-23.859 23.156l-5.0625 0.14062 0.42188 4.5c0.5625 6.0938-1.0781 8.0625-10.172 12.375-6.9375 3.2812-8.7656 3.6562-20.859 4.3125-11.578 0.60938-14.812 1.2656-25.922 5.0156-15.094 5.1094-17.109 6.0469-25.453 12.188-4.125 3.0469-11.672 6.7969-21.188 10.547-17.672 6.9844-27.328 8.2031-41.016 5.1562-7.4062-1.6406-8.6719-1.6406-17.016-0.09375-8.0156 1.5-9.8906 1.5-16.312 0.1875-3.9844-0.84375-8.2031-1.9688-9.3281-2.5781s-4.5938-1.5938-7.6875-2.25-9.5625-3.0938-14.391-5.4375c-9.6094-4.6406-12.562-5.0156-26.766-3.1406-12.562 1.6406-12.797 1.7344-18.656 8.1562-14.391 15.656-16.078 16.406-33.375 15.516l-12.375-0.65625-6 3.8438c-9.2812 5.9531-15.844 8.1094-26.766 8.8125-12.516 0.84375-27.375-1.8281-42.891-7.6875-2.0156-0.75-4.875-1.7344-6.375-2.1094-1.4531-0.42188-6.5625-3.375-11.391-6.5625-4.8281-3.2344-11.484-6.9844-14.812-8.3906s-6.5625-2.7656-7.1719-3.0469c-1.1719-0.51562-1.2188 11.812-0.046875 38.391 0.375 8.0625 0.70312 25.547 0.75 38.859l0.09375 24.188 2.6719-0.65625c1.4531-0.375 4.875-0.1875 7.5469 0.42188 12.281 2.7188 18.047 4.3125 23.953 6.5156 3.5156 1.3125 11.578 3.4688 18 4.7812 12 2.4844 27.281 6.5625 42.891 11.438 17.531 5.4375 26.438 12.562 28.781 23.062 2.8594 12.656 3.375 54.328 0.84375 64.406-0.51562 2.0156-1.2188 5.625-1.5469 7.9219-0.89062 5.9531-2.6719 11.156-4.9219 14.438-2.2969 3.2812-11.203 7.6875-19.688 9.7969-3.375 0.84375-10.406 2.7656-15.656 4.3594-14.484 4.3594-19.875 5.7656-36 9.1875-8.1562 1.7344-16.734 3.6094-19.078 4.125-16.875 3.75-34.5 5.25-59.812 5.0625-14.297-0.09375-28.125-0.32812-30.75-0.5625zm308.68-754.6c8.4375-2.2031 7.5938-4.0781-4.0781-9.5625-6.6094-3.0938-10.688-5.6719-12-7.6406-4.9219-7.5-5.625-52.312-0.79688-52.312 1.125 0 1.5-1.5469 1.5469-6.0938 0.046874-9.9375 1.1719-25.922 2.1094-30.422 0.46875-2.2969 0.70313-4.4062 0.46875-4.5938-0.23437-0.23438-3.9844-0.51562-8.3906-0.70312l-7.9688-0.28125 0.75 4.875c0.42187 2.6719 0.75 13.266 0.75 23.531 0 14.016-0.375 19.078-1.4062 20.344-0.84375 1.0312-1.1719 2.9062-0.79688 4.6406 0.75 3.6094 1.6406 14.438 1.875 23.156 0.14063 5.1562-0.28125 7.125-2.1562 9.75-2.7188 3.8438-7.9219 5.25-12.844 3.5156-3.3281-1.1719-3-1.2656-20.438 5.9531-4.5469 1.875-9.375 6.9844-8.5781 9.0938 0.28125 0.75 2.5312 2.3906 4.9688 3.5625 3.5156 1.7344 7.5 2.3438 19.266 2.9062 8.1562 0.42188 15 0.9375 15.281 1.1719 1.0781 1.0781 27.609 0.28125 32.391-0.98438zm-122.81-107.16c3.5156-0.9375 6.6562-2.25 7.0312-2.8594 1.6406-2.6719-2.2031-93.984-4.0312-96.047-0.51562-0.5625-38.484 2.7656-48.562 4.3125l-7.4062 1.125 0.046875 17.625c0.046875 9.7031-0.51562 27.188-1.2656 38.812s-1.4531 23.812-1.6406 27c-0.14062 3.1875-0.65625 6.0938-1.125 6.4219s-0.1875 1.4531 0.5625 2.4844c2.0625 2.8125 11.156 3.7031 31.969 3.2344 12.328-0.28125 20.016-0.98438 24.375-2.1562zm113.62-13.969c5.8125-3.375 6.5625-4.0312 11.062-10.031 8.6719-11.531 10.734-15.984 12-26.016l0.70312-5.5781-10.969-0.14062c-33.516-0.46875-40.359-0.79688-48.562-2.2969-4.9219-0.89062-9.3281-1.4062-9.7969-1.125-1.6875 1.0312-0.84375 17.062 1.2656 23.953 2.5312 8.2031 4.7344 11.156 12.516 16.922 7.5 5.5781 11.719 7.0312 20.109 7.125 5.4375 0.046875 7.6406-0.51562 11.625-2.8125zm27.047-8.8125c2.0156-3.4219 1.2656-4.3125-1.0781-1.3125-2.8594 3.6094-3.7031 5.5312-2.2031 4.9688 0.75-0.28125 2.25-1.9688 3.2812-3.7031zm-78.703-39.422c-0.79688-1.9219-0.9375-1.5-0.9375 2.3906s0.1875 4.3125 0.9375 2.3906c0.5625-1.4062 0.5625-3.3281 0-4.7812zm72.75 0.9375c1.0312-1.0312-6.1406-3.8438-13.922-5.4375-9.4688-1.9688-24.469-2.25-32.531-0.65625-3.0938 0.60938-7.9688 1.4062-10.781 1.7812-2.8125 0.32812-4.8281 0.9375-4.4531 1.3594 0.375 0.375 5.2969 1.5 10.969 2.4844 7.875 1.3594 14.859 1.6875 30.234 1.3594 11.016-0.23438 20.203-0.60938 20.484-0.89062zm10.406-6.75c-1.2656-9-1.6406-11.25-3.7031-21.984-1.125-5.8125-2.3906-12.984-2.8125-15.891s-0.9375-5.7656-1.0781-6.375c-0.1875-0.5625-0.79688-2.9062-1.3594-5.2031-1.125-4.5469-2.9531-6.2812-5.3906-5.1562-0.89062 0.42188-13.828 0.5625-28.781 0.375l-27.188-0.32812-1.7344 4.0781c-4.9219 11.578-8.0625 24.047-10.125 40.453-0.5625 4.4531-1.1719 9.2344-1.4062 10.547-0.32812 2.2969-0.28125 2.3438 1.5938 0.65625 2.5781-2.3438 24.047-6.6094 37.453-7.4531 8.625-0.51562 12.656-0.23438 21.562 1.6406 10.266 2.1562 20.344 6.0938 21.844 8.5312 1.4062 2.2969 1.8281 0.89062 1.125-3.9375zm-23.859-62.016c-6.7031-3.2812-7.2656-3.3281-19.922-3.1406-8.8594 0.14062-14.719 0.75-18.328 1.9688-2.9062 0.98438-5.1094 1.9219-4.9219 2.1562 0.1875 0.1875 9.5625 0.60938 20.812 0.84375 11.203 0.28125 20.672 0.75 21.047 1.0781 0.32812 0.32812 2.3438 0.60938 4.4062 0.5625 3.75-0.09375 3.7031-0.14062-3.0938-3.4219zm-147.94-127.82 2.9531-1.3594-0.09375-18.609c-0.046875-10.219-0.375-21.75-0.70312-25.594l-0.60938-6.9844-4.3594 1.5938c-7.4062 2.7188-29.25 1.3125-29.25-1.875 0-1.5 1.8281-1.6875 9.3281-1.0312 8.2031 0.70312 12.844-0.23438 15.562-3.2344 1.0312-1.1719 2.4844-2.1094 3.1875-2.1094 2.2031 0 6.8438-4.3125 6.8438-6.375 0-2.3438-3.7969-5.1094-11.578-8.3906-5.2969-2.2031-6.2344-2.2969-12.188-1.1719-3.5625 0.70312-7.7812 1.7812-9.4219 2.3906-4.2656 1.5938-7.4531 8.3438-7.3594 15.656 0.046875 3.1875 0.09375 16.641 0.14062 29.859l0.09375 24.047 5.5781 1.6406c3.0469 0.89062 7.2188 2.0625 9.2812 2.5312 5.1562 1.2656 18.984 0.65625 22.547-0.98438zm-315.56 837.05c-1.0312-2.6719 0.32812-10.5 5.3906-31.688 4.2188-17.625 4.9219-22.125 7.0312-45.516 1.4531-15.984 1.875-59.578 0.65625-65.391-0.75-3.5625-0.60938-3.9844 1.2656-3.9844 1.5469 0 2.3906 1.0312 3.1406 3.9844 2.6719 10.406 3.6094 21.562 3.6562 42.094 0.046875 33-1.0312 47.578-5.0625 69.891-5.6719 31.453-6 32.297-11.766 32.297-2.3906 0-3.9375-0.60938-4.3594-1.6406zm582.42-198.24c-3.3281-2.25-6.4219-15.234-7.5-31.594-0.60938-9.75-0.09375-11.625 3.0938-10.453 1.6875 0.65625 9.8438 38.766 8.8594 41.344-0.60938 1.6406-2.5781 1.9219-4.4531 0.70312zm-59.25-127.82c-2.0156-1.5469-1.9219-1.6875 1.5938-4.7344 6.1406-5.2969 19.547-8.0625 23.859-4.9219 2.9062 2.1094 1.2656 3.5625-6.6562 5.9062-3.9375 1.1719-8.0625 2.8125-9.2344 3.7031-2.7188 2.0625-6.9844 2.0625-9.5625 0.046875zm-27.984-16.359c-2.25-1.4062-0.75-2.3906 8.4844-5.7188 7.7344-2.7656 13.312-5.6719 21.844-11.391 7.8281-5.2031 16.312-9.2812 22.172-10.594 5.25-1.1719 6.0469-1.125 7.6875 0.51562 1.6875 1.7344 1.6875 1.9219-0.32812 3.4688-1.1719 0.89062-3.7969 2.4375-5.8125 3.375s-8.3438 4.5-14.016 7.9219c-11.719 7.0312-18 9.6562-28.5 11.859-8.625 1.8281-9.375 1.8281-11.438 0.51562zm-277.97-32.344c-19.641-3.5156-26.906-5.25-34.547-8.2969-3.7031-1.4531-11.578-4.0781-17.484-5.8125-13.969-4.125-17.438-6-25.969-14.297-15.328-14.859-16.172-26.344-2.9531-40.641 8.7188-9.4688 15.75-13.594 32.531-19.266l14.016-4.7344v-14.391l5.5781-5.5781c7.5469-7.5469 14.062-12.703 20.391-16.078 2.9062-1.5469 7.4531-4.0781 10.078-5.625 7.4062-4.3125 19.969-8.6719 27.094-9.375 6.6094-0.65625 10.688 0.14062 18.938 3.7969 7.0312 3.1406 14.625 6.5156 18.516 8.25 6.375 2.9062 22.172 14.578 27.516 20.344 1.4062 1.5 9.375 7.4062 10.031 7.4062 0.84375 0 13.172 10.594 17.953 15.422 1.7812 1.7812 5.3438 4.5938 7.9688 6.1875 6.4219 3.9375 7.5 5.4844 6.2812 8.7188-0.5625 1.4531-0.98438 4.4062-0.98438 6.5625v3.9375l6.4688 1.3594c11.578 2.3906 26.672 10.688 29.672 16.359 4.6406 8.7188-1.9688 20.203-15.328 26.625-8.9062 4.2656-16.969 6.4688-46.266 12.656-44.719 9.4219-81.188 11.578-109.59 6.4688zm48.703-3.7031c20.062-2.25 27.938-3.4219 40.219-5.9531 6.9844-1.4062 18.422-3.75 25.406-5.1562 15.328-3.0938 27.094-6.4219 32.25-9.0938 7.9219-4.125 13.453-12.234 12.188-17.812-0.98438-4.2188-13.406-12.609-21.188-14.297-3-0.65625-3.3281-0.42188-4.5938 3.3281-2.3438 6.7031-3.9844 8.4375-11.438 12.234-9.0938 4.6406-21.984 8.4375-36.656 10.828-9.4219 1.5469-14.719 1.7344-29.625 1.1719-9.9844-0.42188-20.109-1.2188-22.406-1.7812-2.3438-0.5625-10.922-1.5469-19.078-2.1094-17.109-1.2188-28.359-2.5781-39.234-4.7344-2.8594-0.5625-7.0312-8.1094-6.8438-12.422 0.046875-1.875 0.23438-6.5156 0.32812-10.312 0.1875-6.5156-1.2188-26.578-1.9219-27.375-0.65625-0.70312-17.062 5.4844-22.688 8.5781-10.734 5.9062-23.625 21.188-25.828 30.516-0.79688 3.4688 3.6094 8.9062 14.625 17.766 9.5625 7.7812 11.297 8.6719 23.906 12.188 5.5312 1.5469 11.859 3.75 14.016 4.875 4.875 2.5312 17.484 5.7656 32.391 8.3906 12.891 2.25 32.156 2.7188 46.266 1.125zm33.797-31.828c12.234-2.2031 25.5-5.4375 29.719-7.2656 2.3438-1.0312 5.4844-2.3438 7.0312-3 7.3594-3.0469 7.4062-27.891 0.046875-32.25-1.6875-0.98438-6.5625-5.25-10.875-9.5156-8.2031-8.0625-10.359-9.9375-17.391-15.094-3.9844-2.9062-15.375-12.422-20.109-16.781-5.6719-5.2031-34.547-18.703-39.984-18.703-11.109 0-37.266 13.453-51.562 26.531-3.7031 3.375-4.4062 4.5-3.2344 5.25 2.4844 1.5 27.516 7.6406 34.922 8.5312 12.75 1.5469 31.641 4.7344 32.391 5.5312 1.0781 1.0781-21.422 0.89062-32.953-0.23438-5.25-0.51562-11.906-1.875-14.812-3-8.1562-3.1875-20.578-6.75-21.469-6.1875-0.75 0.46875 2.0156 42.609 3.375 51.375 0.75 4.9219 3.1406 7.2188 9.5156 9 4.9219 1.3594 26.766 3.5156 30.094 2.9062 0.75-0.14062 5.0156 0.32812 9.5156 0.98438s11.016 1.5938 14.531 2.0156c9.8438 1.2656 34.125 1.2188 41.25-0.046875zm3.2344-39c-1.7344-0.42188-5.1094-2.0625-7.4531-3.6094s-7.125-3.5625-10.594-4.4531c-8.25-2.1094-12.141-3.7031-12.141-4.9688 0-0.60938 1.0312-0.75 2.3906-0.375 1.3125 0.375 6.6562 1.125 11.906 1.5938 7.1719 0.70312 11.25 1.7344 16.406 4.1719 3.7969 1.7812 7.4531 3.2812 8.1562 3.2812s2.5312 0.46875 4.0781 1.0781c2.3438 0.89062 2.625 1.3594 1.5469 2.625-1.4062 1.6875-8.5312 1.9688-14.297 0.60938zm-296.53 25.734c-0.5625-0.14062-8.8594-0.46875-18.469-0.75-17.25-0.46875-48.047-3.6562-63.516-6.5156-17.953-3.3281-28.828-7.2188-38.344-13.641-3.6562-2.4844-10.734-7.2656-15.656-10.641-13.594-9.1875-21.938-18.375-31.641-34.688-2.0156-3.4219-2.4844-5.5781-2.3438-11.203 0.09375-3.8438 0.84375-8.3906 1.7344-10.125 0.84375-1.7344 1.5938-3.6094 1.5938-4.125 0-1.5469 10.312-16.078 14.391-20.25 4.6406-4.7812 13.406-9.8906 25.969-15.188 11.578-4.875 15.281-6.2344 18.938-7.0781 1.4531-0.32812 3.4219-1.9219 4.3594-3.5156 1.0781-1.8281 3.6562-3.7031 6.8906-4.9688 2.8594-1.125 6.375-2.9062 7.8281-3.9375 9.6094-6.8438 50.25-8.0156 66.328-1.875 1.6406 0.60938 8.3906 1.8281 15 2.625 13.078 1.6406 36.891 8.4375 44.25 12.703 3.7031 2.1094 5.1562 4.125 9.5156 13.078 4.4531 9.0469 5.5312 10.547 7.8281 10.641 1.4531 0.046875 3.8438 0.79688 5.2969 1.6406s3.6094 1.9688 4.7812 2.5312c3.2344 1.5 14.156 12.516 20.156 20.297 8.0625 10.453 9.0938 13.219 9.0469 24.469-0.046875 10.078-4.125 22.031-11.203 32.719-7.4531 11.203-13.5 15.375-27.609 18.984-4.6406 1.1719-11.203 3.1406-14.625 4.3125-7.9688 2.7656-35.672 5.9531-40.406 4.6875zm39.75-11.203c20.391-6.1875 23.531-8.0156 29.953-17.625 9.7969-14.672 13.641-31.5 9.7031-42.703-2.25-6.3281-21.141-28.312-24.422-28.406-0.84375 0-0.89062 1.4062-0.1875 5.0156 3.4688 17.109 3.4688 17.438 0.28125 26.109-1.5938 4.4062-3.5625 8.5312-4.3594 9.1875s-1.4531 1.7812-1.4531 2.4844-0.84375 2.0625-1.875 2.9531c-1.0312 0.9375-3.2812 4.4531-5.0156 7.7812-4.5938 8.8125-14.062 18.469-23.672 24.141-6.6094 3.8438-9.7969 5.0156-16.266 5.9531-10.266 1.4062-26.344-0.32812-44.766-4.8281-3.5156-0.84375-11.672-2.25-18.188-3.0469-11.156-1.4062-18.469-3.75-22.828-7.2656-3.3281-2.7188-5.2969-9.2812-5.0156-16.641 0.75-17.953 0.51562-21.094-1.6406-23.156-1.125-1.0781-5.3906-3.0469-9.4219-4.3594-5.7656-1.875-8.5781-3.5625-13.078-7.9688l-5.7656-5.5781 0.75-7.7812c1.125-11.672 2.5312-16.734 7.4531-26.438 1.5-2.9531 2.5781-5.7656 2.3906-6.2812-0.375-1.0781-22.172 9.1875-29.672 13.969-5.625 3.6094-13.734 13.969-18.797 24.094-2.7188 5.4844-3.4219 8.1562-3.5156 13.781-0.046875 4.0312 0.51562 8.1094 1.3125 9.6094 2.1562 3.9844 12.656 16.922 17.484 21.516 4.875 4.6406 32.203 23.016 39.516 26.625 6.1875 3.0469 20.391 6.3281 36.188 8.4375 46.219 6.0938 42.281 5.7656 67.781 5.3906l21.703-0.32812 15.375-4.6406zm-34.594-14.062c2.0625-0.98438 4.3594-2.4844 5.0156-3.2812 0.70312-0.79688 1.7812-1.5 2.4844-1.5s3.375-2.2031 5.9531-4.875l4.7344-4.875-9 0.65625c-4.9688 0.375-10.688 1.125-12.703 1.7344s-14.016 1.0781-26.625 1.0781c-25.359 0-28.547-0.5625-36.516-6.6562-6.3281-4.8281-7.2656-6.9844-7.0312-16.828 0.09375-4.6406 0.42188-8.8125 0.70312-9.2344 0.28125-0.46875 0.79688-2.9531 1.125-5.5312 0.51562-3.7969 0.28125-5.0625-1.2656-6.375-1.0312-0.89062-8.5781-4.2188-16.688-7.3594-12.516-4.8281-15.469-6.4219-19.312-10.406l-4.5469-4.6875v6.3281c0 3.5156 0.60938 7.0781 1.3125 7.9688 3.1406 3.7969 10.359 8.2031 18.047 10.969 5.3438 1.9219 9.1406 4.0312 10.781 6 2.3438 2.7656 2.5312 3.7969 2.25 12.797-0.14062 5.3906-0.42188 10.266-0.5625 10.875-0.14062 0.5625-0.23438 3.0469-0.14062 5.4844 0.09375 3.4219 0.89062 5.25 3.6094 8.1094 2.9531 3.1406 4.3594 3.75 9.7969 4.3594 9.3281 0.98438 25.406 3.5156 33.844 5.3438 9.7969 2.1094 24.703 3.4688 28.172 2.5312 1.5469-0.42188 4.5-1.5469 6.5625-2.5312zm-1.4062-17.859c18.141-3.2344 20.484-3.8906 24-6.5625 6.8906-5.25 16.359-21.984 16.406-28.969 0-2.5312-2.5312-19.875-3.9844-27.047-0.32812-1.7344-0.75-3.75-0.84375-4.4062-0.60938-3.4219-8.9062-17.766-11.156-19.266-4.5938-3.0469-27.984-9.4219-37.641-10.266-4.0781-0.375-11.953-1.7812-17.484-3.1406-24.234-6.0469-40.734-5.4844-55.734 1.8281-4.7344 2.2969-10.359 5.8125-12.516 7.7812s-4.2656 3.7031-4.6875 3.8906c-1.0312 0.46875-5.4375 12.234-5.4375 14.578 0 2.5312 2.9062 8.25 6.5625 12.984 2.3438 3.0469 4.9688 4.6406 11.719 7.1719 12.047 4.5469 24.141 9.7031 26.906 11.438 3.4688 2.1562 3.8438 4.8281 2.0156 13.266-1.3594 6.1875-1.6406 13.406-0.75 18.938 0.28125 1.6406 5.1094 6 9.1406 8.2031s5.25 2.2969 23.812 1.875c11.812-0.23438 23.578-1.125 29.625-2.2031zm-19.266-15.234c-1.7344-3.8906-7.3594-26.531-9.4688-38.297-0.60938-3.2344-2.1562-9.9375-3.5156-14.906s-2.7656-10.828-3.1406-13.031l-0.70312-4.0312 3.5156 0.32812c3.3281 0.32812 3.6562 0.75 6 7.7344 1.3594 4.0781 4.3594 14.812 6.6562 23.812 2.2969 9.0469 5.3438 20.109 6.7969 24.656 3.8906 12.375 3.4219 17.672-1.5 17.672-2.2031 0-3.1875-0.84375-4.5938-3.9844zm25.828-11.438c-2.625-1.8281-5.2969-7.2656-6.7031-13.688-1.5-6.8906-3.0938-15.562-3.7031-20.625-0.32812-2.625-0.9375-6.6562-1.3594-9-0.98438-5.4375-0.46875-6.8438 2.4844-6.8438 2.1094 0 2.7188 1.1719 5.1562 9.2812 1.5 5.1094 3.9375 14.016 5.3906 19.875 2.9531 11.859 4.9219 17.484 6.1875 17.484 1.5469 0 0.84375 4.0312-0.84375 4.6406-2.5781 0.98438-4.0312 0.79688-6.5625-1.0312zm-52.688-12.141c-3.0938-1.1719-5.3906-7.3125-7.3594-19.969-1.6406-10.453-5.625-24.984-7.9219-28.969-1.5-2.625-1.3594-2.9062 1.4062-2.9062s4.875 2.0156 7.5469 7.2656c2.7188 5.3438 6.8438 18.891 8.0625 26.531 0.60938 3.75 1.3125 7.1719 1.5938 7.5938s0.70312 2.9531 0.9375 5.5781c0.46875 5.1562-0.51562 6.2812-4.2188 4.9219zm71.625-6.4688c-0.65625-1.8281-1.1719-4.4062-1.1719-5.6719 0-1.3125-0.9375-6.0938-2.1094-10.688-2.8594-11.297-2.7656-12.047 0.89062-12.047 5.3438 0 7.125 4.6875 7.9219 20.906 0.5625 10.828 0.5625 10.875-1.9219 10.875-1.8281 0-2.7656-0.89062-3.6562-3.3281zm-103.73-19.688c-3.1406-3.1875-8.2031-17.156-7.1719-19.828 0.32812-0.89062 1.7812-1.5938 3.1406-1.5938 2.2031 0 2.9062 1.0781 5.4844 8.2031 1.5938 4.5 3.7969 9.7969 4.9219 11.719 1.6875 2.9531 1.4062 4.4531-0.75 4.4531-1.5469 0-3.9375-1.2188-5.625-2.9062z"/>
</svg>
