<?xml version="1.0" encoding="UTF-8"?>
<svg width="1200pt" height="1200pt" version="1.1" viewBox="0 0 1200 1200" xmlns="http://www.w3.org/2000/svg">
 <path d="m496.2 276.12c-3.6016-8.0391-8.8789-10.922-14.16-14.16-15.961-9.7188-33.961-14.398-51.121-21.359-16.922-6.8398-31.922-16.441-41.52-32.52-8.1602-13.801-9-28.199-4.8008-43.078 10.078-35.879 45.719-62.762 84.48-64.078 4.1992-0.12109 8.5195 0 12.238 0 2.6406-3.8398 0.60156-6.8398 0.48047-9.9609-0.71875-9.9609 0.96094-19.32 6.6016-27.961 37.078-57.961 111.48-44.281 135.84-5.5195 3.4805 5.5195 5.7617 6 12.121 2.8789 29.398-14.762 58.922-12.121 87.719 2.2812 6.8398 3.3594 12.238 9 16.32 15.359 7.4414 11.398 13.199 23.641 16.801 36.719 3 10.922-0.71875 21-6.2383 30.602-1.8008 3.1211-5.7617 5.0391-5.2812 10.801 8.1602 1.5586 16.922 2.7617 25.32 5.0391 20.16 5.5195 37.199 35.039 34.078 55.68-5.0391 33.238-28.199 54.602-62.641 55.32-19.078 0.35938-38.16-0.23828-57.238-0.60156-10.441-0.23828-19.559 3-28.68 9.2383 5.1602 5.7617 11.16 10.68 12.961 18.121 1.3203 5.3984 5.0391 6.4805 9.7188 5.3984 5.5195-1.1992 11.281-2.3984 16.441-4.6797 30.121-12.602 39.719-10.922 62.039 11.762 2.1602-1.6797 4.4414-3.4805 6.6016-5.2812 19.32-15.84 45.48-12.961 59.52 7.3203 4.0781 5.8789 6.1211 6.6016 11.641 1.9219 16.559-13.68 49.559-8.1602 62.641 6.6016 9.3594 10.559 11.398 23.641 3.7188 35.641-16.199 25.32-22.441 54.121-29.879 82.32-9.3594 35.398-17.039 71.281-25.32 106.92-1.4414 6.3594-3 12.719-3.6016 19.078-0.48047 4.6797-2.0391 10.32 3.9609 14.16 6.8398-5.7617 12.121-13.199 22.922-14.398 19.078-2.1602 32.641 5.5195 42.719 19.68 3.6016 5.0391 6.3594 5.2812 11.398 3.6016 14.039-4.5586 28.199-5.0391 41.879 0.71875 13.078 5.5195 21.359 14.52 23.398 29.16 1.6797 12.719 1.5586 24.961-3.9609 36.84-4.0781 8.5195-5.5195 17.762-7.9219 26.641-2.7617 9.8398-5.8789 19.441-10.559 28.68-2.5195 4.9219-4.6797 10.199-6.3594 15.48-11.16 37.441-27.121 73.199-43.078 108.84-5.8789 13.199-13.441 25.559-24.961 35.281-3 2.5195-5.7617 4.6797-9.7188 5.2812-37.68 5.6406-75.359 11.762-113.76 11.398-29.52-0.23828-59.16-0.12109-88.68-0.48047-27.602-0.35938-55.199-1.3203-82.801-1.5586-22.922-0.23828-45.719 3.7188-68.641 1.5586-34.199-3.2383-68.641-3-102.84-5.7617-29.641-2.3984-59.641-6.1211-88.441-15.238-12.48-3.9609-23.16-10.68-34.199-17.281-4.3203-2.6406-6.1211-6.8398-8.2812-11.039-12.84-25.559-18.602-53.398-26.762-80.52-8.2812-27.121-14.039-54.84-25.32-81.121-2.6406-6.2383-6-10.922-11.281-15.359-9.3594-7.6797-18.48-16.078-21.719-28.559-4.5586-17.039 6.9609-39.359 24.121-45.121 7.1992-2.3984 14.641-4.8008 22.441-3.3594 7.4414 1.4414 9.7188-1.9219 11.398-8.3984 4.1992-16.199 14.641-26.762 31.801-30.238 23.281-4.6797 40.441 7.8008 42.359 30.84 4.0781 0.83984 7.3203-1.4414 10.559-3.1211 6.9609-3.6016 9.2383-7.9219 8.0391-16.68-6.8398-47.879-18.48-94.559-33.238-140.64-4.3203-13.32-8.7617-26.281-16.68-38.16-13.078-19.922 4.8008-51.719 25.441-53.641 6.6016-0.60156 13.078-2.5195 19.922-1.9219 9.4805 0.96094 15.121-3.6016 19.078-11.52 2.8789-5.7617 5.7617-11.52 10.441-16.441 19.559-20.398 36.84-24 62.398-11.762 5.0391 2.3984 8.5195 4.1992 13.68-0.83984 9.2461-8.7656 21.125-6.7266 34.445-4.8047zm380.16 338.04c-0.12109-4.9219-3.3594-7.3203-7.8008-8.1602-3.4805-0.71875-7.1992 0-7.5586 3.9609-0.35938 3.4805 2.5195 6.1211 6.1211 6 3.1211 0 6.2383-1.3203 9.4805-2.1602-0.48047 0.83984-0.96094 1.5586-1.3203 2.5195-2.2812 6.7188-7.0781 8.2812-13.559 6.2383-5.1602-1.6797-9.6016-4.1992-9.3594-10.68 0.35938-6.2383 4.5586-11.281 10.922-12.602 9.3594-1.9219 16.922 1.0781 20.879 10.441 3.7188 8.8789 8.3984 17.52 11.398 26.398 9.4805 28.32 40.32 41.52 69.359 29.281 10.559-4.5586 14.398-13.922 16.078-24.238-3.2383 2.2812-5.5195 5.2812-8.0391 7.9219-17.039 18-40.559 16.32-56.52-2.3984-9.7188-11.281-11.039-23.281-8.3984-36.359 2.7617-13.68-2.7617-23.16-13.441-31.199-15.359-11.762-36.48-6.2383-43.078 11.52-1.3203 3.4805-2.2812 7.1992-2.6406 10.801-0.83984 7.9219-1.8008 15.719-6.6016 22.441-2.3984 3.2383-1.9219 6.1211 1.4414 8.2812 10.68 6.6016 21.84 11.16 34.922 9.4805 5.5195-0.71875 7.8008-3.6016 5.8789-8.5195-2.4023-6.3672-4.082-13.207-8.1641-18.969zm-481.92-27.359c-5.2812 1.9219-7.1992 5.3984-9.7188 8.0391-9.4805 10.441-19.441 20.281-31.199 28.441-14.039 9.7188-29.398 13.559-45.961 9.7188-7.3203-1.6797-10.199 0.35938-13.199 6.2383-4.8008 9.2383-11.16 17.039-21.359 21.602-7.3203 3.2383-19.078 0.35938-21.719 7.4414-2.6406 7.0781 5.1602 15.238 7.4414 23.281 10.922 38.398 23.16 76.441 33.121 115.08 6.9609 27 22.801 44.039 49.801 51.961 2.2812 0.71875 4.5586 1.5586 6.8398 2.1602 22.68 5.7617 45.84 10.559 68.879 11.879 53.762 3.1211 107.4 8.6406 161.4 6.7188 47.16-1.6797 94.441-0.60156 141.72 0.23828 46.801 0.83984 93.359 0.83984 139.8-5.6406 21.121-3 34.199-13.32 42.961-30.121 10.078-19.441 18.602-39.602 27.602-59.52 12.238-27.121 19.441-56.281 33.238-82.801 2.7617-5.2812 4.5586-11.281 6-17.039 2.7617-10.922 0.60156-12.961-10.199-9.8398-6.3594 1.9219-12.602 4.4414-19.559 3.1211-18.359-3.3594-34.922-9.6016-45.359-26.039-2.3984-3.8398-4.8008-5.7617-10.32-4.4414-13.922 3.3594-27.961 1.6797-39.961-5.8789-8.6406-5.3984-15.602-3.9609-23.52 0.23828-24 12.84-48.961 8.1602-73.68 2.7617-11.16-2.3984-18.359-11.281-26.641-18.238-8.6406-7.1992-8.7617-7.3203-17.398 0-8.7617 7.3203-18.961 12.359-30.121 9.4805-13.68-3.4805-28.078-7.5586-33.84-23.52-8.6406 3.9609-17.16 4.5586-25.559 6.1211-21.238 3.8398-50.762-10.801-60-29.281-2.0391-4.0781-0.35938-9.3594-5.6406-13.32-2.7617 19.559-15.961 27.48-34.078 29.52-8.2812 0.96094-16.078-1.3203-23.52-4.8008-3.9609-1.8008-7.3203-2.3984-9.1211 2.5195-2.3984 6.4805-8.0391 10.199-12.961 14.52-21.719 18.238-52.559 13.441-67.559-10.078-3.7305-6.3594-4.2109-13.32-6.6094-20.52zm482.52-196.92c-5.6406-0.23828-10.801-0.23828-15.961-0.83984-13.801-1.6797-27.719-3.2383-37.32-14.879-2.6406-3.2383-5.3984-2.5195-8.8789-1.6797-20.398 4.9219-39.84 2.0391-57.961-8.0391-7.0781-3.9609-13.32-5.2812-21.48-2.6406-9.9609 3.1211-21.48 4.5586-30.602-0.48047-7.9219-4.3203-14.281-3.1211-21.48-1.0781-24.48 7.1992-48.359 4.1992-71.039-5.7617-7.8008-3.4805-13.559-3.9609-21.121-0.71875-24.602 10.68-50.641 12.238-75.121 1.9219-13.68-5.7617-25.078-11.16-38.879-2.8789-16.078-3.4805-29.281 3.6016-42.602 10.801-2.5195 1.3203-5.3984 1.8008-8.0391 2.7617-10.199 3.9609-21.121 5.6406-31.68 8.3984-4.5586 1.1992-8.8789 2.3984-11.879 6.9609-9.8398 15.238-24.121 21.84-42.48 19.441-4.9219-0.60156-7.4414 0.83984-6.1211 6.1211 1.3203 5.3984 2.2812 10.922 3.8398 16.199 10.32 34.68 19.199 69.719 25.199 105.36 2.0391 12.238 10.922 16.078 21.84 9.7188 1.1992-0.71875 2.3984-1.5586 3.6016-2.2812 24.961-16.68 50.039-15 75.238-0.71875 9.6016 5.5195 9.2383 5.3984 18.48-2.0391 18.121-14.641 39.961-19.68 62.641-18.719 15.238 0.60156 27.602 8.7617 35.281 22.801 5.7617 10.559 6.7188 10.32 17.762 5.7617 8.8789-3.7188 17.879-5.2812 27.84-3.2383 11.16 2.2812 21 6 28.559 14.398 2.3984 2.6406 4.3203 4.8008 8.1602 1.9219 20.16-15 39.359-9.3594 58.078 2.8789 8.2812 5.3984 15.84 11.762 24 17.398 9.1211 6.2383 9.3594 6.1211 13.922-3.2383 10.32-21.359 31.559-30.48 54.719-23.039 4.5586 1.4414 9.2383 2.3984 14.039 2.3984 6.3594-0.12109 10.441-2.3984 11.879-9.3594 3.2383-15.48 6.9609-30.84 11.16-46.078 6.6016-24.121 9.9609-49.078 18.48-72.84 3.8438-10.934 7.2031-22.215 7.9258-34.695zm-324.72-296.28c-1.8008 2.3984-3 3.7188-4.0781 5.1602-2.7617 3.6016-6.3594 4.5586-9.8398 1.9219-3.7188-2.8789-2.3984-6.7188-0.48047-10.078 4.9219-8.3984 16.32-8.0391 22.32 0.71875 10.441 15.359 1.9219 41.16-18.602 43.68-7.9219 0.96094-9.3594 3.7188-8.3984 10.559 0.83984 5.8789 0.60156 12 0.48047 18-0.12109 4.6797-1.0781 9.3594-4.0781 13.078-8.3984 10.68-18.961 18.48-32.398 21.602-23.281 5.5195-40.441-6.4805-43.078-29.52-0.23828-1.8008-0.23828-3.7188-0.48047-5.5195-1.5586-9.6016 3.2383-16.078 10.801-21 8.3984-5.5195 17.281-4.9219 25.801-0.35938 7.3203 3.8398 10.32 10.68 8.7617 17.398-0.96094 4.0781-3.4805 6.7188-7.3203 7.6797-4.0781 0.96094-7.3203-0.96094-9.9609-4.0781-5.2812-6.1211-1.8008-11.039 3.7188-16.078-9.8398-2.0391-16.68 0.48047-21 7.4414-8.0391 12.84 1.9219 34.441 16.922 37.68 21 4.4414 42.719-11.398 45.602-32.039 3.2383-23.281-20.281-45.719-42.84-49.801-44.281-8.0391-80.281 23.398-90.602 57.719-3.2383 10.801-2.5195 21.84 2.2812 32.641 8.5195 18.961 24.84 29.879 43.441 36 25.078 8.3984 48.961 17.52 68.879 35.281 8.2812 7.4414 16.559 5.7617 21.961-3.9609 6.8398-12.238 15.48-23.039 23.879-34.078 17.641-23.039 34.68-46.68 51.121-70.441 13.559-19.559 21.121-41.762 21.121-65.398 0-22.801-7.3203-43.441-29.879-54.84-38.762-19.559-71.879-13.441-98.039 21.121-7.5586 9.9609-7.1992 21-6.1211 32.039 0.83984 9.1211 9.6016 12 16.32 16.199 5.1602 3.2383 10.441 6.4805 14.641 11.16 7.4414 8.1602 18.961 8.1602 26.762 0.23828 7.7852-8.5273 8.7461-18.008 2.3828-30.125zm191.16 106.56c-2.5195 5.2812-1.8008 12.84-10.32 11.641-5.0391-0.71875-9-3.3594-9.2383-9-0.12109-5.7617 2.3984-10.559 8.2812-11.52 16.922-2.6406 32.52 11.879 29.281 27.238-3.6016 16.559-15 26.879-32.52 28.441-7.5586 0.71875-15.238 0.12109-22.922 0.12109-12-0.12109-19.441-6.7188-24.238-16.68-6.3594-13.32-9.3594-27.48-5.3984-41.879 1.8008-6.4805 0.12109-9.3594-5.8789-11.398-13.441-4.5586-19.801-15.602-24.961-27.238-6.1211-13.922-0.48047-31.801 13.078-44.16 9.1211-8.2812 29.398-9.7188 42-3.1211 10.559 5.6406 15.359 15.48 13.199 26.879-2.3984 11.879-16.078 17.16-25.078 9.6016-4.0781-3.3594-5.6406-7.6797-2.2812-12.238 3.1211-4.1992 7.0781-3.3594 11.52-1.5586 2.8789 1.1992 3.3594 6.1211 7.8008 4.4414 3-12.359 0.48047-18.48-10.199-21.719-5.7617-1.8008-11.762-3-18.238-2.0391-14.52 2.2812-20.879 13.078-25.078 24.121-4.4414 11.641 0.12109 23.039 8.7617 32.039 19.199 20.039 56.16 16.441 74.281-6.9609 3.7188-4.8008 6.7188-10.199 10.559-14.879 5.6406-6.7188 7.4414-14.762 5.5195-22.32-5.0391-20.16-12.961-39.359-33.121-49.801-22.559-11.879-46.68-12.121-70.68-4.4414-14.52 4.5586-15.238 6.4805-14.16 21.359 1.6797 20.762-1.9219 40.441-10.441 59.641-5.7617 12.961-14.762 23.762-21.961 35.762-3.6016 5.7617-4.0781 10.32-2.3984 16.68 5.8789 21.84 8.0391 44.281 7.3203 66.961-0.35938 10.922 4.9219 15.961 15.602 12 10.199-3.7188 20.52-2.7617 30.719-3.9609 10.078-1.1992 19.199-8.0391 29.879-8.5195 11.879-0.48047 23.762-1.3203 35.641 0.12109 11.879 1.3203 23.762 1.6797 35.641-0.60156 16.441-3.1211 29.16-11.281 37.199-25.68 19.68-35.039 2.8789-70.922-42-74.281-6.4805-0.48047-12.121 1.0781-17.281 5.1602-8.2812 6.6016-18.121 10.801-28.559 12.238-17.879 2.3984-22.441 3.7188-20.52 28.68 0.60156 7.0781 3.6016 13.441 6.3594 19.801 1.9219 4.3203 5.5195 8.0391 10.199 9.3594 14.641 3.9609 29.641 4.6797 42.961-2.7617 15.832-8.4062 16.672-25.449 1.6719-35.527zm-306.84 421.2c31.68 1.9219 54.961-27.238 39.84-56.039-11.762-22.68-33.238-35.879-64.68-28.559-13.441 3.1211-22.68 11.879-31.441 20.762-14.039 14.398-30.359 24.719-49.32 31.922-9.8398 3.7188-17.762 2.1602-25.32-3.4805-4.6797-3.4805-8.3984-7.9219-5.6406-14.281 2.5195-5.8789 9.8398-9.8398 16.32-8.8789 3.3594 0.48047 7.1992 1.3203 6.3594 5.7617-0.60156 3.2383-3.4805 4.0781-6.7188 3-3.4805-1.1992-7.0781-1.4414-7.8008 3.1211-0.60156 3.6016 1.9219 6.1211 5.0391 7.6797 5.0391 2.5195 15.719 1.0781 18.84-2.8789 3.9609-5.0391 3.1211-10.32 0.48047-15.719-2.3984-4.8008-6.1211-8.0391-11.039-10.32-17.039-7.8008-30.602-0.23828-39.719 10.078-9.8398 11.16-9.9609 35.762-0.35937 45.84 19.078 20.039 40.922 22.801 62.039 12.359 13.441-6.6016 24.602-15.84 33.84-27.359 5.6406-6.9609 11.52-13.559 17.398-20.398 10.32-11.879 24.359-17.398 39.359-21.121 8.2812-2.0391 16.199-0.12109 23.52 3.8398 11.879 6.3594 17.762 21 13.68 33.48-4.8008 14.641-16.68 22.801-31.199 21.48-11.641-1.0781-21.48-11.52-22.441-23.762-0.60156-7.5586 8.2812-17.039 18.359-18.602 4.1992-0.71875 10.922-3.2383 12 2.8789 0.96094 5.0391-5.6406 2.8789-8.8789 3.9609-8.2812 2.8789-12.719 11.281-9.2383 17.398 5.7617 9.9609 25.559 10.922 31.801 1.3203 4.5586-7.0781 6.2383-14.762 1.1992-22.32-5.5195-8.1602-13.32-13.68-23.762-12.84-8.0391 0.60156-15.84 2.6406-23.039 6.8398-13.078 7.5586-17.879 20.762-10.922 34.078 6.9648 12.957 16.445 22.32 31.445 20.758zm365.64-27.719c-0.60156-4.9219-2.2812-10.559 3.1211-13.68 4.9219-2.8789 10.078-0.60156 14.879 1.9219 4.4414 2.3984 5.1602 6.3594 4.9219 10.801-0.35938 9.7188-9 20.039-18.961 21.84-10.441 1.9219-20.879 2.1602-30.84-2.7617-17.52-8.6406-34.922-17.281-47.879-32.16-8.6406-9.9609-20.039-15.719-32.281-19.801-18.719-6.2383-37.559 5.7617-39.121 24.602-0.48047 5.3984-2.5195 9.7188-5.0391 14.281-6.3594 11.039-4.3203 18 7.0781 23.762 4.1992 2.1602 8.7617 3.7188 13.32 5.0391 14.52 4.1992 24.359 0 32.039-13.078 5.5195-9.6016 0.48047-21-10.441-23.398-9.3594-2.0391-15.961 3.2383-15.719 12.48 0.12109 2.6406 2.5195 5.1602-0.48047 8.2812-5.7617-0.48047-9-4.0781-9.6016-9.4805-0.60156-6 2.1602-10.801 7.1992-14.281 12.719-9.1211 32.281-4.3203 36.359 10.801 2.7617 10.441 9.3594 15.48 16.32 22.441 17.281 17.16 38.52 20.641 61.32 21.238 11.762 0.23828 23.039-2.1602 33-7.8008 9.9609-5.5195 18.602-13.199 20.52-24.84 4.4414-28.078-22.441-52.922-51.238-48-4.8008 0.83984-9.1211 2.7617-13.078 5.5195-13.441 9.3594-12.238 29.641 2.0391 37.32 9.3594 5.0391 19.078 5.0391 29.039 1.4414 4.3203-1.5586 7.4414-4.4414 9.2383-8.2812 1.6797-3.3594 2.5195-7.4414-1.3203-10.078-3.7188-2.3984-7.1992-1.8008-9.3594 2.6406-0.83594 1.5508-2.0352 3.1094-5.0352 3.2305zm-190.8-8.7617c-3.7188-10.801-2.3984-15.48 3.6016-17.762 6.7188-2.6406 13.32 0 16.559 6.7188 3.4805 6.9609 2.1602 14.52-3.6016 20.641-5.1602 5.3984-13.559 7.6797-21 4.4414-10.441-4.4414-18.719-10.922-20.641-22.922-1.3203-8.7617-5.0391-16.922-9.1211-24.719-5.5195-10.801-14.52-19.199-26.16-22.32-17.52-4.8008-35.039-2.5195-51.121 6.1211-7.5586 4.0781-12.719 11.039-17.039 18.359-3.3594 5.8789 1.3203 10.68 2.6406 15.84 1.3203 5.0391 2.1602 9.9609 2.2812 15 0.12109 3.8398 1.4414 7.1992 4.9219 9.4805 9.7188 6.3594 30 6.3594 39.602-0.23828 9.6016-6.6016 13.441-18 10.32-31.199-1.8008-7.6797-9.1211-8.8789-15.121-11.039-5.2812-1.9219-11.398-2.7617-16.199 1.4414-2.5195 2.2812-3.7188 5.5195-3.6016 8.7617 0.12109 5.6406 8.0391 12.602 12.48 10.68 5.6406-2.5195 3.4805-6.4805 0.83984-10.199-0.71875-1.0781-1.1992-2.6406 0.60156-3.3594 1.9219-0.83984 3.7188-0.60156 5.2812 0.83984 4.4414 4.1992 4.5586 9.1211 1.4414 13.922-3.2383 5.0391-7.8008 8.1602-14.398 6.2383-8.8789-2.5195-15-11.398-13.922-20.16 1.0781-9.4805 8.1602-15.238 18.719-15.48 13.078-0.23828 34.441 7.9219 37.559 26.281 0.48047 3.1211 1.9219 6.2383 2.7617 9.3594 5.2812 18.719 21.359 26.281 37.441 33.359 3.6016 1.5586 8.5195 0.71875 12.719 0.35938 4.1992-0.35938 8.3984-1.8008 12.602-2.5195 20.52-3.7188 29.16-16.199 26.039-37.32-2.0391-13.199-20.281-24.719-36.238-22.801-14.281 1.8008-21.121 11.879-16.922 24.602 1.5586 4.6797 4.1992 8.2812 8.0391 11.16 4.9219 3.7188 11.52 1.3203 17.16 4.1992 2.7617 1.4414 6.7188-4.3203 6.7188-8.8789 0-4.0781-2.1602-7.4414-6.3594-8.1602-4.0781-0.71875-5.7617 2.2812-6.7188 5.6406-0.24219 1.1953-0.96094 2.3945-2.1641 5.6328zm-66.359-248.64c18.359 4.4414 37.922-3.9609 45.238-18.602 7.5586-15.121-2.2812-32.52-18.359-32.641-6.8398-0.12109-9.4805 3.3594-10.32 9-0.96094 6.4805 2.8789 8.1602 8.5195 8.0391 1.4414 0 2.8789-0.12109 4.3203 0.12109 1.3203 0.23828 2.8789 1.0781 2.5195 2.7617-0.23828 1.1992-0.83984 2.7617-1.8008 3.4805-6.3594 3.9609-19.801-0.23828-21.961-6.7188-3.4805-10.441 6.1211-23.762 17.281-24 16.559-0.35938 29.039 12.359 27.961 28.559-1.0781 16.801-15.121 33.121-32.879 38.039-16.441 4.5586-33.121-1.1992-44.281-15.238-6.3594-7.9219-8.7617-17.398-11.762-26.762-4.0781-12.961-16.441-21.602-29.879-20.879-12.602 0.71875-20.16 9.4805-17.641 21.238 1.9219 8.7617 2.5195 17.039-0.23828 25.922-3.1211 9.7188 4.8008 15.961 14.879 12.48 3.6016-1.1992 6.9609-3.1211 10.441-4.6797 5.6406-2.3984 6-6.7188 4.1992-11.641-3.1211-8.7617-10.441-9.1211-17.762-7.3203-1.9219-4.0781 0.23828-5.7617 2.2812-6.6016 9.6016-4.1992 18.602 0 21.48 11.52 1.8008 6.9609 5.3984 10.801 11.039 15 13.199 9.8398 28.68 12.121 44.039 14.52 6.3594 1.0781 12.84 2.2812 19.68 0 23.281-7.8008 31.559-18 33.121-42.48 0.12109-1.8008 0.35938-3.7188 0.60156-5.5195 1.0781-5.3984-1.1992-9.7188-3.9609-14.281-14.16-23.039-60.121-24-76.078 4.1992-5.2812 9.3594-3.7188 21.48 3.2383 26.762 8.2812 6.1211 18.238 4.3203 26.879-4.8008 1.3203-1.4414 2.5195-3 4.6797-2.0391 2.7617 1.1992 2.7617 3.4805 2.1602 5.8789-0.83984 3.8398-3.3594 6.4805-6.4805 8.7617-3.1172 2.7617-8.0352 3.0039-11.156 7.9219zm-107.4-50.637c2.3984 7.0781 8.0391 9.8398 9.8398 15.602 7.4414 24.719-14.762 52.68-41.16 51.238-9.8398-0.48047-18.121-5.2812-26.039-10.559-5.5195-3.7188-11.039-7.3203-17.398-9.4805-13.559-4.5586-26.641-3.1211-37.559 5.8789-9 7.4414-13.078 18.359-9.3594 28.922 3.7188 10.559 9.8398 20.039 24.238 21.961 18.48 2.3984 29.641-1.8008 35.762-16.922 2.2812-5.7617 4.5586-11.641-1.1992-16.68-5.2812-4.6797-11.398-6.4805-18.48-4.0781-3.2383 1.0781-6.4805 1.9219-6.9609 5.8789-0.48047 3.9609-0.23828 7.4414 4.9219 8.3984 3.4805 0.71875 4.9219 3.1211 3 6.1211-1.8008 2.7617-5.0391 2.3984-7.8008 1.3203-6-2.3984-8.6406-7.3203-8.8789-13.199-0.23828-6.3594 2.2812-11.641 8.7617-14.641 12.602-5.7617 27.359-2.1602 34.078 10.32 3.7188 6.8398 8.7617 8.1602 15 7.4414 21.121-2.6406 39.48-10.922 52.559-27.719 12.477-16.086 6.2344-40.926-13.324-49.805zm197.64 61.918c13.32 5.3984 27.359 6.1211 40.801 3.6016 10.441-1.9219 23.039-4.3203 23.039-19.922 0-5.2812 11.398-10.801 17.039-9.8398 5.3984 0.96094 8.8789 6.2383 8.5195 12.719-0.12109 2.0391-0.83984 3.6016-2.8789 4.4414-2.6406 1.0781-3.1211-0.96094-3.7188-2.7617-1.4414-3.9609-4.1992-6.9609-8.5195-4.5586-4.3203 2.2812-4.5586 6.7188-2.8789 11.039 1.5586 4.1992 4.4414 7.4414 8.7617 8.6406 11.762 3.2383 21.359-1.1992 30-8.7617 8.5195-7.4414 7.9219-17.16 4.8008-25.801-3.3594-9.4805-11.281-16.559-22.32-16.922-14.52-0.48047-28.559 1.3203-37.199 15.48-3.6016 6-8.7617 11.039-12.602 16.801-7.4414 11.281-18.719 15.121-31.559 15.961-3.7266 0.60156-7.5664 0.125-11.285-0.11719zm343.44 266.28c-12.84-17.879-26.879-22.801-46.801-18.602-8.8789 1.9219-14.281 6.4805-15.359 15.48-1.6797 14.52 1.4414 27.48 13.559 37.32 15.48 12.48 41.398 3.3594 45.121-15.719 1.3203-6.4805-2.0391-13.199-8.0391-16.199-3.4805-1.8008-6.6016-1.0781-9.2383 1.0781-2.6406 2.1602-4.1992 5.0391-2.6406 8.6406 0.60156 1.1992 1.5586 2.2812 2.3984 3.4805 1.4414 2.0391 2.7617 4.3203 0.23828 6-2.2812 1.4414-4.5586-0.35938-6.3594-1.6797-7.0781-5.5195-5.8789-17.398 2.1602-22.441 8.8828-5.6406 17.043-3.6016 24.961 2.6406zm-720.12 42.121c17.281 0.48047 25.32-9 31.922-20.762 2.8789-5.0391 2.5195-7.8008-3.2383-10.801-9.4805-4.9219-16.68-12.121-18.961-23.039-0.83984-4.0781-3.2383-7.5586-7.9219-9-19.559-6-44.762 13.32-42.84 33.238 0.96094 9.6016 8.1602 15.359 15.602 20.52 8.3984 5.7617 12.719 5.6406 19.199 0.23828 6.7188-5.5195 8.5195-12.121 5.3984-19.801-0.96094-2.2812-2.0391-4.5586-4.6797-4.6797-2.7617-0.12109-3.7188 2.1602-4.4414 4.5586-1.0781 4.3203-3.8398 7.3203-7.8008 3.3594-3.3594-3.2383-4.6797-8.2812-2.0391-12.84 2.5195-4.4414 6.4805-6.3594 12-5.3984 13.199 2.1602 20.281 12 17.641 25.32-1.2031 6.6055-4.5625 12.723-9.8398 19.086zm515.76-297.12c9.9609 5.1602 20.039 8.1602 31.32 5.3984 13.68-3.3594 14.762-4.8008 14.641-18.48 0-3.7188 0.71875-7.3203 0.96094-11.039 0.83984-15.602-3.9609-22.922-18.84-29.16-13.199-5.5195-24.84-3-34.922 7.5586-7.1992 7.5586-8.0391 19.441-2.0391 29.762 4.0781 7.0781 11.879 10.32 20.762 8.8789 6.2383-0.96094 11.039-4.3203 12.121-10.32 1.0781-6.2383-1.3203-11.762-7.4414-15.359-6.1211-3.6016-10.801-2.1602-14.52 3.4805-0.96094 1.4414-2.2812 1.3203-4.1992-0.48047 0.60156-7.0781 4.6797-11.16 12.602-11.16 8.3984 0 14.398 3.7188 18.238 11.16 3.8398 7.5586 2.5195 14.281-2.7617 20.641-6.7227 8.0391-15.84 9.3594-25.922 9.1211zm-363.6-55.801c10.801-1.3203 14.398 1.4414 13.68 9.6016-1.0781 10.922-12.602 15.84-22.32 9.4805-7.3203-4.6797-9.1211-12.359-11.039-20.762-8.7617 7.4414-10.441 18.238-18.719 25.922 6.9609 4.6797 12.84 9.1211 19.32 12.84 22.199 12.84 49.559-1.9219 50.52-27 0.60156-16.32-13.922-27.719-30-23.641-11.16 2.8789-15.121 13.559-8.3984 22.801 2.2812 3.1211 5.2812 5.5195 9.3594 5.2812 2.3984-0.12109 4.1992-1.9219 4.9219-4.4414 1.5586-5.5195-4.3203-5.1602-6.3594-7.6797-0.36719-0.24219-0.36719-0.72266-0.96484-2.4023zm225.12 12.359c10.922 6.4805 15.961 6.8398 21.719 1.8008 4.6797-4.1992 8.2812-9 6-15.84-3.1211-9.8398-10.441-14.762-23.039-15-13.078-0.23828-22.078 4.5586-24.84 14.281-1.0781 3.8398-0.60156 8.2812-0.96094 12.359-1.9219 17.281 6.6016 27.48 24.359 28.32 21 1.0781 34.32-3.7188 44.281-29.879-11.879 0-11.879 0-20.039 8.5195-7.8008 8.0391-17.879 10.078-27.238 5.5195-4.4414-2.1602-8.0391-5.3984-8.3984-10.441-0.35938-5.7617 3.7188-9.3594 8.1602-12.121 2.5195-1.6797 5.7617-1.4414 7.6797 0.96094 1.8008 2.3984-0.71875 4.0781-2.2812 5.7617-1.6797 1.5586-3.2422 3.3594-5.4023 5.7578zm-88.438-48.238c13.559-2.3984 26.281-2.7617 38.762 0.60156 5.0391 1.3203 6.9609-1.4414 8.0391-5.3984 5.2812-19.68 4.3203-39.359-1.5586-58.68-1.5586-5.2812-4.6797-5.3984-7.9219-1.1992-8.1602 10.801-17.039 21.121-23.879 32.641-5.7617 9.5938-12.242 19.434-13.441 32.035zm325.08 92.398c-2.6406-2.0391-5.5195-0.48047-8.2812-0.60156-11.398-0.35938-18.121-8.5195-16.199-19.441 1.9219-10.441 12.121-17.52 24.359-16.559 4.9219 0.35938 9.7188 1.1992 17.641 2.2812-14.762-11.762-28.68-11.879-42.84-8.1602-10.441 2.7617-17.52 13.199-18.121 24.238-0.48047 9 7.0781 22.199 14.281 25.199 10.32 4.3242 20.039 1.9219 29.16-6.957zm-13.801 17.641c4.0781 0 8.3984 0.60156 12.359-0.12109 9.8398-1.9219 18-7.1992 21.238-16.559 3.3594-9.9609-0.60156-19.199-7.5586-26.762-4.8008-5.1602-16.559-5.5195-22.559-1.5586-5.7617 3.8398-7.0781 12.238-2.7617 16.922 3.4805 3.6016 7.4414 3.9609 11.398 1.0781 3.6016-2.6406 2.5195-5.5195-0.60156-7.9219-2.2812-1.6797-5.1602-3.6016-1.8008-6.3594 2.3984-1.8008 5.3984-0.83984 7.9219 0.71875 7.8008 5.0391 9.2383 18 2.8789 25.922-5.1562 6.8398-12.953 10.082-20.516 14.641zm-239.16-35.398c-2.6406-1.6797-4.1992-2.6406-5.8789-3.6016-0.96094-0.60156-2.2812-0.48047-2.2812 0.48047-0.12109 2.0391 1.6797 3.2383 3.3594 4.0781 0.60156 0.35938 1.6836-0.23828 4.8008-0.95703z"/>
 <path d="m613.92 1164c-8.7617-1.8008-13.199-7.9219-14.281-15-0.96094-7.0781-0.12109-14.762 6.6016-20.281 7.6797-6.1211 16.559-8.8789 26.039-10.801 12.238-2.3984 24.719-2.6406 37.078-2.8789 9.2383-0.23828 17.879-2.2812 26.281-5.8789 4.6797-2.0391 8.1602-5.1602 7.8008-10.441s-5.1602-6.4805-9.1211-7.5586c-18.359-4.8008-37.078-3.1211-55.441-1.1992-27.48 2.7617-54.84 6.6016-81.602 13.922-13.199 3.6016-26.52 3-39.359-1.5586-15.238-5.3984-18.48-15.48-8.6406-28.078 8.0391-10.199 18.48-16.199 32.52-18 48.121-6 96.238-1.6797 144.36-2.5195 20.039-0.35937 40.078-0.60156 60-2.8789 11.398-1.3203 22.922-2.6406 32.16-10.32 5.5195-4.5586 5.1602-6.8398-1.8008-9.4805-21-8.0391-42.602-13.559-65.398-12.602-9.7188 0.48047-18.84-2.3984-28.441-3-42.48-2.1602-84.84 1.5586-127.08 4.3203-24.84 1.6797-49.199 5.8789-73.922 7.5586-12.719 0.83984-24.84-0.60156-36.719-3.9609-16.922-4.6797-20.281-16.199-9.4805-29.398 6.1211-7.5586 13.922-12.602 23.281-15.359 26.762-7.8008 54.121-10.922 81.84-11.16 42-0.48047 83.879 3.6016 125.76 6.3594 18.961 1.1992 37.801 4.3203 56.879 6.3594 34.559 3.6016 68.52-0.12109 102.6-4.9219 12.121-1.6797 24.238-5.2812 34.078-13.559 8.3984-6.9609 8.2812-11.281-0.71875-17.16-12.602-8.3984-27.602-10.68-42-12.84-20.641-3-41.52-6.8398-62.52-6.8398-39.48-0.12109-78.961-3.3594-118.68-0.48047-27.961 2.0391-56.16 2.1602-84.121 4.8008-27.961 2.5195-56.039 4.5586-83.762 9.8398-30 5.6406-60.359 8.2812-91.078 4.5586-11.16-1.3203-21.359-4.5586-31.078-9.7188-3.8398-2.0391-7.1992-4.5586-9.8398-7.9219-1.6797-2.0391-4.9219-4.3203-2.5195-7.0781 2.6406-3.1211 5.1602 0 6.9609 1.9219 3.7188 3.7188 8.0391 6.2383 12.961 8.5195 23.398 10.559 48 10.559 72.961 8.7617 26.641-1.9219 52.801-8.0391 79.441-10.32 43.199-3.8398 86.398-7.1992 129.84-9.3594 43.078-2.1602 85.801-0.23828 128.64 1.3203 28.559 1.0781 57 4.9219 84.719 12.121 7.5586 1.9219 14.281 5.3984 20.281 9.9609 10.078 7.5586 9.2383 18-1.5586 24.961-16.801 10.801-35.762 16.078-55.199 17.52-16.559 1.1992-33.238 3.1211-49.801 4.0781-27 1.5586-53.281-2.5195-79.559-6.1211-21.359-2.8789-42.719-4.3203-64.078-5.5195-24.719-1.3203-49.441-3-74.281-3.1211-25.078-0.12109-49.32 4.6797-73.68 9.1211-11.398 2.0391-21.961 6.7188-28.922 16.559-6.1211 8.5195-4.0781 15 6 18.238 10.441 3.3594 21.359 5.2812 32.398 4.1992 28.441-2.6406 56.879-5.5195 85.441-8.2812 37.559-3.6016 75.238-6.3594 112.92-3.6016 26.52 1.9219 53.398 1.0781 79.559 7.6797 8.8789 2.2812 17.281 5.2812 25.559 8.7617 10.199 4.1992 10.922 12.48 1.8008 18.961-6.9609 5.0391-14.879 8.0391-23.641 9.4805-25.078 3.9609-50.281 4.9219-75.602 5.0391-30.602 0.12109-61.078-0.83984-91.68-0.83984-18.121 0-36.238 0.96094-54.238 3.4805-12 1.6797-20.16 7.9219-25.801 17.762-4.9219 8.5195-2.6406 14.52 6.8398 17.281 9.6016 2.7617 19.441 4.8008 29.641 2.0391 28.078-7.6797 56.879-11.641 85.801-14.762 18.48-2.0391 37.078-3.2383 55.68-0.35938 13.441 2.0391 18.359 5.5195 19.199 13.32 0.83984 8.2812-3.9609 13.922-15.961 18.719-10.32 4.0781-21.359 4.5586-32.16 5.7617-11.762 1.4414-23.762 0.60156-35.398 4.3203-20.52 6.6016-24.359 15.719-13.922 33.961-0.24609 0.59375-0.72656 1.6719-0.84375 3.5938z"/>
 <path d="m687.24 821.64c-2.7617-1.5586-2.7617-3.4805-2.3984-5.2812 11.52-52.078 23.039-104.16 34.559-156.12 0.23828-1.3203 1.3203-2.5195 4.5586-2.0391 2.7617 4.9219 1.1992 10.801-0.12109 16.199-5.7617 23.879-9 48.238-16.32 71.879-6.3594 20.398-7.4414 42-14.281 62.281-1.4336 4.8008-1.793 9.9609-5.9961 13.082z"/>
 <path d="m541.68 809.52c-6.1211-8.3984-6.4805-16.199-6.3594-23.762 0.23828-20.398 0.35938-40.801 1.6797-61.199 1.0781-17.641 0.71875-35.281 1.6797-52.801 0.60156-11.52 2.0391-23.039 3.2383-34.559 0.23828-1.8008 0.83984-3.6016 5.0391-4.3203-2.3984 58.32-6.2383 116.28-5.2773 176.64z"/>
 <path d="m317.76 654.72c15.238 15 57.359 119.76 58.32 145.08-1.3203-0.83984-3.1211-1.3203-3.4805-2.2812-15.48-47.762-37.199-93-56.281-139.32-0.48047-1.3164 0-2.7539 1.4414-3.4766z"/>
 <path d="m750.24 662.04c-19.32 54.359-34.801 109.68-45.84 166.2-6.5977-19.68 29.16-150.24 45.84-166.2z"/>
 <path d="m399.24 800.64c-2.2812 0.35938-3.6016-0.35938-4.0781-1.6797-15.961-48.48-29.281-97.68-48.359-145.08-0.71875-1.6797-0.12109-3.6016 1.3203-5.0391 3.2383-0.35938 3.6016 2.1602 4.5586 4.1992 18.719 41.16 29.879 84.84 42.961 127.8 2.0391 6.4766 3.8398 13.078 3.5977 19.797z"/>
 <path d="m521.28 816.12c0.35938-59.398-1.9219-118.68-3-178.32 3.4805 0.48047 4.8008 1.6797 5.1602 3.7188 3.5977 16.441 3 146.76-2.1602 174.6z"/>
 <path d="m820.56 828.6c-1.4414-18.48 42-127.68 58.68-147.24-6.3594 25.32-19.199 48.359-29.16 72.238-10.199 24.238-16.797 49.918-29.52 75z"/>
 <path d="m844.44 806.52c9.4805-39.48 28.801-75.48 43.32-112.44 3.9609 0.23828 4.8008 1.4414 4.1992 2.8789-14.762 36.961-29.641 73.801-44.52 110.76-0.96094-0.48047-2.043-0.83984-3-1.1992z"/>
 <path d="m746.4 539.4c-1.8008-15.84 39.359-139.32 51.121-153.48 3.4805 3.8398 1.3203 7.6797 0 11.398-11.039 30-21.961 60.121-33.359 90-5.0391 13.078-6.4805 27-11.52 39.961-1.8008 4.082-1.1992 9.3633-6.2422 12.121z"/>
 <path d="m462 514.8c-8.0391-24.121-15.602-48.48-24.238-72.359-6-16.559-13.32-32.641-20.039-48.961-0.71875-1.6797-1.8008-3.2383-2.5195-5.0391-0.83984-2.0391-2.1602-4.5586 1.0781-5.7617 2.8789-0.96094 4.3203 1.1992 5.2812 3.3594 6.7188 15.359 13.559 30.602 19.922 46.078 8.3984 20.281 13.922 41.398 20.52 62.16 2.2773 6.8438 2.7578 13.684-0.003906 20.523z"/>
 <path d="m435.24 378.24c26.762 41.039 39.84 85.922 42.48 133.92-6.8398-12.602-9.1211-26.398-11.281-40.078-3.7188-23.762-13.559-45.121-23.16-66.84-3.8359-8.6406-9.5977-16.801-8.0391-27.004z"/>
 <path d="m735.48 533.88c-2.5195-8.7617 19.559-90.238 30.121-114.24 5.3984-12.238 5.2812-26.762 15.84-37.078-3.1211 26.641-14.762 50.879-21.961 76.441-7.1992 25.195-15.961 49.918-24 74.875z"/>
 <path d="m621.96 369.96c-3.6016 53.641-0.96094 106.44-3.6016 159.12-5.3984 0.60156-5.0391-2.7617-5.2812-5.2812-0.23828-2.2812-0.12109-4.6797-0.12109-6.9609 0.83984-44.762 1.6797-89.52 2.6406-134.28 0.12109-4.4375-0.95703-9.4805 6.3633-12.598z"/>
 <path d="m631.68 466.32c-7.9219-15.602-2.0391-78.121 8.3984-91.199-5.6367 30.238-7.4375 60.719-8.3984 91.199z"/>
 <path d="m632.76 472.8c0.60156 20.762 0.12109 38.281-2.7617 57.719-4.9219-15.84-3.9609-44.52 2.7617-57.719z"/>
</svg>
