<?xml version="1.0" encoding="UTF-8"?>
<svg width="1200pt" height="1200pt" version="1.1" viewBox="0 0 1200 1200" xmlns="http://www.w3.org/2000/svg">
 <path d="m689.67 462.39c-10.352-29.656-10.621-61.902-0.76562-91.727 36.227-41.102 32.699-76.184 32.535-77.672v0.003906c-0.23047-2.0273-1.1406-3.9141-2.582-5.3555-3.4727-3.2031-7.2617-6.0508-11.309-8.4922l9.2695-45.676v0.003906c0.94922-4.6953-1.9453-9.3125-6.5859-10.5l-74.234-18.977v-18c0-4.9688-4.0312-9-9-9h-18v-27.898c14.699-3.0039 26.938-13.129 32.633-27.012 5.6953-13.879 4.0977-29.684-4.2578-42.145-8.3555-12.461-22.371-19.938-37.375-19.938s-29.02 7.4766-37.375 19.938c-8.3555 12.461-9.9531 28.266-4.2578 42.145 5.6953 13.883 17.934 24.008 32.633 27.012v27.898h-18c-4.9688 0-9 4.0312-9 9v18l-74.234 19.02c-4.6406 1.1914-7.5352 5.8047-6.5859 10.5l9.2695 45.691c-4.0469 2.4414-7.8359 5.2852-11.309 8.4883-1.4414 1.4414-2.3516 3.332-2.582 5.3555-0.16406 1.5-3.6914 36.57 32.535 77.672 9.8555 29.824 9.5859 62.066-0.76562 91.723-13.738 13.5-109.86 113.49-142.7 290.59l0.003907 0.003906c-11.648 55.27-18.223 111.49-19.637 167.95v39c0 1.3945 0.32422 2.7695 0.94531 4.0195 3 6 34.801 57.48 242.05 58.934v65.027c-16.496-9.9297-36.324-12.711-54.914-7.7109-17.242 7.5977-29.621 23.211-33.09 41.73h-19.996c-4.9688 0-9 4.0312-9 9s4.0312 9 9 9h27c4.2188 0 7.875-2.9297 8.7891-7.0508 4.3516-19.5 12.254-31.605 23.504-35.789 16.184-6 38.07 4.6953 48.703 11.566l0.003906 22.273c0 4.9688 4.0312 9 9 9s9-4.0312 9-9v-22.289c10.59-6.8711 32.398-17.578 48.676-11.566 11.266 4.1719 19.199 16.215 23.551 35.805 0.91016 4.1172 4.5586 7.0469 8.7734 7.0508h27c4.9688 0 9-4.0312 9-9s-4.0312-9-9-9h-19.996c-3.4688-18.52-15.848-34.133-33.09-41.73-18.59-5.0078-38.422-2.2227-54.914 7.7109v-64.98c33.578-0.054688 67.129-1.9375 100.5-5.6406 4.9375-0.58203 8.4648-5.0586 7.8828-9.9961-0.58594-4.9375-5.0586-8.4688-9.9961-7.8828-35.66 3.9102-71.516 5.7539-107.39 5.5195-185 0-227.58-40.156-234-47.773v-36.227c1.4297-55.387 7.8984-110.53 19.336-164.75 18.082-105.51 66.305-203.54 138.86-282.25 0.94531-0.89453 1.6875-1.9844 2.1719-3.1953 12.77-34.758 13.16-72.852 1.1133-107.86-0.39453-1.1094-1-2.1289-1.7852-3-16.797-16.488-27.184-38.406-29.312-61.848 9.2383-7.5 42.422-29.176 82.738 10.215l12.84 25.68 0.12109 0.17969v0.003906c0.16016 0.28906 0.33594 0.56641 0.52734 0.83984 0.14844 0.22656 0.28516 0.44922 0.44922 0.64453 0.19922 0.23047 0.41016 0.44922 0.62891 0.66016 0.21094 0.21094 0.40625 0.42188 0.61328 0.60156 0.21094 0.17969 0.44922 0.31641 0.69141 0.48047v-0.003907c0.25781 0.18359 0.52344 0.35547 0.79688 0.51172l0.19531 0.12109c0.19531 0.089844 0.39062 0.14844 0.58594 0.22656 0.19531 0.074219 0.55469 0.22656 0.83984 0.31641v-0.003906c0.29297 0.085938 0.59375 0.15625 0.89844 0.20703 0.26953 0 0.53906 0.10547 0.80859 0.13672 0.30469 0.015625 0.61328 0.015625 0.91797 0h0.83984c0.28516 0 0.58594-0.089844 0.88672-0.14844 0.30078-0.058594 0.55469-0.10547 0.82422-0.19531h-0.003906c0.30078-0.097656 0.59766-0.20703 0.88672-0.33203 0.17969-0.074219 0.375-0.12109 0.57031-0.21094l0.19531-0.12109v0.003906c0.27734-0.15625 0.55078-0.32812 0.80859-0.51172 0.22656-0.14844 0.46484-0.30078 0.67578-0.46484 0.21094-0.16406 0.42188-0.39063 0.62891-0.60156 0.21484-0.20312 0.42188-0.41797 0.61719-0.64453 0.16406-0.19531 0.30078-0.43359 0.44922-0.64453 0.19141-0.26953 0.36719-0.55078 0.52344-0.83984l0.12109-0.17969 12.84-25.664c40.051-39.121 73.5-17.672 82.727-10.184-2.1367 23.43-12.523 45.344-29.312 61.828-0.78516 0.875-1.3906 1.8945-1.7852 3-12.047 35.012-11.656 73.109 1.1133 107.86 0.48438 1.2109 1.2266 2.3008 2.1719 3.1953 72.617 78.668 120.85 176.71 138.86 282.24 11.434 54.199 17.906 109.32 19.336 164.7v36.148c-4.1094 4.9062-21.316 21.328-74.656 33.539v0.003906c-4.4648 1.0156-7.4531 5.2266-6.9414 9.7773 0.50781 4.5508 4.3555 7.9922 8.9375 7.9961 0.67578 0.003906 1.3516-0.074219 2.0117-0.22656 72-16.5 86.297-41.43 87.691-44.219h-0.003907c0.62891-1.2461 0.95703-2.625 0.96094-4.0195v-39c-1.4141-56.48-7.9844-112.71-19.637-168-32.863-177.14-128.95-277.08-142.69-290.61zm-116.67-357.39c0-7.1602 2.8438-14.027 7.9062-19.094 5.0664-5.0625 11.934-7.9062 19.094-7.9062s14.027 2.8438 19.094 7.9062c5.0625 5.0664 7.9062 11.934 7.9062 19.094s-2.8438 14.027-7.9062 19.094c-5.0664 5.0625-11.934 7.9062-19.094 7.9062s-14.027-2.8438-19.094-7.9062c-5.0625-5.0664-7.9062-11.934-7.9062-19.094zm34.141 191.64c-0.68359 0.68359-1.25 1.4727-1.6797 2.3398l-5.4609 10.891-5.4453-10.906c-0.42969-0.86719-0.99609-1.6562-1.6797-2.3398-32.684-32.684-62.895-32.398-83.656-25.395l-6.6914-33 72.703-18.629h0.003906c3.9805-1.0234 6.7656-4.6094 6.7656-8.7148v-15.887h36v15.93c0 4.1094 2.7852 7.6953 6.7656 8.7148l72.734 18.629-6.6914 33c-20.773-7.0469-51-7.2734-83.668 25.367z"/>
 <path d="m816 303h18c4.9688 0 9-4.0312 9-9s-4.0312-9-9-9h-18c-4.9688 0-9 4.0312-9 9s4.0312 9 9 9z"/>
 <path d="m888 285h-18c-4.9688 0-9 4.0312-9 9s4.0312 9 9 9h18c4.9688 0 9-4.0312 9-9s-4.0312-9-9-9z"/>
 <path d="m852 303c-4.9688 0-9 4.0312-9 9v18c0 4.9688 4.0312 9 9 9s9-4.0312 9-9v-18c0-2.3867-0.94922-4.6758-2.6367-6.3633s-3.9766-2.6367-6.3633-2.6367z"/>
 <path d="m852 285c4.9688 0 9-4.0312 9-9v-18c0-4.9688-4.0312-9-9-9s-9 4.0312-9 9v18c0 2.3867 0.94922 4.6758 2.6367 6.3633s3.9766 2.6367 6.3633 2.6367z"/>
 <path d="m366 177c4.9688 0 9-4.0312 9-9s-4.0312-9-9-9h-18c-4.9688 0-9 4.0312-9 9s4.0312 9 9 9z"/>
 <path d="m402 177h18c4.9688 0 9-4.0312 9-9s-4.0312-9-9-9h-18c-4.9688 0-9 4.0312-9 9s4.0312 9 9 9z"/>
 <path d="m393 204v-18c0-4.9688-4.0312-9-9-9s-9 4.0312-9 9v18c0 4.9688 4.0312 9 9 9s9-4.0312 9-9z"/>
 <path d="m384 159c4.9688 0 9-4.0312 9-9v-18c0-4.9688-4.0312-9-9-9s-9 4.0312-9 9v18c0 4.9688 4.0312 9 9 9z"/>
 <path d="m969 591h-18c-4.9688 0-9 4.0312-9 9s4.0312 9 9 9h18c4.9688 0 9-4.0312 9-9s-4.0312-9-9-9z"/>
 <path d="m1023 591h-18c-4.9688 0-9 4.0312-9 9s4.0312 9 9 9h18c4.9688 0 9-4.0312 9-9s-4.0312-9-9-9z"/>
 <path d="m987 609c-4.9688 0-9 4.0312-9 9v18c0 4.9688 4.0312 9 9 9s9-4.0312 9-9v-18c0-2.3867-0.94922-4.6758-2.6367-6.3633s-3.9766-2.6367-6.3633-2.6367z"/>
 <path d="m987 591c4.9688 0 9-4.0312 9-9v-18c0-4.9688-4.0312-9-9-9s-9 4.0312-9 9v18c0 2.3867 0.94922 4.6758 2.6367 6.3633s3.9766 2.6367 6.3633 2.6367z"/>
 <path d="m195 465h-18c-4.9688 0-9 4.0312-9 9s4.0312 9 9 9h18c4.9688 0 9-4.0312 9-9s-4.0312-9-9-9z"/>
 <path d="m249 465h-18c-4.9688 0-9 4.0312-9 9s4.0312 9 9 9h18c4.9688 0 9-4.0312 9-9s-4.0312-9-9-9z"/>
 <path d="m213 483c-4.9688 0-9 4.0312-9 9v18c0 4.9688 4.0312 9 9 9s9-4.0312 9-9v-18c0-4.9688-4.0312-9-9-9z"/>
 <path d="m213 465c4.9688 0 9-4.0312 9-9v-18c0-4.9688-4.0312-9-9-9s-9 4.0312-9 9v18c0 2.3867 0.94922 4.6758 2.6367 6.3633s3.9766 2.6367 6.3633 2.6367z"/>
 <path d="m924 753c0 4.9688-4.0312 9-9 9s-9-4.0312-9-9 4.0312-9 9-9 9 4.0312 9 9"/>
 <path d="m744 1005c0 4.9688-4.0312 9-9 9s-9-4.0312-9-9 4.0312-9 9-9 9 4.0312 9 9"/>
 <path d="m942 447c0 4.9688-4.0312 9-9 9s-9-4.0312-9-9 4.0312-9 9-9 9 4.0312 9 9"/>
 <path d="m294 699c0 4.9688-4.0312 9-9 9s-9-4.0312-9-9 4.0312-9 9-9 9 4.0312 9 9"/>
 <path d="m222 933c0 4.9688-4.0312 9-9 9s-9-4.0312-9-9 4.0312-9 9-9 9 4.0312 9 9"/>
 <path d="m384 357c0 4.9688-4.0312 9-9 9s-9-4.0312-9-9 4.0312-9 9-9 9 4.0312 9 9"/>
 <path d="m1014 177c0 4.9688-4.0312 9-9 9s-9-4.0312-9-9 4.0312-9 9-9 9 4.0312 9 9"/>
</svg>
