<?xml version="1.0" encoding="UTF-8"?>
<svg width="1200pt" height="1200pt" version="1.1" viewBox="0 0 1200 1200" xmlns="http://www.w3.org/2000/svg">
 <path d="m1105.4 600c0-278.68-226.69-505.36-505.36-505.36-29.016 0-58.688 2.6719-88.219 7.875-0.14062 0-0.28125-0.09375-0.42188-0.09375-0.89062 0-1.7344 0.23438-2.5312 0.60938-8.5781 1.5469-16.5 3.2344-24.141 4.9688-0.23438-3.1406-2.7656-5.5781-5.9062-5.5781h-0.046875c-3.1406 0-5.7656 2.4375-6 5.5781l-0.23438 3c-222.71 57.844-377.86 258.28-377.86 489 0 278.68 226.69 505.31 505.36 505.31 129.05 0 251.68-48.703 345.79-137.06 2.8594 0.5625 5.8125 0.9375 8.7656 0.9375h0.046875c19.359 0 36.703-12.234 43.031-30.516l17.672-50.906c58.875-84.844 90.047-184.31 90.047-287.76zm-12 0c0 83.156-20.625 163.74-60.047 235.82l19.688-56.719c4.0312-11.531 3.2812-23.906-2.0156-34.922-5.2969-10.969-14.578-19.219-26.109-23.25l-39.141-13.594c1.1719-4.2188 2.0625-8.5312 3.0938-12.797 0.9375-3.8438 1.9688-7.6875 2.7656-11.531 1.1719-5.4375 2.0625-10.969 2.9531-16.453 0.60938-3.6562 1.3594-7.3125 1.875-10.969 0.84375-6.1406 1.4062-12.281 1.9688-18.422 0.28125-3.0938 0.75-6.1875 0.9375-9.2812 0.65625-9.2812 1.0312-18.562 1.0312-27.844 0-5.625-0.14062-11.25-0.32812-16.781-0.09375-1.8281-0.23438-3.6562-0.32812-5.4375-0.23438-3.75-0.375-7.5-0.70312-11.203-0.1875-2.0156-0.42188-4.0312-0.65625-6.0938-0.32812-3.4688-0.65625-6.9844-1.125-10.453-0.28125-2.1562-0.65625-4.3125-0.9375-6.4688-0.46875-3.2812-0.89062-6.6094-1.4531-9.8438-0.32812-2.1562-0.79688-4.2656-1.2188-6.4219-0.60938-3.2344-1.1719-6.4688-1.8281-9.7031-0.42188-2.1094-0.98438-4.2188-1.4531-6.2812-0.75-3.2344-1.4531-6.4219-2.25-9.6562-0.51562-2.1094-1.1719-4.1719-1.7344-6.2344-0.84375-3.1875-1.6875-6.3281-2.625-9.4688-0.65625-2.1562-1.3594-4.2656-2.0625-6.4219-0.9375-3-1.875-6.0469-2.9062-9.0469-0.75-2.1562-1.5938-4.3125-2.3438-6.4219-1.0781-2.9062-2.1094-5.8594-3.2344-8.7656-0.79688-2.1094-1.7344-4.1719-2.5781-6.2344-1.2188-2.9062-2.3438-5.8125-3.6094-8.7188-0.89062-2.0625-1.8281-4.0312-2.7656-6.0469-1.2656-2.8594-2.5781-5.7656-3.9375-8.625-0.98438-2.0156-2.0625-3.9844-3.0469-5.9531-1.4062-2.8125-2.7656-5.625-4.2656-8.3438-1.0781-2.0156-2.25-3.9844-3.3281-5.9531-1.5-2.7188-2.9531-5.3906-4.5469-8.0625-1.1719-1.9688-2.3906-3.8906-3.6094-5.8594-1.5938-2.625-3.1875-5.25-4.8281-7.8281-1.2656-1.9219-2.5781-3.8438-3.8438-5.7656-1.6875-2.5312-3.3281-5.0625-5.1094-7.5469-1.3125-1.9219-2.7656-3.75-4.125-5.6719-1.7812-2.4375-3.5625-4.875-5.3438-7.2656-1.4062-1.875-2.9062-3.7031-4.3594-5.5312-1.8281-2.3438-3.7031-4.7344-5.625-7.0312-1.5469-1.8281-3.0938-3.6094-4.6406-5.3906-1.9219-2.25-3.8438-4.5469-5.8125-6.75-1.5938-1.7812-3.2344-3.5156-4.875-5.25-2.0156-2.1562-3.9844-4.3125-6.0469-6.4688-1.6875-1.7344-3.4219-3.4219-5.2031-5.1562-2.0625-2.0625-4.125-4.125-6.2344-6.1406-1.7812-1.6875-3.6094-3.3281-5.3906-4.9688-2.1562-1.9688-4.2656-3.9375-6.4219-5.8594-1.875-1.6406-3.7969-3.2344-5.7188-4.8281-2.2031-1.8281-4.3594-3.7031-6.6094-5.5312-1.9688-1.5938-3.9844-3.1406-5.9531-4.6875-2.25-1.7344-4.4531-3.5156-6.75-5.2031-2.0625-1.5469-4.1719-3-6.2344-4.5-2.2969-1.6406-4.5938-3.2812-6.8906-4.875-2.1562-1.4531-4.3594-2.8594-6.5625-4.3125-2.2969-1.5469-4.6406-3.0938-7.0312-4.5469-2.25-1.4062-4.5469-2.7188-6.7969-4.0781-2.3438-1.4062-4.7344-2.8594-7.1719-4.2656-2.2969-1.3125-4.6875-2.5781-7.0312-3.8438-2.4375-1.3125-4.8281-2.6719-7.3125-3.9375-2.3906-1.2656-4.8281-2.3906-7.2656-3.6094-2.4844-1.2188-4.9219-2.4375-7.4062-3.6094-2.5312-1.1719-5.0625-2.25-7.5469-3.375-2.5312-1.125-5.0156-2.2031-7.5469-3.2812-2.5781-1.0781-5.1562-2.0625-7.7344-3.0938s-5.1094-2.0156-7.6875-2.9531c-2.625-0.98438-5.25-1.875-7.9219-2.7656-2.5781-0.89062-5.2031-1.7812-7.7812-2.625-2.7188-0.84375-5.3906-1.6875-8.1562-2.4844-2.0156-0.60938-4.0312-1.2656-6.0469-1.8281-0.14062-1.125-0.32812-2.2969-0.51562-3.4688-0.28125-1.9219-0.5625-3.7969-0.89062-5.7656-0.28125-1.9219-0.70312-3.8438-1.0781-5.8125s-0.75-3.8906-1.1719-5.9062c-0.42188-2.0625-0.9375-4.0781-1.4531-6.1875-0.46875-1.9688-0.9375-3.9375-1.4531-5.9062-0.60938-2.1094-1.2188-4.2188-1.875-6.3281-0.5625-1.9219-1.125-3.8906-1.7344-5.8125-0.75-2.1562-1.5469-4.2656-2.2969-6.4219-0.70312-1.8281-1.3125-3.7031-2.0625-5.5312-0.89062-2.25-1.875-4.3594-2.8594-6.5625-0.75-1.6406-1.4062-3.3281-2.2031-4.9219-1.1719-2.3906-2.4844-4.6875-3.75-6.9375-0.70312-1.2656-1.3125-2.5781-2.1094-3.7969-2.1094-3.4219-4.2656-6.7031-6.6562-9.7031-0.1875-0.42188-0.32812-0.79688-0.60938-1.1719-0.09375-0.14062-0.42188-0.60938-0.9375-1.3594-0.14062-0.1875-0.32812-0.42188-0.5625-0.70312-0.46875-0.65625-1.0312-1.3594-1.7812-2.25-0.375-0.42188-0.84375-0.9375-1.2656-1.4062-0.75-0.79688-1.4531-1.6406-2.3438-2.5312-0.60938-0.60938-1.2656-1.1719-1.9219-1.7812-0.9375-0.89062-1.9219-1.7344-3-2.625-0.375-0.32812-0.70312-0.65625-1.125-0.9375 242.44 30.609 430.55 238.36 430.55 489.14zm-311.9 42.469c-1.1719 0.14062-2.4375 0.42188-3.7031 0.60938-2.4375 0.375-4.9219 0.79688-7.5938 1.3594-1.5469 0.32812-3.1406 0.75-4.7344 1.125-2.5312 0.60938-5.0625 1.2188-7.6875 1.9688-1.7344 0.46875-3.4688 1.0312-5.25 1.5469-2.625 0.79688-5.2031 1.5938-7.8281 2.4844-1.7812 0.60938-3.6094 1.2188-5.3906 1.8281-2.6719 0.9375-5.2969 1.9219-7.9219 2.9531-1.7344 0.70312-3.4688 1.3125-5.2031 2.0625-2.7188 1.125-5.2969 2.25-7.9219 3.4219-1.5469 0.70312-3.1406 1.3594-4.6406 2.0625-2.9062 1.3594-5.625 2.7656-8.2969 4.1719-1.0781 0.5625-2.1562 1.0781-3.1875 1.6406-0.1875 0.09375-0.42188 0.23438-0.65625 0.32812 0.046875-1.0312 0.046875-2.0625 0.046875-3.0938 0.046875-2.0625 0.09375-4.1719 0.14062-6.2344 0.046875-0.89062 0.046875-1.7812 0.09375-2.6719 1.2188-40.594 5.2969-80.297 8.625-98.344 0.84375-4.6406 1.6406-7.8281 2.2969-9.2344 0.79688-1.6875 2.25-4.875 5.8594-38.062l6.2812-65.672c5.0625-57.375 10.266-102.84 13.453-129.98 2.7188-23.297 3.4219-30.141 3.1406-32.719-0.09375-0.60938-0.42188-1.4531-0.79688-2.2031 0-0.046875-0.046875-0.046875-0.046875-0.09375-0.14062-0.23438-0.23438-0.5625-0.32812-0.70312-0.42188-0.75-0.98438-1.3594-1.6875-1.8281-0.375-0.28125-0.9375-0.70312-1.6875-1.1719-0.09375-0.046875-0.1875-0.14062-0.28125-0.1875-0.65625-0.42188-1.3125-0.89062-2.1562-1.4062-0.1875-0.14062-0.375-0.23438-0.60938-0.375-0.75-0.51562-1.6406-1.0312-2.5312-1.6406-0.28125-0.1875-0.65625-0.42188-0.98438-0.60938-0.89062-0.5625-1.8281-1.1719-2.9062-1.7812-0.32812-0.23438-0.75-0.42188-1.125-0.65625-1.0781-0.65625-2.2031-1.3125-3.375-2.0156-0.42188-0.23438-0.84375-0.51562-1.3125-0.75-1.2188-0.70312-2.4375-1.4062-3.75-2.1562-0.46875-0.28125-0.9375-0.5625-1.4531-0.79688-1.3594-0.75-2.7656-1.5469-4.2656-2.3906-0.46875-0.23438-0.9375-0.51562-1.4062-0.75-0.65625-0.32812-1.2656-0.65625-1.875-1.0312 0.09375-0.65625 0.09375-1.4062 0.1875-2.0625 0.46875-3.8906 0.79688-8.0156 0.9375-12.375 0.046875-0.70312 0.09375-1.3125 0.14062-2.0156 0.09375-5.0625-0.09375-10.406-0.42188-15.938-0.046875-0.51562-0.046875-0.98438-0.046875-1.5 0.5625 0.1875 1.125 0.32812 1.7344 0.46875 9.0938 2.7188 18.047 5.7656 26.766 9.0938 1.1719 0.42188 2.2969 0.89062 3.4688 1.3594 8.7188 3.4219 17.25 7.125 25.641 11.109 1.125 0.51562 2.25 1.0781 3.3281 1.6406 8.2969 4.0781 16.453 8.3906 24.375 13.031 1.0781 0.60938 2.1094 1.2656 3.1875 1.875 7.875 4.7344 15.656 9.6562 23.156 14.906 0.9375 0.70312 1.9219 1.3594 2.9062 2.0625 7.4531 5.2969 14.766 10.828 21.844 16.641 0.89062 0.75 1.7344 1.4531 2.6719 2.2031 7.0312 5.8594 13.828 11.953 20.438 18.328 0.79688 0.79688 1.5938 1.5938 2.3906 2.3438 6.5625 6.4219 12.844 13.078 18.938 19.922 0.75 0.79688 1.4062 1.6406 2.1094 2.4375 6.0469 6.9375 11.859 14.109 17.391 21.422 0.60938 0.79688 1.2188 1.6406 1.7812 2.4375 5.5312 7.4531 10.781 15.047 15.75 22.875 0.51562 0.79688 1.0312 1.6406 1.5469 2.4375 4.9219 7.9219 9.6562 16.031 14.062 24.281 0.42188 0.75 0.79688 1.5469 1.2188 2.3438 4.3594 8.3438 8.4375 16.875 12.234 25.594 0.28125 0.75 0.60938 1.4531 0.89062 2.2031 3.75 8.8125 7.2188 17.766 10.266 26.859 0.23438 0.65625 0.375 1.2656 0.60938 1.9219 3.0938 9.2344 5.8594 18.609 8.25 28.078 0.14062 0.5625 0.23438 1.0781 0.375 1.6406 2.3906 9.6562 4.4062 19.406 6.0938 29.25 0.09375 0.375 0.09375 0.79688 0.1875 1.2188 1.6406 10.031 2.9062 20.203 3.75 30.422 0.046875 0.23438 0.046875 0.46875 0.046875 0.70312 0.84375 10.406 1.3125 20.953 1.3125 31.547 0 9-0.32812 18-0.9375 26.953-0.23438 2.9062-0.65625 5.8125-0.89062 8.7656-0.5625 6-1.125 12.047-1.9219 18.047-0.46875 3.5156-1.2188 7.0312-1.7812 10.5-0.89062 5.3438-1.7812 10.734-2.9062 16.031-0.79688 3.75-1.7812 7.5-2.7188 11.25-0.9375 3.9375-1.9219 7.875-3 11.766l-173.39-60.234c-2.625-0.89062-5.8125-1.3594-9.7969-1.3594-2.7656-0.1875-6.0469 0.09375-9.5156 0.51562zm-100.59 42.609c-0.84375 0.9375-1.6406 1.875-2.25 2.8125-0.23438 0.32812-0.46875 0.70312-0.70312 1.0312-0.75 1.2188-1.4062 2.4375-1.8281 3.6562l-9.4219 27.188c-16.172-2.8125-68.062-13.031-92.484-31.828-0.46875-1.4531-0.84375-3-1.2656-4.5l113.11-3.1406c-1.5938 1.2656-2.8594 2.5312-4.125 3.7969-0.42188 0.28125-0.70312 0.65625-1.0312 0.98438zm-32.719 87.75c-0.46875 1.3594-0.75 2.9531-0.84375 4.7344-0.046875 0.51562 0.046875 1.125 0.046875 1.6875 0 1.3125 0 2.5781 0.1875 4.0312 0.09375 0.70312 0.28125 1.5 0.42188 2.25 0.23438 1.4062 0.42188 2.8125 0.79688 4.3125 0.23438 0.84375 0.51562 1.7812 0.75 2.6719 0.42188 1.5 0.79688 3 1.3594 4.5938 0.28125 0.9375 0.70312 1.9688 1.0781 2.9531 0.5625 1.5938 1.125 3.1875 1.7812 4.875 0.42188 1.0312 0.89062 2.1094 1.3125 3.1406 0.75 1.6875 1.4062 3.375 2.25 5.1094 0.46875 1.0781 1.0781 2.1562 1.5938 3.2344 0.84375 1.7344 1.6875 3.4219 2.5781 5.2031 0.60938 1.125 1.2188 2.25 1.7812 3.375 0.89062 1.7344 1.8281 3.4219 2.8125 5.1562 0.65625 1.1719 1.3125 2.2969 1.9688 3.4219 0.9375 1.6875 1.9219 3.375 2.9531 5.0625 0.75 1.1719 1.4531 2.2969 2.1562 3.4688 1.0312 1.6406 2.0625 3.2344 3.0938 4.7812 0.75 1.1719 1.5469 2.2969 2.2969 3.4219 1.0312 1.5469 2.0625 3.0469 3.0938 4.5 0.75 1.125 1.5938 2.2031 2.3438 3.2812 1.0781 1.4062 2.0625 2.8125 3.1406 4.1719 0.75 1.0312 1.5938 2.0625 2.3438 3.0469 1.0312 1.2656 2.0156 2.5781 3.0469 3.75 0.79688 0.9375 1.5938 1.8281 2.3438 2.7656 0.9375 1.125 1.9219 2.2031 2.9062 3.2344 0.75 0.84375 1.5469 1.6406 2.2969 2.3906 0.89062 0.9375 1.8281 1.8281 2.7188 2.6719 0.75 0.70312 1.4531 1.3594 2.2031 1.9688 0.42188 0.32812 0.84375 0.79688 1.2656 1.125 1.2656 29.578 2.0156 57.094 2.4375 76.781 0 0.09375 0.046875 0.23438 0.046875 0.32812 0.046875 2.5312 0.09375 4.7812 0.14062 7.0312 0.046875 1.875 0.09375 3.75 0.14062 5.3906-4.0312 1.1719-8.0156 2.3438-12.094 3.375-5.5781-0.28125-11.203-0.70312-16.781-1.2188-1.3594-0.14062-2.7656-0.1875-4.125-0.28125-7.2188-0.70312-14.297-1.5-21.141-2.4844-26.344-3.75-48.844-9.4219-66.797-16.922-3.9375-1.6406-7.6406-3.3281-11.109-5.1562-10.406-5.3906-18.797-11.531-24.984-18.281h-0.046875c-25.688-28.031-42.328-44.812-50.906-51.328-2.2969-1.7344-4.3594-3.6094-6.2812-5.6719-1.875-2.0625-3.6094-4.2656-5.1562-6.7031-11.438-18-7.5469-39.281-7.4062-40.125 0.1875-2.25 1.9688-24.188 4.0312-51.281 0.09375-1.2188 0.1875-2.3906 0.28125-3.6562l0.28125-3.7969c0.23438-2.8594 0.42188-5.7656 0.65625-8.6719 0.046875-0.75 0.14062-1.5 0.1875-2.25 0.23438-2.9531 0.42188-5.9062 0.65625-8.9062l0.14062-1.8281c0.23438-3.4219 0.46875-6.7969 0.70312-10.219 0.046875-0.5625 0.09375-1.125 0.14062-1.6406 0.23438-3.5625 0.46875-7.0312 0.70312-10.5v-0.1875c0.46875-7.2188 0.9375-14.156 1.3125-20.672 0.046875-0.42188 0.046875-0.84375 0.09375-1.2656 0.1875-3.0938 0.32812-6.0469 0.51562-8.8594 0-0.1875 0-0.32812 0.046875-0.46875 0.14062-2.6719 0.28125-5.1562 0.375-7.5 0-0.23438 0.046875-0.51562 0.046875-0.75l62.344-1.7344c0.1875 0.42188 0.32812 0.75 0.51562 1.1719v0.046875c0.09375 0.23438 0.14062 0.42188 0.23438 0.65625 0.046875 1.1719 0.375 2.2969 1.0781 3.3281 5.7188 8.2031 8.8594 12.797 10.875 15.375 6.5625 16.266 13.922 28.406 17.484 34.266 0.89062 1.5 1.5938 2.5781 1.6875 2.5781 0.14062 0.46875 1.2656 2.9531 3.1406 6.8906 28.453 58.641 42.844 100.88 42.844 125.53 0 1.1719-0.046875 2.2969-0.14062 3.4219v0.375c0 3.1406 2.4375 5.7656 5.625 6 3.0469 0.32812 6.1875-2.2969 6.375-5.625 0.09375-1.3594 0.14062-2.7656 0.14062-4.2188 0-39.891-33.188-108.28-44.062-130.74-1.3594-2.8125-2.25-4.6406-2.3906-4.9688-0.375-1.2656-1.0781-2.4375-2.9531-5.5312-0.09375-0.1875-0.23438-0.375-0.32812-0.5625-3.1875-5.2031-8.3906-13.875-13.547-25.5 27.281 14.25 65.672 22.078 81.516 24.844zm147.56 162.56c-6.6562 3.8906-13.453 7.5469-20.297 11.062-1.7344 0.89062-3.4219 1.875-5.2031 2.7188-8.6719 4.2656-17.438 8.1094-26.391 11.719-2.3438 0.9375-4.7344 1.7344-7.125 2.625-5.25 1.9688-10.547 3.7969-15.844 5.5312-0.046875-0.79688-0.046875-1.7344-0.046875-2.5781-0.046875-1.8281-0.09375-3.7031-0.14062-5.6719-0.046875-0.75-0.046875-1.5938-0.046875-2.3438-0.09375-2.3438-0.14062-4.7344-0.1875-7.2656-0.046875-1.3594-0.09375-2.7656-0.09375-4.1719-0.046875-1.8281-0.14062-3.7031-0.1875-5.625-0.046875-2.1094-0.14062-4.1719-0.1875-6.3281-0.046875-0.375-0.046875-0.75-0.046875-1.125-0.375-13.266-0.84375-28.172-1.4531-43.734l96.047 33.375c-3.4219 2.25-6.8438 4.5469-10.312 6.7031-2.8594 1.5938-5.625 3.4219-8.4844 5.1094zm-101.53 59.297c-2.0625 1.9219-4.2656 3.9844-6.4688 6.0469-0.70312 0.65625-1.3125 1.2188-2.0156 1.875-5.8594 5.4375-12.281 11.203-18.938 17.062l-3.2344 2.8125c-2.25 1.9688-4.5938 3.9375-6.8906 5.9531-1.4062 1.1719-2.8594 2.3438-4.3125 3.5625-2.0625 1.7344-4.125 3.4219-6.1875 5.1562-1.5938 1.2656-3.1406 2.5312-4.6875 3.7969-1.9688 1.6406-3.9844 3.2344-6 4.8281-1.5938 1.2656-3.2344 2.5312-4.7812 3.75-1.9688 1.5469-3.9375 3.0469-5.8594 4.5469-1.6406 1.2188-3.2344 2.4375-4.875 3.6562-1.9219 1.4062-3.8438 2.8125-5.7656 4.1719-1.6406 1.1719-3.2344 2.2969-4.8281 3.375-1.875 1.3125-3.75 2.5781-5.625 3.7969-1.5469 1.0312-3.1406 2.0625-4.6406 3.0469-1.8281 1.1719-3.6562 2.25-5.4375 3.375-1.4531 0.89062-2.9531 1.7812-4.3594 2.625-1.7812 1.0312-3.5156 1.9219-5.25 2.8125-1.3594 0.70312-2.7188 1.4531-4.0312 2.1094-1.7344 0.84375-3.4219 1.5469-5.1094 2.25-1.1719 0.46875-2.3438 1.0312-3.4219 1.4531-1.7812 0.65625-3.4688 1.125-5.1094 1.5938-0.84375 0.23438-1.7812 0.60938-2.625 0.75-2.3906 0.51562-4.6875 0.84375-6.75 0.84375-2.5781 0-4.6406-0.46875-6.2812-1.3594l-19.172-82.547c2.25-0.046875 3.6562-0.09375 3.6562-0.09375 0.79688-0.046875 1.5938-0.23438 2.2969-0.5625s7.1719-3.4688 11.672-12.281c2.8594-5.5781 4.3125-12.188 4.3125-19.594v-24c0.79688 0.60938 1.7812 1.1719 2.625 1.7344 2.2969 1.6875 4.6875 3.2812 7.2188 4.875 1.4531 0.89062 3 1.7812 4.5469 2.6719 2.6719 1.5 5.5312 2.9062 8.4844 4.3125 1.0781 0.51562 1.9688 1.0781 3.0469 1.5469l-0.60938 9.6094c-0.046875 1.4531-0.046875 14.625 7.1719 23.672 4.125 5.1562 9.5156 7.875 15.984 8.1562 2.7656 0.09375 5.625 0.1875 8.4375 0.23438 1.4062 0.046875 2.7656 0.046875 4.125 0.046875s2.7656 0.046875 4.125 0.046875h4.0312c2.9062 0 5.7656-0.046875 8.2031-0.09375 6.5625-0.09375 11.109-0.23438 11.109-0.23438 0.84375-0.046875 1.6875-0.23438 2.4375-0.60938 0.14062-0.09375 0.60938-0.32812 1.2656-0.75 0.14062-0.09375 0.28125-0.23438 0.42188-0.28125 0.60938-0.375 1.2656-0.84375 2.0156-1.5 0.32812-0.28125 0.65625-0.60938 1.0312-0.9375 0.70312-0.60938 1.3594-1.3125 2.1094-2.1562 0.42188-0.46875 0.84375-1.0312 1.2656-1.6406 0.375-0.51562 0.79688-0.89062 1.2188-1.4531 5.4844-0.75 10.781-1.6875 16.172-2.625 2.0156-0.32812 4.0781-0.60938 6.0938-0.98438 7.5938-1.4062 14.953-3.0469 22.125-4.8281l2.6719 0.14062c-1.3594 1.3125-2.8125 2.7188-4.2656 4.125-0.84375 0.65625-1.5938 1.3594-2.3438 2.1094zm-189.84-0.51562c-2.9062-0.046875-5.8125-0.14062-8.6719-0.23438-10.5-0.375-11.531-14.578-11.578-19.312l5.4844-87.938c1.3125 1.2188 2.7188 2.3906 4.1719 3.4688 0.98438 0.75 2.1094 1.6875 3.3281 2.7656 0.1875 0.14062 0.375 0.32812 0.5625 0.46875 1.125 0.98438 2.2969 2.0625 3.6562 3.2812 0.1875 0.1875 0.42188 0.375 0.60938 0.5625 1.3594 1.2656 2.8125 2.625 4.3594 4.1719l0.60938 0.60938c1.6406 1.5938 3.3281 3.2812 5.2031 5.1562 0.1875 0.1875 0.375 0.375 0.51562 0.5625 1.9219 1.9219 3.8906 3.9844 6.0469 6.1875 0.14062 0.14062 0.28125 0.32812 0.42188 0.46875 2.2031 2.2969 4.5469 4.7344 6.9375 7.3125l0.09375 0.09375c4.7344 4.9688 9.8906 10.547 15.422 16.641v35.203c0 5.4844-1.0312 10.219-3 14.109-1.8281 3.6094-4.0781 5.5312-5.2031 6.3281-1.8281 0.046875-5.2031 0.14062-9.375 0.1875-2.6719 0.046875-5.7656 0.09375-9 0.09375h-2.0156c-2.1562 0-4.3594-0.046875-6.6094-0.046875-0.65625-0.09375-1.3125-0.09375-1.9688-0.14062zm-57.188-37.125c-4.875-2.1094-9.6562-4.4062-14.438-6.7031-4.4531-2.1562-9-4.2188-13.359-6.4688-4.6875-2.4375-9.1875-5.1094-13.734-7.7344-4.2656-2.4375-8.5781-4.8281-12.703-7.4062-4.4062-2.7656-8.6719-5.7656-12.938-8.7188-4.0312-2.7656-8.1094-5.4375-12-8.3438-4.1719-3.0938-8.1562-6.4219-12.188-9.6562-3.75-3.0469-7.5938-5.9531-11.203-9.1406-3.9375-3.4219-7.6406-7.0312-11.438-10.594-3.4688-3.2812-7.0312-6.4688-10.359-9.8438-3.6562-3.75-7.125-7.6406-10.594-11.531-3.1875-3.4688-6.4219-6.8906-9.4688-10.5-3.375-4.0312-6.5156-8.25-9.75-12.375-2.8594-3.7031-5.8125-7.3125-8.5781-11.109-3.0938-4.3125-5.9062-8.7656-8.8125-13.219-2.5312-3.8438-5.2031-7.6406-7.5938-11.625-2.7656-4.5938-5.2969-9.3281-7.875-14.016-2.2031-4.0312-4.5469-7.9219-6.6562-12.047-2.4375-4.8281-4.6406-9.8906-6.8906-14.812-1.875-4.125-3.8906-8.1562-5.625-12.328-2.1094-5.1562-3.9375-10.453-5.8125-15.703-1.5-4.1719-3.1875-8.25-4.5938-12.469-1.7812-5.4375-3.1875-11.062-4.7344-16.641-1.1719-4.1719-2.4844-8.25-3.4688-12.469-1.4062-5.9062-2.4844-11.953-3.6094-18-0.75-3.9844-1.7344-7.875-2.3438-11.906-1.0781-6.75-1.7344-13.594-2.4375-20.391-0.32812-3.375-0.9375-6.75-1.2188-10.172-0.79688-10.312-1.2656-20.672-1.2656-31.172 0-10.219 0.42188-20.391 1.2188-30.469 0.28125-3.4219 0.79688-6.75 1.1719-10.172 0.70312-6.6094 1.3125-13.266 2.3438-19.781 0.60938-3.9844 1.5469-7.8281 2.2969-11.812 1.125-5.8594 2.1094-11.766 3.4688-17.531 0.98438-4.125 2.25-8.1562 3.375-12.234 1.5-5.4844 2.8594-10.969 4.5938-16.359 1.3594-4.1719 2.9531-8.25 4.4531-12.375 1.8281-5.1562 3.5625-10.312 5.625-15.375 1.6875-4.1719 3.6562-8.2031 5.4844-12.234 2.2031-4.875 4.2656-9.7969 6.6562-14.578 2.0156-4.0781 4.2656-7.9688 6.4219-11.953 2.5312-4.6406 4.9219-9.2812 7.6406-13.781 2.3438-3.9375 4.9219-7.6875 7.3594-11.531 2.8125-4.3594 5.5781-8.8125 8.5781-13.078 2.625-3.75 5.5312-7.3594 8.2969-11.016 3.1406-4.125 6.1875-8.2969 9.4219-12.281 2.9531-3.5625 6.0938-6.9844 9.1406-10.453 3.4219-3.8438 6.75-7.7344 10.312-11.484 3.2344-3.375 6.6094-6.5625 9.9375-9.7969 3.7031-3.6094 7.3125-7.2188 11.156-10.688 3.4688-3.1406 7.125-6.0469 10.688-9.0469 3.9375-3.3281 7.875-6.6562 12-9.7969 3.75-2.8594 7.5938-5.5312 11.438-8.2969 4.2188-3 8.3906-6.0469 12.75-8.8594 3.9375-2.5781 8.0625-4.9688 12.141-7.4531 4.4531-2.6719 8.9062-5.3906 13.453-7.9219 4.1719-2.2969 8.4844-4.4062 12.75-6.5625 4.6875-2.3438 9.375-4.7344 14.203-6.8906 4.3594-1.9688 8.8594-3.75 13.312-5.5781 3.4688-1.4062 6.9375-2.7656 10.453-4.125-0.65625 9.4219-1.1719 17.297-1.5938 24-0.14062 1.7812-0.23438 3.4219-0.32812 5.0625 0 0.1875-0.046875 0.42188-0.046875 0.60938-1.4531 23.109-1.6406 28.547-1.5469 30.047 2.6719 45.797 25.406 68.156 37.688 80.203 2.8594 2.8125 6.4688 6.3281 6.9375 7.6406 0.23438 0.98438 0.42188 2.4375 0.5625 4.2188 0.046875 0.60938 0.09375 1.4531 0.14062 2.1562 0.09375 1.3125 0.1875 2.5781 0.23438 4.1719 0.046875 0.9375 0.046875 2.0625 0.046875 3.0938 0.046875 1.5938 0.09375 3.0938 0.09375 4.8281v9.0938c0 1.3594-0.046875 2.7656-0.046875 4.125-0.046875 1.8281-0.046875 3.6562-0.09375 5.5781l-0.14062 4.9219-0.14062 4.7812c-0.046875 1.9688-0.14062 3.9375-0.1875 5.9062-0.046875 1.1719-0.09375 2.3438-0.14062 3.4688-0.09375 2.3906-0.1875 4.6875-0.28125 6.8906 0 0.375-0.046875 0.79688-0.046875 1.2188-1.2656-1.3125-2.7656-2.5312-4.0781-3.7969-1.875-1.8281-3.75-3.6094-5.7656-5.3438-2.9531-2.625-6.0938-5.1562-9.2812-7.6406-2.0625-1.5938-4.0312-3.1875-6.1875-4.6875-3.6562-2.625-7.5469-5.0625-11.484-7.5-1.9688-1.2188-3.7969-2.4844-5.8594-3.6562-6.0938-3.5156-12.469-6.8438-19.172-9.9844-1.6406-0.75-3.5156-0.75-5.1094 0.046875-1.6406 0.75-2.8125 2.25-3.2344 3.9844-0.32812 1.3125-8.0156 33.234 4.7344 58.547 1.3125 2.5781 2.8594 5.25 4.5938 7.9219 0.5625 0.84375 1.2188 1.7344 1.8281 2.625 1.2656 1.875 2.5781 3.7031 3.9844 5.5781 0.79688 1.0781 1.6875 2.1094 2.5781 3.1406 1.4062 1.7344 2.8125 3.4219 4.3594 5.2031 0.98438 1.0781 2.0156 2.1562 3.0469 3.2344s1.9688 2.2031 3.0469 3.2812c-0.1875 0.42188-0.28125 0.84375-0.46875 1.2656-0.28125 0.70312-0.51562 1.3594-0.75 2.0625-0.42188 1.2188-0.75 2.4375-1.0312 3.6094-0.1875 0.70312-0.32812 1.3594-0.42188 2.0156-0.1875 1.2188-0.28125 2.3438-0.32812 3.5156 0 0.5625-0.09375 1.1719-0.09375 1.7344 0.046875 1.6875 0.23438 3.3281 0.65625 4.875 0.14062 0.65625 0.32812 1.5 0.5625 2.5781 0.046875 0.1875 0.09375 0.46875 0.14062 0.70312 0.1875 0.9375 0.375 2.0156 0.60938 3.2812 0.046875 0.23438 0.09375 0.5625 0.14062 0.79688 0.23438 1.3594 0.46875 2.8125 0.75 4.4531 0.046875 0.23438 0.09375 0.46875 0.09375 0.65625 0.28125 1.8281 0.60938 3.7969 0.9375 6 0 0.09375 0.046875 0.14062 0.046875 0.23438 1.125 7.0312 2.3906 15.609 3.7969 25.406 0 0.09375 0.046875 0.1875 0.046875 0.28125 0.046875 0.32812 0.09375 0.75 0.1875 1.125-1.8281-0.46875-3.5625-0.84375-5.2969-1.2656-0.51562-0.14062-1.0312-0.23438-1.5469-0.375-2.1094-0.46875-4.0781-0.9375-6.0469-1.4062-0.75-0.1875-1.5469-0.375-2.2969-0.51562-1.6875-0.375-3.3281-0.75-4.9219-1.0781-0.84375-0.1875-1.7344-0.375-2.5781-0.5625-1.4531-0.28125-2.7656-0.5625-4.125-0.79688-0.84375-0.1875-1.7812-0.32812-2.625-0.46875-1.2188-0.23438-2.3438-0.42188-3.4688-0.60938-0.84375-0.14062-1.7344-0.28125-2.5312-0.42188-1.125-0.1875-2.1094-0.28125-3.1406-0.42188-0.70312-0.09375-1.4531-0.23438-2.1562-0.28125-1.125-0.14062-2.1562-0.23438-3.1406-0.28125-0.46875-0.046875-0.98438-0.09375-1.4062-0.14062-1.4062-0.09375-2.7188-0.14062-3.8438-0.14062-0.75 0-1.7344 0-2.9062 0.09375-3.5156 0.28125-8.25 1.4531-9.8438 6.0469-1.875 5.4375 2.8125 9.75 4.0312 10.688 5.3906 4.8281 14.859 14.297 17.25 19.266 0.42188 0.89062 1.1719 2.1562 2.2031 3.7031 0.42188 0.65625 1.0781 1.5 1.5469 2.2031 0.75 1.0312 1.3594 2.0156 2.25 3.2344 0.70312 0.9375 1.6406 2.1094 2.4375 3.1875 0.9375 1.2188 1.7812 2.2969 2.8125 3.6094 0.98438 1.2188 2.1562 2.5312 3.2344 3.8438 1.0781 1.2656 2.1094 2.5312 3.2812 3.8906 1.2188 1.3594 2.5312 2.8125 3.8438 4.2188 1.2656 1.3594 2.4375 2.7188 3.75 4.0781 1.3594 1.4531 2.8125 2.8594 4.2656 4.3125 1.3594 1.3594 2.7188 2.7656 4.125 4.125 1.5 1.4531 3.0938 2.8125 4.6406 4.2188 1.4531 1.3594 2.9062 2.7188 4.4531 3.9844 1.5938 1.3594 3.2344 2.625 4.8281 3.8906 1.2656 1.0312 2.4844 2.1094 3.75 3.0469 0.23438 1.875 0.42188 3.7969 0.60938 5.4844 0 0.09375 0.046875 0.1875 0.046875 0.23438 0.23438 2.0625 0.375 3.7969 0.5625 5.5312 0.046875 0.46875 0.09375 1.0312 0.14062 1.4531 0.14062 1.2656 0.23438 2.25 0.28125 3.2812 0.046875 0.60938 0.14062 1.3125 0.1875 1.875 0.14062 1.4062 0.1875 2.5781 0.23438 3.5156 0.9375 19.969-10.266 157.55-10.312 158.26-0.046875 0.23438-0.375 2.0156-0.65625 4.7812-0.046875 0.28125-0.046875 0.65625-0.046875 0.9375-0.09375 1.2188-0.1875 2.4375-0.23438 3.9844 0 0.5625 0.046875 1.1719 0.046875 1.7812 0 1.4062 0 2.8125 0.09375 4.4062 0.046875 0.75 0.1875 1.6406 0.23438 2.4375 0.14062 1.5469 0.28125 3.0938 0.51562 4.7344 0.14062 0.9375 0.375 1.9688 0.60938 2.9531 0.32812 1.6406 0.60938 3.2344 1.0781 4.875 0.28125 1.125 0.75 2.25 1.125 3.3281 0.51562 1.6406 1.0312 3.2344 1.7344 4.8281 0.51562 1.2188 1.1719 2.4375 1.7812 3.6562 0.65625 1.2656 1.125 2.5312 1.875 3.7969l-5.8594 93.75c-3.7969-1.3125-7.5938-2.7656-11.344-4.2188-4.6406-1.8281-9.375-3.5625-13.969-5.4844zm139.6-784.92c0.046874-0.14062 0.09375-0.28125 0.14062-0.42188 1.8281-5.3438 3.7969-10.453 5.9062-15.234 0.046876-0.09375 0.046876-0.14062 0.09375-0.1875 2.1562-4.8281 4.4062-9.2812 6.8438-13.406l0.046876-0.046875c2.4375-4.125 4.9688-7.8281 7.5938-11.156 0.375-0.46875 0.70312-1.0781 0.89062-1.7344 2.5312-3.4219 13.172-16.641 27.609-16.641h1.5938c14.203 0 24.75 12.75 27.469 16.453 0.23437 0.70312 0.5625 1.3125 1.0312 1.875 15.234 18.984 27.141 52.781 31.031 88.172 0.9375 8.4375 1.3594 16.453 1.2656 23.766s-0.70312 14.016-1.8281 19.828c-1.4531 7.7344-3.8438 13.734-6.7969 17.25-5.2969 6.2812-11.344 10.312-16.641 13.828-5.9531 3.9844-11.625 7.7344-14.531 13.781-0.70313 1.4531-1.3594 3.0938-1.9688 4.7812-0.23438 0.70312-0.46875 1.5469-0.70313 2.25-0.32812 1.125-0.70312 2.1562-1.0312 3.375-0.23437 0.98438-0.46875 2.1094-0.75 3.1875-0.23437 1.125-0.51562 2.1562-0.75 3.3281-0.23437 1.2188-0.46875 2.625-0.70312 3.8906-0.23438 1.1719-0.42188 2.25-0.60938 3.4688-0.23437 1.4531-0.375 3.0938-0.60937 4.6406-0.1875 1.2188-0.32813 2.3438-0.42188 3.6094-0.1875 1.6875-0.32812 3.5156-0.46875 5.2969-0.09375 1.2656-0.23437 2.5312-0.28125 3.8438-0.14062 1.875-0.23437 3.8906-0.375 5.9062-0.09375 1.3594-0.14062 2.7656-0.23437 4.1719-0.09375 2.0625-0.1875 4.2188-0.23438 6.375-0.046874 1.125-0.09375 2.1562-0.14062 3.3281-4.1719 2.625-8.3906 5.25-12.797 7.875-3.4688 2.1562-7.2188 4.2656-10.781 6.4219 0.09375-37.547-3.0469-63.375-9.3281-76.594-2.8594-6.0469-8.5312-9.8438-14.531-13.875-4.875-3.2812-10.453-7.0312-15.469-12.562-0.23438-7.1719-0.60938-15.094-0.98438-23.625-0.09375-1.6875-0.14062-3.375-0.23437-5.1094-0.09375-1.4062-0.14063-2.7656-0.1875-4.2188-0.65625-13.5-1.3594-27.938-2.1562-42.281l-0.89063-16.688c0.046876-0.23438 0.14063-0.42188 0.1875-0.65625 1.3594-5.4844 2.9531-11.016 4.7344-16.266zm124.03 104.02c2.1562 1.2188 4.2188 2.3906 6.0938 3.4688 0.42187 0.23438 0.89062 0.51562 1.3125 0.75 2.25 1.3125 4.2188 2.5312 5.9531 3.6094 0.42188 0.28125 0.79688 0.51562 1.2188 0.75 0.70313 0.42188 1.1719 0.75 1.7344 1.1719-4.1719 7.7812-14.109 25.547-38.859 55.734-1.5938 1.5469-3.5625 3.2344-5.6719 4.9688-0.70313 0.5625-1.4531 1.1719-2.2031 1.7344-1.6406 1.2656-3.3281 2.625-5.2031 4.0312-0.9375 0.70312-1.875 1.4062-2.9062 2.1562-2.0625 1.4531-4.2188 3-6.5156 4.5938-0.98437 0.65625-1.875 1.3125-2.9062 1.9688-0.42187 0.28125-0.9375 0.60938-1.3594 0.89062 0-0.23438 0-0.51562 0.046874-0.75 0.046876-1.1719 0.14063-2.2031 0.1875-3.2812 0.14063-2.5781 0.28125-5.1094 0.42188-7.3594 0.09375-1.1719 0.23437-2.25 0.28125-3.3281 0.1875-2.0156 0.32812-3.9375 0.5625-5.7656 0.14062-1.0781 0.23437-2.1094 0.375-3.0938 0.23437-1.5938 0.42187-3.1406 0.65625-4.5938 0.14062-0.9375 0.28125-1.875 0.42187-2.7188 0.23438-1.3125 0.42188-2.5312 0.70313-3.7031 0.1875-0.79688 0.32812-1.5938 0.46875-2.2969 0.23437-1.0781 0.46875-2.0156 0.75-2.9531 0.1875-0.65625 0.32812-1.3125 0.46875-1.875 0.23437-0.89062 0.5625-1.6875 0.79687-2.4375 0.14063-0.42188 0.28125-0.89062 0.42188-1.3125 0.375-1.0781 0.79687-2.0625 1.2188-2.8594 1.4531-3.0938 5.3906-5.7188 10.359-9 5.6719-3.7969 12.75-8.4844 19.172-16.078 1.3594-1.6406 2.625-3.6562 3.75-5.8125 0.28125-0.5625 0.60937-1.1719 0.89062-1.7812 0.9375-1.9688 1.7812-4.125 2.5312-6.4219 0.09375-0.28125 0.23438-0.51562 0.32813-0.84375 0.60937 0.32812 1.2656 0.70312 1.875 1.0312 0.89062 0.42188 1.7344 0.89062 2.625 1.4062zm2.1094 169.45-6.2344 65.578c-3.0469 28.125-4.4531 33.328-4.8281 34.172-3.6094 7.7812-7.4531 37.031-9.8906 70.547-0.046876 0.32812-0.046876 0.65625-0.09375 0.9375-0.1875 2.5781-0.32813 5.1562-0.51563 7.7812-0.09375 1.125-0.14062 2.25-0.23437 3.375-0.14063 1.9219-0.23438 3.7969-0.32813 5.7188-0.09375 1.5938-0.1875 3.1875-0.23437 4.8281-0.09375 1.9219-0.1875 3.8906-0.28125 5.8594-0.046876 1.4531-0.14063 2.9062-0.1875 4.3594-0.14063 3.4688-0.23438 6.9375-0.32813 10.359 0 0.375 0 0.75-0.046874 1.1719-0.09375 2.625-0.14063 5.25-0.1875 7.8281l-119.81 3.3281c-1.3594-6.2344-2.2969-12.141-2.8125-18.047-1.125-12.281-3.0469-25.781-5.2969-39.094 0.46875-0.84375 0.70313-1.8281 0.70313-2.8125 0-0.65625-0.09375-1.3125-0.32813-1.9688 0-0.046875-1.6875-5.0625-1.6875-18.656l0.046876-4.1719c0.375-18.234 1.4531-28.453 1.4531-28.781 0-0.1875 0.51563-4.125 6.0469-18.422 0.14062 0.046875 0.23437-0.046875 0.375-0.046875 0.09375 0 0.1875 0.09375 0.28125 0.09375 0.65625 0 1.2656-0.09375 1.9219-0.32812 8.9531-3 17.438-6.6094 26.719-11.344 64.922-33.281 75.656-89.25 79.734-110.25 0.51562-2.6719 0.79687-4.6406 1.1719-5.5781 4.2656-9.6562 3.5625-15.75 3.3281-16.875-0.28125-1.7344-1.3594-3.2812-2.9062-4.2188-1.5469-0.89062-3.4219-1.0312-5.1094-0.42188-2.0625 0.75-50.766 19.219-83.812 54.469-7.6875 8.1562-13.875 17.859-18.469 28.781-1.7812 4.2188-3.1406 8.4375-4.3125 12.562-0.375 1.3594-0.65625 2.6719-0.98437 4.0312-0.70313 2.7656-1.3125 5.5312-1.7812 8.1562-0.23438 1.3594-0.42188 2.6719-0.65625 4.0312-0.375 2.7188-0.70313 5.25-0.89063 7.7344-0.09375 0.9375-0.1875 1.9219-0.23437 2.8125-0.23438 3.3281-0.32813 6.4219-0.28125 9.0938-9.4219 22.641-11.578 31.172-11.953 33.844-2.1094-9.3281-3.6562-15.656-4.0781-17.203 0.046874-0.09375 0-0.23438 0-0.28125 0.046874-0.14062 0-0.28125 0-0.42188 0.046874-0.98438-0.09375-1.9688-0.60938-2.9062-0.23437-0.79688-0.375-2.2031-0.70312-4.125-0.23438-1.5938-0.46875-3.4219-0.84375-5.4844-0.09375-0.51562-0.23438-1.1719-0.32813-1.7344-0.28125-1.6406-0.5625-3.2812-0.9375-5.2031-0.1875-0.89062-0.42187-1.875-0.65625-2.7656-0.375-1.7344-0.79687-3.4219-1.2656-5.2969-0.28125-1.1719-0.70313-2.3438-1.0781-3.5625-0.5625-1.8281-1.0781-3.6562-1.7344-5.5781-0.46875-1.3125-1.0781-2.7656-1.5938-4.125-0.75-1.9219-1.4531-3.7969-2.3438-5.8125-0.65625-1.5-1.4062-3.0469-2.2031-4.5938-0.9375-1.9688-1.9219-3.9844-3.0469-6.0469-0.89063-1.6406-1.9219-3.2812-2.9062-4.9688-1.2188-2.0625-2.4375-4.0781-3.8438-6.1406-1.1719-1.7344-2.4375-3.4688-3.7031-5.2031-0.9375-1.3125-1.7344-2.5781-2.7656-3.8906 1.5469-1.0781 3.0469-2.1094 4.5469-3.0938 0.375-0.23438 0.89063-0.51562 1.3125-0.75 1.1719-0.70312 2.5312-1.5469 3.9844-2.3438 0.23437-0.14062 0.375-0.23438 0.60937-0.375 0.84375-0.51562 1.875-1.0781 2.8125-1.6406 4.4062-2.5312 9.5625-5.3906 15.281-8.5781l0.60938-0.32812 0.046874-0.046875c4.4062-2.4375 9-4.9688 13.875-7.6406l3.9844-2.2031c14.062-7.7344 29.812-16.406 45.609-25.359 0.84375-0.46875 1.7344-0.98438 2.625-1.5 3.5156-1.9688 7.0312-3.9844 10.5-6 0.046876-0.046875 0.09375-0.046875 0.1875-0.09375 0.375-0.23438 0.75-0.42188 1.1719-0.65625l2.9062-1.6875v-0.09375c5.8125-3.4219 11.625-6.7969 17.156-10.172 5.3906-3.2812 10.734-6.5625 15.75-9.7031 18.094-11.531 30.609-20.719 38.25-28.125 12.375-11.953 22.359-23.578 29.812-34.734-3.1406 27.188-8.4375 72.656-13.453 130.03zm-220.31 227.26v-2.7656c0-0.9375-0.046875-1.7344-0.046875-2.4375-0.046875-1.1719-0.1875-2.7656-0.32812-4.5469-0.046875-0.60937-0.14062-1.3594-0.1875-2.0625-0.14062-1.3594-0.28125-2.8594-0.42188-4.5938-0.046875-0.375-0.046875-0.60937-0.09375-1.0312 0.46875 0.28125 0.9375 0.46875 1.4531 0.70313 1.875 1.0312 3.75 1.9219 5.5781 2.7656 0.84375 0.375 1.7344 0.79688 2.5781 1.125 2.625 1.0312 5.1562 1.9219 7.5938 2.5781 7.3594 1.875 13.594 3.1875 18.844 4.3125 2.1562 0.42187 4.0781 0.84375 5.8125 1.2656 0.84375 0.1875 1.5469 0.375 2.2969 0.5625 0.89062 0.23438 1.8281 0.42188 2.6719 0.65625 0.65625 0.1875 1.1719 0.32813 1.7344 0.51563 0.75 0.23437 1.5469 0.46875 2.2031 0.70312 0.51562 0.1875 0.9375 0.375 1.3594 0.5625 0.60938 0.28125 1.2656 0.5625 1.7812 0.84375 0.14062 0.046876 0.23438 0.14063 0.32812 0.1875l-53.156 1.4531zm-47.578-252.71c23.766 11.906 43.031 26.531 57.422 43.547 22.266 26.25 27.656 51.891 29.719 65.344-26.109-8.4375-45.656-23.531-57.938-35.25-10.594-10.125-19.359-21.375-24.141-30.797-7.3594-14.672-6.375-32.859-5.0625-42.844zm31.359-192.28c0.5625-8.2031 1.125-16.688 1.7344-25.172 0.42188 6.7969 0.84375 13.594 1.2656 20.203 3.8438 61.406 4.9688 65.203 5.4844 66.938 0.5625 1.875 1.2656 3.3281 2.0156 4.5469 0.09375 0.14063 0.14062 0.28125 0.23438 0.375 0.70312 1.0312 1.5 1.7812 2.2969 2.3906 0.1875 0.14062 0.32812 0.32812 0.51562 0.42187 0.79688 0.51563 1.5469 0.84375 2.25 1.0781 0.1875 0.046874 0.32812 0.14062 0.46875 0.1875 0.89062 0.23437 1.6406 0.28125 2.2031 0.28125 4.9219 0 8.4375-3.8438 9.4219-5.0625 0.79688-0.9375 1.2656-2.1562 1.3594-3.4219l3.3281-51.703c0.14062 2.8125 0.28125 5.4844 0.42188 8.0156 0 0.23438 0.046875 0.42188 0.046875 0.65625 0.14062 2.4844 0.28125 4.8281 0.42188 7.0781 0.046875 0.70312 0.09375 1.2656 0.14062 1.9219 0.09375 1.6875 0.23438 3.2812 0.32812 4.7812 0.046875 0.70313 0.09375 1.3125 0.14062 2.0156 0.09375 1.3125 0.1875 2.625 0.28125 3.7969 0.046875 0.60938 0.09375 1.2188 0.14062 1.7812 0.09375 1.125 0.1875 2.2031 0.28125 3.2344 0.046875 0.46875 0.09375 0.98437 0.14062 1.4531 0.09375 1.0312 0.1875 1.9219 0.28125 2.8125 0.046875 0.375 0.09375 0.75 0.14062 1.0781 0.14062 1.0312 0.23438 1.9688 0.32812 2.8594 0.046875 0.09375 0.046875 0.23438 0.046875 0.32813 0.14062 0.98437 0.23438 1.875 0.375 2.6719 0.046875 0.14063 0.046875 0.23438 0.046875 0.375 0.09375 0.60938 0.1875 1.1719 0.28125 1.6875 0.046875 0.23438 0.09375 0.375 0.14062 0.60938 0.09375 0.375 0.14062 0.75 0.23438 1.0312 0.046875 0.1875 0.09375 0.375 0.14062 0.51562 0.046875 0.23438 0.14062 0.51563 0.1875 0.75 0.046875 0.14063 0.09375 0.28125 0.14062 0.42188 0.046875 0.1875 0.14062 0.375 0.1875 0.5625 0.046875 0.09375 0.09375 0.23437 0.09375 0.28125 0.046875 0.1875 0.14062 0.28125 0.1875 0.42187 0.046875 0.046876 0.046875 0.14063 0.09375 0.1875 0.09375 0.1875 0.14062 0.32813 0.23438 0.46875 2.6719 5.6719 6.1406 8.625 10.172 9.0938 0.375 0.046876 0.70312 0.1875 1.0781 0.1875 7.125 0 10.828-7.9219 11.484-9.5156 0.28125-0.65625 0.42188-1.3594 0.46875-2.0625l3.2344-76.031c1.7344 24.844 2.9531 43.219 3.6094 54.938v0.32812c0.14062 2.2031 0.23438 4.1719 0.32812 5.9062 0.046875 0.375 0.046875 0.60938 0.046875 0.98438 0.046875 1.3594 0.14062 2.6719 0.14062 3.6562 0.046875 1.2656 0.09375 2.2969 0.09375 3.0469 0 2.25 0.1875 4.0781 0.46875 5.7656 0.09375 0.65625 0.23438 1.2656 0.375 1.875 0.28125 1.2188 0.65625 2.25 1.0781 3.1875 0.09375 0.23437 0.14062 0.5625 0.23438 0.79687 0.046875 0.09375 0.09375 0.14063 0.14062 0.23438 1.5469 2.9062 3.6562 4.2188 5.6719 4.7344 0.09375 0.046876 0.1875 0.046876 0.23438 0.09375 0.84375 0.23438 1.6875 0.32813 2.4375 0.32813 4.2188 0 7.5469-2.7656 8.4375-3.6094 1.125-1.0312 1.8281-2.4844 1.9219-4.0312l4.9219-80.438c0.375 6.9375 0.75 13.828 1.0781 20.672v0.28125c0.14062 2.9062 0.28125 5.7656 0.42188 8.625 0.14062 2.7656 0.28125 5.5312 0.375 8.25 0.046875 0.46875 0.046875 0.9375 0.09375 1.4062 0.65625 13.547 1.1719 26.109 1.5469 36.656 0.1875 6.0938 0.375 11.719 0.42188 16.172 0.23438 15-3.5625 28.688-11.578 41.812-0.98438 1.5938-1.9688 3.0938-2.9531 4.5469-4.2188 6.1406-8.7656 11.391-12.75 16.078-5.5781 6.4219-9.9375 11.531-11.672 16.734-2.625 7.9219-1.7344 28.312-0.60938 48.469 0.09375 1.7812 0.1875 3.4219 0.28125 4.8281l-1.5 0.79688c-3.1406 1.6875-6.5625 3.5625-10.031 5.5312-2.2969 1.3125-4.6875 2.6719-7.0312 4.125 0.23438-5.9062 0.60938-14.859 0.79688-24.375v-0.14063c0.046875-3.0469 0.09375-6.1406 0.14062-9.1875v-0.65625c0.046875-6 0-11.766-0.1875-16.734 0-0.32813-0.046875-0.65625-0.046875-0.98438-0.09375-2.2969-0.23438-4.3594-0.375-6.2344-0.046875-0.32813-0.046875-0.60938-0.09375-0.9375-0.1875-1.7812-0.375-3.4219-0.65625-4.5938-1.0312-4.4531-4.875-8.25-10.172-13.453-11.859-11.672-31.734-31.172-34.125-72.328-0.23438-1.9688 0.42188-15.281 3.9844-67.688zm72.141 199.74c-0.65625-11.719-2.0156-36.891 0.046875-43.172 0.98438-2.9531 5.0625-7.6875 9.3281-12.656 1.125-1.2656 2.25-2.625 3.4219-3.9844l-6.0469 56.109zm19.641-10.781 7.3594-68.438c8.7656-14.812 12.891-30.281 12.656-47.062v-0.70312c1.9219 1.4062 3.7969 2.7188 5.5312 3.8438 4.9688 3.3281 8.9062 6 10.406 9.0938 4.125 8.5781 8.8125 29.203 8.1562 78.516l-1.9688 1.125c-14.344 8.2031-28.781 16.266-42.141 23.625zm-13.406-175.92c-0.046875-0.5625-0.09375-1.0781-0.09375-1.6406-0.14062-2.0156-0.28125-4.2188-0.42188-6.375-0.1875-2.7656-0.375-5.6719-0.60938-8.6719 0-0.14062-0.046875-0.23438-0.046875-0.375-0.23438-3-0.42188-5.9531-0.65625-9.2344 1.875-0.23438 3.7969-0.42188 5.7188-0.65625l-2.7656 45.047c-0.09375-1.1719-0.1875-2.5781-0.23438-3.8438-0.23438-4.2656-0.5625-9-0.89062-14.25zm-29.719 44.391c-0.046875-0.09375-0.09375-0.23438-0.09375-0.32812-0.046875-0.09375-0.046875-0.1875-0.09375-0.28125-0.046875-0.1875-0.09375-0.375-0.14062-0.60938-0.046875-0.14062-0.046875-0.1875-0.09375-0.32812-0.046875-0.23438-0.09375-0.5625-0.1875-0.84375-0.046875-0.14062-0.046875-0.23438-0.09375-0.42188-0.046875-0.28125-0.09375-0.65625-0.1875-1.0312-0.046875-0.23438-0.09375-0.42188-0.09375-0.70312-0.046875-0.32812-0.09375-0.70312-0.14062-1.0781s-0.09375-0.75-0.14062-1.2188c-0.046875-0.32812-0.09375-0.70312-0.14062-1.0312-0.09375-0.5625-0.14062-1.1719-0.23438-1.7812-0.046875-0.28125-0.09375-0.65625-0.09375-0.98438-0.09375-0.75-0.14062-1.5469-0.23438-2.3906-0.046875-0.32812-0.09375-0.75-0.09375-1.125-0.09375-0.9375-0.1875-1.9219-0.23438-3-0.046875-0.32812-0.046875-0.75-0.09375-1.125-0.09375-1.1719-0.1875-2.3906-0.28125-3.75-0.046875-0.375-0.046875-0.75-0.09375-1.125-0.09375-1.4062-0.1875-2.8594-0.28125-4.4062-0.046875-0.42188-0.046875-0.89062-0.09375-1.3125-0.09375-1.6406-0.23438-3.375-0.32812-5.2031-0.046875-0.375-0.046875-0.75-0.09375-1.1719-0.14062-1.9688-0.23438-4.0781-0.32812-6.2344-0.046875-0.375-0.046875-0.79688-0.09375-1.2188-0.09375-2.25-0.23438-4.6406-0.32812-7.125-0.046875-0.42188-0.046875-0.89062-0.046875-1.3594-0.14062-2.4844-0.23438-5.1094-0.32812-7.7812-0.046875-0.70312-0.046875-1.3594-0.09375-2.0625-0.046875-1.3594-0.09375-2.8125-0.1875-4.2656 2.7656-0.5625 5.5781-1.125 8.3438-1.6406l-2.9062 68.203c-0.14062-0.23438-0.28125-0.5625-0.42188-0.84375 0.046875-0.09375 0-0.23438-0.046875-0.42188zm-30.234-13.359c-0.46875-5.4375-1.0312-12.891-1.6875-22.875-0.046875-0.28125-0.046875-0.60938-0.09375-0.89062-0.09375-1.4062-0.1875-2.9062-0.28125-4.4531-0.09375-0.98438-0.14062-2.0156-0.23438-3.0469-0.09375-1.5469-0.1875-3.0938-0.28125-4.7344-0.046875-0.5625-0.09375-1.125-0.14062-1.7344-0.14062-2.2969-0.28125-4.6875-0.46875-7.2188 2.0625-0.60938 4.125-1.1719 6.1875-1.6875zm39.562 270.32c1.7812 7.2188 14.391 59.391 19.5 102.14-0.09375-0.23438-0.23438-0.46875-0.32812-0.70313-1.4531-3.0469-3.0469-6.1875-4.7812-9.375-0.32812-0.60937-0.70312-1.2188-1.0312-1.8281-1.4531-2.6719-3.0469-5.3906-4.7344-8.1094-0.70312-1.125-1.4062-2.2031-2.1094-3.3281-1.4531-2.2969-3.0469-4.5938-4.6406-6.8906-0.84375-1.1719-1.6875-2.3438-2.5781-3.5625-1.7344-2.3438-3.5625-4.6406-5.4375-6.8906l-2.5312-3.0938c-5.625-6.4219-11.906-12.469-18.891-17.859-1.0312-0.79687-2.1562-1.5-3.1875-2.25-2.5312-1.8281-5.1562-3.5625-7.875-5.1562-1.3125-0.79687-2.7188-1.5469-4.0781-2.25-2.7188-1.4531-5.5312-2.7656-8.4375-3.9375-0.9375-0.375-1.7812-0.9375-2.7656-1.3125-1.0781-7.7344-2.6719-18.797-4.2656-29.062-0.046875-0.14062-0.046875-0.23437-0.046875-0.375-0.375-2.3438-0.70312-4.6406-1.0781-6.8438-0.09375-0.70312-0.1875-1.2656-0.28125-1.9219-0.28125-1.6406-0.51562-3.2344-0.79688-4.6875-0.1875-1.2188-0.375-2.1562-0.5625-3.2344-0.14062-0.75-0.28125-1.5938-0.42188-2.25-0.28125-1.5938-0.60938-2.9531-0.84375-3.8906-0.23438-1.0312-0.32812-2.1094-0.28125-3.2812 0-0.375 0.09375-0.75 0.14062-1.125 0.09375-0.84375 0.1875-1.6875 0.42188-2.5781 0.046875-0.09375 0.046875-0.1875 0.09375-0.28125 0.14062 0.09375 0.28125 0.23438 0.375 0.32813 3.0938 2.6719 6.5625 5.3906 10.219 8.1094 0.65625 0.46875 1.2656 0.9375 1.9219 1.4531 3.8438 2.7656 8.0625 5.4844 12.516 8.1562 0.84375 0.51562 1.7344 0.98437 2.625 1.5 4.7344 2.7188 9.75 5.2969 15.141 7.5938 0.14062 0.09375 0.32812 0.14062 0.46875 0.1875 5.2031 2.2031 10.734 4.125 16.453 5.8125 0.70312 0.23437 1.3594 0.5625 2.1094 0.79687zm-61.312 35.719c40.125 13.406 63.609 56.109 74.391 81.656-4.7812-1.8281-10.453-3.0469-17.391-4.5-5.1562-1.0781-11.203-2.3438-18.375-4.1719-1.7812-0.46875-3.6094-1.0781-5.5312-1.7812-5.6719-2.25-11.859-5.7188-18.469-10.453h-0.046875c-25.078-18.047-47.438-47.719-49.734-52.594-2.7656-5.8594-10.172-13.594-15.422-18.75 7.1719 0.5625 20.438 2.7656 44.812 8.9062 1.9688 0.46875 3.8906 1.0312 5.7656 1.6875zm101.06-62.719c0.046875-0.84375 0.09375-1.7344 0.1875-2.625 0.1875-2.6719 0.46875-5.4375 0.89062-8.3906 0.14062-0.89063 0.28125-1.7812 0.42188-2.7188 0.5625-3.2344 1.2188-6.5156 2.1094-9.8906 0.14062-0.5625 0.32812-1.0781 0.46875-1.6406 1.0781-3.7969 2.2969-7.6875 3.9375-11.531 4.0312-9.6094 9.4688-18.094 16.172-25.219 22.406-23.906 53.438-40.031 69.188-47.203-0.14062 0.375-0.28125 0.75-0.46875 1.125-0.75 1.7344-1.2188 4.125-1.9688 8.1562-3.75 19.5-13.734 71.25-73.406 101.86-6.1406 3.1875-11.906 5.7656-17.719 8.0156-0.046875-0.79687-0.046875-1.7344-0.046875-2.6719 0.046875-2.2031 0.09375-4.6406 0.23438-7.2656zm26.438 457.36c3.7969 1.2188 7.7344 2.2969 11.766 3.375 1.2188 0.32812 2.3438 0.65625 3.5625 0.98438 5.3438 1.3594 10.922 2.5781 16.734 3.75 1.2656 0.23438 2.625 0.42188 3.8906 0.70312 3.4219 0.65625 6.8438 1.2656 10.406 1.8281v0.046875c-0.28125 1.0312-0.79688 1.9688-1.2188 2.9531-0.28125 0.70312-0.46875 1.4062-0.84375 2.0625-1.7344 3.1875-3.75 5.0156-4.875 5.8125-1.8281 0.046875-5.1562 0.14062-9.2812 0.1875-7.7344 0.14062-18.469 0.14062-28.266-0.23438-2.9531-0.09375-5.1562-1.2188-7.0312-3.6094-3.7969-4.7812-4.5938-13.172-4.5469-15.703l0.32812-5.2969c1.4531 0.5625 3.0938 1.0312 4.5938 1.5469 1.5938 0.51562 3.1875 1.0781 4.7812 1.5938zm15.609-865.69c-0.60938 0.32812-1.125 0.75-1.6875 1.0781-0.42188 0.28125-0.84375 0.51562-1.2656 0.79688-1.7344 1.1719-3.375 2.3906-4.8281 3.6094l-0.23438 0.23438c-1.4062 1.2188-2.6719 2.3906-3.7969 3.5625-0.28125 0.28125-0.5625 0.5625-0.79688 0.84375-1.0781 1.1719-2.1094 2.25-2.8594 3.2344 0 0 0 0.046875-0.046875 0.046875-0.84375 1.0312-1.4531 1.8281-1.9688 2.5312-0.14062 0.1875-0.1875 0.28125-0.32812 0.42188-0.375 0.51562-0.65625 0.89062-0.70312 0.98438-0.1875 0.28125-0.375 0.65625-0.51562 1.0781-2.625 3.375-5.1562 7.2188-7.5469 11.344-0.32812 0.5625-0.65625 1.0312-0.9375 1.5938-2.25 3.9844-4.4062 8.2969-6.4688 12.844-0.375 0.79688-0.75 1.5938-1.0781 2.4375-0.375 0.89062-0.79688 1.7344-1.1719 2.6719-1.2656-22.5-2.3438-39.844-2.7188-45.703-0.046875-0.51562-0.046875-0.9375-0.09375-1.2656-0.046875-0.70312-0.09375-1.0781-0.09375-1.0781 0-0.28125-0.046875-0.5625-0.14062-0.84375 13.266-0.75 26.344-0.84375 39.281-0.42188zm-51.047 1.1719-5.7188 93.609c-2.4375 0.23438-4.875 0.51562-7.3125 0.79688-0.28125-3.7031-0.51562-7.4531-0.79688-11.203-2.6719-37.266-5.3906-73.453-6-81.562 6.6094-0.75 13.219-1.3594 19.828-1.8281zm-32.062 3.1875-4.0312 94.641c-3.1406 0.5625-6.2344 1.1719-9.3281 1.7812-0.046875-1.6406-0.14062-3.2812-0.1875-4.9219-0.046875-1.9688-0.14062-3.9375-0.1875-5.9531-0.09375-2.4844-0.14062-4.9688-0.23438-7.5-0.09375-2.7656-0.1875-5.5312-0.23438-8.25l-0.14062-5.0625c-0.09375-3.2812-0.1875-6.5625-0.23438-9.7031-0.046875-1.125-0.046875-2.1562-0.09375-3.2344-0.09375-3.7031-0.1875-7.3594-0.23438-10.828v-0.32812c-0.375-16.641-0.60938-30.516-0.70312-38.25 5.25-0.84375 10.406-1.6406 15.609-2.3906zm-34.406 101.3c-2.625 0.70312-5.2031 1.3594-7.7812 2.1094l-0.14062-1.9688c-0.23438-3.7969-0.46875-7.6406-0.70312-11.484v-0.14062c-1.7812-29.906-3.4688-59.953-4.4062-77.531-0.09375-1.2188-0.14062-2.3438-0.1875-3.4219 6.2344-1.4531 12.703-2.8594 19.5-4.1719zm-391.97 387.42c0-223.92 149.68-418.64 364.97-476.44-1.5469 21.797-4.5 62.906-6.9844 99.562-4.5469 1.6406-8.9062 3.6094-13.359 5.3906-4.6875 1.875-9.4688 3.6562-14.062 5.6719-4.875 2.2031-9.6094 4.6406-14.391 6.9844-4.5469 2.25-9.1875 4.4062-13.688 6.7969-4.5938 2.4844-8.9531 5.25-13.406 7.875-4.4062 2.625-8.9062 5.1562-13.219 7.9219-4.2656 2.7656-8.2969 5.7656-12.422 8.6719-4.2656 3-8.5781 5.8594-12.703 9-3.9375 3-7.6875 6.2812-11.531 9.4219-4.0312 3.3281-8.2031 6.5625-12.094 10.078-3.6562 3.2344-7.0312 6.7031-10.547 10.078-3.8438 3.6562-7.7344 7.2656-11.438 11.062-3.3281 3.4688-6.4219 7.125-9.6094 10.734-3.5625 3.9844-7.2188 7.875-10.641 11.953-3.0469 3.7031-5.8594 7.5938-8.7656 11.391-3.2344 4.2188-6.6094 8.3438-9.7031 12.75-2.7656 3.9375-5.2969 8.0625-7.9219 12.094-2.9062 4.4062-5.9062 8.7656-8.625 13.312-2.5312 4.1719-4.7344 8.5312-7.0781 12.797-2.5312 4.6406-5.2031 9.1406-7.5938 13.828-2.2031 4.4062-4.125 9-6.1875 13.547-2.1562 4.7344-4.4531 9.375-6.4219 14.203-1.9219 4.7344-3.5625 9.6094-5.2969 14.438-1.7344 4.7344-3.6562 9.4219-5.2031 14.25-1.6875 5.1562-2.9531 10.453-4.4062 15.703-1.2656 4.6406-2.7656 9.2344-3.8906 13.922-1.3594 5.7188-2.3438 11.531-3.4219 17.297-0.84375 4.3594-1.875 8.6719-2.5781 13.078-1.0312 6.5625-1.6406 13.219-2.3438 19.875-0.375 3.75-1.0312 7.4062-1.3125 11.156-0.79688 10.406-1.2656 20.953-1.2656 31.547 0 10.828 0.42188 21.609 1.2656 32.25 0.28125 3.5625 0.89062 7.0312 1.2656 10.547 0.75 7.0781 1.4062 14.156 2.5312 21.094 0.65625 4.1719 1.6875 8.2031 2.4375 12.328 1.2188 6.2344 2.25 12.469 3.75 18.562 1.0781 4.3594 2.4375 8.625 3.6562 12.938 1.5938 5.7188 3.0469 11.531 4.875 17.156 1.4062 4.3125 3.1875 8.5312 4.7344 12.797 1.9688 5.4375 3.8438 10.969 6.0938 16.359 1.7812 4.2656 3.8906 8.3906 5.8125 12.656 2.3438 5.2031 4.5938 10.406 7.1719 15.469 2.1562 4.1719 4.5469 8.2031 6.8438 12.281 2.7188 4.875 5.2969 9.8438 8.2031 14.625 2.4844 4.0781 5.25 7.9219 7.875 11.859 3.0469 4.6406 5.9531 9.2812 9.2344 13.781 2.8125 3.8906 5.8594 7.5469 8.8125 11.344 3.375 4.3125 6.6094 8.7188 10.172 12.891 3.1406 3.7031 6.5625 7.1719 9.7969 10.734 3.6562 4.0312 7.2188 8.1094 11.016 11.953 3.4219 3.4688 7.125 6.7031 10.688 10.078 3.9375 3.7031 7.7812 7.5 11.906 11.062 3.75 3.2344 7.6875 6.1875 11.531 9.2812 4.2188 3.375 8.3438 6.8906 12.75 10.125 4.0312 2.9531 8.25 5.6719 12.375 8.4375 4.4531 3.0469 8.8594 6.1875 13.453 9.0938 4.3125 2.6719 8.8125 5.0625 13.219 7.5938 4.6875 2.6719 9.3281 5.4844 14.156 7.9688 4.5938 2.3906 9.375 4.4531 14.062 6.6562 4.875 2.2969 9.75 4.7344 14.766 6.8438 4.8281 2.0625 9.8438 3.75 14.812 5.625 4.5 1.6875 8.8594 3.5625 13.406 5.1094 0 0.1875 0.046875 0.32812 0.09375 0.46875l0.28125 1.8281c0.1875 1.0781 0.32812 2.1094 0.60938 3.1875 0.1875 0.70312 0.375 1.3125 0.5625 2.0156 0.28125 0.98438 0.5625 1.9219 0.9375 2.8594 0.23438 0.65625 0.5625 1.3125 0.84375 1.9688 0.375 0.89062 0.84375 1.7344 1.3125 2.5781 0.32812 0.60938 0.70312 1.2188 1.125 1.7812 0.51562 0.79688 1.125 1.5469 1.7344 2.25 0.42188 0.51562 0.89062 1.0781 1.4062 1.5469 0.70312 0.70312 1.4531 1.2656 2.25 1.8281 0.5625 0.375 1.0312 0.79688 1.6406 1.1719 0.9375 0.5625 1.9688 0.9375 3 1.3594 0.5625 0.23438 1.0781 0.46875 1.6875 0.65625 1.6875 0.46875 3.5156 0.79688 5.5312 0.89062 3.8438 0.14062 7.7812 0.23438 11.672 0.23438 0.75 0 1.4531 0.046875 2.2031 0.046875 1.5938 0 3.2344 0.046875 4.7344 0.046875 1.8281 0 3.6562 0 5.3438-0.046875h0.046875l1.0781 4.5469 18.281 78.75c-243.14-30.234-431.9-238.18-431.9-489.42zm479.63 493.18c0.5625-0.28125 1.125-0.65625 1.6875-0.89062 1.2188-0.60938 2.4844-1.3125 3.75-2.0156 2.625-1.4062 5.25-2.9062 7.9688-4.5 1.3594-0.79688 2.7656-1.6875 4.125-2.5312 2.7656-1.7344 5.5312-3.5156 8.2969-5.3906 1.2656-0.84375 2.5781-1.6875 3.8438-2.5781 3.3281-2.2969 6.75-4.7344 10.125-7.1719 0.70312-0.51562 1.4062-0.98438 2.1094-1.5469 4.1719-3.0938 8.3438-6.2812 12.469-9.5156 0.79688-0.65625 1.6406-1.2656 2.3906-1.9219 3.2812-2.625 6.5625-5.2031 9.75-7.8281 1.2656-1.0312 2.4844-2.0625 3.75-3.0938 2.7656-2.2969 5.4844-4.5938 8.1562-6.8438 1.2656-1.0781 2.4375-2.1094 3.6562-3.1406 2.7188-2.3438 5.3438-4.6406 7.9219-6.9375 0.98438-0.84375 1.9688-1.7344 2.9531-2.5781 3.2344-2.8594 6.3281-5.6719 9.2344-8.3438 0.23438-0.1875 0.42188-0.375 0.65625-0.60938 3.2344-2.9531 6.2344-5.7656 9.0938-8.3906 0.60938-0.5625 1.125-1.0781 1.7344-1.5938 2.1562-2.0156 4.1719-3.8906 5.9531-5.6719 0.70312-0.65625 1.2656-1.2188 1.9219-1.8281 1.5938-1.5 2.9531-2.8594 4.2656-4.125 0.60938-0.5625 1.0781-1.0312 1.5938-1.5469 1.2188-1.1719 2.2031-2.1562 3.0469-2.9531l0.70312-0.70312c0.9375-0.89062 1.6406-1.5938 1.875-1.875h0.046875l0.046875-0.046875c0.51562-0.51562 0.89062-1.1719 1.1719-1.8281 0.046875-0.046875 0.09375-0.09375 0.09375-0.14062 0.14062-0.32812 0.14062-0.70312 0.1875-1.0781v-0.046875c0.09375-0.42188 0.23438-0.79688 0.23438-1.2656v-0.89062c5.5312-1.7344 10.875-3.8906 16.312-5.8594 3.5625-1.3125 7.2188-2.4375 10.734-3.8438 7.6406-3.0469 15.141-6.4688 22.594-10.031 1.9219-0.89062 3.8906-1.6875 5.8125-2.625 9.2812-4.5938 18.469-9.5625 27.422-14.906 2.3906-1.4062 4.7344-3.0938 7.125-4.5938 6-3.75 12.047-7.4531 17.859-11.531l103.45 35.953c-91.172 83.344-208.78 129.05-332.39 129.05-4.5938 0-9.1875-0.09375-13.734-0.1875zm399.98-158.39c-5.6719 16.266-23.859 25.828-40.688 21.234-0.14062-0.046876-2.0625-0.46875-2.2031-0.46875l-113.39-39.422-110.62-38.438c-0.79688-0.28125-2.1094-1.0312-3.7969-2.25-22.969-16.5-61.219-83.812-56.062-98.672l27.891-80.25c0.09375-0.32813 0.28125-0.75 0.70312-1.3594 1.1719-1.7812 3.9375-4.9219 10.688-9.4688 23.062-15.516 70.5-31.922 92.297-31.922 3.2344 0 4.9688 0.375 5.8594 0.70312l224.06 77.859c8.4844 2.9531 15.328 9.0469 19.266 17.109 3.9375 8.1094 4.4531 17.25 1.4531 25.734l-37.5 108z"/>
 <path d="m722.16 717.42c-9.5625-3.2812-20.391-1.3125-28.266 5.1094-4.2656 3.4688-7.4531 8.0156-9.2344 13.078-5.2031 15.094 2.3906 31.312 16.969 36.891 0.23438 0.14062 0.89062 0.42188 1.2188 0.51562 3.1406 1.0781 6.375 1.6406 9.6562 1.6406 12.469 0 23.672-7.9219 27.797-19.781 5.2969-15.281-2.8594-32.109-18.141-37.453zm6.7969 33.516c-2.4375 6.9844-9.0469 11.719-16.453 11.719-1.9219 0-3.8438-0.32812-6.1875-1.2188-8.8594-3.375-13.359-13.031-10.266-21.891 1.0312-2.9531 2.9062-5.625 5.4375-7.7344 3.1875-2.5781 7.125-3.9844 11.109-3.9844 1.9219 0 3.7969 0.32812 5.625 0.9375 9.0469 3.1875 13.875 13.125 10.734 22.172z"/>
</svg>
