<?xml version="1.0" encoding="UTF-8"?>
<svg width="1200pt" height="1200pt" version="1.1" viewBox="0 0 1200 1200" xmlns="http://www.w3.org/2000/svg">
 <path d="m639.74 538.03c78.562 0 127.45-84.422 90.562-152.26-3.1406-5.8125-10.453-7.9688-16.266-4.8281-5.8125 3.1406-7.9688 10.453-4.8281 16.266 28.312 52.078-9.2812 116.77-69.469 116.77-43.594 0-79.031-35.484-79.031-79.031 0-39.188 28.078-72.047 66.75-78.094 6.5625-1.0312 11.016-7.1719 10.031-13.734-1.0312-6.5625-7.1719-10.922-13.734-10.031-50.438 7.875-87 50.672-87 101.81-0.046874 56.906 46.172 103.12 102.98 103.12z"/>
 <path d="m674.06 457.78c6.0469-2.7188 8.7656-9.7969 6.0469-15.844-24.562-54.938 19.266-115.55 78.188-111 21.047 1.5938 40.219 11.297 54 27.281 13.781 16.031 20.484 36.422 18.844 57.469-2.9062 38.578-32.953 69.188-71.438 72.75-6.6094 0.60938-11.438 6.4688-10.828 13.078 0.60938 6.7031 6.6562 11.484 13.078 10.828 50.156-4.6406 89.344-44.531 93.141-94.828 4.3125-56.766-38.203-106.22-94.969-110.53-77.391-5.8594-133.74 73.406-101.91 144.71 2.7188 6.0469 9.7969 8.7656 15.844 6.0938z"/>
 <path d="m1068.9 903.79-69.984-719.81c-3.4688-35.297-33.844-62.297-69.375-61.031l-594.05 19.969c-31.078-9.6094-63.375-7.6406-87.562 5.8594-79.031 44.109-61.594 171.94 23.531 171.94 12.422 0 24.797-3.2344 36.234-9.6562 44.391-24.75 45.984-90.891 6.5625-112.17-15.188-8.1562-33.516-7.9219-49.031 0.75-5.7656 3.2344-7.875 10.547-4.6406 16.312 3.2344 5.8125 10.547 7.875 16.312 4.6406 8.3906-4.6875 17.859-4.9219 25.922-0.5625 22.031 11.906 21.938 54-6.8438 70.078-25.594 14.25-55.922 4.5-68.297-21.891-25.031-53.531 19.594-127.45 101.06-102.33 4.5 4.1719 26.953 29.672 32.438 126.24 1.5469 27.984-1.9688-8.3438 77.438 694.18 6.6562 60.141 52.547 95.578 103.92 90 5.5312 2.1562-25.734 2.4375 511.87-35.625 25.922-1.875 49.547-17.531 61.594-40.922 20.391-39.516 0.51562-89.719-47.109-95.953zm-606.42 79.828-72.891-644.68c-6.375-57-5.7656-126.32-31.125-172.78l571.92-19.219c22.781-0.32812 42.469 16.594 44.672 39.375l69.75 717.56-453.05 33.328c-55.312-28.031-85.641-4.9219-101.3 19.922-0.32812 0.51562-0.65625 1.125-0.89062 1.6875-6.2344 14.625-8.0156 28.312-5.25 40.781 2.5312 11.484 12.984 19.641 24.891 19.266l62.156-1.875c6.6094-0.1875 11.859-5.7188 11.625-12.375-0.1875-6.6094-5.5312-12.094-12.375-11.625l-62.906 1.4531c-1.5938-7.2656-0.42188-15.75 3.5156-25.312 10.688-16.547 28.547-31.922 70.922-9.8906 30.141 29.203 18.422 86.391-41.672 93.188-38.578 4.4062-72.797-21.609-78-68.812zm590.21 33.094-451.6 32.484c23.859-25.078 27.047-61.266 11.484-89.438l445.22-32.766c0.046875 0 0.09375 0.046875 0.14062 0.046875 16.781 0 28.5 5.8594 35.812 17.906 18.375 30.234-5.8125 69.234-41.062 71.766z"/>
 <path d="m552.98 675.94c0.375 6.375 5.6719 11.297 11.953 11.297h0.70312l312.24-17.953c6.6094-0.375 11.672-6.0469 11.297-12.656s-5.9062-11.812-12.656-11.297l-312.24 17.953c-6.6562 0.375-11.719 6.0469-11.297 12.656z"/>
 <path d="m578.81 797.86c0.375 6.7969 6.2812 11.719 12.656 11.297l312.24-17.953c6.6094-0.375 11.672-6.0469 11.297-12.656s-6.0469-11.766-12.656-11.297l-312.24 17.953c-6.6562 0.375-11.719 6.0469-11.297 12.656z"/>
 <path d="m298.82 790.97c-1.8281-6.375-8.4844-10.078-14.812-8.25-6.375 1.8281-10.078 8.4375-8.25 14.812l30.188 105.84-20.109 6.4688-37.875-100.45c-2.3438-6.1875-9.2344-9.375-15.469-6.9844-6.1875 2.3438-9.3281 9.2812-6.9844 15.469l41.906 111.14c2.25 5.9062 8.7188 9.1406 14.906 7.1719l42-13.547c6.1406-1.9688 9.6094-8.4844 7.875-14.719z"/>
 <path d="m227.34 537.14c-2.0156-6.2344-8.7188-9.75-15.094-7.7344l-65.672 21.188c-6.3281 2.0156-9.75 8.8125-7.7344 15.094l66.281 205.4c2.0156 6.2344 8.7188 9.75 15.094 7.7344l65.672-21.188c6.3281-2.0156 9.75-8.8125 7.7344-15.094zm-3.0469 215.16-58.922-182.58 42.844-13.828 58.922 182.58z"/>
 <path d="m311.68 1006.9-4.2188-44.625c-0.60938-6.6094-6.4688-11.484-13.078-10.828-6.6094 0.60938-11.438 6.4688-10.828 13.078l4.5469 48.516c0.65625 6.8438 2.0625 4.6406 48.703 58.828 6.8438 7.8281 19.828 3.7031 20.953-6.6562l7.5938-70.219c0.70312-6.5156-2.2969-7.3125-23.812-49.266-3.0938-5.8594-10.406-8.0625-16.219-4.9688-5.8594 3.0938-8.0625 10.359-4.9688 16.219l20.766 39.094-4.2656 39.469z"/>
 <path d="m201.14 455.86c-1.7344-5.3906-6.1406-9.7969-11.812-11.719-18.094-6.2344-45.375-7.3594-72.234 22.406-4.6406 5.1562-6.3281 12.188-4.3594 18.375l10.875 33.75c1.6406 5.0625 6.375 8.2969 11.438 8.2969 8.1094 0 13.922-7.9219 11.438-15.703l-9.8438-30.516c17.484-18.328 32.297-17.719 42.562-14.672l10.125 31.406c2.0156 6.3281 8.8125 9.75 15.094 7.7344 6.3281-2.0156 9.75-8.8125 7.7344-15.094z"/>
 <path d="m76.641 524.58 79.078 245.06c2.0156 6.2344 8.7188 9.7969 15.094 7.7344 6.3281-2.0156 9.75-8.8125 7.7344-15.094l-75.422-233.68 2.1562-0.70312c6.3281-2.0156 9.75-8.8125 7.7344-15.094s-8.8125-9.75-15.094-7.7344l-13.547 4.4062c-6.3281 2.0156-9.7969 8.7656-7.7344 15.094z"/>
 <path d="m705.84 286.18c3.7969 5.4375 11.25 6.75 16.734 3 5.4375-3.7969 6.75-11.25 3-16.734l-10.594-15.234 10.359-23.344 48.094-3.1875 12.703 22.5-9.0938 18.984c-2.8594 6-0.375 13.125 5.625 16.031 6 2.8594 13.125 0.32812 16.031-5.625l11.812-24.609c1.6875-3.5156 1.5469-7.6875-0.375-11.109l-18-31.875c-3.1875-5.5781-9.4688-8.9062-15.844-8.5312l-56.625 3.75c-6.4219 0.42188-12 4.3594-14.578 10.219l-14.766 33.281c-1.6875 3.8438-1.2656 8.2969 1.125 11.719z"/>
</svg>
