<?xml version="1.0" encoding="UTF-8"?>
<svg width="1200pt" height="1200pt" version="1.1" viewBox="0 0 1200 1200" xmlns="http://www.w3.org/2000/svg">
 <path d="m689.63 1129.7h-599.26c-6.375 0-11.578-5.1562-11.578-11.578v-1036.3c0-6.375 5.1562-11.578 11.578-11.578h804.89c6.375 0 11.578 5.2031 11.578 11.578v518.11c0 6.375-5.1562 11.578-11.578 11.578-6.375 0-11.578-5.1562-11.578-11.578v-506.58h-781.74v1013.1h587.68c6.375 0 11.578 5.2031 11.578 11.578s-5.1562 11.578-11.578 11.578z" fill-rule="evenodd"/>
 <path d="m257.26 291.14c-6.375 0-11.578-5.1562-11.578-11.578v-22.266c0-6.375 5.1562-11.578 11.578-11.578 6.375 0 11.578 5.1562 11.578 11.578v22.266c0 6.375-5.1562 11.578-11.578 11.578zm0 73.031c-6.375 0-11.578-5.1562-11.578-11.578v-22.266c0-6.375 5.1562-11.578 11.578-11.578 6.375 0 11.578 5.2031 11.578 11.578v22.266c0 6.375-5.1562 11.578-11.578 11.578z" fill-rule="evenodd"/>
 <path d="m231.89 316.55h-22.266c-6.375 0-11.578-5.1562-11.578-11.578 0-6.375 5.2031-11.578 11.578-11.578h22.266c6.375 0 11.578 5.1562 11.578 11.578 0 6.375-5.1562 11.578-11.578 11.578zm73.031 0h-22.266c-6.375 0-11.578-5.1562-11.578-11.578 0-6.375 5.1562-11.578 11.578-11.578h22.266c6.375 0 11.578 5.1562 11.578 11.578 0 6.375-5.1562 11.578-11.578 11.578z" fill-rule="evenodd"/>
 <path d="m728.44 291.14c-6.375 0-11.578-5.1562-11.578-11.578v-22.266c0-6.375 5.1562-11.578 11.578-11.578 6.375 0 11.578 5.1562 11.578 11.578v22.266c0 6.375-5.1562 11.578-11.578 11.578zm0 73.031c-6.375 0-11.578-5.1562-11.578-11.578v-22.266c0-6.375 5.1562-11.578 11.578-11.578 6.375 0 11.578 5.2031 11.578 11.578v22.266c0 6.375-5.1562 11.578-11.578 11.578z" fill-rule="evenodd"/>
 <path d="m703.03 316.55h-22.266c-6.375 0-11.578-5.1562-11.578-11.578 0-6.375 5.1562-11.578 11.578-11.578h22.266c6.375 0 11.578 5.1562 11.578 11.578 0 6.375-5.1562 11.578-11.578 11.578zm73.031 0h-22.266c-6.375 0-11.578-5.1562-11.578-11.578 0-6.375 5.2031-11.578 11.578-11.578h22.266c6.375 0 11.578 5.1562 11.578 11.578 0 6.375-5.2031 11.578-11.578 11.578z" fill-rule="evenodd"/>
 <path d="m429.66 190.18c-28.453 0-51.609 23.156-51.609 51.609 0 55.734 57 115.27 114.8 173.16 57.797-57.891 114.8-117.42 114.8-173.16 0-28.453-23.156-51.609-51.609-51.609-24.469 0-37.312 9.9375-52.828 40.969-1.9688 3.9375-5.9531 6.375-10.359 6.375-4.3594 0-8.3906-2.4844-10.359-6.375-15.516-31.031-28.359-40.969-52.828-40.969zm63.188 252.71c-3.0469 0-6-1.2188-8.1562-3.375l8.1562-8.1562-8.2031 8.1562c-63.797-63.797-129.74-129.74-129.74-197.68 0-41.203 33.516-74.719 74.719-74.719 30.797 0 48.938 13.641 63.188 35.438 14.25-21.844 32.391-35.438 63.188-35.438 41.203 0 74.719 33.516 74.719 74.719 0 67.969-65.953 133.92-129.74 197.72-2.1562 2.1562-5.1094 3.375-8.1562 3.375z" fill-rule="evenodd"/>
 <path d="m178.22 608.29h96.141v-96.141h-96.141zm107.72 23.109h-119.25c-6.375 0-11.578-5.1562-11.578-11.578v-119.25c0-6.375 5.1562-11.578 11.578-11.578h119.25c6.375 0 11.578 5.2031 11.578 11.578v119.25c0 6.375-5.1562 11.578-11.578 11.578z" fill-rule="evenodd"/>
 <path d="m819 529.69h-471.66c-6.375 0-11.578-5.1562-11.578-11.578 0-6.375 5.1562-11.578 11.578-11.578h471.66c6.375 0 11.578 5.2031 11.578 11.578s-5.1562 11.578-11.578 11.578z" fill-rule="evenodd"/>
 <path d="m625.82 613.87h-278.48c-6.375 0-11.578-5.1562-11.578-11.578 0-6.375 5.1562-11.578 11.578-11.578h278.48c6.375 0 11.578 5.1562 11.578 11.578 0 6.375-5.1562 11.578-11.578 11.578z" fill-rule="evenodd"/>
 <path d="m178.22 809.06h96.141v-96.141h-96.141zm107.72 23.109h-119.25c-6.375 0-11.578-5.1562-11.578-11.578v-119.25c0-6.375 5.1562-11.578 11.578-11.578h119.25c6.375 0 11.578 5.1562 11.578 11.578v119.25c0 6.375-5.1562 11.578-11.578 11.578z" fill-rule="evenodd"/>
 <path d="m625.82 730.45h-278.48c-6.375 0-11.578-5.1562-11.578-11.578 0-6.375 5.1562-11.578 11.578-11.578h278.48c6.375 0 11.578 5.1562 11.578 11.578 0 6.375-5.1562 11.578-11.578 11.578z" fill-rule="evenodd"/>
 <path d="m625.82 814.64h-278.48c-6.375 0-11.578-5.1562-11.578-11.578 0-6.375 5.1562-11.578 11.578-11.578h278.48c6.375 0 11.578 5.1562 11.578 11.578 0 6.375-5.1562 11.578-11.578 11.578z" fill-rule="evenodd"/>
 <path d="m178.22 1009.8h96.141v-96.141h-96.141zm107.72 23.109h-119.25c-6.375 0-11.578-5.1562-11.578-11.578v-119.25c0-6.375 5.1562-11.578 11.578-11.578h119.25c6.375 0 11.578 5.1562 11.578 11.578v119.25c0 6.375-5.1562 11.578-11.578 11.578z" fill-rule="evenodd"/>
 <path d="m625.82 931.22h-278.48c-6.375 0-11.578-5.1562-11.578-11.578 0-6.375 5.1562-11.578 11.578-11.578h278.48c6.375 0 11.578 5.1562 11.578 11.578 0 6.375-5.1562 11.578-11.578 11.578z" fill-rule="evenodd"/>
 <path d="m625.82 1015.4h-278.48c-6.375 0-11.578-5.1562-11.578-11.578 0-6.375 5.1562-11.578 11.578-11.578h278.48c6.375 0 11.578 5.1562 11.578 11.578 0 6.375-5.1562 11.578-11.578 11.578z" fill-rule="evenodd"/>
 <path d="m692.53 1106.6h405.52v-495h-405.52zm408.37 23.109h-411.28c-11.156 0-20.25-9.0938-20.25-20.25v-500.76c0-11.156 9.0938-20.25 20.25-20.25h411.28c11.156 0 20.25 9.0938 20.25 20.25v500.76c0 11.156-9.0938 20.25-20.25 20.25z" fill-rule="evenodd"/>
 <path d="m1109.6 721.87h-428.63c-6.375 0-11.578-5.2031-11.578-11.578s5.1562-11.578 11.578-11.578h428.63c6.375 0 11.578 5.2031 11.578 11.578s-5.2031 11.578-11.578 11.578z" fill-rule="evenodd"/>
 <path d="m747.98 776.29c-0.5625 0-1.0781 0.51562-1.0781 1.0781v45.188c0 0.5625 0.51562 1.0781 1.0781 1.0781h45.188c0.5625 0 1.0781-0.51562 1.0781-1.0781v-45.188c0-0.5625-0.51562-1.0781-1.0781-1.0781zm45.188 70.5h-45.188c-13.359 0-24.234-10.875-24.234-24.234v-45.188c0-13.359 10.875-24.234 24.234-24.234h45.188c13.359 0 24.234 10.875 24.234 24.234v45.188c0 13.359-10.875 24.234-24.234 24.234z" fill-rule="evenodd"/>
 <path d="m872.68 776.29c-0.5625 0-1.0781 0.51562-1.0781 1.0781v45.188c0 0.5625 0.51562 1.0781 1.0781 1.0781h45.188c0.5625 0 1.0781-0.51562 1.0781-1.0781v-45.188c0-0.5625-0.51562-1.0781-1.0781-1.0781zm45.188 70.5h-45.188c-13.359 0-24.234-10.875-24.234-24.234v-45.188c0-13.359 10.875-24.234 24.234-24.234h45.188c13.359 0 24.234 10.875 24.234 24.234v45.188c0 13.359-10.875 24.234-24.234 24.234z" fill-rule="evenodd"/>
 <path d="m997.36 776.29c-0.5625 0-1.0781 0.51562-1.0781 1.0781v45.188c0 0.5625 0.51562 1.0781 1.0781 1.0781h45.188c0.5625 0 1.0781-0.51562 1.0781-1.0781v-45.188c0-0.5625-0.51562-1.0781-1.0781-1.0781zm45.188 70.5h-45.188c-13.359 0-24.234-10.875-24.234-24.234v-45.188c0-13.359 10.875-24.234 24.234-24.234h45.188c13.359 0 24.234 10.875 24.234 24.234v45.188c0 13.359-10.875 24.234-24.234 24.234z" fill-rule="evenodd"/>
 <path d="m747.98 890.53c-0.5625 0-1.0781 0.51562-1.0781 1.0781v45.188c0 0.5625 0.51562 1.0781 1.0781 1.0781h45.188c0.5625 0 1.0781-0.51562 1.0781-1.0781v-45.188c0-0.5625-0.51562-1.0781-1.0781-1.0781zm45.188 70.5h-45.188c-13.359 0-24.234-10.875-24.234-24.234v-45.188c0-13.359 10.875-24.234 24.234-24.234h45.188c13.359 0 24.234 10.875 24.234 24.234v45.188c0 13.359-10.875 24.234-24.234 24.234z" fill-rule="evenodd"/>
 <path d="m872.68 890.53c-0.5625 0-1.0781 0.51562-1.0781 1.0781v45.188c0 0.5625 0.51562 1.0781 1.0781 1.0781h45.188c0.5625 0 1.0781-0.51562 1.0781-1.0781v-45.188c0-0.5625-0.51562-1.0781-1.0781-1.0781zm45.188 70.5h-45.188c-13.359 0-24.234-10.875-24.234-24.234v-45.188c0-13.359 10.875-24.234 24.234-24.234h45.188c13.359 0 24.234 10.875 24.234 24.234v45.188c0 13.359-10.875 24.234-24.234 24.234z" fill-rule="evenodd"/>
 <path d="m747.98 1004.8c-0.5625 0-1.0781 0.51562-1.0781 1.0781v45.188c0 0.5625 0.51562 1.0781 1.0781 1.0781h45.188c0.5625 0 1.0781-0.51562 1.0781-1.0781v-45.188c0-0.5625-0.51562-1.0781-1.0781-1.0781zm45.188 70.453h-45.188c-13.359 0-24.234-10.875-24.234-24.188v-45.188c0-13.359 10.875-24.234 24.234-24.234h45.188c13.359 0 24.234 10.875 24.234 24.234v45.188c0 13.359-10.875 24.234-24.234 24.234z" fill-rule="evenodd"/>
 <path d="m872.68 1004.8c-0.5625 0-1.0781 0.51562-1.0781 1.0781v45.188c0 0.5625 0.51562 1.0781 1.0781 1.0781h45.188c0.5625 0 1.0781-0.51562 1.0781-1.0781v-45.188c0-0.5625-0.51562-1.0781-1.0781-1.0781zm45.188 70.453h-45.188c-13.359 0-24.234-10.875-24.234-24.188v-45.188c0-13.359 10.875-24.234 24.234-24.234h45.188c13.359 0 24.234 10.875 24.234 24.234v45.188c0 13.359-10.875 24.234-24.234 24.234z" fill-rule="evenodd"/>
 <path d="m997.36 890.53c-0.5625 0-1.0781 0.51562-1.0781 1.0781v45.188c0 0.5625 0.51562 1.0781 1.0781 1.0781h45.188c0.5625 0 1.0781-0.51562 1.0781-1.0781v-45.188c0-0.5625-0.51562-1.0781-1.0781-1.0781zm45.188 70.5h-45.188c-13.359 0-24.234-10.875-24.234-24.234v-45.188c0-13.359 10.875-24.234 24.234-24.234h45.188c13.359 0 24.234 10.875 24.234 24.234v45.188c0 13.359-10.875 24.234-24.234 24.234z" fill-rule="evenodd"/>
 <path d="m997.36 1004.8c-0.5625 0-1.0781 0.51562-1.0781 1.0781v45.188c0 0.5625 0.51562 1.0781 1.0781 1.0781h45.188c0.5625 0 1.0781-0.51562 1.0781-1.0781v-45.188c0-0.5625-0.51562-1.0781-1.0781-1.0781zm45.188 70.453h-45.188c-13.359 0-24.234-10.875-24.234-24.188v-45.188c0-13.359 10.875-24.234 24.234-24.234h45.188c13.359 0 24.234 10.875 24.234 24.234v45.188c0 13.359-10.875 24.234-24.234 24.234z" fill-rule="evenodd"/>
</svg>
