<?xml version="1.0" encoding="UTF-8"?>
<svg width="1200pt" height="1200pt" version="1.1" viewBox="0 0 1200 1200" xmlns="http://www.w3.org/2000/svg">
 <path d="m1082.2 1056.5c-3.375-7.875-7.0781-16.594-10.172-24-7.6406-18.094-15.234-36.188-22.781-54.375-2.625-6.2344-4.4531-12.562-6.6094-18.984-4.5938-13.781-10.078-27.281-16.5-40.266-10.219-20.625-23.156-39.562-36.609-58.219-12.516-17.391-24.844-34.875-34.125-54.281-12-25.125-17.859-52.266-21.75-79.781-4.4531-31.594-10.875-65.344-34.781-88.5-3.0469-2.9531-6.3281-5.625-9.8438-8.0156v-0.046875c-0.51562-0.84375-1.2188-1.6406-2.0625-2.25-35.812-25.406-81-7.3125-120.37-4.6875-12.141 0.79688-24.188 0.09375-35.812-3.7031-1.5-7.125-4.6875-13.875-10.312-18.75-11.156-9.7031-25.219-9.8906-39.188-9.4688-3.7969 0.09375-7.5938 0.28125-11.391 0.46875 25.547-17.906 46.078-43.312 60.469-71.203 8.5312-16.5 14.953-33.75 19.734-51.375 32.531-3.375 60.188-25.875 72.094-56.297 1.5469-3.9844 2.8594-8.1562 3.8438-12.469 17.062-1.7812 33.094-8.8594 45.984-20.203 0.9375-0.79688 1.7812-1.5938 2.6719-2.4375 3-2.9062 1.7812-9-2.625-9.7969-1.6406-0.28125-3.1875-0.75-4.6875-1.2656-20.156-7.125-24.844-34.172-26.625-52.875-1.3125-13.781-2.5781-27.469-5.8125-40.922-3.0938-13.125-7.5938-25.875-12.75-38.25-10.219-24.422-22.969-47.766-36-70.781-11.391-20.156-25.312-42-46.781-52.688-18.188-9-42.141-9.7969-58.453 2.8594-10.594-27.094-30.094-50.625-55.031-65.625-28.781-17.344-63.844-21.469-96.094-12.375-18.094 5.0625-34.781 14.156-48.984 26.438-3.5625 0.5625-7.125 1.2188-10.688 1.7812-23.438-3.8438-47.719 0.70312-68.25 12.75-20.719 12.188-36.094 31.594-44.812 53.812-4.5 11.531-6.9844 23.812-7.4062 36.094-24.188 12.281-40.875 37.406-45.938 63.75-2.7188 14.156-2.4375 28.969 1.875 42.75 4.9688 15.891 15.891 31.453 15.328 48.656-0.09375 3.75-1.2188 7.2188-2.0625 10.828-0.84375 3.5625-1.5938 7.2188-2.2031 10.828-1.0312 5.9062-2.0625 12-2.4375 18.047-10.5 1.9688-20.062 7.7344-25.172 17.812-8.4844 16.734-1.9688 36.375 7.6406 51.141 10.031 15.469 24.375 29.906 40.781 38.438 16.594 8.625 36.75 11.016 54 3.5625 7.8281 20.531 17.906 40.172 30.562 58.125 14.625 20.812 32.719 38.719 53.672 53.156 3.4219 2.3438 6.9375 4.5938 10.5 6.75-2.0625-0.23438-4.0781-0.375-6.0938-0.375-18.469-0.32812-36.047 9.6562-40.312 28.5-0.23437 0.98438-0.42187 1.9688-0.5625 3-8.8125 1.5938-19.078 1.9219-28.406 2.8125-5.2969 0.5625-10.547 1.3125-15.844 1.9688-7.6875 0.9375-16.031 0.1875-23.859 0.14062-32.344-0.1875-64.734-2.25-97.031-0.9375-8.4375 0.375-16.922 1.5938-24.469 5.625-6.2812 3.375-11.344 8.625-15.188 14.531-7.6875 11.812-10.594 26.25-12.844 39.984-5.9062 36.703-13.031 73.125-21.938 109.22-18 72.797-42.469 144-73.219 212.39-1.875 4.2188-3.75 8.3438-5.7188 12.562-1.4062 2.9062-3.4688 6.0469-3.75 9.2812-0.14063 1.7812-0.14063 3.5625-0.1875 5.25-0.32813 9.1875-0.5625 18.281-0.75 27.469-0.28125 12.188-0.375 24.375-0.28125 36.562 0.09375 5.4375 0.1875 10.875 0.42187 16.266 0.1875 4.6406-0.375 11.531 2.5312 15.281l7.0312 9c1.6875 2.1562 2.9062 4.2188 5.7188 5.0625 2.1094 0.65625 4.4531 0.84375 6.6562 1.125 7.7344 0.84375 15.562 1.125 23.344 1.4062 30.328 1.125 60.656 1.2188 91.031 1.4062 44.25 0.1875 88.5 0.09375 132.71-0.09375 41.062-0.1875 82.078-0.46875 123.1-0.84375 10.5-0.09375 21.047-0.1875 31.547-0.28125 7.5469-0.09375 15.094-0.14062 22.641-0.1875 6.8438-0.09375 13.594-0.09375 20.438-0.1875 15-0.09375 29.953-0.28125 44.953-0.42188 20.203-0.1875 40.406-0.42188 60.562-0.65625 2.8594 0 5.7188-0.09375 8.5781-0.09375 46.125-0.51562 92.156-1.0312 138.28-1.5469 9.5625-0.09375 19.125-0.1875 28.688-0.32812h0.28125c0.1875 0 0.375 0 0.5625-0.046875 1.3125-0.09375 2.3438-0.5625 3.0938-1.3125 0.09375-0.09375 0.23438-0.1875 0.32812-0.28125s0.14062-0.14062 0.1875-0.23438c1.0312-1.0312 1.5938-2.4375 1.5938-3.9844v-16.219c19.125 4.8281 38.156 9.6562 57.281 14.531 18.094 4.5938 36.188 9.1875 54.281 13.781 17.344 4.4062 35.438 8.625 53.531 6.9375 14.625-1.3594 29.062-6.375 40.125-16.266 11.344-10.125 16.875-24.844 17.156-39.891 0.375-15.281-4.125-30.188-10.078-44.062zm-327.52-182.26c-1.6875 1.5-3.375 3.0938-4.9688 4.7344-5.2969 5.3438 3 13.688 8.2969 8.25 0.09375-0.09375 0.23438-0.23438 0.375-0.375 9.6562 5.8594 19.312 11.625 29.016 17.484-3 6.8438-5.9531 13.688-9 20.578-7.9688-5.3906-15.891-10.828-23.906-16.125-8.0625-5.3438-18.141-10.312-27.938-6.5156-8.9062 3.4219-14.906 12.469-11.109 21.938 1.6406 4.125 4.9219 7.2188 6.6094 11.25 1.2188 2.9062-0.09375 5.5781-2.2969 7.6875-4.6875 4.4062-11.25 4.4062-17.719 3.5625 0.14062-20.531-4.3125-40.969-4.5938-61.5 18.094-3.2812 34.781-12.562 46.594-26.812 13.219-15.938 19.547-36.703 17.25-57.328-0.28125-2.625-0.70312-5.2031-1.2188-7.7812 6.1875 13.688 12.656 27.234 19.266 40.688 3.0469 6.1875 6.0938 12.422 9.2812 18.562-12.469 5.3438-23.953 12.562-34.031 21.656zm68.531 190.82c-0.70312-0.28125-1.5-0.375-2.4375-0.375-39.75 2.2031-77.578 18.703-117.47 18.797h-1.125c-15.375-0.09375-31.219-2.5312-45.094-9.4688-0.9375-0.46875-1.8281-0.9375-2.7188-1.4531-13.922-7.6875-24.469-19.969-29.344-35.25-4.6875-14.812-4.4062-31.594 2.4375-45.75 6.75-13.969 19.078-25.219 33.562-30.844 7.5-2.9062 15.375-4.5 23.391-4.4062 3.4688 0 6.9375 0.46875 10.406 0.9375 6.5625 0.89062 13.125 1.9688 19.875 0.89062 8.4844-1.3125 17.438-7.7812 19.266-16.594 0.98438-4.7344 0-9.2812-2.4375-13.453-1.6875-2.9062-4.8281-5.8594-5.4375-9.2812-0.375-2.3438 1.6875-4.3125 3.9844-5.3438 3.375-1.5 7.125-0.75 10.359 0.65625 4.2188 1.7812 8.0625 4.6406 11.812 7.2188 4.6875 3.1875 9.375 6.3281 14.062 9.4688 3.6562 2.4375 7.2188 4.875 10.875 7.3125 14.953 10.125 29.906 20.25 44.859 30.328l9.5625 6.4688c1.2188 30.234-1.5938 60.562-8.4375 90.094zm-255.19 69.938c-8.4375-32.344-20.812-63.656-36.375-93.234-15.656-29.812-34.5-57.844-55.406-84.188-9.75-12.281-19.969-24.188-30.609-35.672 24.844-6.9375 46.641-24.469 58.594-47.297 0.75-1.4531 1.5-2.9062 2.1562-4.4062 1.875-4.125-0.375-8.5312-5.0625-8.8125-1.5938-0.09375-3.2344-0.1875-4.8281-0.28125-18.469-1.2188-36.891-2.3438-55.359-3.5625 4.0781-14.203 5.9062-29.25 8.0625-43.781 2.9531-20.062 5.4375-40.266 9.0938-60.188 1.4062-7.5 4.5-29.391 7.1719-40.125 3.0469 1.5469 6.2812 2.625 9.6562 3.3281 11.109 2.25 21.469 0.1875 31.219-3.8906-0.046875 0.9375 0.1875 1.9688 0.75 3.0469 27.422 48.75 46.312 101.91 58.875 156.28 8.25 35.531 13.688 71.719 16.5 108.09 1.6406 20.953 2.3438 42 2.1562 63.047-0.28125 30.609-2.5312 61.266-7.2188 91.547-3.1406 0.046875-6.2812 0.09375-9.4688 0.09375zm22.688-189.89c-6.1875-50.531-17.438-100.59-34.5-148.64-10.594-29.812-23.438-58.875-38.906-86.484-0.42188-0.75-0.9375-1.3125-1.5-1.7812 5.8594-3.2812 11.531-7.125 16.969-10.969 0.046875 0 0.09375-0.09375 0.14062-0.09375 4.7344 6.375 12.188 10.078 20.766 8.6719 10.359-1.7344 17.719-10.219 26.719-14.812 9.7969-5.0156 21.75-4.2188 32.203-2.0625 1.875 0.375 3.7031 0.84375 5.5312 1.2656 10.594 2.6719 21.047 6.3281 31.969 7.5938 6.0938 0.70312 12.188-0.23438 17.016-4.2188 0.65625-0.5625 1.3125-1.125 1.875-1.7812 8.5312 4.125 17.719 7.9688 27.047 9.1875-5.6719 17.484-7.9219 36.094-14.25 53.344-1.4062 0.65625-2.9062 1.2656-4.4062 1.8281-7.125 2.6719-13.688 2.4375-21.094 1.125-7.2188-1.2188-14.156-2.25-21.422-1.0781-11.859 1.9219-24.141 10.078-26.906 22.406-1.875 8.3438 0.46875 17.953 6.2812 24.188-3.0469 2.8125-4.3125 6.9375-4.5 11.062-0.375 8.625 3.5156 18 7.1719 25.594 3.9375 8.1562 9.2812 15.656 15.609 22.125 0.84375 0.89062 1.7812 1.7812 2.6719 2.5781-16.781 25.734-34.594 51.75-44.438 81zm-4.5469-278.06c0.60938 2.8125 3.75 4.5938 6.4688 4.2188 0.23438-0.046874 0.46875-0.09375 0.70312-0.14062 3.1875-0.89063 4.7344-4.125 4.125-7.2188-3.1875-15.281-2.0625-31.031 2.9531-45.844 0-0.09375 0.046875-0.09375 0.046875-0.1875 4.875-0.51563 9.75-1.2656 14.625-2.25 9.7031-1.9688 19.031-4.9688 27.844-8.8594 0.375-0.14062 0.79688-0.28125 1.2188-0.375l0.5625 0.5625c3.4688 3.2812 7.3594 6.0938 10.594 9.5625 6.2344 6.6562 9.2812 16.031 10.125 25.031 1.0312 11.016 0 22.734-1.9688 33.609-0.42188 2.2969-0.9375 5.1562-2.2031 7.3594-0.5625 1.0312-1.3125 1.875-2.25 2.5781-3.2812 2.25-8.3438 1.1719-11.953 0.46875-6.75-1.3125-13.5-3.2812-20.297-5.0625 8.8125-14.062 13.219-30.844 12.469-47.438-0.1875-3.1875-2.625-5.8594-5.8594-5.8594-3.0938 0-6 2.6719-5.8594 5.8594 0.70312 15.141-3.2812 29.906-11.531 42.656-0.42188 0.60937-0.65625 1.3125-0.75 2.0625-7.4062-1.5938-14.812-2.5312-22.312-1.9219-3.4688 0.28125-6.9375 0.84375-10.406 1.875-9.6562 2.8125-16.594 9.4688-25.172 14.344-2.8125 1.5938-6.0469 3.0469-9.2812 2.3906-2.8125-0.5625-5.0156-2.5312-6.5156-4.9219-0.51562-0.79687-0.9375-1.6406-1.3125-2.4844-2.0156-4.9219-1.5938-10.594-1.125-15.75 0.60938-6.6094 1.4062-13.219 2.1562-19.781 1.3125-11.719 2.5781-23.484 3.8906-35.25 0.375-0.375 0.65625-0.84375 0.89062-1.3125 13.781 3 27.797 4.4062 41.859 4.0312-4.5938 15.656-5.1094 32.25-1.7812 48.281zm162.24 157.5c-3.9375 16.594-14.484 30.938-28.875 39.938-4.5469 2.8594-9.4688 5.25-14.531 6.9375 4.7812-14.25 3.8438-30.188-3.3281-43.688 0 0 0-0.046874-0.046875-0.09375 4.7812-2.6719 9.375-5.7188 13.641-9 12.234-9.4688 22.312-21.516 29.719-35.156 5.3438 12.844 6.6562 27.328 3.4688 41.016zm-80.438-27.234c-0.375 0-0.65625 0-0.98438 0.09375 0 0-0.09375-0.046876-0.09375 0 0.84375-0.9375 1.6875-1.7812 2.625-2.625 2.5781-2.25 5.2969-4.2656 8.2031-6.0938 6.0938-3.8438 12.656-6.75 19.594-8.625 2.8125-0.75 5.7656-1.5938 8.625-1.6875-0.42188 0.65625-0.84375 1.3125-1.0312 1.5-4.3125 5.25-9.5625 9.375-15.562 12.469-6.6094 3.375-13.969 5.0156-21.375 4.9688zm29.062 4.1719c4.125-2.2969 8.0625-5.1562 11.531-8.4375-0.09375 0.9375-0.14062 1.7812-0.23438 2.6719-0.28125 2.8594-0.51562 4.4531-1.0781 7.5-0.51562 2.7188-1.125 5.4375-1.8281 8.1562-3.375 2.4375-6.8438 4.6406-10.5 6.6562-3.5625-4.2188-7.7812-7.875-12.469-10.781 5.0625-1.2656 9.9375-3.1875 14.531-5.7656zm10.406-23.109c0.09375 0 0.1875 0 0.1875 0.046874 0 0.046876-0.09375 0-0.1875-0.046874zm12.188 20.531c0.84375-6.6562 1.0781-13.406 0.70312-20.062-0.09375-1.7812-0.9375-3.5156-2.2969-4.5938-1.0781-3.5625-4.0781-6.4219-8.0625-7.2188-5.1562-1.0312-10.875 0.46875-15.844 1.7812-2.9062 0.75-5.8125 1.6875-8.625 2.8125-6.8438 2.625-13.312 6.2812-19.125 10.688-4.6406 3.5156-10.406 7.6406-11.906 13.594-0.1875 0.75-0.28125 1.5-0.28125 2.2031-8.1562-0.70312-16.359-0.375-24.562 0.23438-0.46875-0.28125-0.9375-0.46875-1.5-0.60938-7.0312-1.5-10.594-9.8438-8.7656-16.641 2.2031-8.3438 11.953-13.125 20.25-13.688 6.0469-0.375 11.906 1.125 17.812 1.9688 6.8438 1.0312 13.5 1.1719 20.156-0.9375 1.9688-0.60938 3.8438-1.3594 5.7656-2.1562 1.5938-0.65625 3.2344-1.4062 4.8281-2.1562 6.6562-3 13.219-6 20.766-5.8594 10.594 0.1875 21.234 5.625 27.188 14.438 0.23438 0.375 0.46875 0.65625 0.75 0.9375-4.3594 9.2812-10.266 17.812-17.344 25.219zm-72.562 59.859c-11.438-9.1406-20.156-21.75-24.281-36.469-0.79688-2.8594-1.875-6.1875-1.3125-9.1875 0.42188-2.4375 2.5312-2.5781 5.0625-2.8125 8.4375-0.70312 17.016-1.2656 25.5-0.65625 3.1875 0.1875 6.375 0.65625 9.4219 1.4062 11.016 2.5781 20.812 8.4844 27.375 18.234 8.5312 12.656 9.6562 28.781 3.4219 42.516-2.0625-0.09375-4.2656 0.79688-5.4375 2.625-14.719-1.0781-28.5-6.75-39.703-15.656zm97.781-93.984c-7.125-9.375-17.719-15.797-29.391-17.625-6.2344-0.9375-12.562-0.75-18.656 0.9375-0.28125 0.09375-0.60938 0.1875-0.9375 0.28125 4.5938-15.75 6.9375-32.156 12.469-47.578 3.375-0.5625 6.6562-1.6875 9.9375-3.375 0.75-0.375 1.4062-0.75 2.0625-1.2188 3.5156 10.969 13.031 33.281 15.328 39.516 3.75 10.125 7.875 20.062 12.094 30-0.9375-0.65625-1.9688-0.89063-3-0.84375zm-71.438-161.58c10.359-0.46875 22.5-2.1562 32.344 2.0156 5.4844 2.3438 9.9844 6.4688 12.094 12.094 1.0312 2.8125 1.6406 5.6719 2.0156 8.5781 0.60938 4.5 0.65625 9.0938 1.0312 13.547 1.125 13.5 7.125 32.531-3.375 43.969-3.6562 3.9844-8.8594 5.8125-14.156 6.1875h-0.09375c-1.7812 0.14062-3.5625 0.09375-5.25 0-8.4375-0.70313-16.406-4.5-23.906-8.25 0.09375-0.32813 0.1875-0.65625 0.28125-1.0312 1.3125-5.8125 1.7812-11.906 2.3438-17.812 0.65625-6.5625 1.0312-13.219 0.51562-19.875-0.98438-12.75-5.0625-25.781-14.297-35.062-1.3125-1.3125-2.7656-2.5312-4.2188-3.6562 4.8281-0.375 9.75-0.51563 14.625-0.75zm138.42-196.69c-4.7344 13.594-13.125 25.641-24.281 34.734-9.8438 8.0625-22.031 13.594-34.688 15.656 6-26.531 8.5781-53.906 9.0938-81.234 6.1875-11.625 13.875-23.766 27.375-27.375 5.1094-1.3594 10.688-1.4062 15.375 0.9375 5.7656 2.8594 8.7188 8.6719 10.219 14.625 2.4375 9.5625 2.25 19.875 0.375 29.719-0.84375 4.4062-2.0625 8.7656-3.4688 12.891zm-491.06-125.58c-5.4375-13.172-8.2031-26.25-6.8438-40.547 1.2188-12.797 5.7188-25.359 12.469-36.281 7.6875-12.375 18.562-22.406 31.875-28.5 1.8281-0.84375 2.9062-3.1875 2.9062-5.0625 0.09375-28.875 13.031-57.375 35.438-75.844 11.016-9.0938 24.375-15.281 38.25-18.281 7.0312-1.5469 14.25-2.2031 21.469-1.9688 5.625 0.1875 11.531 1.875 17.062 0.9375 3.6562-0.60938 7.4531-1.0312 11.062-1.875 2.7656-0.65625 4.7812-3.1406 6.9375-4.875 2.8125-2.3438 5.8125-4.5 8.8125-6.4688 11.859-7.7812 24.984-13.359 38.812-16.5 27-6.0938 55.5-2.0625 79.406 11.906 24.188 14.156 42.938 36.938 52.5 63.234 0.65625 1.7344 1.2188 3.5156 1.7812 5.2969 1.1719 3.8438 6.8438 6.1875 9.75 2.625 0.9375-1.125 1.875-2.1562 2.9062-3.0938 12.516-11.766 32.109-12 47.344-4.7344 20.578 9.8438 33.281 30.938 44.016 50.062 12.516 22.359 25.125 44.953 34.875 68.719 4.9688 12.094 9.1875 24.562 12.188 37.312 3.0469 13.031 4.0312 26.25 5.3906 39.516 1.4062 14.203 3.75 28.594 11.203 41.062 4.4531 7.4062 10.688 14.109 18.375 18.141-9.0938 6.6562-19.688 11.109-30.844 12.703 0.9375-8.9531 0.5625-18-1.4531-26.625-1.9688-8.2969-6.1875-16.031-13.219-21-5.9531-4.125-13.688-5.625-20.766-4.7812-8.8125 1.0312-17.062 4.6875-23.719 10.594-2.4375 2.1562-4.6875 4.5938-6.75 7.2188-0.09375-4.2188-0.1875-8.4375-0.375-12.656-0.1875-6.4688-0.5625-12.938-0.89062-19.453 11.156-2.8125 21.422-8.1562 30.281-15.469 2.4375-1.9688 2.0625-6.1875 0-8.25-2.4375-2.4375-5.8594-2.0156-8.2969 0-8.4375 6.8906-18.797 11.531-29.625 13.406-6.9844 1.2188-14.156 1.3125-21.047 0.1875-17.062-2.9062-32.156-13.031-41.906-27.281-5.4375-7.9688-9.0938-16.688-11.016-26.062-0.14062-0.46875-0.23438-1.0312-0.32812-1.5-1.2188-6.5156-11.812-4.9688-11.531 1.5469v1.5938c-0.1875 17.25-16.031 31.406-32.953 31.969-20.906 0.65625-38.625-14.156-49.875-30.469-6.1875-9-11.203-18.797-15.844-28.734-0.75-1.5938-1.5-3.2344-2.25-4.8281-1.9219-4.2656-7.9219-3.375-10.078 0s-5.8125 4.5469-9.6562 4.5c-3.9375-0.09375-8.25-1.5938-11.391-4.2656-8.7188-7.5-10.922-20.625-12.844-31.5l-0.28125-1.5469c-1.125-6.4688-12.047-5.0625-11.531 1.5469 0.046875 0.51562 0.09375 1.0312 0.09375 1.5938 3.3281 48.656-21.281 98.156-61.688 125.39-9.0938 6.0938-18.75 10.969-29.062 14.438 1.1719-12.938 2.3438-25.781 3.4688-38.719l0.14062-1.5469c0.5625-6.5156-10.547-8.1094-11.531-1.5938-0.09375 0.5625-0.1875 1.0312-0.28125 1.5938-0.75 4.0781-1.875 7.7812-4.0312 11.25-1.9219 3.0469-4.5 5.3438-7.6875 7.2188-5.5781 3.2344-12.375 4.5938-19.219 5.2031 0.14062-4.2656 0.375-8.5312 0.65625-12.797 0.46875-6.75 1.0312-13.5 1.7344-20.203 0.375-3.1406-2.9062-5.8594-5.8594-5.8594-3.4688 0-5.5312 2.6719-5.8594 5.8594-1.4062 12.891-2.25 25.875-2.625 38.953-0.5625 19.969 0.09375 40.078 2.25 59.953-11.203-11.344-24-22.453-39.891-25.312-1.8281-0.32812-3.6562-0.5625-5.5312-0.65625 0.65625-10.219 3.0938-20.344 5.5312-30.188 4.2188-17.531-4.125-34.031-10.594-49.781zm27.188 180.24c-14.859-6.1875-26.953-17.812-36.844-30.234-8.4375-10.594-16.969-26.062-13.922-40.031 2.4844-11.344 12-17.297 22.641-18.281 2.1094-0.1875 4.2656-0.1875 6.4219 0 17.531 1.5938 31.125 16.734 42.516 28.594 1.4062 1.4531 3 1.9219 4.5 1.7812 2.7188 18.141 6.7969 36.094 12.375 53.531l1.6875 5.0625c-12.375 5.625-26.859 4.8281-39.375-0.42188zm93 75.469c-16.406-19.875-29.109-43.172-38.344-67.219-0.65625-1.6406-1.2188-3.2812-1.8281-4.9688 0-1.5-0.5625-3.0469-1.5-4.2188-7.3125-21.141-12.281-43.031-15.188-65.203-2.7656-20.625-3.8438-41.531-3.4688-62.344 9.0469-0.75 18.281-2.4375 26.062-7.1719 1.0312-0.60937 1.9688-1.3125 2.9062-2.0156-0.46875 5.3438-0.9375 10.734-1.4531 16.125-0.1875 1.9688-0.375 4.0312-0.5625 6-0.375 3.8906 4.0312 6.5156 7.4062 5.625 1.5938-0.42188 3.1875-0.84375 4.7812-1.3125 49.266-14.719 86.812-59.25 98.812-108.56 1.0312-4.125 1.8281-8.25 2.4844-12.375 2.4375 3.75 5.4844 7.0312 9.375 9.6562 8.6719 5.8594 20.438 6.75 29.016 1.5 9.5625 20.25 21.328 40.266 40.547 52.688 10.078 6.5625 22.219 10.781 34.359 10.406 11.344-0.375 21.844-4.7812 30.281-12.375 3.7031-3.375 6.8438-7.3125 9.2344-11.719 5.7656 12.234 14.625 22.969 25.594 31.031 14.344 10.5 32.109 14.906 49.594 13.312 0.9375 16.734 1.4531 33.656 1.2188 50.531-0.46875 29.109-3.1875 58.172-10.172 86.25-0.75 1.1719-1.125 2.5781-1.0312 3.9375-2.9062 11.062-6.5156 21.984-10.922 32.672-16.5 40.266-45.516 78.188-85.312 97.125-3.1406 0.1875-6.2344 1.6875-9 3.6562-0.1875 0.09375-0.32812 0.23438-0.46875 0.375-1.9219 0.75-3.8438 1.4062-5.8594 2.0625-11.156 3.6562-22.594 5.8125-34.078 6.6094-17.344 1.2188-34.875-0.70313-51.75-5.1094-16.219-4.2188-31.922-10.781-46.406-19.125-20.719-11.906-39.188-27.469-54.422-45.938zm17.156 72.188c5.1562-4.6875 12.516-6.6562 19.312-6.8438 10.406-0.375 20.531 2.8125 30.375 5.8594 8.5312 2.625 17.109 5.2031 25.641 7.7812-1.3125 11.719-2.5781 23.438-3.8438 35.156-0.75 6.75-1.5938 13.594-2.25 20.344-0.46875 5.0625-0.5625 10.406 0.5625 15.422-0.375 0.09375-0.79688 0.32813-1.1719 0.5625-12.797 9-27.047 19.406-43.453 18.891-4.9688-0.1875-10.266-1.4062-14.625-4.0781-0.98438-0.60937-1.9219-1.3125-2.8125-2.0625-5.9062-5.25-7.6406-12.984-9.0938-20.438-1.7812-9.2344-3.4688-18.469-4.9219-27.797-1.2188-7.9688-2.3438-16.125-1.8281-24.188 0.46875-6.9375 2.7188-13.781 8.0625-18.562zm52.688 526.69c-27.938-35.812-68.344-59.016-110.58-74.25-34.266-12.375-70.312-19.875-106.5-23.766-4.6875-0.46875-9.375-0.9375-14.109-1.3125 8.8594-36.188 16.406-72.75 21.375-109.69 4.5-33.562 7.125-67.406 10.078-101.16 2.1562-24.281 4.5469-48.469 7.3125-72.656 0.375-3.1875-2.9531-5.8594-5.8594-5.8594-3.4688 0-5.4844 2.6719-5.8594 5.8594-4.5 39.281-7.7344 78.703-11.297 118.12-3 33.188-6.9375 65.859-13.125 98.625-4.125 21.938-9 43.688-14.344 65.344-0.46875 1.7812-0.89062 3.5625-1.3125 5.3438-0.9375 3.75 1.7812 7.3125 5.625 7.4062 1.7812 0.046875 3.5625 0.14062 5.3438 0.28125 3.8438 0.23438 7.6875 0.5625 11.531 0.9375 2.8125 0.28125 5.625 0.5625 8.4375 0.9375 1.6406 0.1875 3.2812 0.375 4.9688 0.5625 0.75 0.09375 1.4531 0.1875 2.1562 0.28125 0.23438 0 0.46875 0.046875 0.70312 0.09375h0.46875c0.28125 0.046875 0.75 0.09375 0.89062 0.09375 7.9688 1.125 15.891 2.3906 23.812 3.8906 40.781 7.6875 81 20.109 116.67 41.25 18.047 10.688 34.922 23.812 48.656 39.703-55.641 0.46875-111.28 0.79688-166.97 0.89062-45.938 0.09375-91.922 0.14062-137.9-0.70312-13.922-0.23438-27.891-0.51562-41.766-1.3125-3.9375-0.23438-7.8281-0.51562-11.719-0.9375h-0.28125s-0.1875 0-0.28125-0.046875c-0.375-0.09375-0.75-0.14062-1.0781-0.1875-0.375-0.375-0.75-0.84375-0.89063-0.98438-2.25-2.8594-4.5-5.7188-6.7031-8.5312-1.2656-13.875-1.125-27.891-0.98438-41.766 0.09375-14.625 0.46875-29.25 0.9375-43.828 0.09375-2.5781 0.1875-5.1562 0.28125-7.6875 37.688-80.578 66.938-165.1 86.953-251.72 5.0625-21.938 9.5156-43.969 13.406-66.094 3.0938-17.719 4.1719-37.406 11.812-54 3.0938-6.7031 7.4062-12.938 13.875-16.688 8.9531-5.25 20.062-4.5938 30.094-4.6875 18.938-0.1875 37.922 0.1875 56.812 0.60937 19.5 0.46875 41.25 1.7812 59.625-0.5625 12.281-1.5469 24.938-1.6875 37.266-3.6094 0.09375 3.8438 0.46875 7.7344 0.9375 11.578 1.4062 10.688 3.2812 21.328 5.25 31.969 1.7812 9.5156 3.4219 19.312 9.5625 27.094l1.125 2.25c-5.625 16.219-9.8438 52.219-12.328 69.094-3 20.062-5.4375 40.266-9.0938 60.188-1.2188 6.6562-2.5781 13.406-4.4531 19.969-0.51562 1.8281-1.0781 3.6562-1.6875 5.4375-1.3125 3.8438 2.1094 7.2188 5.625 7.4062l5.3438 0.375c17.766 1.125 35.531 2.25 53.297 3.375-12.75 21.281-34.453 36.188-59.156 40.266-4.5938 0.75-5.3438 6.8906-2.5781 9.7969 1.125 1.2188 2.2969 2.4375 3.4219 3.6562 21.516 22.969 41.484 47.438 59.156 73.547 18.281 27.094 34.266 55.875 46.594 86.203 6.5156 16.031 12.047 32.438 16.5 49.172-15 0.1875-30.094 0.28125-45.094 0.42187zm83.625-152.9c0.70312-0.84375 1.1719-2.0156 1.2188-3.4219 1.0312-20.719 8.9531-40.406 18.469-58.5 9-17.062 19.688-33.094 30.188-49.266 12.188 8.4375 26.625 13.453 41.484 14.625 0.375 19.688 4.5 39.281 4.5938 58.969-8.3438-0.84375-16.781-0.09375-24.844 2.0156-17.203 4.5-32.531 15.094-42.844 29.531-10.172 14.297-14.203 32.578-12 49.875 2.25 17.719 10.219 34.547 23.719 46.406 4.4531 3.9375 9.2812 7.2188 14.438 9.9844-9.4688 16.875-17.062 34.688-26.531 51.562-11.062 0.09375-22.031 0.23438-33.094 0.32812 7.5-50.344 8.9062-101.44 5.2031-152.16zm64.594 106.08c0.1875-0.28125 0.28125-0.60938 0.42188-0.89062 7.5938 2.9531 15.562 4.9219 23.625 6.0469 4.7344 0.65625 9.4219 1.0312 14.062 1.1719-1.2188 13.734-5.6719 27-12.844 38.766-16.172 0.1875-32.344 0.375-48.562 0.51562 7.9688-15.094 14.906-30.703 23.25-45.609zm199.22 43.172c-52.594 0.5625-105.09 1.2188-157.69 1.7812h-2.7188c6.2344-12 9.9844-25.219 11.109-38.719 32.344-1.5 63.75-12.375 96-16.969 5.1094-0.75 10.266-1.2188 15.469-1.5-2.3906 8.9062-5.1562 17.625-8.25 26.297-1.0312 3 1.2188 6.4219 4.125 7.2188 1.7812 0.46875 3.5156 0.09375 4.8281-0.9375 12.375 3.1875 24.797 6.2812 37.172 9.4688v13.406zm219.94-16.969c-4.0781 12.562-14.531 21.75-26.719 26.25-14.719 5.4375-30.562 4.875-45.75 2.0625-17.344-3.1875-34.5-8.1562-51.562-12.516-29.531-7.5-59.062-15-88.594-22.5-5.9062-1.5-11.906-3-17.812-4.5-7.2188-1.8281-14.438-3.6562-21.656-5.5312 11.438-34.594 17.438-71.016 17.625-107.44 0-5.0625-0.046874-10.078-0.28125-15.094 1.125-2.0156 1.2188-4.5938-0.32812-6.6562-0.09375-1.2188-0.14063-2.4375-0.1875-3.6562 2.2969 0.60938 4.5938 1.2188 6.8906 1.7812h0.09375c29.062 7.5 58.125 15 87.141 22.453 7.3125 1.875 10.406-9.375 3.0938-11.297-27.844-7.1719-55.688-14.344-83.578-21.562-5.9062-71.25-9.8438-142.69-11.719-214.22-0.51562-20.578-0.89062-41.203-1.125-61.781-0.09375-7.5-11.812-7.5469-11.719 0 0.75 73.078 3.5625 146.16 8.5312 219.05 1.2188 18 2.5781 35.953 4.0312 53.906-2.2031-0.5625-4.4062-1.125-6.6094-1.6875-3.375-0.89062-7.7812 1.7344-7.4062 5.625 0.09375 0.89062 0.1875 1.7812 0.1875 2.625l-42.469-28.688 9.5625-21.938c0.65625-1.5938 1.4062-3.1406 2.0625-4.6875 1.2656-2.9062 0.84375-6.2344-2.1094-8.0156-1.6406-0.98438-3.2812-1.9688-4.9688-3-8.4375-5.0625-16.875-10.125-25.312-15.234 7.6875-6.1875 16.219-11.344 25.312-15.188 1.875-0.79688 3.75-1.5469 5.625-2.25 3.6562-1.3125 5.4375-5.0625 3.5156-8.625-0.84375-1.5938-1.7344-3.2344-2.5781-4.8281-8.0625-15.234-15.375-30.844-22.641-46.406-10.125-21.703-19.875-43.125-28.312-65.25-3.1875-8.3438-16.219-38.578-17.812-47.391-0.14063-0.75-0.46875-1.5-0.9375-2.0625 1.6406-2.7188 2.9062-5.6719 3.75-8.7188 2.5781-8.9531 1.7812-18.234 0.5625-27.375-0.79688-6.0938-1.1719-12.281-1.6875-18.422 39.703 10.406 79.734-10.594 119.91-5.1094 7.2188 0.98438 14.156 2.9531 20.578 6.0938 0.46875 0.98438 1.3125 1.875 2.5781 2.5312 27.562 13.969 38.438 44.953 43.688 73.406 2.9531 16.172 4.5 32.578 7.875 48.656 2.7188 12.984 6.375 25.781 11.203 38.156 7.875 20.344 18.797 39 31.312 56.812 12.281 17.531 25.266 34.5 36.141 52.969 6.375 10.828 12.141 22.078 17.062 33.656 2.6719 6.2812 5.1094 12.703 7.3594 19.219 1.875 5.4844 3.3281 11.156 5.3438 16.594 5.1562 13.922 11.484 27.516 17.25 41.203 4.2188 10.078 8.4844 20.156 12.75 30.188 3.7969 8.9062 7.9688 17.812 10.922 27.094 4.1719 13.219 6.375 27.844 1.9688 41.297z"/>
 <path d="m721.74 177.19c24.609 15.75 41.438 42.094 46.781 70.734 1.5 8.0625 1.875 16.266 1.4062 24.469-0.42188 7.5 11.297 7.5 11.719 0 1.875-32.156-10.594-64.5-32.719-87.797-6.375-6.6562-13.547-12.562-21.281-17.531-6.375-4.0781-12.281 6.0469-5.9062 10.125z"/>
 <path d="m651.71 370.82c21.281 8.8125 47.531-0.375 59.531-19.688 3.9844-6.375-6.1406-12.281-10.125-5.9062-9.5625 15.375-29.906 21.094-46.312 14.297-2.9062-1.2188-6.4688 1.3125-7.2188 4.125-0.9375 3.375 1.125 6 4.0781 7.2188z"/>
 <path d="m512.63 465.47c34.406 23.016 80.438 24.656 117.52 7.1719 10.5-4.9688 20.156-11.625 28.641-19.547 5.5312-5.1562-2.8125-13.453-8.25-8.2969-27.188 25.547-68.062 33.938-103.59 23.766-10.125-2.9062-19.594-7.3125-28.312-13.219-6.2812-4.2188-12.188 5.9531-5.9062 10.125z"/>
 <path d="m627.66 257.72c5.5312 5.1094 13.828-3.1406 8.25-8.2969-24.281-22.5-42.281-51.469-51.562-83.297-2.5781-8.8594-4.5938-17.953-5.7656-27.094-0.375-3.1406-2.3906-5.8594-5.8594-5.8594-2.8594 0-6.2812 2.6719-5.8594 5.8594 4.5938 35.391 18.562 68.719 40.594 96.844 6.0938 7.8281 12.891 15.141 20.156 21.891z"/>
 <path d="m513.05 376.69c-1.4531-2.4844-5.4844-4.0312-8.0156-2.1094-20.156 15.375-50.766 12.703-67.688-6.2812-5.0625-5.625-13.312 2.6719-8.2969 8.2969 20.062 22.5 57.844 26.438 81.891 8.1562 2.5312-1.9219 3.8438-5.0625 2.1094-8.0156z"/>
 <path d="m428.29 196.82c1.5469-26.016 21.281-49.359 46.453-55.688 7.3125-1.875 4.2188-13.172-3.0938-11.344-30.375 7.6875-53.203 35.906-55.031 67.031-0.42188 7.5469 11.297 7.5 11.719 0z"/>
 <path d="m433.03 897.74c0-3.375-2.6719-5.5781-5.8594-5.8594-1.3125-0.09375-2.625-0.23437-3.9375-0.28125-0.375-0.42187-0.75-0.79687-1.2188-1.125-23.625-17.203-50.25-30.281-78.281-38.578-1.875-0.5625-3.75-1.125-5.625-1.5938-3.6562-1.0312-7.4062 1.8281-7.4062 5.625 0 1.875 0 3.75-0.046875 5.625l-0.28125 37.688c-6.5156 1.5938-12.984 3.4219-19.406 5.4375-7.1719 2.2969-4.125 13.594 3.0938 11.344 8.1562-2.625 16.406-4.8281 24.75-6.6562 26.156-5.8594 53.062-7.9688 79.875-6.375 2.8125 0.1875 5.625 0.375 8.4375 0.65625 3.1406 0.28125 5.8594-2.9062 5.8594-5.8594zm-90.891-1.125c0.09375-10.969 0.1875-21.938 0.23438-32.953 20.812 6.375 40.641 15.469 59.062 27-19.875 0-39.797 1.9688-59.297 5.9062z"/>
</svg>
