<?xml version="1.0" encoding="UTF-8"?>
<svg width="1200pt" height="1200pt" version="1.1" viewBox="0 0 1200 1200" xmlns="http://www.w3.org/2000/svg">
 <path d="m373.08 639.52c18.844 10.359 37.969 16.312 57.141 18.797-4.2656 10.5-9.1875 20.719-15.188 30.234-5.9531 9.5156-18.938 17.156-17.766 33.469 0.89062 12.891 10.125 21.141 24.609 22.078 27.891 1.9219 36.797-25.688 53.391-29.203 31.359 84.047 84.188 121.45 131.16 174.37-41.625-10.453-82.219 13.922-72.75 42.656 4.2188 12.656 13.875 16.266 20.953 22.5-45.562 27.469 6.2812 93.844 87 42.188-12.375 37.922-30.047 66.516-53.672 87.047-6 5.2031 1.875 14.25 7.875 9.0469 28.359-24.609 48.516-59.719 61.641-107.25 2.0625-1.5938 4.7344-3.9844 6.6094-4.4531 20.719 46.641 25.125 86.719 13.922 129.37-2.0156 7.6875 9.6094 10.688 11.625 3.0469 10.734-40.969 8.1094-79.5-8.3906-122.58 16.172 11.484 36 22.453 56.016 22.734 36.609 0.79688 58.078-25.594 50.391-43.125-3.0469-7.125-7.6406-13.219-14.578-19.359 71.672-39.938-51.516-116.2-103.12-24.609 7.875-48.75 12.141-92.953 27.047-137.16 3.3281 5.0625 4.5938 9.0938 7.4062 14.156 9 16.266 29.062 30.188 48 27.984 21.516-2.4375 30.891-19.875 27.422-34.031l-12.797-51.844c85.734-10.172 167.34-35.578 231.24-94.406 100.55-92.297 108.33-262.13 54.422-344.86-29.859-48.141-81.609-77.906-153.84-88.547-10.781-1.5938-21.375-2.2031-31.5-1.875-7.8281 0.28125-7.7344 12.141 0.42188 12 9.375-0.32813 19.266 0.28125 29.344 1.7812 68.578 10.078 117.52 37.969 145.45 83.109 49.125 75.469 40.594 231.28-51.938 320.06-87.328 83.672-209.06 94.453-213.24 95.766-25.688 4.0781-54.844 8.7188-66.562-9.8438-20.672-33.094-38.672-73.453-48.891-114.14-1.9219-7.6875-13.594-4.7812-11.625 2.9531 9 35.578 21.75 66.188 38.719 97.172-5.6719 0.5625-9.5156 9.8906-38.719 25.5-9.8906 5.2969-24.938 5.3906-32.062 20.156-5.625 11.625-1.7812 23.391 10.359 31.406 21.469 14.25 42.562-1.6406 58.078 0.65625-15.797 45.141-20.531 92.109-28.078 139.55-8.8594-9.5156-18.328-17.203-28.172-22.922-47.438-60.609-104.53-92.766-140.44-179.68 3.4219 2.2969 5.625 3.9844 8.5781 5.7188 43.031 26.016 88.828-15.188 62.391-42.797l-30.469-31.828c80.25-24.844 162.94-106.45 215.58-171.94 42.656-53.203 97.875-135.1 84.844-231.24-7.1719-52.828-37.453-102.7-81-133.45-103.08-72.75-236.9-13.125-284.53 101.72-3.0469 7.3125 8.0625 11.953 11.062 4.5938 44.578-107.39 169.64-164.9 266.53-96.469 40.875 28.875 69.328 75.703 76.031 125.26 12.375 91.547-41.062 170.63-82.312 222.14-54.375 67.688-143.48 155.63-228.05 172.74-35.25 7.8281-73.359 3.2812-108.42-16.078-106.83-58.969-260.39-224.26-255.84-339.42 5.25-131.06 153-263.06 312.84-111.05 5.7188 5.4375 14.062-3.1875 8.25-8.7188-72.469-68.906-156-98.953-240.74-44.531-68.625 31.688-107.81 105.61-110.44 170.72-4.6875 119.62 152.34 286.13 258.79 344.72zm300.05 304.74c1.6406-1.5938 2.1562-2.2969 5.625-8.8125 34.547-64.641 111.33-37.125 102.56-10.125-3.0469 9.1875-13.125 16.781-26.906 20.344-7.5469 1.9688-4.875 13.453 3 11.625 5.8594-1.5 2.5781-1.4531 5.3906 0.84375 6.75 5.5781 10.875 10.547 13.547 16.5 3.0469 18.375-22.594 27.375-38.953 27-27.938-0.375-52.359-24.516-64.641-30.75-0.32812-0.75-0.65625-1.5-1.0312-2.25 3.1875-7.7344 3.7031-16.359 1.4062-24.375zm-37.922-172.45c-10.594-7.0312-7.2656-13.922-6.1875-16.219 4.4062-9.1406 16.453-9.1875 26.906-14.766 12.047-6.4219 34.594-21.516 38.391-26.719 3.4688 5.9531 3.9844 7.5938 7.5 12.609-5.25 6.6094-11.156 12.703-17.859 17.859-6.2812 4.8281 1.125 14.297 7.3125 9.5156 7.0781-5.4375 13.312-11.812 18.938-18.703 8.2969 6.0938 13.828 8.0625 17.438 9.0938 0.46875 10.312 2.0156 20.484 5.0625 30.375 2.3438 7.5938 13.828 4.0312 11.484-3.5625-2.4844-8.0156-3.75-16.312-4.3594-24.609 4.9219 0.375 10.031 0.375 15.234 0.046875 0.23438 1.9219 8.7656 35.906 13.078 53.625 1.9219 7.8281-3.3281 17.625-17.109 19.219-14.062 1.5938-29.625-10.125-36.141-21.891-3.4219-6.1406-8.4375-21.047-18.609-24.844-23.766-8.7188-43.406 10.688-61.078-1.0312zm24.188 198.14c-3 1.1719-4.5 2.25-11.25 7.7344-81 56.531-117.42 3.7969-88.922-12.047 1.7812-0.98437 5.9062-3.375 7.6406-7.1719 13.172 4.5 25.266 4.3594 23.672 4.1719 7.9219 0 7.9688-11.906 0.046875-12-14.859-0.14062-40.828-8.6719-45.422-22.5-6.6094-20.062 36.141-43.734 78.281-19.312 55.641 31.594 35.391 57.234 35.953 61.125zm-201.37-310.22c-1.2656 8.3906-3.375 16.688-6.6094 24.516-3.0469 7.3594 8.0625 11.906 11.062 4.5938 3.9375-9.5156 6.5625-19.5 7.875-29.672 4.3594 0.14062 1.2188 0.75 16.406-0.32812 5.9531 10.125 13.359 19.359 21.984 27.422 5.7656 5.3438 14.016-3.375 8.1562-8.7656-6.4219-6-11.859-12.844-16.688-20.156 17.297-2.625 9.5625-1.5 16.875-3.2812l35.062 36.656c15.188 15.844-15.047 43.828-47.531 24.234-7.5469-4.5938-14.109-11.25-24.656-12.234-22.688-3.2812-34.641 30.75-57.375 29.484-12.703-0.84375-13.266-8.4844-13.453-10.969-0.98438-13.828 13.969-11.578 33.422-61.547 5.25 0.23438 10.359 0.28125 15.469 0.046875z"/>
 <path d="m306.1 404.58c-7.4062-2.9531-11.812 8.2031-4.4531 11.156 24.516 9.7969 52.5 8.4844 76.078-2.7656 2.3438 12.188 7.125 27.234 19.125 36.375 19.5 14.812 48.469 6.75 64.453-10.922 12.562-13.875 18.75-32.203 23.156-48.844 10.688 11.484 42.516 43.031 59.625 44.578 27.141 2.4844 35.344-30.188 49.031-41.766 10.547-8.8594 27.703-8.9531 38.297-0.1875 6.0938 5.0625 13.781-4.1719 7.6406-9.2344-15.094-12.516-38.719-12.375-53.672 0.28125-14.297 12.047-22.266 40.219-40.266 38.953-13.875-1.2188-49.453-37.641-59.203-48.938-3.1406-3.6562-9.1875-2.2969-10.359 2.4844-4.5938 18.656-9.7969 39.797-23.156 54.609-11.953 13.172-34.172 20.156-48.281 9.4219-10.125-7.6875-13.641-22.359-15.328-33.094 50.531-33.516 51.375-106.97 23.297-120.52-35.297-17.203-40.688 77.625-36.281 114.28-21.141 11.156-47.531 13.031-69.703 4.125zm100.73-107.62c17.297 8.3906 19.219 65.906-19.734 96.188-2.5312-27.141 3.8906-103.92 19.734-96.188z"/>
 <path d="m271.55 682.82 7.8281-47.578c1.3125-7.875-10.547-9.7031-11.859-1.9688l-7.8281 47.578c-1.2656 7.8281 10.547 9.75 11.859 1.9688z"/>
 <path d="m212.02 675.61c11.953-17.859 25.172-35.109 39.281-51.234 5.25-6-3.8438-13.875-9.0469-7.875-14.438 16.5-27.984 34.172-40.172 52.453-4.5 6.6562 5.5781 13.172 9.9375 6.6562z"/>
 <path d="m225.24 592.36-55.219 21.375c-7.3125 2.8594-3.0938 14.109 4.3594 11.156l55.219-21.375c7.3125-2.8125 3.1875-13.969-4.3594-11.156z"/>
</svg>
