<?xml version="1.0" encoding="UTF-8"?>
<svg width="1200pt" height="1200pt" version="1.1" viewBox="0 0 1200 1200" xmlns="http://www.w3.org/2000/svg">
 <path d="m670 169.21c-9.1016-9.1055-21.156-14.66-33.992-15.66-12.836-1.0039-25.609 2.6172-36.012 10.199-10.406-7.582-23.18-11.199-36.016-10.195s-24.891 6.5625-33.988 15.672c-10.129 10.152-15.816 23.91-15.816 38.25 0 14.34 5.6875 28.098 15.816 38.25l63.645 63.719c1.6875 1.6914 3.9766 2.6406 6.3672 2.6406 2.3867 0 4.6797-0.94922 6.3672-2.6406l63.645-63.719c10.129-10.156 15.816-23.918 15.816-38.262-0.003907-14.344-5.6992-28.102-15.832-38.254zm-12.734 63.719-57.27 57.348-57.27-57.344v-0.003906c-6.7422-6.7734-10.527-15.941-10.527-25.5 0-9.5547 3.7852-18.723 10.527-25.5 6.75-6.75 15.906-10.543 25.453-10.543s18.707 3.793 25.457 10.543c3.5703 3.3867 9.1641 3.3867 12.734 0 6.75-6.75 15.906-10.543 25.453-10.543 9.5508 0 18.707 3.793 25.457 10.543 6.7383 6.7773 10.523 15.945 10.52 25.504-0.003907 9.5586-3.793 18.727-10.535 25.496z"/>
 <path d="m585.96 448.16c-20.867-4.1992-42.484-2.6914-62.566 4.3633-17.414 6.2109-36.191 7.5547-54.316 3.8867-18.281-2.75-35.469-10.438-49.707-22.23-16.457-13.504-36.254-22.312-57.301-25.5-20.867-4.207-42.484-2.6992-62.566 4.3633-17.41 6.207-36.184 7.5508-54.301 3.8867-18.277-2.75-35.461-10.438-49.691-22.23-16.453-13.504-36.242-22.312-57.285-25.5-3.5391-0.625-7.1055 0.91406-9.082 3.9102-1.9766 3-1.9805 6.8867-0.007812 9.8906l165.36 252.11c3.9609 5.9883 9.5547 10.715 16.125 13.617l-39.406 223.5-116.48 34.648v0.003906c-4 1.1875-6.6562 4.9727-6.418 9.1406 0.23828 4.168 3.3125 7.625 7.4258 8.3477l223.88 39.48c4.1133 0.73047 8.1875-1.4648 9.8398-5.3008 1.6523-3.8398 0.44922-8.3086-2.9102-10.793l-97.605-72.391 39.422-223.59h-0.003907c7.1562-0.46484 14.027-2.9688 19.801-7.2148l241.62-180.32c2.8789-2.1484 4.207-5.8008 3.375-9.2969-0.83203-3.4961-3.6602-6.1602-7.1992-6.7812zm-389.55 465.12 81-24.074 67.828 50.309zm301.96-403.27h-69.375c-4.9688 0-9 4.0312-9 9s4.0312 9 9 9h45.254l-136.86 102.14c-4.2891 3.1992-9.7148 4.4883-14.984 3.5625-5.2734-0.92969-9.9297-3.9922-12.871-8.4688l-63.777-97.23h129.24c4.9688 0 9-4.0312 9-9s-4.0312-9-9-9h-141l-76.844-117.16c9.9766 4.0469 19.301 9.5469 27.672 16.32 16.453 13.5 36.246 22.312 57.285 25.5 20.871 4.2031 42.484 2.6953 62.566-4.3672 17.41-6.207 36.184-7.5508 54.301-3.8828 18.285 2.75 35.469 10.434 49.711 22.23 16.453 13.5 36.25 22.312 57.297 25.5 20.871 4.1992 42.484 2.6914 62.566-4.3672 10.191-3.4922 20.84-5.4688 31.605-5.8633z"/>
 <path d="m1045.3 906.89-116.48-34.648-39.406-223.5v-0.003906c6.5703-2.9023 12.164-7.6289 16.125-13.621l165.38-252.1c1.9727-3.0039 1.9688-6.8906-0.007812-9.8906-1.9766-2.9961-5.543-4.5352-9.082-3.9102-21.043 3.1875-40.832 11.996-57.285 25.5-29.41 23.133-68.441 30.02-103.99 18.344-40.988-13.297-85.902-5.3789-119.87 21.137-29.418 23.141-68.465 30.027-104.02 18.344-20.082-7.0547-41.699-8.5664-62.566-4.3633-3.5391 0.61719-6.3711 3.2852-7.1992 6.7812-0.83203 3.4961 0.49219 7.1484 3.375 9.2969l241.61 180.32c5.7734 4.2461 12.645 6.75 19.801 7.2148l39.422 223.59-97.605 72.391h-0.003906c-3.3594 2.4844-4.5625 6.9531-2.9102 10.793 1.6523 3.8359 5.7266 6.0312 9.8398 5.3008l223.88-39.48c4.1133-0.72266 7.1875-4.1797 7.4258-8.3477 0.23828-4.168-2.418-7.9531-6.418-9.1406zm-373.79-437.12c40.988 13.297 85.906 5.3789 119.88-21.133 29.414-23.145 68.453-30.027 104.01-18.348 40.984 13.293 85.891 5.375 119.85-21.133 8.3711-6.7734 17.699-12.273 27.676-16.32l-76.891 117.16h-264.38l-61.754-46.094c10.766 0.39453 21.414 2.3711 31.605 5.8633zm54.27 58.23h228.49l-63.781 97.23h0.003907c-2.9375 4.4727-7.5898 7.5391-12.859 8.4648-5.2734 0.92969-10.691-0.35937-14.98-3.5586zm129 411.51 67.828-50.309 81 24.074z"/>
 <path d="m312 150h18c4.9688 0 9-4.0312 9-9s-4.0312-9-9-9h-18c-4.9688 0-9 4.0312-9 9s4.0312 9 9 9z"/>
 <path d="m366 150h18c4.9688 0 9-4.0312 9-9s-4.0312-9-9-9h-18c-4.9688 0-9 4.0312-9 9s4.0312 9 9 9z"/>
 <path d="m348 150c-4.9688 0-9 4.0312-9 9v18c0 4.9688 4.0312 9 9 9s9-4.0312 9-9v-18c0-4.9688-4.0312-9-9-9z"/>
 <path d="m348 132c4.9688 0 9-4.0312 9-9v-18c0-4.9688-4.0312-9-9-9s-9 4.0312-9 9v18c0 4.9688 4.0312 9 9 9z"/>
 <path d="m474 807h-18c-4.9688 0-9 4.0312-9 9s4.0312 9 9 9h18c4.9688 0 9-4.0312 9-9s-4.0312-9-9-9z"/>
 <path d="m528 807h-18c-4.9688 0-9 4.0312-9 9s4.0312 9 9 9h18c4.9688 0 9-4.0312 9-9s-4.0312-9-9-9z"/>
 <path d="m492 825c-4.9688 0-9 4.0312-9 9v18c0 4.9688 4.0312 9 9 9s9-4.0312 9-9v-18c0-2.3867-0.94922-4.6758-2.6367-6.3633s-3.9766-2.6367-6.3633-2.6367z"/>
 <path d="m492 807c4.9688 0 9-4.0312 9-9v-18c0-4.9688-4.0312-9-9-9s-9 4.0312-9 9v18c0 4.9688 4.0312 9 9 9z"/>
 <path d="m888 321h18c4.9688 0 9-4.0312 9-9s-4.0312-9-9-9h-18c-4.9688 0-9 4.0312-9 9s4.0312 9 9 9z"/>
 <path d="m942 321h18c4.9688 0 9-4.0312 9-9s-4.0312-9-9-9h-18c-4.9688 0-9 4.0312-9 9s4.0312 9 9 9z"/>
 <path d="m924 321c-4.9688 0-9 4.0312-9 9v18c0 4.9688 4.0312 9 9 9s9-4.0312 9-9v-18c0-2.3867-0.94922-4.6758-2.6367-6.3633s-3.9766-2.6367-6.3633-2.6367z"/>
 <path d="m924 303c4.9688 0 9-4.0312 9-9v-18c0-4.9688-4.0312-9-9-9s-9 4.0312-9 9v18c0 2.3867 0.94922 4.6758 2.6367 6.3633s3.9766 2.6367 6.3633 2.6367z"/>
 <path d="m1023 672c-4.9688 0-9 4.0312-9 9s4.0312 9 9 9h18c4.9688 0 9-4.0312 9-9s-4.0312-9-9-9z"/>
 <path d="m1095 672h-18c-4.9688 0-9 4.0312-9 9s4.0312 9 9 9h18c4.9688 0 9-4.0312 9-9s-4.0312-9-9-9z"/>
 <path d="m1059 690c-4.9688 0-9 4.0312-9 9v18c0 4.9688 4.0312 9 9 9s9-4.0312 9-9v-18c0-2.3867-0.94922-4.6758-2.6367-6.3633s-3.9766-2.6367-6.3633-2.6367z"/>
 <path d="m1050 645v18c0 4.9688 4.0312 9 9 9s9-4.0312 9-9v-18c0-4.9688-4.0312-9-9-9s-9 4.0312-9 9z"/>
 <path d="m123 600h-18c-4.9688 0-9 4.0312-9 9s4.0312 9 9 9h18c4.9688 0 9-4.0312 9-9s-4.0312-9-9-9z"/>
 <path d="m159 618h18c4.9688 0 9-4.0312 9-9s-4.0312-9-9-9h-18c-4.9688 0-9 4.0312-9 9s4.0312 9 9 9z"/>
 <path d="m150 627c0-4.9688-4.0312-9-9-9s-9 4.0312-9 9v18c0 4.9688 4.0312 9 9 9s9-4.0312 9-9z"/>
 <path d="m141 564c-4.9688 0-9 4.0312-9 9v18c0 4.9688 4.0312 9 9 9s9-4.0312 9-9v-18c0-2.3867-0.94922-4.6758-2.6367-6.3633s-3.9766-2.6367-6.3633-2.6367z"/>
 <path d="m762 1050h-18c-4.9688 0-9 4.0312-9 9s4.0312 9 9 9h18c4.9688 0 9-4.0312 9-9s-4.0312-9-9-9z"/>
 <path d="m816 1050h-18c-4.9688 0-9 4.0312-9 9s4.0312 9 9 9h18c4.9688 0 9-4.0312 9-9s-4.0312-9-9-9z"/>
 <path d="m780 1068c-4.9688 0-9 4.0312-9 9v18c0 4.9688 4.0312 9 9 9s9-4.0312 9-9v-18c0-4.9688-4.0312-9-9-9z"/>
 <path d="m771 1023v18c0 4.9688 4.0312 9 9 9s9-4.0312 9-9v-18c0-4.9688-4.0312-9-9-9s-9 4.0312-9 9z"/>
 <path d="m132 213c0 4.9688-4.0312 9-9 9s-9-4.0312-9-9 4.0312-9 9-9 9 4.0312 9 9"/>
 <path d="m294 321c0 4.9688-4.0312 9-9 9s-9-4.0312-9-9 4.0312-9 9-9 9 4.0312 9 9"/>
 <path d="m798 843c0 4.9688-4.0312 9-9 9s-9-4.0312-9-9 4.0312-9 9-9 9 4.0312 9 9"/>
 <path d="m1050 987c0 4.9688-4.0312 9-9 9s-9-4.0312-9-9 4.0312-9 9-9 9 4.0312 9 9"/>
 <path d="m816 159c0 4.9688-4.0312 9-9 9s-9-4.0312-9-9 4.0312-9 9-9 9 4.0312 9 9"/>
 <path d="m1086 231c0 4.9688-4.0312 9-9 9s-9-4.0312-9-9 4.0312-9 9-9 9 4.0312 9 9"/>
 <path d="m222 771c0 4.9688-4.0312 9-9 9s-9-4.0312-9-9 4.0312-9 9-9 9 4.0312 9 9"/>
 <path d="m456 1005c0 4.9688-4.0312 9-9 9s-9-4.0312-9-9 4.0312-9 9-9 9 4.0312 9 9"/>
 <path d="m672 681c0 4.9688-4.0312 9-9 9s-9-4.0312-9-9 4.0312-9 9-9 9 4.0312 9 9"/>
 <path d="m487.5 312c0 4.9688-4.0312 9-9 9s-9-4.0312-9-9 4.0312-9 9-9 9 4.0312 9 9"/>
 <path d="m627 393c0 4.9688-4.0312 9-9 9s-9-4.0312-9-9 4.0312-9 9-9 9 4.0312 9 9"/>
 <path d="m635.73 368.19c6.5938-22.781 19.953-43.02 38.309-58.035 1.9492-1.4258 3.2461-3.5742 3.5938-5.9648 0.34766-2.3867-0.27344-4.8164-1.7344-6.7383-1.457-1.9258-3.6289-3.1836-6.0234-3.4883-2.3945-0.30859-4.8125 0.35938-6.7109 1.8516-21.637 17.48-37.32 41.242-44.895 68.008-1.1094 4.7852 1.8203 9.5742 6.5859 10.766 4.7617 1.1914 9.6016-1.6562 10.875-6.3984z"/>
 <path d="m501.48 336c2.6836 0.71875 66 18.316 73.305 78.871 0.54688 4.5156 4.375 7.9141 8.9258 7.918 0.36328 0.023438 0.73047 0.023438 1.0938 0 4.9336-0.59375 8.4492-5.0703 7.8594-10.004-8.7891-72.84-83.398-93.285-86.566-94.125h0.003906c-4.7578-1.1367-9.5508 1.7305-10.797 6.457-1.25 4.7266 1.5078 9.5859 6.207 10.941z"/>
 <path d="m651.99 360.18c-2.875 3.9766-2.0391 9.5234 1.8828 12.469 3.9219 2.9492 9.4844 2.2148 12.504-1.6523 5.4297-7.6055 13.512-12.898 22.652-14.84 9.1367-1.9453 18.672-0.39453 26.727 4.3398 2.0469 1.2461 4.5039 1.6289 6.832 1.0586 2.3281-0.57031 4.332-2.0469 5.5703-4.0977 1.2344-2.0547 1.6016-4.5156 1.0156-6.8398-0.58203-2.3242-2.0703-4.3203-4.1328-5.543-11.832-7.168-25.941-9.5977-39.492-6.7969-13.551 2.8008-25.539 10.625-33.559 21.902z"/>
 <path d="m481.95 375c-4.5664 1.7383-6.9102 6.8047-5.2812 11.41 1.6328 4.6055 6.6367 7.0742 11.281 5.5547 8.7266-3.3203 18.383-3.2578 27.066 0.17969 8.6797 3.4336 15.766 9.9961 19.855 18.391 0.98828 2.2148 2.8281 3.9336 5.1055 4.7734 2.2734 0.83594 4.793 0.72266 6.9805-0.32031 2.1914-1.043 3.8672-2.9258 4.6484-5.2227 0.78125-2.293 0.60547-4.8086-0.49219-6.9688-5.8906-12.508-16.297-22.32-29.125-27.477s-27.129-5.2695-40.039-0.32031z"/>
 <path d="m411 519c0 4.9688-4.0312 9-9 9s-9-4.0312-9-9 4.0312-9 9-9 9 4.0312 9 9"/>
</svg>
