<?xml version="1.0" encoding="UTF-8"?>
<svg width="1200pt" height="1200pt" version="1.1" viewBox="0 0 1200 1200" xmlns="http://www.w3.org/2000/svg">
 <path d="m634.92 37.801c8.8789-4.3203 16.922-2.8789 23.52 4.0781 6.4805 6.7188 13.199 13.68 9.3594 24.48-0.23828 0.60156-0.12109 1.3203 0.12109 1.9219 0.12109 0.60156 0.48047 1.1992 0.83984 2.1602 4.4414 0.83984 7.9219-2.1602 11.879-3.7188 9.4805-3.6016 18.84-5.8789 29.039-1.6797 8.2812 3.4805 14.16 8.8789 16.32 17.52 1.0781 4.4414 3.1211 5.6406 7.5586 5.7617 11.039 0.23828 21.238 2.7617 26.762 13.922 1.4414 2.8789 3.6016 2.5195 5.7617 0.96094 4.0781-2.8789 8.6406-5.0391 13.441-6.4805 16.32-4.8008 36.121 10.441 34.32 27.238-1.0781 10.441-5.2812 20.039-14.398 26.281-5.3984 3.7188-11.16 7.1992-16.68 10.801-0.83984 2.0391 0.83984 2.8789 1.6797 4.1992 7.8008 12 6.8398 27.602-3.3594 37.559-5.1602 5.0391-7.6797 10.199-7.4414 17.281 0.12109 3.8398-1.3203 7.8008-1.9219 11.762-0.48047 3 0.35938 5.1602 3.9609 5.5195 4.6797 0.48047 9.2383 1.1992 13.801 1.9219 14.398 2.5195 28.559 5.1602 40.199 15.602 7.0781 6.3594 11.16 14.039 14.281 22.32 2.8789 7.6797 4.3203 15.961 5.2812 24.238 2.8789 26.398-1.4414 52.32-5.3984 78.121-1.0781 7.5586-3.3594 14.879-5.0391 22.32-1.0781 4.5586-0.83984 7.9219 4.0781 10.801 8.5195 5.0391 13.922 12.359 11.281 23.16-0.60156 2.2812 0.35938 3.8398 2.1602 5.0391 1.6797 1.0781 3.2383 2.3984 4.9219 3.3594 15.121 8.1602 24.121 21.238 30.238 36.961 7.8008 20.039 11.879 40.801 12.602 62.16 0.83984 22.199 2.3984 44.52 2.3984 66.719-0.12109 17.52 0.35938 35.281-3.3594 52.68-0.96094 4.1992 0.48047 6.2383 4.1992 7.4414 1.3203 0.35937 2.3984 1.1992 3.7188 1.3203 23.879 4.0781 36.602 36 19.68 60-9.6016 13.68-23.281 21.84-38.52 27.121-39.84 13.922-81 20.879-122.88 24.121-34.441 2.6406-68.879 5.7617-103.44 7.0781-2.0391 0.12109-3.9609 0.48047-6 0.35938-5.2812-0.12109-8.5195 2.2812-10.801 7.0781-13.078 27.84-22.078 56.879-26.039 87.48-0.71875 5.8789-1.5586 11.879-2.3984 17.762-3.4805 22.441-4.4414 44.879-4.1992 67.559 0.12109 9 0.23828 9.2383 9.1211 10.68 10.441 1.6797 21.121 2.5195 31.559 4.0781 25.32 3.7188 50.52 8.0391 75 15.719 18.238 5.7617 33.84 15.238 46.32 29.762 4.9219 5.7617 7.8008 12 8.7617 19.559 3.4805 26.16-4.4414 43.68-27.719 56.52-21 11.52-42.961 21.121-66.961 24.961-9.2383 1.4414-18.238 4.0781-27 7.1992-25.32 9-51.719 11.879-78.238 14.039-16.199 1.3203-32.52 2.2812-48.719 1.4414-27.602-1.4414-54.48-7.0781-81.48-13.078-20.039-4.4414-38.879-11.281-56.52-21.602-15.961-9.4805-26.398-23.762-30-41.641-2.7617-13.32 3.8398-25.32 12.602-35.398 10.922-12.719 26.039-19.32 40.68-26.398 24.121-11.641 49.922-18 75.961-23.879 10.68-2.3984 21.48-4.1992 32.398-5.3984 7.6797-0.83984 7.9219-1.3203 8.7617-9.3594 3-28.199 1.9219-56.16-1.6797-84.238-2.2812-18.121-5.3984-36.121-9.3594-54-3.2383-14.879-9.7188-28.078-18-40.801-2.1602-3.2383-4.5586-4.3203-8.1602-4.4414-25.199-0.48047-50.52-0.71875-75.719-0.48047-22.199 0.23828-44.52-1.1992-66.719-1.4414-18.719-0.23828-37.078-2.2812-55.199-7.1992-20.762-5.6406-36.719-16.801-43.922-38.039-2.1602-6.3594-2.1602-13.199-1.3203-19.801 1.1992-8.6406 5.7617-15.359 13.32-20.039 4.3203-2.6406 8.8789-4.5586 13.559-6.1211 3.2383-1.0781 4.8008-3.1211 4.8008-6.6016 0-1.6797 0.23828-3.3594 0.23828-5.0391-1.0781-32.641 0.35938-65.281 4.1992-97.559 3-24.961 6-50.281 12.602-74.641 8.5195-31.32 28.32-52.68 59.398-63.238 1.3203-0.48047 2.5195-0.83984 3.7188-1.3203 0.23828-0.12109 0.60156-0.35938 1.0781-0.71875 0.71875-2.7617-1.9219-4.4414-2.7617-6.7188-4.1992-10.68-1.3203-20.762 8.6406-26.641 3.8398-2.1602 4.5586-4.3203 4.4414-8.5195-0.60156-33.602-0.35937-67.199 5.0391-100.44 2.5195-15.48 10.199-28.801 19.801-40.801 5.5195-6.8398 13.922-10.199 21.961-13.32 6.4805-2.5195 13.078-5.1602 19.801-6.8398 4.1992-1.0781 5.1602-3.2383 4.8008-6.9609-0.71875-9.9609-1.0781-19.922-2.0391-29.762-1.8008-17.16 1.4414-33.84 4.0781-50.52 1.3203-8.5195 3.7188-17.039 11.879-22.199 2.5195-1.6797 3-3.9609 2.5195-6.9609-1.6797-11.762 3.7188-20.52 12.238-27.84 7.5586-6.4805 16.078-8.0391 25.199-4.8008 5.5195 1.9219 7.0781 0.35938 9.1211-4.6797 6.7188-17.52 26.16-23.281 40.801-12.84 4.8008 3.4805 6.9609 7.8008 6.9609 13.441 0 3.7188 1.8008 5.3984 5.6406 4.8008 1.3203-0.23828 2.6406 0 3.9609-0.23828 3.2383-0.48047 7.0781 1.8008 9.7188-0.23828 2.8789-2.1602 0.60156-6.2383 1.1992-9.3594 1.5586-7.0781 9-13.801 16.922-14.52 2.6406-0.23828 5.2812 0.71875 8.6406-1.0781-0.375-9.7383-2.5352-20.418 6.1055-29.059 4.8008-4.8008 10.199-7.1992 16.68-7.9219-1.8008 2.6406-4.9219 3.1211-7.5586 4.6797-7.8008 4.6797-11.879 11.762-11.641 20.641 0.12109 7.6797 1.6797 15.238 6.9609 21.359 1.9219 2.2812 3.8398 4.6797 5.5195 7.0781 0.83984 1.1992 0.71875 2.6406-0.60156 3.3594-0.71875 0.35938-1.9219 0.23828-2.7617-0.23828-2.7617-1.4414-4.4414-3.9609-6.2383-6.3594-2.1602-3-4.6797-5.6406-8.1602-7.1992-6.6016-2.8789-14.52 0.23828-17.52 6.8398-2.8789 6.2383 0.12109 12.961 7.1992 16.199 5.5195 2.5195 11.039 4.4414 17.281 2.0391 1.5586-0.35547 3.4805-0.35547 3.5977 2.043 0.12109 1.6797-1.3203 2.1602-2.5195 2.5195-6.3594 2.5195-12.961 0.96094-20.039-0.23828 0.48047 8.5195-1.9219 15.602-6.8398 21.719-1.3203 1.6797-1.6797 3.3594-0.35938 5.3984 4.4414 6.7188 11.039 9.3594 19.078 7.3203 7.1992-1.9219 12.121-6.3594 15.359-13.199 1.4414-3 2.5195-9.2383 6.2383-7.3203 4.4414 2.3984-0.23828 6.7188-1.8008 9.9609-4.5586 9.2383-1.1992 19.559 7.5586 24.84 13.68 8.1602 31.199-1.9219 36.359-14.16 4.1992-9.9609 2.3984-17.039-5.7617-24.48-1.8008-1.6797-5.3984-3-3.9609-6.7188 3.3594-0.71875 4.4414 1.8008 6.2383 3.1211 5.6406 4.0781 11.879 6.6016 18.719 5.2812 14.16-2.6406 25.441-9.1211 30.238-24 5.5195-16.922-5.8789-32.398-23.641-31.199-8.2812 0.60156-16.441 2.6406-23.398 7.5586-6 4.1992-11.762 8.6406-17.762 12.84-4.4414 3-9 5.7617-14.762 4.0781 0.23828-2.8789 1.5586-3.7188 2.7617-3.8398 6.3594-0.83984 10.68-5.2812 15.121-9.2383 9-8.0391 9.3594-20.641 2.2812-30.48-6.5859-8.7617-15.227-10.922-25.426-9.9609zm-90.723 93.121c0.12109-1.9219 0.23828-3.7188 1.6797-5.5195 4.1992-5.5195 8.2812-11.16 12.121-16.922 4.5586-6.7188 4.0781-17.641-0.71875-22.32-5.1602-5.1602-14.879-6-22.199-2.7617-12.359 5.6406-15.961 19.078-10.441 30.121 0.96094 1.9219 3.2383 4.4414 0.23828 6-2.5195 1.3203-4.0781-1.5586-5.3984-3.3594-0.83984-0.96094-1.5586-2.2812-1.6797-3.4805-0.71875-5.1602-4.6797-7.0781-8.7617-8.3984-13.199-4.3203-23.52 2.7617-29.398 14.039-4.3203 8.3984 0.60156 21.602 9.6016 27.602 2.5195 1.6797 4.9219 1.9219 7.4414 0.96094 6.1211-2.3984 12.238-2.1602 18.121-0.35937 1.8008-1.4414 1.3203-3.2383 1.9219-4.8008 4.4414-13.559 12.719-17.16 25.801-11.398 0.60156 0.23828 1.3203 0.23828 1.9219 0.48047 0.12109 0.60156 0.23828 1.3203 0.60156 1.9219 3.9609 9 2.7617 16.68-3.1211 21.719-5.1602 4.4414-12.84 3.7188-21.121-1.8008-1.6797-1.0781-2.7617-2.8789-4.9219-3.1211-9.1211-0.83984-17.879 0.48047-25.559 6-9.7188 6.9609-11.641 18.84-5.0391 28.922 2.8789 4.4414 6.8398 6.8398 12.359 7.0781 14.039 0.71875 27.359-8.3984 25.801-25.441-0.12109-1.9219-0.48047-4.3203 2.3984-4.5586 2.7617-0.23828 3 2.0391 3.2383 3.9609 0.83984 6.4805 2.6406 12.359 8.6406 15.961 10.199 6.2383 20.879 8.6406 32.281 4.0781 11.281-4.5586 19.32-12.84 24-24 2.5195-5.8789 1.1992-11.762-2.7617-16.922-3.9609-5.1602-8.8789-5.8789-15-4.0781-4.0781 1.1992-8.5195 1.5586-12.719 1.8008-3.4805 0.23828-6.9609 0.12109-9.4805-2.8789 0.60156-0.96094 0.71875-1.1992 0.96094-1.4414 1.5586-1.3203 3.1211-0.23828 4.6797 0 9.3594 1.0781 17.762-1.6797 25.68-6.1211 5.1602-3 9.1211-12 7.8008-17.16-1.5586-6.2383-6.9609-7.5586-12.121-9-7.1992-2.0391-13.078 0.12109-17.398 6.2383-3.2383 4.6797-6.3594 9.3594-10.199 13.441-2.7695 2.7578-5.2891 5.2773-9.25 5.5195zm-170.64 601.08c3.9609 0 6.2383-0.12109 8.5195-0.12109 26.281-0.35938 52.559-0.96094 78.84-0.96094 47.879-0.12109 95.762-2.3984 143.52-5.5195 19.559-1.1992 39-3.8398 58.68-4.9219 43.441-2.5195 87-4.4414 130.32-7.9219 30.48-2.5195 60.84-4.9219 90.238-14.641 8.0391-2.6406 11.52-7.4414 11.762-15 0.12109-7.0781 1.0781-14.039 2.7617-20.641 1.8008-7.3203 0.35938-12.121-6.3594-15.359-18.238-8.8789-12.238-37.801 3.6016-43.68 4.9219-1.8008 5.3984-4.9219 5.1602-9.2383-0.71875-16.32-0.83984-32.641-1.8008-48.84-1.1992-18.602-3.3594-37.199-10.32-54.602-3.1211-7.9219-5.2812-16.32-10.922-23.281-7.0781-8.7617-15.961-14.879-25.922-20.281-4.9219 5.1602-10.68 8.7617-17.398 11.16-6.1211 2.1602-13.801 2.2812-16.32 10.441-0.23828 0.71875-1.5586 1.1992-2.3984 1.6797-12.602 6.2383-25.078 11.16-37.441-0.96094-2.8789-2.7617-5.8789-4.8008-11.16-4.6797-5.0391 0.23828-8.6406 1.1992-12.121 4.4414-2.2812 2.0391-5.1602 3.2383-8.2812 3.1211-9.7188-0.35937-16.199 5.0391-22.559 11.641 3.3594 1.6797 6.4805 2.8789 9.2383 4.6797 9.8398 6.6016 10.68 18.48 1.5586 25.922-5.1602 4.3203-11.16 6.9609-18.359 6-8.1602-1.1992-12-4.8008-12-12.961 0-7.5586 2.0391-14.398 8.6406-19.199 1.4414-1.0781 3.7188-1.5586 4.0781-3.8398-11.762-5.7617-12.121-6.2383-16.199-3.8398-11.281 6.4805-20.879 3.9609-30-4.1992-2.1602-1.9219-4.6797-3.4805-7.0781-5.1602-8.5195 5.5195-8.5195 5.6406-17.762 3.8398-2.3984-0.48047-4.1992-0.71875-6.3594 0.83984-13.078 8.8789-21.48 9.1211-34.32-0.12109-5.7617-4.0781-10.559-8.1602-17.641-3.2383-0.71875 0.48047-2.0391 0.60156-2.8789 0.35938-5.3984-1.4414-8.7617 1.5586-11.879 5.1602-6.8398 7.9219-16.078 9.1211-24.602 5.5195-7.4414-3.1211-14.879-6.6016-22.199-10.078-3.2383-1.5586-5.6406-3-8.8789-0.60156-5.6406 4.0781-12 3.3594-18.238 1.8008-1.9219-0.48047-3.8398-2.0391-5.6406-0.83984-8.5156 4.9219-16.797 6.1211-25.438 0.48047-0.48047-0.35938-1.3203-0.48047-1.9219-0.23828-7.9219 2.7617-13.922-1.6797-19.922-5.6406-9.1211 11.16-11.52 12.121-25.922 8.6406-4.0781-0.96094-7.0781 0.83984-10.32 2.2812-14.762 6.3594-29.398-0.48047-33.121-15.961-0.96094-4.0781-2.5195-4.8008-5.8789-4.1992-6.7188 1.0781-12.48 4.0781-18.121 7.8008-20.398 13.68-34.801 31.801-39.359 56.398-3.9609 21.238-7.5586 42.48-10.199 63.961-4.4414 36-5.5195 72.238-4.5586 108.48 0.12109 5.8789 0 11.879 0.83984 17.879 0.71875 5.6406 3 8.8789 7.8008 11.16 14.039 6.4805 28.68 6.8398 43.68 6.2383 0-13.68 2.6406-18.238 11.879-21.48 7.9219-2.7617 13.801 1.3203 14.281 9.6016 0.36328 4.1992-1.7969 7.6797-3.5977 12.719zm145.44 62.879c-0.60156 2.2812 0.83984 3.3594 1.4414 4.8008 6.7188 14.762 13.199 29.641 16.801 45.719 3.7188 16.559 5.3984 33.359 8.0391 50.16 3.2383 20.762 3.7188 41.762 2.7617 62.641-0.83984 18.84-3.1211 37.68-5.2812 56.52-0.96094 8.2812-1.3203 16.559-3.9609 24.602-1.1992 3.7188-3.6016 5.5195-7.3203 5.1602-3.4805-0.35938-5.3984-4.0781-4.3203-8.5195 0.83984-3.4805 2.0391-7.0781 3.4805-10.32 4.0781-9.6016 4.4414-20.039 7.4414-29.879 0.96094-3.3594-0.60156-5.0391-4.3203-4.4414-1.9219 0.35938-3.9609 0.60156-5.8789 0.96094-40.441 6.9609-79.801 17.281-116.4 36.238-10.078 5.1602-19.68 11.52-26.039 21.238-11.641 17.641-12.48 30.48-0.12109 47.641 9.9609 13.801 22.922 22.922 38.641 28.32 50.039 17.281 101.28 27.602 154.56 23.039 22.078-1.9219 44.398-3 66-9.1211 19.199-5.5195 38.398-10.441 57.84-15.121 21.359-5.1602 41.52-13.922 60.238-25.801 9.6016-6.1211 16.801-14.398 18.359-26.039 1.0781-7.9219 1.0781-15.961 0.12109-23.879-0.48047-4.0781-1.8008-7.6797-4.3203-11.039-8.6406-11.641-19.32-20.641-32.52-27.121-15.121-7.4414-31.441-10.801-47.52-14.398-24.602-5.5195-49.68-8.3984-74.641-12-5.1602-0.71875-5.7617 1.3203-5.5195 5.1602 0.48047 6.9609 0.60156 13.922 1.5586 20.879 1.4414 11.398 1.3203 22.922 5.1602 34.801-4.8008-0.83984-5.2812-3.3594-5.8789-6-1.5586-6.4805-1.8008-13.199-2.8789-19.68-4.0781-23.762-3.1211-47.641-2.3984-71.52 0.48047-14.52 0.60156-29.16 3.1211-43.559 2.8789-15.961 4.1992-32.16 7.8008-48.121 4.0781-18.238 10.801-35.398 17.762-52.68 1.3203-3.2383 3.6016-6.3594 3-10.32-41.648 0.48047-83.168 1.082-124.81 1.6797zm314.88-401.88c2.0391-3.2383 2.6406-6.4805 3.2383-9.7188 3-16.078 4.6797-32.16 6-48.48 1.6797-19.922-0.83984-39-6.4805-57.961-2.3984-8.0391-7.0781-14.281-13.559-19.199-16.801-12.84-36.961-15.359-56.762-14.762-26.879 0.83984-53.641 4.3203-80.52 4.1992-6.6016 0-13.32 0-19.559 2.7617-3.4805 1.4414-7.1992 1.3203-10.801 0.48047-3.9609-0.96094-7.9219-1.3203-11.879-0.96094-20.879 2.0391-41.762 1.6797-62.641 2.0391-4.8008 0.12109-7.8008 0.83984-10.32 5.3984-3.4805 6.6016-9 11.762-16.441 13.68-7.1992 1.8008-14.281 0.83984-20.52-4.0781-1.4414 3.3594-2.5195 6.1211-3.8398 8.7617-6.1211 12.961-20.52 20.398-34.68 17.879-5.8789-1.0781-9.6016-3.9609-12.238-10.078-3.9609-9.4805-6.6016-18.719-3-28.441-1.3203-0.71875-1.9219-1.0781-2.5195-1.1992-1.3203-0.23828-2.6406-0.48047-3.9609-0.60156-19.441-1.9219-36.359 5.5195-52.922 14.281-2.6406 1.3203-5.0391 3.3594-6.8398 5.7617-9.2383 12-16.801 25.078-18.602 40.199-3.4805 29.398-5.6406 58.922-4.6797 88.559 0 1.9219-0.48047 3.9609 1.9219 5.8789 2.2812-2.0391 4.6797-4.1992 7.0781-6.2383 4.0781-3.4805 8.7617-6 14.281-6.6016 5.2812-0.60156 10.199 1.1992 11.641 5.7617 2.0391 6.7188 6.1211 7.4414 11.762 7.4414 1.5586 0 3.1211 1.0781 4.6797 1.6797 2.1602 0.83984 3.7188 0.60156 5.0391-1.4414 1.3203-1.9219 2.7617-3.8398 4.4414-5.2812 8.1602-6.9609 17.281-12.48 28.078-8.2812 5.2812 2.0391 8.0391 1.3203 12.238-1.8008 8.7617-6.4805 18-5.5195 24.121 1.9219 3.2383 3.9609 4.3203 8.8789 4.4414 13.922 0.12109 5.6406 3.3594 8.2812 8.5195 6.9609 4.6797-1.1992 8.1602-2.8789 8.8789-8.8789 0.96094-8.1602 10.801-15.961 19.078-16.32 5.7617-0.23828 12.48 0.96094 14.762 6.2383 2.5195 5.8789 4.9219 6.7188 9.9609 4.4414 1.1992-0.48047 2.8789-1.0781 3.8398-0.60156 7.9219 3.8398 15.238 1.1992 23.281 0 5.3984-0.83984 9-2.2812 12.48-5.7617 1.4414-1.4414 3-2.5195 4.6797-3.7188 11.641-7.8008 19.922-4.3203 23.039 9.6016 0.12109 0.60156 0.71875 0.96094 1.3203 1.8008 9-4.5586 17.762-5.7617 24.121 4.4414 0.83984 1.4414 2.0391 1.6797 3.3594 1.1992 6.7188-2.3984 15-0.12109 19.078-9.6016 2.2812-5.5195 8.8789-8.6406 15.719-8.8789 6.2383-0.23828 9.8398 2.8789 12.359 8.1602 1.0781 2.3984 3.2383 1.9219 5.0391 0.96094 8.3984-4.3203 16.441-4.8008 23.879 2.2812 2.7617 2.6406 5.6406 2.8789 8.5195-0.48047 3.2383-3.7188 7.8008-4.9219 12.602-5.1602 2.5195-0.12109 3.8398-0.96094 5.0391-3.6016 5.7617-12.48 20.52-17.281 32.762-11.398 1.5586 0.71875 3 2.0391 3 3.6016 0 7.1992 3.4805 8.7617 10.078 7.4414 2.5273-0.48828 5.5273 1.1914 8.4062 1.793zm-553.08 318.24c-6 1.3203-9 4.5586-11.039 8.7617-8.3984 16.199-0.23828 40.078 16.199 48 12.961 6.1211 26.641 10.199 40.68 13.078 27.48 5.6406 55.559 4.6797 83.398 6.2383 28.559 1.6797 57.121-0.71875 85.68 0.83984 29.52 1.5586 59.039 1.4414 88.68-0.23828 20.879-1.1992 42-0.23828 62.762-2.3984 32.398-3.2383 64.922-4.4414 97.441-6.3594 38.281-2.2812 75.961-7.8008 113.28-16.078 18.719-4.0781 37.441-8.7617 53.641-20.281 15.719-11.16 21.359-25.559 15.961-44.039-3.7188-12.602-10.199-17.52-24.719-18.602 0.35938 0.96094 0.60156 1.9219 0.96094 2.7617 8.2812 14.398 7.3203 18.238-6.9609 26.762-2.0391 1.1992-3.9609 2.3984-6.1211 3.2383-17.16 6.4805-34.801 12.238-53.039 13.199-35.762 1.9219-71.281 6.6016-107.16 7.3203-15.238 0.23828-30.48 1.3203-45.84 2.5195-41.762 3.1211-83.52 4.3203-125.28 7.5586-27.84 2.0391-55.68 4.3203-83.641 3.7188-10.32-0.23828-20.52-0.48047-30.84-0.23828-11.641 0.23828-23.281 1.4414-34.922 1.4414-28.199 0-56.398 0-84.48-3.3594-12.121-1.4414-24.602-1.3203-36.238-6.1211-6.7188-2.7617-10.68-7.4414-12.238-14.52-0.96484-4.6797 2.2734-8.1602 3.8359-13.203zm485.28-550.32c2.2812-3.7188 6.8398-2.3984 10.32-3.4805 14.641-4.1992 25.441-12.359 30.238-27.48 1.6797-5.3984 1.4414-10.32-1.1992-15.359-6.6016-12.359-19.922-16.441-32.281-9.9609-6.1172 3.3594-10.438 7.8008-11.637 15.238-0.96094 6.2383-3.8398 12-7.3203 17.281-0.96094 1.4414-2.5195 2.3984-4.1992 1.0781-1.3203-0.96094-0.96094-2.5195-0.23828-3.6016 3.1211-4.8008 5.1602-10.078 5.7617-15.719 1.3203-15-3-21.719-18-24.48-7.1992-1.3203-9.1211-0.23828-12.719 6.1211-3.6016 6.3594-6 13.801-12.719 17.52-5.2812 2.8789-6.9609 7.1992-6.9609 12.238-0.12109 7.6797 0.60156 15.359 7.3203 20.762 1.3203 1.0781 3.9609 1.9219 2.0391 5.0391-6.9609-0.71875-10.68-5.1602-13.559-11.16-3.3594-6.9609-8.0391-7.9219-13.922-3.1211-2.2812 1.9219-4.0781 4.1992-5.8789 6.7188-2.8789 4.3203-2.3984 8.0391 0.96094 11.762 6.9609 7.8008 15.48 11.039 25.801 8.8789 2.8789-0.60156 5.6406-1.8008 8.8789 0.60156-2.6406 4.5586-7.9219 4.5586-11.762 6.2383-7.5586 3.4805-12 9.2383-14.16 16.922-2.2812 8.0391 1.4414 14.52 9.2383 17.281 6.3594 2.2812 12.359 1.4414 18.359-1.5586 7.3203-3.7188 11.398-9.8398 13.441-17.641 0.71875-2.8789 0.71875-6 3.4805-8.0391 1.1992-0.83984 2.6406-0.96094 3.7188-0.48047 1.3203 0.60156 1.6797 1.9219 1.0781 3.3594-0.96094 2.3984-2.1602 4.9219-3 7.3203-3 8.5195-0.96094 12.84 7.5586 16.32 18.238 7.4414 37.078-5.3984 39.48-24.602 1.3203-10.922-3.8398-18.121-14.762-21.238-1.5586-0.35938-2.9961-0.35938-3.3594-2.7578zm-68.637 262.08c-3.8398-0.71875-4.1992-3.7188-5.3984-6-3.3594-6.3594-7.3203-7.9219-13.441-4.4414-2.6406 1.5586-5.8789 3-6 7.5586 10.801 2.1602 13.559 9.4805 11.52 19.32 3.2383 0.96094 5.7617-3.6016 9.1211 0.12109-7.3203 3.1211-13.559 7.6797-16.801 14.762-4.4414 9.6016-2.7617 15.48 2.5195 18.602 9 5.3984 17.879 2.5195 21.84-7.3203 1.5586-3.9609 2.7617-8.2812 6.1211-11.281 1.3203-1.1992 2.7617-3.1211 5.2812-0.96094-1.1992 4.1992-3 8.3984-3.7188 12.961-0.96094 6 4.1992 9.9609 10.078 8.0391 7.3203-2.3984 9.6016-7.3203 6.6016-14.641-0.71875-1.8008-1.6797-3.6016-2.1602-5.5195-0.12109-0.60156 0.71875-1.9219 1.4414-2.2812 0.71875-0.35938 2.1602-0.35938 2.6406 0.23828 1.1992 1.0781 2.1602 2.5195 2.7617 4.0781 2.5195 6.4805 7.6797 7.4414 13.801 7.1992 8.2812-0.23828 10.559-6.7188 13.922-12.48 2.8789-4.9219 1.6797-8.7617-1.8008-12.602-4.8008-5.3984-7.9219-5.8789-14.762-2.5195-4.0781 2.0391-8.0391 5.6406-13.922 2.5195 3.8398-4.5586 8.0391-6.9609 12.719-8.5195 9.2383-3.2383 13.199-8.3984 13.559-17.879 0.12109-2.0391 0-3.8398-1.4414-5.6406-8.5195-10.078-22.801-8.0391-28.078 4.3203-1.5586 3.7188-3.4805 7.1992-6.1211 10.199-1.5586 1.6797-3.2383 4.0781-5.7617 2.2812-2.5195-1.6797-0.71875-4.3203 0-6.3594 0.96094-3.2383 3.2383-5.7617 5.6406-8.0391 3.7188-3.7188 3-7.9219 0.60156-11.879-1.9219-3.2383-7.6797-4.0781-11.762-2.1602-6.9609 3.1211-11.16 11.039-10.32 18.84 0.23828 3.125 2.3984 5.6445 1.3203 9.4844zm111.48-1.5586c1.6797-4.9219 5.2812-6.9609 9.6016-8.0391 4.3203-0.96094 7.9219-3.3594 10.922-6.6016 2.1602-2.3984 3.1211-5.2812 1.0781-8.1602-1.8008-2.5195-4.4414-4.1992-7.8008-3.2383-4.9219 1.3203-9.2383 3.7188-12.121 8.1602-1.0781 1.6797-1.6797 3.7188-2.8789 5.1602-1.1992 1.4414-3 1.1992-4.4414 0.23828-1.5586-0.96094-0.83984-2.2812-0.12109-3.3594 2.2812-3.6016 5.0391-7.0781 6.8398-10.922 3.2383-6.8398 2.6406-12.121-6.2383-12.121-2.2812 0-4.6797-0.35938-6.9609 0-10.801 1.5586-15.359 10.922-10.32 20.52 1.4414 2.6406 2.6406 5.3984 3.8398 8.0391 0.60156 1.4414 1.6797 3.1211-0.23828 4.3203-2.2812 1.3203-3.7188-0.12109-4.9219-1.8008-1.6797-2.5195-3.1211-5.0391-4.6797-7.6797-3.8398-6.2383-10.559-7.1992-15.602-1.9219-2.2812 2.3984-4.0781 5.1602-5.0391 8.5195-2.5195 8.5195 1.6797 14.398 10.559 14.762 2.6406 0.12109 5.2812 0 7.9219 0 1.4414 0 2.6406 0.71875 2.8789 2.1602 0.23828 1.6797-1.3203 2.1602-2.5195 2.5195-3.1211 0.83984-6.2383 0-9.3594 2.2812-5.1602 3.8398-4.6797 9.2383-5.5195 14.281-0.83984 5.1602 4.6797 9.3594 8.5195 6.1211 3.3594-2.8789 8.8789-3.3594 10.32-8.6406 0.35938-1.4414 2.0391-2.5195 3.2383-3.6016 0.96094-0.96094 2.3984-1.4414 3.6016-0.60156 1.3203 0.96094 1.0781 2.2812 0.35938 3.4805-1.1992 2.2812-2.7617 4.3203-3.4805 7.0781-1.1992 4.9219-1.0781 9.2383 2.6406 12.84 4.4414 4.4414 13.441 3.9609 19.32-0.71875 6.1211-4.9219 6.8398-9.1211 2.8789-16.32-0.96094-1.6797-1.9219-3.4805-2.6406-5.2812-0.48047-1.3203-0.23828-2.7617 0.96094-3.6016 1.8008-1.3203 2.8789 0 4.0781 1.1992 9.9609 10.441 23.039 9.9609 32.398-0.83984 2.2812-2.6406 3.8398-5.1602 3.8398-8.7617-0.23438-10.91-11.156-18.832-21.836-15.469-4.0781 1.3203-7.8008 3.6016-11.762 5.3984-2.0391 1.082-3.957 2.6406-7.3164 0.60156zm-299.64 13.797c0.71875-3.1211 3.6016-2.2812 5.6406-3 3.7188-1.5586 5.6406-4.4414 6.3594-8.2812 0.23828-1.4414 0.12109-2.6406-1.0781-3.6016-1.4414-1.1992-3.1211-1.4414-4.5586-0.48047-1.3203 0.83984-2.3984 2.2812-3.6016 3.4805-2.3984 2.3984-5.1602 4.3203-8.2812 5.5195-1.5586 0.60156-3.3594 1.1992-4.6797-0.23828-1.6797-1.9219-0.12109-3.7188 1.0781-5.1602 2.2812-2.8789 5.2812-5.0391 8.3984-6.9609 5.5195-3.4805 7.4414-11.879 4.1992-17.281-3.7188-6.1211-10.801-7.5586-17.281-4.0781-5.2812 2.8789-7.8008 6.8398-7.0781 12.961 0.48047 3.9609 1.0781 8.0391-0.35938 11.879-0.60156 1.5586-1.8008 2.8789-3.8398 2.3984-1.6797-0.35938-1.6797-1.9219-1.8008-3.1211-0.23828-3.9609-0.12109-8.0391-0.48047-12-0.60156-7.6797-4.3203-10.68-11.879-9.4805-6.1211 0.96094-11.16 4.0781-15.84 8.0391-6 5.0391-5.6406 14.039 0.71875 18.719 3 2.2812 6.2383 3.7188 10.199 3 1.1992-0.23828 1.6797 0.83984 1.8008 1.8008 0.12109 1.1992-0.60156 1.9219-1.5586 2.2812-3.7188 1.4414-7.0781 0.60156-10.441-1.3203-1.8008-0.96094-3.8398-3.4805-6.2383-1.4414-2.2812 1.9219-1.0781 4.3203 0.12109 6.3594 2.7617 4.8008 2.0391 9.3594 0.23828 14.281-2.3984 6.3594 0.35938 11.52 6.7188 14.281 5.8789 2.6406 10.922 0.96094 14.398-4.8008 1.3203-2.2812 2.3984-4.8008 3.7188-7.0781 0.71875-1.0781 1.9219-2.0391 3.3594-1.3203 1.3203 0.71875 1.5586 2.1602 1.1992 3.4805-0.83984 2.5195-2.1602 4.9219-2.7617 7.4414s-2.0391 5.7617 0.71875 7.3203c3.2383 1.8008 6.4805 0.23828 8.7617-2.7617 2.1602-2.7617 2.3984-6.1211 3.2383-9.3594 0.96094-3.2383-1.0781-9.3594 3.4805-9.1211 5.3984 0.23828 2.5195 6.3594 2.8789 9.8398 0.71875 7.1992 1.8008 8.6406 8.8789 9.3594 9.7188 1.0781 19.078-8.2812 18.719-18.602-0.23828-6-2.2812-8.3984-8.3984-10.199-1.668-0.47266-3.9492-0.11328-4.668-2.7539zm140.76-5.5195c4.8008-4.6797 9.8398-6.9609 14.52-10.078 3.7188-2.5195 5.3984-9.1211 3-12.359-2.6406-3.4805-6.4805-4.6797-10.68-2.8789-6.2383 2.6406-12.121 5.7617-12.602 13.68-0.12109 1.8008-0.60156 3.3594-2.7617 3.1211-1.9219-0.23828-2.5195-1.8008-2.6406-3.6016 0-2.3984 0.96094-4.5586 1.9219-6.6016 0.96094-2.0391 2.1602-4.1992 2.6406-6.3594 1.3203-5.6406-0.23828-10.078-4.3203-12.121-4.9219-2.5195-9.1211-0.12109-12.84 2.6406-3.7188 2.8789-7.3203 5.8789-4.8008 11.641 1.5586 3.3594 2.8789 6.7188 3 10.441 0 1.6797-0.12109 3.4805-2.0391 4.0781-1.9219 0.60156-3.1211-0.60156-3.7188-2.2812-1.3203-3.1211-2.3984-6.2383-3.8398-9.2383-2.3984-5.1602-6.1211-6.3594-11.281-4.3203-3.7188 1.5586-5.8789 4.0781-5.7617 8.2812 0.12109 5.3984-2.0391 11.398 4.3203 14.879 0.23828 0.12109 0.35938 0.60156 0.35938 0.96094 0.71875 4.0781 3.4805 4.1992 6.7188 3.6016 1.3203-0.23828 2.6406-0.23828 3.9609-0.12109 1.3203 0.12109 2.7617 0.71875 2.3984 2.3984-0.12109 0.83984-1.0781 1.8008-1.8008 2.0391-1.5586 0.48047-3.2383 0.48047-4.9219 0.96094-9.1211 2.3984-10.078 3.9609-8.0391 13.078 0.35938 1.9219 0 4.1992 2.6406 4.6797 2.2812 0.35938 3.6016-1.1992 4.9219-2.7617 3.4805-4.1992 7.6797-7.3203 12.719-9.3594 1.6797-0.71875 3.4805-2.2812 5.3984 1.0781-4.1992 4.8008-9.1211 9.1211-14.398 13.078-5.0391 3.7188-5.2812 10.078-0.96094 13.441 8.3984 6.7188 21.602 3.3594 25.801-6.7188 0.83984-2.1602 1.1992-4.4414 1.6797-6.7188 0.35938-1.6797 0.96094-3.6016 2.7617-3.6016 2.7617 0 2.8789 2.2812 2.6406 4.3203-0.71875 5.1602 2.0391 7.5586 6.7188 7.8008 3.6016 0.23828 6.7188-4.3203 6.3594-8.6406-0.23828-2.5195-1.5586-4.1992-3.2383-6-1.1992-1.3203-3.3594-2.3984-2.0391-4.8008 3-2.0391 5.0391 0.71875 7.3203 1.4414 10.441 3.3594 18.961-1.6797 20.52-12.238 0.48047-3.3594 0.48047-6.9609-2.5195-9.1211-3.3594-2.3984-7.0781-3.7188-11.16-1.5586-2.0391 1.0781-4.0781 2.2812-6.1211 3.2383-2.9961 1.2031-5.5156 3.1211-9.8359 0.60156zm10.562-223.92c-0.83984 0.23828-1.8008 0.48047-2.8789 0.60156-1.8008 0.23828-3.6016 0-3.6016-2.1602-0.12109-2.0391 1.5586-2.7617 3.2383-3 1.9219-0.35938 3.9609-0.23828 5.8789-0.71875 6.1211-1.5586 10.801-5.0391 13.922-10.559 2.5195-4.5586 2.0391-10.441-0.71875-12.961-6.3594-5.8789-16.68-4.0781-20.762 3.4805-2.3984 4.3203-4.3203 9-7.9219 12.602-0.96094 0.96094-2.3984 0.96094-3.6016 0-1.0781-0.83984-0.60156-1.8008-0.23828-2.6406 1.8008-3.9609 3.7188-7.8008 5.3984-11.762 2.3984-5.7617 0.71875-9.6016-5.1602-11.398-3.6016-1.0781-6.7188-2.6406-9.7188-4.8008-6-4.1992-8.1602-3.3594-10.922 3.6016-2.3984 6.3594-3.8398 12.84 0.12109 19.199 1.1992 1.8008 2.0391 3.8398-0.12109 5.2812-3 2.0391-3.8398-0.96094-5.1602-2.7617-10.922-14.281-24.961-13.922-34.68 1.0781-4.5586 6.8398-2.8789 12.84 4.5586 16.32 5.7617 2.6406 11.879 4.5586 18.238 4.6797 6.4805 0.12109 12.84-0.12109 14.281-8.6406 0.48047-2.6406 2.7617-4.5586 4.9219-6.1211 3.7188-2.6406 10.68-2.5195 14.039 0.23828 3.8398 3.1211 5.6406 8.0391 2.7617 12.48-3.6016 5.6406-2.5195 11.52-3.1211 17.281-0.96094 10.199 6.3594 17.52 16.441 16.078 12.602-1.8008 22.441-8.0391 18.961-23.281-2.0391-8.5195-5.6367-12.359-14.156-12.117zm-81.121 239.28c2.2812-4.3203 5.3984-5.2812 8.6406-5.7617 1.6797-0.23828 3.3594-0.12109 4.9219-0.23828 2.5195-0.23828 4.3203-1.5586 5.0391-4.0781 0.48047-1.6797 0.12109-3.4805-1.3203-4.5586-2.1602-1.5586-4.6797-2.7617-7.3203-0.71875-3.8398 2.8789-8.0391 4.6797-12.84 4.8008-1.1992 0-2.8789-0.12109-2.8789-1.9219 0-0.83984 0.48047-1.9219 1.1992-2.5195 3.3594-2.7617 6.9609-4.9219 11.16-6.2383 4.5586-1.4414 5.1602-5.6406 5.6406-9.7188 0.35938-3.6016-1.3203-6.7188-4.6797-8.0391-3.9609-1.5586-7.8008-0.96094-11.16 1.9219-2.8789 2.3984-4.6797 5.5195-5.5195 9.2383-0.60156 2.5195-1.4414 5.8789-5.0391 4.3203-3.1211-1.3203-2.2812-4.4414-1.3203-6.9609 0.71875-1.8008 2.1602-3.4805 2.7617-5.2812 1.1992-3.4805 2.0391-7.6797-0.60156-10.441-3.2383-3.3594-7.8008-5.1602-12.719-3.3594-5.8789 2.1602-10.68 5.3984-11.641 12.238-0.83984 6.4805 0.12109 8.1602 6.3594 11.52 0.83984 0.48047 1.9219 0.60156 2.6406 1.3203 1.3203 1.1992 2.0391 2.8789 1.1992 4.4414-0.96094 1.8008-2.6406 1.5586-4.1992 0.71875-3.2383-1.8008-6.3594-3.6016-9.6016-5.2812-5.3984-2.8789-8.1602-2.0391-11.398 3.2383-3.6016 5.7617-7.3203 11.281-0.71875 17.52 1.0781 0.96094 0.60156 3.2383 2.1602 4.4414 3.4805-0.12109 6.2383-3.8398 10.199-2.6406 1.3203 0.35938 2.5195 1.0781 2.6406 2.5195 0.12109 1.6797-1.0781 1.9219-2.6406 2.1602-7.4414 1.4414-9.9609 3.7188-11.16 10.199-0.48047 3-0.71875 6.2383 2.7617 7.6797 3.6016 1.4414 7.1992 1.6797 9.4805-2.3984 1.8008-3.1211 3.6016-6.3594 5.6406-9.3594 0.83984-1.3203 2.2812-2.5195 4.0781-1.0781 1.3203 1.0781 0.96094 2.3984 0.35938 3.6016-1.8008 3.6016-3.7188 7.0781-5.6406 10.559-1.8008 3.3594-1.8008 6.3594 2.0391 8.2812 9.7188 4.8008 22.32-1.9219 23.52-12.359 0.35937-3.2383-3.2383-8.2812 1.9219-9.4805 3.8398-0.96094 3.3594 4.9219 5.7617 7.0781 5.1602 4.6797 13.32 4.0781 14.879-1.6797 1.0781-4.0781 1.5586-8.8789-0.60156-12.48-1.6797-2.7617-5.5195 0-8.3984-0.35938-0.48438-0.24219-1.3242-0.36328-3.6055-0.84375zm-146.88-6.2383c0.12109-2.1602 1.6797-2.7617 3.1211-3.6016 2.0391-1.1992 4.5586-2.0391 5.7617-3.7188 2.3984-3.2383 3.4805-7.3203 1.6797-11.281-1.8008-4.3203-5.6406-6.7188-10.078-7.1992-4.4414-0.48047-6.1211 2.8789-7.3203 6.7188-0.48047 1.8008-1.6797 4.3203-3.9609 3.6016-3.1211-0.83984-1.9219-3.7188-1.6797-5.8789 0.12109-0.96094 0.48047-1.9219 0.83984-2.8789 1.8008-4.6797 2.0391-9.3594-1.9219-12.961-4.5586-4.1992-9.2383-1.5586-13.922 0.35938-2.5195 1.0781-4.5586 2.7617-6.2383 4.8008-5.5195 6.6016-5.8789 10.199-1.4414 17.762 1.4414 2.3984 1.6797 4.9219 2.6406 7.4414 0.35938 1.0781 0 2.1602-0.96094 2.3984-0.83984 0.23828-2.2812 0.12109-2.7617-0.48047-2.0391-2.6406-4.0781-5.2812-5.6406-8.1602-2.5195-4.8008-6.1211-4.5586-10.078-2.7617-3.8398 1.8008-7.9219 9.8398-7.5586 14.398 0.35938 4.9219 6.9609 13.441 11.039 14.52 2.2812 0.60156 3.7188-0.48047 5.2812-1.9219 2.2812-2.0391 4.5586-3.8398 6.9609-5.6406 0.96094-0.71875 2.3984-1.4414 3.6016-0.23828 1.0781 1.0781 0.83984 2.5195 0.35938 3.7188-1.3203 3.7188-4.4414 5.5195-7.5586 7.5586-4.6797 3-5.5195 6.4805-3.7188 11.762 1.6797 4.8008 5.2812 5.3984 9.6016 5.1602 6.9609-0.48047 9-1.8008 9.9609-7.3203 0.71875-3.7188 0.35938-7.6797 3.6016-10.68 3.7188 2.8789 2.1602 6.7188 3.7188 9.6016 1.6797 3 3.2383 5.8789 7.3203 5.6406 4.1992-0.12109 7.9219-0.96094 9.4805-5.5195 1.5586-4.3203 2.6406-8.3984-3-10.68-1.0781-0.48047-2.0391-1.8008-1.3203-3.2383 0.71875-1.3203 1.9219-1.8008 3.3594-1.5586 1.6797 0.23828 3.2383 0.83984 4.9219 0.96094 4.1992 0.35937 7.9219-2.2812 8.6406-6.2383 0.71875-3.4805-1.5586-5.8789-5.0391-5.0391-2.293 0.83203-4.8125 3.1133-7.6914 0.59375zm240.72-283.2c-4.9219 3.1211-8.8789 5.5195-12.602 8.1602-1.9219 1.4414-6.4805 1.3203-5.3984 4.5586 1.6797 4.8008 4.9219 0.23828 7.3203 0 8.0391-1.0781 17.762 2.2812 20.398 7.5586 3.2383 6.6016 1.0781 15.121-5.6406 21.602-6 5.7617-5.8789 5.6406-0.96094 11.879 4.1992 5.2812 6.6016 11.52 6.7188 18.238 0.23828 10.199 0.23828 10.801 9.7188 11.52 18.359 1.4414 36.48-0.60156 54.602-2.3984 1.9219-0.23828 3.9609-0.60156 5.8789-1.1992 10.078-3.2383 14.641-10.559 12.238-20.16-11.52 3.6016-22.559 3.1211-31.199-6.3594-3.9609-4.3203-6.8398-3.7188-10.441 0-3.3594 3.3594-7.6797 5.1602-12.238 6.3594-8.3984 2.2812-15.719 0.23828-21.84-5.8789-6.3594-6.4805-6.4805-13.922-3.4805-22.078 1.8008-4.9219 6.1211-8.2812 8.3984-14.16-11.633-0.72266-16.672-8.6406-21.473-17.641zm-165.24 49.801c-1.3203-9.1211-1.3203-9.1211-7.9219-9.2383-12.238-0.12109-19.801-5.3984-23.52-16.078-3-9-1.4414-17.16 5.0391-23.879 3.2383-3.3594 3.9609-5.8789-0.23828-8.7617-1.0781-0.71875-1.9219-1.8008-2.7617-2.8789-2.1602-3-4.1992-2.3984-6.6016-0.23828-6 5.5195-7.8008 12.84-8.8789 20.52-0.96094 6.2383-1.4414 12.48-2.5195 18.719-3.1211 16.559-0.48047 33.121 0.12109 49.559 0.35938 10.32 8.6406 13.32 18.359 8.2812-6.6016-10.078-7.4414-15.121-2.5195-22.801 7.3242-11.406 16.922-17.164 31.441-13.203zm-22.438 57.598c-0.60156 15.121 12 24.84 24.48 18.238 10.559-5.5195 16.559-14.879 17.762-27 0.35938-3.7188-1.0781-5.6406-4.5586-7.5586-7.4414-4.1992-14.398-4.4414-22.559-2.0391-11.406 3.4805-14.766 6.6016-15.125 18.359zm147.96-45.117c-7.5586-5.2812-15.121-6.7188-23.398-3.3594-2.1602 0.83984-4.5586 0.96094-6.8398 0.35938-5.8789-1.3203-9.6016 2.0391-12.238 6.3594-2.8789 4.8008-1.4414 9.4805 1.8008 13.801 6 8.0391 13.922 9.4805 24.719 5.0391 9.7148-4.082 14.516-11.762 15.957-22.199zm-95.281 14.879c6.4805-2.7617 12.121-5.3984 18.719-3.8398 6.4805 1.4414 11.16-1.8008 13.68-8.2812 2.6406-6.6016 0.96094-13.199-4.1992-17.039-9.4805-6.9609-17.879-6.1211-25.199 3.1211-3.2383 4.0781-6.2383 8.5195-10.199 12.719 3.957 3.5977 6.5977 7.6797 7.1992 13.32zm-42.359 7.5586c9.1211-0.12109 11.879-2.0391 14.641-10.559 0.35938-1.1992 0.83984-2.5195 1.4414-3.7188 3.2383-6.6016 3.2383-7.3203-1.8008-11.879-7.8008-7.0781-16.078-6.6016-24.359 1.0781-4.8008 4.4414-7.3203 9.4805-5.1602 15.84 1.5586 5.0391 9.2383 9.3594 15.238 9.2383zm52.32 21.961c7.6797-0.12109 16.68-8.8789 16.922-16.078 0.12109-4.1992-1.1992-7.9219-4.6797-10.441-7.6797-5.7617-24.359-0.71875-27.719 8.2812-1.0781 2.8789-0.96094 6.1211 0.60156 8.6406 3.4727 5.6367 8.3945 9.3555 14.875 9.5977zm-9.2422-65.641c-0.12109-9.9609-7.5586-15.719-15.48-11.281-4.6797 2.6406-10.441 5.7617-9.9609 12.48 0.60156 7.5586 2.0391 15.238 9.2383 19.922 2.1602 1.4414 4.4414 1.4414 5.8789-1.3203 2.5195-5.0391 5.6406-9.7188 9.1211-14.16 1.2031-1.5586 1.2031-3.6016 1.2031-5.6406zm37.082-7.6797c-2.8789-1.0781-4.5586 0.48047-6.4805 0.71875-6.1211 0.96094-11.762 4.5586-18.359 1.8008-2.0391-0.83984-4.8008-3.2383-7.0781-0.35938-0.48047 0.60156-0.23828 2.0391 0.12109 2.8789 1.9219 4.1992 4.4414 0.60156 6.6016 0.23828 7.1992-1.4414 20.52 3.7188 23.879 9.3594 4.6797 8.0391 3.4805 16.922-3.2383 24.719-1.4414 1.6797-3.9609 2.5195-3.9609 5.1602 6.1211 9.7188 6.1211 9.7188 18.961 7.6797-5.3984-10.559-6-20.641 4.1992-28.922-15.605-8.9922-15.605-8.9922-14.645-23.273zm39.238-13.801c3-6.3594 4.0781-13.32 9.1211-18.719 2.6406-2.7617-0.48047-6.8398-2.2812-9.7188-1.8008-2.6406-4.3203-0.60156-6.1211 0.48047-3.8398 2.2812-7.9219 3.2383-12.359 3.2383-1.6797 0-3.9609 0.23828-3.8398 2.1602 0.48047 7.3203-3.9609 13.441-6.1211 21.602 8.5234-4.5625 14.762 0.59766 21.602 0.95703zm285.12 431.04c-9 3-14.398 11.039-14.16 20.879 0.35938 9.9609 3.2383 13.68 13.199 16.199 1.4414-6.3555 2.0391-31.918 0.96094-37.078zm-167.4-104.16c-0.96094-3 1.1992-7.4414-3.4805-9.2383-4.5586-1.6797-8.5195-0.23828-11.879 2.8789-2.6406 2.3984-5.2812 5.0391-6.6016 8.6406-0.96094 2.8789-0.48047 5.2812 1.6797 7.1992 2.6406 2.3984 12.719 3.2383 16.32 1.3203 4.4414-2.2773 3.9609-6.4805 3.9609-10.801zm-200.04-351.24c5.6406-0.23828 9.1211-3.9609 8.7617-9.4805-0.23828-4.5586-3.8398-7.8008-8.5195-7.8008-5.6406 0-11.16 5.5195-10.68 10.68 0.47656 4.2031 4.5586 6.7227 10.438 6.6016zm-10.078 73.68c-3.8398 0.12109-7.1992 3.8398-7.3203 8.0391-0.12109 4.1992 4.8008 9.3594 8.7617 9.2383 3.7188 0 6.9609-4.5586 6.8398-9.4805-0.003907-4.6758-3.4805-7.918-8.2812-7.7969zm-150.84 498.36c0.12109-2.6406-5.1602-7.9219-8.1602-7.4414-3.7188 0.60156-5.8789 3.3594-6.2383 6.8398-0.35938 4.0781 2.3984 5.7617 6.2383 6.1211 4.1992 0.36328 7.918-2.1602 8.1602-5.5195zm310.8-586.68c3.8398-1.0781 6.9609-2.6406 10.199-2.5195 6.7188 0.12109 6-3.9609 6-8.7617-3.6016 0.35938-6.6016 0.71875-9.4805 1.0781-7.1992 1.082-7.1992 1.082-6.7188 10.203zm-50.883 74.281c3.3594-0.23828 6.3594-3.7188 5.8789-6.7188-0.60156-3.4805-3.2383-4.9219-6.2383-5.2812-3.1211-0.48047-6.4805 3.9609-6.1211 7.5586 0.48047 4.082 3.9609 3.6016 6.4805 4.4414z"/>
 <path d="m540.6 624.6c-10.32 0.23828-14.16-3.2383-16.32-13.441-4.3203-20.879 9.9609-29.16 23.641-31.078 13.68-1.9219 24.238 11.398 19.922 24.48-4.5625 14.156-12.125 19.676-27.242 20.039zm3.5977-8.6406c3.9609-0.60156 8.1602-0.96094 11.879-3.4805 6.6016-4.4414 8.7617-10.078 6.6016-17.039-2.1602-7.0781-6.6016-9.4805-15.121-9.4805-8.3984 0-12.238 5.2812-15.359 11.879-4.3203 9.7188 1.3203 18.359 12 18.121z"/>
 <path d="m601.68 519c0.23828-15.48 11.641-24.359 26.52-20.641 0.60156 0.12109 1.1992 0.48047 1.9219 0.60156 7.4414 1.3203 13.559 4.6797 14.398 12.84 0.96094 8.8789-0.60156 13.922-10.078 19.68-6.8398 4.0781-14.039 5.6406-21.84 3.1211-8.1602-2.8828-11.043-6.9609-10.922-15.602zm19.559 11.641c7.3203 0.23828 12-2.2812 15.719-6.2383 6.3594-6.8398 4.0781-15.719-4.5586-18.961-6.7188-2.5195-15.602 0-20.641 5.8789-7.1992 8.3984-4.5586 16.68 6.2383 18.961 1.5625 0.35938 3.2422 0.35938 3.2422 0.35938z"/>
 <path d="m376.56 647.52c-0.12109 13.801-8.8789 23.281-21 22.922-10.199-0.23828-18.719-11.281-18.238-23.641 0.35938-9.9609 10.199-18.602 21-18.719 10.199-0.003906 18.359 8.6367 18.238 19.438zm-5.3984 2.6406c-0.35938-9.4805-6.3594-16.441-13.801-16.078-6.4805 0.35938-13.441 9.6016-13.199 17.398 0.35938 7.3203 6.2383 12.84 13.68 12.719 8.0391 0 13.559-6 13.32-14.039z"/>
 <path d="m838.56 510.36c-15.84 0-25.559-13.199-19.199-27.602 4.1992-9.7188 13.801-13.078 23.641-13.922 16.922-1.4414 25.199 10.68 18.359 26.281-3.3594 7.6836-14.641 15.242-22.801 15.242zm20.402-23.281c0.35937-3.6016-1.0781-5.7617-3.8398-7.8008-9.8398-7.4414-22.441-6-29.762 3.8398-3.3594 4.4414-2.1602 14.52 2.0391 18.238 5.0391 4.4414 14.16 6.1211 19.441 3.1211 6.9609-3.957 12.602-8.875 12.121-17.398z"/>
 <path d="m512.4 508.56c10.078-0.23828 17.52 6.4805 17.641 15.719 0.12109 11.281-9.7188 20.398-22.199 20.52-7.6797 0-15.719-8.8789-15.719-17.398 0-9.8398 9.2383-18.477 20.277-18.84zm12.602 17.52c-0.35938-8.3984-4.4414-12.48-12.121-11.879-7.5586 0.48047-14.641 7.4414-14.16 13.922 0.48047 6.6016 5.3984 10.441 13.32 10.199 6.8398-0.12109 13.199-6.2422 12.961-12.242z"/>
 <path d="m846 665.16c0 15.602-20.281 27.961-33.961 20.52-11.039-6-13.078-19.801-3.7188-29.52 7.5586-7.8008 22.441-11.52 33.121-1.5586 3.1172 3 4.5586 6.3594 4.5586 10.559zm-23.281 19.32c6.9609 0.12109 14.16-5.2812 17.281-12.961 3.1211-7.5586 1.5586-11.281-6.1211-14.281-2.7617-1.0781-5.5195-2.5195-8.3984-3-9-1.4414-17.16 6.2383-17.641 16.078-0.35938 7.5625 6.6016 14.043 14.879 14.164z"/>
 <path d="m693.48 682.44c-9.2383 0-14.398-5.0391-14.281-13.922 0.12109-10.559 10.078-20.879 20.039-20.879 11.641 0.12109 16.078 7.9219 16.441 18.238 0.35937 9.4805-9.6016 16.562-22.199 16.562zm2.7578-5.2812c8.6406-0.23828 14.16-4.9219 14.16-11.879-0.12109-6.9609-5.2812-12.602-11.398-12.359-6.2383 0.23828-13.32 8.3984-13.199 15.121 0.12109 5.6367 4.1992 9.3555 10.438 9.1172z"/>
 <path d="m786.12 553.2c0.12109 8.3984-5.0391 13.441-11.641 17.039-6.6016 3.6016-13.441 3.1211-19.801-0.83984-2.6406-1.5586-4.1992-4.0781-4.5586-7.3203-1.4414-12.602 13.078-25.32 25.441-22.199 7.5586 1.8008 10.438 5.4023 10.559 13.32zm-19.441 13.562c6.9609-0.12109 13.32-5.7617 14.398-12.719 0.60156-3.8398-0.83984-6.3594-4.4414-7.9219-6.4805-2.7617-12.359-0.83984-17.398 5.5195-2.7617 3.4805-3.6016 6.9609-1.9219 11.039 1.8047 4.3203 5.7617 3.8398 9.3633 4.082z"/>
 <path d="m506.76 692.88c-9.3594 0.35938-15.359-4.4414-15.719-12.602-0.48047-9.1211 7.8008-19.078 16.199-19.199 7.4414-0.12109 15.84 6.6016 16.32 13.078 0.71875 8.6445-8.043 18.484-16.801 18.723zm-0.12109-6c6.1211 0.12109 11.398-4.5586 11.398-9.8398-0.12109-4.4414-5.2812-9.6016-9.7188-9.7188-5.2812-0.12109-10.199 5.2812-10.32 11.281-0.12109 5.5195 2.5195 8.1602 8.6406 8.2773z"/>
 <path d="m624.12 647.4c-11.641 0.12109-18-10.078-12.602-20.641 4.9219-9.7188 21.602-13.559 29.52-6.6016 3 2.6406 4.6797 9.6016 3.2383 13.801-2.8789 8.2812-10.316 13.324-20.156 13.441zm2.3984-4.1992c8.1602 0 14.039-5.3984 13.801-12.238-0.23828-5.3984-4.8008-8.5195-12.238-8.2812-7.6797 0.23828-12.84 5.1602-12.48 12.238 0.23828 5.6406 3.7188 8.2812 10.918 8.2812z"/>
 <path d="m375.24 540.48c0.23828 8.0391-6.6016 16.078-14.16 16.32-8.2812 0.35938-14.281-5.5195-14.52-14.16-0.12109-8.3984 6.7188-15.719 14.641-15.719 8.2812 0 13.801 5.3984 14.039 13.559zm-14.52-7.5586c-4.6797 0.35938-8.1602 5.1602-7.8008 10.801 0.23828 4.5586 3.3594 7.1992 7.9219 6.6016 4.3203-0.48047 8.3984-5.2812 8.2812-9.6016-0.12109-4.2031-4.3203-8.043-8.4023-7.8008z"/>
 <path d="m414.36 575.04c0.12109-6.2383 4.5586-12.238 10.559-14.16 5.6406-1.8008 11.16 0.12109 14.879 5.0391 3.3594 4.5586 3 7.4414-1.4414 13.32-2.5195 3.3594-5.7617 5.5195-9.6016 6.7188-8.0352 2.5234-14.516-2.3984-14.395-10.918zm21.121-2.2773c-0.23828-3.6016-3.7188-6.8398-7.1992-6.6016-3.8398 0.23828-7.1992 3.8398-7.0781 8.0391 0 3.8398 1.8008 6.2383 5.8789 6.3594 4.4375 0.12109 8.6367-3.8398 8.3984-7.7969z"/>
 <path d="m847.44 566.04c6.6016-0.35937 10.922 4.1992 11.52 12 0.48047 6.4805-7.4414 14.762-14.16 15-5.8789 0.23828-12.121-5.0391-12.48-10.441-0.60156-8.2773 6.4805-16.078 15.121-16.559zm0 5.8828c-4.4414 0-8.6406 4.1992-8.8789 8.8789-0.23828 4.5586 2.6406 7.3203 7.3203 7.0781 4.3203-0.23828 8.0391-3.9609 8.2812-8.1602 0.11719-4.918-2.2852-7.7969-6.7227-7.7969z"/>
 <path d="m412.2 667.08c-0.23828-6.7188 5.0391-12.84 11.039-13.078 6.3594-0.23828 12.359 4.5586 12.719 10.199 0.48047 6.8398-7.5586 15.359-14.398 15.238-4.5586 0.003906-9.2383-5.9961-9.3594-12.359zm12.961 5.6406c3.8398-0.23828 6.3594-3.2383 6.2383-7.1992-0.12109-3.4805-1.6797-5.6406-5.3984-5.2812-3.2383 0.23828-7.1992 5.3984-6.6016 8.5195 0.48047 3.0039 2.8828 3.7227 5.7617 3.9609z"/>
 <path d="m661.2 573c-6.3594 0-9.2383-2.7617-9.2383-9-0.12109-7.9219 5.1602-13.32 13.078-13.32 6 0 11.398 4.9219 11.281 10.32-0.24219 6-7.6797 11.879-15.121 12zm1.1992-5.2812c4.5586 0.23828 8.1602-2.7617 8.0391-6.3594-0.12109-3.8398-2.3984-4.9219-5.8789-5.0391-4.4414-0.23828-5.8789 2.2812-6 6 0 3 1.2031 5.1602 3.8398 5.3984z"/>
 <path d="m598.08 709.56c-5.2812 0.12109-7.9219-1.9219-8.2812-6.3594-0.48047-6.6016 6.2383-15.121 11.879-15.238 4.1992-0.12109 8.8789 5.1602 9.1211 10.32 0.24219 5.7578-5.6367 11.039-12.719 11.277zm2.1602-6.3594c2.7617-0.23828 5.0391-1.3203 5.3984-4.4414 0.35938-2.7617-1.5586-4.6797-3.8398-4.9219-4.1992-0.35938-3.9609 3.6016-4.5586 6.1211-0.47656 1.9219 0.96094 3.0039 3 3.2422z"/>
 <path d="m580.2 555.24c6.2383-0.23828 9.3594 2.5195 9.8398 8.3984 0.35938 4.6797-6.9609 9.9609-13.68 9.9609-4.1992 0-7.3203-2.5195-7.5586-6.1211-0.24219-6.7148 4.6797-11.996 11.398-12.238zm3.9609 7.6836c-0.35938-2.0391-1.4414-3-3.3594-2.8789-3 0.12109-3.8398 2.1602-3.8398 4.6797 0 1.9219 1.1992 3 3.2383 2.7617 2.7617-0.36328 3.9609-2.043 3.9609-4.5625z"/>
 <path d="m727.44 605.52c0 5.0391-6 10.559-11.281 10.32-4.4414-0.12109-7.5586-3.2383-7.4414-7.4414 0.12109-5.3984 4.4414-9.1211 10.68-9.2383 5.1602-0.12109 8.043 2.1602 8.043 6.3594zm-7.9219 1.5586c-0.23828-0.48047-0.23828-1.4414-0.60156-1.4414-1.4414-0.23828-2.3984 0.35938-2.7617 1.8008-0.12109 0.48047 0.23828 1.4414 0.71875 1.5586 1.8047 0.60547 1.9258-1.0742 2.6445-1.918z"/>
 <path d="m318.12 608.28c-5.0391 0.23828-7.5586-2.0391-7.5586-6.8398 0-6.7188 5.0391-12.238 11.398-12.602 4.3203-0.23828 7.3203 2.5195 7.5586 7.1992 0.60156 6.2422-4.6797 11.883-11.398 12.242zm6.2383-11.883c0-1.4414-0.35938-2.6406-2.0391-2.6406-3.2383 0-4.5586 2.1602-4.9219 4.9219-0.23828 1.3203 0.71875 2.3984 2.2812 2.6406 3.7188 0.48047 3.8398-2.6406 4.6797-4.9219z"/>
 <path d="m474.84 622.92c-0.12109-5.6406 4.9219-11.52 9.9609-11.641 3.8398-0.12109 7.9219 3.4805 8.0391 7.1992 0.23828 5.3984-5.6406 11.879-11.039 12.121-4.082 0.23828-6.8398-2.7617-6.9609-7.6797zm10.082-4.4414c-2.2812 0-3.9609 1.1992-4.1992 3.9609-0.12109 1.4414 0.48047 2.7617 2.0391 2.7617 3 0.12109 4.9219-1.6797 5.2812-4.5586 0.23828-1.8047-1.5625-1.6836-3.1211-2.1641z"/>
 <path d="m440.64 506.64c-0.12109 4.6797-2.7617 7.4414-6.2383 9.8398-3.1211 2.0391-6.8398 3.8398-10.199 1.8008-3.8398-2.2812-4.1992-6.3594-3-10.559 1.3203-4.6797 5.1602-7.6797 9.3594-7.4414 3.957 0.11719 9.8359 3.957 10.078 6.3594zm-9.9609 7.1992c2.8789-0.35938 5.2812-1.8008 5.2812-4.8008 0-2.5195-2.3984-2.7617-4.4414-2.5195-2.8789 0.35938-5.1602 1.5586-4.6797 5.0391 0.35938 2.043 2.1602 2.4023 3.8398 2.2812z"/>
 <path d="m771.84 608.16c5.6406-0.23828 9 2.8789 9 8.0391-0.12109 5.5195-4.8008 9.2383-11.641 9.6016-5.2812 0.23828-8.2812-2.3984-8.2812-7.3203-0.11719-5.7617 4.5625-10.082 10.922-10.32zm-0.96094 13.199c2.3984-0.48047 5.3984-0.48047 5.2812-4.1992 0-2.5195-2.0391-3.2383-4.0781-3.3594-3.4805-0.23828-4.6797 2.0391-4.8008 4.9219 0 2.0391 1.6797 2.5156 3.5977 2.6367z"/>
 <path d="m442.32 1035.6c-1.5586 2.6406-4.1992 3.9609-6.6016 5.6406-6.4805 4.4414-11.281 9.7188-13.922 17.52-6.2383 18.121-1.9219 30.961 13.801 42 16.801 11.879 36.121 16.199 55.559 20.762 18.84 4.3203 38.039 5.7617 57.238 7.1992 15.602 1.1992 31.199 0 46.801-0.83984 22.199-1.0781 44.398-3.1211 65.879-9.4805 1.3203-0.35938 2.6406-0.48047 4.1992 1.0781-4.4414 4.3203-10.32 5.3984-15.961 6.3594-16.801 2.6406-33.602 4.3203-50.52 5.1602-6.6016 0.35938-13.32 0.71875-19.922 1.1992-18.602 1.5586-37.078-0.12109-55.559-1.9219-18.602-1.6797-36.719-5.5195-54.719-10.32-15.602-4.0781-30.121-9.9609-42.84-20.039-11.039-8.7617-15.719-25.078-11.52-38.398 3.6016-11.398 9.7188-20.281 20.52-25.559 2.2852-1.082 4.4453-2.8828 7.5664-0.35938z"/>
 <path d="m536.76 1054c22.199 18.602 57.719 18.48 81.84-5.8789 1.4414 5.3984 1.0781 9.1211-3 12.48-10.922 8.8789-21.961 15.48-37.441 15.48-14.879-0.12109-27.961-2.2812-40.078-11.16-4.6836-3.6016-4.5625-6.4844-1.3203-10.922z"/>
 <path d="m702.6 1110c4.3203-4.0781 9.8398-5.3984 15-7.1992 13.441-4.8008 24.359-13.078 34.922-22.32 4.5586-3.9609 8.0391-8.7617 10.32-14.398 0.71875-1.6797 0.71875-4.5586 3.4805-3.7188 3.1211 0.96094 2.0391 3.7188 1.4414 5.8789-1.3203 4.5586-3.9609 8.5195-7.1992 11.762-15.121 15-32.762 25.68-53.641 30.602-1.4453 0.23438-2.7656 0.59375-4.3242-0.60547z"/>
 <path d="m747.84 264.12c3.4805 0.35938 6.1211 0.60156 8.7617 1.0781 12.48 2.1602 13.801 8.1602 9.1211 19.441-2.5195 6-15.84 11.879-22.199 10.801-8.1602-1.4414-12.602-7.3203-12-15.602 0.71484-9.3594 8.0352-16.078 16.316-15.719zm0.60156 25.199c6.6016-0.12109 12.84-3.8398 13.441-8.0391 0.60156-3.9609-2.8789-6.6016-11.398-8.7617-0.96094-0.23828-1.9219-0.35938-2.8789-0.71875-4.3203-1.6797-7.0781 0.60156-9.1211 3.7188-1.9219 2.8789-2.1602 6.1211-0.35938 9.3594 2.3945 4.1992 6.3555 4.5625 10.316 4.4414z"/>
 <path d="m523.8 355.32c0 6.3594-3.2383 11.52-9.4805 13.68-5.1602 1.8008-10.68 4.6797-15.719-0.48047-4.8008-4.9219-6.3594-10.922-4.5586-17.398 1.8008-6.3594 12.48-12.121 19.441-10.801 6.1172 1.1992 10.195 7.0781 10.316 15zm-13.199-8.1602c-5.5195-0.12109-10.559 4.9219-10.922 10.801-0.12109 3.1211 3.4805 6 7.6797 6s10.68-6.3594 10.559-10.199c0.003906-3.6016-3.3594-6.4805-7.3164-6.6016z"/>
 <path d="m806.04 316.44c1.3203 0.23828 3.3594 0.48047 5.2812 0.96094 9.3594 2.2812 12.84 12.48 6.8398 20.039-5.5195 7.0781-16.078 9.6016-24.359 5.7617-5.5195-2.5195-8.2812-8.2812-6.6016-13.922 2.0391-6.9609 10.922-13.203 18.84-12.84zm-2.8789 23.637c5.3984-0.23828 11.039-4.3203 11.16-8.2812 0.23828-4.1992-7.0781-9.3594-12.48-8.8789-4.4414 0.35938-8.2812 4.8008-8.3984 9.6016-0.12109 4.6797 3.957 7.8008 9.7188 7.5586z"/>
 <path d="m623.04 377.88c-4.4414 0.35938-8.7617-0.48047-11.16-5.5195-2.5195-5.3984-1.0781-14.762 2.8789-18.602 3.1211-3 7.0781-4.9219 11.398-5.5195 7.3203-0.96094 14.879 3.3594 16.559 9.4805 1.9219 6.4805-1.4414 14.16-7.8008 17.52-2.9922 1.8008-6.2344 2.5234-11.875 2.6406zm5.2812-22.801c-6.1211 0-11.641 4.9219-11.762 10.801-0.12109 4.1992 3.9609 6.9609 10.078 6.9609 6.8398-0.12109 11.281-3.4805 11.039-8.5195-0.35547-5.3984-4.1953-9.2422-9.3555-9.2422z"/>
 <path d="m436.56 320.76c-6.3594 0-9.8398-3.3594-9.9609-9.7188-0.12109-6.4805 6.6016-13.441 13.199-13.68 4.6797-0.12109 9.9609 6 9.9609 11.641 0.003907 6.957-5.3984 11.758-13.199 11.758zm6.7227-11.523c0-2.1602-0.71875-4.3203-3.7188-4.5586-2.0391-0.23828-6 4.8008-5.7617 7.1992 0.23828 2.0391 1.8008 2.7617 3.4805 2.8789 3.5977 0.24219 5.6406-1.5586 6-5.5195z"/>
 <path d="m442.32 374.04c-5.5195-0.12109-10.199-4.1992-10.32-8.8789-0.12109-5.3984 6.7188-11.281 13.199-11.281 4.9219 0 8.2812 3.3594 8.0391 8.0391-0.35938 6.2422-5.7578 12.242-10.918 12.121zm0.35938-6.3594c1.9219-0.12109 3-0.96094 2.7617-3-0.23828-1.4414-1.3203-2.0391-2.7617-2.0391-1.6797 0.12109-1.8008 1.4414-2.0391 2.6406-0.35938 1.7969 0.48047 2.3984 2.0391 2.3984z"/>
 <path d="m718.56 354.12c0.12109-6.6016 5.1602-12.359 10.559-12 5.2812 0.35938 11.039 6 11.039 10.922s-7.3203 10.559-13.68 10.559c-4.4375-0.12109-8.0352-4.2031-7.918-9.4805zm14.762-1.6797c-0.35937-2.1602-1.6797-2.8789-3.4805-2.8789-3.2383 0-5.0391 1.8008-5.2812 4.6797-0.12109 1.9219 1.1992 3.1211 3.2383 2.6406 2.5234-0.48437 5.1641-1.2031 5.5234-4.4414z"/>
 <path d="m555.24 303.96c0.12109 7.0781-5.1602 12.961-11.879 13.199-5.8789 0.23828-9.1211-3.1211-9.1211-9.1211 0-6.8398 5.6406-13.32 11.879-13.559 5.4023 0 9.0039 3.5977 9.1211 9.4805zm-14.16 2.7578c0.48047 2.6406 2.5195 3.1211 4.4414 3 2.7617-0.12109 4.3203-1.9219 4.1992-4.5586-0.12109-2.3984-1.4414-4.8008-4.3203-4.4414-3 0.60156-3.3594 3.7227-4.3203 6z"/>
 <path d="m676.2 334.2c-6.4805 0.12109-10.801-3.9609-10.801-10.199 0.12109-6.9609 5.2812-11.762 12.719-11.879 8.6406-0.12109 12.238 2.1602 12.121 7.9219 0 6.1172-7.6797 13.918-14.039 14.156zm0.12109-4.4375c3.7188 0 7.8008-3.8398 7.8008-7.5586 0.12109-3.7188-2.1602-5.1602-5.6406-5.1602-4.4414-0.12109-7.0781 2.5195-7.4414 7.1992-0.35937 3.957 2.2812 4.918 5.2812 5.5195z"/>
 <path d="m637.08 278.88c5.2812 0.12109 9.6016 3.9609 9.2383 8.0391-0.60156 5.5195-5.3984 9.9609-10.559 9.7188-5.5195-0.23828-9.3594-3.7188-9.2383-8.2812 0.12109-4.9141 5.2812-9.5938 10.559-9.4766zm2.5234 8.2812c-0.12109-1.8008-1.4414-2.1602-2.7617-2.1602-1.8008 0.12109-3.2383 1.0781-3.4805 2.8789-0.23828 1.4414 0.60156 2.7617 2.1602 2.6406 2.0391-0.12109 3.8398-0.96094 4.082-3.3594z"/>
 <path d="m769.92 367.68c4.5586 0 6.8398 2.2812 6.8398 6.6016 0 5.3984-4.5586 9.6016-10.441 9.7188-3.9609 0-6.2383-2.0391-6.3594-5.8789-0.24219-5.1602 5.0391-10.441 9.9609-10.441z"/>
 <path d="m822.48 272.88c-0.12109 3.1211-2.6406 5.7617-6 7.4414-3.2383 1.6797-6.7188 2.6406-10.32 0.60156-1.5586-0.83984-2.3984-2.1602-2.7617-3.8398-0.96094-3.9609 1.3203-8.3984 5.5195-10.559 4.1992-2.1602 8.2812-1.9219 12 0.96094 1.3203 1.0742 1.6836 2.7539 1.5625 5.3945zm-5.7617 0.48047c-0.23828-1.5586-1.3203-2.1602-2.6406-2.1602-2.1602-0.12109-3.7188 0.83984-3.9609 3.1211-0.12109 1.5586 0.96094 2.2812 2.3984 2.1602 2.043 0 3.7227-0.83984 4.2031-3.1211z"/>
 <path d="m578.4 368.4c-4.5586-0.12109-6.9609-2.3984-6.8398-6.6016 0.12109-4.8008 4.1992-8.3984 9.2383-8.1602 3.6016 0.12109 6.8398 4.0781 6.8398 8.1602 0.003906 4.2031-3.5977 6.7227-9.2383 6.6016z"/>
 <path d="m731.88 177c-7.3203 0-12-4.4414-11.879-11.398 0.12109-7.9219 6.4805-14.16 14.641-14.281 6.2383-0.12109 13.199 6.7188 13.559 13.199 0.35938 6.2422-7.6797 12.359-16.32 12.48zm10.441-13.078c-0.83984-3.1211-1.9219-6.1211-6.2383-6-4.4414 0.12109-9.4805 4.9219-9 9 0.48047 4.3203 4.1992 4.6797 7.5586 4.6797 3.9609 0.11719 7.8008-3.8398 7.6797-7.6797z"/>
 <path d="m643.32 119.88c-5.3984 0.35938-9.1211-1.9219-12.602-4.5586-2.5195-1.9219-3.3594-4.9219-2.8789-8.0391 1.4414-10.199 15.719-17.281 24.84-12.48 8.2812 4.4414 8.5195 16.801 0.23828 22.078-3.2383 2.043-6.7188 2.8828-9.5977 3zm0.12109-5.0391c5.5195-0.12109 10.078-4.1992 9.9609-9 0-3.8398-4.4414-6.9609-9.4805-6.6016-5.2812 0.35938-10.441 4.9219-10.32 9 0.23828 3.4805 5.1602 6.7227 9.8398 6.6016z"/>
 <path d="m706.44 442.68c-2.3984 0.12109-5.1602-1.4414-5.8789-5.1602s6-9.9609 10.559-9.8398c3.7188 0.12109 5.0391 2.6406 5.0391 5.8789 0.12109 5.043-3.3594 8.7617-9.7188 9.1211z"/>
 <path d="m793.32 437.28c-3.9609-0.12109-7.6797-0.35938-8.2812-5.1602-0.35937-2.7617 5.0391-7.6797 7.9219-7.8008 3.1211-0.12109 8.3984 4.6797 7.9219 7.3203-0.72266 4.1992-3.4844 6.1211-7.5625 5.6406z"/>
 <path d="m483 428.88c3-0.12109 5.2812 0.83984 5.1602 4.3203-0.12109 3.6016-4.0781 7.6797-7.8008 7.6797-3.6016 0-4.3203-2.5195-4.3203-5.3984-0.11719-3.9609 2.6406-6.4805 6.9609-6.6016z"/>
 <path d="m635.04 442.92c-3.1211-0.23828-4.8008-1.8008-4.6797-5.0391 0.23828-4.3203 3.6016-7.4414 7.8008-7.1992 3.6016 0.12109 5.3984 2.2812 5.3984 5.7617-0.11719 3.5938-4.1992 6.5938-8.5195 6.4766z"/>
 <path d="m565.2 436.92c0.12109 5.1602-1.9219 7.5586-6.1211 7.8008-3.9609 0.12109-8.1602-2.6406-8.1602-5.3984-0.12109-3.4805 4.5586-7.0781 9.2383-7.1992 3.9648-0.24609 5.1641 1.9141 5.043 4.7969z"/>
 <path d="m409.08 446.04c-3.2383 0-6.4805-3.7188-6.4805-7.4414 0-4.0781 3.4805-6.9609 8.0391-6.9609 3.9609 0 6.1211 2.1602 6.4805 6 0.24219 4.082-3.957 8.4023-8.0391 8.4023z"/>
</svg>
