<?xml version="1.0" encoding="UTF-8"?>
<svg width="1200pt" height="1200pt" version="1.1" viewBox="0 0 1200 1200" xmlns="http://www.w3.org/2000/svg">
 <path d="m429.66 951c3.1406-1.0781 4.7812-4.5 3.7031-7.6406-1.125-3.1406-4.5-4.7344-7.6406-3.7031-33.703 11.766-56.766 26.484-66.75 42.562-0.9375 1.2188-0.89062 1.9219-1.6406 3.2812-6.6562 2.4844-6.5156 10.875-6.1406 17.625 0.84375 15.328-1.3594 35.062 2.5781 49.359 9.2812 32.672 61.547 43.172 85.453 48.844 157.4 37.594 419.58-7.0781 432.32-78.469 16.781-25.125 1.6875-47.672-23.953-63.844-2.8125-1.7812-6.5156-0.9375-8.2969 1.875s-0.9375 6.5156 1.875 8.2969c14.812 9.3281 29.25 22.734 24.328 39.562-10.828 34.547-107.2 70.266-249.84 70.266-150 0-250.78-39.844-250.78-77.062 0-4.4531 1.2188-8.4375 3.8906-12.609 11.625-18.844 40.031-31.078 60.891-38.344z"/>
 <path d="m934.22 424.55c-3.375-0.65625-6.4688 1.3594-7.1719 4.5469-0.70312 3.2344 1.3125 6.4688 4.5469 7.1719 98.484 21.938 157.31 53.578 157.31 84.609 0 15.516-15.047 31.641-43.594 46.641-79.781 42-252.66 69.141-440.39 69.141-289.5 0-483.98-59.859-483.98-115.73 0-1.3594 0.14062-2.6719 0.375-4.2188 23.812-51.375 110.91-71.109 166.55-82.406 7.9219-1.5938 5.2031-13.5-2.3906-11.766-48.516 9.7031-143.34 31.266-170.44 77.297-10.078 8.9062-16.312 18.234-18 27.75-5.8594 13.219-8.0625 27.844-6 42.844 5.8594 42.844 20.297 65.672 56.062 84.797 92.953 49.969 270.89 66.75 375.71 70.547-7.5469 45.234-29.016 65.203-47.156 98.484-26.344 47.719-35.531 107.11-25.266 162.89 2.1562 12.047 9.3281 22.5 19.125 27.891 86.672 48.75 192.14 48.094 281.39 6.375 11.344-5.4844 19.594-17.625 22.078-32.438v-0.046875c8.7656-54.844-0.75-112.45-26.109-158.11-18.891-33.891-42.375-57.047-48.422-105.94 79.688-3.7031 207.79-17.203 282.42-42.844 21.188-6 43.969-14.203 63.797-25.547l0.09375-0.09375c0.23438-0.14062 0.46875-0.23437 0.70312-0.42187 63.281-36.094 76.172-97.078 54.422-143.48-8.0625-34.734-66.094-65.766-165.66-87.938zm-197.76 412.03c24.094 43.359 33.094 98.156 24.797 150.37-1.8281 11.016-7.5938 19.828-15.375 23.578-88.781 41.531-189.89 39.281-270.37-6-6.7031-3.7031-11.625-11.016-13.172-19.594-9.7969-53.109-1.0781-109.55 23.953-154.92 19.547-35.766 38.766-50.438 48.797-103.88 50.297 1.6406 97.031 1.5 151.45-0.75 10.734 61.359 27.562 71.109 49.922 111.19zm302.86-190.92c-0.1875 0.09375-0.375 0.23438-0.5625 0.375-138.24 78.891-686.39 90.469-870.52-8.1562-32.859-17.719-46.641-38.156-52.734-78.469-0.70312-5.4375-1.1719-9.7969-0.46875-17.719 39.469 67.359 268.13 106.92 489.94 106.92 189.52 0 364.6-27.656 445.97-70.5 22.688-11.906 37.547-24.75 44.766-38.203 6.8906 38.25-8.1562 78.328-56.391 105.75z"/>
 <path d="m474.1 431.16c-8.0625-0.70312-9.0469 11.109-1.2656 11.953 24.281 2.625 51.891-6.4219 73.969-27.094 41.344 28.828 85.828-33.094 92.578-37.359 4.3125-2.6719 10.594-3.8906 14.344-0.98438 3.1875 2.4844 5.0156 8.3438 6.6094 12.516 12.281 31.078 49.641 52.219 79.828 38.391 7.2188-3.2812 2.2031-14.25-5.0156-10.922-23.812 10.922-54-7.3125-63.703-31.875-5.1562-13.5-7.5-15.328-10.406-17.578-8.5312-6.6562-20.25-4.6406-28.125 0.28125-10.594 6.6094-45.844 58.734-77.859 38.812 21.422-24.281 39.375-68.297 33.422-103.78-6.7969-40.594-62.391-56.156-78.938-11.062-13.688 37.266 2.8594 74.109 16.453 98.625 3.0938 5.5781 6.9375 11.625 11.719 16.922-18.234 16.781-41.766 25.453-63.609 23.156zm62.484-45.984c-12.469-22.406-27.656-55.969-15.703-88.641 11.766-32.109 50.859-20.766 55.828 8.9062 5.25 31.453-11.812 72.797-30.609 93.844-3.2344-3.75-6.375-8.4375-9.5156-14.109z"/>
 <path d="m876.05 315.28c9.2812 1.3125 18.891 1.5938 31.312-4.3594 30.516-14.859 36.469-36.469 45.141-46.266 18.094-19.969-5.3906-20.812-16.734-69.609-2.8125-12.328-5.625-20.156-17.016-24.562 5.0625-21.281 5.3906-34.172-6.4219-50.25-20.812-28.031-18.656-34.453-49.406-23.906-21.047 7.0781-29.672 8.0156-40.734 11.672-18.844-23.578-50.25-28.359-77.391-17.484-4.9219 2.0625-11.297 5.3906-17.859 5.0625-12.422-1.0312-15.656 5.7656-19.406 17.344-4.1719 12.094-23.438 31.641-9.9375 64.641-5.3906 1.875-10.688 4.9219-15.703 9.375-1.4062 1.2188-2.5781 2.7188-3.8906 4.0781-82.125-5.5781-160.87-7.1719-235.36-3.6562-14.906 0.70312-22.219 17.719-23.484 26.25-15.188 100.45-21.938 198.28-20.859 290.44 0.23438 14.062 10.875 25.828 24.703 27.375 7.875 0.9375 16.5 2.0156 25.359 2.9531 8.1562 0.5625 8.9062-11.156 1.2656-11.953-7.9688-0.84375-16.453-1.875-25.266-2.9062-7.9219-0.84375-13.969-7.5938-14.109-15.609-1.0312-89.812 5.3438-187.03 20.766-288.52 1.125-7.7812 7.5469-13.5 15.328-13.594 66.703-1.125 140.26 2.2031 218.68 9.6094-6.0938 18.562 2.9531 28.875 2.1094 40.078-1.4531 14.719-17.297 30.281 29.484 54.656 17.812 8.5781 23.062 7.0781 41.625 4.4531 8.1562 34.406 27.75 24.516 57.094 44.344 1.5469 0.9375 5.1562 3.2344 6.1875 3.75-6.7969 112.78 1.3594 65.812-10.547 172.4-0.98437 7.9219-7.7344 13.875-15.703 13.875h-0.14063c-114.47-0.89063-214.69-11.906-257.95-15.375-8.0156-0.60938-8.9531 11.203-1.125 11.953 46.172 3.7031 140.11 14.531 258.98 15.469h0.23438c14.062 0 25.922-10.453 27.609-24.375 6.8438-53.812 11.859-118.17 15.234-172.45 12.328-3.2812 25.125-12.656 34.688-21 12.094 32.203 14.484 36.422 39.422 111.09 0 0.60937 0.09375 1.1719 0.28125 1.7344 3.1875 10.406-4.7344 21.234-16.406 20.484-12.141-0.79688-27.234-1.875-43.828-3.0938-7.5-0.9375-9.0938 11.391-0.84375 11.953 4.7344 0.32813 43.266 3.1875 45.984 3.1875 18.797 0 32.016-18.234 26.578-36h-0.046876c-0.23437-1.0781-0.375-1.3125-1.9219-6.375 1.7344-4.5 2.1094-9.6094 0.32812-14.766-8.3438-24.984-22.828-62.156-37.828-98.953 3.9375-4.0781 8.625-7.9688 11.531-13.172zm-54.938-194.02c0.89062-0.09375 1.7344-0.375 2.5312-0.89062 0.046875-0.046875 0.046875-0.09375 0.09375-0.09375 10.172-3.7969 20.391-4.8281 43.781-12.75 4.6875-1.5938 9.0938-3.1406 13.5-3.6094 5.2031-0.51562 2.7188-2.5781 21.609 23.484 1.5469 2.1094 3.0938 4.2188 4.3125 6.5156 5.4375 10.406 2.625 23.531 0.046875 34.312-35.156-1.8281-50.344 22.734-67.312 35.062-3.7031-0.046875-7.3125-0.46875-10.312-2.9531-9.7969-8.1094 1.125-18.984-1.5-29.016-2.625-7.875-11.109-3.8438-16.266 3.6094-4.7344-35.391-4.9688-35.625-4.3125-39.188 1.1719-6.9375 7.4062-11.719 13.828-14.484zm-112.45 16.219c2.9062-6.6094 7.5469-12.797 10.219-20.625 5.7188-17.719 1.1719-2.5781 27.094-13.734 1.5938-0.42188 18.703-9.7031 39.938-4.5469 9.7969 2.2969 18.516 7.5469 24.938 14.578-8.2969 5.0156-13.969 12.328-15.422 20.391-1.2656 7.0312 0.1875 12.656 5.25 50.625 0.28125 2.0625 1.7344 3.4219 3.4688 4.2656-6.5625 5.25-16.688 1.5-24.797 4.2656-4.125 1.4062-7.9688 4.5938-9.1406 8.6719-4.5-3.6562-6.2344 3.4219-23.531-8.7656-11.156-8.3438-22.219-16.688-36.984-16.922-5.8125-11.906-6.4219-26.156-1.0312-38.203zm-6.7031 157.92c-10.594-5.5312-28.312-14.766-26.391-27.047 0.28125-2.1562 0.89062-4.2188 1.4531-6.375 5.3438-19.078-1.3125-22.969-2.1094-36.328-0.84375-11.438 6.3281-22.172 14.859-29.625 23.344-20.578 40.266 1.6406 57.141 10.969 6.4688 3.8438 20.812 8.4844 24.656 1.9688 5.3438 7.2188 14.438 6.8438 6 23.766-2.6719 5.3438-5.25 10.5-1.2188 14.625 1.5938 1.6406 3.9375 1.9219 6.2812 1.6406-0.65625 5.6719 0.09375 19.312-8.6719 37.266-4.3594 9.0938-14.531 8.6719-20.297 9.8438-35.391 5.6719-36.609 6.5625-51.703-0.70312zm125.58-38.625c4.1719 4.5469 6.6562 8.25 8.2031 12 3.6562 8.9531 2.4375 31.875 28.031 43.266-0.9375 1.0781-1.9688 2.1562-2.8125 3-12 11.25-24 23.953-40.453 31.594-12.328 5.2031-12.516 1.7344-18.562-1.6875-30.656-20.719-45.469-10.641-51.75-36.188 14.812-2.3438 27.562-2.8125 34.5-17.25 6.1875-12.75 9.5625-27.188 9.75-41.766 0.046875-2.3906-1.3594-4.4531-3.375-5.4375 2.1094-1.9688 4.2188-3.6094 8.3906-2.8125 3.3281 0.65625 5.2031 2.8125 6.9375 5.5312 4.3594 6.9375 17.859 9.3281 18.891-3.7969 1.125-14.25 9.3281-15.234 23.156-21.469 6.9375-3.1406 11.531-9.7969 6.1406-15.141 9.6562-8.625 14.531-14.062 21.844-18.656 12.141-7.6406 34.125-11.062 41.812-4.2188 3.2344 2.9062 4.4531 8.2969 6.0469 15.281 3.9375 16.828 10.828 32.812 20.578 47.766 3.5156 4.7812 2.4844 5.5312-1.875 10.406-10.125 11.438-12.984 29.297-40.922 42.891-18.703 8.9531-43.359 3.6562-50.391-17.297-3.6562-10.734-1.125-18.469-15.516-34.312l-0.32812-0.32812c-5.25-5.2031-13.734 2.6719-8.2969 8.625z"/>
 <path d="m322.78 201.52c-8.25 0.046875-8.2031 11.719-0.46875 12 5.7656 0.23438-20.859-0.79688 56.25 2.1562 7.8281 0 8.0156-11.719 0.23438-12z"/>
 <path d="m392.16 172.26c-21.844-14.062-44.812-26.906-68.156-38.203-7.1719-3.4219-12.375 7.3125-5.2031 10.828 22.922 11.062 45.422 23.672 66.891 37.5 6.7031 4.2188 13.125-5.8125 6.4688-10.125z"/>
 <path d="m415.78 149.06c-0.98438-1.6406-32.672-54.469-35.906-59.812-4.1719-6.75-14.344-0.60938-10.266 6.2344 4.7812 7.9219 34.922 58.172 35.906 59.812 3.9844 6.6562 14.297 0.51562 10.266-6.2344z"/>
</svg>
