<?xml version="1.0" encoding="UTF-8"?>
<svg width="1200pt" height="1200pt" version="1.1" viewBox="0 0 1200 1200" xmlns="http://www.w3.org/2000/svg">
 <path d="m506.53 454.55c-21.094-5.4375-44.016-3.4688-64.172 5.8125-16.172 7.6406-29.812 20.016-39.469 36-10.547-15.656-24.75-27.281-41.25-33.984-20.531-8.2031-43.453-9.2812-64.359-2.5312-31.453 9.9844-56.906 36.75-66.75 71.109-0.1875 0.89062-0.5625 1.8281-0.375 2.0156-7.6406 30.188-1.8281 64.734 15.656 92.344 12.375 19.453 29.812 35.438 45.094 49.453l111.66 102.38c1.4531 1.4531 3.4688 2.3438 5.25 2.7188 3.4688 0.75 6.8906-0.375 9.4688-2.9062l28.734-29.109c18.188-18.562 36.375-36.891 54.75-55.453l23.109-23.438c14.719-14.719 31.266-31.453 42.562-51.656 16.734-29.625 20.344-65.625 9.9844-96.188-11.156-32.578-37.875-58.031-69.891-66.562zm49.641 156.89c-10.547 18.75-26.531 34.922-40.734 49.266l-23.109 23.438c-18.375 18.375-36.562 36.891-54.75 55.453l-27.984 28.359-111.09-101.81c-15.656-14.203-31.641-28.922-43.078-47.109-15.797-25.078-21.094-56.203-14.203-83.25 0-0.375 0.5625-2.5312 0.75-2.9062 8.3438-28.922 31.266-53.25 58.734-62.016 12.891-3.9844 27.281-4.7344 40.922-2.2031 5.25 1.0781 10.547 2.5312 15.469 4.5469 15.797 6.375 29.25 18.188 38.719 33.984 1.4531 2.7188 4.3594 4.1719 7.2656 4.1719s5.625-1.8281 6.8906-4.3594c8.5312-16.359 21.469-28.734 37.078-36 17.438-8.0156 38.016-9.9844 56.344-5.1094 27.797 7.2656 51.984 30.562 61.828 58.922 9.5156 27.375 6.0469 59.719-9.0469 86.625z"/>
 <path d="m691.82 583.26c3.9844 0.75 8.0156 1.0781 12.188 0.89062 26.016-0.75 48.562-18.75 54.75-44.203 1.2656-5.1094 1.8281-9.9844 1.6406-15.281-0.375-15.469-6.75-29.812-18-40.547s-25.828-16.359-41.438-15.984c-26.203 0.75-48.75 19.078-54.75 44.719-1.0781 4.5469-1.6406 9.4688-1.4531 14.719 0.70312 28.078 20.859 50.766 47.062 55.688z"/>
 <path d="m704.53 603.47c-21.984 0.5625-42 13.828-50.906 33.656-3.7969 8.0156-5.625 16.734-5.4375 25.641 0.75 27.797 20.906 50.531 47.109 55.453 3.9844 0.75 8.0156 1.0781 12.188 0.89062 31.453-0.75 56.906-27.094 56.344-58.734v-0.75c-0.75-31.641-27.281-56.906-59.297-56.156z"/>
 <path d="m487.64 546c-3.7969-3.6562-8.9062-5.625-14.203-5.4375l-138.37 3.4688c-3.9844 0.1875-8.0156 1.4531-11.109 3.6562-5.4375 3.7969-8.5312 9.9844-8.3438 16.734l1.2656 47.438c0.1875 5.25 2.3438 10.172 6.1875 13.828 2.7188 2.7188 6.1875 4.3594 9.9844 5.1094 1.4531 0.1875 2.7188 0.375 4.1719 0.375l138.37-3.4688c5.25-0.1875 10.359-2.3438 14.016-6.1875 3.6562-3.7969 5.625-8.9062 5.4375-14.203l-1.2656-47.438c-0.14062-5.1562-2.3438-10.219-6.1406-13.875z"/>
 <path d="m945.66 369.79c3.9844-21.094 14.719-38.531 29.109-50.203 14.203-11.625 32.016-17.109 49.641-13.828-17.812-3.4688-32.344-14.906-41.25-30.75-9.0938-15.984-12.75-36.375-8.7188-57.469-3.9844 21.094-14.719 38.531-28.922 50.203-14.344 11.438-32.016 16.922-49.641 13.453 35.578 6.9844 57.75 46.594 49.781 88.594z"/>
 <path d="m874.18 395.44c2.0156-10.359 7.2656-19.266 14.531-24.891 7.0781-5.8125 15.797-8.5312 24.75-6.8906-8.9062-1.6406-15.984-7.4531-20.531-15.281-4.5469-8.0156-6.375-18-4.3594-28.547-2.0156 10.359-7.2656 19.266-14.344 24.891s-15.797 8.3438-24.75 6.75c17.625 3.4219 28.734 23.25 24.703 43.969z"/>
 <path d="m1079.4 507.98c-8.7188-18.188-19.641-30.188-31.266-35.625-0.1875-1.2656-0.375-2.7188-0.5625-3.9844-1.6406-11.438-3.6562-23.109-5.8125-34.547-1.2656-7.0781-6.1875-12.891-13.266-15.797-7.4531-2.9062-15.984-2.0156-22.359 2.7188l-100.92 73.453-89.25 2.2031-1.8281-72c-0.1875-10.172-4.5469-19.641-11.812-26.719-7.4531-7.0781-17.109-10.734-27.281-10.547l-70.734 1.8281c31.641-14.016 59.109-37.078 78.188-67.453 18.375-29.625 27.656-63.656 26.719-98.344-1.4531-56.906-30.375-110.02-77.625-142.18-30.562-20.906-66.562-31.266-103.83-30.375-11.109 0.375-21.656 1.4531-31.453 3.6562-56.906 11.625-104.34 50.531-127.08 104.34-6.1875 14.531-10.172 30-12.188 45.656-17.438-41.812-53.438-75.094-98.719-87.656-14.531-3.7969-29.25-5.625-44.016-5.25-16.359 0.375-32.203 3.2812-46.922 8.7188-46.359 16.359-81.797 54.75-94.734 102.38-3.7969 14.016-5.4375 28.547-5.1094 43.266 1.4531 60.75 38.906 111.98 91.266 134.53l-56.531 1.4531c-10.172 0.1875-19.641 4.5469-26.719 11.812-7.0781 7.4531-10.734 17.109-10.547 27.281l9.0938 362.9c0.1875 10.172 4.5469 19.641 11.812 26.719 5.4375 5.1094 12 8.5312 19.078 9.7969 2.7188 0.5625 5.4375 0.75 8.2031 0.75l134.9-3.4688 0.75 29.438c0.1875 9.2812 7.0781 17.109 15.797 18.75 1.2656 0.1875 2.7188 0.375 4.1719 0.375l10.922-0.375-102.19 217.82c-5.625 12-0.375 26.531 11.625 32.203 1.8281 0.89062 3.7969 1.4531 5.8125 1.8281 1.6406 0.375 3.4688 0.5625 5.1094 0.375 9.2812-0.1875 17.438-5.625 21.281-14.016l112.36-239.63 42.75-1.0781 6.1875 247.26c0.375 11.625 8.7188 21.094 19.641 23.109 1.6406 0.375 3.4688 0.5625 5.1094 0.375 6.5625-0.1875 12.562-2.9062 16.922-7.4531 4.5469-4.7344 6.75-10.922 6.75-17.25l-6.1875-247.26 42.75-1.0781 124.36 233.81c3.4688 6.5625 9.6562 11.109 16.734 12.375 1.6406 0.375 3.4688 0.5625 5.25 0.375 3.6562-0.1875 7.4531-1.0781 10.734-2.9062 11.812-6.1875 16.172-20.906 9.9844-32.719l-112.92-212.34 11.109-0.375c5.25-0.1875 9.9844-2.3438 13.641-6 3.6562-3.7969 5.4375-8.7188 5.25-14.016l-0.75-29.438 134.9-3.4688c21.094-0.5625 37.641-18 37.078-39.094l-1.8281-72 89.25-2.2031 104.34 68.203c2.5312 1.6406 5.4375 2.7188 8.3438 3.2812 4.7344 0.89062 9.6562 0.375 14.203-1.8281 6.8906-3.0938 11.438-9.2812 12.375-16.359 1.8281-12.562 3.0938-25.828 4.5469-39.094 20.906-11.109 37.078-44.203 42.375-89.109 1.6406-12.188 2.3438-25.453 2.0156-39.656-0.70312-33.984-7.5938-66.188-19.266-90.375zm-350.53-232.36c-3.0938 6.5625-8.5312 11.625-15.469 14.203-6.8906 2.5312-14.344 2.2031-20.906-0.89062s-11.625-8.5312-14.203-15.469c-2.5312-6.8906-2.2031-14.344 0.89062-20.906s8.5312-11.625 15.469-14.203c4.7344-1.6406 9.6562-2.2031 14.344-1.2656 2.2031 0.375 4.3594 1.0781 6.5625 2.2031 6.5625 3.0938 11.625 8.5312 14.203 15.469 2.5781 6.8906 2.2031 14.156-0.89062 20.859zm-45.656-117.09c6.1875-3.9844 13.453-5.25 20.016-3.9844 7.0781 1.2656 13.453 5.4375 17.812 11.812 8.2031 12.562 4.7344 29.625-7.8281 37.828s-29.625 4.7344-37.828-7.8281c-8.3438-12.562-4.6875-29.438 7.8281-37.828zm-59.062-42.891c2.0156 0 3.9844 0.1875 5.8125 0.5625 12.375 2.3438 21.797 13.078 22.172 26.203 0.375 15.094-11.625 27.656-26.719 27.984-15.094 0.375-27.656-11.625-27.984-26.719-0.1875-15.141 11.625-27.656 26.719-28.031zm32.344 196.92c0.1875 7.2656-2.5312 14.203-7.4531 19.453-5.1094 5.25-11.812 8.3438-19.078 8.5312-15.094 0.375-27.656-11.625-27.984-26.719-0.1875-7.2656 2.5312-14.203 7.4531-19.453 5.1094-5.25 11.812-8.3438 19.078-8.5312 2.0156 0 3.9844 0.1875 5.8125 0.5625 5.1094 0.89062 9.7969 3.4688 13.641 7.0781 5.25 4.875 8.3438 11.766 8.5312 19.078zm-85.641-14.906c-6.1875 3.9844-13.828 5.1094-20.531 3.7969-7.0781-1.4531-13.266-5.625-17.25-11.812s-5.4375-13.453-3.7969-20.531c1.4531-7.0781 5.625-13.266 11.812-17.25s13.453-5.25 20.016-3.9844c7.0781 1.2656 13.453 5.4375 17.812 11.812 7.9688 12.656 4.5 29.578-8.0625 37.969zm-45.797-117.09c5.4375-11.625 17.812-17.625 29.812-15.281 2.2031 0.375 4.3594 1.0781 6.375 2.0156 6.5625 3.0938 11.625 8.5312 14.203 15.469 2.5312 6.8906 2.2031 14.344-0.89062 20.906s-8.5312 11.625-15.469 14.203c-6.8906 2.5312-14.344 2.2031-20.906-0.89062-13.5-6.4219-19.5-22.641-13.125-36.422zm-79.453 161.81c10.359-16.359 17.25-34.547 20.719-53.438 9.2812 25.078 24 48 44.016 67.078 16.922 15.984 36.375 28.359 57.469 36.562l-183.79 4.5469c24.844-12.047 46.312-30.562 61.594-54.75zm-46.547-40.172c-2.5312 5.4375-6.8906 9.4688-12.562 11.438-5.625 2.0156-11.625 1.8281-16.922-0.75-5.4375-2.5312-9.4688-6.8906-11.438-12.562-2.0156-5.625-1.8281-11.625 0.75-16.922 4.3594-9.4688 14.531-14.344 24.375-12.375 1.8281 0.375 3.4688 0.89062 5.25 1.6406 5.4375 2.5312 9.4688 6.8906 11.438 12.562 1.8281 5.4844 1.6406 11.484-0.89062 16.969zm-37.453-97.828c5.1094-3.2812 10.922-4.1719 16.359-3.2812 5.8125 1.0781 11.109 4.3594 14.531 9.6562 6.75 10.172 3.7969 24-6.375 30.75s-24 3.7969-30.75-6.375c-6.8438-10.219-3.9375-24.047 6.2344-30.75zm-24 129.42c0.1875 6-2.0156 11.625-6.1875 15.797-3.9844 4.3594-9.6562 6.75-15.469 6.8906-6 0.1875-11.625-2.0156-15.797-6.1875-4.3594-3.9844-6.75-9.6562-6.8906-15.469-0.375-12.188 9.4688-22.547 21.656-22.734 1.6406 0 3.2812 0 4.7344 0.375 4.1719 0.75 8.0156 2.7188 11.109 5.8125 4.3125 4.0781 6.6562 9.5156 6.8438 15.516zm-26.391-165.61c1.6406 0 3.0938 0.1875 4.7344 0.375 9.9844 1.8281 17.812 10.547 18 21.281 0.375 12.188-9.4688 22.547-21.656 22.734-12.188 0.375-22.547-9.4688-22.734-21.656-0.32812-12.188 9.5156-22.359 21.656-22.734zm-83.062 54.375c2.5312-5.4375 6.8906-9.4688 12.562-11.438 3.7969-1.4531 7.8281-1.6406 11.625-0.89062 1.8281 0.375 3.6562 0.89062 5.25 1.6406 5.4375 2.5312 9.4688 6.8906 11.438 12.562 2.0156 5.625 1.8281 11.625-0.75 16.922-2.5312 5.4375-6.8906 9.4688-12.562 11.438-5.625 2.0156-11.625 1.8281-16.922-0.75-5.4375-2.5312-9.4688-6.8906-11.438-12.562-1.9219-5.4844-1.5938-11.484 0.79688-16.922zm20.719 101.06c-5.8125-1.2656-10.734-4.5469-14.016-9.6562-6.75-10.172-3.7969-24 6.375-30.75 5.1094-3.2812 10.922-4.1719 16.359-3.2812 5.8125 1.0781 11.109 4.3594 14.531 9.6562 3.2812 4.9219 4.3594 10.922 3.0938 16.734s-4.5469 10.734-9.6562 14.016c-4.875 3.2812-11.25 4.2188-16.688 3.2812zm62.203 795.28c-2.0156 4.3594-6.1875 7.0781-11.109 7.2656-2.0156 0-3.7969-0.375-5.625-1.2656-6.1875-2.9062-8.9062-10.359-6-16.547l104.53-223.08 27.984-0.75zm205.26 19.453c-2.3438 2.3438-5.4375 3.7969-8.7188 3.7969-6.8906 0.1875-12.562-5.25-12.75-12.188l-6.1875-247.26 24.891-0.5625 6.1875 247.26c0 3.3281-1.2656 6.4219-3.4219 8.9531zm208.36-41.109c3.2812 6.1875 0.89063 13.641-5.1094 16.922-1.8281 0.89063-3.6562 1.4531-5.4375 1.4531-4.7344 0.1875-9.0938-2.3438-11.438-6.5625l-121.64-228.56 27.984-0.75zm61.266-282.52-335.81 8.3438-96.375 2.3438-140.72 3.4688c-7.0781 0.1875-13.828-2.3438-18.891-7.2656-5.1094-4.9219-8.0156-11.438-8.2031-18.562l-9.0938-362.9c-0.1875-7.0781 2.3438-13.828 7.2656-18.891 4.9219-5.1094 11.438-8.0156 18.562-8.2031l572.9-14.344c2.0156 0 3.7969 0.1875 5.625 0.5625 4.9219 0.89062 9.4688 3.2812 13.266 6.75 5.1094 4.9219 8.0156 11.438 8.2031 18.562l9.0938 362.9c0.375 14.672-11.297 26.859-25.828 27.234zm258.74-106.17c-1.4531 19.453-3.4688 38.344-6 56.344-0.375 3.0938-2.5312 5.8125-5.625 7.2656-3.6562 1.6406-8.0156 1.4531-11.25-0.75l-103.27-67.453-5.1094-201.1 99.797-72.562c3.0938-2.3438 7.4531-2.7188 11.25-1.2656 3.2812 1.2656 5.4375 3.7969 6.1875 7.0781 2.0156 11.438 3.9844 22.734 5.8125 34.172 11.625 78.234 14.531 158.63 8.2031 238.26z"/>
</svg>
