<?xml version="1.0" encoding="UTF-8"?>
<svg width="1200pt" height="1200pt" version="1.1" viewBox="0 0 1200 1200" xmlns="http://www.w3.org/2000/svg">
 <path d="m418.32 675.04c-22.285-26.496-51.664-41.266-82.859-41.691-0.15234-0.007812-0.30469-0.011718-0.46094-0.011718l-10.621-0.011719c-23.336-0.023437-45.703-10.117-62.965-28.418-4.5469-4.8242-12.152-5.0469-16.961-0.49609-4.8242 4.5469-5.0469 12.145-0.49609 16.961 21.844 23.156 50.395 35.922 80.402 35.953l9.6719 0.011719h0.14453c24.461 0.027344 47.824 11.801 65.77 33.145 18.016 21.426 28.328 50.496 28.297 79.953 0.36328 22.941-5.4844 46.234-15.703 66.348-8.9531-9.5391-19.02-17.547-29.93-23.508-27.082-14.812-60.23-12.828-84.445 5.0352-14.762 10.883-22.715 25.082-23.016 41.078-0.29297 16.102 7.2422 30.477 21.797 41.566 23.82 18.164 56.672 20.105 83.711 4.9258 12.094-6.793 23.113-16.09 32.695-27.18 11.336 20.48 18.082 44.711 18.059 68.633-0.042968 35.215 11.973 68.41 33.816 93.469 22.246 25.516 51.984 39.59 83.734 39.629h0.011718c6.6211 0 11.992-5.3594 12-11.988 0.007813-6.6289-5.3594-12.008-11.988-12.012-24.715-0.027344-48.043-11.18-65.668-31.398-18.027-20.676-27.945-48.266-27.91-77.672 0.035156-32.121-9.9844-64.117-26.746-89.922 15.258-25.516 24.066-56.379 23.578-87.172 0.042968-35.34-12.004-69.16-33.918-95.227zm-49.41 209.91c-18.398 10.305-41.453 9.082-57.418-3.0859-8.4609-6.4531-12.504-13.66-12.348-22.031 0.15234-8.4844 4.4922-15.75 13.254-22.211 9.2109-6.793 20.332-10.234 31.629-10.234 9.2227 0 18.562 2.3008 27.07 6.9492 10.348 5.6523 19.852 13.793 28.109 23.648-8.6953 11.277-18.969 20.602-30.297 26.965z"/>
 <path d="m877.14 641.7c-29.625-29.449-104.95-80.691-169.32-100.3-75.422-22.98-139.37-60.195-189.91-110.44l-9.0703-9.3711c6.082-9.0508 5.1211-21.465-2.957-29.504l-36.266-35.391c-4.3828-4.3594-10.195-6.7617-16.379-6.7617h-0.078125c-1.9648 0.007813-3.8672 0.33594-5.7227 0.8125l-37.492-36.234c-3.9258-3.9102-9.1367-6.0586-14.672-6.0586h-0.066406c-5.5586 0.015626-10.781 2.1992-14.703 6.1406l-65.32 65.707c-3.9219 3.9375-6.0703 9.1758-6.0586 14.734 0.015624 5.5586 2.1992 10.781 6.2656 14.812l37.391 36.145c-0.45703 1.8398-0.76953 3.7266-0.76172 5.6719 0.015625 6.2031 2.4531 12.027 6.9297 16.488l36.266 35.391c4.3828 4.3633 10.203 6.7617 16.383 6.7617h0.066406c3.5352-0.011719 6.9023-0.88281 9.9922-2.375l25.422 25.273c51.504 51.203 74.168 100.73 97.969 174.22 20.531 63.387 71.977 137.43 101.12 166.41l191.43 194.65c7.6406 7.6016 17.77 11.777 28.543 11.777h0.12109c10.816-0.035156 20.973-4.2695 28.594-11.941l173.8-174.81c15.734-15.832 15.648-41.52-0.082031-57.16zm-481.82-307.96 32.812 31.719-60.836 61.191-32.812-31.723zm-19.52 118.39 76.969-78.348 36.266 34.312-77.453 77.902zm63.926 39.918 52.66-52.961 8.4453 8.7188c25.773 25.625 54.824 47.922 86.789 66.934l-69.391 69.797c-14.414-23.727-31.777-46.039-54.223-68.352zm611.9 384.54-173.79 174.81c-6.4219 6.4414-16.875 6.4766-23.227 0.16406l-191.43-194.65c-26.824-26.672-76.195-97.887-95.309-156.88-11.375-35.121-22.887-65.629-37.441-93.734l78.973-79.434c28.41 14.945 58.844 27.562 91.414 37.484 54.785 16.695 127.98 63.137 159.3 94.27l191.43 194.66c6.4453 6.4102 6.4805 16.867 0.074219 23.312z"/>
 <path d="m698.62 694.45c-19.414 19.516-26.164 48.777-19.016 82.383 6.7578 31.766 25.324 64.023 52.289 90.832 35.824 35.613 78.605 54.629 115.33 54.629 22.695 0 43.082-7.2656 58.082-22.355 39.289-39.516 24.672-115.61-33.273-173.22-57.957-57.617-134.14-71.797-173.41-32.266zm189.67 188.57c-28.824 28.969-92.684 14.145-139.48-32.367-23.695-23.559-39.938-51.551-45.738-78.809-5.4023-25.414-0.94531-46.887 12.555-60.469 28.824-28.977 92.676-14.148 139.48 32.359 46.797 46.527 61.992 110.31 33.184 139.29z"/>
 <path d="m172.1 359.85c44.543-26.473 98.234 4.4297 99.254 5.0273 1.9258 1.1406 4.043 1.6875 6.1289 1.6875 4.082 0 8.0703-2.0859 10.32-5.8477 3.3906-5.6953 1.5352-13.059-4.1523-16.457-2.6953-1.6055-66.668-38.984-123.8-5.0469-5.7031 3.3867-7.5703 10.754-4.1914 16.449 3.375 5.6953 10.742 7.5742 16.441 4.1875z"/>
 <path d="m347.88 291.31c1.9805 0 3.9883-0.49219 5.8398-1.5234 5.7852-3.2227 7.8594-10.527 4.6445-16.312-0.30469-0.55078-30.117-55.383-2.3281-99.363 3.5469-5.6016 1.8672-13.016-3.7344-16.551-5.5898-3.5508-13.016-1.8672-16.551 3.7344-35.508 56.184 0.12891 121.15 1.6602 123.89 2.1992 3.9258 6.2734 6.125 10.469 6.125z"/>
 <path d="m317.79 321.92c4.6875-4.6797 4.6875-12.281 0-16.969l-38.766-38.77c-4.6875-4.6875-12.281-4.6875-16.969 0-4.6875 4.6797-4.6875 12.281 0 16.969l38.766 38.77c2.3438 2.3438 5.4141 3.5156 8.4844 3.5156 3.0703 0 6.1406-1.1719 8.4844-3.5156z"/>
 <path d="m519.42 266.05c0 32.914 26.777 59.691 59.691 59.691s59.691-26.777 59.691-59.691c0-32.914-26.777-59.684-59.691-59.684s-59.691 26.773-59.691 59.684zm95.379 0c0 19.68-16.008 35.691-35.691 35.691-19.68 0-35.691-16.008-35.691-35.691 0-19.676 16.008-35.684 35.691-35.684 19.684 0 35.691 16.012 35.691 35.684z"/>
 <path d="m808.49 179.68c0-32.914-26.777-59.684-59.691-59.684s-59.684 26.77-59.684 59.684c0 32.914 26.77 59.691 59.684 59.691 32.914-0.003906 59.691-26.777 59.691-59.691zm-59.691 35.688c-19.676 0-35.684-16.008-35.684-35.691 0-19.672 16.008-35.68 35.684-35.68 19.68 0 35.691 16.008 35.691 35.684 0 19.68-16.008 35.688-35.691 35.688z"/>
 <path d="m792.79 457.83c32.914 0 59.691-26.77 59.691-59.684 0-32.914-26.777-59.691-59.691-59.691-32.914 0-59.684 26.777-59.684 59.691 0 32.914 26.77 59.684 59.684 59.684zm0-95.371c19.68 0 35.691 16.008 35.691 35.691 0 19.676-16.008 35.684-35.691 35.684-19.676 0-35.684-16.008-35.684-35.684 0-19.684 16.004-35.691 35.684-35.691z"/>
 <path d="m570 869.77c-32.914 0-59.691 26.777-59.691 59.691 0 32.91 26.777 59.684 59.691 59.684s59.684-26.77 59.684-59.684c0-32.914-26.77-59.691-59.684-59.691zm0 95.375c-19.68 0-35.691-16.008-35.691-35.684 0-19.68 16.008-35.691 35.691-35.691 19.676 0 35.684 16.008 35.684 35.691 0 19.676-16.008 35.684-35.684 35.684z"/>
 <path d="m308.33 445.83-47.426-12.043-25.34-41.859c-2.1562-3.5547-5.9922-5.7422-10.152-5.7852h-0.10937c-4.1172 0-7.9531 2.1094-10.148 5.5977l-26.109 41.391-47.641 11.164c-4.0469 0.94922-7.3203 3.9258-8.6406 7.8672-1.3203 3.9453-0.50391 8.293 2.1484 11.488l31.297 37.621-4.1016 48.758c-0.34766 4.1484 1.4766 8.1719 4.8164 10.652 3.3477 2.4727 7.7305 3.043 11.59 1.5l45.453-18.137 45.105 18.965c1.4922 0.62891 3.0781 0.9375 4.6523 0.9375 2.4609 0 4.8984-0.75781 6.9648-2.2266 3.3867-2.4141 5.2773-6.4102 5.0117-10.559l-3.2031-48.828 31.977-37.043c2.7188-3.1445 3.6133-7.4766 2.3672-11.445-1.2695-3.9531-4.4805-6.9883-8.5117-8.0156zm-47.227 44.559c-2.0625 2.3867-3.1016 5.4844-2.8945 8.625l2.2578 34.359-31.738-13.348c-1.4883-0.62891-3.0703-0.9375-4.6523-0.9375-1.5117 0-3.0156 0.28906-4.4492 0.85547l-31.984 12.762 2.8906-34.312c0.26562-3.1406-0.72266-6.2578-2.7305-8.6836l-22.023-26.473 33.527-7.8594c3.0703-0.72266 5.7305-2.6133 7.4141-5.2773l18.375-29.129 17.836 29.453c1.6367 2.6953 4.2617 4.6406 7.3125 5.4141l33.375 8.4727z"/>
 <path d="m1023.7 168.17c-2.9141-2.9648-7.1602-4.2109-11.207-3.293l-47.73 10.797-41.582-25.789c-3.5352-2.207-7.957-2.4023-11.672-0.54688-3.7227 1.8516-6.2148 5.5039-6.5977 9.6445l-4.4844 48.727-37.379 31.582c-3.1758 2.6836-4.7344 6.8203-4.125 10.934 0.61328 4.1133 3.3086 7.6094 7.1367 9.2578l44.957 19.312 18.484 45.309c1.5703 3.8516 5.0195 6.6094 9.1211 7.3008 0.66406 0.10938 1.3281 0.16406 1.9844 0.16406 3.4219 0 6.7266-1.4648 9.0234-4.0898l32.262-36.793 48.801-3.5742c4.1484-0.30469 7.8398-2.7344 9.7617-6.4219 1.9219-3.6914 1.7969-8.1094-0.32812-11.684l-25.02-42.051 11.676-47.52c1-4.0391-0.16406-8.2969-3.082-11.266zm-48.461 98.945c-3.1406 0.23437-6.0664 1.6875-8.1445 4.0586l-22.703 25.891-13.008-31.887c-1.1914-2.918-3.4805-5.2422-6.375-6.4922l-31.637-13.594 26.301-22.227c2.4023-2.0352 3.9141-4.9258 4.2031-8.0703l3.1523-34.289 29.266 18.145c2.6758 1.6641 5.9219 2.2227 8.9727 1.5078l33.59-7.6016-8.2227 33.441c-0.75 3.0586-0.26953 6.293 1.3398 9l17.609 29.598z"/>
 <path d="m905.73 558.77c2.4883 3.3242 6.4688 5.0977 10.672 4.7656l48.742-4.3281 37.758 31.117c2.1836 1.7969 4.8906 2.7422 7.6367 2.7422 1.2969 0 2.6016-0.21094 3.8672-0.64062 3.9297-1.3398 6.8945-4.6211 7.8281-8.6758l10.953-47.691 41.266-26.301c3.5-2.2344 5.6055-6.1289 5.5469-10.281-0.058594-4.1602-2.2656-7.9922-5.8281-10.133l-41.977-25.148-12.258-47.371c-1.043-4.0234-4.0977-7.2266-8.0703-8.4531-3.9648-1.2422-8.3008-0.32813-11.43 2.4141l-36.895 32.148-48.836-2.9766c-4.2617-0.33203-8.1445 1.6641-10.535 5.0547-2.4023 3.3984-2.8633 7.7969-1.2344 11.617l19.172 45.016-17.93 45.539c-1.5312 3.8711-0.94141 8.2539 1.5508 11.586zm61.254-91.586c3.2344 0.26562 6.2539-0.85547 8.6133-2.9297l25.961-22.621 8.625 33.332c0.79297 3.0508 2.7461 5.668 5.4492 7.2891l29.543 17.703-29.039 18.512c-2.6523 1.6953-4.543 4.3633-5.2422 7.4336l-7.7031 33.555-26.574-21.895c-2.1641-1.7812-4.8633-2.7422-7.6367-2.7422-0.35156 0-0.70703 0.015625-1.0586 0.046875l-34.301 3.0469 12.613-32.047c1.1523-2.9297 1.1094-6.1992-0.12891-9.0938l-13.492-31.68z"/>
 <path d="m139.54 963.6-17.93 45.535c-1.5234 3.8672-0.92969 8.25 1.5586 11.578 2.4844 3.3281 6.4766 5.0742 10.672 4.7695l48.742-4.3242 37.758 31.117c2.1836 1.7969 4.8906 2.7422 7.6367 2.7422 1.2969 0 2.6016-0.21094 3.8672-0.64062 3.9297-1.3398 6.8945-4.6211 7.8281-8.6758l10.953-47.695 41.266-26.297c3.5039-2.2344 5.6094-6.1289 5.5469-10.285-0.058594-4.1602-2.2656-7.9922-5.8281-10.133l-41.977-25.148-12.262-47.375c-1.043-4.0234-4.0977-7.2266-8.0703-8.4531-3.9648-1.2422-8.3008-0.32422-11.438 2.4141l-36.891 32.156-48.836-2.9844c-4.2422-0.28125-8.1406 1.6602-10.535 5.0547-2.4023 3.3984-2.8633 7.793-1.2344 11.617zm44.879-34.465c3.2656 0.23828 6.2539-0.85937 8.6172-2.9297l25.961-22.629 8.625 33.34c0.79297 3.0508 2.7461 5.668 5.4492 7.2891l29.543 17.703-29.039 18.504c-2.6523 1.6953-4.543 4.3633-5.2422 7.4336l-7.7031 33.562-26.574-21.895c-2.1641-1.7812-4.8633-2.7422-7.6367-2.7422-0.35156 0-0.70703 0.015625-1.0586 0.046875l-34.301 3.043 12.613-32.039c1.1523-2.9297 1.1094-6.1992-0.12891-9.0938l-13.492-31.688z"/>
 <path d="m171.21 276.24c6.6992 6.7031 15.504 10.055 24.305 10.055s17.609-3.3516 24.305-10.055l56.449-56.449h0.007813c13.391-13.398 13.391-35.203-0.007813-48.605l-41.156-41.156c-13.383-13.398-35.199-13.398-48.605 0l-56.449 56.449c-13.398 13.398-13.398 35.203 0 48.605zm-24.184-72.789 56.453-56.449c2.0195-2.0195 4.6758-3.0273 7.3281-3.0273 2.6602 0 5.3164 1.0078 7.3359 3.0273l41.148 41.156c4.043 4.043 4.043 10.621 0 14.668l-56.445 56.449c-4.043 4.043-10.629 4.043-14.672 0l-41.148-41.156c-4.043-4.043-4.043-10.625 0-14.668z"/>
</svg>
