<?xml version="1.0" encoding="UTF-8"?>
<svg width="1200pt" height="1200pt" version="1.1" viewBox="0 0 1200 1200" xmlns="http://www.w3.org/2000/svg">
 <path d="m942.84 797.21c-6.5625 4.5 0.28125 14.344 6.7969 9.8906 28.875-19.828 56.766-39.516 83.016-58.5 11.438-8.2969 10.5-25.5-1.5938-32.812-76.734-46.406-142.87-154.03-196.6-319.78 1.8281-28.312-30.422-178.5-40.781-222.79-1.9688-8.6719-8.625-15.422-17.25-17.625-23.578-6.3281-50.203-10.359-79.172-12.141-76.031-93.422-204.14-67.266-234.1 44.297-3.7031 13.547-9.1406 32.062-5.625 45.844l-12.328 5.3438c-76.5-84-198.32-58.125-227.76 51.469-4.4531 16.125-9.3281 32.953-5.0625 47.391-74.906 29.484-81.75 21.984-74.156 67.688 8.5781 50.859 26.531 148.64 42.656 197.53 2.8594 8.25 8.3438 10.359 13.594 12.938 24 156 53.953 305.26 92.156 445.6 1.6406 8.6719 11.203 9.0938 24.656 16.359 1.6875 2.0625 3.8438 3.75 6.4219 4.9219 42.281 17.531 91.219 49.031 95.438 16.922 92.344-59.953 60.797-39.891 79.781-50.391 4.8281 3.6094 11.344 8.8125 22.359 15.75 6.0469 3.9844 14.062 4.0781 20.391 0.32812 123.89-71.578 236.81-140.76 335.53-205.69 6.6562-4.3594 0.046874-14.391-6.6094-10.031-98.578 64.781-211.26 133.87-335.02 205.36-2.4844 1.4531-5.5312 1.4531-7.875-0.09375-57.047-35.859-116.44-99.516-162.71-199.82-2.0625-4.5-7.7344-17.109-9.2344-21.797-15.516-63.891-32.438-124.64-38.25-189.79 105.66-42.609 214.26-89.344 323.02-139.08 7.2188-3.2812 2.2031-14.25-4.9688-10.922-110.48 50.531-220.82 98.016-328.13 141.14-24.562-103.92-40.594-174.84-48.984-216.56 15.422-4.2656 93.562-35.484 116.44-44.906 7.4062-3.0469 2.6719-14.156-4.5469-11.109-37.031 15.234-74.25 29.719-110.58 43.078-7.7812 2.8594-13.031 3.2812-17.625 1.4062l-75.797-31.125 228-99c30.562 28.031 43.875 74.906 35.625 113.25-23.109-6.1875-47.531 2.0156-62.391 23.391-14.859 16.781-18.984 43.031-18.094 44.672 0 53.672 45.469 83.016 76.828 78.797 43.266-0.23438 72.984-47.391 54.516-97.922 9.9375-18.984 15.375-38.766 17.156-59.672 0.70312-7.9219-11.297-8.9062-11.953-1.0312-4.7344 55.031-38.859 103.83-90.891 115.83-5.8594 1.3594-13.453 2.9531-20.203 2.9531-1.3594-0.046875-1.5938-0.046875-3.5156-3.9375-0.65625-1.5938-9.7969-16.125-9.7031-34.922 20.766 4.3594 49.172-4.9688 66.469-32.109 0-0.046875 0.046875-0.046875 0.09375-0.09375 0-0.046875 0-0.046875 0.046875-0.09375 0.51562-1.5938 26.391-36.047 11.672-93.562-23.109-90.797-114.75-117.84-152.53-52.359-9.0469 15-9.1406 26.438-13.172 30.141-3.9844 2.4375-37.781 18.797-45.141 22.078-2.0625-10.828 2.9531-27.844 5.8594-38.484 36-133.92 203.76-117.05 244.55 19.453 2.2969 7.5938 13.781 4.1719 11.484-3.4219-6.6562-22.312-17.719-43.125-31.828-61.031 213.84-92.859 170.53-74.062 177.94-77.297 30 25.219 46.594 70.875 39.375 112.22-61.312-20.344-107.11 64.172-70.688 114.47 14.531 21.047 39.047 32.906 62.766 31.781 46.641-1.8281 70.031-49.125 57.281-92.438 30.562-58.172 22.031-129.05-13.406-180.98 22.266 1.8281 42.938 5.1094 61.734 9.7969-8.8125 4.9219-17.625 9.7969-26.391 14.625-5.4375 2.9531-3.3281 11.25 2.9062 11.25 2.0156 0 1.3594 0.28125 35.578-18.844 0.51562 0.9375 1.3125 1.7344 1.5469 2.8594 38.719 165.61 39.844 220.03 40.359 221.68-0.84375 3.3281-3.0469 6.1406-6.3281 7.7344-21.938 10.734-43.828 21.281-72.656 35.203-7.0781 3.4219-1.9688 14.25 5.2031 10.828 78-37.359 75.375-36.328 78.562-39.281 54.516 163.69 119.25 266.63 197.72 314.06 4.8281 2.9062 5.2031 9.6094 0.75 12.797-26.016 18.984-53.859 38.578-82.641 58.359zm-642.79-149.29c5.1562 54.328 17.625 105.52 31.031 159.42 33.609 135.32 3.2812 36.609 42.609 175.22 8.7188 39.656 16.781 58.219 19.359 96.562 0.46875 7.7344 1.1719 15.891 3.4219 23.156-3.2344 0.09375 7.3594 3.375-73.922-30.422-1.5469-0.70312-2.5781-1.9219-3.0469-3.9375-40.875-131.44-76.172-276.66-107.81-443.76 20.062 9.0938 31.453 13.5 77.906 22.547 4.7812 1.0312 7.125 1.5 10.453 1.2188zm-59.438-228.28c8.25 41.297 24.141 111.66 48.516 214.64-21.281-4.5469-61.312-16.875-76.734-23.766-2.8594-1.2656-5.1094-3.75-6.2344-6.8438-13.875-36.844-48.656-182.02-54.234-218.68 82.5 33.188 79.453 34.172 88.688 34.641zm198.47 63c-1.125 16.594-8.7656 32.016-21.516 42.281-1.5938-0.32812-22.031 1.3125-41.391-16.734 22.219-2.3906 43.078-9.8906 62.906-25.547zm-81.375-36.516c3.1406-12.422 9.9375-23.625 19.781-31.594 10.875 0 21.75 3.375 31.359 9.2344-14.766 19.641-36.141 25.641-51.141 22.359zm-65.859-160.26c17.672-30.609 52.828-40.734 86.297-17.906l-96.094 41.719c2.5312-6.8438 4.4531-14.906 9.7969-23.812zm237.74-83.625c15.75-48.609 55.031-60.141 90.188-39.141zm91.359 107.48c11.719 0.32812 23.812 3.9375 33.984 10.875-8.4375 11.484-19.359 19.266-32.156 22.266-12.422 3-18.516 0.60938-22.312 0.1875 2.8125-13.031 9.8438-24.891 20.484-33.328zm39.422 107.95c-13.547 0.1875-26.391-4.4062-36.797-12.234 22.312-2.5781 41.531-10.734 57.797-22.734-2.5781 13.875-9.9375 26.344-21 34.969zm-44.578-23.531c-1.5938 0-1.9688 1.0312-4.3125-3.7969-0.70312-1.6875-8.9531-14.016-10.125-34.969 32.578 6.3281 71.062-17.438 80.953-68.719v-0.046875c23.016-124.69-128.06-208.6-165.24-84.75-1.5469 5.1094 3.0938 4.4531-48.234 26.859-1.8281-10.734 3.0938-27.422 5.9062-37.875 27.844-103.73 146.06-125.34 214.97-37.875 77.109 96.281 24.328 241.18-73.922 241.18z"/>
 <path d="m634.26 237.61c-41.484 21.141-83.25 41.578-124.26 60.656-7.125 3.3281-2.2031 14.25 5.0625 10.875 41.109-19.172 83.062-39.609 124.64-60.844 7.0781-3.6094 1.5938-14.297-5.4375-10.688z"/>
 <path d="m882.56 687.61c-19.125 6.1875-37.969 13.266-56.672 20.719-21.422-31.406-40.922-64.031-58.453-97.781 13.312-5.0156 26.719-9.8438 40.266-14.25 7.5-2.4375 3.9844-13.781-3.7031-11.438-14.156 4.5938-28.219 9.6094-42.141 14.906-9.375-18.656-18.188-37.594-26.297-56.812-3.0938-7.3125-14.156-2.625-11.062 4.6875 8.1094 19.172 16.875 38.016 26.203 56.578-34.406 13.594-67.969 29.391-100.59 47.109-8.2031-16.594-16.031-33.422-23.25-50.531-3.0938-7.3594-14.156-2.625-11.062 4.6875 7.3594 17.438 15.375 34.594 23.766 51.562-36.656 20.484-71.859 43.5-105.28 68.766-10.875-21.141-21.047-42.703-30.375-64.641-3.0938-7.3594-14.156-2.5781-11.062 4.6875 9.7031 22.875 20.344 45.328 31.734 67.359-17.531 13.594-34.734 27.609-51.141 42.375-5.9062 5.3438 2.2031 14.203 8.0156 8.9062 15.703-14.156 32.109-27.516 48.797-40.547 18.516 34.688 39.141 68.25 61.781 100.45-13.688 10.969-27.094 22.172-40.078 33.891-6 5.3906 2.25 14.156 8.0156 8.9062 12.656-11.391 25.688-22.359 39.047-33.047 9.1875 12.75 18.609 25.312 28.406 37.594 4.875 6.0469 14.391-1.2188 9.375-7.5-9.75-12.234-19.125-24.75-28.266-37.406 32.344-25.219 66.375-48.422 101.91-69.094 12.656 18.328 25.969 36.234 39.938 53.672 4.875 6.0938 14.391-1.2656 9.375-7.5-13.547-16.922-26.484-34.312-38.812-52.078 32.484-18.328 66.094-34.547 100.5-48.703 12 17.203 24.516 34.031 37.641 50.438 4.875 6.0469 14.391-1.2188 9.375-7.5-12.422-15.516-24.234-31.406-35.625-47.625 17.625-6.9844 35.391-13.594 53.391-19.406 7.5-2.4375 3.9375-13.828-3.6562-11.438zm-281.02 149.48c-22.641-32.203-43.172-65.766-61.641-100.55 33.328-25.266 68.391-48.281 104.95-68.766 17.578 34.5 37.312 67.828 58.922 99.938-35.625 20.812-69.75 44.109-102.23 69.375zm112.73-75.281c-21.609-32.016-41.297-65.297-58.875-99.703 32.672-17.719 66.281-33.609 100.78-47.156 17.484 33.797 36.984 66.562 58.359 98.062-34.312 14.25-67.875 30.469-100.27 48.797z"/>
 <path d="m892.03 351.98c11.391 4.3594 26.344 10.219 34.359 20.719 3.6562 4.7344 7.6875 8.625 13.594 6.9844 6.4219-1.8281 8.3906-10.172 9.9844-12.891 16.734-28.172 55.125-25.219 62.812-74.25 7.5-47.766-52.547-91.594-86.812-18-66.938-84.844-131.29 39.984-33.938 77.438zm30.891-61.312c3.6094 5.1094 11.578 2.0156 10.875-4.1719 29.578-71.109 72.422-29.719 67.078 4.1719-7.2188 45.938-50.438 39.422-63.984 75.984-11.203-14.109-23.719-19.406-40.547-25.922-78.375-30.047-33.562-135.71 26.578-50.062z"/>
 <path d="m1017.5 179.81 0.09375 0.9375c-38.484-54.75-71.766 14.625-19.734 34.641 7.6406 2.9531 14.766 5.8125 20.531 11.953 6.5156 6.9375 5.0625 5.0156 9.0938-1.7344 4.2188-7.0781 10.547-11.203 17.344-15.516 46.453-29.25-2.4375-91.031-27.328-30.281z"/>
</svg>
