<?xml version="1.0" encoding="UTF-8"?>
<svg width="1200pt" height="1200pt" version="1.1" viewBox="0 0 1200 1200" xmlns="http://www.w3.org/2000/svg">
 <path d="m437.71 676.99c-10.633 0-21.121-1.6094-31.344-4.8242-14.352-4.5117-27.336-11.93-38.617-22.031-10.754-9.6484-19.512-21.289-25.992-34.656-6.4062-13.223-10.273-27.359-11.473-42.07-1.2461-15.145 0.43359-30.121 4.9453-44.473 10.344-32.93 35.352-86.617 74.281-159.55 28.922-54.191 55.152-99.359 55.414-99.816 1.5352-2.6406 4.6797-3.8633 7.6094-2.9531l111.67 35.113c2.9023 0.91016 4.8008 3.7188 4.5352 6.7695-0.046876 0.52734-4.3672 52.586-11.664 113.57-9.8164 82.105-20.039 140.43-30.406 173.35-4.5117 14.352-11.711 27.574-21.406 39.289-9.4062 11.375-20.664 20.762-33.504 27.938-12.961 7.2461-26.809 11.809-41.137 13.559-4.3203 0.52344-8.6172 0.78906-12.914 0.78906zm35.883-396.34c-7.3203 12.719-29.062 50.832-52.609 94.922-37.992 71.207-63.359 125.59-73.32 157.3-7.8711 25.031-5.7344 53.09 5.832 76.922 11.855 24.406 32.016 42.145 56.785 49.922 9.0234 2.832 18.289 4.2461 27.574 4.2461 16.223 0 32.496-4.2734 47.543-12.695 23.137-12.938 40.945-34.703 48.816-59.734 9.9609-31.703 20.305-90.816 29.879-170.95 5.9297-49.609 9.9102-93.312 11.184-107.93z"/>
 <path d="m418.32 943.95c-1.4414 0-2.9023-0.21484-4.3672-0.67187l-169.3-53.23c-6.625-2.0898-10.656-8.3516-9.8164-15.238 0.83984-6.8867 6.2891-12 13.223-12.406l77.328-4.6562 62.566-198.96c1.0781-3.4336 4.7539-5.3516 8.1836-4.2734 3.4336 1.0781 5.3516 4.7539 4.2734 8.1836l-63.934 203.2c-0.81641 2.5938-3.1445 4.3906-5.832 4.5586l-81.816 4.9219c-0.35938 0.023438-0.9375 0.046875-1.0547 0.98438-0.12109 0.9375 0.43359 1.1055 0.76953 1.1992l169.3 53.23c0.33594 0.097657 0.88672 0.28906 1.3203-0.55078 0.43359-0.81641-0.023437-1.1758-0.28906-1.4141l-64.969-51.07c-2.1367-1.6797-3-4.4883-2.1836-7.0781l63.91-203.23c1.0781-3.4336 4.7539-5.3516 8.1836-4.2734 3.4336 1.0781 5.3516 4.7539 4.2734 8.1836l-62.543 198.94 61.414 48.289c5.4727 4.2969 7.0312 11.594 3.7695 17.762-2.5234 4.8164-7.2969 7.6016-12.41 7.6016z"/>
 <path d="m401.43 511.92c-13.922 0-29.953-2.7852-49.055-9.7422-3.3828-1.2227-5.1367-4.9688-3.8867-8.375 1.2461-3.4062 4.9688-5.1367 8.375-3.8867 53.184 19.367 79.008 3.457 106.34-13.391 12.91-7.9688 26.258-16.199 42.695-21.07 18.648-5.5195 38.641-5.7852 61.105-0.79297 3.5273 0.79297 5.7344 4.2734 4.9453 7.7773-0.79297 3.5273-4.2734 5.7344-7.7773 4.9453-45.07-10.031-68.902 4.6562-94.105 20.207-19.516 12.039-39.457 24.328-68.641 24.328z"/>
 <path d="m792.31 511.92c-29.207 0-49.129-12.289-68.594-24.312-25.223-15.551-49.031-30.238-94.105-20.207-3.5273 0.79297-7.0078-1.4414-7.7773-4.9453-0.76953-3.5039 1.4414-7.0078 4.9453-7.7773 22.465-4.9922 42.457-4.7539 61.105 0.79297 16.441 4.8711 29.785 13.105 42.695 21.07 27.336 16.848 53.137 32.762 106.34 13.391 3.3828-1.2227 7.1289 0.50391 8.375 3.8867 1.2227 3.3828-0.50391 7.1289-3.8867 8.375-19.148 6.918-35.184 9.7266-49.102 9.7266z"/>
 <path d="m756.02 676.99c-4.2969 0-8.5938-0.26563-12.91-0.79297-14.328-1.7539-28.176-6.3125-41.137-13.559-12.816-7.1758-24.098-16.559-33.504-27.938-9.6953-11.711-16.895-24.938-21.406-39.289-10.344-32.93-20.566-91.246-30.406-173.35-7.2969-60.984-11.617-113.04-11.664-113.57-0.23828-3.0469 1.6328-5.8555 4.5352-6.7695l111.67-35.113c2.9023-0.91016 6.0703 0.3125 7.6094 2.9531 0.26562 0.45703 26.496 45.625 55.414 99.816 38.93 72.961 63.938 126.62 74.281 159.55 4.5117 14.352 6.168 29.328 4.9453 44.473-1.1992 14.711-5.0625 28.848-11.473 42.07-6.4805 13.367-15.238 25.008-25.992 34.656-11.281 10.105-24.266 17.52-38.617 22.031-10.227 3.2188-20.715 4.8281-31.348 4.8281zm-137.57-364.34c1.2734 14.617 5.2305 58.32 11.184 107.93 9.5742 80.137 19.922 139.25 29.879 170.95 16.633 52.871 73.391 84.098 123.94 68.207 50.566-15.887 79.223-73.992 62.617-126.86-9.9609-31.703-35.328-86.09-73.32-157.3-23.52-44.09-45.289-82.176-52.609-94.922z"/>
 <path d="m775.41 943.95c-5.1133 0-9.8867-2.7852-12.406-7.5859-3.2383-6.1445-1.7031-13.465 3.7695-17.762l61.414-48.289-62.543-198.94c-1.0781-3.4336 0.83984-7.1055 4.2734-8.1836s7.1055 0.83984 8.1836 4.2734l63.91 203.23c0.81641 2.5938-0.046875 5.3984-2.1836 7.0781l-64.969 51.07c-0.26562 0.21484-0.74219 0.57422-0.28906 1.4141 0.43359 0.81641 0.98438 0.64844 1.3203 0.55078l169.3-53.23c0.33594-0.097657 0.88672-0.28906 0.76953-1.1992-0.12109-0.9375-0.69531-0.96094-1.0547-0.98438l-81.816-4.9219c-2.7109-0.16797-5.0156-1.9688-5.832-4.5586l-63.91-203.23c-1.0781-3.4336 0.83984-7.1055 4.2734-8.1836s7.1055 0.83984 8.1836 4.2734l62.566 198.96 77.328 4.6562c6.9375 0.40625 12.359 5.5195 13.223 12.406s-3.1914 13.176-9.8164 15.238l-169.3 53.23c-1.4883 0.46484-2.9531 0.68359-4.3945 0.68359z"/>
 <path d="m912.31 541.73c-2.8789 0-5.5195-1.9219-6.3125-4.8477l-47.258-177.27c-0.9375-3.4805 1.1523-7.0547 4.6328-7.9922s7.0547 1.1523 7.9922 4.6328l47.258 177.27c0.9375 3.4805-1.1523 7.0547-4.6328 7.9922-0.57813 0.14453-1.1289 0.21484-1.6797 0.21484z"/>
 <path d="m833.06 343.44c-0.79297 0-1.5859-0.14453-2.3516-0.43359-2.3047-0.88672-3.9375-3.0234-4.1523-5.4961l-2.3281-25.105-21.961-12.383c-2.1602-1.2227-3.457-3.5508-3.3125-6.0234s1.6562-4.6562 3.9375-5.6406l23.16-9.9609 4.9922-24.719c0.48047-2.4258 2.3281-4.3672 4.7031-5.0156 2.3984-0.64844 4.9453 0.14453 6.5742 1.9922l16.633 18.961 25.055-2.8789c2.4727-0.28906 4.8711 0.86328 6.2148 2.9297 1.3438 2.0898 1.3906 4.7539 0.14453 6.8867l-12.887 21.672 10.488 22.922c1.0312 2.2578 0.69531 4.8945-0.86328 6.8398-1.5586 1.9219-4.0781 2.8086-6.5039 2.2578l-24.602-5.543-18.574 17.062c-1.1719 1.0742-2.7578 1.6758-4.3672 1.6758zm-12.887-48.312 13.465 7.5859c1.8711 1.0547 3.0977 2.9531 3.2891 5.0898l1.4141 15.383 11.375-10.465c1.5859-1.4414 3.7695-2.0391 5.8555-1.5586l15.07 3.4062-6.4336-14.062c-0.88672-1.9453-0.76953-4.1992 0.33594-6.0469l7.8945-13.297-15.359 1.7773c-2.1367 0.23828-4.2461-0.57422-5.6641-2.1836l-10.199-11.617-3.0469 15.145c-0.43359 2.0898-1.8477 3.8633-3.8164 4.7031z"/>
 <path d="m928.82 497.59c-3.168 0-5.9297-2.3047-6.4336-5.5195-3.6016-23.062-4.9922-44.809-4.1523-64.656 1.1992-27.887 6.8633-51.145 16.848-69.07 1.7539-3.1445 5.7344-4.2734 8.8789-2.5195 3.1445 1.7539 4.2734 5.7344 2.5195 8.8789-20.902 37.535-16.008 94.656-11.207 125.35 0.55078 3.5508-1.8711 6.8867-5.4492 7.4648-0.33203 0.042968-0.66797 0.070312-1.0039 0.070312z"/>
 <path d="m938.45 341.11c-2.8789 0-5.5195-1.9219-6.3125-4.8477-0.9375-3.4805 1.1523-7.0547 4.6328-7.9922l42.266-11.258c3.4805-0.9375 7.0547 1.1523 7.9922 4.6328 0.9375 3.4805-1.1523 7.0547-4.6328 7.9922l-42.266 11.258c-0.55469 0.14062-1.1289 0.21484-1.6797 0.21484z"/>
 <path d="m965.21 356.62c-2.8789 0-5.5195-1.9219-6.3125-4.8477l-11.258-42.266c-0.9375-3.4805 1.1523-7.0547 4.6328-7.9922s7.0547 1.1523 7.9922 4.6328l11.258 42.266c0.9375 3.4805-1.1523 7.0547-4.6328 7.9922-0.55078 0.14062-1.125 0.21484-1.6797 0.21484z"/>
 <path d="m580.59 278.9c-1.6562 0-3.3125-0.625-4.5859-1.8945-2.5664-2.543-2.5938-6.6719-0.046875-9.2383l30.766-31.082c2.543-2.5664 6.6719-2.5938 9.2383-0.046875 2.5664 2.543 2.5938 6.6719 0.046875 9.2383l-30.789 31.082c-1.2695 1.2969-2.9492 1.9414-4.6289 1.9414z"/>
 <path d="m611.5 278.76c-1.6562 0-3.3125-0.625-4.5859-1.8945l-31.078-30.77c-2.5664-2.543-2.5938-6.6719-0.046875-9.2383 2.543-2.5664 6.6719-2.5938 9.2383-0.046875l31.078 30.77c2.5664 2.543 2.5938 6.6719 0.046876 9.2383-1.293 1.293-2.9727 1.9414-4.6523 1.9414z"/>
 <path d="m287.69 541.73c-0.55078 0-1.1289-0.070312-1.6797-0.21484-3.4805-0.9375-5.543-4.5117-4.6328-7.9922l47.258-177.27c0.9375-3.4805 4.5117-5.543 7.9922-4.6328 3.4805 0.9375 5.543 4.5117 4.6328 7.9922l-47.258 177.27c-0.76953 2.9062-3.4062 4.8477-6.3125 4.8477z"/>
 <path d="m366.94 343.44c-1.6094 0-3.1914-0.60156-4.4141-1.7266l-18.574-17.062-24.602 5.543c-2.4258 0.55078-4.9453-0.33594-6.5039-2.2578s-1.8945-4.5859-0.86328-6.8398l10.488-22.922-12.887-21.672c-1.2734-2.1367-1.2227-4.8008 0.14453-6.8867 1.3438-2.0898 3.7695-3.2148 6.2148-2.9297l25.055 2.8789 16.633-18.961c1.6328-1.8711 4.1992-2.6406 6.5742-1.9922 2.3984 0.64844 4.2227 2.5938 4.7031 5.0156l4.9922 24.719 23.16 9.9609c2.2812 0.98438 3.8164 3.168 3.9375 5.6406 0.14453 2.4727-1.1523 4.8242-3.3125 6.0234l-21.961 12.383-2.3281 25.105c-0.21484 2.4727-1.8477 4.6094-4.1523 5.4961-0.72266 0.33984-1.5156 0.48438-2.3047 0.48438zm-21.074-32.426c1.6094 0 3.1914 0.60156 4.4141 1.7266l11.375 10.465 1.4141-15.383c0.19141-2.1367 1.4141-4.0312 3.2891-5.0898l13.465-7.5859-14.207-6.0977c-1.9688-0.83984-3.3828-2.6172-3.8164-4.7031l-3.0469-15.145-10.199 11.617c-1.4141 1.6094-3.5273 2.4258-5.6641 2.1836l-15.359-1.7773 7.8945 13.297c1.1055 1.8477 1.2227 4.1055 0.33594 6.0469l-6.4336 14.062 15.07-3.4062c0.50781-0.16406 0.98828-0.21094 1.4688-0.21094z"/>
 <path d="m282.62 743.64c-0.21484 0-0.45703 0-0.67188-0.023437-2.4727-0.26563-4.5859-1.8945-5.4492-4.2227l-10.078-27.098-28.008-7.1289c-2.3984-0.60156-4.2461-2.543-4.7773-4.9688-0.52734-2.4258 0.38281-4.9453 2.3281-6.4805l22.656-17.953-1.8711-28.848c-0.16797-2.4727 1.1055-4.8242 3.2383-6.0703 2.1367-1.2461 4.8242-1.1523 6.8867 0.21484l24.07 15.984 26.855-10.703c2.3047-0.91016 4.9219-0.45703 6.7695 1.1992 1.8477 1.6562 2.5938 4.2227 1.9219 6.6016l-7.7773 27.84 18.48 22.223c1.5859 1.9219 1.9453 4.5586 0.9375 6.8164-1.0078 2.2578-3.2148 3.7695-5.6875 3.8633l-28.871 1.2227-15.434 24.434c-1.1992 1.9453-3.3125 3.0977-5.5195 3.0977zm-28.227-47.879 18.551 4.7266c2.0625 0.52734 3.7695 2.0391 4.5117 4.0547l6.6719 17.953 10.223-16.199c1.1523-1.8008 3.0977-2.9531 5.2305-3.0234l19.129-0.81641-12.238-14.734c-1.3672-1.6562-1.8477-3.8633-1.2734-5.9297l5.1367-18.457-17.785 7.0781c-1.9922 0.79297-4.2461 0.55078-6.0234-0.625l-15.961-10.586 1.2461 19.105c0.14453 2.1367-0.76953 4.1992-2.4492 5.543z"/>
 <path d="m909.72 743.64c-2.2305 0-4.3203-1.1289-5.5195-3.0469l-15.434-24.434-28.871-1.2227c-2.4727-0.097656-4.6797-1.6094-5.6875-3.8633-1.0078-2.2578-0.64844-4.9219 0.9375-6.8164l18.48-22.223-7.7773-27.84c-0.67188-2.3984 0.070313-4.9453 1.9219-6.6016 1.8477-1.6562 4.4648-2.1367 6.7695-1.1992l26.855 10.703 24.07-15.984c2.0625-1.3672 4.7266-1.4648 6.8867-0.21484 2.1367 1.2461 3.4062 3.6016 3.2383 6.0703l-1.8711 28.848 22.656 17.953c1.9453 1.5352 2.8555 4.0547 2.3281 6.4805s-2.375 4.3438-4.7773 4.9688l-28.008 7.1289-10.078 27.098c-0.86328 2.3281-2.9766 3.9609-5.4492 4.2227-0.21484-0.050781-0.45312-0.027344-0.67188-0.027344zm-36.117-41.184 19.129 0.81641c2.1367 0.097656 4.1055 1.2227 5.2305 3.0234l10.223 16.199 6.6719-17.953c0.74219-2.0156 2.4258-3.5273 4.5117-4.0547l18.551-4.7266-15-11.902c-1.6797-1.3203-2.5938-3.4062-2.4492-5.543l1.2461-19.105-15.961 10.586c-1.7773 1.1758-4.0312 1.4141-6.0234 0.625l-17.785-7.0781 5.1367 18.457c0.57422 2.0625 0.097657 4.2734-1.2734 5.9297z"/>
 <path d="m271.18 497.59c-0.33594 0-0.67188-0.023438-1.0078-0.070312-3.5508-0.55078-6-3.8867-5.4492-7.4648 4.7773-30.695 9.6953-87.816-11.207-125.35-1.7539-3.1445-0.625-7.1289 2.5195-8.8789 3.1445-1.7539 7.1289-0.625 8.8789 2.5195 9.9844 17.953 15.672 41.184 16.848 69.07 0.83984 19.848-0.55078 41.594-4.1523 64.656-0.5 3.2383-3.2852 5.5195-6.4297 5.5195z"/>
 <path d="m261.55 341.11c-0.55078 0-1.1289-0.070312-1.6797-0.21484l-42.266-11.258c-3.4805-0.9375-5.543-4.5117-4.6328-7.9922 0.9375-3.4805 4.5117-5.543 7.9922-4.6328l42.266 11.258c3.4805 0.9375 5.543 4.5117 4.6328 7.9922-0.79297 2.9258-3.4297 4.8477-6.3125 4.8477z"/>
 <path d="m234.79 356.62c-0.55078 0-1.1289-0.070313-1.6797-0.21484-3.4805-0.9375-5.543-4.5117-4.6328-7.9922l11.258-42.266c0.9375-3.4805 4.5117-5.543 7.9922-4.6328 3.4805 0.9375 5.543 4.5117 4.6328 7.9922l-11.258 42.266c-0.79297 2.9258-3.4336 4.8477-6.3125 4.8477z"/>
 <path d="m596.86 965.23c-16.535 0-32.566-3.2383-47.664-9.625-14.594-6.168-27.672-15-38.93-26.23-11.258-11.23-20.062-24.336-26.23-38.93-6.3828-15.098-9.625-31.129-9.625-47.664 0-26.305 8.2305-51.383 23.785-72.527 7.4883-10.176 16.441-19.078 26.664-26.52 10.32-7.5352 21.695-13.344 33.793-17.328 3.4336-1.1289 7.1055 0.74219 8.2305 4.1758 1.1289 3.4336-0.74219 7.1055-4.1758 8.2305-45 14.785-75.238 56.543-75.238 103.97 0 60.312 49.078 109.39 109.39 109.39s109.39-49.078 109.39-109.39c0-47.398-30.238-89.184-75.238-103.97-3.4336-1.1289-5.2812-4.8008-4.1758-8.2305 1.1055-3.4336 4.8242-5.2812 8.2305-4.1758 12.098 3.9609 23.473 9.793 33.793 17.328 10.199 7.4414 19.176 16.344 26.664 26.52 15.551 21.121 23.785 46.199 23.785 72.527 0 16.535-3.2383 32.566-9.625 47.664-6.168 14.594-15 27.672-26.23 38.93-11.23 11.23-24.336 20.062-38.93 26.23-15.094 6.3867-31.129 9.625-47.664 9.625z"/>
 <path d="m596.86 785.52c-2.0156 0-3.9102-0.9375-5.1367-2.5195l-58.535-75.07c-2.207-2.832-1.7031-6.9375 1.1289-9.168 2.832-2.207 6.9375-1.7031 9.168 1.1289l53.398 68.473 53.398-68.473c2.207-2.832 6.3125-3.3594 9.168-1.1289 2.832 2.207 3.3594 6.3125 1.1289 9.168l-58.535 75.07c-1.2695 1.6094-3.168 2.5195-5.1836 2.5195z"/>
 <path d="m655.41 710.47h-117.09c-2.3281 0-4.4883-1.2461-5.6406-3.2656-1.1758-2.0156-1.1758-4.4883-0.023438-6.5273l23.398-40.801c1.1523-2.0156 3.3125-3.2891 5.6641-3.2891h70.297c2.3281 0 4.4883 1.2461 5.6641 3.2891l23.398 40.801c1.1523 2.0156 1.1523 4.5117-0.023437 6.5273-1.1758 2.0156-3.3125 3.2656-5.6406 3.2656zm-105.81-13.059h94.559l-15.91-27.742h-62.734z"/>
 <path d="m596.86 938.76c-12.961 0-25.512-2.543-37.367-7.5352-11.426-4.8242-21.695-11.762-30.504-20.566-8.8086-8.8086-15.719-19.078-20.566-30.504-5.0156-11.832-7.5352-24.406-7.5352-37.367 0-11.305 1.9453-22.344 5.7852-32.879 3.6953-10.176 9.0703-19.586 15.984-27.984 13.824-16.848 33.145-28.586 54.359-33.07 3.5273-0.74219 6.9844 1.5117 7.7266 5.0391 0.74219 3.5273-1.5117 6.9844-5.0391 7.7266-38.09 8.0156-65.734 42.145-65.734 81.145 0 45.719 37.199 82.922 82.922 82.922 45.719 0 82.922-37.199 82.922-82.922 0-39-27.648-73.129-65.734-81.145-3.5273-0.74219-5.7852-4.1992-5.0391-7.7266 0.74219-3.5273 4.1992-5.7852 7.7266-5.0391 21.215 4.4648 40.512 16.199 54.359 33.07 6.8867 8.3984 12.266 17.809 15.961 27.984 3.8398 10.512 5.7852 21.574 5.7852 32.879 0 12.961-2.543 25.512-7.5352 37.367-4.8242 11.426-11.762 21.695-20.566 30.504-8.8086 8.8086-19.078 15.719-30.504 20.566-11.871 4.9883-24.445 7.5352-37.406 7.5352z"/>
</svg>
