<?xml version="1.0" encoding="UTF-8"?>
<svg width="1200pt" height="1200pt" version="1.1" viewBox="0 0 1200 1200" xmlns="http://www.w3.org/2000/svg">
 <path d="m627 87.48c-8.3984 4.1992-13.199 9-20.281 9-8.8789 0.12109-17.879 0.23828-22.922-8.6406-4.9219-8.7617-7.0781-17.879-2.2812-27.84 9.7188-19.801 22.801-27.238 44.52-22.922 11.762 2.2812 23.641 1.8008 35.398 3.6016 19.559 3 36.719 12.121 54.238 20.281 7.8008 3.6016 15.359 8.1602 23.398 11.16 33.121 12.238 52.559 38.52 69.238 67.32 8.1602 14.16 11.52 30.238 11.16 46.801-0.12109 8.0391 0.83984 15.359 11.16 16.32 0.48047 0 1.1992 0.23828 1.5586 0.48047 12.961 15.961 32.879 14.398 49.922 18.719 25.32 6.4805 49.32 15.719 72.359 27.602 11.398 5.8789 18.961 15.238 23.879 27.359 4.1992 10.441 3.7188 19.801-1.3203 29.52-12.961 24.961-22.078 51.602-31.801 78-2.7617 7.5586-4.4414 15.602-6.8398 23.16-5.0391 15.719-2.8789 27.602 9.1211 40.559 17.281 18.602 23.52 42 18.121 67.68-2.1602 10.199-1.3203 19.922 4.1992 29.641 7.0781 12.359 6.4805 26.16 1.6797 39.359-2.3984 6.6016-1.5586 11.039 3.7188 15.48 23.281 19.801 26.398 43.801 19.68 73.078-13.078 57-32.762 111.84-51.238 167.16-0.48047 1.5586-1.1992 3-1.6797 4.5586-8.8789 23.762-9 24.238 15.719 28.801 19.559 3.6016 36 14.52 54.121 21.238 8.5195 3.1211 17.16 6.8398 24.84 11.641 22.078 13.801 39.602 31.68 44.281 58.68 2.1602 12.602 0.48047 24.48-5.7617 36-15.359 28.68-38.641 49.199-66.48 64.559-16.078 8.8789-31.68 18.48-47.398 27.84-27.48 16.32-56.879 28.559-87.719 37.199-73.32 20.641-148.68 26.398-224.4 28.68-18.359 0.48047-36.719 0.71875-55.078 1.3203-23.398 0.71875-46.199-4.5586-69.238-7.1992-38.039-4.4414-76.441-7.3203-113.76-15.961-45.84-10.441-90.48-24.602-134.52-40.922-31.441-11.641-62.52-24.84-91.559-40.801-40.32-22.199-70.559-75.359-28.801-124.08 24-27.961 54.48-47.281 89.762-58.441 7.1992-2.2812 14.281-4.9219 21.602-6.7188 6.6016-1.6797 8.2812-4.6797 7.0781-11.641-5.7617-31.922-10.441-63.961-15.719-96-8.0352-48.715-12.957-98.152-21.238-147.11-7.0781-41.16-7.6797-82.68-6-124.44 1.0781-26.16 13.078-40.922 36.961-48.48 12.84-4.0781 25.32-9.2383 39.121-9.8398 6-0.23828 10.801-2.0391 8.3984-9.9609-8.8789-28.68 10.441-56.039 45.602-61.199 1.0781-0.12109 2.1602-0.23828 3.2383-0.35938 16.801-2.6406 18-3.8398 14.398-20.879-3.1211-14.16-7.0781-28.32-11.879-42-3.8398-10.801-2.5195-16.801 6.7188-25.801 28.801-27.84 64.078-41.16 101.16-51.84 6.1211-1.8008 12.84-1.9219 19.199-2.5195 12.84-1.1992 22.078-6.7188 26.398-19.68 3.9609-11.879 14.641-13.922 25.078-13.32 6.2383 0.35937 8.6406-1.1992 10.559-6.8398 5.8789-17.641 18.602-29.641 33.121-40.68 15.008-11.879 29.887-24.602 37.207-46.68zm245.4 597.24c-3.6016-1.3203-5.0391-2.2812-6.6016-2.3984-32.762-2.5195-65.762-3.9609-98.398-8.5195-5.3984-0.71875-7.3203 2.6406-9.8398 6.6016-13.922 22.199-23.641 46.199-30.84 71.16-8.7617 30.238-15.121 60.719-8.1602 92.52 1.4414 6.7188 2.1602 11.398 10.32 10.68 14.762-1.3203 24.359 7.1992 32.641 17.762 25.68 32.762 15.602 77.281-23.281 98.641-39.961 21.961-80.879-0.35937-90.121-41.641-2.5195-11.281-6.6016-19.801-14.398-27.359-2.2812-2.2812-5.0391-4.4414-6.4805-7.1992-3.9609-8.0391-8.2812-8.6406-15.961-3.8398-19.68 12-43.441 7.5586-58.801-9.3594-7.4414-8.2812-11.281-18.238-14.281-28.801-6.2383-21.121 0.83984-39.121 15.359-53.281 13.559-13.078 30.961-17.16 49.68-10.078 6 2.2812 11.879 4.5586 18.602 7.0781 5.5195-12.238 10.801-24 14.641-37.922-25.922-4.1992-36.84-22.199-43.32-44.879-7.4414-25.922 7.3203-42.121 26.762-57.238-24.719-5.7617-47.398-10.68-69.238-18.359-8.1602-2.8789-14.039-4.0781-18 5.7617-1.9219 4.9219-6.3594 10.078-11.52 10.801-12.359 1.5586-11.879 10.32-12.602 18.84-0.48047 5.8789-0.60156 11.879-0.71875 17.879-0.48047 43.801 1.6797 87.48 3.3594 131.28 0.60156 16.441-1.6797 32.52-5.2812 48.238-2.8789 12.961-7.9219 25.922-17.762 35.879-10.922 10.922-22.801 17.039-39.238 12.238-20.879-6.2383-38.281-17.039-51.121-34.801-5.7617-7.9219-12.359-14.762-21.719-18.719-8.2812-3.4805-14.039-10.441-17.398-18.48-11.398-26.879-9-53.039 7.3203-77.039 14.281-21.121 37.922-24.84 59.762-11.16 4.9219 3.1211 9.7188 6.2383 16.559 10.68-0.23828-21.359 0-40.441-2.6406-59.52-3.9609-29.52-6.4805-59.039-2.6406-88.801 1.4414-11.16 1.6797-10.922-9-14.641-34.559-11.879-69.84-21.719-101.52-41.52-21.121-13.199-42.238-25.922-61.199-42.121-8.3984-7.0781-14.879-16.078-23.52-24.84-4.6797 21-3.7188 39.961-2.2812 58.801 3.7188 48 11.52 95.52 18.961 142.92 9.6016 60.719 16.32 121.92 29.641 182.16 5.5195 24.84 18.121 44.762 30.121 65.52 4.3203 7.5586 10.559 15.121 18.602 19.922 25.441 15.48 52.559 27.84 80.398 37.922 21.121 7.6797 43.441 11.879 65.52 17.039 23.16 5.3984 46.68 10.441 70.441 9.8398 52.801-1.1992 105.72-0.60156 158.52-7.9219 49.32-6.8398 96.719-17.879 139.44-44.16 20.281-12.48 38.52-26.762 48.961-50.039 16.68-36.961 28.559-75.719 43.078-113.52 4.0781-10.441 8.1602-21.48 8.8789-33.602-9.3594 3.4805-17.16 7.8008-25.559 9.3594-42.359 7.9219-67.078-7.5586-73.199-52.559-2.6445-21.125 3.3555-38.766 19.074-55.207zm-240.6 466.2c16.078-0.12109 42.48 0.12109 68.879-3.3594 34.801-4.5586 69.359-10.199 104.4-13.32 60.602-5.2812 117.36-23.16 168-57.961 7.0781-4.9219 14.879-8.8789 22.441-12.84 27.238-14.398 50.16-33.48 67.32-59.398 6.1211-9.2383 9.3594-18.961 9.2383-30.359-0.35938-27-16.68-44.641-36.719-57.602-22.078-14.281-47.039-24-72.238-32.16-7.1992-2.2812-14.641-3.6016-21.961-5.0391-6-1.1992-9.8398 0.35938-12.48 6.8398-8.0391 20.52-19.68 39.602-24.121 61.559-1.4414 7.0781-4.9219 12.961-9.7188 18.359-17.039 19.199-40.32 28.801-62.398 39.719-47.039 23.398-97.559 33.48-149.4 38.879-22.078 2.2812-44.398 0.23828-66.238 3.7188-22.922 3.6016-45.359 0.12109-67.801-2.0391-46.801-4.3203-92.641-14.039-138-26.879-47.879-13.441-87.84-37.32-116.16-79.199-5.0391-7.5586-9.1211-14.641-8.8789-23.641 0.23828-9.3594-2.0391-18.238-3.6016-27.238-2.6406-15.48-5.5195-17.16-20.762-11.641-36.602 13.32-68.762 33.602-96.238 61.078-20.641 20.641-23.52 59.039-5.7617 82.078 11.281 14.641 25.199 26.641 42.359 34.32 23.16 10.32 45.719 21.602 69.719 30.121 43.199 15.359 85.801 32.641 131.04 41.641 29.16 5.7617 58.441 10.441 87.84 14.641 43.441 6.3594 87 9.7227 141.24 9.7227zm-131.88-927.96c-30.48 2.3984-56.039 12-80.879 24.238-13.078 6.4805-25.801 13.68-35.398 25.078-8.8789 10.559-8.2812 20.398 1.8008 29.762 2.7617 2.5195 6 4.6797 9 6.8398 40.078 28.199 85.32 43.441 132.96 52.801 33 6.3594 66.719 5.3984 99.961 9.3594 39.238 4.6797 78.84 3.7188 118.2 3.7188 35.641 0 71.281-2.3984 105-15.84 23.52-9.3594 47.398-17.879 70.68-27.84 16.32-7.0781 31.199-16.68 43.32-30.48 6.4805-7.3203 7.3203-13.922 4.0781-22.078-3.1211-7.6797-8.1602-14.039-15-18.84-27.719-19.441-59.879-26.641-92.16-33.359-8.6406-1.8008-10.922 1.6797-7.8008 10.078 2.5195 6.7188 4.1992 13.078 2.8789 20.398-3.1211 16.078-13.801 25.078-28.078 30.602-3.9609 1.5586-8.2812 1.6797-9.7188 7.0781-4.9219 18.602-19.32 25.199-36.48 26.398-6.4805 0.48047-10.32 1.5586-14.398 7.3203-7.4414 10.68-19.922 17.039-31.801 16.199-9.4805-0.60156-15 2.5195-21.48 6.9609-12.48 8.5195-25.32 15.602-38.762 2.0391-6-6-11.641-5.2812-18.719-2.0391-14.398 6.4805-28.441 6-40.441-5.6406-3.2383-3.1211-6.4805-2.6406-10.441-1.8008-5.2812 1.0781-10.801 2.3984-15.961 1.9219-14.52-1.3203-28.441-4.4414-32.039-21.719-1.4414-6.7188-4.9219-7.6797-10.32-6.6016-8.7617 1.5586-14.16-3-19.199-9.3594-9.2383-11.398-11.879-24.238-8.2812-38.039 1.3203-5.1602 0.60156-8.0391-4.0781-10.441-14.043-7.4375-19.684-19.195-16.441-36.715zm456.24 369.24c7.9219-7.5586 8.0391-16.078 9-23.879 1.4414-12.359-4.0781-19.559-15.84-24.961-16.078-7.1992-32.52-5.8789-49.32-4.1992-18.84 1.9219-36.719 9.2383-55.801 9-2.5195 0-6 0.71875-6.3594-3-0.35938-3.3594 2.8789-4.5586 5.3984-4.5586 15.238-0.35937 29.762-5.3984 44.641-7.5586 14.52-2.1602 28.922-4.3203 43.559-3.6016 24 1.1992 23.52 1.4414 26.879-22.559 5.1602-36.602-25.32-75-63.48-73.68-30.238 0.96094-57.238 9-83.16 23.16-20.879 11.398-41.039 24-62.16 34.801-18.121 9.3594-35.039 21.719-55.801 25.32-2.2812 0.35938-3.8398 1.9219-3.6016 4.5586 0.23828 2.8789 2.5195 3.4805 4.5586 3.4805 3.2383-0.12109 6.3594-1.0781 9.4805-1.4414 20.879-2.3984 39.121-11.398 57.238-21.48 6.8398-3.8398 13.922-8.3984 26.281-5.2812-18.961 8.3984-34.801 16.199-52.801 27.602 14.52 1.0781 25.68-2.6406 36.121 3.8398-26.281 4.3203-52.559 7.6797-79.199 16.68 2.6406 0.96094 3.4805 1.6797 4.3203 1.5586 36.359-4.6797 72.121-3 107.16 8.6406 31.801 10.559 63.48 21 97.922 18.359 20.164-1.8008 40.086 1.0781 54.965 19.199zm-580.56-127.56c-14.879 2.5195-26.039-3.8398-37.32-10.078-4.4414-2.5195-7.0781-3-9.9609 2.7617-5.1602 10.199-9.4805 20.762-11.52 31.801-3.9609 21.602 7.6797 31.801 28.441 25.68 2.5195-0.71875 5.1602-1.4414 7.6797-2.3984 19.922-7.3203 41.039-9.8398 61.922-10.922 37.801-1.9219 75.359 2.2812 112.68 8.5195 17.398 2.8789 33.84 9.3594 51.359 13.32 1.3203-7.5586 2.3984-13.801 3.7188-21.121-36.359-5.6406-60.961-28.441-84-54.121-16.922-18.84-33.48-37.801-54.48-52.68-17.762-12.602-36-22.559-57.48-27.238-20.879-4.5586-37.922 1.4414-53.52 14.398-4.3203 3.6016-6.7188 8.0391-8.0391 13.559-6.4805 25.68 6 49.68 31.199 59.879 6.1172 2.3984 13.918 1.3203 19.32 8.6406zm215.28 102.96c-9.7188-17.52-9.7188-16.922-27.121-17.398-27.48-0.83984-53.641 5.0391-79.199 14.039-11.52 3.9609-23.398 9.2383-28.801 21.84-4.6797 10.922-8.7617 21.84-10.441 33.961-3.3594 25.922-2.8789 51.602 0 77.398 2.2812 20.398 4.5586 40.801 6.3594 61.199 2.6406 30.84-12.48 70.32-57.121 80.762-8.0391 1.9219-9.6016 6.7188-2.8789 14.039 12.84 13.801 25.441 28.32 40.32 39.719 11.762 9 26.52 15.359 42.121 6.2383 11.52-6.7188 13.801-18.84 16.199-30.48 5.5195-27.121 7.0781-54.602 6.3594-82.199-1.1992-50.762 0.35938-101.4 0-152.16-0.12109-8.2812 2.0391-16.078 3.7188-23.879 1.3203-6.2383 4.6797-10.801 10.922-12.961 20.879-7.0781 40.559-17.762 62.16-22.922 5.8828-1.5586 11.883-2.3984 17.402-7.1953zm42 282.24c0.60156 8.6406 0.48047 17.398 2.0391 25.801 1.4414 7.8008 3 16.68 11.52 20.16 23.039 9.3594 45.48 7.4414 66.719-5.3984 6-3.7188 8.6406-8.5195 5.2812-16.32-9.9609-23.879-13.32-49.078-10.441-74.52 3.4805-30.121 12.238-59.039 23.762-87.121 4.9219-12.121 12-22.922 17.281-34.801 9.4805-21.238 6.7188-37.32-11.16-52.078-16.199-13.32-33.602-25.32-50.641-37.559-3.8398-2.7617-8.5195-4.6797-13.078-6.2383-5.2812-1.9219-20.879 1.9219-22.441 5.8789-2.8789 7.4414 3.1211 11.879 7.4414 16.32 9.7188 10.199 19.32 20.281 27.602 31.68 5.6406 7.8008 6.7188 15.719 4.3203 24.48-1.5586 5.7617-3.3594 11.398-5.6406 16.922-12.961 31.922-26.16 63.84-39.238 95.762-10.203 24.59-15.844 50.152-13.324 77.031zm27.242-798.36c0.48047 6.2383 5.2812 8.6406 8.3984 12 5.0391 5.7617 10.078 11.879 11.039 19.441 2.3984 19.32 2.6406 38.762-6.1211 56.879-4.4414 9.2383-9.4805 18.121-13.801 27.48-9.1211 19.559-17.879 39.238-16.922 61.68 1.0781 25.199 9 47.398 27.719 65.039 3.3594 3.2383 6.3594 4.1992 11.281 3.9609 20.52-0.96094 34.078-11.52 43.32-29.16 21.719-41.52 31.32-84.48 18.602-131.04-7.3203-26.879-20.398-49.922-41.762-67.559-11.996-9.6016-24.477-19.562-41.754-18.723zm-8.1602 237.48c-14.398-23.52-20.52-46.922-16.68-73.559 2.6406-18.719 9.3594-35.281 17.879-51.602 10.559-20.16 20.398-40.199 19.441-64.078-0.35937-10.32-3-19.078-9.1211-26.879-12.359-15.602-29.879-22.68-48.359-26.281-15-3-30.84 18.961-25.078 33.121 3 7.3203 11.281 11.281 18.602 8.7617 7.1992-2.3984 10.922-10.801 8.0391-18.602-0.96094-2.5195-2.3984-5.0391-5.2812-5.5195-3.9609-0.60156-3.6016 2.8789-4.3203 5.2812-1.0781 3.7188-3.4805 5.3984-7.3203 3.9609-3.4805-1.3203-5.5195-4.4414-4.3203-7.5586 2.0391-5.3984 4.3203-11.879 10.68-13.078 5.5195-1.0781 11.762-1.3203 16.68 3.4805 16.441 15.602 18.359 32.281 4.1992 50.16-9.7188 12.238-19.801 24.48-32.762 33.359-17.398 11.879-27.238 28.32-33 48.238-8.8789 30.359-7.4414 57.719 15 82.922 19.801 22.309 46.082 30.109 75.723 17.871zm284.76 44.16c-21.961 8.5195-40.922 15.84-59.879 23.281-22.078 8.6406-43.32 19.32-67.801 20.281-6 0.23828-11.762 2.6406-17.039 7.8008-33.84 32.52-70.32 62.039-109.32 88.32-5.7617 3.9609-12.238 7.0781-15.961 15.48 1.6797 1.3203 4.0781 2.6406 6 4.4414 9.1211 8.6406 18.602 12.238 32.039 9 20.52-4.9219 37.441-16.199 55.441-25.801 27.48-14.762 53.762-32.039 83.398-42.719 4.0781-1.4414 7.9219-3.2383 11.039-6.3594 28.562-28.926 57.602-57.008 82.082-93.727zm-450.6 85.199c12.121 18.961 38.641 44.762 56.16 55.68 7.6797 4.8008 14.52 4.8008 22.801 0.83984 48.602-23.641 95.762-49.68 137.64-84.238 2.2812-1.9219 6-2.8789 5.0391-8.1602-2.2812-0.23828-4.8008-0.60156-7.4414-0.60156-30.719-0.35938-61.32-1.5586-91.922-5.5195-15.961-2.0391-32.281-1.1992-48.359-3.7188-18.48-2.8789-27.961 14.281-41.641 21.961-11.398 6.5977-23.277 13.559-32.277 23.758zm481.08 187.2c-7.0781 7.4414-13.32 13.32-21.719 16.559-36.48 14.039-73.32 16.199-110.88 3.8398-27.602-9-54.961-18.961-83.281-25.801-4.5586-1.0781-9.2383-3.1211-13.801-0.23828-0.48047 2.6406 1.4414 3.9609 2.5195 5.7617 10.32 16.801 24.719 31.801 23.762 53.641-0.23828 5.7617 4.8008 6.2383 9.2383 6.9609 12.84 2.1602 25.801 2.5195 38.641 4.0781 38.762 4.8008 77.641 4.9219 116.52 2.0391 16.68-1.1992 33.359-3.2383 48.719-11.039 10.68-5.3984 12.84-9.9609 12.359-21.961-0.71875-15.359-12.355-22.918-22.078-33.84zm-241.68-528.48c47.16 73.32 39 144.48-5.2812 216.36 11.52-10.801 23.641-14.281 37.801-10.68 3.8398 0.96094 6-2.2812 6.9609-5.3984 2.7617-9.3594 9.3594-14.52 18.121-16.801 16.801-4.1992 23.039-16.078 24.84-31.801 0.48047-4.1992 1.5586-8.3984 2.0391-12.719 2.3984-23.762 3-47.039-7.3203-69.719-8.0391-17.762-22.441-30-34.199-44.641-11.16-14.16-27-18.359-42.961-24.602zm183.48 706.92c19.559 0.60156 30.238-2.7617 39.359-13.68 7.9219-9.6016 14.762-20.039 19.199-31.68 10.559-27.238-9.9609-57.602-39.359-58.32-7.5586-0.12109-15.121 1.5586-22.559 1.0781-22.078-1.5586-39.961 21.121-43.801 40.32-6.6016 32.879 14.641 61.199 47.16 62.281zm-231.36-213.36c10.922 1.9219 19.922 3.6016 28.801 5.0391 30.359 5.0391 60.238 11.281 89.641 20.879 24.48 8.0391 48.238 18.719 73.922 23.16 23.52 4.0781 46.199 1.3203 67.801-8.8789 10.68-5.0391 11.039-12 1.8008-19.68-3.3594-2.7617-7.0781-4.8008-11.398-5.8789-8.8789-2.2812-17.762-4.0781-27.121-3.3594-22.922 1.6797-44.879-2.0391-66.961-8.7617-16.922-5.1602-33-12.84-50.52-16.078-26.641-4.9219-53.16-9-80.281-3.7188-10.086 2.1562-20.164 4.0742-25.684 17.277zm-224.16-8.4023h-8.2812c-23.16-0.48047-46.32 2.7617-69.359-1.8008-18.84-3.7188-38.16-9.1211-50.398-23.52-17.16-20.16-25.199-44.16-11.641-70.441 3.2383-6.2383 6.2383-12.602 7.5586-19.559 1.4414-7.5586-0.83984-10.559-8.2812-9.7188-20.039 2.0391-39.359 7.4414-56.641 17.879-13.922 8.3984-15.719 18.602-8.6406 33.359 5.2812 10.922 13.078 19.68 22.441 27.359 23.398 19.199 47.879 36.602 74.762 51 27.359 14.641 57 22.559 85.922 33 7.0781 2.5195 11.16 0.71875 13.199-6.7188 2.6406-9.9609 5.8789-19.559 9.3594-30.84zm113.76-78.238c12.238 5.2812 23.039 7.9219 34.32 0 14.281-9.9609 29.879-12 46.078-5.6406 8.1602 3.2383 14.281 1.0781 20.762-3.7188 10.801-8.0391 21.84-15.719 33.121-23.16 29.281-19.441 53.879-44.52 79.68-68.16 0.23828-0.23828-0.12109-0.96094-0.35938-2.6406-16.32 1.3203-32.762 2.0391-49.199 1.3203-3.3594-0.12109-6.1211 1.0781-8.8789 3.1211-9.4805 7.0781-19.441 13.559-28.801 20.879-33.359 25.801-69.238 47.398-107.28 65.398-6.7188 3.1211-13.559 6.1211-19.441 12.602zm140.16 488.52c18.238 2.2812 37.68-11.879 46.922-21.719 18.238-19.441 16.922-62.52-6.9609-80.039-3.8398-2.7617-7.8008-7.1992-12.84-4.5586-4.6797 2.3984-2.3984 7.8008-2.1602 11.762 0.71875 9.6016-3.2383 15.48-10.68 21.602-16.441 13.441-34.32 19.199-55.32 17.879-10.922-0.60156-13.199 3-10.559 13.68 5.3984 22.312 28.32 40.676 51.598 41.395zm-128.88-438.96c-12.84-7.0781-27-11.52-41.281-14.16-39.238-7.4414-78.719-12.121-118.8-10.801-28.801 0.96094-56.16 6.8398-82.68 20.879 10.922 14.398 26.281 17.879 41.879 18 27.961 0.23828 56.039 0.48047 84-1.8008 37.559-3 74.641-12.121 112.68-8.7617 1.5625 0.003906 3.2422-0.23438 4.2031-3.3555zm-62.281 82.441c1.6797 1.1992 2.8789 2.3984 4.1992 3 28.801 10.68 57.359 22.078 87.602 27.84 18.602 3.4805 37.078 6.9609 55.68 10.199 3.4805 0.60156 8.0391 1.5586 10.32-2.3984 2.3984-4.3203 0.48047-8.3984-2.7617-11.762-9.3594-9.8398-16.078-21.602-24.359-32.16-6.3594-8.0391-13.078-15.359-24.238-17.039-6.9609-1.0781-13.32-4.4414-18.84-9-3.1211-2.6406-5.6406-4.3203-10.078-2.7617-20.281 7.0781-42 9.7188-61.559 19.559-6.6016 3.2422-13.324 6.4844-15.965 14.523zm101.16 211.92c0.60156-4.8008 1.0781-9.7188 1.8008-14.52 0.48047-3.4805-0.48047-6.1211-3-8.6406-16.078-16.559-48.84-13.559-61.559 5.8789-13.441 20.641-10.441 41.039 1.4414 61.078 8.1602 13.801 24.602 21.238 40.199 18.238 16.441-3.2383 24.48-14.16 22.68-31.32-0.96094-10.195-2.1602-20.395-1.5625-30.715zm13.441-262.08c-17.879 0-29.879-13.801-30.84-34.078-0.48047-9.1211 2.3984-16.68 8.3984-23.641 11.52-13.32 25.922-17.398 43.199-13.801-25.078-15.359-35.16-12.48-49.68 0.23828-15.602 13.559-17.762 38.52-6.6016 61.32 7.8008 15.84 30.48 25.441 49.922 22.078 24.48-4.1992 46.922-34.199 30.84-61.801-1.0781-1.8008-2.3984-5.3984-3.8398-4.3203-9.4805 7.4414-12.961-3.1211-18.84-5.8789-17.398-8.3984-30-4.3203-41.52 12.48-8.6406 12.719-3 32.641 10.801 40.68 2.7617 1.5625 6.3594 1.6836 8.1602 6.7227zm-253.32 289.32c-0.71875-19.559 0.35938-20.879 17.281-24.719 0.48047-0.12109 1.0781-0.23828 1.5586-0.35938 22.199-3.7188 33.84-19.32 42.961-37.801 1.4414-3 2.7617-6.3594 1.0781-9.3594-6.4805-11.52-14.398-22.078-28.199-24.719-19.68-3.7188-35.879 5.5195-44.641 24.238-7.4414 15.84-8.2812 32.398-5.1602 49.078 1.6797 8.7578 4.8008 17.641 15.121 23.641zm267.72-194.04c-18-0.12109-39 13.801-43.078 28.559-5.2812 19.078 2.5195 41.039 18.84 53.039 13.199 9.7188 19.922 8.2812 25.078-6.9609 5.1602-15.359 12.602-29.641 18.48-44.641 11.52-29.152 10.082-24.355-19.32-29.996zm-260.04-347.76c-1.1992 16.078 4.8008 28.078 5.8789 40.801 0.35938 4.0781 4.5586 4.0781 7.4414 5.0391 16.922 5.7617 32.879 13.68 47.879 23.398 6.8398 4.4414 12.238 5.5195 19.078 0.83984 4.8008-3.3594 10.441-5.7617 15.48-8.7617 4.9219-2.8789 9.6016-6.1211 12.359-13.32-38.758-9.8359-74.758-23.758-108.12-47.996zm482.76 112.56c10.68 0 18-0.60156 25.32 0.12109 10.441 1.0781 17.398-3.4805 23.281-11.398 9.9609-13.441 19.68-26.52 23.762-43.441 3.3594-13.801 9.4805-27 14.281-40.441-28.445 31.203-55.445 62.883-86.645 95.16zm-330.6-54.719c-11.762-2.1602-19.078-3.6016-26.398-4.9219-2.6406-0.48047-5.5195-0.71875-7.8008 0.83984-13.441 9.2383-26.879 18.602-43.441 30 5.7617 4.1992 9.7188 6.9609 13.559 9.9609 2.7617 2.1602 5.2812 3.2383 8.7617 1.4414 18.723-9.9609 35.762-22.441 55.32-37.32zm154.8-24.719c12.84 0.35938 24.121-9.8398 24.84-22.559 0.60156-9.2383-9.7188-19.559-19.441-19.559-13.801 0.12109-23.879 8.3984-24.48 20.281-0.47656 11.395 8.4023 21.473 19.082 21.836zm-70.801-24c-0.23828 10.32 7.1992 20.281 15.961 21.359 11.762 1.5586 28.32-14.762 26.879-26.641-1.1992-9.9609-7.9219-16.078-17.16-15.719-16.32 0.59766-25.438 8.0391-25.68 21zm-51.84-36.48c-1.3203-8.5195-6-17.039-16.078-21.719-9.9609-4.5586-20.039 0.35937-22.078 11.039-1.6797 8.7617 0.12109 17.039 5.5195 24.359 6 8.1602 11.52 10.441 18.84 7.6797 9.7188-3.4805 13.918-9.3594 13.797-21.359zm-36.359-31.199c10.559 0 15.84-5.6406 14.762-15.961-0.48047-4.8008-0.96094-9.7188-2.0391-14.398-2.6406-10.68-17.52-16.559-26.039-10.559-6.4805 4.5586-10.922 18.84-8.2812 26.398 2.7578 7.6797 12.957 14.637 21.598 14.52zm194.88 56.398c0.23828 10.922 6.7188 18.359 16.199 18.48 10.078 0.12109 21.121-11.762 21.238-22.801 0-9.8398-7.4414-16.801-17.879-16.68-11.879 0.12109-19.918 8.7617-19.559 21zm-134.4 25.078c10.199-0.23828 17.52-7.0781 16.801-15.719-0.71875-8.5195-17.16-22.801-25.32-21.961-6.4805 0.71875-12.48 9.1211-12 16.922 0.59766 11.641 9.8398 21 20.52 20.758zm179.4-47.879c0 10.68 6.1211 18.238 14.281 17.641 8.5195-0.60156 21.48-13.801 21-21.48-0.48047-8.2812-8.5195-16.68-16.199-16.801-12.121-0.23828-19.199 7.3203-19.082 20.641zm38.641-29.641c0 9.8398 4.6797 15.359 12.602 15 8.5195-0.35938 19.801-11.879 19.922-20.398 0.12109-7.1992-9.1211-20.762-14.398-21-9.4844-0.48047-18.125 12-18.125 26.398zm172.56 408.24c-10.801 3.7188-20.762 7.1992-32.879 11.281 12.359 5.3984 17.52 15.238 26.039 23.281 4.5625-11.645 9.4805-21.602 6.8398-34.562zm-473.88-29.039c0 6.1211 1.5586 8.5195 5.3984 8.6406 5.6406 0.23828 13.199-6.2383 13.32-12 0.23828-8.2812-7.5586-7.4414-11.762-7.9219-8.5156-0.83984-5.1562 7.4375-6.957 11.281zm18.602-437.16c3.3594 3 7.6797 3.4805 11.641 4.9219 2.6406 0.96094 5.8789 0.83984 6.8398-2.0391 1.1992-3.3594 2.2812-7.4414 1.4414-10.801-0.83984-3.7188-5.1602-2.7617-8.1602-2.3984-6.2422 0.47656-11.164 2.9961-11.762 10.316zm291.12 23.52c5.6406-1.6797 11.281 0.35938 15.602-3.8398-2.2812-7.0781-6.9609-10.801-13.078-8.8789-4.5625 1.4375-3.1211 6.957-2.5234 12.719zm104.64 198.36c-0.12109-0.96094-0.35938-2.0391-0.48047-3-1.5586 1.3203-3.2383 2.6406-4.8008 4.0781-1.0781 1.0781-0.83984 2.1602 0.71875 2.3984 2.5234 0.48437 3.7227-1.4375 4.5625-3.4766z"/>
 <path d="m394.08 658.56c2.2812 30.961-34.441 54.238-56.039 47.762-15.48-4.6797-32.16-24.719-35.281-44.641-2.3984-15.84 8.2812-37.32 22.68-45.121 0.96094-0.48047 1.9219-1.0781 2.8789-1.4414 27.125-10.918 65.523 14.523 65.762 43.441zm-6.8398-1.1992c0.12109-16.078-13.199-30.121-30.359-31.801-3.7188-0.35938-7.6797 0.48047-11.16-0.60156-12-3.9609-17.039-3.2383-24.602 4.8008-12.719 13.68-13.078 33.238-0.96094 52.199 9.9609 15.48 26.398 20.879 43.559 14.16 15.363-5.8789 23.285-18.957 23.523-38.758z"/>
 <path d="m560.52 964.08c-0.96094 12-2.6406 24.121-14.879 30.121-12.602 6.2383-24.719 4.6797-36.602-3.4805-17.039-11.762-22.441-21.602-18.359-36.961 4.5586-16.922 19.32-29.281 36-30 14.762-0.71875 24.961 5.8789 29.762 19.801 2.2773 6.6016 4.1992 13.441 4.0781 20.52zm-33.121-31.438c-18.84 0.12109-27.84 11.16-29.039 35.879-0.48047 8.8789 20.16 22.559 33.602 22.32 12.961-0.23828 22.32-11.039 21.719-26.52-0.83984-24-13.801-33.359-26.281-31.68z"/>
 <path d="m797.16 770.04c-0.23828 15.359-13.078 29.52-26.641 29.52-14.398 0.12109-25.32-11.281-24.84-26.039 0.60156-17.398 11.398-28.801 26.641-28.199 14.16 0.71875 25.078 11.52 24.84 24.719zm-42.961 2.5195c-0.35938 10.32 5.8789 17.879 15.602 18.719 9.2383 0.83984 17.879-8.6406 18.48-20.281 0.35938-8.5195-6.8398-16.078-15.961-16.559-10.199-0.47656-17.641 7.082-18.121 18.121z"/>
 <path d="m825.12 901.32c-0.23828-12 8.0391-21.238 19.441-21.359 13.078-0.12109 23.879 10.559 23.762 23.52-0.12109 10.801-10.441 20.281-22.801 20.879-9.9648 0.48047-20.043-10.918-20.402-23.039zm21.598 15.121c5.6406 0.23828 12.121-6.1211 12.719-12.602 0.71875-7.0781-6.2383-14.398-14.16-15.121-5.5195-0.48047-11.039 4.0781-11.398 9.2383-0.48047 7.3242 7.082 18.242 12.84 18.484z"/>
 <path d="m371.4 913.56c11.281 0.48047 20.039 10.559 19.68 23.16-0.23828 12.359-9.4805 20.52-22.441 19.68-11.039-0.71875-19.32-10.199-18.961-21.84 0.24609-12.48 9.6055-21.48 21.723-21zm11.641 23.52c-0.12109-8.2812-7.5586-15.961-15.121-15.602-5.8789 0.35938-10.801 6.6016-10.68 13.68 0 7.6797 6.7188 14.281 14.281 14.281 6.9609 0.12109 11.641-5.0391 11.52-12.359z"/>
 <path d="m267.12 539.76c8.1602-0.12109 15 6.6016 15.48 15.238 0.48047 9.1211-7.3203 19.68-14.762 20.039-8.6406 0.48047-17.281-6.9609-17.52-15.121-0.35937-9.957 8.0391-20.039 16.801-20.156zm0.11719 10.438c-5.6406 0.23828-7.5586 3.8398-7.3203 8.5195 0.35938 5.0391 3.7188 7.4414 8.7617 7.0781 4.6797-0.35938 6.1211-3.9609 6.2383-7.8008 0.24219-5.0352-2.6367-7.7969-7.6797-7.7969z"/>
 <path d="m1025.3 965.16c-8.1602 2.2812-16.441 0.71875-24.719-0.12109-13.922-1.4414-27.84-3.7188-41.762-5.1602-6.2383-0.60156-11.039-3.9609-16.32-6.6016-1.9219-0.96094-3.4805-2.7617-2.5195-5.2812 0.83984-2.5195 3.2383-2.6406 5.2812-2.3984 15.48 2.3984 30.961 4.6797 46.32 7.4414 10.078 1.8008 20.039 4.3203 30 6.6016 2.1562 0.48047 3.957 1.6797 3.7188 5.5195z"/>
 <path d="m859.68 1008.6c19.199 2.0391 71.52 21.84 82.801 30.48-6.7188 3.1211-12.359 1.9219-18.48-0.71875-20.52-9.125-43.801-12.242-64.32-29.762z"/>
 <path d="m784.8 1041.4c20.16 8.1602 29.52 19.441 43.199 49.32-5.0391 1.9219-9.6016 3.8398-13.68-1.6797-1.3203-1.6797-2.0391-3.8398-3.2383-5.6406-8.2812-12.84-17.762-25.199-26.281-42z"/>
 <path d="m216 954.6c5.7617-4.1992 12.121-5.1602 18.48-5.6406 12.48-0.96094 24.359-4.6797 36.602-7.0781 2.7617-0.48047 5.5195-1.0781 6.6016 2.5195 0.96094 3.1211-0.48047 6-3.1211 6.4805-18.961 3.1211-37.199 11.762-57 6.7188-0.36328-0.12109-0.60156-0.83984-1.5625-3z"/>
 <path d="m561 1122.6c-6.3594-3.8398-7.3203-6.4805-7.4414-9.1211-0.48047-15-0.60156-30-0.83984-45 0-2.2812 1.0781-4.1992 3.4805-4.6797 1.6797-0.35938 3.1211 0.60156 3.6016 2.2812 4.6797 18.117 5.3984 36.117 1.1992 56.52z"/>
 <path d="m692.64 1062.6c3.2383 0.23828 5.0391 2.1602 5.8789 4.8008 3.7188 13.441 7.8008 26.641 14.762 38.762 1.5586 2.6406 1.1992 5.2812-1.3203 7.0781-2.5195 1.8008-5.1602 0.96094-7.1992-1.1992-1.8008-1.9219-3.4805-4.0781-4.8008-6.3594-6.3594-11.281-8.2812-24.121-11.641-36.359-0.83984-3.2461 0.23828-6.2461 4.3203-6.7227z"/>
 <path d="m316.68 997.68c-0.48047 7.3203-7.1992 11.039-11.281 15.84-8.0391 9.3594-17.039 17.879-25.68 26.762-1.9219 1.9219-3.7188 4.0781-6.6016 4.0781-1.4414 0-3.4805-0.48047-4.3203-1.4414-0.71875-0.83984-0.71875-3.3594 0-4.1992 3-3.7188 6.3594-7.3203 9.8398-10.559 10.441-9.9609 21.121-19.922 31.68-29.762 1.5625-1.4375 3.2422-3 6.3633-0.71875z"/>
 <path d="m406.2 1089.8c3.9609-16.078 8.2812-31.559 14.16-46.68 0.83984-2.1602 2.0391-5.3984 5.6406-4.1992 3.1211 1.0781 3.7188 4.3203 2.8789 6.7188-4.9219 15.961-10.078 31.801-15.359 47.52-0.71875 2.0391-2.7617 3.6016-5.1602 2.8789-3.3594-1.0781-2.2812-4.0781-2.1602-6.2383z"/>
 <path d="m669.72 547.56c-4.5586 17.039-8.7617 19.68-26.281 16.922 11.043-3 17.043-8.8789 26.281-16.922z"/>
</svg>
