<?xml version="1.0" encoding="UTF-8"?>
<svg width="1200pt" height="1200pt" version="1.1" viewBox="0 0 1200 1200" xmlns="http://www.w3.org/2000/svg">
 <path d="m520.64 602.02c-12.469 64.875 70.125 113.62 73.641 115.64 3.9375 2.2969 8.8594 2.1562 12.656-0.375 3.375-2.25 83.109-55.828 66.75-119.81-9.5625-37.406-43.594-44.812-77.344-26.016-34.781-16.781-68.391-7.4062-75.703 30.562zm82.828-6.7969c9.8906-6.7031 25.031-12.188 34.969-8.4375 2.1094 0.79688 8.5781 3.2812 12 16.594 9.8906 38.766-33.797 76.547-50.531 89.344-17.297-11.812-63.188-47.297-55.734-86.156 2.625-13.547 8.9062-16.359 10.969-17.297 10.031-4.5 25.828 0.65625 35.438 6.3281 4.0312 2.3906 9 2.25 12.891-0.375z"/>
 <path d="m403.87 373.45c-53.766 15.469-78.609 73.5-115.17 104.02-5.1094 4.2188-5.7656 11.812-1.5 16.875s11.812 5.7656 16.875 1.5c68.578-57.188 93.609-184.92 250.55-23.156 9.0469 9.375 9.6094 23.953 1.2656 33.938-32.297 38.625-51.703-47.484-103.73-48.562-29.062-0.79688-49.875 23.859-63 42.281-19.078 26.766-77.719 118.73-30.844 178.92 15.75 20.203 40.172 30.047 57.188 35.672 38.203 12.656 84.516 11.109 116.58 29.719 42 24.375 46.828 28.875 57.516 53.578 11.297 26.109-15.188 52.125-40.641 40.5-49.828-20.25-82.406-45.094-143.58-48.75-8.2969-0.51562-16.828 1.3594-26.156 5.6719-47.438 22.078-112.55 14.906-158.76 5.0156-35.016-7.5-71.062 5.0625-94.078 32.766l-47.672 57.375c-4.2188 5.1094-3.5156 12.656 1.5469 16.875 5.1094 4.2188 12.656 3.5156 16.875-1.5469l47.766-57.281c17.297-20.812 44.297-30.281 70.594-24.609 49.875 10.688 120.47 18.141 173.95-6.7031 5.5781-2.625 10.406-3.75 14.578-3.4688 24.703 1.5 48.609 7.4062 71.109 17.625l63.984 29.016c22.922 10.406 51.422 3.9375 66.984-18 10.641 16.688 27.75 25.125 45.703 25.125 38.531 0 81.656-52.453 157.5-62.156 4.2188-0.51562 9.0469 0.28125 14.766 2.4844 55.031 21.234 124.97 8.9531 174-5.0625 25.828-7.4062 53.438 0.1875 72.094 19.781l28.875 30.375c4.5469 4.7812 12.141 4.9688 16.969 0.42188 4.7812-4.5469 4.9688-12.141 0.42188-16.969l-28.875-30.375c-24.797-26.062-61.641-36.141-96.094-26.344-45.469 12.984-109.92 24.516-158.76 5.7188-9.5625-3.7031-18.188-4.9688-26.484-3.9375-60.797 7.7812-91.641 34.781-139.97 58.312-24.562 13.312-52.828-10.828-43.266-37.641 9-25.359 13.5-30.188 53.766-57.328 43.359-29.203 131.81-21.984 168.94-76.969 42.703-63.188-21.984-151.03-42.844-176.44-14.344-17.531-36.656-40.5-65.719-37.922-43.219 3.7969-58.078 63.141-83.766 64.312-14.344 0.375-33.469-23.953-17.484-42.844 145.6-172.03 180.79-45.188 251.58 6.1875 5.3438 3.8906 12.891 2.6719 16.781-2.6719s2.7188-12.844-2.6719-16.781c-62.391-45.281-121.03-194.81-283.97-2.25-29.953 35.391 2.625 83.953 36.891 82.312 19.781-0.89062 35.109-17.391 44.906-29.672l5.1094-6.5625c10.125-13.219 20.625-26.906 34.734-28.125 17.625-1.5 34.172 15.938 45.047 29.25 12.938 15.797 75.797 97.031 41.531 147.74-8.25 12.188-21.75 21.656-43.828 30.703-36.328 14.859-83.016 15.844-118.64 39.844-34.266 23.109-46.781 33.188-56.438 53.344-11.672-23.344-23.906-32.062-62.766-54.609-50.156-29.109-133.45-16.453-166.87-59.391-37.594-48.281 19.594-133.64 31.453-150.24 61.688-86.578 76.547 28.453 131.9 26.297 34.688-0.75 63.328-51.562 31.266-84.609-29.672-30.656-99.328-102.47-168-82.594z"/>
 <path d="m95.766 601.78c110.3-93.609 150.98-155.53 271.26-242.68 46.453-33.656 101.06-44.766 139.22-28.266 30.562 13.219 49.734 43.266 55.406 87 0.84375 6.5625 6.8906 11.203 13.453 10.359s11.203-6.8438 10.359-13.453c-16.266-125.68-133.74-146.63-232.5-75.047-124.82 90.422-160.78 148.82-272.72 243.79-5.0625 4.2656-5.6719 11.859-1.4062 16.922 4.3125 5.0625 11.859 5.6719 16.922 1.3594z"/>
 <path d="m611.58 432.14c6.5156 0.98438 12.656-3.6562 13.547-10.219 8.25-59.344 53.625-102.84 112.83-108.23 36.562-3.3281 69.188 22.312 99.516 43.922 48.516 34.312 94.125 74.859 138.28 114 72.188 64.078 59.062 51.188 128.48 110.06 2.25 1.875 4.9688 2.8125 7.7344 2.8125 11.203 0 16.219-14.016 7.7344-21.188-69.75-59.156-55.969-45.703-128.02-109.64-116.81-103.73-136.69-112.22-147.61-120.84-30.797-22.031-65.719-46.875-108.38-43.078-70.547 6.4688-124.6 58.219-134.39 128.86-0.84375 6.6094 3.7031 12.656 10.266 13.547z"/>
</svg>
