<?xml version="1.0" encoding="UTF-8"?>
<svg width="1200pt" height="1200pt" version="1.1" viewBox="0 0 1200 1200" xmlns="http://www.w3.org/2000/svg">
 <path d="m572.02 1199c-7.0312-0.79688-33.656-2.0156-59.203-2.7656-51.188-1.5-57.047-2.5781-80.531-14.859-13.219-6.9375-19.828-12.234-19.828-15.938 0-2.1562 8.5781-8.9062 16.688-13.172 6.9375-3.6562 33.797-30 44.438-43.594 6.2812-8.0625 15.422-18.375 20.297-22.875 21.75-20.344 37.453-39.656 43.875-53.953 21.234-47.391 22.969-56.156 23.109-115.41 0.046875-22.547-0.51562-50.062-1.2656-61.078s-1.7344-28.031-2.25-37.781c-0.46875-9.75-1.2656-20.391-1.7812-23.719-3.8438-25.5-4.9219-33.656-6.375-49.359-0.9375-9.7969-2.0625-18.422-2.4844-19.125s-1.3125-7.875-1.9219-15.891c-1.9219-24.469-3.0469-29.766-10.5-49.547-5.2969-14.109-21.609-35.062-38.25-49.125-6.9844-5.9062-19.828-17.719-28.594-26.25s-23.766-21.047-33.375-27.797-19.5-14.156-21.984-16.406c-17.109-15.656-40.172-32.906-46.828-35.016-6.0938-1.9219-30.234-18.281-36.891-25.031-3.4219-3.4219-8.9531-11.812-12.281-18.609-5.8125-12-6-13.125-5.9062-34.125 0.09375-21.188 5.25-79.078 10.312-115.59 5.8594-42.234 8.3438-56.062 14.625-80.906 3.9375-15.516 6.3281-29.109 5.9531-33.281-0.60938-6.4219-0.28125-7.0312 3.6562-7.0312 4.0781 0 4.2656 0.51562 3.2812 7.7344-0.5625 4.2656-1.8281 20.062-2.8125 35.109-2.0625 31.781-3.2344 44.719-5.625 61.078-4.2656 29.484-5.5312 40.219-6.5156 54.703-0.5625 8.5312-1.4062 17.953-1.8281 20.953-1.6875 11.203-3.4688 44.344-3.3281 61.078 0.14062 15.562 0.70312 18.422 5.7656 28.266 3.0938 6 7.125 12.656 8.9531 14.766 4.875 5.5312 25.453 19.312 37.172 24.938 10.078 4.8281 22.875 14.109 40.688 29.391 5.1562 4.4531 20.484 16.219 33.984 26.156 13.547 9.9375 29.531 22.969 35.531 28.922s18.516 17.203 27.844 24.984c34.828 29.203 48.844 55.359 54.234 101.53 1.5469 13.031 2.8125 22.781 3.5625 27.516 0.375 2.3906 1.2188 11.391 1.8281 19.969 1.2188 17.578 2.3906 29.25 3.7031 37.266 0.46875 3 1.3125 17.344 1.7812 31.922 0.51562 14.531 1.3125 32.578 1.875 40.125 1.875 27 1.5938 90.234-0.46875 100.27-1.125 5.5312-2.4375 12.891-2.8594 16.406-1.2188 9.8438-6.6094 27.094-12.375 39.562-2.9062 6.2344-5.25 12.141-5.25 13.125 0 6.2812-12.422 22.219-35.344 45.516-14.484 14.672-29.625 30.891-33.656 36.094-4.0781 5.1562-11.203 12.562-15.938 16.406s-12.469 10.406-17.203 14.531c-8.1562 7.125-17.812 11.719-29.812 14.344-6.7969 1.4531-5.625 2.4844 15.047 12.984l17.062 8.7188 78.656 2.5781c79.641 2.625 137.72 1.6406 197.16-3.3281 30.047-2.5312 38.391-5.4375 56.531-19.688 6.2812-4.9219 5.25-6-9.5625-10.359-9.1875-2.7188-19.922-7.7812-29.625-14.016-2.4844-1.5938-13.172-6.4219-23.719-10.688-17.438-7.0781-26.719-11.672-29.156-14.531-2.6719-3.0938-31.312-25.453-32.625-25.453-0.84375 0-5.5312-4.0312-10.406-8.9531-6.2812-6.2812-12.281-15.656-20.25-31.453l-11.344-22.5-0.84375-34.641c-0.46875-19.031-1.2656-37.078-1.8281-40.125-0.51562-3-1.4062-24.938-1.9219-48.703s-2.0156-57.422-3.2812-74.766c-3.6094-49.641-2.6719-102.8 2.2969-129.98 5.4844-30.141 10.828-47.953 17.203-57.562 2.5781-3.8906 4.6875-7.6875 4.7344-8.4844 0.14062-4.6406 18.188-24.375 34.594-37.875 10.547-8.6719 21.609-18.375 24.609-21.516 5.1562-5.4844 27.234-23.344 47.391-38.391 13.969-10.406 65.297-61.828 77.391-77.484 9.8906-12.797 23.766-38.109 23.766-43.359 0-1.2188 0.89062-4.5 1.9688-7.3594 1.0781-2.8125 2.0156-5.5312 2.0625-6.0469s1.6875-5.4375 3.6094-10.922c2.1094-6 4.2188-19.5 5.3438-33.703 1.9219-25.031 2.2969-21.328-7.4531-72.938-1.9219-10.031-4.0312-21.938-4.6875-26.438-1.5938-10.641-1.875-11.953-6.4219-33.609-2.1094-10.078-4.2188-20.391-4.6875-22.875s-1.6875-7.6875-2.6719-11.578c-1.0312-3.8438-3-14.578-4.3594-23.812-3.75-25.125-19.125-86.016-22.406-88.734-0.70312-0.60938-5.7656-2.9531-11.25-5.25s-12.844-6.0938-16.406-8.4844-9.375-6.2812-12.938-8.6719c-12.609-8.4844-24.75-13.828-41.859-18.516-9.5156-2.625-21.844-6.2344-27.328-8.0156-13.359-4.3594-23.766-6.7969-39.562-9.2812-7.2188-1.125-15.422-2.3906-18.234-2.8594-12.562-1.9688-69.562-0.60938-82.547 1.9688-12.844 2.5312-23.391 3.75-71.672 8.25-20.906 1.9688-23.953 2.5312-59.344 11.109-27.234 6.6094-30.422 8.3438-41.578 22.594-4.3125 5.5312-5.9531 9.7969-6.75 17.906-0.60938 5.8125-1.5469 11.344-2.1562 12.281-0.5625 0.9375-1.3594 3.1406-1.7812 4.9219-3.7031 16.734-14.672 46.875-23.484 64.5-5.7188 11.438-8.625 15.422-11.672 15.891-4.9219 0.70312-4.9219 0.9375-0.28125-9.5156 2.3906-5.3438 3.9844-13.641 4.4531-22.547 0.375-7.7344 1.9219-17.391 3.375-21.375 12.234-33.281 16.266-45.422 18.703-56.062 2.3906-10.547 3.4688-12.469 7.4062-13.453 2.5312-0.60938 6.0469-3.5156 7.8281-6.4688 4.2656-6.9844 24.375-16.594 42.609-20.297 7.7344-1.5938 16.594-4.125 19.641-5.6719 10.359-5.1562 66.844-14.297 108.28-17.531 25.266-1.9688 71.156-1.125 108.47 1.9688 26.766 2.2031 68.297 11.578 86.578 19.5 7.0312 3.0469 20.156 8.5781 29.156 12.328 9.0469 3.75 18.047 8.5781 20.062 10.734s7.0781 4.9688 11.297 6.2344c5.2969 1.5938 9.7031 4.7812 14.297 10.359 3.6562 4.4531 6.1406 8.8125 5.5781 9.7031s0.51562 6.0469 2.3906 11.484c3.9844 11.344 18.469 70.406 22.594 91.875 1.5469 8.0156 3.9844 18.703 5.4375 23.719s3.1406 12.656 3.75 16.969 1.5 8.5312 2.0156 9.3281 2.9531 11.625 5.4375 24.047 6.1406 30.375 8.1094 39.891c7.6875 37.266 8.3906 45.562 5.9531 69.281-3.1875 30.984-19.125 72.797-36.797 96.656-9.375 12.609-70.828 75.047-80.438 81.703-3.8438 2.625-13.406 10.266-27.891 22.219-3 2.4844-13.547 12.516-23.391 22.266s-23.578 22.781-30.516 28.969-12.656 11.906-12.656 12.75-2.7656 5.8594-6.0938 11.109c-9.1875 14.438-20.531 49.875-24.141 75.234-0.42188 3-2.0156 14.016-3.5625 24.469-2.5781 17.391-3.5625 63.328-1.9219 88.594 0.32812 5.0156 1.125 34.969 1.7812 66.562 1.6406 78.75 2.0625 85.5 5.25 88.078 2.8594 2.3438 7.6875 21.422 9.5156 37.875 0.70312 6.5156 4.0781 16.266 9.2344 27 4.4531 9.2344 8.1094 17.203 8.1094 17.672 0 3.9844 11.25 16.641 22.172 24.984 7.3594 5.5781 16.453 12.891 20.203 16.219 11.531 10.219 16.219 13.031 34.875 21.094 9.9375 4.2656 22.641 10.547 28.266 13.922s16.875 8.2969 25.031 10.969c18.516 6.0938 21.891 8.3438 19.359 13.078-2.2031 4.125-15.938 17.156-21.328 20.203-19.781 11.297-26.812 13.078-68.438 17.25-24.656 2.4844-144.66 3.6562-163.18 1.6406zm-2.7188-599.95c-5.5312-3.1875-11.672-6.75-13.688-7.875-16.5-9.4688-30.328-19.5-39.188-28.453-9.7969-9.8906-18.047-16.172-29.297-22.359-4.5938-2.5312-10.312-5.7188-12.75-7.0781-6.8438-3.8906-20.156-14.438-27.516-21.844-7.7344-7.8281-32.953-27.141-35.438-27.141-3.3281 0-20.766-16.734-23.391-22.453-8.0625-17.484-17.438-43.547-17.438-48.422 0-3.0938-1.5-9.5156-3.375-14.297-2.9531-7.6875-3.2812-13.219-2.7656-46.125 0.70312-45.141 0.5625-43.688 9.2812-76.547 5.2969-19.875 7.7812-26.578 10.125-27.047 3.9844-0.75 3.9375 1.3594-0.65625 22.641-2.0625 9.6094-3.4219 17.812-3 18.234s5.625-1.5 11.531-4.2656c9.9844-4.6875 12.516-5.0625 35.391-5.25 14.438-0.09375 30.281-1.3594 38.297-3.0469 7.5-1.5469 19.406-3.375 26.438-3.9844 38.391-3.4688 52.5-4.4531 66.422-4.5 8.4375-0.046875 22.359-1.4062 30.938-3 13.312-2.4844 27.328-2.7656 96.75-2.0156 72.984 0.84375 94.406 1.9219 115.92 5.9531l6.6094 1.2188-1.125-29.859c-1.4531-39.141-1.0312-37.266-8.0156-36.562-4.0312 0.42188-5.7656-0.1875-5.7656-2.0156 0-9.4688 23.25-13.5 31.312-5.4844 3.9375 3.9375 4.0781 5.3906 4.3594 41.438 0.28125 36.938 0.375 37.406 4.6406 40.875 4.1719 3.375 4.1719 3.6562 1.125 7.0312-2.625 2.9062-3.375 8.1094-4.125 28.875-1.125 32.062-2.25 43.266-5.3906 53.578-1.3594 4.5469-3 11.203-3.5625 14.859-1.0312 6.375-5.625 14.062-23.859 39.891-4.5938 6.5156-10.875 16.781-13.969 22.781-5.25 10.312-20.766 27.188-43.406 47.438-7.875 7.0312-12.938 12.562-21.188 23.203-3.8438 4.9688-12.891 12.938-24.328 21.469-11.391 8.4844-25.969 22.734-34.125 33.328-9.7969 12.703-24.938 24.234-36.609 27.938-4.7344 1.5-16.781 3.1406-26.812 3.6562-17.906 0.89062-18.422 0.79688-28.266-4.875zm55.453-13.312c3.5156-2.6719 9.9375-9.1406 14.203-14.297 9.7969-11.766 28.219-30.094 34.266-34.031 12.797-8.3438 23.578-17.25 30.422-25.172 12.891-14.953 22.969-24.984 33.422-33.469 13.219-10.734 22.172-20.578 29.531-32.484 3.3281-5.3438 11.625-17.672 18.469-27.328 15.797-22.312 18.141-27 22.875-45.375 3-11.672 3.8438-20.438 3.8438-39.656 0-13.547-0.70312-24.656-1.5938-24.656s-2.625 1.2188-3.8438 2.7188c-3.75 4.5-23.109 16.781-37.078 23.578-30.891 14.953-102 19.359-178.97 11.109-14.016-1.5-25.734-2.7188-25.969-2.7656-0.23438 0-0.46875-0.60938-0.46875-1.3594s24.797-1.0781 55.172-0.75c56.766 0.65625 70.5-0.375 108.94-8.2031 21.516-4.3594 48.656-20.438 63.938-37.875 4.8281-5.5312 5.4844-7.125 3.375-8.4375-1.4531-0.89062-3.8906-1.6406-5.4375-1.6875-1.5469 0-3.6562-0.84375-4.6406-1.8281-4.6406-4.6406-51.188-7.7344-119.25-7.9688-88.969-0.28125-170.39 4.0312-203.29 10.781-7.0312 1.4531-18.516 3.0938-25.547 3.6094-16.922 1.3125-27.984 4.7812-45.562 14.25l-14.578 7.8281 0.1875 74.438 5.8125 10.594c6.3281 11.531 6.8906 14.203 3.7969 19.125-1.6406 2.625-0.09375 7.125 8.4375 24.141 11.391 22.781 14.766 26.484 35.531 39.328 14.578 9 20.062 13.359 37.359 29.766 6 5.6719 19.406 15.234 29.766 21.188 11.344 6.5156 25.078 16.5 34.453 25.031 8.5781 7.8281 21.422 17.531 28.547 21.609s15.891 9.2812 19.453 11.578c8.7188 5.5781 11.484 5.9531 25.781 3.5156 8.1094-1.3594 14.344-3.7031 18.609-6.9375zm-132-245.86c-13.641-1.4531-38.531-5.0625-66.891-9.7031-15-2.4844-26.109-6.7031-26.109-10.031 0-2.25 7.0312-2.2969 13.875-0.046875 2.9062 0.9375 15.938 3 28.969 4.5 35.484 4.1719 60.703 7.9688 72.938 10.969 6 1.5 13.172 2.7188 15.938 2.7656s5.0156 0.89062 5.0156 1.9219c0 2.1094-21.609 1.875-43.734-0.46875zm75.656-211.13c-57.422-5.6719-132.79-23.812-150.52-36.188-9.1875-6.4219-12.141-16.359-6.8438-23.062 6.0938-7.7344 18.891-15.328 30.375-18 6-1.4062 11.766-3.0469 12.703-3.6562 4.0312-2.4844 74.672-7.1719 138.89-9.2344 26.531-0.84375 76.688 1.8281 103.92 5.5312 28.5 3.8906 65.391 14.578 93.938 27.234 9.4219 4.1719 22.734 18.516 22.734 24.422 0 4.8281-10.547 16.125-16.875 18.047-3.2344 0.98438-16.969 2.25-30.516 2.8125s-29.109 1.875-34.641 2.8594c-27.234 4.9219-54.422 7.4531-96.703 9-51.844 1.875-48.984 1.875-66.469 0.14062zm83.859-11.906c13.031-0.5625 40.875-3.4219 61.922-6.375 21-2.9531 44.953-5.3906 53.203-5.3906 13.219 0 15.328-0.46875 17.719-3.8438 5.7656-8.25-3.4219-17.766-25.078-26.062-56.438-21.562-82.125-25.359-171.61-25.359-75.562 0-118.41 2.4375-137.26 7.7812-18.094 5.1094-19.875 6.4219-19.266 14.203 0.65625 8.3906 4.875 14.578 12.094 17.719 17.625 7.6875 62.156 18.656 96.984 23.859 41.438 6.1875 43.922 6.2812 111.23 3.4219z"/>
</svg>
