<?xml version="1.0" encoding="UTF-8"?>
<svg width="1200pt" height="1200pt" version="1.1" viewBox="0 0 1200 1200" xmlns="http://www.w3.org/2000/svg">
 <path d="m432.14 244.08c-2.3906 0.46875-81.328 33.469-82.922 34.172-9.8438 4.125-23.484 7.9688-25.922 17.531-1.4531 5.625 0 12.75 5.9531 15.375 8.1094 3.6094 20.906-3.8906 29.578-7.4062 18.656-7.5938 66.375-24.891 82.688-34.5 15.328-9.0938 8.6719-28.781-9.375-25.172z"/>
 <path d="m718.87 907.5c-41.531 14.109-82.734 30.75-122.39 49.453-7.2656 3.4219-2.0156 14.203 5.1094 10.828 39.281-18.516 80.062-35.016 121.13-48.938 7.5469-2.5781 3.6562-13.875-3.8438-11.344z"/>
 <path d="m1018.5 294.47c-24.328-30.562-56.672-52.078-93.938-62.906l61.828-62.438c10.406-10.641 9.8438-28.312-1.0781-38.203l-42.422-38.578c-1.2188-1.1719-7.4062-6.7969-17.156-7.125-8.7188-0.1875-17.391-0.32812-26.438-0.1875-7.6875 0.14062-8.0625 11.906 0.23438 12 8.625-0.14062 16.922 0 25.172 0.1875l-19.781 52.688-107.58 7.1719-24-46.266c27.047-4.8281 49.312-8.0625 69.938-10.125 7.7812-0.79688 6.8438-12.516-1.1719-11.953-96.469 9.5625-77.156 8.4844-122.81 61.5-9.8906 11.672-7.7344 28.781 3.7969 37.781l62.859 50.25c-119.11 47.203-152.81 198.47-64.312 291.71-8.1094 24.469-24.938 50.438-42.891 72.281-2.625 3.1875-1.3125 7.9219 2.3906 9.375 15.938 6.4219 39.516 9.2344 56.859 7.2188 37.312-4.3125 71.344-31.922 95.156-26.484 171.14 37.359 293.53-161.86 185.34-297.89zm-82.781-192.42c42.562 39.375 42.703 37.406 45 42.844l-62.672 4.1719zm-22.266 59.344 66.797-4.4531c-2.5781 5.2031 4.4062-3.8438-105.75 108.14zm-13.125 0.84375c-42.328 109.83-38.719 108.05-42.328 108.28-3.8906-0.1875 0.84375 2.7188-54.609-101.86zm-137.26-45.141 21.188 40.875-57.938 3.8438c2.2031-5.2031-0.09375-0.51562 36.75-44.719zm-36.469 56.719 63.656-4.2188 50.438 97.219c-1.5938-1.2656-35.531-28.406-33.797-27.047-80.203-64.828-77.531-60.562-80.297-65.953zm109.12 406.82c-28.219-6.5625-64.359 22.266-99.141 26.25-13.078 1.5-30-0.09375-43.172-3.7969 16.734-21.328 28.453-41.156 37.547-63.516 7.2656-18.094 3.6562-25.266-8.4844-42.797-49.312-70.641-24.75-199.4 79.5-245.68l38.625 30.891c-76.641 19.688-120.42 101.2-91.5 175.82 2.8594 7.4062 14.062 3.0469 11.203-4.3594-33.141-85.406 38.766-174.19 128.29-162.66 66.234 6.4219 103.27 77.625 89.625 140.72-12.047 55.359-58.594 94.125-112.31 98.953-26.344-1.5-49.359-10.641-68.906-26.438-6.1406-4.9688-13.734 4.3594-7.5469 9.3281 76.922 62.109 192.24 20.578 213.1-74.953 17.297-79.969-41.391-157.13-123.98-160.5l36.328-36.703c37.547 9.4688 70.078 30.281 94.219 60.562 101.16 127.31-13.172 313.92-173.39 278.86z"/>
 <path d="m155.63 903.52c48.984 73.172 156.89 96.984 221.63 46.125l41.953 100.92c7.7812 18.234 19.594 56.438 39.844 63.234 18.422 6.1406 50.297-13.125 66.703-18.75 91.266-31.828 177.52-68.109 262.92-108.56 39.047-18.375 69-27.891 86.344-67.969 11.906-15.375 13.641-35.344 7.0781-53.766-21.375-58.125-44.953-119.81-70.125-183.37-2.9062-7.3125-14.109-3-11.156 4.4062 25.125 63.469 48.656 125.11 69.984 183.05 8.1094 22.781-0.51563 44.016-15.797 51.562-122.63 61.5-240.98 110.58-351.79 145.87-17.719 5.5312-38.062-5.5312-47.156-25.922-17.766-39.75-35.531-80.016-53.25-121.03l0.375-0.5625c33.047 6.7031 70.031 0.23438 84.188-7.6406 4.0781-2.3906 15.094-9.375 18.703-10.688 6.6094-0.09375 8.2031-9.3281 2.0156-11.625-3.0938-1.6875-24.234-5.8125-48.609-34.219-1.5-1.5938-2.7188-2.9531-1.2188-1.3125-3.6094-7.125-14.25-1.6875-10.734 5.3906 0.75 1.5469 1.7344 2.3438 1.6875 2.25 8.9531 13.547 26.672 26.109 42.094 33.844-0.98438 0.5625-10.453 6.375-11.484 6.8438-23.672 8.8594-52.828 10.594-78 4.5938-1.5938-0.375-3.2344 0-4.5938 0.89062-4.3125-5.25-12.562-0.375-10.172 5.9062 0.46875 1.2188 0.98438 2.2969 1.4531 3.4688-6.6562 8.9062-8.8125 12.281-17.438 18.516 0.46875 1.0781 0.89062 2.1562 1.3594 3.2812l-0.046875 0.046875c-1.5938 0.75-32.297 31.5-92.016 25.734-104.62-10.547-164.06-110.95-130.6-200.9 44.625-120.47 222.98-154.64 293.11-35.906 25.828 44.438 10.453 62.484 23.859 63.562 3.3281-0.14062 5.9062-2.9531 5.7656-6.2344-3.1875-78.234-82.781-156.66-185.26-141.37-36.047-88.453-72.891-181.78-112.59-285.28-8.0156-20.812-1.4531-43.594 14.953-51.938 98.859-51.797 222.56-104.3 351.84-145.13 17.484-5.625 38.25 5.7656 47.297 25.922 37.078 82.453 63.609 143.63 65.578 148.13 3.1406 7.2656 14.203 2.5312 11.016-4.7812-2.1094-4.8281-28.547-65.719-65.625-148.26-11.672-26.062-38.25-40.078-61.875-32.438-129.66 40.969-255.79 94.453-353.72 145.92-8.3438 4.2656-14.812 11.016-19.078 19.219-41.531 50.953-1.3594 118.69 21.281 174.32 21.984 54.234 44.438 108.33 66.75 162.42-119.2 40.031-154.87 167.72-97.453 252.24z"/>
 <path d="m350.16 771.37c-3.75-6.9375-14.344-1.2656-10.547 5.7188 12.188 22.453 38.578 39.703 53.438 20.625 12.047-8.9531 13.312-30.938 2.2969-51.188-11.438-21.094-31.781-32.297-45.984-25.406-9.8906 1.8281-18.328 10.922-17.859 27.75 0.23438 8.2969 12.188 7.3594 12-0.32812-0.375-13.922 6.9844-20.016 19.453-12.516 13.453 8.1562 24.281 28.172 23.812 43.828-0.79688 24.281-24.703 13.453-36.609-8.4844z"/>
 <path d="m275.48 814.6c-3.7969-6.9375-14.344-1.2656-10.547 5.7188 12.75 23.531 38.859 39.141 52.781 20.953 11.672-8.8125 12.656-30.609 1.6875-50.812-11.438-21.094-31.5-32.391-45.328-25.734-12.469 2.25-17.859 14.391-17.344 27.562 0.28125 8.3438 12.281 7.1719 12-0.46875-1.3125-35.812 43.172-2.3906 42.516 31.828-0.51562 24.141-24.094 12.516-35.766-9.0469z"/>
 <path d="m231.19 879.42c-6.4688 3.5156-20.578-5.1562-29.719-21.984-3.7969-6.9844-14.344-1.2656-10.547 5.7188 9.75 17.906 24.562 29.016 37.078 29.016 6.4688 0 11.062-2.625 14.719-7.5469 11.156-8.5312 11.719-30.094 0.75-50.297-11.484-21.094-31.125-32.672-44.438-26.25-12.328 2.1094-17.156 14.531-16.5 27.188 0.42188 8.2969 12.422 7.0312 12-0.65625-1.3594-25.875 22.125-14.531 34.312 7.9219 9.0938 16.875 8.7656 33.375 2.3438 36.891z"/>
 <path d="m1067.6 574.4-43.688-18.984c-7.2656-3.1875-12.047 7.875-4.7812 11.016l43.688 18.984c7.3125 3.2344 12-7.875 4.7812-11.016z"/>
 <path d="m1046.4 629.76c-14.25-15.75-27.562-32.578-39.609-50.016-4.5469-6.5156-14.391 0.32812-9.8438 6.8438 12.375 17.812 26.016 35.062 40.594 51.188 5.1562 5.8125 14.25-2.0625 8.8594-8.0156z"/>
 <path d="m988.74 653.63-7.1719-58.078c-0.98438-7.8281-12.891-6.4219-11.906 1.5l7.1719 58.078c1.0312 8.0156 12.891 6.2812 11.906-1.5z"/>
</svg>
