<?xml version="1.0" encoding="UTF-8"?>
<svg width="1200pt" height="1200pt" version="1.1" viewBox="0 0 1200 1200" xmlns="http://www.w3.org/2000/svg">
 <path d="m880.75 465.25h12v59.891h-12zm175.25 662.75v12h-896.04v-12h73.68v-377.27h-79.68v-39.973h-9.9609v-355.32c0-14.293 11.629-25.922 25.922-25.922h113.53v-43.691c-46.211-15.145-79.715-58.715-79.715-110.03 0-63.852 51.816-115.79 115.51-115.79s115.52 51.949 115.52 115.79c0 51.312-33.492 94.859-79.691 110.02v43.703h113.51c14.293 0 25.922 11.629 25.922 25.922v355.32h-9.9727v39.973h-79.668v377.27h84.59c-4.5703-37.883-6.9609-79.391-6.9609-123.76 0-169.84 52.871-328.13 131.58-393.88 55.992-46.766 67.621-83.125 38.867-121.56-19.621-26.219-38.207-65.484-26.016-89.82 6.5039-12.996 20.219-19.586 40.766-19.586 13.598 0 24.59 1.5977 33.805 3.9844v-47.676c-46.164-15.168-79.633-58.715-79.633-110 0-63.852 51.816-115.8 115.51-115.8 28.008 0 53.699 10.055 73.727 26.734 0-0.26562-0.070313-0.50391-0.070313-0.76953 0-30.828 25.02-55.906 55.777-55.906s55.777 25.078 55.777 55.906c0 21.406-12.203 39.816-29.867 49.211v210.3h-12l-0.007812-205.58c-4.4766 1.1641-9.0859 1.9805-13.906 1.9805-7.043 0-13.934-1.3438-20.363-3.875 4.1055 11.867 6.4453 24.551 6.4453 37.812 0 51.289-33.469 94.836-79.645 110v47.676c9.2266-2.375 20.219-3.9844 33.805-3.9844 20.555 0 34.273 6.5898 40.777 19.586 12.191 24.336-6.3945 63.602-26.016 89.82-28.754 38.426-17.125 74.785 38.855 121.56 78.719 65.762 131.59 224.04 131.59 393.88 0 44.363-2.3867 85.871-6.9609 123.76h70.656zm-583.45-417.24h-67.668v27.973h67.668zm-67.668-94.801v82.801h77.641v-343.32c0-7.6797-6.2539-13.922-13.922-13.922h-5.0742l-58.633 274.44zm-61.789-326.88c-7.6914 1.6211-15.66 2.5078-23.832 2.5078-8.1719 0-16.117-0.875-23.797-2.4961v40.43h47.641v-40.441zm-98.543-184.93c23.977 40.523 67.355 65.652 114.54 65.652 21.434 0 42.539-5.3984 61.488-15.277-1.1055-5.3047-2.7109-10.414-4.5977-15.395-9.0586 1.7266-18.168 2.7852-27.254 2.7852-24.602 0-48.875-6.2656-70.621-18.48l5.8789-10.465c26.461 14.879 57.086 20.016 87.012 14.93-17.293-33.18-51.898-55.895-91.754-55.895-29.363 0-55.859 12.383-74.711 32.148zm74.711 175.44c57.086 0 103.52-46.559 103.52-103.79 0-2.9883-0.20312-5.9141-0.44531-8.8438-19.68 9.5508-41.281 14.844-63.238 14.844-50.039 0-96.07-25.992-122.62-68.051-12.961 17.328-20.734 38.773-20.734 62.051 0 57.238 46.43 103.79 103.51 103.79zm-62.102 61.934 62.039 248.64 62.16-248.64zm-23.52 369.24h-67.68v27.973h67.68zm0-94.801-58.633-274.44h-5.0898c-7.6797 0-13.922 6.2539-13.922 13.922v343.32h77.641v-82.801zm10.801-6.9609h67.078l-66.719-267.48h-57.48zm148.44 12h-147.24v507h67.621v-423.19h12v423.19h67.621zm1.1992-12 57.121-267.48h-57.48l-66.84 267.48zm428.98-473.14c0 5.4727 1.0078 10.703 2.8906 15.59 4.4648 5.3398 8.4258 11.113 11.879 17.207 8.0039 7.1406 18.277 11.113 29.016 11.113 24.145 0 43.777-19.703 43.777-43.906 0-24.203-19.645-43.906-43.777-43.906-24.133 0-43.777 19.691-43.777 43.906zm-135.6-1.0195c12.961 49.402 58.332 84.863 109.69 84.863 14.785 0 29.09-2.9297 42.66-8.4375-7.043-50.41-50.219-89.363-102.39-89.363-18.109 0-35.125 4.7148-49.945 12.938zm49.945 194.65c57.086 0 103.52-46.559 103.52-103.79 0-0.66016-0.085937-1.3086-0.097656-1.9688-13.98 5.1953-28.598 7.9688-43.68 7.9688-55.453 0-104.65-37.379-120.27-90.023-25.992 18.875-42.984 49.465-42.984 84.023 0 57.238 46.43 103.79 103.51 103.79zm0 12c-8.1836 0-16.176-0.88672-23.879-2.5195v48.277c12.086 4.9922 19.547 11.438 23.879 16.727 4.332-5.293 11.809-11.734 23.879-16.727v-48.289c-7.7148 1.6328-15.695 2.5195-23.879 2.5195zm-57.516 187.62h115.03c-0.15625-16.055 5.5781-31.801 17.328-47.496 18.348-24.516 33.961-59.16 24.898-77.258-4.3086-8.6055-14.426-12.961-30.059-12.961-49.211 0-61.812 21.277-63.695 25.176v38.699h-12v-38.734c-1.8828-4.1055-13.98-25.141-63.695-25.141-15.637 0-25.738 4.3555-30.047 12.961-9.0586 18.109 6.5508 52.738 24.898 77.27 11.746 15.695 17.484 31.441 17.328 47.496zm-154.54 258.07c33.816 88.02 96.047 133.97 126.53 152.04 56.746-105.61 79.309-204.17 79.668-205.79l5.8555-26.387 5.8555 26.387c0.35938 1.6211 22.922 100.18 79.668 205.79 30.48-18.07 92.688-63.996 126.53-152.03-22.414-73.715-55.812-133.69-96.434-167.63-33.301-27.816-52.105-53.605-56.902-78.457h-117.45c-4.8008 24.852-23.605 50.641-56.902 78.457-40.609 33.926-74.004 93.898-96.422 167.62zm-24.203 337.21c62.316-47.027 109.84-111.49 145-174.61-29.941-17.676-89.914-61.5-126.16-144.07-16.273 60.121-25.488 128.22-25.488 198.54 0 43.055 2.3047 83.328 6.6484 120.16zm457.38 3.6016c-138.68-109.98-202.7-303.72-221.14-369.45-18.434 65.723-82.453 259.45-221.14 369.45zm21.77-123.76c0-70.32-9.2148-138.42-25.488-198.53-36.254 82.598-96.227 126.39-126.16 144.07 35.172 63.121 82.691 127.6 145.01 174.62 4.3438-36.828 6.6484-77.102 6.6484-120.17zm-386.22-778.54c0-79.246 64.297-143.72 143.33-143.72v-12c-85.656 0-155.33 69.852-155.33 155.72v289.45h12z"/>
</svg>
