<?xml version="1.0" encoding="UTF-8"?>
<svg width="1200pt" height="1200pt" version="1.1" viewBox="0 0 1200 1200" xmlns="http://www.w3.org/2000/svg">
 <path d="m656.26 1198.8c-6.9375-0.75-30.094-1.7344-51.422-2.1094-21.328-0.42188-40.828-1.3125-43.312-2.0156-2.4844-0.70312-23.578-1.4062-46.922-1.5938-49.453-0.32812-90.609-3.375-117.28-8.7656-10.406-2.1094-21.984-4.1719-25.734-4.5938s-7.1719-1.4531-7.6875-2.2969c-2.0625-3.3281 16.688-3.8906 38.578-1.0781 26.484 3.375 31.078 3.6562 145.5 7.7344 18.844 0.65625 51.328 1.3594 72.141 1.5 20.859 0.14062 49.641 0.9375 64.031 1.7344 19.922 1.0781 31.734 0.75 49.594-1.3594 12.891-1.5469 32.391-3.3281 43.312-3.9375 55.594-3.1875 114.84-14.203 142.5-26.578 8.9531-3.9844 17.062-7.875 18.094-8.6719 0.98437-0.75 8.4844-4.8281 16.688-9.0938 9.6094-4.9688 16.125-9.6562 18.469-13.266 1.9688-3.0469 4.5938-7.1719 5.8594-9.0938 1.2656-1.9688 5.6719-7.2188 9.8438-11.719 15.656-17.016 25.781-33.422 32.953-53.297 0.70312-1.9688 4.5938-10.5 8.6719-18.938 13.875-28.875 15.422-36.609 17.719-88.406 0.79688-17.719 0.46875-29.953-1.0312-37.875-1.2188-6.4688-2.1562-13.875-2.1094-16.5 0.046874-3.75-0.9375-4.9688-4.7344-5.7656-6.3281-1.2656-8.1562-5.5781-23.812-55.359-5.1562-16.359-10.031-31.406-10.828-33.375-0.79688-1.9688-2.8125-8.9062-4.5-15.328-1.6406-6.4688-6.2344-20.25-10.219-30.656-3.9375-10.406-10.406-27.891-14.297-38.766-3.9375-10.922-7.8281-21.469-8.7188-23.438-0.89062-1.9688-3.375-8.0625-5.5781-13.547-2.2031-5.4375-5.3438-11.25-6.9375-12.891-1.6406-1.6406-5.8125-6.4688-9.2812-10.688-12.375-15.141-14.156-16.969-15.234-15.891-0.60937 0.60938 1.6406 9.5625 5.0156 19.828 3.375 10.312 9.1875 29.297 12.938 42.188s9.8906 29.625 13.641 37.125c8.8594 17.766 21.656 61.594 20.531 70.5-1.3125 10.453-2.7188 12.797-17.391 28.359-16.078 17.062-25.453 21.609-52.875 25.547-18.047 2.625-25.547 2.7188-145.22 2.2031-46.125-0.1875-89.953 0.375-97.406 1.2656s-26.531 1.6875-42.375 1.7344c-15.891 0.046875-46.312 1.2656-67.641 2.7188-65.719 4.4531-141.71 6.5625-239.02 6.7031-62.391 0.09375-64.781-0.23438-79.219-10.031-11.25-7.6406-11.719-9-7.6406-21.609 4.5938-14.297 31.172-66.75 40.078-79.125 3.7969-5.25 10.688-17.344 15.422-26.906 4.6875-9.5625 13.5-24.188 19.594-32.484s15.422-21.609 20.812-29.531c13.969-20.672 19.406-26.156 26.062-26.156 3.0469 0 5.4375 0.60938 5.3906 1.3594-0.09375 0.75-9.4219 14.766-20.719 31.125-11.719 16.922-25.875 40.266-32.812 54.141-6.75 13.406-14.297 27.609-16.828 31.547-9.4219 14.766-34.781 68.484-36.703 77.719-1.0781 5.0625-0.46875 6.0469 6.5625 10.688 10.359 6.8906 16.969 7.3125 102.52 6.9844 66.562-0.23438 105.23-1.5469 187.6-6.3281 18.375-1.0781 50.812-2.625 72.141-3.4219 21.328-0.84375 54.188-2.4844 73.078-3.6094 22.312-1.3594 65.766-1.7812 124.45-1.2188 49.594 0.51562 95.672 0.1875 102.38-0.65625 11.625-1.5 12.844-2.1094 26.156-13.688 17.391-15.141 18.375-16.359 18.422-23.812 0.09375-11.953-11.344-50.25-20.484-68.344-3.375-6.7031-7.9219-18.281-10.078-25.688-6.4688-22.078-15.75-46.969-22.547-60.422-3.5156-6.9375-6.375-14.016-6.375-15.703 0-4.125 5.4375-6.8438 13.734-6.8438 6.3281 0 6.5625-0.1875 3.2812-2.6719-1.9219-1.4531-7.3125-2.6719-11.953-2.7188-8.8594-0.046875-12.094-2.25-8.9062-6.0938 2.0156-2.4375 1.2656-2.9062-21.422-13.547-14.156-6.6562-44.578-11.812-71.391-12.094-9.9844-0.09375-19.078-0.75-20.203-1.4531-1.2656-0.79688-2.7656 1.5938-4.0312 6.4688-3.9844 15.422-6.3281 20.625-15.656 35.016-8.4375 13.078-10.359 20.578-5.7656 22.547 3.1875 1.3594 16.031 7.4062 28.547 13.5 25.078 12.188 41.578 23.344 41.625 28.172 0.09375 10.5-25.031 11.531-37.641 1.5469-3.8906-3.0938-7.6875-5.5781-8.4375-5.5781s-2.6719-1.125-4.2656-2.5312c-1.5469-1.4062-12.609-7.4531-24.516-13.453-35.391-17.812-75.141-29.062-117.28-33.141-26.438-2.5781-82.125-2.4375-95.625 0.23438-26.297 5.2031-49.453 11.672-58.641 16.359-5.4375 2.8125-13.406 6.0469-17.719 7.1719-7.2188 1.9219-30.188 16.5-39.656 25.172-4.9688 4.5469-9.0938 4.8281-10.688 0.79688-0.75-1.9688 0.65625-4.5469 4.2188-7.6875 18.938-16.547 24.234-20.344 32.859-23.625 5.2969-2.0156 14.953-6.4688 21.469-9.9375 6.5156-3.4688 12.75-6.2812 13.875-6.2812s-1.4531-7.125-5.7656-15.797c-6.6094-13.312-8.5781-19.875-12.422-41.953-2.4844-14.391-4.6406-33.422-4.7812-42.375-0.23438-15.422 0.14062-17.016 6.9844-31.547 8.3906-17.812 21.562-38.391 29.203-45.656 10.266-9.75 33.281-21 51.844-25.312 26.109-6.0469 74.109-3.5625 102.33 5.2969 18.656 5.8594 26.297 9.75 32.25 16.266 2.5781 2.8125 9.2812 9.0469 14.906 13.875 12.234 10.406 19.219 22.031 25.734 42.703 4.3125 13.688 4.7812 17.906 4.5469 39.281-0.14062 13.172-0.65625 26.156-1.0781 28.875-0.46875 2.7188-1.3125 8.5781-1.9219 13.031-0.60937 4.4531-2.8594 14.625-5.0625 22.547-2.1562 7.9219-3.9375 15.094-3.9844 15.938 0 1.3125 17.672 8.4375 21 8.4375 0.70312 0 2.5781-4.4062 4.1719-9.8438 1.5938-5.3906 4.4531-13.594 6.4219-18.188 9.6562-22.547 13.734-85.875 6.5625-102.56-1.6406-3.8438-3-8.1562-3-9.6094 0-2.2969-9.375-27.703-17.812-48.328-3.4688-8.4375-20.156-29.953-29.766-38.391-6.6562-5.8125-29.766-18.469-33.797-18.469-1.125 0-5.9062 2.8125-10.641 6.2812-10.969 8.0625-27.234 12.281-46.922 12.234-21.469-0.09375-37.219-4.7812-27.891-8.3438 1.5-0.5625 7.5-0.5625 13.312 0.046875 18.047 1.875 25.781-0.23438 38.062-10.5 6-5.0156 10.547-9.5156 10.078-9.9844s-6.1406 1.2656-12.562 3.8438c-13.781 5.5312-27.938 6.0938-42.703 1.8281-5.4375-1.5938-12.984-2.7656-16.781-2.6719-3.7969 0.14062-6.4688-0.46875-6-1.2656 0.51563-0.84375 0.1875-2.6719-0.75-4.125-1.2656-2.0156-1.6406-1.5469-1.6875 1.875 0 2.4844 1.5469 7.0781 3.4688 10.219 1.9219 3.1406 3 6.1875 2.3906 6.75-2.4375 2.4375-9.2344 0.79688-11.672-2.8594l-2.625-3.9375-17.906 4.9688c-9.8438 2.7188-20.344 6.7969-23.297 9.0938-3 2.25-8.25 5.5781-11.719 7.3594-19.359 9.9844-40.5 37.641-48.844 63.984-4.3125 13.547-5.0156 19.453-6.0938 48.938-0.9375 26.109-0.60938 36.516 1.4531 46.922 1.4531 7.3594 3.0938 16.781 3.6094 20.906 1.2656 10.031 5.25 19.172 12.047 27.797 5.2969 6.6562 5.3906 7.0781 1.7344 7.0781-5.1094 0-14.391-4.9219-18.328-9.7031-1.7344-2.1094-5.2969-8.0625-7.9688-13.219-4.2656-8.3438-5.3438-9.2812-9.5625-8.5312-2.625 0.46875-14.531 1.6875-26.438 2.6719-27.047 2.2969-54.516 6.1406-60.469 8.5312-2.4844 0.98438-7.875 4.5469-11.906 7.875s-11.109 8.6719-15.75 11.906c-4.5938 3.1875-11.203 10.125-14.672 15.328-10.547 16.031-17.438 25.641-19.594 27.562-3.1875 2.7656-21.609 27.609-28.734 38.766-3.4688 5.4375-10.031 13.969-14.625 18.938-4.5469 4.9688-8.2969 9.5156-8.2969 10.078 0 0.60938-1.7344 3.0469-3.8438 5.3906-2.1094 2.3906-6.5156 8.5312-9.7969 13.688s-11.531 15.703-18.328 23.438c-6.75 7.7812-16.688 20.625-22.031 28.547s-13.5 18.891-18.094 24.375c-12.234 14.578-16.594 26.531-19.172 52.453-2.7188 27.797 0.375 94.781 4.7812 102.98 0.89063 1.6875 1.6406 4.875 1.6406 7.125 0 2.2031 0.75 6.5625 1.6875 9.6094s2.5312 8.7656 3.5625 12.75c3.6562 13.922 8.8125 29.25 11.672 34.828 4.7812 9.2812 44.344 55.688 56.766 66.609 6.9375 6.0938 27.141 16.734 31.781 16.734 1.5 0 2.7656 0.79688 2.7656 1.7812 0 4.5938-13.172 1.2188-31.922-8.1562-18.328-9.1406-21.703-11.719-42.328-32.016-12.328-12.141-25.406-26.578-29.062-32.156-21-31.875-33.797-82.922-34.219-136.92-0.375-48.094 4.4531-66.891 21.891-85.734 5.625-6.0469 15.516-19.875 21.984-30.703s15.844-24.562 20.859-30.562c5.0156-6 15.375-20.203 23.062-31.641 7.6875-11.391 17.766-25.781 22.453-31.875 4.6875-6.1406 12-16.688 16.266-23.438 4.2656-6.75 10.547-15.938 13.922-20.438 3.4219-4.4531 11.578-15.984 18.094-25.641 6.5625-9.6562 14.578-19.781 17.859-22.547 5.625-4.7344 26.531-20.859 34.359-26.484 3.4688-2.5312 3.4219-2.625-1.7812-3.8906-7.5469-1.8281-17.484-6.9844-21.047-10.969-1.6406-1.8281-7.2188-11.484-12.375-21.375-5.1562-9.9375-10.359-19.266-11.578-20.766-2.2969-2.8125-11.812-22.734-11.812-24.656 0-1.7344-12.328-30.609-19.875-46.594-8.25-17.438-13.406-32.438-16.219-46.922-1.875-9.7969-8.7188-38.391-15.328-64.031-1.4062-5.4375-3.0469-12.75-3.6094-16.219s-2.2969-9.9844-3.7969-14.438c-6-17.719-13.266-49.266-15.984-69.656-1.5938-11.812-3.2812-23.906-3.75-26.859-0.51562-3-1.4062-22.031-1.9688-42.375-0.9375-33.422-0.70312-38.859 2.9062-56.812 6.2812-31.406 12.516-42.609 30.656-54.938 12.656-8.5781 56.25-30.75 71.391-36.281 5.9531-2.1562 11.625-4.5469 12.609-5.25 0.98438-0.70312 5.8594-2.3438 10.828-3.6094s18.375-5.0156 29.766-8.2969c49.453-14.203 107.67-27.516 133.5-30.562 5.4375-0.65625 18-2.25 27.938-3.6094 46.734-6.3281 149.68-4.8281 185.81 2.6719 8.9531 1.875 21.094 4.3594 27.047 5.5781 17.484 3.5625 8.3438 3.9844-18.844 0.84375-30.844-3.5625-120.37-5.0625-157.08-2.6719-48.844 3.1875-87 9.5156-140.44 23.297-82.406 21.234-94.641 25.266-128.86 42.422-48.75 24.422-55.734 30.281-63.656 53.625-7.8281 23.062-10.312 41.297-9.0469 66.375 0.9375 18.516 3.7969 46.875 5.5312 55.031 0.23438 0.98438 0.98438 5.0625 1.7344 9 6.375 34.266 10.828 53.859 16.125 70.594 3.4219 10.781 8.3906 29.344 11.062 41.25 2.7188 11.906 5.5781 24.094 6.4219 27.047 0.84375 3 3.2344 14.344 5.3906 25.266 5.2969 27.047 10.125 44.25 15.047 53.531 2.25 4.2656 9.2344 20.766 15.516 36.562 6.2812 15.844 13.828 32.859 16.781 37.875 2.9531 5.0156 9.0469 16.031 13.5 24.422 6.9375 13.078 14.156 21.281 21.703 24.656 9.9844 4.4062 16.125 4.9688 34.453 3.0469l11.109-1.1719-9.9844-4.0781c-17.672-7.1719-25.688-14.531-37.266-34.219-4.0781-6.9375-8.4844-13.828-9.75-15.328-6.0469-7.125-12.047-22.266-17.109-43.031-5.3438-21.891-8.3906-32.156-20.156-67.781-2.9531-8.8594-6.5625-22.266-8.0625-29.766s-3.8906-19.312-5.2969-26.25c-8.0156-39.703-16.312-100.97-18.188-134.11-0.98437-17.578-0.84375-18.609 2.3438-18 3.7969 0.70313 5.5312 11.297 5.9062 36 0.28125 19.453 4.6406 42.422 12.703 66.516 3.7969 11.438 7.4531 23.625 8.1562 27.094 0.65625 3.4688 2.3438 11.203 3.75 17.156 2.7656 11.766 3.5625 15.891 6.3281 32.859 0.98438 6.1875 2.625 13.312 3.6094 15.891 1.3594 3.6094 10.781 35.484 17.297 58.594 0.42188 1.5 2.4375 9.6094 4.4531 18.047 5.0625 20.906 9.9844 33.141 18.703 46.266 4.0312 6.0938 10.172 15.703 13.641 21.328 6.2344 10.172 26.625 28.031 31.922 28.031 1.4062 0 2.0625 0.84375 1.4062 1.9219-0.79687 1.2656 0.84375 1.5938 4.875 0.89062 3.3281-0.5625 15.516-1.2188 27.094-1.4531l21.047-0.42188-1.0312-5.3906c-0.5625-3-2.0625-8.9531-3.3281-13.312-2.25-7.6406-2.1094-61.781 0.23438-77.812 4.7344-32.578 31.875-72.516 56.766-83.531 4.4531-1.9688 9.9844-5.0156 12.281-6.7969 5.9062-4.5938 29.906-12.141 43.266-13.547 8.9062-0.9375 11.25-1.8281 10.828-4.0312-0.28125-1.5469-3.0938-3.4688-6.1875-4.2656-8.4375-2.2031-13.031-14.438-25.125-66.75-2.6719-11.578-7.5-28.969-10.734-38.625-4.5469-13.547-5.5312-18.75-4.3594-22.875 2.5312-8.8594 16.312-28.453 23.203-32.953 9.1406-6 47.578-13.453 69.328-13.453 20.391 0 47.203 5.25 59.625 11.672 4.875 2.5312 9.8438 4.5938 11.062 4.5938s3.1875 1.2188 4.4062 2.7188c3.0938 3.7031 1.0781 3.4219-14.484-1.9688-28.781-10.031-57.047-11.953-91.125-6.1875-19.406 3.2812-26.109 5.5781-26.109 9.0469 0 5.6719 24.234 20.203 41.016 24.562 12.938 3.375 19.875 3.5156 36.469 0.70313 8.5312-1.4531 13.688-1.5938 14.859-0.42188 1.1719 1.1719 0.046876 2.2031-3.1406 3l-4.9219 1.2188 4.3125 2.9531c5.25 3.5625 6.7031 5.8125 11.766 18.047 3.5625 8.6719 3.6562 9.6562 0.9375 11.203-5.0625 2.9531 0.89062 2.2031 20.625-2.5781 24.328-5.9062 27.469-7.4062 26.438-12.891-0.9375-4.9688-4.0312-4.0781-4.0312 1.125 0 4.7812-7.2188 4.7344-8.4844 0-0.84375-3.2344-1.3125-3.0469-5.3906 1.7812-4.5938 5.4844-9.6094 7.0781-9.5625 3.0938 0-1.2188 2.4375-6.0938 5.4375-10.828 5.9531-9.4688 10.312-10.828 16.219-4.9688 4.5469 4.5469 4.5 4.3125-0.60938-9.4219-4.8281-12.844-4.5-15.844 1.6406-15.844 3.4219 0 5.3438 2.0156 9.0938 9.375 5.3438 10.547 12.281 33.75 10.594 35.484-0.60938 0.60938-3.7031 2.0156-6.8438 3.0469-4.6406 1.5938-6.1875 3.4688-8.0625 9.9375-9.3281 32.062-24.422 75.656-26.203 75.703-1.1719 0.046876 0.09375 1.2656 2.8125 2.7656 3.6094 1.9688 4.9688 4.0781 4.9688 7.7812 0 4.5469 1.2656 5.6719 11.297 9.9844 17.438 7.5469 19.969 8.8125 24.797 12.328 8.5781 6.1875 30.938 29.344 36.328 37.594 6.6562 10.219 22.594 45.516 27.938 62.062 5.8594 18.047 6.6562 23.438 6.7969 46.5l0.1875 24.844 4.5-0.84375c12.328-2.3438 34.828-2.8594 46.922-1.0781 7.4531 1.0781 22.031 2.4375 32.484 2.9531l18.938 0.98437 10.828-12.938c5.9531-7.125 15.281-16.359 20.719-20.531 11.297-8.6719 20.812-24.844 26.016-44.438 1.7344-6.4688 4.2188-15.797 5.5781-20.766 1.3594-4.9688 6.9844-27.281 12.469-49.594 12.281-49.641 15.469-76.734 15.469-130.64 0-38.297 0.89062-44.203 5.9531-39.141 3.5625 3.5625 3.8906 54.609 0.51563 82.547-6 49.781-8.2031 62.672-26.391 152.02-7.4531 36.609-11.203 46.359-20.625 53.25-2.625 1.9219-6.1406 4.7812-7.8281 6.3281-3.75 3.4688-18.141 22.688-19.359 25.875-0.46875 1.2656-3.0938 3.6562-5.8125 5.2969l-4.9219 3 8.1094 3.5156c4.4531 1.9219 9.0469 3 10.219 2.3906 2.3906-1.3125 26.344-28.688 33.328-38.109 10.922-14.766 17.906-34.688 22.453-63.75 1.5469-10.078 3.5625-21.188 4.4531-24.656 0.89062-3.4688 1.9688-8.3438 2.3906-10.828 0.42188-2.4844 3.7031-16.734 7.2188-31.734 3.5156-14.953 6.8906-30 7.5-33.375 0.60938-3.375 2.2969-13.078 3.7969-21.516s3.4688-21.844 4.4062-29.766 2.0156-16.5 2.3906-19.031 1.2656-11.438 1.9688-19.828c0.70313-8.3906 1.9688-19.031 2.8125-23.672 9-48.562 6.7031-97.312-5.9531-126.37-4.7344-10.828-29.812-36.516-49.922-51-8.25-5.9531-17.25-12.656-20.062-14.953-2.8125-2.25-9.4219-5.625-14.672-7.5-5.2969-1.875-16.125-6.6094-24.094-10.547-22.688-11.25-29.625-13.875-74.812-28.406-23.297-7.5-45.422-14.953-49.172-16.547-7.2656-3.0938-9.4219-7.125-2.7188-5.1562 2.25 0.65625 16.219 4.4062 31.125 8.2969 43.359 11.391 76.125 22.031 98.344 32.016 11.391 5.1094 26.016 11.25 32.484 13.641 6.4688 2.3906 15.422 6.9375 19.828 10.078 4.4531 3.1406 13.594 9.375 20.297 13.781 16.688 11.016 50.203 44.531 54.844 54.891 2.0156 4.4531 5.1562 14.203 7.0312 21.656 4.5938 18.281 4.6875 66.328 0.09375 94.688-1.7344 10.922-3.5625 22.688-4.0312 26.156s-1.2188 8.7656-1.6875 11.719c-0.46875 3-1.2656 9.4688-1.7812 14.438-1.9688 18.797-4.3125 35.391-7.4062 52.312-2.8594 15.469-3.5625 18.516-15.938 69.469-4.4531 18.375-9.8438 42.703-12 54.141-2.1562 11.391-4.5469 22.359-5.3438 24.375-0.79688 1.9688-2.8594 8.0156-4.5938 13.406-3.7969 12.094-12.984 27.984-22.5 38.953-3.9375 4.5469-7.1719 8.8125-7.1719 9.5156 0 0.70312-4.4062 6.0938-9.75 12.047l-9.75 10.828 12.141 11.719c26.812 25.969 33.422 36.422 44.531 70.359 2.4375 7.4531 5.2031 14.906 6.1406 16.641 1.7812 3.1875 5.8594 17.297 17.953 61.828 3.75 13.875 8.4375 30.141 10.453 36.094 1.9688 5.9531 7.125 21.562 11.391 34.734 7.5 22.969 7.9688 23.906 12.75 23.906 6.4688 0 10.219 3.9375 11.578 12.234 0.60938 3.7031 2.2031 12 3.5625 18.422 3 14.25 3.2812 23.156 1.7812 60.422-1.2188 30.141-4.7344 49.359-12 65.484-2.1094 4.6406-5.25 11.719-7.0312 15.703-1.7812 3.9844-6.1406 14.344-9.7031 23.016-3.8438 9.4688-10.641 21.281-16.828 29.438-5.7188 7.5-13.734 18.656-17.812 24.797-11.719 17.531-18.375 22.688-49.828 38.531-29.484 14.859-48.141 21.984-67.547 25.828-5.7656 1.125-16.172 3.1875-23.109 4.5469-13.641 2.6719-67.828 8.4375-112.73 11.953-32.812 2.5781-80.391 3.1406-98.297 1.1719zm-129.1-562.6c41.766-10.828 102.8-10.781 164.26 0 11.391 2.0156 20.906 3.6562 21.141 3.6562 0.98438 0.046876 5.8125-19.828 6.8438-27.938 0.60938-4.9688 1.4531-10.828 1.9219-13.078 0.79688-3.7969 0.23438-4.0781-8.8125-4.0781-5.2969 0-15.703-1.5469-23.109-3.4219-16.125-4.125-26.062-5.3438-47.578-5.8594-32.578-0.79687-113.58 6.1406-138 11.812-9.4219 2.2031-9.8906 2.5312-9.2812 7.4531 0.5625 4.7812 9.8438 31.594 12.234 35.484 0.5625 0.9375 2.3438 1.1719 3.9375 0.5625 1.5938-0.60937 9-2.6719 16.5-4.6406zm-9.4688-48.656c52.922-11.062 149.34-15.328 181.82-8.0156 5.9531 1.3594 13.547 2.9531 16.922 3.6562l6.0938 1.2188-0.9375-24.094c-0.75-19.219-1.7344-26.109-4.9219-34.031-2.2031-5.4375-6.0469-14.953-8.4844-21.141-3.1875-7.9219-6.8438-13.219-12.516-18.047-4.4062-3.75-11.438-10.172-15.609-14.203s-9.7031-8.7188-12.234-10.359c-12.516-8.1094-48.234-15.562-74.906-15.609-34.125-0.09375-71.016 17.531-81.984 39.141-1.4062 2.7656-4.3125 7.4531-6.4688 10.406-8.4375 11.672-15.75 30.422-16.594 42.375-0.65625 9.4688 1.4531 33.516 4.3125 48.703 0.28125 1.5 0.5625 3.4219 0.65625 4.2656s1.9688 1.0312 4.2188 0.375 11.531-2.7656 20.672-4.6875zm97.219-206.06c-0.5625-5.2031-1.875-20.859-2.8594-34.734s-2.2969-30.328-2.9062-36.516c-0.98438-9.7969-0.75-11.297 1.9219-11.297 2.2031 0 2.7188-0.98438 1.9219-3.5156-1.1719-3.75 2.3438-12 9-20.906l4.0781-5.4844-11.062 0.65625c-6.0938 0.375-15.75-0.09375-21.469-0.98438-11.344-1.8281-11.859-1.3125-7.5 7.0781 1.5938 3.0469 3.9844 8.6719 5.3438 12.516 2.3906 6.7969 2.3438 7.0312-1.5 6.9844-3.0469 0-5.5312-2.8594-10.641-12.188-11.25-20.625-10.969-20.391-17.016-11.672-2.8594 4.125-6.1875 7.5-7.4531 7.5469-4.0781 0.14062-2.3438-6.6562 3.1875-12.609 3-3.2344 5.25-6.0469 4.9688-6.3281-1.2188-1.1719-21-11.672-21.984-11.672-0.60938 0-1.0781 1.125-1.0781 2.5312s-2.8594 5.0156-6.2812 8.0625c-5.7188 5.0156-6.0938 5.9531-4.2188 10.125 1.3125 2.8594 3.5625 4.5938 6.0469 4.5938 2.2031 0 7.0312 2.0625 10.781 4.6406 3.75 2.5312 14.812 7.9219 24.609 11.953 10.969 4.5 17.766 8.3438 17.766 9.9375 0 2.0625-1.5469 2.3438-7.2188 1.4062-5.4375-0.9375-6.9375 2.5781-4.5469 10.453 3.4219 11.297 8.1562 45.375 8.1562 58.828 0 7.5469 0.84375 11.25 2.9531 13.031 3.0938 2.5781 16.5 6.4219 23.812 6.75 4.0312 0.1875 4.1719-0.1875 3.1875-9.2344zm27.469 5.625c2.2969-0.84375 6.8906-1.5469 10.266-1.5469 8.2969 0 16.922-3.3281 13.734-5.2969-2.625-1.6406-1.5-9.5625 2.6719-19.078 1.3125-3 5.2969-13.922 8.8594-24.375 3.5625-10.406 8.0625-22.922 10.031-27.797 1.9219-4.875 3.3281-9.0469 3.0469-9.2812-0.98438-0.89062-23.578 4.4531-25.031 5.9062-0.84375 0.84375-3.5156 12.047-5.8594 24.938-6.6094 35.766-7.6406 38.719-13.031 38.719-3.6094 0-4.3594-0.70312-3.5156-3.3281 2.3438-7.4062 11.062-51.984 10.969-56.203-0.09375-4.4062-0.42188-4.5469-17.203-5.4375-9.4219-0.51562-17.344-0.84375-17.578-0.75s0.375 8.25 1.3594 18.094 2.1562 28.453 2.5781 41.344c0.42188 12.891 0.79688 24.516 0.89062 25.781 0.14062 2.4375 9.0469 1.5938 17.859-1.6875zm-65.344-14.625c-2.7188-25.031-6.8438-49.828-10.266-61.359-3.4688-11.766-3.8906-12.328-12.984-16.875-5.1562-2.5781-11.672-6.8438-14.484-9.4688l-5.1094-4.7812 3.9375 9.9375c7.4531 18.703 12.422 34.453 16.031 51.047 2.0156 9.1406 4.5 19.453 5.5781 22.922s2.3438 8.3438 2.8594 10.828c1.3125 6.4688 2.0156 6.9375 14.016 8.7656 0.89062 0.14062 1.0312-4.7812 0.375-11.016zm69.094-79.125c-2.9062-3.0938-6.6562-7.9688-8.3438-10.828-1.6875-2.8594-3.7031-5.2031-4.5-5.2031-1.9219 0-12.188 16.266-12.188 19.312 0 1.7344 3.8906 2.3438 15.141 2.3438h15.141zm-473.39 626.06c-2.0156-3.2812-2.4844-17.719-0.79688-23.672 1.9219-6.75 4.4062-8.6719 11.25-8.7188 4.2188 0 4.875 0.60937 4.1719 4.0312-2.3438 11.297-2.9531 24.797-1.1719 24.797 1.0781 0 1.9219 1.2188 1.9219 2.7188 0 3.1875-13.453 3.9375-15.375 0.84375zm31.828-6.4219c-2.1094-2.6719-3.7969-5.5312-3.7969-6.375 0-2.7656 8.7656-7.3125 12.938-6.7031 3.6094 0.51563 4.125 1.6406 4.125 8.7188 0 7.4062-0.42188 8.1562-4.7344 8.6719-3.375 0.375-5.8125-0.84375-8.5312-4.3125zm261.79-571.26c-0.98438-1.2188-1.6406-7.3125-1.4531-13.5 0.32812-10.172-0.23438-12.094-5.6719-19.781-7.6875-10.828-14.344-17.25-21.75-21.094-9.1406-4.6875-7.2188-7.7344 4.3594-6.75 4.7812 0.375 15.141-11.625 19.547-22.688 5.0156-12.516 13.5-12.703 13.5-0.32812 0 14.062 9.2344 23.25 23.391 23.25 3.6562 0 5.4844 0.89062 5.4844 2.7188 0 1.5-1.4531 2.7188-3.1875 2.7188-5.25 0-16.219 10.359-18.562 17.531-2.6719 8.1094-2.9531 10.453-3.2344 27.094l-0.23438 13.078h-5.2031c-2.8594 0-6-1.0312-6.9844-2.25zm2.9531-49.781c2.9062 0.32812 7.0781-1.0781 10.219-3.4219 3.6094-2.6719 4.3594-3.9844 2.3906-3.9844-1.5938-0.046875-5.9531-2.1562-9.7031-4.6875l-6.7969-4.6406-5.625 5.0625c-3.0938 2.7656-5.9531 5.2969-6.375 5.5312-0.42188 0.28125 1.5938 2.9531 4.5 6 4.2188 4.4062 5.3906 4.9219 5.9062 2.5781 0.42188-2.0156 2.1562-2.8125 5.5312-2.4375zm289.82 11.297c-1.7344-1.7344-2.8125-5.9531-2.8125-10.828 0-4.4062-0.75-9.4219-1.6406-11.156s-2.6719-5.8594-3.9375-9.2344c-1.2656-3.3281-6.6094-10.312-11.859-15.469-5.2969-5.1562-9.6094-10.031-9.6094-10.828 0-1.5938 13.453-0.32812 18.375 1.6875 3.75 1.5469 8.1094-4.6406 12.516-17.766 2.5781-7.5938 3.8906-9.2344 7.3125-9.2344 3.7969 0 4.125 0.70312 3.6094 7.6875-1.125 15.047 6.1406 25.688 17.531 25.688 5.8594 0 6.0938 3.2344 0.28125 4.5-13.406 2.9531-19.922 13.781-19.922 33.141 0 9.75-0.60938 12.75-2.8594 13.594-3.7969 1.4531-3.7031 1.5-6.9375-1.7344zm9.9844-50.672c-3.9375-3.2812-5.1094-3.5156-7.4062-1.5469-1.5 1.3125-4.125 2.6719-5.8125 3-2.7656 0.5625-2.5781 1.3594 1.5 6.5156l4.6406 5.9062 11.812-10.031-4.6875-3.8906zm210.14-18.375c-0.51562-0.84375-1.5-5.1094-2.1562-9.4688-2.1562-13.969-7.9219-23.391-25.734-42.234-11.531-12.188-21.609-20.484-30.891-25.5-3.4688-1.875-10.125-6.0469-14.719-9.2344-12.281-8.4844-40.781-22.781-55.969-28.078-7.2188-2.5312-18.047-6.75-24-9.375-20.203-8.9531-31.078-12.797-42.375-15.141-4.4531-0.89062-14.25-3.3281-21.797-5.3906-7.5-2.0625-24.141-5.0156-36.984-6.5625-12.844-1.5938-29.016-4.0312-35.953-5.4375-41.438-8.4844-145.64-7.3125-228.19 2.625-8.4375 1.0312-22.641 2.6719-31.547 3.7031-36.469 4.1719-72.375 13.781-93.797 25.125-6.9375 3.6562-16.547 8.1562-21.375 9.9844-13.359 5.0156-20.25 12.281-29.109 30.609-8.9062 18.469-11.25 26.672-13.125 46.172-0.98438 10.266-1.9688 13.547-3.9844 13.547-2.1562 0-2.8125-3.3281-3.2344-17.156-0.60938-20.016 1.0312-27.797 9.6094-45.422 3.4688-7.125 6.2812-13.641 6.2812-14.484 0-3.8438 10.078-11.906 23.203-18.562 33.703-17.109 62.859-27.984 87.375-32.531 15.984-3 21.422-3.6094 74.297-8.7656 91.641-8.9531 89.391-8.8594 150.37-7.7344 42.75 0.75 62.812 1.8281 73.172 3.8906 7.8281 1.5469 25.312 4.125 38.766 5.6719 39.703 4.5938 73.969 13.219 110.2 27.797 10.406 4.1719 23.391 9.0938 28.875 10.969 11.297 3.7969 53.156 25.453 58.641 30.375 1.9688 1.7812 8.7188 6.3281 15 10.125 14.062 8.5312 34.172 29.859 40.688 43.172 3.5156 7.1719 5.2031 14.062 6 24.422 1.0781 13.781 0.9375 14.438-2.6719 14.438-2.0625 0-4.1719-0.70312-4.7344-1.5469zm-462.89-15.516c0-1.4062 0.75-4.5469 1.6875-6.9844 1.4062-3.7031 1.0312-4.6875-2.4844-6.2812-2.7188-1.2656-4.5469-4.0781-5.3438-8.2969-0.65625-3.5156-3.2344-8.8594-5.7656-11.812-5.25-6.2344-4.2656-9.4688 2.625-9.0469 7.9219 0.51562 8.3906 0.23438 13.688-8.2031 4.0312-6.4219 6.1875-8.1094 10.078-8.1094 4.875 0 4.9219 0.09375 3.1406 7.1719-2.6719 10.594-0.65625 16.031 7.2188 19.359l6.7031 2.8125-5.5312 2.625c-6.0469 2.9062-14.109 14.766-16.078 23.672-0.98437 4.4531-2.2031 5.6719-5.625 5.6719-2.5781 0-4.3594-1.0312-4.3594-2.5781zm11.062-33.234c-2.0625-2.0625-4.9688-3.3281-6.4219-2.7656-2.2969 0.89062-2.25 1.8281 0.32812 7.2188 2.9062 6.0938 3 6.1406 6.4219 2.7656 3.4219-3.4219 3.375-3.5156-0.32813-7.2188z"/>
</svg>
