<?xml version="1.0" encoding="UTF-8"?>
<svg width="1200pt" height="1200pt" version="1.1" viewBox="0 0 1200 1200" xmlns="http://www.w3.org/2000/svg">
 <path d="m318.83 771.17c18.145 15.168 37.043 29.977 56.207 44.004l-7.0938 9.6836c-19.367-14.184-38.484-29.148-56.82-44.484l7.7031-9.2148zm-133.46-142.5-9.9961 6.6367c26.496 39.926 63.48 81.254 109.91 122.82l8.0039-8.9414c-45.672-40.895-81.984-81.445-107.91-120.52zm834.5-156c-23.941-21.551-54.469-33.887-85.957-34.727l-0.3125 12c28.633 0.75781 56.426 12 78.254 31.645l8.0273-8.9141zm35.34 179.95 11.629 2.9766c4.2617-16.598 6.4219-32.797 6.4219-48.168 0-43.453-11.316-82.078-32.734-111.7l-9.7305 7.0312c19.934 27.551 30.457 63.742 30.457 104.66 0 14.363-2.0273 29.555-6.0352 45.191zm5.0039 373.18h76.199v12h-68.914l-3.7578 3.7695v68.438h-12v-75.707l-35.195-34.992v63.77h-12v-75.707l-35.207-35.004v63.781h-12v-75.707l-10.727-10.656c-95.113 81.898-191.22 134.58-199.14 138.86l-2.8555 1.5352-2.8555-1.5352c-8.3516-4.5117-114.73-62.855-214.63-152.51-40.441 26.438-68.605 41.734-68.891 41.891l-2.8555 1.5352-2.8555-1.5352c-16.02-8.6641-392.53-215.02-392.53-461.26 0-104.57 52.934-189.84 138.13-222.54 24.926-9.5625 50.496-13.922 75.684-13.391l-146.07-145.23v63.781h-12v-84.219h84.672v12h-64.141l155.93 155.03c48 5.6289 93.637 29.102 129.36 68.785 8.8555 9.8164 20.867 15.215 33.84 15.215 12.973 0 24.984-5.3984 33.84-15.227 49.777-55.355 121.12-80.125 190.85-66.191 69.48 13.859 126.16 63.266 153.01 132.68 51.348-29.172 111.76-34.535 168.79-12.648 85.199 32.711 138.12 118 138.12 222.57 0 120.59-90.301 231.53-184.33 314.45l10.141 10.078h76.199v12h-64.129l35.125 34.934h76.199v12h-64.129l35.125 34.934zm-542.27-118.01c-88.152-81.203-168.7-186.49-168.7-300.37 0-104.58 52.922-189.86 138.12-222.57 78.996-30.336 164.58-8.5938 223.39 56.711 8.8555 9.8398 20.891 15.254 33.863 15.254s25.008-5.4258 33.863-15.254c13.441-14.93 28.344-27.469 44.184-37.738-25.043-66.613-78.875-114.06-144.95-127.23-65.508-13.094-132.65 10.273-179.58 62.461-11.004 12.203-26.578 19.188-42.758 19.188-16.176 0-31.754-6.9961-42.742-19.188-55.414-61.559-135.96-82.094-210.21-53.594-80.461 30.875-130.43 111.85-130.43 211.33 0 228.17 348.09 429.31 383.4 449.11 7.8359-4.3789 31.285-17.773 62.543-38.102zm419.59 12.949-195.94-194.81 8.4609-8.5078 196.55 195.42c92.496-81.527 181.39-189.89 181.39-305.44 0-99.504-49.98-180.49-130.41-211.37-74.258-28.512-154.78-8.0039-210.18 53.531-11.004 12.227-26.594 19.234-42.781 19.234s-31.777-7.0078-42.781-19.234c-38.891-43.188-90.168-66.168-142.96-66.168-22.414 0-45.086 4.1406-67.223 12.637-80.449 30.887-130.41 111.88-130.41 211.37 0 228.13 348.07 429.29 383.38 449.09 16.859-9.4336 105.24-60.312 192.9-135.77zm-43.152-609.52h12v-49.309h49.621v-12h-49.621v-49.309h-12v49.309h-49.621v12h49.621zm-489.5-110.62h12v-49.297h49.621v-12h-49.621v-49.309h-12v49.309h-49.633v12h49.633z"/>
</svg>
