<?xml version="1.0" encoding="UTF-8"?>
<svg width="1200pt" height="1200pt" version="1.1" viewBox="0 0 1200 1200" xmlns="http://www.w3.org/2000/svg">
 <path d="m688.78 224.72c3.1328-0.16797 5.5312-2.6172 7.5469-4.7031 1.8242-2.4375 3.7305-4.5 4.4141-8.7344 0.48047-3.4336 0.046875-6.8047-1.2344-10.094-1.3906-3.2656-3.2891-6.457-7.7773-8.7617-3.3359-1.5859-7.668-2.0273-11.461-0.74219-3.793 1.2461-6.5625 3.7578-8.4375 6.3242-3.6953 5.2578-5.1133 11.062-4.6211 16.871 3.8633-4.2461 7.3203-8.2305 10.957-10.766 1.7891-1.2461 3.5156-2.0156 4.8828-2.1719 1.332-0.14453 2.6523 0.023438 4.1055 0.75781 0.32422 0.10938 1.8477 1.4297 2.6523 2.9531 0.97266 1.5586 1.7031 3.5273 2.0742 5.4375 0.43359 1.1289 0.058594 4.0664-0.45703 6.3594-0.53516 2.4844-0.95312 4.9922-2.6445 7.2695z"/>
 <path d="m680.52 146.91c-4.3438 0.25391-8.7461 1.7148-12.48 3.5742-3.8164 1.8945-7.3203 4.2852-10.402 7.1641-3.1562 2.8789-5.5547 6.3945-7.6211 9.9375-2.0039 3.6016-3.7305 7.3906-4.5859 11.438-0.88672 3.9609-1.0195 8.4609 1.1641 11.965-1.7383-3.7188-1.0938-7.9219 0.16797-11.594 1.3203-3.7188 3.168-7.2344 5.3867-10.477 4.332-6.6484 10.559-11.484 17.746-14.27 3.625-1.3906 7.0938-2.2305 10.848-2.1484 3.8633 0 7.7539 0.25391 11.629 0.78125 7.7148 1.0312 15.289 3.0977 22.668 5.7227 14.93 5.1719 28.441 13.02 42.348 21.312 6.9102 4.0195 13.609 8.0625 19.246 12.938 3.0234 2.6172 5.6289 5.5078 7.7383 8.6406-2.9883-0.085938-5.9531 0.070312-8.8203 0.42187-6.3594 0.79297-12.395 2.3867-18.227 4.332-5.8438 1.9688-11.426 4.2852-16.957 6.9844-5.6055 2.7227-10.801 5.9648-15.828 9.2383-9.9609 6.6016-19.355 13.547-29.125 18.395-9.8047 4.5117-21.098 6.7188-32.137 6.7578-5.5195-0.023438-11.039-0.52734-16.273-1.8945-1.3086-0.32422-2.5781-0.73047-3.8398-1.1758l-1.7773-0.67188-1.9062-0.83984c-2.543-1.2227-5.0273-2.5195-7.3789-3.9609-4.7148-2.8438-8.9023-6.3594-12.133-10.512-3.3359-4.332-5.543-9.2031-6.707-14.605-1.1641-5.3867-1.3906-11.195-1.6797-17.016-0.23828-5.7969 0.23828-11.207 1.6445-17.027 0.27734-1.4297 0.5625-2.8555 1.0312-3.7305 0.55078-0.79297 0.91016-1.0781 2.4727-0.99609 2.6992 0.13281 5.4258 0.98438 8.0039 2.2188 5.1953 2.4492 9.9102 6.0703 14.363 9.8867-4.0078-4.2734-8.2422-8.5078-13.465-11.605-2.6055-1.5234-5.4961-2.7461-8.6641-3.1797-1.3086-0.39453-4.2852 0.14453-5.2695 2.0039-1.0781 1.6445-1.3672 3.168-1.8125 4.5703-1.8594 5.4961-3.0234 11.855-3.2266 17.82-0.25391 5.9141-0.46875 11.953 0.49219 18.168 0.88672 6.1797 3.2773 12.445 6.8281 17.664 2.0273 3.0469 4.4766 5.6992 7.1172 8.0898-2.7461 10.68-1.9336 22.188-0.33594 33.047 0.97266 6.1328 2.293 12.18 3.625 18.18 1.3555 5.9297 2.6875 11.93 4.5469 18.023 1.8242 6.0469 4.0781 12.059 7.2852 17.785 3.1914 5.6992 7.2461 11.352 13.211 15.613 0.74219 0.51563 1.5234 1.0312 2.3164 1.4883l0.61328 0.34766 0.73047 0.38281 1.043 0.50391c0.60156 0.30078 1.8242 0.74219 2.7461 1.0781 0.57422 0.16797 1.1289 0.30078 1.6914 0.45703-2.3516 4.8125-4.0547 9.8398-5.4727 14.902-1.8477 6.8633-3.0117 13.895-3.457 21.012-0.45703 7.1172-0.17969 14.316 1.043 21.445 1.3086 7.0781 3.457 14.195 7.6094 20.293l1.2461-20.82 1.3203-20.219c0.66016-11.797 1.3555-23.641 0.73047-36.059 3.3125 0.40625 6.7812 0.14453 9.8867-0.86328 7.5352-2.4258 12.805-7.4648 17.148-12.457 8.5664-10.262 13.297-22.211 19.234-32.219 5.7969-10.5 12.539-20.578 18.973-30.984 6.5508-10.453 12.781-20.688 19.535-30.938 3.2539-5.1836 6.5898-10.379 9.5273-15.805 1.5117-2.6406 2.9414-5.3398 4.7031-7.7383 0.12109-0.15625 0.23828-0.32422 0.34766-0.48047h0.011719c10.488-3.6016 21.84-5.9648 31.246-3.2773l9.6953 2.7617-2.9531-9.5898c-2.7617-8.9648-8.8672-16.391-15.574-21.816-6.7305-5.5078-14.051-9.6016-21.156-13.488-13.906-7.8828-28.895-15.469-44.723-20.23-7.9336-2.3633-16.141-4.0078-24.445-4.6211-4.1875-0.28516-8.3633-0.32031-12.527-0.035157zm72.734 76.812c-3.6836 4.8477-7.5 9.5625-11.387 14.281-3.8281 4.7656-7.6797 9.5273-11.449 14.449-3.7578 4.8945-7.2461 9.8867-10.883 14.797-7.2734 9.8164-14.293 19.945-20.891 30.504-3.2891 5.2305-6.2656 11.074-9.0586 16.105-2.8672 5.1484-6.0234 10.043-9.6016 14.293-3.5156 4.2461-7.6211 7.8594-11.832 9.2148-4.2617 1.4023-8.2695 0.51562-12.742-2.2695-8.4609-5.5312-13.934-16.656-18.215-27.445-2.1484-5.4609-3.7422-11.34-5.7344-17.16-1.9062-5.7852-3.7422-11.543-5.3164-17.375-2.8086-10.164-4.9453-20.617-4.3203-31.273 1.8828 1.6328 3.8164 3.168 5.8438 4.5234 2.6172 1.7539 5.2812 3.2773 7.9805 4.7148l2.0898 1.0312c0.75781 0.33594 1.5586 0.71875 2.3047 0.99609 1.4766 0.60156 3 1.1523 4.5234 1.6094 6.0977 1.8477 12.348 2.7734 18.602 2.9141 12.445 0.25391 24.863-1.7539 36.613-6.7578 11.531-5.3047 21.059-12.602 30.781-18.793 4.8477-3.1211 9.6953-6.0469 14.699-8.4258 4.0078-1.8828 8.1602-3.6016 12.324-5.1719-1.5273 1.7227-2.9297 3.5-4.332 5.2383z"/>
 <path d="m471.64 213.6c9.6133-8.375 22.234-13.754 36.227-14.184-13.453-4.2969-29.328-1.2109-41.543 7.2344-6.2266 4.0938-11.496 9.7812-15.602 16.02-3.793 6.0977-7.7891 12.73-8.3516 21.805-0.011719 2.3398 0.25391 4.5469 1.1641 7.1641 0.17969 0.53906 0.98438 2.3633 1.6211 3.3125 0.70703 1.1172 1.6094 2.1836 2.6289 3.1094 4.3086 3.8047 9.6484 4.332 13.715 3.9844 4.1758-0.39453 8.0156-1.6094 11.398-3 3.4922-1.4023 6.7812-3.0703 9.9609-5.2578 3.1211-2.1602 6.2148-4.7148 8.5078-8.1484 0.5625-0.85156 1.0781-1.7656 1.5352-2.7109 0.30078-0.625 0.35937-0.85156 0.5625-1.3086l0.55078-1.5469c0.5625-2.0039 1.0078-4.3438 0.27734-6.8281-0.70703-2.5078-2.8086-4.4648-4.8477-5.2188-2.0625-0.79297-4.0938-0.9375-6-0.70703-3.8047 0.43359-7.1875 2.125-9.8047 4.4531 3.2266-1.3203 6.6836-1.7773 9.7812-1.332 3.168 0.38281 5.7109 2.207 5.4727 4.0078 0.13281 1.8008-1.4766 4.7773-3.3711 6.6719-1.9805 2.0039-4.4297 3.7578-7.2109 5.1484-5.5078 2.5781-12.059 5.0898-17.461 5.1602-2.7109 0.058593-4.8125-0.51563-5.6758-1.4766-0.25391-0.25391-0.46875-0.51562-0.67188-0.85156-0.25391-0.52734-0.19141-0.27734-0.57422-1.3672-0.17969-0.66016-0.38281-1.9062-0.33594-3.0234 0.011718-4.8711 2.9141-10.859 6.1562-16.465 3.0352-5.6094 7.1484-10.363 11.891-14.645z"/>
 <path d="m430.26 190.6c-3.0977 3.6484-6.5039 7.3555-8.2812 12.156-1.5977 4.6562-1.5977 9.6484-4.5859 13.535 3.457-3.5273 4.1523-8.7852 6.168-12.898 1.957-4.1172 5.4609-7.4141 8.8672-10.738 6.7422-6.6602 14.461-12.086 22.992-15.695 8.4492-3.6719 17.605-5.6992 26.734-6 9.0703-0.32422 18.348 0.9375 26.398 4.2734 3.875 1.5703 7.1523 4.2109 8.3281 6.7695 0.16797 0.30078 0.44531 1.0312 0.66016 1.5234-0.10938-0.070313 0.16797 0.52734 0.17969 0.85156 0.15625 0.79297 0.25391 1.7148 0.27734 2.8086l0.13281 3.6484c0.058594 0.73047 0.12109 1.6797 0.20313 2.1953l0.13281 0.88672 0.23828 1.2617c0.34766 1.4414 0.81641 3.4062 2.5938 5.4727 1.9219 2.0508 3.9961 2.6758 5.1133 3.1211 2.375 0.82812 3.9961 1.5 5.6406 2.4961 3.2539 2.0039 5.7344 4.9453 6.3594 7.7656 0.63672 2.2695-0.34766 6.707-2.1719 10.066-1.7891 3.4922-4.5977 6.8867-7.4531 9-6.6367 4.9922-17.258 8.0742-24.469 18.406-3.4219 5.4844-3.9844 11.016-5.2578 14.879-0.3125 0.98438-0.625 1.8945-0.99609 2.6992-0.19141 0.48047-0.33594 0.64844-0.48047 0.99609l-0.78516 1.2422c-1.1406 1.5977-2.4258 3-3.8516 4.1523-5.6289 4.7891-14.184 4.8711-22.586 2.6055-4.2344-1.1172-8.3984-2.7617-12.551-4.7383-2.3633-1.1523-5.4375-2.3281-8.7461-2.4844-3.3477-0.22656-6.4922 0.63672-8.9531 1.5-2.4375 0.875-4.6328 1.7656-6.5742 2.3867l-1.6797 0.50391-1.2227 0.28906c-0.81641 0.13281-1.6211 0.21484-2.4258 0.16797-3.1914-0.12109-6.3711-2.0742-8.6289-5.1719-0.58984-0.76953-1.0547-1.5977-1.4648-2.3047-0.55078-1.1641-0.86328-1.8594-1.2344-2.9297-0.69531-1.957-1.1523-4.0195-1.4297-6.1211-0.52734-4.2344-0.19141-8.6641 0.67188-13.043 1.8008-8.7617 5.8789-17.242 11.52-24.48 5.7227-7.5234 12.07-14.605 18.938-21.203 3.3828-3.2656 7.1641-5.8906 11.461-8.0898 4.2852-2.2422 8.1836-5.1367 12.781-6.5156-4.7656 0.83984-9.0859 3.2891-13.5 4.9922-4.4414 1.7539-8.8906 4.2734-12.695 7.3672-7.5234 6.0703-14.652 12.719-21.203 19.934-6.6836 7.4414-11.734 16.414-14.449 26.293-2.6055 9.8281-2.7969 21.191 3.4219 31.105 3.1211 4.7656 8.4961 8.9023 15.012 9.5273 1.5977 0.16797 3.1914 0.10938 4.7383-0.10938 0.75781-0.15625 1.5352-0.26562 2.293-0.48047l1.7773-0.49219c2.6406-0.76953 4.9219-1.6328 7.0195-2.3164 4.1875-1.332 6.2031-1.1172 10.066 0.85156 4.4414 2.2695 9.1797 4.3086 14.184 5.7852 5.0156 1.4766 10.414 2.375 16.094 1.9336 5.6406-0.38281 11.578-2.4609 16.211-6.1914 2.3281-1.8359 4.3203-3.9844 5.9883-6.2773 0.625-0.96094 0.69531-1.0312 1.1641-1.8008 0.40625-0.71875 0.89844-1.5703 1.1641-2.207 0.64844-1.3672 1.1406-2.7227 1.5469-4.0195 1.5977-5.2305 2.293-9.5039 4.1523-12.191 0.74219-1.2109 2.2812-2.832 3.7188-4.0781 1.5117-1.3203 3.2383-2.5195 5.125-3.6953 3.7422-2.3633 8.2188-4.5703 12.562-7.7539 4.7891-3.6836 8.1016-7.9922 10.703-13.008 1.2617-2.4961 2.2812-5.1719 2.8906-8.0625 0.14453-0.73047 0.28906-1.4414 0.37109-2.1953 0.058593-0.50391 0.070312-0.46875 0.15625-1.4023l0.011718-0.89844c0.046875-0.43359-0.035156-1.6797-0.12109-2.5664-0.12109-0.91016-0.27734-1.6914-0.49219-2.5078-1.8359-6.5625-6.5273-11.039-11.438-13.922-2.4844-1.4648-5.3633-2.4961-7.5352-3.1797-0.70703-0.22656-1.043-0.38281-1.1523-0.43359-0.085937-0.16797-0.20312-0.48047-0.30078-0.92578l-0.12109-0.50391-0.15625-0.88672c-0.12109-0.66016-0.085938-0.91016-0.15625-1.3789l-0.22656-3.5391c-0.085938-1.2852-0.23828-2.7617-0.57422-4.3203-0.20312-0.86328-0.37109-1.3789-0.81641-2.6055-0.27734-0.58984-0.43359-0.98438-0.83984-1.7383-3.3242-6.0703-8.6523-8.9766-13.598-10.883-19.766-6.8867-41.074-4.0781-58.777 4.9062-8.8047 4.6836-16.508 11.234-22.781 18.629z"/>
 <path d="m537.13 305.91c-2.0391-4.6328-3.4688-9.3125-4.8945-15.109-3.2266 4.8945-4.2461 11.258-3.6836 17.137 0.57422 5.9531 2.4375 11.426 4.4141 16.402 1.8359 4.8242 4.4648 10.188 7.1289 14.578 2.6523 4.5859 5.3047 8.6523 7.1289 14.23 2.9883-5.3164 2.3164-11.953 1.1289-17.398-1.3906-5.6641-2.9023-10.297-4.957-15.59-2.0195-5.0664-4.3086-9.6523-6.2656-14.25z"/>
 <path d="m589.41 126.77c-2.8203-1.4023-5.3516-1.8828-8.4609-0.80469-1.5 0.57422-3.0859 1.7539-4.1992 3.3594-1.1406 1.7539-1.6562 3.1797-1.8594 5.4609-0.27734 4.2227 2.4961 8.0742 5.8672 9.3594 1.6914 0.71875 3.6953 0.78125 5.3867 0.23828 1.6914-0.66016 2.9883-1.9062 3.2539-3.5391-3.1914-0.99609-3.4219-2.9141-3.5391-3.9258-0.14453-1.1992 0.22656-1.5703 0.27734-1.7031 0.14453-0.34766-0.37109-0.78125 0.035156-2.125 0.42188-1.4727 2.0273-3.3828 3.2383-6.3203z"/>
 <path d="m606.29 146.45c-0.81641 0.86328-1.7266 1.957-2.4492 3l-1.7266 2.4844c-1.0781 1.6211-2.1953 3.0586-3.2539 4.332-2.1602 2.6172-4.2617 3.9492-7.2344 4.5859-2.9648 0.50391-6.7305-0.046874-10.297-1.2227-1.7891-0.52734-3.4688-1.332-4.957-2.3867-0.75781-0.52734-1.3906-1.1758-1.957-1.9453-0.50391-0.81641-1.1641-1.6562-0.96094-2.7344-1.2969 1.9688-0.61328 4.5977 0.50391 6.6602 1.1641 2.1133 2.8906 3.7695 4.6914 5.2422 3.6719 2.6758 8.0039 4.9062 13.332 5.1602 5.3867 0.49219 11.016-2.543 14.484-5.9023 1.8242-1.6914 3.2539-3.5039 4.6094-5.2188l1.8828-2.5547c0.45703-0.64844 0.88672-1.1406 1.4766-1.7539 2.293-2.5078 5.7852-5.0156 8.9141-9.1094 1.5234-2.0508 3.0234-4.7266 3.5039-7.8594 0.12109-0.76953 0.17969-1.5117 0.17969-2.4844 0-0.49219-0.046875-0.57422-0.058594-0.88672-0.035156-0.625-0.097656-0.74219-0.15625-1.1406-0.25391-1.332-0.625-2.6523-1.1523-3.9102-2.0742-5.1719-6.7305-8.6523-11.352-9.8516-4.6914-1.1758-9.5273-0.51562-13.211 1.7539 8.543 0.035157 15.48 5.1953 16.246 10.836 0.34766 3.3242-0.023437 4.4766-2.2305 6.8281-2.0977 2.2812-5.4219 4.5977-8.8281 8.0781z"/>
 <path d="m583.03 108.27c-2.9297-0.22656-6.4219 0.51562-8.9648 1.4141-2.9648 1.0547-5.6758 2.5195-8.2305 4.8828-2.543 2.3164-4.4141 5.6523-5.1953 8.9648-0.40625 1.6562-0.625 3.2773-0.73047 4.8711-0.097656 1.6094-0.046875 3.2656-0.14453 4.0078-0.35938 2.293-0.035156 1.5234-1.7383 3.4922l-1.3086 1.3555-1.4883 1.6211c-0.42188 0.44531-1.1055 1.3555-1.6211 2.0273-0.45703 0.70703-0.94922 1.3789-1.3555 2.1367-1.6445 2.9883-2.832 6.2891-3.0117 10.031-0.023438 1.0781-0.058594 3.2539 0.16797 4.8008 0.19141 1.6562 0.53906 3.3359 1.1289 4.9453 2.2812 6.5898 7.5 11.484 12.805 14.074 2.9297 1.5859 6.4688 2.4102 9.4922 2.3164 3.0586-0.035156 5.9297-0.57422 8.4727-1.1055 2.3867-0.57422 5.1602-0.73047 7.957-1.5117 2.8203-0.71875 5.4102-2.3047 7.1758-4.3672-5.207 2.3633-9.707 0.86328-15.504 0.37109-5.4375-0.14453-10.031-0.74219-12.984-3.1914-3.6836-2.8672-6.4688-6.0234-7.2344-9.7578-0.20312-0.9375-0.39453-1.8594-0.43359-2.8555-0.085937-1.0938-0.046875-1.5859 0.058594-3.1562 0.10938-1.5703 0.74219-3.4062 1.6914-5.0391 0.21484-0.43359 0.51562-0.82812 0.75781-1.2461 0.3125-0.37109 0.35938-0.5625 0.83984-1.1055l1.1875-1.332 1.4141-1.5469c0.94922-1.1172 2.2812-2.6172 3.1914-4.8711 0.88672-2.2305 1.0078-4.3086 0.97266-5.9414-0.058594-1.9062-0.22656-2.9023-0.25391-3.9492-0.046875-1.0664 0-2.0898 0.12109-3.0352 0.3125-1.8828 0.85156-3.5039 1.9805-5.0391 1.0547-1.5352 2.9648-2.9141 4.7773-4.1289 2.2422-1.4023 3.9375-2.1602 6.3242-2.6523 2.2188-0.51562 5.125-0.61328 7.4648-0.74219 2.4492 0.023438 5.207 0.85156 7.9805 0.625-2.5312-0.92578-4.5859-2.6641-7.3555-3.6602-2.8984-0.89062-5.3203-1.418-8.4062-1.7031z"/>
 <path d="m585.25 89.629c-7.5234 3.8516-17.676 3.4453-28.621 5.8906-5.4492 1.2969-11.281 3.793-15.77 7.9688-2.3398 2.125-4.1289 4.5-5.6172 6.6133-1.5352 2.2578-3.0859 4.8008-4.1758 7.6914-2.4102 5.8438-1.4883 12.59-0.48047 17.207 0.45703 2.3867 0.74219 4.7031 0.53906 6.4688-0.23828 2.0391-1.1055 4.1172-2.1953 6.3242-1.0547 2.2305-2.3633 4.6562-3.168 7.4531-0.42188 1.3906-0.61328 2.832-0.64844 4.3555-0.023438 0.82813 0.035156 1.4648 0.10937 2.0742 0.085938 0.82812 0.22656 1.4648 0.43359 2.1836 1.5859 5.4727 5.7461 9.7695 10.727 11.375l0.058593 0.011719 0.035157-0.011719c0.17969-0.058594 0.53906-0.20312 0.46875-0.51562-0.070313-0.22656-0.13281-0.39453-0.035157-0.61328-0.14453 0.15625-0.13281 0.44531-0.097656 0.625 0 0.16797-0.16797 0.17969-0.33594 0.21484-4.332-2.6172-7.0938-7.2344-7.5469-11.746-0.52734-4.7539 1.8711-8.2695 4.9336-12.613 1.4297-2.207 2.9297-4.7383 3.6836-7.7266 0.78125-3.2539 0.61328-6.1094 0.45703-8.7734-0.50391-5.3633-0.64844-9.2656 1.2227-12.926 0.875-1.8242 2.125-3.6016 3.6367-5.4258 1.5469-1.9688 2.9766-3.6133 4.5-4.8359 3.1914-2.6289 7.0938-4.1523 11.594-5.0039 8.9023-1.9453 19.98-1.0547 31.152-6.1562 8.2305-4.2461 17.566-5.9414 25.188-3.0859 3.7422 1.2969 7.1758 4.043 9.5391 7.2461 2.4609 3.2656 3.8398 8.2695 7.2617 13.32 3.1094 4.4648 6.1562 8.0898 6.6367 11.566 0.32422 1.8008 0 3.5156-0.86328 5.7969-0.71875 2.0391-2.1016 4.0195-3.2383 6.9609-1.1055 2.9883-0.94922 6.1797-0.57422 8.7109 0.34766 2.5938 0.74219 5.0508 0.97266 7.5 0.49219 4.7656-0.30078 10.066-4.8242 13.02 2.375-0.92578 4.5469-2.7461 5.8555-5.1836 1.2852-2.4258 1.7891-5.1719 2.0625-7.8008 0.63672-5.2422-0.44531-10.801 1.5703-14.09 0.9375-1.7539 2.6875-3.8633 4.0547-6.5039 1.2461-2.3164 2.5078-5.6523 2.3164-8.9766-0.058593-3.3711-1.3438-6.4062-2.6523-8.9023-1.3438-2.5312-2.7461-4.6328-3.9375-6.7578-2.0898-3.5625-3.0859-8.8086-6.3945-14.016-3.3711-5.207-8.0898-9.3242-13.848-11.773-11.703-4.7266-24.207-1.8594-33.984 2.8594z"/>
 <path d="m659.22 142.21c0.37109-2.7969 0.89844-4.9453 1.6094-5.5195 0.070313 0.011719 0.73047-1.2227 0.79297-1.043l1.0078-1.3438c0.74219-0.92578 1.4766-1.957 2.2812-3.3594 0.79297-1.4023 1.5-3.2773 1.7656-5.1367 0.25391-1.7656 0.14453-3.7578-0.035156-5.0898-0.73047-6.5039-5.543-12.324-10.57-14.832-2.7344-1.5-5.6875-2.0273-8.2812-2.2188-2.6992-0.085938-5.0391 0.085937-7.7539 0.14453 1.6914 2.1953 4.0664 3.6133 6.0117 5.0625 2.0391 1.332 3.625 2.7461 4.8359 4.1523 2.8203 3.1914 4.1406 5.9648 4.6211 9.2539 0.25391 1.9922 0.25391 2.5195-0.20312 4.043-0.25391 0.79297-0.76953 1.8477-1.2734 3.0352l-0.75781 1.8594c-0.50391 1.2461-0.34766 1.1289-0.68359 2.293-0.99609 4.1055 0.44531 6.9609 1.1289 9 0.91016 2.0273 1.2617 3.9609 0.86328 6.7578 2.457-1.1523 4.1758-4.1914 4.6406-7.0586z"/>
 <path d="m509.73 157.7c-2.7344-2.8203-3.7422-6.6484-4.7266-10.262-0.81641-3.6484-1.4883-7.4766-0.9375-10.766 0.85156-7.1992 3.9727-13.859 8.2422-19.43 8.1133-11.844 23.051-13.391 38.461-20.953 1.8945-0.99609 3.7422-2.1367 5.543-3.4062l4.8594-3.6016 9.1562-7.0547c5.9141-4.6211 12.059-8.3047 18.613-10.246 7.1523-1.8359 14.508-3.3242 21.168-1.5 1.5977 0.38281 3 1.043 4.332 2.0742 1.2852 1.0664 2.9531 2.6992 4.668 3.7578 3.4453 2.3281 7.0938 3.6719 10.621 5.4492-2.832-2.7344-6.0977-5.1133-8.6055-7.8242-1.3086-1.4023-2.2305-2.7227-3.6133-4.4766-1.4414-1.7031-3.3711-3.1797-5.4609-4.1523-8.1133-3.7188-16.969-3.1445-24.898-1.9336-17.723 2.9883-29.723 16.547-41.617 22.957-6.168 3.3945-13.598 5.5664-21.109 9.1211-3.7305 1.8242-7.5 4.0078-10.922 6.8633-3.5391 2.9023-6.1914 6.3477-8.4102 9.9727-4.5117 7.2344-6.9492 15.805-6.5273 24.215 0.27734 4.5234 1.7539 8.3633 3.5156 12 1.8555 3.543 4.0859 7.2656 7.6484 9.1953z"/>
 <path d="m644.64 87.434c2.1953 0.97266 4.4766 1.4414 6.7305 1.8945 4.4883 0.73047 9.0234 0.92578 13.188 1.0938 3.7188 0.22656 7.5703 0.96094 10.789 2.3867 3.3125 1.3203 5.4609 3.3828 5.4102 4.4141 0.14453 0.71875 0.12109 1.3438-0.45703 2.4492-0.52344 1.1289-1.6992 2.5664-3.0938 4.3203-1.3203 1.7891-3.0352 3.8633-4.1758 6.9727-1.2461 3.0977-0.86328 7.0938 0.48047 9.6953 1.4883 3.0977 3.3594 4.6211 4.8828 6.1328 1.6328 1.4883 3.1797 2.8906 4.6211 4.332 2.6992 2.8086 6.1562 5.9023 2.9531 9.7188 1.043-0.35938 2.125-0.99609 2.8672-2.1016 0.70703-1.1172 0.94922-2.5547 0.875-3.8516-0.17969-2.6289-1.2344-4.8711-2.207-6.9844-1.0781-2.0625-2.3047-3.9727-3.4219-5.8086-1.1289-1.8594-2.3164-3.5391-2.3516-4.5352-0.22656-1.4023 0-2.0156 0.43359-2.9297 0.49219-0.9375 1.6445-2.207 3.1094-3.6719 1.4297-1.5117 3.1797-3.3008 4.7539-5.9414 1.5703-2.6406 2.5078-6.5039 1.7539-10.031-0.74219-3.6836-3.1211-6.7305-5.5195-8.5195-2.4492-1.8242-4.9336-2.9531-7.4023-3.6836-4.9453-1.3438-9.793-1.9336-14.711-1.0938-4.4531 0.60156-8.543 1.5859-12.695 2.1602-2.0508 0.35938-4.1172 0.55078-6.1328 0.57422-2-0.066406-4.0781-0.1875-5.7695-1.7109 0.64844 2.2461 2.9648 3.8164 5.0898 4.7188z"/>
 <path d="m348.04 153.46-0.66016 0.38281c-1.0938 0.71875-1.5977 1.1406-2.2695 1.8008-1.1406 1.2461-2.0156 2.5312-2.5547 3.8281-1.1406 2.5781-1.5 5.1133-1.4414 7.5469 0.070313 2.4492 0.70703 4.8125 1.7383 6.9961 0.60156 1.0664 1.2109 2.1133 2.125 2.9883 0.83984 0.9375 2.0039 1.5586 3.0586 1.8008-0.57422-2.3633-0.15625-3.9375 0.21484-5.7461 0.34766-1.7148 0.98438-3.3359 1.5977-4.8008 0.63672-1.4648 1.3555-2.7969 2.0625-3.707 0.34766-0.48047 0.68359-0.76953 0.92578-0.9375 0.035157-0.011719 0.33594-0.17969 0.046875-0.023437l0.625-0.33594c-0.023437 0.046875-0.070312 0.085938-0.12109 0.097656 0.16797-0.035156 0.21484-0.23828 1.1641 0.011719 0.91016 0.25391 2.1484 1.0312 3.4062 1.9922 2.4961 2.0625 5.1953 4.4648 7.4297 8.3047 2.543-4.1289 1.7148-9.3477-0.34766-13.609-1.1289-2.1836-2.7109-4.2969-5.2578-6-2.4375-1.7148-6.6484-2.6523-10.234-1.2617-0.52344 0.19141-1.0273 0.41797-1.5078 0.67188z"/>
 <path d="m286.74 213.13c2.0898 1.8125 4.3086 3.0586 6.5742 4.0078 2.4492 0.99609 4.6328 1.5977 6.9375 1.9688 4.5234 0.76953 8.8438 0.79297 13.02 0.73047 0.55078-0.011719 1.0781-0.035156 1.6445-0.058594 5.4258 6.793 10.246 13.68 13.297 21.086 3.7578 9.5898 5.6758 19.871 8.1484 30.539 0.63672 2.6875 1.1992 5.2578 1.9453 8.1016 0.875 3 1.8125 5.7617 3.1445 8.5312 2.6875 5.4102 6.2539 10.824 11.578 14.52 5.1836 3.8398 11.855 5.4961 17.855 4.8945 3.0117-0.3125 5.8906-1.0547 8.543-2.1133 1.2461-0.58984 2.6758-1.0938 3.9609-1.7891 2.6641 2.0742 5.5312 3.875 8.6875 5.0898 4.1641 1.6211 9.3242 2.6523 14.027 1.7773 4.6328-0.71875 8.5547-2.1719 12.07-2.8555 1.7539-0.33594 3.3594-0.5625 4.8242-0.46875l1.0664 0.12109c-0.13281-0.046875 0.81641 0.15625 1.1758 0.23828l0.76953 0.25391 0.99609 0.43359c0.97266 0.46875 1.957 1.1172 2.9648 1.8359 0.89844 3.6719 2.4492 7.2227 4.2617 10.5 2.8906 5.1719 5.9141 9.6953 8.9648 14.762 6.8984 9.9492 16.055 17.555 25.535 24.289 9.7578 6.8633 20.652 12 32.41 15.098 5.8555 1.5117 12.07 2.293 18.156 2.3047 6.0469 0.023437 12.047-0.44531 18.035-1.5 11.832-2.2812 23.902-6.9609 33.227-15.875 4.6562-4.6797 7.8477-9.4219 11.137-14.543 3.1914-5.1016 5.8438-10.656 7.5977-16.547 3.7578-11.746 3.0234-24.84-1.5977-35.879-4.6445-11.039-11.699-20.004-17.461-29.891 3.5273 10.945 9.4336 21.07 12.238 31.68 3 10.488 2.3516 21.457-1.4883 31.246-1.9336 4.9219-4.5469 9.5625-7.5586 14.027-3.0234 4.332-6.5625 8.9141-10.141 12.133-7.4648 6.7695-17.52 10.754-27.984 12.602-10.57 1.9688-21.422 2.2578-31.727-0.097656-10.465-2.1367-20.617-6.6367-30.023-12.047-9.457-5.7969-18.816-12.133-25.934-20.27-5.1719-6.8516-11.566-12.926-15.527-20.375 1.1641 0.94922 2.3281 1.957 3.5898 3.0234 1.5859 1.3438 3.2891 2.7852 5.3047 4.1172 1.668 1.1055 3.5039 2.293 5.3047 3.3711 3.625 2.2188 7.5 4.2344 11.734 5.8086 2.125 0.78125 4.332 1.4531 6.625 1.9336 2.293 0.46875 4.3086 0.74219 6.5898 0.98438 8.6875 0.83984 18.434 0.14453 26.977-5.0898 4.2109-2.5781 7.7383-6.3242 10.223-10.441 0.625-1.0312 1.1992-2.0898 1.7031-3.1562 0.25391-0.57422 0.48047-0.99609 0.75781-1.6914l0.57422-1.4766c0.89844-2.4102 1.4141-4.3906 1.9688-6.4336 1.8945-8.1602 4.1875-12.91 10.246-15.562 2.9883-1.3789 6.7812-2.2305 10.969-3.5273 2.125-0.67188 4.1992-1.4023 6.5391-2.6172 0.80469-0.43359 1.9219-1.0547 2.9297-1.7031 0.97266-0.61328 1.8945-1.2461 2.7969-1.9219 3.5742-2.6758 6.7422-5.6523 9.6484-8.9023l2.0898-2.5078 1.1055-1.4531 0.91016-1.3438c1.5352-2.4609 2.3867-4.9219 2.7617-7.5 0.15625-1.2969 0.25391-2.4609 0.21484-3.7695-0.070313-1.6797-0.43359-3.0469-0.875-4.2969-0.9375-2.4727-1.9688-4.1172-2.3867-5.4375-0.22656-0.61328-0.32422-1.2461-0.33594-1.957-0.046876-0.34766 0.058593-1.2461 0.20312-1.9336 0.34766-1.5 0.99609-3.1914 1.8008-4.9453 0.79297-1.7656 1.7383-3.6133 2.5781-5.7344l2.0625-5.8789c1.332-3.9258 2.543-8.3281 2.4844-12.816-0.058594-4.2461-0.53906-8.9023-3.0234-12.973-2.4492-3.9727-6.3359-6.5508-10.262-8.1602-7.7266-3.0234-17.051-3.9102-24.109 0.57422 3.6836-1.7891 7.8125-1.957 11.711-1.4023 3.9102 0.49219 7.7266 1.7148 11.137 3.5273 3.3828 1.8008 6.2891 4.332 7.8008 7.5117 1.5 3.1094 1.5703 6.8984 1.2344 10.68-0.28906 3.6484-1.4648 7.1289-3.0234 10.754l-2.375 5.4492c-0.76953 1.6094-1.8008 3.3008-2.8086 5.1602-1.0078 1.8594-2.0742 3.875-2.7461 6.3125-0.32422 1.2852-0.60156 2.3984-0.61328 4.0781-0.035157 1.3203 0.12109 2.7109 0.50391 4.0312 0.74219 2.6055 1.8008 4.4766 2.1602 5.8438 0.21484 0.66016 0.26562 1.2969 0.26562 1.6562 0 0.71875-0.12109 1.5703-0.25391 2.2812-0.26562 1.4023-0.9375 2.7969-1.5859 3.7422-0.16797 0.25391-0.57422 0.76953-0.85156 1.1289l-0.79297 0.91016-1.9219 2.0625c-2.6172 2.6992-5.4492 5.2188-8.4492 7.2852-0.74219 0.52734-1.5 1.0078-2.2695 1.4648-0.71875 0.43359-1.3789 0.78125-2.375 1.2734-1.2852 0.60156-3.0469 1.2227-4.8125 1.7031-3.5742 1.0078-7.7891 1.7266-12.266 3.5742-4.5117 1.7539-8.9297 5.3047-11.652 9.6602-2.7969 4.3789-3.9102 9-4.9805 12.805-1.7383 7.3086-5.0898 13.262-10.57 16.512-5.375 3.4453-12.695 4.3555-20.004 3.6953-1.7656-0.15625-3.7695-0.42188-5.4492-0.74219-1.668-0.32422-3.3594-0.80469-5.0508-1.4141-3.3945-1.2227-6.7422-2.9297-10.117-4.7891-1.7148-0.97266-3.3125-1.9219-5.0625-3-1.3906-0.83984-2.8555-1.9688-4.3906-3.2031-3.0977-2.4258-6.4336-5.4492-11.137-7.5469-0.57422-0.25391-1.2109-0.48047-1.8242-0.70703-0.68359-0.21484-1.5117-0.44531-2.1484-0.57422-0.64844-0.097657-0.68359-0.15625-1.8242-0.27734l-1.957-0.13281c-2.6055-0.035156-5.0391 0.35938-7.2344 0.9375-4.3906 1.1523-8.0508 2.7109-11.426 3.3945-6.3359 1.3789-13.633-1.4766-19.105-5.8789-1.332-1.1055-2.6289-2.4844-3.6133-3.7578-1.2109-1.6094-1.9922-2.9297-2.7461-4.6094-1.4531-3.2266-2.0273-6.8281-1.957-10.559 0.085938-3.6719 0.70703-7.7031 1.9336-11.16 1.3086-3.5391 3.3477-6.9258 5.7969-9.9961 4.9688-5.9883 11.41-11.352 19.355-13.297-8.207 0.74219-15.73 5.4258-21.562 11.328-2.9414 2.9883-5.5312 6.3828-7.4648 10.285-1.8945 4.0312-2.9297 8.0508-3.5156 12.445-0.50391 4.332-0.10938 8.9883 1.4414 13.297 0.73047 2.1016 1.8945 4.3555 3.0117 6.0703 1.332 2.0391 2.7227 3.7305 4.3789 5.3633 0.27734 0.27734 0.625 0.46875 0.92578 0.73047-0.91016 0.097657-1.8242 0.20312-2.7344 0.23828-2.6992 0.10938-5.2812 0.10938-7.7539-0.37109-4.957-0.74219-9.168-2.9883-12.406-6.168-3.1797-3.2773-5.7109-7.3555-7.3672-11.953-0.83984-2.2578-1.6211-4.7031-2.1367-6.9961l-1.7656-7.9062c-2.4375-10.621-5.4492-21.898-11.328-32.039-4.332-7.1523-10.199-12.781-16.715-17.258 2.0742-0.12109 4.1523-0.27734 6.3359-0.50391 8.3164-0.82812 16.402-2.4375 24.406-5.125 8.0625-2.9883 14.711-7.7148 21.445-12.215-7.8359 2.2812-15.301 5.6758-22.883 6.875-7.6328 1.2734-15.625 1.668-23.375 1.6914-7.8359-0.30078-16.078-0.070312-22.871-1.6797-1.6562-0.40625-3.3711-0.89844-4.6328-1.4648-1.4414-0.625-2.7461-1.4297-3.6719-2.2812-1.9453-1.7773-3.0859-4.2461-3.4805-7.1992-0.46875-2.9141-0.097657-6.168 0.91016-9.4922 0.97266-3.2539 2.5938-6.3477 4.5117-9.3828 3.8633-6.1211 9.5898-11.426 15.301-16.945 11.23-11.125 24.301-19.68 39.098-26.688-16.031 2.4258-31.895 9.5898-44.734 20.004-6.5273 4.8945-13.008 10.391-18.383 17.555-2.6523 3.5898-4.8008 7.7266-6.2656 12.156-1.4297 4.332-2.2422 9.2656-1.5703 14.352 0.63672 4.9922 3.1211 10.281 7.2969 13.848z"/>
 <path d="m418.92 145.66c1.7773 4.1523 0.875 10.754-1.2344 16.945-2.2422 6.2539-5.0898 12.574-9.6602 18.539 7.4648-2.2188 13.379-8.0898 17.566-14.723 2.1836-3.3477 3.6953-7.1641 4.6914-11.34 0.88672-4.1758 0.94922-8.9883-0.94922-13.668-0.97266-2.3047-2.3633-4.4648-4.1523-6.2656l-1.5586-1.3906-1.1523-0.83984c-1.1875-0.86328-1.957-1.2617-3.0352-1.8008-4.0664-1.9219-8.543-2.8672-12.707-2.5781-8.375 0.45703-15.18 3.7812-21.66 7.6211 7.5859 0.61328 14.977-0.085938 21.168 1.1172 5.9844 1.0742 11.312 4.4961 12.684 8.3828z"/>
 <path d="m778.11 567.74c-7.7891-12.047-17.102-23.102-27.73-32.652l0.66016-0.12109 29.82-117.14-9.3125 2.543c-59.809 16.32-125.14 24.59-194.12 24.59-117.46 0-205.98-24.336-206.84-24.574l-9.7578-2.7344 34.129 116.59c-10.727 9.6016-20.125 20.734-27.984 32.891-8.9883 13.934-15.949 29.258-20.258 45.445-4.3438 16.152-5.6172 33.168-4.1289 49.883 1.6094 16.715 5.2578 33.266 12.59 48.77 7.2344 15.434 17.891 29.102 30.301 40.598 12.457 11.531 26.746 20.762 41.641 28.477 14.941 7.6914 30.602 13.777 46.57 18.672 12.539 3.793 25.141 6.8984 38.113 9.168-1.3438 4.8945-2.3164 9.9102-2.6055 15.07-0.37109 6.1914 0.035156 12.59 1.957 18.898 1.8125 6.2891 5.7969 12.527 11.746 16.656 2.9414 2.0625 6.2891 3.4805 9.6719 4.3203 1.0195 0.25391 2.0156 0.40625 3.0234 0.625-0.63672 13.547-0.81641 26.988-0.85156 40.391l-0.10938 43.934c0.011718 14.594-0.27734 29.172-0.99609 43.668-0.33594 5.4492-0.76953 10.871-1.3555 16.297-13.824 0.85156-27.613 2.5664-41.27 5.0273-14.785 2.6523-29.496 6.0977-43.871 10.848-14.305 4.8828-28.43 11.039-41.016 20.258-3.1328 2.3164-6.1328 4.7891-8.9531 7.6445-2.9414 3.0703-5.5195 6.707-6.7578 11.27-1.2852 4.5352-0.625 9.6016 1.2109 13.668 1.8242 4.1289 4.5117 7.4766 7.3789 10.391 11.785 11.34 26.039 17.711 40.188 23.375 14.258 5.5078 28.871 9.7305 43.621 13.211 29.543 6.8047 59.676 10.535 89.93 11.762 30.238 0.98438 60.742-0.71875 90.613-6.7422 14.902-3.1094 29.664-7.2109 43.895-13.02 14.113-5.8906 28.188-13.078 39.277-25.043 2.7227-3.0352 5.1719-6.4453 6.9609-10.402 1.7539-3.9258 2.7969-8.5078 2.2188-13.105-1.1172-9.4219-8.1367-16.141-14.363-20.305-12.348-8.9023-26.09-16.297-40.633-20.902-14.555-4.6211-29.473-7.1172-44.34-9.0859-13.836-1.8594-27.73-3.0586-41.629-4.0664-0.82812-6.4922-1.332-13.008-1.7148-19.559-0.73047-14.484-1.0312-29.062-1.0078-43.656l-0.10937-43.945c-0.035157-13.895-0.20313-27.852-0.89844-41.941 1.4414-0.21484 2.8906-0.32422 4.3438-0.5625l0.98438-0.16797 0.48047-0.26562c3.2773-1.9688 4.8477-3.8633 6.7188-6.1328 1.7148-2.2305 3.1094-4.6211 4.1875-7.0664 2.2578-4.8945 3.168-10.117 3.5898-15.18 0.53906-8.5664-0.74219-16.848-3.0469-24.742 14.746-2.3047 28.969-5.6875 43.129-9.9609 15.984-4.8711 31.645-10.98 46.57-18.672 14.902-7.7031 29.195-16.969 41.676-28.465 12.406-11.496 23.051-25.188 30.289-40.609 7.3086-15.445 10.969-32.074 12.59-48.77 1.4766-16.738 0.22656-33.742-4.1289-49.906-4.3203-16.16-11.277-31.496-20.277-45.441zm-12.879-134.05-23.293 91.5c-2.6523 0.45703-6.7422 1.1172-12.098 1.9336 2.5078-13.02 4.957-26.051 7.3203-39.109 2.7852-16.547 5.8672-33.023 8.3867-49.633 6.6172-1.4883 13.191-3.0352 19.684-4.6914zm-19.918 4.7422c-4.7148 16.078-8.8555 32.293-13.297 48.445-3.625 13.812-7.1523 27.625-10.598 41.473-8.1953 1.1641-18.238 2.4844-29.809 3.8164 2.2578-12.59 4.5-25.176 6.6016-37.812l3.9375-25.309c1.2109-7.6328 2.3047-15.289 3.3242-22.957 13.488-2.2227 26.809-4.7422 39.84-7.6562zm-40.152 7.7031c-2.1133 7.4023-4.1641 14.82-6.0859 22.262l-6.4922 24.781c-3.3477 13.297-6.5156 26.629-9.6836 39.961-10.117 1.0938-21.18 2.1484-33.023 3.1094 1.3672-12.145 2.6875-24.301 3.9258-36.469 1.4023-15.84 3.0859-31.645 4.2344-47.52 15.973-1.5664 31.68-3.6172 47.125-6.125zm-127.74 10.078c27.371 0 54.168-1.3672 80.293-3.9258-3.3125 15.539-6.1094 31.152-9.1914 46.738-2.3047 12.602-4.5352 25.211-6.6953 37.824-9.7812 0.73047-20.074 1.3672-30.73 1.8711 2.2812-27.719 4.2227-55.477 5.5664-83.305-4.9922 27.828-9.3711 55.715-13.379 83.652-14.055 0.59375-28.719 0.92969-43.766 0.92969-5.3516 0-10.621-0.085938-15.875-0.16797-0.023438-0.13281-0.035157-0.26562-0.046875-0.42188-4.0195-28.223-8.4609-56.398-13.43-84.504 15.121 0.81641 30.875 1.3086 47.254 1.3086zm11.809 377.96c-0.28906-7.9062-0.875-15.77-1.8008-23.723l17.27 0.046875c2.3398 7.4414 4.0547 15.301 4.9688 23.16 0.67188 6.7422 0.85156 13.621-0.27734 20.363-6.8281 0.50391-13.691 0.89844-20.555 1.1875 0.50391-6.9844 0.67188-14.016 0.39453-21.035zm-90.828-222.53c1.1172 22.008 2.7109 44.016 5.5547 65.891 2.6758 21.91 6.5039 43.691 11.605 65.242 4.7148 19.176 10.609 38.172 18.516 56.363l-10.355-0.011719c-0.50391-0.070313-1.0078-0.17969-1.5-0.25391-12.984-16.68-22.777-35.352-31.297-54.445-9.3945-21.312-17.074-43.414-23.281-65.832-2.9883-11.16-6-22.668-7.7031-33.684-1.4141-11.062-1.4414-22.68-1.0664-34.223 0.94922-21.422 3.2266-43.02 6.2539-64.367 10.668 1.1641 21.574 2.1484 32.762 2.8906-0.69922 20.887-0.31641 41.633 0.51172 62.43zm26.484 129.06c-4.332-21.289-7.3789-42.863-9.9844-64.488-4.7266-41.914-7.4023-84.266-8.2695-126.48 9.7305 0.53906 19.586 0.99609 29.688 1.2344 1.668 25.754 3.2266 51.758 5.3398 77.543 2.2188 29.438 4.8125 58.824 7.6445 88.223 2.7109 27.516 5.5938 54.805 9.0859 82.43l-17.688-0.023437c-6.8633-18.98-11.855-38.613-15.816-58.438zm13.477 91.789c0.35938-7.5117 1.4297-15.059 2.9023-22.402l18.254 0.20312 1.9219 22.691c0.625 7.5859 1.3672 15.156 2.1367 22.727-6.8281-0.070312-13.633-0.32422-20.328-1.0078-1.0195-0.12109-1.9805-0.28906-2.9766-0.42188-0.73047-2.5938-1.2227-5.2422-1.5-7.8945-0.56641-4.6289-0.61328-9.2617-0.41016-13.895zm21.277-116.64c-2.1016-29.426-4.4023-58.848-7.0781-88.246-1.2344-14.711-2.6992-29.375-4.1641-44.074-1.0664-10.836-2.1953-21.613-3.4453-32.461 4.8359 0.058594 9.6484 0.15625 14.566 0.15625 14.52 0 28.68-0.3125 42.324-0.85156-1.4883 12.289-2.7227 24.434-3.9375 36.695-1.4766 14.688-2.9023 29.375-4.1523 44.074-2.6758 29.387-4.9688 58.812-7.0195 88.246-1.9219 26.594-3.3828 53.387-4.7656 79.895l-9.4062-0.10938-7.8945 0.015625c-1.418-27.598-3.0586-55.605-5.0273-83.34zm5.0391 117.01 0.22656-22.512 7.5977 0.070313 9.4062 0.023437c1.7148 7.8828 3.1562 15.926 4.2461 23.977 0.88672 6.8984 1.5234 13.824 1.957 20.809-3.2031 0.13281-6.4219 0.28906-9.6133 0.38281-4.7656 0.085937-9.5273 0.12109-14.281 0.070312 0.22266-7.6016 0.40234-15.223 0.46094-22.82zm42.191-33.301-18.637-0.20312c3.3125-26.473 6.1914-52.691 8.7617-79.094 2.8672-29.375 5.4727-58.777 7.7031-88.223 2.2578-27.301 3.8516-54.816 5.6406-82.031 10.223-0.48047 20.113-1.0664 29.555-1.7539-0.023438 0.085937-0.023438 0.17969-0.035157 0.27734l-0.046874 0.20312v0.49219c-0.76953 43.523-3.5039 87.238-8.3633 130.51-2.6172 21.613-5.5938 43.188-9.9375 64.488-3.7305 18.746-8.3867 37.32-14.641 55.332zm-77.027-344.68c1.4141 28.32 3.3711 56.578 5.7461 84.793-10.297-0.25391-20.352-0.69531-30.254-1.2734-2.4102-14.316-4.957-28.621-7.5586-42.91-2.8672-14.555-5.5195-29.148-8.543-43.68 12.816 1.2461 26.391 2.3047 40.609 3.0703zm-41.293-3.1562c1.1523 14.867 2.6758 29.676 3.9961 44.496 1.4297 13.922 2.9297 27.816 4.5234 41.711-11.062-0.75781-21.805-1.7773-32.34-2.9531-3.5391-15.145-7.1875-30.266-10.98-45.348l-6.5039-24.781c-1.6211-6.3125-3.3828-12.59-5.1484-18.863 13.969 2.0781 29.547 4.0703 46.453 5.7383zm-47.207-5.8555c0.89844 6.5391 1.8125 13.094 2.8555 19.609l3.9258 25.32c2.3867 14.398 4.9336 28.777 7.5234 43.141-10.129-1.2734-19.969-2.7461-29.555-4.4141-3.793-15.434-7.7539-30.828-11.762-46.199-4.0547-14.746-7.9336-29.543-12.145-44.27 10.883 2.168 24.035 4.5352 39.156 6.8125zm-64.117-12.227c5.7344 1.3672 14.004 3.2266 24.227 5.2695 2.3984 15.215 5.1602 30.359 7.7148 45.539 2.6406 14.508 5.3516 29.004 8.1836 43.488-4.4766-0.85156-8.9531-1.7031-13.297-2.6289zm54.375 337.86c-14.387-7.2109-27.926-16.043-39.898-26.578-11.977-10.488-22.246-22.969-29.41-37.188-7.1758-14.062-11.219-30.035-13.176-45.938-1.9062-15.996-0.97266-32.27 2.3867-48.086 6.4805-29.578 22.199-57.059 43.598-79.02l0.035156 0.16797 3.2539 0.71875c5.4375 1.2109 10.98 2.3281 16.609 3.3828-6.3008 9.6836-11.387 19.812-15.66 30.48-5.2578 13.094-9.0586 26.867-10.883 40.969-3.9961 28.188 0.53906 57.742 13.141 83.352 12.707 25.57 31.656 46.969 52.598 65.195 10.547 9.0586 21.602 17.484 33.215 25.02 6.7695 4.4141 13.656 8.6641 20.688 12.602-26.387-4.8828-52.535-13.16-76.496-25.078zm27.609-18.023c-9.707-9.5039-18.863-19.523-27-30.254-8.207-10.668-15.422-22.031-20.965-34.078-11.363-23.953-15.191-51.023-11.953-77.34 3.168-24.938 12.035-49.68 25.117-71.172 10.199 1.7656 20.641 3.3477 31.43 4.6797-3.9727 21.457-6.9375 42.984-8.0039 64.922-0.53906 11.941-0.69531 23.988 1.1172 36.277 2.1016 12.227 5.0508 23.555 8.5312 35.027 6.9844 22.789 15.781 44.988 26.891 66.07 5.5938 10.512 11.688 20.762 18.742 30.348 5.3164 7.2734 11.004 14.305 17.328 20.664-2.4844-0.34766-4.957-0.70703-7.4297-1.1289-19.172-13.262-37.254-27.922-53.805-44.016zm75.539 100.03c-2.4961-0.46875-4.8242-1.3086-6.9961-2.4492-4.3555-2.3164-7.6211-6.4922-9.9844-11.461-4.1289-9.2773-5.3047-20.316-5.2578-31.332 3.3945 0.57422 6.7812 1.1406 10.234 1.5977l0.21484 0.035156h0.33594l12.648 0.13281c-0.27734 2.7461-0.49219 5.4609-0.64844 8.207-0.25391 4.7539-0.28906 9.5156-0.058593 14.281 0.38281 7.2852 1.3203 14.855 4.1641 21.637-1.5547-0.21484-3.1367-0.38281-4.6523-0.64844zm85.152 182.66c-2.6406-6.9727-4.0195-14.09-4.9453-21.277-0.085938-0.63672-0.13281-1.2461-0.21484-1.8711 28.465 4.5859 57.422 8.1836 84.145 18.121 13.801 5.0898 26.473 12.539 38.027 21.613 5.8086 4.2461 10.234 9.3828 10.715 15.266 0.55078 5.7969-2.8555 11.809-7.5586 16.703-9.6602 9.8516-23.039 16.5-36.469 21.84-13.609 5.2578-27.863 8.9766-42.312 11.711-28.922 5.5195-58.598 7.1055-88.152 5.9531-29.566-0.98438-59.113-4.6094-87.984-10.883-14.438-3.1328-28.727-6.9961-42.492-12.047-6.875-2.5195-13.598-5.375-20.027-8.6875-6.3828-3.2891-12.562-7.0664-17.508-11.746-4.9453-4.6211-8.293-10.391-6.8867-15.816 0.61328-2.7461 2.3633-5.5078 4.5117-7.8828 2.375-2.5195 5.0391-4.9688 7.8359-7.2227 11.258-9 24.672-15.516 38.41-20.891 26.543-10.414 54.805-16.523 83.242-20.746-0.19141 1.6914-0.3125 3.3828-0.5625 5.0742-0.92578 7.1992-2.3047 14.305-4.957 21.277 4.8477-5.7617 7.8594-12.926 10.332-20.016 2.3398-7.1875 4.0781-14.531 5.293-21.938 2.543-14.797 3.3359-29.746 3.5156-44.594-0.046874-14.891-0.73047-29.723-2.4102-44.461-1.4648-13.32-3.5391-26.605-6.7422-39.707 1.7266 0.34766 3.4688 0.76953 5.1719 1.0664 12.383 1.8828 24.73 2.1836 36.961 1.7266 10.586-0.37109 21.012-1.4531 31.488-2.9531-3.4453 13.656-5.6289 27.492-7.1523 41.398-1.6797 14.746-2.3633 29.566-2.3984 44.449 0.17969 14.855 0.97266 29.797 3.5156 44.605 1.2109 7.3906 2.9414 14.746 5.2812 21.938 2.4922 7.0625 5.4922 14.223 10.328 19.996zm5.3906-202.71c-0.97266 4.4648-2.6172 8.6992-4.7266 12.406-1.0781 1.8477-2.3281 3.5391-3.7305 5.0156-1.0312 1.1055-2.4609 2.2305-3.4922 2.8555-1.0547 0.097656-2.1602 0.14453-3.2148 0.22656 1.9688-6.5898 2.5781-13.621 2.4609-20.496-0.14453-7.7266-1.0078-15.324-2.5312-22.98l11.629 0.046875h0.38281l0.22656-0.046875c1.5977-0.22656 3.168-0.50391 4.7539-0.74219 0.22266 8.125-0.03125 16.152-1.7578 23.715zm1.4883-34.562c-1.7773 0.25391-3.5898 0.57422-5.3867 0.80469l-7.9688-0.085938c7.2734-17.27 12.816-35.219 17.293-53.352 5.1016-21.516 8.9766-43.297 11.652-65.207 2.8438-21.887 4.4766-43.871 5.5547-65.879 0.91016-21.949 1.3203-43.824 0.46875-65.867 0.070312-0.5625 0.12109-1.1406 0.19141-1.7031 11.387-0.89844 22.066-1.8945 31.922-2.9297 3.3945 23.027 5.9414 46.391 6.9492 69.539 0.37109 11.543 0.35938 23.172-1.0547 34.246-1.7031 11.027-4.7148 22.512-7.7148 33.66-6.1914 22.441-13.859 44.52-23.27 65.832-7.9258 17.773-16.973 35.176-28.637 50.941zm2.4961-0.38281c4.957-5.375 9.5742-11.102 13.906-17.016 7.0547-9.6133 13.164-19.848 18.742-30.359 11.102-21.07 19.906-43.273 26.879-66.07 3.4922-11.461 6.457-22.801 8.5547-35.027 1.7891-12.277 1.6562-24.336 1.1055-36.266-1.1523-23.652-4.4648-46.824-8.9023-69.938 0.011718-0.046874 0.011718-0.085937 0.023437-0.13281 11.375-1.2734 21.395-2.5547 29.762-3.7188l0.53906 0.83984c14.219 22.246 23.797 48.301 27.133 74.531 3.2539 26.316-0.57422 53.387-11.941 77.328-5.543 12.059-12.77 23.41-20.977 34.078-8.125 10.738-17.281 20.746-26.988 30.254-14.723 14.328-30.613 27.59-47.449 39.66-3.4414 0.64844-6.9102 1.2852-10.387 1.8359zm153.48-90.156c-7.1523 14.207-17.426 26.676-29.41 37.176-11.941 10.559-25.5 19.355-39.875 26.594-21.059 10.477-43.812 18.145-66.926 23.16 4.1758-2.5195 8.3047-5.1133 12.406-7.7656 11.617-7.5352 22.66-15.961 33.219-25.031 20.93-18.227 39.875-39.602 52.586-65.172 12.602-25.645 17.137-55.188 13.164-83.363-1.8359-14.113-5.6406-27.875-10.883-40.98-4.8477-12.086-10.738-23.508-18.289-34.344 11.797-1.7383 18.539-2.9766 18.77-3.0117l2.3633-0.44531c21.445 21.996 37.223 49.523 43.703 79.152 6.8242 31.523 3.1406 65.398-10.828 94.031z"/>
 <path d="m666.74 1076.6c1.2969 2.8672 2.4609 5.7734 3.5273 9.1328 1.3086-3.2891 1.3086-6.9961 0.67188-10.43-0.625-3.4688-1.9219-6.7305-3.4922-9.7812-1.6562-3.0352-3.6016-5.8672-5.8906-8.375-2.2812-2.5312-4.8359-4.8477-7.9062-6.5625 2.6641 6.4062 5.9141 11.902 8.832 17.566 1.5117 2.7617 2.8906 5.5938 4.2578 8.4492z"/>
 <path d="m683.24 1085.7c2.7461-6.6133 2.293-14.207-0.035157-20.879-1.2461-3.3359-2.8672-6.5391-5.0508-9.3359-2.1484-2.7969-4.6914-5.3516-7.8594-7.043 2.8555 6.4336 5.5195 12.203 7.6211 18.254 2.207 6.0234 3.5977 12.117 5.3242 19.004z"/>
 <path d="m751.33 75.156c5.7344-7.0312 12.359-13.246 19.957-18.18 5.2578-3.5391 10.883-6.5508 16.766-9.0977-0.34766 6.2656-1.3672 12.742-2.9648 18.828-2.1719 8.8438-5.8672 17.23-10.691 24.961-4.8945 7.6562-11.113 14.578-18.469 20.34-7.2734 5.8906-15.684 10.5-24.504 14.52 9.5625-1.6328 18.949-4.9805 27.613-9.9375 8.6055-5.0273 16.43-11.746 22.559-19.871 6.3125-8.0273 10.691-17.449 13.754-27.121 2.832-9.875 4.332-19.68 3.9609-30.457l-0.26562-7.5859-7.2461 2.7344c-9.3359 3.5156-18.434 8.0039-26.617 14.004-8.1016 6.0117-15.434 13.246-20.93 21.719-5.6406 8.375-9.5273 17.773-11.746 27.395-2.0625 9.6367-2.7852 19.586-1.0781 29.125 1.6484-19.133 8.6094-37.168 19.902-51.375z"/>
 <path d="m419.5 104.62c4.9336 9.4922 12.707 17.426 21.793 22.488 9.1445 5.0156 19.176 7.5469 29.137 8.1133-9.4805-3.0469-18.574-6.9727-26.062-12.793-7.5859-5.6875-13.273-13.234-16.859-21.637-3.4805-8.4727-5.2188-17.688-5.2578-27.035-0.20312-7.2344 0.49219-14.773 1.8594-21.875 6.4922 2.4844 12.625 5.7227 18.156 9.7305 7.1875 5.1602 13.117 11.891 17.629 19.633 4.4414 7.7773 7.4766 16.547 9.0859 25.715 1.7031 9.1562 2.1484 18.672 1.4648 28.273 3.0703-9.168 4.1758-18.996 3.9258-28.848-0.39453-9.8398-2.4258-19.871-6.7695-29.102-4.1758-9.3242-10.906-17.555-18.898-24.023-8.0508-6.4805-17.449-10.906-27-14.062l-5.6406-1.8594-1.4414 5.6641c-2.6758 10.512-3.5156 20.652-3.0859 31.188 0.69141 10.363 2.875 20.984 7.9648 30.43z"/>
 <path d="m385.27 375.12c6.5391 2.4258 13.188 4.8828 20.004 7.1992 7.5117 9.4805 14.34 19.523 20.09 30.59-2.8086-15.527-10.094-30.18-19.066-43.223-9-13.152-19.934-24.793-31.609-35.426-11.832-10.488-24.445-20.004-37.812-28.273-13.332-8.293-27.254-15.684-42.047-21.047 12.527 9.4453 24.875 18.73 37.031 28.211 1.7539 1.3789 3.457 2.7969 5.1953 4.1875-5.8906-2.375-11.941-4.3555-18.145-5.7852-8.4258-2.0156-17.113-3.0859-25.824-3.1094-8.6758 0.058594-17.605 0.98438-25.668 4.6328 8.6406 0.98438 16.727 2.5312 24.84 4.0664 8.0898 1.6094 16.066 3.457 24.07 5.3398l24.121 5.832c4.5586 1.1055 9.1797 2.1836 13.859 3.168 4.3438 3.6602 8.6875 7.3086 12.875 11.125 10.391 9.2383 20.172 19.066 29.363 29.41-2.4492-1.6914-4.9336-3.3242-7.5-4.8359-8.0742-4.7539-16.703-8.7344-25.789-11.484-9.0586-2.7852-18.602-4.3906-28.176-4.3789-4.7891-0.023437-9.5898 0.49219-14.258 1.4023-2.3398 0.55078-4.6445 1.1172-6.8867 1.8945l-3.3125 1.2109c-1.043 0.3125-2.2578 1.2344-3.1328 0.81641 0.19141 0.68359 1.1055 0.53906 1.6094 0.68359l1.7891 0.16797 3.4805 0.19141c2.293 0.15625 4.5469 0.26562 6.793 0.52734 4.4648 0.38281 8.8555 1.0781 13.199 1.8125 8.6758 1.5586 17.16 3.8398 25.621 6.4219 8.3984 2.6367 16.812 5.5508 25.285 8.6719z"/>
 <path d="m196.77 238.98c5.1484 10.609 12.551 20.426 22.176 27.434 9.5156 7.1406 20.773 11.375 32.062 13.246 11.352 1.7266 22.754 1.4414 33.742-0.5625-11.148-0.51562-22.164-1.7656-32.508-4.8711-10.344-3-19.934-7.9336-27.781-14.711-7.7539-6.875-13.957-15.371-17.965-24.984-3.2656-7.3906-5.4727-15.648-6.4805-23.641 18.637 2.2695 36.973 7.043 52.535 16.848 8.6172 5.543 16.246 12.719 21.816 21.539 5.6172 8.7461 9.3594 18.996 10.367 29.82 1.4531-10.859-0.875-22.211-5.6055-32.438-4.8477-10.211-12.457-19.223-21.625-26.027-9.0859-6.9727-19.609-11.699-30.289-15.191-10.754-3.4453-21.84-5.2812-32.891-6.4453l-6.4453-0.68359 0.3125 6.3125c0.64453 12.336 3.6328 23.496 8.5781 34.355z"/>
 <path d="m292.74 396.11c-1.6562 8.8672-4.3555 17.449-8.2188 25.234-3.9844 7.7148-9.0469 14.711-15.625 19.98-4.8477 4.0078-10.367 7.1641-16.309 9.4453-0.82813-6.625-1.0547-13.598-0.66016-20.281 0.34766-8.9023 2.1016-17.676 5.1602-25.883 3.168-8.1719 8.0039-15.73 14.629-21.742 6.5273-6.168 14.785-10.609 23.594-14.039-9.4062 0.99609-18.805 4.1523-27.035 9.6719-8.1836 5.5547-14.902 13.512-19.246 22.547-4.5469 8.9883-6.6953 18.875-7.7539 28.668-0.80469 9.9258-0.50391 19.512 1.332 29.629l1.0781 6 5.9414-1.7773c9.4688-2.832 18.719-7.4141 26.207-14.219 7.4648-6.7812 13.176-15.312 16.656-24.457 3.6367-9.0977 5.2578-18.684 5.6758-28.141 0.27734-9.4688-0.44531-18.898-2.8438-27.926-0.046874 9.2656-0.83984 18.418-2.582 27.289z"/>
 <path d="m248.43 338.83c3.8281-6.0703 6.5898-12.719 7.5352-19.609-6.4336 12.133-15.863 22.211-27.254 27.059-9.8398 4.2109-20.785 4.332-31.5 2.0898 1.0938-4.3789 2.9141-8.9023 5.3516-12.613 3.1797-5.3516 7.8359-9.4922 13.379-12.445 5.5938-2.8555 12.156-4.3906 18.961-4.8008 6.8398-0.57422 13.883 0.023437 21.047 0.70703-6.4922-3.1328-13.488-5.2812-20.867-6.3125-7.3438-0.91016-15.215-0.53906-22.68 2.2695-7.5234 2.6641-14.113 8.1133-18.77 14.605-4.5117 6.7578-7.3789 13.871-8.4961 22.285l-0.625 4.7148 4.7539 1.1875c7.0195 1.7539 14.398 2.8906 21.887 2.375 7.4414-0.51562 15-2.4727 21.469-6.3594 6.5664-3.7422 11.871-9.1523 15.809-15.152z"/>
 <path d="m517.87 388.29c-11.988-5.1836-24.828-8.1133-37.754-9.5898-13.055-1.1641-25.859-1.0664-39.238 1.4297l-10.836 2.0273 8.2422 7.5469c18.336 16.801 39.938 30.035 63.156 38.508 11.566 4.3203 23.555 7.3906 35.652 9.4062 12.109 1.8594 24.383 2.8906 36.527 1.7891-12.059-1.3203-23.855-3.8164-35.375-7.0547-11.52-3.2031-22.727-7.332-33.539-12.145-10.777-4.9453-21.238-10.488-31.055-17.004-6.4062-4.2461-12.602-8.8086-18.527-13.68 7.9336-0.69531 16.105-0.75781 24.023-0.13281 12.109 0.75781 24.035 3.2891 35.496 7.1758 11.438 3.9961 22.367 9.625 32.242 16.945 9.9844 7.1992 18.77 16.117 26.734 25.906-5.832-11.207-13.727-21.457-23.16-30.238-9.4766-8.7109-20.59-15.852-32.59-20.891z"/>
 <path d="m579.07 380.61c0.023438 6.793 0.51563 13.234 2.3516 20.16l2.0039 7.5352 6.4453-4.4023c5.4492-3.7305 10.309-8.4492 13.789-13.992 3.5039-5.5078 5.9648-11.531 7.2969-17.688 1.4531-6.1211 1.8242-12.336 1.6211-18.434-0.34766-6.0859-1.1992-12.121-3.1797-17.832-0.78125 11.914-2.7344 23.426-6.6484 33.793-2.0625 5.1367-4.5 9.9961-7.7148 14.184-1.3906 1.8125-2.9023 3.5156-4.5 5.1133-0.39453-2.832-0.64844-5.7227-0.68359-8.5195-0.33594-5.8555 0.20313-11.688 1.3438-17.363 1.2227-5.6523 3.2539-11.16 6.3828-16.199 3.0234-5.1367 7.2734-9.625 12.109-13.824-6.1211 1.957-11.797 5.5547-16.547 10.309-4.6797 4.8242-8.293 10.801-10.535 17.23-2.3594 6.4297-3.2812 13.219-3.5352 19.93z"/>
 <path d="m579.43 209.53c2.6523 1.1406 5.5078 1.4883 8.207 1.1641 2.7109-0.30078 5.2695-1.2734 7.5-2.7734 2.207-1.5703 4.1523-3.5742 5.3633-6.6836-3.1094-1.2109-5.5547-1.5586-7.8711-1.8125-2.2695-0.20312-4.3203-0.14453-6.2891 0.097657-1.9805 0.23828-3.8516 0.64844-5.8789 1.2461l-7.2461 2.3867c1.0156 3.2812 3.6328 5.1758 6.2148 6.375z"/>
 <path d="m796.88 245.69c2.8672-7.2461 5.8438-14.508 8.3633-22.379-6.3945 5.2305-11.652 11.52-16.141 18.289-4.5 6.7695-8.2812 14.051-11.137 21.695-2.8906 7.6328-4.8945 15.613-5.9141 23.723-0.73047 5.9883-0.98438 12.098-0.22656 18.133-11.16 11.617-21.742 23.762-31.523 36.516-17.027 22.223-32.426 45.816-44.004 71.23 3.6133-5.3398 7.3203-10.586 11.102-15.793 7.3672-1.4414 14.508-2.2305 21.66-3.0977 7.7773-0.86328 15.539-1.5 23.34-2.1953l23.531-2.1719c7.9219-0.80469 15.887-1.7031 24.059-3.4688-7.8359-2.9023-15.898-4.4766-24.035-5.3164-8.1367-0.82812-16.344-0.99609-24.539-0.25391-8.1953 0.70703-16.344 2.2812-24.254 4.8477-6.0703 2.0391-12.18 4.6328-17.449 8.4609 11.832-16.129 24.324-31.668 37.332-46.715 9.2383-10.547 18.742-20.844 28.586-30.805 4.957 0.51562 9.8398 0.92578 14.652 1.1992l20.594 1.1406c6.8047 0.39453 13.586 0.74219 20.398 1.2969l21.07 1.9453c-5.543-4.9805-12.324-8.2812-19.297-10.535-7.0195-2.2578-14.281-3.5508-21.562-3.9258-7.2852-0.39453-14.594 0.10938-21.719 1.3555-2.8438 0.50391-5.6641 1.1641-8.4375 1.957 7.7266-7.6211 15.562-15.098 23.734-22.246 12.926-11.496 26.484-22.246 40.5-32.363 4.3555-0.32422 8.6641-0.74219 12.926-1.2461 7.3906-0.85156 14.711-1.7539 21.996-2.7617l21.828-3.0977c7.332-1.0312 14.711-2.0391 22.441-3.5273-7.2227-3.1797-14.953-4.6562-22.691-5.2578-7.7266-0.58984-15.492-0.34766-23.137 0.73047-5.7461 0.78125-11.375 2.1367-16.945 3.7695 2.9414-1.9336 5.8086-3.9375 8.7617-5.7969 23.258-14.676 47.879-27.227 73.68-37.789-25.02 5.6055-49.262 15.023-72.133 27.035 3.8867-10.777 6.6953-21.277 9.5273-31.848 1.6328-6.2656 3.1797-12.539 4.6562-18.926 1.4141-6.4062 2.9141-12.816 3.8164-19.812-5.125 4.8711-8.9141 10.68-12.121 16.754-3.1445 6.1094-5.5312 12.551-7.2461 19.164-1.7148 6.6133-2.7461 13.391-3.0352 20.219-0.13281 5.375 0.046875 10.812 1.1172 16.199-0.88672 0.49219-1.8125 0.94922-2.7227 1.4531-24.672 13.5-47.578 30.145-68.688 48.684-7.1758 6.3828-14.062 13.066-20.797 19.883 3.7695-11.219 7.5234-21.984 11.664-32.762z"/>
 <path d="m869.5 395.17c-5.7969-4.2734-12.336-7.2227-19.008-8.9766-6.6719-1.7656-13.379-2.5195-20.027-2.7461-4.8477-0.14453-9.6602 0.070312-14.426 0.51562 4.7656-0.22656 9.5898 0.17969 14.258 0.97266 6.4336 1.1406 12.66 3.2773 18.266 6.2539 5.6055 2.9883 10.598 6.7422 14.746 11.102 2.6055 2.6289 4.8242 5.5312 6.8398 8.5938-3.8867 1.0312-7.9922 1.8242-11.977 2.2422-6.2891 0.57422-12.758 0.37109-19.031-1.4414-6.2656-1.7539-12.238-5.2305-17.113-10.031-4.8477-4.8242-8.6875-10.766-11.352-17.16 2.7461 6.3477 5.832 12.613 10.117 18.238 4.1758 5.6641 9.5391 10.754 16.055 14.375 6.4922 3.6367 14.051 5.6641 21.574 5.9141 7.6211 0.26562 14.855-0.80469 22.367-3.7695l5.7227-2.2578-2.9766-5.543c-3.4023-6.3438-8.3125-11.938-14.035-16.281z"/>
 <path d="m926.35 350.64c-4.9219-6.2891-10.57-12.145-17.305-16.633-6.625-4.5977-14.207-7.8242-21.996-9.3477-7.8125-1.4648-15.781-1.2461-23.207 0.625 7.6445 0.5625 14.988 1.8945 21.73 4.6211 6.7578 2.5781 12.805 6.4453 18.203 11.016 5.293 4.6914 10.066 9.9961 14.016 15.938 2.5195 3.6953 4.8828 7.7031 6.8867 11.734-4.6797 0.16797-9.3125-0.046875-13.812-0.88672-7.0078-1.1055-13.586-3.8164-19.668-7.5859-12.035-7.7891-21.254-20.473-27.348-34.836 0.625 7.8711 3.1562 15.574 6.7422 22.824 3.7422 7.1758 8.832 13.883 15.422 19.141 6.4922 5.3867 14.508 8.9414 22.727 10.922 8.2695 1.8477 16.754 1.9219 24.949 0.96094l7.2461-0.83984-2.6523-6.6016c-3.1953-7.8867-7.0391-14.582-11.934-21.051z"/>
 <path d="m999.17 245.15c-6.625-3.0859-13.609-5.6055-20.867-6.8516-7.1992-1.3906-14.617-1.5586-21.805-0.625-7.1641 1.0664-14.258 3.0859-20.195 6.9844 6.8281-1.6562 13.703-2.0391 20.398-1.6211 6.7188 0.37109 13.273 1.7148 19.57 3.625 6.2656 2.0391 12.359 4.5977 18.109 7.8359 2.9648 1.6914 5.8672 3.457 8.7344 5.3398-3.4922 1.2617-7.0938 2.3516-10.656 3.0703-6.6719 1.6211-13.488 2.0898-20.23 1.5469-6.6953-0.64844-13.309-2.5781-19.355-6.0469-6.1445-3.3359-11.555-8.2422-16.57-13.754 2.8438 6.8867 7.3789 13.234 13.32 18.371 5.9531 5.0625 13.379 8.6406 21.215 10.246 7.8594 1.7266 15.949 1.4141 23.699 0.20312 7.8125-1.5234 15.086-3.707 22.488-7.5l7.8359-4.0312-7.1172-5.293c-5.8164-4.3477-11.961-8.3789-18.574-11.5z"/>
 <path d="m1032 145.11c-8.5195-0.79297-17.328-0.48047-25.727 1.7656-8.3867 2.1953-16.367 5.9023-23.219 10.98-6.9258 4.957-12.758 11.137-17.641 17.832-4.7656 6.7695-8.7461 14.051-11.113 21.852 9.0352-13.379 20.305-24.84 33.434-32.496 6.6016-3.7188 13.609-6.5508 20.879-7.957 5.2578-1.0195 10.633-1.4883 15.996-1.3203-1.4414 5.4492-3.6953 11.039-6.6953 15.793-3.9102 6.707-9.4062 12.301-15.973 16.512-6.5742 4.1875-14.305 6.8516-22.402 8.1836-8.1602 1.4648-16.656 1.5352-25.246 1.2734 8.1484 2.8086 16.824 4.2852 25.703 4.3555 8.8555-0.046875 18.047-1.7773 26.34-6.0352 8.3633-4.0938 15.422-10.812 20.652-18.504 5.0625-7.9688 8.5312-16.297 9.9609-26.074l0.81641-5.6289z"/>
 <path d="m812.46 214.75c-0.50391-12.898 1.1992-25.633 6.5508-35.965 2.7852-5.0625 6.2773-9.5508 10.824-12.887 2.6055-2.0391 5.5195-3.7422 8.5938-5.1602 0.17969 3.4062 0.10937 6.9102-0.13281 10.262-0.3125 5.832-1.5234 11.508-3.3125 16.969-1.9219 5.4102-4.668 10.57-8.4844 15.07-3.7422 4.6055-8.6289 8.3711-14.039 11.711 6.2891-1.0195 12.457-3.6836 17.82-7.7148 5.2695-4.0781 9.7188-9.5039 12.719-15.602 3.1797-6.0469 4.8359-12.695 5.8438-19.309 0.86328-6.7422 0.91016-13.164-0.023438-20.258l-0.82812-6.5391-6.4062 2.1602c-6.6016 2.2188-13.078 5.4727-18.551 10.223-5.3516 4.8125-9.7188 10.883-12.047 17.555-2.4961 6.625-3.2539 13.586-2.9531 20.27 0.45312 6.6836 1.7266 13.25 4.4258 19.215z"/>
 <path d="m902.46 103.3c3.4453-6.3828 7.8828-12.07 13.586-16.32 3.8047-3 8.0898-5.3867 12.613-7.3203 0.35938 4.8594 0.28906 9.9258-0.13281 14.773-0.52734 7.2461-2.1719 14.34-4.6797 21.086-2.6641 6.6836-6.3828 13.008-11.398 18.422-4.9219 5.5312-11.125 10.008-17.902 13.906 7.668-1.5977 15.086-4.9453 21.602-9.8398 6.4453-4.957 11.855-11.484 15.637-18.852 3.9102-7.3203 6.0703-15.434 7.3086-23.508 1.0547-8.2188 1.0781-16.152-0.12109-24.742l-0.89844-6.3945-6.3125 2.0625c-8.0156 2.6055-15.852 6.5156-22.477 12.18-6.5156 5.7227-11.809 12.949-14.82 20.93-3.1797 7.9219-4.3438 16.309-4.2734 24.469 0.25391 8.1602 1.4766 16.234 4.3672 23.699-0.83594-15.789 1.2188-31.555 7.9023-44.551z"/>
</svg>
