<?xml version="1.0" encoding="UTF-8"?>
<svg width="1200pt" height="1200pt" version="1.1" viewBox="0 0 1200 1200" xmlns="http://www.w3.org/2000/svg">
 <path d="m449.07 541.7c-34.391-26.051-70.309-50.023-107.56-71.789-21.461-13.68-40.414-31-65.391-40.039-5.4297-2.0273-10.027-5.8047-13.074-10.738-3.043-4.9297-4.3594-10.734-3.7422-16.496 0.60937-10.953-0.32031-21.938-2.7617-32.633-13.805-63.758 27.613-107.81 64.637-153.62 5.2227-5.4219 12.211-8.8047 19.707-9.5391 54.219-11.922 108.57-23.973 163.16-36.523 26.984-6.2773 51.961 5.1445 78.066 6.5273h-0.003907c24.613 0.56641 47.66 12.184 62.758 31.629 15.273 21.398 34.746 39.461 57.23 53.09 6.6367 2.8984 11.699 8.5156 13.887 15.418 2.1875 6.9023 1.2891 14.414-2.4648 20.602-21.461 52.465-42.172 105.18-62.754 157.77-2.8867 7.4062-7.7812 14.434-5.5234 22.719 3.6055 2.6562 8.1484 3.7031 12.551 2.8867 55.781-3.9922 111.78 3.8242 164.33 22.941 52.551 19.121 100.48 49.109 140.66 88.012 109.95 103.04 134.92 227.55 82.711 360.84-54.594 139.06-167.93 220.14-327.45 243.36-96.141 13.93-184.88-10.168-266.21-58.863-112.21-66.645-168.81-163.16-180.36-282.27-7.2812-74.176 18.449-141.95 59.867-205.34l0.003906 0.003906c30.004-44.914 70.383-81.938 117.73-107.94zm222.15 640.1c214.25-3.7656 389.08-168.31 379.54-358.96-9.2891-184-177.09-332.48-387.2-327.46-217.76 5.1484-383.68 164.92-372.51 359.71 11.168 194.79 189.89 327.33 380.17 326.45zm-335.11-829.87c47.695 53.215 97.52 102.04 147.47 150.61 4.2656 4.2656 11.297 9.6641 16.316 9.0352 26.105-2.7617 49.324-14.809 73.676-22.969 5.2695-1.8828 4.6445-8.6602 5.6484-13.555h-0.003907c11.734-54.746 20.117-110.16 25.105-165.93 2.0078-21.086-1.1289-22.719-25.98-23.598l-0.003906 0.003906c-35.074 0.38281-70.008 4.5898-104.17 12.551-49.117 8.6758-96.035 26.977-138.06 53.844zm253.41-85.848 2.6367-6.4023c-27.234-21.086-54.473-42.297-81.832-62.754h-0.003906c-5.6406-3.5859-12.574-4.5039-18.953-2.5117l-134.17 28.617c-4.25 0.55859-8.2422 2.3555-11.477 5.168-3.2383 2.8125-5.5742 6.5156-6.7188 10.645-9.4336 33.211-14.91 67.422-16.316 101.91 82.332-55.223 172.45-71.789 266.83-74.676zm12.551 216.25c20.082 3.2617 24.098-11.172 28.867-22.719 16.945-40.918 33.262-82.207 49.324-123.5 4.8945-12.551 16.816-25.98 9.5391-39.535-7.2812-13.555-25.102-3.5156-36.148-9.4141-4.043-1.7188-8.2461-3.0195-12.551-3.8906-9.2891-2.2578-14.559 1.2539-16.066 9.7891-1.3203 5.8828-2.3242 11.832-3.0117 17.82-3.6758 47.766-10.301 95.258-19.832 142.2-3.9258 9.3203-4.1055 19.797-0.5 29.246zm-281.9-120.62c-7.082 5.5898-11.859 13.586-13.43 22.469-11.172 29.996-11.797 32.258 15.562 50.203 44.809 30.375 91.246 58.863 137.18 87.855 3.5156 2.2578 9.6641 5.7734 14.184-2.5117-50.707-52.043-101.88-104.71-153.5-158.02zm362.35-91.621c-16.219-13.453-31.254-28.277-44.934-44.305-22.465-31.754-56.102-32.633-90.617-34.141-2.5469 6.5391 0.066406 13.953 6.1484 17.445 21.461 16.816 42.672 34.141 65.516 49.199 16.57 11.047 36.902 12.93 63.887 11.801zm-403.77 132.54c25.102-46.816 27.488-91.621 37.652-140.7-51.586 40.285-48.824 86.223-37.652 140.7z"/>
 <path d="m430.62 136.43c-22.75-31.719-38.496-67.914-46.188-106.18 20.332 10.543 26.355 29.621 33.387 47.066 7.0273 17.449 24.473 32.758 12.801 59.117z"/>
 <path d="m590.52 0c4.1406 34.516-4.6445 67.273-9.5391 100.41-0.12891 4.3125-3.5938 7.7773-7.9062 7.9102-2.625 0.17188-5.1914-0.83984-6.9883-2.7617-1.8008-1.9219-2.6445-4.5469-2.3008-7.1562-0.53125-7.9023 0.015626-15.84 1.6328-23.594 4.5195-26.066 12.984-51.289 25.102-74.805z"/>
 <path d="m775.15 112.96c-7.0273 31.629-32.633 51.461-51.461 75.305l0.003906 0.003906c-2.6719 3.6836-7.7891 4.5703-11.547 2.0078-3.5352-2.25-5.3281-6.4336-4.5195-10.543 0.45312-3.0117 1.6641-5.8633 3.5156-8.2852 18.426-22.457 39.984-42.152 64.008-58.488z"/>
 <path d="m860.37 254.54c-25.23 18.039-53.199 31.898-82.836 41.039-2.3945 1.1367-5.1641 1.1641-7.582 0.078125-2.4141-1.0898-4.2344-3.1797-4.9688-5.7227-1.3984-4.0508 0.57422-8.4922 4.5156-10.168 29.246-11.297 57.859-25.352 90.871-25.227z"/>
 <path d="m211.98 123.38c28.062 10.98 54.008 26.734 76.688 46.566 1.7109 2.3906 1.9531 5.5312 0.62891 8.1562-1.9688 2.207-4.8281 3.4062-7.7812 3.2656-27.145-14.008-50.879-33.801-69.535-57.988z"/>
 <path d="m128.4 243.11c26.875-0.26172 53.633 3.6367 79.32 11.547 3.0391 0.90234 4.9609 3.8906 4.5195 7.0273-0.12891 1.5664-0.875 3.0195-2.0781 4.0312s-2.7578 1.5039-4.3242 1.3672c-25.102-5.2695-51.836-3.3906-75.305-15.688-1.0039-0.62891-0.25391-3.5156-2.1328-8.2852z"/>
 <path d="m214.62 366.24c-27.062 6.1992-54.699 9.5625-82.461 10.039 29.746-20.332 54.098-23.344 82.461-10.039z"/>
 <path d="m204.08 504.8c15.562-13.43 31-26.984 46.941-40.039 2.8867-2.3828 8.2852-4.2656 11.172 0 1.3828 2.6328 1.3828 5.7773 0 8.4102-13.59 17.246-31.777 30.297-52.465 37.652z"/>
 <path d="m768.75 384.19c-9.4141 12.551-22.844 13.93-34.891 17.445-5.7734 1.7578-11.043 1.1289-13.18-4.5195-2.1328-5.6484 2.0078-9.2891 7.7812-10.418h0.003907c12.859-4.9258 26.914-5.8008 40.285-2.5078z"/>
 <path d="m676.25 559.9c197.93-1.6328 314.65 135.93 313.77 278.76-0.87891 142.83-125.51 287.67-320.43 288.67-165.8 0-307.38-128.52-308.5-282.4-1.1289-153.87 140.2-288.42 315.16-285.03zm8.4102 13.93c-176.72-1.3789-305.74 118.48-305.99 268.84 0 143.08 121.62 269.09 288.67 268.71 173.83 0 308.12-124 305.62-278.51-2.6367-161.78-158.64-262.44-288.3-259.3z"/>
</svg>
