<?xml version="1.0" encoding="UTF-8"?>
<svg width="1200pt" height="1200pt" version="1.1" viewBox="0 0 1200 1200" xmlns="http://www.w3.org/2000/svg">
 <path d="m396.14 657.84c27.516-57.422 74.109-104.58 131.26-132.79 5.5781-2.7656 12.375-0.46875 15.141 5.1094s0.46875 12.375-5.1094 15.141c-52.594 25.969-95.531 69.422-120.84 122.29-1.9219 4.0312-6 6.4219-10.219 6.4219-1.6406 0-3.2812-0.375-4.875-1.125-5.625-2.6719-8.0156-9.4219-5.2969-15.094zm666.56 158.72c0 25.828-21.047 46.875-46.922 46.875h-162.71c-1.7344 16.875-11.484 34.688-32.859 47.062-8.9531 6.0469-19.734 11.953-31.969 17.484-115.5 52.219-191.26 76.078-255.94 76.078-35.484 0-67.688-7.1719-101.3-20.859-28.312-11.484-55.594-27.141-81.984-42.234-19.641-11.25-39.984-22.875-60.469-32.672l-27.188 0.046875c-0.375 23.953-20.016 43.359-44.062 43.359h-36.047c-24.281 0-44.062-19.781-44.062-44.109v-211.82c0-24.281 19.734-44.062 44.062-44.062h36.047c23.25 0 42.375 18.094 43.969 40.969h27.609c9.8906-3.8906 20.766-6.9375 32.25-8.9531 38.438-131.68 151.26-227.26 285-245.68v-43.641c0-26.016 21.188-47.203 47.203-47.203 26.062 0 47.25 21.188 47.25 47.203v43.641c164.9 22.594 293.11 161.81 298.6 331.5h16.594c25.875 0 46.922 21.047 46.922 46.922zm-823.87-120.71c0-11.812-9.6562-21.422-21.469-21.422h-36.047c-11.812 0-21.422 9.6094-21.422 21.422v211.82c0 11.859 9.6094 21.469 21.422 21.469h36.047c11.859 0 21.469-9.6562 21.469-21.469zm389.95-260.06c8.1562-0.5625 16.312-0.89062 24.562-0.89062 8.2969 0 16.5 0.32812 24.656 0.89062v-41.297c0-13.547-11.062-24.562-24.656-24.562-13.547 0-24.562 11.016-24.562 24.562zm-283.13 245.39c49.031-2.0625 104.95 14.297 148.31 59.859l53.578 14.578c15.047 4.125 33.656 9.1875 51.234 14.016h377.81c-6-173.11-148.64-312.14-323.21-312.14-140.58 0-264.84 91.172-307.69 223.69zm482.95 165.42c-5.2031-12.609-21.609-24.562-50.625-16.734l-97.688 28.734c-9.2812 20.156-29.625 32.953-51.516 32.953-4.9219 0-9.9375-0.65625-14.906-2.0156l-126.32-34.453c-6-1.6406-9.5625-7.875-7.9219-13.875 1.6406-6 7.875-9.5625 13.875-7.9219l126.32 34.453c18.094 4.9219 36.75-5.7188 41.812-23.672 3.75-18-6.8438-35.766-24.234-40.5-22.406-6.0938-66.047-18-95.812-26.109l-56.625-15.422c-2.0625-0.5625-3.8906-1.6875-5.3438-3.2344-55.125-59.859-134.11-64.922-184.18-44.297-1.3594 0.5625-2.8125 0.84375-4.3125 0.84375h-29.719v170.44l29.672-0.046874c1.6406 0 3.2812 0.375 4.8281 1.0781 22.078 10.359 43.594 22.688 64.359 34.547 26.906 15.422 52.359 29.953 79.266 40.922 87.938 35.719 167.26 22.875 339.37-54.891 11.25-5.1094 21-10.453 28.969-15.844 0.23438-0.14063 0.46875-0.32813 0.70312-0.46875 21.469-12.328 25.5-31.219 20.016-44.438zm211.45-30.094c0-13.406-10.922-24.328-24.328-24.328h-351.98c12.422 10.031 20.25 25.125 21.094 41.484l86.812-25.547c0.09375-0.046876 0.1875-0.046876 0.23438-0.046876 40.5-10.922 68.109 7.1719 77.531 29.906 0.375 0.9375 0.70312 1.875 1.0312 2.8125h165.19c13.406 0 24.328-10.875 24.328-24.281zm-461.63-229.31c1.5469-21.281 13.406-39.281 30.938-46.922 14.203-6.1875 29.859-4.875 43.969 3.5156 14.062-8.3906 29.719-9.75 43.969-3.5625 17.578 7.6406 29.438 25.641 31.031 46.969 1.2188 16.922-3 60.656-68.953 101.67-1.8281 1.125-3.8906 1.6875-5.9531 1.6875s-4.125-0.5625-5.9531-1.6875c-65.953-41.062-70.219-84.844-69-101.72zm74.953 78.703c49.781-33.141 53.25-64.688 52.359-77.016-0.9375-12.891-7.6406-23.578-17.484-27.891-8.8594-3.8438-18.75-1.9219-27.844 5.3906-4.125 3.3281-9.9844 3.3281-14.156 0-6.0469-4.8281-12.422-7.3125-18.609-7.3125-3.1406 0-6.2812 0.65625-9.2344 1.9219-9.7969 4.2656-16.5 14.953-17.438 27.844-0.89062 12.328 2.625 43.875 52.406 77.062zm-273.1-300.19c7.5 10.969 7.875 24.328 0.89062 35.719-26.344 43.266-24.516 81.375-23.344 92.016 0.65625 5.7656 5.5312 10.078 11.203 10.078 0.42188 0 0.84375 0 1.2656-0.046876 6.1875-0.70312 10.688-6.2812 9.9844-12.469-0.70312-6.2812-3-39.656 20.156-77.766 11.531-18.891 10.969-42-1.5469-60.281-4.7812-6.9844-10.266-13.688-16.172-19.828-6.5156-6.8438-9.5156-14.719-9.1406-24.141 0.375-9.4219 3.9375-17.016 11.016-23.297 19.078-16.969 29.906-37.875 32.297-62.156 0.60938-6.2344-3.9375-11.766-10.125-12.375-6.1875-0.60937-11.766 3.9375-12.375 10.125-1.8281 18.422-10.172 34.406-24.844 47.484-11.531 10.266-17.953 23.859-18.562 39.281-0.60938 15.375 4.7344 29.438 15.375 40.594 5.1094 5.3438 9.75 11.062 13.875 17.016zm114.33-70.594c4.9219 3.375 9.4219 7.0312 13.5 11.016 5.7188 5.5312 5.9531 10.5 0.79688 16.078-27.75 30.188-25.875 57.938-24.656 65.719 0.89062 5.5781 5.6719 9.5625 11.156 9.5625 0.60938 0 1.1719-0.046876 1.7812-0.14063 6.1875-0.98437 10.359-6.75 9.4219-12.938-0.60938-3.75-2.4375-23.578 18.938-46.875 13.359-14.531 12.656-33.656-1.7344-47.578-4.9688-4.8281-10.5-9.3281-16.453-13.406-7.7812-5.3906-7.5-9.8438-7.4062-11.531 0.09375-1.5938 0.375-6.4688 9.2344-11.719 19.641-11.578 31.406-26.906 33.984-44.391 0.89062-6.1875-3.3281-11.906-9.5156-12.844s-11.906 3.3281-12.844 9.5156c-1.5938 10.641-9.3281 20.156-23.109 28.266-15.891 9.4219-19.781 21.422-20.297 29.859-0.51562 8.5781 2.0625 21.047 17.156 31.453zm427.45-9.4688c7.0312 6.2344 10.641 13.875 11.016 23.25 0.375 9.4219-2.625 17.297-9.1875 24.094-5.8125 6.0469-11.25 12.75-16.172 19.875-12.469 18.281-13.078 41.344-1.5469 60.234 23.203 38.109 20.859 71.438 20.156 77.766-0.70312 6.1875 3.7969 11.812 9.9844 12.469 0.42188 0.046874 0.84375 0.046874 1.2656 0.046874 5.6719 0 10.594-4.2656 11.203-10.078 1.1719-10.641 3-48.75-23.344-92.016-6.9375-11.391-6.6094-24.75 0.89062-35.672 4.2656-6.1875 8.8125-11.766 13.828-17.016 10.688-11.156 16.031-25.219 15.469-40.641-0.60938-15.469-7.0312-29.062-18.562-39.281-14.672-13.125-23.016-29.109-24.797-47.484-0.60938-6.2344-6.1406-10.734-12.375-10.125-6.2344 0.60938-10.734 6.1406-10.125 12.375 2.3906 24.234 13.219 45.141 32.297 62.156zm-124.69-32.438c8.9062 5.3438 9.1875 10.172 9.2812 11.766 0.09375 1.6875 0.375 6.1875-7.3594 11.484-5.9531 4.0781-11.531 8.625-16.453 13.406-14.391 13.969-15.094 33.094-1.7344 47.578 21.516 23.438 19.547 43.078 18.938 46.781-1.0312 6.1406 3.1406 12 9.2812 13.031 0.60937 0.09375 1.2656 0.14063 1.875 0.14063 5.4375 0 10.219-3.9375 11.156-9.4688 1.3125-7.7344 3.3281-35.391-24.609-65.812-5.1562-5.5781-4.875-10.547 0.84375-16.078 4.0312-3.9375 8.5781-7.6406 13.547-11.016 15.047-10.406 17.625-22.828 17.109-31.453-0.46875-8.3906-4.4062-20.344-20.344-29.906-13.734-8.0625-21.469-17.531-23.062-28.219-0.89062-6.1875-6.6562-10.453-12.844-9.5156-6.1875 0.89062-10.453 6.6562-9.5156 12.844 2.5781 17.531 14.344 32.906 33.891 44.344z"/>
</svg>
