<?xml version="1.0" encoding="UTF-8"?>
<svg width="1200pt" height="1200pt" version="1.1" viewBox="0 0 1200 1200" xmlns="http://www.w3.org/2000/svg">
 <path d="m1131.5 309c14.25 34.406 11.156 74.25-1.5 108.61-13.406 36.281-37.688 67.172-64.594 94.453-13.547 13.734-27.844 26.719-42.281 39.516-15.188 13.547-30.516 27.141-47.672 38.203-29.344 18.891-63.469 27.891-96.281 38.719-25.547 8.4375-51 18.656-71.484 36.047 2.1094 0.46875 4.2188 1.2188 6.1875 2.4375 6.0938 3.75 9.5625 10.5 10.5 17.438 2.1562 16.969-11.812 30.844-23.156 41.344-5.8125 5.3438-11.906 10.266-18.375 14.812 12.094-3.6094 23.766-9.0938 35.156-14.625 17.766-8.6719 35.719-18 55.219-21.984 17.062-3.4688 44.812-3.75 47.297 19.406 1.125 10.406-3.8906 19.5-11.016 27.281 6.6562-2.6719 13.312-5.3438 20.062-7.875 10.828-4.0312 21.891-8.7188 33.234-11.109 8.625-1.7812 18.188-2.5312 26.531 0.9375 8.5781 3.5156 14.344 11.719 14.062 21.141-0.32812 10.969-8.1094 20.438-15.75 27.516-1.9219 1.7812-3.8906 3.5156-5.8594 5.25 14.438-7.875 29.672-13.875 46.688-15 12.094-0.75 23.156 2.9531 29.25 14.109 5.625 10.359 6.0938 22.969 3 34.172-5.2031 18.797-19.266 36.188-34.312 48.281-19.594 15.797-42.984 27.281-65.344 38.531-31.781 15.984-64.312 30.516-97.219 44.109-29.484 12.188-59.344 23.812-89.906 33.047-35.062 10.547-72.844 14.438-109.12 8.1094-25.641-4.5-48.938-16.031-70.125-30.938-20.906-14.766-40.5-31.688-58.875-49.5-18.75-18.141-36.188-37.594-52.172-58.125-6.0938-7.875-11.719-16.219-18.188-23.766-5.9531-6.9844-12.375-13.594-18.891-20.156-7.0312-7.0781-14.25-13.969-21.656-20.719-6.2344-5.625-12.562-11.531-19.688-16.031-9.5625-6.0938-20.672-10.031-32.109-9.5156-12.094 0.51562-21.375 7.5-30.562 14.531-18.141 13.875-38.906 22.031-61.875 22.594-21.234 0.51562-42.656-5.4375-60.141-17.484-3.8438 1.5-7.6406 2.9531-11.484 4.4531-6.4688 2.5312-12.469 5.625-18.703 8.8125-5.4375 2.8125-10.875 5.625-16.266 8.4375 0.09375 0.375 0.14062 0.70312 0.1875 1.0781 2.1562 22.688 16.5 42 27.281 61.312 19.266 34.453 29.062 73.781 29.062 113.2-0.046875 39.516-9.9375 79.031-29.344 113.48-3.7031 6.5625-13.828 0.65625-10.125-5.9062 10.594-18.75 18.094-39 22.688-60.094 8.0625-37.219 6.4688-76.453-4.5938-112.88-5.7188-18.75-14.25-35.906-24.094-52.688-9.5625-16.312-19.078-32.953-22.031-51.75-14.297 7.5-28.547 15.047-42.75 22.734-6 3.2812-11.438-4.2656-7.125-9.1875 12.141-13.875 24.562-27.469 37.219-40.875-0.28125-0.46875-0.5625-0.9375-0.84375-1.5-8.625-21.75-11.25-46.125-12.656-69.281-1.2188-20.484-0.84375-41.109 1.3125-61.5-0.28125-0.375-0.51562-0.75-0.70312-1.125-15.281 1.6406-30.984 4.2656-45.984-0.1875-14.484-4.3125-28.031-14.625-31.5-30-3.375-15.094 3.4219-29.953 18.047-35.672 13.125-5.1562 27.656-1.3125 39.422 5.25 1.2188 0.65625 2.3906 1.3594 3.5625 2.0625-6.7031-8.7656-13.125-17.766-18.562-27.375-10.266-17.953-15.656-39.375-11.016-59.906 2.25-9.9375 7.2656-19.875 14.906-26.766 8.7656-7.875 20.953-11.766 31.875-5.8594 9.6562 5.25 17.156 15.375 21.844 25.078 4.875 10.031 7.5938 20.859 8.7188 31.969 1.125 11.672 0.98438 23.625 0.1875 35.438 2.5312-4.0312 5.0625-8.0156 7.6875-12-0.65625-0.9375-1.0312-2.0625-1.125-3.2812-1.125-17.203-5.8594-33.844-9.375-50.625-5.5312-26.484-8.7188-60.047 11.109-81.703 9.2344-10.078 23.203-13.969 35.625-7.3125 8.25 4.5 13.312 12 16.219 20.438 9.9375-13.219 24.469-23.953 41.25-24.562 19.078-0.70312 36 14.766 38.016 33.469 2.2969 21.469-13.406 39.656-30.656 50.062-18.234 11.016-39.516 16.031-56.812 28.688-1.5 1.125-3.4688 1.0312-5.1562 0.28125-3.5156 4.5938-7.0312 9.2812-10.406 13.969-0.28125 0.375-0.5625 0.75-0.84375 1.125 12-4.2188 24.422-7.4062 36.938-9.0938 8.3438-1.125 16.969-0.9375 24.75 2.7188 6.8438 3.2812 11.906 9.6562 13.828 16.969 3.8906 14.672-3 30.562-13.594 40.688-12.375 11.812-28.828 18-45.562 19.969-19.266 2.3438-38.812-1.4531-57.375-6.4688-0.84375 1.5938-1.6406 3.2344-2.3438 4.875l-0.42188 0.98438c-0.09375 0.14062-0.42188 0.98438-0.42188 1.0312-0.375 0.9375-0.75 1.8281-1.0312 2.7188-1.3125 3.5156-2.3438 7.125-3.3281 10.688 0.14062 0.65625 0.1875 1.3125 0.046875 2.0156v0.046875c4.0312-3.8906 8.5781-7.2188 13.875-9.5625 7.125-3.0938 14.625-3.9375 22.312-3 6.5625 0.75 13.031 2.1562 18.938 5.2031 12.656 6.6562 16.266 20.812 10.828 33.516-5.3438 12.469-17.578 19.031-30 22.922-14.391 4.5-29.25 7.6875-43.875 11.438-0.32812 13.594 0.046875 27.234 1.125 40.781 1.4531 17.812 3.9375 36.094 9.9375 53.156 4.9688-5.1562 9.9375-10.312 15-15.422 3.375-3.375 6.75-6.75 10.125-10.078 3-2.9062 6.9844-5.8594 9.4688-9.0938 1.9688-2.5312 3.5625-6.4688 4.2188-9.375 1.6875-7.2188 4.3125-14.297 7.2188-21.094 5.625-13.359 13.172-26.062 23.578-36.281 21.281-20.906 51-26.906 79.406-31.406 15.094-2.3906 30.188-4.6875 45-8.7656 6-1.6875 12-3.5625 17.859-5.6719 0.28125-0.28125 0.65625-0.46875 1.0312-0.65625 0.65625-0.28125 1.3125-0.65625 1.9688-1.0312l0.84375-0.5625c1.125-1.0312 2.2031-2.0625 3.1875-3.2344 0.09375-0.09375 0.14062-0.1875 0.1875-0.23438 0 0 0-0.046875 0.09375-0.1875 0.23438-0.28125 0.46875-0.60938 0.65625-0.9375 0.42188-0.65625 0.84375-1.3125 1.2656-2.0156 0.89062-1.5469 1.6875-3.1406 2.4375-4.7344 1.2188-2.6719 2.4844-6.5156 3.4688-9.9375 2.1562-7.8281 3.4219-15.469 4.0312-23.391 0.51562-6.7031 0.70312-13.594-0.23438-20.25-1.6875-12.188-5.625-23.906-8.1562-35.812-2.5312-11.812-3.4688-23.578-1.6875-35.531 1.5938-10.828 5.3438-21.141 10.172-30.938 9.8438-19.969 24.422-37.312 38.812-54.188 34.266-40.266 68.531-80.531 102.84-120.79 8.625-10.078 17.203-20.25 25.781-30.328 4.3125-5.0625 8.625-10.078 12.891-15.141 3.5625-4.1719 6.9375-8.4844 11.156-12 7.0781-5.9531 16.688-11.719 26.344-9.5625 4.7344 1.125 8.9062 4.5938 11.062 8.9062 2.625 5.3906 2.3438 11.344 1.2656 17.062-2.0625 11.531-5.4844 22.969-8.8594 34.172-3.4688 11.578-7.4062 23.062-11.812 34.312-7.1719 18.422-15.469 36.375-24.797 53.812 8.9062-3.9844 16.875-10.875 24-17.906 9.9844-9.8438 19.125-20.625 30.281-29.297 5.7188-4.4531 11.719-8.1562 18.469-10.828 7.9688-3.1406 17.766-5.1562 25.031 0.51562 6.6562 5.1562 7.4062 13.828 6 21.562-1.5 8.4375-6 16.125-10.125 23.438-5.1562 9.1875-10.969 18.047-17.25 26.531 4.6875-1.875 9.4688-3.5625 14.344-4.9688 3.375-0.98438 7.7812 1.8281 7.4062 5.625-1.5938 16.594-7.2188 32.391-16.312 46.031 2.3906-0.51562 4.7812-1.0312 7.1719-1.5 3.4219-0.75 7.7812 1.5938 7.4062 5.625-1.5469 17.438-7.5938 34.125-17.156 48.562 31.875-6.7031 59.906-24.75 81-49.453 25.031-29.344 38.906-67.125 51.094-103.17 12.562-37.266 23.438-75.281 40.781-110.72 8.1094-16.688 17.625-32.625 29.062-47.297 5.5312-7.125 11.531-13.875 18-20.062 6.5625-6.375 13.781-12.938 21.75-17.531 8.8125-5.1562 19.547-5.3438 26.156 3.2812 5.4375 7.125 6.0938 16.828 6.75 25.406 1.5 19.125-0.28125 38.531-5.1562 57.094 2.4844-0.375 4.8281-1.6875 7.2188-3.75 4.7344-4.2656 8.1562-9.75 11.016-15.469 3.5625-7.2188 6.1875-14.906 9.1875-22.406 3.375-8.5312 6.8438-17.062 10.219-25.641 7.9688-19.922 22.688-47.438 48.422-43.172 12.281 2.0625 21.422 12.328 26.25 23.25 5.0625 11.438 6.8438 24.281 6.4688 36.75-1.4062 44.578-28.828 84.281-32.625 128.16 7.5469-9.9844 15.422-19.734 24.234-28.594 5.8125-5.8125 12-11.203 18.656-16.031 6.4688-4.6875 13.969-9.8438 21.75-11.906 4.5-1.2188 9.4688-0.98437 13.406 1.7812 3.8438 2.6719 5.7188 6.8438 7.4062 11.062 2.7188 7.0312 4.5 14.344 5.5312 21.797 2.3438 17.156 0.1875 34.781-5.9062 50.859 7.5-7.6875 14.484-15.938 20.766-24.609 2.4375-3.375 7.8281-4.1719 10.078 0 2.25 4.0312 4.2188 8.25 5.9531 12.562zm-9.5625 95.859c9.4219-30.656 10.5-64.781-2.5781-94.359-13.5 17.062-29.25 32.203-46.922 45.047-2.3906 1.7812-5.8594 0.5625-7.5938-1.5-1.8281-2.2969-1.5-5.625 0.46875-7.6875 10.172-10.688 17.344-23.859 21.188-38.062 3.375-12.375 4.3125-25.641 2.25-38.344-1.0312-6.4688-2.6719-13.219-5.3438-19.266-1.125-2.4844-2.1562-4.4531-5.0625-4.0312-3.2812 0.46875-6.375 2.4375-9.1875 4.0312-25.594 14.438-43.5 39-60.469 62.344-3.4688 4.7344-10.453 3.0469-10.922-3-2.2031-28.219 7.5-55.5 16.781-81.703 7.9688-22.5 16.594-45.797 15.984-69.984-0.28125-11.156-2.4375-22.875-8.6719-32.344-5.4375-8.3438-14.812-13.312-24.234-9.5625-8.9531 3.5625-15.281 13.406-19.734 21.844-6.4688 12.281-10.969 25.734-16.125 38.625-5.0625 12.609-9.2812 25.781-17.812 36.562-7.0312 8.9062-17.906 15.75-29.438 11.531-2.9062-1.0312-5.0625-3.9844-4.125-7.2188 1.5-4.875 2.7656-9.8438 3.8438-14.812 2.0625-9.9844 3.1406-20.203 3.2812-30.469 0.09375-9.1875 0.09375-19.125-2.3438-28.031-0.75-2.7188-1.9688-5.8594-4.1719-7.2656-3-1.9688-6.8438 0-9.6562 1.6875-7.4062 4.5-14.062 10.688-20.25 16.781-25.312 24.844-42.328 57-55.312 89.625-14.625 36.703-24.609 75-38.906 111.84-13.219 34.125-29.906 67.594-57.094 92.766-23.953 22.125-53.812 36.469-86.203 40.359-6.8438 7.3125-14.766 13.734-23.578 18.797-6.5625 3.75-12.469-6.375-5.9062-10.125 23.156-13.312 39.891-37.031 44.578-63.281-5.0625 1.0781-10.031 2.1562-15.094 3.1875-5.6719 1.2188-9.8906-5.4375-5.7188-9.75 11.25-11.719 19.078-26.625 22.266-42.516-9.9375 3.5625-19.406 8.2031-28.406 13.828-5.8594 3.6562-11.531-4.5-7.125-9.1875 14.25-15.281 26.531-32.344 36.375-50.812 3.2812-6.1875 6.8438-12.656 6.75-19.688-0.046875-2.4375-0.51562-4.4062-2.1562-5.7188-2.0156-1.5938-5.9531-1.0312-8.7656-0.32812-11.812 3.0938-21.516 10.969-30.281 19.453-18.562 18-35.531 41.297-63.234 44.203-4.5938 0.46875-7.125-5.2969-5.0625-8.8125 2.8125-4.9688 5.625-9.9375 8.25-14.953 10.922-20.625 20.25-42.094 27.938-64.125 3.8438-11.109 7.3125-22.312 10.266-33.703 1.5-5.625 2.9062-11.25 4.125-16.875 0.75-3.7031 1.7812-8.7188-0.9375-11.812-1.8281-2.1562-4.0312-2.0625-6.9375-1.2188-3.9844 1.125-7.6875 3.4688-10.875 6.0938-3.9375 3.2812-7.125 7.2656-10.406 11.156-4.1719 4.875-8.3438 9.8438-12.516 14.719-16.594 19.453-33.141 38.906-49.688 58.406-16.688 19.594-33.375 39.234-50.062 58.875-15.656 18.375-31.875 36.375-46.641 55.5-12.562 16.219-24.094 34.219-28.359 54.562-2.25 10.5-1.8281 21.234 0.23438 31.781 2.2969 11.672 6 23.062 8.0625 34.781 2.8125 15.562 1.7812 31.5-1.5469 46.922-1.2188 5.5312-2.8125 11.953-5.3438 17.953 1.7344-0.79688 3.4688-1.5938 5.1562-2.3906 29.625-13.969 57.328-31.688 84.844-49.359 6.375-4.0781 12.281 6.0938 5.9062 10.125-30.75 19.781-61.781 39.562-95.438 54.094-14.625 6.2812-29.625 11.719-45.094 15.469-14.672 3.5625-29.672 5.5312-44.578 7.9688-28.547 4.7344-57.516 12.281-75.656 36.656-8.5781 11.531-14.344 24.891-18.375 38.578-1.5 4.9688-2.9062 9.2812-5.2969 13.828-2.8125 5.4375-7.6875 9.1875-12 13.406-16.875 16.594-33.281 33.703-49.312 51.141 3.0938-1.6406 6.1875-3.2812 9.2812-4.875 13.594-7.125 27.188-14.156 40.875-21.094 5.9531-3 12.281-5.2031 18.516-7.5938 2.25-0.84375 4.5938-2.1562 6.9375-2.6719 4.7812-1.0781 9.9844 4.4062 13.969 6.6562 9.75 5.4375 20.578 9 31.688 10.5 23.391 3.1875 47.25-2.5781 66.328-16.453 10.266-7.5 19.875-16.078 32.719-18.75 12.234-2.5781 24.75-0.46875 36.141 4.4062 18.094 7.7812 32.906 23.25 46.875 36.844 7.5469 7.3125 15 14.812 22.031 22.594 6.6562 7.4062 12.375 15.328 18.375 23.25 16.406 21.75 34.5 42.188 53.906 61.219 19.688 19.312 40.688 37.828 63.609 53.25 23.156 15.562 48.375 25.875 76.359 28.266 22.031 1.875 45.188 0.75 66.844-3.9375 29.344-6.4219 57.938-17.438 85.875-28.406 35.062-13.688 69.562-28.688 103.45-45.047 26.062-12.562 52.969-25.406 76.547-42.375 4.125-2.9062 8.4844-6.7969 12.797-11.25 8.9062-9.0938 17.25-19.688 21.328-31.875 3.4219-10.266 4.2656-25.875-5.3438-33.469-8.0625-6.2812-23.25-2.1562-32.062 0.46875-42.094 12.609-72.469 50.531-117.09 57-5.9531 0.84375-11.062-7.5938-4.5-10.688 22.547-10.828 44.062-23.719 64.125-38.672 8.9062-6.6562 17.625-13.594 25.734-21.141 5.9062-5.4844 15.422-15.094 11.484-24.094-2.8125-6.375-10.688-7.1719-16.781-6.9375-8.7188 0.28125-16.875 3.3281-24.938 6.1875-27 9.4219-53.344 20.344-79.125 32.719-15.188 9.6562-31.219 18-47.812 24.984-6.75 2.8594-12.656-6.2812-5.9062-10.078 15.656-8.9062 31.641-17.25 47.906-25.125 5.5781-3.5156 11.062-7.2188 16.406-11.109 7.875-5.7656 16.312-11.625 22.312-19.5 4.5-5.8594 9.375-15.188 3.2812-21.656-5.6719-6-16.219-5.1562-23.625-4.2188-9 1.125-17.766 3.7969-26.203 7.0312-33.469 12.75-64.266 36.141-101.62 35.109-5.4375-0.1875-8.4375-8.25-2.9531-10.922 15.75-7.6875 30.281-17.531 43.031-29.625 8.4375-8.0625 22.875-21.094 16.969-34.266-3.2812-7.3125-10.688-6.1875-17.203-4.4531-0.75 0.42188-1.5469 0.65625-2.3438 0.60938-7.9688 2.1562-15.938 4.3125-23.953 6.4688-34.875 9.4688-69.75 18.891-104.58 28.312-7.3125 1.9688-10.406-9.3281-3.0938-11.297 22.828-6.1875 45.656-12.375 68.531-18.562 19.828-5.3438 39.656-10.734 59.531-16.125 0.09375 0 0.14062-0.046875 0.23438-0.046875 2.4375-2.6719 4.9219-5.25 7.5938-7.6875 24.281-22.406 55.594-33.891 86.484-43.875 32.531-10.5 65.531-20.156 93.797-40.125 16.031-11.297 30.562-24.656 45.094-37.734 14.25-12.75 28.266-25.781 41.438-39.656 25.406-26.672 47.906-57.188 58.828-92.719z"/>
 <path d="m1074 396s0.14062 0 0.28125-0.09375c0.09375-0.046875 0.09375-0.09375 0.14062-0.14062-0.1875 0.09375-0.375 0.1875-0.42188 0.1875zm0.46875-0.23438c-0.75 7.0312-11.953 6.9375-11.625-0.46875 0.28125-6.375 5.1094-10.641 11.25-11.391 6.2812-0.75 12 2.4375 14.672 8.1562 5.25 11.25-0.9375 25.125-6.7969 34.922-6.6562 10.969-15.562 20.297-24.234 29.625-9.75 10.5-19.453 21.047-29.156 31.594-8.1562 8.7656-16.969 18.656-29.438 20.672-3.1406 0.51562-6.2812-0.75-7.2188-4.0781-0.75-2.8125 0.9375-6.75 4.125-7.2188 10.828-1.7344 18-10.969 25.031-18.516 8.1562-8.8125 16.312-17.625 24.422-26.438 7.125-7.6875 14.531-15.188 20.906-23.531 5.5781-7.3125 11.484-16.453 12.516-25.875 0.1875-1.7812 0.28125-3.75-0.375-5.4375-0.1875-0.60938-0.5625-1.2188-0.98438-1.7344-0.42188-0.46875-0.375-0.32812-0.65625-0.42188-0.23438-0.09375-1.3125-0.23438-1.9688 0-0.09375 0-0.1875 0.09375-0.32812 0.14062z"/>
 <path d="m1054.9 369.71c2.2969 14.438-4.5938 28.406-11.719 40.5-7.2188 12.188-16.125 23.391-26.438 33.094-5.4844 5.1562-13.781-3.0938-8.2969-8.2969 9.8438-9.2812 18.281-19.875 25.125-31.594 5.4375-9.375 12.234-21.469 9.5625-32.719-0.98438-4.2656-3.2344-8.5312-7.1719-10.781-4.2188-2.3438-9-1.7812-13.312 0.046875-10.688 4.4531-18.938 14.344-26.625 22.594-8.625 9.2812-16.688 19.031-23.438 29.812-4.0312 6.375-14.156 0.46875-10.125-5.9062 8.8594-14.109 19.781-26.719 31.406-38.625 9.2812-9.4688 20.156-19.875 34.078-21.094 13.781-1.1719 24.75 9.8438 26.906 22.922z"/>
 <path d="m978.71 285.61c3.8906 8.3906 5.5312 17.531 5.3438 26.719-0.32812 19.125-7.125 37.688-13.5 55.406-6.375 17.766-13.641 35.25-21.609 52.359-0.09375 0.5625-0.28125 1.2188-0.65625 1.8281-0.46875 0.84375-0.9375 1.6875-1.4062 2.5781-1.5 2.8125-5.3438 3.6562-8.0156 2.0625-2.9062-1.6875-3.4688-5.1562-2.1094-8.0156 8.9062-18.797 16.875-38.016 23.766-57.656 5.5781-15.891 11.719-32.531 11.766-49.594 0-7.2188-1.0781-15.047-4.5938-21.469-1.0312-1.9688-0.65625-1.5469-2.4375-1.0312-1.6875 0.46875-3.2812 1.125-4.7812 1.875-3.2812 1.6875-6.2812 3.75-8.9531 6.2344-5.9062 5.5781-10.125 12.562-13.922 19.688-4.4062 8.25-8.625 16.594-12.891 24.938-8.9062 17.344-17.859 34.688-26.812 52.031-3.4688 6.75-13.594 0.79688-10.125-5.9062 11.016-21.375 21.984-42.656 33-64.031 8.3438-16.219 16.641-34.453 33.75-43.125 4.1719-2.0625 9.2344-4.3125 13.969-3.6562 4.9688 0.65625 8.1094 4.4062 10.078 8.7188z"/>
 <path d="m899.9 223.87c12.281 13.5 11.812 34.219 7.9688 50.906-4.125 18.281-13.078 34.969-17.438 53.156-1.7812 7.3125-13.078 4.2188-11.344-3.0938 4.5-18.562 13.688-35.578 17.719-54.234 1.6875-7.6406 2.4375-15.75 1.125-23.531-1.0312-6.1875-3.2812-12.938-8.4375-16.969-11.109-8.7188-23.062 9.9375-27.281 18.141-6.8438 13.219-9.9375 28.312-13.5 42.609-4.3125 16.969-8.0156 34.172-8.7188 51.75-0.28125 7.5-12 7.5469-11.719 0 0.84375-22.219 6.2344-43.828 11.766-65.25 3.9844-15.422 8.25-31.641 18-44.578 5.0625-6.7031 11.484-13.406 19.828-15.797 8.1094-2.3438 16.453 0.75 22.031 6.8906z"/>
 <path d="m857.76 872.58c3.7969 0.375 6.6562 3.4688 5.625 7.4062-5.4375 22.031-24.797 40.078-47.344 43.406-3.1406 0.46875-6.2812-0.75-7.2188-4.0781-0.75-2.8125 0.9375-6.75 4.125-7.2188 16.359-2.3906 30.469-13.312 36.844-28.312-8.6719-0.375-17.391 0.09375-25.969 1.5469-11.438 1.9219-21.891 5.8594-32.719 9.75-9 3.2812-19.125 3.8906-26.812-2.625-7.2188-6.0938-7.5938-16.031-1.6875-23.109 5.25-6.3281 13.594-9.1875 20.25-13.688 7.3125-4.875 14.812-11.297 19.406-18.938 3.75-6.2344 4.0781-13.266-2.5781-17.25-6.4688-3.8906-13.969-3-20.859-0.75-9.0469 3-17.25 8.1562-26.531 10.594-9.1406 2.4375-19.031 2.4844-27.375-2.4375-3.5625-2.0625-4.0781-8.2031 0-10.125 13.969-6.5625 26.859-15 38.438-25.219-4.7812-1.9688-10.219-2.5312-15.469-2.25-15.281 0.75-29.203 7.7812-43.828 11.625-14.812 3.8438-31.922 5.1562-44.953-4.5-3.4688-2.5781-4.0312-7.5938 0-10.078 6.5625-4.0312 13.172-8.1094 19.734-12.188 3.2812-2.0156 6.5625-4.0312 9.8438-6.0938 2.5781-1.5938 5.3438-3 7.5938-4.9688 2.9062-2.4375 3.1875-5.1562-0.70312-6.8438-4.9688-2.25-11.672 1.125-16.406 2.7656l-38.906 13.641c-16.781 5.8594-44.484 17.906-56.859-2.0625-3.9844-6.4219 6.1875-12.281 10.125-5.9062 2.25 3.6094 6.0469 4.9219 10.266 5.1562 5.3438 0.28125 10.5-0.84375 15.609-2.3438 13.219-3.9375 26.109-9.0469 39.141-13.594 6.9375-2.4375 13.828-4.875 20.766-7.2656 6.75-2.3438 14.156-4.0312 21.047-0.98438 5.4375 2.4375 9.8438 7.5469 9.9844 13.688 0.1875 6.375-4.125 11.156-9 14.625-5.625 4.0312-11.766 7.3594-17.625 10.969l-9.5625 5.9062c4.3125 1.2188 8.9062 1.5469 13.688 1.2188 15.516-1.1719 29.625-8.625 44.625-12.141 15.469-3.6562 31.688-3.7031 44.625 6.6562 2.4375 1.9688 2.0625 6.2812 0 8.25-9.4688 9.1875-19.969 17.25-31.266 24 3.9375-0.70312 7.875-2.1094 11.391-3.6094 9.8438-4.2188 19.453-9.5625 30.375-10.172 7.875-0.46875 16.219 2.1562 22.125 7.4531 6.75 6 8.5312 15.609 5.4844 23.953-3.2812 8.9531-10.219 16.359-17.438 22.406-3.6562 3.0938-7.5469 6-11.625 8.5312-3.4688 2.1562-7.2188 3.8906-10.594 6.0938-2.25 1.4531-5.0625 3.4688-5.5312 6-0.375 2.1562 1.4062 4.125 3.5625 5.25 7.4062 3.8438 17.156-2.25 24.094-4.6875 19.078-6.8438 39.797-9.375 60-7.4062z"/>
 <path d="m561.89 480.47c1.3594-1.2188 2.625-2.5312 3.9375-3.8438 11.109-11.531 21-25.125 38.062-27 3.9375-0.46875 6.4688 4.0781 5.625 7.4062-7.2188 29.953-25.641 56.438-50.906 74.016-2.625 1.7812-6.5156 0.46875-8.0156-2.1094-1.6875-2.9062-0.46875-6.1875 2.0625-8.0156 19.781-13.734 34.594-33.797 42.375-56.438-4.5469 2.7656-8.4844 6.8438-11.953 10.594-2.9531 3.1875-5.8125 6.375-8.7656 9.5156-3.2812 3.4219-7.2188 8.1562-12.281 8.5312-11.906 0.79688-14.25-17.062-14.578-25.688-0.42188-10.922 3-20.953 7.9688-30.562 3.1875-6.0938 7.0312-12.234 8.8125-18.938-4.125 1.2188-7.875 3.6562-11.25 6.6562-2.7188 2.3906-5.25 4.9688-7.7812 7.6406-2.8125 3-5.4375 6.6562-9.4219 8.1094-7.3125 2.7656-14.719-3.0938-16.172-10.266-1.5938-7.8281 3.4688-14.719 5.5781-21.891 2.1562-7.2188 2.8125-15.094 1.4531-22.5-0.32812-1.7812-0.46875-5.25-2.25-5.25-2.1562 0-4.7344 2.25-6.375 3.5625-6.5156 5.5312-12.656 11.719-18.938 17.531l-19.125 17.719c-12.75 11.812-25.5 23.625-38.297 35.484-5.5312 5.1562-13.828-3.1406-8.25-8.2969 14.719-13.688 29.484-27.328 44.25-40.969 6.5156-6.0469 13.031-12.094 19.594-18.094 3.375-3.1875 6.7969-6.3281 10.172-9.4688 2.625-2.4375 5.3438-4.9219 8.5312-6.6562 6.9375-3.75 15.938-3.5625 19.875 4.3125 3.4688 6.9375 3.6562 16.406 2.8594 24-0.46875 4.3125-1.2188 8.5781-2.5312 12.703-1.125 3.5625-2.8125 6.8438-4.125 10.312-0.5625 1.4062-1.4062 3.5156-1.0312 5.0625 0.046875 0.23438 0.60938 1.6406 1.0312 1.6406 0.09375 0 3-3.4688 3.6094-4.125 9.1875-9.8906 20.672-21.047 35.344-19.688 3.0938 0.28125 5.9062 2.4844 5.8594 5.8594-0.23438 10.781-5.3438 20.062-10.266 29.297-4.3594 8.1562-7.6875 16.312-7.5 25.688 0.09375 4.6875 0.84375 9.7031 2.6719 14.062zm0.5625 1.2188c0.09375 0.09375 0.09375 0.1875 0.14062 0.14062-0.1875 0.375 1.125-0.65625-0.14062-0.14062z"/>
 <path d="m285.52 688.31c3.2812 0.9375 4.5469 4.0781 4.0781 7.2188-3.375 23.062-31.219 38.953-52.828 30.281-2.9531-1.1719-5.0156-3.8438-4.0781-7.2188 0.75-2.8125 4.2656-5.25 7.2188-4.125 1.1719 0.46875 2.3438 0.89062 3.5625 1.2188 0.5625 0.1875 1.125 0.28125 1.6875 0.375 0.14062 0 1.0312 0.1875 1.2656 0.1875 2.1562 0.1875 4.3594 0.1875 6.5625 0h0.32812c0.09375 0 0.1875-0.046875 0.375-0.09375 0.5625-0.14062 1.125-0.23438 1.6875-0.375 1.125-0.28125 2.25-0.5625 3.375-0.9375 0.5625-0.1875 1.0781-0.375 1.5938-0.5625 0.1875-0.046875 0.28125-0.09375 0.375-0.09375l0.375-0.1875c1.0312-0.46875 2.0625-1.0312 3.0938-1.5938s1.9688-1.2188 2.9062-1.875c0.09375-0.046875 0.75-0.5625 0.84375-0.65625 0.375-0.28125 0.75-0.60938 1.125-0.9375 0.84375-0.75 1.6875-1.5938 2.4844-2.4375 0.46875-0.46875 0.89062-1.0312 1.3125-1.5 0.09375-0.1875 0.23438-0.28125 0.375-0.46875 0 0 0.046875-0.046875 0.14062-0.1875 1.1719-1.6875 2.6719-4.2188 3.1875-5.5312 0.5625-1.4062 1.4062-4.3594 1.6875-6.4688 0.46875-3.1875 4.4531-4.8281 7.2188-4.125z"/>
</svg>
