<?xml version="1.0" encoding="UTF-8"?>
<svg width="1200pt" height="1200pt" version="1.1" viewBox="0 0 1200 1200" xmlns="http://www.w3.org/2000/svg">
 <path d="m1106.4 469.69-103.92-90.914v-244.17c0-18.305-14.883-33.164-33.164-33.164h-283.78l-65.977-57.727c-11.133-9.75-27.938-9.75-39.07 0l-65.977 57.727h-283.8c-18.305 0-33.164 14.883-33.164 33.164v244.15l-103.92 90.914c-1.7812 1.5469-2.8125 3.7969-2.8125 6.1641v686.67c0 4.5234 3.6797 8.2031 8.2031 8.2031h1002c4.5234 0 8.2031-3.6797 8.2031-8.2031v-686.65c0-2.3672-1.0312-4.6172-2.8125-6.1641zm-103.92-69.117 84.82 74.227-43.477 27.375c7.2891-17.344 3.7031-38.531-11.742-52.359l-29.602-26.508zm-411.21-344.53c4.9688-4.3594 12.492-4.3594 17.461 0l51.867 45.375h-43.078c3.4688-6.1875 2.9531-14.531-3.4219-20.109l-25.875-22.641 3.0234-2.6484zm-484.03 434.67 399.4 251.46c1.3594 0.84375 2.8594 1.2656 4.3594 1.2656 2.7188 0 5.3906-1.3594 6.9609-3.8438 2.4141-3.8438 1.2656-8.9062-2.5781-11.32l-301.43-189.75v-403.92c0-9.2578 7.5234-16.758 16.758-16.758h738.61c9.2578 0 16.758 7.5234 16.758 16.758v403.92l-340.64 214.48-23.039-20.156c-12.75-11.18-32.016-11.156-44.766 0l-470.39 411.59zm985.55 663.59h-971.93l467.58-409.12c6.6094-5.7656 16.57-5.7656 23.156 0l430.48 376.66c3.4219 2.9766 8.6016 2.6484 11.578-0.77344 2.9766-3.3984 2.6484-8.6016-0.77344-11.578l-394.55-345.23 434.46-273.54z"/>
 <path d="m821.41 600c0-4.5234-3.6797-8.2031-8.2031-8.2031h-426.42c-4.5234 0-8.2031 3.6797-8.2031 8.2031s3.6797 8.2031 8.2031 8.2031h426.42c4.5234 0 8.2031-3.6797 8.2031-8.2031z"/>
 <path d="m386.79 536.25h426.42c4.5234 0 8.2031-3.6797 8.2031-8.2031s-3.6797-8.2031-8.2031-8.2031h-426.42c-4.5234 0-8.2031 3.6797-8.2031 8.2031s3.6797 8.2031 8.2031 8.2031z"/>
 <path d="m580.41 451.36c12.305 6.3281 26.906 6.3281 39.188 0 276.8-142.62 84.539-337.99-19.594-197.11-104.13-140.88-296.41 54.492-19.594 197.11z"/>
</svg>
