<?xml version="1.0" encoding="UTF-8"?>
<svg width="1200pt" height="1200pt" version="1.1" viewBox="0 0 1200 1200" xmlns="http://www.w3.org/2000/svg">
 <path d="m824.68 1013.6c24.141 0.32812 38.578 0.5625 38.578 0.5625 2.5781 0 4.6875 2.1094 4.6875 4.6406 0 2.5781-2.1094 4.6875-4.6875 4.6875 0 0-69.516 1.2188-158.11 1.9219-33.328 0.28125-69.375 0.51562-105.42 0.46875s-72.094-0.375-105.42-0.70312c-88.594-0.75-158.11-1.7812-158.11-1.7812-2.5312 0-4.5938-2.0625-4.5938-4.5938 0-2.4844 2.0625-4.5469 4.5938-4.5469 0 0 14.391-0.23438 38.484-0.51562l-1.2188-122.16c0-3.2812 2.625-5.9531 5.9062-5.9531 0 0 17.016-0.1875 44.297-0.375l-1.3594-112.78c0-3.375 2.7188-6.0938 6.0469-6.0938 0 0 14.297-0.1875 37.078-0.375l-1.5469-111.19c0-3.4688 2.8125-6.2812 6.2812-6.2812 0 0 26.344-0.375 62.25-0.60938 0.65625-0.375 1.4531-0.5625 2.2969-0.5625 0.79688 0 1.5469 0.1875 2.2031 0.5625 3.6094-0.046875 7.2656-0.046875 10.969-0.09375 13.734-0.046875 28.406-0.09375 43.219-0.09375-1.9219-10.031-4.0781-19.219-6.3281-27.656-2.625-5.3906-5.8125-10.828-9.4219-16.266-9.8906-15.047-23.062-30.234-37.219-46.031-12.984-14.578-26.953-29.531-39.938-45.281-13.125-15.891-25.359-32.578-35.203-50.109-16.359-29.203-26.062-60.75-22.219-95.297-6.75 0.23438-13.406 1.0781-20.062 2.8594-2.1094 0.60938-4.4062 0.09375-6-1.4531s-2.25-3.8438-1.6875-6l8.8594-27.562c-9.375-4.875-17.719-12.469-24.375-22.078-10.125-14.531-16.266-33.75-16.547-54.797 0.046875-21.094 6.0469-40.406 16.031-55.078 12.328-18.047 30.516-29.062 50.391-28.781 16.266 0.28125 31.172 7.9688 42.422 20.953 8.25 9.4688 14.625 21.703 18.141 35.625 11.156-8.0625 24.047-12.516 37.688-12.469 18.328 0.23438 35.203 8.7656 48.141 23.016 5.4844-10.406 12.516-19.266 20.766-25.969 11.109-9.0469 24.375-14.062 38.531-14.391 7.125 0.046875 14.062 1.2656 20.578 3.7031 9.375 3.5156 18 9.375 25.359 17.109 10.406 10.922 18.375 25.547 22.781 42.328 1.6406 0.23438 3.3281 0.51562 4.9688 0.89062v-0.046875c19.078 3.7969 34.031 18.141 42.234 37.875 6.7031 16.219 8.6719 36.094 4.5469 56.578-5.25 25.312-18.891 46.078-35.859 58.172-6 4.2656-12.422 7.4531-19.078 9.4688l2.6719 25.875c0.09375 2.2969-1.0312 4.5-3 5.7188s-4.4062 1.2656-6.4219 0.1875c-4.7812-2.4375-9.6094-4.2656-14.438-5.8125-0.09375-0.046875-0.14062-0.046875-0.23438-0.09375-0.1875 18.375-6.9375 39.938-17.297 62.812-5.25 11.531-11.391 23.438-18 35.344-4.2188 7.5938-8.6719 15.188-13.172 22.734-15.188 25.406-30.984 50.672-42.047 73.969 62.391 0.23438 122.63 0.98438 122.63 0.98438 3.3281 0 6.0469 2.6719 6.0469 6.0469l-1.4062 111.42c22.828 0.1875 37.172 0.375 37.172 0.375 3.2344 0 5.8125 2.625 5.8125 5.8594l-1.2188 112.97c27.375 0.23438 44.391 0.42188 44.391 0.42188 3.1406 0 5.7188 2.5781 5.7188 5.7188zm-440.58 0c28.266-0.32812 66.984-0.75 110.2-1.125 33.328-0.32812 69.375-0.65625 105.42-0.70312s72.094 0.1875 105.42 0.46875c43.266 0.32812 81.984 0.79688 110.3 1.2188-0.14062-12-0.375-41.953-0.60938-68.438-1.2188 0.375-2.3906 0.70312-3.6094 0.98438-2.9062 0.65625-5.8594 1.0781-8.9062 1.2656-9 0.46875-17.578-1.2656-25.219-4.875-4.4531-2.1094-8.5781-4.875-12.141-8.2031-3.2812 1.9219-6.8438 3.3281-10.594 4.2188-5.2031 1.2656-10.734 1.1719-16.312 0.09375-5.2031-1.2188-9.9844-3.375-13.969-6.4219-3.6562-2.7656-6.75-6.2812-9-10.219-3 5.4375-7.3125 10.031-12.422 13.359-4.2656 2.8125-9.1875 4.6875-14.391 5.3438-4.9688 0.65625-10.172 0.09375-15.234-1.5-4.125-1.5-7.9219-3.375-11.156-6-2.1094-1.6875-3.9844-3.5625-5.6719-5.625-1.5469 1.4062-3.2344 2.7188-4.9688 3.8438-8.4375 5.3906-19.078 7.125-29.578 4.6875-9.1875-2.8594-16.828-8.4844-21.516-16.078-0.70312-1.125-1.3594-2.2969-1.9219-3.4688-0.70312 1.4531-1.5 2.9062-2.4375 4.2656-4.6875 7.2188-12.094 12.516-20.906 15.234-3.0469 0.79688-6.1406 1.2656-9.1875 1.3125-7.3594 0-14.438-2.0625-20.391-5.9531-1.5469-0.98438-3-2.1094-4.4062-3.2812-2.1562 3.5156-4.9688 6.5625-8.25 9.2344-3.2344 2.625-6.9844 4.5-11.156 6-5.0625 1.5938-10.266 2.1562-15.234 1.5-5.1562-0.65625-10.125-2.5312-14.391-5.3438-5.1094-3.3281-9.4219-7.9219-12.422-13.359-2.25 3.9375-5.3438 7.4531-9 10.219-3.9844 3.0469-8.7656 5.2031-13.969 6.4219-5.5781 1.125-11.109 1.1719-16.312-0.09375-2.0625-0.46875-4.0781-1.125-6-1.9219-3.5156 3.1875-7.5 5.8594-11.812 7.875-7.6406 3.6094-16.266 5.3438-25.219 4.875-3.0469-0.1875-6-0.5625-8.9062-1.2656-1.1719-0.28125-2.3438-0.60938-3.5156-0.9375zm48.984-128.44c16.266-0.14062 35.484-0.23438 56.484-0.32812 33.609-0.1875 71.906-0.375 110.16-0.28125 62.156 0.09375 124.36 0.51562 166.74 0.84375l-0.65625-59.672-1.6875 0.42188c-2.8594 0.70312-5.8125 1.0781-8.8594 1.2656-9 0.46875-17.625-1.2656-25.219-4.875-5.1094-2.3906-9.75-5.6719-13.688-9.6562-3.8906 2.7188-8.25 4.5938-12.891 5.7188-5.2031 1.2188-10.734 1.1719-16.312 0.046875-5.2031-1.1719-9.9375-3.3281-13.969-6.375-3.7031-2.8594-6.8438-6.4688-9.0938-10.5-3.0938 5.4375-7.4531 9.8906-12.562 13.172-8.3906 5.3906-18.984 7.1719-29.531 4.7344-4.0781-1.125-7.9219-2.8125-11.25-5.1094-5.1562-3.5156-9.3281-8.25-12.094-13.688l-0.046876-0.046875v0.046875c-2.7656 5.4375-6.9844 10.172-12.141 13.688-3.3281 2.2969-7.125 3.9844-11.25 5.1094-10.5 2.4375-21.094 0.65625-29.531-4.7344-4.0781-2.625-7.7344-6.0469-10.594-10.125 0 0.046875 0 0.09375-0.046876 0.14062-2.2969 4.5469-5.6719 8.625-9.8438 11.766-3.9844 3.0469-8.7188 5.2031-13.922 6.4219-5.625 1.0781-11.156 1.1719-16.359-0.09375-3.7031-0.89062-7.2656-2.2969-10.5-4.1719-3.9375 4.0312-8.6719 7.3594-13.828 9.8438-7.6406 3.6094-16.219 5.2969-25.219 4.875-3.0469-0.23438-6-0.60938-8.9062-1.2656-0.89063-0.23438-1.8281-0.46875-2.7188-0.75zm381.66 49.922c-0.1875-21-0.375-37.688-0.375-37.688-9.1875 0.09375-29.016 0.23438-55.359 0.46875 0.84375 3.9844 2.25 7.7812 3.9844 11.344 2.4375 5.0156 5.9062 9.3281 9.8906 13.172 3.1406 3 6.6094 5.6719 10.5 7.7812 5.6719 3.1406 12 5.3906 18.938 5.7188 2.4375 0.1875 4.8281 0.1875 7.2188-0.046875 1.7344-0.14062 3.4688-0.42188 5.2031-0.75zm-65.859-37.172c-8.7656 0.09375-18.141 0.14062-27.984 0.1875 0.046874 5.625 2.0156 10.922 4.9688 15.516 1.8281 2.8125 4.1719 5.2031 6.8438 7.3125 2.5781 1.9688 5.4375 3.7969 8.7656 4.8281 3.7031 1.2188 7.4062 1.7812 11.062 1.4531 1.8281-0.1875 3.7031-0.51562 5.4844-0.98438-1.8281-2.625-3.4219-5.3906-4.6875-8.3438-2.7188-6.1875-4.3125-12.891-4.4531-19.969zm-38.297 0.28125c-32.438 0.1875-69.234 0.375-106.22 0.42188 0.65625 5.25 2.9062 10.078 6.0938 14.156 3.6094 4.6406 8.7188 8.1094 14.859 9.5625 6.8438 2.0625 13.828 1.2188 19.734-1.7812 6.1875-3.1875 11.438-8.3906 13.828-15.516 0.65625-2.4375 3.1875-3.8906 5.625-3.2344s3.8906 3.1406 3.2344 5.625c-0.9375 4.5469-2.6719 8.7188-5.0156 12.375 1.6406 1.4531 3.5156 2.6719 5.5312 3.7969 2.4844 1.3594 5.25 2.2031 8.2031 2.7656 3.375 0.79688 6.75 0.60938 9.9844 0.1875 3.375-0.42188 6.6562-1.2656 9.6562-2.7656 6.1875-3.1406 11.484-8.1562 14.016-15.188 0.09375-0.32812 0.1875-0.60938 0.32812-0.89062-0.375-3.1406-0.32812-6.3281 0.14063-9.5156zm-118.31 0.46875c-35.766 0-71.25-0.14062-102.7-0.28125-2.1562-0.046875-4.3125-0.046875-6.4219-0.046875 1.1719 4.5469 1.4531 9.0938 0.9375 13.547 0.14062 0.28125 0.23437 0.5625 0.32812 0.89062 2.5312 7.0312 7.8281 12.047 14.062 15.188 2.9531 1.5 6.2344 2.3438 9.6094 2.7656 3.2344 0.42188 6.6094 0.60938 10.031-0.1875 2.9062-0.5625 5.6719-1.4062 8.1562-2.7656 2.7188-1.5 5.1562-3.1875 7.2188-5.3906 0.375-0.46875 0.79687-0.84375 1.3125-1.1719-2.8594-4.0312-4.9219-8.6719-6-13.781-0.65625-2.4844 0.79687-4.9688 3.2344-5.625 2.4844-0.65625 4.9688 0.79688 5.625 3.2344 2.4375 7.0781 7.6406 12.328 13.828 15.516 5.9062 3 12.891 3.8438 19.734 1.7812 5.9531-1.3594 10.922-4.6406 14.531-9 3.4219-4.2188 5.9062-9.1875 6.5156-14.672zm-118.97-0.375c-8.0156-0.046875-15.703-0.09375-22.969-0.14062 0.046874 0.28125 0.09375 0.60938 0.09375 0.9375 0.65625 8.8594-0.9375 17.344-4.3125 24.938-1.125 2.5781-2.4375 5.0156-3.9844 7.3594 3.6094 0.28125 7.2656-0.23438 10.922-1.4531 3.3281-1.0312 6.1875-2.8594 8.7656-4.8281 2.6719-2.1094 5.0156-4.5 6.8438-7.3125 3.6562-5.625 5.7656-12.375 4.6406-19.5zm-32.062-0.23438c-26.531-0.1875-46.594-0.375-55.969-0.46875l-0.46875 43.641c1.6875 0.375 3.375 0.60938 5.1094 0.75 2.3906 0.23438 4.7812 0.23438 7.2188 0.09375 6.9375-0.375 13.266-2.625 18.938-5.7656 2.8125-1.5 5.3906-3.3281 7.7812-5.3438 0.14063-0.51562 0.32813-1.0781 0.65625-1.5469 0.75-1.125 1.9219-1.8281 3.1875-2.0156 3.5156-3.5156 6.5625-7.5 8.7656-12.047 2.4375-5.0156 4.2188-10.406 4.6875-16.266 0-0.375 0.046874-0.70312 0.09375-1.0312zm33.656-132.14c11.578-0.09375 24.844-0.1875 39.141-0.23438 26.156-0.1875 55.922-0.32812 85.688-0.23438 46.078 0.09375 92.156 0.42188 124.92 0.70312l-0.70313-56.25c-0.5625 0.14062-1.0781 0.28125-1.6406 0.42188-2.8594 0.65625-5.8594 1.0781-8.8594 1.2656-9 0.46875-17.625-1.2656-25.266-4.875-5.25-2.4844-10.078-5.9531-14.109-10.125s-7.3125-9.0469-9.6562-14.391c-0.5625-1.3125-1.125-2.6719-1.5938-4.0312-2.7656 3.7969-6.2344 7.0312-10.172 9.5625-8.4375 5.3906-19.031 7.125-29.531 4.7344-4.0781-1.1719-7.9219-2.8125-11.25-5.1094-5.1562-3.5625-9.375-8.25-12.094-13.688l-0.046876-0.046875-0.046874 0.046875c-2.7656 5.4375-6.9375 10.125-12.094 13.688-3.3281 2.2969-7.1719 3.9375-11.25 5.1094-10.5 2.3906-21.094 0.65625-29.531-4.7344-4.5469-2.9062-8.4844-6.7969-11.484-11.438l-0.28125 0.70312c-2.3438 5.3438-5.625 10.219-9.6562 14.344-4.0312 4.1719-8.8594 7.6406-14.156 10.125-7.5938 3.6094-16.219 5.3438-25.219 4.875-3-0.1875-6-0.5625-8.8594-1.2656-0.46875-0.09375-0.9375-0.23438-1.4062-0.32812zm290.81 49.688-0.42188-37.219c-9.0938 0.09375-28.312 0.32812-53.156 0.51562 0.84375 3.7031 2.1562 7.1719 3.75 10.453 2.4844 5.0156 5.9531 9.375 9.8906 13.172 3.1406 3.0469 6.6562 5.6719 10.5 7.8281 5.7188 3.0938 12.047 5.3438 18.984 5.7188 2.4375 0.14062 4.8281 0.1875 7.1719-0.046875 1.0781-0.14062 2.2031-0.23438 3.2812-0.42188zm-63.891-36.609c-9.9375 0.09375-20.625 0.14062-31.781 0.23438 0.23438 5.25 2.1094 10.219 4.9219 14.531 1.8281 2.8125 4.1719 5.25 6.8438 7.3125 2.5781 2.0156 5.4375 3.7969 8.7656 4.8281 3.7031 1.2656 7.4062 1.7812 11.062 1.4531 2.9531-0.28125 5.8594-0.89062 8.5781-2.0156-1.5469-2.2969-2.8594-4.7344-3.9844-7.2656-2.5781-5.9531-4.125-12.375-4.4062-19.078zm-42.234 0.28125c-17.578 0.09375-36.094 0.1875-54.656 0.23438 0.046875 5.4375 1.8281 10.641 4.6875 15.047 1.5 2.25 3.375 4.2656 5.4844 6.0469 2.9531 2.5312 6.5156 4.4531 10.547 5.4844 6.8438 2.1094 13.875 1.3125 19.781-1.7344 6.2344-3.1875 11.391-8.4375 13.781-15.562 0.09375-0.32812 0.1875-0.60938 0.32812-0.89062-0.32812-2.8594-0.32812-5.7188 0.046875-8.625zm-67.266 0.23438c-18.516 0.046875-36.844 0-54.281-0.09375 0.98438 3.9375 1.2656 7.9219 0.9375 11.812 2.6719 5.9062 7.3594 10.312 12.797 13.125 5.9062 3.0469 12.938 3.8438 19.781 1.7344 4.0312-1.0312 7.5938-2.9531 10.594-5.4844 2.0625-1.7812 3.9375-3.7969 5.4375-6.0469 2.9062-4.4062 4.6875-9.5625 4.7344-15.047zm-64.172-0.14062c-4.7812 0-9.5156-0.046875-14.109-0.09375-5.25 0-10.406-0.046875-15.375-0.09375v0.046875c0.65625 8.8594-0.9375 17.344-4.3125 24.984-0.98438 2.25-2.1562 4.4531-3.4688 6.5625 1.9219 0.51562 3.8906 0.89062 5.9062 1.0781 3.6562 0.32812 7.3594-0.23438 11.062-1.4531 3.2812-1.0312 6.1406-2.8594 8.7656-4.875 2.6719-2.0625 5.0156-4.4531 6.7969-7.2656 3.5625-5.4844 5.6719-12 4.7344-18.891zm-38.766-0.23438c-25.641-0.1875-45.562-0.375-54.984-0.51562l-0.5625 42.938c1.4531 0.28125 2.8594 0.46875 4.3125 0.60938 2.3906 0.23438 4.7812 0.23438 7.2188 0.046875 6.9375-0.375 13.266-2.5781 18.938-5.7188 3.8906-2.1094 7.3594-4.7812 10.5-7.8281 3.9844-3.7969 7.4531-8.1094 9.8906-13.172 2.4375-4.9688 4.2188-10.359 4.6875-16.266zm38.719-117.52c-23.531-0.14062-42.469-0.375-51.75-0.46875l-0.46875 33.422c0.98438 0.14062 1.9688 0.28125 2.9531 0.375 2.3438 0.23438 4.7344 0.1875 7.1719 0.046875 6.9375-0.375 13.312-2.625 18.984-5.7188 3.8438-2.1562 7.3594-4.7812 10.5-7.8281 3.9844-3.7969 7.4062-8.1562 9.8906-13.172 1.0312-2.1094 1.9688-4.3594 2.7188-6.6562zm63.422 0.23438c-14.953 0-29.766-0.046875-43.641-0.09375-2.9531-0.046875-5.8594-0.046875-8.7188-0.046875 2.4375 7.0312 7.5938 12.281 13.734 15.422 5.9062 3.0469 12.938 3.8438 19.781 1.7344 4.0312-1.0312 7.5938-3 10.594-5.5312 2.0625-1.7812 3.9375-3.75 5.4375-6 1.125-1.7344 2.0625-3.5625 2.8125-5.4844zm-141.19-294.71c-2.5312 32.531 7.9688 61.641 24.094 88.641 9.8906 16.641 22.031 32.391 34.641 47.719 12.938 15.656 26.391 30.844 39 45.562 7.4062 8.6719 14.438 17.203 20.906 25.594-1.4062-3.2344-2.8125-6.3281-4.2188-9.375-3.8906-8.2969-7.7812-15.938-11.484-23.344-6.0469-12.188-11.812-23.719-16.547-36.469-6.4688-17.203-11.156-36.516-12.516-62.344-4.4062-11.859-6.7969-25.219-6.6562-39.328v-0.70313c-14.156-7.1719-26.297-19.828-34.781-36-1.7344-3.3281-3.2812-6.75-4.6875-10.312l1.8281 5.6719c0.60938 2.2031-0.046875 4.5938-1.6875 6.1875-1.6875 1.5938-4.0781 2.2031-6.2812 1.5469-5.1562-1.3594-10.266-2.1094-15.328-2.625-2.1094-0.1875-4.1719-0.32812-6.2812-0.42187zm-19.828-28.594c-0.9375 4.4531-3.4688 16.828-3.4688 16.828 6.375-1.5 12.797-2.3438 19.312-2.4375 3.9844-0.046874 7.9688 0.23438 11.953 0.79688 2.3906 0.32812 4.7812 0.79687 7.1719 1.3594l-3.3281-16.547c-0.1875 0.046874-0.42188 0.14062-0.60938 0.1875-4.5469 1.4062-9.2812 2.2031-14.156 2.2969-5.8125 0.09375-11.438-0.75-16.875-2.4844zm40.359-3.7031 3.3281 10.078c-0.9375-3.4688-1.6875-6.9844-2.3438-10.641l-0.98438 0.5625zm29.109-97.453c-3.375-13.875-9.7969-25.969-18.234-34.969-9.375-10.031-21.328-16.078-34.359-15.844-15.703 0.1875-29.438 9.75-38.953 24.094-8.3906 12.703-13.547 29.25-13.5 47.391-0.23438 18.234 4.6875 34.922 13.031 47.719 9.5156 14.719 23.484 24.469 39.422 24.75 3.9375 0.09375 7.7344-0.32812 11.438-1.3125 3.75-0.98437 7.4062-2.4375 10.828-4.4062 0.32812-0.1875 0.60938-0.32812 0.9375-0.42187-0.28125-3-0.42188-6.0469-0.46875-9.1406-0.23438-24.234 6.4688-46.5 17.812-63.422 3.5625-5.3906 7.6406-10.219 12.047-14.438zm100.36 12.094c0.65625 0.98437 1.3594 1.9688 2.0156 3 10.969 16.875 17.484 38.812 17.062 62.766l-0.60938 9.6094c8.0625 5.1562 15.281 12.234 21.234 20.859 0.89062 1.2656 1.7812 2.5781 2.5781 3.9375 0.32812-5.9531 1.1719-12.047 2.5781-18.188 4.7344-20.297 14.766-37.547 27.562-49.5 11.531-10.734 25.172-17.25 39.141-18.188-5.0156-13.266-12.562-24.609-21.703-33.094-6.3281-5.9062-13.5-10.312-21.234-12.938-5.0625-1.7344-10.406-2.7188-15.891-2.6719-11.203-0.28125-21.75 3.5156-30.984 10.125-8.4375 6.0469-15.938 14.25-21.75 24.281zm9.4219 70.641 0.14062-4.875c-0.375-21.656-6.8906-41.297-17.25-56.25-11.672-16.781-28.406-27.516-47.016-27.281-18.469 0.09375-34.688 11.156-46.031 27.938-10.031 14.859-16.312 34.266-16.5 55.594-0.28125 17.156 3.3281 33.234 9.7969 46.781 6.1875 12.891 14.906 23.531 25.359 30.469 1.9688-17.812 7.9688-33.938 16.781-46.688 12.938-18.703 31.734-30.281 52.453-30v-0.09375c7.7344-0.09375 15.234 1.4531 22.266 4.4062zm99.141 108.94c-5.8594 0.70313-11.766 0.42188-17.672-0.84375-5.2031-1.1719-10.125-3.0938-14.719-5.6719-2.25 5.0625-5.4375 12.234-5.4375 12.234 6.5625-0.09375 13.031 0.42188 19.453 1.7344 3.8438 0.79687 7.6875 1.9219 11.484 3.3281 2.25 0.84375 4.5 1.7812 6.7031 2.8125zm-40.406-12.047c-4.0312-3.2812-7.6406-7.1719-10.828-11.578-0.09375 15.188-3.0938 29.438-8.3438 41.859-1.0781 17.484-3.0469 37.969-6.2344 59.859-2.0625 14.344-4.6875 29.25-7.875 44.25-2.3438 11.016-5.1094 22.078-8.0625 33 5.4375-9.8906 10.969-19.828 16.5-29.672 6.1875-10.969 12.328-21.844 17.953-32.391 6.0469-11.391 11.578-22.453 15.938-33 5.7656-14.062 9.6562-27.188 10.078-39.047-0.046875 0-0.09375 0-0.14062-0.046876-8.3906-1.9219-16.875-2.9531-25.641-2.5781-2.2031 0.1875-4.3594-0.84375-5.5781-2.7188-1.2188-1.8281-1.3594-4.2188-0.375-6.1875zm55.312 282.74-0.46875-38.859c-9.375 0.09375-29.016 0.32812-53.391 0.51562 0.79688 4.2656 2.2969 8.2969 4.125 12.094 2.4844 5.0156 5.9062 9.3281 9.8906 13.172 3.1406 3 6.6562 5.6719 10.5 7.7812 5.6719 3.1406 12.047 5.3906 18.984 5.7188 2.4375 0.1875 4.8281 0.1875 7.1719-0.046875 1.0781-0.09375 2.1562-0.23438 3.1875-0.375zm-63.844-38.25c-16.219 0.09375-34.031 0.23438-52.078 0.28125 0.79688 1.9219 1.7344 3.7969 2.8594 5.5312 1.5 2.25 3.375 4.2188 5.4375 6 3 2.5312 6.5625 4.5 10.594 5.5312 6.8438 2.1094 13.875 1.3125 19.781-1.7344s10.922-7.9688 13.406-14.625zm-121.4-192.66c1.0312 4.3594 2.2031 8.5312 3.375 12.516 5.1094 16.641 11.812 30.234 18.891 44.203 4.7812 9.4219 9.75 19.031 14.531 29.719 1.4531 3.2812 2.9062 6.6094 4.3594 10.125-0.14062-6.4688 0.09375-13.547 0.98438-21.516 0.89062-8.1562 2.4375-17.25 4.7812-27.562-7.0781 0.28125-14.109 1.2656-21.094 3.1406-2.1562 0.65625-4.4531 0.09375-6.0469-1.4531s-2.25-3.8438-1.6875-6l7.3125-22.969c-9.5625-4.3594-18.234-11.25-25.406-20.203zm97.734 0.42188c-5.1094 6.2812-11.016 11.578-17.438 15.609l8.7656 27.094c0.5625 2.2031-0.09375 4.5938-1.7344 6.1875s-4.0312 2.2031-6.2344 1.5469c-5.5781-1.4531-11.109-2.2969-16.547-2.8594-2.5312-0.23438-5.0156-0.42188-7.4531-0.51562-2.0156 14.719-2.5781 26.812-2.5312 37.172 0 9.1875 0.65625 16.969 1.5938 24.047 0.75 5.6719 1.5938 10.922 2.5312 16.031 2.0156 11.016 4.2656 21.422 5.25 34.031 5.3906-18.375 10.078-37.875 14.344-57.422 1.875-8.7188 3.7031-17.438 5.4844-26.062 1.7812-8.7656 3.5625-17.484 5.25-26.062 2.1094-10.781 4.0781-21.328 5.8125-31.406 1.0312-6 2.0156-11.812 2.9062-17.391zm-26.297 20.297c-7.0781 3.0469-14.672 4.6875-22.5 4.6875-4.8281 0-9.5625-0.65625-14.156-1.875-1.2188 5.7656-2.625 12.516-2.625 12.516 7.0312-1.6875 14.109-2.6719 21.328-2.7188 4.2188-0.046875 8.4844 0.23438 12.75 0.84375 2.7656 0.375 5.5312 0.9375 8.2969 1.5469zm114.8-215.53v-0.09375c-15.891-3.1875-31.875 3.2812-44.578 15.797-10.969 10.828-19.406 26.297-23.062 44.344-3.7031 17.859-1.9688 35.203 3.7969 49.406 6.4219 15.844 18.047 27.75 33.281 30.984 15.188 3.3281 30.609-2.7188 42.984-14.484 11.109-10.5 19.875-25.547 23.906-43.266 4.1719-17.906 2.9531-35.391-2.4844-49.828-6.2812-16.594-18.094-29.156-33.844-32.859zm-137.29 51v-0.09375c-17.531 0.28125-33 10.734-43.5 26.859-9.0938 13.922-14.484 32.156-14.203 51.984 0.1875 19.688 5.9531 37.641 15.281 51.281 10.5 15.328 25.547 25.219 42.422 25.125 16.828 0.046875 31.828-9.9375 42.234-25.219 9.2812-13.641 15.047-31.547 15.234-51.188 0.23437-19.781-5.0625-37.969-14.156-51.891-10.453-16.078-25.828-26.578-43.312-26.859z" fill-rule="evenodd"/>
</svg>
