<?xml version="1.0" encoding="UTF-8"?>
<svg width="1200pt" height="1200pt" version="1.1" viewBox="0 0 1200 1200" xmlns="http://www.w3.org/2000/svg">
 <path d="m808.17 284.3c-1.1719-8.8867-6.6719-16.617-14.688-20.625l-81.449-40.727h-0.13672c-0.29688-0.13281-0.60156-0.24609-0.91406-0.34375-0.26953-0.089843-0.53906-0.21094-0.80859-0.26953h-0.13672l-54.238-12.523v-0.003906c-3.1953-3.8359-6.8164-7.293-10.801-10.305v-13.5c0-4.9688-4.0312-9-9-9h-27v-27.898c14.699-3.0039 26.938-13.129 32.633-27.012 5.6953-13.879 4.0977-29.684-4.2578-42.145-8.3555-12.461-22.371-19.938-37.375-19.938s-29.02 7.4766-37.375 19.938c-8.3555 12.461-9.9531 28.266-4.2578 42.145 5.6953 13.883 17.934 24.008 32.633 27.012v27.898h-27c-4.9688 0-9 4.0312-9 9v13.5c-3.9766 3.0039-7.5938 6.4492-10.785 10.273l-54.238 12.523h-0.13672v0.003906c-0.28906 0.078125-0.57422 0.17578-0.85547 0.28516-0.29297 0.09375-0.58594 0.20312-0.87109 0.32812h-0.13672l-81.477 40.77c-8.0156 4.0117-13.516 11.738-14.684 20.625l-43.742 332.52c-0.57812 4.4219 2.1641 8.6016 6.4492 9.8281l63 18c2.4766 0.70312 5.1328 0.31641 7.3047-1.0625 2.168-1.3828 3.6445-3.6289 4.0508-6.168l29.836-185.61 6.1953 57.766-3.4336 17.145c-0.98047 4.875 2.1797 9.6172 7.0547 10.598 4.875 0.97656 9.6211-2.1836 10.598-7.0586l3.7031-18.496h0.003907c0.17969-0.89844 0.21875-1.8203 0.11719-2.7305l-13.5-126c-0.47656-4.4844-4.2031-7.9219-8.7148-8.0391h-0.23828c-4.3945-0.003906-8.1484 3.168-8.8789 7.5l-38.895 242.05-45.781-13.078 42.734-324.83c0.39453-2.9609 2.2305-5.5352 4.9062-6.8672l71.145-35.566 15 67.664-17.488 69.945h-0.003907c-0.70312 2.832 0.007813 5.8281 1.9062 8.0391l105.55 123.14-12.602 138.6h0.003906c-1.1055 12.145-7.0977 23.324-16.598 30.973-9.5 7.6484-21.699 11.113-33.805 9.6016l-78.977-9.8711 19.5-97.59h0.003906c0.97656-4.875-2.1836-9.6211-7.0586-10.598-4.875-0.97656-9.6211 2.1836-10.598 7.0586l-21.422 107.09c-0.48828 2.4492 0.0625 4.9961 1.5273 7.0273 1.4609 2.0273 3.7031 3.3555 6.1836 3.6641l88.574 11.07c2.6484 0.33203 5.3125 0.49609 7.9805 0.49609 12.902-0.011719 25.484-4.0312 36-11.504h21.586v388.96c-16.496-9.9297-36.324-12.711-54.914-7.7109-17.242 7.5977-29.621 23.211-33.09 41.73h-19.996c-4.9688 0-9 4.0312-9 9s4.0312 9 9 9h27c4.2188 0 7.875-2.9297 8.7891-7.0508 4.3516-19.5 12.254-31.605 23.504-35.789 16.184-6 38.07 4.6953 48.703 11.566l0.003906 22.273c0 4.9688 4.0312 9 9 9s9-4.0312 9-9v-22.289c10.59-6.8711 32.414-17.578 48.676-11.566 11.266 4.1719 19.184 16.215 23.551 35.805 0.91016 4.1172 4.5586 7.0469 8.7734 7.0508h27c4.9688 0 9-4.0312 9-9s-4.0312-9-9-9h-19.996c-3.4688-18.52-15.848-34.133-33.09-41.73-18.59-5-38.418-2.2148-54.914 7.7109v-388.98h21.512c10.516 7.4727 23.098 11.492 36 11.504 2.6641 0 5.332-0.16406 7.9766-0.49219l88.574-11.07h0.003906c2.4805-0.3125 4.7227-1.6406 6.1836-3.668 1.4648-2.0312 2.0156-4.5742 1.5234-7.0273l-35.73-178.65 6.1953-57.766 29.883 185.67c0.40625 2.5391 1.8828 4.7852 4.0508 6.168 2.1719 1.3789 4.8281 1.7695 7.3047 1.0625l63-18c4.2852-1.2266 7.0273-5.4062 6.4492-9.8242zm-235.17-179.3c0-7.1602 2.8438-14.027 7.9062-19.094 5.0664-5.0625 11.934-7.9062 19.094-7.9062s14.027 2.8438 19.094 7.9062c5.0625 5.0664 7.9062 11.934 7.9062 19.094s-2.8438 14.027-7.9062 19.094c-5.0664 5.0625-11.934 7.9062-19.094 7.9062s-14.027-2.8438-19.094-7.9062c-5.0625-5.0664-7.9062-11.934-7.9062-19.094zm124.27 132.77-16.062 72.285c-0.32422 1.3594-0.32422 2.7773 0 4.1406l16.875 67.5-69.586 81.285c22.816-61.711 54.75-164.8 39.766-224.93 0-0.46484-0.074219-0.92969-0.14844-1.3789h-0.003907c-0.34375-2.0234-0.78906-4.0273-1.332-6zm-97.273 249.04c-24.691-58.973-42.273-120.68-52.379-183.81 2.7695 4.9961 5.8359 9.8281 9.1797 14.461 1.5664 2.0859 3.9648 3.3867 6.5703 3.5703h0.62891c2.3867-0.003906 4.6719-0.95312 6.3594-2.6406l29.641-29.672 29.641 29.641c1.6875 1.6875 3.9727 2.6367 6.3594 2.6406h0.62891c2.6016-0.18359 4.9922-1.4883 6.5547-3.5703 3.3477-4.6328 6.4102-9.4609 9.1797-14.461-10.098 63.141-27.676 124.86-52.363 183.84zm-42.93-262.9c2.8672 20.715 13.027 39.734 28.648 53.641l-20.219 20.262c-11.363-16.984-16.922-37.191-15.84-57.598 1.5742-5.8008 4.0781-11.305 7.4102-16.305zm85.844 0c3.3672 4.9961 5.8984 10.508 7.5 16.32 1.0625 20.41-4.5195 40.613-15.914 57.582l-20.219-20.309c15.613-13.895 25.77-32.895 28.648-53.594zm-69.914-28.906h54v9c0 0.46484-0.34375 44.266-27 61.605-26.52-17.297-27-61.156-27-61.621zm-71.145 186.68 16.875-67.5c0.32031-1.3633 0.32031-2.7812 0-4.1406l-16.066-72.285 30.555-7.0508c-0.54297 1.9766-0.98828 3.9805-1.332 6-0.074219 0.46484-0.089844 0.91406-0.14844 1.3789-15 60.105 16.949 163.21 39.766 224.93zm84.734 299.32c5.3008-8.3906 8.5273-17.926 9.4219-27.809l3.9883-43.785 3.9766 43.785c0.89063 9.8828 4.1172 19.418 9.418 27.809zm200.68-56.445-38.895-242.05c-0.70312-4.4492-4.6172-7.668-9.1172-7.5-4.5117 0.11719-8.2383 3.5547-8.7148 8.0391l-13.5 126c-0.10156 0.91016-0.0625 1.832 0.11719 2.7305l34.094 170.5-78.977 9.8711h0.003906c-12.105 1.5156-24.305-1.9492-33.805-9.5977-9.5-7.6523-15.492-18.828-16.594-30.977l-12.602-138.6 105.52-123.11c1.9023-2.2109 2.6133-5.207 1.9062-8.0391l-17.488-69.945 15-67.664 71.145 35.566c2.6758 1.3359 4.5156 3.9141 4.9023 6.8828l42.734 324.82z"/>
 <path d="m609 339c0 4.9688-4.0312 9-9 9s-9-4.0312-9-9 4.0312-9 9-9 9 4.0312 9 9"/>
 <path d="m609 375c0 4.9688-4.0312 9-9 9s-9-4.0312-9-9 4.0312-9 9-9 9 4.0312 9 9"/>
 <path d="m609 411c0 4.9688-4.0312 9-9 9s-9-4.0312-9-9 4.0312-9 9-9 9 4.0312 9 9"/>
 <path d="m474 555c0 4.9688-4.0312 9-9 9s-9-4.0312-9-9 4.0312-9 9-9 9 4.0312 9 9"/>
 <path d="m726 843h-18c-4.9688 0-9 4.0312-9 9s4.0312 9 9 9h18c4.9688 0 9-4.0312 9-9s-4.0312-9-9-9z"/>
 <path d="m780 843h-18c-4.9688 0-9 4.0312-9 9s4.0312 9 9 9h18c4.9688 0 9-4.0312 9-9s-4.0312-9-9-9z"/>
 <path d="m744 861c-4.9688 0-9 4.0312-9 9v18c0 4.9688 4.0312 9 9 9s9-4.0312 9-9v-18c0-2.3867-0.94922-4.6758-2.6367-6.3633s-3.9766-2.6367-6.3633-2.6367z"/>
 <path d="m744 843c4.9688 0 9-4.0312 9-9v-18c0-4.9688-4.0312-9-9-9s-9 4.0312-9 9v18c0 2.3867 0.94922 4.6758 2.6367 6.3633s3.9766 2.6367 6.3633 2.6367z"/>
 <path d="m294 159h-18c-4.9688 0-9 4.0312-9 9s4.0312 9 9 9h18c4.9688 0 9-4.0312 9-9s-4.0312-9-9-9z"/>
 <path d="m357 168c0-4.9688-4.0312-9-9-9h-18c-4.9688 0-9 4.0312-9 9s4.0312 9 9 9h18c2.3867 0 4.6758-0.94922 6.3633-2.6367s2.6367-3.9766 2.6367-6.3633z"/>
 <path d="m312 177c-4.9688 0-9 4.0312-9 9v18c0 4.9688 4.0312 9 9 9s9-4.0312 9-9v-18c0-4.9688-4.0312-9-9-9z"/>
 <path d="m312 159c4.9688 0 9-4.0312 9-9v-18c0-4.9688-4.0312-9-9-9s-9 4.0312-9 9v18c0 4.9688 4.0312 9 9 9z"/>
 <path d="m969 591h-18c-4.9688 0-9 4.0312-9 9s4.0312 9 9 9h18c4.9688 0 9-4.0312 9-9s-4.0312-9-9-9z"/>
 <path d="m1023 591h-18c-4.9688 0-9 4.0312-9 9s4.0312 9 9 9h18c4.9688 0 9-4.0312 9-9s-4.0312-9-9-9z"/>
 <path d="m987 609c-4.9688 0-9 4.0312-9 9v18c0 4.9688 4.0312 9 9 9s9-4.0312 9-9v-18c0-2.3867-0.94922-4.6758-2.6367-6.3633s-3.9766-2.6367-6.3633-2.6367z"/>
 <path d="m987 591c4.9688 0 9-4.0312 9-9v-18c0-4.9688-4.0312-9-9-9s-9 4.0312-9 9v18c0 2.3867 0.94922 4.6758 2.6367 6.3633s3.9766 2.6367 6.3633 2.6367z"/>
 <path d="m195 465h-18c-4.9688 0-9 4.0312-9 9s4.0312 9 9 9h18c4.9688 0 9-4.0312 9-9s-4.0312-9-9-9z"/>
 <path d="m249 465h-18c-4.9688 0-9 4.0312-9 9s4.0312 9 9 9h18c4.9688 0 9-4.0312 9-9s-4.0312-9-9-9z"/>
 <path d="m213 483c-4.9688 0-9 4.0312-9 9v18c0 4.9688 4.0312 9 9 9s9-4.0312 9-9v-18c0-4.9688-4.0312-9-9-9z"/>
 <path d="m213 465c4.9688 0 9-4.0312 9-9v-18c0-4.9688-4.0312-9-9-9s-9 4.0312-9 9v18c0 2.3867 0.94922 4.6758 2.6367 6.3633s3.9766 2.6367 6.3633 2.6367z"/>
 <path d="m924 753c0 4.9688-4.0312 9-9 9s-9-4.0312-9-9 4.0312-9 9-9 9 4.0312 9 9"/>
 <path d="m906 375c0 4.9688-4.0312 9-9 9s-9-4.0312-9-9 4.0312-9 9-9 9 4.0312 9 9"/>
 <path d="m294 699c0 4.9688-4.0312 9-9 9s-9-4.0312-9-9 4.0312-9 9-9 9 4.0312 9 9"/>
 <path d="m222 933c0 4.9688-4.0312 9-9 9s-9-4.0312-9-9 4.0312-9 9-9 9 4.0312 9 9"/>
 <path d="m276 321c0 4.9688-4.0312 9-9 9s-9-4.0312-9-9 4.0312-9 9-9 9 4.0312 9 9"/>
 <path d="m1014 177c0 4.9688-4.0312 9-9 9s-9-4.0312-9-9 4.0312-9 9-9 9 4.0312 9 9"/>
</svg>
