<?xml version="1.0" encoding="UTF-8"?>
<svg width="1200pt" height="1200pt" version="1.1" viewBox="0 0 1200 1200" xmlns="http://www.w3.org/2000/svg">
 <path d="m1161.6 315.05c-0.46875-3.6562-3.375-6.8438-7.4062-5.625-1.875 0.5625-3.7031 1.125-5.5312 1.6875-30.141 9.75-57.844 26.812-80.062 49.406-3.9375 3.9375-7.6406 8.1094-11.156 12.422-1.9688-4.6406-4.5938-9-7.9688-12.797 20.531-26.484 20.344-66.094 1.7812-93.656-4.4531-6.6094-9.8438-12.422-16.125-17.203 18.562-27.844 10.312-69.281-17.25-88.406-3.7031-2.625-7.7344-4.5-11.953-6.1406-5.0625-1.9688-9.4688-3.6562-12.234-8.6719-2.4375-4.4062-3.9375-9.3281-6.4688-13.781-2.2031-3.8906-4.875-7.5469-7.875-10.922-11.438-13.031-28.219-21.469-45.281-24-17.906-2.7188-36.094 0.32812-51.141 10.125-12.188-17.297-33-27.891-54.188-28.219-23.812-0.375-45.516 13.5-56.812 34.266-4.875 8.9531-7.875 19.031-8.25 29.25-9.8438-3.1875-19.594 2.0625-26.812 8.5312-6.5625 5.9062-12.094 13.219-16.266 20.953-7.5469 13.922-11.016 29.484-10.172 45.188-14.062 1.4531-25.875 13.406-30.188 26.625-5.9062 18 1.9688 37.688 12.141 52.5-2.7656 3.8438-4.9688 8.0156-6.7031 11.625-5.0156 10.641-7.7812 22.406-7.4062 34.172 0.65625 21.891 12.281 42.094 31.266 52.875-18.281 1.6875-36.281 6.9375-52.781 15.094-22.219 10.969-41.766 27.656-55.359 48.422-12.75-19.875-37.219-29.578-59.344-36.188-17.438-5.2031-35.484-9.6562-53.719-12.234 14.719-8.5312 25.875-23.391 30.609-39.938 2.0625-7.3125 3.0938-14.906 3.0938-22.547 1.3125-0.32812 2.5312-1.125 3.4688-2.4844 20.812-30.938 27.75-70.641 19.031-106.88-2.5312-10.453-6.0938-21.422-14.016-29.062-0.46875-0.42188-0.9375-0.75-1.4062-1.0312 1.875-16.641-0.60938-33.562-8.7188-48.797-12.094-22.688-35.812-38.719-61.969-37.5-3.2812 0.1875-6.4688 0.5625-9.6562 1.2188-11.156-15-26.719-26.438-44.625-32.344-19.219-6.375-40.734-5.5312-59.531 1.875-3.8438 1.5-7.5469 3.2812-11.109 5.25-0.1875-0.1875-0.375-0.32812-0.5625-0.46875-14.25-10.125-32.625-13.406-49.688-10.031-17.25 3.375-32.156 14.391-40.875 29.625-4.2188 7.4062-6.9375 15.562-8.0625 23.953-20.531 4.0312-39 17.438-49.266 35.766-12.188 21.844-10.594 48.75 2.4375 69.844 5.9062 9.5625 14.062 17.906 23.719 23.719-14.672 21.188-10.547 53.297 8.9062 70.125-18.562 12.75-27.281 38.344-18.469 59.578 6.375 15.281 19.875 26.531 35.25 30.234-0.46875 0.51562-0.9375 1.0312-1.3594 1.5469-1.125-0.046875-2.25 0.1875-3.3281 0.65625-5.5312 2.3906-12.562-2.1562-16.781-5.3906-5.5312-4.3125-10.594-9.5156-15.141-14.812-8.9531-10.359-14.906-22.219-21.516-34.078-6.0938-11.016-13.781-21.516-25.969-25.969-7.5938-2.8125-16.125-2.25-24.094-2.625-8.2969-0.375-16.594-1.0312-24.844-1.9219-18.656-2.0625-37.078-5.6719-55.219-10.5-2.6719-0.75-5.1094 0.51562-6.6094 2.6719-7.9219 11.25-3.0938 25.922 4.9219 35.625 5.0625 6.1406 11.766 10.266 18.469 14.484-4.6406 0.65625-8.3906 3.1875-9.6562 8.0625-2.0625 7.9688 2.7656 18 7.2656 24.281 4.5938 6.4219 10.406 11.719 16.828 16.219h-0.1875c-4.5938 0.14062-7.1719 4.8281-5.0625 8.8125 5.25 9.9375 12.938 18.188 22.125 24.188-1.9688 1.125-3.8438 2.4844-5.3906 4.2188-5.4375 5.9062-6.0938 13.875-2.8125 21.047 3.1875 6.9375 9.5156 11.812 16.406 14.672 0.46875 0.1875 0.9375 0.375 1.4062 0.51562-6.9375 6.0938-6.4688 16.875 0.65625 22.828 6.9844 5.8594 15.938 6.7969 24.516 8.7188 9.2812 2.0625 18.516 4.5938 27.75 7.0312 8.4375 2.2031 16.781 4.5 25.312 6.1875-0.09375 5.8594 0.1875 11.719 0.75 17.531 1.875 18.375 6.5625 37.547 16.547 53.25 4.0312 6.2812 8.9062 11.812 14.719 16.312-0.1875 0.1875-0.28125 0.42188-0.46875 0.65625-15.703 27.562-16.828 62.297-3 90.891 3.4219 7.0781 8.25 13.641 10.312 21.281 2.0625 7.7812 0.46875 15.844-1.7344 23.438-2.3906 8.25-5.625 16.219-7.5938 24.562-0.51562 2.1562-0.9375 4.3125-1.3125 6.4688-11.719-0.32812-22.594-5.7188-33.188-10.5-12.844-5.8594-26.531-11.812-41.062-9.9375-16.078 2.0625-28.453 12.984-37.688 25.688-10.312 14.156-17.25 30.844-23.344 47.156-3.2344 8.7188-7.5938 20.25 2.25 26.531 4.9219 3.1406 10.172 2.8594 15 0.75v0.9375c0 2.4375 1.7812 5.1094 4.3125 5.625 1.9219 0.42188 3.8438 0.5625 5.6719 0.375 1.7812 3.9844 5.4375 7.3125 9.75 8.7188 4.125 1.3594 8.625 1.2188 12.844 0.84375 5.4375-0.51562 9.0469-2.9062 10.969-8.1094 3.0938-8.3438 5.3438-16.875 8.9531-25.078 2.9062-6.7031 6.2344-13.219 9.8906-19.594 11.484 7.9688 23.953 14.344 37.031 19.266-9.0469 11.484-20.438 20.953-31.125 30.891-11.297 10.5-22.125 22.312-28.969 36.281-7.125 14.625-8.9062 30.703-3.1875 46.172 3.4219 9.3281 8.3438 18.094 12.938 26.906 4.7812 9.2344 9.5625 18.469 14.344 27.75 6.9375 13.5 16.031 32.766 34.125 31.875 2.5781-0.14062 4.9688-1.7344 5.625-4.3125 0.5625-2.1562 1.125-4.3125 1.7344-6.4688 5.5312 1.7812 11.859 0.98438 16.688-2.25 4.4062-2.9062 7.2188-7.3125 8.5312-12.188 5.7656 0.46875 10.922-3.0938 13.312-8.3438 5.8125-12.75-4.9219-25.219-11.109-35.625-6.2812-10.594-12.281-21.609-15.094-33.75-1.3125-5.625-1.875-11.672-1.0312-17.344 0.28125-2.1094 2.0156-2.7188 3.75-3.75 2.7188-1.5469 5.4375-3.1406 8.1094-4.7812 14.344-8.9531 27.938-19.875 38.625-33.094 15.281 8.2969 32.906 13.406 50.438 11.812 15.75-1.4062 30.938-8.1562 41.672-19.922 5.1562-5.6719 9.1875-12.281 11.578-19.641 2.8594-8.8125 2.4844-18.234 3.9844-27.281 2.8125-16.875 9.0938-33 16.219-48.469 7.0312-15.375 14.719-30.375 21.094-46.031 1.3594 1.2188 2.6719 2.4844 4.0312 3.75 31.219 28.688 62.531 57.281 93.75 85.969 15.469 14.156 30.656 28.781 46.453 42.562 3.5156 3.0938 7.2656 5.625 12 6.1875 4.5 0.5625 8.9062-0.9375 12.562-3.5156 3.375-2.3438 5.8125-5.3438 8.7188-8.1562 5.0625-5.0156 10.641-9.6094 15.938-14.391 11.531-10.406 22.969-20.766 34.5-31.172 15-13.547 30-27.094 44.953-40.641 15.562-14.062 31.125-28.125 46.688-42.141 13.406-12.141 26.859-24.281 40.312-36.375 4.8281-4.4062 9.75-8.8125 14.625-13.219-0.375 7.2188-3.6562 14.484-5.8594 21.234-3.6562 10.828-6.75 21.797-9.4688 32.906-2.625 10.922-5.0156 22.031-6.4688 33.188-1.4531 11.25 0 21.844 6.4688 31.312 7.125 10.406 15.75 20.016 23.719 29.812-5.5312 11.812-10.781 23.812-12.094 36.938-2.5781 25.312 10.172 49.734 26.578 68.156 17.625 19.781 40.781 33.656 61.969 49.125 2.8125 2.0625 5.625 4.1719 8.3438 6.3281 2.25 1.7812 6 3.9375 7.0312 6.75 1.0312 2.7656-0.32812 7.0312-0.75 9.8438l-1.6875 12.094c-2.2969 16.688-4.5938 33.328-6.9375 49.969-0.5625 4.0312 1.5 7.0312 5.625 7.4062 3.5625 0.375 7.0312-0.375 10.078-1.9688 0.1875 1.875 0.46875 3.8438 0.65625 5.7188 0.46875 4.3125 4.5938 7.4062 8.8125 5.0625 4.9688-2.8125 9.4688-6.2812 13.406-10.266 1.3125 4.5 3.2344 8.8594 5.8125 12.844 1.4531 2.2969 3.9844 3.2812 6.6094 2.6719 18.469-4.0312 28.312-21.844 34.875-37.969 7.0781-17.25 13.312-36.094 13.266-54.938-0.046875-9.1875-1.875-18.375-6.2812-26.438-4.2656-7.7812-10.922-13.875-18.516-18.281-14.109-8.0625-30.938-10.266-44.578-19.125-6.5625-4.2188-11.438-10.547-13.219-18.469-2.1094-9.3281 0.28125-19.219 3.375-28.031 0.9375-2.625 1.9219-5.1562 3-7.6875 15.141 4.0312 31.312 3.375 46.828 2.9531 9.6094-0.28125 19.219-0.5625 28.828-0.1875 8.7656 0.375 17.438 1.5 26.203 1.5938 3.75 0.09375 7.5938 0.14062 11.25 1.2188 1.4531 0.42188 2.8125 1.0312 4.0312 1.875 0.5625 0.375 0.79688 0.60938 1.3125 1.0781 0.09375 0.09375 0.09375 0.09375 0.14062 0.09375 0.14062 0.28125 0.28125 0.46875 0.42188 0.70312 0.1875 0.23438 0.28125 0.46875 0.42188 0.75l0.09375 0.1875c0.1875 0.5625 0.375 1.125 0.51562 1.7344 0.375 1.5 0.375 1.6875 0.42188 3.5625 0.09375 3-0.28125 5.7656-0.79688 8.625-1.3125 6.7031-3.5625 13.219-6.0938 19.547-0.5625 1.3125-0.75 1.875-1.125 2.7188-0.84375 1.9688-1.7812 3.9375-2.7656 5.8594-2.0625 4.2188-4.3125 8.5312-5.3906 13.172-2.0625 8.7188-0.1875 19.875 8.4375 24.562 3.2812 1.7812 7.3125 2.2969 11.016 1.5 0.09375 0.28125 0.28125 0.51562 0.375 0.75 2.25 4.3125 6.5625 7.7812 11.344 8.625 5.5312 1.0312 10.875-1.0312 14.672-4.7812 1.6875 1.2656 3.75 2.1562 6.0938 2.5312 2.8125 0.46875 5.7188-0.09375 8.2969-1.2656 0.14062 0.09375 0.28125 0.09375 0.375 0.1875 9.4219 3.9375 16.594-5.5312 19.5-13.172 1.7812-4.7344 2.4375-9.9375 3.4219-14.906 1.2188-5.9062 2.3438-11.859 3.5625-17.812 2.2969-11.484 4.5938-22.922 6.8906-34.406 1.8281-9.0938 3.75-18.281 4.0312-27.609 0.1875-8.3906-1.0781-17.344-5.625-24.562-5.25-8.4375-13.922-13.125-23.391-15.281-10.5-2.4375-21.469-3.375-32.062-4.875-11.531-1.5938-22.969-3.2344-34.5-4.875-13.031-1.8281-26.062-3.6562-39.094-5.5312-9.2344-1.3125-18.469-2.625-27.75-3.2812 0.9375-1.0781 1.7812-2.1562 2.7188-3.2344 6.6562-7.6875 14.203-14.109 22.172-20.344 12.844-10.031 25.594-20.766 34.031-34.922 9.4688-15.891 12.891-35.25 12.656-53.531-0.28125-20.812-6.8906-40.312-15.188-59.203-1.3125-3-2.7188-6-4.125-9 12.281-4.6875 24-10.969 33.891-19.219 8.3906-7.0312 14.812-16.219 17.812-26.859 2.6719-9.5156 2.6719-19.547 1.8281-29.344 34.922-4.7812 65.438-30.188 75.938-64.125 0.65625-2.2031 0-4.0781-1.3594-5.4375 2.8125-2.3438 5.4375-4.9219 7.875-7.6875 4.9219-5.7188 9.2812-12.234 9.5625-20.016 0.23438-7.4062-4.7344-13.688-12.094-14.859-3.0938-0.51562-6.0469-0.28125-9.1406-0.09375 7.875-8.4375 15.75-17.25 14.25-29.625-0.75-6.1406-4.0781-11.391-9.4688-14.297 3.375-3.1875 6.6562-6.4219 9.6562-9.9375 6.5625-7.5 12.188-15.703 16.031-24.938 3.7031-9 3-19.031-5.8125-24.562-1.5-0.9375-3.1875-1.7344-4.875-2.3438 6.4688-4.4062 12.516-9.375 17.531-15.281 8.5781-10.172 14.531-23.438 12.75-37.031zm-460.31 58.266c-12.281-14.484-13.875-35.156-8.0625-52.688 1.6875-5.0625 4.0312-9.8438 6.9375-14.344 1.3125-2.1094 2.8125-4.2188 4.5-6.0469 1.2188-1.2656 3.375-3.8438 5.3906-3.4219 3.0938 0.65625 6.3281-0.89062 7.2188-4.125 0.79688-2.9062-0.9375-6.5625-4.0781-7.2188-4.5938-0.9375-8.7188 0.1875-12.328 2.5781-7.4062-11.484-13.5-25.688-9.75-39.375 2.6719-9.9375 10.922-18.562 21.094-19.594 1.5-0.14062 3.0938-0.14062 4.6406 0.09375 4.2188 0.5625 6.0938-4.125 5.625-7.4062-1.9688-14.25 0.9375-29.25 7.5-42 3.3281-6.4688 7.5-12.469 12.656-17.625 4.5469-4.5938 11.109-10.312 18.047-8.0625 1.5 0.46875 2.8125 0.375 3.8906-0.14062 0.84375 2.3438 2.6719 4.0781 5.4375 4.0781 2.7656 0 6.2812-2.6719 5.8594-5.8594-2.3906-19.547 6.4688-39.891 22.453-51.469 16.031-11.625 37.172-12.562 54.75-3.7031 9.75 4.875 17.906 12.281 23.25 21.844 1.9688 3.5625 6.375 3.4688 9.1875 1.1719 1.2656-1.0312 2.5781-1.9688 3.9375-2.9062 23.578-15.703 58.594-10.406 78.609 9.1875 5.9062 5.7656 9.7969 12.375 13.078 20.062 2.1562 5.0156 4.5938 9.8438 9 13.266 4.2656 3.375 9.8438 4.875 14.438 6.9375 13.781 6.1875 23.016 18.984 26.953 33.281 4.3125 15.797 2.25 33.938-8.625 46.594-2.5312 2.9062-2.1562 7.125 1.1719 9.1875 0.60937 0.375 1.2188 0.75 1.7812 1.1719 24.469 16.688 33.188 50.672 24.281 78.094-2.5781 7.875-6.75 15.281-12.375 21.422-2.0625 2.25-2.4375 6.0938 0 8.25 6.3281 5.7656 10.125 13.312 11.672 21.422 1.4062 7.2188 0.98438 14.859-1.0312 22.031-4.7344 16.547-18.562 28.641-34.5 34.312-4.125 1.5-8.2969 2.5781-12.562 3.3281-5.8594 1.0312-11.766 1.3594-17.719 1.0781-6.2812-0.28125-7.3125 7.7812-3.0938 10.688-4.7344 3-9.8438 5.1562-15.469 5.3438-3.8438 0.09375-7.875-0.65625-11.062-3-1.6875-1.2656-3-3-4.6406-4.4062-1.4062-1.2188-2.8125-2.0625-4.3594-2.7188-1.125-1.125-2.8125-1.875-4.3125-1.875-0.75 0-1.5 0.09375-2.1562 0.375-7.875-2.7188-15.656-6.5625-21.609-12.422-3.0938-3-5.1094-5.9531-7.0312-10.078-0.28125-0.5625-0.46875-1.0781-0.84375-2.1562-0.32813-1.0312-0.60938-2.0625-0.84375-3.0938-0.09375-0.5625-0.23438-1.125-0.28125-1.6406 0-0.09375-0.09375-0.75-0.09375-0.9375-0.09375-0.84375-0.09375-1.6875-0.09375-2.4844 19.922-12.141 34.922-30.562 44.062-52.406 13.547-32.438 13.875-68.672 12.703-103.27 0.14063-0.79688 0.09375-1.5938-0.1875-2.3438 0-0.09375 0-0.14062-0.046874-0.1875-0.5625-1.875-1.875-3.0938-3.4219-3.6562-1.4062-0.65625-3-0.75-4.5-0.09375-0.1875 0.09375-0.32812 0.14062-0.46875 0.1875h-0.046874c-0.70313 0.28125-1.3125 0.75-1.7812 1.3125-2.1562 1.4062-5.9531 0.51562-8.4375-0.1875-3.7969-1.0312-7.3125-2.625-10.641-4.7344-5.25-3.3281-9.8438-8.0156-13.031-13.5-0.75-1.2188-1.3594-2.5312-1.9219-3.8438-1.6875-4.0312-6.2812-5.8594-9.7969-2.5781-13.828 13.031-37.125 14.438-52.5 3.375-1.0312-0.70312-1.9688-1.4531-2.9062-2.25-4.0781-3.5625-9.4219-0.9375-9.9844 4.125-1.2188 10.219-10.219 19.266-20.344 20.719-8.7188 1.2656-17.344-2.8125-22.688-9.5625-1.0312-1.4062-1.9688-2.8594-2.7656-4.4062-2.0625-4.2188-7.8281-3.375-10.125 0-6.8906 10.172-20.344 13.875-31.734 10.125-0.65625-0.1875-1.3125-0.46875-1.9688-0.70312-2.9062-1.2188-6.4688 1.3125-7.2188 4.125-0.46875 1.7812-0.14063 3.3281 0.75 4.5938-1.875 33.281-1.3594 67.922 11.062 99.281 8.25 20.859 21.422 40.594 39.562 54-13.781-8.4375-28.828-14.625-44.531-18.188 0.9375-3.75-2.1094-8.6719-7.125-7.5938-17.203 3.6562-35.062-4.3594-46.172-17.484zm133.92 60.188v0.5625c0 0.046875 0 0.09375-0.046874 0.23438-0.046876 0.28125-0.09375 0.5625-0.14063 0.84375-0.1875 0.9375-0.42187 1.875-0.70312 2.8125-0.14063 0.42188-0.28125 0.84375-0.42188 1.2188 0 0.046875 0 0.09375-0.046874 0.09375l-0.046876 0.09375c0 0.046875-0.046874 0.09375-0.046874 0.09375v0.046875c-0.375 0.84375-0.79688 1.5938-1.2656 2.3438-0.28125 0.375-0.46875 0.79688-0.75 1.1719-7.4062-7.875-15.703-15.047-24.656-21.281 2.625 1.5469 5.3438 2.9531 8.1562 4.2188 6.4688 2.9531 13.219 5.0625 20.062 6.375v1.125zm5.9062-11.953c-4.4062-0.60938-8.8125-1.5938-13.125-3-25.031-8.1094-43.312-29.203-54.188-52.406-14.344-30.469-15.375-64.875-13.828-98.062 11.859 1.8281 24.281-2.25 33.094-10.406 8.1562 9.8438 21.562 14.953 34.312 12.703 12.281-2.1562 22.031-11.156 26.531-22.406 17.812 10.594 41.297 9.9844 58.406-1.7812 4.4062 7.3125 10.5 13.406 18 17.812 6.2812 3.6562 14.906 7.0312 22.594 6.1875 0.65625 26.625 0 53.719-7.7344 79.359-4.0312 13.219-10.031 26.156-18.656 37.031-7.6875 9.6562-17.25 17.625-28.031 23.625-0.09375 0.046875-0.09375 0.09375-0.1875 0.09375-17.25 9.5625-37.594 13.969-57.094 11.203zm-605.76-3.4219c-9.2812-3.3281-17.016-10.594-21.562-19.266-4.6406-8.9062-5.0625-19.078-1.875-28.5 3.1875-9.4688 9.8438-17.297 18.469-22.078 1.2188-0.65625 2.5312-1.3125 3.8438-1.875 4.125-1.7344 3.5625-8.2031 0-10.125-21.938-11.906-27.094-45.656-9.7031-63.375 2.4375-2.4375 2.3438-7.5938-1.1719-9.1875-1.7812-0.79688-3.4688-1.6875-5.1094-2.625-16.031-9.375-27.141-26.344-29.438-44.859-2.5312-20.578 7.1719-40.875 23.906-52.922 8.2031-5.9062 17.625-9.9375 27.656-11.156 0.1875 0 0.375-0.046875 0.51562-0.09375 1.4531-0.1875 2.9062-0.28125 4.4062-0.28125 7.125-0.1875 7.5469-10.688 1.125-11.625 2.25-12.188 8.8125-23.625 18.516-31.406 10.875-8.7188 25.781-12.141 39.422-10.078 6.6094 0.98438 12.844 3.1875 18.562 6.5625-2.625 1.9688-5.1562 4.125-7.5938 6.375-5.4844 5.1562 2.8125 13.453 8.2969 8.25 12.797-12.141 29.906-19.781 47.484-21.141 17.812-1.3594 35.25 3.5625 49.969 13.688 5.9531 4.125 11.344 9.0938 15.938 14.672-6.4219 2.6719-12.375 6.5625-17.438 11.531-5.4375 5.25 2.9062 13.547 8.2969 8.25 5.7188-5.5312 12.703-9.2812 20.203-11.25 12.656-3.375 26.719-1.6875 38.25 4.7812 19.453 10.969 30.938 32.484 31.828 54.469 0.5625 14.438-2.7188 28.828-9 41.766-1.4062 2.8594-0.75 6.375 2.0625 8.0156 2.5781 1.5 6.6562 0.75 8.0156-2.0625 3.0469-6.2812 5.5312-12.844 7.2656-19.594 3.1875 5.0625 4.9219 11.062 6.375 16.781 2.1094 8.1562 3.3281 16.453 3.6562 24.844 0.65625 16.875-2.0156 33.703-7.9219 49.5-2.1562 5.8594-4.8281 11.438-7.875 16.875-0.5625-3.1406-1.2188-6.2344-2.0625-9.2812-1.9219-7.2656-13.219-4.1719-11.297 3.0938 6 22.641 3.75 49.219-13.406 66.609-7.3594 7.5-16.969 12.891-27.375 14.531-1.875 0.28125-3.6562 0.42188-5.5312 0.42188-7.875 0-15.562-2.5781-22.078-7.2188-8.7188-6.1875-14.719-16.219-14.719-27.047 0-0.32812 0-0.65625-0.09375-0.9375 3.6094-4.5938 6.8438-9.4688 9.6562-14.531 13.219-23.578 18-50.344 21.938-76.828 0.5625-0.84375 0.89062-1.7812 0.9375-3 0.09375-1.875 0.1875-3.6562 0.28125-5.5312v-0.65625c2.8125-0.5625 5.5312-1.2188 8.25-1.875 0.46875 0.09375 0.98438 0.1875 1.5 0.1875 5.625 0 7.0312-6.5625 4.3125-9.8438l-0.046875-0.046875c-1.2188-1.875-3.375-3-6.1406-2.2969-12.656 3.2812-27.094 6.5625-39.938 2.3906-15-4.9219-16.875-21.562-22.594-34.078-1.3125-2.9062-5.4844-3.5625-8.0156-2.0625-2.9531 1.6875-3.375 5.1094-2.0625 8.0156 1.7812 3.8906 3.0938 7.9688 4.5 12-0.09375 0.14062-0.1875 0.32812-0.28125 0.46875-6.6562 12.656-19.875 21.844-34.406 22.594-11.719 0.65625-23.391-3.9375-31.688-12.094 7.3125-5.25 13.5-12.141 17.906-20.016 3.6562-6.5625-6.4688-12.516-10.125-5.9062-3.7969 6.8438-9.1406 12.656-15.469 17.062-3.75-2.1562-9.0938 0.84375-9.0469 4.9219-2.4375 1.0312-4.9688 1.875-7.5938 2.4844-14.016 3.3281-29.766 0-41.156-8.9062-2.4844-1.9219-5.8594-2.4375-8.25 0-2.0156 2.0625-2.5312 6.375 0 8.2969 3.2812 2.5312 6.7031 4.6875 10.312 6.5625-0.5625 0.84375-0.84375 1.8281-0.9375 3.0469-0.79688 26.344-2.6719 53.484 6.6562 78.656 4.125 11.156 9.9844 21.703 17.531 30.938-2.25 7.4062-4.0312 14.953-5.4375 22.547 0 0.09375-0.046875 0.23438-0.046875 0.32812-0.375 0.51562-0.70312 1.125-0.9375 1.7344-5.4844 14.531-20.25 24.094-35.344 24.469-4.4062 0.09375-8.8594-0.5625-13.125-2.0625zm50.531-76.172c-11.109-24.938-9.0938-52.594-8.25-79.172 9.8438 3 20.297 3.4688 30.609 1.2188 4.0312-0.89062 7.9688-2.25 11.719-3.9375 10.594 11.625 26.156 18.656 42 17.812 15.984-0.84375 31.125-9.1875 40.5-22.031 4.4062 6.8438 10.875 11.719 18.562 14.438 7.6406 2.6719 15.844 3.0938 24 2.3438-4.6875 32.062-10.969 69.469-32.344 94.641-6.5625 7.7344-14.531 14.344-24.375 19.266-18.797 9.4688-42.094 8.5312-60.938-0.375-9.7969-4.5938-18.328-11.25-25.453-19.125-6.6562-7.3125-12-15.844-16.078-24.938zm-218.58 58.875-0.09375 0.1875c0-0.14062 0.046875-0.1875 0.09375-0.1875zm78.422 134.48c-7.125-1.8281-14.391-3.1406-21.562-4.8281-3-0.75-6.4688-1.7812-8.8594-3.5625-0.9375-0.70312-1.875-1.7812-2.0625-2.2031-0.51562-1.2656-0.46875-1.5-0.046875-2.5312 0 0.1875 0.75-0.9375 0.46875-0.70312 0.65625-0.79688 0.375-0.46875 1.2656-0.9375 1.0312-0.5625 2.3906-0.98438 4.125-1.2656 2.4375-0.375 5.5312-0.1875 8.3438 0.375 0.46875 0.09375 0.98438 0.1875 1.4531 0.32812 6.2344 1.6406 10.641-7.6875 4.5-10.688-0.46875-0.23438-0.9375-0.46875-1.4062-0.65625-5.7188-2.625-11.719-4.0312-17.719-5.8594-5.1094-1.5469-10.172-3.5625-13.547-7.9219-2.3438-3.0469-3.75-7.125-1.125-10.406 2.3906-2.9062 6.5625-4.125 10.359-5.0625 1.0312-0.23438 2.0625-0.46875 3-0.65625 2.4844-0.5625 4.3125-3.1875 4.3125-5.625 0-2.7656-1.875-4.6875-4.3125-5.625-8.8125-3.4219-16.406-9.2812-22.266-16.547 4.5 0.28125 9 0.9375 13.5 1.875 0.46875 0.09375 0.9375 0.1875 1.4531 0.28125 2.8125 0.65625 5.8125-0.60938 6.9375-3.375 1.0312-2.4844 0.28125-6.0469-2.3906-7.3125-0.46875-0.1875-0.9375-0.42188-1.4062-0.65625-11.906-5.625-24.094-11.906-33-21.75-4.125-4.5469-7.3125-10.078-8.4375-16.172-0.046875-0.1875-0.14062-1.0312-0.1875-1.7812 0.79688 0 1.875-0.09375 1.9688-0.09375h14.344c4.875 0 7.9688-6.5625 4.125-9.9844-1.0312-0.9375-2.1562-1.875-3.2812-2.7656-8.4375-6.5625-18.375-11.062-26.156-18.422-5.3438-5.1094-9.9375-13.312-7.875-20.625 15.234 3.8438 30.656 6.75 46.266 8.8125 8.4375 1.125 16.875 1.9219 25.406 2.4375 4.125 0.28125 8.3438 0.46875 12.469 0.5625 4.125 0.14062 8.3906 0.09375 12.469 1.125 11.812 2.9531 18.094 14.484 23.438 24.469 6.8438 12.75 13.969 24.891 23.719 35.672 8.1562 9 19.266 19.922 31.594 21.562-16.125 21.609-28.781 45.75-35.531 71.953-2.4375 9.375-4.125 19.031-4.875 28.688-13.312-2.8125-26.344-6.7031-39.516-10.031zm67.875 89.062c-9.1875-13.219-13.828-29.672-16.031-45.469-1.2188-8.7188-1.5938-17.625-1.125-26.438 0.375-8.5781 1.5-17.109 3.2812-25.5 7.6406-36 27.094-68.25 51.75-95.156 4.5-0.32812 9.0938-1.3125 13.5-3.0469 13.828-5.3906 24.75-15.938 30-29.812 0.51562-0.65625 0.89062-1.3594 1.0312-2.2031 0.9375-5.25 2.1094-10.5 3.4688-15.656 4.6875 4.3594 9.75 8.25 15.281 11.484 20.438 12.094 46.453 15.891 69.188 8.2031 11.297-3.8438 21.281-10.219 29.812-18.281 2.8125 11.016 10.031 20.438 19.406 26.859-28.125 3.5625-54.281 14.344-76.219 32.719-21.281 17.812-37.312 41.625-47.062 67.547-12.047 32.062-12.938 67.125-5.6719 100.41-9.75-2.625-19.547-5.9062-28.406-10.969-3.75-2.1562-7.4531-4.6406-10.688-7.5938 8.8125-27.844 12.797-57.141 11.672-86.297 5.0156-9.4688 10.5-18.656 16.219-27.562 4.125-6.3281-6-12.188-10.125-5.9062-6.3281 9.75-12.094 19.828-17.438 30.188-5.5312 10.828-10.5 21.938-14.906 33.281-4.2188 11.016-8.25 22.688-7.6875 34.688 0.42188 9.6094 3.9375 18.469 9.9844 25.734 0.42188 0.9375 1.125 1.6875 1.9688 2.1562 0.09375 0.14062 0.23438 0.28125 0.375 0.375 6.9375 7.125 15.844 12.188 24.938 16.031 9.6562 4.125 19.781 7.2188 30 9.375 1.125 0.23438 2.25 0.46875 3.375 0.65625 6.0938 1.1719 12.281 2.0156 18.469 2.5781 5.9531 0.51562 12.188 0.79688 17.625-2.0625 8.9062-4.6875 11.391-15 16.031-23.109 2.8594-5.0625 6.4688-9.4688 10.781-13.359 3.1875-2.9062 8.8594-7.1719 13.5-4.9688 3 1.5 4.2188 5.625 4.2188 8.8125 0 5.9531-3.5625 11.531-6.4219 16.5-2.625 4.5469 1.6875 9.75 6.6562 8.625 1.2188-0.28125 2.4375-0.65625 3.6562-1.125 5.0625-1.9688 9.5156-5.2969 13.641-8.9062 4.5938-4.0312 9-9 14.812-11.25 3.4688-1.3594 9-1.5938 11.25 1.5938 0.51562 0.75 0.65625 2.2031 0.32812 3.375-0.23438 0.9375-0.28125 0.98438-0.5625 1.3125-0.046875 0.09375-0.1875 0.1875-0.32812 0.32812-0.23438 0-0.9375 0.32812-1.0781 0.375-2.8125 0.5625-4.5938 3.75-4.2188 6.4688 0.46875 3.0938 2.7656 4.7344 5.7656 5.0625 0.51562 0.046875 1.0312 0.09375 1.5 0.1875 0.9375 0.09375 1.9688 0.1875 2.9062 0.28125h0.14062c0.23438 0.046875 0.75 0.14062 0.9375 0.1875l1.6875 0.84375c0.84375 0.75 0.9375 0.84375 1.3125 1.7812-0.1875-0.28125 0.28125 1.5 0.375 1.5 0.09375 1.6875-0.32812 2.5312-1.9688 4.1719-0.09375 0.09375-0.1875 0.23438-0.32812 0.375-0.046875 0-0.09375 0.046875-0.09375 0.09375-0.09375 0.09375-0.23438 0.1875-0.375 0.28125-5.3438 5.3438 2.9531 13.594 8.2969 8.25 0.09375-0.09375 0.23438-0.1875 0.375-0.28125 3.2812-2.7188 8.625-0.5625 9.9844 4.125 2.0625 6.7969-2.7656 13.312-7.7344 17.344-12.469 10.078-29.719 14.625-45.234 17.062-16.922 2.5781-34.359 2.3906-51.422 1.5-6.5625-0.32812-13.078-0.84375-19.594-1.5-10.875-1.125-21.656-2.8125-32.344-4.9688-17.625-3.5625-34.875-8.5781-51.656-15.094-15.094-5.8594-31.266-12.469-40.875-26.25zm44.719-76.031c1.9219-5.9062 4.125-11.812 6.4688-17.578-1.0781 16.359-3.8438 32.578-8.2031 48.469-3.8438-9.9375-1.4062-21.047 1.7344-30.844zm-99.984 293.06c-2.5781-1.9219-6.5156-0.375-8.0156 2.1094-7.6875 12.469-14.062 25.781-18.984 39.609-1.1719 3.2812-2.25 6.6562-3.2812 9.9844 0 0-0.51562 1.7812-0.9375 2.8594h-0.28125c-0.75-0.09375-1.6406 0.09375-2.3906 0.1875-2.4375 0.09375-5.7656 0.42188-7.875-1.125-0.65625-0.46875-0.89062-1.125-1.3125-1.7812-0.375-0.5625-0.1875-0.375 0.09375-0.9375 3.375-5.6719-4.125-11.438-8.9062-7.3125v-5.3438c0-4.875-6.5625-7.9688-9.9844-4.125-1.9688 2.1562-4.2188 4.7344-7.2188 5.4375-1.4062 0.28125-3.6562 0.1875-4.0312-1.5938-0.5625-2.5781 1.2656-5.8594 2.1094-8.25 1.5-4.0781 3-8.1562 4.5938-12.188 5.3906-13.406 11.719-27.375 20.859-38.672 7.6875-9.4688 17.859-17.625 30.562-17.812 11.953-0.1875 23.156 5.4375 33.75 10.312 10.781 4.9688 22.125 9.9844 34.031 10.547-0.28125 2.4375-0.5625 4.875-0.84375 7.3594-0.9375 8.1562-2.1562 16.359-4.9688 24.141-1.1719 3.2812-2.6719 6.375-4.4062 9.4219-15.328-5.3438-29.625-13.125-42.656-22.781zm202.03 0.89062c-2.1562 8.4375-3.375 17.016-4.125 25.688-0.65625 7.5938-2.0625 14.625-6.0938 21.234-6.8438 11.25-18.75 18.938-31.406 21.844-17.062 3.9375-34.969-0.5625-50.203-8.5312 1.6406-2.5781 3.1875-5.1562 4.5938-7.875 12.094-22.922 14.812-48.938 20.719-73.781 6.4688-27.281 18.938-52.312 37.969-72.938 5.1094-5.5312-3.1875-13.828-8.2969-8.25-16.312 17.719-28.828 38.719-36.375 61.594-7.6406 23.109-9.5625 47.719-17.156 70.875-3.5625 10.875-8.8125 20.719-15.375 29.625-6.6094 8.9062-14.531 16.781-23.578 23.766-4.5 3.4688-9.1875 6.6562-14.016 9.6562-4.5469 2.8125-10.406 5.1094-14.062 9.1406-4.3125 4.7812-4.2188 12.281-3.8438 18.375 0.375 6 1.5 12 3.375 17.812 4.2188 13.031 11.156 24.844 18.281 36.469 1.7812 2.9062 3.6094 5.7656 5.25 8.7188 1.3125 2.4375 2.7188 5.2969 2.2969 8.1562-0.1875 1.1719-1.0312 3.1406-1.7344 3.4688-0.375 0.1875-0.79688-0.046875-1.2188-0.1875-0.09375-0.5625-0.28125-1.2188-0.42188-1.7812-1.875-6.4219-11.344-5.0625-11.531 1.5469-0.046875 1.4062 0.1875 2.7656 0.65625 4.0312 0.46875 3.8438-0.46875 8.0625-3.7969 10.406-3.1875 2.25-7.5 1.6875-9.9844-1.125-3-3.375-8.7188-1.5-9.7969 2.5781-0.46875 1.6406-0.89062 3.2812-1.3125 4.9688l-1.125 4.2188c-9.8438-3-15.516-17.438-19.688-25.5-8.1562-15.75-16.969-31.312-24.281-47.391-3.0938-6.75-5.1562-13.969-4.9688-21.469 0.14062-6.9375 2.1562-13.875 5.2031-20.156 6.5625-13.5 16.922-24.469 27.844-34.594 10.5-9.7031 21.422-19.031 30.375-30.188 1.875-2.3438 3.6562-4.7812 5.2969-7.2656 6.8438-10.5 11.156-21.891 13.125-34.688 1.0312-6.9375 1.5938-13.875 2.5312-20.812 0.375-0.75 0.5625-1.5469 0.5625-2.4844 0-0.28125 0-0.5625-0.09375-0.84375 0-0.1875 0.046875-0.32812 0.09375-0.46875 1.3125-8.1562 3.7969-15.938 6.375-23.812 2.5781-7.6875 4.9688-15.469 5.6719-23.625 0.75-8.625-1.3125-16.688-5.1094-24.422-3.7031-7.5469-8.25-14.531-11.016-22.5-2.625-7.5938-4.1719-15.516-4.5938-23.578-0.84375-16.453 2.8125-32.906 10.969-47.203l0.046875-0.09375c6.375 3.5625 13.219 6.4219 20.016 9.1875 18.094 7.4062 36.938 13.031 56.109 16.969 10.5 2.1562 21.141 3.8438 31.875 5.0625 17.203 27.188 39.656 50.156 63.047 72.094-11.531 29.766-28.922 57.188-36.938 88.312zm369.74-100.78c-15 13.594-30.047 27.188-45.094 40.734-15.281 13.781-30.562 27.562-45.797 41.344-12.703 11.484-25.406 22.922-38.062 34.406-7.5938 6.8438-15.141 13.688-22.688 20.484-1.5 1.3125-2.8594 2.625-4.1719 4.0312-2.25 2.5312-5.0625 5.8594-8.5312 6.6094-3.2812 0.75-5.8594-1.875-8.0625-3.9375-7.7812-7.0312-15.469-14.156-23.203-21.281-30.938-28.359-61.828-56.719-92.719-85.031-10.875-9.9375-21.938-19.875-32.812-29.906-0.46875-0.65625-1.0312-1.2188-1.6875-1.5938-17.109-15.938-33.656-32.438-48.188-50.719-3.4688-4.3125-6.75-8.8125-9.8438-13.406 4.0312 0.32812 8.0625 0.5625 12.047 0.75 18.938 0.79688 38.156 0.46875 56.812-3.0938 9.2812-1.7812 18.281-4.5 26.953-8.3438 7.875-3.4688 16.172-8.0156 21.938-14.625 5.9062-6.75 9.2812-15.984 6.75-24.891-2.0625-7.3125-8.2031-12.75-15.562-13.688 0-3.6094-1.2188-7.2188-3.75-10.359-1.5938-1.9688-3.375-3.1875-5.3438-4.125 0.75-2.1562 1.0312-4.5 0.84375-6.7969-0.84375-8.7188-8.1562-14.016-16.453-14.812-8.5312-0.84375-16.125 3.5625-22.453 8.8125-1.9219 1.5938-3.75 3.3281-5.625 5.0625 0.9375-4.5 0.84375-9.0938-0.9375-13.641-1.875-4.7812-5.1562-8.9062-9.8906-11.016-5.4375-2.3438-11.156-1.6875-16.5 0.65625-9.8438 4.4062-17.812 14.062-22.875 23.25-3.5625 6.4219-5.8594 17.953-14.625 18.797-5.625 0.5625-11.766-0.51562-17.344-1.3125-2.0625-0.28125-4.125-0.65625-6.1875-1.0781-7.3125-29.438-7.9688-60.469 0.75-89.672 7.3594-24.656 20.906-47.484 39.375-65.438 19.875-19.406 44.859-31.688 72.281-36.094 10.125-1.5938 20.344-2.2031 30.562-1.9688 21.844 0.51562 43.781 4.6875 64.688 10.219 14.672 3.8438 29.625 8.0625 43.125 15.047 11.719 6.0938 22.922 14.719 27.609 27.469 1.6406 4.4531 8.1562 6.1406 10.688 1.4062 0.65625-1.2188 1.3594-2.4375 2.0625-3.6562 23.156-39.469 68.531-63.656 114.09-63.797 4.4062 0 8.7188 0.1875 13.078 0.65625 35.625 3.5625 68.625 21.844 92.062 48.656 3 3.4219 5.8594 7.0312 8.5312 10.688 5.8125 8.0625 10.922 16.594 15 25.688 0.1875 0.46875 0.375 0.84375 0.5625 1.3125l0.14062 0.28125c0.046875 0.09375 0.09375 0.28125 0.14062 0.375v0.046875c0.09375 0.28125 0.23438 0.5625 0.375 0.84375 0.89062 2.2969 1.7344 4.5938 2.5312 6.9375 1.7344 5.1094 3.1875 10.312 4.3125 15.562-2.625 0.9375-5.0625 2.4844-6.9375 4.5938-4.125 4.5-6.1875 10.312-6.6562 16.312-0.28125 3.2812 0.046875 6.6562 0.28125 9.9844-3.6562-3.4219-7.3125-6.7969-11.156-9.9844-5.1562-4.3125-16.219-10.406-21.094-2.3906-1.4062 2.3438-1.7812 5.1562-1.6875 7.9688-2.5312-1.6875-5.2031-3.0938-8.3438-3.4688-3.2812-0.375-5.7188 3-5.8594 5.8594-0.1875 4.3125 0 8.625 0.375 12.938-0.28125-0.09375-0.51562-0.1875-0.79688-0.28125-4.6875-1.4062-9.8438 2.3438-12.844 5.5781-7.4062 8.0156-9.1406 19.688-7.3125 30.188 1.875 10.688 7.9688 20.25 15 28.312 9.4219 10.781 21.469 19.5 34.266 26.438-12.375 14.297-25.266 28.172-39.281 40.828-2.1094 1.875-4.2188 3.7969-6.3281 5.7188-4.5938 4.125-9.1406 8.25-13.688 12.375-12.234 11.062-24.469 22.125-36.75 33.188zm72.094-189.71c0.14062 0.09375 0.32812 0.1875 0.51562 0.28125-0.1875 0.046875-0.046875 0.14062-0.51562-0.28125zm-6.375 18.375s-0.09375 0.09375-0.28125 0.09375c0.1875-0.09375 0.28125-0.14062 0.28125-0.09375zm222.37 418.5v-0.09375zm-32.25-129.47c21.281 3 42.516 6 63.844 9 8.3906 1.2188 17.812 1.7344 25.312 6.1406 6.0938 3.6094 9.0938 9.8438 10.125 16.641 1.0781 7.125 0.1875 14.531-1.0312 21.609-1.6875 9.9375-3.8906 19.734-5.8594 29.625-2.3438 11.859-4.7344 23.719-7.125 35.578-0.9375 4.5938-1.4062 9.7031-3.4688 13.969-0.09375 0.09375-0.09375 0.23438-0.1875 0.375-2.1562-4.0312-10.078-4.2188-11.016 1.2188-0.09375 0.46875-0.1875 0.9375-0.42188 1.4062-0.5625 1.1719-1.5 2.1562-3 1.9688-0.9375-0.09375-2.0625-1.0781-2.4375-2.1562 0.09375-0.89062 0.09375-1.7812 0.09375-2.6719-0.1875-2.9062-2.0625-5.3906-5.0625-5.7656-2.625-0.32812-5.9531 1.3125-6.4219 4.2188-0.09375 0.51562-0.14062 1.0312-0.1875 1.5469h-0.046875v1.0312c-0.23438 3.0469-2.4375 6.375-5.8125 6.2812-2.6719-0.09375-4.6875-3.375-4.4062-5.5781 0.32812-0.75 0.60938-1.5469 0.79688-2.3438 0.75-2.8125-0.65625-5.8594-3.375-6.9375-2.4375-1.0312-6.0938-0.28125-7.3125 2.3906-0.32812 0.70312-0.60938 1.3594-0.84375 2.0625-0.09375 0.14062-0.28125 0.28125-0.28125 0.32812-0.79688 0.5625-1.7812 0.75-2.8125 0.65625-2.0625-0.1875-3.5625-1.875-4.2188-4.2188-2.1562-7.3594 2.6719-14.578 5.7188-20.906 5.4375-11.625 10.5-24.75 10.828-37.734 0.14062-6-1.125-12.281-5.25-16.875-5.3438-5.8594-13.875-7.4062-21.422-7.7344-3.9844-0.1875-7.9688-0.09375-11.906-0.28125-4.2188-0.1875-8.3906-0.84375-12.562-1.125-9.0938-0.65625-18.188-0.5625-27.281-0.28125-16.031 0.375-32.812 1.7812-48.656-1.875 1.5938-3.0938 3.1875-6.1875 4.7344-9.2344 4.7812-9.2812 9.75-18.516 15.234-27.469 2.0625-3.3281 4.1719-6.6562 6.375-9.8438 19.922 0.46875 39.797 4.2656 59.484 7.0312zm7.9688-142.69c2.3906 17.438 0.65625 37.453-6.75 53.391-6.4688 14.016-17.391 24.375-29.344 34.078-7.4531 6.0938-15.281 11.625-22.031 18.469-6.375 6.3281-12.047 13.312-17.25 20.625-0.60938 0.84375-1.2188 1.6875-1.7812 2.5781-11.438 16.594-21.047 34.781-29.625 52.969-0.1875 0.375-0.375 0.75-0.51562 1.125-8.25 17.719-15.281 39-6 57.656 7.6875 15.562 24.469 21.75 39.797 27.141 14.344 5.0156 29.812 10.594 36.047 25.781 6.6562 16.266 1.7812 35.531-3.375 51.469-2.625 8.0625-5.5312 16.125-9.1875 23.812-3.375 6.9844-7.5938 14.25-13.875 19.031-1.7812 1.3594-3.6562 2.4375-5.7188 3.2344-2.25-4.5469-3.5156-9.375-3.8438-14.438-0.09375-0.9375-0.09375-1.9688-0.09375-2.9062 0.046875-5.8594-7.9688-7.875-10.922-2.9531-2.8125 4.6875-6.375 8.8125-10.5 12.281l-0.84375-7.3125c-0.09375-0.51563-0.09375-1.0312-0.1875-1.5-0.375-2.9062-1.9688-5.3438-5.0625-5.7656-2.9062-0.375-5.5781 1.3125-6.4688 4.2188-0.14062 0.46875-0.32812 0.9375-0.5625 1.3594-0.32812 0.60937-0.75 1.125-1.125 1.5938 1.5938-11.531 3.1875-23.016 4.7344-34.5 1.0312-7.3125 2.0156-14.531 3-21.844 0.46875-3.6094 1.1719-7.2188 0.46875-10.828-0.65625-3.375-2.6719-6.375-5.1562-8.8125-4.5938-4.5938-10.266-8.3438-15.516-12.188-5.3438-3.9375-10.734-7.6875-16.125-11.484-10.688-7.5-21.281-15-31.125-23.578-17.625-15.469-33.938-36.469-36-60.656-1.125-12.938 2.5312-25.031 7.7812-36.75 1.7812-4.0312 3.6562-8.0625 5.5312-12.047 4.2188-9.0938 8.625-18.141 12.891-27.188 14.156-30.141 28.359-60.281 42.516-90.469 1.3594-2.8594 0.79688-6.2812-2.1094-8.0156-2.5312-1.5-6.6562-0.75-8.0156 2.1094-12.703 27-25.406 54-38.062 80.953-4.8281 10.312-9.75 20.625-14.625 30.984-5.9062-7.2188-12-14.438-17.578-21.938-2.9062-3.8906-5.3906-7.9688-6.4219-12.75s-0.65625-9.9375 0-14.812c3-21.516 8.7188-42.891 15.656-63.469 3.6094-10.781 8.25-22.172 5.1562-33.516 0.09375-0.09375 0.14062-0.09375 0.1875-0.1875 10.172-9.1875 19.875-18.797 29.25-28.969 5.3438-5.7656 10.547-11.625 15.656-17.625 2.0625 0.98438 4.1719 1.9219 6.2812 2.8125 19.266 8.25 39.562 13.219 60.469 14.906 20.531 1.6875 41.484 0 61.453-4.9688 3.6562-0.9375 7.3594-1.9219 11.062-3.0938 7.7812 16.641 15.281 33.75 17.812 52.031zm32.25-100.78c-6.8438 17.156-25.688 26.812-41.766 33.281-2.4375 0.98437-4.9688 1.9219-7.5 2.8125-15.281 5.3438-31.266 8.4375-47.438 9.375-31.406 1.7812-63.281-4.5938-91.312-18.797-5.2969-2.6719-10.453-5.625-15.469-8.9062-14.906-9.6562-32.25-24-34.594-42.844-0.51562-4.125-0.09375-8.3438 1.2188-12.281 0.60938-1.8281 1.5469-3.6562 2.7656-5.1562 0.09375-0.09375 1.5938-1.4062 2.6719-2.25 0.75 0.75 1.4062 1.5469 2.1094 2.3438 0.51562 0.65625 0.09375 0.09375 0.75 0.98438 0.46875 0.65625 0.9375 1.3125 1.4062 2.0625 0.89062 1.2656 1.7344 2.5781 2.5781 3.9375 0.65625 1.125 1.3125 2.2031 1.9688 3.2812 0.28125 0.42187 0.51562 0.84375 0.75 1.3125 3.2812 5.8594 12.281 1.875 10.688-4.5-0.51562-2.0625-1.3594-3.7031-2.5312-5.2969-1.5469-4.2188-2.1094-8.8125-2.5781-13.219-0.1875-1.7812-0.375-3.5156-0.46875-5.25 0.51562 0.375 1.0312 0.75 1.5 1.125 3.0938 2.3906 6.2812 5.25 9.9375 6.7969 0.46875 0.1875 0.9375 0.375 1.4062 0.51562 6.2344 1.9219 10.266-7.3125 4.6875-10.594-0.046875-0.046874-0.09375-0.09375-0.09375-0.14062l-0.046875-0.046876s-0.046875-0.046874-0.046875-0.09375c-0.28125-0.46875-0.51562-0.9375-0.75-1.3594 0-0.09375-0.09375-0.23438-0.1875-0.375 0-0.09375-0.09375-0.1875-0.09375-0.23438v-0.09375c-0.09375-0.28125-0.1875-0.51562-0.28125-0.75-0.28125-0.84375-0.5625-1.7344-0.84375-2.625-0.28125-0.98437-0.46875-1.9688-0.70312-3 0-0.046874-0.09375-0.51562-0.14062-0.75v-0.1875c0.14062 0.046876 0.28125 0.14063 0.375 0.1875 2.5312 1.5 4.6406 3.75 6.8438 5.7656 5.3438 4.875 10.688 9.75 15.984 14.625 3.0938 2.8125 8.8125 1.9219 9.7969-2.5781 0.42188-1.875 0.65625-3.7031 0.75-5.5312 0.32812-4.8281-0.1875-9.6562-0.28125-14.531-0.09375-4.4062 0.28125-8.9531 3.2812-12.375 1.5-1.7344 2.9062-2.2969 4.2656-2.0625 4.5 0.70313 7.9219 10.266 8.625 14.438 3.1406 17.906-6.0938 39.375 5.3438 55.453 5.7656 8.1094 14.344 11.297 23.812 13.078 9.5625 1.8281 19.406 2.625 29.109 3.3281 6.75 0.51562 13.5 0.79687 20.25 0.84375 6.2344 0.046874 12.562-0.1875 18.281-3 10.125-4.9688 13.688-16.594 14.812-27 1.4062-13.5 0-27.656-2.6719-40.875-2.9062-14.109-7.9219-27.75-14.672-40.5-3.5625-6.6562-13.688-0.75-10.125 5.9062 11.438 21.562 17.062 45.938 16.125 70.312-0.28125 7.6875-1.4062 18.844-9.75 22.172-5.3438 2.1562-12 1.3125-17.625 1.1719-6.75-0.1875-13.5-0.60938-20.25-1.2188-8.3438-0.75-16.828-1.4062-25.031-3.4688-7.6875-1.9219-13.078-5.25-15.234-13.219-2.25-8.3438-0.75-17.906-0.28125-26.719 0.5625-9.9375 0.28125-20.109-3.9375-29.25-2.1562-4.6875-5.625-9.1875-10.312-11.438-4.875-24.469-15.938-47.109-31.594-66.234 4.5-5.0625 6.8906-11.531 7.3125-18.188 16.219 1.0312 32.625-2.1562 47.766-8.625 0.5625-0.28125 1.1719-0.51562 1.7812-0.79687 1.4062 8.3906 5.7656 16.219 11.672 22.219 7.7344 7.875 17.906 12.797 28.266 16.266 0.84375 0.28125 1.7344 0.32813 2.5781 0.14063 1.0781 0.46875 2.1562 0.84375 3.0938 1.7812 2.1094 2.0156 4.0781 4.0781 6.5625 5.625 4.875 3.0938 10.922 4.3125 16.641 4.125 13.031-0.5625 23.672-8.25 33.281-16.312 1.5938 3.4219 2.6719 6.4219 4.2188 10.875 2.3438 6.6562 4.4062 13.453 6.2812 20.25 4.2188 14.812 7.7812 29.859 11.062 44.953 2.5781 12 5.0156 24.047 7.0312 36.188 0.32812 1.875 0.65625 3.75 0.9375 5.625v0.46875c0.1875 1.4062 0.28125 2.7188 0.46875 4.0781 0.1875 1.5 0.32812 3.0938 0.46875 4.5938 0.89062 10.172 1.0312 20.859-2.8125 30.469zm84.188-249c-4.6875 2.8125-3.0938 11.484 2.9531 10.922 0.9375-0.09375 1.9688-0.1875 3-0.1875 4.6875-0.28125 9.75-0.09375 13.406 2.0625 1.7812 1.0312 3 2.1562 2.9062 4.9688-0.09375 3.6562-2.2031 7.4531-3.8438 10.594-7.6875 14.625-20.156 24.703-31.641 36.141-5.3438 5.3438 2.7188 13.359 8.2969 8.25 0.70312-0.65625 1.3594-0.9375 2.5312-0.89063 1.125 0.09375 2.5312 0.51563 3.75 1.5 2.3438 1.7812 2.8594 5.25 2.3438 8.25-1.6875 9.9375-11.391 16.5-17.438 23.812-2.0625 2.5312-2.3438 5.7656 0 8.25 4.1719 4.5 10.078 4.6875 15.844 4.3125 2.25-0.1875 5.0625-0.51562 6.7969 0.09375 1.2188 0.42188 1.6875 1.1719 1.7812 2.4844 0.28125 4.875-3.6562 9.6562-6.75 13.172-4.5938 5.1562-9.8438 9.375-15.797 12.75-2.25 1.3125-3.375 4.125-2.6719 6.6562 0.75 2.6719 3.0469 3.9375 5.625 4.3125 0.5625 0.09375 1.125 0.14063 1.6875 0.1875-10.641 25.969-35.719 45.703-63.656 49.359-1.2656-9.0469-3-18-4.7812-26.906-3.1406-15.75-6.6562-31.453-10.641-47.062-3.7031-14.484-7.6875-29.062-13.406-42.891-0.1875-0.375-0.28125-0.75-0.46875-1.125 11.625-3 22.547-8.4844 31.594-16.5 14.812-13.125 21.938-32.719 19.547-52.219 18.422-24.562 43.219-44.203 71.062-57.047 5.8125-2.6719 11.719-4.9688 17.766-6.9844-2.0625 20.531-23.062 33.797-39.609 43.781z"/>
 <path d="m1066.3 497.29c-1.4062 0.09375-2.8125 0.28125-4.2188 0.32812 0.32812-1.5469 0.84375-3.75 0.89062-3.9844 0.65625-2.1562 1.3594-4.3125 2.3438-6.375 1.9688-4.2188 5.3438-7.9688 6.75-12.375 1.7812-5.4375-0.84375-11.016-5.5312-13.969-3.0938-1.9688-6.6094-2.4375-10.078-2.1562 1.6875-4.5 7.125-8.4375 10.172-11.438 6-5.9531 11.391-14.25 8.3438-23.062-1.0312-3-4.0312-4.9688-7.2188-4.125-2.9062 0.79688-5.1562 4.2188-4.125 7.2188 2.3906 6.8438-6.7031 12.656-10.781 16.781-5.8594 5.9531-11.25 14.625-7.7344 23.156 1.2188 2.9531 3.8438 4.9688 7.2188 4.125 2.1562-0.5625 5.3438-1.8281 7.5469-0.84375 0.28125 0.09375 0.5625 0.375 0.84375 0.46875 0.14062 0 0.23438 0.09375 0.28125 0.09375 0.375 0.28125-0.28125 0.84375 0 0-0.75 1.9688-2.3906 3.75-3.4219 5.5312-1.5 2.5312-2.7188 5.2031-3.8438 7.875-3.1875 7.7812-7.5 22.125 4.4531 24.469 3.6562 0.70312 7.2188-0.46875 10.828-0.09375-0.28125 0 0.5625 0.375 0.75 0.28125v1.5c-0.1875 0.65625-0.65625 1.3594-1.125 1.9688-2.8594 3.75-7.5469 6.6094-11.391 9.2344-4.6875 3.1875-9.6094 6.0938-14.719 8.625-6.75 3.375-0.79688 13.5 5.9062 10.078 8.9531-4.5 17.438-9.9844 25.125-16.5 3.4219-2.9062 6.6562-6.5625 7.5938-11.156 0.9375-4.5-0.1875-9.5625-3.75-12.703-3.0469-2.7188-7.2188-3.3281-11.203-3.0938zm-6 0.32812s0.09375-0.14062 0.28125 0h-0.1875 0.23438s0.046875 0 0.09375 0.046875c-0.28125 0.1875-0.375 0-0.375-0.09375z"/>
 <path d="m990.42 387.24c6.9375-5.8125 12.938-13.125 18.094-20.438 5.25-7.4062 9.5625-15.656 12-24.422 4.875-17.625 2.6719-36.656-5.7656-52.875-3.4688-6.7031-13.594-0.75-10.125 5.9062 7.125 13.688 8.6719 30 4.3125 44.812-2.2031 7.5-6 14.344-10.5 20.672-4.6406 6.5156-10.125 12.938-16.266 18.094-2.4375 2.0625-2.1094 6.1875 0 8.2969 2.3906 2.3906 5.8594 2.0625 8.25 0z"/>
 <path d="m881.86 174.56c12.75-2.0625 26.531-4.4062 39 0 8.1562 2.9062 16.781 9.9375 17.812 19.125 0.375 3.1406 2.4375 5.8594 5.8594 5.8594 2.9062 0 6.2344-2.6719 5.8594-5.8594-1.5938-13.734-11.25-24.094-23.766-29.344-15.234-6.375-32.156-3.6562-47.906-1.0781-3.1406 0.51562-4.875 4.4062-4.125 7.2188 0.9375 3.2812 4.0781 4.5938 7.2188 4.0781z"/>
 <path d="m900.56 326.29c3.1875-0.14062 5.8594-2.5781 5.8594-5.8594v-20.156c0-3.0469-2.6719-6-5.8594-5.8594s-5.8594 2.5781-5.8594 5.8594v20.156c0 3.0938 2.6719 6 5.8594 5.8594z"/>
 <path d="m885.32 356.95c-15.375 10.219-38.344 16.078-54.516 4.4062-2.5781-1.875-6.5625-0.46875-8.0156 2.1094-1.7344 2.9531-0.46875 6.1875 2.0625 8.0156 19.406 13.969 47.812 7.9688 66.375-4.4531 6.2344-4.1719 0.375-14.344-5.9062-10.078z"/>
 <path d="m797.34 165.94c3.1875 0.84375 6.1875-1.0781 7.2188-4.125 2.625-7.7344 9.5625-13.688 17.719-15.281s16.828 2.25 22.219 8.8125c2.0156 2.4375 6.1875 2.0625 8.2969 0 2.4375-2.4375 1.9688-5.8125 0-8.25-7.9688-9.7969-21.281-14.25-33.609-11.859-12.094 2.3438-22.031 11.906-25.875 23.438-1.0312 3 1.125 6.375 4.0781 7.2188z"/>
 <path d="m727.22 458.63c28.219-7.9688 54 10.828 70.969 31.594 2.0156 2.4375 6.1875 2.0625 8.2969 0 2.4375-2.4375 2.0156-5.8594 0-8.2969-19.688-24.094-50.109-43.734-82.359-34.594-7.2188 2.0625-4.1719 13.359 3.0938 11.297z"/>
 <path d="m797.16 298.22c-3.1875 0.14062-5.8594 2.5781-5.8594 5.8594v21.422c0 3.0938 2.6719 6 5.8594 5.8594s5.8594-2.5781 5.8594-5.8594v-21.422c0-3.0938-2.6719-6-5.8594-5.8594z"/>
 <path d="m784.13 644.81c-2.4375-2.25-5.9062-2.25-8.2969 0-6.2812 5.8594-12.562 11.672-18.797 17.531-2.25 2.0625-2.25 6.1875 0 8.25 2.4375 2.25 5.9062 2.25 8.2969 0 6.2812-5.8594 12.562-11.672 18.797-17.531 2.25-2.0625 2.25-6.1875 0-8.25z"/>
 <path d="m734.21 681.71c-29.906 31.781-62.906 60.609-98.531 85.875-2.5781 1.8281-3.7969 5.1094-2.0625 8.0156 1.5 2.5312 5.4375 3.9375 8.0156 2.0625 36.422-25.828 70.312-55.172 100.88-87.703 5.1562-5.4844-3.0938-13.781-8.25-8.25z"/>
 <path d="m370.03 160.6c3.2812-2.1094 6.75-2.25 10.594-1.125 3.8438 1.1719 7.3594 3.9375 10.312 6.8438 6.9375 6.9375 12.281 15.375 16.312 24.234 1.3125 2.9062 5.4844 3.5625 8.0156 2.1094 2.9531-1.7344 3.4219-5.1562 2.1094-8.0156-4.7812-10.547-11.625-20.953-20.344-28.688-8.8594-7.8281-22.031-12.469-32.906-5.5312-2.6719 1.6875-3.75 5.2031-2.1094 8.0156 1.5469 2.625 5.3438 3.8438 8.0156 2.1094z"/>
 <path d="m403.36 311.81c3.1875-0.14062 5.8594-2.5781 5.8594-5.8594v-13.781c0-1.5-0.65625-3.0938-1.6875-4.125s-2.6719-1.7812-4.125-1.6875c-3.1875 0.14062-5.8594 2.5781-5.8594 5.8594v13.781c0 1.5 0.65625 3.0938 1.6875 4.125s2.6719 1.7812 4.125 1.6875z"/>
 <path d="m333.28 350.02c15.375 15.094 41.344 17.531 58.969 4.9688 2.5781-1.8281 3.7969-5.1094 2.0625-8.0156-1.5-2.5312-5.4375-3.9375-8.0156-2.0625-13.406 9.5625-32.812 8.5312-44.719-3.1406-5.3906-5.2969-13.688 3-8.2969 8.25z"/>
 <path d="m328.31 310.26c3.1875-0.14062 5.8594-2.5781 5.8594-5.8594v-15.328c0-3.0469-2.6719-6-5.8594-5.8594s-5.8594 2.5781-5.8594 5.8594v15.328c0 3.0938 2.6719 6 5.8594 5.8594z"/>
 <path d="m293.86 182.06c2.9531 1.0781 6.4219-1.2188 7.2188-4.125 0.9375-3.2812-1.125-6.0938-4.0781-7.2188-27.281-10.031-60.047 1.5469-75.656 25.828-0.28125 0.375-0.5625 0.84375-0.79688 1.2188-3.6562 5.9531 4.3125 11.25 9.1875 7.125 1.5-1.2656 3-2.5781 4.5469-3.8438 1.3125-1.125 1.7812-2.8125 1.6875-4.5 14.062-15.797 37.828-21.938 57.938-14.578z"/>
 <path d="m187.78 475.22c-6.0938 1.6406-17.344 3.1406-21.797-2.8125-1.4062-1.875-1.5938-4.4062 0.1875-5.9531 3.5156-2.9531 6.7031-5.2969 6.6094-10.406-0.09375-4.7344-3.2812-8.3438-6.1875-11.719-2.4375-2.8125-4.5469-6.1406-5.5781-9.75-0.46875-1.6875-0.75-3.3281-0.5625-5.0625 0.1875-2.0156 1.2656-3.75 1.7812-5.625 1.2188-4.6406-0.79688-8.7656-3.9375-12.094-2.6719-2.7656-6.0938-4.7344-9.2812-6.8438-1.4062-0.9375-2.5312-1.5938-3.5625-2.625-1.1719-1.125-1.4531-1.4531-1.875-3-1.875-7.3125-13.219-4.2188-11.297 3.0938 2.1094 7.9688 9.2812 11.156 15.422 15.562 0.98438 0.70312 2.25 1.6875 3.0469 2.8125 0 0 0.09375 0.32812 0.14062 0.51562-0.1875 0.28125-0.375 0.84375-0.375 0.84375-0.375 0.65625-0.60938 1.5-0.84375 2.25-1.3125 4.5469-1.0312 9.6094 0.375 14.062 1.5 4.6875 4.0781 8.8594 7.125 12.656 1.2188 1.5 2.4375 3.1875 3.7031 4.5938 0.09375 0.09375 0.09375 0.14062 0.14062 0.1875-0.375 0.28125-0.9375 0.5625-1.2188 0.84375-4.0312 3-6.4688 6.9375-6.5625 12.047-0.09375 4.6406 1.875 9.2812 5.1562 12.562 8.25 8.1562 22.125 7.9688 32.531 5.1562 7.2656-1.9688 4.2188-13.312-3.0938-11.344zm-26.719-19.219c0.28125 0.375-0.09375 0.28125 0 0z"/>
</svg>
