<?xml version="1.0" encoding="UTF-8"?>
<svg width="1200pt" height="1200pt" version="1.1" viewBox="0 0 1200 1200" xmlns="http://www.w3.org/2000/svg">
 <path d="m463.31 548.26c38.156 72.188 97.359 162.47 136.69 216.37 79.312-112.59 213.61-313.31 217.69-450.56 0-118.88-97.688-215.63-217.69-215.63s-217.69 96.75-217.69 215.63c-0.046875 64.219 37.078 153.56 81 234.19zm77.062-331.87c26.812-6.9375 47.25 5.25 59.625 16.5 55.453-51.141 132.84 11.766 112.5 83.438-9.8906 44.531-64.266 77.766-103.88 108.38-11.953 8.625-22.172-4.6875-31.875-10.688-37.5-27.375-80.062-58.312-89.25-97.688-11.062-47.25 11.25-89.438 52.875-99.938z"/>
 <path d="m593.26 391.13c6.6094 7.7812 11.109 1.2656 17.625-3.1875 31.688-23.438 67.688-50.062 74.25-78 14.625-55.219-42.984-90.984-73.875-48-5.25 7.125-17.25 7.125-22.5 0-30.562-43.453-88.641-6.9375-73.875 48 6.75 29.25 44.812 56.812 78.375 81.188z"/>
 <path d="m600 802.5c-4.5 0-8.625-2.0625-11.25-5.625-3.375-4.3125-31.875-42.375-68.062-97.5-74.438 18-123.74 59.062-123.74 104.62 0 61.688 93 113.81 203.06 113.81s203.06-52.125 203.06-113.81c0-45.562-49.312-86.625-123.74-104.62-36.188 55.125-64.688 93.188-68.062 97.5-2.625 3.5625-6.75 5.625-11.25 5.625z"/>
 <path d="m1107.2 1045.7-69-444.74c-5.4375-35.062-36.562-61.688-72.375-61.688h-192.37c-23.531 46.172-52.594 95.109-78.188 135.19 82.125 22.5 135.94 72.938 135.94 129.56 0 79.5-101.62 141.94-231.19 141.94-233.39 2.4375-331.92-199.45-95.25-271.5-25.594-40.078-54.656-89.016-78.188-135.19h-192.37c-35.812 0-66.938 26.625-72.375 61.688l-69 444.74c-7.6406 42.938 28.969 85.031 72.375 84h869.63c43.312 0.98438 80.062-41.016 72.375-84z"/>
</svg>
