<?xml version="1.0" encoding="UTF-8"?>
<svg width="1200pt" height="1200pt" version="1.1" viewBox="0 0 1200 1200" xmlns="http://www.w3.org/2000/svg">
 <path d="m838.45 1185.1c-8.7188-2.3438-18.984-6.4688-22.875-9.1406-13.734-9.4219-28.875-18.844-36-22.406-6.4219-3.2344-25.406-20.391-58.734-53.203-15.188-14.953-43.266-46.219-48.141-53.578-2.2031-3.3281-7.9688-11.859-12.844-18.938-11.391-16.594-14.016-23.766-14.016-38.438 0-13.453-4.2656-25.453-11.25-31.641-3.5156-3.1406-75.891-25.922-82.266-25.922-0.5625 0 0.32812 1.6406 1.9688 3.6094s4.0781 3.6094 5.3906 3.6094c5.5312 0 45.234 36.703 45.234 41.766 0 7.125-19.734 11.344-29.297 6.2344-8.2031-4.4062-7.9219-2.3906 2.25 14.297 2.625 4.3594 2.3438 5.7656-2.1094 10.219-4.125 4.125-7.1719 4.9219-15.422 3.9844-9.5156-1.0781-17.391-5.4844-38.391-21.516l-7.0312-5.3438 1.5 15.938c1.6875 18.188-0.65625 22.031-13.172 21.703-9.8438-0.28125-10.875-1.7344-12.656-17.391-0.84375-7.3125-3.0469-17.578-4.9219-22.875-5.1562-14.531-3.3281-54.469 3.1875-69.281l5.0156-11.438-8.9531-4.5469c-4.9219-2.4844-14.766-6.2812-21.891-8.3906s-14.438-5.0625-16.219-6.5156c-1.7812-1.5-7.2656-3.6094-12.188-4.6875-7.3594-1.6406-10.266-1.0781-16.312 3.1875-15.609 11.016-26.062 27.469-25.875 40.641 0.1875 13.547 7.4062 23.203 33.234 44.297 27.984 22.828 28.641 23.672 23.719 28.594-5.5312 5.5312-20.812 4.9219-28.453-1.0781-4.9219-3.8906-7.3125-4.4062-11.016-2.3906-6.8438 3.6562-20.016 3.0938-26.062-1.125-5.0625-3.5156-5.25-3.375-5.9531 5.4375-0.65625 8.1562-1.5 9.1406-7.9688 9.6562-3.9844 0.32812-8.9531-0.75-11.016-2.3906-5.5781-4.4062-15.938-23.438-18.094-33.141-2.4375-11.109-1.5469-34.172 1.4531-37.172 1.3125-1.3125 2.3438-4.3594 2.3438-6.7969 0-6.2812 8.7656-22.641 16.406-30.609 3.5625-3.75 13.828-10.828 22.734-15.703 8.9531-4.9219 16.781-9.75 17.391-10.781s-6.7031-4.875-16.266-8.5781-19.031-8.0156-21-9.6562c-3.7031-3-52.266-30.609-56.625-32.203-19.312-7.0781-70.828-51.562-85.547-73.922-2.0156-3.0469-8.5781-12.375-14.578-20.766-9.75-13.594-28.828-49.172-28.828-53.766 0-0.98438-1.5-5.1562-3.375-9.3281s-6.375-16.266-10.031-26.859-7.4531-20.344-8.3906-21.703c-0.9375-1.3125-4.125-10.547-7.0781-20.484-7.5938-25.547-9.2812-30-19.875-53.016-7.9219-17.203-11.812-22.406-24-32.484-7.9688-6.6094-18.141-14.203-22.594-16.875-28.453-17.062-36.188-20.859-49.734-24.281-8.3438-2.1094-19.219-4.875-24.188-6.1406-7.125-2.0156-9.0938-3.7031-9.0469-7.875 0.09375-5.9062 5.1562-13.781 8.9062-13.781 5.3906 0 15.703-10.875 21.281-22.406 3.2344-6.7031 7.5-20.016 9.4688-29.531 4.5-21.891 5.3906-24.141 13.875-36.656 8.8594-13.031 13.688-17.531 26.484-24.469 45.188-24.469 85.5-18.703 122.95 17.531 32.203 31.125 42.516 40.078 46.125 40.078 4.3594 0 27.375-34.453 36.188-54.234 22.5-50.484 41.766-78.75 72.375-106.5 42.281-38.25 46.547-41.672 65.203-51.609 5.2969-2.8125 14.531-8.5781 20.484-12.797s17.906-11.297 26.531-15.703c8.625-4.4531 21.609-11.906 28.922-16.641s23.016-13.641 34.922-19.781c11.953-6.1875 27.094-14.156 33.75-17.766 17.156-9.375 85.641-36.188 108.47-42.469 10.594-2.9062 31.734-9 46.969-13.5 40.828-12 43.172-12.609 60.141-15.469 29.156-4.875 85.594-8.6719 114.47-7.5938 22.312 0.79688 31.125 2.1562 39.188 5.9062 13.781 6.4688 21.75 16.406 23.719 29.578 2.2031 14.812-6.1406 29.203-21.797 37.453-6.1875 3.2812-13.875 7.3594-17.109 9.0938s-12.938 7.9219-21.609 13.734c-15.188 10.219-15.562 10.641-10.219 13.406 17.766 9.1406 25.922 25.172 21.234 41.859-2.3906 8.5781-5.8594 12.562-20.719 24-21.75 16.734-51.047 32.062-65.438 34.219-10.828 1.6406-22.359-1.5469-22.359-6.1406 0-1.3125 6.75-5.8594 15.047-10.031 18.375-9.2812 44.438-25.266 52.172-32.062 8.6719-7.5938 12.844-19.078 9.8438-27-2.9531-7.7812-7.2188-11.344-20.953-17.672-11.531-5.2969-12.703-9.1406-4.8281-16.219 5.8125-5.25 39.938-25.875 56.531-34.219 20.719-10.406 27.328-24.75 18.844-41.109-4.875-9.4219-14.672-12.188-43.219-12.188-47.016 0-103.03 7.4531-137.26 18.188-10.406 3.2812-32.625 9.2812-49.406 13.312s-40.266 11.203-52.172 15.891c-11.953 4.6875-28.406 11.062-36.656 14.156-18.984 7.125-71.484 34.594-93.469 48.938-9.2812 6.0469-24.375 15.141-33.609 20.203-9.1875 5.0625-21.141 12.469-26.531 16.453-5.3906 3.9844-15.75 11.203-23.016 16.031-32.531 21.703-75.938 63-91.922 87.469-12.984 19.875-17.531 27.469-18.141 30.141-0.79687 3.4688-19.406 46.688-24.375 56.531-7.5 14.859-22.5 31.781-31.547 35.531-10.312 4.3125-32.578 2.8594-43.641-2.8594-3.8438-1.9688-19.266-15.328-34.266-29.672-19.312-18.469-31.5-28.078-41.766-32.859-14.391-6.75-14.531-6.7969-25.922-2.7656-29.156 10.219-42.375 24.141-56.719 59.812l-9.375 23.297 7.9688 7.7344c4.3594 4.2656 9.6562 11.25 11.672 15.516 4.2188 8.9062 4.875 25.688 1.2656 32.438-2.1562 3.9844 0 5.8594 17.906 15.609 34.828 18.984 51.562 32.672 62.016 50.672 5.1094 8.7656 9.2812 17.062 9.2812 18.375 0 2.5781 1.1719 6.5625 17.719 59.906 5.9531 19.219 12.656 42.938 14.859 52.734 3.8438 16.922 13.266 35.016 26.109 50.344 35.672 42.516 71.25 74.203 102.8 91.5 7.3125 3.9844 21.938 12.562 32.531 18.984 24.422 14.859 64.688 34.594 70.547 34.594 1.0312 0 4.5469 1.875 7.8281 4.2188 7.0312 5.0156 28.781 13.641 50.578 20.156 15.609 4.6406 15.703 4.6406 19.641-0.1875 5.25-6.375 15.422-10.078 22.688-8.25 5.3438 1.3594 5.8125 2.5312 5.25 13.547l-0.60938 12.094 16.875 5.3906c9.2812 2.9531 23.531 8.2031 31.641 11.625 8.1094 3.4688 22.359 7.8281 31.594 9.7969 30.703 6.4219 58.453 23.344 67.594 41.344 1.3594 2.7188 2.4844 12.984 2.4844 22.875-0.046874 25.219-0.09375 24.984 4.6875 30.188 2.3438 2.5781 7.7344 9.8438 12 16.125 8.1562 12.141 33.094 39.328 51.188 55.781 5.9531 5.4375 18.094 16.922 27 25.547 19.688 19.125 21.047 20.25 30.047 24.891 3.9375 2.0625 15.234 9.2812 25.078 16.031 14.344 9.8438 19.5 12.188 26.062 11.578 13.266-1.1719 17.109-8.7656 17.766-35.016 0.42187-16.688 1.5469-23.156 4.4531-26.062 5.0156-5.0156 21.656-5.0156 35.719 0 14.25 5.1094 30.562 5.2031 45.328 0.32812 21.375-7.125 21-5.7188 19.406-67.172-0.1875-7.875 3.9844-11.672 21.984-19.922 15.141-6.9375 44.062-28.5 55.312-41.203 4.3125-4.875 8.4375-11.953 9.1875-15.75s2.3438-7.4531 3.4688-8.2031c1.1719-0.70312 2.1094-3.2344 2.1094-5.625s3-8.5312 6.6562-13.734c10.219-14.438 12.469-21.188 14.016-42.656 1.7812-24.609-0.98437-30.328-11.953-24.609-8.5781 4.5-26.531 4.6875-30.141 0.375-2.0625-2.4844-1.2188-4.5938 3.4688-9 8.8125-8.25 20.297-26.391 20.297-31.922 0-4.4062-1.125-4.6406-15.844-3.0938-8.7188 0.89062-24.188 4.3594-34.359 7.6875-22.547 7.4062-36 10.078-60.188 12-10.219 0.79688-29.391 3.5156-42.656 6.0469-17.25 3.2812-34.688 4.5938-61.453 4.5469-39.75-0.046875-48.797-2.0156-50.109-11.062-0.70312-4.875 0.1875-4.9219 48.188-4.7812 31.172 0.14062 54.141-0.9375 63.375-2.9062 7.9688-1.6875 25.781-4.125 39.562-5.3438 15.281-1.4062 34.266-5.1094 48.422-9.5625 42.422-13.172 79.125-14.578 90.281-3.4219 4.3594 4.3594 3.0938 15.422-2.6719 23.719-4.5 6.4688-4.1719 8.4844 1.5 8.4844 7.3594 0 22.922 15.469 26.016 25.828 1.5 5.0156 2.3438 16.875 1.875 26.297-0.70313 14.766-2.0156 19.031-9.4219 30.562-9.0938 14.203-18.469 33.375-18.469 37.781 0 9.4219-56.203 55.453-67.688 55.453-0.89062 0-6.4688 2.7188-12.375 6.0469l-10.781 6.0469 2.8125 17.953c2.7656 17.484 2.7656 20.953 0.09375 36.422-2.625 15.188-21.797 25.734-54.094 29.766-16.359 2.0625-42.797-0.375-50.719-4.5938-2.4844-1.3125-5.0156-2.4375-5.625-2.4375-0.60937 0-0.9375 10.594-0.75 23.578 0.28125 21.75-0.14062 24.141-5.7188 31.172-6.75 8.4844-22.875 15.234-35.953 15-4.7344-0.09375-15.703-2.0625-24.422-4.4062zm-330.05-247.87c0-0.98438-1.0781-3.4219-2.3906-5.4375-1.875-2.9062-2.3438-2.5781-2.3906 1.8281 0 3 1.0312 5.4375 2.3906 5.4375 1.3125 0 2.3906-0.79687 2.3906-1.8281zm-461.76-481.6c1.875-4.9219 1.9219-27.516 0.046875-27.516-0.79688 0-4.6875 2.4375-8.625 5.4375-21.047 15.844-23.109 21.234-9.0469 23.766 13.781 2.4844 16.125 2.2969 17.625-1.6875zm744.94 594.74c-6.6094-3.6562-18-9.1875-25.312-12.328-19.406-8.2969-33.656-21.422-33.703-30.938-0.046875-5.5312 14.016-3.5156 18.047 2.625 3.7969 5.8125 20.156 14.672 40.547 22.031 12.141 4.3594 30.703 17.156 32.391 22.312 1.9219 5.8594-19.031 3.4219-31.922-3.7031zm17.344-60.984c-18.141-4.2656-23.812-10.219-11.906-12.516 7.4531-1.4062 44.016 9.2344 44.016 12.844 0 2.8125-19.547 2.625-32.062-0.32812zm-55.922-140.63c-17.531-6.5625-58.969-28.266-72.281-37.875-31.547-22.688-66.281-56.25-66.281-64.078 0-6.8438-5.8594-6.8438-19.406 0-14.25 7.1719-23.156 14.672-37.5 31.547-9.2344 10.875-15.375 9.8906-15.375-2.3906 0-18.656 8.3906-28.406 38.578-44.812 28.641-15.609 48.703-21.938 90.047-28.406 28.688-4.5 52.5-15.891 60.094-28.734 2.0156-3.375 4.4062-10.172 5.2969-15.141 1.7344-9.2344 6.375-14.156 28.078-29.859 5.7656-4.1719 14.953-9.8438 20.531-12.609 5.5312-2.7656 10.781-6.1875 11.625-7.5469 2.0625-3.3281 32.438-18.516 51.188-25.594 19.078-7.1719 29.859-14.25 36.516-23.906 9.0469-13.219 9.8438-23.203 3.5156-43.312-3.8438-12.234-3.8438-12.75 1.8281-24.141 6.5625-13.219 19.219-23.25 40.125-31.781 7.5938-3.0938 15.984-6.6562 18.656-7.875s15.188-5.4844 27.891-9.5156c14.062-4.4531 24.938-9.375 27.938-12.703 15.797-17.672 19.453-30.703 13.828-49.312-2.7188-9-3.0469-17.109-1.2188-27.562 0.65625-3.6094 30.75-19.312 45.562-23.719 8.9062-2.6719 33.281-8.1094 54.234-12.047 20.953-3.9844 40.453-8.4375 43.359-9.9375 8.5312-4.3594 13.594-12.375 13.688-21.516 0.046875-7.125-2.0156-10.5-12.609-20.859-20.438-19.875-23.156-20.812-106.45-35.719-45.656-8.1562-105.94-7.7344-158.06 1.125-7.3125 1.2188-27.891 3.9375-45.797 6.0469-45.609 5.2969-71.156 9.8906-93.094 16.828-19.359 6.0938-23.062 7.0781-58.734 15.797-20.297 4.9688-31.641 8.5781-63.562 20.297-19.547 7.1719-36.469 10.125-38.531 6.7969-0.79688-1.3125-0.14062-3.375 1.5-4.5938 7.2188-5.4375 65.203-28.172 84.938-33.281 11.953-3.0938 30.375-8.3906 40.969-11.719 35.766-11.203 57.656-15.797 104.81-21.891 25.828-3.3281 56.766-7.875 68.672-10.078 16.312-3 36.656-4.0312 81.938-4.1719 53.625-0.14063 62.484 0.42187 80.719 4.9688 11.25 2.8125 26.062 5.8594 32.906 6.75 17.859 2.3906 53.156 11.906 66.328 17.906 12.094 5.4844 28.734 19.734 36 30.797 6.0938 9.2812 5.8594 24.891-0.5625 33.047-8.5312 10.875-22.922 16.078-70.688 25.641-50.766 10.172-54.797 11.391-68.531 20.484-11.484 7.5938-12.844 13.219-7.3594 30.094 6.0938 18.609 4.3594 30.375-7.125 48.516-8.1562 12.938-11.484 16.031-21.281 19.781-6.375 2.4375-17.016 6.5625-23.625 9.1406-6.6094 2.5781-16.922 6.375-22.875 8.4844-32.625 11.391-51.609 25.266-53.766 39.234-0.42188 2.7656 0.46875 11.25 1.9688 18.844 3.3281 16.688 0.89062 28.5-8.8594 42.938-9.4219 13.969-19.641 20.578-49.734 32.297-9.6562 3.75-24.281 11.109-32.531 16.312-8.25 5.2031-21.141 13.078-28.688 17.531-7.5469 4.4062-18.141 12.047-23.484 16.969-7.875 7.2188-9.75 10.547-9.75 17.438 0 17.953-25.266 39.469-56.625 48.281-6.6094 1.875-23.438 4.6875-37.359 6.2812-20.109 2.2969-42.328 7.4531-47.672 11.062-1.6875 1.125 34.312 33.891 48.094 43.781 8.3906 6 18.516 13.875 22.5 17.438 6.4688 5.8125 66.609 41.062 70.031 41.062 3.375 0 17.906 12.938 17.906 15.938 0 5.0156-15.656 3.7969-32.578-2.5781zm-303.98-125.53c-1.9688-5.1562 4.2656-11.344 22.922-22.641 19.266-11.672 54.891-45.281 57.047-53.766 0.98438-3.9844-0.23438-9.5625-3.5625-16.078l-5.1094-9.9844 10.312-4.7812c11.203-5.1562 23.062-12.047 49.781-28.875 21.891-13.781 28.219-24.797 25.875-44.953-1.6875-14.391-7.4062-27.375-17.016-38.812-3.375-4.0312-6.1406-9.3281-6.1406-11.766 0-4.0781 9.8438-16.641 36.516-46.641 14.672-16.5 21.469-29.578 23.016-44.203 1.5938-15.234-2.9062-36.797-8.0625-38.766-5.8125-2.25-1.2188-6.2344 7.1719-6.2344 10.688 0 18.047 5.8125 23.531 18.609 10.922 25.5 6.4688 50.344-13.266 74.203-13.828 16.734-29.156 37.781-30.891 42.469-0.89062 2.3438 1.2188 7.1719 5.3438 12.141 19.031 23.109 21.609 60.422 5.3438 77.531-6.375 6.6562-38.578 25.781-66.141 39.234-11.391 5.5312-13.594 7.5938-12.375 11.438 2.8594 8.9531 2.8594 19.828 0.046875 25.031-3.6094 6.7031-30.422 34.688-40.688 42.422-8.3438 6.2812-20.203 13.219-38.297 22.406-12.844 6.5156-23.25 7.3125-25.312 1.9688zm-216.52-51.516c-16.734-4.2188-30.422-15.562-26.484-21.938 0.79688-1.3125 6-2.3438 11.578-2.2969 9.1875 0.046874 22.453 6.4219 34.688 16.781 1.5938 1.3594 4.125 2.4375 5.625 2.4375s2.25 1.3594 1.7344 3c-1.1719 3.5156-16.641 4.6406-27.141 2.0156zm18.656-32.719c-10.688-4.6406-10.406-10.875 0.46875-10.875 10.781 0 33.188 4.6875 36.234 7.5938 7.125 6.7031-22.734 9.375-36.75 3.2812zm18.656-47.953c0-4.125 5.25-6.2812 15.281-6.2344 9.1406 0.046876 14.906 3.2344 12.609 6.9375-2.5312 4.125-27.891 3.5156-27.891-0.65625zm-46.828-121.69c-0.75-1.1719 2.7188-2.9062 7.6875-3.8438 21-3.9375 74.297-24.656 113.58-44.156 12.75-6.3281 27.516-13.312 32.812-15.562s18.328-9.5156 28.922-16.125c10.594-6.6562 20.062-12.094 21.047-12.094s9.3281-4.875 18.562-10.781 24.703-14.719 34.359-19.594 21.938-11.766 27.234-15.328c9-6.0469 36.234-17.531 57.469-24.188 6.6094-2.0625 10.031-2.1562 11.859-0.32812 4.3594 4.3594-4.2656 11.297-34.125 27.422-15.328 8.2969-36.562 19.781-47.203 25.5-10.641 5.7656-20.531 11.438-22.031 12.656-1.4531 1.2188-7.875 4.9688-14.203 8.3438-18.281 9.7031-31.266 17.109-41.625 23.625-5.2969 3.3281-16.5 8.9531-24.938 12.469s-22.453 10.125-31.078 14.625c-8.6719 4.5469-23.859 10.828-33.75 13.969-9.8906 3.1875-23.953 8.1094-31.266 10.969-28.688 11.297-69.703 18.234-73.359 12.375zm-112.22-75.656c-7.8281-3.9375-8.7188-11.203-2.3438-19.312 3.9844-5.0156 7.1719-6.4688 14.391-6.4688 5.25 0 10.969 1.6406 13.078 3.7969 4.5 4.5 4.4062 3.375 1.2188 12.562-1.7344 4.9688-5.0625 8.25-9.9844 9.9844-9.1406 3.1875-8.9531 3.1875-16.312-0.51562zm614.95-269.02c-5.3438-3.3281-0.23438-9.5156 11.062-13.359 12.094-4.125 31.172-4.9219 36.469-1.5938 5.3438 3.375 1.1719 9.8438-6.2812 9.8438-3.7031 0-10.5 0.98438-15.141 2.1562-15.234 3.8906-23.062 4.7812-26.109 2.9062zm-33.094-22.172c-2.25-3.6094 2.2031-7.3125 20.906-17.391 30.703-16.594 58.172-22.688 68.438-15.188 6.5156 4.7812 1.3594 10.266-11.625 12.375-5.5781 0.89062-21.094 6.4219-34.547 12.234-23.906 10.359-39.891 13.312-43.172 7.9219z"/>
</svg>
