<?xml version="1.0" encoding="UTF-8"?>
<svg width="1200pt" height="1200pt" version="1.1" viewBox="0 0 1200 1200" xmlns="http://www.w3.org/2000/svg">
 <path d="m486.47 1134.6s0-0.375 0.09375-1.1719c0.09375-0.75 0.14062-1.5 0.1875-2.25 0.09375-0.75 0.09375-1.5 0.1875-2.25 0.1875-2.25 0.28125-4.5 0.375-6.75 0.14062-4.3125 0.14062-8.6719 0-13.031-0.14062-4.4062-0.42188-8.8125-0.84375-13.172 0-0.14062-0.046875-0.28125-0.046875-0.42188-0.375-3.8438-0.89062-7.7344-1.5-11.531-2.4375-14.766-6.8438-28.875-11.906-42.938-4.5-12.562-9.1875-25.125-14.531-37.359-10.219-23.484-22.641-46.031-38.297-66.375-28.781-6-57.422-12.75-85.781-20.438-45.656-12.469-91.125-27.094-134.44-46.219-19.312-8.5312-38.625-19.312-52.312-35.719-12.469-14.953-20.062-34.969-17.625-54.562 2.625-21.141 17.391-35.906 35.156-46.125 18.75-10.734 39.188-18.75 60.094-24.375-11.344-26.438-15.422-55.547-16.875-84.375-1.4062-28.594-0.9375-57.188-2.4375-85.688-1.6875-5.1562-2.4844-10.688-2.1562-16.219 0.046875-1.125 0.375-2.0625 0.84375-2.8125-0.46875-4.8281-0.9375-9.6562-1.5938-14.484-0.51562-1.2656-1.0312-2.5312-1.4062-3.8438-4.6406-15.469 0.9375-31.828 10.594-44.062 24.328-30.891 66-27.562 101.06-22.781-0.09375-5.7188-0.28125-11.438-0.60938-17.156-3.3281-56.812-18-112.78-16.312-169.87-0.1875-0.89062-0.1875-1.7812 0.09375-2.5312 0.09375-2.4375 0.1875-4.875 0.32812-7.3125 0.23438-3.8438 3.4688-5.7656 6.4688-5.625 0.75-1.125 1.8281-2.0156 3.1875-2.2031 11.25-1.6875 22.5-3.2812 33.844-4.7344 14.531-1.875 29.109-3.4688 43.688-4.8281-5.9531-10.781-10.078-23.25-10.547-35.203-0.23438-6.75 1.5469-13.781 3.2812-20.25 2.1094-7.7812 4.9688-15.328 8.4844-22.594 3.2812-6.7969 7.125-13.312 11.625-19.359 4.2656-5.8125 10.172-15.562 18.844-12.75 6.9375 2.25 8.8125 10.875 12.047 16.594 3.375 5.9531 7.4062 11.438 12.188 16.312 3.2344 3.3281 6.75 6.375 10.5 9.0938 2.4844-10.266 7.125-20.156 13.406-28.594 8.5781-11.578 19.688-20.672 32.438-26.484-3.3281-18.562-0.1875-38.156 8.9062-54.844 3.6562-6.6562 13.734-0.70312 10.125 5.9062-7.5 13.781-10.031 29.531-7.7812 44.812 4.2188-1.2188 8.5312-2.0625 12.938-2.5781 22.641-2.5312 45.938 4.9688 63.094 19.875 5.1562-4.0781 10.641-7.6406 16.594-10.219 6.5156-2.8125 13.266-4.125 20.016-4.125 4.5-16.312 8.9062-32.625 13.406-48.938 1.9688-7.2656 13.312-4.1719 11.344 3.0938-4.3125 15.75-8.625 31.5-12.938 47.203 4.0312 0.9375 8.0156 2.25 11.906 4.0312 12.562 5.7656 22.406 15.281 29.203 26.766 8.8125-3.5625 17.812-6.75 26.906-9.4688 4.5938-1.3594 9.1875-2.5781 13.875-3.7031s9.75-2.5312 14.625-2.0625c16.688 1.5938 19.781 19.453 17.438 33.094-1.125 6.75-3.6562 13.266-6.75 19.5 5.5781 1.5 10.734 4.2188 15.469 7.6875 2.3906-3.3281 4.9688-6.5625 7.4531-9.5625 7.2188-8.8125 15.75-18.281 26.062-23.578 6.7031-3.4688 12.609 6.6562 5.9062 10.125-2.0156 1.0312-3.9375 2.2969-5.7656 3.6562-0.09375 0.09375-0.1875 0.09375-0.23438 0.1875-0.09375 0.09375-0.1875 0.1875-0.375 0.28125-0.46875 0.375-0.9375 0.75-1.3594 1.125-1.125 0.9375-2.1562 1.875-3.1875 2.8594-4.4062 4.0781-8.4844 8.5312-12.328 13.125-2.5312 3.0938-4.9688 6.2812-7.2188 9.6094 3.4219 3.5625 6.5156 7.3125 9.1875 11.156 9.8906 14.062 15.375 31.406 14.156 48.562 11.719 2.3438 23.438 4.7812 35.109 7.4531 9.8438 2.25 19.922 4.2188 28.969 8.8125 8.2031 4.1719 14.156 10.828 18 18.938 1.1719 0.65625 2.1562 1.7812 2.5781 3.4688 0.65625 2.625 1.125 5.2969 1.4062 7.9688 1.5938 6.4688 2.3438 13.219 3.1406 19.781 1.4062 11.812 2.5781 23.672 3.4688 35.531 1.7812 23.531 2.625 47.156 2.4375 70.781v3.9375c4.5 2.1094 9 4.1719 13.547 6.1875 12.609 5.625 25.266 11.25 37.172 18.328 11.016 6.5156 22.031 14.391 29.062 25.312 6.8906 10.688 7.4531 23.438 3.0938 35.25-0.84375 9.8438-1.1719 19.688-1.125 29.531 0.375 54.094 12.516 113.62 3.1875 167.9 6.5625 0.28125 13.125 1.2188 19.5 2.8125 37.312 9.2812 68.672 39.609 76.875 77.438 8.8594 40.828-6.9844 83.016-32.156 114.94-13.266 16.828-29.578 31.406-47.625 42.891-19.406 12.375-40.875 20.109-63.188 25.219-24.375 5.5312-49.266 9.75-73.969 13.688-25.172 4.0312-50.625 7.0312-76.125 7.3125-19.406 0.1875-38.766-1.0781-58.125-3-9.9844 7.4531-18.938 16.312-26.953 25.875-15.281 18.281-27 39.75-35.625 61.922-4.1719 10.734-7.9688 21.844-10.406 33.094-2.3906 11.25-3.7969 22.641-5.2969 34.031v0.1875c-0.046875 1.4062-0.60938 2.6719-1.5469 3.6562-0.65625 0.84375-1.5469 1.4531-2.625 1.7812-0.046875 0-0.09375 0.046875-0.09375 0.046875-10.266 3.6562-20.531 7.5938-30.984 10.734-18.281 5.5312-36.562 7.7812-55.5 4.9219-18.094-2.6719-35.438-9.2344-52.031-16.781-0.09375 0-0.1875 0-0.32812-0.046875-1.3125-0.375-2.3438-1.125-3-2.0625-0.79688-1.0312-1.2188-2.4375-1.2188-3.6562 0-0.375 0.046875-0.75 0.09375-1.125zm-98.062-858c-0.28125 0.375-0.46875 0.70312-0.70312 1.0781-0.375 0.65625-0.75 1.4062-1.125 2.1562-0.09375 0.1875-0.23438 0.51562-0.28125 0.65625-0.1875 0.46875-0.375 0.9375-0.51562 1.4062-0.28125 0.79688-0.51562 1.5938-0.75 2.4375-0.51562 1.7812-0.9375 3.5625-1.4062 5.3438-2.0625 7.875-4.4062 16.5-11.016 21.797-8.6719 7.0312-21.234 6.3281-30.562 0.98438-10.406-5.9062-16.688-16.828-22.828-26.672-3.7031-5.9062-7.4062-11.859-11.109-17.812 0.1875 7.0312 0.60938 14.062 1.1719 21.094 4.2188 51.891 16.594 103.5 15.75 155.63 0.1875 0.9375 0.1875 1.9219-0.09375 2.8125-0.14062 5.5312-0.46875 11.109-0.9375 16.641 2.8125 0.70312 5.5781 1.4062 8.3906 2.0625 34.828 8.3906 70.172 14.719 105.75 19.031 36.703 4.5 73.688 6.8906 110.62 7.3125 37.406 0.46875 74.812-1.125 111.98-4.8281 36.375-3.6562 72.562-9.4219 108.28-17.531 33.844-7.6875 67.219-17.438 99.703-29.625 0.28125-1.2656 0.60938-2.5312 0.9375-3.8438 0.46875-1.875 0.1875-2.1094 0.28125-4.5 0.09375-2.9062 0.14062-5.7656 0.1875-8.625 0.09375-6.375 0.14062-12.656 0.09375-19.031-0.046875-12.656-0.375-25.312-1.0312-37.969-0.60938-12.469-1.5-24.938-2.625-37.359-0.1875-2.2031-0.375-4.4062-0.60938-6.6562-0.28125 0.5625-0.65625 1.125-0.9375 1.6875-1.7812 2.9062-5.1094 3.4688-8.0156 2.1094-8.625-3.9844-16.688-8.9531-24.188-14.719-0.28125 1.2188-0.65625 2.4375-1.0312 3.6562-2.6719 8.8125-6.9844 17.719-14.578 23.297-7.125 5.25-17.203 5.5312-24.75 0.9375-14.625-9-14.906-29.578-22.406-43.031-1.5-2.625-4.125-7.1719-7.6875-5.7656-3.9844 1.5938-5.7188 6.6562-6.7031 10.406-1.5 5.6719-2.3438 11.578-5.4375 16.688-2.5312 4.125-6.1875 7.4062-10.688 9.2344-8.7188 3.6094-18.656 1.2656-26.672-3.0938-8.8125-4.8281-15.094-12.281-19.594-21.141-4.7344-9.3281-8.0156-19.406-13.594-28.266-2.4844-3.9375-5.7656-8.25-9.9375-10.547-1.5-0.75-2.9062-1.3125-4.0781-0.1875-1.0781 1.0312-1.5 3.4688-1.9219 5.0156-2.6719 10.406-6.5625 20.156-13.875 28.266-7.125 7.9219-16.875 13.078-27.609 13.453-9.3281 0.28125-19.312-3.0938-25.781-9.9844-6.8906-7.4062-7.5-16.969-10.078-26.25-0.89062-3.2812-2.0625-6.5625-4.7344-7.9688-3.1875-1.6406-6-0.5625-8.8125 1.7812-7.9688 6.6094-8.7188 17.203-11.391 26.438-2.8594 9.9375-8.1562 19.359-18.562 22.875-10.5 3.5625-21.562-1.4062-29.625-8.0156-8.1562-6.7031-13.031-15.844-17.906-25.031-3.8438-7.2188-7.875-14.812-14.25-20.062-6.8906 7.6875-10.734 17.625-16.125 26.344-6.1406 10.031-15.844 19.406-27.938 21.375-10.453 1.6875-19.078-3-25.125-11.25-4.4062-5.9531-7.0312-13.031-10.781-19.406-0.46875-0.84375-0.98438-1.6875-1.5-2.4844-0.28125-0.375-0.51562-0.75-0.79688-1.125 0-0.09375-0.046875-0.09375-0.09375-0.09375-0.46875-0.60938-1.0312-1.125-1.5938-1.6875l-0.375-0.32812s-0.046875-0.046875-0.046875-0.09375c0 0-0.09375-0.046875-0.09375-0.09375l-0.1875-0.1875c-0.32812-0.1875-1.6875-0.84375-1.5-0.84375-0.1875-0.09375-0.375-0.14062-0.5625-0.1875 0 0-0.42188-0.09375-0.70312-0.09375-0.375 0-1.3125 0-1.5 0.046875-0.09375 0-0.23438 0.046875-0.42188 0.09375-0.28125 0.09375-0.60938 0.1875-0.9375 0.28125 0.09375 0-0.89062 0.46875-1.4062 0.79688-0.09375 0.09375-0.84375 0.79688-1.0312 1.0312l-0.14062 0.14062zm294.66-101.02c-0.09375 0.89062-0.23438 1.7812-0.375 2.625 0.09375 0.46875 0.14062 0.89062 0.09375 1.4062-1.4531 16.781-10.078 32.625-23.438 42.75 5.3438 0.5625 10.688 1.125 15.984 1.7812 9.0469-6.0938 17.25-14.25 24.844-22.594 8.1562-9 15.656-18.656 22.031-29.062 5.4375-8.8125 10.266-17.906 12.188-28.172 0.84375-4.5 1.0312-10.125-0.9375-14.531-0.51562-1.1719-1.3125-2.25-2.3438-3.0469-6.8438 21.422-21 40.031-39.75 52.453-3.8438 2.5312-7.4531-0.1875-8.3438-3.6562zm0.28125-4.0312c0.42188-0.9375 1.125-1.7812 2.1562-2.4375 15.375-10.125 27.094-25.219 33.375-42.469-13.875 3.1406-27.469 7.5469-40.688 12.844 4.0312 10.125 5.8594 21.141 5.25 32.062zm73.641 334.6s-0.23438 0.14062-0.375 0.1875c-1.125 0.9375-1.4531 2.25-1.9688 4.0312-0.60938 2.1562-1.0312 4.3125-1.4531 6.4688-0.9375 4.875-2.25 9.5625-5.25 13.641-3.0938 4.2188-7.2188 7.5-12 9.7031-10.359 4.7344-22.031 4.7344-32.578 0.51562-9.6094-3.8438-17.719-10.125-25.406-16.969-5.4844 10.5-15 18.75-26.391 22.312-13.078 4.125-28.312 1.5-39.375-6.6562-1.1719-0.89062-3.1875-1.9688-4.0312-3.2812-0.23438 0.1875-0.46875 0.42188-0.51562 0.46875-2.3906 1.9688-4.5 4.2188-7.0312 6.0469-4.4062 3.1875-9.4688 5.5312-14.625 7.125-19.125 5.7656-41.062 0.60938-54.984-13.5-5.7188 6.375-13.969 10.172-22.5 11.203-9.7031 1.1719-19.781-1.6875-26.906-8.4375-2.0156-1.875-3.8438-4.0312-5.8125-5.9531-1.4062-1.4062-3.1875-3.2812-5.1562-3.8438-1.4531-0.42188-2.625 1.125-4.0312 2.5781-1.9688 1.9688-4.1719 3.7969-6.5625 5.1562-10.125 5.8594-23.203 5.625-33.844 1.2656-10.406-4.2188-18.844-11.484-26.812-19.219-9.1406 8.9062-22.031 13.172-34.969 10.828-12.422-2.2969-23.062-11.438-28.125-22.875-6.6562 1.9688-13.5 3.4688-20.438 3.4688-7.6875 0-15.281-1.9688-21.188-7.125-6.2812-5.5312-9.2344-14.203-8.5312-22.5 1.2656-15.281 11.344-25.5 22.688-34.219-7.7812-1.0312-15.656-1.9688-23.484-2.4375-17.25-0.98438-36 0.14062-51 9.6562-11.344 7.2656-21.047 19.781-22.406 33.562-0.5625 5.625 0.23438 10.594 2.0625 14.906l0.14062 0.375c9.2812 21.375 43.547 28.172 63.469 33.562 75 20.25 151.87 33.984 229.31 40.266 77.344 6.2812 155.34 5.2031 232.4-4.125 38.438-4.6406 76.594-11.438 114.23-20.344 17.109-4.0312 34.5-8.0156 51.047-13.969 12.938-4.6406 26.016-10.781 36.281-20.062 8.9062-8.0625 16.031-19.406 15.281-31.875-0.5625-9.6562-8.3438-17.953-15.844-24.047-17.109-13.875-38.297-21.844-58.312-30.844-0.09375 2.0156-0.28125 4.0312-0.5625 6 2.0625 1.5469 4.3125 2.8125 6.375 4.3125 2.8125 2.0156 5.3438 4.2656 7.5 6.9844 4.0781 5.1562 6.8438 11.156 7.7812 17.719 1.875 13.406-4.875 26.906-17.344 32.672-5.4844 2.5312-11.344 3.5156-17.344 2.4375-5.625-1.0312-10.875-3.8438-15.938-6.375-4.0312-2.0625-9-5.0625-13.5-4.7344-3.8438 0.28125-5.9531 4.2188-7.5 7.875-2.25 5.3438-4.3125 10.688-8.8125 14.625-4.4531 3.8438-9.9375 6.1875-15.75 7.125-13.312 2.0156-25.312-3.0938-37.031-8.7188-3-1.4062-5.9531-3.0469-9.0938-4.2188-1.0312-0.42188-2.1094-0.84375-3.2812-0.75-0.09375 0-0.28125 0.09375-0.46875 0.09375zm275.16 368.44c20.25-32.109 30.75-74.719 13.078-110.34-15-30.281-46.969-50.766-80.625-51.75-0.375 1.6875-0.79687 3.2812-1.2188 4.9688 17.672 7.5469 24.844 32.812 13.969 48.656 11.344 8.3906 13.125 26.156 7.5 38.906-8.0625 18.281-29.531 24.188-48 27.469 1.3125 7.3594 0.60938 15.094-1.875 22.078-5.9531 16.688-20.625 28.922-38.625 29.484-7.9688 0.28125-15.984-1.7812-23.016-5.5781-1.2656 7.5-4.9688 14.906-10.266 20.344-16.219 16.688-41.625 11.625-62.016 5.1562-3 14.812-17.906 25.781-32.625 27.984-17.625 2.625-33.75-5.5312-48.141-15.281-0.5625 3.5156-1.875 6.9375-3.9375 10.078-9.4688 14.578-28.125 20.766-44.25 14.156-13.875-5.7188-23.766-17.156-31.734-29.625-2.6719 4.8281-6.2812 9.1875-10.594 12.703-14.062 11.438-33.75 14.438-49.594 4.6875-9.3281-5.7656-16.125-14.625-19.406-24.75-2.25 2.5312-4.7812 4.8281-7.5469 6.8906-14.25 10.5-34.312 11.906-49.078 1.5938-8.4375-5.8594-14.625-14.438-17.672-23.953-9.0469 9-22.594 13.688-35.062 10.406-12.844-3.375-22.453-14.484-25.688-27.094-4.0781 4.0781-8.7188 7.5938-13.781 10.312-17.812 9.5625-40.312 9.1406-55.031-5.8594-5.625-5.7656-9.7969-13.172-11.719-21.047-14.25 10.5-35.016 10.406-47.156-3.375-7.7812-8.8594-11.484-21.562-9.375-33.141-17.25 5.1562-36 3.7969-52.5-4.0781-1.875-0.89062-2.8594-3.0938-2.9062-5.0625-0.23437-9.2812 1.5938-18.188 5.25-26.391-1.875 1.0312-3.6562 2.25-5.2969 3.6094-5.4375 4.3125-9.9844 9.4219-15.984 12.984-5.25 3.1406-11.344 5.1562-17.531 4.125-5.4375-0.89062-10.5-4.4062-13.125-9.2812-5.1562-9.4219-2.5312-21.094 1.6406-30.375 7.1719-15.938 18.469-30 32.25-40.875-6.2812 1.875-12.562 4.0312-18.656 6.375-10.031 3.9375-19.875 8.4844-29.297 13.781-8.4375 4.7344-16.734 10.312-22.688 18.094-11.344 14.812-10.219 34.969-2.4375 51.141 8.7188 18.141 25.031 30.562 42.469 39.844 18.75 10.031 39 17.438 58.969 24.75 57.188 20.906 116.16 36.469 175.78 48.844 0.32812 0 0.65625 0.09375 0.9375 0.1875 30.469 6.3281 61.172 11.812 91.875 16.781 45.469 7.3125 91.172 13.5 136.87 19.547 47.438 6.2812 94.969 13.172 142.92 9.4688 24.094-1.875 48-5.7656 71.812-10.031 22.781-4.0781 45.891-7.6875 68.016-14.484 38.906-12 73.5-38.625 95.25-73.125zm-58.922-72.469c5.1094-8.8594 4.7812-25.5-7.125-28.594-5.25-1.3594-5.2969-7.9219-1.4062-10.688 11.062-7.9219 6.5156-28.125-4.7812-34.125-5.0625 14.672-12.188 28.781-22.312 42.094-24.188 31.875-59.906 53.016-96.281 68.344-39 16.406-80.625 25.688-122.68 29.531-88.734 8.1094-177.37-8.9062-262.4-33.281-43.312-12.422-86.578-25.969-129.1-41.062-17.766-6.2812-35.484-13.5-51.422-23.719-16.078-10.312-29.25-23.578-39.422-39.703l-1.9688-3.2344c-7.5469 5.0625-14.391 11.062-20.391 17.953-6.4688 7.4062-12.281 16.125-16.031 25.219-2.5312 6.1406-4.7812 16.312 0.70312 20.344 7.3594 5.3438 17.766-5.25 22.781-9.8438 6.8438-6.1875 15.656-12.516 25.078-11.906 0.09375-0.09375 0.14062-0.1875 0.23438-0.28125 1.9688-2.5312 6.2812-2.0625 8.25 0 1.8281 1.7812 1.9688 4.125 1.1719 6.1875 0.14062 0.75 0.09375 1.5938-0.09375 2.4375-0.51562 1.875-2.1562 3.4688-4.0781 4.125-4.3125 7.2188-6.7031 15.469-7.0781 23.906 16.547 6.75 35.859 5.625 51.562-3 4.7344-2.625 11.719 3 8.0625 8.0156-8.8594 12-4.9219 31.406 8.7188 38.25 10.5 5.25 24.094 0.23438 31.031-9.0469 0.70312-4.7812 2.3438-9.4219 5.1562-13.688 2.9062-4.3594 11.625-3.2812 10.922 3-0.5625 5.1562-2.1562 9.9375-4.6406 14.25-1.0312 12.703 7.3125 26.25 19.125 31.219 20.062 8.4375 42.516-6.2812 51.75-23.812 3.0938-5.9062 12.703-1.7812 10.688 4.5-4.125 12.938 3.75 28.594 17.156 32.109 14.344 3.7969 28.875-7.875 30.797-21.844 0.65625-3.0938 4.2656-4.875 7.2188-4.125 3.3281 0.9375 4.5 4.0781 4.125 7.2188-3.6094 16.359 7.7812 34.5 24.094 38.344 16.5 3.8906 34.312-7.9688 38.344-24.094 0.75-3.0938 4.2188-4.9219 7.2188-4.125 3.2812 0.9375 4.5938 4.0781 4.125 7.2188-2.5781 16.406 10.406 34.031 26.812 36.469 16.688 2.4844 33.188-10.266 36.375-26.438 0.98438-5.0625 8.3438-5.5781 10.688-1.4062 8.2969 14.766 20.156 34.594 38.812 37.125 11.953 1.5938 32.062-11.438 24.375-25.125-2.625-4.7344 3.0469-11.719 8.0156-8.0156 13.828 10.219 30.281 22.969 48.469 21.891 12.844-0.79688 27.094-10.688 25.875-24.703-0.32812-3.6562 4.0312-6.8438 7.4062-5.625 10.172 3.4688 20.672 7.0781 31.5 7.7812 8.2031 0.5625 17.672-0.375 24.188-5.8594 5.5312-4.6875 10.594-14.344 9.2812-22.219-2.9531-3.0938-5.4375-6.5625-7.3125-10.406-2.3438-4.8281 2.8125-11.625 8.0156-8.0156 4.5469 3.0938 7.5 7.125 9.1875 11.531 9 8.3438 22.594 11.859 34.312 7.0312 15.469-6.375 23.062-25.453 17.719-40.875-0.9375-2.7188 1.125-6.7031 4.0781-7.2188 15.188-2.4375 36.656-5.2969 45.188-20.062zm-18.656-99.281c3.6562-18.562 4.5938-37.688 4.1719-56.719-2.3438 1.125-5.0625 1.6406-7.5938 1.4062-6.8438-0.70312-11.344-6.2812-14.344-11.953-6.75-12.656-12.234-26.109-16.688-39.75-5.4375 0.42188-10.969-1.1719-15.328-4.2656-1.6875 8.25-4.1719 16.312-7.5 24.094-2.5312 5.9062-6.2812 11.531-8.1562 17.672-2.1562 6.9844-0.1875 14.344 0.09375 21.469 0.42188 10.594-4.3125 25.031-16.781 26.062-6.2812 0.51562-13.125-4.0312-15.656-9.8438-6.0469 0.09375-12.281-2.9062-16.453-7.2188-6.6562-6.9375-7.6875-16.312-8.7188-25.5-4.125 1.125-8.3438 1.875-12.656 2.1562-3.1875 0.1875-5.8125-2.8125-5.8594-5.8594-0.046874-1.7812-0.09375-3.6094-0.09375-5.4375-4.3125 0.1875-8.7188-1.4062-12.328-4.3125-0.79688 1.5938-1.5938 3.1406-2.4844 4.6406-5.9531 10.219-13.594 19.547-21.844 28.031-1.7812 1.8281-3.8438 3.6562-4.9219 6-1.125 2.3438-1.0312 4.9688-1.0312 7.5469-0.046876 5.4375-0.65625 10.922-2.2031 16.172-3 10.312-8.9531 19.734-17.016 26.812-2.5312 2.25-5.8125 2.1562-8.2969 0-6.4688-5.5312-10.594-13.453-11.672-21.844-12.469-0.32812-23.062-13.031-22.172-25.406-9.5625-3.2812-16.031-13.969-14.812-24-2.8125-0.84375-5.4375-2.1562-7.875-3.7969-1.5938 7.5938-4.5938 14.906-8.9062 21.328-2.8594 4.2656-6.2344 8.0625-9.9844 11.531s-7.6875 6.75-10.359 11.25c-5.3438 8.8125-6.6562 19.406-8.0625 29.438-0.375 2.625-3.375 4.1719-5.625 4.3125-16.078 0.9375-31.031-8.5312-39.656-21.703-7.8281-12-10.406-27.094-7.5469-41.109-6.9375-2.1094-12.656-7.5938-15.891-14.156-5.8125 9.7031-11.578 19.406-17.25 29.156-3.75 6.5156-7.4062 13.125-10.641 19.922-3 6.375-5.0625 13.078-7.9219 19.5-2.25 5.1562-5.6719 10.406-11.016 12.703-5.1562 2.25-11.344 0.89062-15.094-3.375-6.8438-7.6875-1.5469-20.812-10.594-26.766-5.1562-3.375-10.922-5.5781-14.906-10.5-2.2031-2.7188-3.75-5.9062-4.2188-9.1875-7.6875-1.4062-14.297-8.0625-16.734-15.609-2.9062-9 0.28125-18.094 4.6875-26.203-6.7031-1.7344-12.516-5.9531-16.219-11.766-2.1562 2.0156-4.6875 3.6562-7.4062 4.875 3.5625 17.25-7.8281 36.047-25.031 40.219 0.65625 7.125-0.14062 14.297-3.6094 20.766-3.75 6.9375-10.922 12.047-18.75 13.031-13.5 1.6406-24.375-12.094-20.25-24-13.406-11.906-11.672-32.344-19.266-48-6.8438-2.25-12-7.3594-14.859-13.594-3.375 1.9219-7.3125 2.8125-11.25 2.4375-4.7344 13.078-18.188 22.547-32.156 21.844-0.1875 10.734-7.2188 21.281-17.438 24.984-12.281 4.5-26.672-2.7656-32.062-14.344-1.5469-3.375-2.3438-6.8906-2.3438-10.594 0-3.75 0.9375-7.5 0.9375-11.25 0.046874-7.7812-5.8594-15.516-9.2812-22.125-4.1719-7.9688-8.3438-15.844-12.469-23.812-1.7812-3.375-3.4688-7.0312-5.8594-9.9844-2.2969-2.7656-5.3438-4.7344-8.1562-6.9375-0.9375-0.70312-1.7812-1.4531-2.625-2.2031 0.75 29.906 0.14063 59.859 3.375 89.578 2.3438 21.938 7.6875 44.484 17.625 64.5 2.7188 1.0312 4.5 4.3125 3.8438 7.125 5.1562 9 11.344 17.344 18.75 24.75 26.531 26.438 64.781 37.125 99.375 48.469 42.938 14.109 85.969 27.938 129.74 39.328 82.688 21.469 169.31 34.031 254.44 20.812 40.406-6.2812 80.062-18.188 116.34-37.219 33.609-17.625 64.172-41.859 80.625-76.875 2.4375-5.1562 4.4531-10.359 6.2812-15.656-1.5-2.9062-0.65625-7.0312 2.5312-8.25 0.65625-2.4375 1.3125-4.875 1.875-7.4062-0.09375-0.5625-0.1875-1.2188-0.14062-1.7812 0.09375-1.3125 0.51562-2.5781 1.3125-3.6094zm3.6094-71.906c-0.09375-2.4375-0.28125-4.9219-0.42188-7.3594-2.0625-33.422-6.2812-66.891-5.625-100.41-4.875 5.0625-10.594 9.4688-16.688 13.219-12.938 7.9688-27.516 13.359-42.094 17.438-19.359 5.4375-39 10.125-58.688 14.344-40.219 8.5781-80.953 14.766-121.92 18.703-81.469 7.875-163.78 6.6562-245.06-2.5781-41.062-4.6875-81.844-11.25-122.26-19.781-20.156-4.2656-40.266-9-60.188-14.203-17.203-4.5-34.969-8.5312-51.281-15.75-6.1875-2.7188-12.094-6.1875-17.297-10.5 0.28125 3.4219 0.5625 6.8438 0.75 10.266l0.1875 3.4688c0.65625 1.7344 1.4531 3.375 2.4375 5.0625 3.6562 6.1406 9.1875 9.5625 14.438 14.109 4.8281 4.1719 7.8281 9.75 10.734 15.281 3.5625 6.8438 7.1719 13.688 10.781 20.531 3.375 6.4688 7.125 12.844 10.031 19.594 1.4531 3.3281 2.4375 6.75 2.625 10.406 0.1875 3.5625-0.60938 7.0312-0.84375 10.594-0.65625 9.2812 7.3594 18.422 17.203 16.406 8.9062-1.7812 13.031-12.469 9.9844-20.297-1.5469-4.0312 3.2344-8.7188 7.2188-7.2188 11.297 4.3594 26.438-3.2812 27.703-15.984 0.42188-4.3594 4.6875-7.4062 8.8125-5.0625 3.0938 1.7344 7.5938 0.1875 9.9844-2.7188 0.09375-3.2812 0.79688-6.5625 2.1562-9.6562 2.0156-4.5 9.8438-3.3281 10.688 1.4062 0.75 3.9375 0.14062 7.7344-1.4062 11.109 0.5625 4.0312 2.8594 7.9688 5.9062 10.312 3.0938 2.3906 7.125 1.9688 9.2812 5.5312 1.9688 3.2344 3.2812 7.125 4.4531 10.688 2.2969 7.3125 3.4688 14.953 5.625 22.312 1.875 6.2812 4.5469 12.281 10.359 15.75 3.375 2.0625 3.6562 6.375 1.1719 9.1875-1.8281 2.0625-0.84375 5.4375 0.70312 7.4062 2.1562 2.8125 5.8125 3 9 1.875 10.031-3.6562 10.781-16.078 9-25.031-0.75-3.75 1.6406-7.3594 5.625-7.4062 13.875-0.28125 25.312-17.391 19.312-30.234-1.4531-3.0938-0.51562-7.875 3.5156-8.625 5.3438-0.98438 10.219-4.1719 12.281-9.4688 2.3438-6.1875 11.016-5.2031 11.531 1.5469 0.60938 7.9688 9.2344 14.812 17.156 13.406 4.6875-0.84375 9.6562 3.9375 6.6094 8.625-4.2188 6.5625-9.9375 14.531-9 22.781 0.5625 5.3438 5.625 11.344 11.344 9.2812 4.9219-1.7812 9.1406 4.4531 6.6562 8.625-2.5312 4.1719 5.3438 8.5312 8.4375 10.266 5.1094 2.8125 10.359 6 13.125 11.438 2.2031 4.3594 2.5781 9.1406 3.2344 13.875 0.28125 1.9219 0.46875 6.4688 2.3906 6.9375 2.8125 0.75 5.3906-5.25 6.2812-7.2188 2.5312-5.625 4.2656-11.531 6.7969-17.109 5.3438-11.906 12.094-23.109 18.75-34.312 6.75-11.438 13.547-22.781 20.344-34.219 0.42188-0.84375 0.89062-1.5938 1.4062-2.3906 4.2188-6.0938 14.062-0.65625 10.125 5.9062-6.0938 8.7188 1.3125 22.641 12.094 22.125 3.6562-0.1875 6.8438 3.9375 5.625 7.4062-4.2188 12.469-2.9531 26.25 4.0312 37.547 5.5312 9 14.766 15.609 25.219 16.781 1.3125-8.6719 3.0938-17.297 7.125-25.172 4.6875-9.1406 13.031-14.438 19.406-22.125 6.9844-8.4375 10.688-19.125 11.109-29.906-3.7969-6.75-5.25-14.812-3-22.688 1.6406-5.8594 9.375-5.25 11.297 0 2.25 6.2812 3.375 12.891 3.4688 19.594 3.2812 4.4062 8.3438 7.5938 13.969 7.7812 4.4062 0.1875 7.4062 4.875 5.0625 8.8125-3.7969 6.4688 2.2031 15.328 9.4219 14.906 4.6875-0.28125 7.0312 5.1094 5.0625 8.8125-4.1719 7.9688 6.0938 17.625 13.875 14.766 3.4688-1.2656 7.6875 2.0625 7.4062 5.625-0.375 6 1.1719 11.484 4.5 16.078 4.9688-5.625 8.5312-12.188 10.312-19.594 1.2656-5.1562 0.89062-10.172 1.3594-15.375 0.46875-5.3906 2.5781-9.75 6-13.828 3.375-4.0312 7.3125-7.5938 10.688-11.578 3.5625-4.125 6.75-8.5312 9.75-13.125 3.2344-4.9688 6.5625-10.594 7.7812-16.5-0.9375-4.4062-1.0781-9.0469-1.0781-13.406 0-7.125 9.1875-7.3125 11.531-1.5469 1.9688 4.7812 2.25 9.8438 1.5 14.766 0.375 1.125 0.9375 2.1562 1.5938 3.0938 1.4062 1.875 5.5312 4.6406 7.875 2.6719 3.7969-3.1875 9.9375-1.2188 9.9844 4.125 0.046875 2.25 0.09375 4.5 0.09375 6.75 3.5156-0.65625 6.9375-1.6875 10.266-3.0938 2.6719-1.125 6.7969 1.2188 7.2188 4.0781 1.125 7.875 0.5625 17.719 4.9219 24.703 2.6719 4.3125 8.4844 7.5938 12.938 4.125 4.5938-3.5156 11.438 3.4688 8.0156 8.0156-0.5625 0.75-0.89062 0.46875-0.09375 1.4531 0.65625 0.84375 1.6406 1.6875 2.7188 1.875 2.5312 0.42188 4.4062-2.4375 5.3438-4.4531 3.9375-8.9062-0.51562-19.641 0.65625-29.016 1.3125-10.781 8.3906-20.062 12-30.094 3.7031-10.266 5.9531-20.953 6.7031-31.875 0.51562-7.4531 11.906-7.5938 11.719 0-0.1875 6.375 7.5 13.172 13.969 10.406 3.5156-1.5 7.4062-0.46875 8.625 3.4688 3.375 11.109 7.5 21.938 12.375 32.438 2.0625 4.5 4.0312 9.75 7.2188 13.688 0.75 0.9375 1.7812 2.25 3.0938 2.2969 0.5625 0.046875 0.75 0 1.1719-0.23438 0-0.14062 0.09375-0.32812 0.09375-0.65625 0.32812-2.1562 2.3438-3.6562 4.4531-4.125zm-78.422-142.22c8.625-3.6562 13.453-12.844 11.531-21.984-1.0312-4.7344-3.2812-9.1406-6.6562-12.656-2.0156-2.0625-4.3594-3.6562-6.75-5.2031-0.46875 0.5625-1.125 1.0312-1.875 1.4531-4.5 2.2031-9.5625 3.6094-14.25 5.25-18.75 6.75-37.781 12.656-57.047 17.812-39.656 10.688-80.062 18.281-120.84 23.391-41.438 5.1562-83.203 7.5938-124.97 7.5469-41.344-0.09375-82.734-2.6719-123.74-7.7812-40.031-4.9688-79.828-12.281-118.97-22.312-1.875-0.46875-3.0938-1.5938-3.6562-2.9531-0.46875-0.84375-0.75-1.7344-0.65625-2.6719 0.375-3.5156 0.65625-7.0312 0.84375-10.594-3.8438 3.0469-7.4062 6.375-10.125 10.406-4.125 6-6.6562 14.344-3.5625 21.375 6.4688 14.625 28.219 7.875 39.281 4.125 3-1.0312 6.4688 1.1719 7.2188 4.125 2.6719 10.078 10.922 18.094 21.141 20.25 10.031 2.1562 21.422-2.5312 27.375-10.828 2.1562-3 6.375-4.0312 9.1875-1.2188 8.9062 8.9062 18.469 18.891 31.031 22.219 4.3125 1.125 8.9531 1.5 13.312 0.60938 5.1094-1.0781 8.3438-3.5625 12.047-7.125 4.125-4.0312 9.5625-5.9531 15.141-3.8438 5.3438 2.0156 9.1875 6.375 13.031 10.406 5.4844 5.7188 12.281 8.25 19.875 7.2188 7.7812-1.0781 14.391-5.25 17.812-12.234 2.0625-4.2656 7.8281-3.3281 10.125 0 5.9062 8.625 15.469 13.828 25.594 15.844 8.6719 1.7344 18.469 0.9375 26.531-2.8125 4.4062-2.0625 7.875-4.7344 11.344-8.0625 2.7188-2.5781 5.8594-4.6406 9.75-4.4062 3.375 0.1875 5.8594 2.1562 8.3438 4.2656 8.7188 7.5 21.281 9.75 32.109 6.0469 10.031-3.4219 17.906-12.188 20.766-22.312 1.2188-4.3125 6.5625-5.625 9.7969-2.625 9.4688 8.9062 19.688 18.656 32.672 21.844 8.5312 2.1094 19.406 0.09375 25.266-6.9375 5.3438-6.375 3.6094-16.406 8.1562-23.625 2.9062-4.5938 7.9219-7.125 13.406-6.5156 6.1875 0.65625 12.188 4.5 17.719 7.125 9.6562 4.5938 20.344 9.1406 31.125 5.8594 4.2188-1.2656 7.5938-3.7969 9.6562-7.6875 2.3438-4.3125 3.4688-9.2344 6.375-13.219 3.375-4.6875 8.3438-7.6875 14.203-8.0625 5.25-0.28125 10.359 1.7812 15.047 3.9844 8.1562 3.8438 16.828 10.219 26.156 6.2812zm-22.312-175.13c3.375-7.3125 4.6875-15.375 3.9375-23.438-1.875-7.3125-5.0625-14.438-11.25-19.125-8.25-6.1875-19.266-7.9688-29.062-10.219-23.953-5.4375-48-10.219-72.188-14.438-23.625-4.0312-47.438-7.5-71.25-10.312-0.89062 0.14062-1.7344 0-2.5312-0.28125-23.906-2.8125-47.906-4.9219-71.906-6.4688-49.172-3.0938-98.484-3.6094-147.66-1.5-20.25 0.84375-40.5 2.25-60.703 3.9844-0.1875 0-0.28125 0.046875-0.46875 0.046875-28.406 2.4844-56.625 5.8594-84.844 10.125-0.375 0.046875-0.84375 0.09375-1.2188 0.09375-0.09375 1.2188-0.14062 2.4844-0.1875 3.75 7.6875 12.281 15.328 24.656 23.016 36.938 5.5312 8.9062 12.188 20.062 23.531 21.891 3.4688 0.5625 7.4062 0.1875 10.219-2.0625 2.3438-1.7812 3.9375-4.9688 4.8281-7.5 2.625-7.2188 3.5625-15 6.9844-21.938 3.6562-7.3594 11.25-11.766 19.5-10.453 7.0312 1.125 11.766 6.9375 15.141 12.75 3.5625 6.2344 6.1875 13.031 10.406 18.938 1.3594 1.875 3.6562 4.3125 6.1406 5.4375 3.7031 1.6875 8.0625 0.9375 11.672-0.65625 9.0938-3.9375 14.297-12.094 18.797-20.438 5.0625-9.375 9.8438-19.125 18.047-26.203 1.9688-1.6875 4.7344-2.3438 7.125-0.9375 4.2188 2.5312 8.0625 5.8125 11.156 9.6562 6.5156 8.0625 10.688 17.438 15.797 26.344 4.5469 7.875 11.156 15.703 20.25 18.469 8.3438 2.5312 14.812-2.1562 17.906-9.9844 3.6562-9.2812 3.9844-19.5 9.2812-28.125 5.2969-8.7188 15.375-17.016 26.203-13.312 9.6094 3.2812 12.938 12.562 14.812 21.656 1.7344 8.25 3.1875 15.703 11.062 19.875 6.8906 3.6562 15.75 3.5625 22.688-0.1875 8.4844-4.5938 14.344-13.125 17.438-22.078 1.6406-4.6406 2.25-9.5625 4.3594-14.062 2.3906-5.1562 7.5-8.7188 13.312-8.3438 11.109 0.75 19.312 12 24.188 20.906 4.9688 9.0938 8.1562 19.031 13.312 28.031 4.0312 7.125 10.453 12.984 18.281 15.562 7.0312 2.3438 13.969 1.8281 17.438-5.625 2.2031-4.6875 2.5781-10.125 4.1719-15 1.7812-5.4375 5.0156-10.594 9.8438-13.781 4.7344-3.1406 10.781-3.5625 15.797-0.9375 4.5469 2.3906 7.6875 6.8438 9.9844 11.25 3.9375 7.5938 6.0469 15.844 8.9062 23.812 1.3125 3.5625 2.5312 6.5625 4.7344 9.9375 0.65625 0.9375 0.42188 0.75 1.125 1.4062 0.5625 0.5625 1.125 1.1719 1.7344 1.6875 0.09375 0.09375 1.1719 0.84375 1.3125 0.9375 0.09375 0.09375 1.125 0.5625 1.4062 0.70312h-0.09375c1.9688 0.75 3 0.89062 4.875 0.84375 1.3125-0.046875 0.9375 0 1.9688-0.28125 0.375-0.09375 0.84375-0.1875 1.2188-0.375l0.1875-0.09375c0.046875 0 0.09375-0.046875 0.09375-0.09375 3-1.4062 5.2969-3.8906 7.125-6.75 4.5938-7.2188 6.7031-15.844 7.8281-24.281 0.65625-4.6875 6.9375-5.1562 9.7969-2.625 7.4062 6.6562 15.562 12.234 24.375 16.828zm-82.219-74.25c0.46875-14.25-4.0312-27.938-12.188-39.75-1.7812-2.5781-3.75-5.0156-5.8594-7.3125l-0.375 0.65625c-0.28125 0.65625-0.60938 1.3125-0.9375 1.9219-0.046876 0.09375-0.09375 0.1875-0.09375 0.23438-0.046876 0.09375-0.046876 0.09375-0.09375 0.23438-0.375 1.0312-0.75 2.0156-1.0312 3.0469-2.0625 7.2188-13.406 4.125-11.297-3.0938 1.125-3.8438 2.8125-7.5938 4.7812-11.203-3.9375-2.9531-8.2031-5.2969-12.656-6.4688-0.84375-0.1875-1.5-0.5625-2.0625-0.98438-0.46875 0.75-0.84375 1.5-1.3125 2.2031-7.2656 11.766-15.891 22.781-25.312 32.906-4.6875 5.0625-9.6562 9.9844-14.906 14.531 20.625 2.625 41.25 5.7188 61.734 9.2812 7.2188 1.2656 14.391 2.5781 21.609 3.9375zm-117.38 787.03c10.406-17.156 23.062-32.906 38.109-46.125-24.703-2.9531-49.312-6.7969-73.781-10.078-48.469-6.5156-96.844-13.453-145.03-21.984-13.406-2.3438-26.719-4.875-40.078-7.5 5.8594 8.3438 11.344 16.969 16.312 25.875 13.594 24.469 23.766 50.719 33 77.109 5.25 14.906 9.0938 30.094 11.109 45.75 0.046874 0.375 0.09375 0.75 0.09375 1.125 8.2031 2.6719 16.594 4.7344 25.125 6.1875 18.562 3.0938 37.688 3.5625 56.438 2.3906 17.25-1.125 34.406-3.7969 51-8.4844 6.0938-22.453 15.75-44.438 27.703-64.266zm13.266-849.28c2.5781-14.484-0.65625-29.766-8.25-42.281-6.75-11.156-17.25-20.297-29.812-24.281-1.4062-0.46875-2.8594-0.84375-4.2656-1.125 0 0.09375-0.09375 0.23438-0.09375 0.32812-1.7812 6.5625-11.156 4.6875-11.484-1.125-6.2344 0.46875-12.281 2.4375-18.141 5.9531-10.875 6.4219-19.875 15.75-27.844 25.5-6.4219 7.875-12.094 16.312-17.25 25.031 19.5 11.297 34.359 30.609 40.969 52.031 7.0312 0.42188 14.062 0.84375 21.094 1.3594 8.5312 0.65625 17.062 1.3594 25.594 2.1562 0.46875-1.125 1.2188-2.0625 2.3438-2.5781 7.5938-3.7031 14.016-9.1406 18.562-15.75 2.4375-3.5156 4.5-7.4062 5.7656-10.828 0.75-2.1094 1.4062-4.2656 1.875-6.4688 0.5625-2.3438 0.65625-3.4688 0.84375-5.4375v-0.09375c-0.09375-0.79688-0.09375-1.5938 0-2.4375zm-48.422 955.6c1.2188-9.7031 2.4375-19.453 4.4062-29.062-7.0781 1.7812-14.25 3.1875-21.469 4.3125-19.688 3.0469-39.656 4.2188-59.531 3.0938-15.938-0.9375-32.016-3.1875-47.344-7.7812 0.1875 3.2812 0.32813 6.5625 0.375 9.7969 0.09375 6.2812 0.046876 12.75-0.5625 19.078 19.312 8.625 40.031 15.703 61.312 15.891 21.844 0.1875 42.609-7.9688 62.906-15.328zm-40.312-916.18c-3.9375-10.594-9.9375-20.25-17.906-28.406-16.828-17.156-42-27-66-19.781-5.25 1.5938-9.6562 3.8438-13.406 7.4531-4.2188 4.0312-7.6406 8.8125-10.688 13.781-4.9688 8.1562-8.9062 17.062-11.391 26.344 4.9688-0.1875 9.9844-0.375 15-0.46875 34.781-0.9375 69.609-0.5625 104.39 1.125zm-14.766-90.141c2.25-2.5312 4.5938-4.9688 7.0312-7.4062-8.1562-6.9375-17.906-11.719-28.312-14.344-12.047-3-24.562-2.8125-36.234 0.5625 0.51563 1.5938 1.0312 3.1875 1.6875 4.6875 1.125 2.9531-1.3125 6.4688-4.125 7.2188-3.2812 0.89062-6.0469-1.125-7.2188-4.125-0.46875-1.2188-0.89062-2.4375-1.3125-3.6562-2.8594 1.4062-5.625 2.9531-8.25 4.7344-15.562 10.5-26.344 27.094-29.953 45.422 4.0312 2.0625 8.25 3.8438 12.562 5.1562 1.6875 0.51562 2.7188 1.5 3.375 2.6719 1.3125-1.2656 2.7188-2.5312 4.2188-3.6562 5.4375-4.125 12.281-6.5625 18.938-7.9688 14.578-3.0938 29.719-1.3125 43.406 4.1719 6.9375-11.906 14.953-23.297 24.094-33.609zm-99.844 51.938c0.60937-0.84375 1.2188-1.6875 1.875-2.5312-13.828-4.4062-26.484-12.047-36.797-22.219-4.6875-4.6875-8.9062-9.8906-12.562-15.469-1.0312-1.5938-1.9688-3.1875-2.9062-4.875-1.0312 12.469 1.0781 25.969 3.75 38.109 3.4688 15.75 8.4844 31.266 15.328 45.844 4.7812-0.28125 9.5625-0.5625 14.344-0.75 2.9062-13.547 9.0938-26.906 16.969-38.156zm-43.734 39.656c-6.2812-14.25-11.109-29.25-14.344-44.391-2.9531-13.688-5.1562-28.219-3.7969-42.281-0.79688 1.125-1.5469 2.25-2.2969 3.375-3.9375 6-7.4531 12.375-10.266 19.031-2.6719 6.2812-4.7812 12.891-6.3281 19.594-1.4062 6.1875-2.3438 10.266-1.5 16.5 1.4531 10.5 5.7188 21.234 11.438 30.375 9-0.75 18.094-1.5 27.094-2.0625z"/>
 <path d="m861.42 620.06c0.09375 3.2812-2.7188 5.7188-5.8594 5.8594-3.1875 0.14062-5.7656-2.8125-5.8594-5.8594l-0.84375-32.625c-0.09375-3.2812 2.7188-5.7188 5.8594-5.8594 3.1875-0.14062 5.7656 2.8125 5.8594 5.8594l0.84375 32.625z"/>
 <path d="m747.89 640.03c0.09375 3.2812-2.7656 5.7188-5.8594 5.8594-3.2344 0.14062-5.8125-2.8125-5.8594-5.8594l-0.84375-33.328c-0.09375-3.2812 2.7188-5.7188 5.8594-5.8594 3.1875-0.14062 5.8125 2.8125 5.8594 5.8594l0.84375 33.328z"/>
 <path d="m651.84 175.03c0.75 3.0938-0.9375 6.375-4.0781 7.2188-3 0.84375-6.4688-1.0312-7.2188-4.0781-0.89062-3.6562-2.0156-7.2188-3.375-10.688 0-0.09375-0.28125-0.75-0.32812-0.84375-0.14062-0.375-0.28125-0.65625-0.46875-1.0312-0.32812-0.75-0.70312-1.5469-1.0781-2.3438-0.75-1.6406-1.6406-3.2344-2.5312-4.8281-3.75-6.5625-7.5938-11.531-12.938-16.781-2.25-2.25-2.25-6.0938 0-8.2969 2.2031-2.2031 6.0469-2.25 8.2969 0 11.531 11.391 19.828 25.969 23.719 41.719z"/>
 <path d="m639.47 618.56c0.28125 11.906-0.65625 23.812-2.5312 35.625-0.46875 3.2344-4.4062 4.6875-7.2188 4.0781-3.3281-0.75-4.5938-4.2188-4.125-7.2188 0.79688-4.9688 1.4062-10.172 1.7812-15.75s0.46875-11.156 0.32812-16.781c-0.09375-3.2812 2.7188-5.7188 5.8594-5.8594 3.1875-0.14062 5.8125 2.8125 5.8594 5.8594z"/>
 <path d="m536.53 648.94c0.046875 3.2812-2.7188 5.7188-5.8594 5.8594-3.1875 0.14062-5.8125-2.8125-5.8594-5.8594-0.09375-5.7188-0.32812-11.438-0.75-17.156-0.1875-2.8594-0.46875-5.7188-0.75-8.5312-0.28125-2.6719-0.65625-5.5312-0.9375-7.6406-0.46875-3.2812 0.75-6.0938 4.0781-7.2188 2.7188-0.89062 6.75 1.0312 7.2188 4.0781 1.6875 12.094 2.7188 24.188 2.9062 36.422z"/>
 <path d="m416.53 601.55v33.328c0 3.2812-2.6719 5.7188-5.8594 5.8594-3.1406 0.14062-5.8594-2.8125-5.8594-5.8594v-33.328c0-3.2812 2.6719-5.7188 5.8594-5.8594s5.8594 2.8125 5.8594 5.8594z"/>
 <path d="m396.94 275.68s-0.09375-0.09375-0.1875-0.14062l0.14062 0.14062z"/>
 <path d="m288.28 571.22c3.0938-0.14062 5.9062 2.8125 5.8594 5.8594-0.28125 10.125-0.5625 20.25-0.79688 30.375-0.09375 3.2812-2.625 5.7188-5.8594 5.8594-3.0938 0.09375-5.9531-2.8125-5.8594-5.8594 0.28125-10.125 0.51562-20.25 0.79688-30.375 0.09375-3.2812 2.625-5.7188 5.8594-5.8594z"/>
</svg>
