<?xml version="1.0" encoding="UTF-8"?>
<svg width="1200pt" height="1200pt" version="1.1" viewBox="0 0 1200 1200" xmlns="http://www.w3.org/2000/svg">
 <path d="m588.74 1199.2c-36.141-2.1094-59.625-5.2031-82.406-10.922-31.219-7.8281-70.828-21.562-95.062-33.047-11.766-5.5781-21.891-10.125-22.5-10.125-0.60938 0-7.6406-4.4062-15.609-9.7969s-17.297-11.203-20.719-12.938c-3.4219-1.7344-13.031-9.5156-21.375-17.344-8.3438-7.7812-15.984-14.203-16.922-14.203-2.9531-0.046875-52.5-53.672-60.562-65.531-30.75-45.234-43.266-72.797-49.453-108.7-10.172-59.438-11.438-90.75-6.1406-154.18 6.7969-81.375 15.609-113.58 47.672-174.14 9.2812-17.484 17.438-29.297 27.844-40.078 4.6406-4.8281 12.703-14.203 17.953-20.812 9.6094-12.188 14.812-16.969 33-30.234 5.5312-4.0312 11.391-8.8125 13.078-10.688 11.016-12.234 51.656-34.078 87.375-46.969 12.141-4.4062 27.094-9.7969 33.141-12.047 6.3281-2.2969 17.062-4.2188 25.125-4.5 7.7344-0.23438 24.422-1.6406 37.031-3.0469 14.812-1.6875 35.391-2.25 57.844-1.5938 31.828 0.9375 39.047 1.8281 36.469 4.4531-0.51563 0.51562-22.594 1.4062-49.078 2.0625-79.125 1.875-81.984 2.3906-131.53 22.781-35.625 14.672-61.359 29.156-78.984 44.391-7.3594 6.375-17.719 14.531-23.062 18.188s-11.672 9.4688-14.016 12.891c-4.5 6.5156-10.547 13.5-26.391 30.375-12.141 12.938-15.75 18.281-27.375 40.172-27.422 51.844-34.359 70.781-43.969 120.56-5.4844 28.172-6.3281 34.219-9.1875 63.281-5.25 52.922 2.0156 129.32 16.078 170.06 6.9375 20.062 7.3594 20.859 24.797 46.922 18.938 28.359 24.234 35.062 38.625 49.219 6.75 6.6094 14.859 15.516 18 19.734 3.1406 4.2188 13.453 14.203 22.922 22.219s19.875 17.016 23.109 20.016c3.2344 3 10.922 8.2969 17.062 11.766 6.1406 3.4688 16.172 9.6562 22.266 13.734s16.031 9.5625 22.078 12.141c6.0938 2.625 15 6.8438 19.828 9.375 22.547 11.906 85.875 29.953 121.82 34.688 45.281 5.9531 91.5 4.3594 126.56-4.4062 8.8594-2.2031 21.516-5.1562 28.125-6.5156 6.6094-1.4062 18.375-5.25 26.109-8.5781s18.562-7.2656 24.094-8.7656c9.9844-2.6719 20.531-8.25 40.547-21.469 10.219-6.75 13.547-10.266 31.078-32.906 9.75-12.609 24.656-31.453 28.172-35.672 1.2656-1.5 7.5938-14.531 14.062-28.922 19.219-42.75 32.625-90.375 38.672-137.06 1.7344-13.453 3.0938-18.094 5.2969-18.094 4.4531 0 2.8594 22.406-4.2188 58.781-6.7969 35.156-12.234 55.078-25.078 91.875-8.9531 25.688-10.453 29.156-16.781 39.188-3.5625 5.625-4.6406 6.2344 13.828-7.7344 17.297-13.078 20.812-16.594 28.922-28.922 4.1719-6.3281 11.062-14.297 15.328-17.672 12.797-10.125 19.969-25.5 31.031-66.234 2.5312-9.375 5.625-19.641 6.8438-22.734 2.8125-7.1719 16.969-55.031 20.578-69.703 1.8281-7.3594 2.6719-22.828 2.5781-46.219-0.14062-30.094-0.9375-38.859-5.5781-60.797-4.9688-23.438-18.516-67.359-23.672-76.641-1.1719-2.1094-4.3594-11.578-7.125-21.094-6.6094-22.875-18.703-47.391-31.5-64.031-5.7188-7.4531-12.984-17.953-16.172-23.391s-13.078-17.25-22.031-26.203c-8.9531-9-20.484-20.859-25.594-26.438-8.2031-8.9531-27.844-23.25-22.547-16.453 39.984 51.375 42.797 55.641 49.406 74.156 9.7031 27.328 23.109 72.938 27.375 93.281 4.0312 19.219 5.0625 28.312 7.2188 64.312 0.51562 8.8594 1.5469 25.781 2.2969 37.688 1.1719 18.75 0.9375 21.609-1.7812 21.609-2.4375 0-3.4219-3.4219-4.4062-15.562-0.70312-8.5781-2.5781-22.359-4.125-30.656s-3.375-20.062-4.0781-26.109c-2.8125-24.703-9.4688-49.734-23.016-86.391-3.4688-9.375-8.9062-24.328-12.047-33.141-12.281-34.312-14.906-39.422-36-69.703-15.469-22.266-31.594-41.391-35.062-41.672-0.9375-0.09375-6.8438-4.5469-13.078-9.8906-8.1094-6.9844-20.25-13.875-42.703-24.094-17.25-7.875-32.812-14.344-34.547-14.344s-9.3281-2.1562-16.828-4.7812-20.016-5.8594-27.75-7.125c-19.688-3.2812-31.125-6.375-31.125-8.4375 0-2.3438 1.8281-2.25 29.438 1.3594 30.516 3.9844 61.547 13.312 95.109 28.547 29.344 13.359 25.922 9.0938-9.2344-11.344-29.391-17.109-49.641-24.375-67.828-24.375-12.281 0-18.703-2.7188-13.688-5.8125 2.625-1.6406 6.4219-11.203 6.4219-16.219 0-4.0312-4.7344-4.5938-65.297-7.3594-30.094-1.3594-98.109 2.5312-96.281 5.5312 1.5938 2.5312-6.6562 2.1094-10.969-0.5625-3-1.875-4.5-1.5-8.0156 2.0156-5.8594 5.8594-5.5312 14.531 0.70312 20.391 2.7656 2.5781 5.0156 5.4844 5.0156 6.375 0 3.2812-7.2188 1.5469-14.578-3.4219-6.2812-4.2656-7.5-6.2344-7.5-12.188 0-3.8906 0.79688-8.625 1.8281-10.5 2.2969-4.3125-10.172-29.812-23.672-48.516-5.25-7.2188-11.391-17.203-13.734-22.172-14.297-30.562-24.094-49.172-33.516-63.75-5.9062-9.0938-14.203-24.469-18.469-34.172s-9.7969-20.391-12.281-23.766c-6.0469-8.1562-9.8906-18-11.531-29.156-1.3594-9.5156-0.79688-10.641 13.828-28.359 1.5469-1.875 4.4062-5.9531 6.375-9.0469 17.203-27.141 42.656-55.453 53.578-59.531 3.5625-1.3125 28.406-4.6875 76.688-10.359 14.203-1.6875 29.062-2.25 36.141-1.4531 6.6094 0.75 17.484 0.84375 24.094 0.23438 14.484-1.4062 35.156 0.046875 35.156 2.4375 0 1.6875-13.828 2.3438-36.656 1.7344-6.375-0.1875-16.547 0.75-22.688 2.0156s-31.312 4.3594-55.969 6.8438l-44.859 4.5469-9.4219 7.875c-5.2031 4.3125-11.859 11.484-14.859 15.891-2.9531 4.4062-8.8125 12.562-13.031 18.094-19.266 25.453-25.078 34.172-22.875 34.641 1.3125 0.28125 14.484-0.1875 29.297-0.98438 20.719-1.125 27.281-2.2031 28.594-4.5 0.9375-1.6406 4.0781-8.4375 6.9844-15.047 16.312-37.219 21.844-45.188 31.219-45.188 8.7188 0 2.7188 21.328-14.109 49.828-3.4219 5.8125-6.2344 11.484-6.2344 12.516 0 1.0781 4.875 1.9219 10.781 1.9219 12.469 0 23.344 1.875 23.344 3.9844 0 0.79688-8.25 2.0156-18.375 2.6719s-19.172 1.9688-20.109 2.9062c-1.4531 1.4531 3.0938 9.5156 9.9375 17.672 8.5312 10.078 19.781 34.031 28.734 60.938 5.7188 17.297 12.047 34.688 14.062 38.719 3.7031 7.4062 8.0156 19.594 15.844 44.953 2.4844 8.0625 9.1875 21.562 15.75 31.688l11.391 17.625 17.812-0.9375c9.7969-0.51562 18.188-1.3594 18.703-1.8281 0.46875-0.46875 0-8.4375-1.125-17.719-1.125-9.2344-3.4688-31.266-5.2969-48.938-1.7812-17.672-5.1562-47.062-7.4062-65.297-2.2969-18.234-4.3594-43.406-4.5469-55.969-0.46875-25.125-1.0781-26.344-12.938-26.391-6.3281-0.046875-6.6094-0.28125-3.1875-2.7656 3.4688-2.5312 2.25-4.2656-17.859-24.609-22.406-22.641-33.328-36.375-33.328-41.812 0-6.2344 5.2969-2.8594 21.094 13.453 8.8594 9.1406 20.203 20.344 25.266 24.891s12.469 12.188 16.453 17.016l7.2656 8.7656h79.453c43.688 0 79.453-0.28125 79.453-0.5625 0-0.32812-1.9688-4.4062-4.4062-9.0469-7.2188-13.828-13.266-29.438-14.719-38.016l-1.3594-8.0625-10.453 17.109c-5.7656 9.4219-12.141 20.812-14.156 25.312-3.8438 8.5312-11.109 11.578-11.109 4.6875 0-5.9531 20.25-44.719 25.031-47.812 6.1406-4.0312 17.344-1.6875 18.797 3.8438 0.60938 2.2969 6.3281 14.812 12.75 27.844 8.1094 16.5 12.75 23.719 15.234 23.859 1.9688 0.09375 15.656 0.375 30.469 0.60938l26.906 0.42188-11.906-11.25c-6.5625-6.1875-13.875-14.438-16.266-18.328s-9.4688-12-15.75-18c-6.2344-6-12.844-12.609-14.625-14.719s-5.7188-6.7031-8.7656-10.266c-4.5938-5.4375-7.3594-6.7031-17.062-7.8281-6.375-0.75-17.484-2.2969-24.656-3.4688s-25.031-2.3906-39.703-2.7188c-30.422-0.70312-34.406-1.5-30.469-6.2344 2.25-2.7188 7.0781-3 33.891-2.1562 17.203 0.5625 37.125 2.0156 44.297 3.2344s18.984 3 26.25 3.8906c16.219 2.0625 26.156 6.6094 36.844 16.922 4.5469 4.3594 12.797 11.297 18.375 15.469s12.797 10.922 16.078 15.047 10.312 12.141 15.703 17.812 12.047 13.219 14.766 16.828l5.0156 6.5156-9.7969 10.734c-10.641 11.625-20.578 28.734-25.875 44.578-4.875 14.625-13.359 31.828-25.219 51.234-5.7188 9.375-13.078 22.969-16.312 30.141-5.4844 12.188-9.9844 19.453-25.922 42.141-3.4688 4.9219-9.2812 16.031-12.938 24.656-8.4375 19.969-15.047 31.172-22.781 38.531l-6.1406 5.8594 15.516 4.875c19.922 6.2812 33.562 12.094 43.641 18.656 4.4062 2.8594 13.453 8.25 20.109 11.906 6.6094 3.6562 17.016 10.406 23.109 14.953s15.422 10.5 20.766 13.266 13.031 8.4375 17.062 12.656c4.0312 4.1719 13.547 11.719 21.094 16.734s17.953 13.781 23.109 19.453 15.375 16.453 22.781 23.953c14.391 14.578 19.594 21.609 34.781 46.781 21.328 35.344 25.688 46.125 34.219 84.375 2.9531 13.266 7.1719 30.891 9.375 39.188 12.891 48.516 15.703 66.234 15.984 101.44 0.23438 27.094-1.0312 44.438-4.6406 63.281-2.7188 14.203-10.781 44.859-14.766 56.203-1.9219 5.4844-2.3906 9.2812-1.125 10.031 3 1.8281-1.4062 12.797-15.609 38.859-1.9219 3.5156-6.0938 12.75-9.2812 20.484s-8.2969 17.297-11.391 21.234c-3.0469 3.9375-8.7188 13.266-12.609 20.672s-9.5625 15.656-12.656 18.281-11.719 9.9375-19.172 16.219-13.547 12-13.594 12.703c0 2.1562-12.656 14.953-23.156 23.391-5.4844 4.4062-15.141 13.547-21.469 20.25-8.4375 9-15.281 13.969-26.016 18.938-8.0156 3.7031-18.422 9.3281-23.109 12.469-5.0156 3.375-13.172 6.5156-19.828 7.5938-6.1875 0.98438-17.156 4.2188-24.422 7.0781-7.2188 2.9062-18.234 6.1875-24.469 7.3125s-17.672 3.75-25.406 5.7656c-27.141 7.1719-71.297 10.219-113.53 7.7344zm228.05-721.08c-2.0156-2.2031-4.6406-3.9844-5.8594-3.9375s-0.046876 1.8281 2.5312 4.0312c6.1406 5.1094 7.9688 5.0625 3.2812-0.046875zm-306.74-96.234c3.6562-1.9219 21.75-3.9375 37.031-4.125 5.25-0.046875 9.5625-0.9375 9.5625-2.0156 0-1.0312-4.9688-9.1406-11.062-18.047s-12.938-20.859-15.188-26.625c-4.0312-10.172-15.047-31.547-23.625-45.844-9.4219-15.656-22.312-42.328-27.234-56.391-2.9062-8.2031-10.922-26.016-17.812-39.516l-12.562-24.609h-28.641c-25.969 0-28.641 0.32812-28.547 3.5156 0.14062 6.3281 5.25 18.141 11.156 25.969 3.1875 4.2188 8.0156 12.188 10.641 17.719 9.75 20.203 13.125 26.438 23.531 43.641 11.25 18.562 24.844 45.656 24.844 49.406 0 3.0469 11.484 25.875 22.734 45.328 5.0625 8.7188 9.75 18.422 10.453 21.609 0.70312 3.1406 3.1875 7.0781 5.5781 8.7656 5.0625 3.5625 4.7344 3.5156 9.0469 1.2188zm201.61-21.984c6.7031-14.297 21.375-38.391 25.922-42.562 3.0938-2.8125 10.406-14.859 18.375-30.141 4.875-9.375 14.344-26.344 21.047-37.688s14.156-27.141 16.594-35.156 7.0781-21.984 10.266-31.125l5.8594-16.594h-6.4688c-3.5625 0-13.734-0.5625-22.547-1.2656l-16.078-1.2188-0.1875 9.7969c-0.1875 9.2344-1.6875 13.406-20.859 58.031-1.9219 4.4062-8.5781 27.234-14.812 50.672s-15.422 54.141-20.391 68.25c-4.9688 14.062-9.0469 26.344-9.0469 27.281 0 4.7812 5.0625-2.7656 12.375-18.281zm-25.5 7.1719c1.875-5.8125 6.4219-18.234 10.078-27.609 6.0469-15.422 12.375-39 22.078-82.359 6.1875-27.656 28.125-84.984 34.266-89.625 3.4219-2.5781-9.6562-4.0312-41.578-4.6875-22.266-0.42188-19.734-2.9062-24.797 24-0.51562 2.7656-3.1406 11.344-5.8125 19.078-12.656 36.75-21.797 71.484-26.203 99.656-1.6406 10.406-3.4688 21.609-4.125 24.938-4.2188 22.266-4.9688 27.094-5.4844 35.156l-0.5625 9.0469 10.031 1.1719c5.5312 0.65625 14.25 1.3125 19.359 1.5l9.3281 0.32812 3.375-10.547zm-52.875 4.1719c0.9375-1.4531 1.6875-6.0938 1.6875-10.359 0.046875-12 9.9375-72.609 14.953-91.688 5.2969-20.062 14.156-51.047 18.656-65.391 3.0938-9.75 8.6719-39.609 7.6406-40.781-0.9375-1.0312-23.531-2.0625-54.188-2.4375l-30.094-0.375 0.51562 8.7188c0.5625 9.5625 4.1719 45.938 5.3438 53.953 0.42188 2.7656 1.3125 16.312 2.0625 30.141 0.70312 13.828 1.5938 28.266 1.9688 32.156 0.375 3.8438 1.7344 24.188 3.0469 45.188s2.625 39.094 2.9531 40.172c0.89062 3.1875 23.484 3.75 25.453 0.65625zm-59.531 784.03c-8.8594-0.89062-21.516-2.2031-28.125-2.9062-21.422-2.2969-55.688-9.5156-79.359-16.688-12.703-3.8438-25.406-7.6875-28.266-8.5781-2.8594-0.84375-6.8906-2.5312-9.0469-3.75s-11.766-5.8594-21.469-10.359c-9.6562-4.5-20.531-10.688-24.094-13.828-3.6094-3.0938-17.672-14.062-31.312-24.375-33.797-25.547-48.234-40.547-60.703-62.953-5.625-10.125-14.484-25.312-19.688-33.797-8.6719-14.062-20.578-44.156-23.297-58.969-7.0781-38.484-9.0469-53.625-10.5-80.25-1.2656-23.531 1.5469-71.953 6.3281-108.61 1.5938-12.141 3.375-28.406 3.9375-36.141 1.3125-17.578 4.9219-28.547 15.141-45.984 4.4062-7.5469 8.0156-14.062 8.0156-14.484s3.2812-5.0625 7.3125-10.312 10.078-15.422 13.453-22.641c6.1875-13.125 12.094-20.531 38.625-48.234 15.328-15.984 23.672-23.531 33.797-30.562 3.4219-2.3906 10.969-8.5781 16.734-13.781s17.812-13.219 26.766-17.812 20.484-10.594 25.594-13.312c11.156-5.9062 49.312-16.828 79.875-22.828 47.859-9.375 61.031-10.641 112.5-10.922 46.125-0.23438 51.609 0.14062 67.312 4.2656 34.781 9.1875 55.734 17.953 72.984 30.516 27.891 20.344 30.609 22.828 39.703 36.234 4.875 7.1719 12.047 16.641 16.031 21.094 3.9375 4.4531 9.0938 10.828 11.391 14.203 5.25 7.5938 15.422 37.172 19.547 56.766 3.9844 19.078 3.9375 22.922-0.23438 22.125-2.1562-0.42188-4.5469-4.9219-6.7969-12.844-1.875-6.7031-6.1406-17.109-9.4219-23.109s-7.6406-15.422-9.7031-20.953c-4.7344-12.844-10.828-22.547-18.984-30.141-3.5625-3.3281-12.188-13.312-19.219-22.266-6.9844-8.9062-16.641-18.844-21.375-22.031s-13.969-9.8438-20.438-14.719c-13.125-9.8906-38.344-20.203-65.203-26.625-15.984-3.8438-21.516-4.0781-67.641-3.0938-50.766 1.0781-58.359 2.0156-118.83 14.484-2.3438 0.46875-6.4219 3.2344-9.0469 6.0938s-9.8906 9-16.125 13.688c-6.2812 4.6875-22.547 20.25-36.141 34.641-28.828 30.469-30.375 32.297-35.578 42.375-2.1562 4.1719-10.266 15.656-18.047 25.547-14.25 18.094-16.125 21.75-39.469 77.484-14.344 34.219-16.359 40.172-18.938 56.25-1.1719 7.1719-2.5312 15.328-3.0938 18.094-0.51562 2.7656-1.8281 9.5625-2.9062 15.047-3.1875 16.641-2.0625 67.828 2.0156 92.438 8.4844 51 27.516 114.84 44.016 147.56 6.3281 12.609 20.953 33.984 26.109 38.25 0.65625 0.5625 6.375 8.8594 12.703 18.422 6.3281 9.6094 15.328 20.391 20.016 24s14.391 11.719 21.562 18c14.25 12.422 27.141 20.578 44.062 27.75 6 2.5312 13.219 6.2812 16.078 8.2969 11.016 7.8281 68.438 16.031 111.52 15.938 41.766-0.046875 67.828-6.0938 85.172-19.734 4.0312-3.1875 11.438-7.5469 16.406-9.75s14.062-8.0156 20.156-12.984 13.781-10.734 17.062-12.844c10.219-6.5156 41.156-37.641 45.797-46.078 3.0938-5.5781 5.8125-8.0625 8.9062-8.1094 2.625-0.046875 6.8438-2.9062 10.172-7.0312 7.4062-9.0938 33.234-58.641 38.391-73.641 7.9688-23.297 14.672-55.922 17.062-83.297 0.70312-8.1094 1.7344-18.938 2.2031-23.953 1.4062-14.203 1.5469-84.141 0.1875-94.266-0.65625-4.9688-2.6719-20.812-4.4531-35.156s-4.875-32.906-6.8438-41.203c-6.6562-27.797-6.5156-26.484-3-25.781 3.4688 0.70312 14.531 31.734 20.016 55.922 2.9531 13.172 8.5312 45.516 10.734 62.297 3.2344 24.516 0.046875 123.94-4.7344 148.69-5.5781 28.781-12.984 50.297-26.766 77.906-11.719 23.438-15.516 28.922-31.031 45.188-9.7031 10.172-21.188 23.484-25.453 29.578-7.7812 11.109-18.609 22.172-24.188 24.75-1.6406 0.75-5.3438 2.9531-8.1562 4.875-21.281 14.391-28.688 18.844-40.125 24.047-7.125 3.2812-16.172 8.1094-20.062 10.781-6.7969 4.6406-23.578 10.547-45.141 15.844-12.188 3-70.219 4.3594-92.438 2.1094zm-126.56-40.828c-3.3281-2.4375-11.578-9.4219-18.375-15.516s-16.406-14.391-21.328-18.469-13.359-14.016-18.797-22.078c-5.3906-8.0625-15.469-21.703-22.406-30.328-15.188-18.891-23.672-35.391-36.984-71.531-10.641-28.875-26.016-80.438-30.75-103.12-4.8281-23.109-7.5-52.734-6.5625-72.234 1.5-30.281 10.031-75.375 16.781-88.453 2.2031-4.3125 2.25-5.7656 0.28125-7.0312-1.3594-0.89062-7.7812-9.5156-14.25-19.172s-12.562-17.578-13.547-17.578c-3.1406 0-11.906 15.797-11.953 21.562-0.046875 3.0469-0.89062 9.1875-1.9219 13.594s-2.4375 16.641-3.0938 27.141c-0.70312 10.5-1.5938 21.328-1.9688 24.094-0.42188 2.7656-1.3125 13.594-2.0625 24.094-0.70312 10.5-1.6875 19.688-2.1094 20.391-1.875 3.0469-1.0312 72.797 1.0781 92.109 2.9062 26.391 9.2812 59.109 14.391 74.016 2.1562 6.2344 3.7969 11.625 3.6562 11.953-0.5625 1.2188 5.2031 13.828 10.359 22.688 2.9531 5.0625 10.125 18.422 15.984 29.672 9.1406 17.625 13.125 22.875 28.781 37.781 9.9844 9.5156 23.203 20.438 29.344 24.281s17.016 10.828 24.234 15.516c20.062 13.078 31.312 18.703 46.359 23.203 7.5938 2.25 14.297 4.9688 14.953 6.0469s2.2969 1.9219 3.6094 1.875-0.32812-2.0625-3.6562-4.5zm-127.64-446.48 4.6406-9.0469-4.0781-4.5c-2.25-2.4844-7.9219-10.312-12.703-17.391l-8.625-12.891-4.7344 5.4844c-5.1094 5.9062-6 10.266-2.5781 12.375 2.4375 1.5 18.516 26.203 20.531 31.547 0.70312 1.9219 1.6406 3.5156 2.0625 3.5156s2.8594-4.0781 5.3906-9.0469zm15.75-45.188c-3.3281-9.2812-14.719-30.656-16.5-30.891-0.98438-0.14062-4.0781 4.0312-6.8906 9.2812-4.9219 9.1406-5.0156 9.7969-1.9688 16.219 1.7812 3.7031 6.6094 12.047 10.781 18.609l7.5938 11.906 4.3594-10.031c3.2344-7.4531 3.8906-11.297 2.5781-15.047zm14.25-36.844c-7.9219-21.656-7.0312-21.094-17.109-11.203l-8.8125 8.6719 5.8125 2.4375c4.5469 1.9219 6.7969 5.1562 10.312 14.719l4.4531 12.281 9.8438-14.438-4.5469-12.375zm25.5-13.875c2.625-5.0625 2.3906-6.5625-3.2344-18.984l-6.0938-13.5-7.3594 7.5938c-4.8281 4.9688-6.5625 8.0625-5.0625 9 1.2656 0.79688 3.9375 7.875 5.9062 15.797l3.6094 14.391 4.7344-4.4062c2.5781-2.4375 6-6.8906 7.5469-9.8906zm17.578-26.438 5.2031-6.8438-13.031-14.156-5.0156 3.8906c-4.5469 3.5625-4.6875 4.0781-1.5469 5.9531 1.9219 1.125 4.4062 5.625 5.625 10.031 1.1719 4.4062 2.4375 7.9688 2.8125 7.9688s3.0469-3.0938 5.9062-6.8438zm29.109-40.594-5.2969-5.2969-9.2344 6.375c-5.1094 3.5156-9.2344 6.6562-9.2344 7.0312s1.3594 3.2812 3 6.4219c1.6406 3.1875 3 7.5469 3 9.75 0 3.1406 2.5312 1.4531 11.531-7.5l11.531-11.531-5.2969-5.2969zm22.406-16.969c0-2.5781-1.2188-2.3906-8.1562 1.1719-5.25 2.7188-5.6719 3.5625-3.6562 7.4062l2.2969 4.3125 4.7344-5.5312c2.625-3.0469 4.7344-6.375 4.7344-7.4062zm17.203-9.0469c3.75-3 3.7031-3.0469-1.125-1.7812-2.7656 0.75-6.375 2.1094-8.0156 3.0469-2.3906 1.3594-2.2031 1.7344 1.125 1.7812 2.2969 0.046875 5.9062-1.3594 8.0156-3.0469zm452.11-265.74c-0.5625-0.89062-1.2188-8.8125-1.4531-17.578s-1.1719-18.75-2.1094-22.172c-1.5469-5.7188-2.2969-6.1875-10.031-6.0469-9.75 0.1875-12.938-4.0781-4.4062-5.9531 12.984-2.8125 20.438-11.203 23.672-26.531 1.0781-5.2031 2.3906-6.5156 6.2344-6.5156 4.5469 0 4.875 0.70312 4.875 11.156 0 16.406 3.6094 29.016 8.2969 29.016 2.0625 0 3.7969 0.70312 3.7969 1.5938 0 3-4.8281 6.4219-9.0469 6.4219-7.2656 0-9.0469 3.9844-9.0469 20.297 0 12.234-0.65625 15.703-3.1875 16.688-4.3125 1.6406-6.4219 1.5469-7.6406-0.42188zm7.4062-50.578c-0.5625-2.2031-1.875-3.4688-2.9062-2.8125-1.125 0.70312-0.9375 2.3438 0.46875 3.9844 3.1875 3.7969 3.7031 3.5625 2.4375-1.1719zm-42.75-57.188c-1.7344-3.2344-2.25-8.6719-1.5-15.891 0.98438-9.4688 0.5625-11.484-3.2344-15-3.9844-3.7031-24.797-16.969-30.188-19.172-4.7812-1.9688 3.9844-5.2031 14.156-5.25 8.1562-0.046875 11.672-1.125 16.453-5.1562 7.6875-6.4688 18.375-27.609 18.375-36.375 0-5.4375 0.9375-6.8906 5.0156-7.9219 8.4375-2.1094 11.672 0.32812 10.219 7.7344-5.3438 27.562-3.9844 31.641 10.969 31.641 5.3438 0 10.219 0.84375 10.875 1.9219s-6.4688 9.9844-15.844 19.875c-17.953 18.938-20.953 25.312-18.656 39.469 0.79688 4.9219 0.28125 7.0781-1.9219 7.9219-6.5156 2.4844-12.094 1.0781-14.719-3.75zm25.266-58.359c-3.7969-1.125-7.5-2.5781-8.2031-3.2812s-5.8594 1.7812-11.438 5.5312-11.016 6.7969-12.047 6.7969c-1.0781 0 1.5 3.375 5.7188 7.5469l7.6406 7.5469 25.219-22.125z"/>
</svg>
