<?xml version="1.0" encoding="UTF-8"?>
<svg width="1200pt" height="1200pt" version="1.1" viewBox="0 0 1200 1200" xmlns="http://www.w3.org/2000/svg">
 <path d="m169.21 631.86c2.5625-7.3086 0-11.664-0.64063-16.281 0.90234-5.8164-0.875-11.727-4.832-16.082-3.957-4.3555-9.6719-6.6914-15.551-6.3516-25.637-1.9219-37.434-26.277-40.766-49.355-1.2812-8.9727-2.1797-14.102-10.895-18.586-31.406-16.664-34.484-49.996-7.1797-74.48v0.003906c4.2461-2.7852 5.6406-8.3672 3.207-12.82-3.9688-9.043-4.5352-19.215-1.5898-28.641 2.9453-9.4219 9.2031-17.465 17.613-22.637 3.7695-1.8906 5.3164-6.4648 3.4609-10.254 0-1.2812-1.1523-2.5625-1.668-3.7188-10.125-27.047-8.7148-34.484 16.41-52.688-7.0898-3.5703-12.637-9.5938-15.609-16.953s-3.1641-15.551-0.54297-23.043c1.9219-6.793-4.6133-9.1016-8.0742-12.82v0.003906c-10.207-11.777-14.895-27.352-12.887-42.805 2.0078-15.449 10.52-29.309 23.398-38.086 4.1211-3.6562 9.2539-5.9844 14.723-6.668 5.4688-0.6875 11.016 0.29688 15.914 2.8242 8.2031 4.8711 13.844 3.5898 16.922-6.2812 1.9844-4.3945 4.2109-8.6719 6.6641-12.82 12.82-29.098 54.48-26.664 69.863-3.8477 3.332 4.8711 5.3828 10.895 11.922 14.359 0.20703-6.8633 0.76172-13.707 1.668-20.512 1.4492-9.5312 6.2227-18.242 13.473-24.594 7.2461-6.3555 16.508-9.9453 26.145-10.137 9.6406-0.19141 19.035 3.0312 26.531 9.0938 7.9492 6.4102 12.82 7.3086 21.023 2.1797 5.6758-3.9219 12.336-6.1875 19.227-6.5391 3.043 0.14844 6.0664-0.56641 8.7227-2.0664 2.6523-1.4961 4.8281-3.7148 6.2773-6.3945 1.2812-2.3086 3.7188-5.5117 5.6406-5.5117 15.512 0 17.434-12.82 21.922-22.816l-0.003906-0.003906c4.7734-10.629 12.352-19.758 21.922-26.406 30.125-21.406 69.992-8.332 76.914 27.816 0.64062 3.2031 1.668 6.4102 2.6914 10.641 10.789-2.3359 21.918-2.6406 32.82-0.89453 8.0742 2.3086 12.051-1.793 15.895-8.7188 12.82-22.691 19.484-24.355 41.789-11.152 5.8984-1.9219 6.5391-8.2031 9.7422-12.82 4.1719-7.6562 11.605-12.988 20.195-14.488 8.5859-1.4961 17.391 1.0039 23.902 6.7969 2.5 1.1445 4.7266 2.8047 6.5391 4.8711 2.2852 5.2617 6.9297 9.125 12.516 10.418 5.5898 1.2891 11.457-0.15234 15.816-3.8789 6.4922-2.2383 13.59-1.9375 19.867 0.84766 6.2812 2.7812 11.273 7.8359 13.973 14.152 2.8242 5.9805 5.3477 12.098 7.5664 18.328 3.9375-6.707 8.2148-13.211 12.816-19.484 11.023-14.102 24.867-15.766 36.148-2.5625 7.6914 8.9727 11.922 6.793 19.613 1.1523 20.383-14.613 30.125-12.82 48.457 5 5.4531 4.3945 8.3438 11.23 7.6953 18.203-1.5078 9.5625 1.9727 19.23 9.2266 25.637 5.4062 7.4844 8.4414 16.414 8.7188 25.641 7.1797-4.1016 9.1016-10 12.82-14.484 13.59-17.305 24.742-18.461 40.895-3.9727 2.5625 2.3086 4.1016 5.5117 8.2031 6.5391v-0.003906c1.6914-0.84375 3.2812-1.875 4.7422-3.0781 21.664-21.023 52.941-17.82 62.301 24.742 2.3086 10.895 5.5117 12.82 15.641 15.254 14.742 2.8203 29.098 8.332 31.793 26.922 1.1523 8.4609 6.5391 9.3594 14.742 8.7188 20.766-1.793 39.484 2.6914 50.121 23.461v-0.003906c4.6953 6.8398 6.707 15.176 5.6406 23.406-1.0625 8.2305-5.1289 15.781-11.41 21.203-4.6602 3.1406-7.9414 7.9414-9.1836 13.422-1.2383 5.4766-0.33594 11.223 2.5156 16.062 0.91406 2.9766 1.5977 6.0195 2.0508 9.1016 7.5977-3.1914 15.734-4.8906 23.973-5 7.6328-0.38281 15.094 2.3477 20.676 7.5664 5.582 5.2227 8.8086 12.484 8.9375 20.125-0.34766 10.793 1.2617 21.566 4.7422 31.789 1.2656 5.2344 0.4375 10.754-2.3086 15.383-2.4219 4.2539-2.4219 9.4688 0 13.719 3.6328 4.5547 5.8789 10.059 6.4688 15.855 0.58984 5.793-0.49609 11.637-3.1328 16.832-1.2305 2.2461-1.4766 4.8984-0.67188 7.3281 0.80078 2.4336 2.5781 4.4219 4.9023 5.4922 3.4375 2.2969 6.0938 5.5898 7.6055 9.4414 1.5156 3.8477 1.8125 8.0703 0.85156 12.094-0.76172 3.332-0.16406 6.832 1.668 9.7227 1.8281 2.8867 4.7383 4.9258 8.0781 5.6602 7.6094 3.2344 13.93 8.9023 17.969 16.121 4.0352 7.2148 5.5625 15.57 4.3359 23.746-0.84766 17.152-7.2422 33.566-18.223 46.766-10.984 13.203-25.957 22.48-42.668 26.434-6.5625 2.2891-13.785 1.6797-19.871-1.668-9.4844-7.9492-14.613-1.793-20.512 3.9727-6.6094 7.1523-15.898 11.238-25.637 11.281-8.5898 0-11.664 3.9727-14.359 11.023-2.6914 7.0508-7.8203 17.305-11.664 25.637 3.5898 3.2031 6.6641 1.2812 9.7422 0 55.121-23.074 107.81 7.0508 122.42 61.789 9.6133 35.766 2.5625 68.969-7.5625 102.55-8.0742 26.664-17.305 53.07-25.637 79.605-5.6406 17.434-8.5898 19.23-27.305 20.895-43.969 3.9727-37.047-3.332-45.508 41.277v0.003906c-7.2422 39.664-23.273 77.203-46.918 109.86-21.465 32.68-52.953 57.508-89.734 70.762-64.098 20.125-126.65 18.461-181.9-25.637h-0.003906c-37.578-28.645-67.918-65.699-88.578-108.2-12.391-29.008-17.453-60.617-14.742-92.039 0-4.1016 0.89844-8.0742 1.4102-12.18 0.76953-7.4336-2.3086-12.82-10.129-11.922-23.715 1.0273-47.559 2.5625-71.273 4.1016-6.1523 0-7.9492 4.6133-7.6914 10 0 10.129 1.0273 20.383 2.0508 30.637 6.0234 64.098-22.691 111.78-69.992 150.75-38.457 31.664-85.246 42.305-133.32 44.738-26.805 0.078125-53.219-6.4375-76.914-18.973-27.898-14.305-54.086-31.723-78.066-51.918-23.695-20.566-41.406-47.133-51.277-76.914-12.469-31.133-16.578-64.984-11.922-98.195 1.5391-9.7422-1.5391-13.59-11.281-14.359-21.664-1.668-43.328-4.6133-65.121-6.1523-8.3477 0.18359-16.527-2.3594-23.305-7.2383-6.7773-4.8789-11.781-11.832-14.254-19.809-15.992-40.668-25.883-83.477-29.359-127.04-2.5859-15.996 2.1172-32.312 12.82-44.48 11.664-13.461 20.125-30.508 32.176-44.355 6.6328-8.7344 15.758-15.258 26.168-18.711 10.41-3.457 21.621-3.6797 32.16-0.64453 24.316 4.2227 46.988 15.094 65.504 31.406zm62.941-101.66-11.539 2.4375c-17.434 3.7188-17.82 3.7188-19.102 21.535h0.003906c-0.9375 13.242-6.6836 25.688-16.152 34.996-3.3867 3.2227-5.7539 7.375-6.8047 11.934-1.0469 4.5586-0.73047 9.3242 0.91016 13.703 4.4883 15 7.9492 30.254 12.051 45.379v0.003906c1.7383 5.9023 2.4766 12.055 2.1758 18.203 0.003907 4.293-3.0781 7.9688-7.3047 8.7148-5.7695 1.1523-5.8984-3.7188-7.1797-7.5625-1.8672-9.2305-5.1992-18.102-9.8711-26.281-17.566-24.844-45.508-40.324-75.887-42.047-6.1367-0.98438-12.426 0.28906-17.691 3.5898-26.793 18.719-49.098 43.332-52.43 76.918-6.25 48.195 0.15625 97.191 18.586 142.16 1.6211 4.832 4.6445 9.0703 8.6875 12.176s8.918 4.9336 14.004 5.2578c22.305 2.3086 44.738 4.1016 67.043 6.4102 10.641 1.0273 14.613-3.332 18.203-13.715v-0.003906c9.125-26.566 23.934-50.824 43.395-71.082 19.461-20.258 43.105-36.031 69.285-46.211 40.215-15.773 83.43-22.43 126.53-19.488 27.859 0.10938 55.07 8.4219 78.234 23.902 23.16 15.48 41.25 37.441 52.008 63.141 11.41 23.973 23.332 47.688 32.434 72.684h-0.003906c1.0508 4.6406 3.8477 8.6953 7.8125 11.324 3.9648 2.625 8.7891 3.6211 13.469 2.7773 21.793-1.5391 43.586-2.0508 65.379-3.332 16.793-1.0273 17.305-1.0273 22.176-17.82 11.023-37.176 36.277-62.688 66.148-85.117 30.668-22.992 66.41-38.293 104.22-44.609 34.18-6.9609 69.367-7.3945 103.71-1.2812 21.031 3.2578 40.641 12.617 56.402 26.918 9.168 9.2305 18.977 17.797 29.355 25.637 35.895 25.637 49.609 64.098 58.457 104.61 6.5391 28.715 9.8711 22.176 29.355 19.996v0.003906c2.0352-0.38281 4.0898-0.64062 6.1523-0.76953 12.82 0 17.691-7.1797 21.152-18.074 9.3594-29.227 19.742-58.07 29.355-87.172 9.7109-28.688 10.293-59.676 1.668-88.707-6.1562-19.77-20.02-36.223-38.457-45.637-17.062-9.2227-36.902-11.887-55.793-7.4961-18.887 4.3906-35.52 15.539-46.762 31.34-4.2305 5.7695-7.5625 12.051-17.176 13.59v-0.003906c2.1016-12.594 7.3477-24.453 15.254-34.48 9.4258-14.242 17.289-29.457 23.457-45.383 2.8203-6.2812 4.6133-12.82-4.1016-17.305-8.7188-4.4883-9.4844-12.82-11.41-20.641-1.3945-11.48-0.21094-23.129 3.4648-34.098-8.0586-1.4766-15.789-4.3867-22.82-8.5898-2.1797 9.7422-3.8477 18.461-5.1289 27.176v0.003906c-1.8438 20.363-5.4883 40.527-10.895 60.25-8.7188 25.637-22.051 37.434-48.457 38.457-26.406 1.0273-53.07 1.1523-79.48 3.4609h0.003907c-54.992 6.2461-110.52 6.2031-165.5-0.12891-16.184-0.78906-32.289-2.7148-48.199-5.7695-9.8711-3.0781-19.871-6.2812-21.535-18.844 0-4.6133-2.6914-7.8203-7.8203-7.4336-5.1289 0.38281-5 4.2305-5 7.6914 0 11.281-6.793 14.871-16.664 16.664h-0.003906c-16.156 2.8516-32.59 3.8008-48.969 2.8203-49.098-2.8203-98.066-2.9492-147.16-1.668-36.789 1.0273-73.711 0-110.37-2.1797-36.664-2.1797-48.328-14.484-56.918-55.379-0.12891-2.0469-0.12891-4.1016 0-6.1523-2.6914-23.203-5.2539-46.148-7.9453-71.402zm321.12 124.22c14.062 1 28.191 0.61328 42.176-1.1562 15-0.89844 18.844-9.4844 10.641-21.793-1.9219-2.8203-4.8711-4.8711-6.9219-7.6914v0.003906c-4.9414-5.6953-8.0273-12.762-8.8477-20.258 0.16406-3.6172-0.79297-7.1992-2.7461-10.25-1.9492-3.0508-4.7969-5.4258-8.1484-6.7969-7.4805-4.4453-12.391-12.191-13.227-20.848-0.83594-8.6602 2.5039-17.203 8.9961-22.996 2.3086-2.4375 5.5117-3.9727 7.8203-6.4102v0.003906c5.8828-8.082 9.9102-17.363 11.793-27.18-11.922-5.1289-9.7422-21.406-22.816-27.047h-0.003907c-6.3086-2.793-11.227-8.0156-13.637-14.48-2.4141-6.4648-2.1172-13.629 0.82031-19.875 2.7695-8.4141 7.6719-15.965 14.227-21.922 8.2031-8.0742 12.82-22.691 7.6914-29.098-10-12.82-10.77-27.562-16.41-41.02l0.003906-0.003907c-2.6758-4.8477-3.4648-10.52-2.2109-15.914 1.2578-5.3984 4.4648-10.141 9.0039-13.312 3.3125-1.8242 5.7344-4.9258 6.7031-8.582s0.40234-7.5508-1.5742-10.773c-1.7422-4.4414-2.0195-9.3203-0.79688-13.934 1.2188-4.6094 3.8789-8.7109 7.5898-11.707 7.0859-6.3398 15.492-11.023 24.613-13.715 3.6289-1.0625 6.375-4.0352 7.1523-7.7344 0.77734-3.6992-0.54297-7.5234-3.4336-9.957-2.8164-2.9727-6.5781-4.875-10.641-5.3828-36.676-7.6602-74.059-11.441-111.53-11.281-6.2109-0.22656-12.254 2.0352-16.793 6.2812-6.9219 7.125-15.617 12.281-25.191 14.941-9.5742 2.6562-19.684 2.7227-29.289 0.18359-12.77-2.7031-26.094-0.11328-36.918 7.1797-22.934 13.625-44.945 28.738-65.891 45.254-21.895 16.547-39.227 38.379-50.379 63.453-6.4102 14.613-15.125 29.996-7.0508 48.07 1.5508 3.5273 1.8594 7.4727 0.88281 11.195-0.97656 3.7227-3.1875 7.0078-6.2695 9.3164-11.539 8.2031-9.2305 18.461-5 28.973 6.8008 13.688 6.8008 29.77 0 43.457-1.918 3.6289-2.8867 7.6875-2.8203 11.793 0.91016 30.676 4.207 61.234 9.8711 91.398 0.99219 10.062 5.7109 19.391 13.23 26.152 7.5195 6.7617 17.297 10.465 27.406 10.383 38.715 3.1836 77.57 4.2539 116.4 3.207 46.277-2.0508 92.555-2.8203 141.52-0.12891zm136.65-253.31c7.8438 3.9258 13.688 10.945 16.125 19.371 2.4336 8.4258 1.2344 17.484-3.3047 24.984-0.97656 2.5391-1.5 5.2305-1.5391 7.9492-2.3086 25.637-6.4102 31.023-32.688 39.227-2.3086 0.76953-6.0234 0-5.6406 4.1016 0.38281 4.1016 2.6914 4.1016 5.8984 4.1016 30.508 0.76953 43.969 18.203 36.148 47.43-1.5391 5.5117-3.332 9.8711 1.2812 14.871 4.2227 5.0508 6.5391 11.426 6.5391 18.012s-2.3164 12.961-6.5391 18.012c-3.3867 6.4102-8.582 11.684-14.941 15.172-6.3555 3.4844-13.598 5.0312-20.824 4.4414-3.9727 0-8.5898-3.2031-11.023 1.4102-3.8477 7.3086-13.59 9.6133-15.512 18.332-0.97266 5.4727 2.0977 10.863 7.3047 12.816 8.0117 3.9688 16.723 6.3203 25.641 6.9219 24.355 2.3086 48.84 4.8711 73.324 6.0234 64.098 2.9492 128.19-6.4102 192.29-6.5391 2.6914 0 5.3828 0 8.2031-0.76953v0.003907c8.5859-0.20312 16.832-3.3828 23.332-8.9922 6.5039-5.6133 10.852-13.309 12.305-21.773 6.2812-25.637 8.9727-51.277 12.82-76.914 5.5781-32.719 3.5312-66.281-5.9844-98.078-9.5156-31.793-26.246-60.965-48.883-85.234-12.812-12.266-22.715-27.246-28.973-43.844-1.8438-4.4375-4.8008-8.3203-8.5859-11.281-25.414-20.59-53.758-37.266-84.094-49.48-4.3711-2.082-9.375-2.4062-13.973-0.89844-11.777 4.2148-24.855 2.5977-35.254-4.3594-21.895-10.715-46.492-14.641-70.633-11.281-13.508 1.7305-26.875 4.4297-39.996 8.0781-7.4336 1.4102-9.3594 6.6641-8.9727 13.715 0.38281 7.0508 6.0234 7.5625 11.664 7.8203 5.4062-0.003906 10.805 0.38281 16.152 1.1562 14.613 2.5625 16.793 4.7422 17.82 19.871v-0.003906c-0.35156 6.1289 1.4141 12.195 4.9961 17.18 11.922 13.59 8.7188 27.434 0 41.277-2.5625 3.9727-8.332 7.3086-6.2812 12.82 4.6172 12.688-2.4336 22.945-8.2031 34.352zm-135.75 536.61c1.0195-21.91-2.7422-43.781-11.023-64.094-9.1016-22.562-19.871-44.738-29.871-66.531-5.9219-12.113-13.141-23.547-21.535-34.098-30.637-41.406-72.43-55.637-121.27-55.637-19.012 1.1914-37.91 3.8086-56.531 7.8203-38.633 4.8867-74.629 22.211-102.55 49.352-23.586 23.074-45.766 47.176-52.43 80.891-9.1758 38.676-7.4922 79.133 4.8711 116.91 9.4219 29.996 27.211 56.684 51.277 76.914 21.387 16.988 44.059 32.285 67.812 45.766 26.18 14.988 55.992 22.445 86.145 21.535 44.734-0.63281 87.93-16.402 122.55-44.738 31.664-27.434 59.352-59.609 61.531-105.5 0.38672-9.4883 0.64062-18.973 1.0273-28.59zm312.79 202.67c30.93 1.3242 61.574-6.3789 88.199-22.176 32.836-19.902 59.746-48.23 77.938-82.043 14.188-29.359 24.695-60.363 31.281-92.297 7.4336-26.961 6.1797-55.582-3.5898-81.789-9.4375-29.402-27.586-55.242-52.047-74.094-9.5625-6.5039-18.566-13.793-26.922-21.793-13.055-13.172-29.996-21.797-48.328-24.613-33.426-6.7852-67.871-6.8828-101.34-0.28125-33.469 6.6016-65.293 19.766-93.641 38.738-40.793 25.199-68.059 67.441-74.223 114.99-7.4805 41.91-0.23437 85.121 20.508 122.3 21.246 34.926 49.066 65.398 81.918 89.734 24.016 20.477 54.578 31.668 86.145 31.535 3.7148 0.125 8.2031 0.89453 14.098 1.793zm-635.96-911.57c0-15.383 0-15.383 3.332-19.742v0.003906c4.3789-7.6523 5.8438-16.629 4.125-25.277-1.7188-8.6445-6.5078-16.379-13.48-21.77-5.9375-5.6914-13.953-8.6953-22.168-8.3086-8.2188 0.39063-15.914 4.1328-21.289 10.359-6.3789 5.1055-10.598 12.43-11.809 20.512-1.2148 8.0781 0.66797 16.32 5.2695 23.074 1.0273 1.7695 1.9258 3.6133 2.6914 5.5117 1.1484 2.5898 0.53125 5.625-1.5352 7.5625-1.2031 0.67969-2.6328 0.84766-3.9609 0.46094-1.3242-0.38672-2.4414-1.293-3.0898-2.5117-2.5586-4.0312-5.3867-7.8867-8.4609-11.539-17.305-18.586-38.457-22.434-52.43 4.2305-1.2812 2.4375-2.4375 4.8711-3.5898 7.3086-11.281 23.844-2.3086 41.277 23.844 45.766 3.9727 0.76953 8.5898 0 8.9727 5.8984s-3.332 5-6.2812 6.9219c-14.23 9.1016-15.512 22.051-2.0508 32.047v-0.003906c8.7188 7.7695 20.664 10.828 32.047 8.207 21.152-5.3828 43.969-10.129 54.098 18.715 0.64062 2.0508 2.6914 4.2305 4.2305 3.332 8.7188-4.7422 20.641-2.9492 26.922-12.82l-0.003907 0.003907c2.3672-3.8047 3.3438-8.3125 2.7578-12.754-0.58594-4.4414-2.6914-8.543-5.9609-11.605-2.5625-3.2031-5.6406-6.6641-2.8203-10.77 2.8203-4.1016 6.1523-1.1523 9.3594-0.89844v0.003906c7.3945 1.3086 15.02 0.25391 21.781-3.0117 6.7656-3.2695 12.332-8.582 15.906-15.191 4.1797-18.871-1.1367-38.598-14.23-52.816-14.871-10.512-27.945-6.5352-42.176 9.1016zm256.38-128.19c0-33.074-26.664-49.609-54.738-34.996-10.328 5.457-18.77 13.898-24.227 24.23-3.8672 5.3203-5.8086 11.797-5.5039 18.367 0.30078 6.5703 2.832 12.84 7.1719 17.781 2.2422 2.5352 4.1016 5.3867 5.5117 8.4609 1.9219 4.1016 1.793 8.2031-3.0781 10.254-4.8711 2.0508-6.1523-1.5391-7.8203-4.4883v0.003907c-2.875-7.7188-7.6328-14.594-13.844-20-3.8477-2.6914-8.2031-3.2031-10.77 0.76953-2.5625 3.9727 1.1523 5.8984 4.1016 7.9492 22.434 15.254 26.406 36.277 19.484 61.02h0.003906c-3.3555 11.129-3.6211 22.957-0.76953 34.227 0.80859 5.8203 3.5938 11.191 7.8867 15.203 4.293 4.0156 9.8359 6.4297 15.699 6.8438 6.7656 1.1289 13.707 0.42969 20.105-2.0273 6.4023-2.457 12.031-6.582 16.301-11.945 3.6133-4.2227 5.7539-9.5117 6.1016-15.059 0.34766-5.5508-1.1172-11.062-4.1797-15.707-2.6914-4.7422-5.5117-9.3594-7.8203-14.359s-3.7188-8.5898 0-11.152 6.9219 1.9219 9.3594 5.1289c5.0938 8.1133 9.3867 16.699 12.82 25.641 3.3711 5.1328 8.5234 8.8398 14.465 10.402 5.9414 1.5625 12.25 0.87109 17.711-1.9414 8.8438-4.8711 9.2305-12.82 1.1523-25.637v-0.003906c-0.87891-1.7578-1.5664-3.6055-2.0508-5.5117-1.5703-2.3477-1.0039-5.5195 1.2812-7.1797 1.7461-0.82812 3.7695-0.82812 5.5156 0 3.7578 2.8984 7.6953 5.5547 11.793 7.9492 5.3672 2.6133 11.625 2.6914 17.059 0.21094 5.4336-2.4805 9.4727-7.2578 11.016-13.031 4.1367-9.4375 5.3359-19.902 3.4375-30.035-1.8984-10.129-6.8047-19.453-14.078-26.754-6.9414-7.8906-17.43-11.695-27.816-10.086-10.391 1.6094-19.234 8.4102-23.461 18.035-1.793 3.7188-2.8203 7.6914-4.6133 11.41-1.793 3.7188-5.7695 11.023-11.922 7.8203-6.1523-3.2031-1.793-8.5898 0-12.82 5.5234-8.5586 8.707-18.414 9.2305-28.586zm-301.89 413.93c2.1836 0.79297 4.2539 1.8711 6.1523 3.207 10.641 12.82 22.816 6.1523 33.715 1.9219 5.8945-2.0391 10.91-6.043 14.199-11.344 3.293-5.2969 4.6602-11.566 3.875-17.754-2.0352-15.711-11.602-29.441-25.637-36.793-4.8438-3.832-10.91-5.7852-17.078-5.5039-6.1719 0.28125-12.035 2.7852-16.508 7.043 0 0-2.3086-0.76953-4.4883-1.5391 0-8.8438 7.4336-16.535 4.2305-26.793-2.1641-9.3203-7.0664-17.781-14.082-24.293-7.0117-6.5117-15.812-10.773-25.27-12.238-7.6641-1.5078-15.598-0.73047-22.82 2.2305-7.2266 2.9609-13.422 7.9805-17.816 14.434-3.4258 6.2969-4.8047 13.504-3.957 20.625 0.85156 7.1172 3.8906 13.797 8.6992 19.113 3.332 4.3594 7.3086 8.0742 10.895 12.82 3.5898 4.7422 3.0781 5 1.2812 7.3086-1.793 2.3086-5.8984 2.6914-8.9727 0.76953-3.0781-1.9219-3.2031-2.5625-4.8711-3.7188-9.3594-6.2812-15.512-5-21.023 4.4883v-0.003907c-3.5742 6.9727-4.7344 14.934-3.2969 22.637 1.4414 7.7031 5.3945 14.711 11.246 19.922 10 7.6914 20.383 13.973 33.328 4.8711 3.332-2.4375 9.4844-4.2305 12.051 2.0508 2.5625 6.2812-2.1797 8.5898-6.4102 11.023-2.3086 1.2812-5 2.0508-7.4336 3.332v0.003906c-3.6211 2.0312-5.875 5.8477-5.8984 10-0.29297 10.582 3.3242 20.902 10.156 28.988 6.8359 8.0898 16.406 13.375 26.891 14.852 19.996 3.2031 32.562-7.5625 37.176-31.152v0.003906c2.0352-8.2227 0.64844-16.922-3.8438-24.102-2.5664-4.3594-7.6914-8.0742-4.4883-16.41zm806.2-179.47c3.332 4.3594 1.5391 8.332 1.1523 12.82h0.003906c-0.66016 5.0664 0.20703 10.211 2.4922 14.781 2.2812 4.5664 5.8789 8.3477 10.324 10.859 11.152 3.2031 16.152-3.9727 20.125-12.82 0-1.0273 2.0508-1.5391 3.2031-2.1797 15.383 11.539 23.461 12.82 36.406 3.9727h0.003907c7.8398-6.6211 13.172-15.73 15.109-25.809 1.9336-10.074 0.35938-20.512-4.4688-29.566-8.332-11.793-8.332-11.793 3.9727-19.742 3-1.7617 5.8672-3.7344 8.5898-5.8984 5.6953-3.9062 9.5742-9.9453 10.754-16.75 1.1836-6.8047-0.42969-13.801-4.4727-19.398-6.0156-9.5586-16.051-15.859-27.273-17.133-11.219-1.2695-22.41 2.6289-30.414 10.594-2.1797 2.5625-4.1016 5.5117-6.4102 7.9492h0.003906c-0.74609 1.1406-1.9453 1.9102-3.2969 2.1055-1.3477 0.19922-2.7188-0.19531-3.7539-1.082-1.1328-1.3242-1.3359-3.207-0.51562-4.7422 1.2812-3.0781 3.2031-6.0234 4.6133-9.1016 9.4844-20.766 5-30.895-15.512-40.125h0.003906c-3.0547-1.4141-6.4531-1.8984-9.7812-1.3984s-6.4336 1.9688-8.9336 4.2188c-6.2812 4.3594-2.1797 9.4844-1.1523 14.613 2.6914 14.871 2.1797 32.816-12.82 37.688v0.003907c-13.008 4.7617-23.426 14.758-28.715 27.559-2.7148 3.9336-6.0469 7.3984-9.8711 10.258-8.1562 7.4453-13.023 17.828-13.527 28.859-0.50391 11.035 3.3906 21.816 10.832 29.98 16.41 16.41 33.457 13.973 46.02-6.6641l0.003906-0.003906c1.2695-2.8242 4.2344-4.4883 7.3047-4.1016zm-163.06-204.46c-0.76953-5.7695 4.7422-9.2305 6.4102-14.23 1.6172-4.1445 1.75-8.7227 0.37109-12.957-1.3789-4.2305-4.1836-7.8516-7.9336-10.246-7.5625-6.1523-14.23-12.051-25.637-6.1523h-0.003906c-10.094 4.418-17.211 13.715-18.844 24.613-0.39063 2.8594-2.8828 4.9609-5.7656 4.8711-2.8047-0.17188-5.0781-2.3359-5.3867-5.1289-0.67188-6.0508-2.3594-11.945-5-17.434-8.8438-12.82-20.766-14.23-28.332 0h0.003907c-7.0391 10.266-8.3438 23.418-3.4609 34.867 12.82 28.203 4.1016 51.277-23.461 65.633-3.332 1.668-5.6406 3.2031-5.5117 7.1797 2.875 11.789 11.141 21.527 22.305 26.281 6.543 2.5234 13.688 3.0547 20.531 1.5273s13.082-5.0469 17.926-10.117c1.793 22.945 9.1016 32.176 25.637 34.738 6.793 1.0273 11.281-3.5898 16.922-5.7695 13.715-5.1289 9.4844-19.23 14.102-28.844 21.023 9.7422 32.562 7.1797 45.125-9.2305v0.003906c5.5859-5.6758 7.9102-13.797 6.1719-21.566-1.7344-7.7695-7.293-14.133-14.762-16.891-11.41-4.6133-12.82-7.5625-7.3086-18.332 3.8477-6.9219-3.4609-16.152-12.82-19.355-4.7383-1.4102-8.9688-0.12891-11.277-3.4609zm-113.06 52.941c4.8711 0 6.4102-4.6133 8.2031-8.0742 6.6641-12.82 12.82-25.637 2.5625-39.996-7.1797-9.8711-10.512-10.254-20.895-2.5625v-0.003906c-2.6133 2.1133-5.4023 4-8.332 5.6406-2.1797 1.1523-5.1289 2.8203-7.1797 0-1.7305-2.2227-1.7305-5.3398 0-7.5625 3.9727-4.6133 8.332-8.8438 12.82-12.82 4.0312-4.5664 6.0586-10.559 5.625-16.637-0.43359-6.0742-3.293-11.719-7.9336-15.668-4.4219-4.4492-10.684-6.5469-16.891-5.6641-6.2109 0.88281-11.641 4.6484-14.645 10.152-3.0234 5.3438-5.7188 10.867-8.0742 16.535-1.793 3.7188-4.1016 8.0742-8.8438 5.6406-4.7422-2.4375-2.5625-6.2812-1.1523-9.3594 7.5625-16.535 0-27.176-12.82-36.023l-0.003907 0.003906c-4.1406-4.2578-10.117-6.1953-15.969-5.168-5.8516 1.0273-10.816 4.8828-13.258 10.297-7.8516 8.8828-10.652 21.148-7.4336 32.559 1.1953 3.3984-0.58203 7.125-3.9766 8.332-4.3594 1.668-5.8984-1.793-7.3086-5l0.003906 0.003906c-2.2891-6.5312-5.0742-12.871-8.332-18.973-6.2812-10.512-16.023-10.254-22.176 0h-0.003906c-2.6406 3.5586-4.0703 7.8711-4.0703 12.305s1.4297 8.75 4.0703 12.309c10.727 13.547 14.859 31.164 11.281 48.07-1.0352 9.5977 1.4219 19.246 6.9219 27.176 4.1016 7.6914 8.9727 15.766 19.996 14.484h0.003906c5.4453-0.59375 10.543-2.9805 14.488-6.7852 3.9414-3.8086 6.5117-8.8125 7.3047-14.238 1.793-12.051 7.4336-24.355-3.8477-36.277-4.8711-5-2.1797-14.613 4.3594-20.125 1.6875-1.7227 3.9961-2.6953 6.4102-2.6953 2.4102 0 4.7188 0.97266 6.4102 2.6953 3.2227 2.1914 5.5703 5.4492 6.625 9.2031 1.0547 3.75 0.75391 7.7578-0.85937 11.309-6.5625 18.285-9.7344 37.617-9.3555 57.043 0.42188 7.9922 4.3789 15.379 10.797 20.16 6.4141 4.7812 14.625 6.4609 22.402 4.582 11.539-1.5391 19.102-17.434 15.766-32.816-1.1523-5.5117-5.1289-11.152 1.1523-17.691 10.383 6.2812 20.254 7.4336 25.637-6.0234 0 0 0.89844-0.89844 1.4102-1.4102h0.007813c1.9336-2.0352 5.0195-2.4609 7.4336-1.0273 2.6914 1.9219 2.4375 4.4883 1.2812 7.1797-1.1523 2.6914-2.9492 4.2305 0.38672 6.9219zm391.11 379.96c3.457 1.6445 5.9961 4.7461 6.9219 8.457 7.1797 17.691 15.125 21.406 33.074 16.023v0.003906c13.461-4.1992 25.113-12.805 33.09-24.434 7.9766-11.625 11.809-25.594 10.879-39.664-0.53516-9.0625-5.293-17.352-12.848-22.387-7.5547-5.0352-17.035-6.2383-25.609-3.25-7.1797 2.1797-17.434 11.539-21.406 2.1797-4.8711-11.281 9.4844-11.922 16.664-15.512 9.8711-5.1289 14.102-11.664 10.383-18.586s-11.664-4.2305-17.945-2.6914v-0.003906c-1.3789 0.23047-2.7188 0.66406-3.9766 1.2812-9.707 6.5117-21.551 9.0352-33.07 7.0508-4.1914-0.84375-8.4062 1.3438-10.129 5.2578-8.0742 13.715-22.051 15-35.637 16.023-21.922 1.0234-33.844 11.41-33.844 31.789 0 11.41 2.4375 14.102 14.102 14.871 8.707-0.85156 17.301-2.6133 25.641-5.2539 2.8203 0 5.8984 0 7.1797 2.1797 1.2812 2.1797-1.2812 6.2812-4.4883 7.6914-7.9492 3.5898-16.664 5.6406-20.895 15-9.7422 21.535-1.9219 38.457 21.793 44.609h-0.003907c7.7578 3.0938 16.535 2.2148 23.523-2.3516 6.9922-4.5664 11.32-12.25 11.602-20.598 0.89844-6.0234-1.5352-12.691 5-17.688zm-13.715-112.55c21.281 15.254 39.996 12.051 51.277-8.332v-0.003907c4.9453-6.6953 6.0586-15.48 2.9453-23.203-3.7188-7.8203-10.895-6.793-17.691-6.5391-2.6914 0-5.5117 0-6.6641-3.332-1.1523-3.332 1.793-6.2812 4.4883-7.8203 6.3164-2.543 11.66-7.0312 15.254-12.816 2.1797-4.7422 4.1016-12.82-3.4609-12.82-17.051-1.9219-11.152-8.5898-4.6133-16.281 2.5469-3.2305 3.9297-7.2266 3.9297-11.344 0-4.1172-1.3828-8.1133-3.9297-11.344-1.9297-3.2773-4.8867-5.8203-8.4102-7.2344-3.5273-1.4141-7.4219-1.6211-11.078-0.58594-5.8633 0.23828-11.5 2.3281-16.105 5.9648-4.6055 3.6406-7.9414 8.6406-9.5312 14.289-2.5938 7.9727-8.4727 14.457-16.152 17.82-11.398 6.0898-23.832 10-36.664 11.535-8.0781 1.2812-15.512 5.1914-21.141 11.125-5.6328 5.9336-9.1523 13.559-10.008 21.691-0.78125 5.8281 1.3867 11.664 5.7812 15.57s10.441 5.375 16.137 3.9141c4.4219-1.5781 8.707-3.5078 12.82-5.7656 1.8711-0.99609 4.1719-0.62891 5.6406 0.89453 1.2617 1.6211 1.2617 3.8945 0 5.5117-1.668 2.1797-3.7188 3.9727-5.5117 6.1523v0.003906c-3.6484 4.957-5.7148 10.906-5.918 17.062-0.20703 6.1523 1.4531 12.227 4.7656 17.418 5.3828 11.664 16.41 10.641 26.535 9.8711 14.613-1.0273 19.355-5.8984 22.305-21.406 1.0234-3.2031 0.38281-6.793 5-10.129zm-750.95-236.64c8.0742-2.8203 12.051 2.8203 16.793 6.0234 3.6367 3.0391 7.543 5.7422 11.664 8.0781 4.5039 1.6094 9.5352 0.40234 12.82-3.0781 3.8711-4.1016 4.8359-10.152 2.4336-15.254-1.668-5.3828-6.1523-3.8477-10.129-3.8477-7.3086 0-18.074 2.5625-18.332-6.793-0.25781-9.3594 11.023-3.4609 16.922-5.2539 5.8984-1.793 16.664-1.0273 20.383-10.383h0.003907c4.9219-12.285 2.918-26.258-5.2578-36.664-9.7852-8.8711-22.699-13.48-35.895-12.82-6.4375 1.1953-12.301 4.4805-16.684 9.3477-4.3789 4.8672-7.0312 11.043-7.543 17.574 0 6.1523 0 16.664-8.332 15.383s-1.9219-10.254-1.668-15.766v-0.003906c0.62891-6.1133-0.76172-12.266-3.957-17.52-3.1914-5.2539-8.0156-9.3203-13.73-11.578-6.5664-2.0508-13.617-1.9102-20.094 0.40234-6.4766 2.3125-12.023 6.6719-15.801 12.418-6.0469 10.879-8.0898 23.535-5.7695 35.766 3.332 16.152 11.152 21.023 27.305 16.664 2.9492-0.76953 6.5391-3.7188 8.8438 0 2.3086 3.7188-1.1523 6.1523-4.2305 7.9492-3.0781 1.793-6.6641 2.1797-7.8203 5.8984l0.003906-0.003906c6.1094 12.797 10.711 26.262 13.715 40.125-0.31641 5.6602 1.6992 11.203 5.5703 15.344 3.875 4.1367 9.2734 6.5156 14.941 6.5742 7.1094 0.86719 14.324-0.26953 20.824-3.2812s12.031-7.7812 15.965-13.766c2.9648-4.5977 4.2266-10.09 3.5703-15.52-0.65234-5.4297-3.1875-10.461-7.1602-14.223-3.0742-3.2031-8.7148-4.2305-9.3555-11.793zm618.14-8.7188h-0.003906c5.2891-3.6406 10.301-7.668 15-12.047 4.7539-4.5039 7.7422-10.555 8.4258-17.066 0.68359-6.5156-0.98828-13.055-4.707-18.445-2.1055-5.0117-5.6836-9.2656-10.266-12.199-4.5781-2.9297-9.9414-4.3984-15.375-4.207-6.4531 0.75-12.445 3.7148-16.957 8.3906-4.5117 4.6758-7.2617 10.77-7.7812 17.246-1.3711 7.3672-4.2031 14.387-8.3359 20.641-1.2109 2.5391-4.1094 3.7969-6.793 2.9492-3.0781-1.0273-3.4609-3.8477-3.7188-6.5391 0.375-7.4648 1.9297-14.82 4.6172-21.793 2.6914-12.82-10.895-26.277-21.281-22.434-10.383 3.8477-20.512 20.383-14.23 30.125 10.254 15.766 3.4609 27.816-3.4609 41.148h0.003907c-4.3984 8.2695-8.2109 16.84-11.41 25.641-1.7656 4.5078-2.2578 9.418-1.4219 14.188 0.83594 4.7695 2.9688 9.2188 6.1641 12.859 12.16 14.297 30.746 21.441 49.355 18.973 8.5547-0.78125 16.48-4.8281 22.137-11.293 5.6562-6.4688 8.6094-14.863 8.2422-23.445 0-4.8711-3.5898-10.77 3.2031-14.613 8.332 2.3086 14.484 15 25.637 6.6641h0.003906c5.6758-5.1992 8.332-12.922 7.0508-20.512-1.793-11.281-13.074-7.8203-24.102-14.23zm-277.79 109.99c-1.0273-5.3828 3.332-8.7188 5-12.82 4.3594-11.281 2.9492-14.359-8.0742-18.074-15.125-5.1289-22.816-1.793-30.637 13.973-1.9219 3.8477-2.8203 7.6914-8.2031 6.9219-5.3828-0.76953-5.3828-4.8711-5.6406-9.1016l-0.003906 0.003906c0.23437-4.8945-1.7969-9.625-5.5117-12.82-4.8945-4.2812-11.23-6.543-17.727-6.3281s-12.672 2.8906-17.27 7.4805c-10.641 9.7422-11.023 12.82-0.89844 29.098 3.332 5.2539 3.332 8.4609-1.793 11.664-5.1289 3.2031-9.3594 5.5117-13.715 8.7188-4.3594 3.2031-8.0742 9.2305-4.7422 11.922 9.2305 7.5625 5.7695 16.922 6.6641 25.637l-0.003906 0.003906c0.56641 4.0703 2.3281 7.8789 5.0703 10.938 2.7383 3.0625 6.332 5.2344 10.312 6.2422 6.3867 2.3203 13.324 2.6445 19.895 0.92578 6.5742-1.7188 12.465-5.3945 16.898-10.543 2.4375 6.793 3.9727 11.922 6.2812 16.793 1.1797 2.8789 3.2461 5.3125 5.8906 6.9453 2.6484 1.6367 5.7461 2.3906 8.8516 2.1562 11.766 0.11719 23.082-4.5039 31.406-12.816 6.1523-6.5391 9.4844-13.715 1.0273-21.023-8.4609-7.3086-5.6406-11.41 1.793-16.023 5.793-3.6406 10.281-9.0273 12.82-15.383 4.3594-10.512 0.76953-17.562-10.641-21.535-2.4375-0.77344-5.2578-0.64453-7.0508-2.9531zm-46.789 210.36c-7.4336-3.5898-12.82-8.4609-19.996-7.6914-7.1797 0.76953-11.281 0-14.484 5.6406s1.0273 8.8438 4.1016 12.82c3.0781 3.9727 5.7695 6.2812 2.8203 10.641s-6.793 1.5391-10.383 0c-8.4609-4.6133-12.82 2.9492-16.793 7.4336h-0.003906c-2.2109 2.668-3.418 6.0234-3.418 9.4844 0 3.4648 1.207 6.8203 3.418 9.4883 3.0977 5.6406 9.8984 8.1094 15.895 5.7695 3.2266-1.0742 6.3906-2.3125 9.4883-3.7188 3.0781-1.2812 6.793-3.0781 8.7188 1.1523h-0.003906c1.4648 3.2969 0.046875 7.1562-3.2031 8.7188-4.0586 1.918-7.3125 5.207-9.1875 9.2852-1.875 4.082-2.2539 8.6875-1.0703 13.02 1.8555 5.5312 5.2539 10.414 9.8008 14.074 4.543 3.6562 10.039 5.9375 15.84 6.5664 6.4375 0.54688 12.855-1.2734 18.047-5.1211 5.1953-3.8477 8.8047-9.457 10.156-15.777 0.76953-3.2031 0-6.793 4.3594-8.332 18.844 12.051 27.176 11.922 38.457-0.76953h-0.003906c3.4609-2.8789 5.6484-7.0039 6.0977-11.484 0.44531-4.4766-0.88281-8.9531-3.6992-12.465-2.8164-3.5078-6.9023-5.7734-11.371-6.3008-3.2031-0.89844-7.1797 0-8.4609-4.2305s2.5625-6.793 5.6406-9.4844v-0.003906c6.6484-4.3477 10.758-11.66 11.012-19.598 0.25391-7.9414-3.375-15.504-9.7305-20.27-5-4.6133-9.7422-7.3086-16.023-2.5625-6.2812 4.7422-12.82 8.7188-17.434-2.3086-1.668-3.9727-5.6406-0.76953-8.7188 0-7.8164 2.3086-6.793 9.1016-9.8672 16.023zm-7.9492-125.88c-5.7695 6.9219-8.5898 8.0742-15.125 5.3828-3-1.625-6.418-2.2969-9.8086-1.9297-3.3867 0.36719-6.5859 1.7539-9.1641 3.9805-6.5391 5.8984-3.4609 12.82 0 18.332 0.25391 1.2266 0.25391 2.4922 0 3.7188-2.1797 3.5898-5.8984 3.4609-8.8438 4.7422h-0.003906c-5.3281 1.582-9.8945 5.0703-12.824 9.7969-2.9297 4.7266-4.0234 10.363-3.0703 15.84 0 12.051 8.2031 14.359 17.82 14.742 6.793 0 7.5625 4.6133 6.793 9.8711-1.5391 10.383 5 14.871 13.461 17.305 8.4609 2.4375 15.895 6.0234 23.586 0.64062 10.641-7.4336 28.332-8.332 24.742-29.484v0.003906c2.4961 1.2734 4.8945 2.7305 7.1758 4.3594 8.5898 7.9492 16.023 4.8711 23.074-2.0508 7.0508-6.9219 11.539-14.102 2.4375-22.434-6.2812-5.8984-2.5625-9.3594 2.4375-12.82 2.9883-1.6719 5.1836-4.4648 6.0977-7.7656 0.91797-3.2969 0.47266-6.8281-1.2266-9.7969-1.4062-3.1211-3.7266-5.7383-6.6602-7.5039-2.9336-1.7656-6.3359-2.5898-9.75-2.3672-3.418-0.039063-6.8086 0.57031-10 1.793-17.305 5.7695-31.918 3.5898-41.148-14.355zm-419.7-38.457c-1.2812-13.715 2.9492-31.535-16.793-36.148-17.051-3.8477-27.434 3.4609-38.457 24.227-6.5391 0-8.2031-6.5391-12.82-9.6133-4.6133-3.0781-10.383-7.0508-16.793-2.9492-3.0547 1.5469-5.5781 3.9727-7.2461 6.9648-1.668 2.9922-2.4023 6.4141-2.1094 9.8281 0.22656 6.0781 2.6055 11.879 6.7148 16.363s9.6797 7.3633 15.719 8.1211c8.0664 1.1445 16.039 2.9023 23.844 5.2539 17.516 6.8789 30.125 22.457 33.199 41.023 1.2812 4.8711 0 11.664 7.6914 12.82v-0.003906c11.227 3.3047 23.258 2.5312 33.973-2.1758 18.844-10.383 18.973-14.102 0-25.637-0.89844-0.64062-0.89844-2.3086-1.9219-4.8711 11.664-4.7422 14.613-15.254 16.664-26.793v-0.003906c0.93359-4.3477 0.45312-8.8789-1.3672-12.938-1.8242-4.0586-4.8906-7.4297-8.7617-9.6211-3.2422-2.6094-7.3594-3.8789-11.508-3.543-4.1484 0.33203-8.0117 2.2422-10.797 5.3359-2.168 2.8398-5.6875 4.3047-9.2305 3.8477zm435.85-79.734v-11.922c0-21.406 0-21.535 20.512-26.406 14.871-3.5898 29.742-6.793 46.277-10.512l-19.359-38.332c0 25.637-12.82 37.434-32.047 39.484-8.9492 1.6172-18.18-0.35547-25.688-5.4883-7.5078-5.1367-12.695-13.02-14.438-21.945-11.922 1.9219-21.152 12.051-32.434 5.3828h0.003907c-9.3711-7.1914-16.961-16.449-22.18-27.047-12.82 12.18-40.125 8.8438-36.789 36.918 8.7188 3.7148 18.082 5.6758 27.559 5.7695 17.641 0.99609 35.148 3.6133 52.305 7.8203 10.254 2.9492 17.691 8.0742 17.176 19.484-0.51172 11.41 5.6406 20.254 19.359 26.406zm-317.53 4.8711c-7.4336-2.9492-11.281-3.9727-14.613-5.7695-9.4844-5-17.434-6.793-22.945 5.7695-3.6484 5.9336-9.8633 9.8203-16.793 10.512-9.7422 2.5625-15.383 7.0508-12.18 18.461 1.668 6.1523-2.9492 11.539-5.2539 17.176-2.3086 5.6406-11.281 5.7695-7.6914 12.82v-0.003906c2.1094 5.6055 6.2812 10.195 11.664 12.82 17.438-28.555 40.617-53.176 68.07-72.301zm685.44 219.46 4.1016 1.0273 12.82-19.871c2.1797-3.4883 2.1797-7.918 0-11.406-4.0703-7.8945-5.7188-16.812-4.7461-25.641 0.58984-2.0039 0.16406-4.168-1.1367-5.8008-1.3008-1.6328-3.3164-2.5312-5.3984-2.4023-5.2539 0-9.1016-5.7695-16.023-3.332 4.6133 22.176 12.434 44.223 10.383 67.426zm-17.82-87.812v0.003907c0.87891-9.5469 3.3945-18.871 7.4375-27.562 1.2188-1.6836 1.6641-3.8047 1.2227-5.8359s-1.7266-3.7773-3.5312-4.8047c-4.8242-3.6836-9.1367-7.9922-12.82-12.816-5.3828-6.0234-11.664-1.9219-16.664 0-5 1.9219-1.793 7.5625 0 10.512 6.9492 14.172 15.098 27.723 24.355 40.508zm-141.01-184.47c-7.0508 0.76953-11.664 1.5391-16.41 1.793-4.7422 0.25781-7.3086 5.6406-8.8438 9.7422-1.5391 4.1016 3.0781 6.5391 6.1523 8.7188l0.003906 0.003906c5.3906 4.4023 12.141 6.8047 19.102 6.793 1.6914-8.9531 1.5195-18.164-0.51562-27.047zm-483.41 22.949 23.461-12.82c3.2031-1.793 5.3828-4.1016 3.332-8.0742h-0.003907c-1.1211-2.5312-3.7969-4-6.5352-3.5898-12.18 1.2812-18.719 8.7188-20.254 24.484zm541.48 36.277c-2.4375 0-4.2305 1.2812-3.4609 3.4609 0.76953 2.1797 4.7422 4.1016 7.5625 5.3828s3.7188-0.64062 3.8477-2.6914c0.51172-4.9961-3.9766-4.9961-7.4375-6.1523zm-656.86-99.73c-2.8203 0-3.4609 1.668-3.5898 3.4609-0.13281 1.1523 0.29688 2.2969 1.1562 3.0781 0.72266 0.55469 1.6836 0.68359 2.5273 0.34375 0.84375-0.34375 1.4453-1.1094 1.5742-2.0117-0.21875-1.7188-0.78906-3.3789-1.668-4.8711z"/>
 <path d="m361.12 751.97c38.961-2.6953 77.469 9.6953 107.55 34.609 19.758 14.98 33.422 36.613 38.457 60.891 10.547 40.902 13.715 83.359 9.3594 125.37-3.9648 24.918-15.566 47.992-33.199 66.039-17.633 18.047-40.434 30.18-65.254 34.719-36.746 8.1641-74.949 7.0195-111.14-3.332-86.785-27.816-132.29-85.762-130.75-170.5v0.003906c0.16016-6.8008 1.6406-13.508 4.3555-19.742 18.352-47.504 53.719-86.48 99.223-109.35 25.039-13.223 53.098-19.676 81.402-18.715zm-174.47 170.49c2.4531 20.137 8.4883 39.672 17.816 57.688 4.3594 9.4844 8.2031 11.793 18.332 5.8984 30.383-17.82 59.738-37.434 91.656-52.688 14.742-6.9219 13.973-7.0508 12.051-23.332-0.79688-7.4844-5.4023-14.027-12.18-17.305-29.613-17.82-62.301-29.996-91.527-48.586-9.8711-6.2812-13.973 1.5391-17.176 7.9492h-0.003906c-11.547 21.727-18.035 45.785-18.969 70.375zm182.8 144.09c2.0039 0.85156 4.1172 1.4141 6.2812 1.668 30.645-1.9414 60.469-10.699 87.297-25.637 13.277-8.543 24.066-20.438 31.277-34.484 6.4102-12.051 4.3594-17.562-7.0508-22.691-32.688-15.125-65.379-29.996-98.324-44.738-14.613-6.6641-23.332-0.89844-23.332 15.766 0 14.23 0.76953 28.586 1.5391 42.816 2.3125 22.438-0.50781 44.871 2.3125 67.301zm116.53-238.82c-4.8711 0-7.6914 2.5625-11.023 5-28.074 20.125-56.402 40.125-84.352 60.379h-0.003906c-4.3984 2.75-7.6172 7.0391-9.0273 12.035-1.4141 4.9922-0.91406 10.332 1.3945 14.98s6.2617 8.2695 11.094 10.16c31.277 14.613 63.07 28.332 94.734 41.918 12.82 5.7695 14.359 4.7422 16.793-9.7422 7.5625-44.996-3.8477-87.684-16.023-130.24 0-1.793-1.9219-3.0781-3.0742-4.4883zm-128.32 189.21c0.19531-19.102-0.83203-38.199-3.0742-57.172-0.85547-6.9453-4.9531-13.074-11.047-16.512-6.0977-3.4414-13.461-3.7812-19.848-0.92187-26.098 11.805-51.18 25.742-74.992 41.66-9.2305 5.8984-26.406 6.9219-25.637 19.102 0.76953 12.18 15.766 17.691 25.637 24.867v0.003906c26.859 22.336 60.23 35.379 95.117 37.176 12.82 0 14.23-1.1523 14.102-13.59-0.12891-12.434-0.25781-23.074-0.25781-34.613zm-11.922-219.59c1.9219 27.047 3.332 52.176 5.6406 76.914 1.668 17.562 13.461 23.074 28.586 14.102l0.003907 0.003907c4.4961-2.8008 8.7812-5.9297 12.816-9.3594 20.363-17.082 41.77-32.879 64.098-47.301 4.6133-2.9492 8.5898-6.5391 12.82-9.7422 7.8203-5.3828 9.1016-10.383 1.2812-17.691-29.359-28.105-68.719-43.332-109.35-42.305-15.766 0-16.793 1.793-16.793 18.586 0.76953 6.4141 0.89453 12.566 0.89453 16.797zm-124.34 32.047v0.003907c16.508 10.699 33.629 20.414 51.277 29.098 17.641 7.0508 34.484 15.945 50.25 26.539 3.9727 3.0781 7.6914 8.7188 14.102 4.4883 6.4102-4.2305 3.4609-9.7422 3.2031-14.871-1.793-31.918-5.7695-64.098-6.4102-95.504 0-12.82-3.0781-14.484-15.125-11.281-37.555 10.996-71.266 32.316-97.297 61.531zm151.39 88.453v0.003906c-0.10938-4.0195-1.6367-7.8711-4.3125-10.875-2.6719-3-6.3242-4.9609-10.301-5.5352-12.82 0-21.281 5.3828-20.766 13.715l-0.003906 0.003906c0.22656 5.0938 2.1367 9.9727 5.4297 13.871 3.293 3.8945 7.7852 6.5898 12.773 7.6641 4.7852-0.19922 9.293-2.3008 12.52-5.8398 3.2266-3.5391 4.9023-8.2227 4.6602-13.004z"/>
 <path d="m687.62 924.52c4.1562-49.137 30.309-93.758 71.148-121.39 35.953-26.727 80.742-38.738 125.24-33.59 43.223 3.2656 83.984 21.383 115.37 51.277 17.527 17.039 29.273 39.141 33.586 63.199 11.41 56.148-5.6406 105.89-31.918 152.29-24.227 42.688-59.992 75.504-113.71 74.734-33.465-0.68359-66.305-9.2031-95.887-24.871-23.652-10.715-44.332-27.039-60.25-47.559-24.062-33.668-39.07-72.953-43.586-114.09zm197.42 177.42c12.82 0 16.023-3.7188 12.82-15.641-8.8477-35.637-16.926-71.145-28.461-106.14-5-15.254-16.023-20.895-29.355-12.82-30.895 16.41-62.941 32.047-92.426 51.535-11.539 7.6914-11.664 8.4609-2.9492 18.332 36.918 42.43 88.066 54.223 140.37 64.734zm-160.88-244.97c-9.7539 10.977-16.664 24.184-20.125 38.457-7.0234 38.551 0.51562 78.34 21.152 111.65 4.4883 7.8203 8.8438 9.3594 16.023 4.1016v0.003906c27.871-19.523 57.332-36.676 88.066-51.277 13.844-7.0508 14.871-16.281 3.2031-26.793h0.003906c-7.4102-6.0273-15.398-11.309-23.844-15.766-7.5625-4.3594-15-9.1016-22.562-13.715v-0.003906c-21.453-14.441-42.121-30.02-61.918-46.66zm177.55 96.016c-4.7266-0.82031-9.5859 0.11719-13.664 2.6406-4.0781 2.5195-7.0898 6.4453-8.4727 11.039-1.3789 4.5898-1.0273 9.5273 0.98438 13.879 10.938 32.844 20.055 66.27 27.305 100.12 0 2.6914 0.89844 5.3828 1.668 7.9492 1.9219 6.0234 4.7422 9.6133 11.793 5.8984 11.578-4.332 22.398-10.477 32.047-18.203 26.105-23.797 45.734-53.836 57.047-87.301 5.8984-18.586 6.1523-19.102-12.82-21.406-30.895-3.8477-62.688-1.1523-92.297-13.715-0.89844-0.51562-2.3086-0.51562-3.5898-0.89844zm-39.867-112.94v-47.047c0-11.922-1.9219-13.715-12.82-12.82-39.645 4.3086-76.656 21.934-104.99 49.996-14.102 12.82-13.715 13.844 0 26.664 25.637 24.355 57.688 40.766 86.914 60.508 4.8711 3.332 9.2305 2.0508 14.359-2.4375h-0.003906c6.1094-4.2344 10.945-10.051 13.992-16.824 3.0508-6.7773 4.1953-14.254 3.3164-21.633-1.0117-12.109-1.2695-24.266-0.76953-36.406zm163.96 86.656c-1.9219-17.82-3.2031-35.508-5.7695-53.07-3.3086-12.586-9.7969-24.105-18.844-33.457-3.332-4.3594-6.9219-3.332-10.512 0-3.2891 2.3945-6.418 5.0078-9.3594 7.8164-21.766 21.625-44.707 42.039-68.711 61.148-3.7578 2.9414-7.043 6.4453-9.7422 10.383-7.0508 11.281-3.5898 20.125 9.4844 24.227l0.003906 0.003906c12.809 4.6562 26.25 7.3359 39.867 7.9453 15.652 0.40625 31.27 1.6484 46.789 3.7188 23.074 2.3086 24.867 0.89844 26.535-22.434 0.12891-2.3086 0.12891-4.3594 0.25781-6.2812zm-41.023-99.09c-1.9922-4.3008-5.2578-7.8789-9.3555-10.258-24.633-18.738-53.527-31.07-84.094-35.895-16.023-3.2031-16.535-3.0781-18.844 13.715-4.4883 33.328 4.1016 66.531 1.1523 99.988-0.76953 9.8711 7.0508 11.922 12.82 15.512 5.7695 3.5898 9.4844-1.2812 13.461-4.8711 11.793-10.254 22.816-21.281 34.867-31.277v0.003907c17.984-14.172 34.711-29.867 49.992-46.918zm-134.86 106.91c0 12.82 6.793 20.766 16.922 20.641 5.6758-0.49609 11.027-2.8711 15.207-6.75 4.1797-3.875 6.9453-9.0352 7.8672-14.66 0-11.023-10.383-18.203-26.535-17.562-8.9766 0.25781-13.59 6.2812-13.461 18.332z"/>
 <path d="m189.98 239.33c6.0586 0.57031 11.738 3.1953 16.098 7.4414 4.3633 4.2422 7.1406 9.8516 7.875 15.891 0 4.7734-1.8867 9.3516-5.25 12.734-3.3633 3.3867-7.9258 5.3086-12.699 5.3398-5.75-0.34766-11.18-2.7578-15.297-6.7812-4.1211-4.0234-6.6523-9.3984-7.1367-15.137-0.28906-4.7344 1.25-9.3984 4.3047-13.027 3.0547-3.6289 7.3906-5.9414 12.105-6.4609z"/>
 <path d="m457.39 155.24c0.14062 5.2578-1.8516 10.348-5.5234 14.113-3.668 3.7656-8.7031 5.8867-13.961 5.8867-3.4688-0.16016-6.6992-1.8203-8.8438-4.5547-2.1406-2.7344-2.9844-6.2695-2.3086-9.6758 0.48828-5.1133 2.9648-9.832 6.8945-13.141 3.9336-3.3086 9.0039-4.9414 14.129-4.5508 8.0742 0.64062 9.6133 6.1562 9.6133 11.922z"/>
 <path d="m168.32 483.92c0 6.2812-3.8477 12.82-11.922 12.051-8.0742-0.76953-10.254-7.1797-10.512-14.359-0.28906-3.2773 0.80859-6.5273 3.0234-8.9609 2.2188-2.4336 5.3477-3.832 8.6406-3.8555 6.9766 1.4766 11.656 8.0508 10.77 15.125z"/>
 <path d="m1007.3 266.51c5.793-0.71875 11.629 0.97266 16.137 4.6836 4.5078 3.707 7.293 9.1055 7.707 14.93-0.16797 6.1562-2.4531 12.066-6.4688 16.734-4.0156 4.6719-9.5195 7.8125-15.582 8.9023-5.8594-0.26562-11.375-2.8672-15.301-7.2305-3.9258-4.3594-5.9414-10.113-5.5938-15.973-0.57031-5.4961 1.1602-10.984 4.7773-15.16 3.6172-4.1758 8.8047-6.6719 14.324-6.8867z"/>
 <path d="m784.66 157.16c7.0391 0.60938 12.258 6.8008 11.664 13.844 0.003906 4.7852-1.8516 9.3867-5.1758 12.832-3.3242 3.4414-7.8594 5.4609-12.641 5.6289-7.5469-1.1875-12.738-8.207-11.668-15.77 0.83984-4.2891 3.0156-8.1992 6.2188-11.172 3.1992-2.9688 7.2617-4.8477 11.602-5.3633z"/>
 <path d="m1118.6 525.97c-0.35938 5.4062-2.7812 10.469-6.7656 14.141-3.9844 3.6758-9.2227 5.6797-14.641 5.6016-3.043 0.44922-6.1328-0.45313-8.4492-2.4766-2.3203-2.0234-3.6367-4.9609-3.6016-8.0352-0.33203-5.4062 1.4258-10.734 4.9102-14.887 3.4805-4.1484 8.4219-6.8047 13.805-7.418 3.7656-0.57422 7.5898 0.55469 10.438 3.082 2.8477 2.5273 4.4258 6.1875 4.3047 9.9922z"/>
 <path d="m1081 427.26c-6.5391 0-15.383-11.023-16.023-20.512-0.77344-4.332 0.31641-8.7891 3-12.281 2.6836-3.4883 6.7148-5.6836 11.102-6.0469 4.3516 0.027344 8.582 1.4648 12.047 4.1016 3.4688 2.6328 5.9883 6.3203 7.1797 10.512 0.76953 9.6133-9.3594 23.844-17.305 24.227z"/>
 <path d="m334.2 207.8c0.070313 3.7461-1.3242 7.3672-3.8867 10.098s-6.0898 4.3516-9.8281 4.5195c-3.0625 0.69922-6.2734-0.09375-8.6523-2.1445s-3.6406-5.1094-3.3984-8.2422c-0.24219-3.8008 0.93359-7.5586 3.3008-10.539 2.3672-2.9844 5.7617-4.9844 9.5156-5.6133 6.793-0.082031 12.473 5.1445 12.949 11.922z"/>
 <path d="m912.34 238.05c-8.2031-0.64062-10.77-6.4102-10.77-13.844-0.32031-3.4023 0.73047-6.793 2.9219-9.418 2.1914-2.6211 5.3398-4.2617 8.7422-4.5547 7.3086-0.89844 12.82 4.2305 12.051 12.82 0.44531 7.6758-5.2891 14.316-12.945 14.996z"/>
 <path d="m638.65 329.07c6.6641 0 10.641 4.3594 11.023 12.82h0.003906c0.042969 4.0586-1.4531 7.9844-4.1875 10.98-2.7383 3-6.5117 4.8477-10.555 5.1719-6.457-0.20703-11.602-5.4648-11.668-11.922-0.70312-4.4062 0.625-8.8945 3.6133-12.207 2.9883-3.3125 7.3164-5.0938 11.77-4.8438z"/>
 <path d="m644.42 567.89c-7.1875-0.65234-12.719-6.6289-12.82-13.844 1.4102-9.2305 8.7188-9.2305 15.641-9.4844 2.7852-0.45703 5.6133 0.50391 7.543 2.5625s2.707 4.9414 2.0703 7.6914c0.14453 7.0312-5.4023 12.867-12.434 13.074z"/>
 <path d="m635.96 438.41c2.5312-0.39844 5.1172 0.26953 7.1367 1.8516 2.0156 1.5781 3.2852 3.9258 3.5039 6.4805 1.0273 6.5391-6.2812 16.41-12.82 16.281-3.125 0.14453-6.168-1.0195-8.4023-3.2031-2.2383-2.1875-3.4648-5.207-3.3906-8.3359-0.12891-8.0742 4.6172-12.434 13.973-13.074z"/>
 <path d="m202.8 390.09c-0.89844 5-3.7188 7.9492-8.332 7.5625h-0.003906c-3.1133 0.039062-6.1094-1.1992-8.2891-3.4297-2.1797-2.2266-3.3516-5.25-3.2461-8.3633 0-5.1289 4.1016-6.9219 8.332-6.9219 3.043-0.17969 6.0234 0.92188 8.2188 3.043 2.1914 2.1211 3.3945 5.0625 3.3203 8.1094z"/>
</svg>
