<?xml version="1.0" encoding="UTF-8"?>
<svg width="1200pt" height="1200pt" version="1.1" viewBox="0 0 1200 1200" xmlns="http://www.w3.org/2000/svg">
 <path d="m360.38 358.87h5.9297c37.422 1.0547 38.211 1.1875 39.531-34.523 1.582-83.539 41.508-148.11 99.09-204.24h-0.003906c27.719-26.652 60.461-47.527 96.32-61.402 67.07-26.352 135.06-48.359 208.45-49.809h0.003906c36.402-0.11719 72.66 4.668 107.79 14.23 22.445 4.043 42.695 16.012 57.055 33.73 12.102 12.926 25.836 24.219 40.848 33.602 57.055 43.484 107 93.289 138.75 158.12 23.797 50.926 37.32 106.05 39.793 162.2 0.16016 19.844 1.6562 39.656 4.4805 59.297 3.9961 22.625-0.71094 45.926-13.176 65.223-33.133 56.879-73.875 108.97-121.09 154.83-13.422 11.438-27.891 21.586-43.219 30.305-40.453 26.352-77.348 57.055-118.59 82.09v0.003906c-36.406 21.496-76.715 35.559-118.59 41.371-15.152 2.3711-22.664 5.6641-23.324 22.398v0.003906c-3.3281 59.41-24.293 116.48-60.219 163.92-11.055 16.359-24.824 30.707-40.715 42.43-37.027 26.352-74.578 51.125-112.27 76.293-51.391 34.129-109.89 42.824-169.45 41.902-61.254-0.36719-121.64-14.508-176.7-41.375-73.059-35.91-131.38-96.09-164.97-170.24-29.836-64.617-41.672-136.09-34.262-206.88 0.85938-6.8477 2.1797-13.625 3.9531-20.293 9.3555-42.164 19.898-84.332 31.758-125.71 35.445-123.33 113.98-208.98 236.26-251.41 27.59-10.746 56.961-16.199 86.57-16.074zm-101.46 78.137-1.0547-0.92188c1.1875-5.4023 4.4805-13.176-6.0625-9.6172-22.324 7.832-43.172 19.371-61.664 34.125-4.0859 3.4258-7.7734 9.8828-16.207 3.1641 13.176-20.688 36.5-30.438 52.707-48.359-36.859 15.406-68.352 41.352-90.527 74.582-27.43 41.848-48.812 87.359-63.512 135.19-7.2461 24.641-8.8281 39.531 11.859 56.527 7.9062-9.8828 24.246-13.176 28.461-23.059 14.496-33.73 49.148-48.488 68.254-77.609 9.6172-14.758 32.414-13.176 44.668-26.352 0 0 4.7422 0.78906 4.875 1.582 1.8438 15.285 10.41 7.3789 16.602 4.6133l0.007813-0.003906c23.113-10.773 46.98-19.848 71.414-27.145 15.812-4.6133 29.383-15.547 47.965-15.812-3.0312-4.3477-3.8203-6.5898-5.2695-7.2461-19.898-9.2227-20.027-9.3555-4.3477-23.719 2.2578-1.7227 3.1602-4.6953 2.2383-7.3789-2.8984-16.34 2.3711-32.547 2.1094-54.684-10.016 11.594-20.426 10.41-29.121 13.176-23.059 8.5664-51.258 6.457-67.07 31.887-2.6055 3.0039-6.2383 4.9258-10.188 5.3906-3.9492 0.46094-7.9297-0.56641-11.16-2.8867 11.594-15.812 33.469-19.105 39.531-38.082-10.41-5.0039-16.996 2.375-24.508 2.6367zm269.59-30.176c5.9375 1.5273 11.789 3.375 17.527 5.5352 3.4531 1.8281 6.7188 3.9922 9.75 6.457 50.465 36.367 83.012 88.547 117.4 138.22 22.426 34.711 39.609 72.539 50.996 112.27 6.5898 20.82 10.016 24.246 31.359 22.664 71.285-5.1406 140.33-15.68 197.65-64.961 35.184-30.043 71.418-57.582 92.238-101.59 19.371-41.902 26.352-82.484 8.168-126.76-46.25-109.37-120.57-184.47-241.66-206.21-63.645-11.465-126.63-15.547-189.35 4.0859-28.727 9.0938-55.738 21.348-70.363 49.543-37.816 73-50.863 149.29-26.352 229.41 1.7148 5.4023 5.7969 10.543 13.176 6.8516 2.8984-25.43-16.207-47.172-10.543-75.504zm-137.43 623.52c59.297-2.7656 114.11-15.285 162.07-54.156 39.195-29.066 73.723-63.949 102.38-103.44 20.949-31.492 19.898-32.68-17.656-40.98-2.8984 0-5.6641-1.8438-8.4336-2.6367-120.43-35.973-183.42-125.18-218.34-238.76v0.003906c-2.707-13.133-11.883-23.996-24.379-28.859-12.945-4.8633-26.777-6.9297-40.582-6.0625-62.984 3.293-114.77 32.68-161.68 71.152-58.637 48.094-86.836 112.79-93.422 187.5v0.003906c-2.9805 22.664 2.5625 45.625 15.547 64.434 27.363 40.816 63.348 75.137 105.41 100.54 56.133 30.438 114.38 52.441 179.07 51.258zm29.254-643.42c2.418-4.2188 4.4883-8.625 6.1914-13.176 19.898-64.566 61.668-113.05 113.19-154.56 17.348-14.246 36.879-25.594 57.848-33.602 70.496-26.352 142.44-26.352 215.18-12.52 42.867 7.1641 83.844 22.93 120.46 46.344 36.617 23.414 68.117 53.996 92.605 89.906 24.316 34.527 42.711 72.871 54.418 113.45 8.8281 29.648 21.875 58.109 19.5 91.312l0.003906 0.003906c-2.8789 58.289-22.406 114.54-56.266 162.07-4.7422 6.5898-13.176 12.387-9.3555 24.902v0.003906c30.992-24.406 57.711-53.797 79.059-86.969 17.316-21.434 32.125-44.777 44.145-69.57 28.727-69.703 24.246-139.94 7.5117-210.83h-0.003906c-9.5781-47.414-29.91-91.996-59.426-130.32-33.391-41.363-71.711-78.488-114.11-110.55-48.473-37.887-107.26-60.254-168.66-64.168-87.758-5.2695-170.38 21.609-245.88 62.723l-0.003906-0.003906c-40.078 20.324-74.941 49.602-101.88 85.57-26.941 35.965-45.234 77.656-53.469 121.83-5.5352 28.988-13.309 57.188-1.0547 88.152zm-395.3 338.9c-6.7773 18-10.391 37.035-10.672 56.266-4.1328 78.105 15.434 155.63 56.133 222.42 30.332 52.164 74.531 94.898 127.68 123.46 51.59 27.598 108.98 42.586 167.48 43.746 66.805 0.92188 131.77-9.4883 187.77-49.676 21.742-16.926 44.684-32.25 68.648-45.852 29.91-15.285 45.988-43.746 67.859-65.883 25.301-26.352 36.895-61.535 46.512-97.242 13.176-51.258 6.7188-101.72-2.6367-152.06l0.003906-0.003907c-3.7188-29.617-10.973-58.68-21.609-86.57-1.9688 18.332-2.6289 36.781-1.9766 55.211 2.0234 64.527-18.578 127.73-58.242 178.68-28.727 39.531-68.781 65.883-107 95.531l0.003906-0.003907c-17.375 13.031-36.914 22.887-57.715 29.121-72.664 23.879-151.48 20.934-222.16-8.3008-45.594-16.082-87.266-41.633-122.28-74.973-55.051-54.062-92.559-123.44-107.65-199.1-0.027344-9.2148-3.5625-18.07-9.8828-24.773zm419.02-342.59c-6.0625 14.891-20.426 22.531-19.766 38.082 1.1875 24.641-9.8828 50.07 4.875 74.055 2.7383 5.2891 4.1406 11.172 4.0859 17.129 0 37.949 13.176 73.395 20.16 109.89 5.7969 28.594 10.805 58.242 29.648 82.355v-0.003906c25.875 30.805 56.316 57.465 90.258 79.062 17.324 11.285 35.895 20.523 55.344 27.539 26.352 10.145 39.531 2.3711 49.543-24.902v-0.003906c2.9727-8.4961 4.7461-17.367 5.2695-26.352-0.71875-14.613-2.2578-29.176-4.6094-43.617-0.066406-10.703-3.207-21.16-9.0469-30.133-5.8398-8.9688-14.137-16.07-23.895-20.465-27.977-16.715-51.844-39.5-69.836-66.672-15.152-21.875-27.672-45.723-43.484-65.883-33.074-43.484-43.613-93.289-50.336-144.95 0-4.3477 1.582-9.6172-5.2695-14.098-7.6406 23.852-1.7148 49.016-11.199 72.473 8.0352-26.355-8.5664-42.562-21.48-63.91zm556.19 285.93c-5.5586 0.65234-10.461 3.9375-13.176 8.832-10.543 13.176-20.426 21.742-35.051 3.9531-6.1914-7.6406-14.625 0.66016-22.004 1.4492-10.145 1.0547-4.0859-16.207-15.418-13.176v-0.003906c-1.9141 0.50781-3.7695 1.2148-5.5352 2.1094-39.082 20.887-82.707 31.84-127.02 31.887-20.555 0-29.121 12.387-26.352 32.809 1.9766 16.602 4.2148 33.207 6.9844 49.676 6.3242 39.531 16.473 45.723 53.496 35.184 2.7227-1.1328 5.5469-2.0156 8.4336-2.6328 42.297-6.3242 68.254-39.531 99.219-63.117 20.027-15.418 36.895-34.258 60.48-45.855 19.105-9.4883 21.742-18.977 16.207-41.508zm-661.47-260.9c-22.27-1.7148-35.84 0-44.539 19.238 18.449 2.2422 29.121-6.7188 44.801-19.633zm243.5 148.37c-0.90234-7.2109-3.8672-14.008-8.543-19.574-4.6758-5.5625-10.863-9.6562-17.809-11.785 4.3516 13.492 13.809 24.75 26.352 31.359zm-83.539-200.15c-6.3242 10.805-1.8438 21.215 0 31.625zm-242.32 44.535c7.1172-1.9766 17.656 1.7148 18.578-10.805-3.8711-0.66797-7.8555 0.050782-11.254 2.0273-3.3945 1.9727-5.9883 5.082-7.3242 8.7773zm234.68-67.992c3.8203-2.2383 3.4258-6.3242 4.2148-9.75 0.78906-3.4258 4.3477-6.8516-0.78906-9.4883-4.875 1.0547-4.875 5.2695-5.4023 8.6953v0.003906c-1.2812 3.6133-0.52734 7.6367 1.9766 10.539zm-394.25 361.04c-1.9766-1.582-3.293-3.5586-4.3477-3.4258-1.8477 0.16406-3.5469 1.0703-4.7148 2.5117-1.1641 1.4375-1.6992 3.2891-1.4766 5.1289 0 2.7656 1.4492 6.1914 4.6133 4.2148 3.1602-1.9727 3.5547-6.3203 5.9258-8.4297zm897.59-60.613h0.003906c-1.5547 2.1016-2.7188 4.4688-3.4258 6.9844 0 1.9766 2.7656 2.6367 4.4805 1.0547h-0.003906c1.3633-1.4102 2.3594-3.1289 2.9023-5.0078 0.26172-2.7695-1.0547-3.9531-4.4805-3.6914z"/>
 <path d="m503.88 508.42c6.0625 20.16 21.082 35.445 28.066 54.945 0 1.1875-1.582 3.1641-2.5039 4.875-22.531-22.004-25.43-28.461-25.562-59.82z"/>
 <path d="m258.92 437c-10.277 23.059-35.312 24.246-53.762 35.445 13.223-17.453 31.699-30.199 52.707-36.367z"/>
 <path d="m277.63 511.06c0.92188 6.1914-3.5586 8.9609-7.1172 11.992s-8.5664 5.7969-11.594-0.66016c-1.8438-4.0859 1.0547-7.6406 5.0078-9.2227 3.9531-1.582 8.6953-4.4805 13.703-2.1094z"/>
 <path d="m335.48 510.66c0 6.1914-3.5586 8.4336-8.9609 8.8281-2.7656 0-6.0625 0-5.7969-4.2148v-0.003906c0.35156-4.9375 4.1719-8.9258 9.0938-9.4883 4.2148-0.65625 4.875 1.9766 5.6641 4.8789z"/>
 <path d="m339.3 477.72c-2.3711 0-6.3242 0-5.1406-4.2148 1.1875-4.2148 5.6641-4.7422 9.3555-4.875 1.6562 0.36328 3.0039 1.5625 3.5586 3.1602 0.13281 5.1406-3.6914 5.9297-7.7734 5.9297z"/>
 <path d="m89.602 626.09-5.9297 6.7188c-0.66016-1.582-2.1094-3.293-1.9766-4.875 0-4.0859 2.1094-7.6406 6.5898-8.0391 2.1055-0.12891 2.8984 2.1094 1.3164 6.1953z"/>
 <path d="m949.77 718.86c-1.4492-0.92188-4.2148-2.1094-4.0859-2.6367h0.003906c0.74609-3.7891 4.043-6.5391 7.9062-6.5898 1.6133 0.32812 3.0586 1.2148 4.082 2.5039-0.86328 3.7383-4.0742 6.4688-7.9062 6.7227z"/>
</svg>
