<?xml version="1.0" encoding="UTF-8"?>
<svg width="1200pt" height="1200pt" version="1.1" viewBox="0 0 1200 1200" xmlns="http://www.w3.org/2000/svg">
 <path d="m414 380.04c2.2812-5.7617 5.2812-11.039 9.6016-15.48 4.1992-4.1992 2.6406-9.6016 1.9219-14.281-4.8008-35.641-4.9219-71.52-3.4805-107.4 0.35938-9.8398 0.12109-20.281 9.3594-27.359 3.6016-2.8789 0-5.0391-1.5586-7.1992-5.6406-8.3984-5.6406-9.3594 4.0781-13.199 13.68-5.3984 21.602-17.16 33.84-26.641-10.078-3.8398-16.559-6.2383-26.281-1.5586-17.039 8.0391-34.32 4.0781-48.961-8.2812-6-5.1602-11.641-10.68-17.16-16.559-4.9219-5.1602-9.4805-10.559-15.961-13.922-2.6406-1.4414-4.6797-3.3594-5.7617-6.2383-0.83984-2.1602 0.83984-3.9609 2.0391-3.6016 19.68 4.9219 39.961-2.1602 59.762 3.2383 9.4805 2.5195 18 6.6016 26.281 11.398 6.4805 3.7188 11.398 9 10.559 17.039-0.48047 5.2812 1.6797 7.6797 6.2383 9.1211 6.7188 2.1602 13.32 5.1602 20.641 2.8789 6-1.9219 7.4414-3.9609 4.1992-9-6.2383-9.3594-7.8008-20.039-10.801-30.48-2.0391-6.9609-2.6406-13.922-1.5586-21 1.6797-10.922 1.8008-21.602-2.7617-31.922-0.96094-2.0391-2.3984-4.9219 0.60156-6.6016 2.2812-1.3203 3.9609 0.35937 5.3984 1.9219 8.3984 9 18.84 15 29.52 20.879 13.559 7.5586 25.078 17.641 37.559 28.32 4.9219-23.641 18.719-39.84 37.078-53.039 2.0391-1.4414 3.7188-3.3594 5.3984-5.1602 1.9219-1.9219 2.6406-6.1211 6.2383-5.2812 4.0781 0.83984 3 5.2812 4.0781 8.2812 4.4414 13.32 12 25.32 17.879 39.602 7.4414-24.602 22.199-40.559 43.199-51.238 4.4414-2.2812 8.2812-5.5195 12.48-8.3984 3.6016-2.3984 6.6016-2.5195 6.8398 2.6406 0.83984 17.16 1.6797 34.32-3.7188 50.879-4.8008 14.52-14.762 24.84-27.961 32.281-3.8398 2.2812-8.0391 2.2812-12.121 2.1602-6-0.12109-10.199 2.1602-13.801 9.4805 15.719-2.7617 29.281 0.71875 42.84 4.6797 5.1602 1.5586 10.68 0.48047 16.078-0.96094 6.2383-1.6797 8.5195 0.12109 7.0781 5.7617-3.6016 14.039-6.7188 28.559-15.121 40.801-3.6016 5.2812-8.2812 9.3594-13.922 12.359-5.0391 2.6406-10.078 5.1602-14.762 10.078 7.6797 0.12109 15.359 0.48047 23.039 0.35938 14.16-0.23828 27 5.1602 39.84 9.7188 12.121 4.3203 13.68 15.961 15 26.762 4.0781 34.922 4.5586 69.961 3 105-0.35938 8.2812-1.0781 16.68 3.7188 24.359 2.1602 3.3594 3.6016 6.3594 8.3984 6 9-0.48047 15.238 3.4805 18.121 12.238 0.83984 2.5195 1.9219 3.7188 5.2812 3.8398 13.32 0.71875 20.398 9.2383 15.961 21.238-3.1211 8.3984-2.3984 15 1.8008 22.32 2.5195 4.3203 3 9.4805 3.2383 14.52 0.71875 16.68 1.4414 33.359 2.6406 50.039 0.71875 10.559-1.0781 20.879-2.3984 31.199-1.3203 10.801-2.3984 21.602-2.1602 32.398 0.23828 11.281 2.2812 13.801 13.32 15.602 12.719 2.1602 23.16 9.1211 33.961 15.238 8.3984 4.8008 11.879 13.801 14.762 22.559 6.4805 20.398 10.32 41.281 10.441 62.762 0.12109 10.32 0.48047 20.762 1.3203 30.961 0.96094 10.922 1.1992 21.84 0.48047 32.641-0.71875 11.281 0.60156 22.559-1.4414 33.719-1.0781 5.8789 1.4414 9.8398 7.3203 11.16 5.7617 1.3203 9.8398 4.4414 12 9.8398 2.1602 5.2812 5.8789 7.3203 11.762 7.0781 3.9609-0.23828 8.1602 1.5586 12.121 2.7617 15.48 4.6797 19.922 12.121 14.762 27-2.2812 6.7188-2.6406 12.48-0.96094 19.199 4.0781 16.32 3.6016 33.121 3.9609 49.801 0.60156 29.16 1.4414 58.32 2.8789 87.602 0.71875 13.559-1.3203 27.48-0.71875 41.16 0.12109 2.8789 0.35938 5.7617 0.23828 8.7617-0.71875 13.922 4.3203 21.84 18.602 27.238 22.078 8.5195 24 36.84 4.8008 51.48-17.762 13.559-38.762 19.078-60.238 22.68-40.441 6.8398-81.48 7.0781-122.16 9.6016-22.441 1.3203-45 2.2812-67.441 3.2383-25.32 1.1992-50.641 1.0781-76.078 1.0781-52.922 0.12109-105.96 0.12109-158.64-6.7188-8.6406-1.0781-17.52-0.71875-26.16-1.8008-34.801-4.0781-69.719-6.3594-104.4-11.762-28.922-4.4414-55.078-15.961-80.16-30.359-1.6797-0.96094-3.6016-1.6797-4.0781-4.1992-1.4414-9.7188-5.0391-19.078-5.3984-29.16-0.48047-16.32 5.5195-28.68 20.281-35.762 6.9609-3.3594 9.3594-7.3203 8.7617-15.238-1.8008-28.68-3.3594-57.48-3.7188-86.281-0.23828-22.078 1.4414-44.16 4.3203-66.121 1.1992-9.4805 0.96094-19.199 3.6016-28.559 2.1602-7.9219 5.0391-15.121 13.32-18.48 3-1.1992 4.1992-3.1211 5.2812-6.2383 3.6016-11.16 11.641-17.281 23.398-16.801 7.0781 0.35937 9.6016-2.5195 9.9609-9 0.23828-3.7188 1.5586-7.5586 1.0781-11.16-2.5195-19.199 0.96094-38.398-0.83984-57.48-2.5195-27.359-1.5586-54.961-5.0391-82.199-2.1602-16.922-2.3984-33.961 8.7617-49.199 8.0391-11.039 18.602-16.199 31.32-18.359 6.9609-1.1992 14.039-1.9219 21.121-2.3984 4.3203-0.23828 5.7617-2.0391 5.7617-6.2383-0.35938-15.84 2.0391-31.559 0.23828-47.398-2.7617-25.559-2.8789-51.359-3-77.16 0-4.4414-0.71875-7.1992-4.3203-10.559-10.199-9.1211-9.7188-20.398 0.23828-30.121 1.4414-1.4414 2.7617-2.7617 3.6016-4.8008 10.082-24.836 16.082-27.598 40.441-18.598zm340.92 83.641c-2.7617 0.71875-5.6406 1.5586-8.3984 2.0391-15.602 2.8789-30.238 6.9609-38.879 22.32-2.5195 4.4414-8.5195 6.2383-11.281 12.121 9.9609 1.1992 18.602-2.7617 27.602-2.3984 2.6406 0.12109 4.3203-2.1602 5.3984-4.5586 3.6016-7.8008 9.9609-13.078 16.078-18.602 3.6016-3.2383 8.1602-5.8789 9.2383-11.16 4.5586 2.0391 7.1992 4.5586 2.2812 9-2.7617 2.5195-5.6406 4.9219-8.5195 7.3203-4.8008 3.8398-9 8.0391-11.879 13.922 24.121 5.7617 37.441-8.8789 32.281-34.801-4.9219 0.59766-9.3633 2.8789-13.922 4.7969zm-376.68 644.76c0.96094 2.0391 2.6406 2.3984 4.1992 2.5195 17.398 1.4414 34.922 2.8789 52.441 4.1992 3.9609 0.35938 5.3984-1.6797 4.8008-5.2812-2.2812-13.199 5.5195-22.441 13.078-31.199 14.398-16.32 36.121-20.039 51.602-8.7617 13.199 9.7188 21.359 23.16 22.68 39.961 0.71875 10.078 0.71875 10.199 10.922 10.559 22.078 0.96094 44.16 2.0391 66.238 2.5195 29.16 0.48047 58.441 1.0781 87.602 0.48047 24.961-0.60156 49.922-2.0391 74.879-4.9219 33.121-3.8398 66.719-3.1211 99.719-8.6406 4.5586-0.71875 9-0.71875 12.719-4.1992 3-2.7617 5.5195-11.039 10.922-1.9219 0.23828 0.35938 2.2812-0.48047 3.4805-0.83984 11.16-3.4805 13.559-7.9219 13.199-20.281-0.60156-22.559-3.4805-45-1.3203-67.559 0.71875-7.9219 0.71875-15.84 0.35937-23.762-1.0781-28.801-2.1602-57.602-3.2383-86.398-0.60156-15 0.23828-30.238-4.3203-44.641-2.2812-7.0781-3.4805-12.48 1.1992-19.559 4.9219-7.4414 2.1602-16.199-3.9609-19.922-10.68-6.2383-20.398-5.2812-26.281 2.5195-4.0781 5.2812-7.8008 10.922-14.039 15.238-2.0391-7.0781 3.1211-8.7617 5.1602-12 5.3984-8.2812 5.6406-16.68 0.12109-23.039-5.7617-6.6016-16.801-8.1602-25.078-3.8398-9 4.6797-15.359 11.16-17.039 21.719-0.48047 3.4805-0.83984 8.6406-5.7617 8.2812-4.8008-0.35938-2.5195-5.2812-3.1211-8.1602-3.4805-16.68-10.441-22.801-27-23.52-14.52-0.60156-27.602 11.039-29.52 26.281 5.0391 0.12109 9.9609-0.23828 14.879 0.35937 26.762 3 42 16.078 42.719 43.922 0.48047 18.961-17.039 30.359-36.359 29.398-18.961-0.83984-31.078-17.16-28.441-36.719 1.3203-9.9609 5.5195-14.641 14.52-16.32 9-1.8008 16.922 1.6797 21.48 9.2383 5.0391 8.3984 2.3984 18.48-6.1211 22.441-2.3984 1.1992-5.0391 1.9219-6.6016-0.96094-1.4414-2.7617 0.12109-4.5586 3.1211-5.3984 4.8008-1.3203 6.8398-4.5586 5.8789-9.4805-1.0781-6-6.2383-10.32-12.238-10.441-7.1992-0.23828-12.719 3.4805-14.398 9.4805-2.5195 9.3594 1.4414 20.879 9 27.121 10.32 8.3984 21.121 6.2383 31.68 1.1992 10.078-4.8008 13.922-12.359 12.84-23.398-2.5195-25.922-35.879-43.441-59.039-30.84-2.5195 1.3203-4.6797 3.4805-6.6016 5.6406-13.32 14.281-12 44.641-0.60156 58.078 22.559 26.398 63.961 30.84 92.52 4.0781 5.1602-4.9219 9.4805-10.32 11.762-17.398 5.5195-16.441 2.2812-31.199-6.7188-45.238-2.2812-3.6016-6.1211-6.6016-6-11.16 2.6406-1.5586 4.0781-0.71875 4.9219 0.83984 3.2383 5.7617 6.3594 11.641 9.3594 17.641 13.32 26.52 4.1992 52.078-19.078 67.441-24.84 16.32-50.52 14.879-75.602 0.35938-26.16-15-33.719-42-24.359-63.961 3-7.0781 7.5586-12.84 12.602-18.48 2.6406-3 4.6797-5.8789 4.8008-9.8398 0.35938-14.879-20.039-29.398-33.719-23.641-10.441 4.4414-18.48 11.281-19.441 23.641-0.23828 2.6406-1.4414 5.0391-4.1992 5.5195-2.1602 0.23828-3.6016-1.8008-4.9219-3.4805-3.4805-4.6797-6.9609-9.3594-10.078-14.16-3.4805-5.2812-8.1602-7.9219-14.398-9-16.078-2.8789-28.559 2.2812-37.559 15.84-1.8008 2.7617-2.5195 6.8398-6.6016 6.6016-4.5586-0.35937-5.2812-4.6797-6.4805-8.1602-0.35938-1.1992-0.96094-2.3984-1.4414-3.4805-6.7188-13.078-24.121-19.078-37.559-13.078-10.199 4.5586-16.801 12.121-19.922 22.801-0.83984 3-2.2812 5.7617-5.7617 5.6406-3-0.12109-3.2383-3.3594-4.1992-5.5195-5.1602-10.922-13.32-17.16-25.441-19.922-23.281-5.3984-35.879 0.12109-44.52 21.719-1.4414 3.4805-2.8789 5.8789-6.8398 6-2.2812-1.8008-1.5586-4.5586-2.0391-6.9609-3.6016-15.84-13.078-23.641-29.039-27-13.199-2.7617-23.879 2.0391-34.199 8.5195-7.3203 4.5586-10.199 13.199-12.48 21.121-1.4414 5.1602 4.3203 7.5586 6.8398 11.16 15.961 21.961 18.48 52.441-8.7617 71.52-23.641 16.68-56.52 9.3594-69.719-16.32-4.8008-9.3594-5.3984-19.32-2.6406-29.281 2.3984-8.6406 11.398-8.7617 17.762-12.359 2.1602-1.1992 4.5586-2.0391 6.9609-2.6406 7.4414-2.1602 14.879-1.8008 22.078 0.96094 10.68 4.1992 16.32 17.762 11.762 28.078-4.5586 10.68-19.441 16.078-29.641 10.441-4.8008-2.6406-8.5195-6.1211-6.2383-12.48 3.8398-0.12109 4.6797 2.6406 6.4805 4.1992 5.6406 4.8008 11.641 5.7617 17.16 2.5195 5.3984-3.2383 8.5195-8.1602 7.6797-14.641-0.83984-6.7188-4.1992-12.121-11.039-13.68-8.2812-1.9219-16.559-2.1602-24.48 1.5586-10.32 4.9219-14.398 13.32-12.602 24.602 4.4414 27 32.762 37.68 53.641 29.879 15.359-5.7617 25.199-17.641 27-34.68 1.9219-18.121-4.1992-33.238-19.801-42.961-22.801-14.16-52.922-8.3984-71.398 9.6016-16.32 15.84-19.801 36-15.359 56.762 4.4414 20.762 16.078 38.039 36.602 46.199 14.16 5.6406 29.879 5.0391 44.398 1.6797 21.48-5.0391 39.48-16.559 55.68-31.922 21.961-21 21.121-60 8.5195-79.922-3.9609-6.3594-7.4414-13.078-12.602-21.961 9.8398 3.9609 11.879 10.801 15.121 16.199 17.039 28.801 16.078 71.52-14.398 96.238-24.719 20.039-51.84 31.078-83.879 29.398-11.281-0.60156-21.121-4.6797-29.52-12-8.2812-7.1992-15.602-15.238-20.281-25.199-9.3594-19.68-12.121-39.84-3-60.359 6.8398-15.359 17.16-27.602 33.719-33.238-6.4805-10.68-12.359-13.559-20.398-10.559-8.6406 3.3594-10.199 8.3984-6.9609 22.68-2.2812 1.5586-4.6797 1.1992-7.1992 0.60156-7.0781-1.6797-11.039 2.1602-13.559 8.0391-1.0781 2.6406-2.0391 5.5195-2.3984 8.3984-2.0391 18.238-4.5586 36.48-5.6406 54.719-1.8008 30.48-1.9219 60.84 0.60156 91.32 1.8008 21.602 2.8789 43.32 4.0781 64.922 0.60156 9.9609 4.0781 16.559 14.039 21.359 23.52 11.398 48.359 17.879 73.68 23.039 5.8789 1.1992 10.559 0.12109 15.48-2.7617 9.1211-5.2812 16.801-12.359 24.602-19.32 12.238-10.922 17.398-25.078 17.762-41.16 0.35938-21.602-10.32-37.441-27.121-49.441-22.32-15.84-47.762-14.762-68.398 2.2812-14.641 12-21.48 37.559-14.281 53.52 9.3594 20.641 39.602 27.48 59.039 13.199 15.359-11.281 18-27 7.3203-42.602-4.5586-6.6016-11.039-8.5195-18.48-5.3984-10.078 4.3203-15.719 12.121-13.922 19.801 0.35938 1.5586 0.96094 3.2383 1.8008 4.6797 3.1211 4.9219 7.3203 5.0391 11.16-0.23828 1.4414-1.9219 2.2812-3.6016 4.5586-2.1602 1.9219 1.1992 2.6406 3.4805 2.2812 5.5195-0.35938 2.0391-2.1602 3.4805-4.0781 4.5586-8.0391 4.6797-17.762 0.71875-21.238-8.6406-5.6406-15 10.801-33.84 27.238-31.199 19.922 3.1211 30.238 31.559 17.879 48.961-12.238 17.398-30.719 24.359-51.48 19.801-18.359-3.9609-35.039-24.121-32.879-42.961 1.0781-9.7188 4.0781-18.719 7.8008-27.602 8.0391-18.602 38.641-33.84 57.84-28.68 8.8789 2.3984 17.641 5.3984 25.801 9.4805 36.719 18.48 47.641 65.281 20.16 97.441-7.3281 9.4961-17.051 16.098-24.852 24.617zm280.8-520.68c-2.1602-1.1992-2.8789-1.8008-3.6016-1.8008-27.961-1.9219-55.801 0.12109-83.762-0.83984-6-0.23828-11.398 1.4414-15.961 5.7617-4.5586 4.3203-9.3594 8.3984-16.078 9-3 0.23828-4.1992 2.2812-4.0781 5.1602 0.83984 16.078-9.9609 24.602-21.359 32.762-6 4.3203-14.16 3.3594-19.559 7.3203-5.5195 4.0781-4.4414 12.961-8.5195 19.078-6.9609 10.559-18 12.961-28.922 15.359-4.6797 1.0781-6.7188 2.8789-9 6.8398-6.2383 10.801-12.359 23.039-26.398 24.48-11.039 1.0781-16.32 7.3203-21.719 15.602-7.6797 11.641-17.762 20.16-33.121 18-5.1602-0.71875-7.3203 2.2812-9.2383 6.3594-4.8008 9.7188-11.52 17.16-23.039 19.078-13.441 2.2812-13.441 2.3984-13.199 15.719 0 3.2383-1.1992 6.6016 0.96094 9.6016 3 0.96094 4.6797-1.4414 6.6016-2.7617 12.121-8.3984 26.762-8.7617 36.238-0.48047 11.762 10.32 18.961 6.3594 27.961-1.0781 1.5586-1.3203 3.4805-2.3984 5.2812-3.2383 15.719-7.5586 31.078-8.3984 45.961 2.5195 9.2383 6.7188 11.762 6.3594 20.762-0.83984 15.84-12.84 31.922-25.32 47.039-39.121 32.281-29.52 64.32-59.281 91.559-93.719 2.0391-2.6406 4.1992-5.1602 6.7188-7.4414 19.434-17.523 32.875-39.723 48.473-61.32zm-46.801 219.96c6.6016-2.3984 9.9609-7.4414 14.52-11.039 7.6797-6.1211 16.32-11.398 26.398-8.1602 7.8008 2.5195 16.078 5.8789 21.121 12.84 3.9609 5.3984 7.0781 4.0781 11.398 1.1992 12.121-8.1602 23.039-18 33.238-28.32 19.68-19.801 38.039-40.922 55.801-62.398 19.441-23.52 37.559-47.879 51.359-75.238 6.1211-12.121 3.7188-22.078-7.0781-30.359-2.6406-2.0391-5.6406-3.4805-8.3984-5.3984-16.441-11.281-35.641-13.32-54.602-15.602-6.9609-0.83984-14.039-2.2812-21.602 0.35937 6.6016 17.16-2.0391 28.922-13.68 39.719-4.9219 4.5586-10.441 8.2812-16.441 11.16-4.0781 1.9219-6.3594 4.1992-6.1211 9.4805 0.83984 20.398-9.3594 33.84-27.961 41.281-5.1602 2.0391-7.4414 4.9219-8.3984 10.801-2.7617 17.762-12.48 30.961-30.121 36.359-6 1.8008-8.7617 4.6797-10.078 10.559-3.7188 15.961-14.52 25.68-29.16 31.68-3.1211 1.1992-6.6016 1.3203-6.8398 5.8789-0.23828 4.6797 3.9609 5.0391 6.6016 6.3594 7.8047 4.3203 15.004 9.7227 20.043 18.84zm-354.24 240.36c-8.0391 1.0781-14.398 5.6406-16.801 12.121-6.6016 17.52-7.4414 36 10.441 49.68 4.3203 3.2383 9.2383 5.7617 14.039 8.1602 27.961 14.398 58.32 20.039 88.922 23.281 40.68 4.3203 81.359 7.3203 122.16 10.32 45.238 3.3594 90.48 6.4805 135.84 4.6797 38.281-1.5586 76.68-0.96094 115.08-3.2383 49.078-2.8789 98.398-3.3594 147.24-10.199 19.32-2.6406 37.199-9.3594 53.52-20.039 6.6016-4.3203 10.32-10.68 12-18.359 3.2383-15.961-5.1602-27.238-21.359-28.559-4.9219-0.35938-6.8398 2.1602-5.3984 6.7188 0.83984 2.7617 3.3594 3.6016 4.9219 5.3984 3.6016 4.0781 3.9609 9.2383 0.60156 12.602-6 6-11.398 13.922-21.719 12.602-3-0.35938-5.7617 0.60156-8.6406 1.1992-13.078 2.8789-26.039 6.3594-39.121 8.2812-28.078 4.0781-56.52 5.2812-84.719 7.1992-30.602 2.0391-61.68 2.6406-92.52 2.3984-70.922-0.48047-141.84-1.4414-212.76-5.5195-37.199-2.1602-75 0.71875-111.48-9.6016-0.83984-0.23828-1.6797-0.23828-2.5195-0.23828-8.3984-0.12109-16.441-2.3984-24.602-4.4414-15.359-3.8398-30.121-10.199-45.359-14.039-16.559-4.1992-25.199-24.238-18.84-40.078 1.3164-3.0078 3.3594-5.7656 1.0781-10.328zm126.84-534.72c-0.23828 16.559-0.96094 30.602-0.60156 44.641 0.35938 11.641 1.5586 12.48 13.32 13.078 35.762 1.8008 71.641 4.4414 107.52 3.6016 11.641-0.23828 23.398-1.3203 34.922-0.71875 20.762 0.96094 41.641 0.83984 62.398 1.0781 44.641 0.60156 89.281 0.71875 133.92-1.1992 8.2812-0.35938 16.68 0.23828 25.078 0.60156 4.6797 0.23828 6.8398-1.6797 6.9609-6.4805 0.12109-7.5586-0.12109-15.238 1.4414-22.441 1.5586-7.4414-0.35938-10.078-7.6797-9.3594-5.2812 0.48047-8.3984-3.6016-11.398-7.1992-5.7617 6.7188-11.52 11.641-19.441 12.238-7.0781 0.60156-12.238-3.7188-16.801-9.2383-4.5586 5.2812-10.078 8.2812-15.719 10.559-7.0781 2.7617-17.039-2.5195-19.199-9.7188-1.9219-6.7188 3.7188-14.16 12-16.078 2.8789-0.71875 5.7617-0.60156 8.6406-0.12109 5.3984 0.83984 10.68 2.0391 14.762 5.8789 12.121-13.68 24.961-15.961 36.602-6.7188 4.6797-4.0781 9.2383-8.5195 16.078-8.7617 4.9219-0.12109 5.3984-3.2383 4.5586-6.8398-0.96094-4.3203-4.4414-2.8789-7.0781-2.3984-5.7617 1.0781-11.398 3.4805-17.039 3.6016-25.441 0.60156-50.398 6-75.719 8.1602-28.68 2.3984-57.238 4.1992-86.039 4.4414-10.922 0.12109-21.48-1.8008-32.281-2.7617-16.559-1.4414-33.121-2.8789-49.68-4.4414-15.602-1.5586-31.078-4.5586-48.121-4.1992 3.9609 5.7617 5.6406 9.4805 13.922 6.9609 8.7617-2.6406 19.32-1.3203 27.121 5.0391 4.9219 4.0781 7.5586 5.6406 13.078 0.83984 7.0781-6 18.121-4.8008 25.32 1.0781 8.3984 6.8398 7.9219 18-0.96094 24.359-12.238 8.6406-25.559 5.1602-34.68-9.4805-3.9609 1.9219-7.9219 4.0781-12.121 5.6406-8.7617 3.3594-18 3.7188-24-4.1992-4.4414-5.8789-7.8008-5.0391-13.559-2.8789-9.9609 3.7188-19.68 3.4805-27.359-5.2812-2.5195-2.8789-4.6797-1.6797-7.6797-1.0781-11.168 2.1562-21.969 2.3984-30.488-10.203zm152.4-42.238c-11.039 7.8008-20.641 14.398-30.121 21.359-2.5195 1.8008-6.3594 2.7617-6.2383 7.1992 14.281 4.1992 27.602 5.5195 38.398-8.0391 3.2383-4.0781 8.3984-6.8398 12.719-10.078 1.6797-1.1992 3.6016-1.9219 5.5195-2.6406 0.60156-0.23828 1.6797 0.23828 2.2812 0.71875 1.1992 0.83984 0.96094 2.1602 0.35938 3.2383-1.4414 2.7617-4.4414 3.6016-6.8398 5.3984-6 4.3203-12.719 7.6797-17.16 14.16 14.641 6 22.199 4.6797 31.32-4.8008 2.6406-2.6406 5.6406-4.9219 8.5195-7.3203 3.4805-2.8789 7.5586-5.1602 8.6406-10.078-4.6797-2.1602-10.078-1.8008-15.359-6.8398 10.801 3.6016 20.398 1.3203 31.078 3.9609-6.9609 5.8789-12.961 10.801-18.84 15.84-3.4805 2.8789-7.3203 5.6406-10.559 8.7617-2.1602 2.0391-2.1602 5.1602 1.1992 5.6406 6.9609 1.0781 14.879 2.0391 20.039-3.7188 6.7188-7.5586 13.801-14.398 21.961-20.398 6.4805-4.6797-1.3203-5.7617-2.6406-8.7617 17.16-0.96094 33.84-0.83984 50.281-1.5586 21.84-0.83984 43.078-3.8398 64.441-7.8008 12.719-2.3984 24.961-6.7188 36.84-11.879 4.8008-2.0391 6.2383-4.8008 4.3203-9.7188-3.1211-8.2812-5.1602-10.078-14.879-9.1211-14.52 1.4414-29.281 3.1211-43.68 0.83984-28.32-4.3203-56.52-0.60156-84.84 0-17.879 0.35938-35.879 1.3203-53.762 0.12109-23.281-1.6797-46.559-2.5195-69.719-4.0781-27.48-1.8008-54.84-3.8398-82.078-6.7188-8.6406-0.96094-17.281-2.6406-26.039-3.7188-3.1211-0.35938-7.1992-1.6797-8.7617 2.3984-1.6797 4.3203-2.1602 8.6406 2.0391 12.602 2.7617 2.6406 5.5195 5.0391 9 6.4805 12 4.8008 23.641 10.559 36 13.801 18.84 5.0391 38.52 7.1992 57.359 12.719 2.3984 0.71875 5.0391 0.71875 7.4414 0.60156 13.441-0.73047 26.758 1.1875 41.758 1.4297zm177 115.2c-5.1602-0.60156-9.9609-1.1992-14.879-1.6797-18.961-1.4414-36.961-0.71875-45.238 21-0.48047 1.0781-1.5586 1.9219-2.2812 3-16.68 25.199-38.281 46.32-58.078 68.879-12.602 14.398-25.441 28.559-39.359 41.879-15.121 14.398-31.32 27.602-46.078 42.359-10.441 10.441-21.48 19.68-33.719 27.719-4.5586 3-8.6406 6.6016-12.84 9.9609-1.3203 1.0781-2.6406 2.5195-1.4414 4.0781 1.9219 2.6406 3.3594 0.60156 4.9219-0.83984 3.8398-3.2383 7.4414-6.7188 11.641-9.4805 15.359-9.9609 34.68-15.961 51.121 1.0781 0.23828 0.23828 0.60156 0.48047 0.96094 0.83984 4.1992 4.9219 7.8008 3.6016 12.719 0.12109 8.0391-5.6406 12.84-14.281 20.641-20.039 31.922-23.398 58.199-52.68 82.68-83.16 21.121-26.281 40.559-54.121 57.602-83.398 4.0703-6.957 9.9492-13.195 11.629-22.316zm0.36328-228.24c-3.2383-5.1602-5.5195-6.1211-7.6797-7.1992-10.199-4.8008-20.281-9.7188-30.48-14.398-16.68-7.8008-31.922-18.121-48.961-25.199-13.441-5.6406-26.398-12.48-38.52-20.762-5.2812-3.6016-9-4.4414-13.801 1.0781-11.281 13.078-26.879 19.199-42.602 24.961-2.7617 1.0781-5.6406 1.4414-8.5195 1.6797-5.0391 0.35938-7.8008-0.83984-7.1992-6.8398 1.8008-18.84-4.4414-36.121-10.801-53.398-2.1602-5.6406-5.1602-7.5586-10.68-8.3984-15.121-2.0391-28.922-7.6797-40.922-17.16-4.3203-3.3594-8.7617-6.4805-14.16-7.9219-6.2383-1.6797-8.0391-0.23828-9.6016 5.8789-2.7617 11.52-0.71875 23.281-2.2812 34.922-0.48047 3.8398 2.2812 5.8789 4.9219 8.1602 14.52 12 29.398 23.398 45.48 33.238 23.16 14.039 46.801 27.238 70.32 40.801 5.2812 3 10.801 4.4414 16.801 2.3984 8.1602-2.8789 15.719-1.5586 22.32 3.8398 4.4414 3.6016 8.5195 5.0391 13.078 0.60156 3-3 6.7188-2.7617 10.559-2.7617 8.8789-0.12109 16.32 3 22.68 8.8789 3 2.7617 5.2812 4.3203 9.4805 1.0781 11.281-8.3984 23.52-9.9609 36.238-2.6406 2.3984 1.4414 5.2812 3.1211 8.1602 0.83984 7.207-5.875 15.246-5.1523 26.168-1.6758zm43.438 69c-9.8398-12.121-21.602-17.398-34.32-19.68-12.238-2.1602-24.602-4.5586-37.199-2.0391-5.2812 1.0781-10.801 0-16.078-1.4414-11.641-3.2383-23.52-4.3203-35.762-4.0781-15 0.12109-30 1.3203-45-0.83984-26.762-3.7188-53.762-4.3203-80.762-4.1992-20.039 0.12109-40.078-0.60156-60 0.23828-8.1602 0.35938-17.641-1.3203-23.762 6.9609-0.96094 1.3203-2.6406 1.5586-4.4414 0.83984-10.078-4.3203-18.602 1.9219-27.602 4.3203-2.2812 0.60156-4.9219 2.1602-4.3203 5.2812 0.48047 2.3984 2.8789 2.6406 5.0391 3 14.398 2.2812 28.559 5.5195 43.32 6.4805 30.359 1.9219 60.719 4.5586 90.961 6.7188 40.32 3 80.641 3.3594 120.96 1.6797 19.559-0.83984 38.879-2.1602 58.559 0.23828 15.848 1.8008 32.168 0.83984 50.406-3.4805zm-233.64 157.56c-17.039-1.5586-33.961-2.1602-50.879-2.0391-4.6797 0-7.4414 2.8789-10.32 6.1211-13.078 14.52-26.039 29.039-40.441 42.48-27.961 25.922-56.762 50.16-92.398 65.039-8.6406 3.6016-11.039 8.2812-9.7188 18 1.0781 7.9219 1.3203 15.719 1.0781 23.641-0.12109 3.1211-1.3203 6.4805 1.1992 8.8789 2.3984 0.71875 3.8398-0.35938 5.2812-1.0781 17.398-9 34.32-18.719 50.039-30.602 20.879-15.719 44.641-27.238 64.68-44.52 26.879-23.281 52.199-47.879 75.719-74.398 2.6445-3.0039 6.0039-6.0039 5.7617-11.523zm-203.76 107.52c13.199-4.0781 24-8.8789 34.441-15.238 23.16-14.281 42.961-32.762 64.078-49.68 11.398-9.2383 21.121-20.039 30.238-31.441 2.8789-3.7188 6.3594-7.3203 6.1211-13.441-3.4805 0-6.3594-0.12109-9.2383-0.12109-12.84 0-25.801 0.23828-38.641-0.23828-20.879-0.71875-41.398 0.12109-61.441 6.9609-20.039 6.8398-28.441 17.281-29.16 38.398-0.96094 21.359 3 42.242 3.6016 64.801zm512.64-52.082c-11.16 17.762-23.398 34.441-35.398 51.238-12.121 17.039-27 31.68-39.602 48.238-12.48 16.32-30 28.199-40.559 46.32 5.0391 3.1211 10.68 2.5195 14.398 6.2383 3.4805 3.6016 7.3203 6.8398 10.68 10.441 4.0781 4.3203 7.8008 5.5195 12.121 0.12109 4.5586-5.5195 10.078-9.8398 16.68-12.961 1.8008-0.83984 3.6016-2.1602 4.9219-3.7188 11.762-15.121 24.719-29.16 37.32-43.559 9-10.32 17.398-21.238 24-33.48 1.9219-3.6016 4.3203-7.1992 4.0781-11.641-1.082-18.957-1.4414-38.156-8.6406-57.238zm-185.16-341.88c8.0391 5.5195 16.199 8.6406 24.238 12 10.68 4.5586 21.602 8.8789 32.52 12.84 8.6406 3.1211 9.9609 1.9219 10.078-7.6797 0.23828-20.039-1.1992-40.078-2.8789-60-2.2812-26.641-2.6406-27-28.199-35.762-14.16-4.9219-28.801-6.4805-45-3.8398 4.8008 7.6797 11.398 11.641 14.641 18.602 7.3203 15.84 12.121 31.922 10.199 49.559-0.60156 5.0391 3.3594 10.559 0.12109 14.641-4.3203 5.6406-9.4805-3.5977-15.719-0.35938zm-144.72-167.52c1.8008-3 4.3203-1.5586 6.4805-0.96094 15.121 4.6797 22.441 16.441 27.359 30.359 1.8008 5.0391 3.2383 10.32 5.2812 15.359 0.96094 2.3984 2.8789 4.5586 5.7617 3.9609 2.8789-0.60156 5.3984-2.5195 6-5.7617 0.35938-2.3984 0.12109-5.0391 0.12109-7.4414-0.48047-18.359-7.8008-34.441-19.199-47.879-14.641-17.398-35.16-27.121-54.84-38.641-10.559 57.602 15.84 97.922 58.801 106.32-3.1211-8.8789-7.0781-17.039-9.6016-25.68-3.3594-11.762-10.68-20.641-22.32-25.441-1.9219-0.71484-4.082-1.4336-3.8438-4.1953zm59.402 39.84c0-17.879 8.5195-33.48 11.281-50.281 0.35938-1.9219 1.1992-4.3203 3.8398-4.0781 2.8789 0.23828 2.6406 2.7617 2.7617 4.6797 0.60156 6-0.96094 11.641-2.6406 17.16-2.7617 8.8789-3.9609 17.879-3.3594 27.121 0.23828 4.0781 0.60156 8.8789 5.8789 9.8398 4.9219 0.83984 6-3.7188 7.5586-6.9609 3-6.9609 6.7188-13.441 11.039-19.559 11.762-16.68 10.32-34.441 4.6797-52.559-3.6016-11.641-10.199-21.84-16.441-33.121-15.602 9.4805-27.48 21.961-35.281 37.922-2.8789 6-4.0781 12.602-3 19.559 2.6445 17.156 11.523 32.637 13.684 50.277zm-25.32 27.121c-1.9219-2.1602-2.5195-3.3594-3.4805-3.8398-12.238-6.1211-24.238-12.48-34.922-21.359-7.1992-6-16.68-6.9609-25.441-0.71875-5.1602 3.6016-9.9609 7.5586-14.281 12-5.5195 5.6406-11.52 10.801-18.602 14.641-6.4805 3.4805-6.7188 4.5586-1.6797 9.6016 7.1992 7.0781 16.801 10.922 24.48 17.16 11.641 9.4805 25.199 12 39.359 13.68 5.8789 0.71875 10.078-0.48047 13.441-6.2383 3.1211-5.3984 8.2812-9.2383 13.441-12.84 3.1211-2.1602 7.9219-2.3984 9.8398-7.5586-8.0391-3.6016-15.961-2.0391-23.641-1.4414-5.7617 0.48047-11.52 1.9219-17.281 2.0391-8.1602 0.12109-15.359-2.5195-20.039-10.078 3.8398-2.5195 6.7188-0.23828 9.8398 0.60156 4.6797 1.4414 9.4805 3.6016 14.641 2.2812 11.043-3.0117 21.723-7.332 34.324-7.9297zm102.96-34.082c2.1602 7.1992-1.3203 11.16-7.0781 13.559-4.5586 1.9219-9.3594 3.4805-14.281 4.5586-5.3984 1.1992-10.199 3.4805-15 6-3.3594 1.8008-6.3594 3.8398-5.3984 8.6406 0.83984 4.0781 2.3984 6.6016 6.7188 7.8008 7.8008 2.0391 15.719 3.8398 23.281 0.83984 7.6797-3 15.121-6.9609 22.32-11.16 14.879-8.8789 20.039-23.762 23.52-39.48 0.96094-4.0781-0.71875-6.2383-5.1602-6.4805-10.922-0.35938-21.238-3.9609-32.039-5.5195-4.0781-0.60156-8.2812-0.96094-12.48-0.71875-7.4414 0.35938-13.441 3-17.281 10.199-3.3594 6.2383-7.6797 11.879-12 17.52-2.7617 3.6016-3.9609 7.3203-3.7188 11.641 0.12109 2.7617 1.9219 5.5195 4.6797 3.3594 7.1992-5.6406 15.961-6.7188 24.121-9.6016 6.957-2.5156 14.637-4.3164 19.797-11.156zm-51.363 60.723c-14.16 6.3594-15.121 7.9219-10.441 20.641 3.9609 10.922 10.441 20.039 22.32 23.52 14.762 4.3203 29.762 7.8008 44.281 12.84 6.9609 2.3984 8.8789 0.48047 9.6016-6.9609 1.0781-11.52-2.5195-21.719-7.1992-32.281-8.3984-18.961-21.961-29.52-42.238-31.801-8.7617-1.0781-12.48 3.8398-8.6406 11.879 4.1992 8.6406 9.1211 16.922 19.078 20.398 5.2812 1.9219 9.3594 5.3984 13.078 9.3594 2.1602 2.2812 3.4805 4.6797 1.3203 7.8008-4.0781 0.23828-5.2812-3.4805-7.6797-5.5195-3.7188-3.3594-7.3203-6.8398-12.359-8.1602-10.918-2.7578-18.238-9.4766-21.121-21.715zm-62.039 83.039c26.879-3.7188 39.602-21.961 50.879-41.879 1.1992-2.0391 2.6406-4.3203 0.96094-6.9609-4.6797-7.5586-7.1992-15.719-9.3594-24.359-1.3203-5.2812-6.6016-5.8789-10.441-1.8008-1.9219 2.1602-3.6016 4.4414-4.5586 7.3203-2.3984 7.0781-4.4414 14.16-4.8008 21.719-0.23828 5.2812-0.83984 10.801-3.9609 15.602-1.5586 2.5195-3.2383 6-6.3594 4.5586-3.6016-1.5586-1.8008-5.0391-0.23828-7.4414 3.4805-5.1602 3.9609-10.922 3.6016-16.801-0.60156-10.559-0.12109-20.879 4.9219-30.359 1.0781-2.0391 1.1992-4.0781-0.60156-5.6406-1.8008-1.6797-3.8398-0.60156-5.7617 0-15.121 4.5586-23.281 17.398-21.602 33.48 1.9219 17.402 8.7617 33.961 7.3203 52.562zm-59.641 810.84c6 0.12109 9.7188 0.12109 13.441 0.23828 6.2383 0.12109 9-3.4805 10.078-9 1.3203-7.0781-3.3594-15.719-9.8398-16.801-6.6016-1.0781-9.7188 3.2383-10.922 9.2383-0.48047 2.2812-1.5586 4.1992-4.0781 3.6016-3-0.71875-3.2383-3.2383-2.8789-6 1.1992-11.16 17.281-18.359 25.922-10.32 6.1211 5.7617 9.8398 12.238 8.1602 21-0.60156 2.8789-1.3203 6 2.3984 7.4414 6 2.1602 12.121 2.6406 18.48 1.4414 2.5195-0.48047 2.7617-2.6406 3-4.8008 1.5586-13.559-11.16-36.359-23.281-41.762-22.078-9.7188-51.602 9.1211-52.441 33.719-0.23828 5.6406 1.6797 9.6016 8.1602 10.078 5.2812 0.72656 10.562 1.5664 13.801 1.9258zm-36.957-822.6c-2.0391 20.398 1.4414 37.922 2.2812 55.68 0 1.1992 0.48047 3 1.3203 3.3594 4.9219 2.1602 9.9609 3.9609 15 6 3.4805 1.4414 5.6406-1.0781 7.9219-2.6406 9-5.8789 18.719-8.0391 28.559-3.8398 9.1211 3.9609 15.84 1.8008 22.68-5.8789-25.922-16.797-52.324-32.398-77.762-52.68zm237.24-247.08c-5.5195 2.7617-9.6016 4.6797-13.68 6.7188-15.602 8.0391-25.32 21.121-31.68 37.078-2.5195 6.3594-2.6406 13.078 0 19.559 3.7188 9.1211 8.3984 11.281 17.52 7.0781 11.762-5.5195 20.281-14.281 24.84-26.641 5.1602-13.793 4.8008-27.715 3-43.793zm-294.36 78.719c1.4414 5.7617 5.1602 8.0391 7.6797 11.16 11.398 13.801 25.078 24 43.68 26.281 8.6406 1.0781 15.359-1.3203 18-7.5586 3.2383-7.4414 1.4414-13.68-6.4805-19.32-12.48-9-26.398-14.281-42.121-12-6.3594 0.83984-12.957 1.3164-20.758 1.4375zm426.48 664.8c2.3984 3.1211 4.4414 6.3594 6.9609 9 5.2812 5.7617 6.6016 5.8789 12 0.48047 5.3984-5.2812 10.922-10.199 18.121-12.961 2.8789-1.1992 5.1602-3 5.2812-6.2383 0.71875-13.801 1.5586-27.719 0.96094-44.039-7.3203 7.1992-13.441 11.52-20.16 14.762-3.2383 1.5586-5.6406 3.4805-6.3594 7.0781-2.6445 11.996-9.2461 22.078-16.805 31.918zm-213.24-510.96c3 3.9609 6.8398 5.6406 10.32 7.8008 18.48 11.52 38.762 19.32 57.48 30.359 15.84 9.3594 32.52 16.922 49.559 23.641 9.1211 3.6016 11.039 2.0391 10.32-7.4414-0.35938-3.9609-2.7617-4.4414-5.6406-5.3984-31.801-11.398-62.879-24.48-92.16-41.641-7.0781-4.1992-15.359-6.2383-23.16-9.1211-2.0391-0.59766-4.1992-0.95703-6.7188 1.8008zm93.363 196.92c-15.238-3.6016-29.398 0.23828-43.32-1.1992-4.6797-0.48047-8.5195 1.6797-12.121 5.1602-6.2383 6-13.441 11.16-20.039 16.922-2.6406 2.2812-6.4805 4.1992-5.6406 9.2383 5.8789 0.71875 11.52-1.6797 17.281-0.71875 5.2812 0.83984 9.3594-1.3203 12.961-5.6406 5.1602-5.8789 11.641-10.68 16.559-16.922 2.2812-2.8789 5.3984-6.4805 10.922-2.8789-6.4805 8.5195-14.281 15.121-23.039 23.762 10.559 0.48047 18.961 3.1211 25.078-4.8008 6.2383-7.8047 13.559-14.645 21.359-22.922zm-115.92-297.48c-10.68 0.12109-19.32 10.68-17.398 21.238 1.9219 10.801 9 15.719 20.52 19.199 7.8008 2.3984 17.16-2.7617 22.199-10.559 1.9219-2.8789 3-5.8789 2.0391-9.3594-3-10.441-16.68-20.641-27.359-20.52zm-134.28 99c0.71875 7.1992 0.71875 7.3203 5.7617 11.16 21.359 16.68 42.719 33.121 66.121 46.801 8.1602 4.8008 15.48 11.16 25.68 11.879 3.6016 0.23828 6.9609 2.6406 10.559 3.7188 3.2383 0.96094 6.7188 6.9609 9.3594 2.6406 3.1211-5.3984-3.7188-6-6.9609-7.6797-33.719-18.121-66.602-37.68-97.801-60-4.0781-3-8.2773-5.5195-12.719-8.5195zm180.96 116.4c4.4414 0.60156 9.2383-1.3203 14.16-1.4414 7.0781 0 9.4805-3.1211 9.1211-9.8398-0.35938-7.9219-8.5195-20.281-15.359-22.199-6.4805-1.8008-16.32 4.3203-20.762 12.961-7.6797 15.121-4.8008 20.039 12.84 20.52zm-40.918-5.1602v0.35938c1.1992 0.12109 2.5195 0.35938 3.7188 0.48047 12.84 1.0781 14.52-0.48047 14.641-13.078 0-3.8398-0.35938-7.4414-1.8008-11.039-2.5195-6.4805-6.7188-9-13.559-8.5195-11.398 0.83984-21.121 10.441-21.961 21.719-0.60156 7.3203 0.60156 9 7.6797 9.7188 3.8398 0.48047 7.5586 0.24219 11.281 0.35938zm127.44 9.1211c2.0391 0 4.0781 0.12109 6.2383 0.12109 9.1211 0 12.719-2.6406 15.121-10.922 2.3984-8.3984-3.6016-19.801-11.641-22.078-9.3594-2.6406-16.559 1.4414-19.922 11.641-0.60156 1.9219-1.0781 3.9609-1.6797 6-3.7148 14.277-3.2383 15 11.883 15.238zm-18.121-19.918c0.12109-13.078-7.3203-18.602-18.719-14.281-10.078 3.7188-15.961 11.641-18.719 21.719-0.96094 3.7188 0.23828 6.6016 4.6797 6.9609 5.3984 0.48047 10.801 0.60156 16.078 1.6797 13.801 2.7617 14.039 2.7617 16.199-10.922 0.24219-1.918 0.36328-4.0781 0.48047-5.1562zm-155.04 9.5977c1.1992 0 2.5195 0 3.7188 0.12109 16.68 0.23828 16.801 0.12109 11.641-15.48-0.60156-1.9219-0.60156-4.4414-1.9219-5.8789-4.4414-5.0391-9.8398-9.3594-16.801-9.4805-7.0781-0.12109-10.68 5.7617-13.559 11.281-1.5586 2.7617-1.9219 6.3594-2.1602 9.6016-0.60156 7.3203 1.3203 9.2383 9.1211 9.6016 3.3633 0.23438 6.7227 0.11328 9.9609 0.23438zm-42.238-0.35938c0.83984 0 1.6797 0.12109 2.5195 0 4.3203-0.71875 10.68 2.0391 12.602-2.1602 2.5195-5.2812-0.83984-11.16-4.4414-15.84-1.8008-2.2812-3.9609-4.3203-6.2383-6-5.0391-3.8398-10.801-4.4414-16.441-1.4414-4.4414 2.2812-7.9219 13.441-6.3594 19.199 1.9219 7.3203 8.1602 5.6406 13.32 6.2383 1.6797 0.125 3.3594 0.003906 5.0391 0.003906zm-26.16 79.199c-19.801-9-36.359-6-50.52 10.441 1.3203 0.83984 2.1602 1.6797 3.2383 2.1602 10.559 5.2812 20.762 10.559 31.32-1.0781 4.1992-4.6836 11.879-5.6445 15.961-11.523zm-80.879 354.48c-2.1602-4.8008-3.6016-9-6-12.719-4.9219-7.8008-13.199-10.32-21.48-10.441-7.9219-0.12109-13.922 4.9219-17.52 12.121-3.1211 6.3594-0.96094 10.078 5.8789 8.3984 11.879-2.7617 22.922-0.71875 34.199 2.5195 1.1992 0.35938 2.3984 0.12109 4.9219 0.12109zm112.56-349.68c-10.922-0.60156-19.078-7.3203-28.078 0.60156-6.8398 6-16.199 8.8789-22.801 16.68 7.0781 2.1602 13.078 4.0781 19.078 5.5195 2.6406 0.60156 6.2383 1.8008 8.0391-1.1992 5.4023-8.7617 15.48-12.363 23.762-21.602zm40.801 123.72c-13.922 12.359-25.441 24.48-36.359 37.68 21.957 5.8828 39.719-11.637 36.359-37.68zm-10.441-120.72c-19.199-5.6406-33.359 0.83984-46.078 20.398 4.1992 0.83984 8.1602 1.9219 12.238 2.3984 3.7188 0.48047 7.0781-0.12109 10.199-3 7.4414-6.7188 15.242-12.719 23.641-19.797zm-76.801 24.121c-19.199-7.9219-39.238-12.84-58.32-22.199-1.3203 7.8008-1.6797 14.52 0.83984 21.602 12.359-8.8789 18.48-9.9609 27.84-2.6406 8.0391 6.2383 15.359 10.078 24.961 3.9609 1.082-0.84375 3-0.48438 4.6797-0.72266zm283.8 86.16c-10.078 14.762-19.68 28.32-28.078 45.84 16.801-5.3984 26.281-14.398 32.039-27.719 2.7578-6.1211 2.8789-11.883-3.9609-18.121zm-293.4-195.24c4.1992 0.23828 10.199-1.6797 16.32-2.7617 2.6406-0.48047 6.3594 1.1992 7.5586-2.3984 1.3203-3.6016-1.3203-6.2383-3.7188-8.5195-2.0391-2.0391-4.0781-4.1992-6.4805-5.7617-11.16-7.3203-22.078-2.0391-23.398 11.16-0.60156 5.7617 1.5586 8.043 9.7188 8.2812zm281.28 83.16c-24.359-3.4805-33 15.238-46.078 27.48 7.1992 0.83984 15.602 3.6016 20.16-1.3203 8.0391-8.6406 17.758-15.719 25.918-26.16zm-191.64 65.402c8.2812 0.12109 15.121-4.3203 15.121-9.7188 0-6.7188-5.7617-12.238-12.84-12.359-8.0391-0.12109-15.238 5.7617-15.719 12.84-0.36328 5.6367 4.7969 9.2383 13.438 9.2383zm168.72 100.8c-10.559 15-19.922 28.078-30 42.359 21.84-3.1172 34.801-20.758 30-42.359zm-274.92-246.48c-1.3203-5.3984-4.5586-7.3203-7.6797-9.1211-11.762-6.8398-23.879-1.1992-25.922 12.121-0.60156 4.1992 0.83984 6.6016 5.6406 4.5586 8.6406-3.5977 17.883-5.2773 27.961-7.5586zm199.32 344.76c-3.3594-0.35938-5.3984 1.9219-7.1992 4.0781-6.2383 7.1992-12.719 14.039-20.281 19.922-1.8008 1.4414-4.6797 3.1211-3 5.8789 1.6797 3 4.8008 3 7.6797 1.8008 11.16-4.5586 19.68-12 23.762-23.52 0.83984-2.5195 1.1992-5.6406-0.96094-8.1602zm-134.88-204.48c6.9609-0.12109 16.199-6.1211 15.602-10.199-0.71875-4.1992-10.922-10.801-16.922-10.801s-10.922 5.2812-10.801 11.398c0.12109 6.0039 4.6797 9.6016 12.121 9.6016zm-119.88 200.28c9.8398 6 17.398 4.1992 24.84-0.48047 7.9219-5.0391 13.922-11.281 13.199-23.039-13.32 7.6797-23.879 17.039-38.039 23.52zm263.64-7.082c17.641 1.9219 32.879-15.719 32.281-37.922-11.281 13.324-21.484 25.324-32.281 37.922zm-182.16-201.24c6.6016 0.23828 14.52-4.3203 14.398-8.5195-0.12109-6.8398-4.9219-8.6406-11.16-8.3984-1.0781 0-2.1602-1.1992-3.2383-1.4414-5.7617-1.4414-11.398 2.0391-12.719 8.1602-1.4414 6.1211 3.2383 7.8008 7.5586 9.2383 1.7969 0.71875 3.957 0.83984 5.1602 0.96094zm44.637 114c-11.281 10.441-21.961 20.16-33.719 30.961 22.32 1.4375 33.359-8.8828 33.719-30.961zm-76.68 64.559c19.922 1.5586 32.762-8.3984 33-24.719-8.3984 3.8398-25.438 16.32-33 24.719zm-22.32-235.32c5.1602 5.6406 9.9609 7.8008 16.199 2.6406 5.0391-4.0781 10.68-7.6797 16.68-11.879-6.1211-4.5586-11.16-9.2383-18-4.0781-5.1562 3.957-9.7188 8.6367-14.879 13.316zm18.48 49.082c1.1992 0 2.5195 0 3.7188 0.12109 4.4414 0.23828 7.4414-1.9219 8.0391-6.1211 0.60156-4.5586-2.3984-6.7188-6.4805-7.5586-3.1211-0.71875-6-0.96094-8.7617-3.7188-3.8398-3.8398-8.5195-1.5586-9.9609 3.7188-1.793 7.3164 3.8477 13.078 13.445 13.559zm326.4 17.758c5.2812-0.23828 12.48-6.9609 12.719-12 0.23828-4.4414-3.8398-7.9219-9.2383-7.9219-7.4414 0-13.078 5.5195-12.84 12.359 0.11719 4.5625 4.0781 7.8047 9.3594 7.5625zm-379.92 203.88c-8.2812 4.6797-15.121 8.5195-21.961 12.359-1.4414 0.83984-2.7617 1.8008-4.1992 2.6406-1.9219 1.1992-3.2383 2.7617-2.8789 5.0391 0.35938 2.6406 2.7617 2.7617 4.8008 3 13.918 1.6797 23.398-6.6016 24.238-23.039zm371.4-340.68c3.2383 4.1992 8.2812 3 12.48 4.3203 7.1992 2.2812 9.4805 0 8.6406-7.1992-0.60156-4.5586-3.3594-7.4414-7.4414-8.8789-4.4414-1.5586-8.0391 0-10.559 3.8398-1.6836 2.3945-3.1211 4.918-3.1211 7.918zm87.238 355.56c-9.8398 10.68-17.281 20.16-24.602 30.48 6.6016 4.0781 11.52 1.5586 14.762-2.7617 5.3984-7.1992 9.4805-15.359 9.8398-27.719zm-117.24-216.96c7.4414 0.48047 13.922-3.9609 14.039-9.3594 0.12109-4.5586-3.7188-7.6797-9.1211-7.8008-6.6016-0.12109-11.16 4.0781-11.281 10.32-0.11719 4.5625 2.043 6.8398 6.3633 6.8398zm79.559-17.277c0.23828-2.6406 1.0781-5.5195-1.0781-7.0781-2.6406-1.9219-5.5195-0.48047-8.0391 0.83984-1.8008 0.96094-3.6016 2.1602-4.6797 3.7188-2.2812 3.3594-2.3984 7.0781 0.48047 10.078 3 3.3594 6.8398 2.2812 10.199 0.71875 3.8359-1.5586 2.1562-5.6406 3.1172-8.2773zm50.16 223.44c16.078-6.8398 21-14.281 17.879-26.16-7.5586 7.9219-12.598 17.039-17.879 26.16zm-439.92-281.16c0.83984-0.23828 1.6797-0.35938 2.2812-0.83984 1.9219-1.5586 3.7188-3.2383 5.3984-4.9219 5.7617-5.5195 5.5195-6.9609-1.3203-10.199-6.7188-3.1211-8.5195-2.0391-8.6406 5.7617 0.003906 3.4805-1.1992 7.4414 2.2812 10.199zm174.36 327.12c7.0781-2.3984 12.238-5.1602 18-5.7617 3.1211-0.35938 4.0781-2.2812 4.1992-5.1602 0-2.1602-0.12109-4.3203-2.2812-5.3984-2.2812-1.1992-4.0781 0.48047-5.5195 1.6797-4.4414 4.1992-9.9609 7.4414-14.398 14.641zm202.2-387.72c-3.2383 0.35938-6.1211 2.1602-7.0781 5.5195-0.83984 2.8789 6.7188 10.801 10.32 11.16 3.6016 0.23828 3.8398-2.5195 4.0781-4.9219 0.48047-5.2812-3.2422-11.281-7.3203-11.758zm-206.28 182.88c-7.4414-1.6797-12.602-1.4414-17.281 1.6797-0.83984 0.60156-1.6797 2.0391-1.6797 3-0.12109 2.0391 1.8008 2.6406 3.3594 2.7617 5.7617 0.59766 10.082-2.4023 15.602-7.4414zm-175.56-167.4c-0.12109-2.1602 1.3203-5.5195-1.8008-6.2383-3.4805-0.83984-4.9219 2.1602-5.5195 5.1602-0.35938 1.5586-0.60156 3.2383-0.35938 4.8008 0.35938 2.7617 0.60156 6.3594 4.3203 6 3-0.23828 2.5195-3.7188 2.8789-6 0.35938-1.1992 0.35938-2.4023 0.48047-3.7227zm239.16-300.24c-2.6406 2.1602-3 4.8008-1.3203 7.5586 0.12109 0.23828 1.8008 0.23828 2.1602-0.23828 2.3984-2.6406 1.6797-5.0391-0.83984-7.3203z"/>
 <path d="m861.6 972.96c-7.8008-6.1211-15.48-12.48-23.52-18.238-18.48-13.32-38.762-21.602-62.039-18-20.52 3.1211-40.199 10.559-55.559 23.879-14.16 12.238-24 29.039-27 48.238-2.6406 16.32 1.3203 31.441 13.199 43.801 15.719 16.441 32.16 31.559 55.441 36.48 18 3.8398 34.922 2.0391 50.16-8.7617 5.3984-3.8398 10.922-7.6797 16.199-11.641 15.121-11.16 20.52-26.762 22.559-44.281 0.60156-5.0391 0.12109-9.8398-1.9219-14.762-4.4414-10.922-10.68-20.879-18.48-29.398-21.719-23.879-61.68-15.719-75.961 15-10.199 21.84-7.6797 37.441 7.9219 50.879 10.441 9 21.719 9.7188 33.84 4.3203 11.879-5.2812 17.52-14.879 18.602-27.48 0.48047-5.2812-0.83984-9.9609-4.4414-13.922-3.6016-3.9609-7.9219-6.4805-13.32-4.5586-5.1602 1.8008-7.5586 6.2383-8.5195 11.398-0.23828 1.5586-0.48047 3.2383 1.3203 4.4414 1.5586 1.0781 7.9219-1.1992 3.4805 4.1992-2.8789 3.4805-6.4805 3.2383-9.6016-0.48047-6.9609-8.5195-1.1992-23.879 9.7188-25.801 11.281-1.9219 19.922 3.9609 23.039 15.121 2.6406 9.3594 5.6406 18.84-1.3203 27.359-6.9609 8.3984-14.52 16.801-25.922 18.602-27.84 4.3203-44.762-15.238-46.199-34.68-3-39.359 28.68-66.719 62.52-62.398 15.602 2.0391 28.32 9.4805 35.52 24.359 0.96094 1.9219 1.8008 3.7188 3.1211 5.3984 17.16 23.16 14.16 54.602-6.6016 74.641-8.7617 8.5195-19.199 14.762-28.801 21.961-3.8398 2.8789-9 4.5586-13.801 5.5195-23.762 4.6797-46.199 3.4805-66.359-12.48-10.199-8.0391-20.398-15.84-28.199-26.281-16.078-21.602-17.762-52.32-0.96094-77.398 0.23828-0.35938 0.60156-0.60156 0.71875-0.96094 15.238-28.32 42.238-39.121 71.16-45.719 23.16-5.2812 44.52 2.5195 63.961 15.359 10.441 6.8398 18.84 16.078 27.48 25.199-0.59375 0.36328-0.95703 0.72656-1.4336 1.0859z"/>
 <path d="m698.76 891.72c1.9219 1.1992 2.0391 2.7617 1.5586 4.4414-4.8008 14.879-11.52 28.559-24.719 38.16-10.441 7.6797-20.762 15-32.641 20.52-27.238 12.719-60 1.0781-75.359-14.398-1.8008-1.8008-3.3594-3.7188-5.1602-5.5195-17.879-18-23.16-48.961-12-71.52 7.6797-15.359 19.801-24.238 36.84-29.039 23.641-6.7188 43.68 0 62.398 12.602 29.641 19.922 20.52 58.441-0.96094 74.879-9.6016 7.3203-19.922 11.281-32.52 10.199-16.199-1.4414-27.48-8.6406-33.84-23.52-0.83984-1.9219-1.6797-3.8398-2.5195-5.7617-8.8789-18.48-5.2812-31.801 11.641-42.84s36.961-4.5586 44.039 14.398c0.96094 2.7617 1.6797 5.5195 2.5195 8.3984 2.8789 10.559-2.6406 20.281-13.078 23.281-4.6797 1.3203-9.3594 1.0781-12.48-3.2383-3-4.0781-4.8008-8.8789-2.8789-14.039 1.0781-2.8789 3.2383-5.3984 6.6016-4.0781 4.3203 1.5586 2.6406 4.3203 0.60156 6.8398-1.9219 2.3984-3.7188 5.1602-0.71875 7.6797 3.6016 2.8789 7.8008 2.6406 11.52-0.12109 5.0391-3.8398 6.7188-12.48 3.8398-19.559-2.7617-6.7188-7.3203-12.121-13.441-16.078-1.3203-0.96094-2.8789-2.0391-4.4414-2.1602-10.32-1.1992-18.719 3.3594-25.68 10.441-6.3594 6.3594-9.2383 13.922-5.6406 22.801 2.1602 5.3984 4.3203 10.922 7.1992 15.961 10.559 18 38.16 21.48 54.719 8.5195s16.801-30.602 16.078-48.48c-0.35938-7.3203-6.1211-13.199-11.641-17.281-21.84-15.961-50.641-22.801-75.121-3.3594-16.32 12.961-26.281 40.68-20.398 62.039 0.96094 3.4805 2.6406 7.1992 5.0391 9.9609 10.441 12.602 22.078 23.398 38.16 29.16 18.719 6.7188 35.879 4.8008 52.801-4.9219 10.559-6 20.398-12.961 29.398-21.121 7.4414-6.8398 12.602-15.48 15.84-25.078 0.96484-3.125 0.003906-7.3281 4.4453-8.168z"/>
 <path d="m540 1028.6c-4.3203 5.3984-9.6016 9.1211-15.719 11.52-24.48 9.7188-47.16 8.0391-70.199-6.2383-31.68-19.68-41.879-66.719-26.762-98.641 9-18.961 34.441-32.641 55.801-29.879 9.6016 1.1992 18.84 2.6406 27.48 7.6797 8.8789 5.1602 16.32 11.16 19.801 21.48 2.5195 7.4414 7.4414 13.68 7.8008 22.199 0.60156 16.922-5.7617 30.121-19.441 39.602-10.801 7.5586-22.199 12.961-36.121 10.801-18.602-2.8789-34.441-22.32-32.039-41.16 1.0781-8.3984 0.60156-18.121 9.9609-23.039 12-6.2383 24.238-11.52 38.16-6.1211 9.3594 3.7188 13.441 9.8398 12.602 19.078-0.96094 9.6016-7.9219 17.398-17.281 18.48-4.5586 0.60156-9.2383 0.60156-13.559-1.4414-3.4805-1.6797-4.5586-4.8008-5.0391-8.1602-0.35937-2.7617 1.0781-4.8008 3.6016-6 3.7188-1.8008 6.8398 0.23828 5.8789 4.6797-0.83984 3.7188 0.35938 4.4414 3.1211 4.9219 7.4414 1.1992 15.602-3.9609 17.52-10.922 1.5586-5.7617-2.5195-13.078-9.1211-16.078-11.879-5.2812-22.68-1.3203-31.32 6.2383-8.5195 7.4414-9.6016 18.48-6.6016 28.922 6.4805 22.559 27.359 30.961 48.48 20.398 14.641-7.3203 24.961-17.281 26.16-35.039 1.3203-19.078-14.641-43.68-33.602-47.398-12.961-2.5195-26.398-4.6797-39.359 1.3203-21.84 10.078-31.199 28.441-32.281 51-1.4414 30.719 11.762 54.48 39.961 67.559 21.602 9.9609 43.68 9.4805 64.078-4.5586 1.6797-1.1992 3.1211-3 5.3984-2.5195 0.48047 0.11719 1.1992 0.59766 2.6406 1.3164z"/>
 <path d="m546.36 1079.8c9.6016 6.9609 18.84 13.32 29.039 18.121 15 7.0781 29.762 7.4414 44.281-1.0781 5.7617-3.3594 11.52-6.7188 17.52-9.7188 42.121-21.359 38.641-79.441 7.4414-102-14.52-10.559-32.281-13.199-49.801-4.8008-18.238 8.6406-33.961 30.121-31.68 49.68 1.6797 14.762 14.039 29.762 28.32 33.238 13.801 3.2383 33.48-4.5586 40.801-16.32 5.0391-8.0391 3-26.039-3.7188-32.879-5.1602-5.2812-14.762-7.0781-20.762-3.8398-7.5586 4.0781-10.68 11.281-8.6406 20.039 0.60156 2.3984 1.0781 4.9219 1.9219 7.1992 1.1992 3.6016 4.3203 5.2812 7.8008 5.0391 3.7188-0.23828 6.2383-2.1602 5.2812-6.6016-0.48047-2.2812 0-4.3203 2.8789-4.1992 2.5195 0.12109 3.3594 2.1602 3.7188 4.3203 0.96094 5.2812-1.3203 8.7617-5.8789 11.281-6.1211 3.2383-12.84 2.6406-17.281-1.6797-11.641-11.281-6.6016-34.559 9-42 8.6406-4.1992 16.68-3.7188 24.719 1.9219 15.48 10.801 18.359 29.879 6.2383 44.52-5.3984 6.4805-11.879 11.879-19.078 16.078-15.359 9.2383-36.359 5.2812-48.84-9.1211-4.3203-5.0391-7.9219-10.68-11.039-16.68-5.3984-10.559-5.5195-21 0.48047-31.078 8.5195-14.398 18.121-27.359 33.961-35.52 19.32-9.9609 50.879 0.96094 61.441 12.48 26.52 28.922 26.762 80.16-10.559 103.8-8.8789 5.6406-17.879 10.68-27.238 15.121-11.398 5.3984-23.879 4.9219-35.398 0.60156-12.48-4.6797-24.121-11.52-34.32-20.281-1.0898-0.96484-2.0469-2.2852-0.60938-5.6445z"/>
 <path d="m862.92 971.88c8.8789 4.6797 13.922 13.078 18.719 21.121 9.3594 15.719 16.559 32.641 18.84 51.121 1.1992 9.8398 1.1992 19.441-4.5586 29.039-3-4.4414-1.8008-8.1602-1.3203-11.641 2.5195-17.16-2.1602-32.762-8.5195-48.359-6-14.879-15.84-27.121-24.48-40.199 0.47656-0.35938 0.83984-0.72266 1.3203-1.082z"/>
 <path d="m562.08 547.2c-9.1211 0-12.359-3.8398-12.961-15.359-0.48047-8.1602 8.2812-14.16 18.121-12.602 4.4414 0.71875 8.7617 2.7617 12.84 4.6797 7.9219 3.6016 9 10.559 2.3984 16.32-5.6367 4.6836-12.238 7.082-20.398 6.9609zm2.7617-5.3984c4.4414-0.48047 9.7188-1.3203 14.281-4.6797 1.9219-1.4414 2.8789-3.9609 0.83984-5.2812-5.1602-3.2383-10.32-7.1992-17.16-6-5.1602 0.96094-8.7617 5.0391-8.0391 9.3594 0.83984 5.1602 4.4375 6.6016 10.078 6.6016z"/>
 <path d="m613.8 518.64c9 0.23828 14.641 4.6797 14.641 11.641 0 11.52-8.3984 19.559-19.922 19.078-8.8789-0.35938-15.602-6.6016-15.48-14.52 0.12109-9.9609 8.4023-16.441 20.762-16.199zm-0.35938 5.6406c-7.0781-0.12109-15.84 6.2383-15.719 11.281 0.12109 3.8398 6.6016 8.2812 12.359 8.5195 6.4805 0.23828 12.84-5.1602 12.602-10.801-0.24219-5.8828-3.2422-8.8828-9.2422-9z"/>
 <path d="m654.96 517.92c10.68 0.35938 18.359 6.7188 18.121 14.762-0.35938 7.4414-9.7188 13.801-19.68 13.441-10.441-0.48047-15.238-5.6406-14.762-15.719 0.35938-8.6445 5.7578-12.848 16.32-12.484zm-0.24219 22.918c7.3203 0 12.602-3.8398 12.719-9.1211 0.12109-4.9219-6.1211-9.3594-12.84-9.1211-6.6016 0.23828-11.16 4.9219-10.922 11.16 0.125 4.6836 3.8438 7.082 11.043 7.082z"/>
 <path d="m546.24 474.24c2.8789-0.60156 3.9609-1.0781 5.1602-1.0781 1.9219 0.12109 3.9609 0.48047 7.6797 0.96094-4.6797 3-7.7969 2.3984-12.84 0.11719z"/>
</svg>
