<?xml version="1.0" encoding="UTF-8"?>
<svg width="1200pt" height="1200pt" version="1.1" viewBox="0 0 1200 1200" xmlns="http://www.w3.org/2000/svg">
 <path d="m187.82 508.92c60.422 47.672 122.21 45.094 166.31 112.31-1.0312 6.4219-2.4844 13.922-0.84375 28.266-6.375 1.8281-12.656 4.1719-18.656 7.4062-6.9844 3.75-1.3594 14.297 5.6719 10.594 17.812-9.5156 37.125-13.359 54.562-3.0938 2.2969 1.6875 9.6562 5.0625 12 9.6094 4.5 8.7188 24.516-1.5938-2.7188-17.906-9.6094-7.0781-22.828-11.016-39.047-9-3.4688-33.844 13.312-68.766 37.219-92.672 11.578-11.344 34.031 9.7969 45.094 21.609 2.7656 3.6094 12.75 12.422 20.016 30.281-14.062 11.953-22.453 33.188-17.953 52.922-21.234-2.1094-38.062 20.484-25.219 33.516 9.5625 9.7031-6.4688 14.578 0.70313 28.688 0.84375 1.6406 2.0625 3 3.4219 4.1719-4.4531 4.9688-9.5625 11.016-18 16.641-33 22.078-84.188 12.938-105.66-14.438-7.2656-9.0938-4.875-14.672 0.9375-24.188 4.125-6.75-6.0938-13.031-10.266-6.2344-3.2812 5.4375-7.4062 12.188-7.1719 20.109 0 22.359 42.188 57.141 96.516 47.297-6.2812 56.297 34.453 97.125 56.859 92.625 41.812 121.64 48.047 158.48 73.688 203.39 29.859 52.359 77.719 63 106.64 47.625 27.516 1.5 49.172-10.594 61.359-34.547 22.453-44.016 3-91.125-19.406-133.18 5.6719-9.5156 92.672-210.28 101.53-230.06 11.766-4.2188 20.297-9.3281 30.984-15.797 0.70312 1.2656 1.3594 2.4844 2.2969 3.7969 4.5938 4.3594 5.1562 5.2031 6.75 6.2344l-0.046874 0.09375c3.6562 2.9531 11.016 4.8281 19.359 2.5312 4.3125 10.641 9.8906 20.953 16.547 30.703-39.375 206.26-47.25 304.6-113.77 310.64-7.875 0.70312-6.8438 12.609 1.0781 11.953 77.438-6.8906 83.672-108.75 122.34-309.79 1.5469 1.8281 2.9531 3.75 4.5469 5.5312 30.891 33.75 77.625 54.328 89.766 54.328 10.594 0 17.062-9.4688 21.469-13.594 28.453-25.828 47.156-59.203 52.547-93.984 1.875-12.656 3.6094-25.266-4.2188-31.875 22.359-27 21.656-81.516-9.75-95.438-27.562-12.328-84.422 10.219-112.64 26.297 18.797-27.469 47.578-42.938 74.859-61.406 6.5625-4.4531-0.1875-14.391-6.75-9.9375-35.344 23.906-71.578 42.703-89.297 84.844-8.3906 6-16.266 12.469-23.531 19.266-7.5469-9.2344-20.203-12.141-32.344-4.8281-1.4531-10.219-3.7031-20.625-6.7969-31.031 23.391-104.06-88.406-133.55-10.547-336.79 28.734-73.969 51.469-101.91 63.375-103.41 1.3125-0.14062 4.7344-0.60938 9.0469 5.5781 6.8438 9.6562-3 21.375-31.125 129.71-11.578 44.766-9.8906 87.891 27.516 77.156 30.516-8.9531 38.016-43.359 57.422-88.453 11.484-26.625 28.172-74.109 47.625-85.547 38.625-23.109-29.578 140.44-24.891 186.19 5.2031 47.25 50.109 23.906 77.016-38.766 10.359-24.938 41.062-122.11 63-114.98 19.359 6.1875-11.906 112.55-17.531 131.81-14.109 47.719-33.984 88.734-59.062 121.97-4.7812 6.3281 4.7812 13.594 9.5625 7.2188 25.922-34.406 46.453-76.688 60.984-125.9 10.219-35.203 41.438-136.4 9.6094-146.58-35.016-11.109-62.109 84.188-77.672 121.74-11.391 26.484-20.812 35.578-22.078 37.734-1.8281 2.1094-3.6094 4.2188-5.5312 6.2812-9.5156 10.125-17.109 13.688-20.484 12.469-23.531-7.7812 29.766-148.6 30.188-185.86 0.28125-27.703-13.641-32.953-29.25-23.672-22.734 13.359-38.062 57.609-52.5 91.125-21 48.703-26.578 74.859-49.781 81.656-34.781 9.8906-12.469-62.109-9.75-75.375 11.25-56.203 39.891-108 26.531-126.89-9-12.844-22.125-15.188-37.172-1.5469-35.719 20.156-51.234 78.141-64.781 112.22-65.344 166.78 1.7344 206.53 9.8906 282.61-13.031-23.906-40.406-64.266-67.5-67.172-31.594-3.3281-62.297 38.25-60.609 70.547-7.6406 0.42188-10.922 4.5938-15.188 10.547-24.844 37.219-30.844 85.922-22.969 118.59 1.9688 16.922 2.625 23.344 18.938 28.969 32.766 8.8594 54.281 11.719 87.047 7.6406-0.79688 1.5938-87.375 176.16-87.797 180-67.453-110.16-11.625-17.906-68.203-114.89 12.281-8.4844 32.484-23.859 35.625-38.391 1.4531-5.8125-0.42188-9.4688-4.2188-13.781-13.125-13.922-24.984-25.125-41.016-32.344 8.7188-13.828 24.938-56.438 24.844-81.797 0-15.094-5.3906-23.531-23.672-28.266-7.6875-1.9688-10.688 9.6562-3 11.625 13.125 3.375 14.672 7.3125 14.672 16.688 0.09375 24.656-16.969 79.922-42.844 94.219-19.641 10.734-23.625-0.9375-37.219-8.6719 4.7812-25.688-13.5-23.109-21.094-26.953-11.344-5.7656-10.078-12.047-10.875-13.641-10.547-21.562 2.2031-53.531 40.031-62.672 7.9219-1.875 4.5938-13.781-2.8125-11.672-8.8594 2.1094-16.359 5.625-23.016 9.7969-5.5312-12.562-11.953-20.578-20.25-29.953-14.391-66.703 23.812-119.02 28.5-187.74 5.3906-79.734-35.438-155.26-92.016-210.89-5.7188-5.5781-14.062 3-8.4375 8.5781 54.234 53.344 93.609 125.63 88.453 201.52-4.2188 62.156-37.406 111.23-30.891 174.47-15.375-13.219-34.688-23.438-49.172-9.2812-12.938 12.938-23.578 29.062-30.984 46.078-45.516-48-101.16-49.688-153.98-89.203-113.16-84.281-126.61-291.24-38.859-390.71 9.1875-10.359 24-14.109 22.406-13.406 30.75-9 89.344 11.484 119.77 27.422 7.0312 3.7031 12.562-6.9844 5.5781-10.641-58.172-30.516-112.88-33.516-127.36-28.547-3.3281 0-19.547 6.0938-29.391 17.25-101.67 115.41-80.109 320.39 26.906 404.72zm667.45 151.03c26.906-2.9062 54.094-1.6406 75.141 0 7.9219 0.51562 8.8125-11.391 0.9375-11.953-21.516-1.6406-49.266-2.9062-77.062 0-0.14062-0.65625-0.375-1.2656-0.5625-1.875 28.922-28.219 69.703-50.109 110.06-58.734 21.047-4.5 40.312-6.6562 49.828 13.031 8.0625 16.734 7.125 47.016-8.5781 64.641-9-5.1094-17.766-9-34.359-12.516-7.875-1.5469-10.172 10.125-2.4844 11.766 17.625 3.6562 25.219 7.6875 36.375 14.344 3.1875 2.5781 4.5469 0.046875 4.2188 9.5156-1.4531 33.891-18.047 71.203-50.25 100.41-0.9375 0.89062-2.3906 2.3906-3.9375 3.9844-1.0312-12.609-9.8906-29.156-25.594-40.219-24.422-16.5-50.953-11.672-86.109-57.703 8.25-10.5 12.281-21 12.375-34.688zm-14.016 13.359c-11.156 31.594-40.734 31.172-37.219-2.2969 4.1719-45 51.938-42.094 37.219 2.2969zm-161.53-2.2031c-15.75-1.0312-34.875 5.2969-44.812 16.359-0.1875-1.5938-1.6875-11.719-1.2188-8.5781-6-36.797-0.14062-74.812 21.422-107.11 3.8438-5.4375 3.9844-5.0625 6.5625-5.4375 8.0625 1.125 24.703 0.51562 54.141 18.562 6.75 4.125 13.031-6.0938 6.2812-10.266-21.094-12.891-36.469-17.25-49.828-19.125-2.0625-26.672 25.688-65.391 50.953-59.203 22.172 5.25 72 67.5 81.094 138.84-14.625-12.516-21.516-21.375-61.312-47.203-6.6562-4.3125-13.172 5.7656-6.5156 10.078 44.578 28.922 59.438 46.031 62.953 49.078-8.8125 14.391-7.1719 24.75-7.6875 27.844 0 0.14062-0.046875 0.28125 0 0.375-7.9219 2.2031-16.078 4.6875-24.234 6-47.344 6.9375-60.797-8.7656-87.797-10.219zm-62.016 214.97c34.219 54.938 82.969 127.26 54.844 182.48-21.422 42.141-84.516 38.578-120.52-20.953-28.312-46.781-43.688-109.17-63.562-161.06-4.8281-12.609-11.484-30.094-18.891-50.062 9.0938-9.9375 17.672-21.938 19.266-37.031 26.203 10.312 50.391 5.9062 73.406-7.5938 36.328 62.344 25.172 45.562 55.453 94.219zm-126.47-170.44c9.375 6.2344 21.188 22.266 47.203 7.9219 6.8438-3.7969 12.234-8.2969 16.734-13.219 15.422 6.2344 26.812 17.156 39.609 30.703 0.5625 0.65625 1.4062 1.5938 1.4062 3.0469-2.2969 10.594-53.766 68.25-107.72 41.859-4.5469-30.938-27.891-40.734-26.625-57.984 0.09375-1.5469-0.42188-2.9531-1.2656-4.0781 12.75 0.70312 22.828 4.3125 30.656-8.25zm-14.062 79.312c-0.1875 19.547-17.672 34.312-21.516 38.672-11.953 12.188-17.484 17.109-31.453 6.0938-21.797-17.953-31.969-47.578-27.141-77.906 19.781-6.6094 30.234-16.406 43.875-32.25 1.5469-1.7812 7.875-3.8438 9.4688-4.4062-2.7656 6.0469 2.0156 17.953 6.3281 24.703 3.7969 6.0469 20.438 22.5 20.438 45.094z"/>
 <path d="m383.34 500.95c-16.547 18-40.688 11.859-65.156 3.5625-51.938-17.625-98.719-44.156-125.44-91.875-3.8438-6.8906-14.344-1.0781-10.453 5.8594 21 37.594 65.25 79.266 139.18 104.44 17.625 6 42.047 13.406 59.859 4.0312 33.281-16.641 54.328-101.2 55.641-143.06 3-30.75-0.46875-60.75-19.078-97.969-3.6094-7.125-14.297-1.6875-10.734 5.3906 13.359 26.719 20.766 54.938 18.609 85.031-2.8594 39.234-19.031 99.047-42.422 124.6z"/>
 <path d="m516.56 141.94-28.266 37.078c-4.875 6.4219 4.8281 13.5 9.5625 7.2656l28.266-37.078c4.7812-6.3281-4.7812-13.547-9.5625-7.2656z"/>
 <path d="m511.69 212.21c19.922-7.5938 39.516-16.547 58.172-26.578 6.9844-3.75 1.3594-14.297-5.6719-10.547-18.234 9.7969-37.312 18.516-56.766 25.922-7.3125 2.7656-3.2812 14.062 4.2656 11.203z"/>
 <path d="m515.16 240.52c38.25 4.5469 55.828 6.8438 57.609 6.8438 7.5 0 8.1094-11.109 0.70312-11.953l-56.906-6.7969c-7.7812-0.98438-9.3281 11.016-1.4062 11.906z"/>
</svg>
