<?xml version="1.0" encoding="UTF-8"?>
<svg width="1200pt" height="1200pt" version="1.1" viewBox="0 0 1200 1200" xmlns="http://www.w3.org/2000/svg">
 <path d="m500.44 1198.9c-52.688-1.3594-105.94-4.3594-138.1-7.8281-9.9844-1.0781-29.953-2.4375-44.344-3.0469-33.422-1.4531-47.578-3.4688-61.922-8.8594-20.344-7.6875-23.25-12.516-14.016-23.531 4.875-5.8125 28.219-18.703 46.688-25.828 8.2969-3.1875 20.109-8.0156 26.203-10.688 11.812-5.2031 18.281-7.4531 42.328-14.578 8.2969-2.4844 25.406-9.4688 37.922-15.516 25.594-12.328 43.875-17.672 75.047-21.797 27.938-3.7031 35.766-6.9844 44.906-19.031 11.016-14.438 25.359-48.281 28.734-67.781 0.75-4.4531 2.0625-9.4219 2.9062-11.109 0.84375-1.6406 2.0156-7.125 2.625-12.094s2.5312-17.25 4.2656-27.234c2.625-15.141 3.0469-35.953 2.625-125.53-0.28125-59.062-0.9375-107.34-1.5-107.34-2.9531 0.09375-35.391 18.797-44.672 25.734-5.9062 4.4531-17.672 11.297-26.109 15.281-17.625 8.2969-22.5 13.078-52.5 51.656-7.3125 9.4219-16.219 23.484-19.734 31.266-11.672 25.734-17.719 34.5-21.328 30.891-2.1562-2.1562 5.1562-26.156 12.469-40.828 7.0312-14.016 28.312-45.562 30.797-45.562 0.70312 0 2.9531-2.9531 5.0625-6.5625 5.3438-9.2812 16.219-18.562 30.328-25.969 6.6562-3.4688 18.797-11.297 26.953-17.344s24.047-15.75 35.297-21.516c25.125-12.891 34.969-19.172 42.047-26.672l5.4375-5.8125-6.375-27.938-3.7031 6.9375c-2.0156 3.7969-3.75 8.5312-3.7969 10.453-0.046875 2.1562-1.6406 3.5156-4.125 3.5156-2.2031 0-4.0312 1.3594-4.0312 2.9531 0 4.3594-10.078 8.8594-24.562 10.969-22.594 3.2812-68.953 22.875-81.516 34.5-4.5938 4.2188-11.859 10.031-16.172 12.938-13.594 9.0938-27.797 19.5-33 24.188-8.25 7.4531-35.062 36.375-38.297 41.391-1.6406 2.5312-4.5938 6.7031-6.5625 9.2344-1.9219 2.5312-3.5156 5.4844-3.5156 6.5625s-1.9688 6.375-4.3594 11.766-5.1562 13.031-6.0938 16.875c-9.2812 37.453-18.75 64.828-28.547 82.688-2.1094 3.8906-7.5469 13.875-12.047 22.172-7.1719 13.219-16.125 26.484-22.547 33.281-4.9688 5.2969-15.938 11.578-28.594 16.453-11.672 4.5-17.906 5.4375-40.969 6.2344-40.172 1.4062-59.156-2.3438-73.406-14.625-10.547-9.0938-12.562-4.875-3.9844 8.3438 3.2344 4.9688 10.688 11.531 19.172 16.875 7.6406 4.7812 13.875 9.7969 13.875 11.109s-3.6562 4.0312-8.0625 6.0469c-9.75 4.4062-14.25 8.9062-8.7188 8.7188 2.0156-0.046875 18.422 1.0781 36.422 2.5312 47.672 3.8438 71.812-0.1875 99-16.641 7.0312-4.2656 13.406-7.7344 14.156-7.7344s4.7344-2.7656 8.8594-6.1875c5.2031-4.3125 10.969-13.078 18.75-28.734 6.1875-12.375 12.891-24.328 14.859-26.578 2.0156-2.2031 8.7188-11.766 14.859-21.188 6.1875-9.4219 12.516-18.703 14.062-20.672 3.1875-3.9844 11.484-4.7812 11.484-1.1719 0 3.8438-12.234 28.078-20.203 39.984-4.0781 6.0938-11.953 20.625-17.531 32.25-13.219 27.75-17.25 31.547-53.906 50.672-24.375 12.703-51.75 17.109-93.703 15.047-72.938-3.6094-76.078-4.2656-70.641-14.438 1.5469-2.9062 6.1406-7.1719 10.125-9.5156l7.3125-4.2188-9.2812-7.4062c-5.1094-4.0781-10.781-9.0938-12.609-11.203-4.7812-5.4844-7.875-18.375-5.7656-23.953 0.98438-2.5781 1.2188-5.2031 0.5625-5.8594s0.51562-1.3125 2.6719-1.4531c5.5312-0.32812 9.75 0.42188 10.922 2.0156 0.5625 0.75 7.8281 5.3906 16.125 10.312l15.141 8.9531 28.875 0.70312c24.656 0.60938 30.844 0.09375 42.469-3.4219 16.453-5.0156 28.547-13.406 35.859-24.891 15.703-24.609 40.969-80.578 40.969-90.703 0-3.3281 9.4688-34.219 15.609-50.953 2.8594-7.7812 8.1094-18.656 11.625-24.188 10.406-16.266 44.156-48.328 68.438-65.062 12.234-8.4375 22.734-15.844 23.25-16.453 0.5625-0.60938 4.5938-4.2188 9-7.9688l7.9688-6.8438-7.9688 1.5469c-55.219 10.594-93.328 3.4219-142.08-26.859-24.047-14.953-42.469-52.266-42.609-86.344-0.09375-27.656 6.4688-45.562 24.844-67.875 14.719-17.859 45.141-36.984 65.766-41.391 22.359-4.7812 64.547-1.5938 86.625 6.5156 25.641 9.4219 34.219 15.984 46.828 35.859 1.6406 2.625 8.625 10.219 15.469 16.875 11.953 11.625 20.672 22.641 37.969 48.141 7.6875 11.297 20.016 23.438 23.859 23.438 0.98438 0 1.2188-2.9531 0.46875-6.5625s-2.6719-15.328-4.3125-26.062c-5.25-34.547-8.6719-42.234-29.672-66.609-22.125-25.641-37.266-39.047-46.266-41.016-3.6094-0.79688-15.703-4.4062-26.859-8.0625-17.719-5.7656-28.781-10.641-54.328-23.672-3.3281-1.6875-13.125-6-21.797-9.5625s-19.734-9.3281-24.562-12.797-15.891-11.391-24.562-17.578-18.703-12.797-22.266-14.672c-11.953-6.1875-31.641-26.812-43.828-45.938-6.6094-10.359-12.609-19.312-13.359-19.875s-7.4062-10.078-14.859-21.188c-21-31.453-27.328-46.688-37.172-89.719-2.1562-9.4219-6.2344-25.781-9.0469-36.281-2.8125-10.547-5.8594-23.25-6.75-28.219-2.5312-14.344-1.9219-42.609 1.125-49.828 2.4844-5.8594 2.2969-7.1719-1.5-13.359-5.7656-9.3281-5.3438-14.203 1.7344-20.109 9.8906-8.2969 15.375-9.8438 95.859-26.578 23.297-4.8281 38.484-6.7969 77.625-10.078 20.531-1.7344 45-3.9844 54.422-5.0625 41.203-4.4062 96.141-6.2812 154.45-5.0156 33.281 0.70312 63.188 1.6875 66.516 2.1562s21 1.3594 39.328 1.9219c35.719 1.1719 73.406 4.1719 89.719 7.125 5.5312 0.98438 15.094 2.3906 21.188 3.0469 10.172 1.125 38.578 6.0469 82.688 14.25 9.4219 1.7344 25.781 5.3438 36.281 7.9219 10.547 2.625 25.5 6.2344 33.281 8.0625s19.547 4.6406 26.203 6.2344 18.891 4.3594 27.234 6.0469c16.688 3.4688 25.453 7.9688 33.188 17.203 6.6562 7.9219 6.4688 11.672-0.75 14.391l-5.8594 2.2031 0.60938 20.297c0.60938 19.453 0.28125 21.422-8.4375 47.531-4.9688 14.953-9.3281 28.594-9.7031 30.234-0.32812 1.6406-3.4219 9.1875-6.8906 16.688-3.4219 7.5-6.2812 14.484-6.2812 15.516 0 3.8906-22.594 39.984-33.75 53.953-21.188 26.531-50.297 59.906-61.5 70.453-6.2812 5.9062-18.328 14.062-27.984 18.938-9.3281 4.6875-21.703 11.578-27.562 15.281-5.8594 3.75-11.062 6.7969-11.578 6.7969s-5.25 2.625-10.547 5.8125-17.156 8.2969-26.344 11.297c-10.547 3.4688-22.359 9.3281-31.828 15.891-22.922 15.797-31.312 20.578-42.609 24.328-5.6719 1.875-11.438 4.7344-12.75 6.3281s-3.4219 2.9531-4.6875 3c-4.9219 0.1875-17.203 13.781-25.172 27.844-4.5938 8.1562-8.3438 15.844-8.3438 17.156s-3.9844 10.547-8.8594 20.484-9.9844 21.75-11.391 26.156c-1.4062 4.4531-3.2344 10.312-4.125 13.125-2.2031 7.0312-4.3594 19.688-4.9219 29.25-0.28125 4.4531-0.60938 9.3281-0.75 10.828-0.1875 2.1094-3.0938 2.5781-12.281 1.875-6.6094-0.46875-12.703-1.5469-13.547-2.3438-5.0625-5.0625 4.2656-60.047 12.328-72.891 1.4062-2.2031 3.7031-7.6406 5.1094-12.094s3.2344-8.9531 3.9844-10.078 3-6.3281 4.9688-11.625c3.5625-9.7031 16.078-29.578 20.156-32.062 1.2188-0.75 4.9219-3.7031 8.25-6.5625 6.7031-5.8125 31.031-18.047 40.031-20.156 3.1875-0.75 10.406-4.7344 16.125-8.9062 18.75-13.641 31.078-20.672 47.016-26.812 18-6.9375 35.531-15.891 50.062-25.688 5.5312-3.7031 17.062-10.266 25.594-14.578 17.578-8.8594 31.734-21.797 48.375-44.203 6.1875-8.2969 17.25-21.938 24.656-30.234s15.516-18.281 18.047-22.172 7.0312-10.688 9.9375-15.141c6.8906-10.5 21.984-42.844 27.75-59.484 2.4844-7.2188 7.125-20.344 10.266-29.25 5.9062-16.641 7.0312-22.969 8.8125-50.203 0.5625-8.7656 1.9688-17.016 3.0938-18.375 2.7188-3.2812 0.46875-8.5781-4.8281-11.438-2.3438-1.2656-11.578-3.8438-20.438-5.7188s-29.719-6.7031-46.359-10.688c-49.078-11.766-71.344-16.641-92.766-20.344-11.109-1.9219-26.531-4.7344-34.266-6.2344-20.625-4.0781-77.578-10.359-116.95-12.891-53.344-3.4688-189.56-5.0156-218.76-2.4844-116.53 10.125-146.02 13.734-185.48 22.828-38.062 8.7656-52.406 13.219-52.406 16.266 0 5.1094 7.7812 14.109 15.094 17.438 4.4531 2.0625 15.375 5.2969 24.234 7.2188s29.297 6.6094 45.375 10.453c44.438 10.594 44.203 10.547 62.484 13.875 9.4219 1.7344 20.766 3.9844 25.219 5.0156 16.922 3.8906 84.141 12 117.94 14.203 19.406 1.2656 36 2.7188 36.844 3.2812 2.2031 1.3594 94.453 1.125 107.06-0.28125 5.6719-0.65625 32.766-2.5312 60.141-4.1719 74.016-4.5 96-7.875 157.87-24 11.109-2.9062 32.25-6.6094 47.062-8.25 26.109-2.9062 34.266-5.3906 44.484-13.312 10.875-8.4844 14.484-0.1875 4.3125 9.9844-6.8906 6.8906-26.297 13.359-46.453 15.422-7.2188 0.75-21.703 3.6562-32.25 6.5156-88.594 23.906-88.969 23.953-212.72 33.141-95.719 7.125-224.86-0.79688-314.53-19.266-7.7812-1.5938-23.344-4.6875-34.641-6.8906-11.297-2.1562-23.531-4.9688-27.234-6.1875-8.3438-2.7656-54.281-13.594-65.156-15.328-9.1406-1.4531-25.266-6.7969-28.125-9.3281-4.0781-3.6094-5.1562-1.1719-5.1562 11.953 0 14.203 7.8281 56.203 13.266 71.391 1.7344 4.8281 3.4688 10.312 3.8906 12.188 1.7344 8.2969 15.516 48.844 20.203 59.391 2.8125 6.375 7.3594 14.531 10.125 18.141 2.7188 3.6094 4.9688 7.5 4.9688 8.6719s0.75 2.1562 1.6875 2.1562 2.6719 2.0625 3.8438 4.5469c1.1719 2.4844 10.172 15.422 20.016 28.734s19.359 26.484 21.141 29.25 5.25 7.3125 7.7344 10.078c2.4375 2.7656 5.5312 6.4219 6.7969 8.1562 1.2656 1.6875 13.641 10.688 27.516 19.922 13.875 9.2812 28.5 19.406 32.484 22.547 4.0312 3.1406 14.438 8.9531 23.203 12.891 8.7188 3.9375 23.625 11.156 33.047 16.031 21.422 11.062 34.312 15.984 57.797 22.172 10.172 2.6719 21.047 6.4688 24.188 8.4844 10.922 6.9375 28.594 23.25 34.219 31.641 3.0938 4.6406 9.4219 12.703 14.016 17.906 14.578 16.594 17.906 26.859 19.969 62.062 0.5625 9.4219 1.5469 21.375 2.1562 26.531 1.0312 8.3906 0.70313 9.5156-3.2344 10.781-5.9531 1.875-2.3906 5.25 7.5 6.9844 5.2031 0.9375 9.6094 0.375 13.734-1.6875 14.672-7.3594 48.844-0.51562 56.625 11.297l3.375 5.1562 3.2812-4.1719c7.0781-8.9531 44.906-28.734 72.844-38.062 12.328-4.125 50.906-6.8906 63.516-4.5469 13.219 2.4375 24.844 13.078 21.375 19.547-1.2188 2.2969-4.4062 5.3906-7.0781 6.7969-2.6719 1.4531-12.422 6.8906-21.656 12.094-18.234 10.266-47.484 21.797-55.172 21.797-10.547 0-6.1406-4.3594 14.016-13.875 20.812-9.7969 44.953-28.5 42.328-32.766-0.60938-0.98438-8.9531-1.7344-18.609-1.6875-18.516 0.046875-26.484 2.2031-59.672 16.031-18.328 7.6406-30.984 15.703-38.203 24.234-4.2656 5.1094-4.6875 6.6562-2.7188 10.828 2.25 4.8281 2.7188 4.875 39.656 6.2344 40.266 1.5 49.828 1.5469 101.2 0.46875l33.609-0.70312 23.766-11.953c25.406-12.797 34.453-20.156 41.344-33.656 6.8906-13.5 7.5938-18.234 4.5938-31.172-5.8125-25.125-10.031-30.234-32.062-38.719-22.453-8.625-36-10.5-65.531-9.1875-52.969 2.3906-70.406 7.5938-99.797 29.812-13.734 10.359-48.562 43.641-57.047 54.469-3.2344 4.1719-11.203 4.3125-14.531 0.32812-4.0312-4.8281 0.79687-13.453 16.875-29.953 31.594-32.484 57.891-50.812 83.906-58.594 15.797-4.7344 58.547-9.3281 88.406-9.5625 21.469-0.1875 28.688 0.60938 45.375 5.0625 38.016 10.031 53.719 20.016 59.578 37.922 13.688 41.766-0.375 66.75-52.406 93.047-30.328 15.328-43.922 18.703-67.734 16.781-9.2344-0.75-21.234 0-33 2.0156-15.469 2.6719-21.562 2.8125-36.938 0.84375-10.125-1.2656-30.656-3.0938-45.609-3.9844-14.953-0.9375-28.594-2.0156-30.234-2.3906-2.5781-0.60938-3.0938 4.3125-3.6094 33.562-0.65625 39.609 0.98438 47.062 17.438 79.312 10.359 20.297 21.188 32.859 38.109 44.062 5.8125 3.8906 10.594 7.7812 10.594 8.625 0 7.7812 41.953 19.594 85.922 24.234 16.641 1.7344 68.812 17.719 85.312 26.156 4.5 2.2969 16.125 6.0469 25.828 8.2969 24.984 5.8594 76.172 23.344 84.891 29.016 4.0312 2.625 10.547 7.6406 14.438 11.109 3.8906 3.4688 11.156 9.1875 16.125 12.656s10.828 7.9688 12.984 9.9375 4.4531 3.6094 5.1094 3.6094c3 0 16.359 20.859 18.281 28.641 4.9688 19.688 6.0938 27.609 6.1406 42.891 0.046874 12.469-0.65625 16.594-3.1875 18.422-5.2031 3.7969-10.594 0.98438-18.281-9.4219-8.8125-12.047-27.234-28.828-29.203-26.672-0.79687 0.89062-3.3281 7.1719-5.6719 14.016-7.9688 23.531-14.578 34.688-21.891 37.125-4.875 1.5938-8.5312 1.5938-13.641-0.09375-6.75-2.25-6.9844-2.625-6.0469-10.734 3.2344-29.109 2.0625-37.125-7.2188-48.469-1.0312-1.2656-5.1562-6.375-9.1875-11.391-19.125-23.719-42.234-44.859-54.609-49.922-2.0156-0.79688-9.5156-4.8281-16.734-8.9062-9-5.1094-22.922-9.9844-44.484-15.609-26.578-6.9375-34.453-8.2031-51.469-8.2031-32.906 0-68.484-5.1094-81.469-11.766-20.156-10.266-42.281-24.797-50.953-33.516-8.0156-8.0625-22.312-30.141-33.703-52.031-2.7188-5.25-5.5781-9.5625-6.2812-9.5625-2.8594 0-5.0156 32.438-3.5625 53.438 0.84375 12.188 1.0312 34.875 0.46875 50.391-0.98438 26.484-0.65625 29.859 5.2031 54.422 3.4219 14.438 6.7031 28.5 7.3125 31.266 0.60938 2.7656 2.3438 9.375 3.8906 14.625 1.5469 5.2969 2.8125 9.7969 2.8125 10.078-0.046876 0.65625 2.25 7.5469 4.7344 14.109 4.2188 11.25 20.953 21.516 45.562 27.984 8.3906 2.2031 24.844 7.9219 36.562 12.75 11.719 4.7812 32.391 12.047 45.984 16.078s31.312 10.078 39.328 13.453c8.0156 3.3281 22.734 9.0469 32.719 12.703 22.312 8.1562 40.734 17.812 55.453 29.109 3.8906 3 10.5 7.6875 14.672 10.406 10.5 6.9375 9.4219 11.672-4.2656 18.328-13.266 6.4688-30.234 9.4219-61.781 10.828-50.812 2.25-69.562 3.7031-69.562 5.4844 0 1.0312-3.4219 3.2812-7.5469 5.1094-7.4062 3.1875-12.609 3.8438-70.078 8.4844-15.516 1.2656-42.281 3.75-59.484 5.5781-34.781 3.7031-72.75 4.2656-149.21 2.2969zm128.9-12.844c13.734-1.6875 25.688-3.5625 26.578-4.0781 0.89062-0.5625 12.422-1.4531 25.594-1.9688s34.266-2.2969 46.828-3.9844c12.562-1.6406 26.391-3 30.703-3 9.5625 0 8.3438-3.0469-1.9688-4.9688-4.1719-0.79688-9.3281-2.3438-11.484-3.5156-3.8438-2.0625-3.8438-2.2031 0.70312-5.8594 3.6562-2.9531 8.0156-3.75 20.391-3.75 8.6719 0 17.953 0.79688 20.578 1.8281 4.5938 1.7344 88.406-2.2969 104.34-5.0156 6.7031-1.1719 6.8438-1.3594 3.0469-4.125-2.2031-1.5938-6.0469-4.6875-8.5781-6.8906-2.4844-2.1562-5.0156-3.9375-5.5781-3.9375s-6.7031-3.5156-13.594-7.8281-16.172-8.9531-20.625-10.359-19.406-6.7969-33.281-12-34.734-12.422-46.359-16.078c-11.625-3.6094-32.062-10.641-45.375-15.562s-31.453-11.016-40.359-13.5c-36.984-10.359-56.391-28.078-58.781-53.719-0.46875-4.9688-1.3125-10.359-1.875-11.953s-3.7969-16.547-7.1719-33.281c-4.7344-23.203-6.1406-35.203-5.9531-50.906 0.14062-11.297-0.5625-21.047-1.5469-21.656s-1.875-4.5-1.9688-8.6719-1.0312-14.344-2.1094-22.641c-2.0625-15.938-1.6875-18.234 2.9531-18.234 2.3438 0 2.9531-4.9219 3.2344-26.719 0.1875-14.672 0.51562-28.969 0.75-31.734s1.0312-20.906 1.7344-40.312c2.3906-62.906 3-68.484 8.625-74.109 2.7188-2.7188 4.6875-5.2031 4.3125-5.4844-0.32812-0.28125-3.9375-1.0312-7.9219-1.6406-6.2812-0.98438-7.6406-0.46875-9.4688 3.6094-2.1094 4.6406-21.281 21.141-24.562 21.141-0.89062 0-1.5469 11.578-1.4531 25.688 0.09375 14.156-0.46875 33.422-1.3125 42.844-0.79688 9.4219-1.8281 21.656-2.2969 27.234-2.625 33.797-3.5625 43.5-5.0156 53.438-0.9375 6.4219-0.89062 11.906 0.1875 12.984 1.0312 1.0312 1.8281 20.109 1.8281 42.328 0 68.109-7.8281 111.84-26.578 149.06-13.875 27.516-23.719 33.422-67.641 40.734-34.547 5.7188-44.391 8.625-65.062 19.078-14.531 7.3594-22.031 10.078-57.469 20.953-21.094 6.4688-65.859 23.484-78.656 29.953-5.5312 2.8125-12.609 7.7344-15.656 10.969l-5.5781 5.8594 9.7031 4.3594c10.875 4.9219 37.875 8.3906 65.953 8.4375 9.9844 0 23.531 0.9375 30.047 2.0156 6.5625 1.0781 27.422 2.5312 46.359 3.2344s43.969 1.9688 55.641 2.7656c40.875 2.9062 138.47 2.3438 165.19-0.98438zm393-188.44c0.9375-1.6406 5.0625-3.3281 9.0938-3.6562 8.4375-0.70312 15.094 3.1406 30 17.484 5.25 5.0625 9.5625 8.1562 9.5625 6.9375 0-5.6719-15.328-46.734-20.484-54.844-5.0625-7.9688-22.172-24.328-25.641-24.469-0.70312-0.046875-5.8125-4.1719-11.391-9.1875-5.5312-5.0156-12.797-11.25-16.125-13.781-7.9219-6.0469-44.344-20.062-73.594-28.266-12.75-3.5625-28.641-9-35.297-12.047-24.656-11.344-55.078-18.562-84.703-20.156-26.766-1.4531-39.469-3.4688-60.469-9.75-17.531-5.2031-21.281-7.5-42.562-25.734-19.969-17.156-26.812-25.359-34.969-41.719-16.734-33.75-18.703-46.125-15.328-95.812 1.5938-23.297 1.5469-23.672-2.6719-23.672-3.2344 0-4.2656-1.2656-4.2656-5.2031 0-10.172-5.0156-3.5156-8.6719 11.438-4.9688 20.297-6.75 55.359-3.4688 67.828 8.5312 32.531 19.031 58.031 31.125 75.75 2.8594 4.2188 5.2031 8.0156 5.2031 8.4844 0 2.6719 15 24.984 21.141 31.453 6.7969 7.1719 23.906 19.969 26.672 19.969 0.65625 0 4.2656 2.2969 7.9688 5.1562 3.7031 2.8125 9.7031 6.375 13.359 7.9219 8.6719 3.6094 40.406 7.0781 66.422 7.2188 24.469 0.14062 29.953 1.0312 67.031 10.922 39.188 10.453 77.859 31.078 97.031 51.844 18.609 20.156 37.547 47.156 38.297 54.609 0.1875 1.9219 0.46875 6.8906 0.60938 10.969l0.23438 7.4531 7.0312-12c3.8906-6.6094 7.8281-13.359 8.7656-15zm-584.39-319.6c12.75-2.625 28.172-5.3906 34.266-6.1406s19.266-3.8906 29.25-6.9375c9.9844-3.0469 25.969-6.7031 35.531-8.1094l17.391-2.5781-1.8281-6.6094c-0.98438-3.6562-1.5938-7.8281-1.2656-9.2812 0.375-1.875-2.9531-3-11.531-3.7969-17.156-1.5938-32.344-6.7031-58.172-19.5-24.938-12.375-36.984-22.312-57.281-47.297-6.9375-8.5312-16.828-18.984-21.938-23.203-5.1562-4.2188-11.625-9.7031-14.438-12.188-4.4062-3.9844-6.75-4.4531-18.375-3.75-7.3125 0.46875-16.312 0.89063-19.969 1.0312-10.594 0.32813-25.266 15.281-29.297 30-3.4219 12.422-4.8281 40.922-2.3906 48.375 2.0625 6.1406-2.8594 6.0469-8.6719-0.14062-9.7031-10.359-10.922-48.984-2.0156-63.469 11.906-19.312 18.609-22.5 54.094-25.688 30.188-2.7188 32.953-2.25 48.891 8.8594 10.359 7.2188 31.266 27.516 36.75 35.719 2.2031 3.2344 10.359 12.281 18.141 20.109 11.672 11.719 18 16.078 35.859 24.703 11.953 5.7656 22.922 10.5 24.469 10.5 1.5 0 6 1.3594 9.9844 3.0469s10.688 3 14.859 3l7.6406-0.046876-5.0625-3.9844c-2.7656-2.2031-10.031-6.375-16.125-9.3281-18.703-9-27.609-17.766-41.344-40.688-9.4219-15.797-18.844-28.078-28.406-37.078-6.2344-5.8594-15.188-16.594-19.922-23.859-7.0781-10.922-10.688-14.297-20.484-19.312-26.719-13.688-64.312-16.875-83.438-7.0781-17.016 8.7188-37.125 23.531-42.891 31.594-8.0156 11.25-17.203 30.703-19.031 40.312-2.2031 11.625-1.5 36.797 1.3594 47.391 4.8281 17.766 16.312 38.062 27.047 47.766 11.016 9.9844 39.75 24.75 60.375 31.031 15.281 4.6406 33.891 3.75 67.875-3.1875zm179.26-31.875c5.9062-12.188 5.5312-23.531-0.9375-28.219-2.7656-2.0156-7.5-3.375-10.5-3.0469-4.7812 0.5625-5.4375 1.4062-4.9219 6.7031 0.32813 3.3281 0.89063 11.016 1.3125 17.156 0.5625 8.1094 1.6406 11.25 3.9844 11.719 1.7812 0.375 3.1875 1.5 3.1875 2.5312 0 4.5938 4.0312 1.125 7.875-6.8438zm-213.84-269.44c-8.0156-1.5938-17.812-7.1719-17.812-10.172 0-2.9531 8.5312-8.1562 13.406-8.1562 2.4375 0 5.9062 1.5 7.7344 3.2812 2.6719 2.6719 4.2656 2.8594 8.2031 1.0312 2.7188-1.2188 5.0156-2.9531 5.1562-3.7969 1.5-10.594 0.79688-14.812-3.2344-19.922-3.9375-4.9219-5.0156-5.3438-7.8281-3-1.7812 1.5-3.2812 4.4531-3.2812 6.5625 0 6.2344-5.8594 6.8438-11.484 1.2188-4.1719-4.1719-4.6875-5.8125-2.9062-9.1406 3.9844-7.5 25.172-11.203 37.312-6.6094 12.984 4.9219 22.406 23.625 18.375 36.375-2.6719 8.4375-27.562 15.422-43.688 12.234zm182.11-14.391c-6.5625-2.625-4.5469-6.4219 5.2031-9.8438 6.8438-2.3906 8.8125-2.4375 11.438-0.23437 4.6875 3.8906 3.8906 8.0156-1.9688 10.266-6.1875 2.3438-8.4375 2.2969-14.672-0.1875zm98.953-28.172c-3.2812-1.3125-4.5469-3.4688-4.5469-7.8281 0-3.2812 0.84375-6.5156 1.8281-7.125 0.98438-0.60937 1.3594-2.9062 0.79688-5.0156-2.4844-9.5156 24.281-6.0469 29.578 3.7969 6.375 11.953-11.766 22.547-27.656 16.172zm80.391-5.8125c-4.6406-2.9531-0.46875-6.2344 7.9219-6.2344 5.4375 0 7.9688 0.89063 7.9688 2.8125 0 4.7812-10.266 6.9844-15.891 3.4219zm-288.19-12.422c-7.5-3-5.2031-10.781 3.4219-11.625l6.7969-0.65625-2.4375-17.812h7.7812c8.4844 0 11.25 2.2031 13.359 10.594 2.2969 9.1406-0.46875 15.562-8.1094 18.75-7.8281 3.2812-13.969 3.5156-20.812 0.75zm233.53-48.281c-11.906-1.5469-21.375-3.75-42.75-10.031-4.125-1.2188-12.703-4.5469-19.172-7.4062-21.047-9.375-64.359-22.688-86.719-26.625-19.922-3.5156-24.188-3.6562-47.062-1.3125-26.109 2.6719-58.031 10.078-74.25 17.25-12.094 5.3438-40.875 13.312-63.422 17.531-30.516 5.6719-65.672-0.70312-99.328-18.047-20.297-10.453-32.812-25.734-23.859-29.156 2.1094-0.79688 5.2031 1.2188 9.1406 6 3.5625 4.3125 11.438 9.7969 19.5 13.594 7.4531 3.4688 15.141 7.1719 17.109 8.2031 6.7031 3.4688 31.969 7.8281 45.609 7.8281 18.984 0 33.328-2.9062 64.781-13.078 86.438-28.031 139.31-31.922 201.61-14.766 8.2969 2.2969 20.25 5.2969 26.531 6.7031s18.516 4.9219 27.234 7.8281c32.297 10.734 45.234 13.266 67.734 13.312 18.234 0.046874 23.625-0.75 34.266-4.875 16.734-6.5156 36.188-9.1875 67.078-9.1875 28.969 0 41.062 2.3438 47.531 9.2344 3.6562 3.8906 4.0312 5.3438 2.0156 7.7812-4.1719 5.0625-14.062 6.7969-45.516 8.1094-26.484 1.125-31.875 1.9219-43.359 6.6562-11.953 4.9219-15.75 5.4375-42.328 5.8125-16.078 0.23437-35.156-0.375-42.328-1.3125z"/>
</svg>
