<?xml version="1.0" encoding="UTF-8"?>
<svg width="1200pt" height="1200pt" version="1.1" viewBox="0 0 1200 1200" xmlns="http://www.w3.org/2000/svg">
 <path d="m859.59 259.82c21.492-3.7227 43.746-15.039 62.051-31.52 7.0625-6.3047 12.074-12.379 15.492-18.379 2.6602-4.707 5.7734-12 5.3164-20.051-0.37891-6.8359-3.418-13.441-8.3555-18.227-9.1133-8.8086-24.305-10.406-35.391-3.6445-3.0391 1.8242-6.7578 2.2773-10.102 1.2148-3.418-1.0625-6.1523-3.5703-7.5195-6.8359-4.5586-10.707-15.723-17.848-27.039-17.848-1.293 0-2.582 0.074219-3.875 0.30469-6.7578 0.98828-13.062 4.6328-17.391 9.9492-5.0898 6.3047-6.7578 13.977-7.3672 19.367-0.68359 6.9102-0.074218 14.734 1.9766 24 5.3164 23.996 16.938 46.098 32.203 61.668z"/>
 <path d="m266.2 224.12c4.4062 5.3906 10.406 10.48 18.379 15.57 20.734 13.215 44.582 20.66 66.379 20.809 12.531-17.848 20.355-41.543 21.57-66.152 0.45703-9.4922-0.15234-17.316-2.0508-24-1.4414-5.2422-4.4062-12.531-10.406-17.926-5.0898-4.5586-11.926-7.0625-18.758-6.9883-12.684 0.22656-24.531 9.875-27.57 22.406-0.83594 3.418-3.1133 6.3789-6.3047 7.9766-3.1914 1.5938-6.8359 1.8242-10.176 0.45703-3.418-1.3672-7.0625-1.9766-10.633-1.9766-9.1133 0-18.227 4.1758-23.621 11.469-4.0234 5.4688-5.9258 12.531-5.2422 19.367 0.76172 8.1289 5.0156 14.812 8.4336 18.988z"/>
 <path d="m541.37 248.51c1.4414 6.7578 4.4062 14.051 9.1914 22.254 12.379 21.266 30.152 38.809 49.441 48.91 19.293-10.102 37.141-27.645 49.441-48.91 4.7852-8.2031 7.7461-15.418 9.1914-22.254 1.1406-5.3164 1.8242-13.215-1.0625-20.734-2.4297-6.3789-7.3672-11.773-13.52-14.809-11.316-5.6211-26.277-2.5078-34.785 7.293-2.3555 2.6602-5.6953 4.2539-9.2656 4.2539s-6.9102-1.5195-9.2656-4.2539c-5.6953-6.5312-14.203-10.102-22.633-10.102-4.2539 0-8.4297 0.91016-12.227 2.8086-6.0742 3.0391-11.012 8.4297-13.52 14.809-2.8125 7.5938-2.1289 15.492-0.98828 20.734z"/>
 <path d="m937.37 894.46c0.074218 0 0.15234-0.074219 0.22656-0.074219l0.22656-0.074218c42.531-9.5703 78.758-35.164 102.07-72 23.316-36.836 30.836-80.508 21.266-123.04l-22.859-101.62c-34.176 11.621-69.645 17.469-106.02 17.469-20.961 0-42.227-1.9766-63.797-5.8477-54.457-9.7969-109.21-10.176-162.84-1.1406l36.684 162.99c17.09 75.723 84.531 127.29 159.19 127.37 11.848-0.078125 23.773-1.293 35.848-4.0273zm61.898-170.89c6.457-1.4414 12.836 2.582 14.277 9.0391 1.4414 6.457-2.582 12.836-9.0391 14.277-6.457 1.4414-12.836-2.582-14.277-9.0391-1.4414-6.457 2.582-12.836 9.0391-14.277zm-26.43 87.645c-6.457 1.4414-12.836-2.582-14.277-9.0391s2.582-12.836 9.0391-14.277c6.457-1.4414 12.836 2.582 14.277 9.0391 1.4414 6.4531-2.582 12.836-9.0391 14.277zm-7.3672-150.07c6.457-1.4414 12.836 2.582 14.277 9.0391 1.4414 6.457-2.582 12.836-9.0391 14.277-6.457 1.4414-12.836-2.582-14.277-9.0391-1.4414-6.457 2.582-12.836 9.0391-14.277zm-169.45 71.922c-5.6211 1.293-11.242-2.2773-12.531-7.8984-1.293-5.6211 2.2773-11.242 7.8984-12.531 5.6211-1.293 11.242 2.2773 12.531 7.8984 1.293 5.6211-2.2773 11.242-7.8984 12.531zm3.1914-61.672c-6.457 1.4414-12.836-2.582-14.277-9.0391-1.4414-6.457 2.582-12.836 9.0391-14.277 6.457-1.4414 12.836 2.582 14.277 9.0391s-2.582 12.836-9.0391 14.277zm45.949 114.61c-8.125 1.8242-16.254-3.2656-18.074-11.469-1.8242-8.125 3.2656-16.254 11.469-18.074 8.125-1.8242 16.254 3.2656 18.074 11.469 1.8242 8.125-3.2656 16.25-11.469 18.074zm36.305-126.3c8.125-1.8242 16.254 3.2656 18.074 11.469 1.8242 8.125-3.2656 16.254-11.469 18.074-8.125 1.8242-16.254-3.2656-18.074-11.469-1.8242-8.125 3.3398-16.25 11.469-18.074zm5.3906 188.2c-6.457 1.4414-12.836-2.582-14.277-9.0391-1.4414-6.457 2.582-12.836 9.0391-14.277 6.457-1.4414 12.836 2.582 14.277 9.0391 1.4414 6.4531-2.582 12.836-9.0391 14.277zm9.9492-92.355c-1.4414-6.457 2.582-12.836 9.0391-14.277 6.457-1.4414 12.836 2.582 14.277 9.0391 1.4414 6.457-2.582 12.836-9.0391 14.277-6.4531 1.4414-12.832-2.582-14.277-9.0391z"/>
 <path d="m872.81 585.11c55.594 10.023 109.37 6.1523 160.02-11.543l-52.328-232.41-318.84 71.773 38.586 171.19c56.809-9.7188 114.84-9.418 172.55 0.98828z"/>
 <path d="m331.52 609.27c-21.492 3.875-42.836 5.8477-63.797 5.8477-36.379 0-71.848-5.8477-105.95-17.469l-22.859 101.62c-19.746 87.797 35.543 175.29 123.34 195.04l0.22656 0.074218c0.074219 0 0.15234 0.074219 0.22656 0.074219 42.531 9.5703 86.203 2.0508 123.04-21.266 36.836-23.316 62.43-59.543 72-102.07l36.684-162.99c-53.695-9.0352-108.45-8.6562-162.91 1.1406zm-121.75 128.58c-1.4414 6.457-7.8242 10.48-14.277 9.0391-6.457-1.4414-10.48-7.8242-9.0391-14.277 1.4414-6.457 7.8242-10.48 14.277-9.0391 6.457 1.4414 10.48 7.8203 9.0391 14.277zm31.668 64.328c-1.4414 6.457-7.8242 10.48-14.277 9.0391-6.457-1.4414-10.48-7.8242-9.0391-14.277 1.4414-6.457 7.8242-10.48 14.277-9.0391 6.457 1.4414 10.484 7.8984 9.0391 14.277zm2.1289-126.76c-1.4414 6.457-7.8242 10.48-14.277 9.0391-6.457-1.4414-10.48-7.8242-9.0391-14.277 1.4414-6.457 7.8242-10.48 14.277-9.0391 6.457 1.4414 10.48 7.8203 9.0391 14.277zm59.621 80.125c-1.4414 6.457-7.8242 10.48-14.277 9.0391-6.457-1.4414-10.48-7.8242-9.0391-14.277 1.4414-6.457 7.8242-10.48 14.277-9.0391 6.457 1.5195 10.48 7.8984 9.0391 14.277zm24.148 83.395c-1.4414 6.457-7.8242 10.48-14.277 9.0391-6.457-1.4414-10.48-7.8242-9.0391-14.277 1.4414-6.457 7.8242-10.48 14.277-9.0391 6.5352 1.4414 10.559 7.8203 9.0391 14.277zm2.6602-161.16c-1.8242 8.125-9.9492 13.293-18.074 11.469-8.125-1.8242-13.293-9.9492-11.469-18.074s9.9492-13.293 18.074-11.469c8.1289 1.8203 13.293 9.9453 11.469 18.074zm42.91 96.758c-1.8242 8.125-9.9492 13.293-18.074 11.469s-13.293-9.9492-11.391-18.074c1.8242-8.125 9.9492-13.293 18.074-11.469 8.0508 1.8203 13.215 9.9492 11.391 18.074zm18.836-117.42c1.4414-6.457 7.8242-10.48 14.277-9.0391 6.457 1.4414 10.48 7.8242 9.0391 14.277-1.4414 6.457-7.8242 10.48-14.277 9.0391-6.457-1.4414-10.48-7.8203-9.0391-14.277zm24.762 67.977c-1.293 5.6211-6.9102 9.1914-12.531 7.8984-5.6211-1.293-9.1914-6.9102-7.8984-12.531 1.293-5.6211 6.9102-9.1914 12.531-7.8984 5.6172 1.2891 9.1875 6.9102 7.8984 12.531z"/>
 <path d="m219.49 341.09-52.328 232.41c50.66 17.695 104.43 21.57 160.02 11.543 57.723-10.406 115.75-10.707 172.63-0.98828l38.582-171.19z"/>
 <path d="m1082.1 1145.2c6.6094-1.5195 10.785-8.0508 9.2656-14.66s-8.0508-10.785-14.66-9.2656l-71.773 16.176-50.051-222.23c-3.875 1.1406-7.7461 2.125-11.621 3.0391l-0.45703 0.074218c-3.9492 0.91016-7.8984 1.6719-11.848 2.2773l50.051 222.23-71.773 16.176c-6.6094 1.5195-10.785 8.0508-9.2656 14.66 1.293 5.6953 6.3789 9.5703 12 9.5703 0.91016 0 1.8242-0.074218 2.7344-0.30469z"/>
 <path d="m701.85 155.77c2.2773 3.9492 6.3789 6.1523 10.633 6.1523 2.0508 0 4.1758-0.53125 6.1523-1.6719l42.609-24.609c5.8477-3.418 7.8984-10.938 4.4805-16.785-3.418-5.8477-10.859-7.8984-16.785-4.4805l-42.609 24.609c-5.8477 3.3398-7.8984 10.859-4.4805 16.785z"/>
 <path d="m657.57 111.49c1.9766 1.1406 4.0234 1.6719 6.1523 1.6719 4.2539 0 8.3555-2.2031 10.633-6.1523l24.609-42.609c3.418-5.8477 1.3672-13.367-4.4805-16.785-5.8477-3.418-13.367-1.3672-16.785 4.4805l-24.609 42.609c-3.3438 5.9258-1.3672 13.445 4.4805 16.785z"/>
 <path d="m652.94 787.82h-23.242c-6.7578 0-12.305 5.543-12.305 12.305 0 6.7578 5.4688 12.305 12.305 12.305h23.242c6.7578 0 12.305-5.4688 12.305-12.305 0-6.8359-5.5469-12.305-12.305-12.305z"/>
 <path d="m600 822.84c-6.7578 0-12.305 5.4688-12.305 12.305v23.242c0 6.7578 5.4688 12.305 12.305 12.305 6.7578 0 12.305-5.543 12.305-12.305v-23.242c0-6.8359-5.5469-12.305-12.305-12.305z"/>
 <path d="m600 729.57c-6.7578 0-12.305 5.4688-12.305 12.305v23.242c0 6.7578 5.4688 12.305 12.305 12.305 6.7578 0 12.305-5.543 12.305-12.305v-23.242c0-6.8359-5.5469-12.305-12.305-12.305z"/>
 <path d="m600 90.457c6.7578 0 12.305-5.4688 12.305-12.305v-49.215c0-6.7578-5.4688-12.305-12.305-12.305-6.7578 0-12.305 5.4688-12.305 12.305v49.215c0 6.8359 5.5469 12.305 12.305 12.305z"/>
 <path d="m570.23 787.82h-23.164c-6.7578 0-12.305 5.543-12.305 12.305 0 6.7578 5.4688 12.305 12.305 12.305h23.164c6.7578 0 12.305-5.4688 12.305-12.305 0-6.8359-5.4688-12.305-12.305-12.305z"/>
 <path d="m525.64 107.01c2.2773 3.9492 6.3789 6.1523 10.633 6.1523 2.0508 0 4.1758-0.53125 6.1523-1.6719 5.8477-3.418 7.8984-10.938 4.4805-16.785l-24.609-42.609c-3.418-5.8477-10.938-7.8984-16.785-4.4805-5.8477 3.418-7.8984 10.938-4.4805 16.785z"/>
 <path d="m438.84 135.64 42.609 24.609c1.8984 1.1406 4.0234 1.6719 6.1523 1.6719 4.2539 0 8.3555-2.2031 10.633-6.1523 3.418-5.8477 1.3672-13.367-4.4805-16.785l-42.609-24.609c-5.8477-3.418-13.367-1.3672-16.785 4.4805s-1.4453 13.367 4.4805 16.785z"/>
 <path d="m285.42 1183c0.91016 0.22656 1.8242 0.30469 2.7344 0.30469 5.6211 0 10.707-3.875 12-9.5703 1.5195-6.6094-2.6602-13.215-9.2656-14.66l-71.773-16.176 50.051-222.23c-3.9492-0.60938-7.8984-1.3672-11.848-2.2773l-0.45703-0.074218c-3.9492-0.91016-7.8242-1.8984-11.695-3.0391l-50.051 222.23-71.773-16.176c-6.6094-1.5195-13.215 2.6602-14.66 9.2656-1.4414 6.6094 2.6602 13.215 9.2656 14.66z"/>
</svg>
