<?xml version="1.0" encoding="UTF-8"?>
<svg width="1200pt" height="1200pt" version="1.1" viewBox="0 0 1200 1200" xmlns="http://www.w3.org/2000/svg">
 <path d="m725.86 471.1c-6.6094 4.3125-0.1875 14.391 6.5156 10.078 48.281-31.266 155.95-90.328 206.21-62.531 0.60938 1.3594 3.9375 11.906 5.5312 16.641 3.2812 32.203-15.562 72.75-31.406 100.83-153.74 63.375-299.06 208.97-366.71 323.68-28.875 11.391-73.406 25.031-102.19 13.5-5.4844-3.375-9.3281-8.1094-10.828-16.219-11.438-76.969 98.719-205.64 159-263.39 5.7188-5.4375-2.5312-14.156-8.2969-8.6719-67.312 64.5-129.89 143.29-162 231.52-11.297 30.516-10.828 49.078 6.6562 76.031 18.984 29.109 66.375 37.406 97.453 49.406 168.47 64.688 339.61 123.42 513.74 171.32 41.766 11.203 75-22.969 68.766-56.812-18.047-99.047-39.938-203.81-63.938-302.39-1.9219-7.8281-13.5-4.7812-11.672 2.8594 2.3438 9.5625 4.5938 19.312 6.8438 29.016-84.609 4.6875-177.19 29.625-268.4 72.703-7.1719 3.375-2.0625 14.25 5.1094 10.828 90.562-42.75 182.44-67.453 266.06-71.719 17.859 76.312 36 161.39 54.141 260.9 4.7344 25.406-21.656 50.812-48.375 42.891-133.31-41.625-278.16-93.703-413.34-149.11 23.062-16.312 47.016-31.828 71.297-45.984 6.8438-3.9844 0.84375-14.344-6.0469-10.359-25.688 14.953-51 31.312-75.328 48.703-0.98438 0.70312-1.5938 1.6875-2.0156 2.7188-40.312-16.219-79.031-32.344-117.56-48.984 27.656-9.75 37.594-14.484 55.453-23.672 79.641-40.5 205.45-132.98 291.52-233.53 15.422-3.5625 70.828-21.469 144.61-25.031 3.75 13.734 7.4531 27.516 11.062 41.297 2.0156 7.6875 13.594 4.6406 11.578-3.0469-34.922-133.31-60.562-209.81-63.562-221.06-0.60938-5.4375-3.4688-20.484-7.9688-23.438-54.375-35.625-167.48 25.781-221.9 61.031zm227.68-4.2656c13.875 45.188 27.328 91.172 40.078 137.68-41.062 2.2031-84.094 9.3281-128.21 21 35.109-43.266 76.828-103.83 88.125-158.68z"/>
 <path d="m1037.1 937.03c7.6406-0.65625 7.3125-12.281-0.98438-11.953-78.656 6.3281-159.98 35.25-228.94 81.328-4.9688 3.3281-2.5312 10.969 3.3281 10.969 7.5938 0 91.594-69.469 226.6-80.344z"/>
 <path d="m416.11 644.44c-39.844-40.969-95.297-67.688-152.11-73.266-7.9219-0.98438-9.0938 11.156-1.1719 11.953 54.094 5.3438 106.83 30.75 144.71 69.703 5.4375 5.5781 14.156-2.6719 8.5781-8.3906z"/>
 <path d="m774.32 234.32c14.531 14.203 20.156 38.766 5.9531 61.359-26.531-16.219-64.969-6.0469-61.219 16.172 1.9688 11.484 15.516 18.141 27.141 18.141 13.828 0 27.844-7.9688 37.359-18.609 3.7031-0.1875 6.2812-3.6562 5.5312-7.2188 19.219-28.547 12.188-60.984-7.4062-79.359 20.906-35.297-11.203-85.219-45.281-90.047-7.6875-1.3125-9.7031 10.734-1.6875 11.859 25.641 3.6094 52.172 43.594 37.312 70.875-13.172-7.9219-29.203-10.734-44.344-7.2188-13.453 3.0938-22.969 16.734-14.297 27.938 9.75 12.656 41.812 15.516 60.938-3.8906zm-38.625 80.906c-16.828-9.5156 13.312-23.438 37.125-10.031-10.266 10.406-25.641 16.547-37.125 10.031zm-13.5-87.141c0.89062-2.4375 4.6875-5.2969 8.2031-6.0938 11.578-2.6719 24.047-0.5625 34.172 5.1094-17.953 16.266-44.438 7.2188-42.375 0.98438z"/>
 <path d="m233.11 1037.9c2.0625 3.0938 6.375 3.5156 9.0469 1.0781 34.688 1.8281 59.766-21.703 64.453-46.922 41.109-0.09375 67.547-53.156 54.328-84.891-3.0469-7.3125-14.156-2.7188-11.062 4.6406 9.9375 23.812-10.828 67.172-41.953 68.25 0.046875-15.328-5.8594-30.75-16.406-41.766-4.4531-4.6406-12.75-8.9062-20.438-7.4062-23.297 4.5938-11.578 50.953 23.578 59.719-4.8281 19.875-22.875 36.984-49.734 36.469 0.28125-19.547-13.453-46.219-32.672-48.141-27.891-2.6719-28.125 49.406 20.859 58.969zm40.266-95.25c2.8125-0.5625 7.2188 1.5938 9.4219 3.8906 8.1094 8.4844 12.75 20.203 13.078 31.922-22.5-6.7969-29.438-34.453-22.5-35.812zm-62.344 48.188c11.859 1.1719 21.609 22.031 21.891 34.688-31.031-7.7344-32.109-35.625-21.891-34.688z"/>
 <path d="m201.14 884.26c1.6406-11.016 7.5938-21.281 16.406-28.125 0.98438-0.79687 1.5469-1.875 2.0625-2.9531 11.484-1.0781 23.156-0.1875 34.125 2.9062 7.7344 2.2031 10.781-9.4219 3.2344-11.531-13.969-3.8906-28.922-4.8281-43.359-2.8125-1.7344-0.51563-18.516-0.84375-30.141-16.359-4.2188-5.625-13.266-3.5625-14.438 3.5156-1.7812 10.781-7.7812 20.766-16.406 27.469-5.9062 4.5469-3.1406 13.875 4.3125 14.484 12 0.98438 21.75 6.6094 29.812 17.156 4.3594 5.7656 13.406 3.3281 14.391-3.75zm-10.078-9.5625c-7.1719-7.3125-15.469-12.141-24.844-14.438 5.8594-6.1406 10.312-13.641 12.891-21.75 6.7969 6.75 15.188 11.344 25.031 13.734-6.0469 6.3281-10.547 14.062-13.078 22.453z"/>
 <path d="m446.72 137.29 41.953-42.469c5.5781-5.6719-2.9531-14.062-8.5312-8.4375l-41.953 42.469c-5.5781 5.7188 3.0469 14.016 8.5312 8.4375z"/>
 <path d="m460.92 172.03c26.344-6.3281 52.594-14.484 78-24.188 7.4062-2.8125 3.1406-14.062-4.2656-11.203-24.938 9.5156-50.672 17.531-76.547 23.719-7.5938 1.8281-5.0625 13.5 2.8125 11.672z"/>
 <path d="m535.55 214.82c-21.469-5.3438-47.859-12.141-71.109-17.906-7.7344-1.9219-10.594 9.75-2.9062 11.625 19.828 4.9219 71.391 18.094 72.562 18.094 7.0781 0 8.2969-10.125 1.4531-11.812z"/>
 <path d="m127.31 422.58c9.1406 25.734 19.688 65.719 45.984 78.047 46.922 22.312 129.84-16.266 176.72-38.859 29.953-14.297 67.359-37.922 83.484-67.688 9.8906-18.562 13.5-41.859 11.016-63.281 36.656 15.562 65.297 45.609 78.234 77.438-17.25 0.5625-30.984 5.25-40.828 13.875-12.656 10.969-19.266 32.391-7.9219 47.812 18.797 26.109 77.297 8.8594 65.156-49.031 71.438 7.3125 146.63 78.75 155.11 170.63 0.70312 7.9688 12.703 6.8438 11.953-1.0781-9.1406-99.281-91.875-176.72-170.53-181.87-12.75-36.516-47.156-74.719-93.609-91.828-11.766-43.781-63.609-72.328-81-77.344-8.7656-3.4688-37.969-5.9531-70.781 3.5156-7.5469 2.2031-4.4531 13.641 3.3281 11.531 42.844-12.375 68.531-1.8281 63.656-3.6562 47.859 13.828 73.266 72.375 52.875 120.61-12.984 30.562-51 55.734-72.422 67.969-34.547 19.406-123.14 67.594-159.32 50.344-21.75-10.219-32.391-50.578-39.797-71.25-20.109-56.438-28.594-110.53-29.016-112.41-6.5625-37.5-13.406-76.266 5.25-104.48 12.609-19.125 33.188-32.297 56.391-36.094 58.406-9.6094 103.69 45.75 100.88 100.5-0.375 7.7344 11.625 8.7656 12 0.5625 2.7656-63.047-48.75-123.74-114.84-112.92-26.531 4.3594-50.016 19.406-64.5 41.297-21.281 32.203-13.734 75.234-7.0312 113.16 1.6875 7.5 6.375 49.406 29.578 114.52zm399.42-2.3438c12.047 47.438-31.266 58.922-42.984 42.656-6.9844-9.5156-2.3906-24.328 6.1406-31.688 8.25-7.2656 20.531-10.969 36.562-10.969z"/>
</svg>
