<?xml version="1.0" encoding="UTF-8"?>
<svg width="1200pt" height="1200pt" version="1.1" viewBox="0 0 1200 1200" xmlns="http://www.w3.org/2000/svg">
 <path d="m957.79 640.18c7.3125-8.0156 13.125-17.625 18-27.281 9.9375-19.594 15.844-40.875 18.656-62.625 6.0938-47.344-4.1719-94.969-19.266-139.69-13.594-40.453-30.094-80.578-51.75-117.47-20.531-34.969-46.5-67.125-79.734-90.75-18.891-13.406-39.891-22.969-61.406-31.219-23.531-8.9531-47.438-17.016-71.156-25.406-24.094-8.5312-48.047-17.812-72.375-25.688-8.4375-2.7188-17.906-3.2344-26.719-4.125-30.375-3-61.266-4.125-91.781-2.625-12.656 0.65625-25.781 1.5-38.016 4.9219-21.75 6.0938-43.078 14.062-63.891 22.875-41.906 17.719-81.703 40.078-119.72 65.062-9.5625 6.2812-18.938 12.656-28.312 19.266-0.28125 0.1875-0.5625 0.46875-0.84375 0.75-3.2812 1.8281-6.1406 4.5-8.4375 8.0625-4.9688 7.5938-6.5625 17.531-6.4688 26.438 0.28125 18.75 8.1562 36.375 15.328 53.391 12.562 29.672 26.25 58.875 40.453 87.797 15.469 31.5 31.5 62.625 48.047 93.562 15.516 29.062 31.406 57.938 47.812 86.484 2.7188 4.7344 5.4375 9.4688 8.25 14.25-31.875 27.516-65.156 53.391-99.562 77.578-32.438 22.734-66.75 43.125-96.984 68.812-14.625 12.422-28.359 26.25-39.516 41.906-9.375 13.125-17.203 31.969-9.8438 47.672 1.0781 2.3438 2.4375 4.4062 4.125 6.2344 5.3906 17.531 13.219 33.094 24.422 47.672 11.906 15.562 22.5 31.219 31.125 48.891 17.625 36.188 32.438 78.375 70.406 98.25 21.844 11.438 47.062 15.469 70.875 21.047 26.25 6.1406 52.453 12.281 78.656 18.375 52.547 12.281 105 25.031 158.11 34.875 25.969 4.7812 52.5 9.75 79.031 8.0156 23.578-1.5 46.031-8.8125 66.844-19.781 29.25-15.328 54.328-36.844 77.859-59.672 22.406-21.703 44.25-44.062 65.812-66.562 18.562-19.312 37.172-38.719 54.844-58.875 7.6875-8.8125 15.141-18.188 20.062-28.969 6.75-14.859 5.8125-29.438 3-45.094-4.2188-23.531-7.5469-47.203-11.906-70.734-4.8281-26.297-10.594-52.453-17.156-78.375-2.625-10.312-5.3906-20.578-8.2969-30.844 0.1875-0.89062 0.14062-1.875-0.046875-2.7188 8.3906-1.7812 15.938-7.5469 21.562-13.734zm-218.34 304.87c-7.875 8.8594-17.062 16.594-27 23.062-34.875 22.734-80.203 29.578-120 16.734-7.125-2.3438-4.0781-13.641 3.0938-11.297 10.312 3.3281 21.047 5.3438 31.875 5.8594 38.719 1.875 77.766-13.641 103.69-42.656 5.0625-5.625 13.312 2.6719 8.2969 8.25zm157.31-254.11c-10.266 16.453-21.047 32.625-32.297 48.422-22.453 31.594-46.828 61.781-72.938 90.375-26.156 28.688-54.047 55.781-83.438 81.094-7.4062 6.375-14.812 13.172-22.781 18.797-8.5781 6.0938-17.016 7.4062-27.375 6.4688-21.75-2.0156-43.5-5.4375-65.156-8.2969-43.641-5.8594-87.234-12.281-130.5-20.578-43.547-8.3438-86.438-19.078-129.19-30.75-43.125-11.812-86.203-23.812-129.28-35.719-7.2188-1.9688-16.359-3.5625-21.797-9.2812-0.46875-0.51562-0.9375-1.0781-1.4062-1.6875-4.4062-6.0938-3.6562-14.016-1.5938-20.812 5.0156-16.781 18.469-30.75 30.562-42.844 26.859-26.766 59.25-46.922 90.562-67.969 35.25-23.766 69.375-49.219 102.09-76.219 7.3594-6.0938 14.625-12.281 21.844-18.469 2.2969 0.375 4.7344 0.28125 6.9375 0.28125 3.3281 0.046875 6.6562 0 9.9375-0.375 11.156-1.2656 23.109-6.8438 27.094-17.906 12.75 3 25.781 4.5 38.906 4.5-1.2656 4.7344-1.6875 9.6562-0.9375 14.531-0.89062-0.23438-1.875-0.28125-2.9531 0-3.6562 0.84375-7.3125-0.28125-10.875-1.3125-4.4062-1.3125-8.7656-2.7188-13.406-3.0469-10.781-0.75-18.656 7.4531-26.438 13.688-17.719 14.25-35.391 28.5-53.062 42.703-17.719 14.25-35.391 28.5-53.062 42.75-15.656 12.562-31.312 25.125-46.406 38.344-14.719 12.984-28.875 26.672-41.484 41.766-6.3281 7.5469-12.328 15.422-17.719 23.625-3.0469 4.6875-4.6875 10.5-0.75 15.188 2.8594 3.375 7.2188 4.4062 11.484 4.7812 20.344 1.9688 40.266 4.8281 60.188 9.5625 20.156 4.7344 39.938 10.688 59.719 16.969 39.891 12.562 79.5 26.25 120.66 34.219 43.219 8.3438 87.188 11.578 131.06 14.109 10.406 0.60938 21.375 2.1562 31.781 0.89062 5.1562-0.65625 10.078-2.1562 14.391-5.1094 4.0781-2.8125 7.5-6.375 10.781-10.031 15.188-16.828 30.375-33.703 45.562-50.578 30.422-33.75 60.844-67.406 91.219-101.16 12.938-14.344 29.344-29.156 34.734-48.375 2.5312-9 2.4844-20.25-3.7031-27.844-3.1875-3.8906-7.875-5.9062-12.609-7.2188-5.1562-1.4062-10.406-2.625-15.562-3.8906l-65.391-16.172c-21.516-5.3438-43.078-11.156-65.25-12.984-5.25-0.46875-10.5-0.5625-15.703-0.375 0.46875-0.46875 0.84375-0.98438 1.3125-1.5 2.3438-2.7656 4.9688-5.625 6.6562-8.8125 0.1875-0.32812 0.375-0.65625 0.51562-1.0312 7.4062-0.28125 14.906 0.60938 22.219 1.5 10.594 1.3125 21.141 3.1875 31.594 5.2969 9.2344 1.875 18.281 4.1719 27.375 6.4688 13.219 3.3281 26.625 5.5312 40.125 7.3125 14.625 1.9688 29.297 3.6562 43.828 6.2812 3.7969 5.2969 7.9688 10.312 12.656 14.906 12.469 12.094 29.25 20.484 46.781 21.281 1.6875 0.09375 3.375 0.046875 5.0625-0.046875-4.7344 8.1562-9.6094 16.219-14.625 24.188zm-272.86-263.63c2.4375 8.9062 8.0625 18 16.688 21.938l1.4062 0.5625c2.8125 1.0312 4.5469 3.375 4.2188 6.4688-0.28125 2.5781-2.9062 5.4375-5.7656 5.0625-0.51562-0.09375-1.0312-0.14063-1.5469-0.1875h-0.046875c-17.203-2.25-35.156-4.4062-51.891 1.5-7.5 2.625-13.969 7.125-19.078 13.172-3 3.5625-5.5312 7.6406-7.7812 11.812-1.2188 2.9531-2.6719 5.8125-4.4531 8.5312-4.125 6.3281-13.547 0.79688-10.078-5.9062 1.125-2.25 2.2969-4.4531 3.4688-6.6562 5.5312-13.312 3.9844-28.969-2.3438-41.906-5.9062-12.188-15.188-22.266-25.594-30.844-4.5-2.3438-8.5312-5.3438-12.047-9.1875-4.3125-4.6875 1.4531-13.219 7.125-9.1875 3.75 2.625 7.4062 5.3438 11.016 8.25 4.3125 2.2031 9 3.6562 13.781 4.8281 9.9375 2.4375 20.344 4.0312 30.609 3.8438 16.969-0.32813 36.328-8.25 40.312-26.531 1.0312-4.9219 6.4219-5.1562 9.4688-2.625 2.6719 1.1719 3.75 4.0781 3.2812 6.9375-2.0625 13.125-4.2656 27.188-0.65625 40.266zm18.562 288c-3.1875-9.4688-8.0156-18.375-14.719-25.781-6.8906-7.6875-15.844-13.125-25.266-17.25-4.7344-2.0625-9.5625-4.0312-14.531-5.8594 1.125-0.14062 2.1562-0.5625 2.9062-1.4062 3.0938-0.65625 6.1406-1.5 9.0938-2.3906 5.8594-1.8281 11.625-3.9844 17.203-6.4688 17.625 4.125 30.938 20.391 39.188 35.672 8.4844 15.703 12.75 34.078 14.531 51.75 0.84375 8.25 1.125 16.594 0.5625 24.891-3.2812 0.98437-6.5156 1.9688-9.8906 2.5312-6.375 1.0781-12.938 1.2188-19.359 0.46875 5.9531-18 6.1875-38.156 0.1875-56.156zm-69.328-88.875c-3.0469-10.594-6.0469-21.141-9-31.734 5.9062 1.6875 11.906 3.2344 18 4.5 11.062 2.2969 22.312 4.5 33.562 2.6719-7.0312 17.625-16.547 34.219-28.219 49.078-0.1875-0.1875-0.46875-0.375-0.70312-0.51562-8.1094-5.1562-11.109-15.281-13.594-24zm0.5625 27.938c-1.5938-0.28125-3.1406-0.84375-4.5938-1.5938h-0.046875c-0.5625-0.32813-1.1719-0.65625-1.6875-1.125-0.375-0.28125-0.70312-0.5625-1.0312-0.84375-0.75-0.65625-1.5469-1.125-2.3438-1.3594-5.9531-3.9375-11.719-8.2031-17.25-12.703-0.046875-0.09375-0.09375-0.14063-0.1875-0.1875-0.1875-0.1875-0.46875-0.375-0.65625-0.5625h-0.046875c-3.7031-3-7.3125-6.1875-10.828-9.4688-8.8594-8.2969-20.062-18.141-17.156-31.641 1.0312-4.7812 3.0938-9.1875 5.7188-13.312 9.0938 3.0938 18.094 6.1875 27.188 9.1406 3.9375 13.781 7.6875 27.656 11.812 41.344 2.4375 8.0625 5.625 16.078 11.109 22.312zm97.781-57.094c-0.1875 1.0312-0.5625 2.0625-1.4062 3.2344-3.5625 5.25-8.25 9.9844-12.75 14.438-0.98438 0.98438-1.9688 1.9688-3 2.9062-3.6562 3.4219-7.4531 6.6562-11.438 9.7031-8.4375 6.375-17.531 12-27.094 16.5-3.8438 1.8281-7.7812 3.4688-11.766 4.9688-0.28125 0.09375-0.5625 0.1875-0.84375 0.28125 11.25-16.031 20.25-33.609 26.719-52.219 3.9844-1.875 7.875-3.9375 11.625-5.8125 7.5938-3.7031 15.234-7.5 22.125-12.375 1.2188 1.5938 2.25 3.2812 3.2812 5.0625 1.4062 2.4375 2.625 5.0156 3.5625 7.6875 0.75 2.1562 1.2188 3.8438 0.9375 5.625zm-32.672-17.672c-3.8438 1.9219-7.6875 3.75-11.531 5.625-1.5469 0.75-3.0938 1.5-4.5938 2.2031-2.1562 0.98437-4.3125 1.875-6.5625 2.4375-9.9375 2.5312-20.531 0.1875-30.281-1.875-8.8125-1.7812-17.531-4.0781-26.062-6.75-0.46875-0.1875-0.9375-0.28125-1.4062-0.46875-9.0938-2.8125-18-5.9531-27-9.0469 3.5156-3.8438 7.3125-7.4531 10.875-10.875 4.9688-4.7812 9.9375-10.641 15.984-14.109 5.7188-3.2812 13.688-1.875 19.969-1.5938 27.281 1.3125 56.906 5.1562 77.672 24.609 0.09375 0.09375 0.1875 0.1875 0.32812 0.28125-5.1562 3.4688-11.625 6.6562-17.25 9.4688zm-126.84 75.938c9.1875-4.125 19.172-6.8906 29.156-8.3438 5.1562 4.125 10.5 8.0625 15.938 11.719-5.9531-0.28125-12 0.28125-17.906 1.8281-19.031 5.0625-35.812 18.281-46.594 34.547-11.531 17.297-16.031 39-7.6875 58.5-6.7031 0.09375-13.406-0.23437-19.969-1.4062-2.2031-0.375-4.4062-0.89062-6.5156-1.5 0.375-0.98437 0.46875-2.1094 0.1875-3.375-4.5-18.891 0.09375-38.719 10.172-55.031 10.031-16.312 25.922-29.062 43.312-36.891zm408.74-2.3438c-13.828 4.5469-29.344 0.375-41.531-7.125-9.9375-6.0938-17.719-14.812-24.281-24.375-3.6094-5.25-6.7969-10.688-9.75-16.219-9.375-17.344-17.438-35.344-26.438-52.875-9.3281-18.234-19.031-36.281-29.062-54.188-20.062-35.719-41.531-70.688-64.312-104.81-11.344-17.062-23.062-33.891-35.109-50.484-11.438-15.844-22.688-32.719-38.344-44.719-30.188-23.062-69.328-13.125-104.3-14.531-9.9844-0.42188-19.875-1.9688-29.812-3s-19.875-1.9219-29.766-2.7188c-17.812-1.4062-35.625-2.5781-53.391-3.9375-15.844-1.2188-31.781-2.625-47.531-4.9688-7.8281-1.1719-15.609-2.5312-23.344-4.1719-8.1094-1.7344-15.844-4.2656-24.188-2.3438-16.312 3.7969-25.875 20.531-22.219 36.516 4.2188 18.656 9.8906 37.125 15.938 55.219 12.094 36.516 27.094 72.094 44.812 106.31 17.625 34.031 37.922 66.703 60.656 97.5 5.7188 7.6875 11.531 15.281 17.531 22.734 0.1875 0.23438 0.42188 0.46875 0.65625 0.65625-0.046875 0.14063-0.09375 0.28125-0.14062 0.32813-0.1875 0.375-0.375 0.70312-0.5625 1.0312-0.1875 0.375-0.42188 0.70312-0.65625 1.0312v0.046874c0 0.046876-0.046875 0.09375-0.09375 0.09375v0.046876l-0.1875 0.1875c-0.51562 0.5625-1.0781 1.1719-1.6406 1.6875-1.9688 1.7812-4.9688 3.375-7.875 4.2188-3.9844 1.125-7.8281 1.4062-12 1.4062-1.4531 0-2.9062 0-4.3125-0.09375-0.42188-2.1094-1.9688-3.9844-4.125-4.5-0.84375-0.1875-1.6875-0.28125-2.4844-0.1875-14.062-24.281-27.75-48.75-41.156-73.406-16.312-30-32.25-60.234-47.625-90.75-14.812-29.297-29.156-58.828-42.562-88.781-6.1406-13.688-12.281-27.469-17.625-41.531-3.2344-8.5781-6.2812-17.578-7.125-26.766-0.84375-8.1562-0.46875-17.438 3.8438-24.75 1.2188-2.1562 2.8125-3.9375 4.875-5.1562 0.14062-0.09375 0.28125-0.1875 0.46875-0.23437 0.5625-0.32813 1.2188-0.5625 1.9219-0.79688 4.2188-1.2656 8.8125-0.89062 13.172-0.9375 10.172-0.046874 20.391-0.09375 30.562-0.1875 20.156-0.09375 40.266-0.28125 60.375-0.28125 40.125-0.09375 80.203 0.14063 120.28 2.0625 39.75 1.9219 79.5 5.4375 118.78 12.047 9.8438 1.6406 19.594 3.4688 29.344 5.4844 8.6719 1.7812 17.906 3.4688 25.219 8.7656 6.6562 4.7812 11.109 12.094 15.422 18.844 5.4375 8.5312 10.922 17.062 16.312 25.594 21.844 34.359 43.453 68.859 64.828 103.5 21.375 34.641 42.516 69.422 63.422 104.34 2.5312 4.1719 4.9688 8.3438 7.5 12.562 1.2188 2.0156 2.3906 4.0312 3.5625 6 0.375 0.65625 0.84375 1.3125 1.2188 1.9688 0 0.9375 0.1875 1.9688 0.84375 3 13.031 22.688 26.156 45.375 39.188 68.062 6.0938 10.594 11.906 21.469 18.422 31.781 3.8906 6.1875 8.9062 11.812 15.328 14.625-0.28125 0.23437-0.60938 0.46875-0.89063 0.75zm22.875-83.438c-1.6875 7.3594-13.031 4.2188-11.297-3.0938 4.7344-20.109 5.5312-40.875 3.4688-61.359-3.8438-37.781-17.25-74.25-32.812-108.61-16.031-35.531-34.969-69.609-52.547-104.34-3.375-6.75 6.7031-12.656 10.125-5.9062 9.9844 19.688 20.391 39.188 30.469 58.875 18.281 35.719 35.766 72.281 46.828 111 10.594 36.844 14.625 75.844 5.7656 113.48z"/>
 <path d="m610.45 407.11c-0.46875 0.42188-0.98438 0.84375-1.5 1.2188-14.625 11.906-33.469 14.109-51.656 11.906-3.8438-0.46875-7.7812-1.0312-11.766-1.6875 4.7812 5.7656 8.9062 12 12 18.891 3.6094 8.0156 5.8594 16.781 6.375 25.594 5.25-4.7812 11.438-8.3906 18.094-11.016 12.469-4.875 25.688-5.4375 38.906-4.5-3.4688-4.5938-6.0938-9.8438-7.875-15.469-2.5781-8.1562-3.0938-16.594-2.625-25.031z"/>
 <path d="m228.56 627.84c4.5938 5.8594 8.3438 12.562 10.828 19.594s13.5 4.2188 11.297-3.0938c-4.9688-16.266-2.3438-33.891 5.25-48.938 3.3281-6.6562 7.5-12.188 12.984-17.25 5.3906-5.0156 11.25-9.4688 16.828-14.344 6.5625-5.7188 12.656-12.141 16.875-19.875 0.65625-1.2188 0.84375-2.4375 0.70312-3.5625v-0.09375c-0.09375-1.2188-0.65625-2.3906-1.6406-3.375s-2.4844-1.5938-3.9844-1.6875h-0.98438c-0.1875 0-0.375 0.046875-0.51562 0.09375-0.5625 0.09375-1.0312 0.28125-1.5469 0.5625-0.1875 0.09375-0.28125 0.1875-0.46875 0.28125-0.5625 0.375-1.0312 0.84375-1.4062 1.5-8.2969 9.5625-22.5 10.453-34.5 7.5-15.094-3.7031-26.344-14.203-34.688-27-4.125-6.375-7.6406-13.078-10.875-19.922-0.84375-2.1562-1.7812-4.2188-2.9062-6.2812-1.5-2.8125-5.3906-3.6562-8.0156-2.1094-3 1.7344-3.4219 5.1094-2.1094 8.0156l2.25 4.9219c6.6562 16.594 4.6875 36.141-4.3125 51.562-9.3281 16.078-25.406 27.375-43.125 32.438-3.0469 0.84375-4.9688 4.125-4.125 7.2188 0.9375 3.375 4.0781 4.5469 7.2188 4.0781 26.625-3.9375 54.562 8.9062 70.922 29.812zm-11.25-98.156c4.125 5.625 8.9062 10.781 14.438 15.188 12.094 9.4688 27.469 14.438 42.75 13.219-4.7812 4.0312-9.75 7.875-14.25 12.094-12.75 11.953-20.578 28.688-23.016 45.938-0.1875 1.2188-0.32812 2.4375-0.42188 3.7031-13.594-17.016-33.469-29.062-55.031-32.719h-0.14062c19.594-12.844 33.656-33.469 35.625-57.328z"/>
</svg>
