<?xml version="1.0" encoding="UTF-8"?>
<svg width="1200pt" height="1200pt" version="1.1" viewBox="0 0 1200 1200" xmlns="http://www.w3.org/2000/svg">
 <path d="m906.56 464.34 0.32812-48.844c0.046875-7.9688-11.953-8.1094-12-0.09375l-0.32812 48.844c-0.046875 7.9688 11.953 8.1094 12 0.09375z"/>
 <path d="m934.55 477.19c11.859-18.797 22.594-38.625 31.969-58.828 3.3281-7.2188-7.5469-12.234-10.875-5.0625-9.1406 19.781-19.641 39.094-31.219 57.469-4.2656 6.7031 5.8594 13.125 10.125 6.4219z"/>
 <path d="m955.36 498.61 51.891-30.094c6.8906-4.0312 0.75-14.391-6.0469-10.359l-51.891 30.094c-6.8438 3.9375-0.84375 14.344 6.0469 10.359z"/>
 <path d="m105.66 901.5c8.5781 11.344 75.422 66.141 83.578 67.078 6.75 3.75 12.562-6.0469 6.1875-10.219-70.875-46.172-91.266-74.906-87.469-82.172 0.375-0.70312 4.4062-6.7031 32.953-1.7344 3.0469 0.51562 6.4688 1.3594 9.75 2.1094 22.078 19.406 54.703 42.234 93.797 65.391-71.672 43.172-41.109 139.87 30.844 143.06 47.906 2.3438 85.547-41.297 76.875-87.703 37.078 16.359 70.594 28.266 96.188 34.219 2.4844 2.2031 5.1094 4.5 7.3125 6.6094 23.203 22.453 20.391 29.766 19.969 30.562-0.32812 0.5625-0.84375 0.98438-1.3125 1.4062-7.5938 5.5312-42.328 3.3281-113.58-25.406-7.3594-2.9531-11.859 8.1562-4.5 11.109 26.25 10.594 99.375 38.812 123.84 24.375 48-14.062 65.297-77.766 34.172-119.62-2.2969-3.0938-3.2812-6.4688-2.6719-9.6094 3.4219-18.984-1.6406-37.453-3.8906-54.891-3.0469-24.984 6.9844-51.375 15.75-75.328 2.7188-7.4531-8.5312-11.531-11.297-4.125-9.6094 26.297-19.734 53.391-16.359 80.953 2.1562 16.5 6.6094 33.281 4.1719 49.5-11.344-11.297-23.109-22.266-35.625-32.344-6.1875-4.9688-13.734 4.3594-7.5469 9.3281 35.531 28.594 43.594 41.672 48.844 45.375 20.812 30 15.047 75.516-18.047 94.453-10.547-64.453-342.1-237.74-386.95-197.29-9.6094-39.75 31.078-78.188 71.953-80.109 1.5938-0.09375 3-0.70312 4.5469-1.0781 7.8281 5.3906 101.53 20.953 215.16 93.281 6.6094 4.2188 13.172-5.8594 6.4219-10.125-61.172-38.953-130.74-69.422-206.72-90.984 12.703-11.297 29.25-18.188 43.594-25.969 74.016-40.547 111.52-195.71 235.13-134.39 5.3438 5.0625 65.578 24 62.766 106.73-0.28125 7.7812 11.719 8.625 12 0.42188 0.70312-18.656-3.5156-40.969-9.8438-57.844-8.25-21.562-28.219-44.859-62.062-60.938 13.453-36.281 33.141-117.61 39.562-182.63 10.031-0.46875 16.031-4.2656 21.141-11.672 32.203 17.016 55.688 30.656 81.328 49.688-30.047 20.672-51.516 48.609-58.641 77.531-19.125 76.359 38.438 181.03 27.047 251.39-3.6094 21.656-9.9375 43.969-7.8281 66.656 0.65625 6.2812-1.3125 12.562-4.875 17.672-16.453 23.438-21.984 56.859-16.594 83.766 13.406 66.469 96.422 69.516 95.766 67.875-0.23438-0.65625-0.89062-0.89062-1.2656-1.4062 37.031 6.7031 109.03-18.891 146.63-32.109 7.125-2.5312 4.3125-15.703-4.125-12.469-53.859 21.094-106.73 31.078-143.72 32.297-4.2188-1.1719-7.0312-3-8.25-5.3906-1.2188-2.4375-3.375-12.328 20.953-37.5 2.8594-2.9531 6.3281-6.0938 9.6562-9.1875 34.875-8.2031 80.625-24.469 130.82-46.922-6.2812 62.016 42.516 111.05 100.92 103.73 89.484-11.156 107.3-133.18 26.859-169.92 43.125-25.641 78.984-50.906 103.08-72.328 4.9688-1.0781 9.9844-2.1562 14.578-2.9062 38.344-6.2812 45.75 1.7812 47.062 4.4062 5.9062 11.672-20.906 46.5-93.844 95.391-6.6094 4.4531 0.14062 14.391 6.7031 9.9844 34.828-23.344 87.281-62.438 97.969-92.016 0.75-0.375 1.4531-0.89062 2.0625-1.5938 28.594-35.109-15.281-120.71-92.766-125.11-5.1094-0.42188-9.7031-2.3906-12.938-5.5312-16.875-16.359-38.297-25.312-57.375-36-34.406-19.266-57.234-55.406-90.281-97.359-4.875-6.2344-14.344 1.1719-9.4219 7.4062 33 41.953 56.953 79.734 93.797 100.41 18.094 10.125 38.484 18.844 53.906 33.328-21.422 3.375-42.797 7.6875-63.797 13.594-7.5938 2.1562-4.4062 13.734 3.2344 11.531 20.344-5.7188 67.594-16.641 81.984-15.422 48.562 2.7656 96.047 48.797 89.203 92.672-38.297-47.484-349.18 89.578-450.05 193.45-21.562 22.312-29.109 39.047-23.109 51.188-39.516-3.0469-68.531-78.281-34.547-132.28 2.3906-3.7031 3.9375-7.6875 4.6875-11.766 26.109-18.516 108.28-91.875 241.6-145.92 7.4062-3 2.8125-14.109-4.5-11.109-82.172 33.328-161.86 81.141-237.14 141.84-1.6406-20.438 2.9531-41.062 5.25-60.234 12.469-104.58-116.91-249.89 34.406-331.69 31.078-16.734 64.031-22.312 90.422-15.328 17.719 4.6406 38.812 14.484 52.406 24.047 6.4688 4.5469 13.406-5.25 6.8906-9.8438-14.531-10.219-37.125-20.766-56.25-25.828-32.906-8.6719-69 0.375-99.656 16.547-2.0625 1.125-3.9844 2.3906-6 3.5625-16.078-12.188-31.688-23.109-65.812-42.047 55.031 11.625 110.02-0.9375 158.02-27.422 18.516-10.5 15.328-19.125 14.625-37.547-1.8281-59.531-27.75-109.31-57.469-135.66-4.3594-4.2188-10.875-10.359-20.484-8.1094-6.3281-41.391-57.047-84.844-94.734-67.078-17.578 8.25-27.469 26.578-34.688 39.938-11.812 21.656-21 45.797-27.047 70.922-12.891-42.469-43.734-107.34-83.109-126-19.875-9.3281-42-7.6875-56.25 4.1719-30.984 25.125-42.703 119.62 21.984 196.45-25.031-6.7969-50.953-10.641-75.984-10.641-60.75 0-82.125 35.531-76.547 76.172 5.625 35.859 28.547 56.016 34.641 56.859-0.1875 0.60938-0.51562 1.1719-0.60938 1.7812-6.2812 6.1875-8.4844 7.0781-5.2969 20.156 10.828 42.094 41.859 84.375 88.781 111.75 10.125 6.1406 17.203 14.156 29.672 7.6875 6.1875 1.2656 11.953-0.65625 17.391-3.9375 46.453-33.188 87.141-65.016 104.48-134.48-6.0469 43.969-21.328 114.94-35.625 153.74-123.56-47.203-159.56 97.969-235.03 134.72-16.172 7.8281-34.125 14.016-47.953 26.25-3.9375 3.2812-8.9531 4.875-14.203 5.0625-65.062 0-108.61 70.078-59.625 134.68zm147.37 49.125c10.641-5.7188 22.828-10.266 31.734-20.625l1.2188-1.3594c19.219 9.4688 33.188 16.922 51.562 27.281 0.51562 1.0781-0.375 4.9219-0.84375 6.8906-5.8125 24 20.766 60.516-15.656 93.703-25.594 23.531-65.344 21.75-88.922-3.8438-27.891-30.609-20.062-79.312 20.906-102.05zm560.11-38.484c2.8125-19.734 6-33.562 1.2656-49.406 23.953-12.984 43.312-22.594 64.406-32.484 3.2812-0.14062 8.25 8.2031 13.266 12.188 14.906 12 69.094 21.234 75.984 76.031 9.9844 79.828-99.984 128.29-148.31 39.984-0.98438-3.5625-9.6094-19.922-6.6094-46.312zm-276.52-730.31c6.7969-12.562 15.234-28.219 29.25-34.781 29.859-14.109 73.641 24.797 78.047 59.906-13.781 5.0625-24.938 10.734-39.609 22.312-6.2344 4.9219 1.2188 14.344 7.4531 9.4219 18.469-14.578 28.781-17.297 39.656-21.703v0.046875c9-2.7656 8.5781-4.4062 16.406 3.1406 27.75 24.656 51.938 71.203 53.625 127.26 0.046875 1.5 0.375 6.2344 0.51562 7.8281-12.047-9.6094-36.703-15.375-59.156-9.0469-36.141 9.6562-49.078 37.312-123.32 34.031-3.375-17.156-11.484-30.141-22.547-39.609 15.188-21.938 33.891-43.828 60.375-70.312 5.625-5.625-2.8594-14.109-8.4844-8.4844-27.047 27.047-46.266 49.547-61.875 72.141-1.2188-0.65625-2.4844-1.1719-3.7969-1.6875-3.1406-50.484 8.9062-105.56 33.469-150.47zm-169.36-47.391c12.234-10.172 30.703-8.625 43.5-2.625 40.078 19.031 72.281 94.453 83.109 141.84-2.8594 18.891-3.75 37.5-2.8594 55.594-15.375-1.0312-27.797 8.3438-30.375 26.953-16.969-10.969-36.047-20.203-56.203-27.422-73.922-71.812-65.625-171.24-37.172-194.34zm55.125 352.36c-25.312 20.484-58.406 30.422-65.953 74.109-37.688-23.578-67.125-58.078-80.391-104.53-1.1719-4.6875-1.8281-7.6875-0.60938-9.75 0.046875-0.09375 0.09375-0.14062 0.14062-0.23438 16.828-15.75 25.031-24.469 62.016-37.219 7.5-2.5781 3.6094-13.922-3.8906-11.344-24 8.2969-40.781 16.266-57.703 31.547-28.453-20.391-41.766-77.297-15.141-97.359 12.375-8.9531 30.328-8.9531 44.766-8.9531 56.672 0 116.62 20.203 153.37 46.5-27.844 1.4062-69.234 11.672-96.141 19.406-7.5 2.1562-4.4531 13.734 3.3281 11.531 64.406-18.516 91.641-18.469 95.719-19.172 2.7656 9.8906 7.5 18.375 14.906 25.781-9.7031 16.406-21.891 53.578-54.422 79.688zm61.031-93.047c-7.2656-8.7656-9.2344-18.844-10.031-20.484-12.094-48.281 45.703-38.109 54.234 8.0156 2.5312 11.25 0.14062 25.688-10.031 28.828-11.438 4.5-27.188-6.1406-34.172-16.359z"/>
</svg>
