<?xml version="1.0" encoding="UTF-8"?>
<svg width="1200pt" height="1200pt" version="1.1" viewBox="0 0 1200 1200" xmlns="http://www.w3.org/2000/svg">
 <path d="m222.28 810.56c4.7031 2.7773 10.016 4.3555 15.469 4.5938-0.054688 0.33984-0.054688 0.69141 0 1.0312v280.69c0 1.2422 0.49219 2.4336 1.3711 3.3164 0.88281 0.87891 2.0742 1.3711 3.3164 1.3711h715.5c1.2422 0 2.4336-0.49219 3.3164-1.3711 0.87891-0.88281 1.3711-2.0742 1.3711-3.3164v-280.31c0.089844-0.46484 0.089844-0.94141 0-1.4062 5.4844-0.23438 10.828-1.8125 15.562-4.5938 5.0898-2.9062 9.3164-7.1094 12.246-12.184 2.9336-5.0703 4.4648-10.832 4.4414-16.691v-42.094c0-8.9023-3.5352-17.438-9.832-23.73-6.293-6.2969-14.828-9.832-23.73-9.832h-105.09v-192.47c3.5195-0.33594 6.9336-1.3906 10.031-3.0938 3.7969-2.1914 6.9414-5.3516 9.1133-9.1562 2.1758-3.8047 3.3008-8.1172 3.2617-12.5v-29.438c0-6.6211-2.625-12.977-7.2969-17.668-4.6758-4.6914-11.02-7.3398-17.641-7.3633h-240.94l11.438-9.375c32.758-26.734 64.055-55.211 93.75-85.312 42.938-43.969 57.562-92.062 57-122.91v-1.0312-4.4062c0.011719-29.293-11.402-57.434-31.816-78.445-20.414-21.008-48.215-33.227-77.496-34.055-23.836 0.14844-46.938 8.2656-65.625 23.062-18.688-14.797-41.789-22.914-65.625-23.062-29.312 0.78125-57.164 12.98-77.617 33.992-20.453 21.016-31.895 49.184-31.883 78.508v2.3438c-0.5625 15.188 1.7812 69.281 56.906 125.72 29.738 30.145 61.031 58.715 93.75 85.594l11.438 9.375h-240.66c-6.6211 0.023438-12.965 2.6719-17.641 7.3633-4.6719 4.6914-7.2969 11.047-7.2969 17.668v29.625c-0.039062 4.3828 1.0859 8.6953 3.2617 12.5 2.1719 3.8047 5.3164 6.9648 9.1133 9.1562 3.0977 1.7031 6.5117 2.7578 10.031 3.0938v192.28h-104.62c-8.9023 0-17.438 3.5352-23.73 9.832-6.2969 6.293-9.832 14.828-9.832 23.73v42.094c-0.023438 5.8594 1.5078 11.621 4.4414 16.691 2.9297 5.0742 7.1562 9.2773 12.246 12.184zm266.34-478.12c-52.594-53.906-54.844-104.62-54.281-119.16v-2.4375c0.10938-26.742 10.602-52.395 29.266-71.547s44.035-30.309 70.766-31.109c22.938 0.082031 45.113 8.2461 62.625 23.062 1.75 1.4102 4.25 1.4102 6 0 17.512-14.816 39.688-22.98 62.625-23.062 26.828 0.78125 52.293 11.988 70.988 31.246 18.695 19.254 29.148 45.039 29.137 71.879v2.8125c-0.14453 0.52344-0.14453 1.0703 0 1.5938 0.9375 28.875-12.844 75-54.375 117.47-29.504 29.734-60.547 57.898-93 84.375l-18.375 15.188-18.094-15.375c-32.559-26.66-63.695-55.012-93.281-84.938zm-135.47 297.28h197.81l-28.125 28.125c-1.3516 1.375-1.7227 3.4375-0.9375 5.1992 0.78906 1.7617 2.5742 2.8594 4.5 2.7695l22.969-1.4062-0.65625 23.906c-0.070312 1.9102 1.0508 3.668 2.8125 4.4062 0.61719 0.14062 1.2578 0.14062 1.875 0 1.2188-0.011719 2.3906-0.48047 3.2812-1.3125l34.594-34.688c1.6875 1.5 3.375 3 5.3438 4.5938 1.7227 1.4883 4.2773 1.4883 6 0 1.9688-1.5938 3.6562-3.0938 5.3438-4.5938l34.594 34.688c0.89062 0.83203 2.0625 1.3008 3.2812 1.3125 0.61719 0.14062 1.2578 0.14062 1.875 0 1.7617-0.73828 2.8828-2.4961 2.8125-4.4062l-0.65625-23.906 22.969 1.4062c1.9258 0.089844 3.7109-1.0078 4.5-2.7695 0.78516-1.7617 0.41406-3.8242-0.9375-5.1992l-28.125-28.125h197.81v76.312h-492.94zm288.09 46.875-25.781-25.969c8.0625-7.0312 14.531-13.031 20.438-18.75l0.75-0.9375 24.75 24.844-15.75-0.9375c-1.293-0.09375-2.5625 0.38672-3.4688 1.3125-0.97266 0.88672-1.5195 2.1523-1.5 3.4688zm12-76.594h193.59v20.625h-202.12c4.1562-6.2578 7.0547-13.262 8.5312-20.625zm0-10.875c-0.55859-6.6953-3.2461-13.035-7.6641-18.094-4.418-5.0586-10.34-8.5742-16.898-10.031l7.4062-10.875c3.6367-5.3672 9.4805-8.832 15.938-9.4492 6.457-0.61719 12.848 1.6797 17.438 6.2617 4.5898 4.6211 6.8867 11.043 6.2695 17.527-0.61719 6.4844-4.082 12.359-9.457 16.035zm-29.812-19.5c5.4922 0.21094 10.703 2.4922 14.582 6.3906 3.8789 3.8945 6.1367 9.1133 6.3242 14.609v6c-1.7617 10.793-7.0703 20.691-15.094 28.125-9.2773 9.4727-19.039 18.453-29.25 26.906-10.176-8.3945-19.906-17.312-29.156-26.719-9.2188-8.1016-14.738-19.613-15.281-31.875 0.039062-0.5 0.039062-1 0-1.5-0.26953-6.5977 2.5977-12.934 7.7266-17.094 5.1328-4.1562 11.926-5.6445 18.324-4.0117 6.3984 1.6289 11.652 6.1875 14.168 12.293 0.71484 1.6992 2.375 2.8047 4.2188 2.8125 1.8555-0.039062 3.5273-1.1289 4.3125-2.8125 1.625-3.7695 4.2812-7.0039 7.668-9.3242 3.3828-2.3242 7.3555-3.6406 11.457-3.8008zm-65.625 86.625c-0.91406-0.91406-2.1758-1.3945-3.4688-1.3125l-15.75 0.9375 24.75-24.844 0.75 0.84375c5.9062 6.1875 12.281 12.188 20.438 19.219l-25.781 25.406 0.5625-17.25c-0.12891-1.1445-0.66016-2.207-1.5-3zm-11.344-66.656-13.031-9.2812c-5.375-3.6758-8.8398-9.5508-9.457-16.035-0.61719-6.4844 1.6797-12.906 6.2695-17.527 4.5898-4.582 10.98-6.8789 17.438-6.2617 6.457 0.61719 12.301 4.082 15.938 9.4492l7.4062 10.875c-6.5742 1.4922-12.5 5.043-16.918 10.137-4.4141 5.0898-7.0938 11.457-7.6445 18.176zm-1.125 10.406c0.46484 0.082031 0.94141 0.082031 1.4062 0 1.5312 7.2617 4.4258 14.164 8.5312 20.344h-202.12v-20.344zm301.5-86.062v76.688h-178.12l3.5625-2.4375c7.7383-5.1953 12.727-13.594 13.594-22.875 0.92578-9.2695-2.3516-18.465-8.9297-25.062-6.5742-6.5977-15.762-9.9023-25.035-9.0078-9.2695 0.89844-17.656 5.8984-22.848 13.633l-10.406 15.469v0.75c-7.3203 1.2188-13.945 5.0469-18.656 10.781-4.4688-5.6914-10.816-9.6133-17.906-11.062 0 0 0-0.75-0.46875-1.0312l-9.75-15.094c-5.2383-7.6328-13.602-12.539-22.82-13.383-9.2188-0.84766-18.336 2.457-24.875 9.0078-6.5391 6.5547-9.8242 15.68-8.957 24.895 0.86328 9.2188 5.7891 17.57 13.434 22.793l3.1875 2.1562h-178.12v-76.969c1.9258-0.53125 3.7812-1.2852 5.5312-2.25l30.844-17.531c2.3867-1.4023 5.1055-2.1406 7.875-2.1406s5.4883 0.73828 7.875 2.1406l46.875 28.125c3.8594 2.332 8.2852 3.5664 12.797 3.5664s8.9375-1.2344 12.797-3.5664l46.875-28.125c2.4141-1.4727 5.1875-2.2539 8.0156-2.2539s5.6016 0.78125 8.0156 2.2539l46.875 28.125c3.8711 2.3516 8.3125 3.5938 12.844 3.5938s8.9727-1.2422 12.844-3.5938l46.875-28.125c2.4141-1.4727 5.1875-2.2539 8.0156-2.2539s5.6016 0.78125 8.0156 2.2539l46.875 28.125c3.8711 2.3516 8.3125 3.5938 12.844 3.5938s8.9727-1.2422 12.844-3.5938l46.875-28.125c2.3711-1.4023 5.0742-2.1406 7.8281-2.1406s5.457 0.73828 7.8281 2.1406l30.844 17.531c1.7305 1.0039 3.5898 1.7617 5.5312 2.25 0 0-1.3125 0.09375-1.3125 0.28125zm-515.62-24.656v-29.906c-0.023438-4.1445 1.6055-8.125 4.5234-11.066 2.9219-2.9375 6.8945-4.5898 11.039-4.5898h506.91c4.1445 0 8.1172 1.6523 11.039 4.5898 2.918 2.9414 4.5469 6.9219 4.5234 11.066v29.625c0.011719 2.7383-0.69922 5.4297-2.0664 7.8008-1.3672 2.3711-3.3398 4.3398-5.7148 5.6992-2.3438 1.3867-5.0117 2.1172-7.7344 2.1172s-5.3906-0.73047-7.7344-2.1172l-30.375-17.625c-3.8164-2.2148-8.1484-3.3789-12.562-3.3789s-8.7461 1.1641-12.562 3.3789l-46.875 28.125c-2.4297 1.4258-5.1992 2.1758-8.0156 2.1758s-5.5859-0.75-8.0156-2.1758l-46.875-28.125c-3.8711-2.3516-8.3125-3.5938-12.844-3.5938s-8.9727 1.2422-12.844 3.5938l-46.875 28.125c-2.4141 1.4258-5.1641 2.1797-7.9688 2.1797s-5.5547-0.75391-7.9688-2.1797l-46.875-28.125c-3.8711-2.3516-8.3125-3.5938-12.844-3.5938s-8.9727 1.2422-12.844 3.5938l-46.875 28.125c-2.4297 1.4258-5.1992 2.1758-8.0156 2.1758s-5.5859-0.75-8.0156-2.1758l-46.875-28.125c-3.8086-2.2422-8.1445-3.4258-12.562-3.4258s-8.7539 1.1836-12.562 3.4258l-30.844 17.531c-2.3516 1.4023-5.043 2.1445-7.7812 2.1445s-5.4297-0.74219-7.7812-2.1445c-2.3477-1.3984-4.2852-3.3906-5.6211-5.7773-1.332-2.3867-2.0117-5.082-1.9727-7.8164zm622.31 328.12v110.72h-262.5l10.406-6.9375c10.348-7.1719 16.973-18.574 18.078-31.117 1.1016-12.543-3.4297-24.926-12.371-33.797-8.9375-8.8672-21.355-13.301-33.891-12.098s-23.883 7.918-30.973 18.324l-14.812 21.844c-0.33984 0.50781-0.5625 1.0859-0.65625 1.6875-10.789 1.8672-20.418 7.8906-26.812 16.781-6.3359-9.1406-16.051-15.383-27-17.344-0.125-0.69922-0.37891-1.3672-0.75-1.9688l-14.531-21c-7.1094-10.367-18.461-17.035-30.98-18.191-12.516-1.1562-24.898 3.3164-33.789 12.203-8.8867 8.8906-13.359 21.273-12.203 33.789 1.1562 12.52 7.8242 23.871 18.191 30.98l9.8438 6.5625-261.84 0.28125v-111.94c-0.011719-0.65234-0.17188-1.293-0.46875-1.875 3.2852-0.70703 6.4492-1.9102 9.375-3.5625l44.156-24.844c3.6953-2.168 7.9023-3.3086 12.188-3.3086s8.4922 1.1406 12.188 3.3086l66.75 40.031c5.1953 3.1719 11.164 4.8516 17.25 4.8516s12.055-1.6797 17.25-4.8516l66.375-39.75c3.7422-2.2773 8.0391-3.4805 12.422-3.4805s8.6797 1.2031 12.422 3.4805l66.375 39.75c5.1953 3.1719 11.164 4.8516 17.25 4.8516s12.055-1.6797 17.25-4.8516l66.375-39.75c3.7344-2.2969 8.0352-3.5117 12.422-3.5117s8.6875 1.2148 12.422 3.5117l66.375 39.75c5.207 3.1328 11.172 4.7891 17.25 4.7891s12.043-1.6562 17.25-4.7891l66.75-40.031c3.6953-2.168 7.9023-3.3086 12.188-3.3086s8.4922 1.1406 12.188 3.3086l43.875 24.844c2.9062 1.7031 6.0742 2.9062 9.375 3.5625-0.57031 0.63672-0.95703 1.4141-1.125 2.25zm-292.78 235.41-42-41.625c12.281-10.688 21.844-19.406 30.469-28.125l2.5312-2.7188 40.312 40.312-27.562-1.6875c-1.3125-0.050781-2.5938 0.42188-3.5625 1.3125-0.91797 0.95703-1.4219 2.2383-1.4062 3.5625zm-121.88-32.906c-0.94141-0.92969-2.2422-1.4102-3.5625-1.3125l-27.562 1.6875 40.312-40.312c0.84375 0.84375 1.5938 1.7812 2.5312 2.625 9.6758 9.8789 19.848 19.27 30.469 28.125l-41.625 41.625 0.84375-29.344c-0.14844-1.1875-0.71484-2.2852-1.5938-3.0938zm-13.875-92.531-21.188-14.344c-8.0664-5.5352-13.254-14.371-14.152-24.109-0.89844-9.7422 2.582-19.375 9.5-26.293 6.918-6.918 16.551-10.398 26.293-9.5 9.7383 0.89844 18.574 6.0859 24.109 14.152l12.938 18.094c-10.285 1.2539-19.762 6.2031-26.664 13.934-6.9023 7.7305-10.754 17.707-10.836 28.066zm-2.5312 9.375c0.77344 0.53125 1.6875 0.82812 2.625 0.84375h0.5625c2.0156 11.781 6.7695 22.922 13.875 32.531h-292.59v-32.625h275.72zm34.219 39.188c-23.438-24.094-22.312-46.125-22.219-46.875v-1.875c-0.45312-10.039 3.8828-19.699 11.684-26.035 7.8047-6.332 18.148-8.5898 27.883-6.082 9.7305 2.5117 17.695 9.4883 21.465 18.805 0.72266 1.6797 2.3906 2.7539 4.2188 2.7188 1.8398 0 3.5195-1.0586 4.3125-2.7188 2.9609-10.43 11.062-18.613 21.461-21.676 10.398-3.0664 21.645-0.58203 29.789 6.5742 8.1406 7.1562 12.047 17.988 10.344 28.695h-2.25v9.375h1.5938c-3.1211 14.906-10.707 28.512-21.75 39-13.676 13.938-28.102 27.113-43.219 39.469-14.984-12.305-29.316-25.387-42.938-39.188zm118.31-48.562c-0.082031-10.359-3.9336-20.336-10.836-28.066-6.9023-7.7305-16.379-12.68-26.664-13.934l12.281-18.094c5.5352-8.0664 14.371-13.254 24.109-14.152 9.7422-0.89844 19.375 2.582 26.293 9.5 6.918 6.918 10.398 16.551 9.5 26.293-0.89844 9.7383-6.0859 18.574-14.152 24.109zm-0.5625 9.375h0.9375c0.28125 0.039062 0.5625 0.039062 0.84375 0h277.22v33.094h-293.34c7.1016-9.5547 11.883-20.625 13.969-32.344zm-427.5 155.06v-112.5h288.09l-42.844 42.938c-1.4688 1.3359-1.9141 3.4609-1.1055 5.2734 0.8125 1.8125 2.6953 2.8984 4.668 2.6953l34.781-2.1562-1.0312 36.094c0.003906 1.8906 1.1016 3.6055 2.8125 4.4062 0.61719 0.13281 1.2578 0.13281 1.875 0 1.2227 0.007812 2.4023-0.46484 3.2812-1.3125l50.438-50.438 9.375 7.6875c1.7227 1.4883 4.2773 1.4883 6 0l9.375-7.6875 50.438 50.438c0.66016 0.75781 1.5469 1.2852 2.5312 1.5 0.61719 0.125 1.2578 0.125 1.875 0 1.7109-0.80078 2.8086-2.5156 2.8125-4.4062l-1.0312-36.094 34.781 2.1562c1.9336 0.085938 3.7383-0.98047 4.5938-2.7188 0.75781-1.7969 0.35156-3.875-1.0312-5.25l-42.844-42.938h288.09v112.5zm-31.969-352.22c0.023438-6.4062 2.582-12.547 7.1133-17.074 4.5273-4.5312 10.668-7.0898 17.074-7.1133h721.88c6.4062 0.023438 12.547 2.582 17.074 7.1133 4.5312 4.5273 7.0898 10.668 7.1133 17.074v42.094c0.003906 8.6016-4.5742 16.551-12.02 20.863-7.4414 4.3086-16.617 4.3281-24.074 0.042969l-44.062-24.469c-5.1211-2.9883-10.945-4.5664-16.875-4.5664s-11.754 1.5781-16.875 4.5664l-66.844 40.125c-3.7344 2.2578-8.0117 3.4531-12.375 3.4531s-8.6406-1.1953-12.375-3.4531l-66.469-40.125c-5.1953-3.125-11.141-4.7734-17.203-4.7734s-12.008 1.6484-17.203 4.7734l-66.469 39.844c-3.7344 2.2578-8.0117 3.4531-12.375 3.4531s-8.6406-1.1953-12.375-3.4531l-66.469-39.844c-5.1953-3.125-11.141-4.7734-17.203-4.7734s-12.008 1.6484-17.203 4.7734l-66.469 39.844c-3.7344 2.2578-8.0117 3.4531-12.375 3.4531s-8.6406-1.1953-12.375-3.4531l-66.844-39.844c-5.1211-2.9883-10.945-4.5664-16.875-4.5664s-11.754 1.5781-16.875 4.5664l-43.875 24.844c-7.457 4.2852-16.633 4.2656-24.074-0.042969-7.4453-4.3125-12.023-12.262-12.02-20.863zm388.03-350.53c29.453-23.996 57.617-49.531 84.375-76.5 45.938-47.344 43.875-90.75 43.875-94.688v-2.25c0.054688-19.051-7.332-37.367-20.59-51.047-13.258-13.676-31.336-21.633-50.379-22.172-24.84 0.44141-47.668 13.754-60.281 35.156-12.52-21.547-35.367-35.012-60.281-35.531-19.098 0.5625-37.219 8.5781-50.484 22.332-13.262 13.754-20.613 32.156-20.484 51.262v2.3438c0 1.875-3.375 46.312 44.062 94.969 26.758 26.969 54.922 52.504 84.375 76.5 1.7227 1.4883 4.2773 1.4883 6 0zm-83.344-83.062c-44.156-45.094-41.531-86.625-41.531-87.562 0.10156-0.20703 0.10156-0.44922 0-0.65625v-2.1562c-0.8125-19.324 7.5664-37.891 22.594-50.066 15.023-12.172 34.926-16.52 53.66-11.715s34.09 18.191 41.402 36.094c0.89844 1.5 2.5156 2.4219 4.2656 2.4219s3.3672-0.92188 4.2656-2.4219c7.25-17.969 22.598-31.426 41.359-36.262 18.762-4.8359 38.703-0.48047 53.738 11.742 15.031 12.219 23.371 30.855 22.465 50.207v3.1875s3 42-41.531 87.656c-25.516 25.645-52.332 49.957-80.344 72.844-28.051-23.012-54.867-47.48-80.344-73.312z"/>
</svg>
