<?xml version="1.0" encoding="UTF-8"?>
<svg width="1200pt" height="1200pt" version="1.1" viewBox="0 0 1200 1200" xmlns="http://www.w3.org/2000/svg">
 <path d="m119.77 377.9c-0.23438 15.703 10.125 29.719 24.047 33.75l114.7 46.828-3.0469 5.7188c-13.078 24.609-0.375 43.312 17.625 65.297 29.766 36.328 19.688 152.21-16.828 193.74-32.719 37.172-173.9 263.26-123.89 381.32 1.7812 4.1719 5.7656 7.0312 10.312 7.3125 110.91 6.9844 164.68 2.1562 161.06 2.1562 3.8438-0.42188 10.688-0.9375 17.297-2.4375 36.328-8.2969 127.55-48 155.9-11.203 31.266 40.641 119.77 19.781 168.56 4.2656 16.781-5.4375 24.188-2.8594 105.38-6.5625 10.594-0.375 15.562-13.406 7.8281-20.719-1.5469-1.4531-153.14-146.34-172.92-296.34-20.484-155.21-141.56-201.71-156.14-206.72-6.375-3.75-48.516-30-34.172-64.922 20.812-50.719-4.9688-110.16-33.328-133.08l-7.2188-46.078c15.656-10.312 34.922-30.562 36.844-34.219 38.625-75.094-6.6094-112.92-14.203-118.55-54-47.016-130.5 15.328-133.74 18-8.3906 6.9375-3.9844 20.812 7.3594 21.094-9.4219 12.984-56.109 81.375-23.25 118.73 14.953 16.969 34.031 22.828 54.469 18.797l5.625 23.297c1.5469 6.3281 7.875 10.406 14.484 8.8594 6.4219-1.5469 10.406-8.0625 8.8125-14.484l-6.375-26.344c2.1094-1.2656 4.2188-2.4844 5.9062-3.75 5.2969-3.9375 6.4219-11.391 2.4844-16.734-3.8906-5.3438-11.438-6.4219-16.734-2.5781-3 2.2031-29.906 20.719-50.719-2.9062-18.281-20.766 13.172-73.312 25.594-90.094 1.0781-1.4531 1.6875-3.0469 2.0625-4.7344 12.234 8.8125 25.219 22.641 28.5 31.406 6.8906 18.422 24.703 17.484 33.188 17.016 1.1719-0.046875 2.625-0.14062 3.8438-0.1875-0.32813 9.0469-4.875 29.625-10.969 48.609-1.3594 4.2656-0.1875 8.9062 2.9531 12.047 9 49.5 5.6719 54.469 13.312 59.578 22.781 15.141 45.938 65.672 28.875 107.25-18.844 45.844 21.656 82.594 45.703 95.625 0.65625 0.32812 1.3125 0.65625 2.0156 0.84375 4.9688 1.5938 121.69 41.25 140.95 187.45 16.688 126.42 117.42 245.06 160.69 290.9-50.062 2.625-63.703-0.09375-84.562 6.75-18.047 5.7656-37.875 10.781-56.953 14.109 1.0312-54.375-46.688-84.234-70.266-113.2-22.5-27.609-12.516-115.08-9.3281-127.78 1.5938-6.4219-2.2969-12.938-8.7188-14.578-6.375-1.5938-12.938 2.2969-14.531 8.7188-3 11.953-16.922 110.81 14.016 148.78 25.641 31.547 67.594 55.922 64.453 101.25-27.703 2.3438-51.047-0.70313-60.797-13.359-41.297-53.578-144.56-3.9375-183.28 2.9531-31.453-129.05 46.5-285.1 47.297-286.69 3-5.9062 0.65625-13.125-5.25-16.125s-13.125-0.65625-16.125 5.25c-3.4688 6.7969-81.609 163.03-50.062 299.86-39.797 1.875-103.55-0.75-136.6-2.6719-36.375-108 96.891-320.29 122.34-349.26 40.266-45.75 56.859-176.58 17.344-224.76-26.344-32.156-17.016-33-10.781-46.688 13.5 5.25 14.859 6.7031 18.797 6.7031 13.078 0 16.688-18.141 4.5469-23.109l-152.44-62.203c-4.7344-1.4062-8.0156-5.8594-7.9688-10.828 0.09375-115.36 5.4844-119.16-3.2812-135.71-8.0156-15.188-24.938-55.875-8.8125-105.52 2.1562-6.4219 10.781-4.5469 10.5 1.5l-1.7812 38.25c-0.60937 13.031 9.1406 24 22.172 24.984l9.8906 0.70312c8.9531 0.60938 17.531-4.1719 21.562-12.281l8.0156-16.031c3.0469-5.9531 11.438-0.9375 8.3906 4.4531l-17.484 31.031-14.203 35.016c-3.0938 7.8281-10.688 98.812-11.391 107.2-0.375 7.4531 2.625 21.188 26.016 29.25l115.83 48.422c6.0938 2.5312 13.125-0.32812 15.703-6.4219 2.5312-6.0938-0.32812-13.125-6.4688-15.703l-116.53-48.703c-8.9062-3.0938-10.641-5.8125-10.641-5.3906 0.23437-2.8594 6.6562-80.25 10.172-100.88l13.031-32.391 16.781-29.625c4.0781-7.2188 4.875-15.844 2.1094-23.719-8.3438-23.625-41.344-26.344-52.828-3.3281l-7.5 15-8.6719-0.5625 1.7812-38.25c0.79687-15.75-11.438-29.484-27.188-30.562-13.547-0.84375-25.828 7.5-30.047 20.531-18.984 58.359 0.9375 106.27 10.406 124.18 3.9375 7.5 1.4531 5.0156 0.46875 124.18zm204.74-130.36c-4.6406-12.375-24.188-35.297-45.094-47.391 22.078-12.703 57.469-26.578 82.641-4.4062 0.375 0.375 0.9375 0.75 1.3594 1.0312 1.5938 1.0781 38.016 26.438 7.6406 86.859-2.9062 3.2812-6.7031 7.2188-10.828 11.156 5.3906-25.781 5.7188-46.031-20.578-46.031-5.7188 0.046875-12.844 1.2656-15.141-1.2188z"/>
 <path d="m416.86 207.19c-5.7188 3.375-7.5938 10.734-4.2656 16.453 12.703 21.422 57.656-22.5 33.797-62.953-23.859-40.5-84.094-22.453-71.438-0.9375 3.375 5.6719 10.734 7.6406 16.453 4.2188 11.859-7.0312 27.281-3.0469 34.312 8.8594 7.0312 11.953 3.0469 27.328-8.8594 34.359z"/>
 <path d="m420.19 249.74c-8.625 30.609-11.906 139.97 31.969 205.03 20.016 29.625 46.875 46.5 79.875 50.109 107.16 11.672 198.74 119.81 199.69 120.89 7.6406 9.1406 22.594 2.6719 21.094-9.1406-0.65625-5.3906-17.859-132.19-158.44-186.71-127.26-49.359-150.61-177.61-150.79-178.87-2.1562-12.656-19.969-13.453-23.391-1.3125zm165.52 202.55c77.672 30.094 113.72 84.281 130.18 122.86-38.344-35.438-105.09-85.828-181.22-94.125-25.641-2.7656-46.688-16.125-62.578-39.656-23.766-35.25-32.391-87.703-33.375-129.14 20.906 45.844 63.375 107.62 147 140.06z"/>
 <path d="m637.92 736.5c63.141 17.25 101.48 89.812 101.86 90.562 5.2969 10.172 20.531 7.7812 22.5-3.4688 0.5625-3.375 14.016-83.953-8.8594-167.72-1.7344-6.375-8.2969-10.219-14.719-8.4375-6.375 1.7344-10.172 8.3438-8.4375 14.719 12.844 47.016 13.312 93.891 11.672 124.13-19.219-25.734-52.406-60.516-97.688-72.891-18.703-5.1094-18.656-15.938-8.5312-53.203 9.2344-34.078 21.938-80.719-30.234-102.09-49.969-20.484-63.516-30.562-66.891-33.75-0.60938-2.5781-2.0625-4.9219-4.3125-6.6562-8.9062-6.9375-22.312 1.1719-19.031 13.828 1.6406 6.0938 4.6406 17.438 81.094 48.797 30.984 12.703 26.344 36.281 16.219 73.641-8.1094 29.625-19.172 70.406 25.359 82.547z"/>
 <path d="m799.4 201.79c0.23438 6.6562 6.4688 12.047 12.422 11.531 49.078-1.8281 96.703 2.3906 141.47 12.516 5.3438 1.2188 8.3438 7.1719 6.4688 12.516-2.7656 7.8281 3.0469 15.984 11.297 15.984 19.828 0 19.078-44.625-12.422-51.891-46.828-10.594-96.562-14.953-147.66-13.078-6.6562 0.23438-11.812 5.7656-11.578 12.422z"/>
 <path d="m651.28 309.84c-5.9062 6.2812-3.4219 16.641 4.7344 19.5l77.625 27.469c8.1562 2.9062 16.594-3.5625 15.984-12.188l-1.1719-15.984c39.938 38.109 84.234 67.969 134.68 90.656 33.188 15.094 58.734-29.25 35.297-34.969-6.4219-1.5938-12.938 2.3438-14.531 8.7656-0.98438 3.9375-6.0938 6.5156-10.875 4.3594-56.203-25.266-104.39-59.859-147.28-105.52l-3.2812-44.156 66.469-70.828c5.9062-6.2812 3.4219-16.641-4.7344-19.5l-77.625-27.469c-8.0625-2.8594-16.594 3.4688-15.984 12.188l7.1719 96.891zm30.047 3.0469 38.812-41.344c0.23438 2.9531 4.3594 58.922 4.1719 56.578zm97.5-138.98-38.812 41.344-4.1719-56.578z"/>
 <path d="m895.18 248.9c0.51562-6.6094-4.4062-12.375-11.016-12.891l-87.141-6.8438c-6.5625-0.60938-12.375 4.4062-12.891 11.016s4.4062 12.375 11.016 12.891l87.141 6.8438c6.75 0.51562 12.375-4.5 12.891-11.016z"/>
 <path d="m772.74 273.28c-3.75 5.4844-2.3438 12.938 3.0938 16.688l72.094 49.453c5.3906 3.7031 12.891 2.4375 16.688-3.0938 3.75-5.4844 2.3438-12.938-3.0938-16.688l-72.094-49.453c-5.4844-3.75-12.938-2.3438-16.688 3.0938z"/>
 <path d="m626.06 254.86 52.875 4.3594c0.32812 0 0.65625 0.046875 0.98438 0.046875 6.1875 0 11.438-4.7344 11.953-11.016 0.5625-6.6094-4.3594-12.422-10.969-12.938l-52.875-4.4062-1.1719-1.7812 15.375-48.984 45.375 28.359c5.5781 3.5156 13.031 1.8281 16.547-3.7969s1.8281-13.031-3.7969-16.547l-46.453-29.062c-12.75-8.0156-29.625-1.7812-34.125 12.609l-15.75 50.25c-4.9219 15.562 5.8125 31.547 22.031 32.906z"/>
 <path d="m556.92 109.64c14.016-4.5469 29.109-4.5 45.984 0.14062 6.4219 1.7812 12.984-2.0156 14.766-8.3906s-1.9688-12.984-8.3906-14.766c-21.328-5.8594-41.391-5.8125-59.812 0.14062-6.2812 2.0625-9.75 8.8125-7.6875 15.141 2.0625 6.375 8.8594 9.75 15.141 7.7344z"/>
 <path d="m343.4 107.67c31.969-10.406 66-10.359 104.06 0.14062 6.375 1.7344 12.984-2.0156 14.766-8.3906s-1.9688-12.984-8.3906-14.766c-42.141-11.625-81.797-11.578-117.89 0.14062-6.2812 2.0625-9.75 8.8125-7.6875 15.141 2.1094 6.375 8.9062 9.75 15.141 7.7344z"/>
 <path d="m1038.7 295.26c1.2188 6.5156 7.4531 10.828 13.969 9.6562 6.0469-1.125 13.359 2.5312 18.844 6.2344-3.8438 5.4375-9.375 11.391-15.422 12.469-6.5156 1.1719-10.828 7.4531-9.6562 13.969 1.0781 5.8125 6.0938 9.8438 11.812 9.8438 0.70312 0 1.4531-0.046875 2.1562-0.1875 23.578-4.3125 36.234-30.984 37.594-33.984 2.0625-4.5469 1.0781-9.8906-2.4375-13.406-2.3438-2.3438-23.531-22.875-47.156-18.562-6.5625 1.2188-10.922 7.4531-9.7031 13.969z"/>
 <path d="m1044.2 409.74c8.5781 0 16.688-0.51562 18.891-9.6094 0.75-3.2344 7.0312-32.109-9-49.875-4.4062-4.9219-12-5.3438-16.922-0.89062s-5.2969 12-0.89062 16.922c4.125 4.5469 4.875 12.703 4.5938 19.312-6.6094-0.375-14.625-2.0156-18.703-6.5625-4.4531-4.9219-12-5.3438-16.969-0.89062-4.9219 4.4531-5.3438 12-0.89062 16.969 11.25 12.516 29.156 14.625 39.891 14.625z"/>
 <path d="m980.39 452.76c2.1094-2.5781 20.531-25.641 14.016-48.703-1.7812-6.375-8.3906-10.125-14.812-8.2969-6.375 1.7812-10.078 8.4375-8.2969 14.812 1.6406 5.9062-1.2656 13.547-4.4531 19.359-5.7656-3.2812-12.188-8.25-13.875-14.156-1.7812-6.375-8.3906-10.125-14.812-8.2969-6.375 1.7812-10.078 8.4375-8.2969 14.812 6.4688 23.062 34.219 33.141 37.359 34.219 4.875 1.5938 10.078 0 13.172-3.75z"/>
 <path d="m993 255.14c5.5781 3.6094 12.984 1.9688 16.594-3.6094 3.3281-5.1562 10.969-8.0156 17.438-9.4688 1.3594 6.4688 1.9219 14.625-1.4062 19.781-3.5625 5.5781-1.9688 12.984 3.6094 16.594 2.0156 1.2656 4.2656 1.9219 6.4688 1.9219 3.9375 0 7.8281-1.9219 10.125-5.5312 12.938-20.109 2.1562-47.578 0.84375-50.672-1.9219-4.5938-6.4219-7.5-11.484-7.4062-3.3281 0.09375-32.812 1.6406-45.75 21.75-3.6094 5.625-2.0156 13.078 3.5625 16.641z"/>
 <path d="m1001.4 342.98 6.1875-6.375c8.3438-8.625 8.3438-22.078 0-30.703l-5.625-5.0156-0.14062-8.8594c-0.1875-12-9.7031-21.516-21.703-21.703l-7.5469 0.42188-6.375-6.1875c-8.5781-8.3438-22.078-8.3906-30.703 0l-5.0156 5.625-8.8594 0.14062c-12 0.1875-21.562 9.7031-21.703 21.703l0.42188 7.5469-6.1875 6.375c-8.3438 8.625-8.3438 22.078 0 30.703l5.625 5.0156 0.14062 8.8594c0.1875 12 9.7031 21.562 21.703 21.703l7.5469-0.42188c4.125 3.1875 9.4219 12.469 21.703 12.469 12.844 0 18.422-10.312 20.344-11.906l8.8594-0.14062c12-0.1875 21.562-9.7031 21.703-21.703zm-17.25-16.688c-8.4375 8.6719-5.7656 17.859-6.2812 21.984-3.4688 0.46875-13.5-1.9688-21.984 6.3281l-4.9688 4.875c-2.9531-2.25-8.1562-10.875-20.016-11.062l-6.9844-0.09375c-0.46875-3.375 1.9688-13.453-6.3281-21.984l-4.8281-4.9688c2.3906-3.0938 10.828-8.1562 11.062-20.016l0.09375-6.9844c3.375-0.46875 13.453 1.9219 21.984-6.3281l5.0156-4.875c3.0469 2.3438 8.1094 10.922 20.016 11.062l6.9844 0.09375c0.46875 3.4688-1.9688 13.453 6.3281 21.984l4.8281 4.9688z"/>
</svg>
