<?xml version="1.0" encoding="UTF-8"?>
<svg width="1200pt" height="1200pt" version="1.1" viewBox="0 0 1200 1200" xmlns="http://www.w3.org/2000/svg">
 <path d="m1083.6 720.71-256.22-66.188c-5.0625-1.3594-10.125 1.7344-11.438 6.75s1.7344 10.125 6.75 11.438l55.969 14.438v208.45l-108.8 87.984v-299.11c0-0.375-0.1875-0.70312-0.23438-1.0781 25.875-29.859 52.5-59.438 80.016-88.547 94.875-100.41 119.77-241.74 64.969-368.86-55.078-127.78-175.6-207.14-314.58-207.14-138.98 0-259.5 79.359-314.58 207.14-54.797 127.08-29.859 268.45 64.969 368.86 74.156 78.516 142.64 160.13 204.32 243.24-30.516 10.781-49.734 31.734-49.734 55.406 0 35.25 41.719 62.906 95.016 62.906 53.297 0 95.016-27.609 95.016-62.906 0-23.672-19.219-44.625-49.734-55.406 33.328-44.906 68.625-89.391 105.75-133.22v290.86l-302.06 68.203v-334.08c0-0.23438-0.14063-0.42188-0.14063-0.65625-0.046874-0.65625-0.1875-1.2656-0.375-1.875-0.1875-0.5625-0.32812-1.125-0.5625-1.6406-0.28125-0.51562-0.60937-0.98438-0.98437-1.4531s-0.75-0.9375-1.2188-1.3594c-0.42188-0.375-0.89063-0.65625-1.4062-0.9375-0.5625-0.32812-1.125-0.65625-1.7344-0.84375-0.23437-0.09375-0.375-0.23438-0.60937-0.28125l-320.81-82.875c-2.8125-0.70312-5.7656-0.14062-8.0625 1.6406s-3.6562 4.5-3.6562 7.4062v442.13c0 4.2656 2.9062 8.0156 7.0312 9.0938l320.81 82.875c0.79687 0.1875 1.5469 0.28125 2.2969 0.28125h0.09375c0.75 0 1.5469-0.09375 2.2969-0.28125l318.47-82.266 318.47 82.266c0.79687 0.1875 1.5469 0.28125 2.3438 0.28125 2.0625 0 4.0781-0.65625 5.7188-1.9688 2.2969-1.7812 3.6562-4.5 3.6562-7.4062v-442.13c0-4.2656-2.9062-8.0156-7.0312-9.0938zm-780.89-487.4c52.031-120.79 165.98-195.79 297.32-195.79s245.29 75.047 297.32 195.79c51.75 120.1 28.266 253.69-61.406 348.56-86.953 92.062-166.31 188.34-235.97 286.31-69.656-98.016-148.97-194.29-235.97-286.31-89.625-94.875-113.16-228.42-61.406-348.56zm373.6 660.05c0 23.953-34.922 44.156-76.266 44.156s-76.266-20.203-76.266-44.156c0-16.453 17.109-31.922 42.844-39.422 8.7188 11.953 17.297 23.906 25.734 35.906 1.7812 2.4844 4.6406 3.9844 7.6875 3.9844 3.0469 0 5.9062-1.5 7.6875-3.9844 8.4375-12 17.016-23.953 25.734-35.906 25.734 7.5 42.844 22.969 42.844 39.422zm395.58-156.32v200.26l-174.52-44.578v-200.76zm-783.28-36.609 141.66 36.609v277.64l-141.66-37.5zm-18.75-4.8281v117.28l-141.66-40.453v-113.44zm-141.66 96.328 141.66 40.453v152.02c0 4.2656 2.8594 7.9688 6.9844 9.0469l153.42 40.641v125.72l-302.06-78.047zm320.81 367.87v-76.734l302.06-68.203v66.891zm320.81-78.047v-74.109l120.42-97.359 181.64 46.406v203.16l-302.06-78.047z"/>
 <path d="m840.37 358.64c0-132.52-107.81-240.37-240.37-240.37-132.52 0-240.37 107.81-240.37 240.37 0 132.52 107.81 240.37 240.37 240.37 132.52 0 240.37-107.81 240.37-240.37zm-462 0c0-122.21 99.422-221.63 221.63-221.63s221.63 99.422 221.63 221.63-99.422 221.63-221.63 221.63-221.63-99.422-221.63-221.63z"/>
 <path d="m608.02 496.82c21.281-35.062 63.188-53.953 93.797-67.734 24.328-10.969 43.172-32.578 51.703-59.297 8.7656-27.422 5.7188-57-8.4375-81.188-2.5312-4.3594-5.3906-8.4375-8.4375-12.188-16.969-20.672-40.5-32.953-66.234-34.547-25.406-1.5469-49.922 7.5469-68.953 25.594l-1.5 1.4062-1.5-1.4062c-19.031-18.094-43.5-27.188-68.953-25.594-25.734 1.5938-49.219 13.875-66.234 34.547-3.0938 3.75-5.9062 7.8281-8.4375 12.188-14.109 24.188-17.203 53.766-8.4375 81.188 8.5312 26.719 27.422 48.328 51.703 59.297 30.609 13.781 72.469 32.625 93.797 67.734 1.6875 2.8125 4.7344 4.5 8.0156 4.5s6.3281-1.7344 8.0156-4.5zm-102.09-84.844c-19.5-8.7656-34.641-26.25-41.578-47.906-7.1719-22.359-4.6875-46.406 6.75-66 2.0156-3.4688 4.3125-6.75 6.75-9.7031 13.641-16.594 32.438-26.438 52.875-27.703 1.5-0.09375 2.9531-0.14062 4.4531-0.14062 18.562 0 36.328 7.2188 50.438 20.625l1.1719 1.125-5.5312 5.8594c-3.5625 3.75-3.375 9.7031 0.375 13.266 1.8281 1.7344 4.125 2.5312 6.4219 2.5312 2.4844 0 4.9688-0.98438 6.8438-2.9531l11.766-12.469 7.7344-7.3594c15.188-14.438 34.688-21.75 54.891-20.484 20.484 1.2656 39.234 11.109 52.875 27.703 2.4375 2.9531 4.7344 6.2344 6.75 9.7031 11.438 19.594 13.922 43.641 6.75 66-6.9375 21.656-22.078 39.141-41.578 47.906-29.484 13.266-68.766 30.984-94.078 63.469-25.312-32.531-64.594-50.203-94.078-63.469z"/>
</svg>
