<?xml version="1.0" encoding="UTF-8"?>
<svg width="1200pt" height="1200pt" version="1.1" viewBox="0 0 1200 1200" xmlns="http://www.w3.org/2000/svg">
 <path d="m1011.8 285.52c-0.28125-13.969-5.7656-27.188-12.703-39.141-7.4062-12.656-16.219-24.469-24.469-36.562-16.875-24.516-33.281-49.5-51.281-73.219-16.828-22.125-35.531-43.078-58.594-58.969-21.75-15-47.578-25.406-74.156-26.438 1.7344-2.3438 3.4688-4.7344 5.2031-7.125 1.4062-1.9688 0.84375-5.5312-0.9375-7.125-7.7344-6.7969-18.375-9.375-28.172-7.0312-0.14062-0.28125-0.28125-0.5625-0.46875-0.89062-2.5312-4.2656-7.3125-7.2188-12.234-7.5938-7.7812-0.5625-13.078 4.8281-16.734 11.156-6.2812-4.5938-14.391-6.5156-22.219-4.5-6.75 1.7344-12.188 6.1875-15.656 11.906-0.75-0.32812-1.5-0.60938-2.3438-0.84375-7.3125-1.875-14.438 1.6875-17.062 8.8125-2.5781 7.0312-0.09375 15.141 4.9219 20.438 2.4375 2.5781 5.3438 4.5 8.5312 5.9531-0.60938 1.5938-0.46875 3.5625 0.32812 5.0625-1.125 1.3125-2.25 2.5781-3.375 3.8438-0.375 0.42188-0.65625 0.84375-0.9375 1.3125-15.375 1.6875-29.906 8.9062-40.312 20.438-11.25 12.516-16.969 29.344-15.562 46.172 0.75 8.4844 3 16.734 6.9375 24.281-9.375 14.906-14.438 32.344-14.953 49.969-0.375 13.031 1.5938 26.906 7.5 38.719-9.4688 22.547-25.875 42.281-46.312 55.734-11.344 7.4531-24.609 12.656-34.078 22.688-9 9.5625-14.906 24.75-7.9688 37.172 4.9219 8.8125 15.234 13.594 24.562 11.719 3.8438 10.875 14.531 18.891 26.062 19.406-3.8438 10.312-4.7344 21.469-4.875 32.531-0.1875 13.312-0.375 26.438-2.8594 39.562-4.7344 25.219-15.094 49.406-30.375 70.125-5.8594-34.5-13.312-68.625-22.359-102.47-11.438-42.844-26.859-93.375-71.344-112.69-4.3125-1.875-8.7188-3.4219-13.312-4.5v-0.9375c0.046875-6.375-0.1875-12.938-4.5938-18-3.1875-3.6562-7.7812-5.25-12.469-5.7188 4.5-4.5 8.5312-9.4688 12.281-14.531 8.9062-12.047 15.562-25.594 20.906-39.516 0.65625-1.6875 1.3125-3.375 1.875-5.0625 9.9844-2.25 20.953-5.9531 27-14.812 3-4.3125 4.125-9.8438 2.8125-14.953-0.46875-1.875-1.3125-3.6562-2.4375-5.25 7.5-12 13.969-24.938 19.125-38.062 5.5312-14.156 5.625-32.344-4.9688-44.016 8.1562-8.9062 12.562-21.938 9.3281-33.656-4.8281-17.578-24.141-21.562-39.562-25.172-19.219-4.4531-38.719-7.5938-58.312-9.5625-19.266-1.875-39-3-58.359-1.7344-16.688 1.125-32.25 6.5156-43.266 19.641-9.6562 11.484-15.234 25.781-18.75 40.266-6.1875 25.5-9.1406 55.969 1.8281 80.719-3.75 1.4062-7.125 3.8438-9.4688 7.1719-3.75 5.25-4.5 12.656-2.625 18.75 2.0156 6.6562 6.8438 12 12.562 15.844 5.4375 3.6562 11.812 5.7188 18.188 7.3125 1.3125 13.406 4.3125 26.766 10.406 38.812 3.4688 6.8438 8.0156 13.312 13.406 18.938-1.3125-0.5625-2.625-1.0312-3.8906-1.5938-4.125-1.6875-8.25-3.6562-12.562-4.6875-6.6562-1.5938-13.5-0.89062-18.844 3.6562-4.3125 3.6562-6.6094 9.2812-8.25 14.531-0.5625 1.7344-1.125 3.5156-1.5938 5.2969-44.391 5.7188-81.844 33.938-107.25 69.984-11.906 16.922-21.938 36.094-27.844 55.969-3.8906 13.125-5.9531 26.812-7.7344 40.359-4.7812 35.953-6.4688 72.375-7.7812 108.56-1.2188 33.938-1.6875 67.875-2.25 101.81-0.1875 10.406-0.28125 20.812-0.75 31.219-0.09375 2.4375-0.375 4.9219-0.32812 7.3594 0.1875 7.0781 3.8438 12.75 10.688 15.094 1.0312 0.375 2.1094 0.60938 3.1875 0.84375-8.4375 14.484-13.312 30.938-14.391 47.719-0.65625 9.6562 0.09375 19.453 2.0625 28.969 1.6875 8.25 4.4062 18.422 12.281 23.016 9.375 5.4375 19.125-0.32812 25.125-7.875 6.6094-8.3438 11.953-17.812 16.359-27.469 1.875-4.125 3.0938-9.1406 5.625-12.938 0.046875-0.046875 0.14062-0.23438 0.28125-0.42188 0.70312 1.0312 1.9688 3.3281 2.0625 3.6094 1.7812 4.0312 3.8906 8.0625 7.9688 10.266 2.2031 1.125 4.8281 1.5938 7.2188 1.0312 3.2812-0.75 4.5-3.2812 5.7656-6.1406 7.2188-16.828 6.5625-36.797-1.9219-52.969 5.8594 2.3438 11.812 4.5 17.812 6.4688-8.0625 45.516-11.344 91.922-12.281 138.1-1.0781 51.375 0.84375 102.94 6.5625 154.03 2.9062 25.781 6.7031 51.469 12.281 76.781 0.5625 2.4375 3.1875 4.3125 5.625 4.3125l83.156-0.75c3.9844-0.046875 7.9688-0.09375 11.906-0.09375 3.0469 0 6-2.625 5.8594-5.8594-0.09375-2.0625-0.1875-4.0312-0.28125-6.0938-1.7812-41.625-3.2812-83.344-4.0312-125.02-0.75-45.094-1.2188-90.375 2.2969-135.37 0.84375-10.734 0.75-23.297 6.375-32.812 2.5781-4.3125 7.125-8.2969 12.375-8.5312 2.1562-0.09375 4.0781 0.5625 5.4844 1.3594 1.4062 0.84375 2.7656 2.1562 3.6562 3.5156 5.0625 7.6875 5.25 17.672 5.0625 26.859-0.14062 7.5938-0.1875 15.281-0.1875 22.875-0.09375 41.719 0.65625 83.484 0.51562 125.26-0.09375 39.609 0 79.688-4.5938 119.06-0.1875 1.5938-0.375 3.2344-0.5625 4.8281v0.28125c-0.09375 0.375-0.1875 1.125-0.1875 1.3125-0.09375 0.89062-0.28125 1.7812-0.375 2.6719-0.5625 3.6562 1.5 7.4062 5.625 7.4062h94.641c2.5312 0 5.0156-1.7812 5.625-4.3125 11.344-45.656 13.781-93.562 14.062-140.44 0.28125-51.375-2.6719-102.75-7.5938-153.84-2.25-22.969-4.8281-45.938-7.9688-68.812 9.8438-0.9375 19.688-1.8281 29.531-2.7188 3.8906-0.375 6.5156-3.4688 5.625-7.4062-6.2344-28.312-10.828-56.953-13.688-85.781 10.5 2.0625 21.469 4.5 31.969 3.1875 11.109-1.3594 21.656-7.8281 25.266-18.891 0.65625-2.0625 1.5-5.2031 0.9375-7.4062 0 0.375-0.28125 0.5625-0.1875-0.375 0.09375-0.84375 0.28125-1.7344 0.375-2.5781 0.70312-4.7344 0.14062-9.3281-0.28125-14.109-0.65625-7.125-1.3594-14.25-2.1562-21.375 17.766-12.75 32.906-28.594 45.938-46.125 13.312-17.906 24.188-37.828 31.453-58.969 1.6875-4.8281 3.0938-9.75 4.2188-14.719 5.25 6.8438 11.859 12.75 16.312 20.25 0.375 0.65625 0.70312 1.3125 1.0312 1.9688 0 0 0 0.09375 0.046875 0.09375 0.14062 0.42188 0.28125 0.84375 0.46875 1.2656 0.60938 1.7812 0.9375 3.6562 1.3125 5.4844v0.14062c0.046875 0.46875 0.09375 0.98438 0.14062 1.5 0.09375 1.2188 0.1875 2.4844 0.1875 3.75 0.09375 2.4375 0 4.8281-0.09375 7.2188-0.14062 2.8594-0.42188 5.6719-0.75 8.5312-0.09375 0.46875-0.09375 0.9375-0.1875 1.4062v0.46875c-0.09375 0.42188-0.14062 1.0312-0.1875 1.2188-0.23438 1.5938-0.46875 3.1875-0.75 4.7812-2.5781 15.469-6.4219 30.75-10.406 45.938-11.25 42.656-24 84.938-35.25 127.6-14.812 55.922-27.562 112.41-36.797 169.5-10.734 66.562-16.781 133.87-16.312 201.28 0.09375 8.7188 0.23438 17.344 0.46875 26.062 0.09375 3 2.625 6 5.8594 5.8594 2.0625-0.09375 4.0781-0.1875 6.0938-0.28125 47.812-2.25 95.672-2.3438 143.53-1.5469 47.812 0.84375 95.625 2.25 143.44 2.0625 28.875-0.09375 57.797-0.84375 86.625-2.3438 3.8438-0.1875 6.5625-3.5625 5.625-7.4062-0.42188-1.7812-0.84375-3.5625-1.2188-5.3438-6.7031-31.312-6.6562-64.078-7.0312-95.859-0.375-37.594 0.375-75.375-2.9062-112.83-1.4062-16.406-3.5625-32.906-7.9219-48.75 2.3906-1.5 4.5-3.5625 6.2812-6.1875 3.4688-5.1562 4.4531-11.625 4.7812-17.719 0.46875-7.3594 0.28125-14.719 0.98438-22.031 0.60938-6.7031 1.5-13.406 2.2031-20.062 0.75-7.875 0.79688-15.75 2.2031-23.531 1.4062-7.6875 3.8906-15.094 5.3438-22.781s2.3438-15.562 2.8125-23.391c0.89062-15.75-0.046875-31.594-1.875-47.297-3.6562-31.969-9.4688-64.078-18.422-94.969-9.9844-34.594-23.766-67.875-37.5-101.11 9.2812-10.266 16.266-22.688 20.766-35.953 7.125-21 8.0625-43.5 5.8594-65.438 13.594 1.9688 28.406-3 37.5-13.406 9.6094-11.016 12.562-26.578 8.3438-40.312 19.312-3.375 33-23.906 32.625-43.594zm-319.97-234.79c0.28125-0.28125 0.51562-0.23438 0 0zm-111.84 336c-0.28125-1.0312-0.42188-2.1094-0.46875-3.1875-0.09375-5.4375-6.1875-7.2188-9.9844-4.125-2.0625 1.6875-5.625 1.5-8.4375 0.23438-3.6562-1.6406-6.375-4.5938-7.2188-8.3438-2.625-11.016 6.75-21.141 15.047-26.812 10.078-6.9375 21.234-11.906 30.984-19.312 9.375-7.125 17.812-15.188 25.125-24.422 6.1406-7.7812 11.344-16.125 15.703-24.938 4.0781 4.6875 9.375 8.3438 15.281 10.031-11.156 25.828-5.8125 56.531 13.828 76.734-7.5938 1.125-15.188 2.4844-22.688 4.3594-17.906 4.5-34.969 16.172-45.375 31.734-0.42188 0-0.84375 0.09375-1.3125 0.23438-8.4375 2.3906-18.281-3.6562-20.438-12.188zm-138.37 141c-8.8594 18.75-16.125 38.203-21.562 58.219-1.5938 1.0312-3 2.3438-4.2188 3.7969-7.7344-2.625-15.562-5.0625-23.672-6.1875-0.9375-0.09375-1.8281-0.23438-2.7188-0.28125-1.7812-18-4.4531-35.906-8.0156-53.672 0.46875-0.5625 0.84375-1.3125 1.125-2.1562 11.062-38.719 26.484-76.125 46.078-111.38 4.4062-7.875 8.9531-15.656 13.734-23.297 3.1406 5.3438 6.5625 10.594 9.6094 15.938 2.5312 4.4062 5.0625 8.9531 6.8906 13.688 2.0625 5.4375 2.5312 8.9062 2.4375 14.531-0.1875 11.25-3.8906 22.594-12.562 30.094-8.9062 7.6875-21.094 12.562-23.578 25.453-2.6719 13.969 6.75 26.062 16.5 35.203zm-40.594 111.19c-0.5625 3.75-0.60938 7.5938 0.32812 11.344 0.65625 2.6719 1.7812 4.9688 3.2812 6.8906-0.09375 4.5938-0.5625 9.2812-0.5625 13.875v2.3438c-3.8438-1.6875-7.875-3.0938-11.859-4.2188-0.60938-0.1875-1.2188-0.375-1.875-0.51562 0.75-9.8438 1.2656-19.688 1.4062-29.531 3-0.46875 6.0938-0.5625 9.2344-0.28125zm-22.219 27.516c-2.5781-0.28125-5.1562-0.28125-7.6875-0.09375-0.9375-5.7188-2.625-11.344-4.7344-16.781 4.4062-2.7188 8.9531-5.2031 13.594-7.0781-0.1875 7.9688-0.5625 15.984-1.2188 23.953zm-7.7812 22.312c0.28125-0.84375 0.32812-1.6875 0.1875-2.5312 0.46875-2.7188 0.75-5.4844 0.79688-8.25 2.3438-0.09375 4.6875 0 7.0312 0.28125-0.09375 0 1.5 0.1875 1.7812 0.28125l2.8125 0.5625c1.8281 0.375 3.6562 0.84375 5.4375 1.3594 1.6875 0.46875 3.375 1.0312 5.0625 1.5938 0.9375 0.32812 1.8281 0.65625 2.7188 1.0312 0.375 0.14062 0.75 0.28125 1.0781 0.42188 0.09375 0 0.14062 0.046875 0.1875 0.09375 0.046875 0 0.09375 0 0.09375 0.046875 0 0 0.1875 0.046875 0.1875 0.09375h0.09375l0.09375 0.046875c2.0156 0.89062 3.9844 1.875 5.8594 2.9531v0.1875c0.65625 10.781 1.9688 21.469 3.9375 32.062l0.84375 4.5c-16.969 0-33.938-0.046875-50.906 0 4.2188-11.578 8.4375-23.109 12.656-34.688zm35.953-74.25c-1.125 4.3125-2.3438 8.625-3.4688 12.938-6.2812-0.70312-12.469-0.09375-18.516 1.4062-0.28125 0.09375-0.5625 0.14062-0.84375 0.23438-9.7969 2.5781-19.125 7.5469-27.75 13.125-0.09375 0-0.14062 0.09375-0.1875 0.09375-0.09375 0.09375-0.1875 0.14062-0.32812 0.23438-0.09375 0.09375-0.23438 0.1875-0.375 0.23438-1.2188 0.79688-2.3906 1.5938-3.5625 2.3906-7.8281 5.3438-15.469 11.062-23.812 15.656-3.9375 2.1562-8.0625 4.125-12.328 5.4844-3.2812 1.0312-7.4062 2.0625-10.734 0.65625-6.0938-2.4375-4.3125-10.922-2.6719-15.891 2.5781-7.8281 7.125-15.328 12.094-21.844 6-7.9219 13.406-14.812 21.75-20.344 6.5625-4.3125 13.688-7.7812 21.141-10.078 8.1562-2.5781 17.109-4.3125 25.828-4.2188 0.28125 0 0.5625 0.046875 0.84375 0.046875h0.51562c1.2656 0 2.5312 0.09375 3.75 0.23438 7.5469 0.75 15 3.0938 22.219 5.5312-1.5 4.7344-2.4375 9.75-3.6094 14.156zm-83.016-121.22c-6.75-3.1875-14.344-3.4219-21.75-3.375-3.5625 0-7.2188 0.09375-10.781-0.09375-3.2812-0.1875-4.9688-0.28125-8.25-1.5h-0.046875c-0.046875 0-0.09375-0.046875-0.14062-0.09375-0.375-0.1875-0.65625-0.32812-0.98438-0.51562-0.23438-0.09375-1.3125-0.84375-1.0312-0.60938-1.4062-1.0781-1.5469-1.3125-2.3438-2.9062-2.0625-4.0312-0.5625-8.8125 0.79688-12.844 3.2344-9.2812 7.5938-18.281 11.438-27.281 8.2031-19.453 16.359-38.906 24.656-58.359 0.46875 0.1875 0.9375 0.375 1.4531 0.5625 24.938 43.547 41.719 91.734 51.984 140.81 1.125 5.25 2.1562 10.5 3.0938 15.75 2.4375 13.359 4.3125 26.719 5.6719 40.219-5.8594 0.375-11.625 1.3125-17.25 2.6719-8.8125 2.1094-17.25 5.5312-25.125 9.9844-4.4531-8.0625-8.1562-16.5-10.078-25.5-2.1094-10.031-0.75-19.406 3-28.875 3.5625-8.9062 8.3438-17.859 8.4375-27.656 0.09375-8.625-4.7812-16.781-12.656-20.438zm53.156-157.13c1.7812 0 3.7031 0.46875 5.625 1.5938 3.9375 2.2969 6.7969 6.6562 6.0938 11.344-0.70312 4.5938-4.2188 8.8125-8.7188 9.9844-0.1875 0.046875-0.9375 0.14062-1.125 0.1875h-0.046875c-0.375 0-0.84375-0.046875-0.70312 0-0.75-0.1875-1.9688-0.51562-2.0625-0.5625-2.1562-0.84375-4.2188-2.25-5.9531-3.7969-2.9062-2.5312-5.7188-5.8125-7.2188-9 3.0938-4.4531 7.4531-8.8125 12.516-9.6094 0.5625 0.046875 1.0781 0 1.5938-0.14062zm-20.531 21.656c3.75 4.7344 8.6719 8.7188 13.688 11.016 5.1562 2.3438 10.266 2.8125 15.562 0.60938 2.7656-1.125 5.3438-2.8594 7.4531-4.9688 4.4062 4.125 8.9062 8.1562 13.312 12.281 5.3438 4.875 10.5 10.266 16.266 14.625 1.5 1.125 3.1406 2.0625 4.8281 2.7188-18.469 30.75-33.891 63.281-45.938 97.078-1.875 5.25-3.6562 10.547-5.3438 15.844-7.2188-29.438-16.828-58.312-28.969-86.062-5.0625-11.625-10.641-23.062-16.781-34.172 6.4219-1.6875 12.094-6.0938 16.312-11.625 4.125-5.3438 6.75-11.438 9.5625-17.438zm65.25-36.141c4.0312-0.70312 8.5312-1.6875 12.562-0.5625 3.6562 1.0312 4.0312 4.6875 4.125 8.0625 0.09375 3.1875 0.09375 6.375 0 9.5625-0.1875 8.8125-0.84375 17.578-1.6875 26.25-0.32812 3.7031-0.51562 7.5938-1.125 11.391-0.046875 0.375-0.09375 0.84375-0.1875 1.2188-0.1875 1.125-0.42188 2.25-0.75 3.2812-0.28125 0.9375-0.70312 2.625-1.5938 2.8125-1.1719 0.1875-3.1875-1.5938-3.9844-2.2031-5.3438-4.2656-10.125-9.2812-15.141-13.875-4.8281-4.4531-9.7031-8.9062-14.531-13.359 2.5781-8.8125-0.1875-18.094-7.2188-24.094 5.5781-0.375 11.156-1.6875 16.547-3.9375 2.3438-1.0312 4.6406-2.1562 6.8438-3.4219 2.0625-0.42188 4.0781-0.79688 6.1406-1.125zm64.688-95.016c-0.046875 0.09375-0.09375 0.23438-0.09375 0.375 0 0.046875-0.046875 0.09375-0.09375 0.14062v0.046875c-0.28125 0.46875-0.46875 0.98438-0.79688 1.4531-0.09375 0.1875-0.75 0.9375-0.79688 1.0312 0 0 0.046875 0 0.09375-0.046875-0.1875 0.28125-0.46875 0.5625-0.70312 0.75-0.42188 0.46875-0.9375 0.84375-1.4062 1.3125-0.09375 0.046875-0.09375 0.09375-0.1875 0.14062h-0.046875c0 0.046875-0.09375 0.09375-0.09375 0.09375l-0.09375 0.09375s-0.1875 0.09375-0.28125 0.1875c-1.0312 0.75-2.1562 1.3594-3.2812 1.9688-0.46875 0.23438-0.9375 0.46875-1.4062 0.65625-0.1875 0.09375-0.32812 0.1875-0.46875 0.23438 0 0-0.046875 0-0.09375 0.046875-0.046875 0-0.09375 0.046875-0.14062 0.09375-0.046875 0-0.09375 0.046875-0.1875 0.09375-1.125 0.42188-2.3438 0.84375-3.4688 1.2656-0.09375 0.046875-0.28125 0.09375-0.375 0.09375 1.4062-4.8281 2.6719-9.7031 3.75-14.625 0.09375-0.09375 0.1875-0.09375 0.28125-0.14062l0.5625-0.28125s0.046875 0 0.14062-0.046875c0.09375 0 0.1875-0.09375 0.375-0.14062 1.2188-0.42188 2.3906-0.75 3.6094-1.0781 0.09375 0 0.14062 0 0.1875-0.046875h0.1875c0.28125 0 0.84375-0.09375 1.3125-0.09375h0.1875s0.09375 0 0.1875 0.046875c-0.046875 0-0.09375 0-0.14062-0.046875 0.1875 0 0.28125 0 0.375 0.09375h-0.09375c0.28125 0.046875 0.65625 0.14062 0.9375 0.23438 0.09375 0 0.1875 0.09375 0.32812 0.09375 0.1875 0.09375 0.375 0.1875 0.5625 0.32812l0.046875 0.046875s0.28125 0.23438 0.42188 0.375c0 0.09375 0.09375 0.1875 0.1875 0.28125 0.1875 0.23438 0.28125 0.46875 0.42188 0.75 0 0.046875 0.046875 0.09375 0.046875 0.09375s0.046875 0.046875 0 0.09375c0.046875 0.09375 0.09375 0.23438 0.09375 0.375 0.046875 0.09375 0.14062 0.375 0.1875 0.5625v0.375c0 0.28125 0.046875 0.5625 0 0.84375v0.84375c-0.09375 0.375-0.23438 0.84375-0.32812 1.125zm16.125-50.906c-4.5938 11.156-10.406 22.5-16.969 33-2.2969-0.375-4.5938-0.28125-6.7969 0.1875 2.625-15.281 3.75-30.844 3.375-46.219-0.09375-5.3438-0.46875-10.641-0.98438-15.938 6.75-1.0312 13.312-3 19.219-6.4688 4.1719 4.5938 6.1875 10.641 6.375 17.062 0.14062 6.5625-1.7812 12.469-4.2188 18.422zm-193.4-35.25c2.25-13.969 5.5781-28.219 12.469-40.688 3.2812-5.8594 7.3125-11.25 12.562-15.562 5.8594-4.8281 12.938-7.5 20.344-8.8125 8.9062-1.5938 18.188-1.4062 27.188-1.3125 9.75 0.09375 19.547 0.46875 29.344 1.2188 19.359 1.4531 38.625 4.2188 57.609 8.2969 8.8125 1.875 17.906 3.7031 26.391 6.75 6 2.1562 11.25 6.1875 12.844 12.281 2.4375 9.2812-2.4375 18.984-9.9844 25.125-2.0625 1.6875-4.2656 3.0469-6.5625 4.125-4.875 2.2031-10.078 3.375-15.422 3.8906-0.375-0.09375-0.75-0.09375-1.125-0.09375-0.5625 0-1.1719 0.09375-1.7812 0.32812-10.406 0.5625-21.141-1.1719-30.984-2.6719-19.125-2.9062-38.484-6.8906-57.938-6.2812-16.5 0.5625-33.703 5.0625-44.812 18-10.125 11.812-13.969 27.094-15.938 42.188-0.75 5.9062-1.4062 11.953-1.875 18-1.875-1.0312-3.8438-1.8281-5.9531-2.3438-10.031-18.328-9.4688-42.234-6.2812-62.391zm0.046875 94.734c-1.5-0.9375-1.7812-1.2188-3.1875-2.5312-0.42188-0.46875-0.84375-0.84375-1.2656-1.3125-0.23438-0.23438-0.42188-0.46875-0.65625-0.75 0 0 0-0.046875-0.09375-0.09375-0.046875-0.09375-0.14062-0.1875-0.28125-0.375-0.46875-0.65625-0.89062-1.3594-1.2656-2.0625l-0.42188-0.84375v-0.09375l-0.1875-0.375-0.5625-2.25c0-0.09375 0-0.1875-0.046875-0.28125v-0.1875c-0.046875-0.1875-0.046875-0.375-0.046875-0.5625-0.046875-0.65625 0-1.3125 0-2.0156v-0.32812c0.09375-0.32812 0.09375-0.65625 0.1875-0.98438 0.046875-0.14062 0.375-1.125 0.42188-1.4062v-0.09375c0.23438-0.5625 0.5625-1.0312 0.84375-1.5 0 0 0.9375-1.0312 1.0312-1.2188 0.1875-0.1875 0.28125-0.28125 0.28125-0.32812 0 0 0.09375 0 0.46875-0.1875 1.5938-0.9375 1.5469-0.89062 3.5625-1.4062 0.09375 0 0.23438-0.046875 0.28125-0.046875 3.0469 4.5 6.75 8.5312 10.922 12 0.375 0.28125 0.75 0.5625 1.125 0.75-0.09375 4.0312-0.09375 8.0625 0 12 0 0.46875 0 0.9375 0.046875 1.4531-3.9375-1.1719-7.7812-2.625-11.25-4.9688zm34.125 53.25c-6.8438-12.047-9.7031-25.875-10.734-39.656 0.14062-0.79688 0.09375-1.6406-0.1875-2.4375-0.1875-2.7188-0.28125-5.5312-0.28125-8.25-0.09375-7.2188-0.046875-14.438 0.28125-21.75 0.375-9.7031 1.2188-19.406 2.5312-28.875 1.875-14.062 5.8594-28.969 16.922-38.578 12.469-10.781 31.031-10.922 46.5-9.8438 19.5 1.3125 38.625 5.9062 58.031 7.8281 4.2656 0.42188 8.7188 0.65625 13.125 0.65625 2.2969 22.781 0.65625 46.031-4.0781 68.438-1.1719 5.4375-2.5312 10.875-4.0312 16.219-4.125 14.625-9.6562 28.875-17.109 42.141-7.2188 12.75-16.5 25.359-28.359 34.219-1.5 1.125-3 2.1562-4.5938 3.0938-1.0312 0.23438-2.0625 0.46875-3.0938 0.65625-7.5938 1.6875-15.094 3.75-22.547 6.1875-3.6094-0.1875-7.3125-0.9375-10.969-2.1562-13.5-4.6875-24.562-15.656-31.5-27.891zm-26.531 28.547c4.125-4.5 11.25-1.125 15.844 0.79688 4.3125 1.7812 8.6719 3.4688 12.984 5.25 5.3906 2.1562 10.969 4.3125 16.359 6.75-1.5938 1.125-3.0938 2.5312-4.4531 3.9844-2.625 2.8125-4.6875 5.9062-6.4688 9.1875-3.4219 6.0469-5.9531 12.562-9.375 18.75-3.8438 7.0312-10.219 15.797-19.266 13.969h-0.1875c-0.28125-0.09375-0.5625-0.14062-0.84375-0.1875-1.6875-0.46875-3.1875-1.1719-4.5-2.0625-0.375-0.42188-0.84375-0.79688-1.3594-1.125-0.09375-0.09375-0.23438-0.09375-0.375-0.1875-5.7656-4.9688-8.1094-13.594-7.9219-20.953 0.14062-5.625 1.3125-11.109 2.7656-16.5 0.32812-1.2656 0.65625-2.5312 1.0312-3.75 1.3125-4.5938 2.3438-10.219 5.7656-13.875zm-109.36 492.19c0.14062-0.14062 0.28125-0.23438 0.28125-0.1875 0.046875 0.09375-0.09375 0.14062-0.28125 0.1875zm13.312 1.3125c-0.1875-0.28125-0.375-0.65625-0.5625-0.9375-1.3125-2.9062-2.4375-5.8125-4.7344-8.1562-5.3438-5.5312-13.406-4.5-17.906 1.5469-1.875 2.5312-2.9062 5.4375-4.0312 8.3438-1.3125 3.2812-2.7188 6.4688-4.2656 9.6094-3.2344 6.5625-6.9375 12.938-11.109 18.984-2.25 3.2812-6.75 10.219-11.578 8.8125-4.0312-1.1719-5.6719-7.7344-6.6562-11.438-3.3281-12.562-4.0312-25.922-2.0156-38.766 2.25-14.156 7.4062-27.516 15.375-39.375 0.9375-0.046875 1.875-0.09375 2.8125-0.09375 7.5-0.046875 14.906-0.09375 22.406-0.14062 4.8281 0 9.6562-0.09375 14.438-0.09375-0.65625 1.5938-0.65625 3.4688 0.42188 4.875 9.8906 13.312 12.891 31.172 7.4062 46.781zm6.8438-57.938c24.75-57 23.812-120.66 16.688-181.45-2.1562-18.328-4.7812-36.562-7.5-54.844-0.1875-1.2188-0.84375-2.1562-1.7812-2.9062 0.79688-25.5 6.8906-50.625 18.094-73.547 1.4062-2.8125 0.75-6.3281-2.1094-8.0156-2.5781-1.5-6.6562-0.75-8.0156 2.1094-13.219 27.188-20.109 57.094-19.734 87.328 0 2.625 1.4531 4.3125 3.2812 5.1562 8.7188 58.5 16.781 119.34 4.3125 177.79-3.0938 14.719-7.5469 29.109-13.5 42.891l-40.641 0.28125c-2.4375 0-4.8281 0.046875-7.2656 0.09375h-3.2812c-2.1094 0-4.4531 0-6.4688-0.84375-3.1406-1.3125-2.0156-5.9062-1.875-8.7188 0.5625-9.2812 0.60938-18.656 0.75-27.938 0.5625-31.875 0.9375-63.75 1.9219-95.625 1.125-35.719 2.6719-71.531 6.5625-107.06 1.5-13.875 3.2344-27 6.4688-41.25 3.75-16.359 10.5-31.875 18.844-46.406 21-36.75 54.656-68.531 96.797-78.328 2.5312-0.5625 5.0625-1.0781 7.5938-1.5-1.4062 7.5938-1.8281 15.281-0.14062 22.781 1.3125 6.0469 4.5 11.906 8.9062 16.453-7.6875 18.047-15.281 36.141-22.875 54.188-3.8438 9.0938-7.6875 18.188-11.578 27.281-4.125 9.75-8.5312 21.469-1.7812 31.172 9.1875 13.219 27.188 9.0938 40.875 10.125 1.8281 0.14062 2.25 0.1875 4.2188 0.5625 0.79688 0.1875 1.5938 0.375 2.3906 0.65625 0.375 0.09375 0.75 0.28125 1.125 0.375 0.1875 0.09375 0.32812 0.09375 0.375 0.14062-0.046875 0-0.046875 0 0.14062 0.09375 1.5469 0.79688 2.1562 1.125 3 1.9688 1.2188 1.125 2.1562 2.4375 2.7188 3.9844 1.3594 3.6562 0.42188 7.875-0.70312 11.578-1.4062 4.6875-3.375 9.1875-5.25 13.688-2.2031 5.2969-4.2656 10.594-5.1562 16.312-0.98438 6.4688-0.84375 12.75 0.1875 19.219 1.8281 11.25 6.5625 21.891 12.094 31.828-6 4.4062-11.531 9.5156-16.312 15.188-6.1875 7.2656-11.484 15.281-15.375 24-3.5156 7.9688-6.4688 17.484-3.1406 26.016 3.8906 10.031 14.109 13.031 24 11.25s19.359-7.3125 27.656-12.703c4.5469-2.9531 9.2812-6.375 14.156-9.75 3.75 10.312 5.3438 21.234 2.3438 31.922-0.046875 0.14062-0.09375 0.28125-0.09375 0.46875-10.266 28.031-20.531 56.109-30.75 84.188-24.75 0.28125-49.547-3.1875-73.266-10.266-0.09375-0.046875-0.1875-0.09375-0.28125-0.09375s-0.14062-0.046875-0.1875-0.046875c-9-2.6719-17.812-5.9062-26.438-9.6562zm262.97 161.16c2.9531 50.625 3.8906 101.53-0.14062 152.16-1.8281 22.969-4.7344 45.938-9.9844 68.438h-83.297c1.9688-14.766 2.8594-29.672 3.5625-44.531 1.0312-21.844 1.3594-43.688 1.5-65.484 0.32812-43.875-0.375-87.656-0.46875-131.53 0-8.4375 0-16.922 0.14062-25.359 0.14062-9.5625 0.46875-19.266-2.3906-28.547-3.3281-10.969-11.812-20.859-24.281-19.969-14.812 1.0312-23.812 14.531-26.672 27.891-2.3438 10.875-2.8125 22.266-3.5625 33.328-0.65625 10.5-1.125 21.047-1.4531 31.547-0.75 24.141-0.79688 48.281-0.5625 72.469 0.42188 46.922 1.9688 93.797 3.9375 140.68 0.09375 2.5781 0.23438 5.1562 0.375 7.7812-25.688 0.28125-51.375 0.46875-77.062 0.75-2.3906 0-4.7812 0.046875-7.1719 0.09375-9.4688-44.719-13.969-90.516-16.219-136.13-2.5312-50.906-2.0625-102 2.0156-152.81 1.875-23.156 4.5469-46.219 8.5781-69.094 24.188 6.6094 49.312 9.7031 74.531 9 2.7656-0.09375 4.7344-1.7812 5.625-4.3125 5.4375-15 10.922-29.906 16.406-44.906 0.28125 0.046875 0.60938 0.09375 0.9375 0.09375 18.938-0.046875 37.922 0 56.906 0 3.9375 15.703 9.4688 30.984 16.219 45.703 0.79688 1.6875 3.1875 3.0938 5.0625 2.9062 14.812-1.3594 29.672-2.7188 44.531-4.0781 6 44.062 10.359 89.344 12.938 134.06zm21.094-148.92c-9.75 0.9375-19.453 1.8281-29.156 2.7188-0.32812 0-0.65625 0.046875-0.9375 0.09375-14.953 1.3594-29.906 2.7188-44.812 4.125-6.375-14.297-11.297-29.25-14.812-44.438-0.84375-3.75-1.6875-7.5938-2.3438-11.438-1.8281-9.9375-3-19.969-3.5625-30-0.046875-0.84375-0.09375-1.7344-0.09375-2.625-0.1875-4.4062-0.28125-8.9062-0.28125-13.312 0-1.5938 0.09375-3.1875 0.1875-4.7344 0.09375 0 0.23438-0.09375 0.32812-0.09375 3.0469 1.125 6.2812 1.875 9.4688 2.4375 24.375 4.4062 48.844 8.625 73.219 12.984 2.6719 28.312 6.9375 56.438 12.844 84.281zm45.75-108.66c-0.46875 3.4219 0.1875 6.5156-1.5938 9.6562-5.0156 8.625-15.75 9.2812-24.609 8.3438-8.25-0.84375-16.406-2.4375-24.562-4.0312-0.70312-0.28125-1.5-0.46875-2.3438-0.46875h-0.1875l-9-1.6875c-12.281-2.1562-24.609-4.3594-36.938-6.5625-11.531-2.0625-23.438-3.4688-34.875-6.2812-1.9219-0.46875-3.9844-1.0312-5.8125-1.9688-0.1875-0.09375-0.375-0.1875-0.51562-0.28125-0.046875 0-0.09375-0.046875-0.09375-0.09375-0.65625-0.375-1.3125-0.84375-1.875-1.3594 0 0-0.046875 0-0.046875-0.046875l-0.5625-0.5625c-0.28125-0.32812-0.5625-0.65625-0.75-1.0312-2.4375-3.6562-1.4062-8.7656-0.51562-12.75 0.09375-0.5625 0.28125-1.125 0.375-1.6406 2.5312-10.969 5.5312-22.031 8.7188-32.812 0.9375-3.1875 2.2031-6.0469 5.0625-7.3125 0.65625-0.28125 1.4062-0.46875 2.25-0.60938 5.0625-0.65625 10.547 0.46875 15.562 1.0312 18.375 2.0625 36.609 5.1094 54.656 9.0938 5.25 1.125 10.5 2.3438 15.75 3.6562 5.8594 1.4531 11.625 3 17.391 4.6406 7.2656 2.0625 10.406-9.2344 3.0938-11.297-6.6562-1.875-13.359-3.6562-20.062-5.25 8.5312-5.1562 15.281-13.266 17.812-22.922 4.6406-17.344-8.25-34.875-22.312-44.156l0.42188-3.9375c0.375-3.1406-2.9531-5.8594-5.8594-5.8594-3.4688 0-5.5312 2.7188-5.8594 5.8594-2.4375 21.656-4.125 43.5-4.5 65.25-1.125 0.046875-2.25 0.046875-3.375-0.046875-0.60938-0.046875-1.2188 0-1.7344 0.1875-10.125-1.9688-20.25-3.6562-30.469-5.0625-6.4688-0.89062-12.938-1.6875-19.406-2.3906-2.5312-0.28125-5.0625-0.5625-7.6406-0.60938 5.3906-18.469 12.281-36.375 20.719-53.672 1.0781-2.25 1.125-5.2969-0.9375-7.125-7.3125-6.4688-19.688-17.484-15.938-28.641 1.5938-4.7812 6-7.9688 9.9375-10.688 4.8281-3.375 9.8906-6.6562 13.781-11.156 8.25-9.6094 12.047-22.125 12.281-34.688 0.1875-11.156-3.5625-20.719-8.8125-30.422-5.3438-9.8438-12.047-19.125-16.875-29.25 0.046875-0.46875 0.09375-0.89062 0.1875-1.3125 1.2188-10.031 2.0625-20.156 2.5312-30.281 39.375 10.922 57.703 52.781 68.25 88.875 12.656 43.125 22.312 87.281 29.438 131.72 0.46875 3.0938 0.98438 6.2344 1.4531 9.375 2.1562 13.875 3.9844 27.844 5.5312 41.812 1.125 9.8438 2.1094 19.734 2.9531 29.625 0.1875 2.1094 0.5625 3.9375 0.5625 4.9688-0.046875 1.3125-0.42188 2.7188-0.60938 4.0312zm-47.438-113.02c8.0625 6.9375 15.094 17.344 12.375 27.375-2.1094 7.7812-7.875 13.875-15 17.297 0.32812-14.906 1.2656-29.812 2.625-44.719zm129.94-61.969c-1.8281 19.688-8.7188 38.812-17.719 56.344-9.75 18.938-22.125 36.469-36.797 51.844-6.3281 6.6562-13.031 12.891-20.297 18.469-0.1875-1.3125-0.32812-2.6719-0.46875-4.0312-1.4531-11.625-3.0938-23.25-4.9219-34.875 0.09375-0.046875 0.09375-0.09375 0.1875-0.1875 17.062-20.672 29.625-44.906 36.375-70.922 3.375-12.938 5.25-26.25 5.7188-39.562 0.46875-14.062-0.84375-28.594 3.8438-42.141 0.9375-2.625 2.1094-5.1562 3.4688-7.5938 4.125-7.2188 10.125-13.547 16.688-18.516 4.5938-3.4688 9.5625-6.4219 14.766-8.9062h0.046875c0.09375-0.046875 0.23438-0.09375 0.375-0.14062-0.046875 0-0.09375 0.046875-0.1875 0.09375 0.09375-0.046875 0.28125-0.09375 0.32812-0.09375 0.1875-0.09375 0.28125-0.09375 0.46875-0.1875 0.70312-0.28125 1.4062-0.51562 2.1562-0.75 1.9688-0.65625 3.9844-1.2188 5.9531-1.6875 10.547-2.625 20.953-4.2188 31.406-5.5781 6.375-0.84375 12.844-1.5938 19.406-2.4375 3.0938-0.375 6.1875-0.75 9.2344-1.4062 4.2188-0.98438 8.4375-3.4688 11.859-6.0469 2.4844-1.875 4.7812-4.0312 6.1406-6.8438 1.3125-2.7188 1.3125-5.6719 1.2188-8.625-0.09375-3.1875-0.28125-6.4688-0.65625-9.75 11.906 0.75 24.094-2.0625 34.594-7.9688-3.75 12.469-5.5312 25.5-5.6719 38.438-0.32812 22.125 4.0312 44.578 13.547 64.547 3.0938 6.4688 6.8438 12.656 11.156 18.328-16.875 6.375-30.797 19.359-38.344 35.578-7.3125-15-15.797-29.25-28.875-40.266-0.9375-1.2188-2.3906-2.0156-4.4062-1.9688-17.25 0.375-36-1.875-51.656 7.125-10.734 6.1875-18.938 17.203-18.656 29.484-0.046875 0.09375-0.046875 0.23438-0.09375 0.375zm44.719-282.74c2.625 2.3438 5.7656 4.2188 9.375 5.625 9 3.375 19.266 0.5625 25.312-6.0938 5.0625 5.7188 12.281 9.4219 20.062 9.6094 9.8438 0.28125 19.031-5.3438 24.047-13.5 4.7344-1.0781 9.75-2.0625 14.062-0.46875s6.6562 5.9531 8.0625 10.078c2.1562 6.1875 3.1875 12.844 4.2188 19.266 1.125 7.1719 1.8281 14.391 2.0156 21.656 0.51562 21.375-4.3125 43.5-17.766 60.188-0.1875 0.1875-0.42188 0.46875-0.5625 0.70312-2.0625 2.5312-4.3594 4.875-6.8438 7.125-11.906 10.688-28.781 15.656-44.25 12.375-5.3438-1.125-10.453-3.2812-15.141-6.4688-7.9688-5.4375-12.328-13.5-16.828-22.031-4.7812-9.0938-9-18.75-11.625-28.688-6.1406-23.25 0.5625-46.406 5.8594-69.281zm253.64 763.74c0.75 37.688-0.1875 75.422 2.0625 113.06 0.9375 15.703 2.4375 31.5 5.5781 46.969-47.438 2.25-94.969 2.25-142.45 1.5-47.812-0.79688-95.625-2.25-143.44-2.0625-27 0.09375-54 0.75-80.953 2.0625-1.5938-65.25 2.7656-130.6 12.094-195.19 8.2969-57.656 20.391-114.7 34.781-171.14 11.344-44.438 24.281-88.359 36.375-132.56 4.5-16.312 8.8125-32.625 12.281-49.172 2.5781-12.141 4.875-24.656 4.9688-37.125 0-4.5938-0.28125-9.2812-1.3125-13.781-1.3125-5.8125-4.2656-10.406-7.9219-15-6.2812-8.0625-18-17.203-18.703-28.312v-0.1875c0.046876-0.42187 0-0.84375-0.046874-1.2188 0-0.79687 0.09375-1.5938 0.1875-2.3906 2.3906-14.531 19.312-20.344 31.969-21.281 8.1562-0.65625 16.312-0.1875 24.469-0.32813 13.828 12.281 21.844 28.547 29.531 45.141 0.60937 1.3125 1.2188 2.625 1.8281 3.9375 2.0625 4.5469 9.7031 3.3281 10.688-1.4062 4.0781-19.406 18.375-36.094 37.312-42.375 0.79688-0.28125 1.5-0.65625 2.0156-1.125 2.25 19.5 15.844 36.469 33.562 44.766 11.438 5.3906 23.812 6.9375 35.859 5.25-0.32812 2.7656-0.65625 5.5312-0.98437 8.3438-3.9375 33.281-7.2188 66.844-4.1719 100.36 3.375 37.031 15.562 72.469 28.5 107.11 6.375 17.062 14.297 33.562 20.25 50.812-5.9062 12.938-13.688 24.984-23.016 35.906-1.5938 1.8281-2.25 4.125-1.2188 6.375 0.84375 1.9688 3.0469 3.8438 5.3438 3.6094 1.4062-0.1875 2.8125-0.23438 4.1719-0.28125 4.5938-0.09375 9.1875 0.375 13.781 0.46875-1.0312 12.281-0.28125 24.703 7.875 34.781 4.8281 5.9531 12 9.0938 18.984 8.9531 8.5312 30.844 9.1875 63.797 9.8438 95.531zm-27.188-209.72c-0.65625 2.625-1.4062 5.25-2.25 7.875-4.1719-10.547-8.7656-20.906-12.938-31.5-6.6562-16.781-12.516-34.031-17.906-51.281-5.4375-17.297-9.8438-34.969-11.906-52.969-2.0625-18.562-2.1562-37.312-1.125-55.969 0.51562-9.375 1.3125-18.75 2.25-28.125 14.766 31.5 28.641 63.375 37.406 97.219 9.6094 36.984 15.75 77.109 6.375 114.8zm16.219-181.45c9.5625 29.391 15.938 59.391 20.719 89.906 4.5 28.688 7.5938 58.734 2.0625 87.516-1.3594 7.125-3.6562 14.062-5.0156 21.234-1.5 7.7344-1.7812 15.469-2.4375 23.297-1.125 13.594-3.3281 27-3.4688 40.688-0.046874 5.625 0.09375 12-2.9531 17.016-1.3125 2.2031-3.375 3.6094-5.7188 4.2188-2.4375 0.65625-5.25 0.32812-7.6875-0.9375-5.8594-3-8.8125-9.9844-9.7031-16.219-1.0312-6.8438-0.046874-14.062 0.75-20.906 0.32813-2.9062-3-6.1875-5.8594-5.8594-4.125 0.46875-8.25 0.28125-12.328 0 7.0312-9.4688 13.031-19.547 17.859-30.281 0.65625-0.75 1.0312-1.5938 1.1719-2.625 1.9219-4.4062 3.6094-8.9531 5.0625-13.594 5.9531-18.938 8.0625-39 7.4062-58.781-1.4062-41.719-12.656-83.344-28.125-121.97-8.9062-22.219-19.125-43.828-29.438-65.391 0.42188-3.6562 0.84375-7.3125 1.3125-10.922 4.875-1.5469 9.6094-3.6094 14.156-6.1406 4.4062-2.4375 8.5312-5.2969 12.375-8.4375 10.594 25.781 21.141 51.562 29.812 78.141zm-23.953-101.16c-1.875 2.5781-3.9375 5.0625-6.1875 7.4062h-0.046874c-1.2188 0.5625-2.3438 1.6875-3 3-8.5781 8.0625-19.219 14.344-30.562 17.344-8.0625 2.0625-16.453 2.4844-24.703 0.5625-11.25-2.5781-21.609-9-28.828-18-3.3281-4.1719-5.9531-9-7.5-14.109-0.75-2.4844-1.3125-5.0156-1.5-7.5938-0.1875-2.2031-0.23438-4.0312-1.7812-5.8125-0.9375-1.0312-2.0625-1.9688-3.0469-3-14.859-15.75-22.594-37.547-25.828-58.734-3.2812-21.844-1.5-45.141 6.4219-65.859 1.6875-4.4062 3.8438-8.7188 6.2812-12.891 14.062-17.531 20.344-40.547 20.438-63.094 0.046876-9.0469-0.84375-18.047-2.1562-27-1.1719-7.8281-2.3438-16.031-5.2969-23.391-2.8594-7.2188-7.5-13.5-15.047-16.219-5.1562-1.8281-10.5-1.4062-15.797-0.46875-2.6719-2.9062-8.4844-2.9531-10.031 1.8281-0.28125 0.09375-0.5625 0.09375-0.84375 0.14062-3.1406 0.46875-4.8281 4.4062-4.0781 7.2188 0.046876 0.14062 0.09375 0.28125 0.1875 0.42188-3 2.7188-6.9375 4.4062-11.109 4.3125-6.75-0.1875-12.422-5.1562-14.484-11.391-0.1875-0.46875-0.28125-1.0312-0.42187-1.5-1.5-6.5625-11.438-4.9688-11.531 1.5938 0 0.46875-0.046876 0.98438-0.14063 1.4531-0.5625 3-2.8125 5.4375-5.625 6.8438-3.5156 1.6875-7.6406 1.1719-11.062-0.5625-3.8438-1.9688-6.5625-4.9219-8.4844-8.4375 0.1875-2.1562-0.65625-4.2188-2.3438-5.4375-1.0312-3.375-1.5938-6.8906-1.875-10.312-0.1875-3.1406-2.5781-5.8594-5.8594-5.8594-3 0-6.0938 2.6719-5.8594 5.8594 0.375 5.8594 1.5938 11.812 3.7969 17.156-2.5781 13.031-6.1875 25.875-8.5781 39-2.5781 14.203-3.1406 28.781-0.28125 43.031 0.75 3.8438 1.8281 7.5938 3.0938 11.344 2.4375 7.1719 5.6719 14.156 9 20.812 4.875 9.8438 10.594 19.969 19.406 26.906 5.4375 4.2656 11.531 7.2656 17.906 9.0938 0.79687 3.6562 1.0312 7.4062 1.2188 11.156 0.046874 1.2188 0.09375 2.3438 0.046874 3.5625 0 0.46875-0.14062 0.89062-0.14062 0.9375-0.9375 1.5-2.6719 2.625-4.3125 3.6562-1.0312 0.60938-2.0156 1.125-3.0469 1.6875-0.51562 0.28125-3.0469 1.125-2.1562 0.9375-0.5625 0.1875-1.125 0.28125-1.6875 0.42188-1.125 0.1875-2.25 0.375-3.375 0.5625-0.5625 0.09375-1.125 0.1875-1.6875 0.23438-0.28125 0.046875-0.60937 0.09375-0.9375 0.09375h-0.09375c-0.046874 0-0.14062 0-0.28125 0.046875-0.14062 0-0.32812 0-0.46875 0.046875-4.8281 0.65625-9.7031 1.2188-14.531 1.8281-0.23437-0.375-0.5625-0.75-0.9375-1.0312-10.406-8.4375-17.719-19.875-20.719-33-3.1875-13.922-0.75-28.781 6.1875-41.25 0.65625-1.1719 0.84375-2.3438 0.75-3.4219 0.1875-1.0781 0.09375-2.25-0.1875-3.2812-0.70312-2.0625-2.4844-3.6562-5.3438-3.4688-8.5312 0.42188-14.812-5.3906-19.078-12.562v-0.046875c-0.23438-0.79688-0.65625-1.5469-1.2188-2.2031-1.6875-3.3281-3-6.8438-3.8906-10.031-4.125-15.281-3.75-31.594 0.65625-46.781 2.5781-8.8125 6.4688-17.016 11.625-24.609 1.125-1.6875 1.0312-4.2188 0-5.9062-9.1406-15.234-9.8906-35.062-1.1719-50.719 8.0625-14.484 23.578-24.562 40.125-25.875 2.25-0.1875 4.2188-1.3594 5.2031-3.2344 0.75-0.28125 1.5-0.70312 2.0625-1.3594 4.2188-4.8281 8.4375-9.6562 12.703-14.531 0.1875-0.1875 0.375-0.42188 0.46875-0.65625 0.46875-0.09375 0.84375-0.1875 1.3125-0.28125h0.32812c0.046876 0 0.14063-0.046875 0.28125-0.046875-0.09375 0-0.1875 0-0.28125 0.046875 0.09375 0 0.28125 0 0.375-0.046875h-0.09375 0.1875c1.2656-0.09375 2.5312-0.14062 3.7969-0.09375 0.14062 0 1.125 0.09375 1.5938 0.09375h0.1875c0.28125 0.09375 0.60937 0.14062 0.89062 0.1875 1.0312 0.1875 2.0156 0.46875 3 0.84375-1.4062 1.5938-2.625 3.2812-3.75 5.1094-2.8125 4.5938-4.2656 9.6562-4.6875 15-0.28125 3.1875 2.9062 5.8594 5.8594 5.8594 3.375 0 5.625-2.6719 5.8594-5.8594 0.89063-11.016 10.922-19.266 20.906-22.125 13.125-3.75 27 1.125 38.344 7.6875 6.4688 3.75 12 8.3906 19.266 10.547 6.2812 1.875 12.938 2.2031 19.359 3.4688 5.7656 1.125 11.156 3.1875 15.094 7.0312 3.8906 3.8906 6.9375 8.8125 9.75 13.594 3 5.0625 5.8125 10.312 8.8125 15.469 3.0469 5.1562 6.8906 9.75 9.375 15.234 2.9062 6.375 4.4062 13.406 6.0469 20.203 1.875 8.0625 3.75 16.078 5.625 24.094l22.922 97.688c3.8906 16.5 7.875 33 11.625 49.5 2.6719 11.953 5.2031 24 6.7969 36.141 0.51562 3.8438 0.9375 7.6875 1.2188 11.531 2.25 28.359-1.5 58.594-18.562 82.219zm68.438-151.78c-4.7812-0.65625-9.375 3.75-6.6094 8.625 0.65625 1.125 1.2188 2.3438 1.7344 3.5625 4.2188 10.406 2.5312 23.203-5.1562 31.594-7.6875 8.3438-19.406 11.438-30.188 8.7656-3.75-25.781-10.5-51.094-16.453-76.453-6.2812-26.812-12.562-53.578-18.891-80.344-3.1875-13.453-6.3281-26.906-9.4688-40.359-2.8125-11.906-5.0625-24.469-11.297-35.156-2.3438-4.125-5.3438-7.8281-7.7344-11.906-2.4375-4.1719-4.7344-8.4375-7.125-12.609-4.7344-8.1562-9.9844-16.875-18-22.219-9.8438-6.5156-21.562-5.8594-32.531-8.6719-5.6719-1.4531-9.8438-4.6406-14.719-7.7344-5.3438-3.375-10.969-6.2344-16.828-8.4844-0.70313-0.28125-1.4062-0.5625-2.1562-0.79688-10.266-3.5625-21.75-4.6875-32.25-1.5938-3.8438 1.125-7.5938 2.8125-11.016 4.9688-0.1875-0.14062-0.375-0.28125-0.5625-0.375-8.4375-4.9688-18.656-5.5312-27.562-2.2969-6.2344-1.7812-13.547-4.5938-14.391-11.484-0.1875-1.6875 0.28125-2.625 0.84375-4.0312 0.046874-0.09375 0.09375-0.14062 0.09375-0.1875 0.28125-0.09375 0.5625-0.1875 0.84375-0.28125h0.1875c1.0312-0.09375 1.4062 0 2.4375 0.60938-0.1875-0.14062 0.09375 0 0.375 0.1875v0.09375-0.046875c0-0.14062 0-0.28125 0.09375-0.375-0.046876 0.09375-0.046876 0.23438-0.046876 0.375 0.32813 0.1875 0.65625 0.42188 0.046876 0.1875 0 0 0-0.046875-0.046876-0.09375v-0.046875c-0.046874 0.32812-0.09375 0.65625-0.09375 1.0312-0.51562 6.5156 10.5 8.1094 11.531 1.5938 0.09375-0.5625 0.14063-1.0312 0.14063-1.5938h0.09375c0.46875-5.9531 5.1562-11.438 11.016-12.891 5.8125-1.5 12.422 1.2188 15.656 6.1875 2.9531 4.5 8.9062 3.2812 10.688-1.4062 0.42188-1.0781 0.9375-2.3438 1.5-3.5625 1.4062-3.1875 3.375-6.375 6.4219-7.4062 0.9375-0.32812 1.6875-0.046875 2.625 0.65625 0.1875 0.14062 0.9375 0.89062 0.9375 0.89062 0.09375 0.09375 0.28125 0.1875 0.28125 0.23438h-0.09375s0.046874 0 0.09375 0.09375c-1.4062 2.1562-1.7812 4.7812 0 7.0312s5.0156 3.0469 7.5469 1.5c0.42188-0.28125 0.84375-0.46875 1.3125-0.70312 5.3438-2.7188 11.906-2.9062 17.344-0.28125-1.7812 2.4375-3.6094 4.9688-5.4375 7.4062-1.0312 1.4062-2.1094 2.8594-3.1406 4.3125-2.25 3.0938 0.14062 7.8281 3.6094 8.7188 0.46875 0.09375 0.9375 0.1875 1.4062 0.09375 25.031-1.6875 49.406 5.9531 70.688 18.75 21.984 13.125 40.172 31.5 56.203 51.281 16.969 20.953 31.828 43.688 47.156 65.906 8.3438 12.188 16.781 24.375 25.125 36.562 7.125 10.359 14.438 21.047 18.656 33 4.0312 11.531 4.8281 23.766-1.3594 34.688-4.6875 8.25-13.5 16.031-23.438 14.625z"/>
 <path d="m901.92 914.48c-1.5938-10.594-3.1406-21.375-6.1406-31.734-4.7344-16.406-14.25-32.344-30.328-38.766-0.09375-0.375-0.09375-0.79688-0.1875-1.1719-3.2812-24.938-6.6094-49.875-9.9375-74.812-6.6094-49.875-13.219-99.75-19.875-149.63-0.84375-6.1875-1.6406-12.375-2.4375-18.562-0.42188-3.1406-2.4375-5.8594-5.8594-5.8594-2.8594 0-6.2812 2.6719-5.8594 5.8594 6.1406 46.406 12.281 92.812 18.469 139.22 3.0469 22.969 6.0938 46.031 9.1875 69 1.5 11.062 2.9062 22.125 4.4062 33.188-7.2188-0.5625-14.672 0.65625-20.719 4.7344-7.0781 4.7344-11.438 12.141-11.156 20.766 0.5625 15.375 14.906 31.969 31.172 24.516 12.844-5.8594 14.906-19.922 14.25-33.234 8.3438 5.8125 13.828 15.703 16.969 25.641 2.9062 9.1875 4.4531 18.797 5.9531 28.312 1.7812 11.156 3.2812 22.406 4.4531 33.656 4.8281 45.375 5.2969 91.172 1.3125 136.69-0.51562 5.7188-1.0781 11.391-1.6875 17.062-0.375 3.1875 2.9062 5.8594 5.8594 5.8594 3.4688 0 5.5312-2.6719 5.8594-5.8594 5.4375-48.938 5.8594-98.438 1.0312-147.47-1.2188-12.469-2.7656-24.938-4.6406-37.359zm-46.922-46.688c-0.46875 3.3281-1.3594 6.4219-3.0938 9.0938-1.4062 2.1094-3.5625 3.75-6.1875 4.4062-1.6875 0.42188-3.5156-0.09375-5.4375-1.2656-1.9219-1.2188-3.5156-3.0938-4.875-5.5312-2.625-4.6875-3.1875-10.406-0.60938-14.719 3.0938-5.1562 10.594-7.2188 16.781-6.9375 1.125 0.046875 2.25 0.1875 3.2812 0.32812 0.5625 4.9688 0.79688 9.9375 0.14062 14.719z"/>
 <path d="m873.28 282.28c-2.8594 0-6.2812 2.6719-5.8594 5.8594 4.5938 36.609 9.2344 73.219 13.828 109.88 0.375 3.1406 2.4375 5.8594 5.8594 5.8594 2.8594 0 6.2812-2.6719 5.8594-5.8594-4.5938-36.609-9.1875-73.219-13.828-109.88-0.375-3.1406-2.4375-5.8594-5.8594-5.8594z"/>
 <path d="m828.05 315.66c3.4219-26.438 8.4375-52.688 11.062-79.219 2.5312-25.5 3.375-52.359-2.9062-77.391-3.1875-12.562-8.8125-24.844-17.953-34.172-8.8125-9-20.438-14.906-33.094-15.469-7.5469-0.32812-7.5 11.391 0 11.719 21.656 0.9375 34.734 21.609 39.562 40.5 6.1875 24.094 5.0625 50.156 2.625 74.766-4.8281 48.609-17.531 96.703-13.875 145.87 1.9219 25.453 8.1562 50.625 21.281 72.656 3.8438 6.4688 13.969 0.5625 10.078-5.9062-23.812-39.938-22.688-88.781-16.875-133.4z"/>
 <path d="m778.31 234.47c2.2031-2.1562 2.3438-6.1875 0-8.2969-2.3438-2.1562-5.9531-2.25-8.2969 0-0.28125 0.28125-0.65625 0.5625-0.9375 0.84375 0 0-0.046875 0.046875-0.09375 0.046875-0.09375 0.09375-0.1875 0.14062-0.32812 0.1875-0.375 0.23438-0.75 0.46875-1.2188 0.65625-0.09375 0.09375-0.23438 0.09375-0.375 0.1875-0.84375 0.28125-1.6875 0.5625-2.5781 0.75-0.09375 0-0.1875 0.046875-0.28125 0.046875h-0.14062c-0.42188 0-0.84375 0.09375-1.3125 0.09375s-0.9375 0-1.4062-0.046875h-0.51562c-0.84375-0.1875-1.5938-0.375-2.4375-0.65625-0.14062-0.046875-0.28125-0.09375-0.375-0.14062l-0.98438-0.5625c-0.375-0.1875-0.75-0.51562-1.125-0.70312-0.14062-0.14062-0.28125-0.28125-0.42188-0.375-2.25-2.0625-6.0938-2.3906-8.25 0-2.0625 2.25-2.4375 6.0938 0 8.25 8.5312 7.875 22.547 7.875 30.938-0.28125z"/>
 <path d="m758.68 97.359c-18.469 22.125-22.875 53.156-11.625 79.641 1.2188 2.9062 5.5312 3.5625 8.0156 2.1094 3-1.7812 3.375-5.1094 2.1094-8.0156-9.0938-21.234-5.0156-47.766 9.75-65.438 2.0625-2.4375 2.3906-5.9062 0-8.25-2.0625-2.0625-6.2344-2.4375-8.25 0z"/>
 <path d="m710.9 275.58c-2.2031 2.4375-2.25 5.9062 0 8.2969 11.719 12.562 32.203 13.125 45.188 2.3906 2.3438-1.9688 2.1562-6.2812 0-8.2969-2.5312-2.3438-5.7656-2.0625-8.2969 0-0.09375 0.09375-0.14062 0.09375-0.1875 0.1875 0 0-0.046875 0-0.046875 0.046875-0.32812 0.1875-0.65625 0.42188-0.9375 0.65625-0.65625 0.42188-1.2656 0.79688-1.9219 1.125l-1.125 0.5625c-0.09375 0.046875-0.1875 0.09375-0.23438 0.09375-0.046875 0.046875-0.09375 0.046875-0.09375 0.046875s0.046875 0 0.09375-0.046875c-0.65625 0.28125-1.3125 0.46875-2.0156 0.65625s-1.4062 0.375-2.1562 0.5625c-0.23438 0.046875-0.46875 0.09375-0.75 0.14062h-0.14062 0.09375-0.14062 0.046875-0.51562c-1.5469 0.1875-3.1406 0.1875-4.6875 0.09375-0.32812 0-0.65625-0.046875-0.98438-0.09375h-0.14062c-0.75-0.14062-1.4531-0.28125-2.1562-0.42188-0.84375-0.1875-1.5938-0.42188-2.3906-0.65625-0.28125-0.09375-0.60938-0.23438-0.9375-0.32812h-0.14062s-0.046875 0-0.09375-0.046875c-1.4062-0.70312-2.8125-1.4062-4.0781-2.2969-0.046875 0-0.28125-0.1875-0.46875-0.28125 0 0-0.09375-0.046875-0.09375-0.09375h-0.046875c-0.046875 0-0.09375-0.046875-0.09375-0.09375-0.1875-0.1875-0.375-0.375-0.42188-0.375-0.60938-0.5625-1.2188-1.125-1.7812-1.7812-2.1094-2.25-6.1875-2.25-8.2969 0z"/>
 <path d="m703.87 235.97c5.7656-0.375 11.484-2.625 15.328-6.9844 2.0156-2.2969 2.4375-6.0469 0-8.2969-2.25-2.0625-6.0938-2.4375-8.2969 0-0.32812 0.375-0.65625 0.75-1.0312 1.125-0.14062 0.14062-0.28125 0.28125-0.46875 0.375-0.65625 0.46875-1.3125 0.84375-2.0625 1.2188-0.375 0.09375-0.5625 0.1875-0.65625 0.23438-0.375 0.14062-0.75 0.23438-1.125 0.375-0.375 0.09375-0.75 0.1875-1.125 0.23438h-0.09375c-0.1875 0-0.375 0-0.5625 0.046875-0.89062 0.046875-1.7812-0.046875-2.6719-0.09375h-0.046875c-0.09375-0.046875-0.28125-0.046875-0.375-0.09375-0.42188-0.09375-0.84375-0.1875-1.3125-0.32812-0.28125-0.09375-0.60938-0.1875-0.9375-0.28125l-0.046875-0.046875c-0.23438-0.09375-0.46875-0.1875-0.65625-0.375-0.32812-0.1875-0.65625-0.375-0.9375-0.5625l0.1875 0.1875c-0.09375-0.09375-0.1875-0.14062-0.28125-0.1875l-0.09375-0.09375h-0.046875l-0.28125-0.28125c-2.25-2.0625-6.0938-2.4375-8.25 0-2.0625 2.25-2.4375 6.0938 0 8.25 4.3125 3.8438 10.031 5.9531 15.844 5.625z"/>
 <path d="m697.87 105.56c0.375-7.5469-11.344-7.5-11.719 0-1.0312 20.531 3.6562 41.062 13.406 59.203 3.5625 6.6562 13.688 0.75 10.078-5.9062-8.7188-16.406-12.703-34.781-11.766-53.297z"/>
 <path d="m432.37 205.36c6.9844 1.2188 13.547-0.65625 19.031-5.1094 2.3906-1.9688 2.1562-6.2812 0-8.2969-2.4375-2.25-5.5312-2.0625-8.0156-0.1875 0 0-0.1875 0.09375-0.23438 0.1875-0.09375 0.09375-0.1875 0.09375-0.1875 0.1875 0-0.09375 0.09375-0.09375 0.14062-0.1875-0.14062 0.09375-0.23438 0.1875-0.32812 0.28125-0.46875 0.28125-0.98438 0.60938-1.5 0.84375-0.09375 0-0.1875 0.09375-0.32812 0.1875l-0.1875 0.09375c-0.46875 0.14062-0.89062 0.28125-1.3125 0.42188-0.14062 0-0.9375 0.1875-1.4062 0.28125h-0.28125 0.046875-2.1094s-0.09375 0-0.28125-0.046875h-0.28125c-0.46875-0.09375-0.89062-0.1875-1.3125-0.32812-0.23438-0.09375-0.46875-0.14062-0.70312-0.23438-0.09375-0.046875-0.46875-0.1875-0.51562-0.1875-0.14062-0.09375-0.28125-0.1875-0.46875-0.23438l-1.4062-0.84375s-0.046875-0.046875-0.09375-0.046875l-0.09375-0.09375s0-0.046875-0.046875-0.046875h-0.046875l-0.046875-0.046875s-0.09375-0.09375-0.14062-0.09375c-0.28125-0.28125-0.60938-0.5625-0.89062-0.84375s-0.5625-0.5625-0.84375-0.9375l-0.046875-0.046875c-0.14062-0.23438-0.28125-0.46875-0.46875-0.75-1.6406-2.5781-5.2969-3.8438-8.0156-2.1094-2.5781 1.6875-3.8438 5.25-2.1094 8.0156 3.2812 5.1094 8.625 9.1875 14.625 10.219z"/>
 <path d="m377.81 256.6s-0.28125-0.32812-0.32812-0.375c-0.28125-0.375-0.51562-0.75-0.75-1.0312-0.46875-0.75-0.9375-1.5-1.3594-2.3438l-0.42188-0.84375v-0.09375c-0.09375-0.1875-0.375-0.98438-0.375-0.98438-1.0781-3-4.0312-4.9688-7.2188-4.0781-2.9062 0.75-5.1562 4.2188-4.125 7.2188 3.4688 9.6562 11.062 17.344 20.906 20.438 10.5 3.375 21.844 0.51562 30.281-6.2812 2.4375-1.9688 2.0625-6.1875 0-8.25-2.4375-2.4375-5.8125-1.9688-8.25 0-0.1875 0.14062-0.5625 0.375-0.65625 0.46875-0.375 0.23438-0.70312 0.46875-1.0781 0.70312-0.84375 0.46875-1.6875 0.9375-2.5781 1.3594-0.5625 0.28125-0.84375 0.375-1.875 0.70312-0.9375 0.28125-1.875 0.5625-2.8125 0.75 0 0-0.9375 0.14062-1.125 0.1875-0.1875 0-0.75 0.046875-0.84375 0.09375-0.9375 0.046875-1.9688 0.09375-2.9062 0-1.2188-0.046875-1.7344-0.09375-2.25-0.28125-0.9375-0.1875-1.875-0.375-2.7188-0.70312-2.5312-0.79688-5.625-2.6719-7.5938-4.5938-0.65625-0.65625-1.2656-1.3125-1.875-1.9688z"/>
 <path d="m379.36 189.47c2.1562-2.1562 2.3438-6.1406 0-8.2969-2.3438-2.1094-6-2.3438-8.2969 0-0.28125 0.32812-0.60938 0.60938-0.9375 0.89062-0.1875 0.09375-0.375 0.28125-0.5625 0.375-0.42188 0.28125-0.9375 0.46875-1.3594 0.75-0.1875 0.046875-0.375 0.09375-0.5625 0.1875-0.46875 0.14062-0.84375 0.23438-1.3125 0.32812h-0.65625c-0.51562 0.046875-1.0312 0-1.5938 0h-0.046875c-0.14062-0.046875-0.28125-0.09375-0.46875-0.09375-0.46875-0.09375-0.89062-0.23438-1.3125-0.375h-0.046875s-0.1875-0.09375-0.23438-0.09375c-0.46875-0.23438-0.84375-0.46875-1.3125-0.75-0.09375-0.09375-0.1875-0.14062-0.28125-0.1875l-0.09375-0.09375c-0.375-0.375-0.75-0.70312-1.125-1.0781-0.09375-0.09375-0.14062-0.1875-0.23438-0.23438 0 0-0.046875-0.09375-0.09375-0.09375-0.28125-0.375-0.51562-0.75-0.75-1.1719-0.09375-0.1875-0.1875-0.375-0.32812-0.5625 0-0.046875-0.046875-0.09375-0.09375-0.14062-0.5625-1.3125-1.2656-2.4375-2.5781-3.1875-1.2188-0.75-3.0938-1.0312-4.5-0.5625-2.8125 0.9375-5.2969 4.125-4.125 7.2188 2.3906 6.1406 7.3594 11.156 13.922 12.75 6.75 1.5938 13.969-0.51562 18.797-5.4375z"/>
</svg>
