<?xml version="1.0" encoding="UTF-8"?>
<svg width="1200pt" height="1200pt" version="1.1" viewBox="0 0 1200 1200" xmlns="http://www.w3.org/2000/svg">
 <path d="m466.22 1115.1c-0.046875 11.672 87-124.6 177.42-244.78 42.844-57.234 69.375-99.422 74.812-166.87 4.5938 3.9375 8.9531 7.3125 15 8.5312 10.781 1.6406 18.984-4.5469 26.062-7.6406 51.938-21.516 89.156-60.141 106.17-102.14 2.4844-6.2812 5.3906-13.969 0.1875-21.75 36.516-20.859 58.547-83.859 28.594-112.31-24.281-23.297-90.656-22.219-124.08-18.047 24.703-44.672 56.062-85.266 84.703-119.72 8.5781 2.7656 16.547 0.28125 21.75-5.1094 9.9844-10.125 17.578-22.969 22.547-38.156 1.5938-4.7344 1.4531-9.8438-0.1875-14.531l13.734-18.703c4.7812-6.6562 5.4375-15.469 1.7812-22.312-6.9375-13.312-15.234-25.266-24.562-35.672 20.062-3.8906 58.359 1.2188 76.688-26.578 35.859-54.094-63.328-100.17-121.5-7.9219-10.359-5.2969-21.328-9.75-32.766-12.656-8.0625-2.25-17.016 0.89063-22.359 7.9688l-16.078 21.844c-0.70312-0.046874-1.3125-0.1875-1.9688-0.23437-5.25-0.23438-10.406 1.2188-14.484 4.2188-11.203 8.2969-20.578 19.031-27.891 31.828-3.9375 6.9844-3.5625 15.141 0.42188 21.984-21.234 32.484-46.828 69.141-77.016 103.03-3.1406-16.125-7.1719-31.875-12.75-46.594-10.219-26.297-21.516-49.031-50.484-51.094-32.297-13.078-80.109 20.953-88.594 56.625-0.1875 1.0312-0.1875 2.1094 0.14062 3.0469-0.51562 0-1.0781 0-1.5938 0.09375-8.7188-4.0312-10.688-5.3906-21.141 2.0156-40.172 29.297-64.688 74.719-72.609 122.72-2.25 13.453-7.1719 21 3.5625 30.469 1.9688 10.172 9.6562 14.484 12.609 16.922-68.531 25.312-101.3 61.266-147.24 124.5-88.266 121.4-184.03 232.87-182.06 240.89-15.984 56.344 322.64 306.94 373.18 276.14zm420.05-638.29c23.812 22.594 3.0938 77.906-28.031 94.219-8.5781-10.078-16.969-18.188-34.734-29.062-6.75-4.1719-13.031 6.0938-6.2812 10.219 22.266 13.641 27.281 21.469 38.391 34.359 2.0625 2.5312 1.5938 4.5-1.0781 11.344-15.609 38.531-50.297 74.906-99.656 95.391-1.2188 0.51562-6.8906 3.3281-7.0312 3.4219 4.6406-14.719 1.5469-38.719-12.562-58.453-21.609-29.438-53.812-34.172-75.75-102.8 0.375-0.23438 0.79688-0.375 1.1719-0.65625 11.531-6.8438 22.359-19.781 27.422-34.406 32.484 7.7812 63.609 20.578 87.328 31.172 7.2188 3.2812 12.141-7.7344 4.875-10.969-24.234-10.828-56.016-23.906-89.531-31.922 0.1875-1.4531 0.23438-2.8594 0.28125-4.1719 67.172-31.125 169.5-32.297 195.19-7.6875zm70.688-314.21c-15.469 23.438-49.5 15.844-76.594 22.922-7.0781-6.6094-15.844-13.359-24.516-18.703 49.5-76.312 127.64-44.344 101.11-4.2188zm-157.03 1.1719c2.3438-3.0938 6.1875-4.5469 9.6094-3.5625 40.922 10.453 73.781 36.844 94.641 76.875 4.0781 7.6875-5.1094 13.875-10.5 22.781-21-45.469-56.484-72.234-105.84-79.688zm-143.81 190.55c32.859-35.625 60.188-74.812 82.875-109.41 6.8906 3.7031 27 4.1719 51.797 18.75 6.8438 3.9844 12.938-6.3281 6.0469-10.359-14.109-8.25-30.562-14.25-48.984-17.812-7.125-1.2656-11.016-9.1406-7.5-15.328 6.4219-11.297 14.719-20.766 24.516-28.031 1.8281-1.3125 4.3125-2.1094 6.75-1.9219 95.672 6.3281 118.55 86.906 116.48 93.141-4.4062 13.453-11.062 24.703-19.734 33.562-3.5156 3.6094-8.5312 3.1406-12.047 0.98438-4.7344-2.6719-2.8594-4.9219-15.234-23.156-4.4531-6.5625-14.391 0.14062-9.9375 6.7031 10.828 16.031 9.0469 17.016 13.875 22.453-30.516 36.703-64.172 80.156-89.672 128.48-23.016 4.0312-45.281 10.688-65.625 19.688-4.2656-13.969-17.625-23.062-36.094-18.75 6.6094-30.516 7.4531-64.594 2.4844-99zm11.906 157.97c-6.8906 8.4375-17.625 16.734-28.172 18.328-31.5 4.5938-25.922-45.891 9.2812-63.281 28.359-14.203 40.828 17.156 18.891 44.953zm-173.68-195.37c4.9219-3.5156 6.4219-4.3125 10.031-3.8438 17.156 8.625 30.375 13.172 55.922 44.391 5.0156 6.1406 14.344-1.4531 9.2812-7.5938-20.062-24.562-35.062-35.016-49.922-42.609 7.2188-27.938 38.484-50.812 61.828-53.672 27.562-3 37.781 17.438 47.859 43.359 17.906 47.484 23.906 106.92 11.297 159.42-12.984-27.891-33.891-58.078-52.5-82.594-4.7812-6.3281-14.344 0.9375-9.5625 7.2656 31.875 42.047 40.594 60.141 52.078 82.312-8.9062 6.75-14.156 13.453-18.656 23.484-22.172-4.0312-57.422-1.2656-93.797-22.547-26.531-15.375-49.031-43.688-92.719-35.016 8.8594-45.094 32.531-86.344 68.859-112.36zm-389.86 524.76c2.1094-2.8594 20.906-4.125 77.625 26.391 6.9375 3.7969 12.703-6.7969 5.6719-10.547-39-21-61.312-27.984-74.297-29.109 65.953-86.156 117.66-149.48 171.42-223.36 47.531-65.391 78.375-98.25 149.81-123.24 1.5938 0.98438 22.875 14.953 36.656 20.391 37.641 18.75 88.922 25.219 133.78 14.625l2.1562-0.60938c1.6875 15.188 11.391 25.828 27.703 26.484 2.0156 59.062 29.344 109.27 72.234 150.24-3.6094 69.422-27.75 109.55-73.219 170.26-54.938 73.078-100.12 140.48-163.45 229.5-21.797-54.375-158.53-156.66-212.34-192.47-6.5625-4.4062-13.266 5.5781-6.6562 9.9844 56.625 37.641 126.47 91.594 172.74 140.21 35.391 37.219 38.203 52.031 36.328 54.609-6.9844 9.6094-81.281-17.953-198.24-104.39-116.91-86.484-164.95-149.44-157.92-158.95z"/>
 <path d="m951.84 248.39c10.688 23.812 16.734 56.766 13.406 89.531-4.8281 47.109 4.3125 80.906 27.047 100.41 57.281 49.078 132.94-20.812 94.078-114.84-44.391-107.34-164.39-141.52-134.53-75.094zm123.47 79.688c33.891 81.891-27.656 141.79-75.188 101.16-19.594-16.781-27.328-47.062-22.922-90.047 8.4375-82.875-35.859-115.36-10.828-112.5 45.656 5.25 90.891 57.703 108.94 101.39z"/>
 <path d="m613.55 180.94c24.047 10.5 51.328 0 73.641-13.828 47.344-29.203 67.453-11.672 78.234-24.516 3.375-4.0312 4.2656-10.266-0.32812-17.391-23.625-37.078-105.38-59.344-153.1-27.891-33.516 22.078-35.812 67.312 1.5469 83.625zm5.0625-73.594c49.875-32.859 135.89 4.6406 137.63 27.516-3.0938 3.5156-34.781-3-75.375 22.031-25.406 15.703-46.453 20.062-62.531 13.031-28.5-12.469-25.266-45.75 0.28125-62.578z"/>
 <path d="m655.45 518.53c8.9062-8.25 15.281-18.797 18.469-30.469 2.1094-7.6406-9.5156-10.828-11.578-3.1406-2.5781 9.375-7.9219 18.234-15.047 24.844-5.8125 5.3438 2.2969 14.156 8.1562 8.7656z"/>
 <path d="m341.95 716.53c-10.547 27.797 5.5781 47.203 29.344 49.875 25.078 2.8594 68.484-18.891 89.719-31.828-7.875 23.531-20.719 52.266-3.9375 72.703 15.422 18.75 41.484 15.938 58.922 25.172 6.4688 3.4219 13.922 10.453 13.734 19.031-0.09375 3.3281 2.5312 6.0469 5.8594 6.1406h0.14062c10.781 0 7.7344-24.234-14.156-35.766-18.609-9.8438-43.406-7.6875-55.266-22.172-15.516-18.844 6.6094-54.375 10.5-77.578 0.89062-5.2031-4.9688-8.9062-9.2812-5.9531-22.125 15.094-70.5 41.109-94.922 38.344-18.422-2.0625-28.781-14.812-16.922-39.516 45.094-8.3906 143.21-76.359 142.45-110.95-0.32812-14.859-15.984-27.047-41.906-12.281-45.562 25.922-83.953 65.672-108.38 112.12-14.016 1.6875-28.266 0-40.641-8.2969-6.5625-4.4062-13.312 5.5312-6.7031 9.9844 12.984 8.625 27.328 11.625 41.438 10.969zm141.94-117.52c18.094 17.062-76.828 89.203-120.56 101.62 35.344-61.359 107.3-114.23 120.56-101.62z"/>
 <path d="m1067.7 485.39 28.688 41.719c4.4062 6.4219 14.438-0.1875 9.8906-6.7969l-28.688-41.719c-4.5-6.5156-14.344 0.28125-9.8906 6.7969z"/>
 <path d="m1055.9 558.1c-3.9375-22.266-6.4688-44.953-7.5469-67.453-0.32812-7.8281-12.375-7.4062-12 0.5625 1.0781 23.016 3.7031 46.219 7.6875 68.953 1.4531 7.9219 13.266 5.7656 11.859-2.0625z"/>
 <path d="m1005.9 485.44-26.297 56.391c-3.3281 7.2188 7.5469 12.234 10.875 5.0156l26.297-56.391c3.375-7.2188-7.5469-12.188-10.875-5.0156z"/>
</svg>
