<?xml version="1.0" encoding="UTF-8"?>
<svg width="1200pt" height="1200pt" version="1.1" viewBox="0 0 1200 1200" xmlns="http://www.w3.org/2000/svg">
 <path d="m402.19 687.61c-6.5625-0.51562-12.984-0.32812-19.266 0.375l-2.5781-9.7969c-14.672-55.594-29.812-113.02-41.719-165.42 55.828-81 113.62-185.81 84.75-239.81-13.453-34.641-95.156-47.438-123.89-5.625-28.875 36.75-29.25 108-1.0312 237.52-23.859 33.562-49.641 66.047-69.844 87.938-49.641 54.094-74.906 126.19-69.375 197.86 2.3906 24.609 38.859 21.703 37.406-2.9062-4.6875-60.422 17.625-123.84 59.578-169.6 15.984-17.344 34.594-40.031 53.391-65.016 11.484 47.719 24.891 98.062 37.688 146.68-52.781 30.516-66.141 106.73-66.75 110.3-3.5625 24.328 32.531 30.375 36.984 6.1406 0.09375-0.60938 9.375-52.781 39.797-78 17.438 67.219 33.938 135.52 42.188 193.87-71.578 25.547-154.78-1.1719-186.14-78.562-4.2656-9.4219-15.422-13.594-24.844-9.3281-30.469 15.562 14.062 63.188 26.906 80.344 49.312 54.703 123.71 63.797 188.48 45.281 9.3281 57.656-12.75 125.63-77.484 126.94-41.906 0-55.547-37.078-58.688-48.562-7.0312-23.719-42.375-13.688-36.141 10.078 19.406 80.062 116.53 99.562 171.66 44.531 40.031-35.812 43.828-93.797 36.984-147.32 125.48-59.531 105-260.16-38.109-267.94zm-73.172-397.13c3.375-5.25 14.109-12.797 29.578-12.094 71.719-2.4844 21.562 98.109-30.891 183-11.016-57.188-22.406-140.76 1.2656-170.9zm148.5 574.74c-6.1406 19.125-21.188 36.703-42.422 50.25-9.0938-58.547-25.5-125.21-42.422-190.36 2.1562-0.046876 4.2656-0.28125 6.4688-0.14063 73.828 5.8594 101.62 70.828 78.375 140.21z"/>
 <path d="m720.19 525.19v-261.32l239.29-49.125v123.66c-52.781-37.453-133.4 4.0312-131.44 69.281 3.4688 110.11 165.42 110.3 168.94 0v-323.29c-0.375-11.156-11.062-20.766-22.5-18.375l-276.79 56.812c-8.625 1.7812-14.484 9.8438-15 18.375v314.72c-52.688-37.453-133.5 4.0312-131.44 69.281 3.5156 110.11 165.37 110.3 168.94 0zm0-299.58v-69.094l38.578-7.9219 200.72-41.203v69.094zm192.37 228c-61.969-1.5938-61.922-90.188 0-91.828 61.922 1.5938 61.922 90.188 0 91.828zm-276.84 117.52c-61.922-1.5938-61.922-90.188 0-91.828 61.969 1.5938 61.922 90.188 0 91.828z"/>
 <path d="m1013.9 884.63c-67.453-65.391-109.22-140.02-109.64-140.76-7.2188-14.109-29.859-12-34.219 3.3281l-81.281 251.72c-39.422-51.609-128.29-35.719-146.53 26.719-18.469 52.078 25.641 110.34 80.391 108.7 35.766 0 69.094-22.688 80.531-58.078l90.094-279.14c19.734 29.484 52.078 73.266 94.547 114.38 13.359 12.984 18.703 25.875 15 36.375-13.312 27.469-58.547 29.438-82.266-12.188-12.562-21.188-44.391-3.0938-32.625 18.516 55.172 104.91 218.29 28.172 126-69.609zm-305.53 210.05c-59.016-20.25-30.094-104.58 28.594-87.469 58.688 20.016 30.609 104.53-28.594 87.469z"/>
</svg>
