<?xml version="1.0" encoding="UTF-8"?>
<svg width="1200pt" height="1200pt" version="1.1" viewBox="0 0 1200 1200" xmlns="http://www.w3.org/2000/svg">
 <path d="m285.94 1199.7c-5.8594-0.65625-33.281-3.2812-45.094-4.3594-4.4062-0.375-10.312-1.0312-13.078-1.3594-2.8125-0.375-8.3438-1.0312-12.375-1.5-33.328-3.8906-49.312-7.7344-67.594-16.172-6-2.7656-16.453-6.6094-23.297-8.5781s-14.062-4.7812-16.031-6.2344c-4.4062-3.2344-5.5312-10.594-2.2969-15.516 4.4531-6.7969 23.344-15.703 38.391-18.047 4.5469-0.70312 14.156-2.2969 21.328-3.5156 7.2188-1.2188 25.969-2.5312 41.719-2.8594 15.75-0.375 29.344-1.0781 30.188-1.5938 3.9844-2.4375 10.969-17.531 20.625-44.438 3.0938-8.5312 9.3281-35.812 11.484-50.203 3.0938-20.391 5.8594-42.984 6.5625-53.812 0.42188-6.4219 1.5469-18.516 2.4375-26.906 0.98438-8.8594 1.6875-40.922 1.7812-76.359 0.09375-53.344-0.375-71.016-2.7188-101.11-0.28125-3.6094-0.89062-11.766-1.4062-18.188-1.7344-22.359-2.5312-29.156-4.6406-39.281-1.1719-5.5781-2.7656-13.359-3.5156-17.203s-1.6875-7.4531-2.0156-8.0156-1.0312-3.9375-1.5938-7.5469c-1.5938-11.109-7.3594-33.094-11.719-45.047-2.6719-7.3125-3.75-11.203-12.328-45.844-2.5781-10.406-4.875-20.344-5.1094-22.078s-0.75-5.0156-1.2188-7.2656-1.1719-6.0938-1.5938-8.4844-1.0312-5.7188-1.3594-7.4062-1.0312-6.6094-1.5469-10.922-1.1719-9.5156-1.5-11.484c-0.60938-4.0781-1.6406-13.547-3-27.656-0.51562-5.2031-1.1719-11.438-1.4531-13.828-0.32812-2.3906-1.0312-24.328-1.5938-48.75-2.4375-104.34 0.42188-142.55 10.594-142.55 1.6406 0 1.9219 3.5625 1.6406 18.562-0.46875 22.359 1.3125 77.719 3.75 118.92 0.51562 8.8125 1.2656 25.594 1.6875 37.359 0.89062 26.578 4.125 58.266 8.7188 84.844 1.9219 11.203 3.8438 22.312 4.2188 24.75 0.70312 4.0781 5.3438 22.266 8.2031 32.016 2.0156 6.9375 4.0781 14.25 5.1094 18.188 0.51562 2.0156 1.5 4.9688 2.1562 6.5625 7.0312 16.688 22.406 83.016 24.562 106.17 2.5312 26.812 4.1719 47.062 4.6406 57.469 1.2656 26.156-0.375 139.69-2.1562 149.16-0.5625 3.0469-3.0938 27.047-4.5469 42.891-0.46875 5.2031-1.125 10.781-1.4531 12.375s-0.98438 5.8594-1.4062 9.4688c-0.46875 3.6094-1.4531 11.156-2.1562 16.781-4.0781 31.125-13.969 66.328-25.078 89.203-4.6406 9.5156-21.75 29.625-29.156 34.219-2.4375 1.5-5.2031 2.1094-7.0312 1.5469-2.9531-0.9375-3.0938-3.0938-0.51562-9.8438 0.65625-1.7344-0.375-2.0625-5.4375-1.6406-3.4688 0.28125-15.75 0.84375-27.375 1.2188s-23.391 1.0781-26.203 1.5469c-8.5781 1.4062-13.5 2.1094-21.844 3.0469-8.0625 0.9375-32.016 10.078-32.016 12.234 0 1.1719 3.8438 2.7188 23.297 9.2344 6 2.0156 16.406 5.6719 23.156 8.1562 13.312 4.875 20.156 6.6094 31.406 7.8281 11.672 1.3125 54.094 5.0156 68.391 6 11.719 0.79688 17.625 1.4062 29.766 3 6.2812 0.84375 25.031 2.25 35.672 2.7188 10.172 0.42188 65.062-1.5469 75.141-2.7188 8.4844-0.98437 28.031-3.7031 31.922-4.4531 12.938-2.4375 13.969-2.7188 24.609-6.7031 4.4531-1.6875 5.9062-4.1719 2.3906-4.1719-1.0781 0-10.406-4.3594-20.719-9.7031-11.203-5.7656-26.719-12.234-38.391-15.984-17.906-5.7656-27.75-8.2031-19.031-4.7344 2.25 0.89063 3 1.9219 2.1094 2.8125-0.89062 0.89063-4.4531 0.51563-9.75-0.98437-23.859-6.7969-38.203-35.156-43.922-87.047-0.28125-2.3906-0.89062-6.6562-1.4062-9.4688s-1.2188-8.0156-1.5-11.625c-0.32812-3.6094-0.9375-8.1562-1.3125-10.078-4.4062-20.766-6.3281-131.06-2.5312-142.74 0.9375-2.8594 2.0156-10.031 2.4375-15.984s0.79688-11.812 0.89062-13.031 0.75-5.4375 1.5-9.4688c0.75-3.9844 1.5938-9.2344 1.9219-11.625s1.3125-7.3125 2.25-10.922 2.2031-9.1875 2.8594-12.375c1.2188-6.1406 6.5156-22.734 8.8125-27.656 3.6562-7.875 9.2812-21.281 12.281-29.109 1.8281-4.7812 5.5781-13.312 8.3438-18.891s6.8438-15.422 9.0938-21.844c6.4688-18.422 23.812-53.062 36.516-72.891 10.828-16.922 18.562-33.938 27.141-59.484 3.2344-9.6094 7.4531-21.047 9.4219-25.453 6.5625-14.766 7.3125-16.688 9.6094-24.75 2.2969-8.1094 8.25-36.938 9-43.641 0.23438-2.0156 1.2188-8.5312 2.25-14.531 0.98438-6 2.0156-14.859 2.2031-19.641 0.23438-4.7812 1.5-14.953 2.8125-22.547s2.6719-16.125 2.9531-18.891c1.1719-11.438 3.8438-31.125 4.3125-31.875 0.46875-0.79688 0.98438-3.4688 3.0469-16.828 0.51562-3.1875 2.625-12.703 4.6875-21.094 3.5156-14.156 3.7969-17.672 3.8438-48.75 0.046875-18.703-0.70312-38.578-1.6875-45.094-0.9375-6.4219-2.0625-17.203-2.4844-24-1.2188-19.781-2.3906-26.438-5.9531-34.5-3.5625-8.1094-4.0312-8.3438-17.391-9.6562-3.9844-0.375-16.781-3.0469-28.359-5.9062-50.438-12.375-95.625-16.922-128.34-12.797-15.797 1.9688-24.328 4.8281-31.172 10.359-2.5312 2.0625-7.2656 5.5312-10.5 7.6875-3.7031 2.4844-6.2344 5.4375-6.75 8.0156-0.46875 2.2031-1.5 5.3438-2.25 6.9375-1.5 3.2344-3.2344 11.25-6.4219 29.812-1.1719 6.7969-4.2188 18.797-6.7969 26.625-3.9375 12.047-5.1094 14.203-7.5 13.828-2.625-0.42188-2.8125-1.5938-2.5781-18.516 0.14062-9.9375 1.2188-22.734 2.3906-28.359 2.25-10.969 12.891-45.281 15-48.656 0.84375-1.2656 2.9531-1.7812 5.8594-1.3125 3.3281 0.46875 5.4844-0.1875 7.9688-2.4844 6.9844-6.4688 20.859-10.781 42.094-13.078 11.062-1.2188 24.844-1.875 30.562-1.5s16.969 1.0312 24.938 1.5469c8.0156 0.46875 18.141 1.4531 22.547 2.1562s13.219 2.0625 19.641 3c11.344 1.6875 22.406 4.2188 43.969 10.219 5.7656 1.5938 16.734 3.8438 24.328 4.9688s15.141 2.9062 16.828 3.9375c5.0156 3.0938 8.4375 18.141 10.078 44.766 0.79688 13.219 2.1094 26.109 2.8594 28.688s1.7812 12.375 2.3438 21.844c0.51562 9.4219 1.5938 20.438 2.3438 24.422 1.5469 8.1094 1.4531 27.047-0.23438 41.438-0.60938 5.2031-1.5 14.672-1.9688 21.094-2.4844 33.844-3.8906 50.109-4.8281 56.016-0.5625 3.6094-1.125 7.5469-1.1719 8.7188-0.09375 1.2188-0.70312 4.7812-1.3594 8.0156-0.65625 3.1875-1.4531 7.125-1.7344 8.7188s-1.2656 6.8438-2.1094 11.625c-2.2969 12.703-9.6094 40.5-13.875 53.016-2.0625 5.9531-3.9375 11.859-4.2188 13.078-1.4062 6.4688-7.4531 22.547-12.609 33.375-3.1875 6.75-7.7344 17.531-10.078 24.047-2.3438 6.4688-4.875 13.078-5.5781 14.672s-3.3281 8.4844-5.8594 15.281c-4.5938 12.469-7.1719 17.812-27.562 57.469-9.7969 19.078-23.438 50.672-23.438 54.422 0 1.5-11.156 30.094-13.266 34.031-0.75 1.4531-3.0938 7.3125-5.1562 13.078s-4.875 13.078-6.2812 16.312c-5.4844 12.609-6.2344 15.094-9.75 31.266-5.0625 23.391-7.4062 37.5-8.4844 51.375-0.51562 6.5625-1.2188 13.641-1.5469 15.797-2.8125 17.484-3.4219 24.844-3.4219 42.703 0 33.141 1.1719 89.109 1.9688 93.844 0.89062 5.4375 2.0156 15.516 3 26.203 1.3125 14.719 2.3438 25.641 2.8125 29.109 0.23438 2.0156 0.9375 7.5469 1.5469 12.375 1.9688 16.266 10.359 43.781 14.297 47.016 2.6719 2.2031 18.188 7.0312 42.891 13.453 12.234 3.1406 26.531 7.7344 31.828 10.125s10.406 4.3594 11.297 4.3594c0.9375 0 5.0625 1.6875 9.1875 3.75 6.3281 3.1406 7.6406 4.5469 8.4375 8.7656 0.5625 2.9062 0.1875 6.8438-0.89062 9.4219-4.4062 10.594-18.609 15.469-57.422 19.547-4.7812 0.51562-10.359 1.2656-12.375 1.6875-4.3594 0.9375-103.27 1.875-110.58 1.0781zm492.98-101.58c-0.32812-0.28125-5.9531-0.9375-12.562-1.4062s-13.875-1.8281-16.172-3c-5.3438-2.7656-13.312-11.812-13.312-15.188 0-7.2188 37.734-37.219 55.219-43.922 4.4531-1.6875 12-4.6406 16.781-6.6094 4.7812-1.9219 10.031-3.5156 11.625-3.5156 4.875-0.046875 6.6094-2.1094 7.3125-8.8125 0.375-3.5156 1.4062-10.641 2.3438-15.797 1.5469-8.7656 1.4531-16.453-1.125-63.375-0.46875-8.4844-2.0625-19.922-5.7656-40.734-0.28125-1.5938-0.89062-5.5312-1.4062-8.7188-0.46875-3.1875-1.8281-8.7656-2.9531-12.375s-3.7031-13.734-5.7188-22.547-4.5938-19.125-5.7656-22.922-2.1562-7.2656-2.2031-7.6406c-0.09375-1.0312 0.09375-0.28125-3.7969-14.531-1.9688-7.2188-4.2656-15.703-5.0625-18.891s-2.8594-9.4219-4.5-13.828-4.1719-11.906-5.5781-16.734c-1.4062-4.7812-4.3125-13.312-6.4688-18.891-4.1719-10.828-10.969-29.578-11.625-32.016-1.6875-6.2344-20.438-49.078-27.984-64.031-5.8125-11.438-13.641-25.125-20.859-36.328-1.2188-1.875-4.0781-6.5625-6.4219-10.453s-8.9062-13.594-14.625-21.609c-16.453-23.062-19.219-28.359-14.766-28.359 1.0781 0 4.8281 3.6094 8.3438 8.0156s6.8438 8.0156 7.3594 8.0156c0.5625 0 4.3594 4.0781 8.4375 9.0938 4.125 5.0156 8.625 10.406 10.031 12 18.281 20.859 55.734 88.828 69.656 126.37 19.453 52.453 27.469 76.734 33.094 99.984 0.32812 1.2656 1.2656 4.875 2.1094 8.0156 1.5938 5.9062 8.4844 34.031 9.5156 39.141 0.32812 1.5938 2.0156 8.7656 3.75 15.984 4.875 20.109 9.0469 45.375 9.6562 58.219 1.4531 29.625 1.2656 61.641-0.32812 69.422-0.9375 4.5938-1.4062 8.625-1.0312 9s-0.14062 6.4688-1.1719 13.5c-1.6875 11.672-2.3438 13.266-7.2656 18.281-4.2656 4.3125-6.5156 5.4375-10.641 5.4375-5.6719 0-6.6562-1.875-3.0469-5.8594 2.8125-3.0938 5.3438-11.578 3.4688-11.578-0.75 0-1.3594 0.9375-1.3594 2.0625 0 2.625-7.9688 7.5-14.531 8.8594-11.578 2.4375-31.5 14.109-47.297 27.703l-4.3594 3.75 13.828-0.9375c7.5938-0.51562 20.672-2.1562 29.109-3.6562 23.156-4.125 41.953-7.0781 51.516-8.1094 4.7344-0.51562 10.312-1.5938 12.375-2.3906 2.0625-0.84375 9.6562-2.3906 16.828-3.5156 7.2188-1.125 16.266-3.0469 20.156-4.3594 5.2969-1.7812 7.4531-1.9219 8.7188-0.65625 2.2969 2.2969 0.046875 3.5625-15.75 8.625-27.797 8.9062-38.109 11.766-45.516 12.656-4.2188 0.51562-11.109 1.8281-15.281 2.9531s-9.7969 2.0156-12.469 2.0625c-2.6719 0-8.5781 0.9375-13.078 2.1094-11.016 2.8125-40.453 4.1719-48.984 2.25-6.1875-1.4062-6.9375-1.2656-9.4219 1.7812-1.4531 1.8281-2.4375 3.7031-2.1094 4.1719 1.0781 1.7344 30.656 2.6719 43.547 1.4062 16.219-1.6406 59.766-9.5625 84.375-15.375 4.7812-1.125 11.016-2.4844 13.828-2.9531 6.7969-1.2188 37.594-9.75 57.469-15.938 8.8125-2.7188 19.594-6 24-7.2188 53.109-14.812 82.172-25.922 98.906-37.781 8.625-6.0938 17.438-13.969 17.438-15.516 0-1.2188-19.031-5.2031-34.547-7.2188-13.312-1.7344-62.344-1.9219-78.188-0.28125l-10.172 1.0312 5.7188 3.5625c3.1406 1.9688 8.0625 3.9375 10.922 4.4531l5.2031 0.89062-4.9688 2.625c-6.7969 3.6094-14.109 3.1875-23.531-1.2188-9.5625-4.5469-22.734-16.734-29.719-27.516-2.7188-4.1719-7.9688-10.734-12.703-15.703-1.4062-1.5-2.5312-3.1875-2.5312-3.7969s-1.875-2.8594-4.2188-5.0625c-6.7031-6.3281-15.562-20.578-28.781-46.219-5.8125-11.297-17.578-36.938-18.656-40.734-0.98438-3.4219-2.2031-6.5156-6.5625-16.734-2.1562-5.0625-15.75-44.297-24.469-70.547-7.6406-22.969-14.719-47.438-17.297-59.625-1.0781-5.2031-2.5781-12.094-3.2812-15.281-4.1719-18.797-6.7031-44.062-8.0625-80.719-1.125-30.938-2.0625-45.469-3.8906-62.25-1.2656-11.484-1.2188-20.531 0.1875-38.719 1.1719-15.422 1.5-33.656 0.84375-51.984-0.51562-15.516-1.1719-51.469-1.4531-79.828-0.28125-28.406-0.89062-53.906-1.4531-56.719-1.3594-7.2188-1.7344-9.7031-2.8594-20.344-2.9062-27.422-28.922-118.97-41.578-146.21-2.9531-6.4219-7.5469-17.859-10.172-25.453s-7.2188-19.078-10.266-25.453c-3-6.4219-6.8906-15.562-8.625-20.344-3.5625-9.9375-19.734-47.625-22.781-53.109-5.3438-9.6562-7.8281-15.938-7.0312-18 0.89062-2.2969 0.79688-2.3438-11.016-4.6875-14.203-2.8125-25.359-0.98438-63.281 10.359-6.4219 1.9219-14.812 4.1719-18.75 5.0625-8.6719 1.9219-46.078 15.516-64.688 23.531s-24.984 12.703-33.703 24.656c-6.75 9.2344-7.4531 11.016-7.4531 17.906 0 18.469 6.6094 45.375 21.328 86.672 2.1562 6 7.8281 22.031 12.656 35.625 13.172 37.172 18.516 51.562 22.359 60.047 1.9219 4.2188 3.5156 7.9219 3.5156 8.2031s2.5781 6 5.7188 12.703c3.1406 6.6562 8.1094 18.047 11.062 25.219 4.9219 12.047 12.891 29.719 17.344 38.531 9.1875 18.094 17.953 35.766 25.594 51.656 5.0156 10.406 9.5156 19.219 9.9844 19.641s4.0781 7.2656 8.0625 15.281 8.7188 16.875 10.547 19.734 5.9062 11.344 9 18.891 7.0781 16.969 8.7656 20.906c2.4375 5.625 2.7188 7.4062 1.2656 8.3438-1.0312 0.65625-2.4844 0.98438-3.2812 0.75-2.9531-0.9375-26.578-37.875-36.469-56.953-3.3281-6.4219-9-17.203-12.656-24s-8.2969-16.312-10.312-21.094-6.75-15.281-10.5-23.297c-13.031-27.75-15.609-33.562-24.656-56.016-5.0156-12.422-10.922-26.484-13.078-31.266-7.2188-15.891-15.422-36.141-21.375-53.109-3.2344-9.1875-8.4375-23.953-11.578-32.719-9-25.5-23.062-71.625-26.016-85.5-1.5-7.0312-3.1406-18.797-3.6562-26.203-0.46875-7.4062-1.5469-14.812-2.3906-16.5-1.125-2.3438-0.75-4.5469 1.7344-9.4688 5.25-10.453 9.6094-15.328 19.969-22.172 16.453-10.969 64.828-31.125 91.594-38.203 7.8281-2.0625 21.422-5.7188 30.234-8.1094s19.922-5.2969 24.75-6.5156c16.031-3.9844 44.625-2.625 52.688 2.5312 3.2344 2.0625 5.7188 8.8594 4.1719 11.391-0.46875 0.70312 0.375 2.8594 1.8281 4.7812 1.4531 1.875 4.5 8.3438 6.7969 14.344 2.25 6 6.8438 16.781 10.172 24s7.2188 16.641 8.6719 21 4.5 11.672 6.7969 16.266 4.1719 8.7188 4.1719 9.1406 1.5938 4.2188 3.5156 8.4375 4.875 11.484 6.5625 16.125 4.4062 11.109 6.0938 14.438c6.7031 13.078 18.984 50.438 32.719 99.234 3.7031 13.172 9.1406 39.281 10.031 48.094 0.46875 4.7812 1.5938 13.641 2.4844 19.641 2.625 17.859 2.9062 153 0.32812 181.03-2.4375 26.906-2.6719 43.641-0.75 54.75 0.75 4.3594 1.7812 11.484 2.2031 15.891 0.46875 4.4062 1.125 10.312 1.5 13.078 0.98438 7.875 2.0156 22.266 2.9531 42.188 1.6406 34.125 7.5938 69.797 16.688 99.656 0.75 2.3906 2.9531 10.594 4.9688 18.188s7.0312 23.297 11.109 34.922c4.125 11.625 7.7812 22.406 8.1562 24s1.2656 4.2188 1.9219 5.8125c0.70312 1.5938 2.6719 7.1719 4.4062 12.375 5.2969 15.797 19.734 48.984 30.844 71.109 9.75 19.359 23.953 43.125 26.953 45.141 0.70312 0.46875 3.1875 3.5156 5.5312 6.7031 2.3438 3.2344 5.0156 6.8438 6 8.0156 6.4219 7.6875 10.922 13.5 17.109 22.078 5.5312 7.6406 7.7344 9.6562 10.125 9.1875 13.453-2.6719 64.031-3.0938 84-0.65625 17.766 2.1562 37.781 6.4688 43.312 9.3281 2.4375 1.2656 5.4844 3.8906 6.7969 5.9062 2.7188 4.125 2.7656 3.9375-8.1562 15.75-7.0781 7.6406-15.328 13.641-25.969 18.984-21.375 10.734-65.484 26.438-86.062 30.703-1.2188 0.23438-9.4219 2.8125-18.281 5.6719-23.766 7.6875-61.312 17.438-82.078 21.281-4.4062 0.79688-13.875 2.7656-21.094 4.3594s-18.656 3.8438-25.453 5.0156-13.688 2.4375-15.281 2.7656-9.1406 1.0781-16.734 1.6406-14.203 1.2656-14.719 1.5938c-0.46875 0.28125-1.125 0.28125-1.4531 0zm149.34-56.016c-0.89062-1.4062 13.969-8.8125 18.656-9.2812 6-0.60938 3.8438 3.4688-3.7031 6.9844-8.0625 3.75-13.547 4.5938-14.953 2.2969zm40.969-14.109c-1.6875-1.6875-1.2188-3.4688 0.9375-3.4688 1.0781 0 10.406-4.3125 20.719-9.6094s23.016-10.922 28.219-12.516 10.453-3.75 11.625-4.7344c1.2188-0.98438 4.9688-3.3281 8.3438-5.2031 6-3.2812 6.2344-3.3281 9.1406-0.65625 1.6406 1.5 2.8125 3.6094 2.5781 4.7344-0.46875 2.2969-18.656 9.8438-29.531 12.188-3.9844 0.89062-15.469 5.3906-25.453 10.031-19.219 8.9531-24.891 10.922-26.578 9.1875zm-641.76-327.19c-1.875-2.0156-4.2188-5.7656-5.1562-8.3438-0.98438-2.5781-3.2344-8.2969-5.0625-12.703-12.188-29.578-15.984-39.844-23.062-61.828-9.7969-30.469-13.734-43.781-14.625-49.453-0.375-2.3906-1.6875-9.6094-2.9531-15.984-1.2188-6.4219-3.6094-21.141-5.2969-32.719-1.6875-11.625-5.1094-30.891-7.6406-42.938-4.5938-21.75-4.5938-21.938-4.7812-69.094-0.14062-36.281 0.28125-48.375 1.7344-51.938 1.0781-2.5781 1.9688-10.125 1.9688-16.734 0.046875-12.281 2.1562-37.922 3.7031-45.141 0.46875-2.2031 1.7812-3.9844 2.9062-3.9844 2.1562 0 2.1094-0.5625 2.7656 32.016 0.23438 11.531 1.875 29.109 2.7188 29.109 0.14062 0 3.5156-1.2188 7.5-2.7656 21.188-8.0156 92.906-11.438 113.48-5.3906 21.844 6.4219 34.266 11.719 48.375 20.719 4.2188 2.6719 7.875 4.875 8.1094 4.875s0.5625-2.6719 0.70312-5.9531 0.51562-6.4219 0.89062-6.9844 1.0781-8.2031 1.5938-16.969c1.5-24.469 2.2031-27.469 6.7031-27.984 2.8594-0.32812 4.0312 0.375 4.875 2.9062 0.60938 1.8281 1.2656 16.781 1.5 33.188 0.375 28.547 0.1875 30.938-4.4531 55.922-5.0156 27.094-9 45.234-13.688 62.625-3.2812 12.094-4.7344 18.141-5.2031 21.094-0.1875 1.2188-1.7344 7.3594-3.5156 13.688-1.7344 6.3281-4.125 15.984-5.25 21.469-2.2031 10.453-11.672 35.531-20.953 55.547-6.8438 14.766-15.094 35.531-18.281 46.031-3.1875 10.547-9.9375 23.812-15.938 31.172-2.625 3.2812-8.625 11.484-13.266 18.328-4.6406 6.7969-12.047 16.781-16.453 22.172-7.6875 9.375-8.2969 9.7969-14.344 9.7969-4.875 0-7.0781-0.84375-9.75-3.6562zm17.344-23.25c3.75-7.2188 10.266-18.328 14.531-24.75 7.0781-10.734 18.234-31.078 18.234-33.281 0-1.4062 13.266-27.891 19.453-38.719 2.9531-5.2031 7.6875-14.344 10.5-20.344s5.7188-12.234 6.5156-13.828c4.5938-9.7031 9.8438-27.422 20.109-67.875 13.266-52.359 13.734-54.609 11.719-55.875-0.84375-0.51562-1.125-1.9688-0.60938-3.2344 0.46875-1.2656 1.1719-5.9531 1.5938-10.406 0.375-4.4531 1.0312-11.672 1.4531-15.984l0.75-7.875-35.625 0.89062c-33.141 0.79688-40.172 0.23438-35.391-2.8594 4.0312-2.625 26.203-4.3594 46.922-3.7031 21.141 0.65625 21.703 0.60938 19.641-2.0156-2.5312-3.2344-6.2812-6.2812-11.438-9.3281-2.0625-1.2188-6.7031-3.9844-10.312-6.0938-9.4219-5.5781-28.125-12.141-40.734-14.25-12.844-2.1562-44.531-1.1719-70.219 2.2031-19.359 2.5312-36.984 9.1406-35.438 13.219 0.46875 1.2656 0.89062 2.8125 0.89062 3.4688 0 2.1562 20.766 5.6719 39.281 6.6562 9.9844 0.51562 20.203 1.8281 22.688 2.8125 2.4844 1.0312 8.0625 2.2969 12.375 2.8594 10.547 1.3594 13.172 2.2031 12.094 3.8906-0.51562 0.79688-1.9219 1.0781-3.1406 0.60938s-10.828-1.1719-21.328-1.5469c-36.047-1.3125-49.547-2.3906-54.469-4.4531-2.7188-1.125-5.3438-2.0625-5.8594-2.0625s-0.89062 6.6094-0.89062 14.672c0 10.875-0.51562 14.953-1.9688 15.797-3.75 2.1094-2.3906 39.703 2.2031 61.922 3.75 18 6.5156 33.281 7.2656 39.984 1.7344 15.656 8.2969 54 10.969 63.75 1.5938 5.8594 3.1875 12.328 3.5625 14.438s0.98438 4.3125 1.3594 4.875c0.375 0.60938 1.9219 5.8594 3.4688 11.719s4.1719 15.234 5.8594 20.859c1.6875 5.5781 4.0312 15.188 5.25 21.281 2.9062 15.047 8.2031 32.297 13.078 42.469 3.8906 8.1562 4.125 8.3438 6.5625 5.8125 1.4062-1.4531 5.625-8.5312 9.375-15.75zm398.58-103.88c-16.312-10.688-22.172-17.062-38.812-42.328-12.938-19.641-23.438-37.781-27.844-48-4.5-10.453-11.484-24.469-15.75-31.5-2.3438-3.9375-2.4375-4.6875-0.5625-5.3906 1.5469-0.60938 3.9375 2.2031 8.25 9.6562 7.1719 12.281 27.516 42.328 39 57.516 11.672 15.422 20.016 26.672 22.969 30.75 7.9688 11.203 29.109 28.688 32.906 27.234 2.7188-1.0312 4.9688-10.359 6-25.031 0.51562-7.2188 1.1719-15.047 1.4531-17.438 3.8906-31.547 4.6875-66.891 3.2344-138.19-0.60938-30.047-1.4062-40.172-4.5-58.172-5.0625-29.344-6.5625-36.797-13.219-65.484-0.375-1.5938-1.0781-4.875-1.5469-7.2656s-2.3906-9.6094-4.2656-15.984c-1.875-6.4219-4.1719-14.438-5.0625-17.859l-1.6406-6.2344-11.203 7.7812c-6.1406 4.2656-21.047 12.094-33.047 17.344-39.75 17.484-71.016 24.938-100.03 23.859-8.4375-0.32812-14.203 0.046875-14.203 0.84375 0 0.75 2.5312 7.7344 5.6719 15.469s7.4531 18.656 9.5625 24.281c2.1562 5.5781 7.0781 16.734 10.922 24.75 12.844 26.672 17.812 37.688 24.75 54.984 6.3281 15.797 6.7031 17.25 4.3125 18.516-2.2031 1.1719-3.75-0.70312-10.875-13.5-21.422-38.438-30.469-58.594-53.391-118.92-1.6875-4.4062-3.75-9.3281-4.5469-10.922-0.84375-1.5938-1.6406-3.5625-1.8281-4.3594s-2.25-6.375-4.5938-12.375-5.9531-16.453-8.0156-23.297c-2.0625-6.7969-5.7188-19.031-8.2031-27.141-5.0625-16.734-5.7656-25.875-2.0625-27.281 1.3125-0.51562 2.5312-0.75 2.7188-0.51562 0.51562 0.60938 14.531 42.562 18.844 56.391 2.1094 6.7969 4.4062 13.688 5.1094 15.281 0.65625 1.5938 2.0156 5.0156 3 7.6406 2.1094 5.625 3.0938 5.7656 9.1406 1.2656 8.5781-6.4219 15.891-9.375 51.188-20.766 8.8125-2.8594 23.203-7.9688 32.016-11.391s18.234-6.9375 21-7.875c9.5625-3.1406 37.547-7.3125 43.078-6.4219 3.1406 0.51562 5.1562 0.32812 4.7344-0.42188-0.42188-0.70312-1.9219-5.25-3.3281-10.031s-6-17.578-10.219-28.359-9.0938-24.234-10.875-29.812-3.8438-10.922-4.5938-11.859-1.7344-4.875-2.1562-8.8594c-0.84375-6.9844-0.75-7.2188 3.75-9.0938 3.3281-1.4062 5.5312-1.5 7.9219-0.375 3.8906 1.7812 12.844 19.312 15.375 30.188 0.9375 3.9844 4.875 17.438 8.7656 29.812 12.938 41.25 19.688 65.812 22.781 82.922 0.375 2.0156 2.25 10.172 4.1719 18.188s4.1719 19.688 5.0625 26.016c0.84375 6.2812 2.4844 15.562 3.6562 20.578 2.3906 10.359 3.1875 14.391 4.5469 23.812 0.51562 3.6562 1.2188 7.9688 1.5 9.6094 5.625 29.766 7.3125 138.05 2.7656 177.47-4.5938 39.562-5.5781 43.078-14.859 51.938-3.9375 3.75-10.453 6.9844-14.016 6.9844-0.9375 0-7.6406-3.8438-14.812-8.5781zm-101.11-318.14c15.188-3.3281 35.484-9.75 45.844-14.438 22.547-10.219 35.344-16.875 39.984-20.812 4.4062-3.75 4.8281-4.5938 3.0938-6.6562-2.5312-3.0469-5.0156-2.9531-22.688 0.5625-20.578 4.125-38.203 10.172-74.203 25.453-6.4219 2.7188-15.891 6.5625-21.094 8.4844-15.188 5.6719-20.531 8.2031-19.828 9.3281 1.2188 1.9688 37.781 0.46875 48.938-1.9688zm-213.84-131.39c-1.2188-0.65625-8.0625-1.6406-15.234-2.1562-13.172-0.98438-28.406-6.0938-28.406-9.5625 0-0.84375 2.1094-2.8594 4.7344-4.4531 8.7188-5.3438 29.859-3.0938 40.125 4.2188 2.3906 1.6875 6.0938 3.0938 8.2969 3.0938 3.1406 0 3.6094 0.42188 2.3438 1.9688-0.89062 1.0781-1.125 2.4375-0.5625 3.0469 1.3594 1.3594-3.7969 5.2031-6.8438 5.1562-1.2656-0.046875-3.2344-0.60938-4.4531-1.2656zm5.5312-39.703c-3.8438-4.1719-6.9844-8.2031-6.9844-9s-1.6875-3.8906-3.75-6.8438-4.6406-8.3906-5.7188-12.047c-1.9688-6.4688-1.9219-6.7031 1.7344-9.6094 12-9.4219 32.109 7.3125 39.844 33.188 1.5938 5.3438 1.5469 6.5156-0.1875 7.5938-4.3125 2.7188-8.3438 1.4531-11.531-3.75-4.0781-6.6094-5.5781-6.6562-1.6406 0 2.9062 4.9688 2.9062 5.1094 0.23438 6.5625-4.125 2.2031-4.4062 2.0625-11.953-6.0938zm77.391-6.8438c-2.0156-0.51562-3.8438-2.0156-4.0781-3.2344-0.5625-2.9531 4.2656-6 18.984-12 6.6094-2.6719 17.578-7.5 24.375-10.734 33.656-15.891 69.656-27.938 98.953-33 18-3.1406 22.688-3.4688 28.5-2.2031 6.8906 1.5469 10.734 3.6094 10.734 5.8125 0 0.60938-4.7344 4.6406-10.547 8.8594-5.8125 4.2656-10.875 8.2031-11.297 8.7656-1.125 1.5469-9 4.3125-9.8438 3.4688-0.42188-0.42188 0.09375-1.7344 1.125-2.9531 1.875-2.25-18.047 4.0781-36.75 11.672-17.859 7.2656-70.547 21.047-80.391 21.047-2.1094 0-7.2188 0.9375-11.344 2.0625-11.25 3.0938-14.391 3.5156-18.422 2.4375zm19.875-8.0156c4.6875-1.125 12.562-2.4844 17.578-2.9531s16.781-2.8594 26.203-5.2969c18.938-4.875 90.234-28.453 93.094-30.75 2.5312-2.0625 2.25-3.7031-0.75-4.6406-2.9062-0.9375-31.547 3.5625-44.906 7.0312-17.016 4.4062-54.188 17.766-71.062 25.547-6.4219 2.9531-15.75 6.8438-20.719 8.6719-5.0156 1.8281-9.0938 3.5625-9.0938 3.8906 0 0.79688 0.42188 0.75 9.7031-1.5469zm-59.625-13.453c-0.51562-0.51562-0.98438-2.1562-0.98438-3.6562 0-1.4531-0.5625-2.6719-1.2656-2.6719-2.4844 0-9.2344-15.469-9.9844-22.969-0.65625-6.4219-0.32812-8.0156 1.9688-9.75 4.2656-3.2344 11.25-2.6719 14.859 1.1719 5.0156 5.3438 7.3594 31.641 3.2344 36.609-1.9219 2.2969-6.0938 3-7.8281 1.2656z"/>
</svg>
