<?xml version="1.0" encoding="UTF-8"?>
<svg width="1200pt" height="1200pt" version="1.1" viewBox="0 0 1200 1200" xmlns="http://www.w3.org/2000/svg">
 <path d="m279.66 465.71c7.3125 80.344 14.812 157.69 81.422 207.37-0.09375 17.203-0.42188 34.172-0.375 51.562-4.875-0.32812-9.8906-0.65625-14.719-1.125-5.4844-0.46875-10.359 3.2344-11.156 8.5781-2.5781 18.422-3.5625 36.562-2.25 53.859 0.32812 4.875 4.5469 8.7188 9.5625 9.2344 6.5156 0.60938 13.031 1.125 19.547 1.7344 2.8594 2.9531 6.75 4.9219 11.203 5.0625 15.047 0.79688 30.281 1.5938 45.141 2.2031l-67.5 280.22c-2.1094 8.7188 2.25 17.812 10.5 21.188 13.031 5.2969 45.703 10.547 61.312 10.547 11.625 0 21.797-8.2031 24.141-19.547l57.141-288.79c32.344 1.9688 64.734 3.7031 97.125 5.0156l-7.2656 230.86c-0.32812 8.7188 5.6719 16.359 14.062 17.953 15.703 2.8594 46.875 1.3594 60.375-1.875 11.156-2.1562 19.266-12 19.266-23.391l-1.9688-221.02c33.656 0.75 67.359 1.1719 101.06 1.1719l38.109 281.21c1.125 8.5781 8.25 15.188 16.969 15.516 15.281 0.1875 42.844-6.4688 50.531-9.0469 18.703-4.3594 25.828-16.641 23.625-29.203l-48.188-271.87 20.625-0.98438c8.3906-0.51562 15.141-6.9375 15.656-15 0.9375-15.328 0.89062-32.531-0.14062-52.641-0.51562-8.7656-8.25-15.375-17.203-15.188-2.5312 0.09375-4.9688 0.23438-7.4531 0.32812 2.5312-52.547 4.125-106.73 4.5938-161.26 0.09375-7.9688-11.906-8.1094-12-0.09375-0.46875 54.703-2.0625 109.08-4.6406 161.81-168.05 6.375-329.63 5.8594-471.98 0-7.4062-165.61-6.8906-320.81 1.5-461.29 0.42188-6.5625 6.8438-11.953 14.859-12.562 38.391-2.8594 76.172-4.875 112.73-6.1406-2.5312 17.672-2.4844 34.922 0.28125 51.328 1.0781 6.5156 6.7969 11.766 13.641 12.562 56.719 6.375 112.83 6 169.6 0 7.2188-0.79688 13.031-6.3281 13.875-13.125 2.1094-16.359 2.1562-33.516 0.1875-51.188 40.922 1.1719 84.047 3.375 128.53 6.6094 8.1094 0.60938 14.484 6.0938 14.812 12.75 3.375 69.703 5.4844 138.84 6.2812 205.55 0.09375 8.0156 12.094 7.8281 12-0.14062-0.79688-66.844-2.9062-136.13-6.3281-205.97-0.65625-12.75-11.766-23.109-25.922-24.141-55.828-4.0312-128.68-7.5-184.36-8.1094v-103.5c0-21.422-17.344-38.859-39.656-38.859-21.328 0-38.672 17.438-38.672 38.859v103.5c-60.188 0.70312-51.234 1.875-185.53 6.6562-11.156 0.32812-20.203 7.9219-21.188 17.625-3.4688 34.641-6.375 69.844-8.9062 105.33-22.969 32.766-50.531 65.859-83.062 89.719-3.2812-22.641-10.266-48.75-29.766-68.25-32.109-32.297-102.66-33.328-123.1 11.109-29.344 63.75 51.984 127.45 143.06 77.297zm320.48-342.98c0-14.812 11.953-26.859 27.656-26.859 14.719 0 26.672 12.047 26.672 26.859v103.5h-54.328zm-64.266 117.98c0.046875-0.42188 0.5625-0.70312 0.9375-1.0781 58.078-2.0156 135.66-1.6406 171.71-0.32812 0.46875 0.375 0.89062 0.84375 0.98437 1.5 1.875 16.641 1.8281 32.953-0.14062 48.562-0.14063 1.125-1.5 2.4844-3.4219 2.7188-57.469 6.0938-112.92 6.0469-166.74 0-1.6875-0.1875-3-1.5-3.1875-2.625-2.625-15.469-2.6719-31.828-0.14062-48.75zm-101.16 853.5c-1.1719 5.7656-6.4219 9.9375-12.422 9.9375-13.125-0.14062-26.578-1.5938-38.953-6.2812-5.3906-1.875-8.6719-7.7812-7.5469-13.688l55.453-279.37c18.844 0.84375 55.125 1.9688 60.328 2.2969zm230.68-46.219c-9.5625 2.2969-25.453 3.6562-37.922 1.6875-5.4844-0.70312-9.7031-5.5781-9.8438-11.25l-1.8281-225.14c19.125 0.70312 38.297 1.3125 57.422 1.7812l1.9688 221.29c-0.046874 5.5312-4.125 10.547-9.7969 11.625zm238.26 29.062c0.9375 5.3906-2.2969 11.062-8.4844 13.453-10.688 4.0312-24.469 7.4531-36.469 7.6406-5.5312 0.375-10.406-3.9375-11.484-9.6094l-48.047-272.06c3.8906 0 53.719-0.09375 58.266-0.65625zm-529.74-345.74c264.74 9.8438 363.19 5.1094 512.68 0 2.9062 0.23438 4.7344 1.6406 4.8281 3.8438 1.0312 19.594 1.0781 36.375 0.1875 51.234-0.14062 1.9688-2.0625 3.6562-4.3125 3.7969-199.87 7.2188-312.56 10.406-513.98-0.1875-2.1562-0.046875-4.0312-1.5-4.2656-3.3281-2.1094-16.641-1.6875-35.484 0.1875-51.797 0.1875-1.6406 1.6875-3.1406 2.625-3.4219 0.46875 0 1.5938-0.046875 2.0625-0.14062zm-2.9531-353.02c-6.0469 90.516-9.0469 183.94-9.7969 279.52-61.453-52.922-62.906-129.84-70.125-198.89 30.047-19.219 57.984-51.844 79.922-80.625zm-223.55 15.141c16.547-36 77.016-34.5 103.69-7.6406 18.562 18.562 24.328 43.875 27.141 66.891-81.422 48.141-156.1-4.2656-130.82-59.25z"/>
 <path d="m589.03 574.5c19.734-39.469-10.922-61.875-28.312-34.125-14.625 23.438-21.703 50.625-21.469 74.297-7.1719 5.0625-15.609 10.266-24.234 10.688-5.7188 0.375-12.844-2.3438-15.234-7.8281-3.2344-7.3125-14.156-2.3906-10.969 4.8281 4.1719 9.5156 15.094 15.328 26.766 14.953 9.8438-0.46875 18.703-5.1562 24.844-9.0469 6.4219 37.359 36.375 50.578 71.578 32.109 33.75-17.625 65.391-59.766 72.891-57.328 3.7969 1.5 18.328 38.859 49.359 42.891 7.9688 0.9375 9.375-10.875 1.5469-11.906-16.734-2.1562-28.734-18.844-37.359-33.094-19.734-32.859-47.25 25.406-91.969 48.797-29.438 15.328-51.891 4.9688-54.844-29.391 15.609-12.188 28.453-27.891 37.406-45.844zm-10.781-34.5c0.14062 0 0.28125 0 0.375 0.046875 1.2188 0.23438 2.6719 1.7812 3.6094 3.9375 7.1719 16.781-17.109 48.188-30.609 60.703 2.4375-29.344 19.219-64.688 26.625-64.688z"/>
 <path d="m768.1 470.16c6.6562-35.344-32.719-62.625-65.859-41.25-5.1094-9.1875-12.141-15.703-19.5-20.812l-1.5-0.75c-5.8594-2.9062-12.328-4.1719-18.797-3.9844-18.141-4.0312-36 7.0781-42.047 23.438-8.8594 24 18.656 74.625 30.609 98.016 6.8906 15.516 18.75 18.234 34.172 11.672 31.078-12.984 51.234-29.203 53.25-30.562 12.562-9.0469 26.906-19.453 29.672-35.766zm-11.812-2.1094c-2.1562 12.516-15.75 21.562-28.031 30.469-15 10.922-31.078 19.969-47.812 27-11.297 4.7344-14.953 2.3906-18.703-5.8125-10.688-20.859-34.406-64.406-27.047-84 5.4844-14.719 23.812-26.016 42.328-17.109 11.062 8.0156 14.578 16.547 15.938 18.141-6.7031 7.3125 3.2344 14.484 8.25 8.7656 7.6875-8.7656 19.031-13.266 30.422-11.719 15.938 1.7344 27.703 18.188 24.656 34.266z"/>
 <path d="m806.44 389.26c6.3281-8.9531 11.484-18.422 15.328-28.125 3.3281-8.3438 7.6406-17.672 4.3594-25.828-3.1875-7.875-11.531-13.172-20.156-12.609-10.828-2.9062-20.812 3.8438-24.75 13.547-24-10.828-39.844 5.1094-36.516 21.562 2.7188 13.406 26.906 26.906 39.984 34.688 5.4375 3.2344 15.469 5.7188 21.75-3.2344z"/>
 <path d="m1043.3 513.47-64.125-14.25c-7.7344-1.7344-10.359 9.9844-2.625 11.719 64.031 14.156 63.797 14.391 65.438 14.391 7.125 0.046875 8.2969-10.266 1.3125-11.859z"/>
 <path d="m1062.4 436.74c-29.812 5.8594-59.625 13.594-88.5 22.969-7.5 2.4375-3.8438 13.875 3.7031 11.391 28.406-9.2344 57.703-16.875 87.094-22.594 7.8281-1.5469 5.4375-13.359-2.2969-11.766z"/>
 <path d="m962.86 434.68c20.062-19.453 40.641-39.797 58.5-57.094 5.6719-5.5312-2.625-14.156-8.3438-8.625-15.703 15.234-38.484 37.641-58.5 57.094-5.7188 5.5781 2.7188 14.156 8.3438 8.625z"/>
</svg>
