<?xml version="1.0" encoding="UTF-8"?>
<svg width="1200pt" height="1200pt" version="1.1" viewBox="0 0 1200 1200" xmlns="http://www.w3.org/2000/svg">
 <path d="m225.42 395.06c76.594 490.55 24.047 153.28 55.312 351.98-13.031 10.312-20.531 16.406-31.078 24.797-11.203 9-6.1406 27.094 8.1094 28.969l32.297 4.3125c1.1719 7.2188 1.0312 6.1875 3.75 23.25 4.8281 30.141 26.344 54.938 56.203 64.781l14.859 4.875-0.65625 7.5938c-0.89062 9.8438 6.9375 17.859 16.312 17.859 9.5625 0 13.266-7.2656 21.094-13.453l417.47 135.98c43.875 64.781 129.74 77.438 201.52 47.109 53.906-21.375 79.5-91.172 36.281-126-20.531-16.547-48.703-13.734-73.875-11.25-127.64 13.875-49.5-108.33-43.641-186 5.8125-73.734-12.281-150.28-56.391-218.53 1.3125-2.4375 2.2969-8.1094 0.79688-9.7031-9.8906-27.141-22.078-53.016-36.141-76.969-4.0312-6.8438-14.391-0.75-10.359 6.0938 13.734 23.297 25.547 48.516 35.859 76.266-0.60938-0.9375-0.65625-1.8281-0.84375-0.84375-32.156-12.844-79.781-1.6875-107.06 28.453-2.8125 2.0156-8.9062 7.5-13.312 13.312-1.4062 1.9219-1.4531 4.4062-0.32812 6.4688-0.5625 0.60938-1.2188 1.1719-1.7344 1.7812l1.125 1.8281c-0.14062 0.375-0.32812 0.79688-0.42188 1.125-12.188-19.172-25.781-37.688-40.266-55.5 96.891-89.391 140.02-129.28 179.63-165.61 0.46875 16.688 3.4219 35.531 13.922 48.469 30.891 38.672 91.641 31.453 130.74 0.75 50.531-40.172 68.062-150.94 80.859-220.87 5.625-28.922-1.5-50.391-41.578-55.359-45.469-6-91.594-6.6562-137.21-2.3906-39.281 3.7969-84.047 6-114.75 33.469-55.875 50.297-34.406 128.06-3.4219 151.13-13.219 12.75-47.062 43.547-163.74 151.26-19.922-18.234-40.875-35.156-62.438-50.484 1.0781-0.60938 2.1562-1.5 3.1875-2.25 2.2969 1.3594 4.5469 2.6719 6.8438 4.0781 32.438-27.984 48.328-104.39 39.234-128.76 35.484 14.062 67.875 31.781 96.234 52.828 6.2344 4.6875 13.594-4.8281 7.1719-9.6094-30.094-22.406-64.594-41.203-102.52-55.875-3.8906-1.4531-8.1094-0.75-11.25 1.3594-59.953-39.891-135.79-58.875-194.72-54.094-67.875 5.5312-158.11 50.062-192.05 20.203-34.266-30.328 6.9375-96.422-25.406-135.98-28.922-35.438-81.141-23.391-109.69 10.031-50.859 59.25-36.328 247.03 116.06 259.13zm33.891 393.79c-3.9375-0.51562-5.0156-5.4375-2.25-7.6875 5.625-4.4062 6.2812-4.9688 25.781-20.578l5.1562 32.109zm106.55 96.844-12.188-3.9844c-25.547-8.3906-44.016-29.578-48.094-55.312-0.32812-2.0156 1.1719 7.2656-3.1875-19.641l65.297 8.7656c2.2031 0.28125 3.8438 2.3906 3.7031 4.6875zm0.46875-82.5-65.906-8.8125-6.7969-42.375c7.2656-5.8125 14.531-11.578 21.797-17.391 2.625 2.625-2.0156 0.1875 100.31 21.891zm46.312-59.531-86.062-17.906c33.094-26.391 45.234-35.812 61.781-49.266 14.578-11.859 15.703-4.0312 69.609-9.6094-22.219 21.094-55.312 49.406-45.328 76.781zm-29.156 166.55c-2.9531 2.625-7.6875 0.51562-7.3125-3.6094l7.2188-85.547c0.32812-4.9688-1.7344-9.4688-5.0156-12.75l45.844-43.312 6.1875 102.52zm389.58-326.53c24.047-20.062 66.047-34.969 97.312-23.016 1.5938 0.51562 3.2344 0.75 4.7812 0.65625 40.219 63.891 57.844 136.31 52.219 207.61-5.0625 67.172-88.969 214.6 57.094 198.84 23.672-2.3438 48.141-4.8281 64.828 8.6719 35.719 28.781 12.141 87.562-33.234 105.52-57.375 14.203-107.67 12.562-151.74-27.188-112.64-100.92 39.047-259.82-98.672-460.4 1.3125-2.3906 2.5312-4.9688 7.4062-10.688zm-12.891 48.844c1.9688 0 3.7969-0.98438 4.875-2.5781 2.0156 1.5 4.1719 2.8125 6.6094 3.75 87.141 169.5-16.219 286.4 38.344 396.66l-398.21-129.71c105.84-98.625 107.81-92.906 108.61-105.61l1.5-79.031c50.672-45.281 50.203-44.859 179.58-164.34 51.562 63.469 49.641 80.859 58.688 80.859zm-323.81 134.58c24.516 12.703 46.688-16.125 73.312-40.078l-1.2656 67.594c-0.23438 3.9844 0.375 0.84375-66.609 62.578zm392.76-427.5c26.391 13.688 56.859 12.562 84.844 2.1562 7.4062-2.7656 3.2812-13.969-4.2188-11.25-28.078 10.5-59.906 10.594-84.047-6.75-33.891-24.938-25.875-77.672 4.2188-109.92 24.469-25.969 62.109-32.438 98.484-38.672 8.8125-1.0781 61.312-13.875 142.18-9.5625 32.484 2.0156 38.016 12.141 32.906 38.531-11.906 64.875-29.719 176.48-76.5 213.66-33.609 26.391-87.281 34.5-113.95 1.125-12.75-15.703-12.844-44.578-10.031-64.312 1.125-7.7812-10.781-9.6562-11.859-1.6875-0.42188 2.8594-0.51562 5.4844-0.75 8.2031-450.24 413.26-398.95 366.19-403.82 370.92-14.391 14.156-32.344 31.781-45.516 24.047-5.1562-3.0469-10.031-5.9531-13.359-9.9844-9.2344-11.109-6.0469-23.906 10.5-42.797 22.031-24.656 363.94-337.5 390.94-363.71zm-183.32 153.1c-182.29 168.32-161.76 148.92-173.68 160.55-58.359 8.5781-71.391-2.25-91.359 13.969-15.188 12.375-42.141 33.516-89.297 71.25-14.812-93.375-39.328-247.13-53.859-342.74 96.375 3 194.26-50.859 333.14 21.984 0.51562 2.4844 3.5625 13.312 5.8125 14.25 0.70312 0.32812 1.7344 0.1875 2.5781 0 0.60938-0.1875 1.0781-0.51563 1.6406-0.70313-4.2188 14.906 7.3594 8.7656 65.016 61.453zm-527.39-348.94c22.734-26.625 66.656-40.453 91.312-10.219 13.828 16.875 11.25 42.375 8.9531 64.922-13.594 145.92 131.11 62.391 218.81 55.219 56.672-4.6406 130.5 13.828 188.68 53.109 0.09375 1.125 0 2.2969 0.46875 3.4219 12.844 33.281-4.4531 82.359-30.891 106.03-151.92-104.72-266.26-43.922-367.55-53.391-140.26-12.984-155.86-165.32-109.78-219.1z"/>
 <path d="m704.81 197.16c45.234 8.7188 48.094 9.5156 49.688 9.5156 7.2188 0 8.25-10.5 1.125-11.906l-48.562-9.375c-7.6406-1.6406-10.125 10.266-2.25 11.766z"/>
 <path d="m765.37 178.13c5.8125 5.3906 13.969-3.4219 8.1562-8.8125-16.5-15.234-34.172-29.625-52.641-42.703-6.5156-4.5938-13.406 5.2031-6.9375 9.7969 18 12.75 35.297 26.812 51.422 41.719z"/>
 <path d="m787.4 156.56c2.6719 7.4531 13.969 3.4219 11.297-4.0312l-20.344-57.281c-2.7188-7.5-13.969-3.375-11.297 4.0781z"/>
</svg>
