<?xml version="1.0" encoding="UTF-8"?>
<svg width="1200pt" height="1200pt" version="1.1" viewBox="0 0 1200 1200" xmlns="http://www.w3.org/2000/svg">
 <path d="m251.72 733.74c23.156 163.69 126.32 325.78 277.5 376.82 20.531 6.9375 49.172 6.5156 77.906-6.4688 1.6406-0.75 2.7656-2.2031 3.2344-3.7969 18.562-5.7188 449.11-192.19 450.71-193.26 68.203-44.016 26.719-168.14-58.406-156.79-1.2188 0.1875 8.9531-3.8438-142.36 58.922-23.578-26.062-44.25-54.797-61.359-85.641-3.8906-6.9375-14.344-1.125-10.5 5.8125 16.875 30.375 37.172 58.734 60.188 84.656l-307.97 127.92c-63.188 13.312-81.656 90.703-26.719 124.6 6.8906 4.2188 15.562 5.1562 23.109 2.4844l94.828-33.703c-0.046875 40.266-35.203 70.547-79.734 62.484-113.06-20.672-258.24-168.37-279.61-378.66-6.4688-62.578-0.32812-126.98-5.9062-190.36-8.9062-105.14-51.094-197.44-118.73-259.82-11.297-10.406-5.4844-28.078 9.75-33.234l414.42-137.39c7.5938-2.5312 16.219-1.3594 21.938 3 73.641 56.391 127.36 154.03 131.76 290.44 0.23438 7.3125 12.281 7.9219 12-0.375-4.4531-140.58-60.609-241.5-136.5-299.63-8.9531-6.7969-21.609-8.6719-33-4.875-434.44 145.5-415.55 134.34-427.36 145.26-6.8438 2.4844-13.734 4.8281-20.578 7.3594-19.453 7.2188-25.219 31.078-10.125 44.203 74.297 64.781 115.69 160.69 127.78 256.74 8.0156 64.031 4.5938 129.32 13.734 193.31zm321.19 207.74 432.14-179.48c67.219-8.3438 108.52 90.75 52.031 128.53l-423.37 183.1c27.609-46.5-3.9375-121.22-60.797-132.14z"/>
 <path d="m584.34 439.03c-85.547 9.7031-168.1 40.875-238.64 90.141-6.5625 4.5938 0.375 14.344 6.8906 9.8438 68.953-48.141 149.58-78.609 233.16-88.078 7.7344-0.89062 6.5625-12.703-1.4062-11.906z"/>
 <path d="m1083.1 113.81c-1.3594-2.2031-11.719-13.312-13.594-15.891-2.25-5.1562-9.7031-4.6875-11.25 0.65625-10.594 39.328-14.203 55.078-82.781 109.31-62.672 49.594-52.875 45.797-56.719 78.375-5.2031-17.203-4.5469-19.828-8.7188-21.234-1.875-0.65625-3.9844-0.32812-5.5312 0.84375-52.453 39.047-96.75 87.281-131.72 143.34-32.062 51.422-14.109 54.469-8.0625 95.625 0.65625 4.4531 1.5938 8.9062 2.5312 13.359-6.6094 7.5-9.0469 15.984-13.312 23.719-5.7188 10.828-36.75 70.922-38.625 83.109-31.359 30.891-43.406 23.297-39.375 61.688 1.2188 11.25-1.8281 24.656 1.9688 37.922-27.188 3.7969-43.219-12.516-63.469-5.8594-20.719 6.75-25.172 30.797-35.484 46.125-14.859 21.984-48.234 30.234-74.531 31.125 2.25-4.2188 4.2656-8.5781 6.0938-13.031 29.203-70.875 28.734-121.55-1.2656-146.48-32.297-26.859-74.391 9.5156-74.812 46.031-35.578-22.781-83.25 14.109-57.281 63.422 18.656 35.438 65.953 57.328 106.12 61.359-9.9375 13.781-22.312 25.828-36.328 35.25-6.6094 4.4062 0.14062 14.344 6.7031 9.9844 17.297-11.578 32.25-26.906 43.641-44.438 32.953 0.23438 73.125-9.1875 91.547-36.469 3.4688-5.1562 6.2344-10.875 8.9531-16.453 24.891-51.516 37.172-9.375 86.906-19.688 14.484 9.2812 36.375-12.984 44.672-16.922 33.188-15.844 20.438-23.062 29.906-68.953 7.0781-6.4219 13.031-20.016 17.016-28.734 6.9844-15.469 24.141-44.297 38.484-75.281 0.1875-0.14062 0.42188-0.14062 0.60938-0.32812 4.7812-0.046875 30-15.422 74.344-13.078 8.5781 0.51562 12-1.2188 16.969-6.9844 16.828-19.734 32.766-38.109 46.312-59.156 2.0625-3.2344 0.60938-7.4531-2.8125-8.8125-10.5-4.2188-21.281-7.7812-32.25-10.547 15.609-1.9219 31.781-1.2188 47.203 2.1094 5.2969 1.2188 9.7031-1.6406 34.312-36.141 40.266-55.875 29.391-37.734 65.297-101.95 4.7344-8.5312 19.969-35.297 12.656-41.766-3.4219-3-4.6406-0.65625-19.359 0.75 45.984-46.078 50.109-116.81 25.031-155.9zm-592.36 682.03c-38.672-2.2031-85.641-22.641-102.98-55.5-15.609-29.672 1.9219-52.594 23.344-52.594 19.312 0 28.359 16.969 30.141 18.609 4.3594 6.7031 14.391 0.09375 10.078-6.5156-18.609-28.734 21.422-78.047 50.297-54.047 32.344 26.859 16.688 87-2.1562 132.66-2.5312 5.9531-5.4375 11.766-8.7188 17.391zm274.55-179.95c-2.2031 4.8281-4.4531 9.75-6.7969 14.156-3.9375-1.7812-7.3594 0.60938-8.2031 3.8438-15.656 59.016 3.4688 59.766-26.391 73.969-7.3594 3.5156-17.484 13.406-27.562 17.109 10.266-27.938 22.359-50.906 36.984-69.938 4.8281-6.2344-4.5938-13.641-9.5156-7.3125-14.062 18.234-25.734 39.938-35.812 65.625-0.5625-9.2812 0.79687-18.75-0.23438-28.219-3.5625-33.984 7.5938-18.562 46.172-61.875 2.2969-2.5781 2.5312-7.4531-2.6719-9.2344 0.42188-0.9375 23.062-47.109 39.844-80.016 4.5938 11.25 14.297 14.297 26.484 14.297 0.89062 0 1.7344-0.28125 2.625-0.28125-25.5 50.953-26.062 48.375-34.922 67.875zm270.94-343.18c-4.875 3.6562-1.875 11.578 4.4531 10.734 8.625-1.2188 16.5-1.4531 25.078-2.625-2.5312 7.9219-7.1719 16.312-11.438 23.953-39.375 70.875-31.219 54.094-64.594 100.83-12.469 17.484-20.578 27.891-24.094 30.984-31.031-6.1875-81.422-1.9219-77.391 12.797 2.1562 7.7812 10.5 1.5469 50.531 16.312-10.125 14.812-41.531 53.203-43.922 54.281-0.89062 0.42188-2.8594 0.32812-4.7344 0.23438-37.641-2.0625-74.625 10.922-78.75 14.531-2.3906 0.046875-5.5312 1.5938-15.047 1.4531 75.703-132.89 177.84-227.86 238.64-313.6 4.5938-6.4688-5.1562-13.406-9.7969-6.9375-56.25 79.312-167.44 187.13-240.79 317.16-0.09375-0.09375-0.28125-0.09375-0.32812-0.1875-2.5312-2.7656-3.1875-7.7344-4.4062-13.172-1.125-5.3906-2.3906-11.297-3.1406-16.312-6.3281-43.125-22.641-41.016 6.375-87.562 32.578-52.266 73.5-97.547 121.69-134.72 3.6094 12.516 6.9844 23.062 9.8438 33.797 1.6406 6.0938 10.312 5.8594 11.672-0.23437 13.875-62.812-11.531-42.984 56.812-97.031 52.969-41.906 71.016-60.656 83.672-104.3 34.172 37.875 24.234 118.97-30.328 159.61z"/>
 <path d="m719.86 94.172-23.484 42.984c-3.7969 6.9375 6.75 12.656 10.547 5.7656l23.484-42.984c3.75-6.9844-6.75-12.797-10.547-5.7656z"/>
 <path d="m725.48 167.48c19.453-11.016 38.344-23.391 56.203-36.797 6.3281-4.7344-0.79688-14.344-7.2188-9.6094-17.438 13.078-35.859 25.172-54.891 35.953-6.9375 3.9375-0.89062 14.391 5.9062 10.453z"/>
 <path d="m733.55 196.31c1.5938 0 61.969-1.9219 60.375-1.9219 7.7812-0.28125 7.5938-12-0.23438-12-1.5938 0-61.969 1.9219-60.375 1.9219-7.8281 0.28125-7.5938 12 0.23438 12z"/>
</svg>
