<?xml version="1.0" encoding="UTF-8"?>
<svg width="1200pt" height="1200pt" version="1.1" viewBox="0 0 1200 1200" xmlns="http://www.w3.org/2000/svg">
 <path d="m206.02 919.97c-4.9219-2.4375-12.75-5.625-17.438-7.0312s-10.125-3.4219-12.141-4.4531c-1.9688-1.0312-4.2188-1.875-5.0156-1.875-0.75 0-2.2969-1.0312-3.375-2.25-3.2812-3.75-1.8281-9.9844 3.9844-16.875 2.9062-3.4219 5.25-6.5156 5.25-6.8438 0-2.9062 26.297-28.594 37.031-36.188 2.7656-1.9688 5.0156-4.2656 5.0625-5.1562 0-0.89062 0.51562-1.5938 1.125-1.5938s2.1562-2.4375 3.5156-5.4375c2.7656-6.1875 9.1406-16.969 17.25-29.109 7.9219-11.812 8.4844-12.797 10.828-17.766 3.3281-7.125 9.2344-24.797 8.5781-25.828-0.32812-0.51562-2.7656-0.9375-5.3906-0.9375-2.6719 0-7.5938-0.84375-10.969-1.8281-10.969-3.2812-18.938-3.6094-35.297-1.4062-19.734 2.6719-22.969 3.5625-38.672 10.219-7.0312 3-16.406 6.6562-20.812 8.2031-7.5 2.5781-30.797 15.609-36.562 20.484-2.5781 2.1562-16.266 10.5-19.781 12-6.0938 2.6719-14.766 8.5781-20.062 13.688-7.2188 6.9375-33.938 28.594-38.906 31.547-1.9219 1.125-3.5156 2.5312-3.5156 3.0938s-1.3594 0.98438-3.0469 0.98438c-5.4375 0-4.7344-3.3281 2.1562-10.5 13.688-14.203 38.766-37.594 42.375-39.469 2.0625-1.0781 5.7656-3.0469 8.25-4.3125 2.4375-1.2656 10.266-6.1875 17.391-10.922 15-9.9844 35.297-20.812 42.984-22.922 6.2344-1.7344 31.172-10.875 34.266-12.609 4.1719-2.2969 41.953-7.6406 54.375-7.6875 4.7344 0 12.609 0.89062 17.484 2.0625 6.9844 1.5938 9.75 1.7344 12.609 0.60938 3.6094-1.4062 3.6562-1.5469 2.8125-9.0469-0.46875-4.1719-1.9688-10.875-3.3281-14.859s-2.4844-9.375-2.4844-12c0-4.6406 4.2656-15.609 7.6406-19.688 2.8125-3.4219-0.14062-4.5938-14.859-5.9062-24.281-2.2031-32.906-6.2812-38.812-18.422-3.1875-6.6094-2.8594-9.8906 1.9219-20.109 4.5469-9.6094 5.1094-13.875 3.1875-24.094-2.5312-13.5 0.60938-35.109 6.75-46.266 0.75-1.4062 3.0469-5.7188 5.1094-9.5625 2.0156-3.8438 4.6406-8.0625 5.8125-9.375s6.4219-9.2812 11.719-17.766c7.5-12.094 11.578-17.156 18.797-23.484 7.5938-6.6094 10.031-8.0625 13.734-8.0625 2.4844 0 4.4531 0.23438 4.4531 0.51562s-3.7969 4.4531-8.4844 9.2344c-6.4219 6.6094-9.9844 11.859-14.719 21.516-3.4219 7.0312-10.5 18.938-15.656 26.484-10.922 15.938-14.484 24.469-15.469 37.125-0.375 5.0156-0.9375 9.7969-1.1719 10.688-0.28125 0.84375 0.28125 3.8438 1.2656 6.6094 3.75 10.641 3.2344 18.469-2.0156 29.25-3.5156 7.2656-2.6719 14.344 2.2969 19.594 5.3438 5.5781 6.5156 6 21 6.75 7.2656 0.375 15.094 1.3125 17.344 2.0625 4.8281 1.5469 6.1875 0.98438 7.0781-2.9531 0.375-1.5938 2.1562-8.5781 3.9375-15.562 3-11.766 4.875-22.219 6.5156-36.422 0.375-3.1406 1.2656-10.922 1.9688-17.203 1.875-16.5 3.7031-27.281 4.9688-29.719 0.60938-1.1719 2.3438-8.2031 3.8906-15.562 3.1875-15.516 8.3906-26.766 17.812-38.438 3.5156-4.4062 6.4219-8.4844 6.4219-9.0469s3.0938-5.4844 6.8906-10.922c6.7031-9.5156 11.156-14.391 16.828-18.234 20.203-13.688 25.359-17.531 29.344-21.938 8.1562-9 17.062-16.266 20.016-16.219 2.3438 0.046875 1.5938 1.2188-4.875 7.3125-4.2188 4.0312-9.0938 9.1875-10.828 11.484s-6.3281 6.7031-10.172 9.75c-12.984 10.359-20.109 18.188-23.859 26.25-0.84375 1.7344-2.9531 6.3281-4.7344 10.219-1.7812 3.8438-5.0156 9.8906-7.125 13.406-6.7031 10.969-10.5 19.875-12.375 29.25-2.0625 10.031-3.3281 15.469-5.3906 23.062-1.7812 6.5625-2.8594 12.141-6.9375 36.984-4.5 27.188-12.141 52.266-19.266 63.281-2.625 4.0781-4.875 9.6094-11.766 28.875-1.875 5.2031-1.7812 5.8594 2.2031 18.234 3.75 11.719 4.0312 13.734 3.3281 23.438-0.89062 11.625-3.1406 20.484-7.875 30.844-1.6875 3.7031-3.0938 7.2656-3.0938 7.9219s-0.9375 1.9688-2.1094 2.9531-2.9062 3.4688-3.8438 5.5781-4.3125 7.2656-7.4531 11.484-9.5156 13.969-14.203 21.703c-6.2344 10.312-10.219 15.375-15 19.078-12.75 9.9375-21.422 18.047-28.641 26.812-11.625 14.203-15.703 20.391-14.859 22.594 0.70312 1.875 11.531 7.3594 14.531 7.3594 0.75 0 6.4688 2.2969 12.703 5.1094 12.281 5.5312 14.859 6 17.906 3.375 1.125-0.9375 6.6094-4.1719 12.234-7.1719s12.234-7.0781 14.672-9.1406c6.9375-5.7656 11.531-7.3125 24.469-8.25 13.172-0.9375 15.984-0.09375 25.594 7.4531 2.7656 2.1562 5.625 3.4688 6.75 3.0469 1.0781-0.42188 3.8438-4.9219 6.1875-10.031s5.25-10.125 6.4688-11.109c3.5156-2.9531 14.719-2.3438 22.266 1.2188l6.5156 3.0469 3.6562-3.5156c5.1094-4.875 15.188-22.453 19.078-33.281 1.6406-4.5938 4.0312-14.906 4.8281-21.047 0.32812-2.4375 1.5-9.9375 2.5781-16.594 3-18.188 3.8906-25.641 5.4375-45.938 0.79688-10.172 2.2969-21.656 3.375-25.453 2.3906-8.3906 8.3906-14.625 16.172-16.734 5.3438-1.4531 18.562-5.7656 31.031-10.125 3.5625-1.2656 10.734-2.9531 15.938-3.75 6.2812-0.98438 14.016-3.5625 23.156-7.7812 7.5469-3.4688 15.281-6.7031 17.203-7.1719 4.875-1.2188 13.406-5.3438 24.141-11.625 5.0156-2.9531 9.5156-5.3906 9.9375-5.3906 1.8281 0 14.531-10.312 19.828-16.125 12.656-13.875 13.031-14.438 22.641-33.609 4.0312-8.0625 9.3281-17.719 11.766-21.422 2.3906-3.7031 4.5469-7.4531 4.7344-8.2969s1.7812-6.7969 3.5156-13.266c4.5-16.734 5.1094-43.219 1.3594-63.562-3.5625-19.453-5.3438-25.359-11.484-38.25-6.8906-14.438-12.141-26.438-12.141-27.609 0-0.60938-3-7.2656-6.7031-14.766l-6.7031-13.688 0.09375-17.25c0.14062-28.453 4.7812-47.25 12.656-51.562 1.4062-0.75 2.8125-1.5469 3.0938-1.7344s-1.125-2.0625-3.1406-4.1719c-2.5781-2.6719-3.6562-5.1094-3.6562-8.1562 0-5.3906 5.5312-14.016 10.688-16.688 2.1094-1.0781 3.8438-2.5781 3.8438-3.3281 0-1.9688-2.5312-6.375-5.3906-9.375-1.3594-1.4531-3.5156-4.6406-4.7812-7.0781-3.4219-6.6562-14.766-18.609-20.016-21.094-6.6562-3.1406-17.672-1.6406-29.766 4.0781-5.25 2.4844-10.922 5.1562-12.516 5.9062-6.7031 3.1875-23.859 25.5-25.359 33-0.42188 2.0156-1.2188 3.9375-1.8281 4.3125s-1.125 1.6406-1.125 2.8594c0 2.2031-1.125 4.5938-6.375 13.641-4.3594 7.5469-8.1562 15.469-12.141 25.5s-13.453 29.625-17.438 36.094c-3.0938 5.0156-22.031 19.969-31.078 24.516-3.4688 1.7344-6.5156 3.6094-6.75 4.125s-1.8281 0.9375-3.5156 0.9375c-4.2656 0-4.0781-4.2188 0.23438-6.2344 4.3594-2.0156 16.219-11.203 23.438-18.234 6-5.8594 7.125-8.3906 17.297-39.047 2.3906-7.2188 7.4531-19.547 11.297-27.422 3.7969-7.875 7.5938-16.875 8.4375-19.922 3.6562-13.828 21.281-34.312 35.156-40.875 27.562-13.172 24.234-12.141 39.516-12.234 24.047-0.09375 29.391 3.375 48.141 31.219 6.375 9.4688 13.172 19.219 15.047 21.703 1.9219 2.4375 4.5469 6.4688 5.8594 8.9531 1.3125 2.4375 3.7031 6.2812 5.25 8.4844 6.2344 8.7188 3.1875 11.156-16.406 13.172-6.75 0.70312-13.125 1.5938-14.156 1.9688-2.1562 0.79688-4.7812 5.9531-5.625 10.781-0.28125 1.7344-1.4531 6.8438-2.5312 11.344-2.4375 9.9844-2.4375 32.578-0.046875 41.719 0.9375 3.5625 4.0312 11.016 6.8906 16.594 2.8594 5.5312 6.7969 13.828 8.7656 18.375s5.4375 11.625 7.7344 15.656c7.0781 12.703 11.906 28.359 13.688 44.297 3.7031 33.094 3.7969 45.141 0.5625 59.953-4.2188 19.078-4.5469 20.109-8.7656 26.391-2.2969 3.375-7.4062 13.078-11.438 21.469-15.656 33.047-30.141 47.438-65.344 64.922-13.406 6.6562-13.594 6.7969-10.219 8.3438 2.4844 1.125 10.969 1.5 30.234 1.2188 44.859-0.60938 64.406-0.375 79.734 0.84375 22.172 1.7812 38.203 0.9375 53.578-2.7656 14.156-3.4219 30.75-9.0469 41.625-14.156 3.6094-1.6875 11.625-3.8906 17.859-4.9219 6.2344-0.98438 14.859-2.7188 19.219-3.7969s9.375-1.5938 11.156-1.1719c2.0156 0.51562 3.2812 0.28125 3.2812-0.60938s-3.2344-1.4062-8.9531-1.4062c-6.8438 0-8.9531-0.42188-8.9531-1.8281 0-2.4844 10.453-4.5938 22.781-4.5938h9.8906l2.4375-4.7812c1.3594-2.625 2.6719-5.25 2.9062-5.8125 0.28125-0.5625-4.875-0.65625-11.438-0.1875-23.203 1.6875-55.969-6.5156-73.312-18.328-4.3125-2.9531-8.25-5.3438-8.7656-5.3438-1.8281 0-11.672-8.2969-21.938-18.469-9.3281-9.2344-11.344-12.188-18.938-27.375-4.6875-9.3281-8.625-17.625-8.8125-18.422s-0.65625-2.2969-1.0312-3.3281c-3.1875-8.2031-5.1562-36.656-5.2031-75.281-0.046875-21.375 1.6875-37.031 4.4531-40.359 0.65625-0.79688 1.0781-1.9688 0.9375-2.5312-0.14062-0.60938 0.70312-3.375 1.9688-6.1875 2.8594-6.5156 5.9062-18.047 5.9062-22.406 0-5.8125-4.125-8.1562-14.438-8.25-9.375-0.09375-22.828-3.4688-26.531-6.6094-2.1562-1.8281-1.8281-6.75 0.46875-6.75 2.2031 0 13.078-12.234 16.5-18.703 2.0156-3.75 3.7031-9.4688 4.2656-14.484 0.51562-4.5469 1.125-9.4219 1.4062-10.828s0.75-4.9219 1.125-7.7812c1.125-9.1875 5.7656-22.125 9.5156-26.391 6.2344-7.0781 21.094-14.672 32.062-16.406 14.156-2.2031 33.047 0.89062 47.672 7.875 11.203 5.3438 12.281 6.3281 21.75 21.047 2.8125 4.3594 7.9219 12.141 11.391 17.344s8.3438 12.516 10.828 16.266 5.7188 8.1094 7.125 9.6562c4.6406 5.0156 9.1875 11.531 10.078 14.344 1.125 3.5625 18.141 19.406 23.109 21.516 2.1094 0.89062 6.375 2.0156 9.5156 2.5312 7.4531 1.2188 22.922 7.7812 35.672 15.141 5.625 3.2344 10.547 5.8594 10.969 5.8594s3.2812 1.7344 6.3281 3.8438 5.9062 3.8438 6.3281 3.8438 2.3438 1.0781 4.2188 2.3906c1.9219 1.3125 9 6.0469 15.797 10.547 10.031 6.6094 13.172 9.4688 16.594 15.094 2.3438 3.8438 6.8906 10.125 10.078 14.016 3.2344 3.8906 8.5781 11.203 11.906 16.312 3.3281 5.0625 7.875 10.5 10.078 12.094 3.9844 2.8125 10.172 8.0625 15.375 13.125 4.5 4.3125 11.766 9.5156 13.312 9.5156 0.79688 0 8.2031-6.7969 16.453-15.047 23.25-23.391 40.922-52.359 53.906-88.453 1.9219-5.3438 4.4062-11.391 5.5312-13.406s3.5156-8.5312 5.3438-14.484c4.2188-13.781 5.7656-17.203 10.734-24 4.1719-5.6719 10.219-9.1406 15.984-9.1406 5.0156 0 18.984 6.8438 22.078 10.828 3.75 4.7344 3.5625 6-1.7344 12.938-2.4844 3.2344-4.3594 6.0469-4.125 6.2344 0.1875 0.1875 3.3281-0.28125 6.8906-1.0312 12.188-2.5312 17.625 2.6719 13.922 13.359-1.6875 4.9219-9.375 15.281-20.766 27.938-3.6562 4.0781-8.2969 11.016-10.312 15.469-2.0156 4.5-5.8125 9.9844-8.5312 12.469-2.7188 2.4375-6.1406 5.625-7.6406 7.0781-1.6875 1.5938-3.8906 6.7969-5.625 13.406-1.5938 5.9531-4.2656 12.984-6 15.656-5.9531 9.1875-21.469 26.344-23.859 26.391-1.2656 0-2.1094-0.42188-1.8281-0.9375s1.8281-3.7969 3.4688-7.2656 5.2031-9.9844 7.9219-14.438 6.4219-12.516 8.25-17.906c4.3594-13.031 4.875-13.969 12.047-20.906 3.8906-3.75 7.8281-9.4688 10.688-15.516 2.5312-5.2969 7.2188-12.328 10.594-15.891 13.922-14.625 23.438-29.906 20.438-32.906-0.32812-0.32812-3.4219 0-6.8438 0.70312-13.828 2.9062-18.609-3.0938-10.031-12.609 6.2344-6.8906 5.6719-9.9844-2.5781-14.484-3.5156-1.9219-6.8438-3.4688-7.3594-3.5156-2.0625-0.046875-8.7656 12.469-11.25 21-2.8125 9.6562-5.1562 16.266-15.141 42.75-3.5625 9.4688-7.3594 19.828-8.4375 22.969-2.8125 8.4375-10.266 21.422-14.578 25.5-1.125 1.0312-5.4844 7.9688-8.0625 12.75-3.5625 6.6094-27.516 29.203-39.281 37.078l-4.875 3.2812 5.3906 5.1562c12.469 11.906 15.094 12.094 27.469 1.5938 6.9375-5.8594 10.406-7.9219 14.297-8.4375 6.8906-0.9375 6.75 1.3594-0.60938 10.406l-5.7188 7.0312 6.0469-0.75c7.6875-0.9375 16.828-3.75 39.234-12 23.344-8.5781 31.078-11.344 35.719-12.703 2.1094-0.60938 10.734-3.1875 19.125-5.7656 12.422-3.75 18.094-4.7344 30-5.2969 12.75-0.5625 15.656-0.32812 22.219 2.0156 11.156 3.9375 19.875 9.9844 22.078 15.281 1.875 4.4531 1.8281 4.5469-2.5781 8.3906-2.4375 2.1094-7.0781 5.7188-10.266 8.0156-7.2188 5.1562-12.656 12.141-12.656 16.312 0 2.0625 2.1562 5.4844 5.9062 9.5156 4.6875 4.9688 5.9062 7.2188 5.9062 10.734 0 9.0469-8.0625 14.297-23.297 15.047-6.8438 0.375-7.3125 0.60938-7.3125 3.5156 0 7.4062-25.453 24.281-49.219 32.625-12.844 4.5-32.438 3.75-47.062-1.875-13.875-5.2969-36.234-11.578-45.938-12.891-12.656-1.6875-23.672-4.4062-31.5-7.6406-3.2812-1.3594-6.5156-2.4844-7.1719-2.4844s-1.8281 2.4375-2.5781 5.4375c-1.6875 6.6094-10.734 17.297-17.578 20.766-2.7188 1.3594-7.5 4.3125-10.688 6.4688-3.1406 2.2031-6.375 4.2188-7.125 4.4531-3.8906 1.3594-20.906 13.547-22.875 16.406-1.2188 1.7812-7.125 7.5469-13.078 12.797s-13.031 11.719-15.75 14.297l-4.9688 4.7344 6.7031 1.9219c11.625 3.3281 32.766 7.0781 40.312 7.125 10.641 0.046875 42.094 4.5 48.516 6.8438 4.8281 1.7812 19.781 11.391 23.906 15.422 1.6875 1.6406 8.8125 4.5938 18.375 7.6406 3.8438 1.2188 12.938 5.0156 20.156 8.4375s13.5 6.2344 13.922 6.2344c2.5312 0 18.281 8.5781 23.25 12.703 7.5469 6.2812 9.375 7.125 19.781 9.5625 16.359 3.7969 18.469 7.2656 18.422 31.078 0 14.344-1.5 21.188-5.2031 24.094-6.0938 4.7812-16.922 2.3438-29.953-6.6562-5.4844-3.7969-12.562-8.2969-15.703-9.9375-6.6562-3.5625-23.203-9.2344-30.234-10.406-11.812-1.9688-31.172-9.375-38.625-14.766-2.8594-2.0625-10.359-4.9688-39.609-15.281-4.5469-1.5938-13.734-4.875-20.391-7.2656-20.109-7.2188-40.359-11.016-80.062-15-17.859-1.8281-27.703-2.0625-52.312-1.3125-29.484 0.89062-37.312 0.28125-37.312-3 0-1.7812 2.9531-2.4844 16.594-3.9375 31.406-3.4219 49.547-3.8906 73.172-1.9219 29.062 2.4375 41.203 4.0312 52.5 6.9844 4.9219 1.2656 11.531 2.7656 14.672 3.2344 6.1875 0.98438 24.047 6.6094 26.156 8.25 0.70312 0.5625 3.2812 1.4062 5.7188 1.9219s11.344 3.6562 19.781 7.0312 19.031 7.4062 23.578 8.9531 9.4688 3.8906 10.922 5.25c1.4531 1.3125 3.1406 2.3906 3.7031 2.3906 0.60938 0 2.0156 0.79688 3.0938 1.7344 2.2969 1.9688 18.141 7.2656 31.359 10.5 8.4375 2.0625 21.609 6.7969 26.438 9.5156 1.2188 0.70312 2.7188 1.2656 3.3281 1.2656s5.4844 2.8594 10.781 6.375c5.3438 3.5156 9.9375 6.375 10.219 6.375 0.51562 0 1.9219-4.9219 4.8281-17.297 2.8125-12-0.9375-20.109-9.9844-21.609-10.594-1.7344-18.75-5.1094-28.125-11.672-5.4375-3.75-12.844-7.9688-16.5-9.3281s-11.109-4.7344-16.594-7.4531c-5.4375-2.7188-16.219-7.0781-23.906-9.7031-10.359-3.5156-16.172-6.375-22.312-11.016-16.922-12.703-20.391-13.594-63.844-16.453-16.266-1.0781-42.938-6.2344-57-10.969-5.0156-1.6875-10.031-3.0938-11.156-3.0938-3 0-2.4375-2.2031 1.2188-4.5938 2.3906-1.5938 4.8281-1.9219 9.5156-1.3594 5.7188 0.65625 6.5625 0.42188 8.9062-2.5781 1.4531-1.8281 5.9062-6.8438 9.9375-11.156s9.0469-10.031 11.109-12.75c7.6875-9.8906 17.625-17.344 40.172-30.094 11.484-6.4688 21.609-15 21.75-18.281 0.09375-2.4375 5.4844-8.2969 8.7656-9.4688 2.8125-1.0312 2.625-1.2656-2.8125-2.7656-3.2344-0.89062-8.25-3.6562-11.109-6.0938l-5.2031-4.4531-4.3594 5.0625c-5.5781 6.5156-31.688 19.219-52.922 25.734-31.078 9.5625-38.25 12.516-38.25 15.797 0 4.1719 3.7031 15.188 8.0625 24.141 3.375 6.8906 3.8438 8.7188 2.3438 9.2812-2.625 0.98438-7.6406-2.625-10.641-7.7344-1.4062-2.3906-2.7656-4.3594-2.9531-4.3594-0.23438 0-2.1562 3.1406-4.3594 6.9844-2.7656 4.875-4.2656 9.6094-4.9219 15.609-0.9375 8.4375-1.0312 8.625-4.8281 9-6.1406 0.60938-8.8594-3.375-8.8594-12.938 0-4.3125 0.46875-9 1.0781-10.406 0.79688-1.9219 0.28125-1.7344-2.1094 0.89062-5.25 5.6719-7.7812 22.031-3.9844 25.781 2.5781 2.5781 1.2656 4.5938-3.0469 4.5469-4.7812-0.046875-6.4688-1.4062-7.9219-6.4219-4.3594-15.281 2.0156-29.625 18.047-40.5 5.7188-3.8438 7.5-6.2344 7.5-9.8438 0-1.3125-0.98438-1.4531-4.125-0.65625-2.2969 0.5625-6.8906 1.4531-10.219 1.875-4.0781 0.5625-6.0469 1.4531-6.0469 2.6719 0 2.5781-6.8906 14.484-10.875 18.703-1.7812 1.9219-4.1719 3.5156-5.25 3.5156-1.3125 0-1.6875 0.75-1.1719 2.3906 1.4062 4.3594-11.906 13.312-22.266 14.953-3.9375 0.60938-6.1875 1.9688-8.7188 5.1562-4.3594 5.4844-7.875 5.7188-7.875 0.5625 0-4.125 4.5-8.5312 10.078-9.8906 1.8281-0.42188 5.5781-2.0156 8.3906-3.4688l5.1094-2.6719-4.6875-0.375c-2.8594-0.23438-6.6562 0.60938-9.7031 2.1562-3 1.5-9.0469 2.9062-15.094 3.4219-5.5312 0.46875-12.094 1.6875-14.531 2.7188-23.25 9.6094-78.281 20.953-91.688 18.844-6.4219-0.98438-45.656-2.25-81.422-2.5781-40.359-0.375-47.484-1.0312-54.188-4.875-2.5781-1.5-5.0625-2.3438-5.5312-1.875-0.84375 0.84375 4.6875 19.641 7.0312 24.047 0.70312 1.2656 2.1562 3.2344 3.2344 4.3125 1.7812 1.7812 2.4844 1.5938 7.2188-1.8281 4.3594-3.1406 6.4219-3.7969 12.375-3.75 3.9844 0.046875 8.1562 0.79688 9.4219 1.7812 1.5938 1.2188 4.6875 1.5469 10.5 1.0781 9.5156-0.75 17.531 1.6406 22.312 6.75 2.9531 3.1406 6.3281 4.2188 6.3281 1.9688 0-1.7344 4.6875-2.9531 7.6406-2.0156 3.1406 0.98438 3.3281 4.6875 0.32812 7.3125-7.2188 6.4219-24.609 4.6406-30.984-3.2344-1.8281-2.2969-2.5312-2.3906-6.75-0.98438-2.5781 0.84375-4.9688 2.0156-5.3438 2.5781s1.9219 2.25 5.0625 3.75c5.8125 2.7656 7.3594 5.625 3.7031 7.0312-5.5781 2.1562-16.453 0.5625-31.5-4.5-28.031-9.4688-26.391-9.1406-27.703-5.625-2.25 5.9062-9.4688 5.7188-13.078-0.32812-2.5312-4.3125-3.2812-8.5312-3.4219-19.219l-0.09375-8.1562-4.125 0.75c-12.75 2.3438-27.891 6.0469-33.469 8.2031-3.5156 1.3594-10.266 3.5156-15.047 4.7812-4.7344 1.2656-9.7031 3.2344-11.016 4.3594-3.2344 2.7656-6.2812 13.594-7.2656 25.781l-0.84375 10.031 4.7344 1.9688c8.7656 3.6562 62.25 8.6719 90.703 8.4844 30.234-0.1875 73.781-2.3906 79.406-3.9844 2.2031-0.60938 8.4844-1.5469 13.969-2.0156 11.953-1.0312 41.719-7.3594 51.281-10.922 6.9844-2.5781 13.266-3.375 55.5-6.9844 16.5-1.4062 24.469-1.6406 25.406-0.75 1.4531 1.4531 1.2656 1.5469-15.656 7.6406-9.75 3.5156-29.578 7.5-41.953 8.4844-2.5312 0.1875-13.828 2.6719-25.031 5.5312s-26.625 5.8125-34.172 6.5625c-7.5938 0.75-16.453 2.0156-19.781 2.7656-8.4375 1.9219-100.69 3-111.23 1.2656-9.5625-1.5469-25.547-3.5156-49.125-6-9.1406-0.98438-18.469-2.2969-20.719-3-3.0469-0.89062-4.1719-0.84375-4.2656 0.23438-0.046875 0.84375-0.28125 2.3438-0.46875 3.4219-0.1875 1.0312-0.84375 5.9531-1.4062 10.828-0.5625 4.9219-1.125 9.2344-1.2188 9.5625s-0.89062 4.9219-1.8281 10.219c-2.4375 14.062-4.0312 23.203-4.6875 26.812-2.0156 10.734-8.0625 24.609-15.562 35.719-12.656 18.703-21.938 21.75-41.203 13.5-1.5938-0.65625-2.6719 0.60938-4.8281 5.5781-1.5 3.5156-2.7188 6.7969-2.625 7.2188s-1.4062 2.3906-3.3281 4.4062c-7.9688 8.2969-25.266 7.3125-34.547-1.9688-2.3906-2.3906-5.7188-4.7344-7.3594-5.1094-4.3125-1.0781-12.984 1.5938-16.875 5.2031-1.875 1.7344-10.594 7.2656-19.453 12.375-15.328 8.7656-16.547 9.2344-25.031 9.5625-8.0156 0.32812-9.8438-0.09375-17.859-4.125zm284.63-207.89c-0.46875-1.7812-1.3125-3.2344-1.9688-3.2344-0.60938 0-0.51562 1.6875 0.28125 3.7969 1.6875 4.4531 2.8125 4.125 1.6875-0.51562zm309.24-64.641c14.25-1.5938 32.484-6.1406 45.188-11.203 4.9688-2.0156 15.047-5.4844 22.453-7.7812 17.344-5.3438 34.078-11.719 45.281-17.203 10.406-5.1094 11.391-5.8594 17.016-13.078 3.7031-4.7812 4.875-5.4375 9.3281-5.4375 6.2344 0 9.1875 1.4531 15.75 7.7344 4.2656 4.0781 8.4844 6.0469 25.5 11.906 14.25 4.9219 24.656 7.6406 34.453 9 12.656 1.7812 22.969 4.5469 52.969 14.203 16.547 5.3438 25.078 4.0781 47.812-7.0781 16.734-8.2031 25.547-14.812 28.219-21.328 1.875-4.5 2.4844-4.7344 15.75-6.75 14.109-2.1562 16.453-8.5312 7.0312-19.172-8.0156-9-8.0156-13.922 0.09375-22.781 3.1875-3.5156 8.625-8.2031 12-10.359 3.4219-2.2031 6.4688-4.6406 6.75-5.4844 1.3125-3.4219-1.7812-6.9844-9.5625-10.922-9.0469-4.5938-17.812-5.4375-29.719-2.8125-6.9375 1.5469-30.609 9.1406-47.859 15.375-5.9531 2.1562-14.297 5.1094-18.516 6.5625s-9.375 3.375-11.484 4.2656c-12.703 5.4375-24.609 8.1562-42.328 9.6562-7.5938 0.65625-16.547 1.5469-19.875 1.9688-5.6719 0.75-6.1406 0.5625-7.3125-2.5312-0.98437-2.5312-2.1562-3.3281-5.0625-3.3281-6.2344 0-10.359-2.4844-21.984-13.312-29.109-27.047-28.547-26.625-33.469-24.984-5.1094 1.6875-16.219 0.14062-22.078-3.0938-6-3.2812-13.547-10.5-12.562-12 1.5469-2.4844 4.2656-1.6406 13.781 4.3125 6.0469 3.75 10.688 5.7188 13.406 5.7188 4.9688 0 5.25-1.5469 1.1719-6.8906-1.6406-2.1562-4.0312-5.9531-5.2969-8.3906-1.2656-2.4375-5.8125-8.7656-10.172-14.016-4.3125-5.25-9.8438-12.375-12.281-15.75-3.9375-5.5312-11.016-11.109-26.344-20.578-2.25-1.4062-7.1719-4.5938-10.875-7.125-9.7031-6.5625-30-18.375-36.844-21.422-3.2344-1.4531-11.156-3.75-17.578-5.1562-13.266-2.9062-16.5-4.4531-28.219-13.641-5.7188-4.4531-9.4688-8.6719-12-13.406-3.3281-6.2344-12.75-19.969-14.812-21.562-0.46875-0.32812-3-4.9219-5.6719-10.219-2.6719-5.25-5.8594-11.016-7.125-12.797-1.2656-1.7812-4.125-6.6562-6.375-10.828-8.25-15.281-8.5781-15.656-18.797-20.484-11.156-5.2969-23.672-7.5938-34.125-6.2812-9 1.125-21.891 9.4688-24.938 16.078-2.8125 6.1406-5.7188 17.344-8.7656 33.891-1.4531 7.8281-2.9531 15.047-3.3281 16.078-0.51562 1.3125 1.8281 3.4688 7.4531 6.9844 7.3125 4.5938 8.3906 5.8125 10.312 11.719 1.7344 5.2969 1.875 7.5938 0.79687 11.672-0.98437 3.6094-0.98437 6.5156 0 10.172 1.8281 6.7031 0.70313 16.875-3.4688 32.531-3.2344 12.094-3.4219 14.203-3.3281 40.875 0.14062 36.984 2.3906 66.094 5.7656 75.234 1.5469 4.125 9.75 22.078 14.203 31.078 3.9375 7.9688 22.875 27.047 33.656 33.891 5.0625 3.2344 9.5156 6.375 9.8906 7.0312 1.1719 1.9219 20.906 9.0938 31.922 11.578 10.828 2.4844 20.297 2.4375 44.016-0.23438zm105.89-63.656c-5.25-1.3594-11.953-3.375-14.906-4.4531-5.1562-1.9219-5.5781-1.875-12.469 1.2656-9.1875 4.2188-12 4.125-23.906-0.65625-9.9844-4.0312-9.75-3.8438-25.5-21.328-2.1094-2.2969-4.1719-4.0312-4.6406-3.75-7.6875 4.125-10.219 4.5938-19.078 3.4688-14.062-1.7812-17.578-4.2188-30.234-21-13.922-18.469-16.641-28.875-15.562-59.297 0.75-21.609 2.25-29.344 5.7188-29.344 1.9688 0 2.2031 2.2031 2.2969 22.641 0.09375 21.844 0.23437 23.062 4.125 34.828 4.5938 13.969 8.8125 20.391 22.406 34.406 11.109 11.438 14.203 12.656 23.344 9.4688 6-2.1094 6.2812-2.1094 12.844 0.70312 5.1094 2.2031 8.2969 4.875 13.172 10.969 4.9688 6.2344 8.2969 9 14.719 12.188l8.2969 4.0781 5.9531-2.1094c10.875-3.8438 15.328-3.8906 27.656-0.42188 6.3281 1.7812 14.344 3.6562 17.859 4.125 6.7969 0.9375 9 2.625 6.7969 5.25-1.875 2.25-7.5938 1.9688-18.891-0.98438zm18.516-22.031c-2.8125-0.89062-5.1094-2.1562-5.1094-2.8594s3.8906-1.5469 8.6719-1.9688c8.0625-0.70312 9.0938-1.125 14.625-6.375 3.2812-3.0938 6.5625-6.375 7.3125-7.3125 0.84375-1.0312 3.3281-1.5469 6.4219-1.2656 6.2812 0.51562 7.125 3.6094 2.8594 10.031-5.8594 8.8594-22.688 13.594-34.828 9.75zm-238.03-8.3438c-6.1406-3.8906-13.031-11.766-15.094-17.203-1.0781-2.7656-0.84375-3.5625 1.1719-4.6406 3.3281-1.7812 8.0625-1.6406 10.406 0.28125 1.0781 0.89062 4.7344 5.625 8.1562 10.547 3.4219 4.9219 7.0312 9.5625 8.0625 10.312s1.4531 2.0625 0.9375 2.8594c-1.5938 2.5781-7.7344 1.5938-13.641-2.1562zm196.4-15.984c-6.375-1.7344-12.562-5.2031-12.562-7.125 0-2.5312 2.9062-2.7188 7.4062-0.51562 6.9375 3.4219 18.328 3.0938 26.719-0.79688 5.2969-2.4375 7.0312-2.7656 8.25-1.5469 2.2031 2.2031 0.046875 5.25-6.1406 8.8125-5.7188 3.2812-14.25 3.6562-23.672 1.125zm-180.24-3.8906c-5.6719-1.7344-7.1719-3.9375-3.5156-5.1094 2.3906-0.75 6.9844 0.46875 12.656 3.375 6.7969 3.4688 0.32812 4.6875-9.1875 1.7812zm129.42-19.172c-15.844-3.2812-22.875-7.5938-20.906-12.75 0.98438-2.5312 5.5781-2.625 5.5781-0.14062 0 3.8438 8.6719 6.5625 25.031 7.8281l10.359 0.79688 5.2031-4.6875c5.0625-4.5938 13.219-7.3594 14.672-4.9688 0.375 0.60938-0.1875 2.9531-1.2656 5.2031-4.2188 8.7188-20.719 12.422-38.672 8.6719zm-109.55-0.79688c-9.7969-1.9688-15.141-7.5938-7.2656-7.5938 3.9375 0 18.188 5.3906 18.422 7.0312 0.28125 1.6875-4.3594 1.9219-11.203 0.5625zm7.6875-22.922c-6.3281-2.8594-6.4219-5.25-0.28125-6.5156 7.0781-1.4531 16.641 2.8125 16.641 7.3594 0 2.625-9.8906 2.1094-16.359-0.84375zm-46.453-132.74c-1.2188-0.70312-3.0938-2.9531-4.125-4.9688-1.7344-3.3281-1.6875-3.8906 0.1875-5.7656 3.0938-3.0938 7.5-4.4531 14.531-4.4531h6.2812v6.9844c0 5.5781-0.46875 7.2188-2.4844 8.2969-3.1406 1.6875-11.531 1.6406-14.438-0.046875zm-31.312 45.094c1.0781-5.2969-1.2656-13.594-4.6406-16.5-1.875-1.6406-3.8438-2.9062-4.3125-2.8594s-3.0469 2.6719-5.6719 5.8125c-8.2969 9.9375-5.8125 15.797 6.7031 15.797 6.0938 0 7.5469-0.42188 7.9219-2.25zm-58.688-52.172 4.7344-0.79688-4.5938-8.4375c-6.2344-11.484-6.3281-11.578-9.8906-7.1719-3.8906 4.875-4.5469 8.3438-2.4844 13.266 1.7812 4.1719 3.3281 4.5938 12.234 3.1406zm-593.53 432.79c0-2.9062 11.25-11.953 22.266-17.906 5.625-3.0469 16.547-7.6406 24.281-10.266 26.719-9.0469 31.969-11.25 49.406-20.812 18.703-10.266 20.391-11.578 32.25-25.078 10.922-12.422 12.844-15.234 19.219-27.797 3.1406-6.1875 6.1875-12.188 6.7969-13.406 2.2031-4.2188 7.5-17.531 9-22.594 0.84375-2.8125 2.0156-6.2344 2.625-7.6406 2.2031-5.1094 11.344-33.375 13.359-41.25 1.125-4.4531 2.5781-9.0469 3.1875-10.219 1.2188-2.3438 6.4219-19.406 6.4219-21.094 0-1.4062 7.0312-10.453 13.031-16.734 2.6719-2.8125 8.4375-9.0469 12.797-13.828s11.906-11.297 16.781-14.438c4.875-3.1406 13.594-10.266 19.406-15.844 7.5938-7.2656 11.484-10.078 13.828-10.078 4.4062 0 4.1719 1.4062-1.7344 10.031-5.4375 7.9688-9.3281 11.766-21.375 20.578-4.3125 3.1406-10.031 8.8594-12.75 12.656-2.7188 3.7969-8.1094 10.969-12.047 15.938-6.7031 8.4844-10.641 16.969-12 25.734-1.0781 6.9844-10.5 39.844-12.047 42-0.51562 0.70313-2.5312 5.8594-4.5469 11.484-1.9688 5.625-4.0312 10.781-4.5938 11.531-0.5625 0.70312-1.2656 2.7188-1.5938 4.4531-0.65625 3.4688-12.188 27.703-19.453 40.781-4.7812 8.5781-8.9062 14.531-13.688 19.594-19.594 20.859-18.797 20.25-40.828 31.172-13.875 6.8906-25.078 11.484-32.953 13.5-28.641 7.4531-49.172 16.312-61.266 26.391-6.2344 5.2031-13.781 6.9375-13.781 3.1875zm312.37-75.469c-6.2344-1.9219-9.5156-4.6875-8.1562-6.8906 1.1719-1.875 4.6875-1.5938 7.5938 0.60938 1.6406 1.2188 5.5312 1.875 11.344 1.875 7.7812 0 9.8906-0.5625 16.922-4.5 8.4375-4.7344 14.953-11.625 19.547-20.766 1.5-3 4.125-6.0938 5.8125-6.8438 4.125-1.875 10.781-0.42187 16.031 3.4219 5.2969 3.8906 11.391 5.7188 19.5 5.7188 5.8125 0 6.5156-0.375 14.016-7.9688 4.3594-4.4062 9.7031-10.125 11.859-12.75 3.2812-3.9375 4.7812-4.7812 8.6719-4.7812 5.4375 0 8.8594 1.5 13.828 6.1875l3.5625 3.3281 7.4531-7.9219c4.8281-5.1562 9.2812-11.766 12.703-18.797 5.4375-11.25 7.8281-13.359 15.141-13.359 5.1094 0 15.188-7.2188 21.234-15.141 6.0469-7.9688 7.9219-12.141 9.1875-20.578 0.46875-3.1406 1.6875-7.7344 2.6719-10.172 1.875-4.5469 12.141-20.438 16.078-24.844 1.2188-1.3594 2.25-2.9531 2.25-3.5156 0-1.2188 5.25-1.3594 8.2031-0.28125 3.7969 1.4531 2.4844 6.1406-5.8594 20.906-3.3281 5.8594-4.9219 10.5-5.4844 15.938-0.42188 4.2188-1.4531 9.6562-2.2031 12.141-4.3125 13.828-20.203 28.922-33.938 32.203-6.4688 1.5469-6.7031 1.7344-9.2344 8.625-5.3906 14.578-15.844 26.25-27.422 30.562-8.4844 3.1875-12.844 3.2812-19.875 0.46875l-5.3438-2.1562-3.2812 3.7969c-4.0312 4.6406-12 10.828-17.953 13.922-7.5469 3.9375-28.453 2.0625-42.094-3.7031-1.3125-0.5625-2.8125 0.70313-4.7812 4.1719-9.4219 16.547-38.391 27.094-57.891 21.094zm57.094-75.844c-8.25-2.5781-12.562-5.9531-14.906-11.578-1.2188-2.9062-1.1719-4.125 0.046875-5.625 2.3906-2.8594 8.5781-2.3906 11.156 0.84375 7.9688 9.9375 13.969 11.578 30.141 8.1094 5.7188-1.2188 12.422-3.0469 14.953-4.0781 5.0625-2.0625 11.531-1.875 12.281 0.42188 0.28125 0.79687-0.84375 2.9531-2.4375 4.7812-2.3906 2.7188-5.6719 3.9375-17.484 6.5156-16.922 3.7031-23.484 3.8438-33.75 0.60938zm61.688-58.688c-9.0938-1.5469-13.359-3.1875-13.781-5.3438-0.51562-2.7656 2.8125-3.7031 7.4531-2.1094 2.4844 0.84375 8.0625 1.0312 15.047 0.51563 18.375-1.4531 22.312-1.4531 22.828 0.14062 0.28125 0.84375-1.6875 3-4.3125 4.7812-4.0781 2.7656-6.1406 3.2812-13.172 3.0938-4.5938-0.09375-10.875-0.60937-14.062-1.125zm-28.266-49.688c-1.875-0.5625-5.1094-2.0625-7.2188-3.2812-6.9844-4.125-11.953-17.109-7.2656-18.891 3.0938-1.1719 5.7188 0.51563 5.7188 3.75 0 3.7969 6.375 11.109 12 13.781 3.0469 1.4531 6.0469 1.8281 10.219 1.2656 6.5156-0.89063 7.875 0.75 2.625 3.1406-3.6562 1.6875-11.016 1.7812-16.078 0.23438zm124.64-194.63c-4.6875-2.4844-5.7188-4.0781-5.7656-8.625-0.046875-5.5781 3.5156-11.109 8.4844-13.172 7.2656-3.0469 14.812-0.09375 11.906 4.6406-0.65625 1.0781-0.14062 2.4375 1.5 3.75 1.875 1.5469 2.2969 2.9062 1.6875 5.3906-1.9219 7.6406-10.969 11.719-17.812 8.0156z"/>
</svg>
