<?xml version="1.0" encoding="UTF-8"?>
<svg width="1200pt" height="1200pt" version="1.1" viewBox="0 0 1200 1200" xmlns="http://www.w3.org/2000/svg">
 <path d="m831.14 952.74c-3.2812-1.0312-5.9531-3.0938-12.516-9.75-9.5156-9.7031-15.891-17.625-18.891-23.531-3.2812-6.4688-5.0625-8.0156-9.75-8.5312-4.5938-0.51562-7.0312-1.5469-11.203-4.875-4.5938-3.6094-5.4844-4.6406-12.281-14.156-12.281-17.156-15.797-30.984-10.734-42.047 2.2031-4.7812 2.6719-5.25 5.2969-5.25 2.4844 0 2.7188 0.1875 1.7812 1.3594-0.9375 1.125-0.84375 1.3594 0.70312 1.3594 2.7656 0 10.922 7.8281 13.547 12.984 2.6719 5.25 6.5156 9.8438 8.25 9.8438 1.3594 0 6.7031 6.9375 6.7031 8.6719 0 0.60938 2.6719 3.4688 5.9531 6.375s7.6875 7.7344 9.75 10.828c2.0625 3.0469 7.3125 9.0469 11.578 13.359 9.7031 9.6562 15.328 17.297 13.594 18.422-0.9375 0.60938-0.79688 1.0312 0.60938 1.8281 3.1406 1.7812 8.25 7.6406 10.266 11.719 1.6406 3.2812 1.7344 4.0781 0.70312 5.1562-1.4531 1.4531-4.7344 1.6875-5.2031 0.375-0.1875-0.51562-1.6406-0.5625-3.6562-0.09375-4.0781 0.9375-6.5156-0.14062-3.7031-1.6406 1.0312-0.5625 2.7188-1.0312 3.7031-1.0312s2.0625-0.32812 2.2969-0.79688c0.75-1.2188-4.4531-8.7656-8.0156-11.672-2.1562-1.7344-3.0938-3.1406-2.8125-4.125 0.79688-2.4844-6.0938-12-15.703-21.703-12.938-13.031-23.625-24.609-26.672-28.781-1.4531-2.0156-4.5938-5.4844-6.9375-7.7344s-5.8594-6.375-7.7812-9.1406-4.6875-6.1875-6.1875-7.5938c-3.0938-2.9531-3.4219-2.625-4.4062 4.7344-1.125 8.4844 6.4688 26.25 15.281 35.672 1.1719 1.2656 2.8594 3.4219 3.75 4.7812 3.4219 5.3438 14.531 11.531 16.078 9 0.42188-0.70312 1.5938-0.70312 4.0312-0.046875 2.6719 0.75 3.3281 1.3125 2.9062 2.5781-0.32812 0.98438 0.23438 2.2969 1.3125 3.2812 0.98438 0.89062 3.2812 4.5469 5.0625 8.1562 3.2812 6.6094 4.7812 8.5312 16.219 20.859 6.7031 7.1719 10.453 9.375 15.469 9.0469 1.6406-0.09375 2.5312 0.28125 2.5312 1.125 0 2.625-4.4062 3-11.016 0.98438zm-699.98-4.2656c-2.8125-2.1094-6.1875-4.6875-7.5-5.625-1.3594-0.98438-3.2812-2.4844-4.3125-3.375s-2.7656-1.875-3.7969-2.2031c-1.0781-0.32812-5.625-3.1406-10.172-6.2344-4.5-3.0938-11.906-7.6406-16.406-10.125-12.375-6.7031-15.516-8.8594-23.531-16.125-10.969-9.9375-9.4219-8.7188-23.016-18.984-14.906-11.297-18.75-14.859-17.438-16.172 1.1719-1.1719 18.094 9.0469 28.969 17.484 1.3125 1.0312 3.7969 2.9062 5.4375 4.1719s5.4375 4.3125 8.3906 6.8438c11.203 9.5156 15.891 12.75 26.109 18.094 5.8125 3.0469 13.828 7.8281 17.859 10.688s8.7188 5.9531 10.453 6.8906 5.625 3.5156 8.6719 5.7188c4.7812 3.4688 5.5312 3.75 5.8125 2.2969 0.60938-3.2344 9.4219-28.828 11.672-33.984 8.25-18.516 12.516-25.031 17.25-26.203 5.3906-1.3594 7.5469 2.3906 14.906 26.109 5.25 16.828 7.6875 28.172 6.7031 30.844-0.28125 0.75-1.6875 1.0781-3.75 0.89062-3.1875-0.28125-3.3281-0.42188-4.4062-5.2969-0.60938-2.7656-1.3594-6.4688-1.6406-8.2031s-1.5469-6.8906-2.7656-11.391c-1.2656-4.5-2.4375-8.9062-2.6719-9.75-0.1875-0.84375-1.4062-5.4844-2.7188-10.359-1.3125-4.8281-2.3438-9.0938-2.3906-9.4219-0.23438-4.7344-12.281 32.297-17.953 55.312-1.2656 5.1562-2.9062 9.9844-3.6562 10.734s-3.0469 1.3125-5.2031 1.3125c-3.1406 0-4.8281-0.70312-8.9531-3.8906zm398.48 2.9062c-9.5156-0.375-20.016-1.0781-23.25-1.5938-3.2812-0.51562-8.9531-1.4062-12.609-2.0156-6.4688-1.0312-42.75-12.516-51.422-16.266-2.3438-1.0312-8.9062-4.4531-14.578-7.6875s-14.016-7.4062-18.562-9.3281c-9.8906-4.2188-10.172-4.3594-22.922-13.828-17.625-13.078-24.984-23.344-24.984-34.734 0-9.9844 1.7812-12.422 15.984-21.984 17.438-11.719 33.797-17.109 61.594-20.344 24.984-2.9062 45.234-3.8438 69.328-3.1875 21.188 0.5625 32.438 1.3594 64.312 4.5938 7.5469 0.75 17.156 1.5938 21.422 1.8281 8.1562 0.46875 11.297 0.79688 42.891 4.5469 22.125 2.625 40.031 6.1406 43.219 8.5781 1.6406 1.2188 8.5781 3.5625 15.656 5.25 8.2031 1.9688 16.312 5.625 22.5 10.172 2.6719 1.9688 7.1719 4.875 9.8906 6.4219 12.844 7.3125 18.984 20.438 12.75 27.141-0.9375 0.98438-1.6406 2.0156-1.5469 2.2969 0.375 1.1719-16.219 17.344-17.812 17.344-0.98438 0-5.25 2.2969-9.4688 5.1094s-9.6094 5.8594-12 6.7969-9.2344 4.1719-15.281 7.2656c-6 3.0469-12.797 6.1875-15.047 6.9844-2.25 0.75-9.6562 3.375-16.453 5.8125-15.469 5.5312-28.266 8.3906-49.734 10.969-8.1562 0.98438-47.438 0.9375-73.922-0.046875zm80.766-7.5469c13.219-2.3438 24.422-5.0625 31.5-7.6406 18.984-6.9844 22.547-8.4375 20.062-8.0625-26.812 4.1719-50.531 5.4844-86.25 4.6875-15.797-0.32812-39.844-0.84375-53.391-1.0781s-28.734-0.84375-33.75-1.3125c-5.0156-0.51562-13.078-1.3125-17.953-1.7344-7.3125-0.70312-15.609-2.0156-25.641-4.0781-2.5781-0.51562-1.875 0.14062 2.2969 2.0625 5.1094 2.3906 10.078 4.0781 21.656 7.4531 5.25 1.5469 12.938 3.7969 17.062 5.0156 16.734 5.0156 41.672 6.7969 89.25 6.4688 19.922-0.14062 28.594-0.5625 35.109-1.7344zm23.25-17.438c22.453-2.2031 32.766-4.3594 45.094-9.2812 21.984-8.7656 40.312-18.562 34.688-18.562-0.51562 0-0.70312-0.42188-0.42188-0.89062 0.32812-0.51562 2.3906-0.89062 4.5938-0.89062 7.4062 0 9.6094-2.3906 10.875-11.719 0.89062-6.7031-4.1719-14.484-12-18.516-2.3438-1.2188-6.8906-4.125-10.078-6.4688-5.8125-4.2656-12.422-7.2656-19.641-8.9062-2.1094-0.46875-6.7031-2.0156-10.219-3.4688-6.7969-2.7656-13.5-4.8281-21-6.4688-9.1406-1.9688-51.703-7.0781-66.609-7.9688-5.5312-0.32812-16.594-1.4062-24.656-2.3438-47.297-5.6719-96.234-6.4688-129.14-2.1562-25.688 3.375-44.297 11.203-60.141 25.312-3.1406 2.8125-4.2188 7.0312-3.4688 13.312 1.0312 8.2969 3.4688 11.25 20.719 24.375 3.2812 2.4844 8.1094 6.5625 10.734 9 6.2344 5.8594 10.172 8.1094 20.625 11.906 14.016 5.0625 20.203 6.375 48.938 10.172 18.375 2.4375 28.172 3 53.391 3.1406 13.547 0.09375 30.188 0.42188 36.938 0.79688 12.703 0.70312 62.625 0.42188 70.734-0.375zm54.75-27.609c-7.4531-2.9062-17.344-5.4844-23.25-6.1406-2.7656-0.28125-19.172-3.4688-31.031-6-4.7812-1.0312-11.859-2.1094-15.75-2.4375s-7.3125-0.89062-7.5469-1.2656 3.4219-0.98438 8.1094-1.3125c6.6562-0.51562 11.297-0.1875 21.234 1.3125 6.9844 1.0781 18.469 2.7656 25.453 3.7031 16.5 2.25 23.344 3.9844 30.094 7.5938 4.4062 2.3438 5.5312 3.4219 5.7656 5.4375 0.23438 2.25 0 2.4844-2.2969 2.3906-1.4062-0.046875-6.2812-1.5469-10.781-3.2812zm-282.79-1.0781c-0.98438-1.6406 5.3438-5.0156 17.953-9.5625 9.2344-3.3281 12.938-4.0781 38.109-7.4531 9.2812-1.2656 21-3.0469 26.016-3.9844 14.438-2.7188 25.594-3.1406 41.062-1.5938 7.5469 0.75 19.172 1.6406 25.922 1.9688 12.703 0.5625 20.859 1.8281 22.453 3.4219 0.60938 0.65625-0.09375 0.75-2.2969 0.32812-8.0625-1.5469-18.609-2.2969-40.594-2.8125-24.656-0.60938-26.766-0.42188-50.203 3.5156-7.5469 1.2656-17.812 2.7656-22.828 3.3281-5.0156 0.5625-12.422 1.4062-16.453 1.875-7.2188 0.84375-20.531 5.0625-30.281 9.5156-5.25 2.3906-8.0156 2.8594-8.8594 1.5zm-120.98 50.062c-0.51562-0.98438-1.7812-1.8281-2.7188-1.8281-0.98437 0-2.8125-0.46875-4.0781-1.0312-8.4844-3.8906-5.625-16.312 5.625-24.422 4.5-3.2344 5.7656-5.5312 12.703-23.016 5.625-14.156 7.5469-18.047 13.781-27.516 3.8438-5.8125 4.0781-6.6094 3.9844-11.859-0.23438-8.7656 1.5938-18.891 3.9844-22.594 3.375-5.2031 10.641-7.7812 15.141-5.3438 1.3594 0.75 2.3438 0.51562 4.4062-1.0312 1.875-1.4062 3.375-1.7812 5.0156-1.3594 2.2031 0.5625 2.3438 0.84375 1.7344 4.4062l-0.60938 3.8438 2.6719-1.7344c1.4531-0.9375 3.4688-2.25 4.4531-2.9531 1.6406-1.125 7.7812-1.7812 7.7812-0.84375 0 2.1562-3.2812 13.547-5.0625 17.531-2.9062 6.6094-9.6094 15.984-12.562 17.531-1.9219 1.0312-13.406 19.406-13.406 21.422 0 0.5625-5.7188 12.984-11.016 23.859-1.4531 3-3.9844 7.5469-5.6719 10.031-2.8594 4.3125-5.7188 9.9375-8.625 16.781-0.98437 2.3906-1.0312 3.2344-0.23437 3.7969 1.5469 0.98438 0.32812 2.4844-4.4531 5.5312-5.2031 3.2812-11.391 3.7031-12.938 0.84375zm12.75-11.859c1.3594-4.2656 4.1719-10.828 6.3281-14.578s5.5312-10.312 7.5469-14.578c14.25-30.141 20.297-40.594 24.703-42.703 1.3594-0.65625 4.5938-4.2656 7.125-8.0156 4.5-6.6562 9.6562-18.328 8.5781-19.359-0.70312-0.70312-4.3594 3.7969-7.6875 9.4219-5.0625 8.625-9.8906 12.047-13.594 9.7031-0.9375-0.60938-0.60937-1.6406 1.5469-4.8281 2.2969-3.4219 6.5156-12.516 6.5156-14.109 0-1.2656-1.9219 1.0312-5.9531 7.125-4.8281 7.2656-5.5781 7.9688-7.9688 8.0156-2.625 0.046875-2.7656-2.2969-0.375-6.0938 2.9062-4.5938 5.8125-12.75 4.875-13.688-0.42188-0.42188-2.0625 0.75-3.75 2.5781-4.5 4.9219-6.3281 15.797-4.125 24.984 0.79687 3.375 0.60937 4.0312-2.5312 8.6719-1.875 2.7656-4.6875 6.7031-6.2344 8.8125-3.2812 4.3594-9.2344 16.312-13.219 26.578-4.3594 11.25-6.6562 15.047-11.25 18.516-8.0625 6.1406-11.391 13.922-7.875 18.422 2.1094 2.6719 4.0312 3.2344 10.406 3.0469l4.5-0.14062 2.4375-7.7344zm579.47 9.0469c-6.375-2.4844-11.109-6.7969-14.25-12.891-2.0156-3.9844-5.4844-8.4844-9.75-12.797-3.6094-3.6562-7.5-7.8281-8.625-9.375-1.0781-1.5-3.1875-4.4062-4.6406-6.4219-1.4531-2.0156-4.875-6.1406-7.6406-9.1406-2.7656-3-5.6719-6.4688-6.5156-7.7344-1.8281-2.6719-2.0156-5.4844-0.375-5.4844 1.4531 0 16.547 15.469 24.703 25.312 3.4219 4.125 7.4062 8.3906 8.9062 9.4219 1.4531 1.0312 2.9062 3 3.2344 4.3594 0.32812 1.3594 1.4531 3.4688 2.5781 4.7344 1.0781 1.2656 3.7031 4.6406 5.8594 7.5 4.3594 5.9062 10.359 9.75 12.516 7.9688 0.70313-0.5625 1.5469-2.4375 1.8281-4.125 0.60937-3.1875 2.625-4.5469 5.2969-3.5156 2.2031 0.84375 2.1094 9.6094-0.1875 11.625-1.875 1.6875-9.1406 1.9688-12.938 0.51562zm-710.39-3.1406c-3-0.65625-7.3125-1.2656-9.5625-1.2656-2.25-0.046875-4.6875-0.42188-5.3438-0.84375-2.0156-1.2656-0.28125-2.8125 3.2344-2.8125 2.9062 0 6.1406 0.65625 17.906 3.75 1.875 0.51562 3.1875 1.3125 2.9062 1.7812-0.65625 1.0781-2.25 0.98438-9.0938-0.5625zm715.4-16.828c-0.98438-1.5-3.8438-4.5-6.2812-6.6094s-6.3281-5.9062-8.6719-8.4375c-4.5-4.8281-14.906-15.094-20.203-19.922-3.8906-3.5156-6.9375-7.5938-10.828-14.531-2.9062-5.1562-3-5.25-6.3281-4.6875-3.1875 0.51562-13.828-1.8281-13.828-3 0-0.28125 2.4375-0.28125 5.4375 0.046875 6.2812 0.65625 6.6094 0.32812 8.2969-7.5469 0.89062-4.0781 0.75-5.1094-0.9375-8.5312-3.7969-7.6875-6.1875-9.6094-14.484-11.719l-7.5938-1.9219-4.875 2.3906c-2.6719 1.3125-6 3.8906-7.4062 5.6719-2.1094 2.7656-2.5312 4.1719-2.4844 8.7656 0.046874 4.5 0.51562 6.1406 2.6719 9.1875 3.375 4.7812 6.8438 6.75 15.609 8.9062 8.4844 2.0625 11.156 3.1875 11.156 4.5469 0 0.60938-0.84375 0.84375-2.0625 0.51562-1.125-0.28125-6.0938-1.3594-11.062-2.4375-13.359-2.8594-18.75-6.2812-21.938-13.875-4.3125-10.359 1.6406-21.094 13.922-24.938 4.7344-1.5 5.3906-1.5 12.844 0.046875 4.3125 0.89062 9.1875 1.8281 10.828 2.0625 2.2031 0.32812 4.0781 1.7344 7.4062 5.5781 5.3906 6.2344 7.125 9.4688 9.375 17.578 0.9375 3.4219 2.9531 8.2031 4.4531 10.641s3.5625 6.2344 4.6406 8.4375c1.0781 2.2031 2.7656 5.6719 3.75 7.6875 1.7812 3.5625 9.6562 11.672 23.906 24.516 6.7969 6.1406 10.406 11.438 9.1875 13.406-0.98438 1.5938-2.6719 0.89062-4.5469-1.875zm-747.28-22.688c-0.28125-0.46875 0.1875-1.0781 0.98438-1.4062 1.7812-0.70312 4.875 0.1875 4.875 1.3594 0 1.0781-5.2031 1.125-5.8594 0.046875zm-11.062-6.5156c-4.6875-3.75-10.875-6.375-14.953-6.375-4.4531 0-6.6562-1.7344-6.7969-5.3438-0.09375-2.5312-0.375-2.8594-2.1094-2.4375-1.0781 0.28125-3.0469 0.09375-4.3125-0.375-2.1094-0.79688-2.25-1.0781-1.2656-3.2812 0.84375-1.8281 1.5938-2.2969 3.2812-1.9688 1.2188 0.23438 3.2812-0.14062 4.5938-0.84375 6.4219-3.375 9.8438-0.1875 10.125 9.4688 0 0.60938 0.65625 1.125 1.4531 1.125 2.4375 0 8.9531 3.7031 12.516 7.125 5.8125 5.5781 3.75 7.9219-2.5312 2.9062zm41.578-18.75c-1.875-0.79688-6.4219-1.4531-11.109-1.5469-8.0625-0.1875-10.078-0.79688-8.2969-2.5781 0.70312-0.70312-0.28125-2.1094-3.7031-4.9688-2.5781-2.2031-5.4375-4.5938-6.3281-5.3906-0.89062-0.75-1.9688-1.4062-2.3906-1.4062s-1.3125-0.60938-1.9688-1.3594c-0.60938-0.75-2.8125-2.2031-4.9219-3.2344-2.0625-1.0312-5.3906-2.8125-7.4062-3.9844-4.5938-2.6719-12.094-6.8438-19.172-10.641-21.703-11.672-28.312-15.375-35.297-19.641l-7.9219-4.875-1.875 4.0312c-1.0312 2.2031-3.2812 6.1875-4.9688 8.8594s-3.9844 6.8906-5.0625 9.375c-1.125 2.5312-4.2188 9.4688-6.8438 15.516-3.5156 7.9219-5.4844 11.344-7.2188 12.328-4.3594 2.4844-4.4531 0.28125-0.51562-10.5 4.4531-12.141 17.203-38.672 19.594-40.734 2.625-2.2969 7.0312-2.9062 10.547-1.4531 1.6875 0.70312 6.1406 3.2812 9.9375 5.7656 6.6094 4.3125 21.328 11.906 40.594 20.906 21.703 10.172 34.219 16.828 40.641 21.609 3.75 2.8125 10.219 6.7969 14.344 8.8594 4.3594 2.2031 7.5469 4.3125 7.5469 5.1094 0 1.7812-3.9844 1.7344-8.2031-0.09375zm-88.5-10.125c-1.9219-0.70312-3.6562-3.0469-3.6562-5.0156 0-2.3438 2.0625-2.0625 4.5469 0.60938 1.1719 1.2656 2.8594 2.2969 3.75 2.2969 2.4375 0 4.5469 1.0312 3.9844 1.9219s-6.3281 0.98438-8.625 0.1875zm-24.516-5.0625c-1.8281-0.89062-2.0625-1.5469-1.6875-4.3125 0.51562-3.7031 3.8438-11.578 5.9062-13.922 0.9375-1.0781 2.7188-1.5938 5.3438-1.5938 4.9219 0 5.6719 1.2188 6.3281 10.219 0.28125 3.6562 0.70312 7.6406 0.9375 8.8125 0.42188 2.0625 0.28125 2.1094-3 1.5-4.4062-0.79688-5.4844-1.7344-6.2344-5.2969l-0.60938-2.8594-1.3125 2.4844c-0.70312 1.3594-1.1719 3.1875-1.0312 4.0312 0.32812 1.9219-1.7344 2.3438-4.6406 0.9375zm1062.9-8.9531c-16.734-1.0312-23.859-2.3906-31.922-6.0938-6.2812-2.9062-7.875-3.2344-19.547-3.9844-11.766-0.75-13.078-1.0312-17.812-3.6562-8.8594-4.9688-12.422-10.312-13.734-20.672-0.84375-6.7031 0.14062-11.438 2.8594-13.312 1.7344-1.2188 1.8281-1.875 1.2656-8.9062-0.32812-4.1719-0.79688-8.8125-0.98438-10.312-0.46875-3.3281-1.7812-113.16-1.7812-145.08 0-21 0.1875-23.391 2.1094-30.094 3.1406-11.016 16.219-41.109 21.047-48.375 2.3438-3.5156 4.4062-6.7969 4.5938-7.3125s0.65625-1.125 0.98438-1.3594 1.9688-3.7031 3.6094-7.6875c2.9531-7.125 5.0625-17.203 6.0469-28.781 0.28125-3.2812 0.70312-6.8438 0.89062-7.9219 0.23438-1.125 0.65625-5.0156 0.9375-8.6719s0.70312-7.2188 0.89062-7.875c0.51562-1.6406 0.46875-59.625-0.046875-86.391-0.42188-20.062-0.84375-29.297-1.875-37.875-2.1094-18.094-2.4844-49.922-0.65625-54.281 0.65625-1.5 1.3125-4.8281 1.4531-7.3594 0.51562-7.3594 1.3594-8.25 8.5312-8.9062 13.594-1.2656 28.641-0.09375 32.438 2.5312 4.7344 3.3281 4.8281 3.8438 4.5469 28.781-0.14062 13.5 0.09375 23.812 0.60938 24.562 0.46875 0.70312 2.5312 1.4062 4.5938 1.5469 4.5 0.32812 7.4062 1.7812 7.4062 3.6562 0 1.6875-5.2969 4.0312-9.1875 4.0312h-2.8594l0.46875 19.828c0.32812 13.875 0.89062 21.375 1.875 24.844 1.7344 6.1875 2.25 11.625 2.9531 31.922 0.28125 8.7656 0.70312 16.594 0.89062 17.344s0.5625 4.4531 0.84375 8.2031 0.70312 8.2969 0.9375 10.031 0.65625 5.8594 0.9375 9.1406 0.89062 8.4844 1.3594 11.578 1.2656 9.0469 1.7344 13.219 1.0312 8.4375 1.2656 9.4219c2.625 11.109 4.4531 18.188 5.1094 19.875s5.625 7.4531 11.297 13.125c2.8125 2.8125 13.359 11.25 14.062 11.25 0.79688 0 5.9531 6.6094 8.5781 10.969 2.2969 3.8438 5.8594 13.734 7.875 21.891 2.5312 10.359 5.25 25.359 6.2344 34.219 0.28125 2.5312 1.3125 9.0938 2.2969 14.578 0.98438 5.5312 1.9688 11.062 2.1094 12.328s0.60938 4.2656 0.9375 6.6562c0.79688 5.4844 1.1719 19.688 1.8281 70.359 0.375 28.031 0.84375 40.453 1.5469 41.344 0.65625 0.79688 0.98438 4.7344 0.84375 11.016-0.1875 9.4219-0.14062 9.7969 1.9219 10.688 2.2969 0.98438 2.1562-0.46875 2.625 21.562 0.23438 9.2344 0 11.953-1.1719 13.688-2.5781 3.9844-9.375 10.031-13.734 12.234-5.2969 2.7188-24 6.4219-38.578 7.6875-6 0.51562-12.797 1.0781-15.047 1.2656s-9.6562 0.046875-16.406-0.375zm21-7.0781c3.75-0.65625 9.7031-1.6406 13.219-2.1094 3.5156-0.51562 10.031-1.9219 14.438-3.0938 6.9844-1.875 8.625-2.7656 12.234-6.3281 2.2969-2.25 4.5-4.125 4.8281-4.125 0.70312 0 1.6875-2.6719 2.3906-6.375 0.23438-1.2656 0.75-2.6719 1.1719-3.1875 1.3125-1.6875 3.6094-9.9375 4.2188-15.328l0.60938-5.25h-2.8594c-2.5781 0-2.8594-0.28125-2.8594-2.9531 0-1.6406-0.51562-4.8281-1.0781-7.0781-0.70312-2.7656-1.125-17.953-1.2656-46.078-0.1875-42-0.98438-73.172-2.1094-82.594-0.5625-4.875-0.65625-5.0156-3.3281-4.875-1.5 0.09375-14.203 0.1875-28.266 0.28125s-27.375 0.5625-29.625 1.0781c-4.2656 0.9375-9.0938 0.32812-7.6875-0.98438 1.8281-1.6875 10.406-3.6094 18.328-4.125 4.5938-0.28125 8.9062-0.70312 9.5625-0.9375 0.98438-0.32812 23.109-1.125 37.125-1.3594l3.0938-0.046875-0.60938-5.25c-1.3125-11.812-4.1719-30.562-5.3438-35.344-0.51562-2.0156-1.0312-4.4531-1.2656-5.4844-0.1875-0.98438-0.5625-3.0469-0.89062-4.5469-0.89062-4.5938-4.0781-13.359-7.3594-20.203-3.6562-7.5469-8.9062-13.219-18-19.219-3.5156-2.3438-8.0625-6.0938-10.125-8.3438s-4.7812-5.1562-6.0938-6.4219c-3-2.9531-5.3906-7.8281-5.3906-10.969 0-1.3125-0.32812-2.8125-0.75-3.2812-1.125-1.2656-3.375-13.266-4.3125-23.203-0.28125-3.1406-1.125-9.8438-1.6875-13.688-1.0312-6.9375-1.7344-22.172-1.6875-36.938 0-8.5312 0.14062-33.516 0.23438-55.5s0.046875-40.125-0.09375-40.312c-0.70312-0.65625-27.047-0.89062-26.625-0.23438 0.9375 1.5-2.7656 1.7812-5.1562 0.375-3.75-2.2031-5.8125-2.0156-5.1094 0.5625 1.3594 4.9219 3 18.656 3.75 31.266 0.28125 5.0156 0.70312 10.031 0.98438 11.156 2.0625 9.5156 3.6562 78.281 2.1562 92.859-4.1719 40.594-5.4844 45.938-15.047 61.125-4.6406 7.4062-7.5938 13.078-11.953 22.781-8.1094 18.094-9.3281 21.328-12.281 31.969-1.3125 4.7812-1.4062 12.188-0.9375 78 0.14062 17.812 0.14062 53.203 0.046875 78.609s0.14062 46.641 0.46875 47.203c0.375 0.60938-0.09375 1.0312-1.2656 1.0312-3.0469 0-3.1406 2.3906-0.375 8.0156 3.9375 7.9219 9.6562 11.344 22.172 13.453 5.2969 0.89062 12.281 2.625 15.469 3.8906s6.8906 2.5781 8.2031 2.9531c4.0312 1.125 39.234 0.5625 46.641-0.70312zm-3.6562-60.422c-19.312-0.60938-27.469-2.0156-28.594-4.9688-0.5625-1.4062 0.89062-6.5625 2.3906-8.4375 1.5938-2.0625 3.4219-1.2656 3.4219 1.4062 0 1.4062 0.5625 3.375 1.3125 4.3125 1.2188 1.6875 2.6719 1.7812 30.797 1.7812 23.203 0.046875 30.234 0.32812 32.906 1.3125 1.875 0.70312 3.4219 1.5938 3.4219 2.0156 0 0.98438-4.2656 1.9688-5.4375 1.2188-0.51562-0.32812-4.1719-0.14062-8.0156 0.375-10.875 1.5-12.188 1.5469-32.156 0.9375zm-26.578-20.625c-1.5-1.8281-1.6406-13.031-0.42188-35.906 0.46875-8.7656 0.84375-27.562 0.79688-41.766-0.046875-24 0.046875-25.781 1.5469-25.781 4.5469 0 7.2656 38.391 5.25 73.922-0.375 6.2812-0.65625 15.797-0.70312 21.234l-0.046875 9.7969h-2.625c-1.4531 0-3.1875-0.65625-3.8438-1.5zm-22.359-407.68c-0.28125-0.70312 0-1.5938 0.5625-1.9219 0.79688-0.51562 0.75-0.84375-0.1875-1.4531-0.84375-0.51562-0.375-0.79688 1.5469-0.79688 1.5469 0 3.2344 0.46875 3.8438 1.0312 0.65625 0.65625 5.3438 1.0781 13.031 1.125l12 0.09375 0.1875-24.656c0.23438-27.094 0.09375-27.75-5.2031-29.625-4.3125-1.5-14.953-2.2031-22.734-1.4531l-6.9375 0.65625-1.9688 4.875c-2.2031 5.3906-2.2969 7.6406-1.4531 28.734 0.79688 19.969 1.3594 23.016 4.1719 23.812 3.4219 0.9375 3.6094 0.9375 3.0938-0.46875zm-124.45 489.71c-5.25-0.14062-10.594-0.51562-11.859-0.84375l-2.2969-0.60938 2.2969-0.70312c1.2656-0.375 6.375-0.75 11.391-0.84375 9.8906-0.14062 11.812-0.46875 25.547-4.2188 11.812-3.2344 14.344-5.1094 16.266-11.953 0.89062-3.0938 1.2656-6.6562 0.9375-8.625-0.65625-3.9844-3.6562-5.9062-14.016-9-8.7656-2.625-19.031-7.4062-19.594-9.1406-0.60938-1.9688-3.9844-29.297-4.6406-37.406-0.28125-3.75-0.70312-8.4844-0.9375-10.5s-0.65625-7.7812-0.98438-12.797c-0.51562-8.5781-0.42188-9.4219 1.7344-13.688 2.25-4.4062 9.375-14.484 15.469-21.797 1.6406-1.9688 2.9531-4.0312 2.9531-4.5469 0-0.5625 1.2188-1.8281 2.6719-2.8125 3.6562-2.4844 8.9062-12.562 14.344-27.609 4.0312-11.109 7.9219-23.25 8.4375-26.438 0.09375-0.60938 0.46875-1.4062 0.84375-1.7344 0.32812-0.32812 0.65625-1.3125 0.65625-2.1562s0.60938-2.7656 1.3594-4.2656c2.0156-4.0312 2.4375-11.625 1.6406-28.406-0.375-8.2031-0.42188-15.703-0.046875-16.641 0.46875-1.2188 1.5-1.7812 3.4688-1.7812 3.9844 0 5.0625 3.3281 5.9062 18.234 1.0312 18.328 0.79688 22.734-1.6875 30.234-1.2188 3.7031-3.3281 10.547-4.6875 15.188-3.7969 13.078-12.422 33.75-17.156 41.109-2.3438 3.6562-4.3125 6.7969-4.3125 6.9844s2.7656 0.9375 6.1406 1.7344c3.375 0.75 9.2344 2.1094 12.984 2.9531 7.2188 1.6406 17.344 6.1875 17.344 7.7812 0 1.5469-2.0156 4.875-3.6094 6.0469-4.0312 2.8594-10.078 8.8594-10.078 10.031 0 0.70312-4.4062 5.9531-9.7969 11.625s-11.859 12.562-14.391 15.234c-2.9062 3.0938-7.5 6.5156-12.609 9.375l-8.0625 4.4531 0.46875 3.3281c0.23438 1.8281 0.75 7.9688 1.125 13.641 0.65625 10.219 0.65625 10.359 3.5156 12.516 3.75 2.8594 9.75 5.4375 16.031 6.7969 10.828 2.4375 26.625 9.5625 24.891 11.297-0.32812 0.32812-0.14062 0.5625 0.375 0.5625s1.6406 1.0312 2.4844 2.2969c1.4062 2.1562 1.4062 2.5312-0.23438 6.1406-2.2031 4.875-7.9688 10.922-12.75 13.359-4.875 2.4844-30.938 8.4375-35.438 8.1094-1.4531-0.09375-6.9375-0.32812-12.188-0.46875zm24.188-92.672c2.3906-3.375 5.9062-8.9062 5.6719-8.8594-0.84375 0-12.75 4.5938-15.469 5.9531-3.2812 1.6406-3.4219 1.875-3.4219 6.375 0 2.5781 0.23438 4.9688 0.5625 5.25 0.79688 0.79688 10.875-6.1875 12.656-8.7188zm-3.0469-10.266c3.0469-0.79688 12.094-7.125 21-14.578 4.1719-3.5156 9.2344-7.5938 11.25-9.0938s4.8281-3.7969 6.2812-5.1094l2.625-2.4375-4.9688-2.4375c-3.6094-1.7812-24.141-7.7344-26.953-7.8281-0.09375 0-3.2812 3.8906-7.0781 8.625-3.75 4.7344-7.2656 8.8594-7.7812 9.1875-1.9688 1.2188-0.70312 2.1562 5.2969 3.9844 6.5625 1.9688 12.562 5.4375 12.141 6.9375-0.375 1.5469-4.8281 0.65625-11.062-2.1562-8.9531-4.0312-9.75-4.1719-11.016-1.8281-1.5938 3-2.0156 7.5938-1.3125 14.953l0.60938 6.5625 4.4062-2.1094c2.4375-1.1719 5.3906-2.3906 6.5625-2.6719zm-63.094 99.094c-4.2656-0.89062-8.9062-2.1094-10.312-2.6719-6.1875-2.4844-11.953-8.8125-10.828-11.953 1.5-4.2656 4.9219-8.1094 8.1094-9.1406 1.9219-0.60938 4.5-2.0625 5.7656-3.2344s4.9688-3.1406 8.2031-4.3594c9.7031-3.6562 25.312-11.438 25.875-12.938 0.28125-0.75 1.0781-1.3594 1.7344-1.3594 0.98438 0 0.98438-1.7812 0.046875-10.266-0.65625-5.625-1.3594-10.734-1.5938-11.344-0.70312-1.7812-15.375-0.79688-23.812 1.5938-6.7031 1.875-9.6094 2.1094-36.797 2.4375-24.234 0.32812-31.172 0.14062-38.766-1.0781-5.1094-0.79688-10.922-1.6875-12.938-1.9688s-6.0938-1.0312-9.1406-1.7344c-3-0.70312-8.7656-1.9688-12.797-2.8125-11.344-2.3438-12.984-2.9062-24.656-8.5781-6-2.9062-13.406-6.2344-16.406-7.3594s-8.9531-4.4062-13.219-7.2188c-4.2656-2.8594-9.6562-6.2812-12-7.5938-7.2656-4.1719-6.375-7.1719 1.0312-3.375 1.9688 0.98438 4.125 1.8281 4.7344 1.8281 0.65625 0 2.3438 0.60938 3.75 1.3594 4.875 2.5312 13.828 4.7812 30.703 7.6875 9.2812 1.5938 19.734 3.4688 23.25 4.2188 25.828 5.25 28.172 5.4375 64.312 5.3906 31.641-0.046875 35.109-0.23438 46.078-2.2031 6.5156-1.1719 14.906-2.1562 18.562-2.2031l6.7031-0.09375-0.51562-7.5938c-0.65625-9.5156-2.2969-18.844-3.8906-22.734-0.70312-1.6406-2.7656-3.9375-4.6406-5.1562-8.25-5.2031-18.422-10.547-23.484-12.375-5.4375-1.9688-20.859-12.656-24.703-17.109-1.9219-2.2031-2.1094-2.25-7.7344-1.2188-3.1875 0.5625-9.7031 1.6406-14.531 2.3438-12.328 1.7812-23.953 3.8438-39.75 7.0312-7.5469 1.5-17.391 3.2812-21.891 3.9375s-12.094 2.25-16.875 3.5625-10.5 2.8125-12.797 3.4219c-2.25 0.5625-5.3438 1.9688-6.8438 3.0469-1.5 1.125-4.7812 3.1406-7.3125 4.5469s-7.5 4.7812-11.109 7.5c-4.9688 3.75-7.1719 4.875-9.0938 4.6406-1.4531-0.1875-2.7188-0.9375-2.8594-1.7344-0.32812-1.7812 7.2188-9.2344 16.406-16.125 6.5625-4.9219 8.0156-5.5781 22.828-9.9844 8.6719-2.5781 18.656-5.0156 22.172-5.3438s12.141-1.7812 19.172-3.2344 14.203-2.6719 15.984-2.6719 6.7031-0.60938 10.969-1.3125c6.9844-1.1719 23.531-2.25 34.875-2.3438h4.3125l-5.5312-10.922c-5.4375-10.688-6.0938-12.375-6.2344-15.938-0.14062-3.6094-1.4531-0.1875-1.5469 4.125-0.1875 6.9375-0.23438 7.0781-2.3438 7.7344-3.5156 1.125-4.4062-1.5469-4.4062-13.547 0-9.9844-0.14062-10.828-1.5938-10.219-0.89062 0.375-3.4219 1.0312-5.7188 1.4531-2.25 0.42188-6.9844 1.6406-10.5 2.6719s-9.6562 2.4844-13.688 3.2344-9.5625 2.0625-12.328 2.9531c-4.4531 1.4062-5.2031 2.0156-6.75 5.4375-1.125 2.5312-2.3438 3.8906-3.4219 3.8906-1.7344 0-1.7344 0.1875 0.14062-7.3125 1.4531-5.7188 33.844-17.719 50.156-18.609 3.6094-0.1875 6.7031-0.51562 6.9375-0.75s-0.23438-2.8594-1.0312-5.8125c-2.8125-10.688-4.0312-22.875-3.6094-37.5 0.1875-7.7812 0.60938-14.391 0.89062-14.672 1.3594-1.3594 0.046875-3.5625-5.2969-8.7188-4.4062-4.2656-6.2812-6.9375-7.875-11.109-2.5781-6.8438-3.375-18.281-1.6875-24.656 0.75-2.8125 0.98438-5.9531 0.5625-8.2031-1.5938-9-2.4844-12.938-3.4688-15.422-1.4062-3.7031-0.75-4.8281 3.3281-5.3438 1.9219-0.23438 5.1094-0.89062 7.125-1.4531s6.0938-0.98438 9.1406-0.98438h5.4844l0.32812-38.109c0.46875-55.078 0.46875-74.344 0.046875-84.469-0.32812-8.3906-0.23438-9.0938 1.6406-10.594 2.0625-1.6875 10.312-2.4844 10.312-1.0312 0 0.42188-1.5938 1.4062-3.5625 2.2031-4.3125 1.7344-4.8281 3.8438-3.75 15.188 0.42188 4.2656 0.98438 14.109 1.2656 21.891s0.79688 21.328 1.125 30.094 0.70312 18.234 0.89062 21 0.5625 13.781 0.9375 24.562l0.60938 19.5 9.8906-0.5625c5.4375-0.32812 9.8906-0.23438 9.8906 0.1875 0 1.0312-4.3125 1.875-13.125 2.5312-5.9531 0.46875-7.2656 0.84375-7.6406 2.25-0.65625 2.4375-5.8125 2.2969-7.3594-0.1875-1.0312-1.6406-1.7344-1.7812-5.4844-1.2656-4.7344 0.65625-8.7656 2.7656-7.9219 4.0781 1.1719 1.9219 67.969-1.5469 73.969-3.8438 4.0312-1.5469 5.3906-0.65625 6.7969 4.3594 2.7656 9.7031-0.09375 28.312-5.6719 37.5-1.9688 3.1875-6.1406 4.4062-4.8281 1.3594 0.375-0.89062 1.8281-5.4375 3.2812-10.078 3.0469-9.9375 4.0312-18.047 3.1406-25.219-0.51562-4.2188-0.89062-5.0625-2.1562-4.6875-2.25 0.70312-22.312 3.0938-30.703 3.6562-4.0312 0.28125-15.984 0.75-26.625 1.0781l-19.312 0.5625 1.3594 3.75c0.75 2.0625 1.8281 4.5469 2.3438 5.5312 2.3906 4.4062 0.79688 16.219-3.2344 23.953-3.9844 7.7344-2.3438 14.953 5.1562 22.078 2.3438 2.2031 3.9844 4.3594 3.75 4.7812-1.125 1.875 2.4375 1.5469 7.3594-0.60938 7.125-3.1406 17.625-5.5312 31.969-7.3125 6.5156-0.79688 13.547-1.8281 15.562-2.2969 3.7969-0.84375 13.219-1.6875 24.891-2.1562 7.8281-0.32812 22.922 0.70312 30.703 2.0625 3 0.51562 11.156 1.5938 18.094 2.3438s13.312 1.7344 14.156 2.2031 3.6094 1.0781 6.1406 1.4531c5.5781 0.75 7.2656 1.6875 6.5156 3.6094-0.375 0.98438-0.046875 1.5 1.0312 1.5469 3.375 0.14062-2.0156 1.4531-6.7969 1.6406-2.625 0.09375-7.3594 1.2188-10.547 2.4844-10.312 4.125-19.453 6.1406-39.984 8.8594-29.438 3.8438-45.75 4.125-61.125 1.0312-3.75-0.75-11.531-1.9688-17.25-2.7656-5.7188-0.75-12.047-1.6406-14.016-1.9688l-3.6094-0.5625 0.5625 8.1094c1.3125 18.469 2.2031 23.391 7.2188 40.5 1.2656 4.2656 3.2812 11.906 4.5469 16.922 5.2031 21.094 19.219 39.562 38.531 50.672 4.2188 2.4375 10.734 6.4688 14.438 9s7.4062 4.5938 8.25 4.5938c1.5469 0 4.9688 4.8281 6.75 9.5625 3.8438 9.9844 4.1719 13.781 4.125 44.25-0.046875 16.312-0.375 30.375-0.70312 31.266-0.42188 0.98438-1.6406 1.5938-3.3281 1.5938-1.4531 0-5.8125 1.5938-9.7031 3.5625s-10.172 4.6406-13.969 6c-5.0156 1.7812-8.1094 3.5625-11.156 6.5156-2.2969 2.2031-4.7812 4.0312-5.5312 4.0312-0.70312 0-1.5469 0.65625-1.875 1.4531-2.25 5.9062 3.75 10.078 19.641 13.547 6.4688 1.4062 10.969 3.4219 9.8906 4.4531-1.4531 1.3594-10.406 1.2656-17.344-0.23438zm8.2969-68.953c4.7344-0.75 10.641-1.9219 13.172-2.625l4.5469-1.2188 0.5625-12.375-3 0.60938c-1.6406 0.32812-9.7031 1.4062-17.812 2.3438-15.234 1.7812-32.297 1.7812-46.312 0-3.5156-0.46875-8.0156-0.5625-10.031-0.28125s-14.719 0.5625-28.266 0.5625c-23.484 0.046875-25.219-0.046875-36.75-2.4844-6.6562-1.4062-12.562-2.3438-13.125-2.1562-1.3125 0.42188 10.922 5.625 17.484 7.4531 4.5469 1.2656 24.375 4.7344 39.234 6.9375 3.2812 0.46875 10.266 1.0781 15.516 1.3594 26.016 1.3594 31.219 1.6875 39.234 2.2969 13.922 1.0781 16.547 1.0312 25.641-0.42188zm18.328-184.36c30.938-2.5781 52.5-6.7031 57.188-10.969 1.8281-1.6406-2.7188-2.8594-15.375-4.0781-5.7656-0.5625-14.203-1.6875-18.703-2.5781-9.5156-1.7812-34.312-2.0156-42.422-0.32813-2.7656 0.5625-10.969 1.6875-18.234 2.4844-14.297 1.5469-24.375 3.8906-30.422 6.9844l-3.7969 1.9688 15.516 2.5781c36.094 6 33.422 5.8125 56.297 3.8906zm-721.55 237.61c-10.031-0.32812-20.531-1.0781-23.25-1.5938-2.7656-0.5625-8.2969-1.5938-12.328-2.3438-23.484-4.3125-33.703-6.8438-41.531-10.312-2.7656-1.2188-8.2969-3.4688-12.328-4.9219-10.453-3.8438-21.094-9.2344-27.141-13.781-2.9062-2.1562-7.7812-5.7188-10.828-7.9219-7.5938-5.4844-11.016-10.312-10.641-15.047 0.23438-3.2344 0.70312-3.8906 4.3594-6 2.25-1.3125 7.5938-3.75 11.859-5.4375s10.5-4.4531 13.875-6.1406 6.5625-3.0469 7.0312-3.0469c0.51562 0 3.0938-0.98438 5.7188-2.2031 22.688-10.406 30.75-12.938 47.25-15.094 8.5312-1.125 17.156-2.25 26.906-3.6562 18.516-2.5781 73.453-2.9062 96.703-0.60938 8.0156 0.79688 18.891 1.875 24.188 2.3906 11.438 1.125 19.359 2.3438 27.375 4.2188 10.266 2.3906 40.781 11.906 45.375 14.109 6.2344 3.0469 12 7.875 13.969 11.766 1.6875 3.2812 1.6875 3.4688 0 6.7031-0.9375 1.8281-2.8594 4.2656-4.2656 5.3438-1.4062 1.125-5.1094 4.2656-8.1562 7.0312-3.0938 2.7656-8.1562 6.1875-11.391 7.6406-9.2812 4.125-13.828 6.375-17.531 8.625-3.0938 1.875-32.531 13.875-33.984 13.875-0.32812 0-3.2344 1.2656-6.4219 2.7656-8.5781 4.0781-36.75 10.594-49.266 11.391-4.4531 0.28125-10.359 0.89062-13.125 1.3594-7.4062 1.2188-21.844 1.5-42.422 0.84375zm38.25-7.5938c5.5781-0.70312 13.594-1.7344 17.859-2.25s11.438-1.7812 15.984-2.8594c4.5-1.0781 9.8438-2.25 11.859-2.6719 3.9375-0.79688 10.922-3.6094 10.359-4.1719-0.51562-0.51562-23.344 1.1719-36.328 2.6719-24.609 2.8594-37.688 3.4219-68.906 2.8594-38.578-0.70312-47.484-1.6406-62.484-6.375-8.7188-2.7656-10.125-2.25-2.2969 0.79688 10.781 4.2188 24.047 7.2656 49.734 11.344 13.641 2.2031 49.359 2.5312 64.266 0.5625zm-21.375-14.109c5.7656-1.125 14.203-2.5781 18.703-3.3281 9.4688-1.5 27.469-1.7812 28.266-0.42188 0.32812 0.51562-0.1875 0.89062-1.0781 0.9375-6.0938 0-26.25 2.0625-30.375 3.1406l-5.0156 1.2656 5.0156-0.375c19.125-1.4062 31.547-2.4375 32.016-2.7188 0.28125-0.1875 10.922-0.98438 23.625-1.7812 24.516-1.5469 30.797-2.8125 42.656-8.3906 4.2188-2.0156 4.6875-2.4844 3.7031-3.7969-1.0781-1.3594-4.4531-4.6875-4.7812-4.6875-2.9062 0-12.562-2.7656-18.984-5.3906-16.266-6.75-28.734-8.8594-54.047-9.3281-6.5156-0.09375-13.312-0.46875-15.047-0.75-2.1094-0.375-1.6875-0.79688 1.3594-1.2188 2.5312-0.375 13.172-0.70312 23.719-0.75 20.25-0.09375 31.547 1.125 43.359 4.6406 11.344 3.4219 15.094 4.5 20.531 6.0469 6.6562 1.875 7.7344 2.6719 7.7812 5.7656 0.046875 4.5 0.89062 4.875 7.3594 3.2344 3.2344-0.79688 8.2031-2.7656 11.109-4.3594 6.6562-3.6562 18.047-14.672 18.047-17.484 0-2.2031-5.3438-7.5938-9.8906-9.9375-4.5-2.3438-14.109-5.7188-17.953-6.3281-2.0156-0.32812-6.75-1.6406-10.5-2.9531-7.5938-2.625-21.094-5.8125-27.375-6.4688-44.016-4.5938-50.109-5.0156-81.047-5.5312-21.656-0.32812-34.266-0.1875-38.344 0.46875-3.3281 0.5625-11.016 1.5-17.016 2.0625-11.531 1.0781-25.781 3.0469-31.922 4.3594-3.7969 0.79688-32.109 11.719-44.719 17.203-9.6094 4.1719-11.766 5.1094-18.047 7.5938-6.2344 2.4375-7.3594 3.9844-5.625 7.7812 1.6875 3.7031 2.7188 4.875 9.0938 10.031 6.2812 5.1094 14.906 9.2812 26.016 12.656 14.719 4.4531 13.547 4.4531 18.328-0.32812 12.844-12.844 36.328-22.688 54.656-22.875 4.2656-0.046875 10.125-0.375 13.031-0.75s5.7656-0.375 6.3281 0c1.3594 0.84375-0.5625 1.3125-12.891 3.0938-19.031 2.7656-36.281 9.375-48.891 18.703-5.5312 4.0781-9.0938 7.8281-8.0625 8.4375 1.0781 0.65625 12.656 3.2812 17.953 4.0781 2.4375 0.375 16.594 0.65625 31.5 0.60938 23.859-0.09375 28.266-0.32812 37.547-2.1094zm309.79-17.906c-0.98438-0.1875-6.9375-0.75-13.219-1.3594-13.734-1.2656-32.672-4.875-38.156-7.3125-4.8281-2.1562-18.422-11.016-18.422-12 0-1.8281 4.5-0.375 11.766 3.75 4.3125 2.4844 9.5156 5.1094 11.531 5.9062 6.1406 2.3906 19.078 4.125 38.578 5.25 29.391 1.6875 52.734-0.28125 75.938-6.4688 3.75-0.98438 10.547-2.6719 15.047-3.7031 10.969-2.5312 20.531-6.3281 23.016-9.0938 1.125-1.2656 2.7656-3.8438 3.6562-5.7188 1.4531-3.0938 1.9219-3.4219 4.5938-3.1406 3.4219 0.375 3.3281 0.75 1.5938-8.9062-0.70312-4.0312-1.3125-8.625-1.3594-10.266 0-1.6406-0.23438-2.9531-0.51563-2.9531s-2.1094 0.84375-4.0781 1.8281c-5.0156 2.5781-22.5 7.1719-41.438 10.922-14.578 2.9062-38.391 4.0312-57.141 2.7656-15.422-1.0312-26.859-2.9531-28.734-4.8281-0.60938-0.60938 0-0.70312 1.8281-0.32812 6.9844 1.4531 24.844 2.3906 35.578 1.9219 27.797-1.2656 47.578-4.125 64.781-9.5156 3-0.9375 7.5-2.25 9.9375-2.8594 4.875-1.2656 10.594-5.5781 10.547-8.0156 0-4.4531-9.8438-12.891-21.234-18.234-5.0625-2.3438-18-5.625-22.312-5.625-2.5312 0-2.9531 0.32812-2.9531 2.2031 0 1.2188-0.42187 2.4844-0.89062 2.8125-0.51563 0.32812-0.89063 1.3125-0.89063 2.2031 0 2.5312-2.625 7.2188-5.8594 10.406-2.4375 2.4375-4.6406 3.3281-13.734 5.5312-8.8125 2.1562-12 2.5312-17.25 2.1094-6.4688-0.5625-14.25-3.6094-15-5.8594-0.51562-1.5938 4.3594-1.4531 7.7344 0.23438 3.75 1.875 9 1.9219 14.438 0.1875 2.4844-0.79688 6.2812-1.9219 8.3906-2.4375 3.6094-0.9375 4.0781-1.4062 7.9688-8.9531 4.6406-8.9062 5.0156-11.812 2.2031-16.359-1.6406-2.625-1.875-4.125-1.5-9.2344l0.42187-6.0938h-44.25l1.1719 2.2969c1.9219 3.7969 3.0469 11.016 2.7188 17.812-0.46875 10.078-1.7812 14.25-5.0156 15.984-5.0625 2.7188-8.5312-1.3594-8.625-10.031-0.046874-4.7812-0.1875-5.0156-2.5781-5.2969-2.625-0.28125-10.734 1.9688-13.875 3.8906-0.98438 0.60938-4.8281 2.25-8.4375 3.6562-3.8438 1.4531-9.2812 4.5469-12.891 7.3594-3.4219 2.6719-7.0781 5.1094-8.1094 5.4375-2.7656 0.89062-8.3906 7.5-8.3906 9.8906 0 2.4375 2.7188 4.2188 9.9375 6.5625 7.6875 2.4844 3.7031 3.3281-6.3281 1.3125-4.7344-0.9375-8.9531-1.7344-9.3281-1.7344s-0.65625 5.0156-0.60937 11.156c0.046874 6.1406-0.1875 12.75-0.5625 14.672-0.60938 3.0469-0.9375 3.4219-3.0469 3.1875-1.5-0.1875-3.1406-1.4531-4.5469-3.4688-2.0625-3.0469-2.1562-3.75-1.7812-15.047 0.42187-12.375 0.9375-15.047 3-15.047 0.65625 0 1.7344-1.6406 2.2969-3.6094 1.3125-4.4531 4.2656-7.2656 15.844-15.141 13.359-9.0938 34.875-17.109 44.625-16.641l5.5781 0.28125-0.09375-6.375c-0.046876-4.2188-0.65625-7.5938-1.8281-9.9844-1.6875-3.5156-1.9688-3.6562-12.703-6.8906-6-1.8281-13.312-4.4062-16.219-5.7656s-5.5781-2.4375-5.9531-2.4375-3.7031-1.8281-7.3594-4.125c-3.6562-2.25-6.8438-4.125-7.0312-4.125s-2.9531-1.9219-6.0938-4.2656c-7.4062-5.5312-23.438-21.938-27.844-28.5-10.312-15.422-15.984-28.969-18.938-45.281-0.79688-4.3125-1.3125-17.203-0.79688-19.266 0.46875-1.875 1.0312-2.25 3.375-2.0156l2.8125 0.28125 1.5469 9.5625c3.2344 20.156 8.5312 34.219 18.75 50.016 6.75 10.406 18.047 22.453 26.766 28.453 8.1562 5.6719 13.453 9 18.328 11.625 6.375 3.4219 23.438 10.078 28.453 11.109 2.1094 0.42188 6.9375 1.5 10.734 2.4375 5.3906 1.2656 10.688 1.6406 25.078 1.5938 18.703-0.046875 23.391-0.60938 39.234-4.875 21.281-5.7188 42.656-17.062 60.375-32.062 9.0938-7.7344 20.578-20.719 26.859-30.422 3.6562-5.625 15.234-29.766 15.891-33.094 0.32812-1.6406 0.89062-2.9531 1.2656-2.9531s1.3594-0.51562 2.25-1.1719c1.3594-1.0312 1.4531-1.7344 0.60938-5.7656-1.125-5.2031-1.5469-8.5781-1.7344-12.984l-0.09375-3.0469-3 3.9375c-3.8438 5.0625-10.641 7.9688-18.562 8.0156-3.5625 0-5.9531-0.42188-6.6094-1.1719-2.625-3.1875 3.8906-13.734 15-24.234 4.2188-3.9844 7.6875-7.9219 7.6875-8.6719s0.75-1.8281 1.6875-2.2969c1.4531-0.79688 1.7344-2.1094 1.8281-8.9062 0.23438-14.812 1.7812-24.469 4.125-26.016 2.7656-1.8281 3.2812-0.70312 2.9531 6.8438-0.1875 4.125-0.09375 11.578 0.23437 16.547l0.5625 9.0469 5.5312 1.5c6.2812 1.7344 11.859 4.4062 15.516 7.5 7.2188 6.1406 11.344 10.922 11.344 13.172 0 0.60938-0.79688 1.3594-1.7344 1.6406s-1.9688 1.5-2.25 2.6719c-0.5625 2.2031-2.8125 3.2344-7.0781 3.2344-1.3125 0-5.6719-1.6406-9.7031-3.6562-7.3125-3.6562-8.8594-4.2188-8.1562-2.9531 0.23438 0.375 0.65625 3.375 1.0312 6.6094 0.79688 7.6875 2.0156 12.844 4.6406 19.641 1.1719 3 2.625 6.7969 3.2344 8.4375 0.60938 1.6406 1.3594 2.9531 1.6875 2.9531 0.32813 0 3-0.42188 5.9531-0.89062 10.922-1.7812 25.547 2.1094 26.625 7.125 0.42187 2.0156 1.5938 4.9688 2.9062 7.5469 0.14062 0.32812-1.0781 1.125-2.7188 1.7812-6.1406 2.5312-17.016 0.70312-23.812-3.9844-3.4688-2.3906-3.7969-1.6875-1.0781 2.2969 1.2188 1.8281 2.8125 5.7188 3.5156 8.625 0.70312 2.9062 1.9688 6.7031 2.8125 8.3438 1.6875 3.3281 1.2656 4.3594-2.1562 4.8281-1.3125 0.1875-2.2969 0.98438-2.4375 2.0156-1.125 7.7812-5.5312 19.406-8.2031 21.609-0.60937 0.51562-2.5781 1.1719-4.3125 1.4531-4.4531 0.70312-6.5156-1.6406-8.2969-9.5625-2.8594-12.516-1.2188-24.375 3.9844-28.734 1.5-1.2656 3.1406-2.4375 3.75-2.625 1.4531-0.46875-1.0781-6.3281-4.5938-10.594-1.5-1.8281-2.8125-3.9844-2.8125-4.7344-0.046874-0.75-0.84375 0.23438-1.8281 2.25-12.188 25.406-32.906 49.359-55.125 63.844-3.6562 2.3438-16.172 9.6094-16.641 9.6094-0.1875 0-2.4844 0.98438-5.1094 2.2031-9.5625 4.4531-13.078 5.8594-19.781 8.1094-6.5625 2.2031-15.047 4.5469-20.25 5.625-2.9062 0.60938-3.375 3.1406-2.3438 12.281 1.0781 9.4688 0.1875 8.7656 13.172 10.031 15.516 1.5 24.188 4.7344 36.984 13.922 7.0781 5.0156 10.688 8.7188 10.734 10.828 0 0.75 0.65625 2.2969 1.4062 3.375 3.2812 4.6875 7.0781 27.375 5.5781 33.328-0.9375 3.6562-5.9531 4.3125-6.1406 0.79688-0.046874-0.84375-1.0781 1.3594-2.25 4.875-2.625 7.5469-5.8125 10.734-12.938 12.797-5.0156 1.4531-7.2188 1.9219-22.594 4.9688-5.0156 0.98438-10.547 2.2031-12.328 2.7188-6.1406 1.7344-27.984 3.6562-46.547 4.0312-10.266 0.23438-19.547 0.28125-20.531 0.09375zm187.03-170.68c1.6406-9.3281 1.7344-12.609 0.42187-15.047-1.3594-2.4844-2.1562-2.2031-3.8906 1.4062-2.25 4.6875-2.9062 13.922-1.5469 21.188l1.1719 6.2344 1.2188-2.9531c0.65625-1.5938 1.8281-6.5156 2.5781-10.828zm28.734-27.141c0-2.3906-2.5781-6.4219-4.8281-7.5938-3.1406-1.6406-14.344-2.8594-14.297-1.5938 0.046876 1.125 7.2188 6.4219 10.969 8.0625 2.8125 1.2188 8.1562 1.9688 8.1562 1.125zm-65.578-38.484c5.25-1.875 8.3438-4.9688 11.156-11.25 2.625-5.8594 4.0781-12.891 2.625-12.891-1.875 0-14.438 14.438-16.875 19.406-1.3594 2.8125-2.5312 5.3438-2.5312 5.625 0 0.84375 1.3125 0.60937 5.5781-0.89063zm47.344-11.625c0-3.1406-12.797-13.125-20.156-15.75-3.6562-1.2656-3.6562-1.2656-3.0938 0.75 0.32812 1.125 2.3906 3.75 4.6406 5.8594 4.4531 4.1719 16.828 12.094 17.906 11.484 0.375-0.23437 0.70313-1.2656 0.70313-2.3438zm35.203 203.86c-1.7812-2.8594 10.641-7.7812 33.422-13.266 23.203-5.5781 31.969-6.9375 45.656-6.9375 7.7812 0 9.5625 1.4062 2.7188 2.2031-2.3906 0.28125-16.031 2.7656-30.328 5.5781-24.141 4.7344-37.688 8.3438-44.297 11.766-3 1.5469-6.4219 1.875-7.1719 0.65625zm125.39-18.375c-1.7344-0.375-4.7344-0.98438-6.6094-1.3125s-3.4219-1.0312-3.4219-1.5469 0.75-0.70312 1.6406-0.42188 6.8906 0.70312 13.266 0.89062c6.4219 0.1875 11.859 0.5625 12.141 0.84375 2.25 2.25-9.2812 3.2812-17.016 1.5469zm-729.52-8.8125c-1.5-0.1875-5.7656-0.75-9.4688-1.3125s-14.391-1.3125-23.719-1.6875c-17.578-0.70312-21.094-1.4531-21.094-4.5938 0-3 6.6094-8.9531 10.594-9.6094 4.2656-0.65625 5.9531-1.0312 11.297-2.25 9.0469-2.0625 23.25-4.5 23.672-4.0781 0.9375 0.9375-2.3906 2.2031-10.875 4.125-20.953 4.7344-24.281 6.1875-24.562 10.5-0.046875 0.65625 4.8281 1.2188 14.297 1.6406 7.9219 0.32812 17.672 1.2188 21.656 1.9688 13.078 2.3906 35.297 1.3125 38.812-1.875 2.2969-2.0625 10.547-3.7031 12.141-2.3438 2.2969 1.9219 0.60938 4.5469-4.6875 7.125-4.8281 2.3438-5.7188 2.4844-20.203 2.625-8.3438 0.09375-16.359 0-17.906-0.1875zm135.94-5.4375c-15-1.6875-20.953-2.8125-25.547-4.8281-7.5-3.3281-18.703-15.656-18.703-20.578 0-2.4375 1.6875-1.5469 4.7812 2.5781 1.6406 2.2031 4.2656 4.875 5.7656 5.9531 1.5469 1.0781 3.6094 2.625 4.5469 3.5156 6.9844 6.3281 16.969 8.9531 37.781 9.9844 9.1875 0.46875 11.391 0.28125 17.344-1.5469 9.1875-2.7188 17.344-6.5625 19.734-9.2344 3.0469-3.4688 6.7031-10.594 8.1094-15.984 1.6406-6.3281 1.2188-12.844-1.3125-20.859-1.4062-4.4531-2.1562-9.5625-2.4844-16.922-0.46875-11.438 0.375-16.594 3.3281-19.781 1.125-1.1719 1.8281-3.1875 1.7812-4.9688-0.046875-2.5312-0.70312-3.4219-4.3125-5.8125-2.3438-1.5469-5.6719-3.0938-7.3594-3.4219s-3.5625-1.2188-4.125-1.9219-3.3281-1.5938-6.1406-1.9219l-5.1094-0.60938-0.60938 6.1406c-1.4531 14.297-4.3594 20.297-9.2812 19.312-1.4531-0.28125-2.2031 0-2.2031 0.79688 0 1.9219 3.1406 3.0938 8.1562 3.0938 4.5 0 6.0938 1.0781 3.1875 2.2031-0.79688 0.28125-3.2344 0.5625-5.4844 0.5625-2.2031 0-4.0312 0.32812-4.0312 0.70312 0.046875 2.0156 2.0625 2.7656 8.7656 3.1875 4.5469 0.28125 9.0469 1.2188 11.672 2.3906 2.3438 1.0312 4.875 1.6406 5.5781 1.3594 0.75-0.28125 2.0625-0.23438 2.9062 0.09375 1.2188 0.46875 0.79688 1.0781-2.2969 2.9062-3.4219 2.0625-6.4219 2.2969-5.25 0.46875 0.84375-1.3594-6.2812-3.8906-12.422-4.4062-6.7031-0.5625-6.5625-0.60938-6.2344 4.5 0.32812 4.9219-0.65625 6.1875-4.8281 6.1875s-5.9062-1.6875-6.9375-6.75l-0.5625-2.6719-6.8438 0.23438c-7.5469 0.23438-14.625 1.3594-18.516 2.9531l-2.5781 1.0312 4.8281 1.7812c2.6719 0.98438 7.4531 2.4844 10.688 3.375 5.4844 1.5 7.7344 1.5938 24.422 1.0781 2.9062-0.09375 5.2969-0.70312 6.1406-1.5938 1.5-1.5 4.5469-1.4531 4.4062 0.046875-0.14062 1.7812-6.3281 3-18.047 3.6562-10.312 0.5625-12.891 0.375-19.875-1.2656-10.312-2.4375-16.172-5.4375-16.172-8.25 0-0.51562 1.2188-1.5938 2.7188-2.3438 3.4219-1.7812 19.031-5.0156 24.141-5.0156 4.4531 0 5.0625-0.375 4.4062-2.8125-0.375-1.4062-1.2656-1.7812-4.2188-1.7812-6.7969 0-24.656-3.375-28.5-5.3906-4.2656-2.2031-11.344-8.0156-11.344-9.2812 0-1.8281 3.6094-0.65625 8.2969 2.6719 7.7344 5.4844 11.812 6.7031 23.766 7.2188l10.641 0.46875-0.046875-6.7969c-0.046875-3.75 0.23438-7.2656 0.60938-7.875 0.375-0.5625 1.875-1.0781 3.375-1.0781 3.0469 0 4.1719 1.9219 5.1094 8.8125 1.0312 7.4062 2.5781 4.3594 5.4375-10.641 2.5312-13.266 0.51562-21.609-7.4062-30.797l-2.9062-3.3281-3.3281 8.625c-4.0781 10.594-4.3594 11.906-4.9219 22.875-0.28125 5.7188-0.09375 9.4688 0.60938 10.734 1.4531 2.6719-1.0781 3.6562-4.4062 1.7344-3.8438-2.25-5.5781-6.6562-5.5781-14.156v-6.6094h-2.5781c-1.4062 0-4.9219 0.79688-7.7344 1.7812s-8.7188 2.4375-13.125 3.2344c-9.5156 1.7812-15 4.7812-14.203 7.8281 0.28125 1.0781 2.5312 3.8438 5.0156 6.1875 6.8906 6.4219 8.9062 11.156 8.5781 19.922-0.28125 6.7031-0.5625 7.6875-4.9688 15.375-2.5781 4.5-5.1562 10.359-5.7656 12.984s-1.4062 4.875-1.8281 4.9219c-2.8594 0.51562-2.9531 0.1875-2.7188-8.9062 0.14062-5.0625 0.65625-10.828 1.125-12.797 1.4062-5.7188 1.5938-6.2812 1.7344-6.2812 0.42188 0 1.125-4.4062 1.5469-9.6562 0.51562-6.6562-0.98438-10.781-6-16.547-6.1406-7.0781-1.2656-12.328 14.203-15.281 5.1094-0.98438 11.203-2.3906 13.5-3.1875s5.7656-1.4062 7.7344-1.4062c4.4062 0 6.4219-0.75 6.4219-2.3438s4.125-14.25 5.5312-17.016c0.60938-1.125 2.3438-3.4219 3.8906-5.0625 2.2969-2.3906 3.5156-2.9531 6.5156-2.9531 4.6406 0 4.875 0.1875 9.2812 6.8438 4.125 6.1875 7.1719 12.984 8.1094 18 0.60938 3.3281 2.9531 5.1562 4.9688 3.9375 0.51562-0.32812 3.9375 0.28125 7.5938 1.3125s7.7344 1.875 9.0469 1.875 4.3594 0.89062 6.7969 2.0156 6.2344 2.625 8.5312 3.4219c5.3906 1.875 5.625 3.8438 1.4531 12.375-3.3281 6.7969-5.9062 9.5625-9.0938 9.5625-1.6406 0-1.7344 0.51562-1.1719 7.5469 0.32812 4.1719 1.4531 9.7969 2.5312 12.562 6.7031 17.297 7.2656 27.094 2.1094 37.406-4.5938 9.1406-10.172 13.266-23.672 17.625-12.375 3.9844-20.719 4.6406-36.516 2.8594zm-98.297-8.4375c-2.1562-2.3906-8.2031-4.7344-11.672-4.5-5.0625 0.32812-18.938-0.375-19.922-0.98438-2.4844-1.5938-2.8125-15.562-1.2656-55.781 0.9375-24.469 1.9688-33.703 3.9844-36.188 0.60938-0.79688-0.51562-1.2188-4.2188-1.6875-2.8125-0.32812-5.3438-1.0781-5.6719-1.5938-0.375-0.60938 0.28125-0.75 1.7812-0.46875 1.3125 0.23438 2.8125 0.1875 3.3281-0.14062s1.3594-4.875 1.875-10.125c1.3125-13.594 3.7031-34.734 4.1719-37.125 0.23438-1.125 1.0781-2.0625 1.875-2.0625 1.125 0 1.3125 0.60938 0.89062 3-0.5625 3-2.3438 35.016-2.3906 42.516v3.9844l9.7031-0.65625c5.3438-0.375 10.594-0.98438 11.719-1.4062 2.8125-1.0781 5.1562-6.5156 6-14.062 0.84375-7.4062 3.2812-18.75 7.2656-33.562 1.5-5.6719 3.6094-13.594 4.5938-17.625 1.0312-4.0312 2.9062-11.016 4.1719-15.516s2.9062-10.453 3.6094-13.219c2.0625-7.7812 5.1094-13.688 7.0781-13.688 1.4062 0 1.6406 0.51562 1.2656 2.9531-1.7812 11.766-9.1406 42.094-12.094 49.5-5.1094 13.031-8.8125 28.266-9.2344 38.344-0.23438 5.0156-0.84375 10.828-1.4062 12.938-1.6406 6.4219-2.8594 6.9375-17.016 7.7344-6.8906 0.375-13.312 0.46875-14.297 0.1875-1.3125-0.32812-1.5-0.23438-0.60938 0.375 1.0312 0.70312 0.98438 2.7656-0.23438 12.141-1.9688 15.234-2.3438 57.422-0.60938 68.906l1.2188 8.3438 13.781 0.42188c12.094 0.375 14.297 0.70312 17.719 2.5312 2.1562 1.125 4.5938 3.0938 5.4375 4.3594 1.4062 2.1094 1.3594 2.3438-0.23438 3.5156-3.0469 2.2031-8.0625 1.5938-10.688-1.3594zm-152.68-7.5c-3.5156-0.375-10.266-1.5469-15.047-2.5781s-10.453-1.875-12.656-1.875c-13.125-0.046875-16.125-6.8906-5.0625-11.578 4.8281-2.0625 22.781-8.7188 27.141-10.078 0.89062-0.28125 2.7188-2.5781 3.9844-5.1562 2.25-4.4062 2.3438-5.4375 2.625-22.031 0.14062-9.5625-0.09375-20.672-0.5625-24.656-0.46875-4.0312-1.2188-11.812-1.6875-17.344-1.3594-15.797-1.2656-15.656-11.953-20.906-5.0156-2.4375-9.0938-4.875-9.0938-5.3438 0-0.79688 3.2812-0.51562 8.8125 0.84375l1.9688 0.46875-1.8281-6.2344c-0.98438-3.4219-2.3906-7.4531-3.0469-9-0.70312-1.5-1.9219-5.625-2.7188-9.1406s-3.0938-12.328-5.1094-19.641c-5.5781-20.531-9.0469-35.156-9.0469-38.156 0-2.6719 1.6406-4.2188 3.2812-3.0469 2.8594 2.0625 11.578 27.094 19.969 57.188 1.6875 6 3.7031 12.516 4.5469 14.391 1.6406 3.8906 2.5312 13.453 1.4062 15.328-1.2656 2.0625 5.5312 4.2656 16.922 5.4375 5.8125 0.60938 10.781 0.9375 10.969 0.70312 0.1875-0.1875 0-3.4219-0.42188-7.1719-0.84375-7.2656-0.28125-64.875 0.70312-73.078 0.5625-4.7344 0.70312-4.9219 3.5625-5.2031 3.9375-0.375 4.6406 1.3125 5.5781 13.969 0.75 10.359 0.60938 51.375-0.23438 57.047-0.23438 1.7344-0.70312 5.2969-0.98438 7.8281l-0.51562 4.6406 5.0625-0.42188c3.7969-0.32812 5.6719-0.046875 7.4531 1.125 1.5469 0.98438 2.0625 1.875 1.5 2.4375-1.2656 1.2656-10.969 3.4219-15.422 3.4688-3.4219 0.046875-3.8438 0.28125-4.2656 2.5312-1.125 6-1.5469 10.5-1.9688 20.906-0.23438 6.0938-0.84375 15.75-1.3594 21.422-0.51562 5.7188-0.65625 16.781-0.32812 24.609 0.51562 12.141 0.375 14.297-0.75 14.766-4.125 1.5938-4.2656 0.42188-4.5-44.484-0.09375-20.531 0.046875-23.625 1.8281-30.938 1.0781-4.4531 1.8281-8.2969 1.6406-8.4844-0.65625-0.65625-16.312-3.1406-16.781-2.6719-0.28125 0.28125 0.1875 2.9062 1.0312 5.8594 1.2656 4.4531 1.5 9.3281 1.3594 27.609-0.09375 12.234 0.09375 26.344 0.42188 31.359 0.51562 8.1094 0.32812 9.7031-1.4531 14.156-1.7812 4.5-2.5312 5.2969-6.9375 7.4062-2.7188 1.3125-7.2188 2.9062-10.031 3.5156-6.3281 1.4062-19.172 5.7656-21.844 7.4062-1.0781 0.65625-2.1562 1.7344-2.3906 2.3906-0.60938 1.6406 4.2188 3.8906 8.3438 3.9375 1.9219 0 9.4219 0.98438 16.688 2.2031 18.703 3.0938 30.703 2.625 45.938-1.875 12.656-3.7031 15.234-4.875 11.109-4.9219-5.25-0.046875-16.5-2.6719-21.469-4.9688-2.7656-1.2656-5.7188-2.3438-6.6094-2.3438-2.5781 0-1.8281-2.625 0.89062-3.375 4.5-1.1719 8.8125-0.5625 13.828 2.0156 3 1.5 8.0156 2.9531 12.797 3.7031 4.3125 0.65625 8.4844 1.4062 9.2344 1.6875s3.0938 0.9375 5.25 1.4531c6.5156 1.6875 4.8281 4.5938-3.9844 6.9844-21.094 5.6719-27.188 6.7031-38.203 6.6094-6-0.046875-13.828-0.42188-17.344-0.84375zm106.22-9.75c-0.046875-0.375 0-3.75 0.046875-7.5469 0.09375-6-1.5469-20.531-3.2344-28.734-1.3594-6.6094-2.7188-23.766-1.9219-24.328 1.3594-0.9375 0.14062-18.281-1.5-21.422-1.2656-2.4375-2.2031-2.9062-9-4.3594-16.547-3.5156-20.109-6.5156-24.75-20.859-3.8906-12.047-6.1875-19.594-6.6562-21.938-0.1875-0.9375-1.5-4.6406-2.9531-8.25s-3.375-9.4219-4.2188-12.938c-0.89062-3.5156-1.875-6.75-2.25-7.2656-1.0781-1.5-4.4531-13.312-5.4844-19.172-0.51562-3-1.7812-8.3438-2.7656-11.859s-1.8281-8.7188-1.8281-11.531c-0.046875-4.5 0.23438-5.2031 1.9688-5.6719 2.7656-0.70312 3.0938-0.32812 4.3594 4.6406 0.60938 2.3906 2.0625 6.7969 3.2344 9.8438 1.1719 3 4.0781 10.828 6.4219 17.344 2.3906 6.5156 4.6406 12.281 5.0156 12.797s2.1562 5.625 3.9375 11.391 3.9844 12.328 4.875 14.578c1.2656 3.2344 1.6406 7.125 1.6875 18.234 0.046875 7.7812 0.1875 15.188 0.28125 16.5 0.23438 3.4219 5.9062 8.6719 10.688 9.8906 5.7188 1.4531 5.9531 1.3594 4.9688-1.5-0.46875-1.3594-1.4531-6.8438-2.2031-12.094s-1.9219-12.047-2.6719-15.047-2.3906-9.7969-3.6562-15.047-3.1406-12.656-4.125-16.406c-1.5469-5.8125-5.4844-29.109-5.4844-32.625 0-0.60938 0.75-1.125 1.6875-1.125 2.1094 0 3.8438 6.2812 6.5156 23.719 1.0312 6.7969 2.5312 15 3.2812 18.234 0.75 3.2812 1.9688 9.4219 2.7188 13.688s1.9219 9.6094 2.6719 11.859c2.3438 7.4531 5.0625 18.609 5.625 23.25 0.28125 2.5312 0.79688 4.8281 1.125 5.1562s2.625 1.2656 5.1562 2.1094 5.2969 2.1562 6.1406 2.9531c1.5 1.3594 1.5938 1.0781 1.5938-5.1562 0-6.4688-0.28125-8.8125-3.7031-30.656-0.9375-6-1.9688-13.828-2.2969-17.297s-0.75-7.0781-0.89062-7.9688c-0.46875-2.3438-1.7344-21.375-1.7344-26.25-0.046875-3.2812 0.32812-4.1719 1.6406-4.4062 0.9375-0.1875 2.0625 0.046875 2.5312 0.51562 1.125 1.125 2.3438 8.9062 3 19.406 1.9688 30.75 2.5781 38.812 3.6094 46.547 1.7344 12.984 1.875 29.203 0.23438 29.203-1.0312 0-1.125 0.79688-0.46875 4.3125 0.46875 2.3906 0.65625 11.297 0.42188 19.828s-0.046875 17.484 0.375 19.875c2.4375 13.078 2.9531 32.344 0.9375 34.781-1.2656 1.5469-2.7656 1.9219-2.8594 0.79688zm650.72-6.5156c-6.9375-1.4531-8.0156-1.9688-10.781-5.1562-3-3.4219-3-3.5625-1.0781-3.8906 1.1719-0.1875 3.9375 0.98438 6.7031 2.8594 2.5781 1.7344 5.9062 3.4219 7.4062 3.7969 7.1719 1.5938 9.6094 2.4844 9.0938 3.2812-0.70312 1.1719-2.1562 1.0312-11.344-0.89062zm-469.08-46.453c0-1.0781 5.625-2.9062 8.9531-2.9062 3.9844 0 3.6562 1.3125-0.60938 2.5781-4.0781 1.2188-8.3438 1.4062-8.3438 0.32812zm235.64-1.6875c-3.1406-0.65625-1.4531-2.1562 2.4375-2.1562 6.6094 0 13.641-6.8906 18.375-17.953 3.5625-8.3906 3.5156-8.7188-1.0781-7.0781-7.0312 2.4844-17.719 1.2656-21.75-2.4844-2.3438-2.2031-2.3438-3.0938 0.1875-5.625 2.4375-2.4375 22.406-9.1875 27.328-9.1875 2.5781 0 3.5156-0.46875 3.8906-1.875 1.125-3.7969 6.1406-22.922 6.4688-24.656 0.1875-0.98438 0.65625-3.2344 0.9375-4.9688l0.60937-3.1406-2.625 1.8281c-2.7656 1.9219-9.3281 5.3438-15.422 8.0156-4.8281 2.1562-14.531 2.9531-16.453 1.3594-1.2656-1.0312-1.125-1.5 1.125-3.8438 3.0938-3.2344 9.5625-7.5938 18.609-12.516 4.875-2.6719 7.875-3.7031 10.641-3.7031 3.7969 0 3.8906-0.09375 3.8906-3.0469 0-1.6875-0.46875-4.3594-0.98438-5.9531-0.84375-2.3906-1.5-2.8594-3.8906-2.9062-7.3125-0.09375-12.984-5.7188-12.797-12.656 0.14063-5.0625 3.8438-13.078 6.9844-15.094 3.5156-2.2969 7.4062-2.6719 9.1875-0.9375 2.1094 2.1094 1.3594 3.6562-1.6406 3.4688-2.0625-0.14062-2.7188 0.375-3.8438 3.1406-2.2969 5.4844-2.3906 10.312-0.32812 13.688 0.98437 1.6406 2.2969 2.9531 2.9062 2.9531 0.60937 0 4.5-3.5625 8.625-7.9219 6.6094-6.8906 7.6406-8.4375 8.2031-12.094 0.32813-2.2969 1.1719-5.5312 1.875-7.1719 1.7344-4.1719 7.4531-10.312 11.016-11.766 3.5156-1.4531 8.4844-1.6406 8.4844-0.28125 0 1.9688-2.8125 6.3281-4.0781 6.3281-1.5469 0-5.625 6.6562-6.375 10.5-1.0781 5.4375-1.2656 10.453-0.375 11.016 2.3438 1.4531 17.531-19.781 15.984-22.266-0.70312-1.1719 2.9531-4.6875 4.9219-4.6875s4.5938 2.2969 4.5938 4.0312c0 2.5781-4.1719 11.297-7.9688 16.734-4.5469 6.4688-8.7188 9.6094-15.047 11.297-3.6562 0.98438-4.7344 0.9375-7.3594-0.32812l-3.0469-1.4531-8.5312 9.6562 2.2031 4.4531c1.875 3.7969 2.8594 8.1562 3.1406 14.109 0.046876 1.0781 0.75 1.3594 2.8125 1.0312 1.5469-0.23438 3.6562 0.1875 4.8281 0.98438 2.6719 1.7812 11.016 13.781 13.031 18.797 1.4531 3.6562 1.4531 10.312-0.046876 11.812-1.125 1.125-11.859 0.5625-14.578-0.79688-1.5-0.75-4.1719-3.2812-5.9531-5.6719l-3.1875-4.3125-0.75 2.5312c-0.42187 1.3594-0.98437 3.1406-1.3125 3.8906-0.28125 0.75-1.4531 4.3594-2.5312 8.0625-1.6406 5.4375-1.7812 6.7969-0.75 7.1719 1.9688 0.75 1.4531 3-0.89062 3.8906-1.3594 0.51562-2.9062 2.5781-4.2188 5.6719-7.9219 18.422-12.938 25.453-21.234 29.625-4.4062 2.25-10.406 3.2812-14.156 2.4844zm20.953-33.188c5.625-3.5156 7.125-5.1094 7.125-7.5469 0-2.0156 0.65625-2.1562-12.281 2.4844-5.0156 1.7812-9.7031 3.8906-10.5 4.6875-1.2656 1.3125-1.2188 1.5469 0.42187 2.8125 2.9062 2.2031 9.5156 1.125 15.234-2.4375zm39.141-30.141c-1.2188-5.625-7.2188-17.297-8.9062-17.297-1.5469 0-1.6875-0.60938 1.8281 7.7812 3.7969 9.1406 7.0312 15.328 7.6406 14.719 0.28125-0.28125 0.046876-2.625-0.51562-5.2031zm-13.547 54.328c-4.3125-3.0938-6.0938-13.031-4.0312-22.359 0.5625-2.5781 1.1719-3.2344 3.1875-3.4688 2.4375-0.28125 2.4844-0.1875 2.4844 4.8281 0 3.1875 0.32813 4.9219 0.89063 4.5469 0.51562-0.32812 0.89062-2.2031 0.89062-4.2188 0-4.8281 1.3594-7.1719 4.125-7.1719 3.0469 0 3.9844 2.2031 4.6406 11.109 0.60937 8.0156-0.46875 14.297-2.7656 16.219-2.25 1.875-7.1719 2.1094-9.4219 0.51562zm-94.734-9.9375c-3-1.3125-6.75-5.4375-6.75-7.4062 0-3.375 6.0938-5.25 10.078-3.0938 2.5312 1.3594 2.2031 3-0.51563 2.4844-2.8594-0.5625-2.9062 0.23438-0.1875 2.8125 2.7656 2.5781 3.5156 2.5312 6.4219-0.75 1.3594-1.5 2.8594-2.7188 3.4219-2.7188 1.9688 0 4.5 1.9219 4.4531 3.4688-0.09375 5.3438-9.8438 8.3906-16.922 5.2969zm-158.26-6.9844c-3.1406-7.6406 4.5469-35.672 17.484-63.703 1.9219-4.1719 3.5156-7.8281 3.5156-8.0625 0-1.125 11.531-25.078 14.344-29.766 1.7344-2.9062 2.9531-5.8594 2.6719-6.5625s-2.7188-1.7344-5.4375-2.2969c-5.3438-1.125-24.938-1.5938-25.922-0.60938-0.89062 0.89062 4.3125 6 8.1562 7.9688 4.3125 2.2031 8.625 2.2031 13.828-0.046875 3.1875-1.3594 4.3125-1.5 5.0625-0.65625 3.2812 3.9375-10.266 7.7344-20.016 5.625-4.6406-0.98438-9.3281-3.6094-13.078-7.2656-3.7969-3.6562-4.1719-5.8594-1.4062-8.3438s26.062-3.0469 35.953-0.84375c7.3594 1.6406 9 1.3125 12.047-2.4844 0.9375-1.125 3.9375-3.6562 6.7031-5.625s6.4688-4.875 8.2031-6.5156c5.4375-5.0156 10.594-7.6875 14.625-7.6875 5.8594 0 5.6719 2.0156-0.79688 8.5312-3.0938 3.0938-7.125 6.4219-9.0469 7.4062-3.9844 2.0625-10.734 7.2656-13.688 10.5-4.8281 5.3906-12.469 17.953-19.453 31.922-13.125 26.344-14.203 28.594-16.781 35.578-1.4062 3.75-3.0469 8.0625-3.7031 9.5625-3.7031 8.5781-7.9688 23.531-8.4375 29.438-0.42188 5.4844-0.79688 6.6094-2.1094 6.6094-0.89062 0-2.0625-1.1719-2.7188-2.7656zm-181.6-7.2656c-1.5469-2.9062-1.2656-6.9844 1.6406-22.312 2.9062-15.188 8.25-44.531 9-49.266 0.84375-5.2969 7.7344-24.656 9.2344-25.781 2.1094-1.6406 4.5469-1.4062 5.5781 0.51562 0.9375 1.7344 0.89062 2.1094-4.3125 24.797-1.5469 6.7969-3.0938 14.391-3.4219 16.875-0.32812 2.5312-0.75 4.8281-0.9375 5.1562-0.46875 0.75-2.9531 13.688-3.6562 19.031-0.89062 6.5156-5.7656 24.562-7.6875 28.312-2.1094 4.125-4.1719 5.1562-5.4844 2.7188zm218.39-4.7812c-4.9688-2.8594-8.3438-10.781-9.1875-21.328-0.89062-11.484 1.1719-15.844 6.8438-14.344 2.1562 0.5625 3.5625 5.7188 1.875 6.7969-1.4062 0.84375-0.46875 11.766 1.3594 16.781 0.75 2.0156 1.4062 3.4219 1.4531 3.1875 0.046876-0.23438 0.60938-5.4375 1.2188-11.578 1.1719-11.719 0.79688-15.234-1.7344-17.109-2.25-1.6406-0.79688-3.2344 2.9531-3.2344 5.1094 0 8.8125 2.5312 11.016 7.4531 2.0156 4.5469 0.28125 20.906-3 27.938-2.3438 5.0625-8.8125 7.7812-12.844 5.4844zm151.18-6.4688c-3.6094-1.3125-13.453-6.5625-15.516-8.2969-0.75-0.65625-4.6406-2.9062-8.6719-5.0625-9.4219-5.0625-12.516-7.3125-19.172-14.203-3.375-3.5156-6.1406-7.3594-7.1719-10.125-0.9375-2.4375-3.6562-9-6.0469-14.484-2.3906-5.5312-4.6406-11.484-5.0156-13.219-0.98438-4.8281-1.2656-4.9219-4.9688-1.3125-8.4844 8.25-16.5 11.016-19.5 6.75-1.4062-1.9688-0.60938-6.9375 2.3906-15.141 4.4062-12 14.062-23.766 17.109-20.719 0.60938 0.60938-0.65625 3.5156-3.6562 8.5781-4.7812 8.0625-9.6562 19.969-8.9531 22.031 0.5625 1.6406 8.8594-6.8438 12-12.234 1.9688-3.375 2.5781-6 3.375-14.531 1.0312-11.25 2.2969-16.547 5.3906-22.781 2.3438-4.6406 6.1875-9.0469 7.9219-9.0469 1.6406 0 1.5469 0.42188-1.125 4.4531-3.0469 4.6406-5.6719 11.578-6.4219 17.203-0.60938 4.4531-0.5625 4.5938 2.6719 6.5625 2.7188 1.6875 3.6094 1.8281 5.2969 0.9375 3.6094-1.9219 16.922-0.5625 23.484 2.3906 3.1406 1.4062 6.0938 3.2812 6.5625 4.1719 2.1562 4.0312 0.046875 9.5156-4.4531 11.391-3.8438 1.5938-13.172 1.6875-17.625 0.14062-4.2656-1.5-11.719-6.1875-11.766-7.4531 0-0.51562-1.0781 1.2188-2.3906 3.9375l-2.3438 4.875 1.9688 7.1719c1.0781 3.9375 3.6094 10.781 5.6719 15.188s4.9219 10.641 6.375 13.781c4.5 9.75 13.594 17.016 32.766 26.203 22.688 10.875 23.438 11.391 20.203 13.125-2.3438 1.2656-4.3594 1.1719-8.3438-0.23438zm-30.281-83.344c0.32812-3.5625-1.9219-5.2969-9.5156-7.2656-4.2656-1.125-5.3438-1.125-5.9531-0.14062-3 4.6875 4.5 11.016 12.422 10.5 2.3438-0.14062 2.7656-0.5625 3-3.0938zm-45.609 81.891c-3.2344-2.5312-4.7812-9.5156-4.2188-18.891 0.65625-11.062 3.8438-15.281 10.359-13.641 2.5312 0.65625 2.2031 2.3438-0.46875 2.3438-2.2969 0-2.9062 1.9688-3.375 10.969-0.42188 8.1094 0.98438 15.469 3.1406 16.219 0.65625 0.23438 1.9219-1.4062 3-3.8438 4.5469-10.266 6.1406-23.578 3.1875-26.531-1.9219-1.9219-1.4531-3.5156 1.2188-3.8906 5.7656-0.84375 10.125 3.6094 10.078 10.359-0.046875 8.9531-5.25 23.016-9.75 26.391-3.6094 2.6719-10.172 3-13.219 0.60938zm321.94-2.3438c-2.0156-2.0156-4.3594-13.594-4.4062-21.938-0.09375-10.547 2.9062-15.375 8.3906-13.641 2.1094 0.65625 2.4375 2.2969 0.46875 2.2969-0.75 0-1.6875 1.125-2.0625 2.5312-1.4062 5.0156-0.32812 25.266 1.2188 23.672 0.75-0.75 3.7969-18.797 4.4531-26.344 0.375-4.2656 0.28125-7.1719-0.28125-7.5-0.51562-0.28125-1.125 0.23438-1.3594 1.2188-0.70312 2.6719-4.875 3.375-7.6875 1.2656-1.2656-0.9375-4.7344-6.1875-7.7344-11.672-5.5781-10.266-9.5156-16.078-10.875-16.078-0.42188 0-0.98438 1.3125-1.2188 2.9531-1.7812 11.719-4.1719 24.328-4.9688 26.391-1.125 2.8594-6 4.5938-9.8906 3.5625-3.2812-0.89062-4.7812-6.6094-4.9219-18.797-0.14062-12.516 1.5938-21.703 4.4531-23.812 2.3906-1.7812-4.5469-5.5781-18.984-10.453-13.172-4.4062-17.016-6.4688-22.125-11.766-2.9062-3-5.25-5.6719-5.25-5.9531 0-1.6406 3.7031 0.14062 9.1875 4.4531 3.4688 2.7188 7.6406 5.2031 9.2812 5.5781 1.6406 0.32812 7.875 2.0625 13.922 3.7969 6 1.7812 11.344 3.2344 11.859 3.3281 0.51562 0.046875 3.7969-0.79688 7.3125-1.875 13.734-4.2188 33.328-7.125 39.234-5.7656 4.3125 0.98438 9.6562 6.4219 8.9531 9.1406-1.5469 6-13.641 10.969-26.531 10.969h-6.0938l3.6094 2.9531c8.1562 6.6094 12.328 11.906 16.734 21 1.875 3.8906 2.3906 4.3125 5.2031 4.3125 4.5469 0 6.3281 3.1406 6.3281 11.344 0.046875 14.344-3.2812 28.641-8.0156 34.5-1.5938 1.9688-6.375 2.1094-8.25 0.23438zm0.89062-81.891c5.1094-2.4844 6.7031-4.5469 5.25-6.8906-1.5469-2.4844-8.25-2.4375-21.562 0.1875-15.094 3-15.75 3.375-11.062 6.4219 5.5312 3.6094 20.109 3.75 27.375 0.23438zm-741.52 71.344c-0.79688-0.46875-1.9219-2.0156-2.4844-3.375-1.3125-3.2812-5.0156-24.375-7.4062-42.234-1.0312-7.7812-2.2969-16.641-2.8125-19.688-1.3594-8.5312-1.2188-9.5156 1.2656-9.5156 1.2188 0 2.4375 0.70312 2.8125 1.5938 1.4531 3.75 4.2188 20.391 5.5312 33.281 2.0156 19.594 4.6875 37.125 5.8125 38.484 1.6875 2.0156-0.1875 2.9531-2.7656 1.4531zm-45.188-12.562c-2.625-4.2656-3.2344-6-6.2344-17.109-0.79688-3-1.875-6.8906-2.3906-8.6719-0.46875-1.7344-2.1094-9.2344-3.5625-16.594-1.7812-9.0469-3.9844-16.594-6.7031-23.25-2.2031-5.4375-4.5469-12.141-5.2031-14.906-0.60938-2.7656-1.6875-6.1406-2.3906-7.5-1.5469-3.0469-1.5469-3.4688-0.046875-3.4688 2.1094 0 5.8125 4.875 7.7812 10.266 1.0781 2.8594 3.9375 9.4688 6.375 14.578 5.4375 11.391 5.8125 12.656 8.7656 27.609 1.2656 6.5156 2.7188 12.703 3.1406 13.688 1.6406 3.7031 3.9375 10.078 4.3125 12.234 0.23438 1.2188 0.75 2.8594 1.1719 3.6562 0.84375 1.5938 1.3125 6.1406 1.0781 10.828-0.1875 4.5-2.9531 3.8906-6.1875-1.3594zm326.34-2.625c-4.875-0.9375-8.0156-2.2969-9.9375-4.3594-1.6875-1.7812-1.8281-2.4844-0.98437-4.3125 3.2344-7.0781 25.781-13.5 36.281-10.359 2.4375 0.70312 5.2969 2.25 6.4219 3.4219 2.5781 2.7656 4.5469 12.375 2.7656 13.547-2.9531 1.875-4.8281 0.46875-6.1875-4.4531-0.5625-2.1094-2.0156-5.0156-3.1875-6.375-1.9219-2.2031-2.7188-2.4844-6.9375-2.3438-9 0.375-20.016 4.7812-20.016 8.0625 0 3.9844 10.172 3.9844 18.609 0 2.8125-1.3125 6.0469-2.2969 7.1719-2.1094 7.0312 0.98438-5.8125 8.5781-15.75 9.2812-3.2344 0.23438-6.9375 0.23438-8.2031 0zm187.97-8.9531c-5.3906-1.5-9.9844-3.9375-10.641-5.625-0.28125-0.75 0.09375-2.0625 0.84375-2.9062s1.5469-2.3438 1.6875-3.2812c0.5625-2.9531 4.875-5.3906 10.359-5.8125 7.1719-0.60938 13.031 1.2188 15.188 4.7344 2.1094 3.4219 2.1562 5.2969 0.32813 9.1406-2.25 4.6875-9.0938 6.1406-17.766 3.75zm8.0156-7.4531c0.28125-4.0312-0.5625-5.25-4.5-6.1875-2.6719-0.65625-4.6406 0.98438-6.1875 5.1094-0.51563 1.3594-0.84375 2.5312-0.75 2.5312s1.8281 0.60938 3.8438 1.3594c5.7656 2.1094 7.2656 1.5469 7.5938-2.8125zm101.02 6.9844c-4.4062-1.0312-7.4062-3-10.406-6.7969-5.2969-6.7031-3.2344-13.312 4.125-13.312 3.4219 0 3.5625 0.1875 2.0625 2.625-1.4531 2.3438-0.32812 5.9062 3 9.7031 2.6719 3.0469 2.9531 3.1406 4.5 1.7344 1.6406-1.4531 5.3906-8.6719 5.9062-11.344 0.14063-0.75 0.5625-3.3281 0.9375-5.7188 0.65625-4.5 2.2031-6.1406 5.8125-6.1406 2.5312 0 5.5312 3.1406 5.5312 5.8125 0 6.0938 8.2969 9.5156 11.438 4.7344 1.5469-2.3438 3.8438-13.875 3.7031-18.375-0.09375-2.2031-0.65625-2.8594-3.2344-3.7031-5.1562-1.6406-4.5-3.0938 1.3594-3.0938 12.469 0 15.797 6.7031 10.828 22.078-2.5781 8.0156-11.203 11.578-20.859 8.5781-2.4844-0.75-4.5469-1.3125-4.5938-1.2188-4.2656 10.5-12.234 16.219-20.062 14.391zm-461.86-16.125c0.84375-14.344 2.4844-28.031 3.4219-29.016 0.51562-0.5625 1.3594-0.32812 2.2969 0.5625 1.875 1.875 1.8281 8.5312-0.1875 19.453-0.84375 4.5-1.7344 10.453-2.0625 13.219-0.46875 3.9375-0.98438 5.0625-2.3438 5.3438-1.6406 0.32812-1.6875-0.1875-1.125-9.5625zm247.69-9.2344c-6.75-7.2188-5.1562-17.578 3.2344-21.562 4.9219-2.3438 8.5312-1.9219 11.625 1.3594 1.4531 1.5469 2.4375 3.1875 2.1562 3.6562-0.89062 1.4062-5.1562 0.89062-6.4219-0.79688-1.125-1.5-1.3125-1.5-3.0938 0.28125-2.4375 2.3906-3.3281 7.7812-1.875 11.344 0.60938 1.5 1.4531 2.7656 1.7812 2.7656 0.89062 0 2.5781-3.4688 3.4688-7.3125 0.5625-2.25 1.2656-3.1875 2.4844-3.1875s1.9219 0.89062 2.4375 3.1875c0.89062 4.0781 0.1875 7.5-2.1094 10.453-1.5469 1.9688-2.5781 2.3438-6.6094 2.3438s-5.1562-0.375-7.125-2.5312zm-92.859-4.7344c-4.8281-4.8281-8.7656-17.531-7.7344-24.984l0.65625-4.6875-2.25 2.7188c-2.8594 3.4688-14.719 24.188-14.719 25.734 0 1.3594-2.2969 1.5-4.1719 0.32812-4.3594-2.7656 5.5312-24.234 16.828-36.422 5.8125-6.2812 6.0469-6.6562 4.5469-8.2969-1.3594-1.5-3.4688-1.7344-19.031-2.1094-13.969-0.32812-18.516-0.75-22.547-2.1562-6.8438-2.3438-6.8438-4.5-0.046875-7.7812 7.1719-3.4688 14.25-4.7344 23.531-4.1719 9.375 0.5625 13.688 2.4844 20.719 9.1875l4.5938 4.3594 3.6562-4.0312c3.7969-4.125 8.0625-7.5 12.797-10.031l2.7188-1.4531-2.7188-0.046875c-4.0312-0.09375-9.75-3-12.609-6.375-2.9531-3.5156-2.8594-5.5781 0.375-6.4219 2.5781-0.70312 20.25 1.125 26.016 2.6719 3.375 0.89062 4.3594 0.70312 10.969-2.1562 3.9844-1.7344 7.9219-3.1875 8.7188-3.1875s3.2812-0.65625 5.4844-1.5c7.6875-2.8594 23.953-4.875 27.656-3.4688 2.2969 0.89062 1.6875 3-1.0781 3.6094-1.3594 0.32812-3.75 0.89062-5.25 1.3125s-4.5938 1.0312-6.8438 1.4062c-6.1875 0.9375-6.8438 1.7812-1.3594 1.7812 5.6719 0 8.8594 2.25 10.547 7.5 1.5938 4.875-0.23438 8.4844-4.3125 8.4844-1.9219 0-2.9062-0.375-2.5312-0.9375 0.32812-0.51562 0.28125-2.6719-0.046875-4.7812-0.65625-3.75-0.65625-3.7969-2.0156-1.7812-1.6875 2.5781-4.7812 2.7656-4.7812 0.28125 0-0.98438-0.79688-2.0156-1.7344-2.2969-2.25-0.70312-3.1406-3.0938-1.8281-4.6875 1.4062-1.6875 0.28125-1.5938-6.4688 0.65625-5.0625 1.6406-8.3438 3.3281-18.141 9.1406-1.3125 0.79688-5.4375 3.0469-9.1406 5.0156s-9 5.6719-11.859 8.25c-4.6875 4.2656-4.9688 4.7344-3.2344 5.2969 2.2969 0.75 3.0469 4.2188 3.0469 14.391 0 7.5938-2.7656 23.016-5.1094 28.266-2.2969 5.1562-7.875 6.9375-11.297 3.5625zm6.9375-31.312c0.51562-5.25 0.42188-6.1406-0.84375-6.1406-2.0156 0-2.3438 0.79688-3.8906 8.8125-1.0781 5.7656-1.125 8.0156-0.23438 12.562l1.0781 5.5312 1.6406-7.3125c0.89062-4.0312 1.9219-10.078 2.25-13.453zm0.89062-11.391c-1.0312-1.0312-1.5938 0.60938-0.89062 2.6719l0.75 2.1094 0.32812-2.1094c0.1875-1.1719 0.09375-2.3906-0.1875-2.6719zm-22.594-9.9844c-3.3281-4.0781-14.297-6.0469-21.75-3.9375-10.641 3.0469-5.1094 5.4375 12 5.1562 8.1562-0.14062 10.406-0.42188 9.75-1.2656zm39.703-15.188c2.4375-0.5625 4.3594-1.4531 4.3594-1.9688 0-0.79688-11.812-2.9531-17.297-3.1406-1.9219-0.046875-2.0156 0.09375-0.89062 1.4531 1.7344 2.1094 6.4219 4.875 8.1094 4.7812 0.75-0.046875 3.3281-0.5625 5.7656-1.125zm46.266-2.7656c0-0.1875-0.70312-0.89062-1.5938-1.5938-1.4531-1.125-1.5-1.125-0.32812 0.32812 1.1719 1.5 1.9219 2.0156 1.9219 1.2656zm173.39 62.438c-7.0312-1.4062-13.5-6.1875-15.469-11.344-2.2031-5.8594 3.2344-12.984 12-15.562 2.625-0.79688 5.2031-1.4062 5.8125-1.4062 0.5625 0 2.3438-0.65625 3.8906-1.4062 7.3594-3.6562 22.078-3.8438 28.875-0.32812 3.7031 1.9219 9.6094 6.9844 9.6094 8.25 0 0.375-0.84375 0.9375-1.875 1.2656-1.3125 0.42188-4.0312-0.65625-9.0938-3.6094-6.2344-3.6094-7.9219-4.1719-12.328-4.1719-2.8125 0-5.9062 0.42188-6.9375 0.98438-1.7812 0.9375-1.7812 1.0312-0.1875 2.8125 0.9375 1.0312 3.1875 2.625 5.0625 3.6094 4.0312 2.0625 17.25 5.3438 21.469 5.3438 3.3281 0 3.9844 1.3594 1.0312 2.1094-4.5 1.1719-20.156-1.3125-27.516-4.3594-1.7812-0.75-5.3906-2.625-7.9219-4.125-4.5469-2.6719-4.7344-2.7188-7.125-1.1719-8.2969 5.3438-8.1094 12.141 0.51562 17.625 4.9688 3.1406 8.1094 3.375 12.984 0.84375 5.7656-2.9531 9.375-2.2031 5.6719 1.1719-4.125 3.75-10.781 4.9688-18.422 3.4219zm333.42-9.8438c-1.2188-114.05-0.9375-107.2-5.25-121.6-2.2031-7.2188-3.4688-8.5781-7.5938-8.2031-1.875 0.1875-5.7656 0.28125-8.625 0.1875-4.4062-0.09375-5.2969 0.14062-5.7656 1.6406-0.89062 2.7656-5.7188 2.4375-6.8438-0.51562-0.70312-1.8281-1.5-2.2969-4.0781-2.2969-1.7812 0-3.2344-0.42188-3.2344-0.89062 0-0.51562 1.5938-0.89062 3.5156-0.89062 3.5156 0 3.5156-0.046875 3.9844-4.0312 0.42188-3.7969 0.1875-4.3125-3.75-8.5312-6.8438-7.3125-13.781-21.844-13.781-28.969 0-5.9531 2.5312-13.828 9.8438-30.281 3.2344-7.2656 4.5469-9.375 5.9062-9.375 1.4062 0 1.6406 0.42188 1.1719 2.0625-2.2031 7.5469-6.9844 26.719-7.8281 31.453-0.79688 4.5938-0.75 6.7031 0.375 11.062 1.5 5.8125 5.0625 14.344 7.5938 18.188l1.5938 2.3906 0.65625-3.6094c0.32812-1.9688 0.65625-6.8906 0.70312-10.922s0.42188-7.8281 0.84375-8.4844c0.46875-0.75 2.1094-1.0781 4.3125-0.89062l3.5625 0.28125-0.14062 12.562c-0.046875 6.8906 0 12.562 0.14062 12.562 0.42188 0 6.2344-8.3438 8.2969-11.906 4.4531-7.6406 5.25-20.062 2.3438-36.141-1.0312-5.625-3-12.797-4.3594-15.984-3.2812-7.4531-8.7656-16.125-9.2344-14.672-0.46875 1.4062-2.9531 1.5469-2.9531 0.1875 0-2.2031 2.0156-4.5 3.8906-4.5 4.125 0.046875 14.344 19.172 17.203 32.25 0.98438 4.5938 2.4375 11.25 3.2344 14.719 2.0156 9.0938 1.2188 18.75-2.0156 25.172-2.625 5.25-14.062 17.25-16.359 17.25-0.75 0-1.5938 1.125-1.9219 2.5312-0.32812 1.3594-0.75 3.2812-1.0312 4.2188-0.42188 1.5469-0.046875 1.6406 3.9844 1.125 2.4375-0.32812 7.3594-0.79688 10.922-1.125 10.5-0.89062 14.062 1.9688 17.719 14.25 1.8281 6.0469 2.0156 8.7656 1.9688 23.531-0.046875 9.1875-0.32812 17.062-0.60938 17.578-0.28125 0.46875-0.75 4.6875-0.98438 9.3281s-0.60938 10.312-0.84375 12.562c-0.1875 2.25-0.60938 8.8125-0.9375 14.578s-0.70312 12.141-0.89062 14.156-0.60938 10.031-0.98438 17.812c-0.51562 11.719-0.42188 13.969 0.5625 12.984 1.4531-1.3594 6.3281-1.5469 6.3281-0.1875 0 0.51562-0.70312 1.2188-1.5938 1.5469s-2.5781 1.3125-3.75 2.25c-4.4062 3.375-5.1562 2.4844-5.25-6.3281zm-233.48-2.0156c-4.5469-1.125-9.8906-4.3594-13.734-8.2969-3-3.0469-3.375-3.8438-2.25-4.5469 2.5781-1.6406 5.1094-0.89062 12.328 3.6562 3.9844 2.5312 7.5938 4.5469 8.1094 4.5469 0.46875 0 2.4844-1.6875 4.4531-3.7969 3.1875-3.375 3.5625-4.1719 3.1406-7.2188-0.32812-2.5312-0.09375-3.5625 0.9375-3.9844 1.8281-0.70312 3.6562 0.89062 5.8125 5.1562 1.5938 3.1406 1.6406 3.75 0.46875 6-1.9219 3.7031-5.1562 6.375-9.6094 7.9688-4.2656 1.5-5.4844 1.5938-9.6562 0.51562zm-526.97-7.5938c-0.23438-0.23438-4.3594-0.70312-9.1406-0.98438-21.984-1.3125-41.812-5.9062-46.125-10.688-5.4844-6.0469 6.9844-11.25 32.906-13.734 13.172-1.2656 51.891-0.46875 69.328 1.4062 17.906 1.9219 34.219 6.6562 37.781 10.922 2.7188 3.2344-2.6719 7.3594-11.578 8.9062-2.8594 0.46875-8.6719 1.5469-12.938 2.2969-7.4531 1.3594-59.109 3-60.234 1.9219zm56.578-5.2969c10.5-1.2188 19.172-4.0312 19.172-6.2344 0-1.7344-4.5469-4.1719-9.4219-5.1094-1.7812-0.32812-9.5156-0.70312-17.203-0.79688-15.469-0.23438-35.016-1.7344-42.75-3.3281-11.156-2.2969-40.031-0.32812-49.266 3.3281-6.9844 2.8125-4.3594 4.875 10.219 8.0625 13.266 2.8594 25.922 4.3594 43.594 5.0156 18.047 0.70312 34.594 0.32812 45.609-0.9375zm331.22-0.79688c-0.98438-0.98438-1.875-2.4375-1.9219-3.1875s-0.23438-1.7812-0.32812-2.2969c-0.14062-0.51562-0.28125-2.1094-0.32812-3.6094l-0.09375-2.7188-4.7812 2.4844c-3.7969 1.9688-6.0469 2.4844-10.922 2.4844-6.3281 0-7.4062-0.46875-8.3906-3.7031-1.2656-4.125 6.8438-11.906 14.719-14.109 3.2812-0.9375 3.7969-1.4062 3.375-3.0469-2.3906-9.6094 0.65625-15.188 8.25-15.141 4.5469 0.046875 6.6562 1.5469 8.7656 6.3281 0.89062 2.0156 1.7812 3.6562 1.9219 3.6562s2.7188-1.0312 5.7656-2.25c7.125-2.9062 10.828-2.9531 13.734-0.046875 1.2188 1.2188 2.25 2.6719 2.25 3.2344 0 1.6875-2.7188 7.6406-4.3125 9.375-0.9375 1.0312-1.4531 2.9062-1.3125 4.8281 0.75 11.297-19.266 24.797-26.297 17.766zm12.469-6.1406c3.4688-3.3281 6.5156-8.0156 5.6719-8.8594-0.23438-0.23438-2.0156-0.046875-3.9844 0.375-3.7031 0.84375-9.6094-0.75-9.6094-2.625 0-2.5781 10.078-7.125 13.172-5.9531 1.4062 0.51562 4.5938-4.125 5.625-8.2031 0.60938-2.4375 0.51562-2.5781-1.5469-1.9688-3.5625 1.0312-9.375 5.3906-10.641 7.9688-0.60938 1.3125-2.1094 2.625-3.3281 2.9062-4.2188 1.0781-5.4844 10.359-2.2969 17.25 1.5 3.2812 2.6719 3.0938 6.9375-0.9375zm-25.453-5.625c1.875-0.9375 4.7344-2.9531 6.375-4.4062 2.9531-2.625 2.9531-2.6719 1.1719-4.3125-1.5469-1.4062-2.1562-1.5-4.5469-0.46875-4.7812 1.9688-9.5156 8.4375-7.6406 10.359 0.84375 0.84375 0.84375 0.84375 4.6875-1.125zm14.344-22.031c-0.84375-2.4844-1.7344-4.5469-2.0156-4.5469-0.84375 0 0.46875 8.5781 1.7344 11.438l1.2188 2.6719 0.28125-2.5312c0.14062-1.4062-0.375-4.5469-1.2188-7.0312zm-471.79 29.953c-5.0156-0.46875-14.062-1.4531-20.062-2.2031s-12.609-1.3594-14.578-1.3594c-2.0156 0-9.1875-0.79688-15.938-1.7812-9.75-1.4062-13.688-2.4375-18.938-4.9688-6.0469-2.8594-6.6562-3.4219-6.6562-5.8125 0-3.375 2.8125-5.3438 10.969-7.6875 3.2812-0.9375 7.7812-2.25 10.078-2.9062s8.625-1.6875 14.156-2.25c5.4844-0.5625 11.625-1.5469 13.641-2.1562 5.5312-1.6406 39.844-1.0312 57.422 1.0312 13.641 1.5938 14.672 1.875 16.641 4.1719 2.5781 3 2.6719 5.4375 0.32812 7.8281-2.3438 2.3438-4.9219 1.5-4.2188-1.3594 0.32812-1.2656-0.09375-2.7656-1.0781-3.8906-1.4062-1.5938-3.5156-1.9219-19.406-2.8125-19.547-1.0781-39.703-0.79688-45.234 0.65625-1.9688 0.51562-9.0469 1.5938-15.703 2.3906s-14.156 2.25-16.688 3.2344c-2.4844 0.98438-5.3438 1.7812-6.2812 1.7812s-2.3906 0.65625-3.2344 1.5c-1.3594 1.3594-1.2188 1.6406 1.9688 3.5156 5.6719 3.3281 18.75 5.1562 55.078 7.6875 11.297 0.79688 25.078 2.9531 26.25 4.125 1.6875 1.6875-7.2188 2.2969-18.516 1.2656zm585-1.5938c-1.0312-1.6406 0.1875-2.7188 3.8438-3.375 1.875-0.32812 4.2188-1.0312 5.2031-1.5 2.7188-1.3594 8.625-7.1719 10.125-9.9844 3.0469-5.8594 0.46875-11.766-5.2031-11.953-4.2656-0.14062-9.2812 1.9688-8.625 3.5625 0.5625 1.4062-1.9219 1.6406-3.9375 0.42188-3.4219-2.1562 2.6719-6.3281 10.5-7.125 9.5156-0.98438 16.828 3.9844 16.969 11.484 0.09375 6.0469-6.3281 13.641-14.344 17.016-4.6406 1.9219-13.641 2.9062-14.484 1.5zm-70.453-3.75c-2.8125-1.125-6.4688-6.3281-7.1719-10.219-1.1719-6.2344 2.3438-12.234 9.1406-15.562 4.4531-2.2031 13.969-2.8125 18.609-1.1719 4.9219 1.7344 4.5938 1.7812 4.0312-0.375-0.75-2.9531 2.2969-10.5 5.4375-13.406 5.2031-4.8281 10.734-6 18.188-3.9375 2.8125 0.79688 3.9844 0.65625 6.8438-0.79688 5.2969-2.6719 15.469-4.2188 19.922-3 6.1406 1.6875 7.7344 3.7969 7.7344 10.594 0 8.0625-1.0781 10.5-4.5469 10.5-2.4375 0-2.7656-0.32812-2.7656-2.5781 0-3.0938-2.5312-12-3.8906-13.641-1.5938-1.9688-14.25 0.51562-12.984 2.5312 0.32812 0.51562-0.09375 0.89062-0.84375 0.89062-1.7812 0-1.875 2.3438-0.14062 3.0469 0.70312 0.28125 2.6719 3.2812 4.3125 6.7031 2.6719 5.4375 3.0469 7.0312 2.9062 12.656-0.23438 8.9062-3.4688 17.156-6.9844 17.578-3.1875 0.375-3.8906-1.4531-4.6875-12.609-0.79688-11.109-3.4688-19.828-7.5469-24.609-1.7344-2.0156-3.6094-3.7031-4.125-3.7031-2.9062 0-9.8438 10.453-9.8438 14.812 0 3.8906 2.25 9.0469 5.3438 12.234l3.2344 3.3281-3-0.60938c-1.6406-0.32812-4.0781-1.4531-5.3906-2.4844-2.2031-1.7344-2.4844-1.7812-3.5156-0.375-0.65625 0.9375-2.0625 1.3594-3.6094 1.2188-2.0625-0.23438-2.6719-0.9375-3.5156-3.9375-2.2031-7.9219-11.531-7.9219-16.734 0.046875-2.2969 3.5156-2.4844 5.5312-0.98438 10.547 0.75 2.4375 1.5938 3.5156 2.7188 3.5156 2.4844 0 2.0625 1.7344-0.65625 2.7656s-2.9531 1.0312-5.5312 0zm-184.74-1.9219c-0.70312-0.46875-4.8281-0.75-9.0938-0.70312-6.0938 0.09375-8.4375-0.23438-10.594-1.5-2.7656-1.6406-2.7656-1.6875-1.5938-5.3906 2.0625-6.4688 3.5625-10.125 4.5-10.828 0.51562-0.375 3.5156-0.65625 6.7031-0.70312 9.0469 0 12.844 3.1875 14.203 12.234 0.89062 5.7188-1.0312 8.8594-4.125 6.8438zm-1.7344-7.5938c-1.7344-6.1406-4.5938-8.25-10.734-7.9688-2.4844 0.14062-5.7188 3.1406-5.6719 5.3438 0 0.89062 0.79688 2.625 1.7812 3.8906 1.5 1.9688 2.6719 2.3438 8.4375 2.7656 3.6562 0.23438 6.8438 0.375 7.0312 0.23438 0.1875-0.09375-0.14062-2.0156-0.79688-4.2656zm311.29 1.7812c-1.6875-0.75-4.1719-2.2031-5.625-3.1875-1.4062-1.0312-3.7969-1.8281-5.25-1.8281-4.6875 0-6.7031-4.0312-2.5781-5.1094 1.5469-0.375 4.0781 0.32812 7.9688 2.25 5.0625 2.4844 6.9375 2.8594 16.219 3.2812 12.375 0.60938 16.031 1.1719 17.344 2.7656 1.7344 2.0625-0.75 2.625-13.219 2.9062-9.0469 0.23438-12.609-0.046875-14.906-1.0781zm30.281-4.3125c-0.375-0.60938-0.1875-1.2188 0.375-1.4062 1.6406-0.5625 5.6719-3.9375 5.6719-4.7812 0-0.42188-3.7031-0.5625-8.2031-0.32812-6.75 0.32812-8.9062 0.09375-12.141-1.3125-5.3906-2.3906-11.812-10.031-17.438-20.906l-4.6406-8.9062-6.2812-1.0312c-4.0781-0.65625-6.7031-1.5938-7.5-2.6719-1.6875-2.3438-0.65625-3.3281 2.9062-2.7656 4.125 0.65625 3.4219-1.0312-2.1562-5.3906-4.9688-3.8438-8.25-4.9688-9.4219-3.1406-0.70312 1.0312-1.0781 0.9375-2.2031-0.51562-2.1094-2.7656-1.7344-5.8594 0.79688-6.4688 3.1875-0.79688 7.5469 1.4531 14.953 7.6875 3.6562 3.0938 7.1719 5.5781 7.9219 5.5781 1.9219 0 7.5469-6.9844 8.2031-10.172 0.84375-4.3125 0.65625-8.9062-0.42188-10.969-1.7812-3.2812-1.3125-10.219 0.89062-13.828 2.1562-3.4688 12.188-11.578 14.344-11.578 3.7969 0-1.5-4.5938-7.9219-6.8438-4.5469-1.5938-12.188-1.7344-16.453-0.32812-7.4531 2.4844-15.188 11.391-14.156 16.359 0.70312 3.5625-0.79688 3.4219-3.0938-0.28125-2.2969-3.7969-2.2969-5.4844 0.23438-10.547 2.5781-5.2031 7.4062-9.9844 11.906-11.766 2.8125-1.125 3.3281-1.7344 2.8594-3.2344-0.5625-1.6875-1.0781-3.9844-1.2188-5.3906-0.14062-1.3594-6.6562-0.51562-8.1094 1.0312-0.84375 0.89062-3.0938 2.6719-4.9219 3.8906-3.3281 2.25-3.375 2.2969-1.5938 3.8906 1.0312 0.9375 1.6406 2.4375 1.4062 3.5156-1.7344 9.2812-4.1719 13.078-9.2344 14.344l-3.9375 0.98438-1.0312 6.0938c-2.4844 14.531-5.3906 21-12.188 27.328-6.375 6-25.875 14.766-32.766 14.766-4.125 0-2.9531-1.5938 2.3438-3.1406 5.4844-1.5938 15.422-7.9219 21.375-13.641 6.6094-6.3281 9.75-13.031 12.516-26.812l0.60938-3-4.875 1.875c-2.6719 1.0312-6.6094 2.5312-8.7656 3.2812-10.5 3.7031-31.641 22.453-31.172 27.656 0.23438 2.5781-0.046875 2.7656-2.8125 1.7812-2.2031-0.75-2.7188-1.5-2.7188-3.6562 0-5.8594 7.9688-15.938 17.953-22.781 2.4375-1.6406 4.5938-3.2344 4.875-3.5625 0.51562-0.60938 15-6.4219 16.031-6.4219 0.32812 0 3-1.0781 5.9531-2.3906 4.7344-2.1094 5.2031-2.5781 4.4062-4.125-1.9688-3.7031 1.5938-7.7344 5.8594-6.6562 1.6875 0.42188 2.0625 1.0312 1.7344 2.7656-0.375 1.875-0.09375 2.2031 1.9688 2.2031 1.9219 0 2.8125-0.84375 4.7344-4.6875 2.4844-4.9219 2.1562-6.2344-1.6406-6.2344-2.5781 0-1.8281-1.2188 2.1094-3.4688 5.9531-3.375 9.2812-10.359 5.4844-11.531-2.8594-0.9375-4.1719-3-2.8125-4.5938 0.9375-1.1719 0.79688-1.3594-1.0781-1.3594-2.7656 0-4.4062 1.5938-4.4062 4.2656 0 1.1719-0.32812 2.1094-0.75 2.1094s-1.3125 1.0312-1.9688 2.25c-1.3594 2.5312-3.5625 3.5625-5.7656 2.6719-1.2188-0.46875-1.3594-1.5469-0.9375-6.2344 0.75-7.9688-1.4531-15-6.2812-20.25-5.1562-5.625-7.7812-4.7344-11.719 4.0312-2.4375 5.4375-0.84375 12.234 3.0938 13.266 2.25 0.60938 1.5 1.6406-1.4062 1.9688-1.125 0.14062-4.7812 1.5-8.0625 3s-7.4531 3-9.3281 3.375c-4.7812 0.89062-6.1875 3.5156-6.1406 11.578 0 7.9688-3.2812 19.312-7.7344 26.484-15.328 24.938-16.359 26.531-20.906 31.453-2.0156 2.2031-3.5156 2.9531-5.7656 2.9531-3.5625 0-3.7031-0.51562-0.9375-3.0938 2.5312-2.3438 5.9531-7.3125 12.984-18.797 11.109-18.141 12.656-22.359 12.703-34.688 0.046875-10.734-1.6406-17.344-4.4062-17.344-4.8281 0.046875-5.8594 0.9375-6.7969 5.7656-3.5625 18.375-14.156 25.969-36.562 26.203-4.125 0.046875-8.8125 0.70312-11.531 1.6875-4.4062 1.5469-4.5469 1.7344-4.5469 5.1562 0 3.2812-0.23438 3.6094-2.625 3.8906-1.6406 0.1875-3.6562-0.42188-5.3438-1.6875-4.875-3.6094-11.344-2.25-14.906 3.1875-2.2031 3.3281-2.7656 11.672-0.9375 13.5s1.8281 2.4844 0 2.4844c-3.5156 0-6.6562-3.0469-7.7344-7.5-1.4062-5.7656-0.51562-9.9375 2.8125-13.547 1.5-1.5938 2.7188-3.0469 2.7188-3.2344s-1.7344-1.2188-3.8906-2.2969c-7.0781-3.5625-9.5625-6-11.672-11.531-3.1406-8.25-2.7656-17.344 1.3594-29.766 1.7812-5.4375 3.2812-10.5 3.2812-11.25 0-2.25 3.1875-0.89062 3.5156 1.5 0.1875 1.2188-0.14062 4.5-0.65625 7.3125-1.4062 7.2656-1.7812 12.984-0.9375 15.094 0.46875 1.2188 0.75 1.2188 0.79688 0 0.09375-3.0469 5.7656-10.688 9.2344-12.469 1.7812-0.89062 5.4375-2.0625 8.1094-2.5781s5.3906-1.3594 6-1.8281c2.0156-1.6406 9.6562-2.5312 15.375-1.7812 11.719 1.5938 16.312 2.6719 19.594 4.6406 6.8906 4.1719 8.8594 7.3594 10.078 16.781l0.60938 4.5469 1.7344-2.7188c5.7656-9.0938 5.9531-9.4688 4.8281-9.8906-2.3438-0.98438 1.4531-2.1562 8.5781-2.7188 3.9844-0.32812 7.6406-0.79688 8.1562-1.0781 1.5-0.9375-2.6719-7.6406-8.1562-13.031-10.453-10.312-15.844-12.844-27.188-12.938-4.125 0-9.5156-0.46875-12.047-1.0312-4.4062-0.9375-4.9219-0.79688-16.219 3.8438l-11.719 4.8281-30.75 0.09375-4.0312 4.4062c-8.1562 8.9062-9.7031 14.203-9.6094 33.422 0.09375 15.703 1.2656 22.594 4.6406 27.375 0.89062 1.2656 2.8125 4.7812 4.2188 7.7812 1.5469 3.2344 4.5 7.2188 7.1719 9.75 17.859 16.688 22.125 20.156 28.734 23.344 4.6406 2.25 10.359 3.8438 13.781 3.8438 4.5938 0 4.5469 1.3594-0.046875 2.5312-8.5312 2.1562-25.641-5.0156-37.219-15.656-3.8906-3.5625-8.8125-7.6406-10.875-8.9531-5.4375-3.5156-8.0625-7.3594-16.828-24.609-2.2969-4.5-3.1406-11.625-3-24.891 0.23438-18.75 2.25-25.734 10.172-34.828 6.1875-7.125 9.5156-8.1094 24.703-7.3594 11.578 0.5625 14.672-0.1875 26.531-6.375 6.6562-3.4688 15.422-5.1094 20.812-3.8438 1.9219 0.46875 6.9844 0.79688 11.25 0.84375 6.0469 0 8.3906-0.375 10.641-1.7344 5.0156-3.0469 10.688-12.891 11.859-20.578 0.23438-1.5 1.0312-5.7656 1.7344-9.4688 1.5-7.6406 1.6875-10.5 0.5625-9.7969-0.9375 0.5625-10.125 14.531-12 18.188-2.2969 4.5469-7.3594 5.0625-11.719 1.125-2.1094-1.875-2.1562-1.875-1.6406-0.09375 0.28125 0.98438 0.9375 3.6562 1.4531 5.9531 0.51562 2.25 1.6875 6.4688 2.6719 9.375 1.9219 5.7656 1.3125 7.125-2.1562 4.8281-2.5312-1.6406-4.2188-4.6406-7.4531-13.219-2.5312-6.7031-2.625-7.0312-3.4688-13.594-0.51562-4.125-0.375-4.7344 1.3594-5.6719 2.7188-1.4531 6.75-0.32812 10.125 2.8125 1.5938 1.4531 3.1875 2.6719 3.6094 2.6719s1.8281-1.8281 3.1406-4.125c4.5938-7.8281 11.203-14.906 14.859-15.938 5.0156-1.4062 7.9688-1.1719 10.406 0.79688l2.1562 1.7344-1.7344 9.8906c-0.9375 5.4375-1.9219 11.25-2.1562 12.844l-0.42188 2.9531h5.9062c6.8906 0 14.438 2.3438 20.203 6.2812l4.0312 2.7656 0.60938-3.7969c0.84375-5.3438 5.4844-13.594 9.0469-15.984 7.5-5.1094 17.859-2.9531 21.469 4.5 1.1719 2.3906 1.9688 5.8125 1.9688 8.3906 0 4.125 0.09375 4.3125 2.0625 3.6094 1.125-0.42188 4.5469-0.75 7.5938-0.75 11.859 0 17.766 9.2812 11.719 18.328-3.7969 5.6719-7.7812 9.4688-12.516 11.906-4.0312 2.0625-4.3594 2.4844-4.125 5.1562 0.28125 2.7188 0.51562 2.9062 3.3281 2.625 5.4375-0.51562 11.672 1.5938 15.422 5.2031 2.2969 2.2031 4.125 3.2344 5.4375 3.0469 2.4844-0.375 10.359-8.6719 10.359-10.922 0-2.0156-4.8281-7.1719-7.4531-8.0156-2.8594-0.89062-7.6406 0.32812-9.5156 2.4844-1.2188 1.4062-1.4062 2.0625-0.5625 2.3438 1.9219 0.65625 1.2656 2.0625-0.9375 2.0625-2.625 0-6.1406-2.3906-6.1406-4.2188 0-2.2031 4.4062-5.625 9.3281-7.2656 5.8594-1.9688 12.703-0.75 19.734 3.4688 5.1562 3.0938 7.4531 6.2812 7.4531 10.266 0 2.8125-7.0781 10.125-11.719 12.047-2.3906 0.98438-2.8125 1.5469-2.0156 2.4844 0.5625 0.65625 1.2656 3.2812 1.5469 5.7656l0.51562 4.5469 4.7344 1.0781c7.6406 1.7344 16.031 7.0312 29.344 18.609 2.7656 2.3906 7.7812 6.1406 11.203 8.3438 7.0781 4.5469 11.719 9.6094 15.516 16.875 5.0625 9.75 6.7969 18.891 4.5469 24.422-0.5625 1.4062-1.125 6.375-1.2656 11.062-0.375 12.797-1.0312 13.734-13.641 20.719-3.5156 1.9219-8.1094 4.6875-10.219 6.0938-4.125 2.7656-6.1875 3.1875-7.2656 1.5zm0.9375-17.203c11.812-1.125 17.812-3.5156 18.891-7.5938 0.65625-2.5312 0.65625-2.5312-2.9531-1.9219-7.4531 1.2656-16.219 0.79688-18.141-0.9375-2.6719-2.3906-2.2969-2.9062 2.8125-4.0312 3.9375-0.84375 11.344-3.75 16.312-6.3281 2.3438-1.2656 1.9688-2.4844-1.3125-4.0312-1.7812-0.84375-6.7031-4.875-11.016-9-7.5469-7.2188-7.9219-7.5-12.844-7.875-3.6094-0.28125-5.2969-0.09375-5.8125 0.79688-1.0781 1.7812-3.7969-0.70312-3.4219-3.1406 0.23438-1.6875 0.98438-1.9219 6.0469-2.1562 4.5469-0.23438 6.4688 0.14062 9 1.6406 1.7812 1.0312 3.3281 1.7812 3.4688 1.6406 0.70312-0.70312 0.70312-3.375 0.046875-6.6562-1.3594-6.7969-1.3594-8.5312-0.046875-9.6094 2.7188-2.2969 1.3594-2.9531-4.8281-2.4375-6.7031 0.5625-15.328 3-17.625 4.9219-0.79688 0.65625-1.9219 1.2188-2.5312 1.2188-1.4531 0-1.3125 4.125 0.32812 9.5156 2.8594 9.4688 0.42188 18.422-6.0469 21.984l-3.3281 1.8281 2.25 3.1875c1.2188 1.7344 3.6094 5.8594 5.3438 9.1406 3.375 6.4219 5.6719 9.4688 7.7344 10.266 2.1094 0.84375 6.8906 0.75 17.672-0.28125zm19.594-30.656c1.875-1.3125 2.0625-2.0156 1.5938-5.5781-0.65625-4.6875-4.4531-11.812-9.1875-17.109-3.1875-3.5625-3.2812-3.6094-4.6875-1.8281-1.0781 1.3594-1.3125 3.0469-0.89062 6.8438 0.375 3.4688 0.14062 5.7656-0.75 7.4062-1.2188 2.25-1.125 2.5312 1.9219 5.3438s8.2969 6.375 9.375 6.4219c0.28125 0 1.4531-0.65625 2.625-1.5zm-26.25-37.734c2.3906 0 2.1562-1.3594-0.42188-2.5312-1.7812-0.79688-2.5781-0.60938-4.7812 1.2656l-2.6719 2.25 3.0938-0.51562c1.6875-0.28125 3.8438-0.51562 4.7812-0.51562zm-193.13-1.7344c1.6875-0.65625 1.6406-0.79688-0.70313-2.3438-3.4219-2.25-3.1406-4.5469 1.5469-12.141l4.0312-6.5156-7.1719-2.3906c-8.1094-2.7188-9.4688-3.8906-8.9062-7.7344 0.51563-3.6094-0.9375-2.3438-4.125 3.5156-3.0469 5.5781-3.8906 11.391-2.4844 17.156 1.4531 6.0469 2.8594 7.5938 8.4844 9.5625 5.25 1.8281 6.6562 1.9688 9.375 0.89062zm8.2969-3.2344c1.7344-0.75 7.9219-1.7344 13.688-2.25 5.7656-0.51562 11.203-1.3125 12.047-1.8281 0.89062-0.51562 1.125-0.9375 0.60937-0.9375-0.65625 0-0.84375-1.7812-0.5625-4.875 0.51563-6.4688-1.1719-16.922-3.2344-19.688-0.89063-1.2188-2.5312-2.8125-3.6562-3.5156-1.9219-1.2656-2.0156-1.1719-3.0938 3.0469-0.89063 3.4688-2.3438 5.5781-7.1719 10.359-6.5625 6.4688-13.453 15.188-13.734 17.391-0.5625 4.0312 0.1875 4.3594 5.1094 2.2969zm2.4844-24.328c1.9219-2.5781 3.2344-10.266 1.9219-11.062-0.42187-0.28125-3.1875-0.046875-6.0938 0.51562-4.2188 0.79688-5.8594 1.5938-8.0156 4.0781-3.6562 4.1719-3.1406 5.8125 2.3906 7.6875 5.8125 1.9688 7.5938 1.7344 9.7969-1.2188zm77.766-6.6094c2.5312-0.70312 5.9531-1.875 7.6875-2.625l3.0938-1.3594-2.1562-1.1719c-2.7656-1.4531-19.125-2.4375-19.125-1.125 0 0.89062 1.4531 3.8906 3.0469 6.375 0.9375 1.4531 1.8281 1.4062 7.4531-0.14062zm6.3281-14.672-0.09375-4.9688-4.9688-2.625c-2.7188-1.4531-7.1719-4.125-9.8438-5.9531-5.25-3.6094-6.3281-3.6562-13.359-0.65625l-3.6562 1.5938 3.4219 1.4531c4.6406 1.9688 4.3125 2.8125-0.89063 2.1562l-4.3125-0.5625 3.6562 2.9531c2.0156 1.6406 5.0625 4.5 6.8438 6.375l3.1875 3.4219 9 0.42188c4.9688 0.23438 9.2344 0.60938 9.5156 0.89062 1.2188 1.2188 1.5469 0.1875 1.5-4.5zm36.094-7.6406c0-0.32812 1.0781-1.8281 2.3438-3.3281 5.4844-6.375 6.9375-13.453 3.4219-16.969l-1.9219-1.9219-3.375 2.9531c-3.7969 3.3281-5.9531 6.9375-5.7188 9.5625 0.09375 1.2188-0.51563 1.875-1.875 2.0625-2.9062 0.42188-2.5781 1.7812 1.3125 5.7188 2.9062 2.9062 5.7656 3.8438 5.7656 1.875zm-33.75-2.5312c0-3.6094-7.5-12.656-15.703-18.891-5.7188-4.3594-14.438-6.8906-14.438-4.2188 0 0.46875 2.6719 3.4688 5.9062 6.6562 3.9844 3.9375 7.2188 6.2812 9.7969 7.0781 2.6719 0.84375 3.8906 1.7344 3.8906 2.9062 0 1.6875 7.2188 7.7344 9.3281 7.875 0.60937 0.046875 1.125-0.60938 1.125-1.4062zm-39.797-4.4531c0.5625-1.5 3.375-2.8125 9.5156-4.4531l3.8906-1.0312-5.4844-4.8281c-4.7344-4.1719-5.5781-4.5938-6.0938-3.1875-1.125 3.0469-5.9531 8.5312-8.8125 10.031l-2.8125 1.4531 4.0781 1.5938c5.2031 2.0625 5.1562 2.0625 5.7656 0.42188zm58.734-2.9531c0.375-1.3594 0.70312-7.5 0.70312-13.641 0-9.8906-0.23437-11.391-1.9219-13.688-1.0781-1.4062-2.5781-2.7188-3.3281-2.8594-3.4219-0.65625-10.547 10.828-11.344 18.375-0.42187 3.8906-0.14062 4.875 2.3438 8.3438 1.5469 2.2031 2.8594 4.4062 2.8594 4.9688 0 0.60938 2.0156 0.98438 5.0156 0.98438 4.6875 0 5.0625-0.14062 5.7188-2.5312zm-239.72 153.28c0-0.375 1.2656-2.1094 2.8125-3.8906 3.5156-3.9844 5.625-7.9688 4.875-9.2344-0.375-0.60938 0.65625-0.84375 2.9062-0.65625 2.8594 0.23438 3.5625 0.65625 3.7969 2.3906 0.42188 3-8.625 12.047-12.047 12.047-1.3125 0-2.3906-0.32812-2.3906-0.70312zm75.703-1.3125c-2.2031-0.84375-2.25-0.9375-0.51562-2.2031 0.98438-0.70312 3.1406-1.3125 4.8281-1.3125s5.1094-1.0312 7.5938-2.2969c4.5469-2.2969 6.3281-2.2969 6.3281-0.046875 0 1.3125-8.9062 5.4844-13.219 6.2344-1.5 0.28125-3.75 0.09375-5.0156-0.42188zm-38.438-8.2969c-3.375-2.2969-5.8125-6.375-5.0156-8.4844 0.65625-1.7344 4.4062-3.1406 6.75-2.5312 1.0312 0.28125 2.1562 1.6875 2.625 3.375 1.0781 3.7969 4.2656 4.0781 4.6875 0.375 0.23438-1.9219 0.79688-2.5312 2.3906-2.5312 2.3906 0 3.3281 1.6406 2.625 4.4531-0.46875 1.8281-0.14062 1.9219 5.9531 1.9219 6.1875 0 9 1.0312 6 2.2031-0.79688 0.28125-4.1719 0.5625-7.5 0.5625-3.8906 0-6.7031 0.51562-7.875 1.3594-2.5781 1.9688-7.0781 1.6406-10.641-0.75zm34.031 0.23438c-2.5312-1.0312-4.0781-2.4844-5.5781-5.2969-0.98438-1.8281-0.79688-2.5312 1.3594-5.3438 2.9531-3.8438 7.5469-5.9531 13.266-6.0469 3.8438-0.046875 4.3594-0.32812 6.1875-3.5156 3.7031-6.4219 11.391-8.1562 15-3.3281 1.9219 2.5781 3.0938 10.078 2.1562 13.734-0.5625 2.25-5.625 5.25-8.8594 5.25-1.0312 0-4.4531 1.2188-7.6875 2.7188-6 2.8125-11.625 3.4688-15.797 1.7812zm11.906-3.375c1.8281-0.51562 1.9688-1.6406 0.60938-5.4844-1.2188-3.5625-5.2969-5.4375-8.0156-3.75-2.3906 1.5-4.2188 4.875-3.375 6.2812 1.1719 1.9219 6.375 4.5938 7.7812 4.0312 0.75-0.32812 2.1094-0.75 2.9531-1.0312zm11.109-4.4531c1.0781-0.42188 1.4062-1.7344 1.3594-5.25-0.046875-2.5781-0.375-5.7188-0.75-6.9844l-0.65625-2.2969-1.5469 2.9062c-1.5469 2.9531-2.0156 8.0156-0.98438 10.688 0.60938 1.6406 0.60938 1.6406 2.5781 0.89062zm-37.172-3.3281c4.9688-5.1562 6-7.2656 4.875-10.172-1.125-3-0.09375-3.5625 4.2188-2.1562 4.0781 1.3125 4.9219 3.8438 2.5312 7.4531-2.3438 3.6094-9.8906 8.7188-12.797 8.7188h-2.5781l3.75-3.8906zm-34.547-4.2656c-2.9531-2.9531-3.5625-4.125-3.3281-6.5156 0.42188-4.125 3.7969-6.3281 10.641-6.9375 4.7812-0.42188 5.625-0.79688 5.625-2.25 0-4.7812 4.9688-8.2031 12.047-8.2969 3.6562-0.046875 4.875 0.375 6.8438 2.3438 4.2188 4.2188 3.0938 14.203-2.3906 20.953-0.9375 1.1719-2.625 1.5938-6.0469 1.5938-2.625 0-6.2344 0.60938-8.0625 1.3594-1.7812 0.75-5.2031 1.3594-7.5 1.3594-3.7031 0-4.6875-0.42188-7.8281-3.6094zm18.422-1.5938c0.98438-0.9375-7.3125-7.5938-9.4219-7.5938-4.2656 0-5.0625 3.6094-1.6406 7.5938 1.1719 1.3594 2.2031 1.5469 6 1.0312 2.5312-0.32812 4.7812-0.79688 5.0625-1.0312zm7.2188-8.7656c0.046875-2.9062-0.42188-6.1875-0.98438-7.2188-0.98438-1.875-1.0781-1.875-2.2969-0.23438-1.7344 2.3438-1.5469 8.2969 0.32812 12.375 1.9688 4.1719 2.8125 2.7656 2.9062-4.9219zm-135.98 10.219c-6-0.60938-12.234-3.0938-14.438-5.7188-1.3125-1.5938-0.65625-6.0938 1.5-9.7031 1.6406-2.7656 8.6719-8.2969 13.031-10.312 15.469-7.0312 30.188-7.125 40.688-0.23438 5.4375 3.5625 0.28125 6.4219-5.9062 3.2812-8.25-4.2188-15-3.8906-25.594 1.125-5.3906 2.5312-11.906 9.0938-11.906 11.953 0 3.375 2.0156 4.3594 9.7969 4.875 9.3281 0.60938 16.781-0.84375 22.312-4.4062 3.2344-2.0625 5.0625-2.6719 6.7031-2.25 3.0469 0.75 2.8594 2.0625-0.75 5.4375-5.3906 5.0625-20.016 7.5-35.391 5.9062zm281.63-17.156c-0.9375-1.5469 0.42187-3.2812 5.1562-6.4688 5.5781-3.75 19.359-15.141 22.547-18.562 2.0625-2.25 6.2344-3.2344 7.6406-1.8281 0.32812 0.32812-0.70313 2.3906-2.2969 4.5938-8.7188 12.141-30.328 26.719-33.047 22.266zm-207.66-9.2344c-4.2656-0.375-10.031-1.1719-12.797-1.7344s-9.375-1.5938-14.672-2.2969c-10.688-1.4062-35.625-9.1406-45.094-14.016-3.375-1.7344-8.9062-6.0938-14.438-11.391-7.3594-7.0312-9.375-8.5312-11.203-8.1562-3.4219 0.65625-10.406-1.4062-15.281-4.5469-10.312-6.6094-16.266-16.266-14.672-23.859 0.79688-3.7031 7.0312-6.3281 14.953-6.3281 4.7812 0 7.1719 0.5625 12.141 2.9531 3.4219 1.6406 8.0625 4.3594 10.312 6.0938l4.125 3.1406 2.5312-2.7188c3.0469-3.2344 5.9531-4.125 12-3.5156 4.8281 0.46875 7.7344 2.3906 9.3281 6.1875 1.5 3.5625 1.6875 4.5469 2.2031 12.047 0.51562 6.8906 0.46875 7.0781-2.25 9.7969-2.0625 2.0625-3.6094 2.7656-6 2.7656-3.9844 0-4.6875-1.0312-2.25-3.0938 1.5469-1.3594 1.7812-2.25 1.3125-5.3906-0.75-4.7812-3.1875-12.516-4.5-14.156-1.5-1.9219-3.2344 2.9062-3.2812 9.2344-0.046875 4.2188 0.23438 5.25 1.4062 5.25 0.79688 0 1.2656 0.51562 1.0781 1.125-0.23438 0.70312-2.1562 1.125-5.2969 1.125h-4.9219l-4.6875-7.6406c-3.8906-6.375-5.6719-8.2969-10.547-11.484-5.3906-3.5156-13.219-6.6562-14.203-5.6719-1.1719 1.1719-0.65625 6.0938 0.98438 9.75 2.625 5.7188 4.125 7.6875 8.7656 11.391 4.125 3.2812 7.5938 4.5 5.4375 1.9219-0.60938-0.70312-0.9375-2.6719-0.79688-4.3125 0.23438-2.5781 0.70312-3.0938 3.2812-3.6094 3.4219-0.70312 4.7812 0.79688 4.7812 5.3438 0 2.1562 1.125 3.5625 6.0938 7.5938 3.375 2.7188 7.5469 6.2344 9.375 7.7812 8.625 7.4062 15.375 10.781 28.547 14.109 4.1719 1.0312 9.2344 2.4844 11.203 3.1406 2.0156 0.65625 7.5469 1.875 12.328 2.7188 4.7812 0.79688 10.734 1.8281 13.219 2.2969 11.625 2.1094 17.25 2.7188 27.984 3.1406 11.016 0.42188 15.328 1.3594 15.328 3.375 0 2.625-13.641 3.375-31.922 1.7344zm-116.34-2.3906c-3.9844-0.89062-11.344-4.1719-12.75-5.7188-2.1094-2.2969-0.46875-6.1875 2.9062-6.9375 1.4062-0.32812 3.1406-0.70312 3.8906-0.89062 4.9219-1.1719 14.812-1.3594 22.078-0.42188 8.9531 1.1719 14.109 2.7656 18.328 5.7188 2.0156 1.4062 2.3438 2.0156 1.5 3.0469-1.2188 1.4531-6.3281 1.7344-6.3281 0.375 0-1.5-1.7812-1.0312-4.875 1.2656-1.5938 1.2188-4.5469 2.625-6.5625 3.1875-3.5625 0.98438-14.578 1.2188-18.234 0.375zm18.75-5.3438c1.5-0.75 2.6719-1.7344 2.6719-2.1562 0-1.1719-14.391-2.0625-19.641-1.1719l-4.5469 0.75 3.6562 1.9688c4.5 2.4375 13.781 2.7656 17.859 0.65625zm590.72-3.0469c-2.5312-1.5469-3.1406-1.5938-5.8125-0.46875-6.8906 2.9062-10.641 0.98438-15.047-7.7344-1.3125-2.5781-3-4.6875-3.7031-4.6875-0.75 0-1.3594-0.79688-1.3594-1.8281 0-1.3594 0.60938-1.8281 2.3438-1.8281 3.7031 0 5.4844 1.4531 9.6562 7.7812 3.2812 5.0156 4.1719 5.8125 5.7656 5.25 1.0312-0.375 3.5625-0.65625 5.625-0.65625 2.4844 0 3.6094-0.32812 3.375-1.0312-0.89063-2.2969 2.5781-2.1094 4.7812 0.23438 2.7656 3 2.8594 5.3906 0.1875 6.1406-2.8125 0.75-2.625 0.79688-5.7656-1.125zm-458.95-5.9531c-4.6406-2.0156-8.4844-7.4531-11.719-16.5-0.79687-2.3438-1.7344-3.5156-2.5312-3.2344-0.70312 0.23438-3.375 0.5625-6.0469 0.75-6.0469 0.46875-11.109-1.8281-18.047-8.2031-5.5781-5.1094-6.2812-7.5938-2.4844-9.0469 3.3281-1.3125 15.281 0.32812 20.953 2.8594 2.2969 1.0312 4.2656 1.7344 4.3594 1.5938s-0.14063-3.3281-0.60938-7.0781c-1.0312-8.9062-0.46875-30.562 0.79688-32.109 0.5625-0.65625 1.4531-2.9531 2.0156-5.1094s2.0625-5.3906 3.2812-7.2188c1.7344-2.5312 2.25-4.5938 2.3438-8.8594 0.28125-12.141-0.70312-22.734-2.0625-21.938-0.46875 0.28125-1.875 2.5312-3.0938 4.9688-2.2969 4.5469-3.1875 12.75-1.3594 12.75 0.51562 0 0.89062 0.42188 0.89062 0.89062 0 1.6406-6 0.98438-7.6406-0.79688-6.0938-6.75 1.7812-25.219 11.578-27.047 5.2031-0.98438 9.9375 1.125 11.391 5.0625 1.1719 3.2812 0.84375 15.609-0.65625 22.125l-0.75 3.375h4.4531c5.6719 0 5.7656 1.2656 0.42188 5.7656-3.7031 3.0938-6.1406 7.1719-10.5 17.531-2.625 6.1406-3.6562 30.609-1.7812 41.062 0.375 2.0156 0.89062 5.2969 1.1719 7.3125 0.60938 4.2188 3.5156 12.469 5.5312 15.516 0.75 1.1719 3.0469 2.8594 5.0625 3.7969 2.0156 0.9375 3.6562 2.0156 3.7031 2.3906 0.046874 1.125-5.6719 0.70312-8.6719-0.60938zm-16.969-22.547c1.5938-0.5625 2.8594-1.3594 2.8594-1.7344 0-1.9219-14.016-8.1094-18.469-8.1562-1.4062 0-1.3594 0.28125 0.46875 2.3438 1.9688 2.2969 10.547 8.5781 11.719 8.5781 0.32812 0 1.875-0.46875 3.4219-0.98438zm-38.438 20.578c-3.75-2.5781-4.2656-3.7969-1.7344-4.2188 1.5469-0.28125 1.5469-0.5625 0.42187-3.3281l-1.2188-3-3.375 2.7656c-9.0938 7.5-20.062-0.70312-23.062-17.203-1.5-8.1562-1.1719-10.828 1.4062-12.516 6.8906-4.5 16.688-1.5 25.828 7.9688 9.1406 9.4688 16.312 26.391 12.938 30.469-1.7812 2.1562-7.3125 1.6875-11.203-0.9375zm-7.125-10.312 3.5625-2.5781-2.4375-4.125c-2.6719-4.5469-9.1406-12.375-10.688-12.984-1.0312-0.375-0.98437 2.4375 0.046876 10.828 0.5625 4.4531 3.7031 11.438 5.2031 11.438 0.42188 0 2.3438-1.1719 4.3125-2.5781zm68.25-6.2344c-0.32812-0.32812 0.89063-3.1875 2.6719-6.375s3-5.8125 2.7188-5.8125-0.14063-1.0312 0.32812-2.25c1.5-3.9844-0.65625-3.4688-5.25 1.3125-5.6719 5.9062-9.375 6.2812-6.4688 0.65625 3-5.8125 10.828-10.266 16.266-9.2812 7.7812 1.4531 7.2656 8.9531-1.2656 18.094-3.7031 3.9844-7.2656 5.3906-9.0469 3.6562zm195.89-4.125c-2.5312-1.2188-5.5781-6.75-6.3281-11.484-0.51562-3.2344-0.28125-4.0781 1.7344-6.0938 1.7344-1.7344 3.2812-2.3438 6-2.3438 2.0156 0 3.8906 0.42188 4.2188 0.89062 0.32812 0.51562-0.375 0.89062-1.5938 0.89062-4.3125 0-5.4375 3.5156-3.0469 9.3281 0.70312 1.7344 1.9219 3.6562 2.6719 4.2656 1.125 0.9375 1.7344 0.5625 3.5625-2.3438 1.2188-1.9219 3.1406-6.1406 4.2656-9.4219 2.5781-7.3594 3.2344-8.2031 6.5156-8.2031 2.3438 0 2.625 0.28125 2.625 2.9531-0.046875 7.8281-5.25 18.984-10.031 21.422-2.6719 1.3594-7.875 1.4062-10.594 0.09375zm88.359-22.547c-2.7188-1.7344 2.5312-12.516 9.375-19.359 7.0312-7.0312 20.672-16.172 31.5-21.094 15.656-7.1719 17.531-8.3906 20.203-13.688 1.7812-3.4219 2.3906-12.047 0.98438-12.938-0.42188-0.28125-2.5781 1.4531-4.8281 3.8438-5.9531 6.3281-6.9844 7.6406-8.5781 11.531l-1.4531 3.5156 4.2656-2.3906c5.0156-2.8125 4.9688-2.8125 4.9688-1.0312s-8.9062 6.8438-12 6.8438c-4.0781 0-5.3438-0.89062-5.3438-3.8906 0-8.3438 13.781-23.156 23.719-25.453 4.5469-1.0312 8.8594 0.5625 10.594 3.9844 2.25 4.3125 1.7812 11.062-1.0312 15.891-1.3125 2.25-2.2031 4.3125-1.9219 4.5938s2.0156-0.046875 3.8438-0.65625c2.5312-0.84375 4.5469-0.89062 8.0625-0.14062 2.5781 0.5625 7.4531 1.2188 10.922 1.4531 7.5469 0.5625 12 2.8125 12 6 0 4.9688-17.062 10.688-29.25 9.75-7.5-0.5625-12.562-2.6719-12.094-5.0625 0.375-1.8281 4.3594-1.9219 10.688-0.23438 4.5 1.1719 10.312 0.65625 16.734-1.5469 4.5469-1.5469 5.0625-2.1094 3.1875-3.6562-3-2.4844-17.109-1.9219-17.109 0.65625 0 0.42188-2.5781 0.98438-5.7188 1.1719-12.328 0.79688-26.625 5.4375-36.281 11.719-1.2656 0.84375-4.9688 3.1875-8.2031 5.25-8.7656 5.5781-13.828 10.688-19.641 19.734-1.6875 2.625-3.75 5.0625-4.5469 5.3906-1.7812 0.70312-1.5469 0.70312-3-0.23438zm24.234-5.2969c-1.3594-0.23438-2.5312-0.79688-2.5312-1.2656s2.25-2.25 4.9688-3.9844 5.3906-3.9844 5.9062-4.9219c1.2188-2.2969 14.625-6.5156 22.875-7.1719 6.7031-0.5625 14.766 0.89062 16.5 3 1.7812 2.1562 0.14062 5.7188-3.75 8.2031-7.3125 4.5938-13.875 6.0938-28.219 6.375-7.2656 0.14062-14.344 0.046875-15.75-0.1875zm31.688-7.5c7.0781-1.9688 7.7344-3.9844 1.6406-4.9688-5.9062-0.9375-19.406 3.0469-19.406 5.7656 0 1.8281 9.9844 1.4062 17.812-0.75zm-342.66 4.6406c0-0.42188 1.3125-1.2188 2.9531-1.8281 6.6562-2.4375 16.078-14.578 16.922-21.797 0.46875-4.1719 0.46875-4.1719-1.7344-3.0469-4.3125 2.25-8.25 5.6719-7.7812 6.8438 0.79688 2.0625-2.1094 2.2969-4.0781 0.32812l-1.875-1.875 3-3.0938c4.0312-4.1719 9.6094-6.75 14.672-6.75 5.3438 0 7.5938 2.25 7.4062 7.4531-0.375 9.375-16.688 24.422-26.484 24.469-1.6406 0-2.9531-0.32812-2.9531-0.70312zm-28.359-5.9062c-0.79688-1.7344-1.7812-2.1094-6.0469-2.2969-2.8125-0.14062-6.4688-0.89062-8.1562-1.6875-9.1406-4.3125-17.812-22.688-13.734-28.922 1.9688-3 6.75-3.7969 11.484-1.875 4.2656 1.6875 13.312 10.922 16.078 16.406 0.98438 1.9688 2.0156 3.7969 2.2969 4.0781 0.75 0.70312 4.5469 13.172 4.5469 14.906 0 2.4844-5.2969 2.0625-6.4688-0.51562zm-3.7031-8.2031c-4.0781-7.9688-13.828-20.766-15.844-20.766-1.0312 0 0.51562 5.625 3.1406 11.391 1.3594 3 3.9844 6.9844 5.8594 8.8594 2.9062 2.9062 4.1719 3.5625 8.1094 4.2656 0.375 0.046875-0.1875-1.6406-1.2656-3.75zm323.11-11.109c0-1.3125 0.98438-3 2.3906-4.125 2.8594-2.25 2.2031-2.4375-1.6406-0.46875-9.9375 5.1562-5.5312-8.4375 6.3281-19.547 6.5625-6.1406 11.156-8.5312 15.516-8.2031 3.1406 0.28125 3.375 0.46875 3.6562 3.6562 0.46875 5.9531-5.5781 15.938-14.578 23.953-2.9062 2.625-4.4062 4.5-3.7031 4.7812 2.625 0.98438 0.84375 2.1094-3.4219 2.1094-4.2188 0-4.5469-0.1875-4.5469-2.2031zm6.8906-8.7656c4.0312-3.375 12.328-16.641 11.109-17.859-0.84375-0.84375-13.359 12.375-15.328 16.172l-1.875 3.6562 2.2031-0.28125c1.2188-0.14062 2.9531-0.89062 3.8438-1.6406zm-216.42 7.8281c-3.5625-1.5469-3.8438-1.9688-4.3594-7.4531-0.23438-2.4844-1.875-9-3.6562-14.531s-3.2344-10.125-3.2344-10.266 0.75-0.23438 1.6875-0.23438c2.4375 0 3.9375 2.1094 9.0469 12.797 2.5312 5.25 5.3438 10.266 6.3281 11.156 1.6406 1.5 1.7344 1.4531 1.875-0.23438 0.09375-0.98438 1.5938-5.0156 3.375-9 1.7812-3.9375 3.2344-7.5938 3.2344-8.1094s-0.9375-1.5469-2.0625-2.2969c-1.8281-1.2188-2.1094-2.2969-2.3906-9.2344-0.375-9.2812-1.1719-9.7969-6.0938-3.75-2.625 3.1875-3.9844 4.125-6.0469 4.125-3.9375 0-6.2344-1.5469-6.2344-4.1719 0-4.0781-2.4375-8.2969-7.6875-13.266-5.0625-4.7812-7.5-4.875-7.3594-0.28125 0.09375 3.3281-0.32812 6.8906-0.98438 8.1562-0.9375 1.8281-0.89062 3 0.51562 7.0312 3.0938 9.0469 4.8281 14.859 5.5312 18.375 0.60938 3.1406 0.42188 3.6094-1.5469 4.5-1.7812 0.79688-3.5156 0.60938-8.625-1.0781-3.5156-1.125-6.6562-1.8281-6.8906-1.5938-0.65625 0.65625 4.3594 6.8906 8.8594 10.969 2.0625 1.8281 4.9219 3.6094 6.4219 3.8906s2.7188 0.89062 2.7188 1.3594c0 1.4531-8.25 0.79688-11.672-0.9375-4.1719-2.1094-11.016-8.0625-14.812-12.891-2.3438-3-2.6719-3.8906-1.8281-5.4375 0.84375-1.5938 1.875-1.875 6.8438-1.875 3.2344 0 6.8906 0.42188 8.2031 0.89062 1.2656 0.46875 2.3438 0.5625 2.3438 0.14062s-1.2656-5.0156-2.8125-10.266c-4.0781-13.641-4.0781-13.688-2.2031-15.047 1.3594-0.98438 1.6406-2.4375 1.5-8.25-0.28125-14.344 4.7812-15.047 19.641-2.5781 3 2.5312 6.8438 6.3281 8.5781 8.4375 2.0625 2.5781 3.5625 3.7031 4.5 3.3281 6.9844-2.9062 13.922-1.6875 16.547 2.9062 0.84375 1.4531 1.7344 5.25 2.0156 8.4844 0.32812 4.125 1.0312 6.375 2.3438 7.8281 2.7656 2.9531 2.2969 5.5312-2.5312 14.672-4.3125 8.1094-4.4062 8.2031-7.7812 8.2031-2.7656 0-3.3281 0.28125-3 1.5469 0.51562 2.0156-1.8281 5.2969-3.7969 5.25-0.84375 0-2.8125-0.60938-4.4062-1.2656z"/>
</svg>
