<?xml version="1.0" encoding="UTF-8"?>
<svg width="1200pt" height="1200pt" version="1.1" viewBox="0 0 1200 1200" xmlns="http://www.w3.org/2000/svg">
 <path d="m1029.8 1029.9v-504.71c0-34.219-5.0625-76.781-16.266-116.25 20.953-2.8594 83.953-26.203 91.172-44.531 6.7031-17.672-22.594-27.047-27.094-31.266-23.484-21.844-47.859-44.25-83.672-49.734-3.3281-9.375-8.3906-13.734-15.844-16.406 7.2188-29.953 3.6094-39.609-7.3594-55.266-21.281-28.828-19.828-36.047-52.781-24.422-10.453-41.297-59.484-98.672-76.828-99.422-18.938-1.3594-18.844 32.812-21.516 39.141-1.5 3.6094-3.0469 6.9375-8.5312 21-284.21-163.64-647.29 58.172-647.29 377.16v509.39c-34.781 2.8125-68.156 27.047-81.375 60.656-2.9062 7.4062 8.2969 11.766 11.156 4.4062 10.688-27.188 37.453-50.203 72.891-53.203 57.703-3.9844 77.156 46.641 84.281 46.641h0.28125c7.4531-0.32812 4.0781-9.5156 20.812-27 49.453-53.016 131.68-25.734 146.86 37.594 1.8281 7.7344 13.547 4.9219 11.672-2.8125-12.469-52.078-72.328-93.844-133.74-66.375l-0.046876-217.78c0-7.9219-12-7.9219-12 0v223.82c-12.984 7.7344-25.922 19.828-34.359 34.359-13.406-18.797-33.984-32.391-57.188-37.875l-0.046876-520.13c0-94.406 31.875-187.31 95.016-263.26 3.6094 45.375 14.672 89.156 32.016 130.4-22.688 47.297-35.391 100.31-35.391 155.34v130.69c0 7.9219 12 7.9219 12 0v-130.69c0-49.594 10.688-97.5 29.859-140.81 50.25 108.28 145.31 197.39 269.72 247.4-3.9844 26.484 16.641 48.188 41.344 48.188 16.312 0 30.328-9.4688 37.266-23.109 23.156 5.5312 46.688 9.4688 70.078 11.859 0.60938 27.047 22.734 48.891 49.922 48.891 26.906 0 48.797-21.422 49.828-48.094 17.719-1.5938 35.156-4.0781 52.359-7.4531v370.13c-54.234-24-109.45 7.7812-127.08 52.641-2.9531 7.4062 8.2969 11.719 11.156 4.4062 20.203-51.422 88.312-73.031 135.05-30.891 17.062 15.188 14.531 23.016 21.141 24.047 0.375 0.046875 0.65625 0.28125 1.0312 0.28125h0.28125c7.4062-0.375 4.2188-9.7031 20.766-27 49.172-52.688 131.58-25.922 146.81 37.641 1.8281 7.6875 13.547 4.9219 11.672-2.8125-9.9375-41.531-48.797-72.422-88.031-74.812zm39.609-688.03c4.8281 4.5469 26.062 12.984 24.094 18.188-3.1875 8.1094-62.203 40.266-100.36 38.062 9.5625-10.078 11.859-15.656 13.828-18.469 2.3438-4.0312 4.5938-7.8281 7.9688-11.578 19.125-21-5.1094-21.938-17.625-71.906 29.438 6.2344 50.297 25.406 72.094 45.703zm-107.67-122.26c10.828 15.797 9.5156 24.984 4.6406 45.047-38.109-1.8281-53.438 23.391-72.141 37.406-4.3125 0-8.4844-0.28125-12-3.1875-10.594-8.7656 1.2188-20.531-1.5938-31.359-2.9062-8.625-12.328-4.0781-17.953 4.5-4.875-36.75-5.5312-38.578-4.875-42.938 2.7188-13.734 20.625-18.75 34.266-21.75 59.297-14.859 42.656-24.328 69.656 12.281zm-131.06-87.984c2.5312-6.0469 4.4062-31.781 9.8438-31.781h0.09375c7.6406 0.32813 55.406 48.281 65.953 90.891-22.688 6.9375-17.719 4.2656-32.25 9.0938-13.922-17.672-35.297-26.953-59.953-24.703 4.4531-15.703 10.125-28.828 16.312-43.5zm32.25 73.219c-8.9062 5.2031-15.234 13.219-16.969 22.125-0.9375 6.0469-0.70312 6.0469 5.8125 54.328 0.28125 2.1562 1.875 3.5625 3.75 4.3594-6.6562 6-18.562 1.9688-27.281 4.9219-4.6875 1.5938-9 5.25-10.031 9.9844-1.2188-0.98437-2.7656-1.5469-4.5-1.4062-18.422 2.0156-31.594-25.828-60.891-26.25-13.594-26.438 0.375-42.938 10.266-66.516 3.1406-9.6562 4.2188-8.5312 7.7344-8.1562 0.14062 0 1.7812 0.14062 1.9219 0.14062 8.3906 0 15.375-3.4219 22.688-6.5625 24.797-9.4219 50.531-6 67.5 13.031zm-324.66 243.1c-9.8906-7.6875-19.5-15.938-28.641-24.656 12.422-10.828 20.016-26.25 20.016-43.031 0-48.984-55.641-72.938-92.438-45.141-10.172-16.875-19.031-34.172-26.344-51.938 97.688-85.5 218.81-92.625 324.79-29.25 0.23438 3.6562-0.28125 8.8594 4.8281 20.766-19.031 6.4688-39 28.781-37.547 52.406 0.65625 9.2812 5.0156 19.453 4.3594 27.281-0.79688 14.25-19.547 31.828 31.594 58.266 16.922 8.7656 25.688 8.1094 45.281 4.9688 8.6719 36.891 29.156 26.156 61.453 47.953 11.531 5.9531 16.828 12.75 41.297-2.2969 6.1875 25.781 9.7031 52.641 9.9844 80.438-101.02 15.609-207.28-3.8438-301.45-57.516 17.297-36.094-30.422-68.297-57.188-38.25zm16.734 44.016c-22.453-9.75-15.469-43.734 9.0938-43.734 7.9219 0 15.562 4.0781 19.781 11.391 10.875 18.891-8.6719 41.156-28.875 32.344zm-82.875-66.234c-24.984 0-45.328-20.391-45.328-45.469 0-41.25 49.828-59.438 77.484-32.25 28.828 29.297 7.9219 77.719-32.156 77.719zm272.26-23.766c-42.422-21.984-26.109-29.062-25.125-46.781 1.5938-18.469-13.453-31.406 4.5-53.719 30.844-38.016 58.547 0.28125 69.703 4.1719l-0.046875 0.1875c7.0312 3.9375 22.312 9.1406 26.109 2.0625 2.1562 3.1406 5.8594 5.1094 8.3906 8.3906 8.5781 10.922-11.766 24.422-2.9531 33.422 1.875 1.9219 4.6406 2.1094 7.3125 1.6875-0.51562 3.0938 0.09375 20.578-9.4688 40.688-3.3281 6.8906-8.6719 8.7656-19.266 10.453-37.875 5.2969-41.297 8.7188-59.156-0.5625zm62.438-242.68c-2.25 6.375-4.125 12.422-5.5312 18.141-13.547 3.5156-19.922 9.0469-29.344 8.8594-2.1562-0.23437-4.8281-0.51562-7.5938 0.28125-9.75 2.4844-12.234 14.531-13.453 18.141-2.4844 7.3125-6.5156 11.672-11.344 23.719-108.19-53.438-237.56-38.906-333.37 42.75-22.312-59.766-20.344-95.625-22.641-101.58 134.9-86.297 297-83.812 423.28-10.312zm-506.95 92.578c-0.23438-2.9531-2.6719-5.0156-5.4844-5.3906 23.062-26.438 49.359-49.828 78.234-69.656 3.1406 35.484 11.203 69.984 24.094 103.12-27.797 25.641-51.328 56.109-69.469 90-14.812-37.594-24.188-77.156-27.375-118.08zm337.69 430.36c-16.547 0-29.953-13.453-29.953-29.953 0-29.25 37.688-40.969 54.469-17.297 13.781 19.594-0.09375 47.25-24.516 47.25zm157.26 37.641c-21 0-38.062-17.062-38.062-38.016 0-21.094 17.062-38.016 38.062-38.016s38.062 17.062 38.062 38.016-17.062 38.016-38.062 38.016zm102.23-55.734c-17.438 3.4688-35.203 6.0938-53.156 7.6875-4.6406-22.828-24.891-40.031-49.031-40.031-22.266 0-43.266 14.766-48.703 39.234-22.5-2.25-45.094-6.0938-67.359-11.344 2.1094-11.766-0.65625-22.781-6.9375-31.641-18.328-25.969-58.219-23.062-72.141 6.4219-124.5-50.344-218.76-140.72-266.39-250.08 17.391-34.875 40.453-66.328 68.203-92.625 7.5469 17.719 16.453 35.016 26.812 51.891-8.5781 10.312-13.5 23.062-13.5 36.609 0 43.312 46.125 71.531 84.938 50.25 10.219 9.8438 21 19.125 32.156 27.703-13.922 35.203 29.859 63.422 56.391 37.641 93.188 53.484 200.9 76.172 308.72 59.906zm-24.516-206.72c-11.016 5.3438-14.156 2.2969-20.25-1.8281-33.844-22.781-49.266-11.578-56.156-39.844 16.547-2.5312 30.141-3.375 37.5-18.516 6.4688-13.641 10.078-29.156 10.453-44.859 0.046875-2.5312-1.4531-4.6875-3.6094-5.625 2.4375-2.2969 4.7344-4.3125 9.4219-3.375 3.6094 0.70312 5.625 3.0469 7.5 6 4.6875 7.4062 19.266 10.219 20.438-4.0781 1.2656-15.422 10.078-16.453 25.031-23.203 8.0625-3.6562 12.422-11.391 6.375-16.781 12.469-11.203 20.625-20.812 35.156-25.641 12.562-4.5 21.516-2.9062 23.109-2.9531 24.375 1.5 8.25 22.969 39.891 71.953 3.6562 5.2969 3.6094 5.9062-1.8281 11.859-4.0312 4.4531-6.9844 9.5625-11.766 17.578-27.797 42.609-77.016 42.609-87.891 10.172-3.7031-11.625-1.5-20.578-16.875-37.078-5.3906-5.8125-14.203 2.3438-8.7656 8.1562 13.078 14.109 9.75 18.844 14.25 32.625 4.2188 12.703 13.547 22.125 25.781 27.234-2.8125 3.4688-13.312 13.359-18 17.484-10.781 10.078-21.562 17.016-29.766 20.719zm40.547-14.344c5.4844-4.9219 15.938-14.156 19.406-20.578 2.9062 0.46875 5.7656 1.0781 8.6719 1.0781 12.281 0 25.172-3.7031 40.219-15 9.0469 1.7812 14.438 1.7344 20.016 1.5 9.0938 31.312 14.297 63.75 15.703 96.75-29.297 13.875-59.812 24.234-91.031 31.266-0.046875-32.156-4.4531-64.078-12.984-95.016zm104.72 586.69c-30.656 1.8281-63.094 20.062-80.062 48.984-3.4219-4.7812-7.2656-9.2344-11.531-13.266v-395.68c31.641-8.1562 62.297-19.359 91.641-33.656zm0-405c-1.4531-0.46875-3.0938-0.42188-4.5469 0.28125-27.891 13.641-57 24.422-87.047 32.391v-106.92c31.312-6.8438 61.922-17.109 91.453-30.703 0.32812 27.469 0.09375 71.766 0.14062 104.95z"/>
</svg>
