<?xml version="1.0" encoding="UTF-8"?>
<svg width="1200pt" height="1200pt" version="1.1" viewBox="0 0 1200 1200" xmlns="http://www.w3.org/2000/svg">
 <path d="m1090.4 972.84c1.2656-5.9062 2.1562-12 2.7188-18 4.4531-46.359-11.25-91.969-22.219-136.36-5.7656-23.25-10.641-46.781-11.297-70.781-0.65625-25.781 2.7656-51.375 5.0625-76.922 2.25-25.312 3.2344-50.906-1.7344-75.938-4.6406-23.297-14.297-45.188-23.719-66.844-9.4219-21.75-18.469-43.594-22.969-66.938-4.9688-25.5-5.9531-51.562-10.406-77.062-9.2344-52.922-27.469-105.14-62.109-146.9-44.438-53.531-110.81-81-178.08-92.203-11.109-1.875-22.219-3.2812-33.422-4.4062h-0.28125l-8.8594-5.7188c12.516-15.375 24.188-31.969 25.781-52.359 1.5938-19.781-8.625-40.219-28.969-45.094-8.7188-2.0625-18.469-1.125-25.781 4.3125-3.7031 2.7188-6.5156 6.2344-9.2812 9.8438-2.1562 2.9062-4.5 6.2812-7.3125 8.3438-2.5312 1.875-5.3438 2.3906-8.625 0.5625-4.0312-2.25-6.5625-6.2812-8.8125-10.219-2.6719-4.6875-5.25-9.4688-8.9062-13.5-3.375-3.6562-7.6875-6.2812-12.328-7.875-10.594-3.7031-22.734-1.5-32.438 3.6562-9.1406 4.875-16.5 12.375-23.391 20.062-20.109-16.406-51.703-23.391-71.812-3.375-8.5312 8.4844-14.062 21.047-13.125 33.188 0.51562 6.375 2.5781 12.375 6.4219 17.531 4.5938 6.0938 10.922 10.312 17.344 14.25 5.9531 3.6562 12.562 7.125 16.5 13.125 3 4.5938 5.625 11.344 1.6875 15.75-0.375 0.46875-0.70312 0.9375-0.9375 1.4062-75.656-0.98438-151.4 22.641-213.24 66.188-62.344 43.875-108.84 107.58-133.13 179.72-12.188 36.141-18.609 74.25-18.797 112.36-0.23438 44.484 6.9375 89.859-3.6562 133.69-9.7969 40.406-31.641 77.062-35.344 119.06-3.5625 40.031 7.7812 84.094-12.656 121.03-9.4688 17.062-23.25 31.219-33.094 48.094-8.25 14.25-12.75 30.844-10.312 47.344 3.4688 23.672 23.953 38.156 46.781 41.344 5.9062 0.84375 11.766 0.9375 17.625 0.46875-2.1562 9.6094-3.2812 19.5-2.4375 29.344 0.9375 10.875 3.8438 21.328 8.4375 31.219 8.4375 17.906 24.234 34.125 44.438 37.5 8.0625 1.3125 17.062 0.84375 25.078-0.9375 3.1875-0.70312 6.3281-1.875 9.2812-3.2812 2.6719-1.3125 4.9219-2.8125 7.875-3.4688 5.5312-1.2188 11.625-0.14062 16.734 2.0625 12 5.1562 21.609 14.625 33.422 20.25 12.234 5.8125 25.594 9 39.188 9.2812h0.375c5.625 3.375 12.375 5.2031 18.984 5.5781 13.641 0.75 27.281-6.0938 38.297-13.5 11.344-7.6875 22.406-17.438 30.094-29.062 9.7969 4.3125 21.562 4.125 31.219-1.2656 5.1562-2.9062 9.5625-7.0312 12.938-11.859 8.2969 13.219 22.828 22.172 38.531 24.094 2.4375 0.28125 4.7812 0.375 7.1719 0.28125-0.5625 3.6562-0.5625 7.3594 0.46875 10.922 1.6875 5.8594 6 10.125 11.016 13.453 12.141 8.0625 26.484 7.125 39.516 2.3438 6.1875 13.688 20.25 23.438 35.438 23.766 16.031 0.32812 31.031-10.219 37.219-24.75 19.406 1.125 37.781-9.9844 46.781-26.719 10.594 21.75 29.766 39.281 52.5 47.719 12.844 4.7344 27.844 4.7344 37.688-5.9531 8.1562-8.9062 11.109-21.656 9-33.375-0.32812-1.8281-0.79688-3.6562-1.3125-5.3906 8.3438 7.5 18.188 13.453 28.5 17.906 15.375 6.6094 33.797 8.9531 47.625-2.4375 12.469-10.312 12.469-28.125 5.2031-41.531-7.6875-14.156-22.406-21.609-36.844-27.469 5.625-6.9375 9.0938-15.562 10.172-24.469 1.5 2.25 3.0938 4.4062 4.6875 6.5625 7.0312 9.5156 14.719 19.078 23.578 27 16.594 14.906 40.688 25.078 63 18.188 9.9844-3.0938 19.406-9.75 25.875-18.375 33.141 15.188 76.219 12 108.38-3.4688 17.859-8.625 35.766-23.953 39.281-44.438 0.9375-5.4375 0.9375-10.969-0.23438-16.406-1.0312-4.9688-5.0625-9.8906-3.9375-14.953 1.125-4.9688 3-9.8438 4.125-14.859zm-707.9 140.53c-9.2812 7.2188-20.578 14.109-32.484 15.75-0.23438 0-0.46875 0.09375-0.75 0.09375 0.23438-0.9375 0.23438-1.9219 0-2.8125-0.89062-3.2812-4.125-4.6875-7.2188-4.125-4.3125 0.84375-8.625 1.3125-13.031 1.4062-2.25-1.9688-3.8438-4.5938-4.2188-7.8281-0.75-6.75 2.625-13.875 5.8594-19.5 3.1875-5.625 7.125-10.781 11.344-15.562 6.4688-7.3125 13.688-14.156 21.562-20.109-3 9.4688-6.0469 18.938-9.0469 28.406-2.2969 7.2188 9 10.266 11.297 3.0938 4.5-14.25 9.0469-28.453 13.594-42.656 0.23438-0.46875 0.375-0.98438 0.46875-1.5 0.60938-1.875 1.2188-3.75 1.7812-5.6719 5.3438 4.5938 11.625 7.875 18.375 9.4688-6.7031 9.1875-8.2969 21.938-2.625 32.531 1.5469 2.9062 3.5156 5.4375 5.7656 7.5938-5.5312 8.25-12.938 15.375-20.766 21.469zm-131.44-88.641c34.125 7.875 68.906-1.2188 102.66-8.6719-14.859 17.297-30 34.781-50.344 45.469-24.516 12.844-55.406 16.922-79.078 0.09375-9.5625-6.8438-17.156-16.922-20.062-28.406-3-11.906 0.046875-24.281 6.5625-34.453 15.469-24.281 46.078-30.469 72.75-24.656 14.719 3.1875 29.203 9.375 43.031 15.281 9.6562 4.1719 19.594 8.625 28.688 14.344-14.906 3.1875-29.812 6.75-44.859 9.2812-18.469 3.0938-37.781 4.7344-56.25 0.46875-7.3125-1.6875-10.5 9.6094-3.0938 11.344zm226.74 65.625c-7.125-4.9688-12.516-12.281-14.812-20.625-1.5-5.5312-9.7969-5.625-11.297 0-0.28125 0.9375-0.5625 1.875-0.89062 2.7656-5.4375 14.156-21.844 22.453-35.672 13.781-0.375-0.1875-0.70312-0.46875-1.0312-0.70312-5.625-3.9844-9.0469-10.5-8.25-17.438 0.75-6.5625 4.9688-13.406 11.531-15.656 7.2188-2.5312 4.2656-12.469-3.0938-11.297-11.578 1.875-23.062-4.0312-29.719-13.219-4.0781-5.7188-6.2812-12.656-5.4375-19.875 1.0312-8.6719 6.0938-17.156 13.125-22.312 7.7812-5.6719 17.25-6.75 26.25-3.8438 2.0625 0.65625 4.0781 1.5938 5.9531 2.6719 3.375 6.6562 8.4844 12.562 14.344 17.344 0.09375 0.14062 0.09375 0.28125 0.1875 0.46875 0.9375 3.2344 3.75 4.4062 6.375 4.0312 5.7188 2.0625 10.406-6.9375 4.5938-10.828l-1.3125-0.9375c-3.0938-7.2188-8.3438-13.312-14.625-17.812-3.1875-7.5-3.5625-15.844 0.89062-23.719 1.7812-3.1875 4.2188-5.9531 7.3125-7.875 1.4062-0.89062 2.8594-1.5469 4.5-1.9688 0.1875-0.09375 0.42188-0.09375 0.65625-0.14062h0.046875c0.84375 0 1.5938 0 2.4375 0.046875h0.5625c0.14062 0 0.28125 0.046875 0.46875 0.09375 0.79688 0.1875 1.5938 0.375 2.3438 0.60938 1.7812 0.5625 2.625 0.9375 4.125 1.5938 3.0469 1.5 6.1875 3.4219 8.7188 5.4375 2.8125 2.2031 5.9531 5.3438 7.6875 7.7812 0.5625 0.75 1.0312 1.5469 1.5 2.3438 0.09375 0.1875 0.65625 1.3125 0.84375 1.5938v-0.09375c0 0.046875 0.046875 0.09375 0.046875 0.14062v0.046875c0.23438 0.60938 0.42188 1.2188 0.60938 1.875 0.046875 0.1875 0.09375 0.375 0.09375 0.5625 0 0.14062 0.046875 0.5625 0.046875 0.84375 0.09375 3.4688 3.75 7.125 7.4062 5.625 1.875-0.75 3.75-1.5938 5.625-2.5312 5.5312-2.625 10.969-5.7188 16.641-8.0625 2.9062-1.2188 6.4219-2.4375 9.2344-2.8125 3.2812-0.42188 5.625-0.14062 8.0625 1.6875 1.7812 1.3594 3.1406 3.7031 3.8438 6 0.98438 3.1875 1.2188 6 1.3594 9.375 0.1875 6.0938-0.375 12.141-0.51562 18.188-0.046875 1.4062-0.09375 2.8125-0.046875 4.2188 0.09375 5.25 6.2812 7.5 9.9844 4.125 8.9062-7.9219 23.297-8.2969 32.719-1.3594-0.23438 1.0312-0.42188 2.0625-0.5625 3.1406-1.2188 9.3281 2.25 18.094 9.5625 23.812-1.5938 6.375-5.5781 12.047-11.859 15.516-6.7031 3.7031-15.469 4.7344-22.641 1.6875-4.6406-1.9688-9.8438 1.3125-8.625 6.6562 0.28125 1.2188 0.46875 2.4844 0.65625 3.75 1.5 13.828-5.4375 28.5-16.875 36.375-3.8438 2.625-7.9219 4.4062-12.141 5.4375-10.5 2.3906-21.656-0.1875-30.938-6.5625zm-27.938-252.56c-1.6875-1.9688-3.1406-4.6875-5.8594-6.2812-6.375-3.6562-13.312-0.46875-19.312 3.4219-5.8125-14.625-17.344-28.781-34.031-30.281-12.656-1.125-23.578 6.375-29.859 16.781-0.1875-7.7812 0.70312-15.562 2.7656-23.156 4.3125-15.938 13.969-30.375 27.656-39.75 7.6406-5.25 15.797-8.7656 24.281-11.062 27.938-7.5938 59.391-2.0156 87.844-1.7812 21.844 0.1875 44.062-2.7188 62.859-14.672 1.125-0.70312 1.875-1.5938 2.25-2.625l0.42188-0.84375c5.7188-13.688 7.4531-28.125 6.0938-42.797 6.75 1.0781 13.641 1.7344 20.531 1.9219 24.609 0.65625 50.156-3.8438 73.125-13.453-0.28125 0.70312-0.46875 1.5-0.46875 2.25-0.5625 13.406 0.51562 26.812 0 40.172v1.0312c0.046875 2.4375 1.875 4.5938 4.1719 5.3438 0 0 0.09375 0 0.09375 0.046875 17.625 7.3594 36.469 8.3438 55.266 6.0469 19.688-2.3906 39.234-6.375 58.922-9.0938 19.781-2.7656 40.406-4.5469 60.188-0.84375 14.906 2.8125 30.328 8.0625 42.891 16.688 5.8125 3.9844 10.828 9 14.109 15.094 3 5.4844 4.0312 11.625 3.8438 18.047-9.9375 14.344-23.25 26.719-38.625 34.172-2.625-8.7188-9.0938-15.844-19.266-17.438-1.5938-0.28125-3.1875-0.375-4.6875-0.375 0.5625-8.4375-2.3438-17.625-6.7969-23.625-10.5-14.344-31.031-15.562-46.453-9.375-8.5781 3.4688-16.125 8.5312-23.531 14.062-14.672-16.031-35.344-28.219-57.656-23.062-10.219 2.3438-19.781 8.3438-25.406 17.25-5.7188 9-5.8594 19.969-1.6875 29.578 3.0469 6.9844 8.625 12.938 15.469 15.938-6.7031 9.75-10.406 21.75-8.1094 33.469-8.25 3.75-13.781 12.188-14.719 21.094-7.9219 0.9375-15 5.7656-19.312 12.469-2.3906-0.28125-4.8281-0.14062-7.2188 0.42188 6.5625-10.547 10.312-22.5 8.9062-35.578-1.2188-11.438-5.9062-22.922-15-30.469-8.7188-7.3125-19.969-9.7031-31.031-7.3125-8.25 1.7812-15.844 6.5156-20.531 13.312-1.5469-1.7812-3.0938-3.5625-4.5938-5.3438-6.1875-15.656-20.531-27.656-37.172-30.562-17.906-3.1875-35.344 4.3125-46.312 18.656-4.6875 6.0938-7.7812 13.125-9.1875 20.531-15.469-0.9375-31.219 8.3438-37.875 22.5-0.79688 1.6875-1.4062 3.375-1.9219 5.0625-1.5938-1.9688-3.375-3.75-5.0625-5.625zm-118.69 61.406c6.7969 0.79688 13.5 2.3438 20.062 4.3125 18.75 5.5312 37.031 14.016 53.391 24.938-24.375 20.859-60.75 26.531-90.422 14.062-7.5-3.1406-16.266-7.5938-20.953-14.484-4.8281-7.0312-2.5781-15.328 3.0938-21.094 6.9375-7.125 17.438-8.5312 26.906-8.25 2.625 0.09375 5.25 0.28125 7.875 0.60938zm26.344-6.0469c-5.5781-1.7812-11.672-3.4688-18-4.6875 0.28125-1.2656 0.046875-2.6719-0.98438-4.125-33.281-46.312-42.281-107.91-25.219-162.19 4.3125-13.734 10.406-26.625 17.812-38.906 8.4375-13.828 17.344-27.562 18.75-44.109 1.4062-16.5-4.875-32.391-10.312-47.578-5.1562-14.297-8.9062-28.688-9.5156-43.875-1.3594-32.391 8.9531-65.344 29.625-90.469 2.1562-2.625 2.1562-5.625 0-8.25-1.0312-1.3125-2.0625-2.625-3.0938-3.9375-36.281-48.797-22.312-120.74 13.406-166.03 43.5-55.219 115.22-79.219 181.5-93.141 15.891-3.3281 32.203-4.8281 48.281-7.0312 9.2812-1.2656 18.516-2.5312 27.75-3.7969 4.6875-0.65625 9.0938-0.84375 13.594-0.84375 0.28125 0.14062 0.51562 0.23437 0.79688 0.28125 1.2656 0.375 2.5312 0.23437 3.6562-0.1875 3.0469 0.09375 6.1406 0.28125 9.4688 0.46875 20.672 1.1719 41.203 4.3125 61.312 9.375 13.875 3.4688 27.656 7.2188 40.078 13.641 8.1562 4.2188 16.078 9 24.844 11.906 14.859 4.9219 29.719 10.031 43.875 16.781 27.797 13.359 51.656 34.312 60.75 64.734 10.5 35.156 0.375 73.594-11.719 107.02-2.2969 6.375-4.7344 12.703-7.3125 18.984-0.84375 2.0156-1.6875 4.0312-2.5312 6-1.0781 2.5312 0.75 5.25 2.6719 6.6094 23.109 16.875 42.422 39.422 55.453 64.922 12.281 24 19.031 52.219 13.031 79.031-3.375 14.953-11.438 27.656-17.484 41.625-3.3281 7.6875-5.9062 15.562-6.5625 24-0.65625 8.5312 1.1719 17.156 3.9375 25.219 4.6875 13.875 11.625 26.812 12.281 41.719 0.51562 12.656-2.1562 25.125-6.6562 36.844-1.125 2.9531-2.3906 5.8594-3.8438 8.7656-2.5312-7.7812-7.0312-14.906-13.406-20.719-11.438-10.547-26.344-16.688-41.109-21.094-9.4688-2.8125-19.031-4.4062-28.688-5.1094 0.375-0.46875 0.60938-1.0312 0.84375-1.6406 3.75-11.766 15.609-19.125 22.969-28.5 4.5938-5.8125 7.6875-12.188 8.625-19.594 0.9375-8.0625-1.2188-16.031-4.3125-23.438-3.3281-7.7812-7.7812-15-12-22.406-3.4219-6-6.75-12.094-10.5-17.906-2.25-3.4688-4.5938-6.75-6.8906-10.172-0.79688-1.1719-1.5938-2.3438-2.2969-3.6562-0.28125-0.46875-0.46875-0.9375-0.75-1.4062 0 0-0.09375-0.1875-0.28125-0.65625 0-0.09375-0.09375-0.1875-0.09375-0.28125-0.42188-1.3594-0.75-2.7188-1.0312-4.125v0.09375s-0.046875-0.23438-0.09375-0.375v-0.375c-0.046875-0.5625-0.09375-1.1719-0.1875-1.7812-0.09375-1.0312-0.09375-2.0156-0.14062-3-0.09375-2.3438-0.09375-4.6875-0.046875-7.0312 1.4062-5.25 1.7812-10.781 0.28125-15.75-0.14062-0.9375-0.46875-1.6875-0.9375-2.3438-0.70312-1.5469-1.6406-3-2.8125-4.3594-5.625-6.4219-15.094-9.6562-23.203-11.25-4.5938-0.9375-9.9375-1.6406-15.047-1.2188 4.5938-14.203 8.4375-28.688 11.625-43.219 5.7188-25.734 9.375-51.984 10.688-78.281 0.1875-0.75 0.1875-1.4062 0.09375-2.0625v-0.70312c1.2188-28.922-0.5625-58.125-6.4688-86.438-6-28.781-16.594-56.812-32.531-81.562-4.125-6.4219-8.625-12.562-13.359-18.562-1.9688-2.4844-6.2344-2.0625-8.2969 0-2.4375 2.4375-1.9688 5.8125 0 8.2969 17.578 22.031 30.047 47.859 37.875 74.906 7.7812 26.766 11.156 54.562 11.438 82.406 0.09375 7.2188-0.046875 14.438-0.375 21.609-4.2188 12.562-16.172 21.609-28.688 24.844-13.5 3.4688-27-1.4062-36.281-11.625-4.6875-5.2031-8.0625-11.906-9.0938-18.891-0.09375-0.46875-0.14062-1.0312-0.1875-1.5-0.28125-2.9062-1.9688-5.3906-5.0625-5.7656-2.6719-0.32813-5.9062 1.3125-6.4688 4.2188-0.09375 0.51562-0.1875 1.0312-0.28125 1.5-3.1875 14.25-14.766 25.594-28.969 29.203-15.094 3.8438-30.375-3.4688-38.766-16.219-1.9688-3-3.5625-6.1875-4.5938-9.4688 0.46875-5.5312-0.09375-11.156-1.9688-16.688-2.1562-6.4688-10.922-4.9688-11.531 1.5938-0.46875 5.4375 0.09375 10.828 1.5 16.031-1.6875 11.906-9.75 22.969-20.531 28.875-17.25 9.4688-39.328 3.6562-54-7.9688-3.0938-2.4375-5.8594-5.1094-8.3438-8.0156-11.578-13.266-17.719-30.938-19.969-48.234-2.7656-21.469-0.23438-43.5 6.4688-64.031 7.5938-23.297 20.766-44.625 38.344-61.688 5.4375-5.25-2.8594-13.547-8.25-8.2969-34.641 33.656-53.719 83.719-48.469 131.9 2.0625 19.266 8.1562 39 20.062 54.469-5.9531 6.75-12.375 13.359-19.5 18-8.3906 5.4375-17.203 8.0625-27.188 10.312-10.875 2.4375-22.125 4.5938-33.375 3.9375-7.875-0.46875-15.234-2.9062-20.672-8.5312-6.3281-6.5625-9.8438-17.156-11.438-26.625-1.6875-9.9375-1.3594-21.422 0-31.828 3-22.969 10.781-45.516 19.828-66.75 8.4375-19.875 18.422-39 29.062-57.797 3.75-6.5625-6.375-12.469-10.078-5.9062-9.7969 17.25-18.984 34.875-27 53.062-10.125 22.969-18.938 47.016-22.734 71.953-3.3281 22.125-3.5625 48.844 10.453 67.688 5.25 7.125 12.375 12.188 20.672 14.625-0.79688 0.70312-1.4062 1.5938-1.5938 2.6719-1.5469 9.6094-2.3438 19.266-2.4375 28.922-5.625-2.7188-12.094-3.375-18.75-1.5469-11.484 3.1875-20.672 12.469-24.469 23.719-3.7031 11.109-2.1562 23.812 3.2812 34.031 5.0625 9.5625 14.25 14.812 24.188 18.281 9.8438 3.4688 20.484 5.0625 30.938 5.8125 6.1406 15.469 13.828 30.328 22.922 44.297 0.79688 1.2188 1.5938 2.4844 2.4375 3.75-4.125 15.609-7.5938 31.5-8.6719 47.578-1.0781 16.406 0.5625 34.359 10.172 48.281 1.7812 2.625 5.1562 3.7969 8.0156 2.1094 2.5781-1.5 3.9375-5.4375 2.1094-8.0156-8.6719-12.562-9.5625-28.406-8.5312-43.219 0.84375-11.531 3.0469-22.875 5.8125-34.125 6.6562 8.8594 13.922 17.25 22.125 24.516 16.219 14.297 35.531 23.906 56.156 28.969-0.09375 0.46875-0.14062 0.9375-0.09375 1.4531 0.65625 7.0312 0.9375 14.156-0.09375 21.141-0.32812 2.3438-1.125 6.0469-1.875 8.9062-0.75 2.7656-1.6875 5.4375-2.6719 8.1562-16.172 9.6562-34.875 12.047-53.438 12-20.25 0-40.406-2.5312-60.656-1.9688-9.0938 0.23438-18.281 1.125-27.188 3.0938-0.28125-0.60938-0.65625-1.1719-1.0781-1.6875-21.609-25.078-28.688-61.219-20.25-92.906 2.4375-9.0938 6.0938-17.625 10.969-25.688 3.9375-6.4688-6.1875-12.375-10.125-5.9062-19.453 31.781-20.719 72.562-5.7656 106.36 3.75 8.3438 8.5312 16.125 14.25 23.25-6.375 2.1562-12.469 5.0625-18.188 8.8125-15.75 10.219-27.375 25.594-33.375 43.406-6.7031 20.016-5.8594 42.234 0.9375 62.062 0.28125 0.84375 0.75 1.5938 1.3125 2.1562 2.1562 12 7.6875 23.625 14.719 33.188 4.4062 6 9.5156 11.438 15.141 16.125-9.1875-4.3594-18.656-8.0625-28.266-11.109zm550.31 104.39c-13.266-2.3438-26.578-1.3594-39.797 0.28125 5.3438-6 10.031-12.75 15.516-18.562 3.0938 0.32812 6.1406 0.5625 9.1875 0.65625 26.484 1.0312 58.641-4.0312 76.969-25.125 1.3594-1.5938 2.625-3.1875 3.8438-4.9688 5.1094 0.09375 10.172 0.375 15.281 0.60938 4.3125 0.23438 10.594-0.65625 14.438 1.875 2.6719 1.7344 2.625 4.4062 1.9219 7.2188-1.0312 3.9375-3.2812 7.5938-6.0469 10.594-12.562 13.688-31.594 21.75-49.219 26.438-9.9375 2.625-20.062 4.2188-30.281 4.3125-3.8438-1.5-7.8281-2.625-11.812-3.375zm-105.38 57.281c-0.375 0.28125-0.70312 0.60938-1.0312 0.89062-6.3281 4.9688-14.531 6.7969-22.5 6-6.0938-0.60938-12.188-2.9531-17.109-6.75 0.28125-3.6562-2.8594-6-5.9531-6.0938-0.28125-0.28125-0.46875-0.5625-0.65625-0.89062-3.7031-5.5312-12.141-2.0625-10.688 4.5 0.09375 0.46875 0.1875 0.9375 0.28125 1.4531 1.4531 8.3438-0.09375 17.062-3.9375 24.656-1.5 1.0781-2.625 2.8125-2.6719 4.6406-1.1719 1.7812-2.4844 3.4688-3.9375 5.0156-8.8125 9.6094-21.656 14.156-34.594 11.859-8.5312-1.5469-15.938-5.3438-21.844-10.969 0 0-0.046875-0.046875-0.046875-0.09375-0.375-0.5625-0.89062-1.0312-1.4531-1.5h-0.046875c-2.625-2.7656-4.9219-5.9531-6.8438-9.4688-3.375-6.1875-6.6562-12.75-12.703-16.688-3.2344-2.1562-7.3125-3.1406-11.156-2.8125-4.4062 0.375-8.3906 2.1562-12.656 3.2812-7.3125 1.875-14.391-3.4219-18.094-9.3281-5.1562-8.25-5.7188-18.469-6.375-27.844-0.28125-4.2188-4.8281-7.5938-8.8125-5.0625-2.1562 1.3594-4.5 1.6875-6.8438 1.2656-0.1875-8.4375-3.1406-16.641-8.2969-23.156 5.7188-11.625 19.406-17.062 31.219-21.234 14.344 5.7656 32.25-3.8438 40.781-16.781 5.5312-8.4375 7.7812-17.812 7.7812-27.281 5.9531-5.25 13.547-8.7656 21.516-9.2812 6.5625-0.46875 12.562 0.9375 18.562 4.0312 12.656 6.6094 21.984 18.891 22.125 33.656 0 1.7812 0.65625 3.0938 1.6875 4.0312l0.1875 0.1875c0.65625 0.65625 1.5 1.125 2.4375 1.4062 1.5 0.42188 3.2812 0.09375 4.6875-0.75 0.32812-0.1875 0.65625-0.375 0.9375-0.65625 0.375-0.28125 0.65625-0.65625 0.9375-1.0312 0.09375-0.09375 0.09375-0.1875 0.1875-0.28125 0.09375-0.14062 0.14062-0.28125 0.1875-0.42188 0.28125-0.5625 0.42188-1.1719 0.46875-1.875 2.625-12.094 11.531-23.625 23.156-28.125 4.5938-1.7812 9.6094-2.4844 14.812-1.6875 17.25 2.625 32.531 21.422 23.297 38.531-2.4375 4.5-6.0469 8.3438-10.5 11.016-1.9688 1.125-4.0312 2.3438-6.2812 2.25-3.0938-0.09375-6.0469-0.09375-9.0469 0.28125-1.0312 0.09375-2.0156 0.23438-3.0469 0.42188-5.6719 0.98438-5.5312 10.219 0 11.297 4.7344 0.9375 9.2812 0.9375 13.969-0.09375 17.812 3.3281 32.062 18.469 29.578 37.406-1.125 8.4375-5.2969 16.5-11.719 22.125zm-185.53-164.53c-1.1719 0.84375-2.4844 1.5938-3.2344 2.9062-0.84375 1.4531-0.75 3-0.79688 4.5938-0.046875 1.9688-0.28125 3.7969-0.75 5.6719-0.9375 3.75-2.5312 7.125-4.6875 10.359-4.2188 6.2812-10.781 11.391-17.953 13.781-17.25 5.8594-36.188-2.9531-46.594-17.156-0.5625-0.75-1.125-1.5469-1.5938-2.3438-3.1875-4.9688-10.641-2.9062-10.922 2.9531-0.375 7.9688-5.5781 14.953-12.516 18.562-7.125 3.6562-15.656 2.25-21.938-2.5312-6.0938-4.5938-9.5625-12-8.3438-19.594 1.2188-7.4062 6.2812-14.625 13.406-17.344 6.9375-2.625 4.3594-13.125-3.0938-11.297-8.3906 2.0625-17.25-0.9375-23.719-6.6562-2.9062-2.625-5.3438-5.7656-6.9844-9.2812-0.65625-1.3594-1.125-2.7188-1.4531-4.125-0.046875-0.28125-0.09375-0.5625-0.1875-0.75-2.1562-10.266 3.5625-20.766 12.75-26.438 6.0469-3.75 13.078-5.25 19.969-3.4688 3.8438 1.0312 7.2188-1.8281 7.4062-5.625 0.09375-1.6406 0.28125-3.2812 0.5625-4.875 2.2031-11.25 9.9844-21.094 20.156-26.344 12-6.2812 26.156-4.0312 37.031 3.5625 5.9062 4.125 10.734 10.219 13.172 17.062 0.14062 0.375 0.28125 0.75 0.46875 1.0312 0.14062 0.23438 0.28125 0.46875 0.42188 0.65625 0.1875 0.28125 0.375 0.5625 0.60938 0.84375 3.75 4.3594 7.5 8.7188 11.25 13.031 2.9062 3.375 8.8125 1.5 9.7969-2.5781 3-12.328 18.328-17.391 29.906-13.5 13.875 4.6875 19.5 22.594 17.766 36.234-1.2188 10.031-6.1406 19.078-12.656 26.859-5.0625 6.0469-11.156 11.344-17.25 15.797zm30.891-3.6562c2.6719-3.0938 6.8906-3.375 10.5-2.0625 3.1875 1.2188 6.1406-1.4062 7.2188-4.125 2.5781-6.6562 9.9375-9.9375 16.594-9.1406 4.125 0.46875 6.2812-4.125 5.625-7.4062-1.125-5.8125 2.3438-11.391 7.4062-14.156 3.0938 5.25 7.5938 9.6562 12.844 12.609-13.688 12.094-18.328 33.844-9.375 50.344-5.9531-1.4062-12.234-1.6875-18.516-0.65625-6.0938 1.0312-11.953 3.4688-17.156 6.75-1.5-7.4531-3.9844-14.812-7.0312-21.656-1.3125-3-5.4375-3.375-8.0156-2.1094-0.46875 0.23438-0.9375 0.46875-1.4062 0.75-1.2188-3-0.79688-6.6562 1.3594-9.1875zm54.609-50.016c-2.5312-11.438 3.6094-23.25 11.438-31.219 3.4688-3.5156 1.0312-10.172-4.125-9.9844-1.4062 0.046875-2.7188-0.09375-3.9844-0.42188-4.7812-1.2188-8.625-4.8281-11.156-9.75-3.1875-6.1875-3.1875-13.219 0.5625-19.406 8.8125-14.344 29.062-15.75 43.031-9.0938 9.9844 4.7344 18.188 12.281 25.172 20.719 1.5 1.7812 5.2031 2.3438 7.125 0.9375 1.7344-1.3125 3.5625-2.6719 5.3906-4.0781 12.891-9.5156 28.688-19.312 44.625-13.031 6.75 2.625 10.359 7.875 12.047 14.625 0.75 2.9062 1.0312 6.4688 0.65625 9-0.375 2.1562-0.84375 3.5625-1.8281 4.7812-0.5625 0.51562-1.125 1.0312-1.6406 1.6406-0.09375 0.09375-0.1875 0.14062-0.23438 0.1875-0.60938 0.46875-1.0312 1.125-1.3125 1.8281-0.09375 0.14062-0.14062 0.28125-0.1875 0.46875-0.42188 1.0781-0.375 2.3438 0 3.4688 0.046875 0.1875 0.09375 0.32812 0.1875 0.46875v0.09375c0.28125 0.75 0.75 1.4531 1.2656 1.9688 0.1875 0.1875 0.375 0.375 0.5625 0.46875 0.1875 0.14062 0.375 0.28125 0.60938 0.42188h0.046875c0.375 0.1875 0.75 0.375 1.125 0.46875 0.1875 0.09375 0.375 0.09375 0.51562 0.14062 1.3594 0.32812 2.6719 0.09375 3.8438-0.5625 0.046875 0 0.09375-0.046875 0.09375-0.046875 0.046875 0 0.09375-0.046875 0.09375-0.09375 0.46875-0.23438 0.9375-0.5625 1.4062-0.89062 0.9375-0.75 1.8281-1.5938 2.5781-2.5781 1.0312-0.5625 2.25-1.0312 3.0938-1.1719 2.6719-0.46875 5.1094 0 7.4062 0.9375 5.2031 2.1562 7.875 7.4062 8.0625 13.219v0.65625c-0.14062 15.609-14.203 25.594-25.969 33.562-0.42188 0.28125-0.84375 0.5625-1.2188 0.84375-5.2969 3.5625-2.1562 12.656 4.5 10.688 0.46875-0.14062 0.9375-0.28125 1.4062-0.375 7.6875-1.6406 15.188 2.0625 20.391 7.9688 5.8125 6.5156 7.5469 15.234 4.5938 23.438s-10.219 14.719-18.188 18.094c-8.7188 3.6562-18.141 3.2812-26.906 0.09375-10.5-3.75-19.5-11.719-25.594-20.906-2.5312-3.7969-9.75-3.9375-10.688 1.4062-0.23438 1.4062-0.5625 2.7656-0.89062 4.125-3.5156 13.547-12.75 25.828-25.219 31.453-5.0625 2.25-10.594 3.4688-16.547 3.1875-9.5156-0.42188-18.938-4.5938-25.406-11.578-6.4219-6.9375-8.7188-16.266-6.8438-25.125 2.0156-9.375 7.9688-17.953 16.875-21.281 0.46875-0.1875 0.9375-0.375 1.4531-0.51562 6.1875-1.875 5.2031-11.625-1.5938-11.531-0.51562 0-1.0312 0-1.5-0.046875-7.5938-0.46875-13.969-5.7656-17.25-12.516 0-0.375-0.09375-0.75-0.1875-1.125-0.23438-0.84375-0.60938-1.5469-1.125-2.1562-0.23438-0.65625-0.42188-1.4062-0.5625-2.1094zm31.406 105c-1.0312-2.25-2.25-4.4062-3.6094-6.4688 2.5781 0.5625 5.1562 0.84375 7.7812 0.9375-1.5 1.7812-2.9062 3.6562-4.2188 5.5781zm-85.875-33.094c2.4844 6.6562 4.3125 13.781 4.5938 20.859 0 0.28125 0 0.5625 0.046875 0.84375 0.23438 7.4062-1.125 14.672-4.875 21.375-3.5625 6.2812-8.9062 11.062-15.75 13.594-6.0469 2.2969-11.25 1.875-15.75-2.1562 0.84375-22.078 13.125-42.75 31.688-54.516zm181.92 92.484c-0.5625-0.09375-1.1719-0.14062-1.7344-0.09375h-0.09375c-3.2812-0.1875-6.5156-0.5625-9.75-1.1719-0.28125-0.046875-0.51562-0.09375-0.75-0.09375h-0.5625c-0.5625-0.046875-1.0312 0-1.5469 0.09375-0.1875-0.1875-0.32812-0.375-0.46875-0.5625-4.2188-4.7812-9.5625-8.5312-15.328-11.25 3.1875-2.625 5.9062-5.6719 8.2031-9.0469 5.1094-7.5938 6.9375-16.5 5.5312-25.125 3.7969 2.625 7.6875 5.0625 11.719 7.2656 0 0 0.046875 0 0.09375 0.046875 0.46875 0.375 1.0312 0.75 1.6875 0.89062 13.406 7.2656 27.938 12.422 42.938 15.328-2.8125 3.375-5.4844 6.9375-8.3438 10.266-2.5781 3.0469-5.25 6-8.2969 8.625-0.375 0.28125-0.75 0.60938-1.125 0.9375-0.1875 0.14062-0.42188 0.32812-0.5625 0.46875-0.65625 0.46875-1.3594 0.9375-2.0625 1.4062-0.84375 0.51562-1.6875 1.0312-2.5312 1.4062-5.6719 0.5625-11.391 0.84375-17.062 0.65625zm135.56-60.188c-0.09375 0.1875-0.1875 0.28125-0.28125 0.46875-13.125 21.328-41.953 26.812-65.062 27.047-6.1406 0.09375-12.281-0.28125-18.328-1.0312-11.109-1.3594-21.984-4.0312-32.438-7.9688 31.219-5.7188 61.031-18.141 83.859-40.969 5.3438-5.3438-2.9062-13.594-8.25-8.2969-25.266 25.266-60 36.844-94.875 40.266-0.5625-0.28125-1.1719-0.65625-1.7344-0.98438 19.688-9.2812 36.656-23.672 54-36.703 14.578-11.016 31.875-21.656 50.25-21.984 4.9688-0.09375 9.9844 0.5625 15.094 2.1562 9.0469 2.8594 17.719 8.9531 21.422 18 4.0781 9.8906 1.7812 21.141-3.5625 30.094zm-74.109-48.609c-11.484 6.9375-22.031 15.469-32.719 23.812-13.781 10.594-27.844 20.766-44.531 26.531-0.1875 0.046875-0.28125 0.09375-0.46875 0.1875-0.14062 0-0.28125 0.09375-0.42188 0.1875-0.9375 0.46875-1.7812 1.125-2.3438 1.9688-0.09375-0.28125-0.23438-0.5625-0.375-0.89062-4.9688-10.969-15.422-19.266-26.812-22.688-2.25-0.65625-4.5-1.125-6.7969-1.4062 5.5312-5.7656 9.8438-12.562 12.703-20.016 14.719 15.562 36.984 24.938 57.938 16.688 2.0625-0.84375 4.0781-1.7812 6-2.8125 8.3906-4.6875 15.469-11.719 19.312-20.625 4.9688-11.578 3.5625-24.562-4.0312-34.688-4.4062-5.9062-10.5-10.594-17.344-13.031 8.4375-6.9375 15.562-15.188 18.094-26.156 0.375-1.5938 0.65625-3.2812 0.75-4.9219 13.781-6 25.969-15.281 36.188-26.391 9.9375 29.391 16.828 60.328 19.688 91.172-12.375 1.4062-24.281 6.5625-34.875 13.031zm-319.31-219.84c-13.125-2.5781-25.875-7.0781-37.594-13.781-13.688-7.8281-25.031-18.375-34.969-30.562-3.75-4.6406-7.4062-9.4219-10.828-14.344-0.1875-1.875-1.3125-3.2812-2.8125-4.125-5.3906-8.0156-10.266-16.312-14.719-24.844-4.125-7.9688-7.7344-16.125-10.875-24.562-7.125-19.125-11.625-39.188-12.75-59.578-0.28125-4.5938-0.375-9.1406-0.28125-13.734 0.14062-8.25 0.84375-16.5 2.1562-24.656 0.23438-1.4531 0.09375-2.9062-0.51562-4.1719 9.9375 0.9375 19.969-0.375 29.719-2.2031 12.469-2.2969 25.125-5.1562 36.281-11.438 9.5625-5.4375 17.438-13.172 24.75-21.375 0.84375 0.84375 1.7344 1.5938 2.625 2.3438 17.672 15 43.219 22.5 65.297 13.031 11.297-4.8281 20.766-14.203 26.156-25.359 4.6875 6.8438 11.016 12.656 18.328 16.5 17.953 9.4688 39.188 5.5312 54.281-7.5 3.7969-3.2812 7.125-7.125 9.75-11.438 5.25 10.266 13.969 18.703 24.75 23.344 16.594 7.125 35.578 3.6562 49.781-7.125 1.5938-1.2188 3.0938-2.4375 4.5-3.75-1.1719 11.812-2.8125 23.484-4.875 35.109-4.0312 22.688-9.6562 45.094-16.969 66.938-0.5625 1.7344-1.1719 3.4688-1.7812 5.1562-0.46875 0.70312-0.70312 1.4062-0.75 2.1562v0.046875c-0.75 2.0625-1.5 4.0781-2.25 6.0938-0.79688 2.1094-1.5938 4.2188-2.4375 6.2812-0.375 0.9375-0.75 1.9219-1.1719 2.8594-0.1875 0.46875-0.375 0.84375-0.51562 1.3125 0 0-0.09375 0.1875-0.09375 0.23438 0 0.09375-0.09375 0.14062-0.09375 0.28125-3 7.0312-6.3281 13.781-10.031 20.438-1.5938 2.8125-3.1406 5.5312-4.7344 8.3438-12.938 22.219-27.562 43.734-47.062 60.75-22.406 19.547-50.625 30.562-79.922 34.688-16.688 2.3438-33.844 2.1094-50.344-1.1719zm-125.63-116.25c-5.2969-0.5625-10.547-1.4531-15.75-2.7188-7.5-1.875-15.891-4.5938-21.094-9.8906-5.2969-5.3438-7.875-14.906-7.3125-23.016 0.5625-8.625 5.2969-16.312 12.797-20.625 7.3125-4.2188 15.891-3.9844 20.953 3.1875 1.125 18 4.6875 35.859 10.406 53.062zm335.72-19.641c0.70312-0.23438 1.4062-0.46875 2.1562-0.60938 0.32812-0.09375 0.65625-0.14062 1.0312-0.1875 0.14062-0.046875 0.28125-0.046875 0.32812-0.09375h0.23438c1.5938-0.14062 3.1406-0.1875 4.6875-0.14062 1.6875 0.046875 3.9375 0.28125 4.8281 0.375 3.8906 0.60938 7.7344 1.5938 11.438 3 1.2188 0.46875 2.0625 0.79688 3.6562 1.6875 0.65625 0.375 1.3594 0.75 1.9688 1.125 0.375 0.23438 0.75 0.46875 1.125 0.75 0.09375 0.09375 0.28125 0.1875 0.375 0.28125h0.046875c0.51562 0.46875 0.9375 0.9375 1.5 1.4062 0.14062 0.09375 0.23438 0.1875 0.28125 0.28125 0 0.09375 0.09375 0.1875 0.1875 0.28125 0.09375 0.14062 0.1875 0.28125 0.28125 0.46875-0.09375 4.0781-0.375 8.25-0.46875 12.469-0.5625 1.5938-1.2188 3.1875-2.0625 4.6875-4.875 8.8594-12.656 15.469-22.875 16.969-9.0938 1.4062-18.422-0.28125-27.469-2.25 5.8594-10.688 11.109-21.703 15.516-33.188 0.89062-2.3438 1.7812-4.6875 2.625-7.0312 0.1875-0.09375 0.32812-0.1875 0.46875-0.28125zm-102.14 139.03c0.09375-2.5312-1.6875-4.6875-3.9844-5.5312 4.4062-2.0625 8.7188-4.4062 12.891-6.8906 25.547-15.375 45-38.297 60.938-63.188 1.5-2.3438 2.9531-4.6406 4.4062-6.9844 5.8125 12.469 9.2812 26.25 10.922 39.75 2.0625 17.062 1.8281 34.969-4.0312 51.281-1.0312 3 1.2188 6.4219 4.125 7.2188 3.2344 0.89062 6.1406-1.125 7.2188-4.0781 4.7812-13.453 6.0469-28.219 5.4375-42.422-0.65625-15.188-3.375-30.469-8.3438-44.859-1.2188-3.5625-2.625-7.125-4.1719-10.594 8.5312 1.6406 17.297 2.7188 25.922 1.6875 10.547-1.3125 19.5-6.2812 26.297-13.828 1.5938 5.7656 5.25 10.547 8.625 15.422 7.6875 11.25 14.344 23.297 20.906 35.25 3.5625 6.4688 7.125 13.5 7.7812 20.906 0.5625 6.6562-1.4062 12.516-5.2969 17.812-4.0781 5.5312-9.4219 10.031-14.062 15-5.1562 5.4844-9.5625 11.438-11.906 18.656-0.5625 1.6875-0.32812 3.1875 0.375 4.3125-28.641-0.375-57.75 5.9531-85.688 10.406-10.172 1.5938-20.438 2.9062-30.75 2.6719-9.375-0.1875-18.516-1.9688-27.328-5.1094 0.23438-12.375-0.65625-24.656-0.09375-36.984zm-313.22 172.31c-1.0312-12.75 4.5938-29.203 19.219-31.312 12.75-1.875 22.312 10.172 27 20.578 1.125 2.4375 2.0156 5.0156 2.8125 7.6875 0 0.75 0.1875 1.5469 0.65625 2.25 1.3594 5.2031 2.25 10.594 3.0938 15.75 1.3125 8.2031 1.875 16.688 0.75 24.984-0.1875 0.5625-0.23438 1.125-0.23438 1.7812 0.046875 4.7812-0.75 9.375-2.3906 13.688-7.5-19.078-11.672-39.422-12.375-59.906-0.28125-7.5-12-7.5469-11.719 0 0.75 20.719 4.7812 41.062 11.906 60.469-7.875-4.4062-14.906-10.125-20.906-16.969-8.7656-9.9375-15.75-22.969-17.484-36.328l-0.28125-2.6719zm101.91 35.062c1.0781 0.84375 2.2031 1.6406 3.375 2.3906 3.375 2.1562 7.125 3.75 10.969 4.7812-7.4531 9.6562-9.75 22.969-4.0312 34.688 6.6094 13.547 22.172 20.812 36.375 18.094 3.9375-0.75 7.7812-2.25 11.25-4.6406 5.3906-3.6562 9.6562-8.5781 12.328-14.297 9.0938 9.2812 21.094 15.516 34.172 17.062 16.781 1.9688 33.047-5.7188 43.125-19.125 0.32812-0.46875 0.65625-0.9375 0.98438-1.3594 4.3125-6.2812 6.9375-13.688 7.3594-21.281 3.2812-2.4375 6.5625-5.1562 9.6562-8.0625-0.23438 3.75 0.5625 7.5938 2.3438 11.062-7.0781 5.2969-13.219 11.766-18.141 19.078-8.7188 12.938-13.781 28.406-13.828 44.109 0 1.0312 0.1875 1.9219 0.60938 2.6719-6.7969 2.6719-13.406 5.8594-19.219 10.406-4.0312 3.1406-7.5469 6.9375-10.219 11.25-3.4219-2.25-7.3125-3.8438-11.531-4.7344-8.0625-1.6875-16.312-0.89062-23.625 2.25 0.46875-9.5625 0.9375-19.312-3.0938-28.219-2.7188-5.9531-8.2969-10.781-14.812-12-2.25-0.42188-4.4062-0.51562-6.6562-0.375-4.7344 0.375-9.4688 1.875-13.875 3.75-5.25 2.2031-10.266 5.0625-15.375 7.5469-2.25-5.25-6.375-9.8438-10.5-13.547-6.5156-5.7656-14.672-11.016-23.391-12.469-4.6875-10.266-3.4688-21.469 1.5469-31.359 3.5625-7.125 6.7969-14.906 14.25-17.812zm155.44 240.56c-3.0938-0.5625-6.2812 0.79688-7.2188 4.0781-3.2812 12.094-14.906 21.188-27.516 20.906-10.781-0.23438-20.531-7.4062-24.844-17.062-0.60938-1.4062-1.125-2.8125-1.5-4.3125-1.0312-3.9375-5.2969-5.0625-8.625-3.5156-10.594 5.0625-23.062 7.4531-33.469 0.84375-1.875-1.2188-3-2.0625-4.5469-3.75-0.5625-0.65625-1.5469-2.3906-1.6875-3.0938l-0.28125-1.125v-0.28125c0-0.23438-0.09375-0.5625-0.09375-0.65625-0.046875-1.125-0.046875-2.25 0.09375-3.375 0.14062-1.4062 0.5625-3.1406 1.0312-4.8281 12.375-4.2188 22.875-13.641 28.781-25.594 3.7031-7.5469 5.625-15.75 5.4375-24 17.203 2.4844 35.25-6.75 41.25-24.094 0.09375-0.375 0.23438-0.70312 0.32812-1.0312 2.0625 0.375 4.1719 0.46875 6.2344 0.1875 0.75 7.4062 2.0156 14.766 5.0625 21.656 3.6562 8.25 10.406 14.906 18.844 18.141 4.4062 1.6875 9.1875 1.875 13.734 0.98438 3.9375-0.79688 8.25-3.5156 12.375-3.0938 5.8125 0.5625 9.0938 8.5781 11.672 13.406 2.0625 3.8438 4.5469 7.4062 7.4062 10.594-3.75 18.281-24.094 32.297-42.422 29.062zm132.56 16.875c-6.4219 9-17.203 8.4375-26.719 5.0625-10.078-3.5625-19.5-9.5625-27.281-16.828-6.3281-5.8594-11.672-12.516-15.938-19.875 2.8125 1.125 5.7188 2.0156 8.7188 2.625 10.781 2.2031 21.75 1.125 31.406-3.2812 4.3125 6.7969 8.625 13.594 12.938 20.344 1.6406 2.5781 5.2969 3.8438 8.0156 2.1094 2.5781-1.6875 3.8438-5.25 2.1094-8.0156-4.3594-6.8438-8.7188-13.688-13.031-20.531 1.125-0.84375 2.1562-1.7812 3.1875-2.7188 2.0156-1.875 3.8906-3.9375 5.5781-6.0938 11.953 12.938 22.594 30.984 11.062 47.203zm82.828-53.438c6.2812 8.0156 9.5625 21.141 2.0625 29.484-9.0938 9.9844-24.281 7.6406-35.438 3.1875-12.188-4.9219-24-12.469-32.766-22.266-7.2656-8.1094-12.281-18.562-12.844-29.391 7.9219 4.3125 17.062 6.2812 26.062 5.5312 5.1562 12.562 13.312 23.062 24.094 31.266 2.4375 1.875 6.6562 0.46875 8.0156-2.0625 1.5938-3.0938 0.5625-6-2.0625-7.9688l-0.09375-0.09375v0.046875s0-0.046875-0.046875-0.09375l-0.14062-0.14062h-0.09375c-0.1875-0.1875-0.42188-0.375-0.65625-0.5625-0.5625-0.42188-1.0312-0.84375-1.5469-1.3125-1.0781-0.9375-2.1562-1.875-3.1406-2.9062-1.0312-1.0312-1.9688-2.0625-2.9531-3.1406-0.46875-0.46875-0.89062-1.0312-1.3125-1.5469-0.23438-0.28125-0.46875-0.5625-0.75-0.84375l-0.14062-0.14062c-0.046875 0-0.09375-0.046875-0.09375-0.09375l-0.1875-0.1875s-0.046875-0.09375-0.09375-0.09375c-1.6406-1.875-3-4.3125-4.2188-6.4688-0.75-1.2188-1.4062-2.5312-2.0625-3.75-0.32812-0.65625-0.65625-1.3594-0.9375-2.0625-0.09375-0.14062-0.14062-0.28125-0.1875-0.42188 2.7656-1.0312 5.4375-2.3438 7.9688-4.0312 11.953 4.5938 25.312 9.7031 33.469 20.156zm78.891-14.531c-17.438 8.3438-38.719 0.60938-52.781-10.781-9.2812-7.4531-17.25-17.062-24.375-26.531-5.3438-7.125-10.172-14.531-14.344-22.406 21.562 15.094 46.078 25.5 67.5 40.781 2.5781 1.8281 6.5156 0.46875 8.0156-2.1094 1.7344-2.9062 0.46875-6.1875-2.0625-8.0156-16.453-11.719-34.688-20.531-52.031-30.844h0.046875c0.79688-0.28125 1.5938-0.60938 2.3438-0.9375 12.656-1.3125 25.219-3.4219 38.016-3.6562 8.9062-0.1875 18.75 1.0312 27.516 4.3125 0.1875 0.09375 0.375 0.14062 0.5625 0.1875 9.1875 3.6562 17.062 9.75 21.188 19.406 3.6562 8.5312 2.1562 17.25-2.1562 24.656-3.9844 6.8438-10.406 12.562-17.438 15.891zm159.74-70.078c3.5156 10.219 0.51562 21.094-5.5312 29.625-10.922 15.562-30.047 24.234-48 28.734-18.375 4.5938-38.25 5.625-56.906 1.9219-6.4688-1.3125-12.844-3.0938-18.938-5.8125 2.25-5.5312 3.2812-11.484 2.7656-17.625-0.98437-11.344-6.6562-20.812-14.719-27.938 16.5-2.3438 32.719-7.6875 47.203-15.562 9.1875-4.9688 18.75-11.25 25.312-19.5 6.7031-8.4375 12.094-21.75 3.6562-30.938-4.875-5.3438-12.094-6-18.938-6.2812-4.7812-0.1875-9.5625-0.46875-14.344-0.65625 2.4375-6.3281 3.6562-13.125 3-19.875-1.125-12.656-7.7812-23.297-18.188-30.469-7.6875-5.3438-17.156-8.2969-26.578-9-3.1875-34.5-11.062-69-22.688-101.58 0.23438-0.32812 0.46875-0.65625 0.70313-0.98438 1.7344-0.84375 2.8594-2.625 3.1875-4.5938 2.5781-3.8438 4.875-7.875 7.0312-11.953 6.5625-12.656 11.109-26.344 12.703-40.5 1.6406-14.156-0.5625-27.75-5.625-40.922-3.1406-8.1562-6.75-16.219-8.8125-24.75-1.9688-8.3438-1.5938-16.5 0.9375-24.656 4.8281-15.797 14.812-29.438 19.688-45.328 8.625-28.312 3.75-58.547-7.8281-85.266-12.938-29.812-34.406-55.875-60.094-75.609 14.062-34.031 26.625-70.969 24.562-108.19-1.9688-35.016-19.781-65.625-48.422-85.594-13.031-9.0469-27.562-15.656-42.281-21.375-12.188-4.6875-24.562-7.5938-35.25-13.125-8.6719-4.5-17.156-9.4688-26.344-12.75-20.016-7.0781-40.688-12.188-61.688-15.375-10.781-1.5938-21.656-2.8125-32.531-3.375-1.125-0.09375-2.3438-0.14062-3.4688-0.1875 3.9375-12.469 7.875-24.984 11.766-37.5 0.9375-3-1.125-6.375-4.0781-7.2188-3.1875-0.84375-6.2812 1.0781-7.2188 4.125-4.2188 13.359-8.3906 26.719-12.609 40.031-2.7188 0-5.3906 0.14062-8.0156 0.46875-0.46875 0.09375-0.9375 0.09375-1.4062 0.1875 1.3125-1.0781 2.1562-2.625 1.9688-4.3125-2.5312-23.906-2.5781-48.094-3.9375-72.047-0.28125-5.1562-0.5625-10.266-1.125-15.375-0.32812-3.1875-2.4375-5.8594-5.8594-5.8594-2.9062 0-6.1875 2.6719-5.8594 5.8594 2.5312 23.906 2.5781 48.094 3.9375 72.047 0.28125 5.1562 0.5625 10.266 1.125 15.375 0.23438 2.25 1.4062 4.2656 3.2812 5.25-3.8438 0.5625-7.6875 1.0312-11.531 1.5938-3.3281 0.46875-6.6562 0.89062-9.9375 1.3594v-0.5625c-1.4531-16.5-5.4375-32.438-13.031-47.156-7.5-14.531-18.188-27.188-29.344-39-5.2031-5.4844-13.5 2.8125-8.2969 8.2969 10.406 10.922 20.109 22.5 27.188 35.906 6.8438 13.031 10.547 27.375 11.812 42 0.09375 0.75 0.23437 1.4062 0.51562 2.0625-11.391 1.5-22.781 3.0469-34.125 4.6875-13.359 1.9219-26.719 5.5781-39.75 9-17.906 4.7344-35.672 10.406-52.875 17.344-33.375 13.5-64.969 32.062-90.281 57.891-44.719 45.656-66.656 121.6-35.391 180.52 2.8594 5.3906 6.1875 10.5 9.8438 15.328-17.438 22.922-27.656 50.625-29.578 79.453-1.0312 15.094 0.375 30.469 4.2188 45.094 4.2656 16.266 12.188 31.594 14.906 48.281 2.7188 17.016-4.125 31.125-12.75 45.188-7.9219 12.938-15.047 25.969-20.25 40.266-9.9844 27.469-13.453 57.469-10.5 86.484 3.2812 31.688 13.781 62.625 31.781 88.969-12.656-0.75-25.219 1.4062-35.016 9.2812-8.3438 6.6562-13.5 17.391-11.719 28.078 1.8281 11.25 11.578 19.078 20.906 24.375 17.25 9.8438 37.781 13.734 57.516 11.719 22.688-2.3438 44.438-11.812 60.469-28.266h0.046876c0.14062-0.14062 0.28125-0.28125 0.375-0.42188 0.09375-0.09375 0.1875-0.1875 0.28125-0.32812 0.09375-0.09375 0.1875-0.23438 0.23437-0.375 0 0 0-0.046875 0.046876-0.09375 0.046874 0 0.046874-0.09375 0.046874-0.09375 0.14063-0.1875 0.23438-0.42188 0.32813-0.65625 0.09375-0.1875 0.1875-0.46875 0.23437-0.65625v-0.09375c0.046876-0.14062 0.09375-0.28125 0.09375-0.46875 0-0.09375 0-0.14062 0.046876-0.23438v-0.09375c0.28125-2.25-0.9375-4.4062-2.8594-5.7656-1.2188-0.89062-2.4375-1.7812-3.75-2.625 0.9375 0.375 1.9688 0.65625 2.9062 0.98438 2.625 0.84375 5.1562-0.65625 6.6094-2.6719 6-8.3906 9.0938-18.562 9-28.875v-0.09375c1.0312-8.6719 0.84375-17.156-0.375-25.875-0.75-5.5312-1.6875-11.297-3-16.875 1.6875-1.125 3.375-2.25 5.1562-3.1875 0.375-0.23438 0.79687-0.46875 1.2188-0.65625 0.09375-0.046875 0.375-0.1875 0.60937-0.28125 0.046876 0 0.09375 0 0.09375-0.046875 0.09375 0 0.09375-0.046875 0.09375-0.046875 0.70313-0.23438 1.4062-0.46875 2.1562-0.65625h0.51563s0.09375 0.09375 0.09375 0.14062c0 0 0 0.046875 0.046874 0.09375 0.375 0.51562 0.79688 1.0312 1.2188 1.5938 0.9375 1.2188 1.9219 2.3438 2.9531 3.5156 1.0312 1.125 2.0625 2.2031 3.0938 3.3281 0.79687 0.9375 1.5 1.6875 1.875 2.3438 1.4062 2.1094 2.7188 4.2656 4.4531 6.1406 0.46875 0.5625 0.9375 1.0312 1.4531 1.5938l0.09375 0.09375s0.046874 0.09375 0.046874 0.09375c0.46875 0.70312 0.9375 1.4062 1.4062 2.0625 1.125 3.9844 2.9062 7.7812 5.3438 11.25-7.6875 4.6875-12.094 13.266-16.312 21.609-6.0938 12-7.3125 25.172-3.0469 37.641-5.4375 2.0156-10.219 5.9531-13.875 10.875-5.625 7.5-7.875 17.109-6.8438 26.344-9.9375-2.8125-20.859-2.1562-30.469 3.1875-9.6562 5.3438-17.25 14.906-20.531 25.547-10.172-7.4531-21.609-13.172-33.188-18.281-13.406-5.9531-27.328-11.812-41.438-15.984-30.188-9-66.188-5.1562-87.703 19.875-9.5625 11.109-15.75 25.312-15.375 40.125 0.375 14.156 6.6562 27.469 16.312 37.688 22.266 23.766 57 26.672 86.391 15.844 16.875-6.1875 31.406-15.938 44.25-28.406 10.5-10.125 19.828-21.328 29.438-32.344 0.75 4.9219 2.4844 9.6562 5.0625 13.969-1.1719 3.75-2.3438 7.4062-3.5625 11.156-12.656 7.3125-24.188 17.156-33.984 27.938-10.5 11.484-21.188 25.969-22.219 42.094-0.1875 3.6562 0.28125 6.9844 1.4531 9.9375-3.375-0.46875-6.6562-1.2188-9.9375-2.1094-5.9531-1.6406-11.672-3.9375-17.062-6.9375-5.8594-3.2344-11.25-7.2188-16.875-10.969-10.781-7.2188-22.781-12.75-36.094-10.547-6.375 1.0312-11.344 5.1562-17.531 6.75-3.2812 0.84375-6.7031 1.0312-10.078 1.3125-17.812 1.6406-32.906-8.1562-42.609-23.062-11.25-17.344-14.484-38.203-10.406-58.359 0.60937-2.9531 1.3125-5.8594 2.1562-8.7656 0.42187-0.65625 0.65625-1.4062 0.65625-2.2031 6.1875-20.906 17.344-40.125 27.938-59.156 12.844-23.062 24.141-46.734 33-71.625 17.578-49.406 26.203-101.62 30.188-153.84 4.125-53.062 3.375-106.41 1.9688-159.56l-0.5625-19.406c-0.1875-7.5-11.906-7.5469-11.719 0 1.5938 54.188 2.9062 108.47-0.28125 162.66-3.1406 52.828-10.688 105.66-27.188 156.1-8.25 25.219-18.891 49.406-31.594 72.703-11.719 21.281-24.562 42.469-32.062 65.766-12.656 1.5938-26.062 0.375-37.359-5.8594-1.5-0.84375-2.9531-1.7812-4.3594-2.7656 0 0-0.046876 0-0.09375-0.046874l-0.14063-0.14063c-0.28125-0.1875-0.46875-0.42187-0.75-0.65625-4.6875-3.7031-8.5781-7.4062-10.969-13.031-5.625-13.219-3-29.766 3.0469-42.375 8.0625-16.781 21.141-30.469 31.312-45.938 10.828-16.406 16.5-34.5 18.375-54 1.9688-20.062 0.28125-40.219 0.28125-60.281 0-20.438 2.8125-39.891 9.0469-59.391 6.1406-19.359 14.25-37.969 20.719-57.281 6.6562-19.875 10.5-40.219 11.625-61.172 1.1719-21.609-0.09375-43.219-0.9375-64.781-0.84375-20.438-1.125-40.875 0.75-61.219 1.6875-18.281 4.9219-36.375 9.4688-54.094 18.328-70.969 58.688-135.84 115.27-182.63 57.094-47.156 129.94-75.375 203.81-79.359 9.3281-0.46875 18.656-0.60938 28.031-0.375 3.9375 0.09375 5.8125-3 5.625-6 8.3906-10.781 3.4688-25.406-5.2969-34.547-4.7812-5.0625-11.109-8.4375-16.969-12.094-5.0625-3.0938-10.406-6.4688-13.734-11.531-5.4375-8.3438-4.1719-18.984 0.84375-27.609 5.625-9.6562 15.281-15.375 26.438-15.844 14.578-0.60938 28.594 6.2812 38.812 16.359 2.1562 2.1094 6.1875 2.3906 8.2969 0 1.2188-1.4062 2.5781-2.9062 3.8906-4.4062 10.406-11.719 23.578-24.469 40.219-21.516 3.6094 0.65625 7.125 2.0625 9.8438 4.5938 3.4688 3.2812 5.625 7.5938 7.9219 11.672 4.7812 8.4375 11.625 17.016 22.031 17.906 9.0469 0.79688 15.562-5.5312 20.625-12.141 4.3594-5.6719 8.2031-11.25 15.469-12.75 6.375-1.3125 14.156 0.9375 19.5 5.25 6.1406 4.9688 9.4219 12.891 10.031 20.625 1.9219 22.781-13.219 41.391-26.906 57.844-2.4375 2.9531-2.2031 7.0312 1.2188 9.1875 5.0625 3.2812 10.078 6.5156 15.188 9.75 1.4062 0.89062 2.7656 1.125 3.9844 0.84375 0.46875 0.1875 1.0312 0.32812 1.5938 0.375 68.953 7.0312 139.78 28.031 189.74 78.375 36.938 37.219 57.562 86.156 68.625 136.78 9.2344 42.047 8.2969 86.062 22.453 127.03 7.4531 21.516 17.531 41.953 25.969 63.094 8.9531 22.5 15 45.281 15.75 69.562 1.5 49.031-11.203 97.312-4.6875 146.44 6.0469 45.656 22.875 89.062 29.719 134.63 3.1875 21.422 3.75 43.594-1.3125 64.781-1.0781 4.5-2.8125 8.8125-3.75 13.312-1.3594 6.375 1.3594 10.5 3.3281 16.219z"/>
 <path d="m758.44 852.42c10.875 6.375 24.281 4.7812 33.188-4.125 7.6875-7.6875 11.625-20.156 7.875-30.656-4.2188-11.719-16.172-18.938-28.453-18.75-7.0312 0.09375-14.016 2.625-18.656 8.1562-2.625 3.0938-4.2656 6.75-6.1406 10.312-0.09375 0.23438-0.23438 0.46875-0.32812 0.75-3.1406 6.75-3.2344 13.734-0.09375 20.578 2.625 5.6719 7.2188 10.547 12.609 13.688zm8.7656-41.344c6.5625-1.5938 15.469 1.0312 19.312 6.6094 0.65625 0.9375 1.1719 1.875 1.6406 2.9062 0 0.09375 0.046875 0.09375 0.09375 0.14062v0.046875s0 0.14062 0.046875 0.23438c0.14062 0.5625 0.32812 1.0312 0.46875 1.5938 0.09375 0.375 0.1875 0.75 0.23438 1.0781 0.046875 0.1875 0.09375 0.28125 0.09375 0.375v0.28125c0.046875 1.125 0.09375 2.2031 0 3.2812 0 0.09375-0.046875 0.51562-0.09375 0.84375v0.09375s-0.046875 0.1875 0 0.1875c-0.09375 0.28125-0.09375 0.65625-0.09375 0.65625-0.1875 0.9375-0.42188 1.8281-0.75 2.6719-0.14062 0.46875-0.28125 0.9375-0.46875 1.4062 0-0.046875 0.046875-0.09375 0.046875-0.09375 0 0.046875-0.09375 0.14062-0.09375 0.23438v0.046875c0 0.09375-0.046875 0.14062-0.09375 0.1875-0.51562 1.0312-1.0312 1.9688-1.5938 2.9531-0.23438 0.375-0.46875 0.75-0.75 1.125l-0.046875 0.09375-0.1875 0.1875c-0.09375 0.14062-0.23438 0.28125-0.28125 0.375-0.65625 0.75-1.3594 1.5-2.1094 2.2031-0.28125 0.28125-0.5625 0.46875-0.84375 0.75-0.09375 0.09375-0.14062 0.09375-0.1875 0.1875h-0.046875c-0.09375 0.046875-0.1875 0.09375-0.32812 0.1875-0.9375 0.5625-1.875 1.125-2.9062 1.6406-0.046875 0-0.09375 0.046875-0.14062 0.09375-0.09375 0.09375-0.1875 0.09375-0.28125 0.09375 0.046875 0 0.09375-0.046875 0.14062-0.09375-0.46875 0.1875-0.9375 0.32812-1.4531 0.46875-0.5625 0.1875-1.0781 0.28125-1.6406 0.375 0 0-0.1875 0-0.28125 0.046875h-0.1875c-2.5312 0.28125-3.7031 0.09375-5.8594-0.51562-8.0625-2.2969-16.688-11.766-12.188-20.812 1.0312-1.9688 2.0156-3.9375 3.0469-5.8594 1.8281-3.375 4.2188-5.4375 7.7812-6.375z"/>
 <path d="m665.06 492.42c24.938 16.734 63.656 5.9062 75.938-21.609 1.3125-2.9062 0.84375-6.2812-2.0625-8.0156-2.5312-1.5-6.75-0.84375-8.0156 2.0625-9.9375 22.219-40.031 30.75-59.906 17.391-6.2812-4.2188-12.188 5.9062-5.9062 10.125z"/>
 <path d="m717.84 360.74c-0.375 3.1406 3 5.8594 5.8594 5.8594 3.4688 0 5.4375-2.7188 5.8594-5.8594 5.3438-41.859 1.7344-84.75-10.266-125.16-2.1562-7.2188-13.453-4.125-11.297 3.0938 11.766 39.562 15.094 81.141 9.8438 122.06z"/>
 <path d="m711.66 81.281c-2.0625-2.0625-6.2812-2.4844-8.2969 0-17.859 22.078-28.547 48.891-30.656 77.25-0.23438 3.1875 2.8594 5.8594 5.8594 5.8594 3.375 0 5.625-2.6719 5.8594-5.8594 1.875-24.984 11.438-49.453 27.234-68.953 1.9688-2.4375 2.4375-5.8594 0-8.25z"/>
 <path d="m638.95 613.13c11.719-4.0312 22.359-10.125 31.688-18.188 2.4375-2.0625 2.1562-6.1875 0-8.2969-2.3438-2.3438-5.8594-2.0625-8.25 0-14.25 12.281-32.906 19.312-51.656 19.828-18.469 0.46875-36.375-5.625-51.188-16.641-8.0625-5.9531-14.906-13.594-20.156-22.078-3.9844-6.375-14.156-0.51562-10.125 5.9062 11.062 17.719 27.797 31.219 47.297 38.672 19.875 7.5938 42.375 7.6875 62.438 0.79688z"/>
 <path d="m572.16 501.32c3.1406-0.46875 4.8281-4.4531 4.125-7.2188-0.9375-3.375-4.0312-4.5-7.2188-4.0781-18.469 2.5781-37.969-7.125-47.625-22.875-3.9375-6.4219-14.062-0.5625-10.078 5.9062 12.656 20.672 37.031 31.594 60.844 28.312z"/>
 <path d="m523.87 1012.5c1.0312-15.516-11.719-30.844-27.797-28.406h-0.046875c-0.375 0.09375-0.75 0.14062-1.125 0.1875-0.28125 0.09375-0.5625 0.1875-0.89062 0.28125h-0.046875c-12.328 3.8438-19.688 13.969-25.5 25.031-2.7656 5.25-4.5938 10.688-4.4062 16.688 0.14062 5.5312 1.6406 11.297 4.7812 15.891 7.8281 11.484 22.406 13.031 33.797 5.6719 11.672-7.5469 20.297-21.516 21.234-35.438zm-25.688 24.281c-3.4688 2.625-7.7812 4.6875-12.188 4.0312-3.1875-0.46875-5.7188-2.3438-7.2188-4.7344-3.9375-6.1875-3.8438-13.453-0.5625-19.781 4.5-8.7188 9.6562-17.812 19.781-20.672 8.5312-1.7812 14.344 8.1094 14.156 15.469-0.1875 9.6562-6.4688 19.969-14.016 25.688z"/>
 <path d="m435.05 181.18c-43.125 22.312-81.188 54.094-111.52 91.875-30.562 38.062-53.719 81.938-67.219 128.86-7.5 26.25-12 53.344-13.125 80.625-0.32812 7.5469 11.391 7.5 11.719 0 1.9688-46.969 14.297-93.375 35.062-135.47 20.906-42.281 49.969-80.344 85.547-111.33 19.922-17.344 41.906-32.25 65.391-44.438 6.7031-3.4688 0.75-13.594-5.9062-10.125z"/>
 <path d="m559.03 893.16c-14.156 0-25.641-11.531-25.641-25.641s11.531-25.641 25.641-25.641c14.156 0 25.641 11.531 25.641 25.641s-11.531 25.641-25.641 25.641zm0-39.562c-7.6875 0-13.922 6.2812-13.922 13.922s6.2812 13.922 13.922 13.922c7.6875 0 13.922-6.2344 13.922-13.922s-6.2344-13.922-13.922-13.922z"/>
 <path d="m702 1033.7c-14.156 0-25.641-11.531-25.641-25.641s11.531-25.641 25.641-25.641 25.641 11.531 25.641 25.641-11.531 25.641-25.641 25.641zm0-39.562c-7.6875 0-13.922 6.2344-13.922 13.922s6.2344 13.922 13.922 13.922 13.922-6.2812 13.922-13.922-6.2812-13.922-13.922-13.922z"/>
 <path d="m586.82 1111.2c-14.156 0-25.641-11.531-25.641-25.641s11.531-25.641 25.641-25.641c14.156 0 25.594 11.531 25.594 25.641s-11.484 25.641-25.594 25.641zm0-39.562c-7.6875 0-13.922 6.2344-13.922 13.922s6.2344 13.922 13.922 13.922 13.875-6.2812 13.875-13.922-6.2344-13.922-13.875-13.922z"/>
</svg>
