<?xml version="1.0" encoding="UTF-8"?>
<svg width="1200pt" height="1200pt" version="1.1" viewBox="0 0 1200 1200" xmlns="http://www.w3.org/2000/svg">
 <path d="m667.07 1009.1c9.8672 9.1172 20.234 17.863 29.602 27.355h0.003907c18.117 17.422 32.852 38.047 43.469 60.828 6.6953 15.75 9.2305 32.953 7.3672 49.965-1.1367 10.738-6.7617 20.492-15.488 26.855-10.008 8.5195-21.199 15.547-33.223 20.859-15.273 5.6875-31.789 7.1992-47.844 4.3711-33.391-6.25-65.758-17.098-96.18-32.227-14.863-6.6211-28.48-15.363-42.594-23.359-8.9922-5.1211-18.113-10.117-27.105-15.363-26.234-15.484-50.73-33.742-73.07-54.457-2.2461-2.1172-5.2969-3.1641-8.3672-2.875-17.758 0.36328-35.504-1.1055-52.961-4.3711-14.527-2.0781-28.543-6.8203-41.348-13.992-14.176-8.7695-25.637-21.312-33.102-36.223-1.668-3.9375-2.2266-8.2578-1.6211-12.488 1.7383-19.773 10.305-38.32 24.23-52.465 9.3906-9.7305 20.062-18.137 31.727-24.98 18.559-11.84 37.879-22.438 57.832-31.727 9.8672-4.6211 20.734-5.9961 30.852-9.7422 10.117-3.7461 11.742-4.2461 10.242-16.488-2.8711-22.984-6.3711-45.84-9.2422-68.824-3.9961-31.727-7.2461-63.578-11.742-95.305-4.4961-31.727-10.367-64.828-15.488-97.18h0.003906c-0.22656-5.1094-3.543-9.5625-8.3711-11.242-3.5781-1.4648-6.6602-3.9258-8.875-7.0938-2.2148-3.168-3.4688-6.9062-3.6133-10.77-0.875-8.3672-3.3711-16.613-4.8711-24.98h-0.003906c-0.95703-6.2266-4.6133-11.711-9.9922-14.988-24.867-16.957-47.969-36.375-68.949-57.961-9.4492-9.1914-15.672-21.199-17.738-34.223-13.238-75.57-27.477-151.02-40.719-226.59-8.3672-47.465-15.238-95.18-24.98-142.39-4.9961-23.234-4.3711-23.234 15.363-36.223v-0.003906c23.723-15.273 50.27-25.637 78.066-30.477 20.484-3.9961 40.969-7.3711 61.703-9.7422 12.492-1.375 24.98 0 38.098 0 16.113 0 32.227 1.125 48.34 2h0.003906c22.387 0.58594 44.582 4.2852 65.949 10.988l8.4922 3.4961 0.003906 0.003906c4.1094 1.582 7.5742 4.4961 9.8398 8.2773 2.2617 3.7812 3.1953 8.2109 2.6484 12.582-0.097656 10.77 0.48828 21.531 1.75 32.227 1.5 36.348 0 72.57 0 108.8 0 30.852-3.7461 61.703-5.4961 92.434 0 8.8672 0 17.738-0.75 26.605 0 43.594-1.375 87.438-3.4961 130.78v-0.003906c-0.875 7.3008-0.875 14.684 0 21.984 1.707 13.961-2.8711 27.961-12.492 38.223-8.7539 11.754-18.766 22.516-29.852 32.102-5.0547 3.6367-8.8672 8.7383-10.922 14.613-2.0547 5.8789-2.2539 12.242-0.57031 18.238 1.3594 7.5586 2.2773 15.191 2.7461 22.855 1.8086 4.832-0.35547 10.242-4.9961 12.492-6.3711 2.9961-5.8711 8.1172-5.1211 13.613 2.9961 22.234 6.2461 44.344 8.6172 66.578 3.9961 37.473 7.2461 74.945 11.242 112.42 2.8711 27.98 6.4961 55.836 9.8672 83.812 0.875 7.3711 1.625 8.2422 9.7422 7.7461h0.003906c17.801-1.6094 35.723-1.3164 53.461 0.875 5.8711 0.875 12.492 6.2461 17.613 1.5 5.1211-4.7461 3.9961-10.617 5.4961-16.113 5.7461-21.984 10.492-44.344 17.238-65.953s14.613-46.34 21.109-69.699c3.9961-14.113 8.2422-28.23 12.492-42.344 2.375-8.3672 2.375-8.8672-5.6211-11.742-4.9961-1.75-5.4961-4.4961-4.4961-8.7422h-0.003906c2.2227-8.2148 3.9336-16.559 5.1211-24.984 1.293-8.9531-1.9922-17.961-8.7422-23.98-17.773-18.023-33.754-37.727-47.715-58.832 0.023437-0.33203 0.023437-0.66797 0-1-15.363-15.863-16.113-34.973-14.738-55.836 2.9961-47.715 9.7422-95.18 14.363-142.77 4.6211-47.59 12.492-92.434 20.859-138.4 3.6211-20.109 9.9922-39.598 14.113-59.582s10.367-37.473 15.363-55.711c2.1641-8.1953 6.7383-15.551 13.129-21.117 6.3906-5.5703 14.309-9.0898 22.723-10.109 28.121-7.1562 57.41-8.4766 86.062-3.8711 30.852 5.6211 61.457 12.492 91.434 20.484 22.09 7.1328 43.773 15.473 64.949 24.98 12.492 5.3711 25.605 10.867 37.473 17.238 18.809 9.9883 36.094 22.605 51.34 37.473 6.6562 6.6875 10.652 15.566 11.242 24.98 0.49219 3.5117-0.35547 7.0781-2.375 9.9961-7.5703 12.117-13.414 25.234-17.363 38.969-13.988 38.348-28.48 76.57-44.219 114.29-15.734 37.723-29.727 71.199-43.965 106.92-12.492 32.352-28.355 63.328-42.969 94.68-6.9961 14.988-14.113 29.977-21.234 44.969-1.3711 2.3516-2.3008 4.9336-2.75 7.6211 0 10.742-7.3711 14.738-16.613 17.988-20.734 7.2461-42.469 11.242-63.203 18.363s-20.859 1.375-23.359 27.98l0.003906-0.003906c0.62891 9.418-3.7344 18.477-11.492 23.855-2.1523 1.7383-3.543 4.25-3.875 6.9961-7.8711 30.227-19.984 59.082-28.98 88.934-9.7383 32.602-21.23 63.453-31.973 95.055-3.6211 10.742-3.6211 10.742 6.3711 15.488v0.003906c0.73828 0.25391 1.4531 0.58984 2.1211 0.99609 21.164 13.859 34.934 36.535 37.473 61.707 0.67969 9.1992-1.9805 18.336-7.4922 25.73-5.1211 6.1211-9.9922 11.992-14.992 18.363zm-37.473-910.96c-3.8672 6.2461-6.6953 13.078-8.3672 20.234-6.9961 23.234-12.492 46.965-17.988 70.574-9.5781 40.688-17.082 81.836-22.48 123.29-2.9961 22.484-4.1211 45.344-7.1211 67.824-6.2461 44.844-9.8672 89.809-12.492 134.9-0.66797 10.809 2.7656 21.469 9.6172 29.852 8.3672 11.117 16.863 22.109 24.98 33.477h0.003906c6.918 9.8203 14.922 18.828 23.855 26.855 4.5898 3.582 8.1953 8.2656 10.492 13.613 2.082 6.7617 7.2891 12.109 13.992 14.367 19.863 8.4648 40.941 13.734 62.453 15.613 5.0391 0.51562 10.109-0.57812 14.488-3.125 8.8047-4.7539 18.16-8.4023 27.855-10.863 17.738-5.4961 35.848-9.1172 53.336-15.238v-0.003906c6.3125-1.7812 11.434-6.3984 13.867-12.488 15.613-36.098 33.352-71.199 49.965-106.67 19.734-41.594 34.352-85.062 52.711-127.28 21.734-49.965 40.219-101.8 59.707-152.89 0-1.375 1.125-2.9961 0-4.2461l-0.003906-0.003906c-2.5039-0.87891-5.2344-0.87891-7.7422 0-11.266 2.8242-22.871 4.0469-34.477 3.6211-18.875-0.69141-37.691-2.5664-56.332-5.6211-16.363-2.8711-32.477-6.9961-48.715-9.8672-25.273-4.9258-50.09-11.945-74.195-20.984-32.066-9.8906-62.844-23.562-91.684-40.723-6.2344-3.7695-11.91-8.3945-16.863-13.738-7.5117-9.3711-13.887-19.602-18.988-30.477zm-416.2-20.488c-1.0273 2.4531-1.2461 5.1641-0.625 7.7461 5.9961 29.852 10.242 60.082 15.363 90.059 11.492 67.699 23.734 135.15 35.973 202.73 4.3711 24.23 9.3672 48.465 14.363 72.695l0.003906 0.003906c1.2109 7.2773 4.5078 14.047 9.4922 19.484 21.301 22.891 45.195 43.223 71.199 60.582 7.3008 3.6133 12.383 10.559 13.613 18.609 0 3.4961 1.125 7.1211 5.2461 8.1172v0.003906c6.8555 2.6211 14.047 4.2578 21.359 4.8711 19.66-0.30078 39.16-3.5859 57.836-9.7422 3.9297-0.75781 6.6406-4.3867 6.2422-8.3711 0.29688-11.336 5.5469-21.973 14.367-29.102 9.6133-8.3633 18.512-17.516 26.605-27.355 10.102-9.6992 15.09-23.562 13.488-37.473-0.12109-0.74609-0.12109-1.5039 0-2.25 1.125-40.469 3.1211-80.941 3.4961-121.54 0-59.832 7.3711-119.41 6.7461-179.25 0-26.98 0.75-53.961 1-81.066v0.003906c0.78125-4.3828-0.25391-8.8945-2.8711-12.492-5.9766 5.1406-12.371 9.7773-19.113 13.863-20.918 9.9727-42.926 17.473-65.574 22.359-36.172 8.0977-73.105 12.285-110.17 12.492-37.473 0-74.07-2.8711-107.55-21.859-3.1406-1.9922-6.7734-3.0742-10.492-3.125zm229.83 848.01c-19.586-0.58594-38.758 5.6875-54.211 17.738-6.9766 4.2773-12.426 10.652-15.566 18.211-3.1406 7.5625-3.8125 15.918-1.918 23.883 1.125 6.8711 3.4961 13.367 5.1211 20.109 5.3555 19.383 15.344 37.176 29.102 51.84 16.863 18 35.77 33.973 56.336 47.59 16.238 12.492 34.102 20.984 51.211 31.352 33.703 21.742 70.574 38.133 109.3 48.59 16.938 5.2461 34.609 7.7344 52.336 7.3672 6.9375-0.16016 13.789-1.5547 20.234-4.1211 11.414-5.6094 22.215-12.391 32.227-20.234 6.9609-5.0664 11.492-12.809 12.492-21.359 2.0312-22.426-3.3672-44.898-15.363-63.953-11.922-19.902-26.98-37.742-44.594-52.836-10.867-9.1172-21.234-18.984-32.102-28.23-8.1914-7.0273-17.062-13.219-26.48-18.488-5.7461-3.2461-7.1211-2.7461-8.9922 3.7461v0.003906c-4.6523 15.492-8.3203 31.262-10.992 47.215-2.375 15.988-7.3711 20.734-23.234 20.234-4.2734-0.12891-8.4961-0.97266-12.492-2.4961-13.043-6.5586-24.84-15.352-34.848-25.98-3.8984-4.0195-4.9414-10.02-2.625-15.117 5.9961-17.113 11.492-34.352 17.238-51.461 2.8711-8.4922 2.8711-9.6172-5.8711-12.492-30.859-11.828-63.324-18.945-96.305-21.109zm482.77-712.73c3.1211 0 6.2461 0.625 9.2422 0.625 13.918 1.0352 27.883-1.2773 40.723-6.7461 6.6875-2.8125 11.531-8.7773 12.91-15.898 1.3789-7.125-0.88672-14.469-6.0391-19.574-11.977-12.641-25.637-23.57-40.598-32.477-22.004-11.824-44.789-22.133-68.199-30.852-34.746-13.918-70.766-24.418-107.55-31.352-33.52-7.7969-68.258-8.8164-102.18-3-7.9609 1.3281-15.566 4.2617-22.359 8.6211-7.9961 5.4961-8.2422 5.8711-5.1211 14.988 5.75 16.078 16.578 29.848 30.852 39.223 9.1523 5.6953 18.617 10.867 28.355 15.488 19.402 10.402 39.832 18.777 60.957 24.98 27.242 9.6289 55.07 17.512 83.312 23.609 28.148 6.6055 56.82 10.742 85.688 12.363zm-344.75 835.39c7.7461 0 11.117-2 12.492-8.2422 3.0664-20.148 7.5352-40.055 13.367-59.582 9.1172-32.227 19.609-63.953 29.977-95.93 12.492-38.848 25.605-77.445 38.473-116.29 6.7461-20.109 13.738-40.098 20.234-60.207 3.6211-11.367 5.7461-11.742-9.2422-14.113v-0.003906c-11.848-1.7148-23.332-5.3867-33.977-10.867-14.488-7.6211-14.363-7.3711-18.859 9.2422-6.8711 24.98-13.738 49.965-21.484 74.945-7.7461 24.98-15.863 51.461-22.234 77.57-6.543 28.949-15.312 57.344-26.23 84.938-10.867 26.98-19.113 54.211-27.98 81.941-1.5859 4.4609-0.24219 9.4375 3.3711 12.492 7.2461 5.8711 13.988 12.492 21.609 17.363 5.8047 4.6172 13.07 7.0117 20.484 6.7422zm-199.86-1041.4 0.003906 0.003906c-30.641 0.11328-61.148 4.0586-90.809 11.742-23.516 4.4023-45.902 13.492-65.828 26.73-3.3359 1.9023-6.5117 4.0742-9.4922 6.4922-6.7461 6.6211-6.6211 14.863 2 18.738h-0.003906c11.57 6.1602 23.598 11.422 35.977 15.738 28.457 7.7773 57.977 10.938 87.434 9.3672 15.738-0.75 31.477-2.25 47.215-3.6211h0.003906c38.793-3.0977 76.793-12.684 112.42-28.355 7.4336-3.5781 14.031-8.6875 19.359-14.988 9.3672-10.617 6.9961-20.484-5.8711-26.73-9.4922-4.2422-19.547-7.1055-29.852-8.4961-34.031-4.9883-68.41-7.2031-102.8-6.6172zm117.66 920.2c-3.1211-16.238-6.3711-30.352-8.3672-44.844-3.4961-24.98-6.3711-48.84-9.2422-73.32-2.5-19.859-5.3711-39.723-6.8711-59.707-3.8711-48.09-9.9922-95.805-15.363-143.64l-1-6.1172c0-3.8711-2.5-5.6211-6.2461-4.4961h0.003906c-14.887 4.0117-30.344 5.4883-45.719 4.3711-6.8711 0-7.3711 0-6.2461 7.4961 2.5 15.113 5.6211 30.227 7.7461 45.469 6.2461 44.219 13.242 88.434 17.988 132.9 2.9961 27.855 6.6211 55.836 10.617 83.688 1.625 11.367 1 22.984 3.4961 34.352 3.2461 14.363 3.1211 14.363 17.363 15.988v-0.003906c1.8516 0.41406 3.7305 0.70703 5.6211 0.875 11.613 1 22.48 5.1211 35.973 6.9961zm-99.301 135.78c-1.7148-5.0703-4.4336-9.7461-7.9922-13.742-11.855-16.547-20.344-35.262-24.98-55.086-3.9805-11.613-3.543-24.285 1.2266-35.594 4.7695-11.312 13.535-20.473 24.629-25.734 10.637-6.2266 22.316-10.461 34.473-12.492 2.625 0 5.9961-1.125 5.7461-4.6211 0.5-7.2344 0.5-14.496 0-21.734-1-4.6211-2.8711-5.9961-7.1211-4.7461-6.9961 2-13.988 3.8711-20.859 6.1211-25.555 9.5586-49.875 22.137-72.445 37.473-10.891 6.5391-20.812 14.57-29.48 23.855-12.59 13.227-19.918 30.594-20.609 48.84-0.37891 3.0391 0.14062 6.125 1.5 8.8711 8.1133 15.488 20.988 27.969 36.723 35.598 21.832 8.7617 44.961 13.867 68.449 15.113 3.7227 0.75391 7.5898-0.011718 10.742-2.1211zm283.04-95.305 0.003906-0.003906c-0.082031-9.4141-2.4375-18.672-6.8711-26.98-3.8711-7.7461-10.867-12.492-15.113-20.484-3.9023-5.7227-9.4922-10.086-15.988-12.488-5.3711-2.625-7.7461-1-9.3672 4.1211l-17.988 57.207c-1 2.9961-1 5.3711 2.125 6.7461h-0.003906c13.488 6.7227 26.078 15.117 37.473 24.98 0.90234 1.0234 2.1992 1.6094 3.5625 1.6094 1.3594 0 2.6562-0.58594 3.5586-1.6094 10.562-7.9414 17.312-19.949 18.613-33.102zm-157.01-89.562c-7.4453-0.47656-14.922 0.027344-22.234 1.5-5.4961 1.125-6.9961 3.8711-5.8711 8.8672 2.8711 11.617 5.6211 23.234 8.4922 34.727h0.003906c0.98438 4.6562 4.6836 8.2578 9.3672 9.1172 10.516 2.2422 20.742 5.6797 30.477 10.242 3.9961 2.125 5.9961 0.75 7.6211-3.4961 5.8711-15.863 12.492-31.602 17.113-47.715 1.5-5.1211 0-7.7461-5.3711-8.7422l-0.003906-0.003906c-13.039-2.6602-26.289-4.1641-39.594-4.4961zm106.3-242.57c-1.625 7.6211-3.2461 14.613-4.7461 21.734 0 3.3711 0 6.8711 4.1211 6.7461 4.1211-0.125 8.2422 3.6211 12.492 5.9961 12.977 8.3398 27.438 14.105 42.594 16.988 19.734 3.9961 23.984 1 27.23-18.859l1.125-5.6211c0.75-4.8711-1.125-6.9961-6.2461-6.9961-9.6406-0.25-19.227-1.5039-28.605-3.75-16.484-3.8164-32.551-9.2539-47.965-16.238zm-253.94-69.824c0 23.234 6.2461 24.98 20.109 26.48h0.003907c20.699 2.8359 41.777 0.65234 61.453-6.3672 5.3711-2 8.7422-4.6211 7.6211-10.867v-8.1172c-0.625-8.4922-2-9.3672-9.9922-7.1211l-5.4961 1.75v-0.003906c-23.605 8.6719-49.254 10.152-73.699 4.2461z"/>
 <path d="m683.31 223.21c3.8711 0 4.7461-3.6211 6.6211-5.7461 6.8789-7.9727 15.402-14.367 24.984-18.734 9.4414-4.6875 20.531-4.6875 29.977 0 4.9883 2.0859 9.2891 5.5352 12.402 9.9531 3.1172 4.4219 4.9219 9.6289 5.2109 15.027 0.98828 11.191-0.37109 22.469-4 33.102-9.7852 29.289-23.125 57.27-39.719 83.316-5.4961 8.9922-9.9922 18.363-15.113 27.355v-0.003906c-22.664 38.625-40.77 79.742-53.961 122.54-9.2383 31.988-15.141 64.848-17.613 98.051v4.6211c0 1.5 0 8.4922-4.1211 8.3672-4.1211-0.125-2.625-5.3711-2.9961-8.3672-3.3711-32.227-7.9961-64.328-12.492-96.305-2.7461-18.363-5.1211-36.598-6.2461-55.211-2.375-40.844-2.5-81.691-0.875-122.54v0.003906c0.039062-22.012 1.8359-43.98 5.3711-65.703 2.5586-13.617 7.1914-26.762 13.738-38.973 6.4141-10.836 17.391-18.188 29.855-19.984 5.5508-0.94141 11.25 0.17969 16.035 3.1445 4.7852 2.9688 8.3203 7.5781 9.9453 12.969 1.75 4.3711-0.625 9.4922 2.9961 13.113zm-54.832 330.64c1.2031-3.3945 2.2031-6.8555 2.9961-10.367 6.1094-38.105 17.109-75.258 32.727-110.55 15.543-34.27 33.016-67.633 52.336-99.926 11.039-18.062 20.605-36.984 28.605-56.586 5.2695-12.871 8.9609-26.332 10.992-40.094 1.4844-6.2578 0.70312-12.84-2.1992-18.578s-7.7422-10.262-13.664-12.773c-7.6445-3.0508-16.246-2.5469-23.484 1.3711-17.547 7.7734-30.695 22.984-35.848 41.473-4.9961 16.363-7.4961 33.102-11.117 49.965 0 1.75 0 4.2461-2.625 4.2461s-2.9961-2.125-3.1211-4.1211v-0.003906c-0.25-1.9062-0.25-3.8359 0-5.7461 2.0352-14.855 4.9531-29.582 8.7422-44.09 4.3438-11.457 4.6953-24.043 1-35.727-1.1875-4.2969-4.0547-7.9336-7.957-10.094-3.8984-2.1602-8.5039-2.6641-12.777-1.3945-10.875 2.1523-20.117 9.2695-24.98 19.234-7.7734 14.297-12.574 30.016-14.117 46.215-4.0781 54.531-4.9141 109.25-2.4961 163.88 0 13.863 2.5 27.605 3.6211 41.469 1.625 21.109 6.6211 41.844 7.9961 63.078 0.18359 6.7148 2.0312 13.281 5.3711 19.113z"/>
 <path d="m439.37 160.26c1.0234-10.23 2.5664-20.402 4.6211-30.477 1.8164-10.348 7.5977-19.582 16.113-25.73 5.5742-4 12.66-5.2539 19.266-3.4062 6.6055 1.8438 12.016 6.5898 14.711 12.898 4.8047 11.953 7.6328 24.609 8.3672 37.473 6.8711 47.762 6.8711 96.258 0 144.02-2.7461 20.609-3.7461 41.469-5.3711 62.453-1.0156 11.914-2.7227 23.762-5.1211 35.477-6.9805 30.117-8.8789 61.188-5.6211 91.93 0.0625 0.75 0.0625 1.5039 0 2.25 0 2 0 4.1211-2.7461 4.3711-2.7461 0.25-2.625-1.375-3.1211-2.8711-1.375-5.2461-2.8711-10.367-3.9961-15.613h-0.003906c-10.895-51.594-27.355-101.85-49.09-149.89-11.367-25.109-23.73-48.34-32.602-73.324-10.148-22.238-14.445-46.703-12.488-71.07 0.5-9.0898 3.7695-17.809 9.3672-24.984 5.0938-6.2266 12.781-9.7422 20.824-9.5234 8.0391 0.21875 15.527 4.1523 20.27 10.648 1.5 1.375 2.125 4.7461 6.6211 5.3711zm40.098 285.67c0.75-7.6211 1.25-15.363 2.25-22.859 3.2461-23.734 7.7461-47.215 9.9922-70.949 2.125-21.859 4.2461-43.719 6.8711-65.453h-0.003906c4.4336-30.891 5.6875-62.156 3.7461-93.305-1.25-15.363-4.3711-30.477-6.2461-45.715v-0.003906c-0.57812-9.625-2.6406-19.105-6.1172-28.102-1.2383-3.4375-3.4414-6.4414-6.3438-8.6562-2.9023-2.2148-6.3828-3.5469-10.02-3.8359-3.8672-0.089844-7.6719 0.96484-10.938 3.0312-3.2695 2.0703-5.8516 5.0547-7.4258 8.5859-6.6875 13.113-9.75 27.773-8.8672 42.469-0.86328 11.566 0.88672 23.176 5.1211 33.977 1.125 2.25 2.125 5.6211-1.625 6.7461-3.7461 1.125-4.4961-2.25-5.3711-4.7461-1.5-5.1211-3.2461-10.367-4.3711-15.613v-0.003906c-2.4961-8.5312-6.75-16.445-12.492-23.234-2.9219-3.793-7.1055-6.418-11.793-7.4023-4.6875-0.98828-9.5742-0.26562-13.777 2.0312-4.2031 2.2969-7.4492 6.0156-9.1523 10.496-2.0391 4.9805-3.5078 10.176-4.375 15.488-2.0625 23.105 1.6289 46.363 10.742 67.699 9.1172 24.98 22.609 48.09 33.352 72.32 15.805 34.527 28.633 70.34 38.348 107.05 0.88281 7.332 3.8281 14.266 8.4961 19.988z"/>
</svg>
