<?xml version="1.0" encoding="UTF-8"?>
<svg width="1200pt" height="1200pt" version="1.1" viewBox="0 0 1200 1200" xmlns="http://www.w3.org/2000/svg">
 <path d="m264.28 243.45 611.7-139.82c5.5547-1.2734 11.391 0.058594 15.848 3.6133 4.4531 3.5508 7.0508 8.9375 7.0508 14.645v121.56h37.453c10.348 0 18.727 8.3828 18.727 18.723v823.97c0 10.34-8.3828 18.723-18.723 18.723h-674.16c-10.34 0-18.723-8.3828-18.723-18.723v-823.97c0-10.34 8.3828-18.723 18.723-18.723h2.1133zm260.06 786.52h149.81c10.336 0 18.727-8.3906 18.727-18.727s-8.3906-18.727-18.727-18.727h-149.81c-10.336 0-18.727 8.3906-18.727 18.727s8.3906 18.727 18.727 18.727zm-37.457-74.906h224.72c10.336 0 18.727-8.3906 18.727-18.727 0-10.332-8.3906-18.723-18.727-18.723h-224.72c-10.332 0-18.723 8.3906-18.723 18.723 0 10.336 8.3906 18.727 18.723 18.727zm37.457-74.906h149.81c10.336 0 18.727-8.3906 18.727-18.723 0-10.336-8.3906-18.727-18.727-18.727h-149.81c-10.336 0-18.727 8.3906-18.727 18.727 0 10.332 8.3906 18.723 18.727 18.723zm74.902-489.18-1.4102-1.4102c-57.473-57.473-150.8-57.473-208.27 0-57.473 57.473-57.473 150.8 0 208.27l189.82 189.82c10.973 10.973 28.754 10.973 39.727 0l189.82-189.82c57.473-57.473 57.473-150.8 0-208.27-57.473-57.473-150.8-57.473-208.27 0l-1.4141 1.4102zm-6.6211 19.863c3.6602 3.6523 9.5859 3.6523 13.242 0l8.0352-8.0352c50.168-50.168 131.62-50.168 181.79 0 50.168 50.168 50.168 131.62 0 181.79l-189.83 189.82c-3.6523 3.6602-9.582 3.6602-13.242 0l-189.82-189.82c-50.168-50.168-50.168-131.62 0-181.79s131.63-50.168 181.79 0c0 0 8.0312 8.0352 8.0312 8.0352zm-6.9375 32.773-20.957-20.949c-39.203-39.203-102.86-39.203-142.06 0-39.203 39.203-39.203 102.86 0 142.07l176.58 176.59s176.59-176.59 176.59-176.59c39.203-39.203 39.203-102.86 0-142.07s-102.86-39.203-142.07 0c0 0-21.273 21.277-21.273 21.277-3.5156 3.5156-8.2773 5.4883-13.246 5.4883 0 0-2.8086 0.32031-6.6211-1.2188-2.6289-0.98828-5.0039-2.5625-6.9375-4.5977zm20.652 64.273-7.0938 7.0938-7.0938-7.0938c-15.504-15.504-40.68-15.504-56.184 0s-15.504 40.68 0 56.184l63.277 63.277 63.281-63.277c15.5-15.504 15.5-40.68 0-56.184-15.504-15.504-40.684-15.504-56.188 0z" fill-rule="evenodd"/>
</svg>
