<?xml version="1.0" encoding="UTF-8"?>
<svg width="1200pt" height="1200pt" version="1.1" viewBox="0 0 1200 1200" xmlns="http://www.w3.org/2000/svg">
 <path d="m225 138.23c-36.992-35.324-92.887-31.105-122.79-5.2109-33.074 28.613-37.051 85.762-4.0312 142.97 20.738 38.195 73.219 77.102 117.45 102.6 5.8125 3.3555 12.938 3.3555 18.75 0 44.23-25.5 96.711-64.406 117.51-102.7 32.961-57.188 28.969-114.28-4.0859-142.88-29.926-25.895-85.801-30.113-122.79 5.2109zm-15.938 39.523c3.4141 5.5117 9.4492 8.8672 15.938 8.8672s12.523-3.3555 15.938-8.8672c20.625-33.281 61.688-34.219 82.312-16.387 9.8984 8.5703 14.25 21.637 14.25 36.617 0 18.094-6.2617 38.68-18.207 59.363-0.09375 0.14844-0.1875 0.32031-0.26172 0.46875-16.555 30.695-57.543 60.824-94.031 82.762-36.488-21.938-77.477-52.07-94.031-82.762-0.074219-0.14844-0.16797-0.32031-0.26172-0.46875-11.945-20.68-18.207-41.27-18.207-59.363 0-14.98 4.3516-28.051 14.23-36.617 20.645-17.832 61.707-16.895 82.332 16.387z" fill-rule="evenodd"/>
 <path d="m225 138.23c-36.992-35.324-92.887-31.105-122.79-5.2109-33.074 28.613-37.051 85.762-4.0312 142.97 20.738 38.195 73.219 77.102 117.45 102.6 5.8125 3.3555 12.938 3.3555 18.75 0 44.23-25.5 96.711-64.406 117.51-102.7 32.961-57.188 28.969-114.28-4.0859-142.88-29.926-25.895-85.801-30.113-122.79 5.2109z" fill-rule="evenodd"/>
 <path d="m693.62 827.85c-1.7422-48.094-0.46875-188.06 60.824-338.06 3.918-9.582 26.645-58.199 31.5-67.332 59.305-111.6 155.72-222.09 312.05-298.67 6.1133-3 13.352-2.4375 18.938 1.4258 5.5859 3.8828 8.6445 10.48 7.9688 17.25 0 0-18.883 193.29-108.64 409.52-3.168 7.6328-10.988 12.301-19.219 11.457 0 0-35.102-3.582-35.102-3.582l23.945 32.906c3.7891 5.1953 4.6484 11.961 2.2891 17.926 0 0-79.051 198.84-268.46 250.74 170.18-384.15 297.9-540.17 297.9-540.17 6.5625-7.9883 5.3984-19.82-2.6055-26.383-7.9883-6.5625-19.82-5.3984-26.383 2.6055 0 0-126.13 153.3-294.98 530.27l0.44922-0.95703c0.73047 17.57 6 39.898 25.781 34.688l0.48828-0.20703-56.156 130.22c-3.9375 9.582-14.906 14.156-24.469 10.219-9.582-3.9375-14.156-14.906-10.219-24.469 21.75-52.895 43.031-102.34 63.656-148.43v-0.09375c0.054687-0.32031 0.14844-0.61719 0.39453-0.84375l0.039063-0.039063z" fill-rule="evenodd"/>
 <path d="m693.62 827.85c-1.7422-48.094-0.46875-188.06 60.824-338.06 3.918-9.582 26.645-58.199 31.5-67.332 59.305-111.6 155.72-222.09 312.05-298.67 6.1133-3 13.352-2.4375 18.938 1.4258 5.5859 3.8828 8.6445 10.48 7.9688 17.25 0 0-18.883 193.29-108.64 409.52-3.168 7.6328-10.988 12.301-19.219 11.457 0 0-35.102-3.582-35.102-3.582l23.945 32.906c3.7891 5.1953 4.6484 11.961 2.2891 17.926 0 0-79.051 198.84-268.46 250.74 170.18-384.15 297.9-540.17 297.9-540.17 6.5625-7.9883 5.3984-19.82-2.6055-26.383-7.9883-6.5625-19.82-5.3984-26.383 2.6055 0 0-126.13 153.3-294.98 530.27l0.44922-0.95703c0.73047 17.57 6 39.898 25.781 34.688l0.48828-0.20703-56.156 130.22c-3.9375 9.582-14.906 14.156-24.469 10.219-9.582-3.9375-14.156-14.906-10.219-24.469 21.75-52.895 43.031-102.34 63.656-148.43v-0.09375c0.054687-0.32031 0.14844-0.61719 0.39453-0.84375l0.039063-0.039063z" fill-rule="evenodd"/>
 <path d="m787.5 855.73c-16.727 8.1953-34.52 15.32-53.383 21.055l-52.648 122.08c-7.9688 18.992-29.793 28.031-48.863 20.195-19.145-7.875-28.293-29.812-20.418-48.957 21.375-51.938 42.262-100.55 62.551-145.97-1.5195-52.895 1.4258-192.32 62.344-341.44 4.0117-9.8242 27.336-59.68 32.305-69.055 5.6992-10.707 11.719-21.414 18.113-32.082v-137.81c0-14.926-5.9258-29.23-16.48-39.77-10.539-10.555-24.844-16.48-39.77-16.48h-338.46c2.5117 29.551-4.9883 63.523-24.562 97.594-22.238 40.688-77.477 82.613-124.5 109.74-11.586 6.6758-25.875 6.6758-37.461 0-31.762-18.32-67.273-43.406-93.77-70.199v706.61c0 31.07 25.18 56.25 56.25 56.25h562.5c14.926 0 29.23-5.9258 39.77-16.48 10.555-10.539 16.48-24.844 16.48-39.77zm-543.75 119.27h318.75c10.352 0 18.75-8.3984 18.75-18.75s-8.3984-18.75-18.75-18.75h-318.75c-10.352 0-18.75 8.3984-18.75 18.75s8.3984 18.75 18.75 18.75zm0-93.75h318.75c10.352 0 18.75-8.3984 18.75-18.75s-8.3984-18.75-18.75-18.75h-318.75c-10.352 0-18.75 8.3984-18.75 18.75s8.3984 18.75 18.75 18.75zm0-93.75h318.75c10.352 0 18.75-8.3984 18.75-18.75s-8.3984-18.75-18.75-18.75h-318.75c-10.352 0-18.75 8.3984-18.75 18.75s8.3984 18.75 18.75 18.75zm0-93.75h318.75c10.352 0 18.75-8.3984 18.75-18.75s-8.3984-18.75-18.75-18.75h-318.75c-10.352 0-18.75 8.3984-18.75 18.75s8.3984 18.75 18.75 18.75zm0-93.75h318.75c10.352 0 18.75-8.3984 18.75-18.75s-8.3984-18.75-18.75-18.75h-318.75c-10.352 0-18.75 8.3984-18.75 18.75s8.3984 18.75 18.75 18.75zm0-93.75h318.75c10.352 0 18.75-8.3984 18.75-18.75s-8.3984-18.75-18.75-18.75h-318.75c-10.352 0-18.75 8.3984-18.75 18.75s8.3984 18.75 18.75 18.75z" fill-rule="evenodd"/>
</svg>
