<?xml version="1.0" encoding="UTF-8"?>
<svg width="1200pt" height="1200pt" version="1.1" viewBox="0 0 1200 1200" xmlns="http://www.w3.org/2000/svg">
 <path d="m150 609c0 4.9688-4.0312 9-9 9s-9-4.0312-9-9 4.0312-9 9-9 9 4.0312 9 9"/>
 <path d="m965.84 264.29c15.695-3.0391 30.254-10.344 42.07-21.113 11.82-10.77 20.441-24.586 24.918-39.938 0.66797-2.7891-0.035157-5.7266-1.8906-7.9141-1.8516-2.1875-4.6367-3.3594-7.5-3.1562-18.602 0.58984-36.656 6.4453-52.062 16.891-0.49609-2.7969-1.2656-5.543-2.2969-8.1914-3.75-9.5469-10.742-17.469-19.746-22.383-9.0078-4.9102-19.453-6.4961-29.512-4.4805-10.684-5.7969-23.301-6.8828-34.816-3-7.8984 2.6562-14.863 7.5352-20.055 14.055-0.80078 1-1.5469 2-2.2344 3-6.7344-3.5391-13.156-6.8867-19.77-9.9883 27.457-5.1953 50.797-23.16 62.848-48.375 1.1055-2.6484 0.88672-5.6641-0.59766-8.1211-1.4805-2.457-4.043-4.0586-6.9023-4.3164-50.594-4.5-73.109 18.84-82.59 35.414v0.003906c-3.1641-6.0312-7.5352-11.348-12.84-15.617-2.293-14.16-10.465-26.691-22.5-34.5-10.34-6.625-22.734-9.2656-34.875-7.4297-12.145 1.8359-23.203 8.0195-31.125 17.406-6.5977-23.215-24.34-41.605-47.305-49.031-22.961-7.4258-48.113-2.9102-67.055 12.039-18.93-14.965-44.086-19.496-67.047-12.074-22.965 7.4219-40.707 25.82-47.297 49.035-8.3555-9.918-20.207-16.242-33.098-17.664-12.891-1.4219-25.836 2.1719-36.148 10.035-10.316 7.8633-17.211 19.391-19.254 32.199-5.2891 4.2852-9.6484 9.6016-12.812 15.629-9.4805-16.574-31.98-39.988-82.621-35.43h0.003906c-2.8594 0.25781-5.4219 1.8594-6.9062 4.3164-1.4805 2.457-1.7031 5.4727-0.59375 8.1172 12.043 25.219 35.387 43.188 62.848 48.375-6.6133 3.1055-13.035 6.4492-19.77 9.9883-0.69922-1-1.4453-2-2.2344-3v0.003906c-5.1914-6.5273-12.164-11.414-20.07-14.07-11.531-3.8672-24.152-2.75-34.828 3.0742-10.055-2.0195-20.496-0.4375-29.504 4.4609-9.0078 4.8984-16.008 12.809-19.773 22.344-1.0312 2.6445-1.8008 5.3828-2.293 8.1758-15.402-10.441-33.453-16.297-52.051-16.891-2.8594-0.20312-5.6445 0.96875-7.5 3.1562s-2.5586 5.125-1.8906 7.9141c4.4766 15.352 13.098 29.168 24.918 39.938 11.816 10.77 26.375 18.074 42.07 21.113-65.438 68.676-102 159.86-102.15 254.71v62.25c0 4.9688 4.0312 9 9 9s9-4.0312 9-9v-62.25c0.13672-82.152 29.004-161.67 81.602-224.77-3.0508 25.445 4.0664 51.062 19.797 71.293 1.5 2.043 3.793 3.3633 6.3164 3.6289 2.5195 0.26562 5.0391-0.54688 6.9297-2.2344 10.566-11.008 17.684-24.867 20.477-39.867 2.7969-15 1.1484-30.492-4.7422-44.566 3.1875 0.73828 6.4492 1.1172 9.7227 1.125 1.6758 0 3.3555-0.097657 5.0234-0.28516l1.5-0.19531c10.121-1.5781 19.367-6.6602 26.125-14.355 6.7539-7.6992 10.598-17.523 10.852-27.766 0.75-0.85547 1.5-1.7266 2.1602-2.6562v0.003906c7.1992-9.543 10.145-21.637 8.1289-33.422 3.4492-1.8164 6.8086-3.5859 10.125-5.2812-11.906 31.652-6.4727 67.219 14.34 93.871 1.5 2.043 3.793 3.3633 6.3125 3.6289 2.5234 0.26562 5.0391-0.54688 6.9336-2.2344 9.6836-10.07 16.469-22.57 19.637-36.176 3.168-13.609 2.6016-27.82-1.6367-41.133 8.6055 6.1094 18.891 9.4023 29.445 9.4336 3.3516-0.015624 6.6914-0.36719 9.9727-1.0508-0.96094 18.105 3.7734 36.051 13.539 51.324 9.7695 15.27 24.074 27.098 40.91 33.816 2.3398 0.98438 4.9805 0.93359 7.2773-0.13281 2.3008-1.0703 4.043-3.0586 4.8008-5.4766 0.16406-0.51172 13.949-47.297-37.5-78.613 16.297-0.96094 31.129-9.7383 39.809-23.566l0.96094-1.5c1.668-2.8984 3.0469-5.9609 4.1094-9.1367l41.91 42c-14.988 190.03-93.035 369.61-221.75 510.21-15.324 16.664-36.941 26.125-59.578 26.086h-123.51v-135c0-4.9688-4.0312-9-9-9s-9 4.0312-9 9v495c0 4.9688 4.0312 9 9 9h162c4.9688 0 9-4.0312 9-9v-261c0-4.6484-1.2109-9.2188-3.5117-13.262 7.7812-4.9453 12.496-13.52 12.512-22.738v-36c0-6.5469-2.3906-12.867-6.7188-17.773 12.168-5.457 23.09-13.344 32.098-23.176 127.47-139.93 206.52-317.17 225.46-505.5l21.797 21.824c1.6875 1.6914 3.9766 2.6406 6.3672 2.6406 2.3867 0 4.6797-0.94922 6.3672-2.6406l21.797-21.824c18.941 188.33 97.992 365.57 225.46 505.5 9.0039 9.832 19.93 17.719 32.098 23.176-4.3359 4.9062-6.7305 11.227-6.7344 17.773v36c0.015625 9.2188 4.7305 17.793 12.512 22.738-2.3008 4.043-3.5117 8.6133-3.5117 13.262v73.5c0 4.9688 4.0312 9 9 9s9-4.0312 9-9v-73.5c0-4.9688 4.0312-9 9-9h135v261h-144v-126c0-4.9688-4.0312-9-9-9s-9 4.0312-9 9v135c0 4.9688 4.0312 9 9 9h162c4.9688 0 9-4.0312 9-9v-612c-0.14844-94.859-36.723-186.04-102.16-254.71zm-644.84-67.996c3.5391 4.4297 5.5039 9.9102 5.5781 15.582 0.078125 5.668-1.7383 11.203-5.1562 15.723-0.92969 1.2578-1.9805 2.418-3.1367 3.4648-0.41016 0.39844-0.83984 0.77344-1.2891 1.125-0.77734 0.60156-1.5898 1.1562-2.4297 1.668 0.51562-1.2539 0.94141-2.543 1.2734-3.8555 2.2109-8.793 0.16797-18.113-5.5195-25.172-0.89844-1.0664-1.8711-2.0703-2.9102-3 1.9023-3.043 1.8164-6.9297-0.22656-9.8828-1.2344-1.7852-2.6016-3.4766-4.0938-5.0547 7.0234 0.51562 13.508 3.957 17.879 9.4766zm-28.664 16.711c0.37891 0.17969 0.75 0.37891 1.1094 0.60156 1.0664 0.66016 2.0117 1.5039 2.7891 2.4883 2.1797 2.7148 2.9531 6.3008 2.0859 9.6758-0.56641 2.3711-1.9141 4.4844-3.8242 6l-0.60156 0.44922c-1.6289 1.1523-3.543 1.832-5.5352 1.9648-3.6641 0.26953-7.2305-1.2852-9.5234-4.1562-0.66797-0.82031-1.2148-1.7344-1.6211-2.7148-0.42578-1.0547-0.6875-2.1641-0.78125-3.2969-0.30469-3.5898 1.1523-7.1016 3.9023-9.4219l0.26953-0.22656c3.3242-2.6641 7.8828-3.1953 11.73-1.3633zm-44.656-5.5352c2.3945-6.0117 6.9688-10.895 12.809-13.676 5.8398-2.7812 12.516-3.2539 18.691-1.3242 0.53906 0.14844 1.0938 0.35938 1.6484 0.58594 0.89062 0.36328 1.7578 0.78125 2.5977 1.2461-5.1094 0.71484-9.9297 2.7852-13.965 6-0.28516 0.22656-0.57031 0.46484-0.85547 0.71875-4.6953 4.0508-7.9766 9.4961-9.3594 15.539-3.5977-0.12891-6.9219 1.8945-8.4609 5.1445-0.89844 1.9141-1.6562 3.8867-2.2656 5.9102-3.0469-6.3203-3.3594-13.617-0.85547-20.176zm-57.676 4.6367c9.9766 1.1172 19.477 4.875 27.516 10.887 8.0391 6.0117 14.328 14.059 18.219 23.312-19.645-3.8984-36.465-16.492-45.734-34.246zm69.496 132.9c-12.98-22.129-14.332-49.203-3.6133-72.512 20.277 35.34 11.293 60.258 3.6133 72.512zm34.727-79.648-1.1992 0.14844h-0.003906c-6.2266 0.70703-12.496-0.90234-17.613-4.5234-5.1172-3.6211-8.7188-9.0039-10.121-15.113-0.14844-0.62891-0.26953-1.2617-0.35937-1.8906v0.003906c-0.12891-0.94531-0.20313-1.8984-0.22656-2.8516l0.089844 0.13672h0.003906c5.5195 6.9141 13.887 10.945 22.738 10.949 0.71875 0 1.5 0 2.1602-0.074219 2.1641-0.17578 4.3047-0.59375 6.375-1.2461 1.5547 2.9453 4.6055 4.7891 7.9336 4.8008h0.75c2.1172-0.17578 4.2188-0.50781 6.2852-0.99219-3.918 5.6992-10.012 9.5352-16.844 10.605zm-0.22656 856.65h-144v-261h135c4.9688 0 9 4.0312 9 9zm0-333c4.9688 0 9 4.0312 9 9v36c0 4.9688-4.0312 9-9 9h-139.5v-54zm607.65-563.36c-0.84375-3.3516-0.066407-6.9062 2.1016-9.5977 1.0625-1.3359 2.418-2.4023 3.9609-3.1211 3.8359-1.8086 8.3672-1.2812 11.684 1.3633l0.25391 0.22656c3.6953 3.1133 4.957 8.2578 3.125 12.73-1.8359 4.4727-6.3438 7.25-11.164 6.875-1.9414-0.12891-3.8125-0.78516-5.4141-1.8906l-0.70312-0.52344-0.003907-0.003906c-1.9258-1.5273-3.2773-3.6641-3.8398-6.0586zm-6.375 30h0.75c3.332-0.007812 6.3828-1.8555 7.9375-4.8008 2.0664 0.65234 4.1992 1.0703 6.3594 1.2461 0.71875 0 1.5 0.074218 2.1758 0.074218 8.8477 0.003907 17.215-4.0195 22.738-10.934l0.10547-0.14844v-0.003906c-0.023438 0.94922-0.097656 1.8984-0.22656 2.8359-0.089843 0.62891-0.22656 1.2734-0.375 1.9219-1.3906 6.0938-4.9766 11.465-10.07 15.09s-11.344 5.2539-17.559 4.5742l-1.0781-0.13672c-6.8984-1.0898-13.047-4.9609-17.012-10.707 2.0586 0.46875 4.1484 0.78125 6.2539 0.94531zm48.797 16.922c10.59 23.301 9.2578 50.285-3.5703 72.434-7.6953-12.285-16.637-37.156 3.5859-72.465zm65.836-60.465c-9.3438 17.719-26.168 30.289-45.812 34.227 3.832-9.3164 10.117-17.422 18.184-23.457 8.0703-6.0352 17.621-9.7734 27.645-10.816zm-57.586-4.6484v-0.003906c2.5078 6.5273 2.2266 13.801-0.78125 20.117-0.60937-2.0234-1.3672-4-2.2656-5.9102-1.5352-3.2539-4.8633-5.2773-8.457-5.1445-1.3789-6.0312-4.6406-11.465-9.3164-15.512-0.26953-0.25391-0.55469-0.48047-0.80859-0.67578-4.0547-3.207-8.8906-5.2812-14.012-6 0.85156-0.46484 1.7266-0.87891 2.625-1.2461 0.53906-0.21094 1.0781-0.42188 1.8008-0.61328 6.1289-1.8672 12.738-1.3711 18.52 1.3984s10.309 7.6094 12.695 13.559zm-61.5-19.379v-0.003907c1.9922-0.66797 4.0547-1.0859 6.1484-1.2461-1.4883 1.5859-2.8594 3.2812-4.0938 5.0703-2.0391 2.957-2.1289 6.8398-0.22656 9.8867-1.0391 0.92969-2.0117 1.9297-2.9102 3-5.6719 7.0352-7.7227 16.324-5.5352 25.094 0.33984 1.3438 0.77734 2.6641 1.3086 3.9453-0.84766-0.51172-1.6641-1.0742-2.4453-1.6797-0.52344-0.41016-1.0234-0.84375-1.5-1.3047-1.1055-1.0156-2.1133-2.1367-3-3.3477-4.918-6.5391-6.3984-15.039-3.9805-22.855 2.418-7.8203 8.4375-14 16.188-16.621zm-63.691 12.48v-0.003907c10.578 23.316 9.2266 50.309-3.6289 72.449-7.6953-12.285-16.637-37.156 3.5859-72.465zm54.797-65.699v-0.003907c-11.988 16.027-30.594 25.762-50.598 26.473 5.3086-8.5117 12.793-15.453 21.68-20.109 8.8867-4.6562 18.852-6.8594 28.871-6.3789zm-139.71 106.86v-0.003906c-2.9688 19.738-14.641 37.105-31.801 47.309 0.61328-9.9961 3.8789-19.652 9.4609-27.969 5.5781-8.3164 13.277-15 22.297-19.355zm-34.426-73.715c0.92969 1.8594 1.9688 3.6562 3.1211 5.3867 2.2695 3.457 6.6484 4.8516 10.5 3.3438 2.2227 6.5938 6.457 12.32 12.109 16.379 5.6523 4.0586 12.434 6.2422 19.391 6.2422 1.9375-0.019531 3.8711-0.20312 5.7734-0.55469-2.1875 2.3555-4.7148 4.3789-7.5 6-0.71875 0.40625-1.5 0.79688-2.2031 1.1562v-0.003906c-7.207 3.4805-15.441 4.1797-23.129 1.9648-7.6875-2.2148-14.289-7.1875-18.543-13.965l-0.70312-1.1406c-2.9023-5.0469-4.3867-10.781-4.3047-16.605 2.0156-2.6055 3.8477-5.3438 5.4883-8.2031zm51.945-15.629c2.5703 1.25 4.7305 3.2031 6.2461 5.625 1.5117 2.4258 2.3086 5.2266 2.3047 8.082v0.42188c-0.14062 4.957-2.6797 9.5391-6.8086 12.285-1.2656 0.85547-2.6523 1.5117-4.1133 1.9492-3.0977 0.88672-6.3984 0.78906-9.4414-0.28906-3.0391-1.0742-5.668-3.0703-7.5234-5.7109-1.5586-2.2539-2.4727-4.8945-2.6367-7.6328v-0.99219c-0.003907-4.0547 1.5938-7.9453 4.4492-10.824 2.8555-2.875 6.7344-4.5078 10.789-4.5352 2.3359-0.003906 4.6406 0.53516 6.7344 1.5742zm20.641 46.5c1.8242-3.7422 0.84375-8.2461-2.3711-10.891 5.0508-5.7539 7.9609-13.078 8.2344-20.73v-1.1836c0.027344-7.8164-2.7148-15.387-7.7383-21.375 3.0781 0.73047 6.0352 1.9062 8.7734 3.4922 0.67578 0.39062 1.3359 0.79688 2.0859 1.3203 7.4766 5.0977 12.496 13.07 13.859 22.016 1.3633 8.9414-1.0508 18.051-6.6719 25.141-5.6172 7.0938-13.934 11.527-22.953 12.246 2.6641-3.0742 4.9375-6.457 6.7812-10.082zm-27.375-86.281c10.66-0.046875 20.652 5.1875 26.684 13.98-3.957-0.69141-7.9883-0.90234-12-0.62891-4.1484 0.29688-7.5508 3.3945-8.2344 7.5-7.7852-1.5703-15.875-0.28516-22.793 3.6172s-12.203 10.16-14.887 17.637c-0.92578-3.0742-1.3984-6.2695-1.3945-9.4805-0.003906-0.83984 0.035156-1.6836 0.12109-2.5195 0.14062-1.9102 0.46094-3.8047 0.95703-5.6562 1.7969-7 5.8711-13.203 11.582-17.633 5.7109-4.4258 12.738-6.8242 19.965-6.8164zm-323.57 5.1133c8.8125-5.5938 19.773-6.6328 29.48-2.793 9.707 3.8398 16.988 12.094 19.586 22.203 0.50781 1.918 0.82812 3.875 0.96094 5.8516 0.070312 0.74609 0.097656 1.5 0.089843 2.25 0 3.207-0.46875 6.3945-1.3945 9.4648-1.1445-3.207-2.7852-6.2109-4.8594-8.9102-3.7461-4.9258-8.8047-8.6953-14.602-10.867-5.793-2.1719-12.086-2.6562-18.145-1.4023-0.68359-4.1016-4.0859-7.2031-8.2344-7.5-4.0117-0.27344-8.043-0.0625-12 0.62891 2.4219-3.5469 5.5195-6.5781 9.1172-8.9258zm9 61.02v0.003906c-4.1016-2.75-6.6172-7.3203-6.75-12.258v-0.44922c-0.003906-2.8633 0.80078-5.6719 2.3203-8.1016 1.5195-2.4258 3.6953-4.375 6.2773-5.6211 2.082-1.0117 4.3711-1.5234 6.6875-1.5 4.7656-0.023437 9.2617 2.1992 12.137 6 2.0625 2.6406 3.1719 5.9023 3.1484 9.2539v1.0195c-0.16797 2.7344-1.0781 5.3672-2.6406 7.6211-1.8633 2.6055-4.4805 4.5781-7.5 5.6523-3.0195 1.0703-6.2969 1.1914-9.3867 0.34766-1.5039-0.4375-2.9297-1.0977-4.2305-1.9648zm-120.31-43.887c10.023-0.48828 20 1.707 28.895 6.3633 8.8945 4.6523 16.383 11.594 21.699 20.109-20.004-0.71484-38.605-10.445-50.594-26.473zm58.379 138.16c-12.98-22.129-14.332-49.203-3.6133-72.512 20.277 35.34 11.293 60.258 3.6133 72.512zm24.238-80.191c-4.0898-7.1523-5.3398-15.586-3.4883-23.617 1.8477-8.0312 6.6562-15.074 13.465-19.715 0.61328-0.43359 1.2891-0.83984 1.9648-1.2305 2.7422-1.5938 5.7031-2.7773 8.7891-3.5117-5.0117 5.9844-7.75 13.551-7.7227 21.359v1.1836 0.003906c0.27734 7.6523 3.1836 14.973 8.2344 20.73-3.1992 2.6445-4.1719 7.1406-2.3555 10.875 1.8203 3.6172 4.0703 7.0039 6.7031 10.078-10.68-0.88281-20.25-6.9414-25.617-16.215zm88.922 96.27c-17.246-10.148-28.969-27.566-31.875-47.367 9.0312 4.3438 16.742 11.02 22.34 19.332 5.5977 8.3164 8.8789 17.973 9.5039 27.977zm3-95.203c-4.2539 6.7891-10.867 11.77-18.57 13.984-7.6992 2.2148-15.949 1.5078-23.16-1.9844-0.73438-0.35938-1.5-0.73438-2.1758-1.1406-2.7812-1.6211-5.3086-3.6406-7.5-6 6.293 1.1797 12.789 0.49219 18.695-1.9805 5.9023-2.4688 10.957-6.6133 14.531-11.926 1.7227-2.5156 3.0859-5.2617 4.0508-8.1562 3.8711 1.5469 8.2969 0.14844 10.574-3.3477 1.1484-1.7266 2.1914-3.5273 3.1211-5.3828 1.6133 2.8633 3.4219 5.6172 5.4141 8.2344 0.089844 5.7344-1.3672 11.387-4.2148 16.363zm107.34 60.391-83.234-83.34c-0.61328-0.61328-1.1562-1.2891-1.7383-1.9336l-0.003906-0.003907c-1.5273-10.297-6.1914-19.875-13.348-27.434-2.625-15.258 1.3828-30.91 11.02-43.027 9.6367-12.121 23.984-19.551 39.441-20.426 15.461-0.87891 30.559 4.8789 41.504 15.828 3.5742 3.3789 9.1602 3.3789 12.734 0 10.941-10.965 26.043-16.734 41.508-15.859 15.465 0.87109 29.82 8.3086 39.457 20.434 9.6367 12.125 13.641 27.789 11 43.051-7.1445 7.5469-11.797 17.109-13.32 27.391-0.60156 0.66016-1.1406 1.3359-1.7852 1.9648zm45.105-19.695 42-42c1.0742 3.2539 2.4766 6.3867 4.1836 9.3594l0.88672 1.5c8.6719 13.801 23.48 22.555 39.75 23.504-51.465 31.32-37.68 78.105-37.5 78.613v0.003906c0.75781 2.418 2.4961 4.4062 4.7969 5.4727 2.2969 1.0703 4.9414 1.1172 7.2773 0.13672 16.836-6.7188 31.145-18.547 40.91-33.816 9.7656-15.273 14.5-33.223 13.539-51.324 3.2812 0.68359 6.625 1.0352 9.9766 1.0508 10.551-0.03125 20.836-3.3281 29.445-9.4336-4.2422 13.312-4.8086 27.523-1.6406 41.129 3.168 13.609 9.9531 26.109 19.641 36.18 1.8906 1.6875 4.4102 2.4961 6.9297 2.2305 2.5234-0.26562 4.8125-1.582 6.3125-3.625 20.84-26.652 26.293-62.234 14.387-93.902 3.3164 1.6953 6.6602 3.4648 10.109 5.2812-2.0273 11.758 0.89453 23.828 8.0703 33.359 0.71875 0.96094 1.5 1.8594 2.2188 2.7305 0.26953 10.273 4.1406 20.129 10.945 27.836 6.8008 7.7031 16.094 12.773 26.258 14.316l1.4102 0.17969c1.6523 0.1875 3.3125 0.28125 4.9766 0.28516 3.2539-0.011719 6.4961-0.39062 9.6602-1.125-5.8789 14.07-7.5234 29.559-4.7227 44.551 2.7969 14.996 9.9141 28.848 20.473 39.852 1.8945 1.6875 4.4102 2.5 6.9336 2.2344 2.5195-0.26563 4.8125-1.5859 6.3125-3.6289 15.734-20.23 22.848-45.848 19.801-71.293 52.582 63.113 81.43 142.63 81.555 224.77v252h-123.51c-22.633 0.035156-44.242-9.4258-59.562-26.086-128.77-140.63-206.84-320.26-221.82-510.34zm269.89 608.43h-9c-4.9688 0-9-4.0312-9-9v-36c0-4.9688 4.0312-9 9-9h139.5v54z"/>
 <path d="m906 969c0 4.9688-4.0312 9-9 9s-9-4.0312-9-9 4.0312-9 9-9 9 4.0312 9 9"/>
 <path d="m221.91 722.76c-4.2773 2.5273-5.6953 8.0508-3.1641 12.328s8.0508 5.6953 12.328 3.1641c44.695-25.637 82.891-61.215 111.63-103.98 28.742-42.762 47.258-91.566 54.117-142.63 7.3906-48.457 6-97.852-4.1094-145.82-1.2734-4.7422-6.1133-7.5898-10.875-6.3984-4.7656 1.1914-7.6953 5.9805-6.5859 10.766 9.4336 45.918 10.676 93.145 3.6758 139.5-6.2617 48.375-23.715 94.629-50.969 135.09-27.258 40.457-63.566 74.008-106.05 97.984z"/>
 <path d="m177 883.5c-4.9688 0-9 4.0312-9 9v58.5c0 4.9688 4.0312 9 9 9s9-4.0312 9-9v-58.5c0-2.3867-0.94922-4.6758-2.6367-6.3633s-3.9766-2.6367-6.3633-2.6367z"/>
 <path d="m212.22 884.34c-2.0195-4.5547-7.3516-6.6094-11.91-4.5898-4.5547 2.0195-6.6094 7.3555-4.5898 11.91l36 81c2.0195 4.5547 7.3477 6.6133 11.902 4.5977 4.5586-2.0156 6.6172-7.3477 4.5977-11.902z"/>
 <path d="m189.38 700.98c-1.9375 1.4648-3.1992 3.6523-3.5 6.0586-0.30078 2.4102 0.38281 4.8398 1.8984 6.7383 1.5156 1.8984 3.7344 3.1016 6.1523 3.3359 2.418 0.23828 4.8281-0.51172 6.6836-2.0781 48.422-38.73 39.691-108.75 39.301-111.72-0.24609-2.4219-1.4648-4.6406-3.375-6.1484-1.9102-1.5078-4.3516-2.1797-6.7656-1.8594-2.4102 0.32031-4.5898 1.6055-6.043 3.5586-1.4492 1.957-2.0469 4.4141-1.6523 6.8164 0.089843 0.63281 7.8594 62.836-32.699 95.297z"/>
 <path d="m973.5 739.5c4.0625 0.011719 7.6289-2.7031 8.7031-6.6211 1.0742-3.918-0.61328-8.0703-4.1133-10.133-42.492-23.98-78.809-57.535-106.07-98-27.258-40.465-44.711-86.73-50.969-135.12-7-46.352-5.7578-93.578 3.6758-139.5 1.1094-4.7812-1.8203-9.5703-6.5859-10.762-4.7617-1.1914-9.6016 1.6562-10.875 6.3984-10.109 47.965-11.5 97.355-4.1094 145.81 6.8594 51.07 25.375 99.871 54.117 142.64 28.742 42.766 66.938 78.344 111.63 103.98 1.3828 0.83984 2.9688 1.2891 4.5898 1.3047z"/>
 <path d="m1032 951v-58.5c0-4.9688-4.0312-9-9-9s-9 4.0312-9 9v58.5c0 4.9688 4.0312 9 9 9s9-4.0312 9-9z"/>
 <path d="m960 978c3.5547 0 6.7734-2.0938 8.2188-5.3398l36-81c2.0234-4.5547-0.03125-9.8906-4.5898-11.91-4.5547-2.0195-9.8867 0.035156-11.91 4.5898l-36 81c-1.2422 2.793-0.98438 6.0273 0.69141 8.5859 1.6719 2.5586 4.5312 4.0938 7.5898 4.0742z"/>
 <path d="m999.38 715.02c1.8555 1.5664 4.2656 2.3164 6.6836 2.082 2.418-0.23828 4.6367-1.4414 6.1523-3.3398 1.5156-1.8984 2.2031-4.3242 1.8984-6.7344-0.30078-2.4102-1.5625-4.5977-3.5-6.0625-40.262-32.219-32.82-94.305-32.699-95.297v0.003906c0.49609-4.8398-2.9453-9.1992-7.7695-9.8398-4.8203-0.64062-9.2812 2.668-10.066 7.4688-0.39062 2.9688-9.0742 72.988 39.301 111.72z"/>
</svg>
