<?xml version="1.0" encoding="UTF-8"?>
<svg width="1200pt" height="1200pt" version="1.1" viewBox="0 0 1200 1200" xmlns="http://www.w3.org/2000/svg">
 <path d="m298.12 818.07c-9.2656-1.6484-18.625-2.7031-28.023-3.1562-35.258 0-70.648 0-105.25 1.5781-27.062 0.83594-54.148-0.30859-81.047-3.418-11.316-0.92187-22.367-3.1562-33.551-4.2109h0.003906c-4.8477-0.30469-9.5039-2.0078-13.402-4.9062-3.8984-2.8945-6.875-6.8555-8.5703-11.41-4.5625-9.7734-7.0273-20.395-7.2344-31.18 0-56.309 2.7617-112.62 5.6562-168.8 2.543-49.031 4.957-98.102 7.2344-147.22 2.3672-48.547 4.6055-97.227 7.2344-145.64l0.003907-0.003906c1.1953-7.5312-1.1328-15.191-6.3164-20.785-5.5664-5.5117-8.6992-13.02-8.6992-20.855 0-7.832 3.1328-15.34 8.6992-20.852 18.289-19.473 34.34-40.652 51.703-60.652h0.003906c21.785-25.781 46.562-48.883 73.809-68.809 22-14.562 45.734-26.316 70.648-34.996 28.227-10.82 58.758-14.219 88.676-9.8672 42.363 5.2617 83.676 14.605 125.38 22.629h-0.003907c42.281 8.332 85.75 8.6445 128.14 0.92188 25.055-5.0781 49.785-11.625 74.07-19.602 14.207-4.4727 26.973-12.105 40.918-17.367 43.328-18.477 88.363-32.664 134.46-42.363 53.215-9.6211 107.74-9.4844 160.91 0.39453 39.188 6.5508 75.145 25.777 102.36 54.73 11.887 11.926 19.355 27.551 21.172 44.293 1.8203 16.738-2.1211 33.602-11.172 47.801-18.105 32.34-45.27 58.68-78.152 75.781-12.711 6.6172-26.316 11.355-40.387 14.078-28.867 6.8984-58.355 10.863-88.02 11.84-30.785 0-61.309 3.1562-92.094 4.3398v0.003907c-12.848 0.83203-25.281 4.8555-36.18 11.707-3.1641 1.6758-5.7695 4.2383-7.5 7.3672-1.7109 3.1562-2.8945 7.3672-5.6562 9.0781-13.156 8.6836-10.395 21.578-9.3398 34.074l-0.003907 0.003906c5.5234 63.691 7.1055 127.67 4.7383 191.55-1.5781 41.441-0.78906 83.016-3.6836 124.33 0 7.7617-0.65625 15.395-0.92188 23.023 0 10.918 0 11.445 10.918 10.523 19.867-1.7109 39.469-4.6055 59.598-6.0508l0.003906 0.003907c34.555-4.2578 69.574-2.8359 103.67 4.2109 8.5508 2.1055 8.5508 8.5508 8.5508 14.078 0 11.711-1.5781 23.418-2.6328 35.258h0.003906c-0.23438 2.0352-0.58594 4.0547-1.0547 6.0508-2.3672 15.918-1.9727 15 13.156 21.84 46.836 21.578 96.438 37.363 140.64 64.465h0.003906c23.895 13.02 46.004 29.074 65.781 47.762 10.809 10.137 22.281 19.539 34.34 28.152 3.8164 2.6094 6.6211 6.4531 7.9375 10.887 1.3203 4.4297 1.0703 9.1836-0.70312 13.453-2.4766 9.6016-6.9609 18.57-13.156 26.312-13.246 15.27-25.461 31.398-36.574 48.285-24.195 35.66-50.559 69.797-78.938 102.23-15.789 19.484-30.504 39.82-44.074 60.914-7.8125 12.465-17.086 23.949-27.629 34.207-4.1016 4.2461-9.4453 7.082-15.262 8.0977-5.8164 1.0156-11.805 0.16406-17.105-2.4414-42.457-16.957-86.543-29.523-131.56-37.496-26.312-5.5273-53.809-11.84-80.914-17.5-9.0781-1.9727-16.578-4.4727-17.234-15.789 0-7.2344-6.0508-7.3672-11.445-6.0508-12.117 2.1523-24.105 4.9648-35.918 8.4219-13.156 4.4727-25.391 7.8945-38.152 11.316s-17.367 0-23.551-11.051c-3.5508-6.7109-3.6836-16.707-11.445-19.078-7.7617-2.3672-14.078 4.8672-21.051 7.8945-45.781 21.609-88.695 48.832-127.75 81.043-3.6992 3.5781-8.2148 6.1953-13.156 7.6289-4.9844 1.7266-10.496-0.3125-13.156-4.8672-12.938-16.969-27.145-32.934-42.496-47.758-24.793-27.137-51.91-52.055-81.043-74.465-41.734-34.398-80.629-72.105-116.3-112.75-5.7031-8.4531-10.383-17.551-13.945-27.105-2.5-4.6055 1.5781-7.6289 4.4727-10.395 11.973-11.051 23.418-22.891 36.047-33.023l0.003906 0.003906c27.168-22.492 55.539-43.484 84.988-62.887 2.9219-1.6211 4.9531-4.4727 5.5273-7.7656zm437.85-332.46c-1.0508-38.418-1.5781-68.676-2.6328-98.805-1.0508-30.129-2.2383-59.336-5.6562-88.805-3.1562-26.312-16.184-33.945-41.707-34.863-25.523-0.92187-50.914 2.5-76.57 3.2891-34.207 0.92188-68.547 3.2891-102.75 3.4219-30.129 0-60.387-0.92188-90.387-2.8945-38.418-2.6328-76.832 1.9727-114.99-2.2383v-0.003907c-9.7227-0.65625-19.48-0.65625-29.207 0-39.469 0.92188-79.727 3.1562-119.59 2.5h0.003906c-21.32 1.668-42.727 1.8867-64.074 0.66016-31.312-4.6055-37.363 1.7109-39.469 33.551-2.1055 31.84-2.5 61.441-3.9453 92.094-1.1836 24.473-1.3164 49.207-4.0781 73.543-4.6055 42.23-4.6055 85.516-6.8438 128.14-1.9727 45.918-3.5508 92.094-4.4727 138.01-1.8984 15.293-0.73437 30.812 3.4219 45.652 3.5508 9.3398 6.9727 19.34 19.078 21.445h-0.003906c34.773 5.7969 70.008 8.3945 105.25 7.7617 41.441 0 82.754-3.2891 124.2 0 17.273 1.668 34.613-2.4023 49.34-11.578 28.68-17.629 58.809-33.285 88.805-48.68s62.492-30.391 93.805-45.391c8.3633-5.1562 17.168-9.5625 26.312-13.156 5.8633-2.8789 12.684-3.0859 18.711-0.5625 6.0273 2.5195 10.668 7.5234 12.734 13.719 1.3164 2.2383 2.7617 4.3398 3.9453 6.5781 0.6875 1.6875 2.125 2.9531 3.8828 3.418 1.7578 0.46484 3.6367 0.078125 5.0625-1.0469 8.0273-4.8672 17.5-5.9219 25.656-9.8672 31.207-14.438 63.898-25.422 97.488-32.762 18.289-4.2109 20.262-6.1836 22.102-25.656 5.1328-55.125 2.6328-110.51 6.582-157.48zm107.75-259.97c17.555 1.4023 35.211 0.78516 52.625-1.8398 26.648-4.4414 53.008-10.461 78.941-18.027 30.102-7.4609 56.441-25.66 74.07-51.176 10.609-16.535 14.816-36.367 11.84-55.785-0.43359-3.582-1.8945-6.9648-4.2109-9.7344-22.234-25.129-47.098-46.312-83.016-49.602-14.695-1.9688-29.512-2.8906-44.336-2.7617-41.938 2.1602-83.594 8.1055-124.46 17.762-38.793 9.2617-76.531 22.488-112.62 39.469-12.832 5.3008-26.02 9.6953-39.469 13.156-24.973 7.5898-50.613 12.789-76.57 15.523-49.008 3.2305-98.227 0.84375-146.7-7.1055-28.418-3.6836-56.309-10.129-84.465-15.523-29.215-6.1016-59.535-4.1953-87.754 5.5273-42.152 15.938-81.168 39.188-115.25 68.676-17.148 13.75-32.879 29.176-46.969 46.047-7.5 9.3398-11.84 18.289-2.1055 29.207 4.8984 5.5039 12.152 8.2969 19.473 7.5 7.2344-1.7109 5-7.7617 5.3945-13.156 0.39453-5.3945 0-6.1836 0-9.2109 0.78906-16.445 7.2344-23.418 23.418-22.891 30.656 0.92188 61.309 2.7617 92.094 4.2109h0.003906c6.1133 0.47656 12.156 1.625 18.023 3.418 5.6836 1.1016 9.707 6.1914 9.4727 11.973 0.65625 7.5-3.8164 16.84 2.3672 21.973 6.1836 5.1328 14.867 0.92188 22.496 1.4453 30.602 3.0039 61.379 3.8398 92.098 2.5 8.7617-0.60156 17.551-0.60156 26.312 0 47.496 3.0273 94.988 4.3398 142.48 2.7617 47.496-1.5781 93.148-3.6836 139.59-5.6562 17.27-0.48047 34.289-4.2773 50.125-11.18 33.871-14.016 70.523-20.004 107.09-17.5zm-665.45 708.48c0.51953 7.668 4.0703 14.816 9.8672 19.863 20.723 24.184 42.68 47.281 65.781 69.203 7.2344 6.4453 14.734 13.156 22.102 18.812 18.684 15.918 37.891 31.18 56.047 47.625 13.156 11.973 27.762 22.762 39.469 35.918 17.543 20.262 35.828 40.172 54.863 59.73 4.8672 5.2617 8.5508 5.9219 14.207 1.5781 21.184-16.051 43.547-30.523 65.781-44.996 29.996-19.473 59.73-39.469 89.465-58.941 20.129-13.156 39.469-27.102 60.125-39.469 11.445-6.9727 13.156-12.234 8.4219-24.34l0.003906 0.003906c-13.848-38.465-25.488-77.691-34.867-117.48-10.188-44.391-25.188-87.535-44.73-128.67-4.3789-8.707-7.7344-17.887-10-27.367-2.5742-10.176-6.6992-19.891-12.234-28.812-8.8164-15.129-15-17.234-31.051-10.129-43.812 19.602-86.438 41.707-129.07 63.809-26.312 13.156-51.047 28.023-75.781 43.418h0.003906c-31.16 19.406-61.246 40.484-90.121 63.148-18.418 14.605-35.652 30.523-53.68 45.652-3.8438 2.4219-5.7031 7.0391-4.6055 11.449zm684.14-171.04v-33.812c0-11.316-3.2891-13.156-14.605-10.656-4.2812 1.2773-8.6953 2.0742-13.156 2.3672-43.812 0-85.781 13.156-128.54 20.656-31.312 5.1328-59.73 20.656-89.199 32.102-13.156 5-13.156 5.6562-7.6289 19.34 15.395 40.652 26.312 82.754 37.891 124.72 6.1836 22.629 13.156 44.996 20.789 67.492 2.8945 9.0781 4.3398 13.156 16.578 6.8398l-0.003906 0.003906c12.582-5.5195 25.863-9.2812 39.469-11.184 41.828-6.7773 83.18-16.223 123.8-28.285 17.102-5.5273 20.523-9.3398 21.051-27.234 0.52734-17.895 0-39.469 0.78906-58.281v-0.003906c0.73047-12.301 0.19922-24.645-1.5781-36.836-4.293-22.145-6.2344-44.68-5.7891-67.23zm-22.234-89.332c-10.289-0.84766-20.629-0.84766-30.918 0-29.34 3.9453-58.809 6.4453-88.148 10.129-33.402 4.8281-66.238 12.98-98.016 24.34-10.453 4.1602-20.648 8.9492-30.523 14.34-3.9453 1.8438-7.5 3.9453-5.9219 9.2109 2.1172 10.488 5.7969 20.602 10.922 29.996 0.94922 2.5234 3.0312 4.4531 5.6211 5.2031s5.3828 0.23828 7.5352-1.3867c16.973-8.1562 35.652-12.234 52.625-20.129 12.055-5.6758 24.664-10.086 37.629-13.156 25.391-5.6562 51.703-6.7109 76.832-14.078 16.41-4.0508 33.227-6.2148 50.125-6.4453 6.0742-0.125 12.133-0.56641 18.156-1.3164 17.234-3.2891 21.707 0 23.285 18.418h0.003906c0.12891 2.0586 0.12891 4.125 0 6.1836-1.8008 31.703 0.23047 63.508 6.0508 94.727 5.3945 24.34 0.78906 48.941 0.92187 73.543v29.074 0.003907c0.19922 4.9023-1.1562 9.7461-3.875 13.832-2.7188 4.0898-6.6562 7.2109-11.254 8.9297-8.9219 3.8555-18.059 7.1953-27.367 9.9961-28.551 8.4219-58.02 12.105-86.965 18.418v0.003906c-19.605 3.5234-38.914 8.5352-57.754 14.996-12.234 4.7344-13.156 6.1836-9.8672 18.023 4.2109 16.445 2.6328 23.418-11.711 32.234-17.5 10.656-31.707 26.312-48.941 36.574-14.078 8.9453-14.078 11.316-6.4453 26.312h-0.003906c1.0039 1.7695 2.1016 3.4844 3.2891 5.1328 6.1836 9.6055 8.0273 10.918 18.812 7.5 37.629-11.973 76.57-18.551 114.86-27.496l0.003906-0.003907c36.02-9.9062 72.887-16.422 110.12-19.469 11.211-0.55078 22.375-1.8242 33.418-3.8164 11.578-2.1055 13.156-5.1328 13.156-16.707-0.58984-8.1484-0.58984-16.328 0-24.473 3.6836-51.113 3.6836-102.42 0-153.54-0.78906-20.391 0-40.918-1.7109-61.176l0.003906-0.003906c-1.1914-25.578 0-51.211 3.5508-76.57 1.7109-15.656 3.8164-31.445 5.2617-47.23 1.0508-13.156 0-13.156-11.973-16.051-19.785-5.4141-40.453-6.8008-60.781-4.0781zm81.309 350.09h-0.003907c0.4375 8.7656 0.4375 17.547 0 26.312-1.1836 13.156 2.1055 22.891 16.184 26.312 3.2266 1.5078 6.1992 3.5039 8.8164 5.9219 11.441 8.1484 23.918 14.738 37.102 19.602 5.5547 2.7891 12.305 1.3047 16.18-3.5508 16.707-18.684 32.234-38.285 47.363-58.152 22.996-31.336 42.91-64.824 59.469-99.988 4.4922-6.1484 6.2383-13.883 4.8164-21.363-1.4219-7.4805-5.8789-14.039-12.316-18.105-24.594-19.992-51.027-37.613-78.938-52.629-8.2695-3.9219-16.309-8.3164-24.078-13.156-21.086-12.465-43.504-22.527-66.836-29.996-10.395-3.8164-10.395-3.1562-11.445 8.0273-0.78906 18.906-0.39062 37.844 1.1836 56.703 0 21.973 0.92188 43.941 0 65.781-0.12891 28.023 3.9492 56.047 2.5 88.281zm198.14-101.04h-0.003907c-0.21875 6.2539-1.7461 12.395-4.4727 18.023-27.969 59.902-64.73 115.29-109.07 164.32-2.5898 4.3945-6.8555 7.5508-11.816 8.7422-4.9609 1.1914-10.195 0.31641-14.496-2.4258-13.238-5.4492-25.816-12.375-37.496-20.656-4.4414-3.4922-9.3008-6.4102-14.473-8.6836-2.582-1.6289-5.6016-2.4375-8.6523-2.3203-3.0547 0.11719-6 1.1562-8.4492 2.9805-5.5742 3.7578-12.238 5.5625-18.945 5.1289-35.352 1.1484-70.551 5.1523-105.25 11.973-18.078 3.1953-35.922 7.5898-53.414 13.156-3.5508 0.92188-7.2344 2.3672-6.9727 6.8398s3.2891 6.1836 6.9727 7.1055c17.5 4.0781 34.734 8.6836 52.625 12.234v0.003906c46.227 7.8633 91.855 18.895 136.56 33.02 10.656 3.6836 21.312 7.2344 31.84 11.184 3.2578 1.6094 6.9805 2 10.504 1.1094 3.5195-0.89453 6.6055-3.0117 8.7031-5.9766 6.8398-8.8164 15-16.578 21.312-26.312 15.266-20.789 28.422-43.285 45.391-63.414 26.312-32.234 53.547-64.598 77.227-99.332h0.003906c12.363-20.023 26.125-39.145 41.18-57.23 3.4219-4.4844 6.25-9.3945 8.4219-14.602 6.7109-13.945 5.7891-18.156-6.3164-27.496v-0.003907c-8.0156-5.4414-15.625-11.469-22.762-18.023-28.453-27.285-60.992-49.969-96.438-67.23-30.652-15.523-63.676-27.629-95.516-41.836-27.367-11.84-28.023-11.578-27.367 19.34h0.003906c0.13281 1.5312 0.13281 3.0742 0 4.6055 0 5 2.5 6.9727 7.2344 8.0273v-0.003906c19.336 5.0273 37.984 12.406 55.52 21.973 44.285 21.168 86.074 47.203 124.59 77.625 8.293 7.0742 13.293 17.262 13.812 28.152zm-1059.2-700.32c21.84 8.8164 17.234 9.2109 28.551-6.1836 7.8359-11.383 16.879-21.879 26.973-31.312 33.789-29.859 71.289-55.238 111.57-75.52 36.438-18.777 77.957-25.328 118.41-18.68 41.312 6.7109 82.359 14.867 124.07 20.656v-0.003906c79.703 11.301 160.98 0.51562 234.97-31.18 45.293-20.43 93.059-34.848 142.09-42.891 40.141-7.9102 81.145-10.52 121.96-7.7617 38.047 4.4219 72.758 23.836 96.438 53.941 3.3359 3.9219 5.4844 8.7148 6.1836 13.816 3.3594 20.98-1.3398 42.461-13.156 60.125-20.25 29.508-51.047 50.133-86.043 57.625-5 1.0508-10 1.9727-14.867 3.4219v-0.003906c-36.348 10.836-74.18 15.855-112.09 14.867-31.277-1.9688-62.621 2.5117-92.094 13.156-8.2891 3.2891-8.4219 5.2617-3.5508 12.105h-0.003906c1.2266 2.293 3.4102 3.9141 5.957 4.4219 2.5469 0.51172 5.1914-0.14453 7.1992-1.7891 14.43-6.6367 30.172-9.918 46.051-9.6055 40.785-3.1562 81.965 0 122.49-6.9727h-0.003907c22.867-2.5312 45.402-7.4688 67.23-14.734 39.512-15.457 71.992-44.848 91.305-82.625 6.4375-10.859 9.4219-23.422 8.5508-36.016-0.87109-12.598-5.5508-24.629-13.418-34.504-23.945-33.414-59.203-49.598-97.359-59.859-33.836-8.3633-68.812-11.121-103.54-8.1562-19.988-0.007812-39.953 1.4414-59.73 4.3398-46.035 10.094-90.883 25-133.8 44.469-31.137 14.367-63.676 25.48-97.098 33.156-34.898 8.125-70.82 10.965-106.57 8.418-16.355-0.6875-32.652-2.3594-48.809-5-40.766-9.8984-82.055-17.5-123.67-22.758-27.879-4.3867-56.426-1.1602-82.621 9.3398-9.7344 4.4727-19.734 8.5508-29.863 12.234h-0.003907c-23.75 9.6445-45.484 23.66-64.07 41.312-19.691 17.91-38.066 37.215-54.996 57.758-8.918 9.0273-16.535 19.258-22.629 30.391zm675.71 64.465c3.2422-2.4922 5.5312-6.0156 6.4883-9.9883 0.95703-3.9766 0.52344-8.1562-1.2227-11.852-3.0352-5.5273-9.3984-8.332-15.527-6.8398-5 0-6.8398 3.6836-3.0273 6.7109 6.7109 5.3906 7.8984 13.812 13.289 21.969zm-557.96-63.281c-3.0273-3.2891-6.3164-1.7109-9.2109 0-9.8672 7.1055-19.734 14.207-29.207 21.84-2.8945 2.3672-7.5 4.8672-6.7109 10.395h3.8164c12.234-10.789 26.312-18.812 39.469-28.418 0.92578-0.52734 2.3711-1.3164 1.8438-3.8164zm-134.2 44.73c5.2617-1.5781 7.1055-6.7109 10.395-10.262 3.2891-3.5508 3.0273-7.3672-1.9727-9.6055-5-2.2383-6.9727-5.5273-10.789-3.1562-3.8164 2.3672-3.6836 7.7617-2.8945 12.367 0.078124 4.1602 2.0078 8.0664 5.2617 10.656zm173.8-42.102c-16.48 7.9961-31.582 18.566-44.73 31.312 16.582-7.8164 31.707-18.406 44.73-31.312zm-64.203 29.996c17.367-5.9219 28.551-20.262 43.023-30.262v0.003906c-16.035 7.4336-30.605 17.684-43.023 30.262zm96.438-12.5c-13.156 5.9219-13.156 5.9219-17.5 13.156 9.2109 0.003906 12.5-7.7578 17.5-13.152zm-100.78-19.34v0.003907c-7.9414 3.1875-14.477 9.1172-18.422 16.707 7.6875-3.5781 14.109-9.4062 18.422-16.707zm46.18 31.574v0.003907c8.1641-2.1914 15.121-7.5391 19.34-14.867-7.6992 3.0742-14.391 8.2227-19.34 14.867zm-129.59-4.4727-0.003906 0.003906c5.1172 2.832 11.332 2.832 16.445 0-6.4453-5.1289-11.578-1.5781-16.445 0zm158.66-14.73c6.1836-3.4219 10.395-3.9453 11.578-8.8164-5.2617 0.13281-7.5 3.2891-11.578 8.8164z"/>
 <path d="m312.6 715.58c-30.277 2.375-60.641-3.2969-88.016-16.445-23.348-10.965-44.039-26.863-60.645-46.602-16.602-19.738-28.727-42.848-35.531-67.727-7.4531-20.891-8.4141-43.547-2.7617-64.992 5.8672-26.914 17-52.402 32.758-74.992 9.7031-12.965 20.207-25.312 31.445-36.969 21.871-19.344 46.875-34.828 73.938-45.785 6.8164-2.2344 13.891-3.5625 21.051-3.9492 36.16-6.7891 73.539-1.8555 106.7 14.078 31.207 14.383 58.336 36.312 78.941 63.809 7.293 13.48 12.648 27.918 15.918 42.891 10.73 30.621 11.652 63.824 2.6289 94.988-20.129 76.438-70.648 120.64-144.72 140.51h0.003907c-2.4961 0.66016-5.0547 1.0586-7.6328 1.1836zm-10.395-11.184c42.859 0.77734 84.531-14.09 117.22-41.816 32.691-27.727 54.16-66.414 60.391-108.82 4.0586-34.395-2.7227-69.199-19.398-99.555-16.676-30.352-42.414-54.746-73.617-69.77-34.199-15.008-72.297-18.707-108.74-10.559-36.445 8.1484-69.34 27.719-93.891 55.863-24.551 28.141-39.477 63.387-42.605 100.6-3.793 32.809 3.6758 65.934 21.184 93.938 14.512 24.172 34.969 44.227 59.426 58.254 24.461 14.023 52.102 21.555 80.297 21.867z"/>
 <path d="m473.11 330.62c-0.78906-11.051-1.3164-19.734-1.9727-28.418s2.1055-10.789 9.3398-10.789c5.082-0.39062 10.184-0.39062 15.262 0 39.379 3.7852 79.031 3.7852 118.41 0 14.207-1.9727 28.941-1.9727 43.809-2.7617 10.262 0 13.156 3.0273 14.867 13.156 0.33203 3.0156 0.33203 6.0625 0 9.0781-2.1484 16.266-2.8516 32.688-2.1055 49.074 0.36719 4.3789 0.36719 8.7773 0 13.156 0.5 4.2539-1.1055 8.4844-4.3008 11.336-3.1953 2.8555-7.5781 3.9766-11.75 3.0039l-128.28 9.0781c-11.711 0.78906-23.418 1.7109-35.129 1.9727-11.711 0.26172-15.262-2.6328-15.789-15.262h0.003906c-2.1797-17.449-2.9727-35.047-2.3672-52.625zm96.305 16.312v0.003906c-6.4844 0.58984-12.977-1.0352-18.418-4.6055-2.9141-2.1445-6.5859-2.9922-10.145-2.3438-3.5586 0.64844-6.6953 2.7305-8.668 5.7617l-5.2617 5.5273c-5.1328 5-5.7891 9.0781 1.1836 13.156 6.3672 3.168 11.605 8.2227 14.996 14.473-5.8477-0.98047-11.441-3.1289-16.445-6.3164-3.4219-3.8516-8.4297-5.9102-13.574-5.5742-5.1406 0.33203-9.8438 3.0234-12.738 7.2852 4.4727-17.762 0-18.418-17.895-21.84-0.46875 10.234-0.074218 20.488 1.1875 30.656 0 6.4453 3.2891 8.9453 9.8672 8.6836 17.234-0.92188 34.734 0 52.625-2.3672 34.996-3.8164 70.387-4.2109 105.25-9.4727 7.3672-1.0508 11.711-2.6328 11.184-10.656-1.0508-19.996 0-39.469 1.1836-59.863 0-11.184-0.92188-11.973-13.156-11.578-20.391 0.65625-40.785 1.8438-61.176 2.7617-31.629 2.1055-63.363 2.1055-94.992 0-13.156-1.0508-14.078 0.78906-14.605 13.156h0.003906c-0.47266 1.9883-0.47266 4.0625 0 6.0508 3.4219 6.1836-3.4219 17.102 4.6055 18.945s10.129-10 16.184-14.473c6.0508-4.4727-2.3672-9.2109 0-13.812 11.973 0 11.973 0 19.078 8.0273h-0.003906c3.3516 4.5234 8.6445 7.1914 14.273 7.1914s10.926-2.668 14.277-7.1914c2.8945-2.7617 5.7891-5.7891 8.8164-8.4219h-0.003906c1.3477-1.7031 3.8164-1.9961 5.5273-0.65625 1.9727 1.7109 0.78906 3.6836 0 5.2617-5.1992 4.5273-9.6406 9.8555-13.156 15.785 5.2617 7.8945 14.34 8.1602 19.996 16.449zm-37.891-11.316c-17.629-13.156-17.895-13.156-30.129 0-8.4219 8.8164-8.0273 10.523 2.6328 16.184v0.003907c2.4453 1.875 5.5703 2.6289 8.6016 2.0781 3.0312-0.55078 5.6914-2.3555 7.3164-4.9727 3.1602-4.4727 7.2383-8.4219 11.578-13.289z"/>
 <path d="m615.2 964.63c1.0742 4.9297-0.76562 10.039-4.7344 13.156-7.2109 7.3242-15.297 13.73-24.078 19.074-35.082 22.367-70.477 44.645-106.17 66.836-17.367 10.789-37.102 17.234-54.336 28.551-4.2109 2.7617-8.6836 5.1328-13.156 7.8945-15.262 9.4727-17.234 8.0273-32.363-2.5h-0.003907c-24.219-18.922-46.277-40.453-65.781-64.207-12.762-14.582-26.617-28.172-41.441-40.652-15.527-12.641-28.863-27.754-39.469-44.73-6.1836-9.3398-6.0508-10.789 2.7617-17.629 40.68-32.254 83.445-61.785 128.01-88.414 49.73-29.602 102.75-52.625 152.75-81.832 5.5781-4.0234 12.812-4.9453 19.219-2.4453 6.4102 2.4961 11.109 8.0742 12.488 14.812 4.3125 12.887 10.234 25.176 17.629 36.574 13.398 25.324 22.934 52.508 28.289 80.648 2.2305 12.613 5.8945 24.926 10.918 36.707 4.4141 12.375 7.5898 25.152 9.4727 38.156zm-10.129-0.92187c-0.14062-10.723-2.375-21.316-6.5781-31.18-5.6875-15.309-10.09-31.062-13.156-47.102-5.1914-26.098-14.328-51.254-27.105-74.598-6.6836-9.6445-11.875-20.246-15.391-31.445-3.4219-14.34-11.578-17.5-25.262-10.656-7.7617 3.8164-15 8.6836-22.629 13.156-29.34 15.656-58.941 30.523-88.41 45.785-52.832 29.062-103.61 61.727-151.96 97.754-3.2891 2.3672-6.0508 5.5273-9.4727 7.6289-6.4453 4.2109-5.9219 8.6836-1.8438 14.207v0.003906c8.6211 12.461 18.641 23.895 29.867 34.074 8.5508 7.2344 18.023 13.156 26.312 21.445 13.156 14.207 26.312 29.207 39.469 44.074 14.352 16.676 30.699 31.523 48.68 44.207 3.0234 2.707 6.8945 4.2812 10.953 4.4492 4.0547 0.16797 8.043-1.082 11.281-3.5312 14.035-9.3203 28.773-17.547 44.074-24.602 10.184-4.3906 20.109-9.3555 29.734-14.867 32.496-21.184 65.781-41.969 97.883-63.02 6.4453-4.2109 12.234-9.2109 18.289-13.945h-0.003907c3.6992-2.7266 5.5352-7.3164 4.7383-11.84z"/>
 <path d="m164.06 542.96c0.15234-36.68 13.836-72.012 38.43-99.23 24.594-27.215 58.367-44.395 94.844-48.25 39.621-4.9414 79.531 6.6172 110.38 31.969 26.641 22.246 43.539 54.02 47.102 88.543 4.2383 37.461-6 75.129-28.625 105.29s-55.922 50.527-93.074 56.934c-16.605 2.7617-33.508 3.293-50.258 1.5781-32.988-4.6094-63.195-21.004-85.035-46.156-21.84-25.152-33.832-57.359-33.766-90.672zm284.7 9.6055c-0.78906-68.152-22.496-108.02-65.781-132.88-22.348-13.566-48.184-20.273-74.309-19.289-26.121 0.98047-51.383 9.6094-72.648 24.812-76.703 51.574-84.203 152.22-25.391 210.5 29.688 30.809 72.363 45.492 114.72 39.469 75.121-10.918 124.59-79.07 123.41-122.62z"/>
 <path d="m556.12 370.75 41.047-45.125c6.1836-6.7109 13.156-13.156 19.078-19.867 1.3008-1.7109 3.6836-2.168 5.5234-1.0547 0.88281 0.61719 1.4062 1.6211 1.4062 2.6992 0 1.0742-0.52344 2.0781-1.4062 2.6953-19.734 20.523-39.469 41.18-59.469 61.57-0.92188 0.92188-2.6328 0.92188-4.0781 1.3164z"/>
 <path d="m310.36 450.74c23.57-0.21094 46.238 9.0664 62.895 25.746 16.652 16.68 25.898 39.359 25.648 62.93-0.41406 24.961-10.773 48.727-28.781 66.016-18.008 17.293-42.172 26.68-67.129 26.078-23.449 1.043-46.27-7.7539-62.957-24.266-16.684-16.508-25.719-39.234-24.926-62.695-0.039063-25.145 10.031-49.246 27.945-66.891 17.914-17.641 42.168-27.34 67.305-26.918zm78.938 88.016 0.003906 0.003906c0.26953-22.043-8.6875-43.195-24.703-58.336-16.02-15.145-37.641-22.902-59.633-21.395-23.074 0.74609-44.879 10.75-60.496 27.754s-23.734 39.578-22.52 62.633c1.2773 20.566 10.363 39.871 25.406 53.961 15.039 14.086 34.898 21.895 55.508 21.82 50.652-2.3672 88.672-40.391 86.961-85.781z"/>
</svg>
