<?xml version="1.0" encoding="UTF-8"?>
<svg width="1200pt" height="1200pt" version="1.1" viewBox="0 0 1200 1200" xmlns="http://www.w3.org/2000/svg">
 <path d="m217.92 473.16c-8.2812-8.2812-18.359-13.441-27.359-20.398-8.7617-6.7188-19.68-9.9609-28.32-18.359 6.7188-5.3984 10.441-0.71875 14.398 1.6797 14.281 8.7617 28.68 17.281 42.602 26.762 6.6016 4.5586 12.238 4.5586 18.719 0.71875 3.8398-2.2812 7.9219-3.8398 11.762-6 27.961-15.719 57.719-25.559 88.199-33 11.52-2.7617 12.121-4.3203 6.3594-15.719-9.8398-19.441-19.922-38.762-30.238-57.84-3.9609-7.3203-6.4805-15.359-10.199-22.801-4.4414-9-8.5195-8.8789-13.078 0.35938-2.2812 4.5586-3.8398 9.7188-5.5195 14.641-4.1992 12.84-12 22.801-20.039 32.52-1.3203 1.5586-2.7617 3-4.3203 4.0781-10.559 7.1992-20.762 1.4414-21-12.238-0.23828-13.801 2.3984-27.359 5.6406-40.68 0.83984-3.6016 1.8008-7.0781 2.7617-10.68 1.3203-5.1602-0.96094-6.7188-5.1602-6.8398-4.5586-0.12109-8.2812 2.5195-12.121 4.5586-7.3203 3.9609-14.762 7.6797-22.922 9.1211-6 1.0781-11.641-0.23828-15.359-6.2383-3.7188-5.8789-0.83984-11.039 2.0391-16.078 7.5586-13.801 17.879-24.961 28.078-36 11.281-12.238 13.078-24.84 6-40.078-2.8789-6.1211-5.0391-12.602-6.9609-19.078-1.8008-6-3.2383-12.238-2.8789-18.719 0.96094-19.078 10.32-25.559 26.039-17.398 10.441 5.3984 20.16 12.602 28.68 21.238 10.441 10.68 21.602 12.359 34.559 6.4805 10.68-4.8008 21.719-8.1602 33.121-10.32 5.8789-1.0781 11.281-0.48047 16.559 3 11.398 7.5586 13.32 15.359 5.7617 27.359-6.3594 9.9609-13.801 18.961-22.32 26.762-3.3594 3-6.7188 6-9.4805 9.6016-5.3984 6.9609-4.9219 10.68 2.1602 15.121 4.0781 2.6406 8.7617 4.1992 13.32 6.1211 5.8789 2.3984 11.641 5.2812 16.199 10.199 5.0391 5.3984 5.6406 12.121 3.6016 19.078-1.9219 6.3594-6.7188 8.7617-12.359 9-12.48 0.71875-24.961 1.1992-37.441 1.8008-2.7617 0.12109-5.3984 0.60156-8.8789 1.0781 3.7188 16.32 13.078 28.32 19.32 41.762 8.0391 17.52 17.641 34.078 25.801 51.602 3.4805 7.3203 7.1992 10.078 14.641 8.2812 31.922-7.6797 63.84-14.762 96.238-19.441 11.52-1.6797 22.922-1.9219 34.441-2.7617 9-0.71875 10.078-1.5586 8.5195-11.641-1.8008-11.281-1.3203-23.039-5.3984-35.16-7.0781 10.199-13.32 19.32-19.801 28.441-4.9219 6.8398-11.52 11.039-19.078 13.441-5.6406 1.8008-9.3594-0.35938-11.281-6.3594-2.6406-8.3984-2.0391-16.68 0.35938-24.961 3.3594-11.398 6.6016-22.922 7.8008-37.078-9.9609 3.9609-19.199 5.7617-28.559 6.6016-11.281 1.0781-14.281-7.9219-10.801-17.52 1.8008-5.0391 4.5586-9.4805 8.7617-12.238 10.68-6.9609 20.52-15.602 33.238-18.121 3.2383-0.60156 6.3594-2.3984 9.4805-3.7188 6.1211-2.6406 9.1211-7.0781 8.2812-14.641-0.71875-5.7617-0.96094-11.641-1.3203-17.398-0.35938-6.3594-0.60156-12.719 1.1992-18.961 4.4414-15.719 18.961-19.922 28.922-7.8008 6.7188 8.1602 13.559 16.441 18.48 26.398 6.9609 14.16 7.9219 14.398 21.602 9.8398 9.8398-3.3594 19.68-5.2812 29.762-3.6016 5.6406 0.96094 11.762 2.1602 13.922 9.4805 2.2812 7.8008 0.23828 14.762-5.5195 19.922-7.4414 6.7188-15.48 12.238-24.359 16.68-10.078 5.0391-10.68 7.3203-5.8789 18.238 2.5195 5.7617 5.3984 11.281 8.1602 16.801 2.1602 4.1992 3.4805 8.6406 3.7188 13.559 0.83984 14.281-7.5586 21.121-19.078 14.879-9.4805-5.1602-19.441-9.2383-27.719-17.039-2.7617-2.6406-6.4805-4.0781-11.398-7.1992 0.23828 19.559 3.9609 36.359 6.8398 53.281 0.71875 3.9609 3.2383 4.8008 6.3594 4.9219 5.2812 0.12109 10.559 0.60156 15.84 0.48047 49.559-0.60156 98.762 5.5195 148.08 10.922 8.6406 0.96094 17.281 0.71875 25.922 1.4414 6.6016 0.48047 10.559-1.9219 13.32-9 9.6016-24.238 19.922-48.121 29.879-72.121 2.0391-4.8008 3.8398-9.7188 3.2383-15.238-0.23828-1.5586 0-3.1211 0-4.8008 0.12109-6 2.7617-10.078 8.1602-11.52 2.3984-0.60156 4.9219 0 6.3594 2.5195 2.7617 4.8008 3.7188 10.922 0.48047 15-20.52 25.32-27.602 58.441-42.238 87-5.3984 10.441-3.7188 12.48 7.1992 13.32 2.8789 0.23828 5.7617-0.23828 8.6406 0.12109 7.0781 0.96094 9.2383-3.2383 9.7188-10.078 0.83984-12.121 2.1602-24.238 3.3594-36.359 0.35938-3.1211 0.71875-6.3594 1.4414-9.3594 0.48047-2.0391 2.0391-3.8398 3.9609-3.9609 3.3594-0.23828 3.8398 2.8789 3.7188 5.3984-0.83984 13.199-1.6797 26.398-2.8789 39.48-1.5586 16.32-1.6797 16.559 12.48 16.68 15.48 0.23828 30.359 4.8008 45.48 7.9219 9 1.9219 15.359-0.23828 21.719-7.5586 34.801-40.199 71.398-78.238 109.56-114.48 9.3594-8.8789 20.16-15.84 29.641-28.199-11.281 1.9219-20.879 3.6016-30.48 5.1602-15.238 2.5195-29.762 0-43.441-7.6797-15.359-8.6406-16.801-25.199-2.6406-36.238 7.4414-5.7617 15.719-10.32 24.602-12.84 12-3.3594 24-7.9219 36.602-8.1602 1.9219 0 3.8398-0.23828 5.7617-0.71875 8.5195-2.2812 10.559-6 6.9609-14.762-5.5195-13.559-10.559-27.238-14.641-41.398-2.7617-9.7188-6.7188-20.281 2.1602-27.84 8.3984-7.1992 18.359-4.4414 27.359 0.23828 10.199 5.2812 18.48 13.801 25.801 22.801 14.281 17.879 30.602 20.398 49.32 11.281 9.6016-4.6797 19.801-7.9219 29.16-13.441 10.199-6.1211 21.359-9.4805 32.52-12.48 13.559-3.6016 19.078 2.1602 17.398 17.52-1.3203 11.641-6.8398 20.879-14.641 28.199-10.199 9.6016-20.641 18.84-31.199 28.078-11.039 9.7188-11.762 12.121-8.1602 26.879 3.8398 15.84 7.4414 31.801 10.801 47.762 1.1992 6.1211 2.0391 12.48 0.60156 18.961-3.8398 17.762-19.922 24.359-33.359 13.559-7.5586-6-13.441-13.68-18.359-22.199-2.6406-4.4414-4.4414-9.3594-9-12.121-4.0781 0.96094-5.0391 4.9219-6 8.1602-5.3984 19.199-17.281 33.961-27.719 49.68-3.9609 6-8.7617 11.281-15.121 14.281-10.559 4.9219-16.441 0.83984-17.281-12-0.83984-12.238 1.5586-24.238 3.2383-36.238 0.83984-6.6016 2.5195-13.078 0.48047-21.602-50.879 42.121-95.281 89.762-138.12 139.08 3.3594 6.3594 9 5.6406 13.199 6.8398 31.32 8.6406 58.801 25.801 84.961 46.078 2.3984 1.8008 4.5586 4.1992 7.0781 5.3984 23.16 10.68 32.281 33.359 40.68 56.762 10.441 29.398 14.52 60.359 15.48 91.559 0.71875 25.801-0.71875 51.602-3.3594 77.281-1.1992 11.281-7.9219 20.16-10.32 31.559 2.1602 1.1992 4.0781 2.7617 6.3594 3.6016 23.039 8.3984 38.039 27.961 53.879 46.32 6.1211 7.1992 9.2383 16.078 11.039 25.559 5.0391 26.398 3.8398 52.199-4.6797 77.879-12 36.359-32.641 65.039-58.68 90.359-39.238 38.039-86.398 58.078-135 75-33.84 11.762-67.801 23.039-102.24 32.762-40.559 11.52-81.602 18.84-123.36 21.121-19.199 1.0781-38.281 3-57.48 4.0781-40.441 2.5195-80.641-1.8008-120.84-5.1602-28.68-2.3984-57.48-3.9609-85.922-9.2383-22.801-4.1992-45.121-10.68-66.961-18.961-35.039-13.32-68.879-29.52-100.44-51.359-11.52-7.9219-22.199-17.039-31.68-27.48-14.641-16.078-28.922-32.52-43.32-48.84-0.71875-0.71875-1.4414-1.4414-1.9219-2.3984-16.078-29.039-28.199-58.68-20.52-94.441 8.7617-40.68 25.68-73.801 60.602-93.121 5.2812-2.8789 8.1602-6.7188 7.6797-13.559-0.83984-11.52 0-23.16-1.1992-34.68-0.96094-8.8789-1.6797-16.801-11.762-18.602-3.7188-0.60156-4.8008-4.9219-6.4805-8.0391-5.1602-9.7188-8.3984-20.52-9.9609-31.32-5.3984-39.121-4.9219-77.879 6.4805-116.04 8.1602-27.359 25.559-45.359 46.559-60.121 2.75-3.0234 7.668-4.1055 10.191-9.625zm306.84 517.2c5.6406-0.35938 9.9609-3 13.199-7.9219-9.3594-9.4805-9.1211-9-18.719-4.3203-13.68 6.6016-26.641 14.398-38.762 23.879-1.9219 1.4414-4.1992 2.7617-5.8789-0.96094 2.0391-7.0781 11.398-6.9609 13.078-15.359-14.16-4.3203-21.602 13.441-36.48 12.238 6.9609-8.5195 16.199-9.7188 21-17.281-5.0391-6.8398-10.078-4.8008-15.238-0.71875-6.9609 5.3984-14.398 9.4805-22.922 12.602-0.12109-5.3984 3.1211-6 5.2812-7.5586 5.1602-3.9609 10.32-7.6797 15.48-11.641 2.0391-1.5586 3.8398-3.6016 1.5586-6.4805-1.6797-2.1602-3.9609-2.7617-6.4805-2.1602-2.1602 0.48047-2.6406 3-4.1992 3.9609-12.359 8.2812-24.84 16.32-37.199 24.48 3.8398-12 16.441-13.078 21.719-23.398-6.4805-3.3594-11.16-0.60156-15.961 1.9219-6.8398 3.7188-13.559 7.8008-20.52 11.52-1.1992 0.60156-2.7617 0.12109-3.2383-1.8008-0.48047-5.3984 6.7188-4.1992 6.4805-10.441-7.5586 1.6797-17.641 8.2812-21.84 3.9609-6.7188-7.1992-15-1.3203-21.602-6.8398 5.6406-7.1992 15.238-6.7188 21.121-16.68-17.762 4.0781-33 7.6797-48.84 11.398 3.8398-8.6406 13.922-3.1211 17.281-11.641-7.9219-4.8008-14.879-5.5195-21.359 2.8789-3.8398 5.0391-9.3594 4.0781-14.52 3.8398-1.0781 0-2.6406-1.3203-3.2383-2.5195-1.0781-2.3984 0.71875-3.7188 2.1602-5.1602 3.3594-3.4805 9.2383-2.6406 12.602-8.6406-7.5586-1.1992-14.52-1.9219-20.398 1.0781-4.3203 2.2812-9.1211 7.8008-11.16 0.48047-1.8008-6.6016 6.3594-5.8789 10.32-7.5586 5.5195-2.2812 12.238 0 17.16-5.7617-16.922 5.1602-34.441-0.48047-51.121 5.7617-1.8008-6.8398 4.6797-4.6797 5.7617-7.9219-7.3203-9.1211-17.281-5.5195-26.16-5.5195-0.23828-4.3203 1.9219-4.6797 3.7188-5.0391 3.4805-0.71875 5.1602-2.6406 4.1992-6.6016-0.83984-3.4805-3.6016-2.7617-5.8789-2.7617-6.7188 0.12109-13.441 0.48047-20.16 0.48047-1.3203 0-4.9219-0.60156-2.0391-3 3.7188-3.1211 3.2383-4.8008-0.60156-5.8789-6.1211-1.6797-11.281-6.2383-17.762-6.3594-1.8008 0-4.8008-0.12109-4.0781-2.8789 3.1211-13.199-7.5586-10.441-13.078-13.199 0.60156-4.8008 7.3203-1.9219 6.6016-7.3203-5.8789-5.3984-12.719-2.5195-19.32-1.9219 3.4805-11.398-3-20.398-4.6797-30-2.0391-11.398 4.1992-20.641 3.3594-31.68-7.0781 3.4805-8.2812 9.8398-9.6016 16.078-3.6016 17.398 0.48047 33.719 7.4414 49.199 10.441 23.641 26.281 42.84 42.84 61.32 25.68 28.68 59.039 43.199 91.68 58.68 17.398 8.2812 36.48 9.1211 54.719 13.801 34.199 8.8789 68.762 15.238 103.8 17.641 40.68 2.7617 81.48 4.4414 122.28 6.7188 8.1602 0.48047 16.32-0.23828 24.359-2.2812 34.199-8.7617 69-13.199 103.92-16.801 22.922-2.2812 46.078-5.3984 67.801-13.801 22.68-8.7617 45.961-14.879 68.879-22.559 50.16-16.68 94.078-44.762 130.8-85.68 16.68-18.719 30.121-39.719 30.48-67.922 0.23828-19.32-9.7188-38.762-27.238-49.078 2.5195 18.961 4.0781 37.32 7.4414 55.32 3.4805 19.199-0.23828 35.281-13.32 48.48-2.1602 2.2812-3.7188 4.8008-5.0391 7.5586-2.0391 4.4414-4.5586 7.9219-9.3594 9-4.5586 0.96094-6.9609 5.2812-9.9609 8.6406-5.8789 6.4805-12 12.602-20.762 15.359 3.2383-8.6406 9.3594-15.602 10.078-25.922-8.7617 3.3594-13.078 9.9609-16.68 17.52-2.8789 6-5.5195 13.078-15.121 13.32 2.1602-3.6016 3.8398-5.6406 4.5586-7.9219 0.83984-2.3984 4.8008-4.1992 1.6797-8.1602-6.7188 4.1992-9.4805 11.762-13.199 18.238-1.0781 1.9219-3.1211 2.7617-5.0391 1.8008-2.2812-1.1992-1.4414-3.4805-0.83984-5.5195 1.4414-4.3203 5.5195-7.6797 5.0391-13.32-1.6797 0.23828-2.2812 0.12109-2.5195 0.35938-0.96094 1.1992-2.0391 2.2812-2.5195 3.7188-4.6797 13.441-9.4805 26.641-25.32 28.078-2.0391 0.23828-4.0781 2.6406-5.6406 4.6797-4.0781 5.2812-7.1992 10.559-13.801 2.1602-2.2812-2.8789-7.1992-0.35938-10.078 3.2383-2.8789 3.4805-6 6.9609-9.1211 10.078-3.1211 3.1211-5.5195 6.4805-11.039 3.2383-4.3203-2.5195-9.2383 0.71875-13.199 4.0781-3.1211 2.7617-5.7617 8.0391-9.9609 0.96094-1.0781-1.8008-3.4805 0.12109-4.9219 1.4414-4.3203 4.0781-9.6016 6.9609-12.48 12.961-1.3203 2.8789-3.6016 5.0391-6.8398 2.2812-0.23828-5.6406 7.3203-6.8398 6.1211-13.199-9.2383 4.5586-14.281 15.961-25.199 17.641-2.6406-4.8008 4.5586-6.3594 2.6406-10.922-11.281-0.35938-14.16 14.281-23.52 17.039-3.7188-6.9609 5.1602-8.7617 3.4805-15-8.7617 2.5195-12.84 12.121-21.602 16.441 0.48047-10.68 9.9609-13.32 12.359-21.359-6.1211-1.3203-7.3203 3.7188-9.8398 6.3594-6 6.3594-13.68 9.2383-21.359 11.879-11.879-9.9609-16.441 2.5195-22.922 9-1.9219 1.9219-2.8789 5.7617-6.8398 3.4805-0.96094-7.6797 6.9609-10.559 8.5195-19.441-14.641 1.8008-21.121 16.68-33.84 23.16 3.1211-12.719 13.922-16.078 18.84-27.121-10.559 5.6406-20.52 5.8789-27.84 14.16-2.7617 3.2383-6.1211 11.398-11.039 7.0781-6.6016-5.6406 5.3984-7.9219 3.7188-14.641-8.5195 2.8789-15.719 7.0781-18.359 16.922-2.3984 8.8789-8.0391 9.9609-15.719 9.9609 1.1992-8.6406 7.1992-12.121 10.68-17.52 2.6406-4.1992 11.16-7.4414 6.6016-12.719-4.4414-5.1602-8.8789 3.2383-12.961 6.2383-5.5195 3.9609-10.32 9.4805-18 10.922 2.2812-7.6797 9.8398-8.6406 11.398-15.359-13.68 3.4805-15.602 4.4414-22.32 14.398-3 4.4414-7.0781 6.9609-11.039 9.9609-1.9219 1.4414-4.6797 2.5195-6.6016 0.23828-2.1602-2.5195-0.12109-4.8008 1.4414-6.7188 3.6016-4.1992 7.1992-8.2812 12.359-14.039-8.2812 0.60156-12.602 3.8398-17.16 6.7188-4.5586 2.8789-8.8789 6.4805-13.68 8.6406-5.8789 2.7617-13.559 3.4805-17.281-1.8008-3.7188-5.2812 4.9219-7.5586 6.6016-12.121 0.12109-0.48047 0.23828-0.96094 0.48047-1.5586zm-210.24-483.84c-3.4805 7.6797-12.121 5.2812-15.238 11.641-3.1211 6.4805 0.35938 13.68-1.4414 20.281-0.35938 1.3203-1.4414 3-2.5195 3.4805-2.0391 0.96094-3.7188-0.71875-4.5586-2.6406-1.6797-3.8398-3.2383-7.6797-4.1992-11.762-0.96094-4.3203-2.2812-7.9219-5.8789-10.441-16.199-11.52-32.281-23.16-48.359-34.801-2.8789-2.0391-5.5195-3.6016-9.2383-1.5586-20.398 10.68-37.922 24.961-49.078 47.039-6.1211 12.121-3.9609 22.078 6.1211 30.84 5.6406 4.9219 11.762 9.3594 18 13.078 27.84 16.441 58.32 24 88.68 32.16 32.762 8.8789 66.238 12.121 99.719 15.84 44.879 5.0391 89.762 10.801 134.76 14.879 33.961 3.1211 68.281 1.9219 102.12 6.6016 33 4.5586 66.359 4.5586 99.121 2.1602 37.199-2.7617 74.52-7.5586 111.36-15.961 39.359-8.8789 76.801-22.68 109.68-49.078 12.48-10.078 24-21 30.48-37.199 3.2383-8.1602 5.2812-17.039 0.48047-24.359-6.1211-9.2383-13.441-18-21.602-25.078-10.922-9.4805-23.398-16.559-34.559-25.559-20.281-16.199-44.16-22.559-67.199-31.078-6-2.2812-10.559-0.96094-15.238 4.6797-15.84 19.199-30.238 39.602-44.281 60.359-1.0781 1.5586-1.4414 3.7188-2.0391 5.0391 1.4414 4.0781 4.6797 4.5586 6.9609 6.3594 6.2383 5.0391 7.5586 11.879 5.6406 19.801-0.48047 2.0391-1.6797 3.8398-3.8398 4.0781-2.1602 0.23828-3.4805-1.3203-4.3203-3.3594-0.83984-1.9219-1.5586-3.8398-2.2812-5.8789-5.1602-12.84-11.52-16.441-23.879-13.078-3.2383 0.83984-6.2383 2.5195-9.4805 3.7188-2.3984 0.83984-4.9219 0.60156-6.3594-1.9219-1.4414-2.7617 0.12109-5.2812 2.1602-6.7188 6.1211-4.4414 12.719-7.6797 20.039-7.5586 5.3984 0.12109 8.7617-2.2812 12.121-6.8398 12.84-17.762 26.039-35.281 39.121-52.922 2.0391-2.7617 5.0391-5.2812 2.7617-10.559-10.078-0.83984-19.922-5.1602-30.48-6.4805-21-2.6406-42.121-1.9219-63.121-4.4414-7.8008-0.96094-11.398 1.5586-14.398 8.6406-10.078 23.398-20.398 46.559-30.602 69.961-4.9219 11.281-4.6797 11.281 3.4805 19.32 2.5195 2.3984 4.5586 5.3984 6.6016 8.3984 1.3203 2.0391 2.8789 4.6797 0.48047 7.0781-2.6406 2.6406-4.3203-0.12109-5.8789-1.9219-10.441-11.879-22.32-15.961-36.359-8.0391-2.8789 1.5586-6.2383 1.6797-9.3594-2.3984 5.6406-6.4805 11.879-10.68 19.199-10.559 7.1992 0 10.078-4.3203 12.84-10.199 10.559-22.559 21.238-45 31.68-67.559 2.0391-4.5586 5.2812-8.8789 4.3203-15.719-16.559-1.8008-33.121-3.7188-49.801-5.3984-32.039-3.1211-64.078-6.4805-96.121-9-14.762-1.0781-29.762-0.35938-44.641-0.35938-4.3203 0-7.9219 1.5586-7.1992 7.3203 3.1211 22.68 2.3984 45.48 3.8398 68.16 0.35938 5.3984 2.5195 7.1992 7.1992 7.5586 5.5195 0.48047 9.9609 3.7188 13.801 7.8008 2.5195 2.6406 5.0391 6.1211 2.0391 9.4805-2.8789 3.2383-4.6797-0.96094-6.9609-2.6406-11.762-8.8789-17.52-7.8008-26.281 5.0391-0.23828 0.35938-0.48047 0.96094-0.71875 1.4414-2.1602 5.0391-6 3-8.5195 1.4414-3.7188-2.1602-1.6797-6.1211 0.35938-7.8008 13.441-10.32 12.238-24.602 9.2383-39.48-0.35938-2.0391-0.23828-4.1992-0.23828-6.3594-0.12109-12.719-2.2812-25.199-2.3984-37.922 0-11.641-2.6406-13.559-13.32-13.199-8.6406 0.35937-17.281 0.60156-25.801 1.8008-30.359 4.5586-60.602 10.68-90.602 17.762-5.7617 1.3203-12.719 0.23828-17.52 6.7188 13.68 29.16 27.48 58.199 40.922 87.48 2.5195 5.3984 5.2812 8.1602 10.801 8.6406 3.7188 0.35938 7.5586 1.8008 11.039 3.3594 2.5195 1.0781 5.7617 2.6406 4.5586 6.7188-0.83984 3-3.7188 2.6406-6.1211 2.3984-0.48047 0-0.96094-0.23828-1.4414-0.23828-15.238-1.8008-15.238-1.8008-21.48 14.16-0.96094 2.3984-1.9219 5.3984-4.9219 4.4414-3.3594-1.0781-6.2383-3.7188-5.1602-8.0391 0.83984-3.4805 2.6406-6.8398 4.4414-9.8398 3-4.9219 2.8789-9.3594 0.83984-14.879-10.68-28.441-23.039-55.922-36.719-82.801-4.0781-8.0391-9.3594-10.559-17.762-9-37.32 6.8398-71.641 22.441-105.96 41.879 14.52 13.801 30.48 23.398 45.359 34.801 3.8398 3 7.8008 1.4414 12.121-0.83984 6.5898-3.0117 13.547-5.1719 20.988-0.37109zm354.72 416.28c6.7188-5.0391 12.84-10.078 19.32-14.52 11.16-7.6797 22.32-9.8398 32.762 1.6797 4.5586 5.1602 8.1602 3.3594 12.238-0.48047 5.1602-4.8008 11.398-8.0391 17.879-9.9609 6-1.9219 12.359-3.3594 18 1.5586 6.2383 5.5195 10.68 2.7617 16.199-2.2812 12.719-11.641 27-18.359 43.801-10.441 3.8398 1.8008 5.6406 0.96094 7.8008-3.2383 8.6406-17.16 22.68-24 39.84-21.121 7.0781 1.1992 8.8789-1.5586 11.398-7.5586 7.1992-17.641 19.078-28.922 37.199-30.48 5.5195-0.48047 9.6016-2.8789 13.801-7.0781 9-8.7617 19.078-15.84 32.641-12.359 3-14.281-0.23828-28.199 2.6406-41.641 0.35938-1.5586 0-3.1211 0.12109-4.8008 0.12109-3.9609-1.6797-6.2383-5.0391-6-8.6406 0.48047-14.879-3.8398-18.84-11.879-3.8398-7.8008-7.6797-15.238-6.9609-25.199 1.0781-16.441-1.9219-32.641-7.9219-47.879-2.1602-5.6406-5.1602-10.801-11.52-10.078-5.8789 0.71875-6.6016 7.1992-7.8008 12-1.8008 7.0781-2.3984 14.16-0.71875 21.84 2.6406 12.359 4.1992 24.961-0.23828 37.559-4.5586 12.602-21.48 24.48-33.121 22.922-11.398-1.5586-21.719-14.762-23.16-30.238-0.71875-8.3984-0.83984-16.922-1.5586-25.32-0.60156-7.4414-15.121-24.48-21-23.52-8.1602 1.4414-12.84 8.7617-16.32 16.441-2.8789 6.2383-3.6016 13.32-3 20.16 0.96094 11.039 1.6797 22.441 4.9219 32.762 5.7617 18.602-0.35937 33.121-9.7188 47.16-7.4414 11.16-17.762 7.3203-27.719 5.6406-9.3594-1.5586-12.48-8.5195-13.559-17.641-0.96094-7.3203-1.8008-14.641-2.7617-22.078-0.83984-6.7188-1.1992-16.078-8.6406-15.719-6.4805 0.23828-8.0391 9.3594-9.2383 16.199-0.35938 2.0391 0.12109 4.1992-0.12109 6.3594-2.3984 19.441 0.35938 39.238-3 58.559-2.7617 15.602-10.922 27-23.52 33.602-13.199 6.9609-26.762 3.4805-38.281-5.0391-12.719-9.3594-17.039-24-14.039-40.32 2.8789-15.48 6.3594-30.961 10.559-46.078 3.8398-13.68 2.2812-27.359 0.83984-40.922-0.96094-8.3984-6.4805-9.9609-12.121-4.0781-4.3203 4.4414-6.3594 10.441-8.8789 16.199-4.3203 9.4805-8.6406 18.84-17.16 24.84-10.922 7.5586-21.121 5.5195-28.922-6.1211-4.4414-6.6016-6.1211-14.281-7.0781-22.199-0.48047-4.8008-1.1992-9.4805-3.3594-13.68-3.3594-6.4805-6.4805-6.8398-10.922-1.1992-5.8789 7.5586-7.0781 17.281-8.7617 26.52-2.6406 14.281-8.1602 27.238-15.121 39.121-6.9609 11.641-17.762 17.398-30.719 16.199-12.961-1.3203-20.641-10.199-25.199-22.922-3.3594-9.6016-3.8398-19.559-3.2383-29.762 0.35938-5.7617 0.71875-11.641 0.83984-17.398 0.12109-5.2812 0.48047-12-5.0391-13.441-5.8789-1.5586-11.16 2.0391-14.16 8.1602-1.5586 3.2383-2.8789 6.7188-4.5586 9.8398-2.6406 5.1602-6 9.3594-10.922 12.238-15 9-29.16 1.1992-30.719-17.398-0.48047-6.3594-0.71875-12.602-1.0781-18.961-0.23828-2.8789 1.5586-6.7188-1.9219-8.3984-3.7188-1.8008-6.6016 0.96094-8.6406 3.9609-4.9219 7.0781-9.8398 13.801-11.641 23.16-2.7617 14.398-6.4805 28.68-12.719 42-9.2383 19.801-23.52 32.879-42.961 39.121-6.1211 2.0391-12.602 2.7617-18.359-0.12109-14.16-7.1992-26.641-16.078-30.719-34.801-2.1602-9.7188-5.3984-19.078-5.7617-29.281-0.48047-15.359-1.5586-30.602-2.2812-45.961-0.35938-7.4414-0.83984-14.879-3.6016-21.719-2.3984-5.7617-5.0391-11.641-12.121-11.641-6.8398 0-10.078 4.6797-12.602 10.922-2.2812 5.7617-4.6797 11.762-8.0391 16.68-5.7617 8.3984-14.281 13.199-23.52 12-9.9609-1.3203-15.238-11.16-15.48-25.199-0.12109-9 0.23828-18 0.60156-27 0.12109-3.9609 0-7.5586-3.9609-9.1211-3.7188-1.4414-6.4805 0.35937-8.5195 3.9609-5.2812 9.4805-11.039 18.719-13.801 29.398-1.8008 6.9609-4.4414 13.32-9.9609 16.801-6.9609 4.4414-7.9219 11.398-8.5195 18.602-2.0391 27 0.71875 54 1.1992 81 0.12109 6.9609 3.1211 8.6406 9 9 19.078 1.0781 34.199 15.238 51.961 21.121 7.4414 2.3984 12.359 11.398 15.238 20.281 1.3203 3.9609 1.6797 8.2812 5.6406 11.641 11.52-6.1211 24.48-10.922 37.078-5.8789 12.602 5.0391 23.52 14.16 25.32 31.559 8.1602-3.3594 14.398-8.6406 21.961-10.559 14.398-3.4805 31.441 2.1602 37.441 12.961 6.3594 11.398 6.4805 11.762 18.121 5.3984 17.281-9.3594 33.121-7.9219 48.238 5.7617 5.2812 4.8008 8.1602 11.16 11.039 17.52 26.762-15.961 41.16-17.398 63.602 11.52 9.3594-11.039 20.641-18.602 34.078-22.32 17.039-4.6797 20.879-3.7188 31.32 12.359 3.7188 5.7617 6.9609 5.8789 11.762 2.0391 6.7188-5.2812 14.52-8.1602 22.199-10.801 13.32-4.5586 20.281-1.6797 28.559 10.922 0.84375 2.1445 2.1641 4.1836 3.7227 6.5859zm-504.12-367.56c-9.3594 32.641-6.7188 64.199-3.6016 95.762 1.0781 11.039 3.2383 22.078 8.2812 31.922 5.3984 10.801 14.398 12.48 22.68 4.3203 3.4805-3.4805 6.4805-7.9219 8.6406-12.48 3.6016-7.4414 6.6016-15.238 9.3594-23.039 2.2812-6.4805 4.6797-12.84 8.8789-18 8.7617-10.68 19.32-9.3594 25.922 3 3.8398 7.1992 4.8008 14.879 4.4414 23.039-0.48047 9 0.60156 17.879 2.2812 26.762 1.3203 7.0781 4.9219 8.2812 10.32 7.5586 7.0781-1.0781 10.559-6.6016 13.078-13.078 1.9219-4.8008 3-10.078 5.2812-14.641 5.2812-10.199 20.281-15.238 27.359-8.5195 11.762 11.281 19.68 26.281 17.398 43.32-2.0391 15.238 0.35938 29.641 2.1602 44.039 1.8008 15.121 5.1602 30.238 13.32 43.32 7.9219 12.602 18.359 16.199 31.32 11.16 17.398-6.8398 28.441-20.398 35.641-38.762 5.7617-14.762 7.8008-30.48 10.32-46.078 2.1602-13.559 8.3984-23.281 20.16-28.68 11.398-5.1602 20.281 0 21.961 13.441 1.0781 8.3984 1.0781 16.922 1.5586 25.32 0.23828 6 0.71875 12 7.4414 13.68 5.3984 1.3203 11.641-3.3594 14.398-10.441 1.3203-3.3594 1.9219-7.0781 3.3594-10.441 4.3203-9.9609 12.84-15.238 22.078-14.039 7.8008 0.96094 13.078 6.9609 15.359 18.48 1.0781 5.6406 1.4414 11.52 1.5586 17.398 0.12109 11.762 2.6406 22.922 5.7617 34.199 5.0391 18.719 15.48 22.32 30.238 9.7188 3.6016-3.1211 5.6406-6.8398 7.3203-11.398 4.6797-12.238 7.6797-25.078 10.559-37.801 1.8008-7.8008 4.0781-15.238 8.2812-21.84 4.3203-6.7188 9.4805-12.238 17.879-10.199 7.6797 1.9219 12.602 7.4414 14.762 15.719 1.9219 7.6797 3.6016 15.359 5.2812 23.16 1.1992 5.5195 2.7617 10.32 8.7617 10.922 5.5195 0.60156 10.559-0.71875 14.039-6 3.7188-5.6406 6.2383-11.879 7.1992-18.84 1.0781-7.8008 4.8008-13.801 9.9609-18.719 7.6797-7.3203 16.441-6.4805 22.68 2.3984 5.3984 7.6797 8.2812 16.559 7.9219 26.641-0.60156 16.441-0.71875 32.762-6.1211 48.48-3.6016 10.441-4.9219 21.602-6.1211 32.52-1.0781 9.7188-0.48047 20.762 7.5586 25.922 8.7617 5.7617 19.199 9.4805 30 3.3594 11.039-6.2383 18.719-15.121 18.48-29.398-0.23828-19.078 3.1211-37.922 2.0391-57-0.71875-11.641 3.7188-21.84 11.398-29.762 7.4414-7.6797 14.16-6.7188 20.879 1.9219 5.2812 6.8398 7.0781 14.879 7.5586 23.398 0.35938 5.7617 0.23828 11.762 1.0781 17.398 2.0391 13.199 10.559 17.52 21 11.039 5.2812-3.2383 8.8789-8.2812 9.9609-14.879 1.5586-9.3594 2.3984-18.602 0.60156-28.32-2.6406-14.52-5.7617-29.039-4.8008-44.039 1.1992-17.281 11.039-27.602 23.641-35.281 10.801-6.4805 20.281-1.5586 29.398 5.3984 7.6797 5.7617 9.3594 14.398 9.7188 23.641 0.48047 11.16 0 22.32 0.71875 33.359 0.60156 9.1211 5.2812 16.441 12.602 20.039 5.5195 2.6406 11.16-1.6797 15.961-5.2812 4.1992-3.1211 6-8.1602 6.6016-13.559 0.96094-8.3984 1.4414-16.801-0.23828-25.32-2.5195-13.199-0.96094-26.398 1.5586-39.359 1.5586-8.1602 7.4414-13.559 15-14.641 14.52-2.1602 26.039 8.7617 29.398 27.48 2.2812 13.078 3 26.281 3.3594 39.48 0.12109 5.2812 0.83984 10.32 2.0391 15.602 5.2812 22.559 15.238 18.719 27.961 7.5586 2.5195-2.1602 4.1992-5.7617 5.5195-9.1211 3.2383-8.2812 6-16.68 6.9609-25.68 3.6016-36.961 2.8789-74.039-0.83984-111-1.8008-17.879-7.6797-35.039-14.762-53.52-9.7188 20.398-22.32 34.199-37.078 46.441-25.078 20.641-53.879 32.16-83.281 42-40.078 13.441-82.199 14.762-123.36 21.84-17.281 2.8789-34.559-0.35938-51.719 1.9219-15.84 2.1602-31.559 0.60156-47.398-0.71875-29.641-2.5195-59.398-5.3984-89.16-6-24.602-0.48047-48.719-4.1992-73.199-6-33-2.2812-65.762-8.1602-98.762-11.641-25.801-2.7617-51.602-6.1211-77.039-11.641-17.879-3.8398-35.281-10.199-53.039-14.641-30.957-8.1641-59.277-21.723-85.676-44.285zm16.801 215.28c-31.801 16.078-48.719 44.039-57 78.48-9.8398 40.68-2.0391 77.398 24.84 108.6 9.6016 11.16 18.84 22.68 28.801 33.359 12.719 13.68 25.441 27.121 41.16 37.078 26.762 17.039 54.48 30.961 83.16 43.32 38.039 16.32 77.16 25.559 117.6 29.52 32.52 3.1211 65.039 6.8398 97.68 8.6406 21.48 1.1992 43.078 4.0781 64.68 1.8008 10.078-1.0781 20.16-1.4414 30.238-1.8008 16.801-0.71875 33.602-2.2812 50.398-3.2383 39.602-2.1602 77.16-16.078 115.2-26.039 41.039-10.68 81.359-24.84 121.08-40.32 27.238-10.559 54.121-23.16 77.398-41.398 33.719-26.52 62.398-58.32 78.238-103.08 9.1211-26.039 9.9609-51.238 6.8398-77.641-0.83984-7.1992-3.7188-14.281-8.0391-20.16-11.879-16.078-26.281-29.52-40.922-42.359-5.3984-4.6797-12.238-5.7617-18.602-8.2812-2.7617-1.0781-5.7617-0.83984-7.5586 2.6406-1.8008 3.4805-2.3984 7.1992 0 10.441 1.8008 2.3984 4.5586 3.8398 6.6016 6 13.68 13.801 26.641 28.68 26.16 50.879-0.35938 17.039-4.5586 33.121-13.32 47.762-9.9609 16.441-22.199 30.602-35.281 43.68-19.199 19.199-40.441 35.16-63.719 48.238-31.559 17.762-65.879 25.68-99 38.039-32.52 12-66 18.84-99.84 22.68-28.68 3.2383-57.121 6.7188-85.32 14.039-15.359 3.9609-30.961 5.3984-47.16 3.8398-20.039-1.9219-40.199-4.8008-60.359-3.4805-18.84 1.1992-37.32-2.8789-55.922-3.4805-9-0.23828-18.238-0.48047-27.238-1.9219-32.762-5.3984-65.281-12.359-97.68-20.16-10.801-2.6406-21.84-3.7188-32.281-8.2812-23.762-10.441-46.441-23.52-68.16-38.039-30.238-20.16-52.199-49.922-70.078-82.922-16.922-31.441-15.238-69 12.602-89.039 5.6445-3.957 7.8047-9.2383 4.8047-17.398zm809.04-434.4c0.12109 3.4805-0.83984 7.1992 2.1602 9 3.7188 2.2812 6.4805-0.96094 8.8789-3.3594 12.961-13.441 24.359-28.32 31.078-46.922 2.6406-7.3203 5.2812-14.762 8.8789-21.602 3.9609-7.4414 10.32-7.4414 15.121-0.83984 1.4414 2.0391 2.1602 4.8008 3.4805 6.9609 6.4805 10.68 13.559 20.762 23.281 27.84 9.9609 7.1992 16.078 3.9609 18.238-8.7617 1.0781-6.4805 0-12.602-1.5586-18.719-3.4805-14.281-6.2383-28.922-10.801-42.84-4.4414-13.441-0.60156-22.199 8.8789-30.121 10.68-8.8789 21-18.48 31.32-27.961 6-5.3984 10.922-12 13.801-20.039 4.1992-12.121 0.12109-17.398-11.398-14.52-12.121 3.1211-23.762 8.0391-35.039 14.039-10.32 5.5195-21.238 9.7188-31.922 14.16-17.641 7.3203-31.68 1.6797-44.281-12.238-5.7617-6.3594-11.879-12.359-17.879-18.359-5.1602-5.0391-11.281-8.1602-18.121-9.2383-8.2812-1.3203-11.762 2.5195-10.68 11.641 0.48047 3.6016 1.5586 7.1992 2.3984 10.801 3.3594 13.32 9.4805 25.32 14.52 37.922 6 14.879 3.3594 21.121-10.801 25.559-2.7617 0.83984-5.6406 1.1992-8.5195 1.4414-12.48 0.96094-24.48 5.1602-36.48 8.3984-7.3203 1.9219-14.762 4.9219-20.879 10.32-7.6797 6.9609-7.1992 16.801 1.4414 22.199 7.5586 4.8008 15.719 7.3203 24.719 7.0781 16.441-0.48047 32.281-4.5586 48.48-7.3203 10.801-1.8008 13.199 1.3203 10.559 12.961-4.6758 20.879-5.875 42-8.875 62.52zm-664.2-29.641v-0.35938c8.1602-0.23828 16.32-0.23828 24.48-0.60156 3.3594-0.12109 6.9609-0.96094 8.2812-5.0391 1.6797-4.9219-1.4414-8.1602-4.3203-10.922-2.1602-2.0391-4.8008-3.4805-7.4414-4.6797-4.4414-2.0391-9-3.6016-13.441-5.5195-22.559-9.8398-18.602-24.238-6.2383-34.68 1.5586-1.3203 2.8789-2.7617 4.4414-4.0781 6.9609-6.4805 14.641-12.238 19.199-21.238 2.5195-4.9219 10.078-9 6.9609-14.398-3.3594-5.8789-11.16-7.6797-17.762-8.2812-3.2383-0.23828-6.6016 0.83984-9.8398 1.9219-9.6016 3.2383-19.199 6.7188-28.801 10.078-8.1602 2.8789-16.199 2.8789-23.52-2.5195-10.801-7.9219-22.922-13.559-32.762-23.16-2.8789-2.7617-6.1211-5.1602-9.6016-6.9609-6.1211-3.2383-8.6406-1.6797-9.4805 6.1211-0.35938 3.6016 0.23828 7.3203 0.35938 11.039 0.23828 10.441 5.1602 19.441 8.8789 28.32 7.6797 18.238 3.2383 32.641-7.8008 46.559-8.8789 11.039-18.359 21.602-25.922 33.84-2.0391 3.3594-5.7617 6.3594-2.2812 11.039 3 3.9609 6.8398 3.1211 10.559 1.9219 8.3984-2.6406 15.961-7.1992 23.762-11.281 5.1602-2.6406 10.922-6 16.078-0.60156 4.8008 4.9219 3.9609 11.641 2.2812 17.879-3 11.16-4.4414 22.68-5.6406 34.32-0.60156 6.4805-4.5586 14.762 3.1211 18.238 7.3203 3.3594 12.121-3.8398 16.801-9.1211 1.3203-1.5586 2.2812-3.4805 3.3594-5.1602 6.2383-9.4805 10.559-20.039 13.801-31.199 3.9609-13.559 12-21.238 25.441-21 5.5234-0.11719 11.285-0.35547 17.047-0.47656zm130.8 7.3203c7.9219-0.96094 11.039 2.8789 9.2383 12.719-2.5195 13.441-5.5195 26.762-8.3984 40.078-0.83984 4.0781-2.8789 8.1602 1.6797 11.281 4.3203 2.8789 8.3984 2.3984 11.879-1.3203 4.1992-4.3203 8.2812-8.8789 12-13.68 6.2383-8.1602 9.4805-18.238 13.32-27.84 4.1992-10.32 7.8008-11.641 16.922-6.8398 3.4805 1.8008 6.4805 4.4414 9.7188 6.7188 8.5195 5.8789 16.68 12.602 26.039 16.801 3.4805 1.5586 6.9609 5.2812 10.68 2.0391 4.3203-3.7188 1.8008-9 0.60156-13.32-1.0781-3.9609-3.4805-7.5586-5.2812-11.281-2.7617-5.6406-6-10.922-8.2812-16.801-3.6016-9.3594-1.6797-15 6.3594-19.68 3-1.6797 6.2383-2.7617 9.3594-4.1992 8.0391-3.7188 15.238-9 21.359-15.719 5.0391-5.5195 3.9609-10.199-2.3984-13.68-6.9609-3.8398-14.16-2.2812-21.238-0.83984-6.6016 1.4414-13.078 3.4805-19.559 5.2812-6.8398 1.9219-12.238-0.23828-15.961-7.0781-1.9219-3.7188-3.8398-7.4414-6-10.922-4.1992-6.4805-8.5195-12.84-12.84-19.078-2.7617-3.9609-6.2383-6.7188-11.16-4.9219-5.2812 1.9219-5.3984 6.6016-5.1602 11.52 0.35938 7.4414 0.60156 14.879 0.48047 22.199-0.12109 13.32-5.2812 23.398-16.801 28.801-7.0781 3.2383-14.16 6.6016-21.238 9.6016-6.2383 2.6406-12.238 6-17.641 10.441-3.6016 3-4.5586 6.8398-3 11.16 1.5586 4.4414 5.5195 4.0781 8.6406 3.3594 5.7617-0.83984 11.16-2.8828 16.68-4.8008zm-19.078 576.6c-21.719 0.35937-33 9.1211-40.441 29.398-3.4805 9.6016-1.8008 17.641 5.7617 23.398 4.3203 3.3594 9 6.4805 13.922 8.0391 26.52 8.6406 42-10.922 46.922-36.238 0.35938-1.8008-0.48047-4.3203-1.5586-6-6.6055-10.316-15.246-17.395-24.605-18.598zm131.76 80.883c12.719 0.96094 21.238-7.1992 27.359-18.602 6.8398-12.602 5.0391-25.559-1.4414-37.559-3.7188-6.9609-10.078-9.9609-17.398-8.3984-10.922 2.2812-22.078 5.6406-29.879 14.16-15.84 17.52-16.199 29.762-0.60156 43.441 6.9609 6.1172 14.043 6.1172 21.961 6.957zm-273.36-115.68c-14.641-0.83984-23.398 9.9609-31.078 23.641-5.7617 10.32-0.96094 18.121 2.8789 26.398 3.8398 8.2812 9.8398 12.961 18.48 12 5.6406-0.60156 11.398-1.4414 17.039-2.6406 17.641-3.6016 28.922-24.961 22.199-41.762-4.4375-11.277-15.117-18-29.52-17.637zm96.602 49.32c-0.23828-14.16-4.1992-19.922-15.961-24.961-13.68-5.8789-25.68-0.96094-36.719 6.9609-9.6016 7.0781-12.961 20.762-9.9609 32.398 3.1211 12.359 11.879 15.602 21.961 16.68 5.6406 0.60156 11.16 2.1602 17.039 0.60156 17.281-4.2031 23.879-12.48 23.641-31.68zm109.08 4.0781c-18.719 0-28.078 11.879-36.602 24.961-1.9219 2.8789-1.0781 6 0.12109 9 5.7617 15.238 15.719 24.602 30.719 26.641 17.16 2.3984 31.68-11.641 32.398-31.199 0.60547-17.402-11.273-29.523-26.637-29.402zm130.56 65.16c18.961 0.23828 35.039-22.078 30.602-42.359-3.1211-13.922-10.441-23.398-19.078-22.078-10.32 1.6797-20.039 6.7188-29.16 12.238-7.5586 4.5586-4.3203 13.199-5.6406 20.039-3.7227 19.078 5.9961 32.039 23.277 32.16zm-367.68-113.88c0-12.961-10.801-29.281-22.441-33.84-17.039-6.6016-25.801-2.1602-32.281 16.441-5.8789 16.559 6.7188 41.641 22.801 45.238 14.762 3.3594 31.801-11.641 31.922-27.84zm430.2 112.8c16.199-0.12109 29.879-13.32 29.039-30-1.0781-20.52-5.8789-33.121-21.359-33.121-16.559 0-34.32 22.32-33.359 40.559 0.59766 11.164 13.559 22.684 25.68 22.562zm116.28-28.918c7.8008 2.1602 14.52-1.4414 18.719-9.2383 5.0391-9.4805 5.1602-20.16 3-30.719-0.71875-3.7188-3.4805-6.1211-6.4805-8.0391-11.641-7.1992-35.52-0.60156-42.48 11.879-4.9219 8.8789-2.3984 19.199 6.1211 25.441 2.3984 1.6797 5.0391 3.3594 6.7188 5.7617 3.7188 5.2734 7.6797 8.0352 14.402 4.9141zm-58.801 16.918c4.8008-0.48047 10.441-1.4414 15.602-4.6797 4.8008-3 8.6406-6.7188 9.2383-13.199 0.96094-10.32-1.4414-20.16-5.1602-29.281-2.3984-5.7617-8.1602-9.1211-14.52-8.5195-9.3594 0.83984-17.52 5.3984-24.48 12.238-6 6-3.6016 13.559-2.0391 20.762 0.23828 1.082 0.23828 2.2812 0.23828 3.2422 1.1992 15.359 6.1211 20.16 21.121 19.438zm190.2-108.36c-0.23828-9-10.801-19.32-19.68-18.602-14.039 1.0781-23.762 9-29.879 23.039-4.3203 9.7188 4.3203 17.16 3.3594 26.16-0.12109 1.5586 3.1211 2.0391 5.0391 1.6797 3.3594-0.71875 6.4805-1.3203 9.4805 1.4414 3.9609 3.4805 8.0391 1.6797 12-0.23828 12.719-6.1211 20.16-18.48 19.68-33.48zm-102.12 52.082c0 2.1602 0 4.1992 0.12109 6.3594 0.71875 12.238 5.0391 16.68 15.238 13.441 12.719-3.9609 23.52-11.762 30.359-24.48 5.8789-11.16 2.2812-21.602-8.3984-26.762-20.16-9.7188-38.52 5.7617-37.32 31.441zm119.28-90.48c-6.9609 0.60156-12.719 3.9609-17.641 9.2383-2.7617 3-3.8398 7.0781-0.83984 9.7188 7.9219 6.7188 9.2383 16.922 12.359 26.16 2.5195 7.3203 6.2383 6.8398 11.039 3.8398 13.078-8.1602 15.48-34.32 4.3203-45.84-2.7578-2.7578-5.8789-3.4766-9.2383-3.1172zm-740.16 1.4414c-9.4805-5.3984-17.52-8.0391-25.801-3.7188-6.6016 3.3594-11.281 8.6406-10.68 18.359 0.60156 10.078 3.4805 18.359 11.039 24.238 3.9609 3.1211 5.7617 0.71875 6.8398-3.8398 3.1211-12.723 7.3203-24.723 18.602-35.039zm311.04 183.24c7.4414-1.4414 13.922-4.0781 19.68-11.641-9.7188-0.12109-14.879 5.7617-19.68 11.641zm-156.6-35.039c5.2812-2.1602 11.52-1.6797 17.762-8.8789-8.5234 1.7969-14.285 2.6367-17.762 8.8789zm29.277-1.1992c-4.3203-2.0391-6.7188 0.23828-9.1211 3.7188 4.2031 1.5586 7.2031 0.83984 9.1211-3.7188z"/>
 <path d="m129.24 389.52c15.121-8.7617 28.32-20.641 43.922-31.32 1.8008 8.3984 1.4414 13.922-4.5586 18.719-7.6797 6.1211-14.762 13.32-23.398 18.121-3.8398 2.1602-7.9219 3.6016-12.359 3.8398-6.3594 0.35938-6.8398-0.83984-3.4805-9.4805z"/>
 <path d="m129.48 389.28c-0.60156-1.5586-1.5586-2.7617-3.1211-2.5195-2.7617 0.35938-4.0781 6.4805-6.6016 3.7188-3-3.2383-3.1211-8.3984-0.96094-13.199 7.0781-15.359 13.078-31.199 22.68-46.199 5.1602 4.9219 3.2383 10.922 1.9219 15.719-4.3203 14.398-9.3594 28.441-14.16 42.719l0.24219-0.23828z"/>
 <path d="m746.28 331.92c-0.23828 6.3594-4.3203 8.8789-7.3203 12-9.7188 10.078-19.559 20.039-29.398 29.879-2.0391 2.0391-4.1992 4.3203-6.7188 5.6406-2.8789 1.5586-6.6016 3.8398-9 0-1.9219-3.2383 1.4414-5.3984 3.2383-7.8008 11.039-14.641 26.281-23.879 39-36.359 2.5195-2.4023 5.5195-4.082 10.199-3.3594z"/>
 <path d="m738.72 280.56c-9.8398 2.6406-18.48 1.8008-26.52-5.8789-8.2812-7.9219-17.52-14.641-26.281-21.961-1.5586-1.3203-3.3594-2.7617-2.5195-5.0391 1.0781-3 3.7188-2.6406 6-1.6797 1.8008 0.71875 3.8398 1.3203 5.1602 2.6406 12 12 26.879 18 41.16 25.32 1.6797 0.83984 3.1211 2.2773 3 6.5977z"/>
 <path d="m92.641 390.6c-2.8789 2.0391-4.8008 1.0781-6.1211-0.12109-13.801-12.121-27-24.961-38.398-39.719-1.5586-1.9219-3.1211-4.3203-0.48047-6.7188 1.6797-1.4414 3.6016-1.0781 5.2812 0.12109 3.1211 2.3984 6.3594 4.6797 9.1211 7.5586 8.3984 8.6406 16.441 17.52 24.84 26.16 3.5977 3.7188 5.1562 8.0391 5.7578 12.719z"/>
 <path d="m89.879 319.8c5.7617 0.60156 6.3594 4.4414 7.3203 7.9219 4.0781 15.602 8.0391 31.199 12.121 46.922 0.35938 1.5586 0.71875 3.1211 0.83984 4.5586 0 3.4805-1.5586 6.1211-4.6797 6.7188-2.7617 0.48047-3.8398-1.9219-4.8008-4.5586-5.2812-13.68-7.0781-28.32-9.1211-42.719-1.0781-5.8828-3.5977-12.004-1.6797-18.844z"/>
 <path d="m671.4 327c2.3984-7.3203 7.1992-8.7617 12.602-10.078 12.121-3 24.602-3.3594 36.359-7.8008 5.0391-1.9219 8.8789 0.71875 12.238 4.3203-1.0781 5.0391-4.4414 4.3203-7.0781 4.8008-13.559 2.7617-27.359 3.9609-39.961 10.68-4.7969 2.7578-9 1.1992-14.16-1.9219z"/>
 <path d="m72.602 494.16c-5.2812-9.6016-3.8398-16.078 2.0391-22.32 8.6406-9 16.801-18.48 25.199-27.719 1.9219-2.1602 4.1992-5.1602 7.1992-2.6406 3.2383 2.7617 0.71875 5.7617-0.96094 8.0391-7.3203 9.6016-14.762 19.078-22.078 28.68-3.7188 4.8008-7.0781 9.7227-11.398 15.961z"/>
 <path d="m38.398 449.4c-0.12109-3.9609 2.6406-5.5195 5.0391-6.7188 14.762-7.3203 29.641-14.398 44.52-21.48 2.5195-1.1992 6-2.2812 7.1992 1.6797 0.96094 3.2383-1.4414 6-4.1992 7.3203-9.6016 4.5586-19.32 8.7617-29.039 13.199-5.7617 2.6406-11.398 5.3984-17.16 7.8008-2.1562 0.72266-4.6797 0.96094-6.3594-1.8008z"/>
 <path d="m23.52 405.48c4.3203-4.6797 9-4.5586 13.078-4.6797 12.961-0.12109 25.922 0.48047 38.879 0.83984 2.2812 0.12109 5.1602-0.12109 5.6406 3.3594 0.48047 4.1992-2.7617 4.9219-5.5195 5.7617-1.3203 0.35938-2.8789 0.71875-4.3203 0.48047-11.039-1.6797-22.078 0.35937-33.121 0.48047-5.0352-0.003906-10.555 0.35547-14.637-6.2422z"/>
 <path d="m795.72 308.4c3.1211-3 7.6797-0.60156 11.16 0.96094 11.52 5.2812 22.922 10.922 34.922 14.879 2.7617 0.96094 5.7617 2.3984 5.1602 6.3594-0.71875 4.0781-4.0781 3.8398-6.9609 3.6016-1.9219-0.12109-3.8398-0.60156-5.5195-1.4414-12.719-6.3594-25.32-12.84-37.922-19.441-1.3203-0.47656-2.5195-1.918-0.83984-4.918z"/>
 <path d="m131.16 404.52c17.52-0.96094 34.32 2.7617 51 7.3203 1.0781 0.23828 2.2812 2.0391 2.6406 3.2383 0.35938 1.6797-1.0781 3.3594-2.3984 3.2383-17.398-1.3203-35.398 1.4414-51.238-9.7188-0.24219-0.11719-0.003906-0.95703-0.003906-4.0781z"/>
 <path d="m850.08 252.6c0.83984 3.6016-1.0781 6.2383-3.4805 7.8008-11.52 7.5586-23.039 14.879-34.68 22.078-2.5195 1.5586-6 2.3984-7.9219-0.48047-2.1602-3.3594 0.48047-5.8789 3-7.5586 12.121-8.3984 24.359-16.559 37.68-22.559 1.8047-0.72266 3.7227-1.082 5.4023 0.71875z"/>
 <path d="m172.32 461.4c-1.4414 1.5586-2.7617 0.83984-3.8398 0-12.359-10.801-24.602-21.602-36.84-32.52-2.3984-2.1602-3.9609-5.1602-1.9219-8.1602s5.6406-2.7617 7.5586-0.23828c9.8398 12.121 23.039 20.398 32.52 33 1.6836 2.3984 4.4414 4.3203 2.5234 7.918z"/>
 <path d="m761.64 267.24c-6.6016-4.5586-6.9609-9.6016-8.1602-13.801-3.7188-13.559-7.0781-27.359-10.199-41.039-0.71875-3-0.12109-6.7188 3.6016-7.3203 2.8789-0.35938 3.8398 2.7617 4.5586 5.1602 5.3984 17.883 9.2383 36 10.199 57z"/>
 <path d="m809.64 206.88c0.60156 15-17.16 53.641-28.68 61.559 6.7188-23.039 15.238-42.719 28.68-61.559z"/>
 <path d="m125.4 452.28c0.35937-5.0391-0.71875-8.8789 3.2383-9.6016 3.1211-0.48047 3.9609 2.6406 4.5586 5.0391 3.2383 12.238 6.2383 24.48 9.1211 36.719 0.83984 3.6016 1.3203 7.9219-3.3594 8.8789-3.9609 0.83984-4.1992-3.2383-4.9219-6.2383-2.9961-12.238-5.9961-24.477-8.6367-34.797z"/>
 <path d="m778.92 335.76c6.3594-0.35938 7.8008 3.6016 9.6016 6.3594 6.4805 9.8398 12.48 20.039 18.48 30.238 1.5586 2.6406 2.5195 5.7617 3.1211 8.7617 0.23828 1.0781-0.83984 3-1.6797 3.9609-1.3203 1.3203-2.7617 0.23828-3.6016-0.96094-9.9648-14.762-19.922-29.281-25.922-48.359z"/>
 <path d="m59.641 383.4c-11.281 4.1992-19.922-0.48047-28.801-3.4805-3.2383-1.0781-6.1211-4.1992-4.0781-8.5195 1.5586-3.3594 4.9219-2.6406 7.5586-1.1992 8.3984 4.3203 16.801 8.7617 25.32 13.199z"/>
 <path d="m81.359 450.6c-5.1602 12.238-15.602 15.359-24.359 21-1.1992 0.83984-2.7617 0.23828-3.8398-1.0781-0.83984-1.1992-1.6797-2.8789-0.35938-4.0781 8.1602-8.4062 17.039-15.367 28.559-15.844z"/>
 <path d="m56.039 422.76c-10.199 11.039-19.68 10.078-29.039 9.4805-2.0391-0.12109-3.7188-1.6797-3.9609-3.8398-0.23828-2.3984 1.5586-3.7188 3.3594-4.1992 8.7617-2.5234 17.641-1.5625 29.641-1.4414z"/>
 <path d="m71.039 356.28c-5.5195-10.441-9.8398-18.602-14.039-26.762-0.96094-1.9219-0.83984-4.1992 0.83984-5.6406 0.60156-0.48047 1.9219-0.60156 2.6406-0.23828 6.6016 3.3594 8.3984 11.16 12.602 16.801 3.4766 4.6797 0.95703 8.6367-2.043 15.84z"/>
 <path d="m821.4 299.4c3.1211-6.2383 5.2812-10.801 9.9609-11.039 6.1211-0.35938 12.359 0.35938 18.602 0.96094 1.3203 0.12109 2.6406 1.6797 2.1602 3.4805-0.35938 1.3203-1.3203 3-2.3984 3.3594-8.7617 3.3594-17.523 4.6797-28.324 3.2383z"/>
 <path d="m732.84 248.4c-0.35938 0.96094-0.48047 2.1602-1.0781 2.7617-1.0781 1.0781-2.2812 1.1992-3.7188 0.23828-6-4.0781-13.68-18.602-12.238-23.52 0.48047-1.6797 1.8008-2.3984 3.2383-2.0391 3.7188 0.60156 13.676 17.16 13.797 22.559z"/>
 <path d="m832.68 235.44c-4.3203 14.16-9.7188 18.48-23.879 19.32 4.0781-8.8828 12.359-15.48 23.879-19.32z"/>
 <path d="m719.16 341.04c-10.801 5.6406-19.441 11.281-29.398 13.078-2.2812 0.48047-5.0391 0.23828-5.7617-3-0.71875-3.6016 1.9219-4.3203 4.3203-4.6797 9.7188-1.5586 17.758-11.277 30.84-5.3984z"/>
 <path d="m115.56 465.24c-2.3984 6-5.1602 13.199-8.2812 20.16-0.35938 0.83984-2.7617 1.3203-3.7188 0.71875-0.96094-0.48047-2.0391-2.6406-1.8008-3.7188 1.5586-7.1992 3.2383-14.281 5.2812-21.238 0.60156-1.8008 2.3984-3.1211 4.6797-2.0391 1.8008 0.95703 2.7617 2.6406 3.8398 6.1172z"/>
 <path d="m166.44 343.08c-0.48047 4.8008-8.0391 14.039-12.121 14.398-2.8789 0.23828-6.3594-0.83984-5.1602-5.0391 1.6797-6 5.0391-11.281 10.441-13.801 3.4766-1.5586 6.4766 0.125 6.8398 4.4414z"/>
 <path d="m828.24 352.68c-10.441 3.9609-16.559-2.8789-23.039-8.5195-1.5586-1.4414-1.4414-3.9609-0.35938-5.6406 1.9219-2.7617 5.0391-3.9609 7.4414-1.6797 5.1602 5.0391 12.238 7.6797 15.957 15.84z"/>
 <path d="m786.12 408.6c-5.3984-7.9219-6.9609-16.801-6.8398-26.039 0-2.2812 1.3203-4.0781 3.4805-3.7188 1.0781 0.23828 2.7617 1.5586 2.8789 2.6406 1.5586 8.875 4.6797 17.754 0.48047 27.117z"/>
 <path d="m781.92 217.56c-0.35938 5.7617 0.60156 11.879-4.8008 15.48-0.83984 0.60156-3.2383 0.35938-3.8398-0.48047-3.6016-4.6797-0.35938-9.9609-0.48047-15 0-1.5586 0-3.1211 0.48047-4.5586 0.71875-2.5195 1.9219-4.9219 4.8008-4.4414 2.0391 0.35938 3 2.3984 3.3594 4.5586 0.35938 1.4414 0.35938 3.0039 0.48047 4.4414z"/>
 <path d="m706.2 296.88c-9.8398 4.3203-17.16 4.4414-24.359 1.3203-2.0391-0.83984-4.8008-1.6797-3.8398-5.2812 0.60156-2.2812 2.3984-3.4805 4.3203-3.3594 7.3203 0.60156 14.879 0.48047 23.879 7.3203z"/>
 <path d="m112.2 405.12c4.1992 0.48047 8.5195 1.6797 9 7.6797 0.35938 4.4414-0.83984 8.6406-5.7617 9.3594-3.9609 0.60156-8.2812-4.9219-8.3984-10.801-0.11719-3.5977 1.082-6.1211 5.1602-6.2383z"/>
 <path d="m112.8 348.96c-2.7617-10.441-2.0391-18.84-0.23828-27.359 0.35938-1.8008 1.8008-2.7617 3-2.3984 1.1992 0.23828 2.7617 1.5586 3 2.6406 1.5586 9.2344 1.918 18.117-5.7617 27.117z"/>
 <path d="m155.64 476.52c-4.3203 0.23828-13.559-13.199-11.762-17.16 0.48047-0.96094 2.3984-1.8008 3.4805-1.6797 4.8008 0.71875 11.16 9 11.281 14.52 0 2.1602-0.71875 4.082-3 4.3203z"/>
 <path d="m188.88 389.16c-10.199 9.1211-12.84 9.7188-26.16 6.2383 8.7617-6.3594 17.52-5.5195 26.16-6.2383z"/>
 <path d="m525 990c-8.6406 2.3984-14.16 11.762-23.641 12.238 8.0391-10.68 18-17.762 30.359-23.398-0.35938 7.3203-5.7617 7.5586-7.0781 11.52 0.12109 0 0.35938-0.35938 0.35938-0.35938z"/>
</svg>
