<?xml version="1.0" encoding="UTF-8"?>
<svg width="1200pt" height="1200pt" version="1.1" viewBox="0 0 1200 1200" xmlns="http://www.w3.org/2000/svg">
 <path d="m874.04 749.6c21.902 0 39.059-26.719 39.059-60.82 0-34.137-17.156-60.867-39.059-60.867-21.902 0-39.059 26.73-39.059 60.867 0 34.102 17.156 60.82 39.059 60.82zm0-103.69c9.9375 0 21.059 18.328 21.059 42.867 0 24.504-11.121 42.82-21.059 42.82s-21.059-18.316-21.059-42.82c0-24.539 11.121-42.867 21.059-42.867z"/>
 <path d="m254.92 749.6c21.926 0 39.102-26.719 39.102-60.82 0-34.137-17.172-60.867-39.102-60.867-21.895 0-39.051 26.73-39.051 60.867-0.003907 34.102 17.152 60.82 39.051 60.82zm0-103.69c9.9609 0 21.102 18.328 21.102 42.867 0 24.504-11.141 42.82-21.102 42.82-9.9375 0-21.051-18.316-21.051-42.82-0.003907-24.539 11.113-42.867 21.051-42.867z"/>
 <path d="m1059.2 427.77c-0.96094-3.9102-4.3945-6.6992-8.4141-6.8438-183.48-6.6328-226.15-58.68-260.45-100.51-24.27-29.602-47.203-57.57-111.7-57.57-12.855 0-25.512 3.3516-36.609 9.6836-19.961 11.348-33.145 30.797-36.48 52.934h-77.652c-0.34766-3.0508-0.90234-6.0547-1.6445-9.0391 14.051-10.488 29.934-32.406 18.047-75.594-0.82812-3.0078-3.1523-5.3711-6.1445-6.2461-3-0.87891-6.2305-0.13672-8.5469 1.9453-8.5547 7.6953-27.973 6.9023-48.539 6.0703-29.555-1.207-63.016-2.5547-85.594 19.133-14.219 13.656-21.727 34.352-22.988 63.734h-11.996c-19.527 0-37.02 12.309-43.5 30.598l-49.148 137.07c-93.602 39.105-91.121 176.77-89.512 259.64 0.11328 5.9648 0.20703 11.445 0.26953 16.672-9.0859 1.7734-17.457 6.1914-24.176 12.895-8.918 8.9297-13.828 20.742-13.828 33.281 0 25.957 21.117 47.074 47.074 47.074h72.863l7.2539 58.066c2.0508 16.359 13.523 30.562 29.934 37.066 13.297 5.2734 28.203 7.9453 44.301 7.9453 16.102 0 31.008-2.6719 44.301-7.9453 16.422-6.5039 27.891-20.719 29.934-37.078l7.2578-58.055h282.03l7.2539 58.066c2.0508 16.383 13.535 30.586 29.941 37.066 13.301 5.2734 28.195 7.9453 44.297 7.9453 16.125 0 31.02-2.6719 44.25-7.9453 16.43-6.4922 27.902-20.695 29.941-37.066l7.2969-58.066h72.824c12.586 0 24.422-4.8867 33.34-13.781 8.8828-8.9062 13.781-20.73 13.781-33.293 0-22.844-16.398-41.906-38.051-46.145 0.0625-5.2422 0.15234-10.738 0.26953-16.738 0.93359-47.289 2.0273-116.71-16.832-173.07 12.961 1.207 21.055 1.2773 21.496 1.2812h0.058594c3.9961 0 7.5117-2.6328 8.6367-6.4688 29.379-100.21 90.293-136.41 90.879-136.75 3.4961-2 5.2422-6.0664 4.2812-9.9688zm-383.61-146.73c36.141 29.938 42.543 59.637 45.395 92.258-4.5312 5.2617-9.8789 9.6875-15.984 12.93-10.371-25.234-9.2461-48.574-9.2227-48.828 0.21094-3.4961-1.6289-6.8281-4.7227-8.4844-24.492-13.191-32.215-33.543-34.59-43.438 6.0391-2.6055 12.516-4.0742 19.125-4.4375zm-111.09 220.05c-115.06 0-199.71 28.871-230.68 41.227v-8.6641c3.3828-1.4336 8.3711-3.457 14.848-5.8438 0.003907 0 0.003907-0.003906 0.007813-0.003906s0.007812 0 0.011718-0.003906c34.008-12.617 104.99-34.141 198.37-36.578 0.066406 0 0.12891 0 0.19531-0.003906 11.293-0.44141 23.266-0.43359 34.551 0 0.027344 0.003906 0.050781-0.011719 0.078125-0.011719 0.015625 0 0.027343 0.011719 0.042969 0.011719 93.504 2.4258 164.44 23.957 198.39 36.578 0.007813 0.003906 0.019532 0 0.027344 0.003906l7.8594 3c2.293 1.6758 4.6484 3.2148 6.9961 4.7695v6.7344c-30.977-12.352-115.6-41.215-230.69-41.215zm230.68 60.719v189.4c-1.6055 0.41797-3.2148 0.82422-4.793 1.418-6.6953 2.4805-11.195 8.7461-12.027 15.926h-427.69c-0.83203-7.1797-5.3242-13.441-11.949-15.902-1.6094-0.61328-3.2617-1.0352-4.9102-1.457v-189.38c21.562-9.0586 109.82-42.719 230.68-42.719 120.89 0 209.12 33.656 230.68 42.719zm-332.59-206.93c-0.26953 0.38281-0.69922 0.85547-1.2344 0.94922-0.042969 0.007812-0.078126 0.015625-0.11719 0.023437-0.40234 0.066407-0.94922-0.070312-1.5078-0.45703-1.2188-0.84375-2.1445-2.4453-2.4844-4.3633-0.35156-1.8594-0.050781-3.7031 0.79688-4.9414 0.39062-0.57031 0.82812-0.90234 1.2891-0.98437 0.085938-0.015626 0.17188-0.023438 0.25391-0.023438 0.51562 0 1.0195 0.26562 1.3633 0.51172 1.2344 0.85547 2.1719 2.4648 2.5078 4.2773 0.33203 1.8828 0.003906 3.7539-0.86719 5.0078zm22.621-24.539c8.957-0.70312 17.273-2.4531 24.684-5.1914 0.45312 2.9062 0.67188 5.9766 0.67188 9.3086v7.0781c0 7.4531-1.5469 14.598-4.6094 21.258-7.7383 16.992-24.172 28.383-42.586 29.863 17.934-22.809 21.395-48.684 21.84-62.316zm-25.926 80.484h32.07c12.723 0 23.074 10.355 23.074 23.074v9.3633h-128.03v-9.3633c0-12.723 10.355-23.074 23.074-23.074zm64.141 50.438h5.2383c2.4727 0 4.6875 1.7695 5.2383 4.125l1.8398 8.2148c-78.457 3.293-140.67 19.477-177.84 31.883l9.0156-40.059c0.54688-2.4141 2.7344-4.1602 5.1992-4.1602h5.2852zm69.902 12.34 1.8633-8.2422c0.51953-2.3711 2.6914-4.0977 5.1445-4.0977h134.32c0.19141 0.52344 0.33203 1.043 0.53125 1.5703 5.1523 13.852 12.68 26.559 21.996 38.266-37.848-11.562-94.309-24.578-163.85-27.496zm21.293-30.34v-9.3633c0-12.723 10.348-23.074 23.074-23.074h81.879c1.4961 0 2.9844 0.17187 4.4492 0.46094 0.98828 9.8164 2.4922 20.594 5.2734 31.977zm8.0625-108.48c0.53125-15.215 7.1172-29.102 18.039-39.094 4.2852 13.105 14.184 32.309 36.992 46.312 0.14063 9.3516 1.6211 28.906 10.121 50.055-3.0078 0.49609-6.0781 0.77734-9.207 0.77734-21.07 0-40.16-11.652-49.816-30.422-4.043-7.8281-6.1758-16.676-6.1758-25.57zm-94.215 8.6836h76.562c0.42969 4.7773 1.3438 9.4766 2.6797 14.07h-81.047c1.0859-4.5781 1.6758-9.2773 1.8047-14.07zm87.289 32.066c4.2188 6.8555 9.3477 12.934 15.328 17.965-19.5 3.1875-34.465 20.023-34.465 40.406v9.6875c-9.2383 1.5156-16.945 8.5547-18.996 17.844l-2.6367 11.656c-6.9766-0.16016-13.949-0.16016-20.914 0l-2.6289-11.727c-2.2031-9.4102-9.7656-16.293-19.02-17.781v-9.6836c0-18.434-12.289-33.887-29.043-39.066 6.4453-5.3203 11.863-11.855 16.078-19.305zm-225.55-42.188c0-28.004 5.7969-47.18 17.711-58.629 17.055-16.363 45.176-15.246 72.398-14.129 18.195 0.73828 35.641 1.4336 49.148-3.5195 3.6797 22.621-2.3672 38.609-18.047 47.59-0.007813 0.003907-0.007813 0.007813-0.015626 0.011719-0.003906 0.003907-0.011718 0.003907-0.015624 0.003907-9.0781 5.25-21.289 8.0195-35.316 8.0195-2.5312 0-4.9414 1.0781-6.6445 2.9414-1.7031 1.8672-2.543 4.3828-2.3164 6.8945 0.007812 0.097656 0.17578 2.4141 0.082031 6.125-3.5391-1.4648-7.3555-1.9375-11.098-1.2539-5.1992 0.94531-9.7734 3.9609-12.891 8.4883-3.5547 5.168-4.8906 11.895-3.6719 18.367 1.1602 6.5703 4.793 12.383 9.9648 15.949 1.7109 1.1875 3.5508 2.0742 5.4453 2.6914-4.0352 6.8945-9.4375 13.637-16.508 19.699-18.828-1.1523-35.742-12.516-43.633-29.828-3.0508-6.6484-4.6016-13.793-4.6016-21.234zm7.2109 61.5c-16.742 5.1875-29.02 20.637-29.02 39.059v9.6875c-9.1992 1.5195-16.918 8.5391-19.043 17.855l-11.527 51.238c-2.6953 1.0312-5.082 1.9609-7.1367 2.7969-2.4766-6.4375-6.4727-12.117-11.695-16.773l44.145-123.18h18.176c4.2227 7.457 9.6523 13.992 16.102 19.316zm-64.406 375.94v89.191c0 1.207-0.82813 2.332-2.0195 2.8125-5.6836 2.2148-11.223 2.2148-16.891 0.011719-1.2305-0.49219-2.0547-1.6289-2.0547-2.8242v-89.191c0-0.60937 0.32812-1.1719 0.64062-1.2773 3.2891-1.2305 6.5742-1.8516 9.8281-1.8516 0.57812 0 1.168 0.023438 1.7539 0.070313 2.7266 0.16406 5.4375 0.76172 8.1328 1.7812 0.28516 0.10547 0.60938 0.65625 0.60938 1.2773zm0.91797-408.68c3.9492-11.148 14.617-18.641 26.543-18.641h11.836c0.12891 4.793 0.71875 9.4922 1.8047 14.07h-13.641c-5.8711 0-11.215 3.707-13.355 9.3672l-43.891 122.46c-4.5859-1.4883-9.3906-2.2227-14.184-2.0469zm-55.727 145.99c0.042968-0.015625 0.070312-0.054687 0.11328-0.070312 0.050781-0.019532 0.10938-0.019532 0.16016-0.039063 1.3047-0.53906 2.6953-0.99609 4.1523-1.4648 7.1016-2.3164 14.508-1.3477 20.883 2.7344 0.011718 0.007813 0.027343 0.011719 0.042968 0.019532 0.007813 0.007812 0.015625 0.015625 0.023438 0.023437 6.8906 4.3359 11.285 11.395 12.109 19.84 0.10938 0.73438 0.12109 1.5234 0.12109 2.2852v218.74c-3.1523 0.48828-6.2969 1.3086-9.4023 2.4727-6.6992 2.4805-11.199 8.7461-12.031 15.926l-97.793-0.003906c-0.066406-5.0781-0.15234-10.387-0.26562-16.137-1.543-79.348-4.125-212.15 81.887-244.33zm-90.543 336.6c-16.031 0-29.074-13.043-29.074-29.074 0-7.7344 3.043-15.035 8.5547-20.543 5.5039-5.4961 12.785-8.5195 20.52-8.5195h106.38v58.137zm210.73 73.828c-1.2305 9.832-8.3945 18.48-18.707 22.57-22.359 8.8594-52.98 8.8594-75.34 0-10.305-4.0898-17.473-12.738-18.707-22.57l-6.9766-55.828h15.797c0.99609 7.4922 5.7578 13.969 13.078 16.863 4.9805 1.9336 9.9961 2.9062 15.008 2.9062 5.0195 0 10.043-0.97266 15.027-2.9297 7.2812-2.8711 12.031-9.3477 13.027-16.84h54.773zm-47.379-73.828v-58.137h427.02v58.137zm492.35 73.828c-1.2305 9.8438-8.3906 18.492-18.715 22.57-22.254 8.8594-52.898 8.8594-75.293 0-10.301-4.0664-17.473-12.727-18.703-22.57l-6.9766-55.828h54.766c0.99219 7.4727 5.7305 13.949 13.027 16.863 4.9688 1.9336 9.9844 2.8945 15 2.8945 5.0391 0 10.078-0.97266 15.105-2.9297 7.2461-2.8828 11.977-9.3555 12.969-16.828h15.828zm-27-149c0.28125 0.10547 0.59766 0.62109 0.59766 1.2656v89.191c0 1.207-0.82031 2.3438-1.9688 2.8008-5.7305 2.2266-11.285 2.2148-16.922 0.035156-1.2188-0.49219-2.0391-1.6289-2.0391-2.8359v-89.191c0-0.62109 0.32813-1.1719 0.65625-1.2891 2.7305-1.0195 5.3672-1.6055 8.1211-1.7812 0.57422-0.035156 1.1602-0.058594 1.7344-0.058594 3.2109 0 6.4336 0.60938 9.8203 1.8633zm-3.1758-19.348v-203.86c34.422 18.148 72.199 26.797 100.77 30.938 20.922 54.461 19.68 126.76 18.734 175.14-0.11719 5.7695-0.20703 11.086-0.27344 16.172h-97.801c-0.83203-7.1992-5.3516-13.473-12.035-15.926-3.1211-1.1602-6.2656-1.9766-9.3984-2.4648zm128.16 36.387c16.055 0 29.121 13.043 29.121 29.062 0 7.7578-3.0234 15.059-8.5195 20.555-5.4961 5.4961-12.809 8.5195-20.602 8.5195h-106.38v-58.137zm7.4648-223.85c-5.8945-0.29688-15.363-0.98047-26.988-2.5039-29.973-3.9258-72.719-13.254-109.07-34.852-0.68359-2.4102-2.2734-4.5508-4.7148-5.707 0 0-3.875-1.8164-11.082-4.7227-2.918-2.1758-5.7734-4.4375-8.5391-6.8359-0.0625-0.054688-0.11719-0.11328-0.17969-0.16406-16.734-14.57-28.91-31.848-36.18-51.375-0.85547-2.293-1.6406-4.5352-2.3555-7.0234-5.2734-16.477-7.1719-32.391-8.3438-45.766-0.42188-4.9609-0.76172-9.8906-1.1133-14.77-0.29688-4.25-0.59375-8.4531-0.92969-12.605 0-0.085937-0.015625-0.16797-0.019531-0.25391-0.011719-0.16406-0.023437-0.33203-0.035156-0.49219-2.4258-30.352-7.4648-62.227-35.848-93.102 37.184 5.5898 52.746 24.578 73.008 49.297 34.957 42.633 78.082 95.227 248.94 105.87-21.715 19.32-55.523 58.133-76.547 125z"/>
</svg>
