<?xml version="1.0" encoding="UTF-8"?>
<svg width="1200pt" height="1200pt" version="1.1" viewBox="0 0 1200 1200" xmlns="http://www.w3.org/2000/svg">
 <path d="m969 258c0-4.9688-4.0312-9-9-9h-45.422c-3.0781-33.043-22.512-62.344-51.75-78.039-29.242-15.695-64.398-15.695-93.641 0-29.238 15.695-48.672 44.996-51.754 78.039h-18.855c-3.0781-33.043-22.512-62.344-51.75-78.039-29.242-15.695-64.398-15.695-93.641 0-29.238 15.695-48.672 44.996-51.754 78.039h-18.855c-3.0781-33.043-22.512-62.344-51.75-78.039-29.242-15.695-64.398-15.695-93.641 0-29.238 15.695-48.672 44.996-51.754 78.039h-45.434c-4.9688 0-9 4.0312-9 9v341.25c0 4.9688 4.0312 9 9 9s9-4.0312 9-9v-152.25h585c4.9688 0 9-4.0312 9-9s-4.0312-9-9-9h-585v-162h215.45c-1.5234 14.164-6.7812 27.672-15.234 39.141-8.457 11.465-19.805 20.48-32.887 26.125-5.1445-10.578-15.133-17.977-26.75-19.812-11.621-1.8398-23.402 2.1172-31.559 10.59-8.1602 8.4766-11.66 20.402-9.3828 31.941 2.2773 11.539 10.051 21.238 20.82 25.977 10.766 4.7383 23.168 3.918 33.215-2.1992 10.051-6.1172 16.477-16.758 17.211-28.496 17.199-6.6172 32.191-17.934 43.273-32.652 11.082-14.723 17.809-32.258 19.414-50.613h197.88c-1.5234 14.164-6.7812 27.672-15.234 39.141-8.457 11.465-19.805 20.48-32.887 26.125-5.1445-10.578-15.133-17.977-26.75-19.812-11.621-1.8398-23.402 2.1172-31.559 10.59-8.1602 8.4766-11.66 20.402-9.3828 31.941 2.2773 11.539 10.051 21.238 20.82 25.977 10.766 4.7383 23.168 3.918 33.215-2.1992 10.051-6.1172 16.477-16.758 17.211-28.496 17.199-6.6172 32.191-17.934 43.273-32.652 11.082-14.723 17.809-32.258 19.414-50.613h197.88c-1.5234 14.164-6.7812 27.672-15.234 39.141-8.457 11.465-19.805 20.48-32.887 26.125-5.1445-10.578-15.133-17.977-26.75-19.812-11.621-1.8398-23.402 2.1172-31.559 10.59-8.1602 8.4766-11.66 20.402-9.3828 31.941 2.2773 11.539 10.051 21.238 20.82 25.977 10.766 4.7383 23.168 3.918 33.215-2.1992 10.051-6.1172 16.477-16.758 17.211-28.496 17.199-6.6172 32.191-17.934 43.273-32.652 11.082-14.723 17.809-32.258 19.414-50.613h36.434v162h-61.875c-4.9688 0-9 4.0312-9 9s4.0312 9 9 9h61.875v441c-0.023438 21.477-8.5664 42.062-23.75 57.25-15.188 15.184-35.773 23.727-57.25 23.75h-540c-21.477-0.023438-42.062-8.5664-57.25-23.75-15.184-15.188-23.727-35.773-23.75-57.25v-233.25c0-4.9688-4.0312-9-9-9s-9 4.0312-9 9v233.25c0.027344 26.246 10.469 51.414 29.027 69.973s43.727 29 69.973 29.027h540c26.246-0.027344 51.414-10.469 69.973-29.027s29-43.727 29.027-69.973zm-585 72c5.832 0.015625 11.293 2.8555 14.656 7.6211-9.6914 1.7461-19.621 1.7461-29.312 0 3.3633-4.7656 8.8242-7.6055 14.656-7.6211zm0 36c-3.4102-0.011719-6.75-0.99219-9.625-2.8242-2.8789-1.8359-5.1719-4.4492-6.6211-7.5391 10.75 1.8203 21.727 1.8203 32.477 0-1.4453 3.0859-3.7383 5.6992-6.6133 7.5352-2.8711 1.832-6.207 2.8164-9.6172 2.8281zm216-36c5.832 0.015625 11.293 2.8555 14.656 7.6211-9.6914 1.7461-19.621 1.7461-29.312 0 3.3633-4.7656 8.8242-7.6055 14.656-7.6211zm0 36c-3.4102-0.011719-6.75-0.99219-9.625-2.8242-2.8789-1.8359-5.1719-4.4492-6.6211-7.5391 10.75 1.8203 21.727 1.8203 32.477 0-1.4453 3.0859-3.7383 5.6992-6.6133 7.5352-2.8711 1.832-6.207 2.8164-9.6172 2.8281zm216-36c5.832 0.015625 11.293 2.8555 14.656 7.6211-9.6914 1.7461-19.621 1.7461-29.312 0 3.3633-4.7656 8.8242-7.6055 14.656-7.6211zm0 36c-3.4102-0.011719-6.75-0.99219-9.625-2.8242-2.8789-1.8359-5.1719-4.4492-6.6211-7.5391 10.75 1.8203 21.727 1.8203 32.477 0-1.4453 3.0859-3.7383 5.6992-6.6133 7.5352-2.8711 1.832-6.207 2.8164-9.6172 2.8281zm0-189c19.914 0.027344 39.125 7.3789 53.965 20.656s24.277 31.555 26.512 51.344h-160.95c2.2344-19.789 11.672-38.066 26.512-51.344s34.051-20.629 53.965-20.656zm-216 0c19.914 0.027344 39.125 7.3789 53.965 20.656s24.277 31.555 26.512 51.344h-160.95c2.2344-19.789 11.672-38.066 26.512-51.344s34.051-20.629 53.965-20.656zm-216 0c19.914 0.027344 39.125 7.3789 53.965 20.656s24.277 31.555 26.512 51.344h-160.95c2.2344-19.789 11.672-38.066 26.512-51.344s34.051-20.629 53.965-20.656z"/>
 <path d="m562.88 653.55c-28.238-11.348-59.773-11.316-87.988 0.089844l-11.477-22.934v-0.003906c-1.5234-3.0508-4.6445-4.9805-8.0547-4.9766h-12.734c-2.3867 0-4.6758 0.94922-6.3594 2.6367l-50.91 50.91c-1.6914 1.6875-2.6406 3.9766-2.6406 6.3633v12.734c-0.003907 3.4102 1.9258 6.5312 4.9805 8.0547l22.934 11.477v-0.003906c-12.902 31.688-11.293 67.434 4.4102 97.828 15.703 30.395 43.922 52.395 77.227 60.207 33.309 7.8164 68.367 0.66016 95.949-19.582 32.105 21.383 71.828 28.012 109.14 18.207 37.309-9.8008 68.645-35.094 86.094-69.496 17.453-34.402 19.352-74.629 5.2227-110.52-14.133-35.895-42.945-64.031-79.164-77.305l6.6016-13.215c1.2656-2.5352 1.2656-5.5195 0-8.0547l-9-18c-1.5352-3.0625-4.6758-4.9844-8.1016-4.9648h-72c-3.4102 0-6.5312 1.9258-8.0547 4.9805l-9 18c-1.2695 2.5352-1.2695 5.5195 0 8.0547l6.6016 13.215c-20.566 7.582-38.98 20.035-53.672 36.301zm-147.48 46.59-14.684-7.3359v-3.4336l45.645-45.645h3.4336l7.3359 14.684zm33.602 131.86c-18.531-18.578-28.934-43.75-28.934-69.988 0-26.242 10.402-51.41 28.934-69.992 13.098-13.109 29.625-22.262 47.684-26.414 18.062-4.1523 36.926-3.1328 54.434 2.9414-18.297 27.07-26.137 59.871-22.055 92.289 4.082 32.422 19.805 62.254 44.242 83.945-19.043 12.453-41.785 17.98-64.418 15.652-22.633-2.3281-43.777-12.367-59.887-28.434zm138.55 1.3203c-22.484-18.926-36.996-45.637-40.645-74.797s3.8359-58.625 20.965-82.508c26.949 15.168 45.23 42.094 49.383 72.742 4.1523 30.645-6.3047 61.465-28.25 83.258-0.46484 0.48047-1.0039 0.83984-1.4531 1.3047zm45-224.32-4.5-9 4.5-9h60.871l4.5 9-4.5 9zm30.449 18c36.598-0.011719 71.094 17.102 93.223 46.25 22.133 29.148 29.348 66.973 19.504 102.22-9.8438 35.25-35.613 63.863-69.645 77.324-34.031 13.465-72.402 10.23-103.7-8.7422 25.074-25.492 37.113-61.047 32.688-96.531-4.4258-35.48-24.832-66.988-55.398-85.539 21.945-22.387 51.977-34.992 83.324-34.98z"/>
 <path d="m249 627c0 4.9688-4.0312 9-9 9s-9-4.0312-9-9 4.0312-9 9-9 9 4.0312 9 9"/>
 <path d="m870 438c0 4.9688-4.0312 9-9 9s-9-4.0312-9-9 4.0312-9 9-9 9 4.0312 9 9"/>
 <path d="m132 312c0-4.9688-4.0312-9-9-9h-18c-4.9688 0-9 4.0312-9 9s4.0312 9 9 9h18c4.9688 0 9-4.0312 9-9z"/>
 <path d="m177 303h-18c-4.9688 0-9 4.0312-9 9s4.0312 9 9 9h18c4.9688 0 9-4.0312 9-9s-4.0312-9-9-9z"/>
 <path d="m141 321c-4.9688 0-9 4.0312-9 9v18c0 4.9688 4.0312 9 9 9s9-4.0312 9-9v-18c0-2.3867-0.94922-4.6758-2.6367-6.3633s-3.9766-2.6367-6.3633-2.6367z"/>
 <path d="m141 303c4.9688 0 9-4.0312 9-9v-18c0-4.9688-4.0312-9-9-9s-9 4.0312-9 9v18c0 2.3867 0.94922 4.6758 2.6367 6.3633s3.9766 2.6367 6.3633 2.6367z"/>
 <path d="m222 1023h-18c-4.9688 0-9 4.0312-9 9s4.0312 9 9 9h18c4.9688 0 9-4.0312 9-9s-4.0312-9-9-9z"/>
 <path d="m276 1023h-18c-4.9688 0-9 4.0312-9 9s4.0312 9 9 9h18c4.9688 0 9-4.0312 9-9s-4.0312-9-9-9z"/>
 <path d="m240 1041c-4.9688 0-9 4.0312-9 9v18c0 4.9688 4.0312 9 9 9s9-4.0312 9-9v-18c0-4.9688-4.0312-9-9-9z"/>
 <path d="m240 987c-4.9688 0-9 4.0312-9 9v18c0 4.9688 4.0312 9 9 9s9-4.0312 9-9v-18c0-2.3867-0.94922-4.6758-2.6367-6.3633s-3.9766-2.6367-6.3633-2.6367z"/>
 <path d="m222 150h18c4.9688 0 9-4.0312 9-9s-4.0312-9-9-9h-18c-4.9688 0-9 4.0312-9 9s4.0312 9 9 9z"/>
 <path d="m294 132h-18c-4.9688 0-9 4.0312-9 9s4.0312 9 9 9h18c4.9688 0 9-4.0312 9-9s-4.0312-9-9-9z"/>
 <path d="m258 150c-4.9688 0-9 4.0312-9 9v18c0 4.9688 4.0312 9 9 9s9-4.0312 9-9v-18c0-4.9688-4.0312-9-9-9z"/>
 <path d="m258 132c4.9688 0 9-4.0312 9-9v-18c0-4.9688-4.0312-9-9-9s-9 4.0312-9 9v18c0 4.9688 4.0312 9 9 9z"/>
 <path d="m1041 591h-18c-4.9688 0-9 4.0312-9 9s4.0312 9 9 9h18c4.9688 0 9-4.0312 9-9s-4.0312-9-9-9z"/>
 <path d="m1095 591h-18c-4.9688 0-9 4.0312-9 9s4.0312 9 9 9h18c4.9688 0 9-4.0312 9-9s-4.0312-9-9-9z"/>
 <path d="m1059 609c-4.9688 0-9 4.0312-9 9v18c0 4.9688 4.0312 9 9 9s9-4.0312 9-9v-18c0-2.3867-0.94922-4.6758-2.6367-6.3633s-3.9766-2.6367-6.3633-2.6367z"/>
 <path d="m1050 564v18c0 4.9688 4.0312 9 9 9s9-4.0312 9-9v-18c0-4.9688-4.0312-9-9-9s-9 4.0312-9 9z"/>
 <path d="m978 150h18c4.9688 0 9-4.0312 9-9s-4.0312-9-9-9h-18c-4.9688 0-9 4.0312-9 9s4.0312 9 9 9z"/>
 <path d="m1032 150h18c4.9688 0 9-4.0312 9-9s-4.0312-9-9-9h-18c-4.9688 0-9 4.0312-9 9s4.0312 9 9 9z"/>
 <path d="m1023 177v-18c0-4.9688-4.0312-9-9-9s-9 4.0312-9 9v18c0 4.9688 4.0312 9 9 9s9-4.0312 9-9z"/>
 <path d="m1014 132c4.9688 0 9-4.0312 9-9v-18c0-4.9688-4.0312-9-9-9s-9 4.0312-9 9v18c0 4.9688 4.0312 9 9 9z"/>
 <path d="m978 1050h-18c-4.9688 0-9 4.0312-9 9s4.0312 9 9 9h18c4.9688 0 9-4.0312 9-9s-4.0312-9-9-9z"/>
 <path d="m1032 1050h-18c-4.9688 0-9 4.0312-9 9s4.0312 9 9 9h18c4.9688 0 9-4.0312 9-9s-4.0312-9-9-9z"/>
 <path d="m996 1068c-4.9688 0-9 4.0312-9 9v18c0 4.9688 4.0312 9 9 9s9-4.0312 9-9v-18c0-4.9688-4.0312-9-9-9z"/>
 <path d="m987 1023v18c0 4.9688 4.0312 9 9 9s9-4.0312 9-9v-18c0-4.9688-4.0312-9-9-9s-9 4.0312-9 9z"/>
 <path d="m852 1077c0 4.9688-4.0312 9-9 9s-9-4.0312-9-9 4.0312-9 9-9 9 4.0312 9 9"/>
 <path d="m1068 879c0 4.9688-4.0312 9-9 9s-9-4.0312-9-9 4.0312-9 9-9 9 4.0312 9 9"/>
 <path d="m564 1023c0 4.9688-4.0312 9-9 9s-9-4.0312-9-9 4.0312-9 9-9 9 4.0312 9 9"/>
 <path d="m132 915c0 4.9688-4.0312 9-9 9s-9-4.0312-9-9 4.0312-9 9-9 9 4.0312 9 9"/>
 <path d="m204 717c0 4.9688-4.0312 9-9 9s-9-4.0312-9-9 4.0312-9 9-9 9 4.0312 9 9"/>
 <path d="m1014 375c0 4.9688-4.0312 9-9 9s-9-4.0312-9-9 4.0312-9 9-9 9 4.0312 9 9"/>
 <path d="m834 123c0 4.9688-4.0312 9-9 9s-9-4.0312-9-9 4.0312-9 9-9 9 4.0312 9 9"/>
 <path d="m150 519c0 4.9688-4.0312 9-9 9s-9-4.0312-9-9 4.0312-9 9-9 9 4.0312 9 9"/>
</svg>
