<?xml version="1.0" encoding="UTF-8"?>
<svg width="1200pt" height="1200pt" version="1.1" viewBox="0 0 1200 1200" xmlns="http://www.w3.org/2000/svg">
 <path d="m1138.7 1148.8h-1075.7c-28.266 0-51.465-23.199-51.465-51.465l-0.003906-680.8c0-28.266 23.199-51.465 51.465-51.465h19.199c7.4648 0 13.332 5.8672 13.332 13.332s-5.8672 13.332-13.332 13.332h-19.199c-13.602 0-24.801 11.199-24.801 24.801v680.8c0 13.602 11.199 24.801 24.801 24.801l1075.7-0.003907c13.602 0 24.801-11.199 24.801-24.801l-0.003906-680.8c0-13.602-11.199-24.801-24.801-24.801h-157.87c-7.4648 0-13.332-5.8672-13.332-13.332s5.8672-13.332 13.332-13.332l157.87-0.003906c28.266 0 51.465 23.199 51.465 51.465v680.8c0 28.27-23.199 51.469-51.465 51.469zm-528.54-757.07h-401.33c-7.4648 0-13.332-5.8672-13.332-13.332s5.8672-13.332 13.332-13.332h401.33c7.4648 0 13.332 5.8672 13.332 13.332s-5.8633 13.332-13.332 13.332z"/>
 <path d="m725.33 1148.8c-6.1328 0-11.465-4-13.066-10.133l-76-316.54h-343.46c-7.4648 0-13.332-5.8672-13.332-13.332 0-7.4648 5.8672-13.332 13.332-13.332h354.13c6.1328 0 11.465 4.2656 13.066 10.133l78.398 326.93c1.6016 7.1992-2.668 14.398-9.8672 16-1.0664 0.26562-2.1328 0.26562-3.1992 0.26562zm138.93 0c-6.1328 0-11.465-4-13.066-10.133l-78.398-326.93c-1.0664-4 0-8.2656 2.3984-11.465 2.3984-3.1992 6.3984-5.0664 10.398-5.0664h172c7.4648 0 13.332 5.8672 13.332 13.332s-5.8672 13.332-13.332 13.332h-154.93l74.668 310.4c1.6016 7.1992-2.668 14.398-9.8672 16-1.0664 0.53516-2.1328 0.53516-3.1992 0.53516zm312.54-326.67h-89.066c-7.4648 0-13.332-5.8672-13.332-13.332 0-7.4648 5.8672-13.332 13.332-13.332h89.066c7.4648 0 13.332 5.8672 13.332 13.332 0 7.4648-6.1328 13.332-13.332 13.332zm-1024 0h-128c-7.4648 0-13.332-5.8672-13.332-13.332 0-7.4648 5.8672-13.332 13.332-13.332h128c7.4648 0 13.332 5.8672 13.332 13.332 0 7.4648-6.1328 13.332-13.332 13.332zm1024-138.93h-762.67c-7.4648 0-13.332-5.8672-13.332-13.332v-291.47c0-7.4648 5.8672-13.332 13.332-13.332 7.4648 0 13.332 5.8672 13.332 13.332v278.13h749.33c7.4648 0 13.332 5.8672 13.332 13.332 0.003906 7.4688-6.1289 13.336-13.328 13.336zm-901.6 0h-250.67c-7.4648 0-13.332-5.8672-13.332-13.332 0-7.4648 5.8672-13.332 13.332-13.332h237.33l0.003907-278.14c0-7.4648 5.8672-13.332 13.332-13.332 7.4648 0 13.332 5.8672 13.332 13.332v291.46c0.003906 7.2031-5.8633 13.336-13.332 13.336z"/>
 <path d="m795.46 683.2c-13.867 0-26.668-5.332-36.266-14.934-0.80078-0.80078-1.6016-1.8672-2.1328-2.9336-9.8672-17.602-23.465-39.465-38.934-65.066-62.668-102.67-148.27-243.2-148.27-319.2 0-124.54 101.33-225.87 225.87-225.87s225.87 101.33 225.87 225.87c0 76-85.602 216.54-148.27 319.2-15.465 25.602-29.066 47.465-38.934 65.066-0.53516 1.0664-1.332 2.1328-2.1328 2.9336-10.137 9.6016-23.203 14.934-36.805 14.934zm26.934-24.531m-43.465-8.2695c4.5352 4 10.133 6.1328 16.266 6.1328 6.1328 0 11.734-2.1328 16.266-6.1328 10.133-17.602 23.199-39.199 38.398-64 57.602-94.398 144.27-236.8 144.27-305.33 0-109.87-89.332-199.2-199.2-199.2-109.87 0-199.2 89.332-199.2 199.2 0 68.535 86.934 211.2 144.27 305.33 15.738 24.801 29.07 46.402 38.938 64z"/>
 <path d="m795.46 415.73c-3.4648 0-6.9336-1.332-9.332-4-27.465-27.465-54.934-45.602-78.934-61.867-42.668-28.266-79.465-52.801-79.465-109.07 0-49.867 40.535-90.668 90.668-90.668 37.867 0 60 17.066 77.332 44 17.332-27.199 39.465-44 77.332-44 49.867 0 90.668 40.535 90.668 90.668 0 56-36.801 80.535-79.465 109.07-24.266 16.266-51.734 34.398-78.934 61.867-3.2031 2.6641-6.4023 4-9.8711 4zm-77.332-238.67c-35.199 0-64 28.801-64 64 0 41.867 25.332 58.668 67.465 86.934 22.668 14.934 47.734 31.734 73.602 56 25.867-24.266 51.199-41.066 73.602-56 42.133-28 67.465-45.066 67.465-86.934 0-35.199-28.801-64-64-64-30.398 0-46.133 12.266-65.332 50.668-2.1328 4.5352-6.9336 7.4648-12 7.4648s-9.6016-2.9336-12-7.4648c-18.668-38.402-34.398-50.668-64.801-50.668z"/>
 <path d="m222.67 1032.3c-7.4648 0-13.332-5.8672-13.332-13.332v-150.67c0-7.4648 5.8672-13.332 13.332-13.332 7.4648 0 13.332 5.8672 13.332 13.332v150.67c0 7.4648-5.8672 13.332-13.332 13.332z"/>
 <path d="m222.67 881.6c-46.398 0-84.266-37.867-84.266-84.266 0-46.398 37.867-84.266 84.266-84.266 46.398 0 84.266 37.867 84.266 84.266 0.26562 46.398-37.602 84.266-84.266 84.266zm0-141.87c-31.734 0-57.602 25.867-57.602 57.602 0 31.734 25.867 57.602 57.602 57.602s57.602-25.867 57.602-57.602c-0.003906-31.734-25.602-57.602-57.602-57.602z"/>
 <path d="m145.33 581.6c-7.4648 0-13.332-5.8672-13.332-13.332v-150.67c0-7.4648 5.8672-13.332 13.332-13.332 7.4648 0 13.332 5.8672 13.332 13.332v150.67c0.003907 7.4648-5.8633 13.332-13.332 13.332z"/>
 <path d="m145.33 430.93c-46.398 0-84.266-37.867-84.266-84.266 0-46.398 37.867-84.266 84.266-84.266 46.398 0 84.266 37.867 84.266 84.266 0.003906 46.398-37.598 84.266-84.266 84.266zm0-141.87c-31.734 0-57.602 25.867-57.602 57.602s25.867 57.602 57.602 57.602 57.602-25.867 57.602-57.602-25.602-57.602-57.602-57.602z"/>
 <path d="m1022.7 1072.3c-7.4648 0-13.332-5.8672-13.332-13.332v-150.67c0-7.4648 5.8672-13.332 13.332-13.332 7.4648 0 13.332 5.8672 13.332 13.332v150.67c0 7.4648-5.8672 13.332-13.332 13.332z"/>
 <path d="m1022.7 921.6c-46.398 0-84.266-37.867-84.266-84.266 0-46.398 37.867-84.266 84.266-84.266 46.398 0 84.266 37.867 84.266 84.266 0.26562 46.398-37.602 84.266-84.266 84.266zm0-141.87c-31.734 0-57.602 25.867-57.602 57.602 0 31.734 25.867 57.602 57.602 57.602s57.602-25.867 57.602-57.602c-0.003906-31.734-25.602-57.602-57.602-57.602z"/>
</svg>
