<?xml version="1.0" encoding="UTF-8"?>
<svg width="1200pt" height="1200pt" version="1.1" viewBox="0 0 1200 1200" xmlns="http://www.w3.org/2000/svg">
 <path d="m691.64 315.71c3.9844-6.5625 14.062-0.46875 10.078 5.8594-12.422 20.391-36.328 33.047-60.234 31.406-3.2812-0.23438-5.8594-2.5781-5.8594-5.8594 0-3.0469 2.5781-6.0938 5.8594-5.8594 19.688 1.4062 39.609-8.4375 50.156-25.547z"/>
 <path d="m690 285c0.70312 1.4062 0.9375 2.8125 0.46875 4.4531-0.23438 1.4062-1.4062 2.8125-2.5781 3.5156s-3.0469 0.9375-4.4531 0.70312c-1.4062-0.46875-2.8125-1.4062-3.5156-2.8125-2.5781-5.3906-5.1562-10.781-7.5-16.172-0.70312-1.4062-0.9375-2.8125-0.70312-4.4531 0.23438-1.4062 1.4062-2.8125 2.5781-3.5156s3.0469-0.9375 4.4531-0.46875c1.1719 0.46875 2.8125 1.4062 3.5156 2.8125 2.8125 5.1562 5.1562 10.547 7.7344 15.938z"/>
 <path d="m622.03 306.1c0.70312 1.4062 0.9375 2.8125 0.46875 4.4531-0.23438 1.4062-1.4062 2.5781-2.5781 3.5156s-3.0469 0.9375-4.4531 0.46875c-1.1719-0.23438-2.8125-1.4062-3.5156-2.5781-2.5781-5.3906-5.1562-10.781-7.5-16.172-0.70312-1.4062-0.9375-2.8125-0.46875-4.4531 0.23438-1.4062 1.4062-2.8125 2.5781-3.5156s3.0469-0.9375 4.4531-0.70312c1.1719 0.46875 2.8125 1.4062 3.5156 2.8125 2.3438 5.3906 4.9219 10.781 7.5 16.172z"/>
 <path d="m353.44 456.32c0.46875 0 0.9375-0.23438 0 0z"/>
 <path d="m1124.5 1020.2c-2.5781-9.8438-9.375-17.578-17.109-23.906-8.4375-6.5625-17.812-12.422-26.719-18.75-7.9688-5.3906-15.234-11.25-22.031-18.281 0.46875-1.1719 0.70312-2.3438 1.1719-3.5156 9.6094-28.828 19.688-57.656 28.828-86.484 8.4375-27.188 15.703-55.781 13.594-84.375-1.6406-21.328-8.4375-42.422-21.094-59.766 3.5156-16.875 7.5-33.75 9.375-51.094 2.1094-18.281 0.46875-36.797-5.8594-54.375-6.7969-18.516-18.516-34.922-35.625-45.234-15.703-9.375-35.859-13.594-53.438-7.5-9.8438 3.2812-18.75 8.9062-26.953 15-5.8594 4.4531-11.719 9.375-16.875 14.531-1.6406-9.6094-4.4531-19.219-8.6719-28.359l-2.1094-4.2188v-0.23438c0-0.23438 0.23438-0.46875 0.23438-0.46875l1.4062-1.4062c2.1094-2.1094 3.75-3.2812 6.3281-4.6875 5.3906-3.2812 11.25-5.625 17.109-7.7344 2.8125-0.9375 5.3906-1.6406 8.2031-2.3438l3.5156-0.70312h0.23438c0.46875 0 0.9375 0 1.4062-0.23438l2.8125-0.70312c6.7969-2.1094 13.359-6.7969 17.109-12.891 2.8125-4.6875 3.5156-9.8438 1.6406-14.062 13.359-7.9688 28.828-11.953 40.547-22.734 6.0938-5.625 10.781-12.891 11.953-21.094s-1.6406-16.172-7.2656-22.031c-2.3438-2.5781-5.3906-4.4531-8.4375-5.625 10.312-11.25 20.859-22.5 30.703-33.984 5.3906-6.3281 10.312-13.594 11.016-22.266 0.46875-5.8594-2.1094-11.484-6.5625-15.234 9.8438-6.5625 18.984-14.531 23.438-25.781 5.1562-12.422 3.75-28.125-5.8594-37.734 5.1562-7.5 9.8438-15.469 14.062-23.672 4.4531-8.4375 10.781-19.219 7.5-29.062-2.8125-8.6719-11.25-11.953-19.688-11.719-3.2812 0-6.7969 0.70312-10.547 0.9375 21.562-21.797 32.109-54.141 28.359-84.375-1.1719-10.078-3.9844-19.688-8.2031-28.828-1.6406-3.75-6.5625-3.5156-9.1406-1.1719-43.828 38.906-91.406 73.594-142.26 103.12-12.656 7.5-25.547 14.531-38.672 21.328-12.422 6.5625-25.547 12.188-33.281 24.609-3.75 6.0938-6.0938 12.891-8.6719 19.453-2.3438 5.625-4.9219 11.25-7.7344 16.641-5.3906 10.547-11.953 20.391-19.453 29.531-17.109 20.859-38.438 37.266-61.406 51.328-3.75 0.70312-7.7344 0.9375-11.719 0.46875-10.781-0.9375-22.734-3.75-31.641-10.547-3.2812-2.5781-6.0938-5.8594-7.9688-9.6094 0.23438-0.23438 0.46875-0.46875 0.9375-0.70312 0.46875 0.23438 0.9375 0.46875 1.4062 0.46875 16.641 3.75 34.688 0.46875 48.75-9.1406 14.766-10.078 23.906-26.016 26.016-43.594 0.9375-7.9688 0.23438-16.172-1.875-23.906 20.156-11.25 34.453-31.641 37.266-54.844 1.6406-12.891-0.70312-26.016-6.0938-37.734-2.5781-5.8594-6.7969-10.547-9.8438-16.172s-2.1094-12.656-3.0469-18.75c-3.2812-24.375-17.344-45.938-37.734-59.531-1.875-1.1719-3.75-2.3438-4.4531-4.6875-0.9375-2.8125-1.4062-5.8594-2.3438-8.6719-1.875-5.625-4.2188-11.25-7.2656-16.406-6.0938-9.8438-14.531-18.516-24.375-24.609-22.734-14.297-52.969-14.062-75.703-0.46875-10.078-11.484-25.078-17.578-40.547-18.047-18.75-0.70312-36.328 7.5-50.391 19.453-6.5625 5.3906-12.422 11.953-17.812 18.75-13.828-8.9062-30.938-11.953-47.109-7.7344-17.578 4.4531-31.875 17.812-38.672 34.453-1.6406 3.9844-2.8125 7.9688-3.5156 12.188-0.70312 4.6875-0.23438 9.6094-1.4062 14.297-1.1719 4.2188-4.2188 7.2656-7.0312 10.312-3.0469 3.2812-5.625 6.5625-8.2031 10.312-8.9062 13.828-13.125 30.938-12.422 47.344 0.70312 16.875 6.5625 33.516 17.109 46.641-13.125 15-12.891 37.734-8.6719 56.25 4.6875 22.031 16.172 44.766 38.906 52.5 9.375 3.2812 20.156 3.2812 29.297-0.70312 0.46875 1.6406 0.9375 3.2812 1.6406 4.9219 2.8125 8.4375 7.0312 16.406 14.062 22.031 13.125 10.547 30.234 10.078 45.703 5.625 8.4375-2.3438 16.641-5.3906 24.844-8.6719 1.875 1.1719 3.5156 2.5781 5.3906 3.75 3.5156 11.484 0.46875 26.016-5.3906 37.266-29.766 6.0938-60.938 6.7969-90.938 1.875-15.469-2.5781-30.938-6.5625-45.703-12.188-15.234-5.625-30.234-12.422-45.234-18.75-14.297-6.0938-28.828-11.484-44.062-15.469-14.531-3.75-29.297-6.0938-44.297-7.7344-29.531-3.5156-59.297-4.2188-88.828-6.7969-32.344-2.8125-65.156-7.9688-94.688-22.031-3.75-1.875-9.1406 0.23438-8.9062 5.1562 3.0469 40.078 26.25 77.109 60.469 98.203 7.2656 4.6875 15.234 8.4375 23.438 11.25-3.5156 10.078 0.9375 22.031 9.1406 29.062 11.953 10.078 27.891 8.9062 42.422 5.8594 0.46875 12.422 5.3906 24.609 14.062 33.75 3.5156 3.75 7.7344 6.7969 12.422 9.1406-17.812-4.4531-35.156-9.375-52.734-14.531-41.953-12.656-83.672-25.547-125.63-38.203-5.1562-1.6406-10.547-3.2812-15.703-4.6875-3.75-1.1719-6.5625 1.4062-7.0312 4.4531-7.9688-2.5781-16.172-4.9219-24.375-6.5625-6.3281-1.4062-10.547 7.2656-4.4531 10.781 31.641 18.281 59.531 43.125 79.453 73.828 0.70312 1.1719 1.6406 1.875 2.8125 2.3438 14.531 18.75 25.312 40.078 31.406 63.047 3.2812 12.188 4.9219 24.844 5.1562 37.5 0.23438 11.719-0.9375 23.438-2.1094 35.156-2.3438 22.031-5.1562 45 0.46875 66.797 6.0938 22.969 22.969 39.609 44.766 48.047 18.75 7.0312 39.609 8.2031 59.766 6.7969l-51.328 35.156c-32.344 22.266-64.453 44.766-96.562 67.5-2.5781 1.875-3.75 5.1562-2.1094 7.9688 1.4062 2.5781 5.3906 3.9844 7.9688 2.1094 47.344-33.516 95.156-66.797 142.97-99.375-11.953 24.609-15.469 52.969-4.4531 79.453 6.7969 15.938 18.047 29.531 32.109 39.375 15.703 11.25 34.453 16.172 53.438 18.281 20.156 2.3438 40.312 1.4062 60.234 5.1562 17.344 3.2812 33.047 10.312 46.641 21.797 25.547 21.797 39.844 52.031 57.656 79.688 18.516 28.125 42.656 55.078 76.172 64.453 4.2188 1.1719 8.4375 1.875 12.656 2.5781 3.0469 0.46875 6.3281-0.70312 7.2656-4.2188 0.9375-3.0469-1.1719-6.3281-4.2188-7.2656-3.75-1.1719-7.5-2.8125-10.781-4.4531 2.1094-0.9375 3.5156-3.0469 3.75-5.3906 4.2188-63.75 3.0469-127.97-0.23438-191.72-3.2812-65.156-8.9062-130.08-14.531-195-1.6406-19.219-3.2812-38.438-4.6875-57.891 11.953 16.172 24.375 32.344 32.578 50.625 5.3906 11.953 7.7344 24.375 7.9688 37.5 0.23438 15.234 0 30.469 0.9375 45.703 0.9375 14.531 2.8125 29.297 7.7344 43.359 4.2188 11.953 10.781 22.969 18.281 33.047 11.953 15.703 26.953 29.297 44.766 37.969 33.75 16.406 72.891 15.234 108.52 5.625 36.562-9.8438 71.016-27.656 101.72-49.922 13.359-9.6094 26.25-20.391 37.969-32.109 3.0469-3.0469 5.8594-6.0938 8.9062-9.375-7.5 35.625-15 71.016-22.5 106.64-4.6875 22.5-10.547 45.234-13.359 67.969-1.4062 11.25-1.4062 22.734 0.46875 33.984 1.875 10.781 5.1562 21.094 8.9062 31.406 8.6719 24.141 18.047 48.047 27.891 71.484 1.875 4.2188 6.0938 5.625 9.8438 2.5781 2.1094-1.6406 3.9844-3.2812 6.0938-4.9219 7.7344 7.9688 22.031 8.2031 30.469 1.1719 6.3281 3.9844 14.531 4.6875 21.328 1.875 2.3438-0.9375 4.4531-2.1094 6.3281-3.75 2.5781-2.3438 2.5781-6.0938 2.8125-9.375 0.23438-3.9844 0-7.9688-0.70312-11.719 9.1406-0.70312 18.281-2.5781 25.078-8.9062 9.6094-8.9062 9.1406-22.734 3.75-33.75 0-0.23438-0.23438-0.23438-0.23438-0.46875 0.23438-0.23438 0.46875-0.23438 0.70312-0.46875 1.1719-1.1719 2.3438-3.75 3.75-4.4531 0.70312-0.23438 1.875 0 2.5781 0 1.4062 0 3.0469 0 4.4531-0.46875 4.4531-0.9375 7.9688-4.2188 10.078-8.2031 3.0469-6.3281 2.1094-12.656-0.46875-18.516 3.75-0.9375 7.2656-2.8125 10.078-5.3906 7.9688-6.3281 9.6094-16.641 7.2656-25.781zm-217.26-543.28c15.469-2.3438 30.234-7.5 43.594-15.703 2.8125-1.875 5.8594-3.75 8.4375-5.8594 1.4062-1.1719 3.9844-3.0469 3.9844-5.1562 0-0.9375-2.3438-1.875-3.75-2.3438-2.8125-1.1719-5.8594-1.6406-8.4375-3.2812-6.0938-3.5156-10.781-10.547-6.7969-17.578 1.6406-3.0469 4.6875-4.6875 7.5-6.5625 2.8125-1.6406 5.625-3.5156 8.2031-5.3906 9.6094-6.5625 19.453-15.234 22.5-26.953 2.3438-8.6719 1.1719-20.156-6.5625-25.781-4.2188-3.0469-3.5156-8.9062 1.4062-10.781 6.0938-2.1094 11.953-4.2188 18.047-6.3281 2.1094-0.70313 4.4531-1.6406 6.5625-2.5781-0.23438-0.46875-0.46875-0.9375-0.70312-1.1719-2.3438-3.0469-6.5625-4.4531-9.375-7.0312-3.5156-2.8125-5.625-7.0312-5.3906-11.484 0.46875-9.375 9.8438-11.25 15.234-17.109 9.375-9.8438 5.8594-27.656 3.2812-39.844-1.6406-7.2656 9.6094-10.547 11.25-3.0469 2.1094 9.375 3.75 19.219 2.8125 29.062-0.70312 8.2031-3.2812 16.406-9.375 22.5-3.0469 3.0469-6.7969 4.6875-10.078 7.5-0.9375 0.70313-1.875 1.4062-1.6406 2.1094 0 0.46875 1.4062 1.6406 2.1094 2.1094 3.75 2.8125 7.7344 4.6875 10.781 8.6719 3.0469 4.2188 3.9844 9.8438 0.70312 14.297-3.2812 4.4531-9.375 5.625-14.297 7.5-2.8125 0.9375-5.3906 1.875-8.2031 2.8125 6.0938 8.9062 7.5 20.391 4.6875 30.938-3.5156 14.062-14.297 24.609-25.781 32.812-3.0469 2.1094-6.3281 4.2188-9.375 6.3281-1.1719 0.70312-2.5781 1.6406-3.75 2.3438-0.23438 0-0.23438 0.23437-0.46875 0.23437 0-0.23437 0-0.23437-0.46875-0.23437 0 0 0 0.23437 0.23438 0.46875-0.9375 0.70312-0.23438 0.46875 0 0 0.23438 0.23437 0.70312 0.70312 0.70312 0.70312 0.46875 0.46875 1.1719 0.70313 1.6406 1.1719 1.1719 0.70312 2.5781 0.9375 3.75 1.4062 2.8125 0.9375 5.625 1.875 7.9688 3.5156 6.5625 4.4531 7.9688 12.891 3.2812 19.453-4.4531 6.0938-11.953 10.547-18.281 14.297-13.359 7.7344-28.125 12.891-43.359 15-3.0469 0.46875-6.3281-0.70312-7.2656-4.2188-0.23438-2.3438 1.6406-6.3281 4.6875-6.7969zm-104.06-250.08c0.23438 3.2812-2.8125 5.8594-5.8594 5.8594-3.2812 0-5.625-2.8125-5.8594-5.8594-1.875-26.484-25.312-49.688-51.562-51.562-3.0469-0.23437-5.8594-2.5781-5.8594-5.8594 0-3.0469 2.8125-6.0938 5.8594-5.8594 33.047 2.3438 61.172 30.234 63.281 63.281zm-142.74-97.5c6.5625-7.7344 14.062-14.766 23.672-18.516 7.2656-3.0469 15.469-3.2812 23.203-1.6406 15.469 3.2812 29.062 15 33.047 30.469 1.875 7.2656-9.375 10.312-11.25 3.0469-3.0469-11.719-13.359-19.922-24.844-22.266-5.3906-1.1719-11.25-0.70312-16.406 1.4062-7.7344 3.2812-13.594 9.6094-18.984 15.703-2.1094 2.3438-6.0938 2.1094-8.2031 0-2.5781-2.3438-2.1094-5.8594-0.23438-8.2031zm-134.53 64.688c-1.1719 3.0469-3.9844 4.9219-7.2656 3.9844-2.8125-0.70313-5.1562-4.2188-3.9844-7.2656 7.2656-18.516 16.172-37.734 32.578-49.922 14.766-11.016 36.094-15 52.5-5.1562 6.5625 3.9844 0.46875 14.062-5.8594 10.078-12.891-7.7344-29.531-3.75-40.781 5.3906-13.594 11.016-20.859 27.422-27.188 42.891zm53.906 141.56c-15.234-22.266-26.719-48.75-30.234-75.234 3.75-4.2188 7.2656-8.4375 10.781-12.891 6.0938-8.2031 11.953-17.344 15-27.188 0.70312-1.875 0.9375-3.9844 1.1719-6.0938 0.23438 0 0.46875 0 0.70312 0.23438 3.2812 0.70312 6.7969 1.6406 10.078 2.5781 8.6719 2.1094 16.875 3.0469 25.781 0.9375 5.8594-1.4062 11.484-4.2188 16.172-8.2031 4.6875 7.7344 12.656 13.594 21.797 15.469 9.8438 1.875 19.688-0.9375 27.188-7.0312 7.5 11.953 18.281 21.797 31.172 27.188 9.375 3.75 19.922 5.1562 30 3.2812 2.5781 6.0938 5.1562 12.188 7.5 18.281 5.1562 14.297 7.2656 29.531 6.0938 44.766-2.1094 27.188-16.406 52.734-39.375 67.5-11.016 7.0312-23.438 11.484-36.328 12.422-14.531 0.9375-30.234-1.6406-43.594-7.7344-22.266-10.078-40.312-28.359-53.906-48.281zm-158.68 117.66c14.297 23.438 48.984 29.062 70.312 12.656 2.5781-1.875 6.5625-0.46875 7.9688 2.1094 1.6406 3.0469 0.46875 6.0938-2.1094 7.9688-26.484 20.391-69.141 11.484-86.25-16.875-3.9844-6.3281 6.0938-12.188 10.078-5.8594zm117.89 169.22c-4.4531 14.062-7.5 28.359-11.016 42.422-0.23438 1.4062-0.70312 2.5781-0.9375 3.9844-35.391 22.5-70.781 45.234-105.7 68.203-18.047 11.719-35.859 23.672-53.672 35.391 0-0.23438 0.23438-0.23438 0.23438-0.46875 1.6406-3.5156-0.23438-9.375-5.1562-8.9062-2.1094 0.23438-4.4531 0.46875-6.5625 0.70312 1.1719-7.0312-2.1094-13.125-7.7344-17.578s-12.188-6.3281-19.219-7.7344c-4.9219-1.1719-11.484-2.1094-14.766-6.5625-1.4062-1.875-1.6406-3.9844-1.1719-5.625 0.46875-2.1094 1.875-4.2188 3.75-5.8594 11.25-10.781 26.484-4.4531 39.609-1.6406 8.6719 1.875 17.109 2.3438 25.781 0 7.9688-2.3438 15.469-6.5625 22.5-11.016 15.703-9.8438 31.406-19.922 46.875-30 7.2656-4.6875 14.531-8.9062 21.094-14.297 6.7969-5.625 11.25-12.656 14.062-20.859 2.5781-7.9688 3.5156-16.641 5.1562-24.844 1.6406-9.1406 3.5156-18.047 5.1562-27.188 0-0.23438 0-0.46875 0.23438-0.70312 7.9688 2.3438 16.172 4.9219 24.141 7.7344 7.7344 2.5781 15.703 5.3906 23.438 8.4375-2.3438 5.625-4.2188 11.016-6.0938 16.406zm8.4375 12.656c2.3438-7.9688 4.6875-15.938 7.9688-23.672 0-0.23438 0.23438-0.46875 0.23438-0.70312 12.188 5.1562 24.141 11.016 35.156 18.047-16.641 10.312-33.281 20.859-49.688 31.172 2.1094-8.2031 4.2188-16.641 6.3281-24.844zm-78.516 119.06c-5.3906 1.875-10.781 2.8125-16.406 3.2812-6.7969 0.70312-13.594 2.8125-16.875 9.1406-3.0469 5.8594-3.2812 13.125-4.6875 19.453-1.6406 6.5625-3.9844 13.125-7.0312 19.219-2.8125 5.625-6.3281 11.484-10.781 15.938-0.23438 0.23438-1.1719 0.9375-1.1719 1.1719-0.46875 0.46875-1.1719 0.9375-1.875 1.1719-0.70312 0.46875-1.6406 0.9375-2.3438 1.4062-0.46875 0.23438-0.70312 0.23438-0.9375 0.46875-0.23438 0-1.4062 0.70312-1.4062 0.70312-9.8438 4.2188-21.094 6.0938-31.641 7.2656-9.1406 1.1719-18.516 1.875-27.656 1.6406 1.875-14.531 7.0312-28.828 12.656-42.188 48.281-32.344 97.031-64.219 146.02-95.625l17.578-11.25c-5.625 17.578-13.125 34.453-25.781 48.516-7.7344 8.4375-16.875 15.703-27.656 19.688zm-165-311.02c-8.6719-9.1406-13.125-22.031-10.078-34.453 1.875-7.2656 13.125-4.2188 11.25 3.0469-2.8125 11.25 3.9844 22.734 13.594 28.125 4.6875 2.8125 10.078 4.2188 15.469 4.9219 6.0938 0.70312 11.719-0.23438 17.812-0.46875 6.5625-0.23438 12.891 3.9844 12.891 11.016 0 5.8594-3.5156 10.312-5.1562 15.469-2.5781 8.6719 3.5156 17.812 10.547 22.5 10.547 6.7969 23.906 6.7969 35.859 7.0312 4.2188 0 6.0938 3.75 5.625 7.5-2.1094 15.234 11.953 30.469 26.484 31.875 4.6875 0.46875 8.6719-0.9375 13.125-1.4062 5.625-0.70312 10.312 1.6406 13.828 5.8594 1.1719 1.4062 2.1094 2.8125 3.5156 3.75h1.4062c0.23438 0 0.70312 0 0.9375-0.23438 2.3438-0.70312 3.5156-2.3438 3.5156-4.2188-0.23438-7.5 11.484-7.5 11.719 0 0.23438 9.375-9.1406 16.875-18.281 15.938-4.6875-0.46875-7.9688-2.8125-11.016-6.5625-0.70312-1.1719-1.6406-2.5781-3.0469-3.2812s-4.2188 0.46875-5.8594 0.70312c-8.9062 1.875-17.578 0.46875-25.547-3.5156-13.359-6.7969-22.5-20.391-22.969-35.156-13.594-0.46875-27.891-2.1094-38.906-10.781-9.1406-7.2656-15.469-19.219-13.359-30.938 0.46875-2.8125 1.875-5.625 3.0469-8.2031 0.9375-1.875 1.4062-3.9844 2.1094-5.8594h-0.23438c-1.4062 0.23438-2.5781 0.23438-3.9844 0.46875-3.0469 0.23438-6.0938 0.46875-9.1406 0.46875-12.188 0.23438-26.016-3.9844-35.156-13.594zm40.781 94.688c-0.46875 1.4062-0.9375 3.0469-1.1719 4.4531-4.2188-0.70312-8.4375-1.6406-12.656-2.5781 2.3438 0 4.6875-0.23438 6.7969-0.46875 2.3438-0.23438 4.6875-0.70312 7.0312-1.4062zm-0.23438 224.76c-0.23438 0.9375-0.23438 1.875-0.23438 2.5781-9.6094 0.70312-18.984 0.9375-28.594 0.46875-14.062-0.70313-28.828-2.5781-41.953-8.9062-12.656-6.0938-22.734-15.938-26.953-29.531-4.9219-16.172-2.3438-33.75-0.9375-50.156 1.1719-15 1.1719-29.531-1.4062-44.531-2.5781-14.531-7.0312-28.359-13.125-41.719-12.422-27.188-31.641-51.094-54.609-70.078-9.8438-8.2031-20.625-15.469-31.641-22.031 30.469 9.375 60.703 18.516 90.938 27.891 20.156 6.0938 40.312 12.188 60.703 17.578 15 3.9844 30 7.0312 45 9.8438-0.23438 7.7344 0.70312 15.703 3.2812 22.734 6.5625 18.281 22.031 31.875 40.547 36.797 7.2656 1.875 14.531 2.5781 22.031 1.6406-0.70312 11.719 6.7969 23.203 17.109 29.531 14.531 8.9062 32.344 5.625 48.047 0.9375-3.75 6.7969-10.312 11.484-16.875 15.469-15.938 10.312-31.875 20.391-47.812 30.469-7.5 4.6875-15 10.078-22.969 13.828-7.5 3.5156-15.234 4.2188-23.203 2.8125-8.2031-1.4062-16.406-3.9844-24.609-5.1562-7.7344-0.9375-15 0.23438-21.797 4.2188-6.5625 3.75-12.656 9.8438-14.062 17.578-1.4062 8.2031 2.8125 15.703 9.6094 20.156 6.5625 4.2188 14.531 4.6875 21.797 6.7969 3.2812 0.9375 6.3281 2.3438 8.9062 4.6875 2.3438 1.875 3.2812 3.75 2.8125 6.0938zm266.95 58.125c5.1562 64.922 9.375 129.84 10.078 195 0.46875 35.391-0.23438 70.781-2.5781 106.17v0.46875c-18.281-13.125-29.297-34.688-37.734-55.781-5.8594-14.531-11.016-29.531-17.578-43.828-7.2656-15.234-15.938-29.531-26.25-42.891-20.625-26.484-47.812-48.516-80.156-58.828-8.4375-2.8125-17.109-4.4531-26.016-5.625-10.547-1.4062-20.859-1.1719-31.406-2.3438-16.406-1.875-30.938-9.8438-40.781-22.969-9.375-12.188-14.062-27.188-14.297-42.188v-0.9375c8.2031 0.23438 16.641-0.23437 24.844-1.1719 10.781-1.1719 21.562-2.8125 31.875-5.8594 9.375-2.8125 17.344-6.7969 23.438-14.531 8.9062-11.484 14.766-24.844 17.812-38.906 0.70312-3.0469 1.1719-6.3281 1.6406-9.375 0.46875-2.3438 0.70312-5.1562 3.0469-6.5625 2.1094-1.1719 5.1562-1.4062 7.5-1.6406 3.2812-0.23438 6.5625-0.70313 9.8438-1.4062 12.188-2.5781 22.969-9.1406 32.109-17.109 19.688-17.344 30.938-41.719 37.969-66.562 0.70312-2.3438 1.4062-4.9219 1.875-7.2656 19.922-12.656 39.609-25.078 59.531-37.5 0.23438 5.1562 0.70312 10.312 1.1719 15.234-0.46875 1.4062-0.46875 2.8125 0.23438 4.4531 4.4531 53.906 9.375 107.81 13.828 161.95zm465.71 286.87c-2.5781 3.5156-6.7969 5.1562-10.781 6.3281-4.9219 1.1719-9.8438 1.4062-15 1.6406-3.75 0-6.5625 3.75-5.625 7.5 1.6406 5.625 2.1094 11.484 1.6406 17.344-4.6875 3.0469-11.25 1.875-15-2.3438-2.5781-2.8125-7.5-1.875-9.1406 1.1719-1.875 3.5156-5.3906 4.6875-9.8438 4.4531-3.75-0.23438-7.0312-2.1094-8.9062-6.0938-1.6406-3.75-6.5625-3.2812-9.1406-1.1719-1.6406 1.4062-3.2812 2.8125-4.9219 3.9844-7.5-18.047-14.531-36.328-21.328-54.844-3.75-10.078-7.5-20.156-10.078-30.703s-3.5156-21.094-2.8125-31.875c0.70312-11.25 3.0469-22.5 5.3906-33.516l7.0312-33.047c4.6875-22.734 9.6094-45.234 14.297-67.969 5.3906-25.312 10.781-50.625 15.938-75.938 1.6406-7.5-8.6719-10.078-11.25-3.0469 0 0.23438-0.23438 0.46875-0.23438 0.46875-0.23438 0.46875-0.46875 0.9375-0.46875 1.1719-0.46875 1.1719-1.1719 2.1094-1.6406 3.0469-1.1719 2.3438-2.5781 4.4531-4.2188 6.5625-0.70312 1.1719-1.4062 2.1094-2.3438 3.2812l-1.4062 1.875c-0.23438 0.46875-0.46875 0.70312-0.9375 1.1719-2.1094 2.5781-3.9844 4.9219-6.0938 7.2656-10.078 11.25-21.562 21.562-33.75 30.703-0.23438 0.23438-0.70312 0.46875-0.70312 0.46875-0.46875 0.23438-0.70312 0.46875-1.1719 0.9375-0.9375 0.70312-1.6406 1.4062-2.5781 1.875-1.875 1.4062-3.5156 2.5781-5.3906 3.9844-3.5156 2.5781-7.2656 5.1562-11.016 7.5-7.5 4.9219-15.234 9.6094-23.203 14.062-16.641 9.1406-32.812 16.406-50.625 22.266-8.9062 2.8125-17.812 5.1562-26.719 7.0312s-16.406 2.8125-25.781 3.2812c-17.812 0.70312-33.516-0.9375-50.391-7.2656-3.9844-1.4062-7.0312-2.8125-11.25-4.9219-3.75-1.875-7.5-4.2188-11.016-6.5625-7.5-4.9219-14.297-11.25-20.625-18.281-7.0312-7.7344-12.891-15.938-17.812-25.078-6.7969-12.422-10.547-26.25-12.188-40.312-1.6406-14.297-1.875-28.828-1.875-43.359 0-14.297 0.23438-28.359-3.5156-42.188-7.2656-26.016-24.609-47.812-40.312-69.141-3.5156-4.6875-7.0312-9.6094-10.312-14.531-0.70312-8.6719-1.1719-17.109-1.875-25.781v-0.23438c0-0.23438 0-0.70312-0.23438-0.9375 0-0.23438-0.23438-0.46875-0.23438-0.70312s0-0.23438-0.23438-0.46875v-0.23438c-0.46875-0.9375-1.1719-1.875-2.1094-2.3438 0 0 0-0.23438-0.23438-0.23438-13.359-9.8438-28.594-17.344-44.062-23.906 1.6406-3.0469 3.75-6.0938 6.3281-8.4375 5.625-5.1562-2.8125-13.359-8.2031-8.2031-3.75 3.5156-6.5625 7.7344-8.6719 12.422-4.4531-1.6406-8.6719-3.2812-13.125-4.9219-12.188-4.4531-24.375-8.4375-36.797-12.188 3.0469-14.062 6.0938-27.891 9.375-41.719 2.3438-9.6094 4.6875-19.453 7.2656-29.062 2.3438-8.4375 4.9219-16.875 9.1406-24.375 3.5156-5.8594 7.7344-11.016 13.828-14.062 6.0938-3.2812 13.828-4.2188 20.859-4.9219 1.6406-0.23438 2.8125-0.70312 3.9844-1.6406 15.469-4.6875 31.172-9.8438 43.594-20.391 3.0469-2.5781 5.625-5.8594 7.9688-9.1406 1.4062-0.9375 2.1094-2.3438 2.1094-3.75 3.9844-7.5 6.3281-15.938 7.5-23.672 0.70312-4.2188 0.9375-8.4375 0.70312-12.656 26.25 12.422 58.125 14.062 84.375 1.1719 3.75-1.875 7.2656-3.9844 10.781-6.3281 5.3906 9.1406 14.531 15.469 24.375 19.219 5.625 2.1094 11.484 3.5156 17.344 4.4531 4.9219 0.70312 10.078 1.4062 15.234 0.9375 2.1094-0.23438 3.9844-0.46875 6.0938-0.9375 0.46875 0 1.1719 0 1.875-0.23438 8.2031-1.4062 16.172-3.9844 24.375-5.8594 5.1562-1.1719 10.781-2.5781 15.703-3.0469 2.3438-0.23438 4.4531-0.46875 6.7969-0.23438 2.5781 0 3.0469 0 5.625 0.70312 0.23438 0 1.6406 0.46875 1.875 0.70312s0.70312 0.46875 0.9375 0.46875c1.1719 0.46875 2.1094 1.1719 3.2812 1.6406 4.2188 2.3438 8.4375 5.1562 12.188 8.2031 2.5781 2.1094 5.1562 4.4531 7.5 7.0312 0.23438 0.23438 1.1719 1.6406 1.4062 1.6406l1.4062 2.1094c2.1094 3.2812 3.5156 6.7969 4.6875 9.6094 7.2656 19.219 10.781 39.844 15.938 59.531 2.3438 8.9062 4.9219 17.812 9.1406 26.016 2.1094 4.2188 5.1562 7.9688 8.2031 11.719 4.4531 5.8594 8.6719 11.484 12.891 17.578 3.9844 5.8594 7.7344 11.719 11.016 17.812 0.23438 0.46875 0.23438 0.70312 0.46875 1.1719 3.2812 6.0938 5.8594 12.422 7.9688 19.219 3.5156 11.719 4.6875 23.672 3.9844 35.859-1.6406 23.906-11.484 47.344-28.125 64.688-8.9062 9.375-20.391 18.281-33.75 18.984-15.234 0.9375-30-6.3281-43.594-12.188-28.828-12.422-57.656-25.078-84.609-41.016-12.891-7.5-25.312-16.875-40.078-20.625-15-3.75-30.469-2.3438-45.703-1.875-5.625 0.23438-11.25 0.23438-16.875 0-0.23438-3.2812-0.46875-6.5625-0.46875-9.8438-0.23438-3.2812-2.5781-5.625-5.8594-5.8594-3.75-0.23438-7.5-0.70312-11.25-0.9375-1.4062-4.4531 4.9219-11.953 7.2656-15 4.4531-5.8594 7.9688-13.828 6.3281-21.328-0.70312-3.75-3.0469-6.7969-6.3281-8.9062-4.4531-2.8125-9.8438-2.3438-15-2.5781-7.0312 0-14.297 0-21.328-0.23438 7.2656-11.484 19.688-19.453 32.578-23.672 20.625-6.7969 42.656-3.9844 63.516 0 7.9688 1.6406 15.234 3.2812 22.5 7.0312 4.6875 2.3438 9.1406 4.9219 13.828 7.2656 14.531 7.7344 28.594 16.172 42.422 25.078 21.094 13.359 41.484 27.656 61.172 42.891 3.2812 2.5781 8.4375 2.1094 9.8438-2.5781 11.953-43.359-22.266-79.453-38.672-116.02-4.4531-9.8438-7.5-20.625-8.2031-31.406-0.23438-7.5-11.953-7.5-11.719 0 1.875 42.188 36.094 72.188 46.406 111.56 2.1094 7.9688 3.0469 15.938 2.3438 24.141-30.469-23.203-62.578-44.766-96.328-62.812l-14.766-7.7344c-7.2656-3.9844-14.766-6.5625-22.969-7.9688-22.734-4.4531-46.875-7.7344-69.844-1.4062-20.625 5.8594-39.375 19.453-47.344 40.078-1.4062 3.75 2.1094 7.5 5.625 7.5 10.547 0 21.328 0.23438 31.875 0.23438 2.1094 0 4.2188-0.23438 6.0938 0.23438 0.46875 0 1.4062 0.46875 1.6406 0.46875l0.70312 0.70312c0.9375 1.875 0 4.6875-0.9375 7.0312-1.6406 3.5156-3.9844 6.3281-6.3281 9.375-2.5781 3.5156-4.6875 7.2656-5.8594 11.484s-1.1719 8.9062 0.9375 12.656c1.875 3.2812 4.2188 4.9219 7.7344 5.1562l7.7344 0.70312c0.23438 3.2812 0.46875 6.5625 0.46875 9.8438 0.23438 3.5156 2.5781 5.3906 5.8594 5.8594 15.469 1.875 31.172-0.46875 46.875-0.23438 7.5 0 15 0.9375 22.266 3.2812 7.0312 2.3438 13.359 6.0938 19.688 10.078 26.953 16.641 55.078 30.469 84.141 43.125 7.2656 3.2812 14.766 6.3281 22.031 9.6094 7.5 3.2812 15 6.3281 22.969 8.2031 15.703 3.75 30.938 1.875 44.531-7.0312 21.797-14.297 37.031-37.969 43.828-62.812 3.0469-11.25 4.4531-22.734 3.9844-33.984 11.484-12.656 25.078-24.375 40.547-31.641 14.297-6.7969 31.172-5.1562 45 1.875 31.406 15.938 43.594 54.141 40.312 87.422-1.4062 15-4.6875 29.766-7.7344 44.531-15.234-14.531-35.859-22.266-57.422-22.266-12.891 0-26.016 2.5781-38.438 6.5625-12.656 3.9844-23.906 10.312-36.094 15.469-21.328 9.1406-44.297 13.125-66.797 18.75-22.031 5.3906-43.125 13.359-60.469 28.125-4.6875 3.9844-8.6719 8.2031-12.656 12.656-2.1094 2.3438-2.3438 5.8594 0 8.2031 2.1094 2.1094 6.0938 2.3438 8.2031 0 14.531-16.641 32.812-27.422 53.672-33.75s42.422-9.6094 63.281-16.172c11.719-3.75 22.5-8.4375 33.516-13.828 11.25-5.3906 23.203-9.6094 35.391-12.188 22.266-4.4531 46.875-2.1094 65.156 12.656 16.406 13.594 26.016 33.281 30 53.906 4.9219 25.312 0.46875 51.562-6.3281 76.172-7.5 27.656-17.578 54.844-26.484 82.031-4.6875 13.828-9.375 27.656-13.828 41.25-3.75 11.484-7.0312 23.203-8.4375 35.156-1.4062 11.25-1.1719 23.203 2.8125 33.984 4.4531 11.719 12.422 20.391 22.031 28.125 8.4375 7.0312 17.812 14.062 20.625 25.312 0.46875 4.2188 0.23438 8.9062-2.3438 12.656zm35.859-74.062c-1.1719 2.5781-3.2812 4.6875-5.8594 5.8594s-5.1562 1.4062-7.5 0.23438-5.1562-0.9375-7.0312 0.9375c-1.6406 1.6406-2.3438 5.1562-0.9375 7.0312 3.2812 4.2188 10.547 12.891 5.3906 18.281-1.6406 1.875-5.8594 0.70312-8.4375 1.4062-3.9844 0.9375-5.8594 3.75-8.4375 6.5625-5.3906-6.0938-11.953-11.016-18.281-16.406-4.6875-3.9844-8.9062-8.2031-11.953-13.594-2.8125-4.6875-4.4531-10.078-5.1562-15.469-1.875-11.484 0-23.438 2.8125-34.453 1.875-7.5 4.2188-15 6.5625-22.266 3.75 3.5156 7.7344 7.0312 11.719 10.078 7.5 5.625 15.234 10.547 22.969 15.703 6.7969 4.6875 13.828 9.1406 18.984 15.703 4.6875 5.625 7.7344 13.594 5.1562 20.391z"/>
 <path d="m401.48 802.03c2.1094 2.1094 2.3438 6.3281 0 8.2031-11.016 9.375-24.609 14.531-39.141 15.234-3.2812 0-5.625-2.8125-5.8594-5.8594 0-0.9375 0.23438-1.6406 0.46875-2.3438 0.70312-2.1094 2.3438-3.75 5.3906-3.75 0.70312 0 1.4062 0 1.875 0.23438 2.3438 0 3.75-0.23438 6.5625-0.9375s5.625-1.4062 8.4375-2.3438c2.1094-0.70312 4.4531-1.875 7.0312-3.5156 1.4062-0.70312 2.5781-1.6406 3.9844-2.5781 0.46875-0.46875 1.1719-0.9375 1.6406-1.1719l1.1719-0.9375c2.5781-2.3438 5.8594-2.5781 8.4375-0.23438z"/>
 <path d="m199.45 960.24c4.4531 2.8125 3.2812 11.484-3.0469 11.016-38.203-3.75-76.406 5.3906-112.27 17.578-2.8125 0.9375-4.9219-0.23438-6.0938-2.1094-1.4062-1.6406-1.875-3.9844-0.46875-6.5625 21.094-33.047 33.516-71.016 34.688-110.16 0.23438-4.6875 6.5625-8.4375 10.078-4.2188 7.0312 8.6719 12.188 18.516 14.766 29.531 0.9375 4.4531 1.6406 9.1406 1.6406 13.828 0 4.9219-0.70312 9.8438-1.4062 15-0.70312 7.0312-0.70312 16.875 7.7344 19.219 2.1094 0.46875 4.2188 0.46875 6.5625 0.46875 2.5781 0.23438 5.1562 0.46875 7.5 0.9375 4.6875 0.70312 9.375 1.875 13.828 3.2812 9.375 2.5781 18.281 6.7969 26.484 12.188z"/>
</svg>
