<?xml version="1.0" encoding="UTF-8"?>
<svg width="1200pt" height="1200pt" version="1.1" viewBox="0 0 1200 1200" xmlns="http://www.w3.org/2000/svg">
 <path d="m951 835.08c12-4.5586 23.398-6 35.52-4.1992 25.68 3.8398 42.602 20.039 54.961 40.801 7.6797 12.84 10.32 27.961 6.6016 43.441-3.9609 16.32-14.039 27.84-32.281 35.52 5.5195 8.2812 10.199 16.68 11.762 26.762 1.3203 8.5195 0.60156 16.441-2.8789 24.238-17.52 38.762-47.52 63.84-87.48 75.84-22.922 6.8398-46.199 5.1602-65.879-13.078-5.5195 25.559-12.359 48.84-41.16 56.762-25.68 7.0781-48 3-66.238-16.441-2.3984 0.48047-3.1211 2.0391-3.8398 3.3594-12.84 23.52-33.84 33.961-59.281 38.16-17.641 3-34.32-0.71875-51.238-4.3203-15.602-3.3594-25.559-13.078-31.801-27.238-1.4414-3.2383-3-6.3594-5.0391-10.441-4.4414 5.5195-6.3594 11.398-9.9609 16.32-11.52 15.961-26.281 26.762-45.359 32.16-27.238 7.6797-53.641 7.0781-79.441-5.5195-12.961-6.3594-20.281-17.16-25.441-29.762-3.1211-7.6797-5.5195-15.602-8.5195-24.359-8.2812 6.1211-15.48 12.719-24.48 16.801-16.078 7.1992-32.281 12.121-50.281 9-22.922-3.8398-38.879-16.199-48.359-37.199-5.3984-11.879-9.3594-24.121-9.2383-38.52-6.4805 2.8789-11.879 6.3594-17.641 7.6797-15.961 3.3594-32.039 4.9219-47.879-0.71875-1.8008-0.60156-3.8398-1.3203-5.7617-1.3203-13.078 0-22.078-7.4414-30.238-16.441-5.2812-5.8789-9.2383-12.719-13.32-19.441-9.7188-15.84-7.1992-32.641-3.9609-49.32 1.3203-6.8398 3.8398-13.559 5.8789-20.52-5.2812-0.83984-9.9609-1.5586-14.52-2.3984-31.801-5.8789-43.078-32.039-43.078-57.961 0-7.8008 1.4414-15.84 4.4414-23.16 5.8789-14.52 15.359-25.68 30.719-30.602 12.359-3.9609 24.602-8.8789 37.922-7.1992 4.0781 0.48047 5.7617-1.0781 5.7617-5.1602 0-11.398-0.12109-22.922 0.23828-34.32 1.3203-39.84 1.4414-79.68 6.6016-119.28 3.1211-24 11.641-45.719 25.68-65.281 12.238-17.039 30-26.398 49.078-33.359 9.6016-3.4805 10.32-3.1211 10.559-13.801 0.83984-30.48 5.3984-60.48 13.199-89.879 4.4414-16.801 9.3594-33.359 17.16-48.961 3.8398-7.8008 6.3594-16.078 9.3594-24.238 6.2383-16.559 18.238-27.121 32.281-36.48 12.961-8.6406 27.602-13.32 42.719-18.602-6.2383-18.84-3.9609-37.922-2.1602-56.879 0.48047-5.5195 1.8008-10.922 1.8008-16.441 0-16.441 9.1211-26.762 21.602-35.641 16.32-11.641 34.68-18.48 53.52-24 5.3984-1.5586 8.0391-3.7188 8.1602-9.3594 0.12109-11.16 2.5195-22.32 0.96094-36.121-5.1602 9.1211-9 16.199-13.199 23.16-4.5586 7.6797-10.801 13.559-18.602 17.879-6.9609 3.8398-11.641 0.96094-11.398-7.0781 0.12109-3.9609 1.5586-7.6797 3.3594-11.281 6.3594-12.602 12.84-25.199 19.078-37.922 6.3594-12.961 13.441-25.078 28.68-29.52-1.0781-5.8789-6-6.9609-9-9.6016-13.68-12.238-15.602-29.879-6.2383-44.641 9.6016-15.238 39.602-15 46.801-0.23828 1.4414 2.7617 3.6016 5.1602 5.0391 7.9219 5.7617 10.801 5.5195 20.879-2.6406 30.719-3.7188 4.5586-8.7617 7.6797-13.078 13.199 22.801 10.801 37.68 29.039 50.879 50.762 5.3984-6.9609 10.32-13.441 15.359-19.801 6.4805-8.3984 12.961-16.801 21.84-23.039 6.3594-4.4414 6.3594-8.5195-0.23828-12.359-10.801-6.3594-14.879-15.719-14.398-27.719 0.60156-15.121 10.078-25.078 25.441-25.32 6-0.12109 9.7188-0.96094 13.199-6.8398 5.3984-9 20.398-7.4414 23.641 3.2383 4.4414 14.641 16.199 26.039 16.922 42.121 0.35938 8.3984 7.1992 14.641 10.441 22.32 5.1602 11.879 3 18.121-9.1211 22.68-2.8789 1.0781-5.8789 1.9219-9.4805 3.1211 2.3984 4.4414 7.0781 5.3984 10.199 8.0391 7.1992 6.1211 10.32 15 7.6797 23.16-2.0391 6.2383-6.1211 8.2812-11.641 5.1602-4.0781-2.2812-7.9219-5.1602-11.52-8.2812-7.1992-6.2383-15.121-11.281-24.238-16.078 0.12109 6.9609 4.8008 11.641 6.9609 17.039 6.1211 15.359 17.039 28.441 21.719 44.52 0.96094 3.1211 3.8398 3.6016 6.3594 4.6797 8.6406 3.9609 16.559 9 23.039 16.199 2.0391 2.3984 4.5586 4.4414 6.9609 6.3594 25.199 21 31.441 46.68 18.602 76.922-3.4805 8.2812-8.6406 15.602-12.961 23.16 2.1602 2.5195 4.5586 2.6406 6.9609 2.7617 25.801 1.6797 48.84 10.441 70.559 24.602 15.359 10.078 23.52 24.359 28.68 40.559 7.0781 22.078 13.559 44.52 14.398 68.039 0.35938 9.4805 1.0781 18.961 2.2812 28.32 3.2383 24.48 0.48047 48.84-1.9219 73.199-0.71875 6.7188 0.83984 9.1211 8.0391 10.68 24.719 5.2812 46.68 16.68 64.199 35.281 9.7188 10.199 15.84 22.559 19.68 35.879 6.6016 23.281 8.6406 47.16 9 71.281 0.60156 34.32 1.6797 68.641 2.6406 102.84 0.35156 1.1992 0.83203 2.2812 1.3125 5.0391zm-377.52-70.078c-14.762 13.922-33.359 18-52.32 17.879-12.48 0-24.238-5.0391-33.84-14.641-7.6797-7.6797-12-17.16-16.441-26.879-35.16 30.121-77.52 16.68-83.52-21.48-4.5586 2.2812-8.8789 5.1602-13.68 6.7188-15 5.0391-30.719 4.8008-43.078-4.4414-15.359-11.641-26.762-27.238-21-48.961 1.4414-5.2812-0.48047-7.8008-5.6406-9.4805-10.199-3.3594-17.281-11.039-23.039-19.559-12.48-18.719 0.60156-51.359 21.961-55.68 9.2383-1.9219 9.7188-2.8789 8.6406-12-0.60156-5.0391-2.6406-7.1992-7.6797-5.3984-15.238 5.5195-29.879 12-41.039 24.48-10.801 12.121-18.48 26.52-21.602 41.52-5.3984 25.801-2.5195 51 19.68 70.078 14.641 12.602 28.559 26.039 47.52 32.281 1.0781 0.35938 2.0391 1.0781 3.1211 1.6797 31.441 16.68 63.84 30.961 97.559 42.121 21.719 7.1992 44.16 11.641 66.48 16.559 30.48 6.7188 60.602 11.641 92.281 9.9609 48-2.3984 96.121-4.3203 143.76-10.68 40.199-5.3984 80.398-10.801 119.52-22.078 44.879-12.961 77.762-40.441 98.641-82.32 1.5586-3.1211 2.7617-6.6016 3.3594-10.078 4.4414-25.441-5.0391-46.441-22.199-64.32-14.879-15.48-33.719-24.121-54.359-29.398-10.801-2.7617-12.238-2.1602-12.602 9.3594 0 1.0781 0.71875 2.1602 1.0781 3.1211 5.3984 0 10.078-2.3984 15.359-2.2812 11.16 0.35938 17.879 7.1992 24.238 15 13.32 16.199 12.84 39.602-1.0781 55.199-8.0391 9-18.121 13.68-30 14.52-3.8398 0.23828-6.8398 0.35938-6.4805 5.7617 0.83984 17.039-8.7617 27.359-23.52 33-18.359 7.0781-37.078 11.039-56.762 2.0391-8.2812 16.199-18.84 29.52-37.32 34.078-18.121 4.4414-35.16 3.6016-49.559-9.9609-12.48 16.199-28.801 23.16-47.879 22.922-18.238-0.12109-36.121-2.7617-49.32-17.281-2.8789 2.7617-5.1602 4.9219-7.4414 7.0781 2.5195-7.8008 5.8789-15.359 5.1602-24-0.23828-2.3984 1.4414-4.4414 4.3203-4.3203 1.3203 1.1992 1.4414 2.7617 1.4414 4.3203 0.23828 15.48 5.3984 22.559 20.281 25.68 10.801 2.2812 21.719 4.4414 32.879 3.4805 9.6016-0.83984 18.719-3.8398 26.281-9.7188 7.1992-5.5195 12.48-12.238 8.3984-22.32-1.8008-4.5586-0.71875-9.3594-0.60156-14.039 0-1.6797 0.71875-3.1211 2.3984-3.6016 2.3984-0.60156 3.7188 0.96094 4.3203 2.8789 1.3203 4.5586 3.3594 9 2.8789 13.801-1.0781 10.078 5.0391 15.602 12.961 18.84 20.398 8.2812 44.641 2.3984 56.879-13.68 10.078-13.32 10.559-14.281 2.5195-28.199-1.5586-2.7617-5.8789-6.3594-1.1992-8.8789 4.0781-2.1602 4.5586 3.3594 5.7617 5.6406 9 17.039 27.719 21.121 42.48 17.641 7.8008-1.8008 15.121-4.1992 22.32-7.4414 8.0391-3.6016 13.078-9.9609 15.602-18.359 2.8789-9.2383 0.71875-14.398-7.5586-20.039-2.2812-1.5586-6.6016-1.4414-5.7617-7.1992 6.1211 1.6797 12.121 3 17.879 5.1602 3.8398 1.4414 7.5586 2.1602 11.52 1.9219 14.52-0.96094 30.121-16.199 31.68-30.602 1.6797-15.121-4.3203-26.641-15-36.719-7.5586-7.0781-15.84-6.1211-24.359-4.1992-7.8008 1.6797-7.9219 8.8789-9.3594 15-0.23828 1.1992-0.23828 2.3984-0.48047 3.4805-4.1992 28.199-20.879 45-47.398 54.719-18 6.6016-36.48 9.9609-54.84 14.281-26.16 6.2383-52.922 8.8789-79.68 10.922-28.199 2.1602-56.52 3.7188-84.84 6.2383-22.441 1.9219-45.121 2.7617-67.441 0-40.922-5.1602-81.719-11.039-121.56-23.879-24-7.8008-40.441-23.52-56.879-40.441-6.4805-6.7188-9.6016-15.121-10.078-24.48-0.35938-7.4414-1.5586-14.879-2.6406-22.32-1.3203-8.8789-7.4414-11.879-14.879-6.7188-5.2812 3.6016-9.1211 8.5195-12.48 14.039-6.8398 11.398-6.7188 22.801 1.4414 33.121 8.6406 10.922 18.121 21.84 34.801 14.762 0.83984-0.35938 2.1602 0.35938 3.2383 0.48047 0.60156 3-0.96094 4.8008-3 6.1211-5.7617 3.3594-7.3203 8.7617-8.0391 14.879-2.0391 17.641 7.1992 30.238 20.281 38.762 12.719 8.2812 27.84 7.9219 42 2.0391 3.6016-1.4414 6.4805-4.4414 8.5195-8.0391 0.96094-1.6797 1.9219-3.4805 3.1211-5.0391 1.1992-1.6797 2.8789-2.8789 5.0391-2.0391 2.5195 0.96094 1.5586 3 1.3203 4.9219-2.5195 18.961 3.4805 31.441 18.238 38.16 17.52 8.0391 37.441 4.9219 49.078-7.5586 3.3594-3.6016 5.7617-7.3203 7.1992-12 0.96094-3.2383 4.0781-3.6016 6.9609-3 1.6797 0.35938 1.6797 2.1602 1.5586 3.8398-2.0391 21.602 10.32 34.078 27.48 43.801 10.68 6 21.961 5.0391 33.48 4.1992 12.953-1.2148 22.914-9.375 34.555-12.734zm365.52-77.281c-6.3594 13.801-13.68 25.441-21.719 36.48-9.2383 12.719-18.84 25.078-32.398 33.84-25.32 16.32-53.762 24.121-82.801 30-32.039 6.4805-64.199 11.762-96.602 15.84-30.48 3.8398-60.961 7.8008-91.801 7.6797-18.121-0.12109-36.238-0.83984-54.359 1.3203-18.84 2.2812-37.68-0.12109-56.52-2.8789-12.121-1.8008-23.762-5.6406-35.879-7.3203-26.641-3.9609-52.078-12.238-77.398-20.879-26.52-9.1211-51.359-21.961-76.68-33.84-18.238-8.5195-36.121-17.52-50.16-32.762-1.0781-1.0781-2.5195-1.8008-3.7188-2.8789-11.762-9.7188-22.199-20.281-23.039-36.961-0.12109-1.6797-0.71875-3.8398-4.3203-4.8008-4.8008 59.398-7.0781 118.44-6.1211 179.52 7.3203-6.2383 11.52-15 21-9.9609 5.0391 2.6406 8.2812 12.84 6.3594 17.762-3 7.4414-10.922 9.8398-23.281 7.1992 3.9609 21.84 29.039 54.359 51.238 64.68 16.68 7.8008 33.719 15.121 51 21.961 15.84 6.2383 32.641 8.7617 48.719 14.16 25.801 8.6406 51.48 17.398 78.359 22.199 20.879 3.7188 41.16 10.32 62.398 13.078 22.922 2.8789 45.719 0.71875 68.52 2.0391 11.039 0.60156 22.078 0.60156 33.121 0.35938 27.238-0.48047 54.359-3.1211 81.121-7.9219 18.602-3.2383 37.559-5.0391 55.801-9.8398 31.922-8.3984 63.84-17.281 95.879-25.441 16.32-4.0781 30.961-11.762 45.602-19.32 7.0781-3.7188 13.922-8.6406 20.281-14.039 17.281-14.879 18.121-35.879 21.602-55.801 1.6797-9.4805 0.96094-19.441 0.83984-29.281 0-8.8789 1.1992-18 0.96094-27.121-0.71875-35.039-1.6797-70.199-2.6406-105.24-0.24219-6.5898-0.24219-13.551-3.3633-21.832zm45.121 253.44c8.1602-3.3594 13.922-2.3984 18.719 1.0781 9 6.3594 16.68 3.1211 23.762-2.5195 11.52-9.1211 17.641-21.602 17.281-36.121-0.71875-30.238-18.961-51.238-44.52-63.121-11.52-5.3984-24.961-7.0781-38.16-2.6406-9 3.1211-10.32 5.5195-11.762 15.121-2.1602 14.879 0.83984 29.879-1.8008 44.762-4.0781 23.879-14.039 43.078-37.801 53.16-8.0391 3.3594-16.32 5.7617-24.238 9.1211-19.922 8.3984-40.199 16.32-61.199 21.719-18.719 4.8008-37.559 9-56.281 13.559-39.48 9.6016-79.199 17.52-120 17.879-2.3984 0-4.6797 0.35938-7.0781 0.71875-24.719 4.1992-49.68 1.0781-74.398 0.12109-15.602-0.60156-31.32-3.3594-47.039-3.8398-8.2812-0.23828-16.68-0.35938-24.719-2.3984-21.359-5.2812-42.961-9.8398-64.199-15.84-28.441-8.0391-57-15.359-84.84-25.32-8.1602-2.8789-16.441-6-24.84-7.4414-12.719-2.1602-24.359-6.1211-36.121-11.879-19.199-9.3594-34.801-21.48-45.238-39.961-6.2383-11.16-13.68-21.84-16.801-34.801-2.8789-12.121-2.7617-24.238-3.3594-36.359-0.23828-3.7188-0.48047-7.5586-5.1602-7.8008-17.281-1.1992-33.84 0.23828-48.359 11.281-18.84 14.281-24.602 45.961-15.719 68.039 10.199 25.441 37.922 37.199 61.922 24.602 6.6016-3.4805 13.801-2.8789 20.879-2.5195 1.6797 0.12109 3.2383 0.83984 2.5195 2.8789-0.23828 0.83984-1.5586 1.8008-2.5195 2.0391-1.9219 0.35938-3.9609 0.12109-5.8789 0.23828-13.441 0.71875-21.359 7.1992-25.559 20.281-3.1211 9.4805-4.5586 19.199-6.2383 28.922-1.0781 6.4805-0.23828 12.719 2.7617 18.48 10.801 21.121 22.68 40.078 49.922 43.68 13.441 1.8008 26.52 2.6406 39.961 1.3203 11.281-0.96094 19.801-7.1992 26.762-15.84 2.2812-2.7617 4.1992-5.7617 6.2383-8.6406 4.3203-5.8789 10.199-7.8008 17.398-7.4414-0.71875 4.4414-4.4414 4.8008-6.8398 6.6016-11.398 8.2812-15.961 20.52-12.84 34.32 0.83984 3.8398 1.6797 7.6797 2.8789 11.52 7.6797 24.961 22.801 41.879 49.801 46.078 22.922 3.4805 42.84-3.7188 61.078-16.801 6.1211-4.3203 10.441-10.801 10.922-18.961 0.35938-5.5195 2.0391-10.801 3.7188-16.078 1.1992-3.9609 3.6016-5.6406 8.6406-4.6797-8.0391 17.398-6.3594 33.961-0.83984 51.602 8.6406 27.602 33.359 42.84 65.398 45.719 15.84 1.4414 30.121-4.8008 44.52-10.078 26.398-9.7188 44.16-34.801 43.922-62.52 0-5.1602-0.12109-10.199 0-15.359 0-1.4414 0.12109-3.2383 2.1602-3.6016 2.5195-0.48047 3.7188 1.1992 4.1992 3.1211 0.60156 2.2812 0.83984 4.6797 0.83984 6.9609 0.23828 5.8789-0.12109 11.879 0.71875 17.762 2.1602 17.16 8.3984 33.121 24.238 40.922 24.84 12.359 51.602 14.398 78.238 5.6406 17.641-5.7617 30.359-18 38.281-34.801 1.4414-3.1211 3-6.4805 1.4414-10.199-4.9219-11.879-4.0781-24.602-5.6406-36.961-0.23828-2.0391 0.48047-2.8789 1.9219-3.7188 1.8008-0.96094 2.8789 0 3.6016 1.6797 4.9219 10.801 9.9609 21.48 8.2812 33.961-1.5586 11.398 3.1211 19.801 13.441 24.719 12.238 5.8789 25.078 9.7188 38.879 6.9609 12.359-2.5195 25.078-4.9219 32.762-16.441 13.801-20.52 16.922-42.121 4.6797-64.68-1.3203-2.3984-2.8789-4.8008-0.35937-8.1602 5.6406 4.1992 7.9219 10.32 10.199 16.441 4.3203 11.16 12 20.281 22.559 24.719 17.641 7.5586 36 7.6797 54.121 0.35938 30.961-12.602 55.441-32.398 71.641-62.281 12.48-23.039 8.5195-42.238-11.879-59.281-5.1797-4.8008-11.422-4.5586-18.98-9zm-639-515.76c-2.5195 1.8008-3.1211 4.1992-3.8398 6.3594-19.68 58.32-28.68 117.84-20.398 179.28 1.4414 10.32 1.6797 21.602 9 30.121 8.7617 10.199 18.48 19.199 30.602 25.68 12.238 6.6016 25.078 11.281 37.801 16.441 21.359 8.6406 43.922 12.359 66.719 15.121 20.762 2.5195 41.52 4.6797 62.16 7.6797 24.238 3.6016 48.719-0.60156 73.078-3.2383 39.961-4.1992 80.281-4.3203 119.88-12.48 23.879-4.9219 48.121-8.5195 71.16-16.801 8.6406-3.1211 17.16-6.6016 22.922-14.039 11.398-14.762 21.48-30.121 22.199-49.68 0.12109-2.2812 0.83984-4.6797 1.1992-6.9609 4.3203-23.762 6.3594-47.762 6.4805-71.762 0.12109-25.68-3-51.121-5.7617-76.68-0.48047-4.1992-0.60156-8.5195-4.1992-11.52-1.8008 0.60156-1.9219 2.1602-2.3984 3.6016-7.5586 22.922-21.48 41.398-40.922 54.961-14.16 9.8398-30.719 16.078-47.281 21.121-20.762 6.3594-42.359 9-63.84 11.879-18 2.3984-36.121 3.3594-54.121 5.2812-34.078 3.6016-68.16 7.1992-102.12-1.1992-3.8398-0.96094-7.8008-0.96094-11.762-1.4414-11.398-1.3203-22.801-2.2812-33.84-5.5195-39.961-11.879-74.641-33.359-107.04-58.801-12.121-9.4805-19.441-22.559-22.68-37.801-0.71875-3.125-0.35547-6.4844-2.9961-9.6055zm73.559-15.238c-2.7617-0.83984-5.0391-1.3203-7.1992-2.0391-12.238-4.0781-20.879-12.359-22.441-25.078-1.3203-11.398 5.5195-20.281 14.879-26.52 9.9609-6.6016 20.16-12.602 32.879-9.9609 1.6797 0.35938 4.1992 0.83984 4.9219-1.8008 0.71875-2.6406-0.96094-4.5586-3.2383-5.6406-3.4805-1.6797-6.9609-0.83984-10.32 0.23828-6.3594 2.0391-13.078 3.3594-19.078 6.1211-18.121 8.0391-35.039 17.641-46.199 35.039-22.199 34.559-5.3984 78.84 19.801 94.441 12 7.4414 23.281 16.199 35.398 23.52 26.52 15.84 54.238 28.922 85.559 32.16 7.4414 0.71875 15 1.4414 22.199 3.4805 27.238 7.6797 54.961 5.6406 82.32 3.4805 35.641-2.7617 71.281-7.0781 106.68-12.84 35.762-5.8789 67.441-18.961 91.922-46.32 17.398-19.441 24.121-42.238 18.48-67.922-2.7617-12.359-7.0781-24.84-16.32-33.602-16.441-15.602-36.359-24.961-58.801-28.68 4.3203 2.8789 8.0391 6.4805 11.52 10.199 13.199 13.801 17.879 29.879 10.441 47.762-7.3203 17.641-19.199 30.84-40.199 31.559-3.7188 0.12109-6 1.1992-6.2383 5.2812-0.23828 4.0781-1.8008 7.6797-4.1992 10.922-9.6016 12.602-31.199 26.039-51 16.32-4.3203-2.1602-6.4805-1.3203-7.9219 3-0.35938 1.0781-0.96094 2.1602-1.5586 3.2383-15.719 27.359-50.879 30.719-71.16 6.9609-1.4414-1.6797-2.0391-4.4414-5.2812-4.4414-13.078 12.602-26.762 24.719-47.16 21-19.078-3.4805-32.52-14.281-39.238-32.879-22.68 16.559-43.922 18-64.441 5.1602-6.4805-4.0781-11.039-9.9609-16.32-15.238-5.7617-5.7617-7.1992-12.48-6.2383-20.52 0.71484-9.4844 5.1562-17.402 7.5547-26.402zm38.879-140.52c-10.922-2.8789-15.84-11.281-22.922-18.238-3.9609 21.961-6.3594 42.602-4.9219 63.48 0.35938 4.4414 0.12109 10.68 5.7617 11.879 5.3984 1.1992 9.3594-3 12.238-7.3203 1.3203-1.9219 2.2812-4.0781 3.6016-6.1211 1.0781-1.6797 2.0391-3.3594 3.4805-4.8008 6.4805-6.7188 13.32-5.0391 15.719 3.8398 0.83984 3 0.71875 6.3594 1.6797 9.2383 2.1602 6.8398 7.6797 8.0391 12.48 2.7617 2.8789-3.2383 5.1602-6.9609 7.9219-10.32 3.6016-4.4414 8.0391-8.6406 13.922-6.7188 5.2812 1.8008 6.4805 7.4414 7.3203 12.602 0.35938 2.2812 0.12109 4.6797 0.23828 7.0781 0.12109 3.1211 0.12109 6.3594 0.71875 9.4805 1.1992 5.8789 4.0781 6.9609 9.2383 3.6016 5.0391-3.1211 6.7188-8.6406 9.6016-13.199 6.6016-9.9609 15-10.922 23.039-2.0391 2.8789 3.2383 4.9219 7.0781 5.5195 11.52 0.96094 7.8008 2.3984 15.602 3.3594 23.398 0.60156 5.1602 1.9219 9.9609 4.6797 14.52 4.4414 7.0781 9 7.6797 15.238 1.9219 3.9609-3.6016 5.6406-8.2812 6.8398-13.441 1.6797-6.8398 3-13.922 6.7188-20.16 6-9.7188 14.879-10.32 22.199-1.8008 3.4805 3.9609 5.1602 8.7617 6.9609 13.559 1.9219 5.1602 6.1211 5.8789 10.199 2.1602 2.3984-2.1602 3.4805-5.2812 4.5586-8.1602 1.0781-3 1.8008-6 3.1211-8.8789 1.9219-4.5586 5.7617-6.2383 10.32-6.7188 4.8008-0.35938 7.0781 2.8789 9 6.3594 1.6797 3.1211 2.7617 6.6016 4.8008 9.3594 1.8008 2.3984 4.0781 5.3984 7.6797 4.6797 3.6016-0.71875 4.6797-4.0781 5.3984-7.0781s0.71875-6.2383 0.83984-9.3594c0.23828-4.6797 0.12109-9.4805 1.9219-14.039 1.6797-4.5586 3.7188-8.8789 9.2383-9.8398 5.3984-0.96094 9 2.0391 11.762 6.2383 1.0781 1.6797 2.1602 3.3594 3.2383 4.9219 6.8398 9 11.762 8.6406 17.762-1.1992 11.641-18.602 12.84-38.52 7.3203-59.16-1.1992-4.1992-2.6406-8.5195-5.6406-11.641-11.398-11.52-23.281-22.441-36.84-31.199-4.0781-2.6406-8.1602-5.1602-11.281 1.6797-1.3203 2.8789-4.6797 4.1992-7.8008 4.8008-5.3984 1.1992-6.1211 4.6797-5.8789 9.7188 0.23828 5.5195 2.7617 7.8008 7.6797 8.3984 2.2812 0.35938 4.9219-0.12109 6.1211 3.1211-3.8398 7.8008-10.68 10.441-19.078 10.801-4.9219 0.12109-8.0391-0.83984-9.8398-6.1211-2.0391-5.5195-5.1602-10.559-8.3984-15.602-3.1211-4.9219-5.8789-4.9219-8.6406-0.12109-2.3984 4.0781-3.9609 8.5195-6.4805 12.602-1.9219 3.1211-1.8008 4.8008 0.60156 8.0391 3.8398 5.1602 2.8789 7.1992-3 9.7188-2.8789 1.1992-5.8789 2.2812-9 2.7617-9.6016 1.8008-13.801-2.2812-11.16-11.52 1.4414-5.0391 1.5586-10.078 2.0391-15.121 0.35938-3.7188-0.71875-5.3984-4.9219-6.1211-11.879-2.0391-14.398-7.1992-9.8398-18.121 2.8789-6.8398 6.3594-13.559 9.2383-20.398 1.5586-3.6016 0.60156-6.3594-3.8398-6.2383-8.2812 0.12109-16.559-0.12109-24.84 0.71875-7.1992 0.71875-8.2812 2.8789-7.0781 10.441 1.6797 10.078 3.8398 20.16 5.0391 30.359 1.0781 9.2383 5.2812 17.641 6.4805 26.879 0.48047 3 1.6797 6.1211-1.3203 8.7617-8.5195 7.5586-22.441 3.7188-25.922-7.0781-3.1211-9.8398-4.9219-19.922-6.9609-29.879-0.96094-4.3203-1.0781-9.3594-6.6016-12.359-5.0391 7.9219-3.9609 16.922-5.6406 25.199-0.96094 5.0391-2.6406 9.9609 2.8789 13.801 2.0391 1.4414 1.3203 4.3203 0.71875 6.6016-2.2812 7.6797-12.121 11.398-21.84 8.5195-5.2812-1.5586-8.6406-5.1602-8.6406-10.078 0.12109-12.602-2.2812-25.199 0.12109-37.801 0.96094-5.0391 1.3203-10.199 1.5586-15.238 0.23828-7.0781-1.5586-8.7617-8.3984-6.3594-14.16 4.9219-28.32 9.8398-40.922 18.238-3.6016 2.3984-7.0781 5.1602-9.8398 8.3984-5.6406 6.6016-8.6406 16.078 0 24.238 3.2578 3.3555 7.6953 5.9961 9.375 13.195zm121.32 152.88c22.922 1.1992 49.68-1.4414 76.199-4.8008 16.559-2.0391 32.398-6.7188 47.039-14.879 7.8008-4.4414 14.039-10.68 15-20.039 1.0781-9.8398 1.6797-19.68 1.8008-29.52 0-7.4414-0.71875-15-8.6406-19.32-2.2812-1.1992-3.4805-4.1992-5.2812-6.2383-2.8789-3.2383-3.9609-10.199-9.9609-8.1602-4.6797 1.6797-4.6797 7.5586-5.2812 12.238-0.12109 1.5586-0.12109 3.1211-0.12109 4.6797 0 4.3203-0.35937 8.6406-2.1602 12.719-5.5195 11.762-13.078 13.078-21.602 3.3594-2.0391-2.2812-3.6016-5.1602-5.0391-7.9219-1.4414-2.7617-2.1602-6.3594-6.1211-6.2383-3.8398 0.12109-4.9219 3.3594-5.8789 6.4805-1.9219 6.6016-5.1602 12.359-10.441 16.801-6.4805 5.3984-11.398 4.3203-14.762-3.4805-1.5586-3.6016-2.5195-7.5586-4.3203-10.922-4.8008-8.8789-11.762-9.1211-16.68-0.12109-2.6406 4.8008-3.7188 10.32-5.1602 15.719-1.6797 6.2383-4.0781 11.879-8.7617 16.441-9.7188 9.6016-19.68 7.8008-25.32-4.5586-2.8789-6.6016-3.9609-13.68-4.1992-20.762-0.23828-6.3594-1.5586-12.48-3-18.602-1.1992-5.1602-3.9609-9.6016-9.9609-10.32-5.3984-0.60156-7.3203 3.6016-9.8398 7.1992-3.2383 4.8008-5.5195 10.32-11.039 13.559-9 5.3984-13.922 3.9609-16.078-6.1211-1.3203-6.1211-1.6797-12.48-2.3984-18.719-0.23828-2.2812-0.12109-5.0391-2.7617-6.1211-3.1211-1.3203-5.2812 0.60156-6.9609 3-3.3594 4.9219-7.1992 9.3594-12.121 12.84-8.3984 6-16.441 2.8789-18.719-7.1992-0.60156-2.6406-0.35938-5.5195-0.83984-8.1602-0.83984-4.3203-3.9609-5.8789-6.4805-2.8789-6 7.0781-13.441 13.441-11.16 24.602 3 14.641 4.9219 29.398 8.0391 44.039 1.5586 7.4414 5.6406 14.398 12.48 18 11.16 5.6406 21.719 12.359 34.078 15.961 23.895 6.9648 48.016 8.7656 76.453 7.4453zm-129.72-19.801c-3.9609 3.1211-7.1992 3.1211-10.199 3.8398-9.8398 2.1602-15.602 8.6406-18.48 18-0.96094 3-1.9219 6-2.6406 9.1211-1.6797 7.8008-0.35938 14.762 5.1602 20.879 8.0391 9 17.52 16.078 29.281 19.078 14.398 3.6016 31.441 2.3984 42.84-12.121 3.2383-4.0781 5.1602-8.7617 6.7188-13.68 0.60156-1.9219 1.8008-3.7188 4.1992-2.8789 2.1602 0.71875 2.6406 2.6406 1.9219 4.8008-0.60156 1.9219-1.3203 3.7188-1.9219 5.6406-2.3984 7.6797-0.96094 14.52 3.8398 21.121 12 16.801 38.762 27 60.359 10.441 7.6797-5.8789 13.32-13.199 12.961-23.879-0.12109-3-1.5586-7.1992 3.1211-9 3.7188 3.4805 3.2383 8.0391 3.3594 12.238 0.12109 5.0391 1.9219 9.1211 4.5586 13.078 13.441 20.039 37.801 18.602 53.039 6.3594 12-9.6016 16.922-21.602 8.5195-31.68-1.9219-2.2812-6.1211-6.3594-2.0391-8.7617 3.6016-2.1602 5.3984 3.1211 7.4414 5.8789 0.83984 1.3203 1.5586 2.7617 2.3984 4.0781 7.3203 11.52 18.602 15.961 31.559 11.641 7.1992-2.2812 13.68-6.1211 19.078-11.641 7.8008-8.0391 7.9219-17.762 0.71875-26.52-1.6797-2.1602-5.8789-2.3984-5.3984-6.6016 4.8008-1.3203 7.4414 1.4414 10.441 4.0781 9.2383 8.3984 18.602 9 28.68 1.6797 21.602-15.602 28.199-44.52 8.8789-64.559-7.6797-7.9219-15.359-10.199-25.199-8.7617-4.9219 0.71875-7.6797 3.2383-8.0391 8.5195-0.35938 6.7188-1.4414 13.32-1.5586 20.039-0.23828 12.121-6.4805 20.641-15.359 27.961-13.68 11.281-30.719 12-46.922 13.68-26.641 2.7617-53.281 5.0391-80.039 6.6016-34.078 1.9219-66.719-2.2812-98.398-14.879-18-7.1992-30.719-19.078-33.961-39-0.83984-5.3984-1.8008-10.922-2.3984-16.32-0.71875-6.1211-3.9609-9.2383-10.078-9.2383-16.199 0-29.039 6.6016-37.801 20.281-4.3203 6.7188-3.1211 14.398 2.3984 20.641 8.2812 9.3594 18.238 13.199 30.719 9.6016 5.4023-1.4375 11.281-4.1953 18.242 0.24219zm134.64-226.92c2.3984-5.8789-0.48047-10.441-3-14.641-6.6016-11.16-13.078-22.441-21.238-32.641-15.238-19.078-44.039-17.879-56.762 3.1211-9 14.762-16.559 30.359-24 46.078-0.48047 1.0781-1.1992 2.0391-1.5586 3.1211-0.48047 1.4414-0.83984 3.2383 0.71875 4.3203 1.3203 0.96094 3 0.83984 4.3203-0.12109 3.9609-2.7617 6.8398-6.4805 9.1211-10.68 4.4414-7.9219 8.7617-15.84 13.32-23.641 1.9219-3.3594 4.3203-7.8008 8.6406-6.9609 5.1602 0.96094 5.2812 6.1211 5.3984 10.559 0.12109 1.9219 0.23828 3.9609 0 5.8789-0.96094 8.6406-2.2812 17.16-3 25.801-1.9219 20.398-4.5586 40.68-3.9609 61.199 0.12109 3.9609-0.12109 7.9219 1.4414 11.641 0.83984 2.1602 2.0391 4.4414 4.8008 4.6797 2.8789 0.23828 4.0781-1.9219 5.0391-4.0781 2.7617-5.7617 3.8398-12 4.1992-18.238 0.35938-7.0781 1.0781-14.16 3.2383-21 0.96094-3.2383 2.5195-5.8789 6-6.6016 4.0781-0.83984 6.7188 1.4414 8.8789 4.4414 2.5195 3.6016 4.0781 7.5586 5.0391 11.879 1.6797 8.0391 3.6016 16.078 5.7617 24.121 0.83984 3.2383 1.3203 7.9219 6.1211 7.3203 4.3203-0.48047 4.5586-5.0391 5.0391-8.3984 1.0781-6.6016 0.71875-13.32-0.48047-20.039-4.5586-24.359-8.1602-48.961-16.32-72.48-0.83984-2.6406-1.5586-5.2812-1.9219-8.0391-0.48047-3.6016-0.48047-7.4414 3.7188-9 4.8008-1.8008 7.3203 1.3203 9.2383 5.0391 3.1211 5.8789 6.1211 11.879 9.4805 17.641 2.8867 4.7969 6.3672 9.1172 12.727 9.7188zm108.96-10.922c-0.23828-10.559-4.9219-17.762-12.359-22.559-11.281-7.1992-22.801-14.16-34.559-20.398-6.9609-3.7188-13.801-3.4805-20.281 2.8789-9.6016 9.4805-17.762 20.039-25.801 30.719-2.7617 3.8398-3.7188 8.2812-4.3203 12.602 3.3594 2.1602 5.2812 0.60156 7.0781-0.83984 4.5586-3.8398 8.7617-7.8008 12.238-12.719 4.8008-6.8398 10.32-12.961 16.199-18.719 1.4414-1.4414 3.1211-2.7617 5.1602-1.3203 1.4414 0.96094 1.6797 2.6406 1.5586 4.1992-0.23828 1.9219-0.48047 3.9609-1.1992 5.7617-7.4414 16.078-13.078 33-22.68 48-4.9219 7.6797-8.3984 16.078-10.922 24.84-2.8789 9.9609 1.5586 14.879 11.879 14.16 17.281-1.1992 34.32-5.0391 51.359-8.0391 11.398-2.0391 13.801-6.8398 9.2383-16.559-8.0391-17.16-16.441-34.078-24.961-50.879-3.4805-6.8398-6.7188-13.559-7.6797-21.84 11.398 1.3203 18.359 8.8789 26.52 14.039 8.0508 4.9141 15.73 11.031 23.531 16.672zm-15.602-36c4.4414-2.3984 9.8398-0.48047 14.762-2.1602 7.9219-2.6406 8.7617-4.9219 5.2812-12.719-5.3984-12.121-13.32-23.16-14.398-36.961-0.12109-1.8008-1.3203-3.7188-2.1602-5.3984-2.1602-4.3203-5.0391-4.3203-8.2812-1.0781-2.0391 1.9219-3.7188 3.8398-4.1992 6.8398-1.6797 11.16-7.1992 19.559-17.16 25.199-5.7617 3.2383-5.3984 9.1211 0.23828 12.602 6.7188 4.0781 13.559 7.9219 20.281 11.879 1.5547 0.95703 3.2383 1.918 5.6367 1.7969zm-146.76-77.879c-12.719-0.23828-23.16 10.32-23.641 24.121-0.48047 12.719 9 23.039 21.48 23.281 12 0.35938 23.762-10.082 23.762-21.121 0-14.641-9.3594-26.043-21.602-26.281zm112.56 5.2812c-10.441-0.35938-19.801 8.7617-19.199 20.762 0.71875 15 6.1211 21.719 16.441 21.48 10.922-0.23828 22.078-9.4805 22.32-19.922 0.35547-12.48-8.043-21.84-19.562-22.32zm-18.242 95.039c-2.6406 3.3594-5.0391 7.0781-8.1602 9.9609-8.7617 7.9219-14.281 19.68-28.199 21.719-9.8398 1.4414-11.281 2.3984-17.039-4.9219-4.5586-5.8789-8.5195-12.121-13.801-19.801 0.96094 10.922 5.0391 19.078 7.0781 27.719 0.60156 2.6406 2.7617 3.9609 5.3984 3.4805 11.762-2.0391 23.641-1.1992 35.398-0.96094 3.2383 0 5.1602-1.3203 6.3594-4.1992 4.8047-10.797 11.168-20.875 12.965-32.996zm-8.8789 110.04c7.5586-6.7188 11.762-14.281 12-24.238-13.32 1.3203-16.199 7.0781-12 24.238zm45.121-208.56c-4.8008-2.6406 1.0781-5.7617-2.7617-7.8008-3.4805 7.5586-3.4805 7.5586 9.9609 20.52 1.0781-1.6797 2.1602-3.3594 3-5.0391 2.2812-4.8008 1.8008-10.078-2.3984-12.84-4.8008-3.2422-5.043 4.8008-7.8008 5.1602zm0.23828 196.68c3-5.7617 1.5586-10.68-0.12109-15.359-1.5586-4.5586-5.2812-2.6406-7.9219-1.5586-3.2383 1.3203-2.0391 3.8398-0.23828 5.6406 3.0039 3.1172 2.8828 8.2773 8.2812 11.277zm77.52 96.961c0.12109-0.60156 0.35938-1.0781 0.48047-1.6797-3.8398 0-7.6797-0.12109-11.398 0-1.5586 0-3.2383 0.83984-2.7617 2.7617 0.35938 1.6797 2.1602 2.0391 3.7188 1.5586 3.2422-0.84375 6.6016-1.8008 9.9609-2.6406zm-498.84 501.48c1.8008 2.8789 3.6016 5.6406 5.7617 9.1211 1.1992-5.2812-0.83984-8.043-5.7617-9.1211z"/>
 <path d="m441.36 930.6c-6.8398-3.3594-7.8008-11.039-13.801-13.559-3 0.35938-3.1211 3.1211-4.3203 5.0391-1.9219 3.3594-4.9219 3.7188-8.1602 3-4.1992-0.96094-2.7617-4.0781-2.2812-6.6016 0.83984-4.5586-4.9219-11.281 4.5586-13.199 2.3984-0.48047 0.35938-3.2383-0.35938-4.9219-2.0391-4.3203-6.1211-7.8008-6.8398-14.039 6.6016 1.0781 7.8008 6.2383 10.68 9.4805 1.1992 1.3203 2.6406 3.9609 4.5586 2.0391 10.559-10.68 4.4414 3.6016 7.0781 4.6797 3.8398-0.12109 5.3984-4.4414 9.6016-4.6797 1.8008 4.6797-2.2812 5.8789-4.8008 7.8008-3.7188 2.8789-4.9219 5.0391-1.3203 9.4805 3.4883 3.7188 6.125 8.6406 5.4062 15.48z"/>
 <path d="m710.04 856.2c-3.8398 0.83984-4.9219-1.6797-6.4805-3.2383-3.6016-3.7188-6.4805-8.2812-12.121-2.0391-2.7617 3-6-0.12109-7.9219-2.5195-2.1602-2.6406-3.4805-6-5.2812-9 1.0781-3.6016 4.8008-1.5586 6.9609-3.3594 1.5586-4.0781-4.6797-5.0391-3.7188-8.8789 0.60156-1.0781 1.8008-1.5586 2.7617-1.0781 7.9219 3.6016 7.9219 3.6016 12.84-2.3984 2.6406 0.83984 1.8008 3 1.8008 4.8008v4.4414c2.8789 2.2812 5.2812-2.2812 8.3984 0.35937-8.9961 8.2695 0.36328 14.75 2.7617 22.91z"/>
 <path d="m905.64 764.76c3.2383 1.6797 1.1992 5.3984 3.4805 7.1992 2.6406 0.60156 3.3594-1.6797 4.5586-3 1.0781-1.0781 1.9219-2.5195 4.6797-1.1992-3.9609 8.1602-3.9609 16.32 3 23.039-2.1602 1.9219-3.6016 1.5586-4.8008 0.35938-4.3203-4.1992-7.3203-4.0781-11.039 1.5586-3.7188 5.6406-6.1211 5.2812-10.199 1.0781-5.1602-5.2812-5.0391-7.4414 0.12109-11.762 1.4414-1.1992 4.3203-1.9219 3.2383-4.1992-2.6406-5.3984 1.0781-6.3594 4.5586-8.2812 1.2031-0.59375 1.5625-3.1133 2.4023-4.793z"/>
 <path d="m850.32 907.32c0-9.8398 7.6797-17.762 17.039-17.52 7.1992 0.23828 13.078 6 12.84 12.84-0.12109 7.8008-10.199 18-17.762 18.121-6.7188 0-12.117-6-12.117-13.441zm13.078 5.7578c5.8789-0.12109 10.559-4.0781 10.32-8.8789-0.23828-4.5586-4.0781-8.0391-8.6406-7.8008-4.5586 0.23828-7.9219 4.4414-7.9219 9.9609 0.125 3.9609 1.5625 6.9609 6.2422 6.7188z"/>
 <path d="m314.28 794.04c0.60156 5.0391-8.5195 5.8789-5.0391 11.762 2.3984 3.9609 6.1211 7.1992 5.5195 13.68-4.8008-3.8398-7.0781-9.1211-12-11.281-3 1.9219-3 5.6406-5.0391 8.0391-2.6406-1.3203-4.3203-4.4414-7.6797-3.9609 0.23828-0.96094 0.12109-1.8008 0.60156-2.3984 5.7617-7.9219 5.6406-8.0391 0-14.879-3.2383-3.9609-8.6406-6.4805-9.2383-12.602 4.9219-1.4414 5.8789 2.5195 8.1602 4.3203 2.6406 2.0391 4.4414 6 8.8789 3.1211 1.0781-0.60156 2.6406-0.12109 2.7617 1.0781 0.96094 11.039 6.6016 5.0391 11.039 3.1211 0.47266-0.23828 1.3125 0 2.0352 0z"/>
 <path d="m790.68 923.52c3.3594 0.12109 7.3203-0.48047 10.559 0 5.0391 0.83984 9.8398 2.2812 12.238 0.83984 2.3984 3.1211 0.12109 5.7617-1.8008 6.9609-7.0781 4.1992-5.7617 8.7617-0.83984 14.641-7.9219-7.3203-16.32 1.8008-24.238-2.2812-0.71875-3-0.96094-6.2383 1.0781-8.7617 1.3203-1.6797 4.6797-1.4414 4.8008-4.4414 0.24219-2.1562-2.9961-3.4766-1.7969-6.957z"/>
 <path d="m668.16 955.92c-6.2383 5.8789-12.84 7.0781-18.48 3.3594-5.2812-3.3594-7.4414-10.68-5.3984-18 1.6797-6 8.3984-11.039 15.121-11.281 10.801-0.35938 18 6.4805 17.281 16.922-0.35938 5.0391-2.5195 9.1211-8.6406 9.1211-0.23828-2.2812 1.8008-3.3594 2.6406-4.9219 2.8789-5.3984 0.35938-9.9609-3-13.68-3.1211-3.6016-9.7188-3-13.922 0.48047-3.7188 3.1211-5.3984 9.7188-3.1211 13.801 2.6406 4.5586 6.6016 6.2383 11.879 4.5586 1.8008-0.48047 3.7188-0.24219 5.6406-0.35938z"/>
 <path d="m572.88 880.2c1.4414 7.4414 0.48047 12.961 7.8008 11.762 4.3203-0.71875 4.8008 3.2383 3.7188 6.6016-0.83984 2.5195-2.3984 4.9219-3.6016 7.3203-0.71875 1.5586-2.8789 3-3.4805 1.8008-3.9609-7.5586-11.039-0.48047-15.961-3.6016-1.4414-0.96094-3.9609 0-4.3203-2.7617-0.23828-1.9219 1.0781-2.7617 2.6406-3.3594 7.5586-2.8789 1.8008-6.4805-0.96094-10.922 5.7656 0.35938 11.523 3.2422 14.164-6.8398z"/>
 <path d="m371.64 829.08c0-6.2383 3.7188-9.3594 12-9.8398 5.2812-0.23828 11.879 4.9219 11.641 9.2383-0.23828 6-7.4414 11.879-14.039 11.762-5.7617-0.23828-9.6016-4.7969-9.6016-11.16z"/>
 <path d="m783.6 833.4c-0.35937 6.9609-7.9219 13.922-15 13.68-6.1211-0.12109-10.32-5.2812-9.9609-12 0.60156-8.3984 5.5195-12.961 13.68-12.602 6.9609 0.36328 11.52 4.8047 11.281 10.922zm-12.723 8.5234c4.6797-0.23828 6.9609-3.1211 7.3203-7.4414 0.23828-3.6016-1.1992-6.3594-5.2812-6.1211-4.5586 0.23828-7.1992 2.7617-7.4414 7.4414-0.23828 3.5977 1.4453 5.8789 5.4023 6.1211z"/>
 <path d="m878.28 839.28c0.60156-7.6797 6-12.961 12.719-12.48 5.7617 0.35938 9.4805 4.4414 9.3594 9.9609-0.23828 7.3203-6.9609 13.559-13.922 13.078-5.7578-0.48047-8.7578-4.1992-8.1562-10.559zm16.68-3.7227c0-0.83984-1.4414-3-3.8398-3.1211-4.8008-0.35938-5.1602 3.9609-6 7.1992-0.60156 2.2812 1.3203 3.8398 3.4805 3.6016 3.3594-0.35938 6.1172-1.6797 6.3594-7.6797z"/>
 <path d="m482.4 967.56c-0.23828-8.1602 4.1992-13.922 10.801-14.039 6-0.12109 11.762 4.1992 11.879 8.8789 0.12109 7.0781-6.7188 13.078-15.121 13.078-5.5156 0.003907-7.4375-2.0352-7.5586-7.918zm19.68-2.8789c-0.60156-3.3594-2.7617-5.6406-6.2383-5.0391-4.0781 0.71875-6.8398 3.6016-7.1992 7.9219-0.23828 2.7617 1.5586 4.1992 4.1992 4.1992 4.6797 0 9.3594-3.6016 9.2383-7.082z"/>
 <path d="m750.12 897.84c0.48047 6.4805-2.2812 8.6406-6.9609 9-5.2812 0.48047-8.8789-2.2812-9.2383-6.8398-0.35938-4.6797 3.6016-9.9609 7.9219-10.32 4.3164-0.35938 8.1562 3.9609 8.2773 8.1602z"/>
 <path d="m332.76 891.6c-0.71875 5.8789-4.0781 8.7617-9.2383 7.8008-4.8008-0.83984-6.2383-4.0781-5.7617-8.5195 0.48047-5.0391 4.5586-8.1602 9.7188-7.8008 5.2812 0.47656 5.6406 4.3164 5.2812 8.5195z"/>
 <path d="m462.48 840.48c0 5.2812-2.3984 7.9219-6.8398 8.6406-3.9609 0.60156-7.8008-2.5195-7.6797-6.6016 0.12109-4.5586 2.7617-7.0781 7.3203-7.1992 3.8398 0 6.7188 1.5586 7.1992 5.1602z"/>
 <path d="m932.04 812.64c0 4.3203-5.6406 9.2383-9.7188 8.7617-3.2383-0.35938-4.6797-2.6406-4.9219-5.6406-0.35938-4.5586 3.2383-9.1211 7.3203-9 3.8398 0.11719 6.7227 1.7969 7.3203 5.8789z"/>
 <path d="m605.16 971.16c-0.23828 3.8398-3 6-6.7188 6.2383-4.6797 0.23828-6.8398-3.1211-7.1992-7.3203-0.35938-3.7188 0.48047-7.1992 5.2812-7.1992 3.4766-0.11719 8.3984 4.5625 8.6367 8.2812z"/>
 <path d="m553.08 856.56c-4.0781-0.71875-6-3.3594-5.6406-7.3203 0.35938-3.9609 1.3203-8.1602 6.6016-7.5586 4.8008 0.48047 5.8789 4.3203 5.7617 8.5195 0 4.3203-2.6406 6.1211-6.7227 6.3594z"/>
 <path d="m626.04 879.12c3 0.83984 3.8398 3.8398 4.0781 6.8398 0.23828 4.0781-3.4805 7.4414-7.4414 7.0781-4.3203-0.35937-5.8789-3.3594-5.6406-7.1992 0.24609-3.1211 5.1641-6.9609 9.0039-6.7188z"/>
 <path d="m258.48 750.12c-3.8398 0-6.4805-1.4414-6.6016-5.2812 0-3 1.5586-5.5195 4.9219-5.5195 3.3594 0.12109 6 2.0391 6.4805 5.6406 0.35938 3.4805-1.8008 4.918-4.8008 5.1602z"/>
 <path d="m820.92 833.88c-0.71875 3.3594-2.3984 5.8789-6.1211 5.5195-3.1211-0.23828-4.8008-2.7617-4.5586-5.6406 0.23828-3.4805 2.2812-5.7617 6-5.6406 3.4766 0.24219 4.1992 3.0039 4.6797 5.7617z"/>
 <path d="m907.8 896.16c0 3.3594-1.5586 4.9219-4.3203 5.1602-2.8789 0.23828-4.4414-1.5586-4.8008-4.0781-0.35938-2.7617 1.1992-4.5586 3.9609-4.5586 2.6406-0.003906 4.4375 1.5547 5.1602 3.4766z"/>
 <path d="m935.04 1047.8c-15.238 0.35938-28.559-7.6797-33.359-18.84-3.6016-8.1602-3-15.602 3.8398-21.48 7.4414-6.3594 14.52-13.441 23.52-17.641 9.3594-4.3203 17.762-9.9609 25.68-16.559 3-2.5195 6.3594-4.5586 9.6016-6.8398 7.9219-5.6406 16.078-6.2383 24-0.35938 10.441 7.6797 14.398 18.238 10.922 28.801-2.3984 7.5586-6 14.52-11.281 20.641-12.121 14.039-27 24-44.281 30.359-3.2383 1.1992-6.8398 1.5586-8.6406 1.918zm-0.71875-4.4414c2.7617-0.23828 5.6406 0 8.1602-0.96094 22.199-8.8789 40.801-22.441 50.879-44.879 5.5195-12.238 0.83984-20.398-10.078-28.199-3.6016-2.6406-8.1602-3-12.238-0.35938-3.6016 2.3984-7.1992 4.8008-10.559 7.4414-9.1211 6.8398-18 14.039-28.559 18.719-8.0391 3.4805-14.398 9.6016-20.641 15.602-7.5586 7.1992-7.4414 13.68-0.71875 21.719 6.1133 7.4414 13.914 11.16 23.754 10.918z"/>
 <path d="m977.52 855.36c19.922-0.35938 44.16 19.078 46.801 36.84 2.1602 14.398-3.7188 25.559-13.32 34.801-6.9609 6.7188-20.641 4.0781-27.238-4.6797-8.5195-11.281-16.68-22.922-24.719-34.559-4.9219-7.0781-7.8008-15.359-3.3594-23.281 4.4375-7.8008 13.316-8.7617 21.836-9.1211zm-2.2812 4.1992c-14.039 0.48047-20.16 10.441-13.199 22.68 7.4414 12.961 16.559 24.84 25.801 36.48 2.8789 3.6016 6.9609 5.0391 11.039 6.4805 4.1992 1.5586 7.9219 0.48047 10.559-2.8789 7.4414-9.2383 11.641-19.32 8.3984-31.68-3.957-14.879-26.516-30.242-42.598-31.082z"/>
 <path d="m692.76 1124.4c-15.719-0.23828-29.281-5.0391-39.48-17.762-8.6406-10.801-6.8398-21.48 5.0391-28.441 13.922-8.1602 29.16-8.5195 44.641-7.5586 4.6797 0.35938 9.3594 1.0781 14.16 1.0781 14.879 0.12109 22.441 11.52 16.801 25.559-6.2422 15.488-24.363 27.367-41.16 27.125zm-2.4023-4.918c18.238 0.83984 31.559-7.0781 38.281-21.48 2.2812-4.9219 2.3984-9.8398 0.60156-14.879-1.3203-3.6016-3.4805-6.1211-7.6797-6-7.5586 0.35938-14.879-1.4414-22.32-1.8008-12.238-0.71875-24.359 0.71875-35.641 6.2383-10.441 5.1602-12.359 13.922-5.1602 23.039 8.7578 11.281 20.398 15.723 31.918 14.883z"/>
 <path d="m529.68 1129.8c-10.68 0.71875-21.602 0.48047-30.961-5.2812-9.7188-5.8789-18.84-12.961-21.121-25.32-1.6797-9.3594 3.6016-20.762 12.238-24.238 5.7617-2.3984 12-3.4805 18.48-2.3984 13.559 2.2812 27.121 4.4414 40.801 6 13.441 1.5586 21.121 10.078 22.199 20.52 1.3203 12.84-5.1602 23.52-17.16 27.84-7.7969 2.8789-16.195 2.6367-24.477 2.8789zm-1.1992-2.7617c8.2812-0.48047 16.68 0.23828 24.359-3.4805 7.6797-3.8398 13.559-9.7188 13.922-18.961 0.35938-8.6406-4.5586-17.398-12.359-19.68-17.762-5.0391-36-8.8789-54.602-7.9219-13.078 0.60156-22.078 17.16-15 28.078 5.6406 8.8789 12.359 17.039 23.879 19.801 6.6016 1.4453 13.199 1.3242 19.801 2.1641z"/>
 <path d="m381 1098.7c-7.9219-1.6797-17.52-3.9609-25.199-10.559-4.4414-3.8398-8.0391-8.5195-12-12.961-5.8789-6.4805-7.6797-13.801-3.6016-21.719 4.1992-8.1602 11.762-11.281 20.641-11.039 9.9609 0.23828 19.199 3.6016 28.078 7.9219 4.9219 2.3984 9.8398 5.3984 15.121 6.4805 7.0781 1.5586 13.199 3.4805 14.16 11.641 1.0781 8.7617-1.1992 16.078-8.8789 21.602-8.0391 5.875-16.922 8.2734-28.32 8.6328zm4.3203-4.5586c6.3594-0.35938 12.602-1.1992 18.121-4.3203 5.7617-3.2383 9.8398-7.9219 10.441-14.762 0.48047-4.9219 0-10.32-5.5195-11.641-12.359-2.8789-22.68-10.801-35.039-13.801-6.1211-1.5586-12.359-2.7617-18.602-0.71875-8.0391 2.5195-12.84 11.641-9.9609 18.602 5.7578 13.32 25.68 26.641 40.559 26.641z"/>
 <path d="m850.44 1068.2c-1.5586 13.199-10.199 23.16-22.559 29.762-10.801 5.7617-21.719 6.2383-32.16-1.8008-3.3594-2.6406-7.1992-4.8008-10.922-6.9609-7.8008-4.5586-9.7188-12.121-10.32-20.16-0.35938-4.1992 1.3203-7.4414 6.1211-8.7617 15.84-4.6797 31.68-9.3594 48-12 15-2.5156 21.598 3.7227 21.84 19.922zm-17.16-15c-6.2383-0.12109-40.922 8.2812-46.801 11.398-8.1602 4.1992-9.1211 11.762-1.8008 17.879 5.7617 4.8008 12.121 8.7617 18.359 12.84 4.0781 2.7617 8.8789 3.3594 13.68 2.2812 14.398-3.1211 23.16-12.48 27.84-26.039 1.0781-3 0.83984-6.2383 0.12109-9.3594-1.6797-7.3164-3.6016-8.8789-11.398-9z"/>
 <path d="m268.68 1007.8c0.35937 8.1602-2.0391 15.359-9.6016 18.719-7.3203 3.2383-14.52 1.3203-20.52-4.4414-12.121-11.52-18.359-25.32-15.961-42.121 2.0391-14.039 11.641-20.762 23.762-17.762 3.2383 0.83984 6.1211 2.2812 7.4414 5.2812 4.4414 10.801 11.398 20.641 14.16 32.281 0.48047 2.5195 0.48047 5.2812 0.71875 8.043zm-40.801-20.043c0.23828 9.3594 4.6797 17.281 9.6016 24.84 5.6406 8.7617 14.641 12.602 20.641 9.7188 5.3984-2.6406 7.8008-11.52 5.8789-21.238-2.2812-11.52-9.7188-20.398-15.121-30.359-3.3594-6.1211-11.16-5.2812-15.719 0.48047-3.8398 4.8008-5.2812 10.441-5.2812 16.559z"/>
 <path d="m209.04 872.28c-2.2812 12.238-0.48047 25.559-9.1211 36.84-6.7188 8.7617-13.559 9.6016-21.359 1.6797-17.039-17.398-14.641-39.48-0.48047-56.398 5.0391-6 12.238-7.3203 19.441-6 7.1992 1.3203 8.8789 8.1602 10.801 14.039 0.96094 2.8789 0.48047 6.2383 0.71875 9.8398zm-5.6406 6.1172c0-4.3203 0.23828-8.6406 0-12.961-0.35938-5.7617-2.0391-11.398-8.0391-13.078-5.8789-1.6797-10.559 1.8008-14.398 6.1211-10.441 11.879-11.641 32.281-2.5195 45 3 4.1992 6.6016 8.0391 12.48 7.5586 6.3594-0.48047 8.0391-5.8789 9.7188-10.559 2.5195-7.082 2.6406-14.641 2.7578-22.082z"/>
 <path d="m377.4 509.16c-3.7188 18-8.5195 33.121-11.16 48.84-2.6406 15.961-3.3594 31.922-3.2383 48.121 0.12109 15.961 4.8008 31.32 7.1992 49.32-19.199-22.441-14.16-122.76 7.1992-146.28z"/>
 <path d="m391.8 519.6c-8.2812 46.441-18 91.801-2.2812 139.8-7.4414-5.7617-9.4805-11.398-10.559-17.641-6.2383-36.719-1.0781-72.84 4.9219-108.96 0.48047-2.6406 1.4414-5.2812 2.6406-7.8008 0.71484-1.6797 1.0781-3.7188 5.2773-5.3984z"/>
 <path d="m681 549.48c13.199 30.961 17.762 109.56 9 134.4 1.8008-45.117-2.0391-89.879-9-134.4z"/>
 <path d="m507.84 557.28c5.0391 2.6406 3.2383 5.5195 2.7617 7.9219-4.8008 22.801-6 45.961-5.7617 69.121 0.12109 15.84 3 31.199 7.5586 46.32 0.60156 1.9219 1.4414 3.7188 1.6797 5.5195 0.12109 0.83984-0.83984 2.1602-1.6797 2.7617-1.0781 0.71875-2.5195 0.12109-2.8789-0.96094-1.6797-4.3203-3.7188-8.7617-4.6797-13.32-5.1602-23.16-6.8398-46.68-4.3203-70.32 1.6797-15.484 3.4805-31.086 7.3203-47.043z"/>
 <path d="m796.8 653.52c10.922-45 4.6797-90.359 3.2383-135.48 8.7617 19.801 11.883 117.6-3.2383 135.48z"/>
 <path d="m527.64 691.8c-13.078-44.281-11.762-87.961 6.9609-130.68-2.7617 21.84-10.922 42.719-10.922 65.16-0.12109 21.957 1.6797 43.68 3.9609 65.52z"/>
 <path d="m777.36 526.2c10.32 40.922 12.121 81.961 4.0781 123.36-2.1602-20.762 1.1992-41.52 0.48047-62.398-0.71875-20.52-4.7969-40.68-4.5586-60.961z"/>
 <path d="m655.56 558.36c10.801 21.961 18.84 99 13.078 117.36-3.8398-0.12109-2.8789-3.1211-2.7617-5.0391 0.71875-24.121-2.3984-48-4.4414-71.879-0.71875-8.2812-2.5195-16.32-4.8008-24.238-1.1914-4.4414-2.7539-9.0039-1.0742-16.203z"/>
 <path d="m470.64 278.76c5.8789-2.5195 9.9609 1.1992 14.16 3.2383 30.719 15 63.238 21 97.199 19.922 7.0781-0.23828 14.039-1.8008 21.121-2.5195 1.8008-0.23828 3.8398-1.0781 5.2812 1.0781-25.801 16.32-115.68 0.71875-137.76-21.719z"/>
 <path d="m632.4 303c34.922-0.60156 65.641-9.7188 91.441-32.641 2.8789 2.3984 0.12109 3.9609-1.1992 5.3984-14.281 14.762-32.641 21.48-51.84 26.16-9.3594 2.2812-18.359 7.3203-28.559 5.6406-3.0039-0.48047-6.4805 0.72266-9.8438-4.5586z"/>
 <path d="m635.64 756.84c-10.559 0-18.84-2.5195-27.121-4.9219-5.0391-1.4414-9.1211-4.9219-9.2383-10.922-0.23828-6.3594 3.2383-10.559 9-12.359 14.039-4.3203 28.441-6 43.078-5.0391 8.0391 0.48047 12.602 11.762 8.0391 19.559-5.6367 9.6055-14.277 14.402-23.758 13.684zm5.5195-27.84c-9.8398 0.23828-19.559 1.6797-29.16 3.9609-4.1992 0.96094-7.5586 2.6406-7.6797 7.4414 0 4.8008 3.7188 6.7188 7.5586 7.8008 9.8398 2.7617 19.922 4.4414 30.238 3.7188 6.3594-0.35938 10.078-4.0781 12.48-9.3594 3.2383-7.1992-0.60156-13.078-8.7617-13.441-1.5547-0.12109-3.1172-0.12109-4.6758-0.12109z"/>
 <path d="m556.68 754.92c0.12109-14.281-6.9609-21.602-21.121-21.48-6.6016 0.12109-13.32 0.12109-19.922 0.71875-4.3203 0.35938-9 2.2812-10.078 6.8398-1.0781 4.4414 2.0391 8.3984 5.6406 10.922 9.2383 6.4805 19.559 9.8398 30.961 8.5195 3.4805-0.35938 6.9609-0.83984 10.441-1.3203-0.83984 1.9219-2.5195 3.2383-4.4414 3.6016-14.281 3.2383-28.078 2.2812-40.559-6.2383-1.5586-1.0781-3-2.6406-4.1992-4.0781-7.9219-10.199-5.7617-18.84 6.7188-22.078 11.039-2.8789 22.68-2.8789 33.84-0.96094 6 1.0781 11.398 4.6797 14.52 10.922 3 5.6328 3.4805 10.43-1.8008 14.633z"/>
 <path d="m718.44 745.32c-4.0781 0.23828-7.8008-1.3203-11.52-2.3984-5.5195-1.6797-8.2812-6-8.6406-11.52-0.48047-6.1211 3.9609-9 8.8789-11.039 5.5195-2.2812 11.52-2.3984 17.398-3.1211 5.0391-0.60156 10.078-0.71875 15.121-1.8008 7.4414-1.5586 12 3.1211 11.398 10.68-0.60156 6-3.8398 10.199-9 13.078-7.3164 4.082-15.359 5.5195-23.637 6.1211zm14.758-23.16v-0.23828c-6.9609 0.96094-14.039 1.4414-20.879 2.8789-3.3594 0.71875-6.8398 2.6406-7.4414 6.6016-0.35938 2.5195 1.5586 4.1992 3.4805 5.7617 7.8008 6.1211 30 2.8789 35.762-5.2812 1.9219-2.7617 2.3984-5.7617 0.83984-8.8789-1.6797-3.3594-4.4414-2.1602-7.0781-1.4414-1.5625 0.23828-3.1211 0.35938-4.6836 0.59766z"/>
 <path d="m794.28 716.76c-9.1211-0.12109-12.238-2.1602-13.922-9.3594-1.3203-5.3984 1.6797-10.801 8.5195-13.801 10.801-4.9219 22.68-6.1211 34.078-9.3594 5.6406-1.5586 9.6016 4.6797 7.5586 11.281-2.6406 8.3984-8.5195 14.039-16.559 17.281-6.3555 2.6367-12.957 3.957-19.676 3.957zm2.2773-4.8008c9.8398 0.23828 17.879-3.1211 24.961-9.6016 2.5195-2.2812 3.9609-4.9219 4.0781-8.1602 0.12109-2.6406-1.3203-5.0391-4.1992-3.8398-8.7617 3.6016-18.48 3.2383-27.238 7.0781-4.4414 1.9219-7.9219 3.8398-7.3203 9.1211 0.83984 6.3633 6 5.043 9.7188 5.4023z"/>
 <path d="m846.96 654.72c0.48047-10.441 2.2812-20.039 9.4805-27.602 5.8789-6.1211 12.48-5.5195 16.199 2.0391 5.8789 11.641 3.4805 26.641-5.2812 34.922-1.9219 1.8008-4.5586 3.1211-7.0781 4.0781-7.6797 2.8789-12.121 0.12109-13.078-8.0391-0.24219-1.918-0.24219-3.8359-0.24219-5.3984zm6.1172-0.83984c0-0.12109-0.12109 1.0781 0 2.1602 0.35938 2.6406-0.35938 5.8789 2.6406 7.3203 3.4805 1.6797 6-0.71875 8.2812-2.7617 6.3594-5.7617 8.0391-21.602 3.1211-28.441-2.1602-3-4.8008-2.8789-6.6016-0.12109-4.0781 6.2461-8.0391 12.605-7.4414 21.844z"/>
 <path d="m365.64 704.76c0 9.9609-7.5586 14.879-16.199 9.4805-7.8008-4.9219-15.602-10.801-19.078-20.281-2.5195-6.7188-1.4414-13.199 2.7617-16.32 4.0781-3.1211 10.199-1.8008 15.84 3.4805 3.9609 3.7188 7.0781 8.3984 11.762 11.398 4.6719 2.8789 4.5547 8.0391 4.9141 12.242zm-4.1992-0.72266c-0.60156-1.4414-1.0781-4.1992-2.6406-5.6406-5.7617-5.1602-12.238-9.2383-16.441-16.199-1.6797-2.8789-6.1211-1.0781-7.0781 2.5195-0.96094 3.1211-0.48047 6.3594 1.1992 9.1211 4.3203 7.0781 10.801 12.238 17.641 16.68 3.5977 2.2812 7.5586-1.0781 7.3203-6.4805z"/>
 <path d="m422.28 713.52c7.1992-0.23828 16.078 4.5586 25.441 7.5586 6.8398 2.2812 7.8008 11.281 2.3984 16.559-4.1992 3.9609-9.2383 6-15.121 5.5195-8.8789-0.71875-16.68-4.4414-24-9.1211-4.0781-2.5195-5.3984-10.441-3.4805-15.121 1.6797-4.0742 5.5195-5.875 14.762-5.3945zm14.641 24.48c0.83984-0.12109 2.7617 0 4.6797-0.48047 3.2383-0.83984 5.8789-2.3984 6.1211-6.1211 0.23828-3.8398-1.9219-5.6406-5.2812-6.6016-7.0781-2.1602-13.801-5.3984-21.359-6.3594-3.6016-0.48047-6.4805 0.23828-7.8008 3.3594-1.5586 3.4805-0.60156 6.8398 2.8789 9.2383 5.8789 3.8438 12.359 6.4844 20.762 6.9648z"/>
 <path d="m312.48 627.48c-0.12109 4.5586-1.4414 8.6406-4.0781 12.121-2.7617 3.7188-6.6016 5.2812-11.281 4.5586-4.8008-0.71875-5.7617-4.5586-6.8398-8.5195-1.9219-7.1992-0.96094-13.922 2.3984-20.398 1.6797-3.2383 3.9609-6 8.1602-5.5195 4.0781 0.48047 7.6797 2.2812 9.1211 6.3594 1.1992 3.8398 1.6797 7.7969 2.5195 11.398zm-16.441 0.23828c0.12109 2.1602 0.12109 3.7188 0.23828 5.2812 0.12109 2.8789 0.60156 5.7617 4.3203 5.7617 3.2383 0 4.4414-2.6406 5.2812-5.3984 1.5586-5.1602 0.12109-10.078-1.1992-15-0.35938-1.4414-1.5586-2.6406-3.3594-2.8789-1.9219-0.23828-2.8789 1.1992-3.6016 2.5195-1.6797 3.2344-1.6797 6.7148-1.6797 9.7148z"/>
 <path d="m467.28 468.24c-14.52-0.83984-25.441-7.9219-32.762-20.16-3.6016-6.1211-3.8398-12.602 0.60156-18.961 4.1992-6 6.8398-7.0781 13.922-4.9219 12.359 3.8398 21.84 12.48 31.68 20.16 4.4414 3.4805 6.6016 8.8789 3.6016 14.879-2.8828 5.4062-9.4844 9.0039-17.043 9.0039zm-0.72266-5.2773c7.4414-0.12109 11.879-2.2812 12.84-5.5195 1.1992-4.3203-1.1992-7.5586-4.3203-10.078-7.0781-6-13.801-12.719-22.801-15.961-3.9609-1.4414-8.3984-3.4805-11.879 0.71875-3.3594 4.1992-2.7617 9.1211-0.35938 13.32 6.2422 10.68 16.199 16.078 26.52 17.52z"/>
 <path d="m535.68 450.48c10.801 1.1992 20.281 5.2812 30.359 7.1992 9.7188 1.9219 11.762 13.199 3.9609 20.52-8.7617 8.1602-19.441 11.879-31.559 8.3984-5.6406-1.5586-10.68-4.8008-15.602-8.2812-5.8789-4.3203-7.5586-9.7188-6.2383-16.441 1.3203-6.9609 6.8398-9.1211 12.602-10.801 2.3984-0.59375 4.7969-0.47266 6.4766-0.59375zm0.96094 5.7578c-2.5195 0.23828-4.1992 0.23828-5.6406 0.60156-3.9609 1.0781-7.1992 2.6406-8.3984 7.1992-1.1992 4.8008 1.3203 7.4414 4.5586 9.8398 4.0781 3 8.5195 5.6406 13.441 7.1992 8.3984 2.7617 16.441 1.0781 23.762-3 6.6016-3.6016 7.5586-12 1.8008-14.039-9.7227-3.3594-20.164-5.3984-29.523-7.8008z"/>
 <path d="m756.36 393.48c-0.23828 10.078-3 18.238-9.3594 24.602-7.8008 7.8008-15.359 5.8789-18.121-4.8008-3.3594-12.602-0.71875-24.961 3.9609-36.719 2.2812-5.7617 6.9609-6.7188 12.84-4.0781 9.6016 4.3164 9.6016 13.438 10.68 20.996zm-22.801 6c-0.23828 2.5195-0.60156 4.4414-0.48047 6.4805 0.12109 2.2812 0.35938 4.6797 1.1992 6.8398 1.9219 5.0391 5.1602 5.7617 8.8789 2.2812 7.5586-7.0781 10.078-24.602 4.6797-33-1.5586-2.3984-3.4805-4.3203-6.7188-3.8398-2.7617 0.35937-4.0781 2.2812-4.9219 4.4414-2.1562 5.6367-2.7539 11.516-2.6367 16.797z"/>
 <path d="m642.12 477.48c-8.8789 9-19.32 11.16-30.961 6-7.3203-3.2383-10.078-8.6406-8.7617-14.879 1.9219-8.7617 7.1992-14.039 15-14.16 8.6406 0 17.16 1.4414 25.922 1.5586 6.7188 0 10.199 9.2383 6.7188 15.602-1.8008 3.2383-4.3203 5.6406-8.1602 6.1211 0.23828-3 3.6016-4.0781 4.1992-6.8398 0.96094-3.7188 0.60156-8.3984-3.1211-8.8789-8.7617-1.0781-17.641-3.6016-26.641-2.0391-5.2812 0.96094-8.0391 4.9219-8.5195 9.8398-0.48047 4.3203 2.6406 7.1992 6.3594 9 5.7617 2.8789 11.762 3.6016 18.121 1.6797 3.2422-0.96484 6.0039-3.7227 9.8438-3.0039z"/>
 <path d="m436.32 379.92v2.3984c-0.35937 9.7188-5.2812 16.68-12.48 17.398-6.4805 0.60156-14.398-6.4805-16.32-14.641-2.5195-10.199 5.5195-23.281 15.719-25.801 5.1602-1.1992 9.2383-0.23828 11.16 5.6406 1.5625 4.9219 2.1602 9.8438 1.9219 15.004zm-5.2812-0.24219c-0.48047-3.8398 0-8.1602-1.6797-12.359-1.0781-2.6406-2.7617-3.6016-5.5195-2.5195-7.9219 3.1211-12.238 13.68-9 21.84 1.6797 4.3203 4.3203 7.9219 9.3594 7.6797 5.7617-0.23828 6.2383-5.1602 6.8398-9.4805 0.12109-1.5586 0-3.1211 0-5.1602z"/>
 <path d="m699.84 429.72c9.4805 0.12109 13.441 5.5195 10.441 14.52-3.8398 11.641-19.441 18.121-30.121 12.48-7.8008-4.0781-9.4805-11.762-4.0781-18.602 4.5586-5.5156 12.719-8.3984 23.758-8.3984zm-9.3594 24.242c5.6406-0.71875 11.281-2.2812 14.16-8.3984 3.1211-6.6016 0.35938-10.801-6.8398-10.32-3.8398 0.35937-7.8008 1.1992-11.52 2.2812-4.4414 1.3203-7.8008 3.9609-6.9609 9.3594 0.71875 4.5586 4.918 7.1953 11.16 7.0781z"/>
 <path d="m528.84 72.84c0 2.0391-0.35938 3.8398-2.1602 3.9609-4.0781 0.23828-4.9219-3-5.3984-6.1211-0.23828-1.5586 0.35938-3.3594 2.1602-3.4805 4.1992-0.23828 4.7969 3 5.3984 5.6406z"/>
 <path d="m534.96 68.281c0.35937-2.1602-0.12109-5.3984 3.2383-4.8008 3.3594 0.60156 2.8789 3.9609 2.8789 6.4805 0 1.8008-0.23828 4.3203-2.6406 4.1992-3.8359 0-3.3594-3.2383-3.4766-5.8789z"/>
 <path d="m644.52 69.719c2.3984 0.48047 3 2.2812 2.7617 4.1992-0.35938 2.8789-1.4414 5.3984-4.8008 5.1602-2.5195-0.12109-2.8789-2.2812-2.7617-4.1992 0.12109-2.8789 1.4414-5.0391 4.8008-5.1602z"/>
 <path d="m633.96 76.68c-2.7617-0.71875-3.6016-2.7617-3.6016-5.2812-0.12109-2.1602 0.60156-4.1992 3-4.1992 2.7617 0.12109 3.6016 2.6406 3.7188 5.0391 0.12109 2.1602-1.1992 3.6016-3.1172 4.4414z"/>
</svg>
