<?xml version="1.0" encoding="UTF-8"?>
<svg width="1200pt" height="1200pt" version="1.1" viewBox="0 0 1200 1200" xmlns="http://www.w3.org/2000/svg">
 <path d="m537.56 1199.7c-15.234-1.7344-44.719-7.4531-54.375-10.594-6.1406-2.0156-16.547-5.2969-23.062-7.3125-15.469-4.7344-38.531-17.344-48.047-26.25-4.125-3.8906-9.7969-8.2031-12.562-9.6094-8.7656-4.5469-13.406-18.844-9.2812-28.688 2.0156-4.8281 3.9375-6.1406 15.656-10.688 12.328-4.7812 14.297-5.0625 25.734-4.125 11.578 0.9375 12.562 0.79688 15.188-2.5781 7.5469-9.7031 16.594-17.109 22.125-18.188 9.4219-1.7812 27.469 0.375 33.562 3.9844l5.4844 3.2344v-3.9844c0-2.2031 1.1719-4.4531 2.5781-4.9688 2.2031-0.84375 2.4375-3.0469 1.6406-15.562-0.51562-8.0156-1.3594-26.062-1.875-40.125s-1.2188-26.484-1.5938-27.609c-1.5469-4.9219 3.375-10.5 13.219-14.906 7.5938-3.4219 9.7969-5.1094 9.0469-7.0312-0.51562-1.4062 1.0781-8.0625 3.6094-14.859 4.3594-11.672 4.5938-13.688 4.5938-37.922 0-25.406-0.046875-25.641-4.7812-34.359-4.0312-7.4062-4.7812-10.594-4.7812-19.969 0-10.406 0.51562-12 7.2188-23.156 7.0312-11.719 7.1719-12.234 7.125-25.594-0.046875-12.094-0.70312-15.188-6.0938-27.844-4.9219-11.578-6.0469-16.312-6.2344-25.594-0.14062-6.9375 0.65625-12.938 1.9688-15.375 3.75-6.8906 5.8125-19.359 6.2344-37.312 0.23438-11.953-0.23438-18.047-1.6406-19.688-2.7188-3.2812-1.9219-15 1.875-28.781 2.1094-7.6406 3.2344-16.922 3.375-27.984 0.1875-15.469-0.14062-17.297-4.9219-27.75-5.7656-12.516-5.9531-19.688-1.0312-36 2.9062-9.5625 3.7969-39.234 1.6875-53.719-1.0312-6.9844-0.75-8.5781 1.9688-11.203 3.2344-3.0938 6.4688-11.672 6.5625-17.438 0.42188-25.547 0-39.609-1.3594-43.219-3.7031-9.7031-3.5625-15.328 0.60938-24.562 2.25-4.9688 4.5-12 5.1094-15.609 1.2656-7.7812-1.6875-31.828-4.7344-39.141-2.3906-5.7188-1.5938-10.031 3.7031-19.781 3-5.5312 3.4219-8.6719 3.2344-23.156-0.1875-11.578-1.0781-18.703-2.9531-23.203-4.5-10.734-3.9844-17.156 2.3906-30.844 4.5938-9.8906 6.0469-15.328 7.0781-26.812 1.3125-14.719 4.5-22.922 13.688-35.25 3.375-4.5469 3.5156-5.4375 1.7344-13.406-1.6875-7.4062-2.6719-8.9062-7.875-11.578-12.281-6.2812-24.281-27.656-27.375-48.75-3.75-25.5-1.7812-39.562 8.7188-62.156 1.6406-3.5156 5.4844-12.141 8.5781-19.172 5.0625-11.578 8.9531-15.984 11.109-12.469 1.0781 1.7812-5.6719 26.766-9.7031 35.859-4.7344 10.688-8.5781 31.219-7.5469 40.594 3.3281 30.609 5.9062 39.188 16.641 55.078 5.3438 7.9688 5.7656 7.5469 7.2656-7.125 1.5-14.625 2.5781-20.297 4.9219-25.969 1.875-4.4531 2.9531-5.2031 7.7812-5.2031 6.5156 0 8.9531 3.1875 8.9531 11.812 0 3.0938 0.65625 6 1.5 6.5156 1.9688 1.2188 7.7344-14.438 10.828-29.391 3.4219-16.641 1.2656-42.047-5.5781-64.359-1.6875-5.5781-4.4062-17.344-5.9531-26.109-1.5938-8.8125-3.3281-16.547-3.8906-17.203s-4.125 3.5156-7.9688 9.2812c-5.3438 8.1094-7.6875 10.359-10.312 9.9844-2.5781-0.375-3.2812-1.5-3.0469-4.9688 0.375-5.2031 10.594-23.016 15.516-27.047 4.5938-3.7969 14.109-3.6562 17.625 0.23438 2.9531 3.2344 8.6719 19.875 9.7969 28.453 0.375 2.8125 2.5781 13.641 4.9219 24 3.5156 15.516 4.2656 23.062 4.4062 42.844 0.14062 22.547-0.09375 24.75-4.4062 36.797-5.8594 16.453-6.75 18-15.844 27.938-7.2656 7.9688-7.5938 8.7188-7.5938 17.766 0 6.9844 0.5625 9.4688 2.2031 9.4688 3.3281 0 7.0312 9.1875 8.0625 19.969 0.51562 5.2969 1.2656 22.406 1.6875 38.016 0.65625 24.75 0.375 29.391-2.1562 36-3.0938 8.0625-2.9062 9.7969 2.4844 26.719 3.4219 10.781 3.4688 15.891 0.046875 26.625-3.2812 10.406-2.3906 30.188 1.875 41.344 4.3125 11.203 4.2188 14.906-0.46875 26.531-7.3594 18.234-6.7031 57.516 1.0312 61.641 2.0625 1.125 2.4375 2.25 1.4062 4.125-0.79688 1.4062-1.0781 5.2969-0.65625 8.6719 0.51562 3.6562-0.1875 8.625-1.7812 12.562-3.9375 9.8438-3.6094 34.359 0.5625 41.203 1.7344 2.8594 3.75 5.2031 4.4531 5.2031 2.5312 0 2.1562 20.438-0.46875 26.719-2.9531 6.9844-4.0312 28.266-1.9688 38.859 2.6719 14.062 2.8125 14.391 6 14.391 2.8594 0 3.0469 1.0312 2.5781 13.359-0.28125 7.3594-1.2656 14.719-2.1562 16.406s-1.7344 11.062-1.875 20.859c-0.23438 14.672 0.1875 18.234 2.3906 20.438 1.5 1.5 2.2969 4.0312 1.8281 5.8125-0.46875 1.7344-0.1875 3.5156 0.5625 3.9844s2.1094 3.5156 3 6.75c1.5 5.4375 1.3125 6.1875-2.7188 9.375-4.0781 3.2344-4.4062 4.3594-4.6406 16.828-0.375 20.297 5.2969 47.625 10.734 51.469 4.3594 3.0469 5.0156 7.875 2.0625 15.891-1.5 4.0312-2.8125 14.625-3.3281 26.109-0.84375 19.125-0.75 19.594 5.1094 36.797 6.375 18.797 7.0781 24.328 4.0312 33.469-2.1562 6.4688-2.5781 21.984-0.79688 28.031 0.60938 2.1094 2.9531 8.5312 5.2031 14.203 3.6094 9.1875 3.9844 12.047 3.2812 25.172-0.42188 8.1562-0.23438 14.812 0.46875 14.812s3.75 2.4375 6.7969 5.3906c6.5156 6.3281 8.0156 12.703 6.8438 28.969-3.8906 53.109-4.0312 64.781-0.9375 66.422 6.1406 3.2344 14.344 6.3281 16.688 6.3281 1.4531 0 5.3906-1.4062 8.8125-3.1406 4.4531-2.2969 11.062-3.4688 23.578-4.2188 15.609-0.9375 18-0.70312 23.719 2.2031 3.5156 1.7812 7.8281 4.5938 9.5625 6.2344 1.7812 1.5938 6.6094 5.5312 10.734 8.6719 6.9844 5.3438 8.5781 5.8125 22.031 6.7969 7.9688 0.5625 15.797 1.7344 17.344 2.5312 1.5469 0.84375 4.125 4.4531 5.7656 8.0156 2.5312 5.6719 3.6094 6.5156 8.1094 6.5156 10.125 0 8.8594 5.3438-5.4375 22.781-10.734 13.125-22.734 21.188-38.625 25.969-2.2031 0.65625-6.9844 2.9531-10.594 5.0156-9.8906 5.7656-36.609 15.141-50.203 17.672-6.6094 1.2188-15.234 2.9062-19.172 3.7969-13.828 3.0469-50.719 5.1094-94.359 5.3438-24.188 0.14062-46.125 0-48.797-0.28125zm97.547-9.1406c22.406-1.4062 53.156-6.4688 64.641-10.594 4.9219-1.7812 12.516-4.4062 16.922-5.8594s12.656-5.0156 18.328-7.875c5.6719-2.9062 11.344-5.25 12.609-5.25 3.9375 0 25.406-11.016 26.391-13.5 0.5625-1.4531-0.84375-3.6094-3.6562-5.625-3.9844-2.8594-7.0312-3.2344-24.375-3.2344-15.938 0-20.578 0.51562-23.719 2.7188-5.8125 3.9375-11.156 9.9375-11.156 12.469 0 3.4688-7.9688 8.8125-13.031 8.8125-2.5312 0-10.875-2.5312-18.469-5.5781-16.828-6.7969-23.672-7.0312-44.484-1.6406-17.156 4.4531-18.281 4.9688-27 11.859-5.1562 4.0781-7.6406 4.9688-14.484 4.9688-8.5312 0-12.984-2.2031-28.734-14.391-5.8594-4.5469-7.0781-4.8281-20.531-4.8281-11.766 0-15.094 0.5625-18.844 3.2344-2.4844 1.7812-9.9844 5.8125-16.688 9-10.688 5.0625-13.266 5.6719-21.609 5.0625-9.1875-0.65625-12.656-2.4375-26.484-13.734-5.6719-4.6406-16.828-11.344-21.422-12.891-6.8438-2.3438-20.438-2.3906-21.844-0.09375-1.8281 2.9531 12.141 13.781 27.984 21.609 26.766 13.266 68.156 23.859 101.62 25.969 19.406 1.2188 63.938 0.9375 87.938-0.5625zm-128.34-36.328 16.406-8.3438 18.422-0.60938c22.547-0.75 28.828 0.84375 41.391 10.266l9.7031 7.2656 4.4062-3c10.688-7.2656 36.797-14.344 58.781-15.891 11.109-0.79688 14.391-0.375 24.891 3.2812 13.875 4.7812 14.25 4.875 14.25 2.2969 0-1.0312 2.9531-4.6406 6.5156-7.9688 9.6094-8.9531 19.312-11.25 47.672-11.25 12.844 0 24.797 0.28125 26.531 0.5625 2.6719 0.46875 3.1875-0.42188 3.4219-5.7656 0.46875-10.5-2.3906-13.031-15.984-14.203-13.969-1.1719-18.047-2.5312-23.344-7.9219-2.2031-2.2031-7.9688-7.0312-12.797-10.734-8.5312-6.5156-9.0469-6.6562-18.375-5.8594-5.2969 0.46875-14.391 2.3438-20.25 4.125-9.0938 2.8125-11.812 3.0469-18.797 1.5469-4.4531-0.9375-8.5312-2.3906-9.0469-3.2344-0.51562-0.79688-1.6875-1.4531-2.625-1.4531-2.3906 0-0.60938 22.547 2.2031 27.094 1.9219 3.1875 1.6406 3.9375-3.0938 8.2031-2.8594 2.5781-7.1719 4.8281-9.6094 4.9688-2.3906 0.14062-6.5156 0.42188-9.1875 0.5625-2.625 0.14062-15.094 1.2188-27.703 2.3438-21.656 1.9219-50.953 1.5-59.109-0.9375-4.5469-1.3594-4.0781-6.5156 0.51562-5.7656 8.4844 1.3594 35.719 0.32812 54.281-2.0156 30.375-3.8438 27.422-1.7344 26.859-18.984-0.28125-8.1094-0.79688-15.562-1.1719-16.641-0.9375-2.5781 3.0938-40.641 7.0781-66.797 1.7344-11.438 2.7188-22.594 2.2031-24.797-3.0938-12.703-17.625-17.906-43.781-15.75-9.1875 0.75-24.984 2.0156-35.109 2.7656-13.969 1.0312-20.203 2.2969-25.969 5.1094-6.8906 3.375-7.5938 4.2656-7.6875 9.375-0.046875 3.1406-0.42188 26.531-0.84375 52.031-0.5625 36.891-1.1719 46.734-2.9062 48.047-1.5 1.125-1.9688 3.8906-1.5 8.8125 0.375 3.9375 0.14062 10.359-0.60938 14.344-1.0312 5.625-2.0625 7.3125-4.7812 7.6875-4.3594 0.60938-6.1875-2.7656-7.5938-14.109-1.6406-13.266-2.0156-13.828-9.6094-15.984-3.8906-1.0781-8.2969-3.3281-9.7969-5.0156-1.875-2.0625-4.875-3-9.5156-3-5.7188 0-7.5469 0.84375-11.625 5.4844-2.6719 3-5.2969 6.9375-5.8594 8.7188-1.5 4.7812-10.031 6.7969-27.516 6.5156-26.438-0.46875-35.391 5.8594-31.031 21.984l1.6406 6.1406 19.641 0.09375c22.594 0.09375 25.312 1.0312 47.625 15.703 7.4531 4.9219 14.156 8.9531 14.812 8.9531s8.5781-3.75 17.578-8.3438zm101.77-182.68 24.609 0.046875-0.9375-11.25c-0.51562-6.2344-3.0469-17.344-5.7188-24.844-4.0781-11.531-4.7344-15.516-4.3594-26.391 0.23438-7.0312 0.98438-15.328 1.5938-18.375l1.125-5.5781-2.8125 3.9844c-5.2969 7.5938-35.859 36.984-37.828 36.375-4.5-1.5-2.1094-6.1875 9.75-18.891 6.9375-7.4062 14.625-17.109 17.109-21.469 2.4844-4.4062 5.625-9.2812 6.9844-10.875 2.2031-2.5781 2.1562-4.0312-0.42188-14.391-2.1094-8.5312-2.6719-15.75-2.2031-27.938 0.375-9 0.14062-16.406-0.46875-16.406-1.875 0-29.016 29.203-32.297 34.734-3.6562 6.1875-9.1875 7.1719-9.1875 1.5938 0-8.5312 20.344-38.391 38.484-56.531l6.6094-6.6094-2.7656-5.2969c-3.1406-6.0938-5.3906-12.938-6.5625-19.875-2.9531-18.094-3.4688-23.906-2.7656-32.953 0.46875-6 2.1094-12.422 3.9375-15.609 3.1875-5.4844 3.1406-7.8281-0.1875-5.8125-2.3438 1.4531-23.344 33.609-30.984 47.438-7.0781 12.844-10.031 15.797-11.625 11.625-2.7656-7.2188 20.391-55.969 33.516-70.594 2.7656-3.0938 3.2344-6.0938 3.4688-23.203 0.1875-10.828 1.2188-22.359 2.2969-25.641 1.0781-3.3281 1.7344-6.75 1.4531-7.6406s-6.9844 4.5-14.812 12c-14.672 13.969-21.656 17.344-21.656 10.406 0-5.5781 18.234-30.891 28.078-38.953 3.1406-2.5781 3.4219-3.5625 1.9219-7.2188-2.8594-6.8906-2.4375-46.125 0.60938-54.188 1.4062-3.75 2.2031-6.7969 1.7812-6.7969s-4.9219 3.8438-10.031 8.5312c-15.281 14.156-29.484 20.672-31.547 14.484-0.84375-2.5781 28.312-32.062 33.75-34.125 5.0156-1.9219 5.0156-3 0.23438-15.938-2.625-7.125-2.5781-26.156 0.09375-35.344 0.89062-3.0938-1.6406-1.3594-11.109 7.5938-8.4844 8.0156-13.5 11.578-16.266 11.578-2.8125 0-3.9844-0.89062-3.9844-2.9531 0-4.1719 14.062-22.266 24.562-31.547l8.8594-7.8281-3.2812-13.594c-2.4844-10.312-3.0469-16.453-2.3438-25.5l0.9375-11.906-4.9219 4.6875c-2.7188 2.5781-6.1406 6.7031-7.5938 9.1875-3.5625 6-10.453 5.5781-11.156-0.75-0.70312-6 10.688-22.547 22.359-32.484 5.1562-4.4062 9.3281-9.0469 9.2812-10.406-0.046875-1.3125-1.7344-7.2188-3.75-13.125-3-8.7656-3.5625-13.219-3.0938-24.562 0.375-8.4375 1.5938-15.75 3.1406-18.75 3.2344-6.2812 2.25-17.062-2.4844-27.047s-5.1094-15.047-1.7344-23.953c1.5469-4.0781 2.625-10.219 2.4375-13.594-0.23438-3.375-0.46875-20.156-0.60938-37.312l-0.1875-31.172-3.9844 4.7812c-7.7812 9.375-14.672 26.391-16.641 41.297-1.3594 10.078-3.4688 17.344-7.4062 25.453-6.4688 13.266-6.5625 14.297-2.2969 26.859 2.3438 6.9375 3.2344 13.969 3.3281 25.547 0.09375 13.875-0.42188 17.156-4.0312 24.984-4.7812 10.406-4.9688 12.75-1.7344 19.312 1.4531 2.9062 2.8125 11.906 3.4219 22.734 0.9375 17.062 0.79688 18.375-3.375 28.219-3.4688 8.1094-4.125 11.578-3.2344 16.312 1.6406 8.7188 2.2969 49.359 0.9375 59.156-0.75 5.3438-2.4844 9.7969-4.8281 12.281-3 3.2344-3.4688 4.875-2.4375 9.1875 0.65625 2.9062 1.2188 16.078 1.2188 29.297 0 21.047-0.42188 24.938-3.4219 31.734-4.4062 9.9375-4.3125 15 0.42188 25.406 8.1094 17.812 9.4219 38.016 3.8438 58.641-4.7812 17.766-5.2969 24.656-2.1094 29.531 4.3125 6.5625 2.2031 37.406-3.7031 54.562-5.8125 16.828-5.5312 25.922 1.4062 44.812 4.2656 11.625 5.2969 16.828 5.3906 27.188 0.09375 11.625-0.42188 13.922-6 25.594-4.0312 8.3906-6.1406 15.047-6.1406 19.406 0 6.2812 1.125 9.1875 10.031 26.203 3.3281 6.3281 3.7969 9.5625 3.9844 26.25 0.23438 22.781-2.1094 34.266-9.9844 48.562l-5.7188 10.406 20.531-1.4531c11.297-0.79688 31.594-1.4062 45.141-1.3594z"/>
</svg>
