<?xml version="1.0" encoding="UTF-8"?>
<svg width="1200pt" height="1200pt" version="1.1" viewBox="0 0 1200 1200" xmlns="http://www.w3.org/2000/svg">
 <path d="m577.45 128.95c7.0781 5.8125 14.953 11.484 22.359 17.109 7.1719-5.2969 14.391-10.734 21.562-16.5 12.047-9.5156 22.359-19.828 24.469-29.906 3.8438-14.812-1.5-32.672-18.469-33.984-7.7812 0-13.781 7.1719-15.75 9.5156-5.4375 7.4062-17.859 7.4062-23.297 0-1.7344-2.5312-7.7812-9.5156-15.562-9.5156-17.062 1.125-22.5 19.125-18.656 33.984 2.1562 9.7031 11.672 19.828 23.297 29.344z"/>
 <path d="m600 783.61c253.45 0.46875 512.72-73.688 306.84-141.66-52.922 101.02-560.72 101.02-613.64 0-206.02 68.016 53.531 142.13 306.84 141.66z"/>
 <path d="m600 222.84c110.39 0 164.76-24.094 167.72-33.797-2.9062-8.3438-46.266-27.797-133.5-32.25-8.3906 6.3281-17.016 12.656-25.266 19.031-5.2969 3.8438-12.516 3.9375-17.672 0-8.2969-6.1875-17.578-12.75-25.828-19.031-87.047 4.4531-130.18 23.906-133.13 33.047 2.9062 8.9531 57.328 33.047 167.72 33.047z"/>
 <path d="m1011.4 883.31c0.51562 7.125-0.375 35.109 0 41.578 0 78.516-206.95 119.48-411.37 119.48-208.97-2.4844-418.97-36.891-411.37-128.81v-32.25c-71.297 32.438-86.672 67.828-86.672 91.922 0 103.36 256.69 159.14 498.05 159.14 241.36 0 498.05-55.781 498.05-159.14 0-24.094-15.328-59.484-86.672-91.922z"/>
 <path d="m600 470.58c185.21 0 282.14-41.391 282.14-63.75 0-9.8906-23.109-28.781-85.688-43.734-7.4062 45.844-125.72 58.312-196.45 58.312-70.727 0-189.1-12.422-196.45-58.312-62.578 14.953-85.688 33.797-85.688 43.734 0 22.359 96.984 63.75 282.14 63.75z"/>
 <path d="m982.22 740.48c-129.52 96.141-634.92 96.141-764.44 0v68.578c9.7031 11.062 42.75 44.109 78.094 23.109 6.9844-3.8906 15.75-1.7344 19.828 4.875 3.8906 6.0469 40.031 58.078 112.31 12.234 5.8125-3.8906 13.406-2.9062 18.281 2.1562 2.3906 4.0312 72.234 66.422 146.34 2.3438 5.3906-3.375 12.609-2.4375 17.297 1.9219 76.734 61.969 141.1-1.5469 143.81-4.4531 4.875-4.875 12.422-5.625 18.281-1.9219 72.281 46.031 108.42-6.2344 112.31-12.234 4.2656-6.6094 13.031-8.7656 19.828-4.875 35.344 20.812 68.391-12.234 78.094-23.109v-68.578z"/>
 <path d="m900.79 863.11c-28.547 35.859-89.344 45.609-135.05 16.312-14.766 11.672-46.828 32.438-87.422 32.438-23.719 0-50.344-6.9844-78.328-27.188-54.188 43.641-128.68 27.469-165.74-5.25-45.375 29.297-106.83 19.453-135.05-16.312-30.703 12.047-59.859 0.98438-81.422-14.578v76.359c0 37.688 145.36 90.375 382.22 90.375 236.87 0 382.22-52.641 382.22-90.375v-76.359c-21.562 15.562-50.719 26.625-81.422 14.578z"/>
 <path d="m373.03 517.6c6.7969-3.8906 15.562-1.7344 19.641 4.875 2.7188 4.0781 27.797 39.844 77.906 7.7812 5.8125-3.7031 13.594-2.7188 18.281 2.1562 4.875 4.875 48.562 46.031 102 2.5312 3.9844-3.3281 9.5625-4.3125 14.391-2.3438 53.953 45.141 98.625 7.7812 105.89-0.1875 4.875-4.875 12.422-5.625 18.281-2.1562 50.156 32.062 75.188-3.7031 77.906-7.7812 4.2656-6.6094 13.031-8.7656 19.641-4.875 27.188 16.125 52.875-15.562 55.172-18.656v-50.344c-52.453 33.609-167.9 51.094-282.14 51.094-114.28 0-229.69-17.484-282.14-51.094v50.531c3.5156 4.2656 28.547 33.984 55.172 18.469z"/>
 <path d="m600 688.78c185.21 0 282.14-41.578 282.14-63.75v-86.859c-15.75 10.5-36.516 17.484-58.312 9.8906-21.891 25.688-66.984 32.859-100.45 12.422-31.219 26.156-84.188 33.375-123.37 3.7031-39.188 29.672-92.25 22.453-123.37-3.7031-33.375 20.438-78.75 13.219-100.45-12.422-21.75 7.7812-42.562 0.79688-58.312-9.8906v86.859c0 22.172 96.984 63.75 282.14 63.75z"/>
 <path d="m488.86 278.39c4.6406 4.875 48.562 46.266 101.81 2.5312 1.7812-1.5469 3.8438-2.3438 6.0469-2.9062 4.5469-1.1719 8.9062 0.23438 12.609 2.9062 53.25 43.734 97.172 2.3438 101.81-2.5312 4.875-4.875 12.609-5.8125 18.281-2.1562 13.781 8.7656 26.625 13.219 38.297 13.406v-64.688c-41.016 20.578-116.77 27-167.72 27-50.906 0-126.71-6.4219-167.72-27v64.688c11.672-0.1875 24.469-4.6406 38.297-13.406 5.8125-3.7031 13.406-2.7188 18.281 2.1562z"/>
 <path d="m600 392.29c110.39 0 164.58-24.281 167.72-33.797v-39.656c-14.203 0-29.156-4.0781-44.297-12.234-31.172 25.969-84.234 33.141-123.37 3.7031-39.141 29.438-92.297 22.266-123.37-3.7031-15.141 8.1562-30.141 12.234-44.297 12.234v39.844c3.0938 9.3281 57.328 33.609 167.72 33.609z"/>
</svg>
