<?xml version="1.0" encoding="UTF-8"?>
<svg width="1200pt" height="1200pt" version="1.1" viewBox="0 0 1200 1200" xmlns="http://www.w3.org/2000/svg">
 <path d="m995.58 491.44c-18.188 26.672-29.203 53.156-36.375 80.344-71.109-74.672-60.094-209.16-8.7188-301.5 3.8438-6.9844-6.6562-12.703-10.5-5.8594-55.031 98.906-65.156 243.71 15.891 321.05-10.031 46.406-12.422 109.97-17.906 176.63-2.4375 0.32812-4.875 1.0781-7.2656 2.25-3.8906-51.797-36.797-134.11-70.875-140.29-26.719-4.875-54.281 32.672-54.75 62.953-3.9844 0.60938-7.4531 1.4531-10.688 6.375-33.797 41.766-27 110.25-27.234 115.41 0.65625 13.875 1.7812 19.453 14.484 25.312 1.8281 0.5625 15.562 6.4219 30.375 9 29.812 7.5 68.344 2.1562 97.969-17.203 0.375 0.84375 0.70312 1.6406 1.1719 2.5312 4.4531 5.3438 7.1719 10.781 17.625 10.547-27.891 162.98-125.06 231.84-197.95 233.63 0.9375-5.8125 0-12.375-2.5781-19.547 25.312-22.125 39.656-53.25 40.219-89.438 0-1.9688 4.3125 12.281-72.516-219.52-2.5312-7.5938-13.875-3.7031-11.391 3.7969l71.906 216.52c-2.6719 111.33-149.39 137.81-187.08 81.609-66.469-120.32-194.48-351.61-209.48-383.06 94.969-21.328 178.92-59.203 258.56-114.42l43.828 132.19c2.4844 7.5469 13.875 3.75 11.391-3.7969l-44.906-135.47c17.859-12.703 20.719-32.578 11.719-44.438 29.484-54.328 40.688-134.16 16.453-211.22 17.578-12.141 21.75-24.656 4.6875-48.75-9.4688-13.875-18.891-17.203-32.062-10.828-11.344-19.078-25.219-37.125-41.531-53.625-5.5312-5.625-14.156 2.7656-8.5312 8.4375 15.75 15.891 29.109 33.281 39.984 51.609-3.4688 2.5312-6.75 5.2031-9.8906 7.875-21.516 18.328-105.8 72.516-176.16 106.73-7.0781 3.5625-1.7812 14.25 5.3438 10.734 77.484-38.156 156.98-90 178.55-108.33 16.125-13.688 12.469-8.9062 14.906-11.391 9.3281-5.5312 12.562-4.5938 19.5 5.5781 17.016 24.047 7.5938 24.516-14.062 39.984-139.78 101.86-310.08 178.78-490.5 216.32-6.375 1.3594-12.938 2.6719-20.812 3.6562-4.6406-0.65625-11.625-7.6875-14.484-12.422-6.75-11.25-3.2344-16.031 1.2656-19.312 16.594-13.031 66.656-9.0938 206.76-62.344 7.4531-2.8125 3.0938-14.062-4.2656-11.203-102.52 38.953-177.52 52.172-183.66 53.578-71.719-228.28 168.52-428.9 379.78-320.26 7.0781 3.6562 12.516-7.0312 5.4844-10.641-151.45-77.953-335.81-5.2031-393.61 156.37-26.812 58.688-31.453 123.74-15.656 183.94-0.60938 0.42188-1.4531 0.75-2.0156 1.1719-24.516 18 3.7969 54.891 22.781 53.391 34.172 68.109 94.688 116.62 161.63 137.76 0.89062 14.344 14.812 28.453 42.75 24.562 25.453 43.875 223.31 379.26 223.31 379.26 15.516 21.609 45.562 31.125 77.578 28.875h0.42188c20.812 46.781 81.422 12.047 91.312-2.0156 0.75 0 1.5 0.14062 2.2969 0.14062 77.297 0 178.6-70.172 210.05-230.02 4.5 10.688 10.078 20.953 16.781 30.328 18.609 25.922 57.844 55.406 72.891 55.406 8.8594 0 14.531-8.2969 18.422-12 24.797-22.781 41.906-53.016 48.141-85.219 2.1562-11.531 4.3594-23.203-1.875-29.906 19.359-23.578 22.688-74.672-3.3281-89.672-12.234-7.125-26.672-4.5-37.219-2.625-34.172 6.1875-69.375 24.516-95.812 49.359-1.7812-2.3906-3.8906-4.2656-6.3281-5.6719 4.5938-55.453 7.875-126.47 16.5-170.16 0.09375 0.09375 0.23438 0.1875 0.32812 0.23438 77.297 61.172 159.98-2.2969 150.66-70.734-8.7656-64.031-82.828-89.672-121.69-32.578zm-678.61 161.72c-10.125-6.2344-8.9531-19.875 2.625-27.328 19.125-3.5156 48.234-10.359 75.141-18.422 7.5469-2.25 4.2656-13.734-3.4219-11.484-49.312 14.766-74.25 17.438-76.969 19.078-5.25 3.1406-9.4219 7.2656-12.141 11.859-57.703-23.438-105.09-51.328-144.1-116.72 220.5-47.391 352.92-128.11 488.48-217.55 21.375 71.016 12 144.14-15.422 196.74-8.9062-4.4062-21.234-3.2812-24.328-1.0312-44.906 32.391-92.297 59.438-140.9 80.391-7.2656 3.1406-2.5781 14.156 4.7344 11.016 49.031-21.141 96.844-48.375 142.13-80.953 21.516-3.7969 28.266 17.484 10.828 31.875-77.484 55.266-164.16 99.047-273.71 122.48-5.625 1.3125-23.016 6.1406-32.953 0.046874zm556.22 69.281c-6.1406-5.0625-13.734 4.2188-7.6406 9.2344 35.109 29.016 46.406 45.703 49.219 48.797-4.6875 7.9688-7.5 17.156-7.9219 24.609-44.109 17.766-69-5.3906-90.844-8.0156-13.828-1.875-28.688 3.8438-36.703 12.047-3.0469-69 19.922-108.75 26.812-110.2 15.094 2.5781 25.125 5.4844 43.172 19.594 6.2344 4.875 13.641-4.5469 7.4062-9.4219-11.812-9.2812-25.078-17.016-39.703-20.297-0.1875-28.5 26.391-58.219 43.406-52.219 19.172 6.4219 54.281 67.969 58.594 130.31-12.094-14.391-26.625-28.547-45.797-44.438zm88.688 72.891c33.188-1.9219 56.438 3.6562 61.406 3.6562 7.4062 0 8.2031-10.875 0.84375-11.953-17.438-2.5312-40.031-5.0156-63-3.7031-0.046875-0.32812-0.09375-0.65625-0.1875-0.98438 25.125-24.938 59.672-43.406 93.094-49.5 9.2344-1.6406 20.672-3.7031 29.109 1.2188 18.234 10.5 15.562 53.344 0.14062 71.859-6.4688-4.6406-13.781-8.7656-26.906-12.703-7.6406-2.2969-11.016 9.2344-3.4688 11.484 16.453 4.9219 21.141 9.4219 30.609 16.359 3.1406 2.4375-0.75 57.422-45.562 98.625-0.79688 0.75-1.6406 1.6406-2.4844 2.5781-0.51562-12-7.2188-27.188-18.938-37.688-19.359-16.641-40.969-13.219-67.312-57.234 0.42188-0.51562 0.89062-0.89062 1.3125-1.4531 5.7188-6.7031 10.453-17.391 11.344-30.562zm-28.312 30.281c-11.859 6.2812-16.406-9.3281-14.344-22.734 2.4375-18 15.422-29.906 21.75-29.062 0.75 0.375 1.5938 0.65625 2.3906 0.70312 12.609 5.625 7.0312 42.328-9.7969 51.094zm35.672-244.22c6.7969-28.406 17.625-55.828 36.281-83.203 33.047-48.562 92.719-25.078 99.938 27.516 7.9688 58.688-64.734 117.09-136.22 55.688z"/>
 <path d="m242.34 774.71 10.969-74.906c1.125-7.8281-10.734-9.6094-11.859-1.7344l-10.969 74.906c-1.1719 7.7812 10.688 9.7031 11.859 1.7344z"/>
 <path d="m200.48 674.06c-22.125 26.25-42.797 54.234-61.406 83.156-4.3125 6.75 5.8594 13.031 10.078 6.5156 18.328-28.5 38.672-56.016 60.469-81.938 5.1562-6.0938-4.0781-13.828-9.1406-7.7344z"/>
 <path d="m171.79 637.64c-29.672 12.188-59.062 24-86.109 35.109-7.4062 3.0469-2.6719 14.156 4.5469 11.109 26.953-11.062 54.234-22.031 86.109-35.109 7.4062-3 2.7656-14.109-4.5469-11.109z"/>
 <path d="m662.9 837.79-64.594-165.14c-5.1094-12.891-20.859-17.625-32.391-9.6562-22.875 15.75-48 28.125-74.438 36.797-1.6406 0.51563-17.25 11.297-18.234 12.047-10.547 8.1562-13.828 22.688-7.7344 34.641l82.031 156.79c6.1875 11.906 20.156 17.578 33.234 13.453 25.125-7.9219 48.516-19.641 69.422-34.875 8.3906-5.7656 13.172-15.75 11.625-26.766 2.6719-5.3438 3.375-11.484 1.0781-17.297zm-13.031 24.188c-0.60938 3.9375-2.9531 7.5938-6.6094 10.078-19.969 14.531-42.188 25.688-66.094 33.234-7.5 2.3906-15.469-0.79688-18.984-7.5469l-32.859-62.812c8.7188-3.375 17.109-7.5938 24.797-12.844 6.6094-4.5-0.23438-14.391-6.75-9.9375-7.3125 4.9688-15.281 9-23.625 12.141l-17.016-32.531c15.609-6 30.141-14.344 43.078-25.031 6.1406-5.0625-1.5469-14.297-7.6406-9.2344-12.281 10.172-26.109 18.047-41.016 23.625l-21-40.125c-4.125-8.1094-0.89062-18.469 9.0469-22.078 26.484-8.4844 52.031-21.047 76.031-37.406 8.3438-5.7656 19.734-2.5312 23.391 6.8906 65.578 169.69 67.5 167.02 65.25 173.58z"/>
 <path d="m371.72 249.89c-9.9375-0.375-19.875 0.1875-29.719 1.1719-1.5938-21.609-0.70312-43.266 2.3906-64.688 7.5 0.51562 14.953 1.3594 22.312 2.8594 7.9688 1.4531 10.078-10.172 2.4375-11.766-7.5469-1.5469-15.188-2.4844-22.875-3.0469 2.4844-13.453 5.8594-26.766 10.172-39.797 2.4844-7.5938-8.9062-11.297-11.391-3.7969-4.6875 14.156-8.25 28.641-10.875 43.266-27.609-0.14062-55.219 5.8594-80.391 17.391 2.9062-10.641 6.3281-21.141 10.781-31.266 3.1875-7.2656-7.8281-12.141-10.969-4.8281-6.1406 14.016-10.875 28.594-14.25 43.453-9.9844 5.6719-19.547 12-28.219 19.5-6.0469 5.1562 1.8281 14.203 7.8281 9.0938 5.5312-4.7812 11.484-9.0469 17.578-13.031-4.0312 25.125-4.3125 50.766-0.51562 75.938-13.594 9.5156-26.203 20.531-37.359 33-5.3438 5.9531 3.75 13.828 8.9531 8.0156 9.3281-10.406 19.781-19.594 30.938-27.844 2.4375 11.766 5.4375 23.391 9.6094 34.688 2.7188 7.4531 14.016 3.3281 11.25-4.1719-4.5469-12.281-7.7812-24.984-10.172-37.828 24.844-16.078 52.875-26.953 82.125-31.641 1.0781 9.6562 2.4844 19.266 4.5 28.781 1.6406 7.7344 13.359 5.2969 11.766-2.4844-1.9219-9.2344-3.2812-18.562-4.3594-27.891 9.2812-0.9375 18.656-1.4531 28.031-1.125 7.6406 0.60938 8.625-11.672 0.42188-11.953zm-41.672 2.7656c-29.391 4.5938-57.562 15.094-82.828 30.609-3.2344-25.547-2.3438-51.562 2.8125-76.781 25.219-13.266 53.719-20.297 82.219-20.391-3.0469 22.031-3.8438 44.344-2.2031 66.562z"/>
</svg>
