<?xml version="1.0" encoding="UTF-8"?>
<svg width="1200pt" height="1200pt" version="1.1" viewBox="0 0 1200 1200" xmlns="http://www.w3.org/2000/svg">
 <path d="m1095.3 339.84c2.3438 0.84375 4.5 2.9531 4.3125 5.625-0.75 10.781-1.5938 21.516-2.4375 32.25-7.125 87.375-18.281 174.66-36.562 260.48-18 84.516-43.219 167.68-78.562 246.56-17.672 39.422-37.922 77.719-60.984 114.28-11.625 18.422-23.719 36.703-37.219 53.766-12.938 16.312-28.125 31.453-46.828 40.969-39.656 20.156-85.969 13.406-127.6 3.75-48.938-11.344-97.5-24.281-146.21-36.469-99.469-24.938-198.94-49.875-298.36-74.812-3.5156-0.89062-5.625-5.5312-3.5156-8.625 31.734-47.344 63.188-94.875 93.281-143.29 36.797-59.344 71.344-120.19 101.62-183.1-15 4.5-29.906 9-44.906 13.594-69.141 21.047-138.14 42.469-207.47 62.953-3 0.89062-6.375-1.0781-7.2188-4.125-7.7812-28.875-15.328-57.797-22.688-86.766-13.078-51.328-25.594-102.84-37.453-154.45-11.438-49.641-22.219-99.469-32.625-149.34-0.375-0.75-0.46875-1.5-0.46875-2.2969-0.28125-1.3125-0.5625-2.5781-0.84375-3.8438-0.46875-2.3906 0.28125-5.4375 2.6719-6.6094 5.1562-2.4375 10.312-4.8281 15.562-7.1719 24.938-11.25 50.344-21.422 75.938-31.219 29.531-11.25 59.25-21.938 89.062-32.25 32.156-11.109 64.406-21.75 96.75-32.156 32.625-10.5 65.344-20.719 98.109-30.703 31.031-9.4688 62.062-18.75 93.141-27.844 27.375-7.9688 54.75-15.844 82.219-23.625 21.375-6 42.75-11.953 64.125-17.719 13.406-3.6562 26.766-7.2188 40.219-10.594 4.7812-1.2188 10.406-3.1406 15.328-2.6719 7.0312 0.65625 9.4219 6.0938 11.484 12 2.0625 6 4.125 12.047 6.0938 18.094 3.9844 12.328 7.6875 24.75 11.156 37.219 13.078 47.578 21.938 96.328 26.812 145.45 21.797 1.1719 43.594 1.9688 65.438 2.3438 66.469 1.0312 135.14-2.9062 198.66 20.156zm-39.281 262.03c15.938-83.344 25.453-167.76 31.594-252.37-33.844-11.531-69.469-15.656-105.09-17.062-33.984-1.3125-68.016-0.60938-102-1.5-35.484-0.89062-70.969-2.9062-106.31-6-68.344-6-136.31-16.125-203.44-30.281-3.1875 52.734-12.094 105-25.688 156-25.359 95.109-65.906 186.24-112.41 272.76-47.109 87.562-101.53 170.86-156.74 253.4 9.375 2.3438 18.75 4.6875 28.172 7.0312 97.875 24.562 195.71 49.031 293.53 73.594 24.328 6.0938 48.656 12.188 73.031 18.281 22.266 5.5781 44.484 11.625 67.125 15.562 20.812 3.6562 42.656 5.5312 63.656 1.875 20.625-3.6562 39.047-12.844 54.375-27.094 15.281-14.156 27.375-31.312 39-48.469 12.094-17.719 23.438-35.906 34.125-54.516 21.188-36.75 39.75-75.047 55.781-114.33 32.531-79.5 55.125-162.74 71.25-247.03zm-283.5-485.63c-0.375 0.09375-0.70312 0.1875-1.0312 0.23437-1.4062 0.32813-2.8125 0.65625-4.2656 1.0312-4.7344 1.1719-9.4688 2.3906-14.203 3.6094-16.078 4.2188-32.156 8.5312-48.188 12.938-23.203 6.375-46.359 12.844-69.516 19.5-28.312 8.0625-56.531 16.266-84.75 24.609-31.359 9.2812-62.719 18.75-93.938 28.406-32.438 10.031-64.781 20.25-97.078 30.844-31.5 10.312-62.906 20.906-94.125 31.875-28.547 10.078-56.953 20.531-85.125 31.594-21.562 8.4844-42.422 17.156-63.375 26.906 26.672 13.688 53.812 26.438 81.281 38.297 54.75 23.719 111 44.156 168.28 60.938 53.344 15.609 107.91 28.219 163.13 34.969 16.125-56.859 26.812-115.12 29.812-174.37 0.09375-2.1562 1.1719-3.6562 2.5781-4.5938 1.2188-0.98438 2.9062-1.5 4.8281-1.0312 29.906 6.375 60 12 90.188 16.781 4.5469-14.484 12.797-27.188 22.031-39.141 8.5781-11.109 17.812-21.656 26.344-32.812 9.1875-12 17.953-24.375 26.25-37.078 15.375-23.531 28.969-48.094 40.922-73.5z"/>
 <path d="m1056.6 370.97c12.75 13.219 14.062 34.125 8.1562 50.766-6.6562 18.656-20.766 33-34.875 46.406-7.3125 6.9844-14.766 13.922-21.281 21.656-4.8281 5.7188-9.9375 12.469-11.625 20.016 6.4688-4.7344 14.156-7.4062 22.641-6.4219 3.5625 0.42188 5.8594 1.3125 7.2188 4.9688 0.75 2.0625 1.125 4.2656 1.2188 6.4688 0.1875 4.4531-1.125 9.2344-3.6562 12.938-5.2969 7.9688-15.188 11.531-24.375 8.5781-2.7188-0.89062-5.1562-2.25-7.2656-3.9844-3 5.9531-4.5938 12.75-4.7344 19.219-0.375 17.156 5.6719 33.562 8.8125 50.25 6.2812 33.375-0.65625 66.938-14.156 97.688-4.9219 11.156-10.406 23.625-18.562 33.281 1.125 6.9844 0.84375 14.297 0.5625 21.281-0.375 9.0469-1.3125 18.094-3.2812 26.953-2.9531 13.312-8.4375 26.062-15.094 37.922-13.219 23.719-30.891 44.438-45.094 67.547-6.6562 10.875-12.516 22.266-16.219 34.5 1.0312 0.1875 2.0625 0.46875 3.0938 0.75 8.0156 2.625 15.234 9.4688 15.375 18.375 0.09375 8.2031-6.1875 16.125-13.969 18.375-9.3281 2.7188-17.625-4.3125-19.266-13.312-0.5625-3.2812-0.65625-6.5625-0.32812-9.9375-3.2344 2.0625-6 4.9688-8.4375 7.7812-4.9219 5.9062-8.8125 12.844-12.375 19.594-7.875 14.812-13.078 30.656-16.406 47.109-3 14.812-6.2812 29.859-17.203 41.016-18.281 18.609-48.844 20.953-72.281 12-3-1.125-5.0156-3.9375-4.125-7.2188 0.79688-2.8594 4.2188-5.25 7.2188-4.125 7.5 2.8594 15.328 4.4531 23.391 4.5938 15.141 0.1875 31.594-4.7812 40.875-17.531 5.9062-8.1562 8.0625-18.188 9.9844-27.938 2.1562-10.641 4.5938-21.094 8.3438-31.312 3.8906-10.594 8.7188-20.859 14.531-30.562 5.1562-8.5781 11.016-17.109 19.312-22.875 3-2.0625 6.3281-3.5625 9.8438-4.5 0.32812-1.125 0.65625-2.25 0.9375-3.2812 2.5312-8.4375 6.0469-16.641 10.078-24.469 16.406-31.781 41.953-57.844 57.469-90.188 8.9531-18.656 12.094-38.531 12-59.156v-1.7344c-4.4531 2.8125-9.4688 4.7812-14.812 4.4062-6.2812-0.42188-12.188-3.5625-15.375-9.0469-5.4375-9.4219-1.6875-23.438 7.6875-28.875 11.062-6.4688 22.5 0.65625 28.688 10.312 11.344-17.812 19.594-38.484 24.375-58.969 5.0625-21.422 4.9688-42.75 0.046875-64.219-4.6875-20.25-11.906-42.703-4.0312-63.094 1.5-3.9375 3.5625-7.7812 5.9531-11.438-0.65625-2.2969-1.0312-4.6875-1.0312-7.2188 0.09375-10.219 5.25-19.594 11.25-27.562 13.172-17.297 30.938-30.188 44.719-46.969 11.719-14.203 20.906-34.641 12.75-52.828-3.2812-7.4062-9.3281-12.75-17.203-14.859-6.7969-1.7812-14.344-0.9375-19.641 4.0312-5.4844 5.1562-13.781-3.0938-8.2969-8.25 13.5-12.703 35.812-9.9844 48.281 2.9062zm-48.141 154.55c5.3906-0.84375 7.9688-5.7656 7.7812-10.594-4.2188 0.09375-8.25 1.5938-11.812 3.9375-1.6875 1.125-3.2344 2.4375-4.6875 3.8438 2.0625 2.1562 5.0625 3.375 8.7188 2.8125zm-68.297 209.72c4.1719-0.32812 8.0156-2.7188 11.297-5.8594-1.4062-4.3125-3.8438-8.1094-8.25-10.078-5.7656-2.625-9.4688 0.9375-10.688 6.375-0.46875 1.9688-0.28125 4.5938 0.65625 6.2812 1.125 2.1094 3.8438 3.5625 6.9844 3.2812zm-52.125 211.03c3.5625-2.3438 4.9219-6.6562 2.1562-10.031-1.875-2.3438-4.9688-3.5625-8.0625-4.0312-0.51562 2.8125-0.79688 5.625-0.65625 8.4375 0.14062 2.25 0.65625 5.625 3.0938 6.6094 0.84375 0.28125 2.2031-0.14062 3.4688-0.9375z"/>
 <path d="m1009.2 118.31c5.4375 15.516-0.28125 33.797-9.0469 46.922-9.4219 14.062-23.062 24.281-37.125 33.375-13.969 9.0469-28.219 17.719-42.375 26.531 0.1875 0.5625 0.375 1.0781 0.60938 1.5938 1.1719 2.9531-1.3125 6.4688-4.125 7.2188-3.2812 0.89062-6-1.1719-7.2188-4.125-3.375-8.3438-4.7812-17.25-9-25.312-4.0781-7.7812-9.2812-14.906-14.531-21.938-9.0469-12.281-18.422-25.125-21.75-40.312-3-13.688-0.28125-28.125 9.0938-38.812 9.375-10.594 24.047-12.984 36.656-7.2188 9.9844 4.5938 17.766 13.219 24.094 22.266 9.1875-9.9375 21.75-16.312 35.344-18 14.906-1.875 33.656 1.875 39.188 17.719z"/>
 <path d="m945.28 473.06c2.9062 1.2188 5.0156 3.8438 4.0781 7.2188-0.75 2.8125-4.2656 5.3438-7.2188 4.125-33.656-13.969-70.031-20.062-106.41-17.672-3.1875 0.1875-5.8594-2.8125-5.8594-5.8594 0-3.2812 2.6719-5.625 5.8594-5.8594 37.266-2.4375 75.047 3.75 109.55 18.094z"/>
 <path d="m931.03 522.56c7.2656 2.0156 4.125 13.312-3.0938 11.297-20.391-5.625-40.969-10.688-61.641-15.094-36.75-7.7812-73.781-13.031-111.09-17.297-37.125-4.2188-74.531-8.4375-110.53-18.797-7.2188-2.0625-4.125-13.406 3.0938-11.297 20.062 5.8125 40.547 9.6562 61.219 12.656 37.078 5.3906 74.438 8.3438 111.42 14.344 37.312 6 74.25 14.062 110.62 24.188z"/>
 <path d="m857.34 600.94c6.375 23.766-6.5625 48.562-24.75 63.516-20.906 17.203-48 23.391-73.5 30.562-22.875 6.4688-46.688 14.719-62.531 33.469-2.0625 2.4375-6.1875 2.1094-8.25 0-0.28125-0.28125-0.46875-0.5625-0.65625-0.84375-3.0469-0.5625-5.8594-3.2812-4.875-7.125 5.5312-23.062-11.156-44.391-23.297-62.203-11.156-16.406-22.5-35.625-20.062-56.344 2.0625-17.438 13.828-32.344 29.531-39.797 16.266-7.7344 34.5-7.125 50.391 1.3125 12.094 6.375 21.844 16.734 28.031 28.875 14.062-18.188 35.906-31.5 59.297-29.906 22.406 1.5469 44.625 16.125 50.625 38.531z"/>
 <path d="m834.56 359.81c-0.046875-0.14062-0.1875-0.09375 0 0zm0.046875 0.09375v-0.046875c-0.75-0.1875-1.3125-0.046875-2.1562 0.60938-2.5781 1.9688-3.1875 5.8594-2.8125 8.9062 0 0.32812 0.14062 0.65625 0.1875 0.98438 0.65625-0.65625 1.2188-1.3125 1.7812-1.9688 1.5938-1.9688 2.9531-4.9688 3.0938-7.3125 0-0.1875-0.09375-1.5 0-0.65625v-0.46875zm136.69 7.6406c7.3125-1.6875 10.453 9.6094 3.0938 11.297-14.344 3.2812-28.641 6.5625-42.938 9.8438-14.062 3.1875-28.125 6.8438-42.375 9.1875-12.703 2.0625-25.5 3-38.344 1.0312-9-1.4062-17.953-4.875-24.422-11.344-7.5 4.0312-16.125 5.9062-24.562 3.75-10.5-2.6719-17.906-10.922-25.219-18.234-5.625-5.625-15.375-14.25-24-10.078-2.8594 1.4062-6.3281 0.84375-8.0156-2.0625-1.5-2.5781-0.75-6.6562 2.0625-8.0156 10.266-4.9688 21.375-1.6875 30.141 4.8281 8.0625 5.9531 13.875 14.812 22.547 19.922 6.5625 3.8906 13.875 3.375 20.438 0.09375-2.9062-7.4531-2.7188-16.312 2.0625-22.875 3.4688-4.7344 9.6094-8.25 15.562-6.5625 5.1562 1.4531 8.3438 5.8594 8.8594 11.109 0.84375 8.3438-4.3125 15.75-10.266 21.188 2.25 1.9219 4.9688 3.4219 7.7344 4.4531 9.2812 3.375 19.5 3.6094 29.25 2.9531 10.922-0.75 21.656-3 32.344-5.4375 22.031-4.9688 43.969-10.031 66-15.094z"/>
 <path d="m830.68 831.89c7.2188 2.1562 4.125 13.453-3.0938 11.344-21.469-6.3281-43.031-12.188-64.781-17.484-38.672-9.4688-77.766-17.344-117.09-23.625-39-6.2344-78.281-10.828-117.66-13.781-3.1875-0.23438-5.8594-2.4844-5.8594-5.8594 0-3 2.6719-6.0938 5.8594-5.8594 22.5 1.6875 44.953 3.9375 67.312 6.6562 39.891 4.875 79.547 11.391 118.88 19.5 39.188 8.1094 78.047 17.812 116.44 29.156z"/>
 <path d="m801.66 881.11c7.3125 1.9688 4.1719 13.219-3.0938 11.297-20.297-5.4375-40.594-10.875-60.938-16.312-72.188-19.312-144.42-38.625-216.66-57.984-7.3125-1.9688-4.2188-13.219 3.0938-11.297 20.297 5.4375 40.594 10.875 60.938 16.312 72.188 19.312 144.42 38.625 216.66 57.938z"/>
 <path d="m789.56 920.16c7.5 0.46875 7.5469 12.188 0 11.719-21.094-1.2188-42.094-3.375-63.047-6.2812-36.703-5.1562-73.031-12.938-108.56-23.25-35.719-10.406-70.688-23.438-104.53-38.766-2.9062-1.3125-3.5625-5.5312-2.0625-8.0156 1.6875-2.9062 5.1562-3.375 8.0156-2.1094 18.656 8.4375 37.594 16.125 56.859 23.062 34.406 12.281 69.656 22.172 105.38 29.531 35.625 7.3125 71.719 12 108 14.156z"/>
 <path d="m734.9 450.79c7.3125 1.9688 4.2188 13.266-3.0938 11.297-24.188-6.4688-48.938-10.688-73.922-12.422-3.1875-0.1875-5.8594-2.5312-5.8594-5.8594 0-3 2.6719-6.0938 5.8594-5.8594 26.016 1.7812 51.844 6.0938 77.016 12.844z"/>
 <path d="m571.31 492c0.1875-0.1875 0.46875-0.42188 0.51562-0.51562 0.51562-0.60938 0.9375-1.3125 1.3125-2.0156 0.75-1.3594 1.3125-2.8125 1.5938-4.4062 0.28125-1.7812-0.1875-4.4062-1.3125-4.6875-1.0781-0.28125-2.3438 0.1875-3.5625 1.0312-0.046875 2.1562 0 4.3594 0.23438 6.4688 0.09375 1.1719 0.375 2.5781 0.98438 3.6562 0 0 0.09375 0.1875 0.28125 0.42188zm0.28125 0.46875 0.1875 0.1875c0-0.046875-0.09375-0.14062-0.1875-0.1875zm135.66-146.53c6.5625 3.7031 0.65625 13.828-5.9062 10.125-9.6562-5.4375-21.047-5.25-31.5-2.7188-20.766 4.9688-38.344 19.125-59.344 23.297-3.9375 0.79688-8.1094 1.125-12.094 0.65625-0.65625 14.062-4.6875 27.938-9.6562 41.062-6.2812 16.594-14.344 33.047-17.484 50.625 6.75-0.5625 13.219 3.4219 14.906 10.688 1.7812 7.875-2.1562 18.891-9.375 22.922-6.5156 3.6562-12.375 0.23438-15.609-5.1562-1.875 8.4375-2.3438 17.062-2.1562 25.688 0.375 20.156 4.0781 40.125 3.0938 60.281-0.9375 19.734-5.3906 39.188-11.719 57.844-6.4219 18.938-14.672 37.172-23.156 55.219-8.25 17.578-16.312 35.531-27.188 51.656-5.1562 7.5938-10.922 15.844-19.125 20.344-3.8906 2.1094-8.3438 3.1875-12.703 3-5.5781 13.594-13.641 26.156-22.5 37.875-12.375 16.406-26.25 31.734-38.062 48.562-5.4375 7.7344-11.812 16.406-14.625 25.594 10.406-3.2812 24.656 3.8906 21.609 16.406-1.4531 5.8594-6.75 10.219-12.469 11.438-4.5 0.9375-8.9531-0.09375-12.656-2.5781-0.375 4.6406-0.1875 9.375 0 14.016 0.46875 10.5 2.0625 22.359 9 30.75 5.7656 6.9375 14.906 11.719 23.953 8.9062 7.2188-2.25 10.266 9.0469 3.0938 11.297-14.344 4.5-29.25-3.2812-37.688-14.859-9.2812-12.75-10.406-29.812-10.266-45 0.046875-6 0.75-12.797 3.1875-18.562-1.9688-9.75 2.4844-20.297 7.5938-29.062 12.375-21.281 29.156-39.562 44.25-58.922 9.5625-12.281 18.469-25.312 24.422-39.656-6.4219-4.6875-9.1875-13.266-4.6875-20.344 4.0312-6.2812 13.125-10.359 19.688-5.2969 2.2969 1.7344 3.1875 3.7031 2.6719 6.6094-0.5625 3.6562-1.4062 7.2188-2.3906 10.781 6.8438-1.7812 11.906-9.1875 15.656-14.484 11.484-16.219 19.688-34.5 28.125-52.359 16.734-35.391 33.375-72.75 34.406-112.59 0.5625-20.391-3.375-40.547-3.2812-60.938 0.046875-10.078 1.0781-20.344 4.0312-30.094 1.4062-4.6875 3.8438-9.3281 7.2188-13.031 0.46875-4.7344 1.3125-9.4219 2.2969-13.875 4.3125-19.359 13.594-37.078 19.875-55.828 3.5625-10.828 6.2812-22.219 6.1875-33.469-1.3594-1.0312-2.625-2.25-3.7031-3.75-5.1562-6.8438-5.9062-17.484 0.98438-23.484 3.5625-3.0938 8.0625-1.5938 9.7969 2.625 1.7812 4.2656 3.0469 8.7188 3.75 13.312 0.1875 1.3125 0.375 2.625 0.51562 3.9375 0.51562 0.09375 1.0312 0.1875 1.5938 0.28125 8.6719 0.9375 18.047-3.1875 25.781-6.6562 9.1406-4.0312 18-8.7188 27.281-12.516 17.25-7.0781 37.594-10.266 54.562-0.70312zm-305.21 552.74c1.125-1.0312 1.125-1.5 0.89062-2.5312-0.046875-0.28125-0.375-0.65625-1.2188-1.0781-2.1562-1.0312-5.25-0.9375-7.4531 0.65625-0.28125 0.1875-0.5625 0.46875-0.84375 0.75 0.1875 0.375 0.46875 0.75 0.75 1.0312 2.0625 2.5781 5.3906 3.4688 7.875 1.125z"/>
 <path d="m702.94 967.82s0.046875 1.875 0 1.1719v0.51562c0.14062 0 0.5625 0.1875 0.9375 0.14062 4.5938-0.09375 9.0938 0 13.688-0.60938 4.6875-0.65625 9.2812-1.7812 13.781-3.1875 4.6875-1.4531 7.8281 3.0938 7.2188 7.2188-0.1875 1.5-0.46875 3.0469-0.65625 4.5938 10.828 0.84375 21.422-5.2031 30.562-10.406 6.5625-3.75 12.469 6.375 5.9062 10.125-13.453 7.6406-28.828 15.281-44.625 10.688-3.375-0.98438-4.5938-4.0312-4.125-7.2188 0.09375-0.46875 0.14062-0.9375 0.23438-1.4531-3.0938 0.65625-6.2812 1.125-9.4688 1.5-5.3906 0.5625-12 1.4062-17.156-0.32812-5.3438-1.7812-7.9219-6.6562-8.0625-12-0.046875-1.5 0.14062-3.0938 0.28125-4.5938-10.453 3.2812-21.094 5.9062-31.969 7.6875-3.0938 0.51562-6.2812-0.75-7.2188-4.125-0.75-2.8125 0.9375-6.7031 4.125-7.2188 13.125-2.1562 26.062-5.4375 38.625-9.8438 3.2812-1.1719 6.0469 1.3125 7.2188 4.0781 1.4062 3.375 1.0781 7.125 0.79688 10.688-0.09375 0.84375-0.1875 1.7344-0.1875 2.5781z"/>
 <path d="m698.53 1028.8c7.5469 0.046875 7.5 11.766 0 11.719-11.578-0.09375-22.547-3.5625-32.812-8.7188-17.672-8.8125-32.812-21.938-50.906-30-7.5938-3.375-17.625-6.75-26.203-5.2031 1.4062 2.25 2.5312 4.6875 3.4688 7.2188 0.9375 2.4375 2.3438 5.9531 1.5938 8.5781-1.5938 5.6719-9.2812 7.4062-14.25 6.2812-5.2031-1.125-9.75-5.2031-11.016-10.453-1.1719-4.9219 0.09375-9.9844 2.9062-14.062-0.65625-0.60938-1.3125-1.2188-1.9688-1.7812-13.172-10.734-31.031-14.812-47.438-17.062-20.531-2.8594-41.484-2.25-62.156-1.7812-7.5469 0.1875-7.5-11.531 0-11.719 29.906-0.70312 61.219-1.6406 90 7.5938 10.312 3.2812 20.156 8.1562 28.5 15.188 0.84375 0.70312 1.5938 1.4062 2.3438 2.1562 3.0938-1.2188 6.4688-1.875 9.7969-2.0625 20.531-1.125 39.75 11.25 56.156 21.938 15.703 10.219 32.438 22.031 51.844 22.125zm-118.03-22.266c-0.23438-0.51562-0.46875-1.0312-0.75-1.5v0.09375c0.09375 0.65625 0.375 1.125 0.75 1.4062z"/>
 <path d="m277.97 864.71c6.2812 4.125 0.375 14.297-5.9062 10.125-16.875-11.156-37.875-9.3281-57.094-8.3438-17.859 0.9375-36.188 0.84375-52.406-7.7812-13.312-7.0312-23.297-19.875-23.25-35.344 0.046875-13.875 8.3438-28.031 22.688-30.797 11.531-2.2031 22.641 2.5781 31.125 10.219 2.6719-6.8438 7.6406-12.75 13.688-17.062 18.703-13.406 43.5-6.2812 57.375 10.5 15.469 18.75 16.312 43.828 10.594 66.469 1.0781 0.60938 2.1562 1.2188 3.1875 1.9219z"/>
</svg>
