<?xml version="1.0" encoding="UTF-8"?>
<svg width="1200pt" height="1200pt" version="1.1" viewBox="0 0 1200 1200" xmlns="http://www.w3.org/2000/svg">
 <path d="m1050.5 674.11c5.8594-124.87-101.86-214.69-220.03-258.47 0-1.6406-0.14062-33.094-0.14062-31.125 5.5312-8.25 11.203-18.469 14.906-29.344 1.125-1.6406 1.7812-4.875 1.125-6.9844-2.7656-71.344-49.969-129.74-130.36-160.55-7.3125-2.7656-11.531 8.25-4.2188 11.016 76.219 29.203 120.79 84.328 122.76 151.31-10.547 31.453-24.797 32.109-29.531 61.781-5.6719 36-22.547 17.203-40.031 51.422-8.7656 17.016-10.359 16.547-31.312 14.25-74.25-8.5781-29.859 55.125-106.88 26.25-48.141-18-48.797-4.875-70.219 6.6562-36.141 18.984-75.562-49.125-112.69-31.312-7.6406 3.75-18 8.7656-31.641-2.4375-23.016-18.984-9.2344-44.906-36.984-51.234-1.125-0.46875-1.4531-0.14062-4.6875-1.125-17.344-5.8594-30.469-53.203-8.25-79.781 0.32812-0.46875 0.65625-0.98438 0.79688-1.4531-1.125-58.031 42.469-125.02 134.58-152.44 7.4531-2.25 4.0312-13.453-3.4219-11.344-86.25 25.641-138 83.672-142.22 159.24-18.984 24.328-16.031 63.094-0.65625 84.469-111.75 46.688-209.21 134.76-203.02 253.45-1.3125 1.6406-18.797 23.344-19.781 25.312-63.891 93.422-44.25 195.74 34.547 272.44 223.13 218.58 777.24 181.97 916.69-57.562 44.625-75.094 40.547-162-29.344-242.44zm-144.94 313.31c-175.64 97.969-455.34 95.203-623.86-6.1406-161.86-97.312-111.89-207.42-121.31-252.66 18.328 46.031 57.562 88.547 114.98 123.24 254.44 152.9 687.1 70.875 763.97-125.21-10.078 44.578 44.578 161.21-133.78 260.76zm-68.109-233.21c-208.87 116.25-562.22 38.578-578.9-127.97 6.1406 4.3594 10.031 5.0156 13.781 5.8594-4.875 10.359 11.203 20.766 18.469 10.359 4.6875 10.219 15.891 63.562 59.344 68.438 5.2031 8.7656 17.203 6 19.125-1.6406 24-6.6562 22.875-20.578 80.25 14.25 122.9 74.578 74.766-25.969 185.34 12.469 87.422 30.328 83.016-10.875 116.25-33.891 12.141-8.5781 53.016 2.25 70.688-0.79688 28.547-5.2031 28.031-41.344 48.656-50.578 29.531-12.984 35.859-28.875 39.094-44.25 13.969-14.906 24.656-31.125 31.969-48-6.9375 29.203 32.625 119.67-104.06 195.74zm-388.08-264.66c24.141-11.859 57.422 35.859 94.219 35.859 34.688 0 21.891-32.438 79.453-10.875 62.438 23.344 59.859-8.1094 82.547-24.984 7.3125-5.5312 36.328 2.25 48.328 0.14062 21.094-3.8906 20.578-30.797 34.219-37.312 30-13.969 26.438-32.766 30.469-47.859 0 1.6406 0.14062 53.203 0.14062 51.562 0 2.25-0.32812 4.3594-0.46875 6.6562-11.672-5.5312-15.422 15.234-2.1094 12.141-37.781 143.53-403.97 138.98-435.1-2.5781 4.0312 3.4219 10.219 1.6406 11.016-3.0938 10.922 20.344 31.031 33.141 57.281 20.344zm-60.656-27.562c-0.14062 0-0.14062-0.14063-0.32812-0.32813-2.9062-1.4531-6.6562-0.65625-8.5781 1.6406-0.98438-11.531-0.32812-7.6406-0.46875-24.141 4.2188 2.8594 3.8906 8.5781 9.375 22.828zm-27.703-30c4.6875 3.2344 4.875 2.7656 6.3281 3.4219 2.4375 9.75-15.422 68.438 65.672 117.42 87.891 52.875 233.53 54.141 324.98 3.2344s69.094-114.47 72.469-127.78c39.75 15.094 74.25 32.906 108.66 59.016 10.031 70.875-39.75 108.98-41.016 115.12-8.4375 41.859-33.422 21.422-57.234 65.203-13.312 24.469-17.203 24-47.672 20.906-42.656-4.3594-47.203-1.9688-68.906 23.016-57.422 65.672-105.89-32.438-172.36 15.234-64.688 46.547-117.42-59.672-173.34-33.562-4.0312 1.9688-8.7656 4.0312-14.25 5.3438-4.3594-2.7656-8.7656-1.6406-12.141 0.79688-42.984-4.0312-43.453-59.203-56.906-70.688-15.75-14.109-35.672 3.0938-49.641-42.469-14.766-47.859 12.141-72.797 12.141-77.672 0-6.9844 0.46875-13.312 1.3125-19.125 28.453-21.891 60.562-40.734 101.91-57.422zm-114.84 67.641c-0.14062 2.25-0.32812 4.3594-0.32812 6.7969-23.203 31.125-19.969 78.984-0.14062 106.88 0.79688 2.25-9.2344 80.438 99.75 146.11 213.24 128.26 607.78 45.422 607.78-145.97-0.46875-110.11 0.14062-104.25-0.79688-106.36 0-4.6875 0.14062-5.3438-0.14062-8.9062 117.09 99.094 129.56 251.34-47.203 349.97-175.31 97.734-455.21 94.828-623.72-6.375-163.31-98.438-146.44-247.45-35.203-342.14zm750.84 491.48-7.9688 5.8594c-216.14 159.1-639.24 142.87-817.13-31.312-64.031-62.109-90.328-147.1-50.438-227.68 9.4219-18.797 16.547-28.219 17.672-30.141 2.7656-3.5625 6-7.7812 9.2344-12 12.984 70.219-48.328 190.03 127.13 295.45 171.74 103.45 456.98 106.03 635.68 6.3281 193.13-107.67 126.79-238.55 139.64-304.69 80.438 101.62 50.953 221.63-53.812 298.18z"/>
 <path d="m177.42 832.55c-3.0938 5.8594 0.14062 14.438 6.6562 17.672 6.4688 3.2344 15.234 0.79688 18.141-5.0156 7.125-14.953-17.203-27.234-24.797-12.656z"/>
 <path d="m276.66 924.98c-2.1094 6.1406 2.4375 14.109 9.2344 16.359 6.7969 2.1094 15.094-1.7812 17.016-7.9688 4.7344-15.844-20.906-23.953-26.25-8.3906z"/>
 <path d="m428.26 983.02c-1.125 6.4688 4.5469 13.641 11.531 14.766 6.9844 1.125 14.438-4.0312 15.422-10.547 2.25-16.359-24-20.438-26.953-4.2188z"/>
 <path d="m586.36 997.31c-0.14062 6.4688 6.4688 12.797 13.641 12.797 7.125 0 13.641-6.3281 13.641-12.797-0.32812-16.406-26.953-16.406-27.281 0z"/>
 <path d="m744.79 987.24c0.98438 6.4688 8.4375 11.672 15.422 10.547s12.656-8.25 11.531-14.766c-2.9531-16.359-29.203-12.141-26.953 4.2188z"/>
 <path d="m900.32 929.53c1.9688 6.1406 10.219 10.219 17.016 7.9688 6.7969-2.1094 11.203-10.219 9.0938-16.359-5.3438-15.609-30.797-7.3594-26.109 8.3906z"/>
 <path d="m1015.6 852.32c6.4688-3.2344 9.75-12 6.6562-17.672-7.7812-14.578-31.969-2.25-24.797 12.656 2.8594 5.8125 11.812 8.25 18.141 5.0156z"/>
 <path d="m478.03 740.11c-13.453-2.1094-16.688 17.203-3.0938 19.312 13.641 2.1094 16.594-17.203 3.0938-19.312z"/>
 <path d="m598.69 749.34c-13.641 0-13.781 19.641 0 19.641s13.453-19.641 0-19.641z"/>
 <path d="m719.34 740.11c-13.641 2.1094-10.547 21.422 3.0938 19.312 13.594-2.1094 10.359-21.422-3.0938-19.312z"/>
 <path d="m837.74 694.22c-13.125 4.2188-7.3125 22.875 6 18.656 13.266-4.2188 6.9375-22.875-6-18.656z"/>
 <path d="m905.68 643.31c5.6719 11.531 25.125 1.6406 19.125-9.75-6-11.344-24.797-1.7812-19.125 9.75z"/>
 <path d="m444.47 517.13c2.5781-8.25-10.875-12.469-13.641-4.3594-2.7188 8.1094 11.062 12.656 13.641 4.3594z"/>
 <path d="m516.32 550.69c9.2344 1.4531 11.203-11.672 2.1094-13.125-9.2344-1.3125-11.531 11.859-2.1094 13.125z"/>
 <path d="m600.14 557.34c9.4219 0 9.2344-13.312 0-13.312s-9.375 13.312 0 13.312z"/>
 <path d="m684 550.69c9.2344-1.4531 7.125-14.578-2.1094-13.125s-7.125 14.578 2.1094 13.125z"/>
 <path d="m766.22 519.24c8.9062-2.9062 4.6875-15.562-4.0312-12.656-8.9531 2.9531-4.875 15.562 4.0312 12.656z"/>
 <path d="m490.55 365.86c3.5625 0 20.766 4.3594 24.141 3.2344 6-1.9688 34.359-2.25 26.906-13.641-29.672-45.75 36.797-134.44 90-134.9 4.5469 12.656 2.5781 31.781-6.1406 54.469-0.98438 2.5781 0 5.5312 2.25 6.9844 23.672 15.75 25.125 19.125 30 15.75 1.6406-0.79688 23.016-17.344 25.125-21.234 10.219-22.688 10.219-77.203-20.438-97.781-0.46875-1.3125-1.125-2.4375-2.4375-3.2344-21.562-12.328-25.641-18.797-42.328-21.891 22.688-27.234 24.656-28.688 24.656-31.969-0.98438-16.219 2.25-24.469-3.75-27.094-29.016-12.141-30-14.766-34.219-12.984-26.109 12.656-33.094 11.672-33.094 18.328 0.14062 29.016-5.6719 19.781 24.797 54-17.531 3.5625-36.469 14.109-55.312 31.969-87.609 83.344-65.719 184.82-50.156 180zm154.36-142.4c18.469 9.8906 12.984 40.547 6.3281 60.328l-13.125-8.9062c6.9844-20.109 9.4219-37.641 6.7969-51.422zm27.422 47.203c-1.7812 1.6406-3.8906 3.5625-6.4688 5.8594 29.531-114-116.11-69.75-140.58 31.969-4.2188 17.531-3.2344 33.422 2.9062 46.688-3.75 0.65625-7.125 0.98438-11.016 1.6406-22.875-82.875 88.547-206.58 140.58-167.02 18 13.547 23.484 44.531 14.578 80.859zm-89.531-150.79v-16.031l23.672-10.359 23.672 10.359 0.14062 15.75c-13.406 12.422-32.062 11.438-47.484 0.28125zm30.844 19.922c-2.25 2.7656-4.6875 5.6719-6.9844 8.4375l-7.125-8.4375c4.5 0.65625 9.375 0.65625 14.109 0zm16.031 30.797c-66.469 5.3438-142.03 111.23-124.87 185.68-4.0312-0.79687-8.1094-1.6406-11.016-1.9688-20.25-45.234 11.531-118.36 55.125-159.89 51.094-48.422 79.312-23.953 80.766-23.812z"/>
</svg>
