<?xml version="1.0" encoding="UTF-8"?>
<svg width="1200pt" height="1200pt" version="1.1" viewBox="0 0 1200 1200" xmlns="http://www.w3.org/2000/svg">
 <path d="m178.69 1010.7c6.1875 61.781 26.812 98.766 88.125 99.328 540.66 8.2031 523.31 7.9688 525.1 7.9688 18.984 0 37.078-6.2812 51-17.812 23.906-19.734 21.656-40.875 27.516-83.344 32.625-13.641 45.422-39 37.453-76.312-0.51562-1.5-0.98437-2.9531-1.4531-4.4531 4.4062-8.9062 5.0625-19.594 1.2656-32.766l-40.594-87.938c-10.078-18.703-27.375-30.703-52.875-36.656-7.5938-1.875-10.547 9.8906-2.7188 11.672 22.266 5.2031 36.562 14.953 44.859 30.328l40.125 86.766c2.9531 10.453 2.4375 18.656-1.6406 25.266-14.719 25.078-81.141 27.656-110.3 27.656l-517.74-2.7188c-45.141-1.9688-101.11-10.312-81.469-50.906l23.859-44.109c3.7969-6.9844-6.75-12.703-10.547-5.7188l-0.42188 0.75c-1.3594-0.51562-1.7812-1.2656-4.9219 1.4531-3.6094 3.1406-16.875 17.672-18.422 19.828-10.312 14.719-14.766 32.344-25.219 62.625-11.578 33-2.25 56.203 29.016 69.094zm-7.2656-63.047c18.938 12.656 64.922 20.719 95.016 22.031l518.02 2.7188c31.828 0 88.688-2.9062 112.55-24.141 12.469 74.578-85.078 70.547-160.64 70.266-9.2344 1.8281-6.7969 11.953-0.09375 12 37.734 0.14062 82.875 2.3438 121.45-9.2344-5.3906 39.562-3.9844 54.375-22.5 69.656-11.953 9.8438-27.469 14.906-44.156 15.047l-524.16-7.9688c-14.672-0.14062-22.734-0.1875-34.172-10.5-19.031-16.922-26.203-43.828-29.391-69.094 47.391 15.188 90.047 5.8125 379.55 10.969h0.046875c7.875 0 7.9688-11.906 0.046875-12l-327.14-2.3906c-38.953-2.25-56.203-10.781-57.844-11.25-24.75-9.6094-34.688-27.938-26.578-56.109z"/>
 <path d="m369.05 830.44c3.7031-6.2812-6.1406-12.656-10.641-5.625-3.0938 4.8281-10.312 23.016-10.312 31.078 0 44.766 92.438 81 206.63 81 71.625 0 222.14-23.297 222.14-89.719 0-48.703-93.422-86.859-212.63-86.859-19.312 0-38.859 1.0312-58.125 3.0938-7.7344 0.84375-6.7969 12.609 1.2656 11.953 18.844-2.0156 38.016-3.0469 56.859-3.0469 107.72 0 203.21 35.203 200.86 76.266-3.1875 54.984-139.97 73.594-200.86 73.594-108.75 0-200.68-34.359-200.68-75 0.046875-6.6094 2.4844-11.438 5.4844-16.734z"/>
 <path d="m586.64 815.11c7.9219 1.0312 9.3281-10.922 1.4531-11.906-46.219-5.6719-107.25 6.6094-107.25 34.922 0 48.188 166.87 48.188 166.87 0 0-6.7031-3.6562-16.453-21.141-24.75-7.2188-3.375-12.281 7.4531-5.1562 10.828 39.891 18.891-12.281 38.203-57.141 38.203-44.25 0-71.438-14.156-71.438-24.328 0-19.828 60-27.094 93.797-22.969z"/>
 <path d="m184.64 694.13c-18.562 0-33.703 15.188-33.703 33.844v8.0625c0 18.656 15.141 33.891 33.703 33.891h5.2031l1.0312 56.25c0.375 27.422 34.125 37.406 58.453 24.375 15.656-8.4844 17.438-32.062 18.75-49.312 1.0312-13.875 1.7812-14.016 2.7188-31.312h92.25c6.6562 13.031 17.438 23.203 32.953 29.484 3 9.75 9.8438 30.797 14.766 45.656 2.1094 6.1406 9.6562 6.2812 12.094 0.46875l18.047-44.859c41.906-13.875 54.234-58.406 33.984-89.391-19.688-29.859-61.172-38.062-91.547-17.156h-113.2c-0.1875-34.125 2.5781-73.5 33.562-87.609 37.312-16.828 176.11-17.484 236.34-8.8594 174 25.031 187.08 109.55 245.06 109.55 61.734 0 80.766-102.75 84.562-164.21 0.46875-7.7812-11.484-8.9531-11.953-0.75-2.9531 47.438-11.672 86.156-24.609 112.78-21.328-57.328-68.812-104.2-128.58-125.9-7.4062-2.7656-11.578 8.5781-4.0781 11.297 58.359 21.188 104.58 67.594 123.61 124.18 0.42188 1.2656 1.2188 2.25 2.2031 2.9531-49.688 77.953-121.26-21.75-154.45-108.94-0.79688-1.9219-1.4531-4.0781-2.2031-6.0469 25.078-67.453-2.2969-208.87-49.312-253.69-0.79688-55.031 3.9375-148.22 41.531-188.48-0.65625 1.5-0.75 3.2812 0 4.9219 26.906 57.234 23.859 127.18-7.9219 182.58-3.9375 6.8438 6.4688 12.891 10.406 5.9531 33.703-58.734 36.891-132.94 8.3906-193.64-1.4062-3-5.0156-4.2656-7.9688-2.9062 6.8906-6.5156 14.484-10.641 22.594-12 43.172-7.2656 94.359 61.781 129.52 163.97-1.125 2.0156-18.562 99.609-121.03 147.24-7.1719 3.3281-2.1094 14.344 5.0625 10.875 58.266-27.094 103.73-79.219 122.39-138.37 14.812 47.578 24.375 94.219 30.281 143.68 0.9375 7.9219 12.844 6.4219 11.906-1.4062-1.6875-14.062-3.8438-29.062-6.6562-45.891-18.094-104.3-87.75-319.26-181.13-290.81-83.812 25.406-74.344 122.48-105.19 178.4-113.16 205.92-335.39 178.31-374.68 286.08-14.438 39.703-8.4375 72.281-8.5312 145.03zm71.484 106.17c-1.0312 13.641-2.625 34.312-12.469 39.656-16.125 8.6719-40.547 3.9844-40.781-13.969l-1.0312-56.062h56.953c-0.9375 16.547-1.6875 17.25-2.6719 30.375zm208.74-82.406c26.672 40.688-19.875 89.766-65.25 70.125-0.046876 0-0.046876 0-0.09375-0.046875-18.75-7.7344-30.891-25.219-30.891-44.531 0-48.703 68.297-67.875 96.234-25.547zm-20.812-294.71c1.1719-3.1875-0.51563-7.3125-4.8281-7.9219 62.391-34.875 109.5-84.094 143.81-146.48 23.156-42.047 24.516-103.88 53.531-142.08-59.297 114.75-21.469 384.94 64.172 515.95-71.391-46.219-153.61-61.406-237.05-62.625 1.2188-1.875 1.3594-4.4062 0.09375-6.4219-29.625-47.578-36.984-103.83-19.734-150.42zm-234.94 130.03c22.781-62.484 98.672-66.188 223.97-134.63l-0.28125 0.42188c-18.516 50.016-10.734 110.2 20.812 160.92-33.516-0.046875-124.5 1.9688-154.82 15.656-36.469 16.594-40.828 58.875-40.594 98.531h-56.859c0.046875-73.5-5.7656-103.64 7.7812-140.9zm161.29 152.9c-11.859 14.438-16.781 32.531-11.766 51.797h-173.95c-11.953 0-21.703-9.7969-21.703-21.891v-8.0625c0-12.047 9.75-21.844 21.703-21.844h185.72z"/>
 <path d="m1054 367.87c-18.984-26.438-45.141-47.297-74.344-59.625l67.875-52.359c3.9375-3.0469 2.6719-9.3281-2.1562-10.547-29.109-7.5469-58.875-11.859-88.594-12.75 8.9062-32.391 11.859-67.312 8.5312-101.44-0.51562-5.2969-7.0781-7.2656-10.5-3.375l-79.734 91.688c-5.2031 6 3.8438 13.875 9.0469 7.875l70.219-80.766c1.3594 30.609-2.4844 61.5-11.297 90.047-1.1719 3.8438 1.6875 7.7344 5.6719 7.7812 27.281 0.28125 54.656 3.5156 81.516 9.6094l-66.469 51.281c-3.7969 2.9062-2.7656 8.8594 1.7344 10.406 26.766 9.2344 51.234 26.203 70.172 48.328-41.391-4.3125-83.109-10.078-124.31-17.203-7.6875-1.5469-9.9844 10.453-2.0156 11.812 46.125 7.9688 92.953 14.297 139.18 18.75 5.3906 0.375 8.3906-5.4375 5.4844-9.5156z"/>
</svg>
