<?xml version="1.0" encoding="UTF-8"?>
<svg width="1200pt" height="1200pt" version="1.1" viewBox="0 0 1200 1200" xmlns="http://www.w3.org/2000/svg">
 <path d="m427.18 1199.6c-15.094-0.32812-27.75-0.9375-28.219-1.4062-1.3125-1.3125 8.2969-2.0625 36.703-2.7656 24.469-0.60938 35.438-1.5 64.453-5.3438 20.156-2.6719 39.938-10.359 36.047-14.016-0.60938-0.60938-4.875-2.4844-9.4219-4.2656-14.203-5.4375-18.422-7.3125-35.484-15.797-14.297-7.125-17.578-9.2812-23.953-15.938-4.0781-4.2656-7.4531-8.2969-7.5469-9s-0.28125-1.8281-0.42188-2.4844-0.375-3.6094-0.42188-6.5156c-0.14062-5.0156-0.46875-5.5781-5.7656-8.9062-3.0938-1.9688-5.9062-4.4531-6.3281-5.5312-0.60938-1.6875-2.3438-1.9219-12.422-1.6406-8.0625 0.23438-12.328 0.84375-13.594 2.0156-1.0312 0.9375-2.7656 1.6875-3.8438 1.6875-2.25 0-2.4375 1.1719-2.0156 11.484 0.23438 5.5781-0.32812 8.6719-2.25 12.656-3.5156 7.2656-14.766 17.156-27.656 24.234-4.0312 2.2031-10.219 5.9531-13.781 8.3438-6.4219 4.2656-26.156 14.25-28.219 14.25-0.5625 0-1.6875 0.75-2.4375 1.6406-2.1562 2.5781 6.1406 5.9531 26.812 10.875 19.125 4.5469 23.672 7.1719 10.031 5.8125-23.859-2.4375-43.875-8.5781-46.031-14.203-0.70312-1.875 2.625-6.4688 4.6875-6.4688 1.9688 0 19.969-10.734 26.156-15.656 3.2344-2.5312 8.0156-5.7188 10.641-7.0781 5.7188-2.9062 19.922-14.016 25.219-19.734 4.2656-4.5938 6.8906-10.969 8.0156-19.453 0.42188-3.1406 1.6875-6.6562 2.8125-7.7812 3.5156-3.5156 3.6562-5.6719 0.65625-11.859-3.5625-7.3594-3.6094-10.125-0.28125-17.438 2.3438-5.1562 2.625-8.1094 3.0938-30.562 0.51562-25.781-0.98438-50.109-4.0781-65.953-0.98438-5.0625-2.0156-10.641-2.3438-12.422s-1.5469-7.2188-2.7188-12.094-3.5625-16.594-5.2969-26.016c-3.9375-21.516-5.7188-27.75-11.391-39.797-6.7031-14.297-7.125-16.781-6.4219-35.297 0.9375-24.984 4.3125-47.766 8.8594-59.719 8.0625-21.234 10.172-30.375 7.2188-31.312-4.4062-1.4062-11.484-13.125-20.672-34.172-6.9844-15.984-9.4688-26.719-7.2656-31.312 0.84375-1.7344 1.875-7.4531 2.2969-12.656 0.60938-7.5469 2.0156-16.453 3.6094-23.062 0.09375-0.32812 0.51562-3 1.0312-5.9062 0.46875-2.9062 2.0156-11.156 3.375-18.328 1.4062-7.1719 2.2031-14.344 1.7812-15.984s-3.1875-6.1406-6.0938-10.031c-2.9531-3.8906-5.3438-7.4531-5.3438-7.9219s-1.5938-4.1719-3.4688-8.2969c-9.0938-19.453-7.1719-23.25 12.328-24.516 9.75-0.60938 10.641-0.89062 10.406-3.0469-1.3125-13.641-2.1562-154.78-1.2188-200.76 0.42188-19.781 0.23438-33.094-0.42188-33.469-1.2656-0.75-1.5-7.6406-0.375-10.547 0.9375-2.4844 6.6094-5.3906 10.547-5.3906h3.0938l-4.2656-4.9688c-7.125-8.2969-9.5156-20.859-9.5156-49.453v-13.594l5.1562-8.5781c4.1719-6.9375 5.7188-8.5781 8.0625-8.5781 2.625 0 2.8594 0.375 2.1562 3.5156-0.42188 1.9219-0.79688 17.484-0.84375 34.594-0.046875 26.016 0.28125 31.969 1.875 36.375 3.2344 8.7656 3.75 9 18.375 9.3281l12.984 0.28125 2.9531-5.6719c1.5938-3.1406 5.5312-8.3438 8.6719-11.625 7.9219-8.2031 12.516-15.234 15.656-23.906 2.2969-6.375 2.5781-8.8125 2.0156-18.328-1.2188-20.062-4.4531-32.109-13.125-49.031-4.2656-8.3906-7.7812-15.609-7.7812-16.125 0-0.51562-0.98438-3.1406-2.2031-5.9062-1.2188-2.7188-2.5312-5.9531-2.9531-7.125-0.70312-1.9688-1.1719-1.8281-5.2031 1.6875-4.6875 4.0781-6.7031 6.5625-10.031 12.328-2.6719 4.5938-9.6094 18.891-11.953 24.562-1.4062 3.4219-2.5312 4.4531-4.7344 4.4531-6.1875 0-6.8906-6.375-1.875-17.391 1.2656-2.7188 2.25-5.4844 2.25-6.1406 0-3.1875 9.0938-15.938 17.719-24.844 9-9.2812 9.8906-9.9375 14.484-9.9375 6.0469 0 8.2969 2.4375 10.969 11.906 1.0312 3.7031 2.6719 8.4375 3.6094 10.5s1.6875 4.125 1.6875 4.5938 3.1875 7.6406 7.125 15.891c7.9219 16.688 10.969 29.156 12.422 50.297 0.70312 10.312 0.46875 12.75-1.6875 18.891-2.7188 7.7344-9.5625 18.234-19.641 30.188-3.5625 4.2188-6.4688 8.3438-6.5156 9.1875 0 1.0312 2.25 1.5 7.3594 1.5s9.5625 0.9375 14.484 2.9531c3.8906 1.5938 8.7188 2.9062 10.734 2.9062 4.5469 0 7.5 2.1094 8.2031 5.9062 1.5 7.6875 0.32812 42.422-1.7812 53.203-0.5625 2.9062-1.3125 8.5312-1.6406 12.422-0.32812 3.8906-1.7344 11.531-3.1406 16.922-2.2031 8.5312-2.3438 10.828-1.2188 17.25 1.7812 10.266 1.5938 25.078-0.375 32.062-0.9375 3.2344-2.5312 8.8594-3.5625 12.516-2.3906 8.4375-3.0469 17.156-1.6406 21.703 3 9.7969 4.2656 24.094 4.3125 49.125 0.046875 14.625 0.09375 27.281 0.09375 28.078 0.046875 0.79688 1.3594 1.5 2.9062 1.5 1.5938 0 5.2969 1.0312 8.2969 2.3438 5.3438 2.2969 5.4375 2.3906 5.1094 7.4062l-0.32812 5.0625h6.75c7.875 0 10.969 1.9688 7.4062 4.6875-1.2656 0.9375-3.1406 1.7812-4.1719 1.7812-2.8594 0.046876-6.4688 4.5938-10.453 13.031-2.0156 4.3125-6.0938 10.172-9.2344 13.312l-5.625 5.625 3.1875 9.75c1.7812 5.3438 3.7969 12.141 4.5469 15.047s1.7812 6.375 2.3438 7.6875c0.9375 2.2031 3.0938 9.9844 4.2188 15.375 4.3125 20.156 4.0781 22.781-3.2812 36.844-11.859 22.688-14.016 27.047-14.016 28.078 0 1.3125-8.7656 18.844-10.969 21.984-1.4062 2.0625-1.0312 4.125 3.375 17.438 2.7656 8.3438 6.7031 19.641 8.7656 25.172 8.7656 23.438 8.5312 22.359 7.8281 33.094-1.2188 18.516-3.0469 32.391-6.5156 50.25-1.9219 9.75-3.75 19.078-4.0312 20.719-3 15.891-7.2188 36-8.5781 40.781-0.89062 3.2344-1.9219 8.0625-2.25 10.641-0.32812 2.625-1.5938 10.594-2.9062 17.719-4.8281 27.047-6.1875 43.781-4.8281 59.156 1.5469 17.438 2.4844 22.406 6.5156 35.016 2.2031 6.8906 4.0312 13.547 3.9844 14.766s-1.5469 4.875-3.375 8.0625c-2.8594 4.9688-3.1406 6.2812-2.0625 9.1875 0.70312 1.8281 2.1562 3.6562 3.2344 3.9844 4.1719 1.3125 8.1562 6.6562 8.2031 11.062 0.09375 5.9062 1.9688 9.6562 8.625 17.156 4.875 5.5312 8.2031 7.6875 22.453 14.719 9.1875 4.5469 23.297 10.781 31.359 13.875 8.0156 3.0938 14.906 6.375 15.234 7.2188 0.32812 0.89063-0.84375 3.7031-2.6719 6.2812-2.9062 4.1719-4.4062 5.0625-12.844 7.5938-16.125 4.8281-22.359 6.375-28.5 7.0781-3.2344 0.375-12.562 1.4531-20.719 2.3906-20.344 2.3438-26.156 2.5312-57.562 1.8281zm16.594-99.188c2.0625-0.46875 4.6875-2.5781 6.75-5.4844 4.5-6.3281 5.0156-17.297 1.1719-25.781-1.4062-3.1406-2.8125-6.8438-3.0469-8.2969-0.28125-1.4531-1.0312-5.25-1.7344-8.5312-0.65625-3.2344-1.5-7.2656-1.8281-8.8594-2.5781-12.469-2.8125-42.047-0.46875-58.547 2.0625-14.531 6.0469-34.078 8.4844-41.391 1.3125-3.8906 2.5781-8.4375 2.8594-10.031 0.28125-1.6406 1.7812-8.2969 3.3281-14.766 1.5469-6.5156 3.4219-15.797 4.2188-20.719 0.75-4.875 2.1094-11.531 3-14.766 1.4531-5.3906 4.4062-27.75 5.8125-44.578 0.375-4.2188-0.14062-9.0469-1.2656-13.031-1.5469-5.25-9.375-24.656-13.5-33.516-0.60938-1.3125-2.3906-5.8125-3.9375-10.031l-2.8594-7.6875-9.2812-0.1875c-7.875-0.1875-27.938-2.625-33.375-4.0781-1.125-0.28125-1.7344 0.9375-1.9688 3.9844-0.51562 6.6094-2.8594 15.609-7.125 27.516-6.4219 17.859-11.531 43.922-11.672 59.812l-0.14062 13.688 8.1094 16.359c6.1406 12.422 8.625 18.938 10.266 27.094 2.8125 13.969 7.0781 34.5 8.25 39.703 7.0312 31.359 8.1094 42.891 7.7344 82.219-0.28125 28.219-0.5625 32.859-2.7188 39.75-2.3906 7.7344-2.3906 7.8281-0.09375 13.078 1.5 3.4688 3.375 5.7188 5.4844 6.5625 3.5156 1.4062 14.297 1.6406 19.594 0.46875zm-9.7969-335.39c2.8594-0.9375 6.2812-1.6406 7.5938-1.5469 7.2656 0.375 8.8594-0.32812 12.047-5.3438 4.2656-6.75 10.781-18.844 18.609-34.594 9.8438-19.781 11.391-23.531 10.781-26.062-0.32812-1.2656-2.4844-9-4.7812-17.109-4.1719-14.625-7.8281-30.938-9.3281-41.484l-0.75-5.4375-6.1875 1.0312c-7.5469 1.2656-17.297 1.5-18.328 0.42188-1.3125-1.3125 2.2969-2.8125 11.578-4.8281 8.3906-1.8281 16.594-5.5781 16.594-7.5469 0-0.51563 1.3125-1.5 2.8594-2.2031 2.7188-1.2656 10.406-10.641 13.641-16.688l1.5-2.8125-5.7188 0.9375c-3.1406 0.51563-19.969 0.84375-37.406 0.70313-28.125-0.1875-33.281-0.51563-46.125-3.0469-7.9688-1.5469-17.062-3.1875-20.203-3.6094l-5.7188-0.75 3.2812 5.7188c1.7812 3.1406 4.9219 7.8281 6.9844 10.453s4.9219 6.75 6.4219 9.1875 3.6094 4.9219 4.7344 5.5312c3.1875 1.6875 17.625 4.875 26.156 5.7656 4.5 0.46875 7.4531 1.2656 7.0781 1.9688-0.89062 1.7812-16.031 1.1719-25.641-1.0312-10.969-2.4844-10.641-2.5312-12.797 1.6406-2.3906 4.5938-6.4688 20.719-6.4688 25.594 0 2.0625-0.84375 6.9375-1.8281 10.875-2.5312 9.8906-4.9219 27-4.5938 32.672 0.1875 2.9531 2.5312 9 6.1406 15.984 22.828 43.875 22.5 43.453 33.984 45.516 4.5469 0.79687 8.8594 1.5469 9.5625 1.6406s3.6094-0.60937 6.5156-1.5469zm30.094-190.22c0-12.516 0.32812-32.625 0.70312-44.625 0.375-12.047 0.1875-26.25-0.42188-31.594-1.1719-10.219-0.60938-13.875 5.1094-34.641 1.9688-7.125 2.3438-11.016 1.8281-19.828-0.32812-6.0469-0.9375-11.531-1.3594-12.188-0.84375-1.4062-0.84375-39.094 0.046875-75.75l0.60938-24.281-5.0156-1.5c-2.7656-0.79688-5.8125-2.2031-6.7969-3.0469-2.2969-2.0156-16.125-2.625-18-0.75-1.5938 1.5938-6.4688 1.8281-7.0312 0.32812-0.375-0.98438-17.812-1.9688-27.234-1.5469l-4.3594 0.1875 3.6562 6.7969c3.1875 5.9062 3.7031 8.2031 4.0312 17.438 0.375 10.828 1.7812 16.125 5.25 19.875 1.875 2.0156 2.0625 1.9688 3.9844-0.98438 1.125-1.7344 4.5-4.2188 7.5-5.5312 5.0156-2.2031 6.0938-2.2969 12.938-0.9375 4.0781 0.79688 9.2344 1.125 11.391 0.75 2.7188-0.51562 4.4062-0.23438 5.3438 0.89062 2.5781 3.1406-1.7812 4.9219-12.281 4.9688-9.375 0.09375-9.8906 0.23438-14.625 4.2656-5.3438 4.5938-11.062 6.1406-16.641 4.5-1.9688-0.5625-3.6562-0.9375-3.75-0.79688s-0.32812 3.6562-0.5625 7.9219c-0.1875 4.2188-0.65625 11.391-0.98438 15.984-0.32812 4.5469-0.89062 19.453-1.2188 33.094-0.70312 27.141-2.8594 72.281-3.5625 75.094-0.23438 0.98438-0.79688 9.4688-1.1719 18.938-0.375 9.4219-0.9375 21.562-1.2656 26.953-0.42188 7.4062 0.046875 12.141 1.8281 19.125 1.3125 5.1094 2.3906 10.688 2.3906 12.422 0 5.9062 1.6875 7.2656 10.875 8.7188 8.8125 1.4062 16.266 1.875 37.031 2.2969l11.812 0.23438v-22.781zm22.922 20.578 2.8125-0.79688-3.2344-3.8438c-1.875-2.2031-2.9531-4.5938-2.5312-5.6719 0.46875-1.2656-0.46875-2.2969-3.1406-3.4219-2.1094-0.89062-4.1719-1.2656-4.5938-0.84375s-0.23438 4.125 0.46875 8.2031c1.125 6.9375 1.4062 7.4062 4.3125 7.2656 1.6875-0.046875 4.3594-0.46875 5.9062-0.89062zm-97.828-11.344-0.42188-5.4844-9.0469 0.32812c-8.1562 0.32812-9.0938 0.60938-9.375 2.8125-0.46875 3.375 4.5 6.4688 12.094 7.5 3.3281 0.46875 6.2812 0.70312 6.6094 0.5625s0.42188-2.7188 0.1875-5.7188zm312.66 596.21c-7.9219-1.6406-11.016-3.0938-17.297-8.0156-2.3906-1.875-4.7812-3.375-5.3906-3.375-1.7344 0-6.2812-4.6875-6.2812-6.5156 0-0.9375 3.3281-3.6094 7.4062-6 4.0781-2.3906 10.828-7.0781 15.094-10.453 4.2188-3.375 10.828-8.25 14.719-10.828 7.9219-5.2969 24.516-21.516 28.453-27.75 3.7969-6.0938 5.0625-12.609 4.7344-24.562-0.28125-9.2812-0.9375-13.125-3.8906-21.562-0.32813-0.98438-0.51563-2.2031-0.42188-2.6719 0.60938-2.8594-12.562-26.578-15.469-27.891-0.46875-0.23438-0.89062-1.0312-0.89062-1.7812s-1.9219-5.3438-4.2656-10.219c-6.0938-12.516-7.5-16.969-9.1406-29.016-2.0625-14.906-0.60938-28.219 6.375-56.719 3.1875-13.031 6-25.266 6.2812-27.234s1.6406-8.0625 3-13.594c7.1719-28.828 9.3281-56.391 5.0156-64.781-1.2188-2.3906-3.4219-5.4375-4.9219-6.75-1.4531-1.3125-3.9375-5.2031-5.4844-8.6719-1.5469-3.4688-4.875-9.0469-7.4062-12.422s-6.7969-10.641-9.4219-16.125c-5.2969-10.969-6.3281-17.812-2.625-17.812 1.5469 0 2.625 1.4531 3.6562 5.0156 1.5469 5.1562 6.5156 14.484 9.1875 17.25 0.84375 0.84375 1.5469 1.9219 1.5469 2.3438 0 0.42188 2.6719 3.75 5.9062 7.3125 3.2344 3.5625 6.9375 8.625 8.25 11.25s5.0156 7.5469 8.25 10.922c3.375 3.5625 6.4219 8.1094 7.125 10.641 2.1562 7.7812 1.4531 24.047-1.8281 40.5-0.32813 1.6406-1.0312 5.625-1.5938 8.8594-0.5625 3.2344-2.9062 13.641-5.2031 23.062-2.2969 9.4219-4.5 18.75-4.8281 20.672-0.375 1.9688-1.5 6.4688-2.5312 10.031-9.1875 32.109-10.172 39.703-6.9844 55.219 1.1719 5.7188 3.2344 12.844 4.5469 15.75 4.6875 10.312 14.062 26.438 19.172 33 7.6875 9.9375 13.688 28.875 13.641 43.406 0 12.469-0.5625 15.469-4.4531 23.625-4.125 8.7188-22.688 27.234-35.484 35.438-5.7656 3.7031-12.609 8.4844-15.281 10.641-2.6719 2.1562-8.25 5.9062-12.375 8.3438-6.6094 3.8438-7.2656 4.5469-5.3906 5.6719 1.1719 0.70313 4.3594 2.9062 7.0312 4.875 9 6.6094 11.156 7.0781 34.453 6.7031 11.719-0.1875 25.547-0.79688 30.75-1.4062 5.2031-0.60938 16.359-1.4531 24.844-1.8281 8.4375-0.42187 26.531-1.8281 40.219-3.1406 37.125-3.6094 34.828-3.2344 34.031-5.4844-1.5-4.2656-23.438-24.609-29.906-27.75-3.5625-1.7344-9.4219-5.5781-13.031-8.5312-3.5625-2.9531-8.8125-6.8906-11.578-8.7656-6-4.0312-9.9375-8.1562-13.969-14.438l-2.9062-4.6406-7.3594 0.75c-7.2188 0.75-16.266-1.4531-16.172-3.8906 0.09375-2.2969 3.4219-5.0625 6-5.0156 5.7188 0.14063 14.062-2.5781 14.109-4.5938 0.1875-10.031 2.5781-26.625 4.4531-30.984 1.2656-2.9062 7.3594-15.656 13.547-28.359 13.359-27.375 22.078-53.109 22.172-65.438 0.046876-4.8281-6.0938-29.391-9.0469-36.281-0.98438-2.2969-2.5312-5.9062-3.4688-8.0156-0.9375-2.1562-1.6875-4.7812-1.6875-5.9062s-0.79688-3.5625-1.7812-5.4375c-0.98438-1.875-1.7812-4.125-1.7812-4.9688 0-0.89063-1.5-4.125-3.3281-7.2656-5.8594-10.031-8.7656-20.672-10.219-37.594-0.375-4.5469-1.0312-10.5-1.4062-13.219l-0.65625-4.9219-3.9844 1.6875c-2.2031 0.9375-6.375 1.6875-9.2812 1.6875-8.5781 0-23.625-5.9062-21.188-8.3438 0.5625-0.5625 7.3125-1.4062 15.047-1.8281 16.594-0.98437 19.125-2.3906 20.25-11.109 1.2656-9.8906 7.6406-23.578 16.219-34.875 5.2031-6.8906 6.9375-8.3438 10.125-8.6719 3.5625-0.32812 3.8438-0.14062 3.8438 3.2344 0 1.9688-2.2031 8.25-4.9219 13.969-8.7656 18.422-9.375 21.656-8.7188 45.844 0.32812 11.719 0.84375 22.875 1.2188 24.844s1.1719 6.375 1.7812 9.8438c0.60937 3.4688 3 10.125 5.25 14.766 2.25 4.6406 4.875 11.438 5.8125 15.047 0.9375 3.6094 3.0469 10.828 4.6875 15.984 1.6406 5.2031 3.7969 13.406 4.8281 18.281s2.2969 10.453 2.9062 12.375c2.4844 8.4375-0.65625 25.266-9.9375 53.438-1.6406 4.9219-13.688 31.266-15.891 34.688-5.4375 8.3906-9.4219 22.688-10.219 36.797-0.60938 10.547-0.42188 13.031 1.0781 14.531 0.98438 0.98437 1.5938 2.7656 1.3125 3.8906-0.79687 3.4688 7.875 14.672 16.078 20.859 4.2188 3.1875 9.5625 7.3594 11.812 9.2812 2.2969 1.9219 7.7344 5.3906 12.141 7.6875 6.0938 3.1875 10.5 6.9375 18.469 15.562 11.391 12.328 13.688 17.156 9.8906 20.578-3.2812 3-28.5 6.6562-54.703 7.9688-12.703 0.65625-30.797 1.7812-40.219 2.5312-25.453 2.0156-61.875 2.2969-70.359 0.5625zm-157.87-117.33c-17.25-1.4531-33.188-6.6562-41.016-13.312-4.7344-4.0312-3.7969-9.9844 2.3438-15.047 2.0625-1.7344 6.4219-5.625 9.7031-8.7188 3.2344-3.0469 8.8594-7.4531 12.422-9.7031 3.5625-2.2969 9.1875-6.375 12.422-9.0938s8.1094-6.7969 10.828-9.0469c5.7656-4.8281 16.688-19.969 20.344-28.219 1.4531-3.2812 2.5312-8.1562 2.5312-11.25-0.09375-13.781-4.4531-36.141-11.719-59.859-4.9219-16.078-15.375-64.312-17.297-79.828-0.1875-1.6406-0.98438-6.3281-1.7812-10.453-1.1719-6.2344-1.875-7.6875-4.3594-8.5781-2.7188-1.0312-2.8594-1.5-2.1562-6.7031 3-20.906 5.9062-31.406 15.469-55.922 4.8281-12.328 7.9219-24.469 11.109-43.125 3.6562-21.422 3.6562-21.562 1.3125-27.562-1.1719-3.0469-3.375-9.7969-4.8281-15-1.4531-5.2031-4.2656-12.938-6.2812-17.156-1.9688-4.2188-4.1719-9.2812-4.8281-11.25-0.70312-1.9688-3.1875-7.0312-5.5781-11.25-5.625-9.9844-10.688-25.125-9.75-29.297 0.9375-4.3594 3.9844-14.484 5.2031-17.391 0.5625-1.3125 2.2031-5.8125 3.6562-10.031s3.9375-10.828 5.4844-14.625c2.8125-6.8906 2.8125-6.9844 0.79688-13.594-1.125-3.6562-3.5625-9.8438-5.3906-13.781-1.8281-3.8906-3.3281-7.7812-3.3281-8.625s-2.5781-5.3438-5.7188-10.031c-8.4844-12.656-15.469-29.484-15.375-37.266 0.046875-6 0.1875-6.3281 4.2188-7.9688 2.2969-0.9375 6.2344-1.7344 8.7656-1.7344h4.5938l0.046875-10.922c0.09375-19.172 2.3906-49.172 5.2969-68.906 4.3594-29.391 5.8594-45.844 5.7188-62.672-0.09375-9.75-0.46875-19.594-0.89062-21.891-0.42188-2.2969-1.0312-11.344-1.4062-20.109-0.375-8.7656-0.89062-18.609-1.1719-21.891-1.4531-15.984-1.9219-52.266-0.75-55.219 1.6875-4.3125 7.3125-5.6719 25.172-6.1406l14.344-0.375 0.14062-5.4844c0.14062-5.2969 0-5.4844-3.2344-5.4844-11.109 0-26.344-36.281-25.688-61.219 0.28125-11.344 5.7188-29.109 9.0469-29.625 2.1562-0.32813 2.2969 0.51562 2.4375 13.031 0.1875 13.453 0.5625 16.5 5.0156 38.297 2.3438 11.531 3.7031 16.219 6.0469 21.188 0.60938 1.3125 2.1094 4.9219 3.2812 8.0625 2.4844 6.5156 4.0781 6.7969 4.6875 0.79688 0.23438-2.2969 0.89062-6 1.4531-8.2969 0.5625-2.2969 1.4062-7.875 1.8281-12.422 1.0781-11.438 2.6719-17.156 4.7812-17.156 2.7188 0 3.7031 4.125 4.6406 19.781 0.70312 11.391 1.1719 14.156 2.2969 13.031 0.79688-0.79688 2.9062-2.4844 4.6875-3.7969 3.1875-2.2969 10.5-11.859 10.875-14.203 0.09375-0.65625 1.0781-4.3594 2.2031-8.2969 3.8438-13.688 4.3594-17.812 3.6094-29.578-0.84375-13.547-1.7344-22.031-2.4375-23.203-0.28125-0.42187-1.0312-4.4531-1.7344-8.9062-0.70312-4.4531-1.7344-11.391-2.3438-15.375-0.75-4.9688-3.6562-12.516-9.2812-24l-8.1562-16.734-3.1875 3.75c-4.0781 4.875-9.2812 15.234-14.438 28.734-6.9375 18.188-8.9062 21.984-11.438 21.984-2.1562 0-2.25-0.5625-1.5-9.1875 1.3594-15.75 6.4688-32.297 12.094-39.375 3.7969-4.7812 12.703-12.984 16.031-14.766 3.5625-1.9219 9.2344-0.60937 9.2344 2.1094 0 1.6406 6.6094 15.938 12.984 28.125 4.875 9.2812 6.3281 13.078 9.8906 25.406 5.7188 19.734 7.2188 29.109 7.2188 44.344 0 14.719 0 14.812-5.1562 27.562-5.0625 12.562-5.3906 12.984-18.047 25.594l-12.844 12.844 0.14062 6.5156c0.09375 3.5625-0.1875 7.0781-0.65625 7.7812-0.98438 1.6406 1.9688 2.25 14.766 3 7.875 0.46875 11.719 1.3594 17.062 3.9375 9.75 4.6875 11.812 8.9531 11.812 24.609 0 6.5156-0.32812 13.969-0.79688 16.594-0.9375 5.5312-2.1562 14.016-2.6719 18.281-0.1875 1.6406-0.42188 8.2031-0.51562 14.578l-0.14062 11.625-3.5625 1.3594c-3.4688 1.3125-3.5625 1.5469-3.6562 9.6562-0.1875 14.766 0.23438 37.734 0.75 44.391 1.0312 12.562 1.2656 50.391 0.42188 65.062-1.4531 25.828-2.4375 39.422-3.3281 46.875l-0.84375 7.2656 6.1406 0.65625c7.6875 0.79687 18.188 4.0312 21.797 6.75l2.7188 2.0625-2.4375 3.0938c-1.3125 1.6875-2.8125 5.5781-3.2812 8.625-0.9375 6.0938-8.2031 28.828-10.781 33.516-0.89062 1.6406-3.5156 8.0156-5.8125 14.203s-5.2031 12.094-6.4688 13.125c-2.1562 1.8281-2.0156 2.25 4.7812 13.594 4.5469 7.5938 8.3438 15.797 10.734 23.391 3.2812 10.359 3.6094 12.75 2.9531 20.719-0.89062 11.297-5.5781 26.484-11.672 38.016-3.4688 6.5156-5.4375 12.469-7.4531 22.453-1.5 7.5-3.6094 16.781-4.6875 20.719-2.1094 7.6875-1.9219 10.641 1.7812 26.016 2.7188 11.297 3.1406 13.594 4.7812 26.625 1.5 11.906 3 18.984 5.4844 25.406 3.2812 8.5312 3.6562 9.4219 5.5312 13.734 3.2812 7.4531 4.7344 16.641 4.8281 30.047 0.046875 9.6562 0.51562 13.359 1.6875 14.297 2.6719 2.1094-6.7031 64.594-12.938 86.25-2.625 9.0938-5.4844 19.734-6.4219 23.672-0.89062 3.8906-2.9531 11.906-4.5469 17.719-4.0312 14.859-7.3125 33.797-6 34.734 0.60938 0.42188 2.1094 2.3438 3.3281 4.3125 1.2656 1.9688 6.1406 7.6406 10.922 12.656 4.7812 5.0156 8.6719 9.6094 8.6719 10.266s4.2656 3.9375 9.4688 7.3125 9.4688 6.4688 9.4688 6.8906c0 0.42188 4.8281 5.6719 10.734 11.719 6.5625 6.75 11.578 13.078 12.984 16.359 2.4375 5.625 3.0938 16.359 1.125 17.578-0.65625 0.375-9 1.2656-18.609 1.875-9.6094 0.65625-22.547 2.2031-28.688 3.5156-9.4688 1.9688-17.109 2.4375-49.078 2.8125-20.812 0.23437-40.266 0.23437-43.172 0zm80.719-8.7656c3.75-0.65625 9.8438-1.6875 13.594-2.3438 3.7031-0.65625 13.125-1.5 20.812-1.9688l14.062-0.79688-0.75-5.3438c-0.84375-6.2344-4.0781-10.875-15.141-21.797-4.4531-4.3594-8.0625-8.4844-8.0625-9.0938 0-0.60938-4.5-4.0781-9.9375-7.6875-5.4844-3.6094-11.203-8.2969-12.703-10.406-1.5-2.1094-5.9531-6.9844-9.8438-10.828-7.3125-7.1719-9.6094-8.2031-22.5-10.406-13.641-2.3438-12.844-6 1.3594-6.1875l9.1875-0.14062 2.625-15.375c1.4531-8.4375 3.75-19.922 5.1094-25.406 1.3594-5.5312 2.6719-11.109 2.9062-12.422 1.1719-6.1875 3.4688-14.859 6.0469-23.016 4.9219-15.516 7.6875-28.922 12.375-60.281 1.8281-12.281 1.9219-14.953 0.60938-16.266-1.2188-1.2188-1.5469-5.8594-1.4531-19.031 0.09375-13.688-0.32812-18.938-1.9688-24.516-1.1719-3.8906-2.5312-7.6406-3-8.2969-0.75-1.0312-5.1094-11.953-5.4375-13.594-0.046875-0.32812-0.42188-1.4062-0.84375-2.3438-1.4531-3.6094-3.2344-15.094-3.8438-24.844-0.32812-5.5312-1.4062-15.656-2.3438-22.453-0.9375-6.8438-1.8281-14.812-1.9688-17.719s-0.79688-6.2344-1.4531-7.3125c-0.84375-1.4062-0.75-4.2656 0.32812-9.4688 1.7344-8.4375 1.8281-8.9531 3.6094-20.766 1.3125-8.7188 1.6875-9.9375 8.25-26.859 3.8438-9.9375 4.6406-14.344 2.2969-12.891-0.75 0.46875-7.7812 1.5-15.656 2.2969-12.328 1.2656-15.75 1.2188-24.703-0.375-15.469-2.7656-12.75-4.4062 7.5-4.5 12.891-0.046876 18.375-0.5625 22.359-2.0625 2.9062-1.0781 7.2656-1.9688 9.6562-2.0156h4.3125l2.0625-8.8125c1.9688-8.2969 1.9688-9.375 0.09375-18.891-1.125-5.6719-4.4062-15.562-7.4531-22.5-4.7812-10.922-5.7188-12.281-7.5938-11.25-3.0469 1.6406-21.703 1.3125-30.188-0.46875-8.3438-1.7812-16.453-5.5312-15.75-7.2188s7.6406-1.2656 15.047 0.84375c3.4688 0.98437 11.297 1.9219 17.438 2.0156 10.125 0.1875 11.156 0 11.156-1.9219 0-1.1719 1.3125-4.0781 2.9062-6.4688 6.6094-9.75 26.391-54.797 24.469-55.781-0.42188-0.23438-6.0938 0.046874-12.609 0.60937-16.5 1.3594-68.719 0.09375-81-1.9688-5.5312-0.9375-12.328-1.5938-15.094-1.5-4.4531 0.1875-4.9219 0.51563-4.2656 2.5781 1.5 4.7812 11.766 23.109 14.859 26.531 4.8281 5.3906 6.0469 8.0156 13.359 28.969 3.5156 10.031 3.2812 12.984-2.9062 35.719-2.625 9.75-5.3906 19.969-6.1406 22.781-1.7812 6.7969 0.32812 16.219 5.7188 25.641 2.25 3.8906 5.1562 9.4688 6.4688 12.422 1.3125 2.9062 3.9844 8.625 5.9062 12.656 4.3594 9.0938 10.969 34.875 9.9375 38.812-0.42188 1.5938-1.5 2.9062-2.4844 2.9062-1.3125 0-1.7812 1.6406-1.8281 6.7969-0.046875 3.75-0.32812 8.1094-0.5625 9.75-0.28125 1.6406-1.0781 6.7031-1.7812 11.25-1.8281 11.719-3.9844 19.969-10.594 40.5-7.5469 23.391-9.2344 30.891-10.125 45.188-0.5625 8.8125-0.23438 13.969 1.1719 20.391 1.0781 4.7344 2.1562 9.7031 2.4375 11.016s2.1562 9.5625 4.1719 18.328c2.0156 8.7656 5.25 23.156 7.2188 31.922 1.9688 8.7656 4.6406 19.406 5.9062 23.672 1.3125 4.2188 3.4688 12.469 4.7812 18.328 1.3594 5.8594 3.4219 14.906 4.5938 20.062 1.1719 5.2031 2.5312 12.656 2.9531 16.547 0.42188 3.9375 0.98438 9 1.2656 11.25 0.70312 5.4844-0.51562 10.641-2.4844 10.641-0.89062 0-2.2031 1.875-2.9531 4.125-1.3125 3.9375-10.125 19.219-13.312 23.062-2.9062 3.4688-22.875 19.594-29.859 24.094-10.172 6.5625-26.625 21.141-26.625 23.625 0 0.84375 4.4062 3.5156 9.75 6 8.0156 3.7031 11.766 4.6406 21 5.4844 14.203 1.2656 76.406 0.375 85.453-1.2188zm24.609-13.312c-2.1094-2.5312-9.4688-13.219-10.266-14.906-0.89062-1.875 1.5469-3.7031 4.9688-3.7031 2.4844 0 7.5469 4.5938 9.7031 8.8594 2.2031 4.3125 2.5312 9.8438 0.65625 10.547-2.625 0.98438-3.7031 0.84375-5.0625-0.79687zm-7.4062-580.82c0.84375-0.51562 1.2188-1.3594 0.89062-1.9219-0.75-1.2188-16.172-5.0625-19.125-4.7344-3.75 0.42188-4.875 0-5.625-1.9219-1.4531-3.8438-2.4844-20.625-2.3906-39.516 0.60938-106.78 1.3125-133.78 3.8906-148.26 0.70312-4.0312 0.5625-7.5469-0.5625-11.812-1.0781-4.0312-1.6406-13.875-1.7344-29.156-0.09375-12.703-0.375-23.953-0.65625-24.984-0.75-2.8125-5.5312-4.3125-18.188-5.7188-6.1875-0.65625-14.156-2.0156-17.719-3-8.2969-2.25-26.391-2.3906-28.219-0.23438-1.9219 2.3438-2.8594 13.688-1.5938 19.734 0.60938 2.9062 2.2031 10.359 3.5625 16.547 4.6875 21.609 6.4688 38.578 5.6719 53.812-0.42188 7.8281-0.9375 15.234-1.1719 16.547s-0.79688 5.0156-1.2188 8.2969c-0.42188 3.2344-1.8281 10.172-3.0469 15.375s-2.5312 11.578-2.9062 14.203-1.5 10.828-2.5312 18.328c-2.0156 14.484-2.8125 53.156-1.6875 82.219 0.46875 12.797 0.23438 17.156-0.98438 19.219-1.875 3.0938-6.7031 3.5625-9.6094 0.89062-1.3594-1.2188-3.1875-1.5469-5.7656-1.0312-2.0625 0.42188-3.5625 0.98438-3.2812 1.2656s5.2031 1.875 10.969 3.5156c9.7969 2.8125 12.562 3.0469 43.594 3.5156 18.234 0.28125 33.844 0.65625 34.781 0.75 3.5156 0.51562 23.25-1.0781 24.703-1.9688zm-62.016-220.74c-3.4219-1.4531-5.1094-4.8281-5.1094-10.125 0-4.6406-4.125-11.719-6.0938-10.5-1.8281 1.125-6.9375-0.5625-6.9375-2.3438 0-2.2969 7.9688-3.2812 13.359-1.6406 4.6875 1.4062 9.6562 6.6562 10.453 10.969 0.32812 1.9219 1.5 2.4375 6.0469 2.7188 3.0938 0.1875 5.5781 0.75 5.5781 1.1719 0 0.46875-1.9219 2.8594-4.1719 5.2969-4.4062 4.7344-8.8594 6.2344-13.125 4.4531zm162.66 527.39-26.766-0.65625-9.2812-4.6875c-11.156-5.625-12.188-7.9219-5.7188-13.266 4.0312-3.3281 15-6.75 24.562-7.6875l3.2812-0.32812 0.60938-26.625c0.32812-14.625 0.84375-31.125 1.0781-36.656 0.28125-5.5312 0-13.781-0.5625-18.328s-1.3594-13.875-1.7812-20.719c-0.375-6.8438-0.9375-14.531-1.1719-17.156-0.28125-2.625-0.79688-9.1406-1.2188-14.531s-1.9688-14.953-3.5156-21.281c-1.5-6.3281-3.0938-15.75-3.5625-20.953-0.42188-5.2031-1.5938-13.688-2.625-18.891-2.2969-11.953-2.2031-33.281 0.23438-44.578 1.0312-4.7812 2.1562-10.547 2.4844-12.797 1.0312-6.7969 2.7656-10.266 5.9062-11.672 1.7344-0.79688 9.9844-1.3594 19.922-1.4531l16.969-0.09375-0.98438-3.4688c-1.1719-4.0781-1.125-3.9375-1.125-6.8438 0-1.4531-1.3125-2.7188-3.8438-3.6094-8.625-3-21.047-21.469-27.469-40.875-2.25-6.7969-3.3281-12.984-3.7969-21.891-0.60938-11.344-0.32812-13.594 3.0469-26.344 2.0625-7.6406 5.5781-17.859 7.8281-22.641 2.25-4.8281 5.1562-11.484 6.4688-14.812s5.7656-10.688 9.9375-16.359 9.0938-13.219 10.969-16.828c2.8594-5.4844 3.9844-6.5625 7.0312-6.8438 2.9062-0.28125 4.5 0.5625 7.9688 4.125 2.3906 2.4375 4.3125 4.7812 4.3125 5.1562s2.9062 4.4062 6.5156 8.8594c3.75 4.7344 8.0156 11.906 10.125 17.062 5.0156 12.375 5.1094 12.562 9.75 22.5 2.2969 4.875 4.4531 11.25 4.8281 14.203 0.375 2.9062 1.0312 7.9688 1.5 11.25 1.3125 9.7031 0.75 27.844-1.2188 36.094-2.3438 9.8906-4.6406 16.547-5.7656 16.547-0.46875 0-0.89062 0.75-0.89062 1.6875 0 7.125-10.125 19.922-25.406 32.062-7.3594 5.8125-10.078 8.5312-10.078 9.8906 0 1.3125 4.8281 2.1094 21.047 3.5625 13.922 1.2656 21.141 4.0781 25.734 10.078 2.5312 3.3281 3 5.3438 3.375 14.953 0.23438 6.0938 0.046875 14.297-0.46875 18.188s-1.2656 16.406-1.6875 27.797-0.98438 23.109-1.2188 26.016c-0.98438 12.516-2.0625 46.688-2.4375 77.484-0.23438 18.234-0.51562 41.625-0.65625 52.031-0.42188 31.594 0 38.484 2.25 39.234 8.9531 2.8594 13.219 5.9062 13.172 9.4219-0.046875 3.375-8.2969 11.812-12.984 13.266-5.0625 1.5938-38.578 2.2031-74.672 1.3125zm69.984-6.1875c3.7031-2.9531 5.8594-7.125 4.5-8.7656-2.0625-2.4844-4.4531-1.8281-5.25 1.4062-0.51562 2.1094-1.5469 2.9531-3.5625 2.9531-2.8594 0-3.0938-0.42188-3.3281-5.9062-0.09375-2.25-0.65625-2.8594-2.4844-2.5312-8.4375 1.4531-11.203 1.5-11.203 0.28125 0-1.1719 6.9375-4.9219 12-6.4688 1.6875-0.51562 1.9688-3 2.1094-19.266 0.09375-10.266 0.51562-21.609 0.98438-25.219 1.2188-9.4688 1.0312-108.56-0.23438-130.13-0.60938-10.078-1.0312-25.172-0.98438-33.562l0.14062-15.234-6.0938 0.70312c-3.375 0.375-8.0625 0.14062-10.453-0.60938-3.75-1.125-5.2969-0.9375-10.969 1.4062-5.9531 2.4844-7.0312 2.5781-11.625 1.2188-3.375-1.0312-7.1719-3.6094-11.391-7.9219-6-6.0938-8.4844-7.0781-8.4844-3.3281 0 2.8125-3.5156 1.9219-4.9688-1.2656-1.8281-3.9844-0.09375-5.625 5.8125-5.625 5.4375 0 9.1875 1.8281 15.281 7.4531 6.5156 6.0469 6.75 6.0938 12.375 3.5156 6.1406-2.7656 10.594-2.9531 16.969-0.65625 6.4688 2.3438 13.547 2.3438 13.734 0.046875 1.5-18.234-0.46875-26.625-6.8906-29.062-4.9219-1.875-22.547-3.5625-45-4.2656-22.734-0.75-20.953-1.4062-22.219 8.4844-0.42188 3.2344-0.98438 7.2656-1.2656 8.8594-0.98438 5.5312-0.70312 39.609 0.375 44.953 0.60938 2.9062 1.2188 12.234 1.3594 20.625 0.14062 8.4375 0.51562 15.703 0.79688 16.125 1.0781 1.7344 3.9375 27.234 4.7344 41.859 0.46875 8.4375 0.98438 17.25 1.1719 19.5 1.5469 18 1.8281 41.156 0.65625 57.375-0.75 10.406-1.5938 26.766-1.9219 36.375-0.28125 9.6094-0.84375 18-1.2656 18.609-1.4062 2.2969-3.1406 1.0312-4.9688-3.6094-1.0312-2.625-2.4375-4.7344-3.1406-4.7344-4.3594 0.046875-20.812 7.0312-20.812 8.8125 0 0.1875 3.0469 1.8281 6.7969 3.6094 6.375 3.0938 8.1094 3.3281 28.078 4.0781 37.547 1.4062 68.391 1.2656 70.406-0.32812zm-29.344-309.1c6.7031-6.6094 11.578-14.812 11.578-19.406 0-1.3125 0.75-4.2656 1.7344-6.5156 5.5312-13.312 4.0312-56.062-2.5781-72-2.7656-6.75-7.2188-20.156-8.0156-24.281-0.70312-3.7031-4.0312-10.688-6.8906-14.531-1.5469-2.1094-4.3594-6.6562-6.1875-10.078l-3.3281-6.2344-5.25 9.75c-9.0938 16.875-10.547 20.203-12.703 29.297-1.1719 4.875-2.8594 10.641-3.75 12.75-3.6094 8.7188-9.8438 35.016-9.8438 41.625 0 18.469 6.2344 40.359 15.75 55.406 5.3906 8.5781 5.8594 8.3438 7.4062-3.9844 0.89062-7.1719 4.3594-12.375 8.25-12.375 3.75 0 8.8594 3.5625 9 6.2344 0.23438 4.8281-0.32812 9.375-1.8281 15.188-0.84375 3.1875-1.1719 5.7656-0.75 5.7656s3.75-3 7.4531-6.6562zm-360.05-134.86c-3.5156-4.2188-0.09375-47.625 3.9375-50.297 0.84375-0.5625 3.6562-0.89062 6.2344-0.70312 6.7969 0.46875 7.7344 3.0469 7.5938 20.625l-0.09375 14.438-3.75 0.375c-3.6562 0.375-3.75 0.5625-4.7344 8.0625-0.5625 4.2188-1.6406 8.0625-2.3438 8.5781-2.25 1.4531-5.1094 1.0312-6.7969-1.0781z"/>
</svg>
