<?xml version="1.0" encoding="UTF-8"?>
<svg width="1200pt" height="1200pt" version="1.1" viewBox="0 0 1200 1200" xmlns="http://www.w3.org/2000/svg">
 <path d="m352.82 205.97c19.219 24.047 111.7 45.516 139.69 45.516 7.5 0 8.1562-11.109 0.65625-11.953-33.75-3.7969-123.89-18.562-137.58-49.734 32.812-69.234 358.08-78.375 434.48-12.422 1.0781 2.8125 0.9375 3.7969 1.2656 6.2344-0.89062 22.5-58.453 50.391-164.39 58.219-7.6406 0.5625-7.2188 12 0.42188 12h0.46875c79.875-5.9062 160.22-26.859 173.39-60.891 0.5625 1.7812 1.0312 3.6094 1.125 5.4375 2.0156-12.328 3.5625-27.188 0.84375-40.219-19.875-90.609-375.79-92.297-446.72-22.312-10.172 9.8438-11.672 21.516-10.969 34.125-7.0781 13.828-3.2344 25.219 7.3125 36z"/>
 <path d="m170.02 466.97c55.5 17.156 52.688 16.641 54.375 16.641 6.8438 0 8.2969-9.7031 1.7812-11.719l-52.594-16.359c-7.5938-2.3438-11.109 9.0938-3.5625 11.438z"/>
 <path d="m192 391.82c-6.0938-5.1562-13.828 3.8906-7.875 9.0938 18.938 16.406 37.078 34.125 53.859 52.641 5.2031 5.7188 14.297-2.1094 8.9062-8.0625-17.109-18.891-35.578-36.938-54.891-53.672z"/>
 <path d="m263.72 432.84c2.1562 7.5938 13.734 4.3125 11.531-3.3281-0.46875-1.5938-17.203-60.516-18.75-65.953-2.25-7.6406-13.734-4.3125-11.531 3.3281 1.6406 5.7656 18.281 64.312 18.75 65.953z"/>
 <path d="m867.42 542.76c-4.6875-6.375-14.391 0.70312-9.6562 7.125 18.141 24.656 32.391 51.094 43.172 78.516-8.25 14.578-31.453 54.984-31.453 55.031-8.1094 13.547-1.0781 1.7812-10.594 17.578-45.141-46.641-92.906-88.875-142.78-126.1 16.359-28.406 30.234-53.578 42.797-77.578 3.7031-7.0312-6.9375-12.609-10.641-5.5781-12.328 23.531-25.969 48.188-41.906 75.984-54.844-39.984-110.91-73.969-177.37-104.34 44.672-43.781 63.516-57.328 67.734-61.453 64.266 5.2031 123.94 30.141 177 67.219 6.2812 4.4531 13.266-5.3906 6.5625-10.078-34.359-24-74.484-44.391-115.31-56.438-0.42187-34.172-26.953-62.203-61.453-67.219-18.281-35.391-69.516-97.219-40.219-145.18 0.65625-1.0312 0.79687-2.2031 0.75-3.375 22.078 0.89062 41.297-4.5469 57.422-14.344 6.7969-4.125 0.5625-14.391-6.2344-10.266-27 16.359-63.609 16.969-91.125 1.5-6.9844-3.8438-12.75 6.6094-5.8594 10.453 10.547 5.9062 22.078 9.6562 33.891 11.484-30.516 53.484 19.594 116.91 37.266 148.87-34.922 1.4531-63.047 25.641-68.109 58.312-222.19 36.047-344.39 233.58-319.82 400.78 32.812 220.45 215.02 330.05 396.19 319.08 276.79-14.297 440.81-337.55 269.76-570zm-165.52 56.484c0.51562-0.5625 7.7344-13.172 8.2031-13.969 49.734 37.219 97.359 79.5 142.36 126.28-55.031 90.516-88.922 137.02-103.17 158.11l-150.47-109.22c44.719-64.125 101.67-156.89 103.08-161.21zm-67.453 423.47c-61.734-21.844-118.69-53.156-167.9-87 36.938-45.141 42.562-50.578 125.44-165.42l150.42 109.22c-21.094 29.062-84.234 115.97-107.95 143.21zm-177.84-93.75c-75.938-53.766-131.9-111.84-156.37-146.02 19.453-44.016 52.5-102.75 91.781-157.82l190.26 138.14c-83.062 115.08-82.594 112.83-125.68 165.71zm243.74-350.81c-0.1875 0.32812-8.1562 14.062-8.2969 14.391-1.5938 1.5938-40.266 71.062-102.94 160.82l-190.08-138c39-53.344 74.344-96.328 120.89-143.06 66.656 30.141 124.64 65.062 180.42 105.84zm-107.67-231.79c31.781 0 57.891 23.297 60.234 52.734-39.703-10.312-81-12.75-119.3-7.9688 5.9531-25.641 30.469-44.766 59.062-44.766zm-355.78 443.58c-27.188-185.39 131.76-393.71 342.52-388.74-21.422 18-42.094 37.078-62.156 56.859-11.297-4.9688-22.594-9.8438-33.984-14.344-7.3594-2.9531-11.812 8.25-4.4062 11.156 9.75 3.8438 19.453 8.0625 29.156 12.281-38.953 39.469-74.016 80.016-118.73 141.14l-58.359-42.375c-6.4219-4.6406-13.5 5.0156-7.0312 9.7031l58.406 42.375c-33.703 47.344-62.812 95.766-89.859 153.14-2.5781-4.3594-4.5938-8.25-5.4844-11.109-2.2969-7.5938-13.781-4.125-11.484 3.4688 1.5469 5.1562 5.3438 12.234 10.922 20.672-6.1406 14.719-15.141 33-31.969 81.234-6.9844-21.609-12.984-42.844-17.531-75.469zm333.61 311.29c-138.94-3.6094-265.78-102.94-309.84-217.45 9.9844-30.094 21.469-59.672 33.984-88.078 27.469 36.656 81.938 91.781 154.18 142.82l-57.047 69.891c-5.0625 6.1875 4.3594 13.641 9.2812 7.5938l57.656-70.734c49.266 33.844 106.03 65.109 167.63 87.328zm15.516-0.14062 52.266-64.312c6.1875 2.1094 13.547 5.0625 15.609 5.0625 6.8438 0 8.2969-9.7031 1.7812-11.719-3.1406-0.98438-6.2344-2.2031-9.375-3.2344 8.4844-11.203 3.4219 0.60938 105.8-140.29 84.797 61.031 81.094 60.141 84.797 60.141 5.7656 0 8.25-7.4531 3.5156-10.875l-81.469-59.156c14.578-21.562 45.703-63.703 102-156.14 10.781 11.438 21.469 23.016 31.875 34.922 5.1094 5.8125 14.297-1.875 9.0469-7.9219-11.25-12.844-22.781-25.312-34.453-37.594 6-10.031 12.797-20.859 13.453-22.828 1.5938-1.6406 24.469-42.469 25.406-44.109 74.578 218.11-84.938 452.06-320.26 458.06z"/>
 <path d="m957 392.39c-24.094-9.5625-44.297-28.453-55.5-51.891-4.2656-8.9531-16.969-7.9219-19.828 1.4531-8.3438 27.516-26.297 47.391-54.797 60.797-8.5312 3.9844-8.0156 16.219 0.79688 19.547 24.75 9.3281 45.562 28.359 57.047 52.219 4.1719 8.7188 16.594 7.8281 19.641-1.1719 10.031-29.578 27.422-49.641 53.109-61.453 8.5781-3.8906 8.25-16.031-0.46875-19.5zm-62.906 74.062c-12.844-24.891-34.875-44.719-60.188-53.766 29.156-14.203 48.703-35.719 58.219-64.078 12.281 23.859 33 43.172 57.562 53.719-26.109 12.891-44.766 34.406-55.594 64.125z"/>
 <path d="m993.79 264c-1.2188-2.5781-4.875-2.2969-5.6719 0.42188-5.8594 19.219-18.703 33.141-37.969 42.234-2.4375 1.1719-2.2969 4.5938 0.23438 5.5781 17.109 6.4219 31.594 19.734 39.516 36.188 1.2188 2.4844 4.7344 2.2969 5.625-0.32812 6.7969-19.969 18.938-34.312 36.891-42.562 2.4844-1.125 2.3438-4.5469-0.14062-5.5781-16.734-6.6094-30.75-19.781-38.484-35.953z"/>
</svg>
