<?xml version="1.0" encoding="UTF-8"?>
<svg width="1200pt" height="1200pt" version="1.1" viewBox="0 0 1200 1200" xmlns="http://www.w3.org/2000/svg">
 <path d="m840.37 403.31c-0.28125-0.046875-1.5938-0.5625-1.875-0.65625-2.4375-0.65625-3-0.65625-5.625-0.75-2.25-0.046875-4.5469 0.09375-6.75 0.375-4.7812 0.5625-10.594 1.875-15.656 3.1406-8.0625 1.9688-16.125 4.4062-24.281 5.9062-0.65625 0.23438-1.2188 0.28125-1.7812 0.28125-2.0156 0.375-4.0312 0.65625-6 0.84375-5.1094 0.5625-10.172-0.09375-15.188-0.84375-5.9531-0.84375-11.859-2.2969-17.438-4.5-9.8438-3.8906-18.938-10.031-24.281-19.266-3.4219 2.3438-7.0312 4.4062-10.781 6.2812-26.344 12.938-58.078 11.344-84.375-1.0781 0.1875 4.2188-0.14062 8.4375-0.75 12.609-1.125 7.7812-3.4688 16.219-7.4062 23.578-0.14062 1.5-0.84375 2.8594-2.2031 3.75-2.25 3.4688-4.8281 6.6562-7.9688 9.2344-12.469 10.5-28.219 15.844-43.688 20.438-1.0312 0.9375-2.4375 1.5-3.9844 1.6875-7.0312 0.65625-14.625 1.7812-20.766 4.9688-6.0469 3.1875-10.266 8.1562-13.781 14.109-4.3594 7.5938-6.9844 15.984-9.2344 24.375-2.625 9.6562-4.875 19.406-7.2188 29.062-3.2812 13.875-6.375 27.844-9.2812 41.812 12.328 3.75 24.562 7.7812 36.703 12.141 4.3125 1.5938 8.7188 3.1875 13.078 4.875 2.3438-4.5469 5.0156-8.9062 8.7656-12.375 5.5312-5.1562 13.828 3.1406 8.2969 8.25-2.5312 2.3438-4.5469 5.2969-6.2344 8.4375 15.562 6.4219 30.75 13.969 44.156 23.812 0.09375 0.046875 0.09375 0.09375 0.1875 0.1875 0.84375 0.5625 1.5 1.4062 1.9688 2.3438 0 0.046875 0.09375 0.09375 0.09375 0.1875 0.09375 0.14062 0.09375 0.28125 0.1875 0.46875 0.09375 0.28125 0.1875 0.51562 0.28125 0.79688v0.046875c0.09375 0.28125 0.14062 0.65625 0.1875 0.9375v0.1875c0.5625 8.625 1.2188 17.25 1.875 25.875 3.3281 4.875 6.75 9.7031 10.266 14.438 15.75 21.469 33.047 43.125 40.406 69.188 3.8906 13.781 3.5625 28.031 3.5625 42.234 0.09375 14.438 0.14062 28.969 1.875 43.312 1.6875 13.969 5.3438 27.938 12.141 40.266 5.0625 9.1406 11.016 17.531 17.906 25.172 6.375 7.0312 13.312 13.219 20.719 18.188 3.5625 2.3906 7.2656 4.5938 11.109 6.5625 4.2188 2.1562 7.1719 3.4688 11.25 4.9688 16.734 6.1875 32.625 7.9688 50.344 7.1719 9.375-0.42188 16.875-1.4062 25.875-3.1875 9.0938-1.7812 18-4.2188 26.812-7.0781 17.812-5.8125 34.031-13.125 50.578-22.219 7.9219-4.3594 15.656-9.0469 23.25-13.969 3.75-2.4375 7.4531-5.0156 11.109-7.5938 1.7812-1.2656 3.5625-2.5781 5.3438-3.8438 0.84375-0.65625 1.7344-1.3125 2.625-1.9688 0.375-0.28125 0.75-0.5625 1.1719-0.89062 0 0 0.46875-0.375 0.75-0.5625 12-9.3281 23.484-19.5 33.656-30.797 2.1562-2.3438 4.1719-4.7344 6.1875-7.2188 0.28125-0.375 0.5625-0.75 0.84375-1.125l1.3125-1.7812c0.75-1.0312 1.5-2.1094 2.25-3.1875 1.5-2.1562 2.8594-4.4062 4.125-6.6562 0.5625-1.0312 1.125-2.0625 1.5938-3.1406 0.1875-0.42188 0.375-0.84375 0.5625-1.3125 0.09375-0.1875 0.1875-0.375 0.23438-0.5625 2.6719-6.9375 12.844-4.3594 11.297 3.0938-5.3438 25.312-10.688 50.672-15.984 76.031-4.7344 22.688-9.5625 45.328-14.297 67.969-2.3438 11.062-4.6406 22.125-6.9375 33.141-2.3438 11.062-4.6875 22.172-5.4844 33.469-0.75 10.828 0.23438 21.422 2.8594 31.969 2.5781 10.406 6.2812 20.531 10.031 30.609 6.7969 18.375 13.969 36.656 21.469 54.75 1.6406-1.3594 3.2812-2.7188 4.9688-4.0781 2.5781-2.1094 7.5938-2.625 9.1875 1.1719 1.6875 3.9844 5.0156 5.9062 8.8125 6.0938 4.4062 0.23438 7.8281-1.0312 9.75-4.4531 1.7812-3.0938 6.75-4.0312 9.1875-1.1719 3.75 4.3125 10.312 5.5312 15.094 2.4375 0.60938-5.8125 0-11.719-1.5469-17.344-1.0312-3.75 1.875-7.3125 5.625-7.4062 5.0156-0.09375 10.031-0.28125 14.953-1.5 4.125-1.0312 8.25-2.7188 10.828-6.2812 2.7188-3.75 2.8125-8.5312 1.7344-12.844-2.9062-11.156-12.188-18.234-20.625-25.219-9.5625-7.875-17.625-16.359-21.984-28.172-3.9375-10.828-4.1719-22.781-2.7188-34.078 1.5469-12 4.7344-23.672 8.5312-35.156 4.5-13.828 9.1875-27.562 13.781-41.344 9.0938-27.234 19.031-54.375 26.578-82.031 6.75-24.562 11.25-50.812 6.2812-76.172-4.0312-20.531-13.594-40.5-30.047-53.953-18.141-14.906-42.75-17.297-65.062-12.75-12.234 2.4844-24.094 6.6562-35.344 12.094-10.969 5.25-21.938 10.125-33.516 13.781-20.766 6.5156-42.375 9.75-63.188 16.172-20.906 6.4219-39.281 17.109-53.672 33.844-2.0625 2.3906-6.1875 2.1094-8.25 0-2.3438-2.3438-2.0625-5.9062 0-8.2969 3.9375-4.5 8.1094-8.8125 12.656-12.656 17.438-14.766 38.578-22.688 60.516-28.125 22.453-5.5312 45.375-9.6562 66.75-18.75 12.047-5.1562 23.438-11.438 36-15.469 12.375-3.9844 25.406-6.4688 38.438-6.4688 21.469 0 42 7.5938 57.375 22.219 3.1875-14.719 6.4219-29.484 7.8281-44.484 3.0938-33.188-9-71.344-40.406-87.375-13.922-7.125-30.656-8.7188-45.047-1.9688-15.516 7.2656-29.156 18.938-40.5 31.688 0.375 11.391-0.9375 22.828-4.0312 34.031-6.75 24.891-21.984 48.562-43.781 62.859-13.547 8.9062-28.875 10.922-44.531 7.0781-7.9688-1.9688-15.562-5.1094-23.062-8.2969-7.4062-3.1406-14.719-6.3281-22.125-9.5625-29.062-12.656-57.281-26.438-84.234-43.172-6.2812-3.8438-12.656-7.7344-19.688-10.031-7.2188-2.3438-14.625-3.1406-22.219-3.2812-15.656-0.28125-31.266 1.9688-46.828 0.1875-3.3281-0.375-5.6719-2.4375-5.8594-5.8594-0.1875-3.2812-0.375-6.5625-0.5625-9.8906-2.625-0.23438-5.1562-0.46875-7.7812-0.70312-3.6562-0.375-6-1.9219-7.8281-5.25-2.1562-3.8906-2.1562-8.5312-0.9375-12.75 1.1719-4.1719 3.375-8.0625 5.9062-11.531 2.25-3.0938 4.6875-5.8594 6.1875-9.375 1.0781-2.4844 1.8281-5.1562 0.98438-7.125 0 0.09375-0.28125-0.46875-0.65625-0.65625-0.28125-0.1875-1.125-0.46875-1.6875-0.5625-1.9688-0.375-4.125-0.23438-6.0938-0.28125l-31.922-0.28125c-3.4688-0.046875-7.0312-3.75-5.625-7.4062 7.9688-20.531 26.531-34.125 47.297-40.031 22.781-6.4688 46.969-3.1875 69.75 1.3125 8.1562 1.5938 15.656 4.1719 23.016 8.0625l14.719 7.7812c33.797 17.906 65.906 39.562 96.375 62.719 0.84375-8.0625-0.09375-16.219-2.25-24.094-10.5-39.375-44.625-69.281-46.547-111.47-0.32812-7.5469 11.391-7.5 11.719 0 0.46875 10.922 3.6562 21.562 8.1094 31.5 16.406 36.656 50.531 72.703 38.625 116.02-1.3125 4.6875-6.4688 5.2031-9.7969 2.625-19.688-15.281-40.125-29.625-61.172-42.938-13.875-8.8125-28.031-17.297-42.516-25.031-4.5938-2.4375-9.1406-4.8281-13.688-7.2656-7.125-3.7969-14.531-5.625-22.453-7.125-20.859-3.9844-43.031-6.6094-63.609 0.09375-12.75 4.125-25.219 12.141-32.484 23.625 7.125 0.09375 14.25 0.09375 21.422 0.1875 5.0156 0.046875 10.406-0.23438 14.906 2.4844 3.1875 1.9688 5.5312 5.2031 6.375 8.8594 1.5938 7.5-1.9688 15.469-6.4219 21.281-2.3906 3.1875-8.9062 10.594-7.3594 15.094 3.7031 0.375 7.4062 0.65625 11.156 1.0312 3.2812 0.28125 5.6719 2.4844 5.8594 5.8594 0.1875 3.2812 0.375 6.5625 0.5625 9.8906 5.5781 0.32812 11.156 0.28125 16.781 0.09375 15.281-0.5625 30.797-1.9688 45.797 1.7812 14.812 3.75 27.188 13.078 40.125 20.719 27.094 15.891 55.875 28.547 84.703 40.922 13.688 5.8594 28.312 13.125 43.641 12.094 13.359-0.84375 24.844-9.75 33.797-19.078 16.641-17.25 26.625-40.875 28.219-64.688 0.84375-12.094-0.375-24.234-3.8906-35.859-1.9688-6.6562-4.7344-12.984-7.9688-19.125-0.1875-0.32812-0.42188-0.65625-0.5625-1.0781-3.2812-6.1875-7.0312-12.094-10.969-17.812-4.125-5.9531-8.4375-11.766-12.844-17.531-2.9062-3.7969-5.9531-7.4531-8.1094-11.719-4.1719-8.25-6.7969-17.25-9.1875-26.156-5.25-19.781-8.5781-40.312-15.938-59.531-1.125-2.8594-2.625-6.2812-4.6875-9.6094-0.46875-0.70312-0.9375-1.4062-1.4062-2.0625-0.046875 0-1.0781-1.3125-1.3125-1.5938-2.2969-2.4844-4.7812-4.7812-7.4062-6.9375-3.7969-3.0938-7.9688-5.8125-12.281-8.1562-1.0781-0.5625-2.1562-1.125-3.2812-1.6875-0.375-0.1875-0.65625-0.375-1.0312-0.51562zm-275.53-189.71c0.046875-0.28125 0.09375-0.5625 0.09375-0.79687 0-0.46875-0.09375-2.2969 0-1.9688-0.09375-1.2188-0.23438-2.2969 0.1875-3.6562 1.0312-3.375 4.125-5.0625 7.4531-5.3438 5.8125-0.46875 12 1.9688 17.531 3.3281 6.6562 1.6406 13.125 2.7656 19.875 1.0312 6.8438-1.7812 12.656-5.625 17.109-11.109 2.9062-3.5156 8.7188-1.3125 9.7969 2.625 2.2031 7.6875 8.625 13.875 16.5 15.469 7.6875 1.5938 16.5-1.7812 21.234-8.1562 2.3906-3.2812 7.9688-4.3125 10.125 0 7.6875 15.281 20.859 28.359 38.203 31.594 17.062 3.1875 35.344-5.0625 41.344-21.938 1.0312-3 3.9844-4.9688 7.2188-4.0781 2.9062 0.79688 5.1562 4.2188 4.0781 7.2188-3.4219 9.75-9.6562 18.094-18.422 23.719-2.0625 1.3125-4.1719 2.3906-6.375 3.375 0.84375 2.0625 1.5938 4.125 2.4375 6.1406 0.046875 0.14062 0.28125 0.65625 0.42188 0.9375 0 0.046874 0.046875 0.09375 0.09375 0.1875v0.046874c0.84375 1.875 1.6875 3.7031 2.4375 5.625 1.7812 4.3125 3.2812 8.7656 4.5938 13.312 5.0156 18.047 5.8125 37.266 1.875 55.594-3.375 15.938-10.875 30.844-21.281 43.266 16.031 1.875 32.625-4.4062 43.406-16.594 12.141-13.781 14.906-34.125 8.4375-51-0.84375-2.25 0.5625-5.625 2.6719-6.6094 22.5-10.688 37.594-33.375 36.094-58.594-0.65625-11.719-5.2031-21.891-11.812-31.406-3.9375-5.7188-5.9531-11.438-6.5625-18.375-0.46875-5.625-0.75-11.109-2.1562-16.688-2.5312-10.266-7.2188-20.156-13.969-28.406-3.4688-4.2656-7.4062-8.25-11.719-11.625-4.4062-3.4688-9.8438-5.9062-12.938-10.922-2.9062-4.7812-3.3281-10.969-5.25-16.219-1.7812-4.875-4.4062-9.5625-7.4062-13.828-5.8594-8.3906-13.875-15.188-22.969-19.828-19.969-10.125-44.812-7.4062-62.953 5.2969-2.7188 1.9219-6.3281 0.375-8.0156-2.1094-4.2656-6.2812-10.688-11.062-17.766-13.688-31.219-11.859-60.562 9.7031-78.281 33.984-2.3906 3.2812-6.0469 3.7031-9.1875 1.1719-13.406-10.781-33.703-13.266-49.172-5.625-13.5 6.6562-23.062 19.594-25.781 34.312-0.84375 4.3125-0.5625 8.7188-1.2188 13.078-0.75 4.7344-2.9062 8.7656-5.8125 12.516-4.7812 6.0938-10.078 11.25-13.828 18.188-13.406 24.844-9.9844 58.5 9.4688 79.312 2.0625 2.1562 2.4375 6.1406 0 8.25-7.2188 6.2812-10.594 15.234-11.344 24.656-0.75 9.1875 0.375 18.281 2.5781 27.188 2.2969 9.4219 5.7188 18.562 11.344 26.531 9.0938 12.938 27.234 21.469 41.906 13.594-0.89062-3.9844-1.6875-7.9688-2.3906-12-0.5625-3.1406 0.79688-6.2812 4.0781-7.2188 2.8594-0.75 6.6562 0.98437 7.2188 4.125 1.875 10.875 4.125 22.312 8.3906 32.531 3.6094 8.625 9.8438 14.812 19.031 17.156 8.0625 2.0625 16.031 0.84375 23.953-1.4062 6.1875-1.7344 12.281-3.8438 18.375-6.0938-12.75-11.344-23.531-25.125-32.344-39.469-12.141-19.688-21.188-41.531-25.688-64.219-0.9375 0.84375-1.875 1.6406-2.8594 2.4375-6.5156 5.3438-14.906 11.719-23.812 11.344-7.5469-0.28125-7.5469-12 0-11.719 0.375 0 0.84375-0.046876 1.3125 0 0.79688-0.28125 1.6875-0.375 2.5312-0.65625 0.1875-0.09375 0.98438-0.375 1.125-0.42188 0.1875-0.09375 0.46875-0.1875 0.65625-0.32812 1.0312-0.46875 2.0156-1.0312 3-1.5938 1.0312-0.65625 2.1094-1.3125 3.0938-1.9688 0.60938-0.42188 1.2188-0.84375 1.7812-1.3125 0 0 0.60938-0.46875 0.84375-0.60938 2.2031-1.7344 4.3125-3.5625 6.375-5.4844 1.9219-1.7812 3.7969-3.6562 5.625-5.5312 0.09375-0.09375 0.1875-0.1875 0.23438-0.28125 5.7656-5.9531 10.875-12.375 15.422-19.219 2.8125-4.1719 5.2969-8.5312 7.4531-13.078 0.1875-0.32812 0.28125-0.65625 0.46875-0.9375v-0.09375l0.5625-1.4062c0.32812-0.89062 0.65625-1.7812 0.9375-2.7188 0.23438-0.84375 0.42188-1.6875 0.60938-2.5781 0-0.09375 0.046875-0.1875 0.09375-0.375zm559.74 806.63c2.3438 9.0469 0.70312 19.5-6.5625 25.875-3 2.625-6.4688 4.5-10.125 5.3438 2.6719 5.8125 3.6094 12 0.51562 18.375-1.9688 4.0312-5.5781 7.2656-9.9844 8.2969-1.4062 0.375-2.9062 0.375-4.4062 0.46875-0.75 0-1.875-0.1875-2.5781 0.09375-1.5469 0.65625-2.625 3.2812-3.8438 4.5-0.1875 0.1875-0.42188 0.375-0.60938 0.51562 0.09375 0.14062 0.1875 0.28125 0.23438 0.42188 5.3438 11.062 5.9062 24.938-3.75 33.844-6.8438 6.2812-16.031 8.25-25.031 8.9062 0.5625 3.9375 0.84375 7.875 0.60938 11.812-0.1875 3.2812-0.1875 7.0312-2.8125 9.375-1.875 1.6875-4.0312 2.9062-6.3281 3.8438-6.8438 2.8125-15.094 2.0625-21.375-1.875-8.5312 7.0312-22.828 6.6562-30.562-1.2188-2.0156 1.6875-4.0312 3.3281-6.0938 4.9688-3.6562 3-8.0156 1.6406-9.7969-2.5781-9.8906-23.625-19.312-47.438-27.938-71.531-3.6562-10.219-7.0312-20.578-8.8125-31.312-1.875-11.344-1.875-22.688-0.42188-34.031 2.9531-22.875 8.7188-45.516 13.453-68.062 7.5-35.531 14.953-71.062 22.406-106.59-2.8594 3.2812-5.8594 6.4219-8.8125 9.4688-11.625 11.812-24.562 22.406-37.969 32.062-30.609 22.125-65.156 40.031-101.72 49.828-35.672 9.5625-74.672 10.828-108.56-5.7188-17.906-8.7188-32.859-22.172-44.812-37.969-7.6406-10.078-14.062-21.094-18.328-33.047-4.9688-13.875-6.9375-28.641-7.7812-43.266-0.9375-15.188-0.5625-30.422-0.84375-45.656-0.1875-13.125-2.5781-25.5-8.0156-37.547-8.3438-18.375-20.625-34.5-32.625-50.672 1.5 19.266 3.0938 38.531 4.7344 57.797 5.4375 64.969 11.109 129.94 14.438 195 3.2812 63.844 4.4062 127.87 0.23438 191.72-0.1875 2.4375-1.5938 4.5938-3.75 5.4375 3.375 1.7812 6.9844 3.2812 10.828 4.5 3.0469 0.9375 4.9688 4.0312 4.125 7.2188-0.9375 3.375-4.0781 4.5-7.2188 4.125-4.2188-0.5625-8.4375-1.4062-12.562-2.5781-33.375-9.375-57.656-36.375-76.078-64.5-18-27.469-32.297-57.891-57.75-79.594-13.406-11.438-29.297-18.656-46.594-21.844-19.875-3.75-40.266-2.9531-60.281-5.2031-19.078-2.1562-37.688-7.0312-53.438-18.328-14.016-10.031-25.266-23.625-32.016-39.469-11.156-26.25-7.6875-54.656 4.3594-79.359-48 32.625-95.719 65.719-143.06 99.328-2.5781 1.8281-6.5156 0.46875-8.0156-2.1094-1.6875-2.9062-0.46875-6.1875 2.1094-8.0156 32.062-22.734 64.219-45.234 96.562-67.5 17.062-11.766 34.172-23.438 51.281-35.062-20.25 1.2188-40.969 0.28125-59.812-6.8438-21.938-8.25-38.719-25.125-44.812-48-5.7656-21.797-2.8125-44.812-0.46875-66.938 1.2188-11.719 2.4375-23.438 2.2031-35.25-0.28125-12.656-2.0625-25.219-5.25-37.406-6-22.875-16.875-44.344-31.406-63-1.0312-0.42188-1.9688-1.125-2.7188-2.2969-19.969-30.75-47.766-55.781-79.5-73.969-5.9531-3.4219-1.7812-12 4.5-10.688 8.25 1.7344 16.359 3.9844 24.328 6.6562 0.60938-3 3.2812-5.5781 7.0312-4.4062 5.2031 1.5938 10.406 3.1875 15.656 4.7812 41.859 12.75 83.719 25.688 125.63 38.297 17.438 5.25 34.969 10.219 52.688 14.625-4.5-2.3438-8.7188-5.3438-12.328-9.1875-8.8125-9.2344-13.688-21.281-14.156-33.797-14.531 3-30.469 4.2656-42.375-5.8594-8.2969-7.0312-12.656-19.078-9.1875-29.156-8.1562-2.8594-16.078-6.6094-23.438-11.156-34.031-21.094-57.375-58.078-60.375-98.109-0.375-4.7812 5.1562-6.8438 8.8125-5.0625 29.578 14.156 62.344 19.359 94.781 22.125 29.625 2.5781 59.344 3.2344 88.875 6.6562 14.906 1.7344 29.766 4.125 44.344 7.7812 15.094 3.8438 29.625 9.3281 43.969 15.375 15.047 6.3281 29.906 13.172 45.188 18.75 14.812 5.4375 30.094 9.4688 45.656 12.094 30.094 5.0156 61.125 4.3594 91.031-1.7812 5.9062-11.25 8.8125-25.875 5.4375-37.312-1.7812-1.1719-3.5625-2.3906-5.3438-3.6562-8.1562 3.2812-16.406 6.2812-24.891 8.7188-15.422 4.4062-32.484 4.7812-45.703-5.625-7.0312-5.5312-11.156-13.688-13.969-22.031-0.5625-1.6406-1.0312-3.2812-1.5-4.9219-9.1875 4.0312-19.969 3.9375-29.391 0.70312-22.688-7.7812-34.078-30.469-38.859-52.5-4.0312-18.562-4.3125-41.25 8.7656-56.25-10.594-13.219-16.312-29.719-17.062-46.688-0.75-16.406 3.4219-33.469 12.422-47.25 2.4375-3.6562 5.1562-7.125 8.1562-10.359 2.7656-3.0469 5.9062-6.1406 6.9844-10.219 1.2188-4.5938 0.75-9.5625 1.5-14.25 0.65625-4.2188 1.9219-8.2969 3.5625-12.281 6.9375-16.594 21.234-29.906 38.766-34.5 16.125-4.1719 33.234-1.125 47.062 7.7344 5.3438-6.75 11.109-13.125 17.719-18.656 14.156-11.812 31.594-20.062 50.391-19.406 15.422 0.51562 30.375 6.5156 40.547 18 22.875-13.641 53.062-13.875 75.75 0.375 9.8438 6.1875 18.234 14.719 24.281 24.656 3.0938 5.0625 5.5781 10.594 7.3125 16.312 0.84375 2.8125 1.2656 5.8594 2.25 8.625 0.79688 2.25 2.5312 3.4219 4.4062 4.6875 20.438 13.594 34.5 35.062 37.688 59.531 0.79688 6.0938 0 13.125 2.9531 18.656 3 5.5312 7.1719 10.266 9.8438 16.078 5.4375 11.719 7.6875 24.844 6.0938 37.688-2.8125 23.062-17.156 43.5-37.359 54.75 2.25 7.7344 2.9062 15.938 1.9688 23.953-2.1094 17.719-11.156 33.562-25.969 43.688-14.109 9.6562-32.156 12.891-48.75 9.0938-0.5625-0.14062-1.0312-0.32812-1.5-0.5625-0.28125 0.28125-0.5625 0.46875-0.84375 0.75 1.9688 3.7031 4.5938 6.9375 7.9688 9.5625 8.8125 6.8438 20.719 9.6562 31.594 10.594 3.9844 0.375 7.875 0.09375 11.719-0.5625 22.922-13.922 44.391-30.375 61.453-51.281 7.5-9.1406 13.922-19.125 19.406-29.625 2.8125-5.4375 5.4375-11.016 7.6875-16.688 2.625-6.5625 4.9688-13.312 8.6719-19.406 7.6875-12.469 20.719-18.188 33.234-24.656 13.031-6.75 25.922-13.875 38.625-21.281 50.719-29.625 98.344-64.219 142.22-103.22 2.5781-2.25 7.5469-2.4375 9.1875 1.2188 4.2188 9.2344 6.8906 18.797 8.1562 28.875 3.75 30.281-6.8438 62.625-28.359 84.375 3.5625-0.23438 7.2188-0.84375 10.406-0.9375 8.4375-0.23438 16.922 2.9531 19.688 11.672 3.1406 9.9375-3.1875 20.531-7.5938 29.062-4.2188 8.1562-8.9062 16.031-14.062 23.625 9.4688 9.6562 10.875 25.219 5.8125 37.688-4.5 11.25-13.406 19.266-23.391 25.828 4.4062 3.8438 6.9844 9.3281 6.5625 15.281-0.5625 8.7188-5.4844 15.938-10.969 22.312-9.9375 11.578-20.344 22.781-30.656 34.031 3.0938 1.2188 5.9531 3.0938 8.4375 5.6719 5.7188 5.9062 8.5312 13.922 7.3125 22.031-1.2188 8.25-6 15.562-12 21.094-11.672 10.781-27.281 14.672-40.547 22.688 1.7812 4.4062 1.2188 9.4688-1.6875 14.156-3.7969 6.0938-10.172 10.875-17.062 12.984-0.9375 0.28125-1.875 0.46875-2.8125 0.65625-0.46875 0.09375-0.84375 0.09375-1.3125 0.1875 0 0-0.09375 0-0.23437 0.046875-1.1719 0.1875-2.3438 0.42188-3.5156 0.65625-2.8125 0.65625-5.5312 1.4062-8.25 2.2969-5.9531 1.9688-11.766 4.4062-17.156 7.6875-2.6719 1.5938-4.4062 2.7656-6.4219 4.7812-0.46875 0.46875-0.9375 0.9375-1.4062 1.5-0.09375 0.1875-0.23438 0.375-0.375 0.5625 0 0.046875-0.09375 0.09375-0.09375 0.1875 0.65625 1.4062 1.3594 2.8125 2.0156 4.2188 4.125 9.0938 6.9844 18.562 8.625 28.266 5.2969-5.25 10.969-10.125 16.875-14.625 8.2031-6.1875 17.156-11.719 27-15.094 17.719-5.9531 37.828-1.875 53.531 7.5938 16.969 10.266 28.688 26.812 35.531 45.234 6.4219 17.484 8.0156 35.906 5.8594 54.281-2.0156 17.203-5.8594 34.078-9.4688 51 12.75 17.297 19.594 38.391 21.188 59.812 2.1562 28.688-5.0625 57.328-13.594 84.469-9.1406 28.969-19.125 57.75-28.734 86.531l-1.125 3.375c6.7969 6.8906 14.062 12.75 22.125 18.281 8.9062 6.0938 18.141 11.953 26.672 18.656 7.8281 6.1406 14.719 13.969 17.25 23.812zm-11.625 13.266c2.7188-6.75-0.46875-14.766-4.7344-20.156-5.1562-6.4688-12.281-11.016-19.031-15.656-7.6406-5.25-15.516-10.219-22.922-15.75-4.125-3.0938-8.0625-6.5156-11.812-10.078-2.4375 7.3594-4.7344 14.812-6.6094 22.312-2.6719 11.156-4.5938 23.062-2.8125 34.5 0.84375 5.3906 2.5312 10.641 5.25 15.375 3.0469 5.2969 7.3125 9.5625 11.859 13.594 6.1406 5.3438 12.75 10.266 18.188 16.312 2.5312-2.8125 4.3594-5.5312 8.4375-6.5625 2.5781-0.65625 6.75 0.375 8.4844-1.4531 5.0625-5.4375-2.25-13.969-5.4375-18.281-1.5469-2.0625-0.75-5.4375 0.9375-7.125 1.875-1.875 4.7812-2.1562 7.125-0.9375 2.2969 1.2188 4.9688 1.0312 7.4531-0.1875 2.5781-1.2188 4.6875-3.2812 5.8125-5.9531zm-13.406-760.87c1.2188-2.9062 2.8125-6.9375 1.5938-10.125-0.75-2.0156-2.3438-2.625-4.3125-2.9531-2.5781-0.42188-6.2812 0-9.2812 0.23438-7.2188 0.65625-14.438 1.125-21.094-2.3906-3.0469-1.5938-4.125-6.9375-1.1719-9.1875 6.9375-5.3438 13.125-11.719 18.094-19.031 15.891-23.25 21.094-54.188 11.812-80.953-23.016 20.062-47.016 39-71.906 56.625-24 17.016-48.844 32.812-74.344 47.391-12.75 7.2188-25.641 14.156-38.719 20.766-5.7656 2.9062-11.672 5.9062-16.312 10.547-4.6406 4.5938-7.4062 10.734-9.75 16.734-4.7812 12.047-9.8906 23.812-16.594 34.875-6.3281 10.5-13.781 20.344-21.984 29.438-9.2812 10.219-19.688 19.406-30.75 27.75 6-1.3125 12.094-2.25 18.188-2.1562 7.875 0.14062 14.438 3.0938 21.047 7.0781 9.2812 5.625 18.656 12.844 24.094 22.312 4.6875 8.1094 7.5 17.344 9.9844 26.25 5.625 20.062 8.8594 40.875 16.031 60.516 1.4062 3.8438 2.2031 5.9531 4.4531 9.7969 2.9531 4.9688 6.9375 9.375 10.453 14.062 5.6719 7.5 11.156 15.188 16.031 23.25 2.4375-2.3438 5.25-4.3125 8.0625-6 6.7031-4.0781 14.156-7.125 21.656-9.4688 3.1875-0.98438 6.375-1.875 9.6562-2.4375 2.9062-0.46875 5.5312-0.75 8.8125-2.6719 3-1.7812 5.5312-4.125 7.0312-7.0312 0.32812-0.65625 0.23438-0.375 0.51562-1.5 0-0.14062 0.046875-0.1875 0.09375-0.28125v-0.9375 0.23438s0-0.09375-0.046875-0.1875c-0.09375 0-0.98438-1.0312-0.65625-0.84375-3.8438-2.7188-3.6562-7.3594 0-10.125 14.531-10.922 34.688-13.688 46.828-27.891 4.3125-5.0625 7.3125-12.188 4.4531-18.562-2.25-5.0625-8.3438-10.172-13.312-7.875-5.9531 2.7656-11.719-4.125-7.125-9.1875 7.0312-7.7812 14.062-15.516 21.094-23.25 6.4688-7.125 13.219-14.109 19.312-21.516 2.2969-2.7656 4.5-5.8594 5.7656-9.2812 1.0312-2.9062 1.2188-6.0469 0.32812-7.7812-1.0312-1.875-3.0938-3.5156-4.7344-4.0312-0.14062 0-0.65625-0.14062-1.0312-0.23438-1.4531 0.79688-2.9062 1.5938-4.3125 2.3906-4.7344 2.5781-11.719-3-8.0156-8.0156 2.3438-3.2344 5.4844-5.1562 8.9062-5.8125 10.547-5.8594 21.281-12.844 26.672-23.719 4.5938-9.2812 4.3125-23.203-4.9688-29.109-2.5312-1.5938-3.9844-5.3438-2.1094-8.0156 5.625-7.9688 10.734-16.219 15.328-24.844 2.25-4.1719 4.5-8.3906 6.375-12.75zm-346.4 38.766c1.1719-15.188-1.0312-30.422-6.0938-44.812-2.1562-6.1875-4.8281-12.234-7.4062-18.328-10.031 1.7812-20.672 0.5625-30-3.3281-13.125-5.4375-23.766-15.328-31.266-27.281-7.5469 6.0938-17.344 8.9062-27.281 7.0312-9.0938-1.6875-16.969-7.5938-21.75-15.375-4.7344 3.8438-10.359 6.6562-16.266 8.1562-8.6719 2.25-17.109 1.1719-25.688-0.9375-3.375-0.84375-6.75-1.7812-10.078-2.5312-0.28125-0.09375-0.5625-0.09375-0.79688-0.1875-0.23438 2.0625-0.60938 4.125-1.2188 6.0938-3 9.8438-8.9062 18.938-15 27.094-3.375 4.4531-6.9375 8.8125-10.688 12.984 3.7031 26.625 15.188 53.062 30.328 75.375 13.594 19.969 31.5 38.203 53.812 48.188 13.312 5.9531 28.922 8.5781 43.5 7.6875 13.031-0.79688 25.5-5.3438 36.469-12.375 23.062-14.906 37.359-40.406 39.422-67.594zm-134.11 810.37c2.2969-35.344 2.9531-70.734 2.5781-106.12-0.75-65.109-4.9688-130.13-10.125-195-4.3125-54-9.1875-107.91-13.312-161.9-0.84375-1.5469-0.84375-3.0469-0.32812-4.3125l-1.125-15.328c-19.875 12.375-39.75 24.891-59.531 37.453-0.65625 2.4375-1.2656 4.875-1.9688 7.3125-7.125 24.656-18.375 49.172-37.969 66.469-9.1875 8.1094-20.156 14.484-32.203 17.156-3.2812 0.75-6.5625 1.125-9.8438 1.5-2.4375 0.23438-5.3438 0.32812-7.5469 1.5938-2.25 1.3125-2.625 4.0781-3.0938 6.4688-0.5625 3.0938-1.0312 6.2812-1.7344 9.375-3.0938 14.062-8.9062 27.516-17.812 38.906-6.0938 7.7812-14.062 11.719-23.391 14.531-10.312 3.1406-21.094 4.7344-31.781 5.8594-8.25 0.89062-16.594 1.4531-24.938 1.2188v0.9375c0 15.188 4.9219 30.188 14.203 42.281 9.9844 13.031 24.562 21.047 40.875 22.969 10.406 1.2188 20.953 0.98438 31.406 2.2969 8.8125 1.125 17.531 2.9062 25.969 5.7188 32.25 10.5 59.531 32.344 80.156 58.922 10.312 13.312 19.125 27.656 26.344 42.844 6.75 14.203 11.719 29.156 17.625 43.688 8.4375 21 19.5 42.516 37.688 55.688v-0.46875zm-33.469-679.13c3.2812-1.5938 6.6562-3.375 9.75-5.4375-29.859 4.2656-60.281 3.4688-89.906-2.5781-15.891-3.1875-31.312-8.0625-46.359-14.016-15.188-6-30-12.938-45.094-19.031-14.531-5.8594-29.344-10.594-44.625-13.875-14.531-3.0938-29.25-5.0156-43.969-6.375-55.969-5.2031-114.38-3.0469-167.06-24.703 1.1719 6.8438 3 13.5 5.3906 20.062 12.422 33.562 41.156 60.984 75.703 70.688 4.3594 1.2188 5.5312 6.5625 2.5781 9.7969-2.6719 2.9531-2.8594 6.5625-1.7344 10.5 1.125 3.8438 3.75 7.6875 7.0312 10.078 10.594 7.7812 26.484 3.4688 38.062 0.65625 4.7344-1.125 7.7812 2.8594 7.2188 7.2188-1.9688 14.531 5.9062 30.094 18.469 37.547 13.125 7.7812 31.219 6.5625 43.125-3 2.3438-1.875 5.2031-2.3438 7.6875-0.46875 2.1562 1.5938 3.1875 5.25 1.5 7.5938-3.75 5.1562-6.5156 11.016-8.0625 17.156 3.1875 0.60938 6.4688 1.2188 9.6562 1.7812 27.656 5.2031 55.219 11.25 82.594 18.094 13.828 3.4688 27.656 7.125 41.344 11.109 4.5-21.422 9.375-42.75 14.719-63.938 3.8438-15.422 8.3438-31.781 19.312-43.875 8.5312-9.4688 20.531-12.844 32.672-14.438 0.375-0.1875 0.79688-0.375 1.2656-0.51563 9.75-2.8125 19.594-5.625 28.781-9.9844zm5.8125 668.06c-10.312-14.391-17.625-31.406-23.906-47.625-5.8125-14.906-11.156-29.812-18.656-43.875-7.875-14.906-17.297-28.969-28.5-41.531-22.875-25.781-52.688-45-87.141-50.297-10.219-1.5938-20.578-1.3594-30.844-2.3438-9.8438-0.9375-19.312-3.0938-28.172-7.5-14.812-7.4062-26.625-20.438-33.422-35.391-11.766-25.875-7.875-52.547 1.0312-78.047-4.0312 2.6719-8.0625 5.3438-12.094 8.0625-1.7812 1.2188-3.5156 2.3906-5.2969 3.5625-2.7188 3.375-5.3438 6.9375-7.6875 10.594-9.6562 15.141-15.938 32.672-15.984 50.719-0.09375 16.219 5.0625 31.594 14.344 44.812 9.1875 13.031 22.594 23.484 37.5 29.156 18.281 6.8906 37.969 7.5 57.281 8.5312s38.953 2.5312 57 10.031c15.422 6.4219 28.922 16.453 40.359 28.594 22.406 23.812 35.906 53.625 54.562 80.062 8.5312 12 18.375 23.297 29.625 32.438zm-49.969-450.74c16.547-10.5 33.141-20.906 49.781-31.266-11.156-7.125-23.062-12.938-35.25-18.047-0.09375 0.28125-0.23438 0.5625-0.32812 0.79688-3.0938 7.7344-5.625 15.656-7.875 23.719-2.25 8.25-4.2656 16.5-6.2812 24.844zm-2.2031-37.406c1.7344-5.4844 3.6562-10.922 5.8594-16.219-7.7344-2.9531-15.562-5.7188-23.344-8.3438-7.9688-2.7188-16.031-5.25-24.094-7.7344-0.046875 0.1875-0.09375 0.375-0.14062 0.60938-1.8281 9-3.5625 18.094-5.25 27.094-1.5469 8.25-2.5781 16.781-5.1562 24.797-2.6719 8.25-7.3125 15.281-13.969 20.766-6.6094 5.4375-14.062 9.75-21.234 14.344-15.656 9.9844-31.312 20.016-46.969 29.906-7.0312 4.4531-14.344 8.7656-22.406 11.109-8.5312 2.4375-17.156 1.875-25.688 0.09375-13.078-2.6719-28.406-9.1406-39.609 1.6875-1.7812 1.7812-3.2344 3.75-3.75 5.9531-0.42188 1.6875-0.1875 3.75 1.2188 5.7188 3.1406 4.3125 9.75 5.4375 14.719 6.5625 6.9375 1.5 13.453 3.2812 19.125 7.7812 5.5312 4.3125 8.8125 10.547 7.6875 17.438 2.1562-0.1875 4.4062-0.375 6.5625-0.65625 4.8281-0.51562 6.75 5.25 5.0625 8.8125l-0.23438 0.46875c17.906-11.906 35.766-23.766 53.719-35.484 35.062-22.969 70.406-45.703 105.8-68.203 0.32812-1.3125 0.65625-2.6719 1.0312-4.0312 3.5625-14.203 6.7031-28.5 11.109-42.469zm-42.703 111.98c12.562-14.016 20.156-30.891 25.781-48.516-5.8594 3.75-11.812 7.4531-17.672 11.25-49.031 31.406-97.688 63.281-146.11 95.625-5.7656 13.547-10.781 27.703-12.703 42.281 9.2812 0.1875 18.562-0.51562 27.75-1.6406 10.359-1.3125 21.656-3.2344 31.547-7.3594 0.09375-0.046875 1.3125-0.60938 1.5-0.65625 0.375-0.1875 0.65625-0.32812 1.0312-0.46875 0.79688-0.42188 1.5938-0.84375 2.3438-1.3125 0.60938-0.375 1.2188-0.75 1.7812-1.2188 0.14062-0.14062 1.0312-0.89062 1.2188-1.125 4.5-4.5 7.9688-10.312 10.875-15.938 3.0938-6.0938 5.3438-12.656 7.0312-19.312 1.5938-6.2812 1.5938-13.688 4.7344-19.5 3.5156-6.4219 10.172-8.3906 16.969-9.1875 5.6719-0.65625 11.062-1.4531 16.453-3.375 10.688-3.8438 19.875-11.203 27.375-19.594zm-17.016-111.75c2.1562-12 4.5-23.953 6.9375-35.906-17.906-5.2031-35.906-9.8438-54.047-14.25-26.062-6.2812-52.219-11.812-78.609-16.594 0 14.531 6.0938 28.594 17.812 37.547 12.047 9.1875 28.219 12.609 42.844 8.5312 5.0625-1.4062 8.9062 4.2188 6.6094 8.625-4.9688 9.4688 3.375 20.531 12.094 24.938 6.2812 3.1875 14.156 3.1875 20.906 2.3438 8.1094-1.0312 16.031-3.6562 23.766-6.1875 0.65625-3 1.125-6.0938 1.6875-9.0938zm-23.062 38.344c6.4688-4.1719 13.031-8.625 16.828-15.562-15.75 4.6875-33.562 8.0156-48.094-0.89062-10.219-6.2344-17.672-17.719-17.062-29.438-7.3125 0.75-14.812 0.1875-21.938-1.7344-18.656-4.9688-34.125-18.562-40.688-36.797-2.625-7.2188-3.7031-15.047-3.375-22.828-15.094-2.9062-30.094-6.0938-45-9.9375-20.438-5.2969-40.594-11.344-60.75-17.531-30.375-9.2344-60.656-18.516-91.031-27.75 11.156 6.375 21.75 13.688 31.688 21.938 22.875 19.031 42.141 43.031 54.562 70.125 6.0938 13.312 10.688 27.234 13.219 41.672 2.5781 14.812 2.7188 29.484 1.4531 44.438-1.4062 16.5-3.9375 34.031 1.0312 50.203 4.1719 13.594 14.25 23.578 26.906 29.625 12.938 6.1875 27.703 8.1562 41.859 8.8125 9.4688 0.42188 19.031 0.1875 28.5-0.42188-0.14062-0.75-0.09375-1.5938 0.14062-2.5312 0.5625-2.3438-0.46875-4.125-2.5781-6.0938-2.4375-2.25-5.625-3.75-8.8125-4.6875-7.3594-2.1094-15.188-2.625-21.844-6.8438-6.9375-4.3125-11.016-11.906-9.6094-20.062 1.3125-7.6406 7.4062-13.922 13.969-17.625 6.7969-3.8438 14.203-5.0156 21.844-4.125 8.3906 0.98438 16.406 3.5625 24.75 5.0625 8.0156 1.4062 15.75 0.5625 23.156-2.8594 8.1094-3.75 15.516-8.9062 23.016-13.688 15.938-10.172 31.969-20.297 47.859-30.516zm-107.16 123.84c1.3125-3 2.625-5.9531 3.9375-8.9062-14.25 1.2188-28.641 1.8281-42.891 0.75-16.547-1.2188-33.609-4.5-48-13.219-13.172-7.9688-22.969-20.438-27-35.344-4.5-16.781-2.2969-34.359-0.84375-51.375 1.2188-14.719 1.2656-29.344-1.5-43.875-2.625-13.969-7.2188-27.562-13.453-40.312-21.234-43.312-59.156-76.781-103.36-95.25 17.719 14.203 33.516 30.75 46.594 49.406 0.14062 0.09375 0.28125 0.1875 0.42188 0.375 19.078 22.453 33.188 48.984 40.031 77.719 2.9531 12.375 4.5938 25.219 4.7344 37.969 0.1875 11.438-1.0312 22.781-2.2031 34.125-2.25 21.328-5.5312 44.062 0.46875 65.062 13.734 48.375 72.328 47.812 112.97 43.125 9.9844-6.75 20.062-13.5 30.094-20.203zm-5.625-242.68c0.375-1.5469 0.75-3.0938 1.2188-4.5938-2.2969 0.70313-4.6875 1.2188-7.0781 1.5938-2.25 0.32813-4.5938 0.46875-6.8438 0.51563 4.2188 0.84375 8.4375 1.6875 12.656 2.4844z"/>
 <path d="m1016.6 263.39c2.0625 9.4219 3.6562 19.312 2.7188 29.016-0.84375 8.25-3.375 16.406-9.2812 22.5-3 3.0938-6.7969 4.7812-10.078 7.4062-0.9375 0.75-1.7812 1.4062-1.5938 2.1562 0.09375 0.46875 1.4062 1.6875 2.1562 2.2031 3.75 2.9062 7.8281 4.6875 10.734 8.6719 3.0938 4.2188 4.0312 9.9375 0.75 14.344-3.2812 4.4531-9.375 5.7188-14.344 7.4062-2.7188 0.9375-5.4375 1.9219-8.1562 2.9062 6.0938 8.8125 7.4062 20.344 4.6406 31.031-3.6094 13.969-14.391 24.469-25.688 32.719-3.0938 2.2031-6.1875 4.3125-9.375 6.2812-1.2656 0.79688-2.5312 1.5938-3.75 2.3906-0.14062 0.09375-0.23438 0.14062-0.375 0.1875 0.046875-0.14062-0.046875-0.28125-0.46875-0.375-0.09375 0 0.09375 0.1875 0.28125 0.46875-0.9375 0.65625-0.23438 0.375 0.046875 0.046875 0.28125 0.375 0.65625 0.75 0.70312 0.75 0.46875 0.42188 1.0312 0.75 1.5938 1.0312 1.2188 0.65625 2.5312 0.98438 3.8438 1.4062 2.7188 0.84375 5.5312 1.8281 7.875 3.4688 6.6562 4.5 7.9688 12.844 3.2812 19.406-4.4531 6.1875-11.859 10.5-18.375 14.25-13.359 7.6875-28.172 12.891-43.406 15.094-3.1406 0.46875-6.2812-0.75-7.2188-4.125-0.75-2.7656 0.9375-6.75 4.125-7.2188 15.469-2.25 30.281-7.4531 43.594-15.703 2.9062-1.7812 5.8594-3.6562 8.5312-5.8125 1.3125-1.0781 4.0781-3.1406 4.0312-5.1562 0-0.89062-2.25-1.7812-3.6562-2.3438-2.8594-1.0781-5.8125-1.6875-8.5312-3.1875-6.1406-3.375-10.828-10.688-6.8438-17.531 1.7344-3 4.6875-4.7812 7.5469-6.5625 2.8125-1.7344 5.5781-3.5156 8.2969-5.3906 9.5625-6.6562 19.359-15.281 22.5-26.953 2.3438-8.7188 1.2656-20.109-6.5625-25.781-4.125-3-3.5625-8.9531 1.4062-10.688 6.0469-2.1562 12.094-4.2188 18.094-6.375 2.2031-0.79688 4.4062-1.5938 6.5625-2.4844-0.1875-0.42188-0.46875-0.84375-0.75-1.2188-2.3438-3-6.4688-4.5-9.375-6.9375-3.375-2.8594-5.7188-6.9375-5.4375-11.484 0.5625-9.2812 9.9375-11.344 15.328-17.062 9.3281-9.9375 5.9062-27.75 3.2812-39.891-1.5938-7.3594 9.6562-10.5 11.297-3.0938z"/>
 <path d="m954.79 432.74s0.09375-0.09375 0.14062-0.09375c0 0.046874-0.046875 0.09375-0.09375 0.14062z"/>
 <path d="m803.29 226.97c0.23438 3.1875-2.8594 5.8594-5.8594 5.8594-3.3281 0-5.625-2.7188-5.8594-5.8594-1.875-26.391-25.219-49.781-51.562-51.656-3.1875-0.23438-5.8594-2.5312-5.8594-5.8594 0-3 2.6719-6.0938 5.8594-5.8594 33.094 2.3438 60.984 30.281 63.281 63.375z"/>
 <path d="m740.44 139.64c1.875 7.3125-9.4688 10.406-11.297 3.0938-3-11.672-13.266-19.969-24.891-22.406-5.3438-1.125-11.156-0.75-16.406 1.5-7.6875 3.2344-13.688 9.5625-19.031 15.75-2.0625 2.4375-6.1875 2.1094-8.25 0-2.3438-2.3438-2.0625-5.8594 0-8.25 6.6094-7.6875 14.156-14.719 23.672-18.562 7.3125-3 15.469-3.2812 23.156-1.6875 15.422 3.2344 29.156 15.094 33.094 30.562z"/>
 <path d="m691.6 315.66c3.8906-6.4688 14.016-0.5625 10.078 5.9062-12.375 20.484-36.375 33.188-60.328 31.312-3.1875-0.23438-5.8594-2.4844-5.8594-5.8594 0-3 2.6719-6.0938 5.8594-5.8594 19.922 1.5469 39.797-8.2969 50.25-25.5z"/>
 <path d="m690.05 285c0.70312 1.5 0.9375 2.9062 0.5625 4.5-0.32812 1.5-1.4062 2.6719-2.6719 3.4688-1.2188 0.84375-3.0938 0.98438-4.5 0.60938-1.3125-0.375-2.9062-1.4531-3.5156-2.6719-2.5312-5.4375-5.0625-10.828-7.5938-16.219-0.70312-1.5-0.9375-2.9062-0.60938-4.5 0.375-1.5 1.4531-2.6719 2.6719-3.4688s3.0938-0.98438 4.5-0.5625c1.3125 0.375 2.9062 1.4062 3.4688 2.6719 2.5781 5.3906 5.0625 10.828 7.5938 16.219z"/>
 <path d="m622.08 306.19c0.70312 1.5 0.9375 2.9062 0.5625 4.5-0.375 1.5-1.4531 2.6719-2.6719 3.4688s-3.0938 0.98438-4.5 0.5625c-1.3125-0.375-2.9062-1.4062-3.4688-2.6719-2.5312-5.3906-5.0625-10.828-7.5938-16.219-0.70312-1.5-0.9375-2.9062-0.5625-4.5 0.375-1.5 1.4531-2.6719 2.6719-3.4688 1.2188-0.84375 3.0938-0.98438 4.5-0.60938 1.3125 0.375 2.9062 1.4531 3.4688 2.6719 2.5312 5.4375 5.0625 10.828 7.5938 16.219z"/>
 <path d="m599.63 135.94c6.4688 3.9375 0.5625 14.062-5.9062 10.078-12.844-7.7812-29.625-3.6562-40.781 5.2969-13.406 10.734-20.766 27.234-26.953 42.797-1.1719 2.9531-3.8906 5.0156-7.2188 4.0781-2.8125-0.75-5.25-4.2656-4.0781-7.2188 7.3594-18.562 16.125-37.641 32.531-49.969 14.719-11.062 36.094-15.047 52.406-5.1094z"/>
 <path d="m499.4 468.1c1.7344 3 0.375 6.0938-2.1094 8.0156-26.531 20.344-69.094 11.531-86.344-16.781-3.9375-6.4688 6.1875-12.375 10.125-5.9062 14.25 23.484 48.891 28.969 70.312 12.609 2.5312-1.9688 6.5625-0.375 8.0156 2.0625z"/>
 <path d="m470.39 548.26c0.32812-0.046874 0.65625-0.09375 0.98438-0.1875 2.2969-0.65625 3.6094-2.3438 3.5625-4.125-0.1875-7.5938 11.531-7.5469 11.719 0 0.28125 9.375-9.0469 16.922-18.188 15.984-4.6406-0.46875-8.0156-2.9062-10.922-6.4688-0.84375-1.0312-1.7344-2.625-3-3.1875-1.5-0.65625-4.3125 0.42187-5.7656 0.75-8.8125 1.8281-17.531 0.46875-25.5-3.6094-13.406-6.8438-22.406-20.438-23.062-35.109-13.688-0.46875-27.938-2.0625-39-10.734-9.2344-7.2656-15.375-19.125-13.312-31.031 0.51562-2.9062 1.7812-5.625 3-8.25 0.89062-1.9688 1.5-4.0312 2.0625-5.9062h-0.14062c-1.3125 0.1875-2.6719 0.1875-3.9844 0.375-3 0.375-6 0.5625-9.0469 0.51563-13.031-0.1875-26.719-4.3125-35.906-13.922-8.7656-9.0938-13.219-22.078-10.031-34.5 1.875-7.3125 13.125-4.2188 11.297 3.0938-2.8594 11.25 3.9844 22.641 13.547 28.219 4.6875 2.7188 9.9844 4.3125 15.375 4.9688 6.0938 0.75 11.812-0.1875 17.859-0.46875 6.6562-0.375 12.938 4.0312 12.938 11.109 0 5.8125-3.5625 10.219-5.1562 15.562-2.5781 8.625 3.5156 17.906 10.594 22.406 10.5 6.6562 23.812 6.7031 35.812 6.9375 4.1719 0.09375 6.1875 3.6562 5.625 7.4062-2.2031 15.141 11.859 30.375 26.531 31.875 4.5938 0.46875 8.6719-0.9375 13.172-1.4062 5.6719-0.65625 10.266 1.5938 13.781 5.9062 1.125 1.4062 2.0625 2.8594 3.5625 3.7031 0-0.046874 0.42188 0.046876 0.75 0.09375 0.32812 0 0.5625-0.046874 0.65625 0zm-116.91-91.969c0.375 0.09375 0.75-0.09375 0 0z"/>
 <path d="m401.44 802.03c2.2031 2.0156 2.3438 6.2812 0 8.2969-11.062 9.2812-24.656 14.625-39.094 15.094-3.2812 0.09375-5.7188-2.8125-5.8594-5.8594-0.046875-0.89062 0.1875-1.6875 0.51562-2.4375 0.65625-2.1094 2.4375-3.8438 5.3438-3.8438 0.70312 0 1.3125 0.09375 1.875 0.28125 2.4375-0.09375 3.8438-0.32812 6.4688-0.89062 2.9062-0.60938 5.7188-1.4062 8.4375-2.4375 1.9688-0.75 4.5-1.9688 7.0781-3.4219 1.3594-0.79688 2.6719-1.6406 3.9375-2.5312 0.5625-0.375 1.1719-0.84375 1.7344-1.2656 0.09375-0.09375 1.125-0.9375 1.2656-1.0312 2.5312-2.1094 5.7656-2.2969 8.25 0z"/>
 <path d="m199.4 960.32c4.3594 2.9062 3.2812 11.531-3 10.922-38.109-3.7969-76.406 5.4844-112.31 17.438-2.8125 0.9375-4.9688-0.28125-6.1875-2.1562-1.5-1.6406-1.9688-4.0312-0.46875-6.4688 21-33 33.469-71.062 34.734-110.2 0.14062-4.6406 6.6094-8.3438 9.9844-4.125 6.9844 8.625 12.281 18.562 14.719 29.438 1.0312 4.5 1.5938 9.1875 1.6406 13.828 0.09375 5.0156-0.75 9.9375-1.3125 14.906-0.79688 6.9375-0.65625 16.969 7.8281 19.172 2.0625 0.5625 4.3125 0.375 6.4688 0.5625 2.5781 0.28125 5.0625 0.5625 7.5938 0.98438 4.6875 0.75 9.2812 1.7812 13.828 3.1875 9.3281 2.8594 18.281 7.0312 26.438 12.469zm-30.516-1.4062c-1.5938-0.46875-3.2344-0.9375-4.875-1.3125-4.7344-1.125-9.6094-1.9688-14.531-2.2969-4.7812-0.375-9.2812-0.65625-13.406-3.4688-8.2969-5.5312-11.484-14.953-10.875-24.609 0.32812-5.1094 1.4062-10.172 1.5938-15.281 0.1875-4.5938-0.1875-9.0938-1.2188-13.594-0.75-3.375-1.7812-6.6562-3.0938-9.7969-3.4688 29.531-12.75 58.219-27.094 84.281 23.812-7.2188 48.562-12.75 73.453-13.922z"/>
</svg>
