<?xml version="1.0" encoding="UTF-8"?>
<svg width="1200pt" height="1200pt" version="1.1" viewBox="0 0 1200 1200" xmlns="http://www.w3.org/2000/svg">
 <path d="m1036 707.81-57.172-42.562-5.0586-14.637h39.562c10.512 0 19.371-7.6055 21.066-18.082l7.8867-48.605c1.0664-6.5781-0.85547-13.172-5.2773-18.082-4.3359-4.8086-10.551-7.3477-16.926-6.9961l-48.82 2.7773c-9.2031 0.47656-16.996 6.8516-19.363 15.777l-1.5156 5.5078-48.715-140.97c-7.8242-22.617-28.863-37.816-52.359-37.816l-498.59 0.007812c-23.52 0-44.578 15.199-52.406 37.816l-48.711 140.96-1.4922-5.418c-2.3906-9.0156-10.191-15.391-19.348-15.859l-48.867-2.7773c-6.4258-0.28125-12.605 2.1914-16.926 7.0039-4.4219 4.918-6.3477 11.508-5.2734 18.078l7.8828 48.605c1.6953 10.477 10.559 18.082 21.07 18.082h39.562l-5.0625 14.648-57.16 42.551c-17.848 13.266-26.625 35.309-22.902 57.539l23.652 140.03c4.8281 28.324 28.773 48.879 56.934 48.879l3.6523-0.011719 9.5859 57.855c2.3789 14.52 14.648 25.055 29.172 25.055h102.4c14.461 0 26.727-10.523 29.168-25.043l9.5547-57.867h389.56l9.5547 57.891c2.4297 14.496 14.703 25.02 29.168 25.02h102.44c14.465 0 26.734-10.523 29.172-25.043l9.5508-57.867h3.6523c28.211 0 52.16-20.566 56.934-48.891l23.648-140c3.7773-22.195-5-44.25-22.887-57.551zm-48.184-13.43-311.74 40.793c0.34375-5.5508-0.28516-11.07-1.9102-16.379l294.62-38.578zm-18.547-112.28c0.375-1.4297 1.5469-2.4297 2.957-2.5039l48.867-2.7773c1.3359-0.12109 2.0625 0.54688 2.5312 1.0664 0.44531 0.49219 1.1484 1.5508 0.89062 3.1523l-7.8867 48.605c-0.27344 1.6875-1.6953 2.9648-3.2969 2.9648h-45.785l-6.7852-19.633zm-653.94-134.28c5.3164-15.367 19.543-25.699 35.391-25.699h498.58c15.828 0 30.035 10.328 35.344 25.699l74.473 215.51-294.32 38.613c-0.69531-0.80078-1.1914-1.6445-1.9648-2.418-17.199-17.203-44.617-18.082-62.848-2.6836-17.746-15-46.191-13.945-62.789 2.6719-0.75391 0.75-1.2656 1.582-1.9531 2.3711l-294.38-38.555zm381.75 391.22h7.2734c10.902 0 21.16 5.8242 26.746 15.176l18.895 31.816h-300l18.922-31.816c5.5586-9.3633 15.777-15.176 26.66-15.176h7.3125c-0.625 2.5898-0.10938 5.3711 1.5547 7.5586 2.1641 2.8242 5.8047 4.1367 9.2539 3.3047l27.199-6.4805 9.0078 26.438c1.1484 3.3633 4.1758 5.7422 7.7305 6.0586 0.26562 0.023437 0.52734 0.035156 0.79297 0.035156 3.2578 0 6.2891-1.7695 7.8828-4.6523l17.789-32.262h31.781l17.801 32.262c1.5938 2.8828 4.6211 4.6523 7.8828 4.6523 0.25781 0 0.52734-0.011719 0.79297-0.035156 3.5508-0.31641 6.5781-2.6953 7.7305-6.0586l9.0078-26.438 27.195 6.4805c3.4609 0.83203 7.0977-0.48047 9.2539-3.3047 1.6445-2.1875 2.1602-4.9688 1.5352-7.5586zm-167.75-11.367 25.008-45.305 26.086 26.051-20.047 36.375-5.0859-14.93c-1.2656-3.7148-4.7383-6.0938-8.5156-6.0938-0.69141 0-1.3945 0.082031-2.0898 0.24609zm125.96-3.6562c-4.4844-1.0312-9.1055 1.4531-10.605 5.8477l-5.0859 14.93-20.039-36.328 26.078-26.086 25.004 45.293zm1.2109-81.457c-1.3828 3.7031-3.5391 7.043-6.3867 9.8906l-50.098 50.098-2.0977-2.0859c-0.003906-0.003906-0.011719-0.007812-0.015625-0.011718l-39.258-39.211c-0.011719-0.011719-0.011719-0.023438-0.023438-0.035156l-8.707-8.7422c-2.9062-2.9062-5.0742-6.2461-6.4805-9.9961-1.2305-3.1992-1.8594-6.6211-1.8594-10.16 0-5.7188 1.6719-11.18 4.918-15.914 0.96094-1.4531 2.0742-2.8008 3.4219-4.1484 10.773-10.758 29.41-10.84 40.348 0.082032l3.4922 3.3984c3.5195 3.4453 9.1602 3.3867 12.633-0.070313l3.4102-3.4102c11.109-11.109 29.203-11.109 40.312 0 1.3594 1.3594 2.4375 2.6719 3.293 4.0312 0.046875 0.074219 0.125 0.10938 0.17578 0.17969 0.007812 0.007812 0.007812 0.019531 0.011718 0.027344 5.1602 7.6094 6.2578 17.324 2.9102 26.078zm-469.86-109.96c-1.6094 0-3.0273-1.2773-3.3047-2.9648l-7.8828-48.609c-0.25781-1.5938 0.44531-2.6523 0.88672-3.1445 0.48047-0.52734 1.2656-1.168 2.5312-1.0664l48.922 2.7773c1.3906 0.070312 2.5312 1.0547 2.9336 2.582l8.4805 30.789-6.7852 19.637zm44.555 47.605 294.39 38.543c-1.3242 4.3398-2.0117 8.8984-2.0117 13.555 0 0.96484 0.19922 1.8906 0.25781 2.8477l-311.66-40.785zm146.7 328.94c-0.97266 5.8008-5.7773 10.008-11.414 10.008h-102.4c-5.668 0-10.465-4.1953-11.414-9.9844l-9.1016-54.926h143.39zm569.45 0.011719c-0.97266 5.7891-5.7695 9.9961-11.414 9.9961h-102.44c-5.6406 0-10.441-4.207-11.41-9.9727l-9.0703-54.938h143.4zm93.793-246.82-23.652 140.02c-3.3047 19.641-19.789 33.891-39.18 33.891h-756.64c-19.359 0-35.84-14.262-39.188-33.891l-23.648-140c-2.6016-15.516 3.4844-30.891 15.887-40.102l16.703-12.434 337.78 44.203c2.1289 4.0234 4.6484 7.8398 7.9648 11.156l3.9258 3.9453-28.664 51.918h-16.859c-17.203 0-33.348 9.1875-42.137 23.977l-27.008 45.41c-1.6523 2.7891-1.6875 6.2461-0.085938 9.0586 1.6016 2.8125 4.5859 4.5469 7.8242 4.5469h331.64c3.2344 0 6.2227-1.7344 7.8242-4.5469 1.6016-2.8125 1.5703-6.2695-0.082031-9.0469l-26.977-45.434c-8.8359-14.777-25.008-23.965-42.215-23.965h-16.816l-28.652-51.906 3.9531-3.9453c3.3047-3.3203 5.8164-7.1406 7.9336-11.164l337.79-44.203 16.688 12.418c12.434 9.2461 18.527 24.609 15.887 40.102z"/>
 <path d="m693.96 662.07h206.26c8.7109 0 16.934-4.2305 21.988-11.332 5.0547-7.0898 6.3828-16.242 3.5391-24.48l-59.465-172.22c-2.6602-7.457-9.5039-12.469-17.035-12.469h-498.58c-7.5938 0-14.43 5.0508-17.016 12.555l-59.395 172.14c-2.8398 8.2266-1.5156 17.379 3.5391 24.469 5.0547 7.1016 13.277 11.332 21.988 11.332h365.64zm5.9219-18c-0.10938-0.66797-0.16016-1.3477-0.14062-2.0625 0.046875-5.1211 4.0078-9.7734 8.9766-10.582 5.8945-0.99609 11.18 2.625 12.496 8.25 0.38281 1.6523 1.2891 3.1641 2.5078 4.3945zm61.188 0h-23.812c1.2266-1.2305 2.1328-2.7656 2.5195-4.418 1.2656-5.4727 6.4453-9.0234 12.176-8.25 4.6562 0.62109 8.6094 4.5938 9.1875 9.3164 0.15234 1.1484 0.12891 2.2734-0.070312 3.3516zm25.48 0h-7.4023c0.12109-1.8594 0.097656-3.7344-0.15234-5.625-1.5664-12.727-11.941-23.191-24.656-24.879-9.1367-1.2656-17.766 1.793-23.918 7.6406-6.3594-5.9648-15.34-9.0234-24.57-7.5586-13.617 2.2266-23.988 14.344-24.117 28.078-0.015625 0.79688 0.25391 1.5547 0.30469 2.3438h-7.6172v-10.57c0-21.684 17.641-39.328 39.332-39.328h6.1992c0.57422 0.019531 1.1523 0.042969 1.7266 0.042969h17.559c0.63672 0 1.2422-0.015625 1.8242-0.042969h6.1445c21.691 0 39.332 17.641 39.332 39.328zm-47.551-121.3c-1.2266-3.6445-4.6367-6.0781-8.4844-6.1016h-0.058593c-3.8203 0-7.2344 2.4453-8.5039 6.0508-0.29688 0.83984-6.9844 18.605-28.125 23.289v-15.273c0-1.0977 0.082031-2.1914 0.12109-2.9414 1.5156-14.207 13.441-24.922 27.738-24.922h17.559c14.285 0 26.18 10.637 27.75 24.777 0.011719 0.09375 0.015625 0.1875 0.027344 0.28125 0.10156 0.92969 0.12891 1.8672 0.12891 2.8008l0.003906 15.281c-21.164-4.6797-27.883-22.453-28.156-23.242zm23.566 40.77c-4.7617 7.2539-12.785 12.117-21.891 12.629h-20.492c-9-0.48828-16.988-5.3477-21.758-12.629 15.66-3.5742 25.852-12.215 32.051-20.082 6.2109 7.8672 16.418 16.512 32.09 20.082zm41.984 80.527v-10.57c0-23.172-13.887-43.066-33.715-52.098 5.2539-5 9.3008-11.203 11.707-18.254 10.199 24.473 19.934 52.332 28.223 80.922zm-418.27 0v-24.234c0-10.742 5.3867-20.211 13.668-25.902l-5.5469 12.551c-1.2109 2.7461-0.98047 5.9141 0.62891 8.4531l18.441 29.133zm81.516-134.31c-0.59766-4.1719-4.0391-7.3047-8.2422-7.6289-4.207-0.40234-8.0859 2.3906-9.3086 6.4258-0.29297 0.96484-7.1758 22.168-42.91 27.555v-19.07c0-15.387 12.52-27.91 27.91-27.91h25.441c15.363 0 27.867 12.52 27.867 27.91v13.555c-17.977-6.7344-20.656-20.273-20.758-20.836zm19.812 39.5c-3.0586 12.086-13.926 21.09-26.926 21.09h-25.441c-11.301 0-20.992-6.6719-25.379-16.453 25.324-3.7812 39.941-14.422 48.086-23.875 5.457 7.3242 14.598 15.047 29.66 19.238zm-74.805 60.105 5.2227-11.812 8.4688 33.441zm35.543 34.562-14.074-55.559 28.188-0.011719zm30.344-46.348 5.1914 11.781-13.664 21.586zm30.914 46.492h-26.387l18.441-29.133c1.6055-2.5312 1.8398-5.7031 0.63281-8.4453l-5.1484-11.691c7.5703 5.7734 12.461 14.879 12.461 25.031zm18 0v-24.234c0-21.461-13.945-39.824-33.219-46.551 7.4844-8.207 12.164-19.059 12.164-31.117v-25.133c0-25.312-20.578-45.91-45.867-45.91h-25.441c-25.312 0-45.91 20.598-45.91 45.91v25.398c0 1.5781 0.066406 3.1016 0.21484 4.5586 1.0117 10.242 5.4258 19.262 11.887 26.332-19.344 6.7773-33.156 24.969-33.156 46.508v24.234h-68.488c-2.9492 0-5.6172-1.3711-7.3281-3.7734-1.7109-2.4023-2.1445-5.3789-1.1836-8.1562l59.395-172.57 498.63 0.42578 59.438 172.13c0.96094 2.7891 0.52734 5.7656-1.1836 8.168s-4.3828 3.7734-7.3281 3.7734h-70.746c-12.711-44.941-28.543-87.328-44.965-120.12-3.3594-22.387-22.371-39.07-45.27-39.07h-17.559c-22.652 0-41.527 16.422-45.16 38.824-16.27 32.461-32.512 75.922-45.078 120.36zm128.82 0h-6.2578c8.2773-28.59 18.02-56.484 28.246-81.012 2.4102 7.0938 6.4648 13.332 11.723 18.348-19.828 9.0312-33.711 28.926-33.711 52.094l0.003906 10.57z"/>
 <path d="m950.64 759.04c-6.0664-4.0312-13.715-4.7461-20.484-1.8867l-67.547 28.898c-8.6914 3.7734-13.91 12.621-12.988 22.043l1.3906 14.227c1.0781 11.18 10.359 19.605 21.59 19.605h66.066c11.953 0 21.68-9.75 21.68-21.727v-43.09c0-7.2891-3.6289-14.051-9.707-18.07zm-8.293 61.16c0 2.0859-1.6172 3.7266-3.6797 3.7266h-66.066c-1.9102 0-3.4922-1.4297-3.6719-3.3516l-1.3906-14.238c-0.16016-1.6055 0.73828-3.1172 2.1914-3.75l67.473-28.875c0.52734-0.22266 1.0195-0.30469 1.4648-0.30469 0.90234 0 1.6172 0.35156 2.0352 0.63281 0.61328 0.41016 1.6445 1.3477 1.6445 3.0703z"/>
 <path d="m337.33 786.04-67.516-28.898c-6.707-2.8477-14.352-2.1328-20.445 1.8867-6.0938 4.0312-9.7266 10.793-9.7266 18.082v43.09c0 11.977 9.7227 21.727 21.672 21.727h66.07c11.234 0 20.516-8.4258 21.59-19.594l1.3906-14.25c0.91016-9.4102-4.3086-18.27-13.035-22.043zm-6.2695 34.547c-0.17969 1.9102-1.7656 3.3398-3.6719 3.3398h-66.07c-2.0273 0-3.6719-1.6758-3.6719-3.7266v-43.09c0-1.7109 1.0391-2.6602 1.6602-3.0703 0.42187-0.28125 1.1367-0.63281 2.0391-0.63281 0.43359 0 0.91016 0.082031 1.4141 0.29297l67.465 28.875c1.4922 0.64453 2.3906 2.1562 2.2344 3.7617z"/>
 <path d="m593.63 287.21c1.7578 1.7578 4.0586 2.6367 6.3633 2.6367 2.3008 0 4.6055-0.87891 6.3633-2.6367l51.105-51.105c8.1211-8.1211 12.59-18.922 12.578-30.402-0.007813-11.461-4.4844-22.227-12.59-30.305-8.0781-8.0977-18.832-12.562-30.281-12.57h-0.042969c-10.008 0-19.492 3.3984-27.137 9.6562-16.867-13.754-41.785-12.777-57.477 2.9219-8.1133 8.1094-12.578 18.879-12.578 30.324 0 11.48 4.4648 22.266 12.578 30.375zm-38.387-99.074c4.8594-4.8594 11.242-7.2891 17.625-7.2891 6.3828 0 12.766 2.4297 17.625 7.2891l3.1367 3.1367c3.5156 3.5156 9.2109 3.5156 12.727 0l3.1367-3.1367c4.7148-4.7109 10.977-7.3047 17.637-7.3047h0.023438c6.6484 0.007812 12.891 2.5977 17.574 7.2969 0.007812 0.007813 0.015625 0.015626 0.023437 0.023438 4.6992 4.6797 7.2891 10.922 7.2969 17.574 0.007813 6.668-2.5898 12.938-7.3047 17.66l-44.754 44.734-44.746-44.742c-4.7109-4.7109-7.3047-10.98-7.3047-17.648 0-6.6328 2.5938-12.883 7.3047-17.594z"/>
 <path d="m344.8 300.5 59.262 41.391c1.5234 1.0664 3.3281 1.6211 5.1562 1.6211 0.52734 0 1.0469-0.046875 1.5781-0.14062 2.3516-0.41797 4.4336-1.7539 5.8047-3.707l41.371-59.25c6.5781-9.4023 9.1016-20.801 7.0977-32.09-1.9961-11.285-8.2773-21.121-17.676-27.699-0.007813-0.007812-0.011719-0.011718-0.015626-0.011718-18.188-12.684-42.891-9.2734-57.094 7.2031-19.016-10.605-43.406-5.2617-56.086 12.953-5.0742 7.2773-7.7539 15.762-7.7539 24.539 0 14.027 6.8672 27.18 18.355 35.191zm4.1602-49.441c4.832-6.9375 12.59-10.652 20.465-10.652 4.9219 0 9.8906 1.4492 14.223 4.4648l3.668 2.5547c1.9688 1.3711 4.4141 1.8906 6.7383 1.4766 2.3555-0.42578 4.4414-1.7695 5.8008-3.7344l2.4961-3.5977c7.875-11.266 23.48-14.027 34.734-6.1953 11.262 7.8906 14.016 23.461 6.1602 34.688l-36.254 51.914-51.891-36.238c-6.6719-4.6523-10.66-12.289-10.66-20.43 0.003907-5.0781 1.5703-10.008 4.5195-14.25z"/>
 <path d="m783.39 339.67c1.3633 1.957 3.4531 3.293 5.8008 3.707 0.52734 0.09375 1.0547 0.14062 1.5781 0.14062 1.8281 0 3.6328-0.55469 5.1562-1.6211l59.25-41.387c11.504-8.0156 18.367-21.188 18.367-35.242 0-8.7852-2.668-17.258-7.7227-24.512-12.715-18.176-37.074-23.508-56.098-12.938-6.4219-7.4883-15.16-12.492-25.016-14.242-11.32-2.0156-22.695 0.49609-32.098 7.043-0.011719 0.007812-0.015625 0.011718-0.023438 0.015624-19.348 13.578-24.102 40.383-10.57 59.805zm-20.477-104.29c11.301-7.8516 26.863-5.0781 34.738 6.2305l2.5547 3.6289c2.8594 4.0586 8.4883 5.0273 12.547 2.1719l3.582-2.5352c11.273-7.8477 26.84-5.0703 34.73 6.1875 2.9297 4.207 4.4766 9.1172 4.4766 14.203 0 8.1719-3.9844 15.828-10.672 20.484l-51.879 36.234-36.234-51.871c-7.8438-11.262-5.082-26.844 6.1562-34.734z"/>
</svg>
