<?xml version="1.0" encoding="UTF-8"?>
<svg width="1200pt" height="1200pt" version="1.1" viewBox="0 0 1200 1200" xmlns="http://www.w3.org/2000/svg">
 <path d="m448.97 700.95c-17.09 0-33.719-3.6016-49.391-10.727-14.953-6.793-28.414-16.465-40.008-28.727-11.473-12.145-20.496-26.184-26.809-41.734-6.5039-16.008-9.8164-32.809-9.8164-49.945 0-21.77 2.7852-52.535 8.2305-91.488 4.3438-31.008 10.414-67.297 18.023-107.83 12.961-68.977 26.062-127.22 26.207-127.8 0.69531-3.1211 3.4805-5.3281 6.6719-5.3281h133.8c3.1914 0 5.9531 2.207 6.6719 5.3281 0.12109 0.57422 13.246 58.824 26.207 127.8 7.6094 40.535 13.68 76.824 18.023 107.83 5.4727 38.953 8.2305 69.719 8.2305 91.488 0 17.113-3.3125 33.91-9.8164 49.945-6.3125 15.551-15.336 29.594-26.809 41.734-11.594 12.289-25.055 21.961-40.031 28.727-15.668 7.1016-32.277 10.727-49.387 10.727zm-61.418-449.93c-3.5039 15.887-14.281 65.305-24.938 122.04-17.039 90.695-26.039 158.73-26.039 196.75 0 63.672 51.457 117.48 112.39 117.48 60.91 0 112.39-53.809 112.39-117.48 0-38.016-9-106.08-26.039-196.8-10.656-56.711-21.406-106.11-24.91-121.99z"/>
 <path d="m550.18 993.91h-202.85c-7.6328 0-13.922-5.2305-15.312-12.742s2.6406-14.641 9.7695-17.375l81.672-31.176c0.88672-0.33594 1.4648-1.1992 1.4648-2.1367v-237.24c0-3.7695 3.0469-6.8398 6.8398-6.8398s6.8398 3.0469 6.8398 6.8398v237.24c0 6.5742-4.1289 12.551-10.246 14.879l-81.695 31.199c-0.35938 0.14453-1.4883 0.57422-1.1992 2.1367 0.28906 1.5586 1.4883 1.5586 1.8711 1.5586h202.85c0.38281 0 1.5859 0 1.8711-1.5586 0.28906-1.5586-0.83984-1.9922-1.1992-2.1367l-82.465-31.199c-6.168-2.3281-10.297-8.3281-10.297-14.902v-237.21c0-3.7695 3.0469-6.8398 6.8398-6.8398 3.7695 0 6.8398 3.0469 6.8398 6.8398v237.21c0 0.9375 0.60156 1.8008 1.4648 2.1367l82.465 31.176c7.1523 2.7109 11.184 9.8398 9.8164 17.352-1.3945 7.5352-7.6836 12.789-15.34 12.789z"/>
 <path d="m512.95 535.49c-29.711 0-51.336-11.953-72.48-23.664-28.246-15.625-54.938-30.383-101.88-18.672-3.6719 0.91016-7.3672-1.3203-8.2812-4.9688-0.91016-3.6719 1.3203-7.3672 4.9688-8.2812 23.352-5.832 44.52-6.0977 64.754-0.83984 17.809 4.6328 32.688 12.863 47.062 20.832 30.793 17.039 59.879 33.121 115.22 11.352 3.5039-1.3906 7.4648 0.33594 8.8555 3.8633 1.3906 3.5039-0.33594 7.4648-3.8633 8.8555-21.047 8.2578-38.809 11.523-54.359 11.523z"/>
 <path d="m478.01 654.05c-20.977 0-38.039-17.062-38.039-38.039 0-20.977 17.062-38.039 38.039-38.039 20.977 0 38.039 17.062 38.039 38.039 0 20.977-17.062 38.039-38.039 38.039zm0-62.422c-13.441 0-24.383 10.945-24.383 24.383 0 13.441 10.945 24.383 24.383 24.383 13.441 0 24.383-10.945 24.383-24.383 0-13.441-10.941-24.383-24.383-24.383z"/>
 <path d="m494.4 489.29c-15.312 0-27.77-12.457-27.77-27.77s12.457-27.77 27.77-27.77 27.77 12.457 27.77 27.77-12.457 27.77-27.77 27.77zm0-41.883c-7.7773 0-14.113 6.3359-14.113 14.113 0 7.7773 6.3359 14.113 14.113 14.113 7.7773 0 14.113-6.3359 14.113-14.113 0-7.7773-6.3359-14.113-14.113-14.113z"/>
 <path d="m387.77 574.05c-15.312 0-27.77-12.457-27.77-27.77s12.457-27.77 27.77-27.77 27.77 12.457 27.77 27.77c-0.003906 15.316-12.461 27.77-27.77 27.77zm0-41.879c-7.7773 0-14.113 6.3359-14.113 14.113 0 7.7773 6.3359 14.113 14.113 14.113 7.7773 0 14.113-6.3359 14.113-14.113-0.003906-7.7773-6.3164-14.113-14.113-14.113z"/>
 <path d="m262.11 560.02c-15.312 0-27.77-12.457-27.77-27.77s12.457-27.77 27.77-27.77 27.77 12.457 27.77 27.77c-0.003906 15.312-12.461 27.77-27.77 27.77zm0-41.879c-7.7773 0-14.113 6.3359-14.113 14.113s6.3359 14.113 14.113 14.113c7.7773 0 14.113-6.3359 14.113-14.113-0.003906-7.7773-6.3398-14.113-14.113-14.113z"/>
 <path d="m329.62 669.7c-17.09 0-33.719-3.6016-49.391-10.727-14.953-6.793-28.414-16.465-40.008-28.727-11.473-12.145-20.496-26.184-26.809-41.734-6.5039-16.008-9.8164-32.809-9.8164-49.945 0-21.77 2.7852-52.535 8.2305-91.488 4.3438-31.008 10.414-67.297 18.023-107.83 12.961-68.977 26.062-127.22 26.207-127.8 0.69531-3.1211 3.4805-5.3281 6.6719-5.3281h133.8c3.1914 0 5.9531 2.207 6.6719 5.3281 0.023437 0.12109 2.7344 12.098 6.8398 31.32 0.79297 3.6953-1.5586 7.3203-5.2578 8.1133-3.6953 0.79297-7.3203-1.5586-8.1133-5.2578-2.4727-11.617-4.4414-20.566-5.6172-25.824h-122.86c-3.5039 15.887-14.281 65.305-24.938 122.02-17.039 90.695-26.039 158.73-26.039 196.75 0 63.672 51.457 117.48 112.39 117.48 11.281 0 22.414-1.8008 33.121-5.3281 3.5742-1.1758 7.4414 0.76953 8.6406 4.3438 1.1758 3.5742-0.76953 7.4414-4.3438 8.6406-12.066 3.957-24.668 5.9961-37.41 5.9961z"/>
 <path d="m428.95 943.87c-0.79297 0-1.6094-0.14453-2.4258-0.43359l-77.473-29.305c-6.168-2.3281-10.297-8.3281-10.297-14.902v-237.21c0-3.7695 3.0469-6.8398 6.8398-6.8398 3.793 0 6.8398 3.0469 6.8398 6.8398v237.21c0 0.9375 0.60156 1.8008 1.4648 2.1367l77.473 29.305c3.5273 1.3438 5.3047 5.2812 3.9844 8.8086-1.0547 2.7109-3.6484 4.3906-6.4062 4.3906z"/>
 <path d="m316.63 962.66h-88.633c-7.6328 0-13.922-5.2305-15.312-12.742s2.6406-14.641 9.7695-17.375l81.672-31.176c0.88672-0.33594 1.4648-1.1992 1.4648-2.1367v-237.24c0-3.7695 3.0469-6.8398 6.8398-6.8398 3.793 0 6.8398 3.0469 6.8398 6.8398v237.24c0 6.5742-4.1289 12.551-10.246 14.879l-81.672 31.176c-0.35938 0.14453-1.4883 0.57422-1.1992 2.1367 0.28906 1.5586 1.4883 1.5586 1.8711 1.5586h88.656c3.7695 0 6.8398 3.0469 6.8398 6.8398-0.003907 3.793-3.125 6.8398-6.8906 6.8398z"/>
 <path d="m354.12 388.18c-0.88672 0-1.7773-0.16797-2.6406-0.52734-9.4336-3.9609-18.07-9.0469-26.426-13.969-23.953-14.09-46.586-27.406-88.633-16.922-3.6719 0.91016-7.3672-1.3203-8.2812-4.9688-0.91016-3.6484 1.3203-7.3672 4.9688-8.2812 21.238-5.3047 40.199-5.5195 58.031-0.67187 15.695 4.2734 28.488 11.785 40.848 19.078 8.3281 4.8945 16.199 9.5273 24.77 13.129 3.4805 1.4648 5.1133 5.4727 3.6484 8.9531-1.0781 2.5977-3.6211 4.1797-6.2852 4.1797z"/>
 <path d="m613.75 489.29h-53.281c-3.7695 0-6.8398-3.0469-6.8398-6.8398s3.0469-6.8398 6.8398-6.8398h53.281c3.7695 0 6.8398 3.0469 6.8398 6.8398 0 3.7891-3.0742 6.8398-6.8398 6.8398z"/>
 <path d="m705.7 489.29h-55.895c-3.7695 0-6.8398-3.0469-6.8398-6.8398s3.0469-6.8398 6.8398-6.8398h55.895c3.7695 0 6.8398 3.0469 6.8398 6.8398 0 3.7891-3.0703 6.8398-6.8398 6.8398z"/>
 <path d="m797.64 489.29h-55.895c-3.7695 0-6.8398-3.0469-6.8398-6.8398s3.0469-6.8398 6.8398-6.8398h55.895c3.7695 0 6.8398 3.0469 6.8398 6.8398 0 3.7891-3.0469 6.8398-6.8398 6.8398z"/>
 <path d="m912.17 993.91h-361.99c-3.7695 0-6.8398-3.0469-6.8398-6.8398 0-3.793 3.0469-6.8398 6.8398-6.8398h361.99c38.93 0 70.586-31.656 70.586-70.586v-349.77c0-38.93-31.656-70.586-70.586-70.586h-78.457c-3.7695 0-6.8398-3.0469-6.8398-6.8398 0-3.793 3.0469-6.8398 6.8398-6.8398h78.457c11.375 0 22.391 2.2305 32.785 6.625 10.031 4.2461 19.031 10.32 26.785 18.047 7.7266 7.7266 13.801 16.754 18.047 26.785 4.3906 10.391 6.625 21.434 6.625 32.785v349.78c0 11.375-2.2305 22.391-6.625 32.785-4.2461 10.031-10.32 19.031-18.047 26.785-7.7266 7.7266-16.754 13.801-26.785 18.047-10.367 4.4375-21.41 6.668-32.785 6.668z"/>
 <path d="m989.59 608.5h-425.81c-3.7695 0-6.8398-3.0469-6.8398-6.8398s3.0469-6.8398 6.8398-6.8398h425.81c3.7695 0 6.8398 3.0469 6.8398 6.8398s-3.0742 6.8398-6.8398 6.8398z"/>
 <path d="m723.72 937.7c-1.1523 0-2.3281-0.28906-3.3594-0.88672-29.258-16.609-65.039-49.152-93.383-84.961-16.055-20.305-29.137-40.754-38.855-60.77-11.039-22.727-17.473-44.398-19.105-64.441-0.91016-11.184 0.40625-22.922 3.8633-33.961 3.6953-11.832 9.7695-22.559 17.543-31.008 13.609-14.785 32.137-22.586 53.566-22.586 9.7422 0 19.754 2.2578 29.734 6.6953 9.1445 4.0547 17.879 9.7695 25.969 16.945 7.6797 6.8398 14.543 14.855 19.801 23.23 1.5586 2.4961 2.9766 4.9922 4.2461 7.4883 1.2734-2.4961 2.6875-4.9922 4.2461-7.4883 5.2578-8.375 12.121-16.414 19.801-23.23 8.0898-7.1758 16.824-12.887 25.969-16.945 9.9844-4.4414 19.992-6.6953 29.734-6.6953 21.434 0 39.938 7.8008 53.566 22.586 7.8008 8.4492 13.848 19.176 17.543 31.008 3.4336 11.039 4.7773 22.777 3.8633 33.961-1.6328 20.016-8.0625 41.711-19.105 64.441-9.7188 20.039-22.801 40.488-38.855 60.77-28.344 35.809-64.105 68.352-93.383 84.961-1.0703 0.59766-2.2227 0.88672-3.3984 0.88672zm-79.727-284.95c-17.762 0-32.398 6.1211-43.512 18.168-12.648 13.703-19.465 34.633-17.832 54.602 2.832 34.727 22.391 76.586 55.055 117.84 26.23 33.145 58.848 63.266 86.039 79.586 27.191-16.32 59.809-46.465 86.039-79.586 32.664-41.281 52.223-83.137 55.055-117.84 1.6328-19.969-5.207-40.871-17.832-54.602-11.113-12.07-25.754-18.168-43.512-18.168-15.191 0-32.184 7.3672-46.633 20.184-13.68 12.168-23.566 27.863-26.426 41.977-0.64844 3.1914-3.457 5.4727-6.6953 5.4727s-6.0469-2.2812-6.6953-5.4727c-2.8555-14.137-12.742-29.832-26.426-41.977-14.441-12.816-31.434-20.184-46.625-20.184z"/>
 <path d="m786.14 833.06c-1.4648 0-2.9297-0.45703-4.1758-1.4141-2.9766-2.3047-3.5508-6.6016-1.2461-9.5742 18.602-24.098 43.586-59.832 45.984-91.512 0.83984-11.016-1.6562-22.633-6.8398-31.871-1.8477-3.2891-0.67188-7.4648 2.6172-9.2891 3.2891-1.8242 7.4648-0.67188 9.2891 2.6172 6.457 11.52 9.5742 25.945 8.543 39.574-1.1758 15.625-6.793 32.496-17.137 51.625-7.6797 14.184-17.762 29.207-31.656 47.23-1.3008 1.7031-3.3398 2.6133-5.3789 2.6133z"/>
 <path d="m732.65 547.22h-17.855c-8.7852 0-15.938-7.1523-15.938-15.938v-97.605c0-8.7852 7.1523-15.938 15.938-15.938h17.855c8.7852 0 15.938 7.1523 15.938 15.938v97.609c0.023437 8.7812-7.1289 15.934-15.938 15.934zm-17.832-115.85c-1.2461 0-2.2812 1.0312-2.2812 2.2812v97.609c0 1.2461 1.0312 2.2812 2.2812 2.2812h17.855c1.2461 0 2.2812-1.0312 2.2812-2.2812v-97.609c0-1.2461-1.0312-2.2812-2.2812-2.2812z"/>
 <path d="m824.62 547.22h-17.855c-8.7852 0-15.938-7.1523-15.938-15.938v-97.605c0-8.7852 7.1523-15.938 15.938-15.938h17.855c8.7852 0 15.938 7.1523 15.938 15.938v97.609c-0.003907 8.7812-7.1562 15.934-15.938 15.934zm-17.855-115.85c-1.2461 0-2.2812 1.0312-2.2812 2.2812v97.609c0 1.2461 1.0312 2.2812 2.2812 2.2812h17.855c1.2461 0 2.2812-1.0312 2.2812-2.2812v-97.609c0-1.2461-1.0312-2.2812-2.2812-2.2812z"/>
 <path d="m640.7 547.22h-17.855c-8.7852 0-15.938-7.1523-15.938-15.938v-97.605c0-8.7852 7.1523-15.938 15.938-15.938h17.855c8.7852 0 15.938 7.1523 15.938 15.938v97.609c0 8.7812-7.1523 15.934-15.938 15.934zm-17.855-115.85c-1.2461 0-2.2812 1.0312-2.2812 2.2812v97.609c0 1.2461 1.0312 2.2812 2.2812 2.2812h17.855c1.2461 0 2.2812-1.0312 2.2812-2.2812v-97.609c0-1.2461-1.0312-2.2812-2.2812-2.2812z"/>
 <path d="m661.18 372.38c-7.5352 0-15.098-1.1523-22.488-3.457-19.176-5.9766-34.871-19.078-44.207-36.863-9.3359-17.785-11.184-38.16-5.1836-57.336 5.9766-19.176 19.078-34.871 36.863-44.207 17.785-9.3359 38.16-11.184 57.336-5.1836 3.6016 1.1289 5.6172 4.9453 4.4883 8.543-1.1289 3.6016-4.9453 5.6172-8.543 4.4883-32.398-10.105-66.984 8.0391-77.09 40.414-10.105 32.398 8.0391 66.984 40.414 77.09 6.0469 1.8945 12.238 2.832 18.406 2.832 9.8164 0 19.559-2.375 28.512-7.0781 14.566-7.6328 25.273-20.473 30.168-36.168 5.0898-16.273 3.2891-33.434-5.0156-48.336-1.8477-3.2891-0.64844-7.4648 2.6406-9.2891 3.2891-1.8477 7.4648-0.64844 9.2891 2.6406 4.9219 8.8086 7.9922 18.359 9.0977 28.344 1.1523 10.344 0.14453 20.688-2.9766 30.695-5.9766 19.176-19.078 34.871-36.863 44.207-10.945 5.7617-22.848 8.6641-34.848 8.6641z"/>
 <path d="m770.57 388.18c-18.238 0-36.336-5.4961-51.816-16.176-3.0977-2.1367-3.8867-6.4062-1.7266-9.5039 2.1367-3.0977 6.4062-3.8867 9.5039-1.7266 21.121 14.594 48.023 17.809 71.953 8.543 39.793-15.383 59.641-60.266 44.258-100.05-7.4648-19.273-21.961-34.488-40.871-42.863-18.887-8.3516-39.938-8.8555-59.207-1.4141-39.793 15.383-59.641 60.266-44.258 100.05 1.3672 3.5273-0.38281 7.4648-3.9102 8.832-3.5273 1.3672-7.4648-0.38281-8.832-3.9102-4.4414-11.449-6.4805-23.449-6.0977-35.641 0.35938-11.762 2.9766-23.207 7.7539-34.031 4.7773-10.824 11.496-20.449 19.945-28.633 8.7617-8.4727 19.008-15.023 30.48-19.465 11.473-4.4414 23.449-6.4805 35.641-6.0977 11.762 0.35938 23.207 2.9766 34.031 7.7539 10.801 4.7773 20.449 11.496 28.633 19.945 8.4727 8.7617 15.023 19.008 19.465 30.48 4.4414 11.473 6.4805 23.449 6.0977 35.641-0.35938 11.762-2.9766 23.207-7.7539 34.031-4.7773 10.801-11.496 20.449-19.945 28.633-8.7617 8.4727-19.008 15.023-30.48 19.465-10.688 4.1211-21.797 6.1367-32.863 6.1367z"/>
</svg>
