<?xml version="1.0" encoding="UTF-8"?>
<svg width="1200pt" height="1200pt" version="1.1" viewBox="0 0 1200 1200" xmlns="http://www.w3.org/2000/svg">
 <path d="m232.74 983.72c5.625 1.9219 11.438 2.9062 17.203 2.9062 19.547 0 22.359-6.6562 125.11-52.359 107.34 140.48 292.03 170.21 432.56 93.047 48.188-26.391 89.531-64.547 130.74-101.62 10.922 59.578 37.453 95.016 79.031 105.38 140.68 34.312 130.13-211.78-8.625-167.53-23.672 7.5938-43.5 22.5-61.688 38.203-11.953-115.64 33.141-174 37.969-187.08 29.953-20.016 122.9-80.906 122.9-104.86 1.8281-107.67-30.281-224.39-101.02-367.22-8.1562-16.734-34.734-14.438-38.578-14.484-24.844-0.375-50.156 2.4844-87.234 6.9375-7.6875-14.859-30.891-19.219-38.016-27.656-9.8906-11.672-13.312-27.281-24.891-39.984-30.844-34.312-78.703-45.656-118.97-28.266-48.328 20.953-119.48 52.359-160.18 80.906-102.84 70.922-71.625 144.61-74.766 177.66-1.3594 14.391-12.234 30.281 3.8438 40.828 19.781 12.938 93.328-15.891 107.62-28.031 9.7969-8.25 15.094-18.984 14.531-29.484-0.60938-12.984-8.1094-20.766-11.953-31.125-11.344-29.578 21.328-61.875 49.547-75.281 27.516-13.266 67.172-31.594 91.547-41.438 18.328-2.25 25.453 10.781 31.406 27.984-30.094 12.469-89.391 40.594-150.71 74.25-6.9844 3.8438-1.125 14.297 5.7656 10.5 94.406-51.844 139.97-69.234 148.82-73.359 10.5 30.234 24.703 41.109 60.234 26.391 24.891-4.2656 66.328-26.297 68.297-52.031 16.172-1.9219 53.297-6.1406 69.656-6.6562-25.172 15.281-334.08 201.56-342.89 209.81-20.156-7.3594-136.6-2.6719-229.6 32.531 12.188-8.4375 41.016-26.812 53.625-34.828 6.6562-4.2656 0.23438-14.391-6.4688-10.078-42.188 26.953-64.594 40.594-82.078 57.656-12.703 12.281-7.9688 42.797-6.3281 60-7.2188 5.2031-13.969 11.344-21.656 21.047-10.453-2.7656-21.609-2.2031-31.922 2.0156l-156.47 64.125c-13.734 5.625-24.375 16.875-29.156 30.891-37.875 112.45 10.875 269.06 132.74 310.31zm779.63-108.75c117.94-37.828 128.44 173.86 7.8281 144.42-38.719-9.7031-62.062-43.5-71.344-103.31 18.891-16.734 39.328-33.328 63.516-41.109zm-141.24-626.53c-2.5781 11.391-21 24.141-31.5 29.297-59.438 30.422-55.641-14.25-70.594-43.406-14.859-28.875-39.094-18.656-58.547-10.5-27.703 11.719-56.391 24.797-87.75 39.938-34.688 16.5-69.516 54.141-55.594 90.328 5.4375 14.766 21.75 29.719 0.89062 47.25-11.062 9.4219-61.969 31.547-78.656 20.625-7.8281-5.1562-6.6562-11.297-3.75-22.594 12.328-47.203-29.578-107.53 60.281-169.45 40.781-28.5 111.98-59.766 158.11-79.734 36.984-15.938 78.094-4.9219 105.33 25.312 9.5156 10.406 14.297 27.469 24.609 39.656 11.531 13.734 41.156 16.078 37.172 33.281zm64.922 663.05c-42.188 38.016-85.266 78.516-134.26 105.33-135.71 74.484-311.9 45.516-415.55-87.703 24.328-12.281 33.609-12.516 45.188-25.922 0.51562 1.125 0.98438 2.2969 1.5469 3.4219 3.3281 7.0312 10.219 12.047 17.906 12.891 65.953 8.0156 184.26-9.1875 261.89-35.625 49.875-15.609 154.22-90.422 193.97-118.64 19.266-12.047 38.438-24.328 56.859-36.375-28.875 58.453-35.625 119.39-27.562 182.63zm-583.87-393.24c0.28125-6.2344 3.75-11.766 9.2344-14.438 85.406-42.094 231.14-51.141 247.69-41.016 3.0938 1.5469 5.8125 4.875 7.125 8.0156 19.219 49.312 35.766 98.672 49.172 146.72 2.1562 7.6875 13.688 4.4531 11.578-3.2344-13.547-48.422-30.234-98.156-49.594-147.94-1.9219-4.5938-3.5625-6.4688-6.4688-9.375 115.88-73.125 237.28-146.06 358.26-210.42 4.6875-2.8125 7.0312-4.2188 10.875-3.3281 4.125 4.2656 7.4531 11.672 9.7031 16.734 44.906 99.844 98.672 205.55 96.188 349.78 0 32.906-316.45 220.64-368.76 244.97-25.453-141.37-28.5-153-28.828-154.64-1.5469-7.7812-13.312-5.4375-11.766 2.3438 9.7969 46.828 17.578 90.469 23.672 142.92 0.9375 8.4375-4.5469 16.078-12.188 18-65.859 18.141-154.92 27.469-219.52 24.422 85.359-33.797 108.7-126.94 84.234-214.26-33.516-119.58-133.18-166.64-210.71-125.95-0.28125-8.625-0.42188-9.375 0.09375-29.297zm181.82 165.19c24.375 87-4.2656 199.08-91.266 198.79 2.7656-9.4688 4.9219-19.688 6.4688-30.562 12.281-7.7812 38.625-26.203 42.141-40.453 2.8125-10.781 4.8281-22.734 5.8594-35.484 0.70312-8.0156-11.297-8.7656-11.953-0.98438-1.0312 12.094-2.8594 23.344-5.5312 33.516-2.1094 8.5312-21.938 22.781-29.109 27.844 6.1406-90.234-38.297-187.31-97.125-237.71 27.984-13.594 47.812-16.781 57.422-8.8125 34.734 28.688 59.766 75.422 67.734 112.92 1.6875 7.7812 13.406 5.2969 11.719-2.5312-8.8125-40.922-35.391-89.531-71.859-119.67-14.531-12-39.188-8.7188-75.234 9.7031-3.8438-2.9531-7.6875-5.9062-11.578-8.25-0.75-0.46875-1.5469-0.60938-2.2969-0.98438 61.219-71.719 170.95-17.484 204.61 102.66zm-422.63-6.1875c3.6562-10.734 11.812-19.359 22.359-23.672 164.63-66.375 157.82-67.031 171.28-67.031 47.766 0 149.02 129.66 132.74 260.86-3.0469 23.578-6.5625 48-28.172 57.75l-142.92 65.766c-9.4219 4.3594-20.062 4.8281-30.047 1.4531-115.45-39.094-161.34-188.06-125.26-295.13z"/>
 <path d="m759.52 647.86c8.3438 22.594 33.797 32.484 53.531 20.906 14.484-5.5312 17.203-7.0312 18.891-8.0156 106.83-61.5 159.1-91.594 156.98-90.375 18.609-10.734 26.438-33.797 18.281-53.672l-27.562-65.953c-3.0938-7.3125-14.109-2.6719-11.062 4.6406l27.516 65.906c5.9062 14.344 0.23438 30.984-13.172 38.719-19.125 11.062-81.938 47.156-156.94 90.375-16.5 9.5156-37.688 1.9688-44.25-15.797l-39.328-104.95c-5.4844-14.578 0.79688-30.938 14.578-38.109l135.47-71.203c6.8906-3.6094 1.6875-14.156-5.4375-10.641-5.0156-0.70312-72.516 37.406-151.36 79.922-16.406 8.8594-23.766 29.297-16.922 47.531z"/>
 <path d="m278.02 941.53c40.547-16.922 55.125-83.719 33.938-155.34-18-65.297-73.266-141.56-137.29-120.05-45.188 15.047-61.266 88.688-35.812 164.34 32.766 98.297 106.22 127.03 139.18 111.05zm-129.47-213c19.734-101.2 120.74-50.297 151.87 60.938 14.625 49.5 14.766 127.22-29.812 142.08-61.781 20.672-140.81-106.78-122.06-203.02z"/>
 <path d="m229.13 854.86c0.79688-34.031 5.7188-68.016 14.578-100.92 2.0625-7.6875-9.5156-10.734-11.578-3.1406-9.0938 33.844-14.156 68.766-15 103.78-0.1875 8.0156 11.812 8.2969 12 0.28125z"/>
 <path d="m210.19 750.84c3.5156-7.125-7.2188-12.422-10.734-5.3438-10.266 20.672-14.625 43.734-12.516 66.703 0.70312 7.9219 12.656 6.8906 11.953-1.0781-1.875-20.484 2.1562-41.859 11.297-60.281z"/>
 <path d="m130.6 583.18c3.3281 7.1719 14.203 2.1562 10.875-5.0625-30.703-66.375-43.031-76.641-46.641-90.047 21.234 2.625 77.016 13.406 85.453 19.172 2.4375 5.8125 11.391 4.4531 11.531-2.25 0.46875-26.484 5.0156-53.016 13.594-78.938 15.328 14.062 29.484 29.156 42.281 44.906 3.0938 3.8438 9.375 2.4844 10.5-2.3906 3.75-15.984 11.344-31.406 22.266-45.188l10.312 95.25c0.84375 7.875 12.797 6.6094 11.953-1.3125-13.266-109.97-9-111.52-15.797-113.86-10.875-3.6562-32.156 36.328-37.172 51.141-13.125-15.375-27.562-30-43.031-43.594-3.1875-2.8125-8.1562-1.5-9.6094 2.4375-9.6562 26.391-15.328 53.484-16.875 80.625-24.984-9.75-86.719-18.656-91.922-18.703-3.4219 0.28125-5.6719 2.2969-6 5.3438-2.0625 18.609 11.438 22.875 48.281 102.47z"/>
 <path d="m792.56 504.42c17.016 28.031 29.438 58.406 37.031 90.281 1.8281 7.7344 13.5 4.9688 11.672-2.7656-7.875-33.094-20.766-64.641-38.438-93.75-4.125-6.7969-14.344-0.51562-10.266 6.2344z"/>
 <path d="m854.63 500.86c12.797 21.047 22.125 43.875 27.797 67.828 1.8281 7.7344 13.5 4.9688 11.672-2.7656-5.9531-25.172-15.797-49.172-29.25-71.297-4.125-6.7969-14.344-0.51562-10.219 6.2344z"/>
 <path d="m928.31 542.95c1.8281 7.7344 13.5 5.0156 11.672-2.7656-2.8594-12-7.5-23.391-13.922-33.938-4.125-6.7969-14.391-0.51562-10.266 6.2344 5.7656 9.4688 9.9844 19.734 12.516 30.469z"/>
</svg>
