<?xml version="1.0" encoding="UTF-8"?>
<svg width="1200pt" height="1200pt" version="1.1" viewBox="0 0 1200 1200" xmlns="http://www.w3.org/2000/svg">
 <path d="m149.81 262.17h-37.453c-14.898 0-29.191 5.918-39.727 16.457-10.535 10.535-16.453 24.824-16.453 39.723v561.8c0 14.898 5.918 29.191 16.453 39.727 10.535 10.535 24.828 16.453 39.727 16.453h973.79c14.898 0 29.188-5.918 39.727-16.453 10.535-10.535 16.453-24.828 16.453-39.727v-561.8c0-14.898-5.918-29.188-16.453-39.723-10.539-10.539-24.828-16.457-39.727-16.457h-104.6l-31.969-31.969c-3.5156-3.5117-8.2773-5.4844-13.246-5.4844h-524.34c-4.9648 0-9.7305 1.9727-13.246 5.4844l-31.969 31.969h-67.145v-37.453c0-10.34-8.3867-18.727-18.727-18.727h-112.36c-10.34 0-18.727 8.3867-18.727 18.727v37.453zm131.12 37.457h-168.57c-4.9648 0-9.7305 1.9727-13.242 5.4844-3.5156 3.5117-5.4883 8.2734-5.4883 13.242v561.8c0 4.9648 1.9727 9.7305 5.4883 13.246 3.5117 3.5117 8.2734 5.4844 13.242 5.4844h168.54c9.9336 0 19.461-3.9453 26.484-10.973 7.0195-7.0234 10.965-16.547 10.965-26.48v-524.38c0-9.9219-3.9414-19.441-10.957-26.457s-16.535-10.957-26.457-10.957zm393.22 56.18c-134.36 0-243.45 109.08-243.45 243.44 0 134.36 109.09 243.45 243.45 243.45s243.45-109.08 243.45-243.45c0-134.36-109.09-243.44-243.45-243.44zm0 37.453c113.69 0 205.99 92.301 205.99 205.99s-92.301 206-205.99 206-205.99-92.305-205.99-206 92.301-205.99 205.99-205.99zm0 72.602c73.617 0 133.39 59.77 133.39 133.39s-59.77 133.39-133.39 133.39c-73.617 0-133.39-59.766-133.39-133.39 0-73.617 59.77-133.39 133.39-133.39zm7.0938 88.84-7.0938 7.0938-7.0938-7.0938c-15.504-15.504-40.68-15.504-56.184 0-15.5 15.5-15.5 40.68 0 56.18l63.277 63.277 63.277-63.277c15.5-15.5 15.5-40.68 0-56.18-15.504-15.504-40.68-15.504-56.184 0zm320.62-217.62c-36.176 0-65.547 29.371-65.547 65.543 0 36.176 29.371 65.547 65.547 65.547 36.172 0 65.543-29.371 65.543-65.547 0-36.172-29.371-65.543-65.543-65.543zm0 37.453c15.5 0 28.09 12.59 28.09 28.09 0 15.504-12.59 28.09-28.09 28.09-15.504 0-28.09-12.586-28.09-28.09 0-15.5 12.586-28.09 28.09-28.09zm-814.61-112.36h74.902v-18.723h-74.902z" fill-rule="evenodd"/>
</svg>
