<?xml version="1.0" encoding="UTF-8"?>
<svg width="1200pt" height="1200pt" version="1.1" viewBox="0 0 1200 1200" xmlns="http://www.w3.org/2000/svg">
 <path d="m559.26 593.11c-3.6094 0-7.2188-1.3594-9.9375-4.125-29.484-29.484-59.109-49.641-85.266-67.406-46.828-31.828-87.281-59.344-87.281-120.56 0-54.188 44.109-98.297 98.25-98.297 41.297 0 65.25 18.656 84.234 48.422 18.938-29.766 42.938-48.422 84.234-48.422 54.188 0 98.25 44.109 98.25 98.297 0 61.219-40.453 88.734-87.281 120.56-26.156 17.766-55.781 37.922-85.266 67.406-2.7656 2.7656-6.375 4.125-9.9375 4.125zm-84.234-262.26c-38.672 0-70.172 31.453-70.172 70.172 0 46.359 29.812 66.609 74.953 97.312 24.281 16.5 51.469 35.016 79.406 61.172 27.891-26.156 55.078-44.625 79.406-61.172 45.141-30.703 74.953-51 74.953-97.312 0-38.672-31.453-70.172-70.125-70.172-32.859 0-50.953 13.969-71.625 55.406-2.3906 4.7812-7.2656 7.7812-12.562 7.7812-5.3438 0-10.219-3-12.562-7.7812-20.719-41.391-38.766-55.406-71.625-55.406z" fill-rule="evenodd"/>
 <path d="m727.22 406.26c-1.7344 0-3.4688-0.32812-5.1562-0.98438-4.875-1.9219-8.2969-6.4219-8.8594-11.625-3.75-35.812-33.703-62.766-69.75-62.766-5.9531 0-11.531 0.51562-16.547 1.4531-7.3125 1.4531-14.438-3.0938-16.266-10.266-1.4531-5.5781-2.2031-11.578-2.2031-17.906 0-33.469 27.234-60.703 60.703-60.703 22.406 0 36.469 9.3281 46.641 22.219 10.172-12.891 24.234-22.219 46.641-22.219 33.469 0 60.703 27.234 60.703 60.703 0 37.219-24.844 54.141-51.094 72-10.922 7.4531-23.297 15.844-35.625 26.625-2.625 2.2969-5.9062 3.4688-9.2344 3.4688zm-83.766-103.5c42.234 0 78.562 26.484 92.344 64.547 7.1719-5.3438 14.062-10.031 20.484-14.344 26.906-18.281 38.812-27.281 38.812-48.75 0-18-14.625-32.578-32.578-32.578-15.703 0-23.672 6.375-34.078 27.234-2.3906 4.7812-7.2656 7.7812-12.562 7.7812-5.3438 0-10.172-3-12.562-7.7812-10.453-20.859-18.375-27.234-34.078-27.234-17.578 0-31.922 13.969-32.578 31.359 2.25-0.14062 4.5469-0.1875 6.8438-0.1875z" fill-rule="evenodd"/>
 <path d="m532.03 309.52c-3.6094 0-7.2188-1.3594-9.9375-4.125-9-9-18.281-15.328-26.484-20.906-16.078-10.922-32.672-22.219-32.672-47.203 0-22.922 18.656-41.578 41.578-41.578 12.375 0 21.047 4.2188 27.516 10.312 6.4688-6.0938 15.141-10.312 27.516-10.312 22.922 0 41.578 18.656 41.578 41.578 0 25.031-16.594 36.281-32.672 47.203-8.2031 5.5781-17.484 11.906-26.484 20.906-2.7188 2.7188-6.3281 4.125-9.9375 4.125zm-27.516-85.688c-7.4062 0-13.453 6.0469-13.453 13.453 0 9.1406 4.125 12.938 20.344 23.953 6.0938 4.125 13.172 8.9531 20.625 15.188 7.4062-6.2344 14.531-11.062 20.625-15.188 16.219-11.016 20.344-14.812 20.344-23.953 0-7.4062-6.0469-13.453-13.453-13.453-5.4375 0-8.8125 0.60938-14.906 12.844-2.3906 4.7812-7.2656 7.7812-12.562 7.7812-5.3438 0-10.172-3-12.562-7.7812-6.1406-12.234-9.5156-12.844-14.953-12.844z" fill-rule="evenodd"/>
 <path d="m1073.4 1200h-946.87c-7.7812 0-14.062-6.3281-14.062-14.062v-609.32c0-5.4375 3.1406-10.359 8.0156-12.703 4.875-2.2969 10.688-1.6406 14.906 1.8281l363.28 296.06 92.391-75.328c5.1562-4.2188 12.609-4.2188 17.766 0l92.391 75.328 363.24-296.06c4.2188-3.4219 9.9844-4.125 14.906-1.8281 4.9219 2.3438 8.0156 7.2656 8.0156 12.703v609.32c0 7.7812-6.2812 14.062-14.062 14.062zm-932.81-28.125h918.74v-565.69l-349.22 284.58c-5.2031 4.2188-12.562 4.2188-17.766 0l-92.391-75.328-92.438 75.328c-5.1562 4.2188-12.609 4.2188-17.766 0l-349.22-284.63v565.69z" fill-rule="evenodd"/>
 <path d="m1070.1 1200h-940.13c-3.2344 0-6.375-1.125-8.9062-3.1406l-3.375-2.7656c-3.2812-2.6719-5.1562-6.7031-5.1562-10.922s1.9219-8.25 5.1562-10.922l473.44-385.87c5.1562-4.2188 12.609-4.2188 17.766 0l473.44 385.87c3.2812 2.6719 5.1562 6.7031 5.1562 10.922s-1.9219 8.25-5.2031 10.922l-3.375 2.7656c-2.5312 2.0625-5.625 3.1406-8.8594 3.1406zm-907.36-28.125h874.6l-437.29-356.39z" fill-rule="evenodd"/>
 <path d="m898.03 733.6c-2.0625 0-4.125-0.46875-6.0469-1.3594-4.9219-2.3438-8.0156-7.2656-8.0156-12.703v-332.44c0-5.7656 3.5625-10.969 8.9531-13.078s11.484-0.70312 15.469 3.5156l175.45 189.47c2.625 2.8594 3.9844 6.6562 3.7031 10.547s-2.1562 7.4531-5.1562 9.9375l-175.45 142.97c-2.5781 2.1094-5.7188 3.1875-8.9062 3.1875zm14.062-310.64v266.95l140.86-114.8zm-610.08 310.64c-3.1875 0-6.3281-1.0781-8.9062-3.1875l-175.45-142.97c-3-2.4375-4.875-6.0469-5.1562-9.9375s1.0781-7.6875 3.7031-10.547l175.45-189.47c3.9375-4.2656 10.031-5.6719 15.469-3.5156 5.3906 2.1094 8.9531 7.3125 8.9531 13.078v332.44c0 5.4375-3.1406 10.359-8.0156 12.703-1.9219 0.89062-3.9844 1.3594-6.0469 1.3594zm-154.92-158.48 140.86 114.8v-266.95z" fill-rule="evenodd"/>
 <path d="m498.71 893.9c-3.1406 0-6.2812-1.0781-8.9062-3.1875l-196.74-160.36c-3.2812-2.6719-5.1562-6.7031-5.1562-10.922v-557.86c0-7.7812 6.2812-14.062 14.062-14.062h596.02c7.7812 0 14.062 6.2812 14.062 14.062v557.86c0 4.2188-1.9219 8.25-5.1562 10.922l-196.74 160.31c-5.2031 4.2188-12.609 4.2188-17.766 0l-92.438-75.328-92.438 75.328c-2.5781 2.1094-5.7188 3.1875-8.9062 3.1875zm-182.68-181.08 182.68 148.87 92.391-75.328c5.1562-4.2188 12.609-4.2188 17.766 0l92.391 75.328 182.63-148.87v-537.1h-567.89v537.1z" fill-rule="evenodd"/>
 <path d="m815.58 639.98h-290.16c-7.7812 0-14.062-6.3281-14.062-14.062s6.2812-14.062 14.062-14.062h290.16c7.7812 0 14.062 6.3281 14.062 14.062s-6.2812 14.062-14.062 14.062zm-360 0h-71.109c-7.7812 0-14.062-6.3281-14.062-14.062s6.2812-14.062 14.062-14.062h71.109c7.7812 0 14.062 6.3281 14.062 14.062s-6.2812 14.062-14.062 14.062z" fill-rule="evenodd"/>
 <path d="m815.58 693.74h-71.109c-7.7812 0-14.062-6.3281-14.062-14.062 0-7.7344 6.3281-14.062 14.062-14.062h71.109c7.7812 0 14.062 6.3281 14.062 14.062 0 7.7344-6.2812 14.062-14.062 14.062zm-140.95 0h-290.16c-7.7812 0-14.062-6.3281-14.062-14.062 0-7.7344 6.2812-14.062 14.062-14.062h290.16c7.7812 0 14.062 6.3281 14.062 14.062 0 7.7344-6.2812 14.062-14.062 14.062z" fill-rule="evenodd"/>
 <path d="m815.58 747.52h-290.16c-7.7812 0-14.062-6.3281-14.062-14.062s6.2812-14.062 14.062-14.062h290.16c7.7812 0 14.062 6.3281 14.062 14.062s-6.2812 14.062-14.062 14.062zm-360 0h-71.109c-7.7812 0-14.062-6.3281-14.062-14.062s6.2812-14.062 14.062-14.062h71.109c7.7812 0 14.062 6.3281 14.062 14.062s-6.2812 14.062-14.062 14.062z" fill-rule="evenodd"/>
 <path d="m826.74 175.74h-524.76c-7.0312 0-12.984-5.2031-13.922-12.141-0.98438-6.9375 3.375-13.547 10.125-15.469l524.76-147.52c4.2188-1.2188 8.7656-0.32812 12.281 2.3438s5.5781 6.7969 5.5781 11.203v147.52c0 7.7812-6.3281 14.062-14.062 14.062zm-422.81-28.125h408.74v-114.94z" fill-rule="evenodd"/>
 <path d="m865.45 1135.2h-530.95c-7.7812 0-14.062-6.3281-14.062-14.062s6.2812-14.062 14.062-14.062h530.95c7.7812 0 14.062 6.3281 14.062 14.062s-6.3281 14.062-14.062 14.062z" fill-rule="evenodd"/>
 <path d="m199.03 1031.7c-7.7812 0-14.062-6.3281-14.062-14.062v-272.86c0-7.7812 6.2812-14.062 14.062-14.062s14.062 6.3281 14.062 14.062v272.81c0 7.7812-6.2812 14.062-14.062 14.062z" fill-rule="evenodd"/>
 <path d="m1001 1031.7c-7.7812 0-14.062-6.3281-14.062-14.062v-272.86c0-7.7812 6.3281-14.062 14.062-14.062s14.062 6.3281 14.062 14.062v272.81c0 7.7812-6.3281 14.062-14.062 14.062z" fill-rule="evenodd"/>
</svg>
