<?xml version="1.0" encoding="UTF-8"?>
<svg width="1200pt" height="1200pt" version="1.1" viewBox="0 0 1200 1200" xmlns="http://www.w3.org/2000/svg">
 <path d="m269.02 983.02c11.297 15.938 29.578 24.938 48.375 24.938 17.719 0 17.297-3.7031 146.34-48.422 6.2344-2.2031 9.5156-9.0938 7.3125-15.328s-9.0469-9.5156-15.328-7.2656l-126.71 45.047c-14.766 5.25-31.359-0.046875-40.406-12.797l-155.02-219.1c-83.016-117.05-3.7031-281.48 140.29-285.32 73.312-3.2812 124.13 29.625 155.68 100.88 2.9062 6.6562 11.062 9.1875 17.25 5.3438 9.7969-6 18.516-10.594 27.375-14.578 6.0469-2.7188 8.7188-9.8438 6-15.844-2.7188-6.0469-9.8906-8.7188-15.844-6-5.7656 2.5781-12.094 5.7188-18.516 9.2812-40.828-81.516-109.97-116.86-213.37-98.531-140.58 34.828-202.22 200.58-118.41 318.66z"/>
 <path d="m767.34 631.64c-75.75-54.609-154.45-50.812-234.56 11.766-108.75 96.328-85.828 271.69 43.031 337.36l239.11 121.87c23.531 12 52.406 6.75 70.219-12.516l185.81-200.76c45.609-50.578 63.281-120.28 47.203-186.42-16.078-66.188-63.75-120.05-128.21-144.28-96.516-29.625-171.32-5.1094-222.61 72.984zm214.82-50.344c57.141 21.516 98.203 67.875 112.64 127.22 14.391 59.344-0.79688 119.34-41.578 164.58l-185.72 200.72c-10.594 11.484-27.75 14.531-41.719 7.4531l-239.11-121.87c-115.45-58.875-132.84-213.94-38.578-297.52 75.891-59.25 146.11-58.125 214.97-3.2812 5.7656 4.5938 14.156 2.9062 17.812-3.2812 45.609-77.344 111.61-101.48 201.28-74.016z"/>
 <path d="m287.21 414.37c6.1875 2.2031 13.125-1.0312 15.328-7.2656l61.078-170.44c52.641-146.76 252.74-164.86 331.64-32.016 29.672 52.453 32.859 107.16 15.094 156.74l-53.344 166.45c-2.0156 6.3281 1.4531 13.078 7.7812 15.094 6.2344 2.0156 13.031-1.4062 15.094-7.7812 53.016-171.98 64.312-183.74 65.203-232.31 21.703 17.344 35.156 39.609 41.25 63.938l41.859 163.64c1.4062 5.4375 6.2812 9 11.625 9 7.875 0 13.594-7.4062 11.625-15l-41.812-163.5c-9.0469-36-30.984-67.125-66.188-87.984-2.4375-19.312-7.6406-38.016-15.188-55.781 60.938 20.438 105.33 70.078 120.32 129.56l42.141 166.69c1.6406 6.5156 8.25 10.312 14.578 8.6719 6.4219-1.6406 10.312-8.1562 8.7188-14.578l-42.141-166.69c-18.75-74.297-78.281-135.37-158.68-152.58-91.969-146.86-313.69-122.68-372.14 40.359l-61.078 170.44c-2.25 6.1875 0.98438 13.078 7.2188 15.328z"/>
 <path d="m621.98 512.29 52.172-158.11c13.312-37.125 11.391-77.25-5.4844-112.92-55.828-118.12-228.19-110.72-272.68 13.359l-55.312 159.84c-2.1562 6.2812 1.1719 13.078 7.4062 15.281 6.2812 2.1562 13.078-1.1719 15.281-7.4062l55.266-159.71c36.938-103.08 181.4-110.44 228.32-11.062 14.109 29.906 15.75 63.469 4.5 94.875l-52.266 158.39c-2.0625 6.2812 1.3594 13.078 7.6406 15.141 6.375 2.0156 13.125-1.4531 15.141-7.6875z"/>
 <path d="m522.14 592.08c2.25 6.2812 9.1875 9.4688 15.375 7.2188 6.2344-2.25 9.4688-9.0938 7.2188-15.375-39.75-116.67-58.875-146.68-59.203-196.13-0.51562-71.625 36-130.22 100.22-160.74 6-2.8594 8.5312-9.9844 5.6719-15.984-2.8594-5.9531-9.9375-8.5312-15.984-5.6719-92.109 43.781-141.32 147.14-97.219 264.61z"/>
 <path d="m624.66 285.89c6.0938-2.5781 9-9.6094 6.4219-15.703s-9.6094-9-15.703-6.4219c-64.594 27.094-100.41 98.859-82.969 167.86l48.656 143.72c2.1562 6.3281 9 9.6094 15.188 7.5 6.2812-2.1094 9.6562-8.9531 7.5-15.234l-48.375-142.82c-14.25-56.625 15.516-116.34 69.281-138.89z"/>
 <path d="m762.47 837.19 2.0625 76.031c0.375 14.156 13.078 24.609 26.859 22.594l50.391-7.3125c13.828-2.0156 22.922-15.656 19.312-29.297l-19.547-73.031c35.156-44.906-2.2969-109.78-54.891-102.09-53.25 7.6875-69.562 80.203-24.188 113.11zm27.656-89.391c34.172-4.9219 55.547 41.906 29.906 67.219-6.7969 6.75-4.2188 6.75 18.328 89.719l-49.781 7.7812c-2.8594-84.047-0.5625-84.234-5.5781-89.625-3.2812-3.5156-19.359-9.7969-22.5-31.547-3.0938-21.188 10.172-40.734 29.625-43.547z"/>
 <path d="m339.19 844.03c48.234 13.781 49.969 15.375 55.969 15.375 11.344 0 21-8.2031 22.875-19.359l12.609-74.859c50.156-25.969 43.969-100.64-7.5-115.69-50.766-14.859-96.984 43.406-68.953 92.859l-29.812 70.312c-5.4844 12.797 1.4531 27.469 14.812 31.359zm37.875-109.55c-21.562-28.828 6.375-71.531 39.328-61.969 33.281 9.7031 33 61.219-0.75 73.547-0.375 0.14062-0.65625 0.46875-1.0312 0.65625-8.2969 4.0312-5.9531 7.3594-19.266 88.688l-48.938-13.359c32.062-76.828 36.609-79.641 30.656-87.562z"/>
</svg>
