<?xml version="1.0" encoding="UTF-8"?>
<svg width="1200pt" height="1200pt" version="1.1" viewBox="0 0 1200 1200" xmlns="http://www.w3.org/2000/svg">
 <path d="m492.89 365.64-11.477-22.934v-0.003906c-1.5234-3.0508-4.6445-4.9805-8.0547-4.9766h-12.719c-2.3867 0-4.6758 0.94922-6.3633 2.6367l-50.91 50.91c-1.6875 1.6875-2.6367 3.9766-2.6367 6.3633v12.734c-0.003906 3.4102 1.9258 6.5312 4.9766 8.0547l22.949 11.477 0.003906-0.003906c-12.902 31.688-11.293 67.434 4.4102 97.828 15.699 30.395 43.918 52.395 77.227 60.207 33.309 7.8164 68.367 0.66016 95.945-19.582 32.109 21.398 71.84 28.035 109.16 18.238 37.32-9.8008 68.664-35.102 86.117-69.516 17.453-34.414 19.344-74.652 5.1992-110.55-14.148-35.898-42.977-64.031-79.215-77.289l6.6016-13.215c1.2656-2.5352 1.2656-5.5195 0-8.0547l-9-18c-1.5352-3.0625-4.6758-4.9844-8.1016-4.9648h-72c-3.4102 0-6.5312 1.9258-8.0547 4.9805l-9 18c-1.2695 2.5352-1.2695 5.5195 0 8.0547l6.6016 13.215c-20.566 7.5859-38.984 20.047-53.672 36.316-28.238-11.355-59.773-11.328-87.988 0.074219zm-59.477 46.5-14.684-7.3359v-3.4336l45.629-45.645h3.4336l7.3516 14.684-20.805 20.789zm130.59 43.859c-0.019531-24.391 7.6328-48.172 21.871-67.98 26.949 15.168 45.23 42.094 49.383 72.742 4.1523 30.645-6.3047 61.465-28.25 83.258-0.46484 0.46484-0.97656 0.85547-1.5 1.3203-26.332-22.203-41.523-54.895-41.504-89.34zm86.566-135-4.5-9 4.5-9h60.871l4.5 9-4.5 9zm30.434 18c36.598-0.011719 71.094 17.102 93.223 46.25 22.133 29.148 29.348 66.973 19.504 102.22-9.8438 35.25-35.613 63.863-69.645 77.324-34.031 13.465-72.402 10.23-103.7-8.7422 25.074-25.492 37.113-61.047 32.688-96.531-4.4258-35.48-24.832-66.988-55.398-85.539 21.945-22.387 51.977-34.992 83.324-34.98zm-135 117c-0.011719 38.527 16.48 75.215 45.301 100.79-27.559 18.066-62.301 21.238-92.676 8.457s-52.398-39.836-58.75-72.172c-6.3477-32.336 3.8047-65.711 27.09-89.031 13.098-13.109 29.625-22.262 47.688-26.414 18.059-4.1523 36.926-3.1328 54.434 2.9414-15.078 22.266-23.121 48.543-23.086 75.434z"/>
 <path d="m933 60h-666c-21.477 0.023438-42.062 8.5664-57.25 23.75-15.184 15.188-23.727 35.773-23.75 57.25v918c0.023438 21.477 8.5664 42.062 23.75 57.25 15.188 15.184 35.773 23.727 57.25 23.75h666c21.477-0.023438 42.062-8.5664 57.25-23.75 15.184-15.188 23.727-35.773 23.75-57.25v-512.25c0-4.9688-4.0312-9-9-9s-9 4.0312-9 9v512.25c0 16.707-6.6367 32.734-18.453 44.547-11.812 11.816-27.84 18.453-44.547 18.453h-666c-16.707 0-32.734-6.6367-44.547-18.453-11.816-11.812-18.453-27.84-18.453-44.547v-918c0-16.707 6.6367-32.734 18.453-44.547 11.812-11.816 27.84-18.453 44.547-18.453h666c16.707 0 32.734 6.6367 44.547 18.453 11.816 11.812 18.453 27.84 18.453 44.547v351.75c0 4.9688 4.0312 9 9 9s9-4.0312 9-9v-351.75c-0.023438-21.477-8.5664-42.062-23.75-57.25-15.188-15.184-35.773-23.727-57.25-23.75z"/>
 <path d="m278.64 399.36c2.8867 2.8164 7.3008 3.3672 10.793 1.3477 3.4922-2.0234 5.2109-6.125 4.207-10.031-0.16406-0.61328-16.078-61.785 8.3555-110.66 15.996-30 17.59-65.621 4.332-96.93 1.7148-1.5625 3.3047-3.25 4.7578-5.0547 17.945 4.1797 36.16 7.1211 54.508 8.8047h0.79688c4.9688 0.21484 9.1758-3.6406 9.3906-8.6094 0.21484-4.9727-3.6406-9.1758-8.6094-9.3906-16.059-1.4844-32.008-3.9922-47.746-7.5 2.4727-9.1172 1.9492-18.789-1.5-27.586 24.293-15.027 54.719-16.102 80.008-2.8203 27.812 12.93 58.059 19.785 88.727 20.117-21.055 9.7852-43.672 15.789-66.809 17.73-4.9727 0.23438-8.8086 4.457-8.5742 9.4258 0.23438 4.9727 4.457 8.8086 9.4258 8.5742h0.88672c70.41-6.7812 102.45-38.086 103.77-39.422 2.7148-2.7227 3.4023-6.8672 1.707-10.32-1.6914-3.4531-5.3906-5.4453-9.207-4.9648-38.129 3.9375-76.633-1.9609-111.84-17.129-30.938-16.188-68.137-14.754-97.738 3.7656-8.5977-9.1523-20.621-14.293-33.176-14.191-12.551 0.10547-24.488 5.4492-32.93 14.738-8.4414 9.293-12.621 21.688-11.523 34.191 1.0977 12.508 7.3672 23.984 17.297 31.664-33.766 147.56 28.051 211.56 30.691 214.25zm7.3203-127.39c-11.508 24.656-16.824 51.754-15.48 78.93-12.27-30.645-22.379-82.004-6-157.5 8.6484 2.3516 17.809 2 26.25-1.0039 10.051 25.965 8.3047 55.016-4.7852 79.59zm-9.9609-148.96c8.3516 0.011719 16.227 3.8906 21.328 10.5 0.4375 1.7695 1.4375 3.3516 2.8516 4.5 3.5039 7.0625 3.7461 15.301 0.66406 22.555-3.082 7.2539-9.1797 12.801-16.691 15.184-7.5156 2.3828-15.695 1.3594-22.391-2.793-6.6992-4.1562-11.246-11.031-12.453-18.82-1.2031-7.7891 1.0586-15.719 6.1875-21.699 5.1328-5.9844 12.621-9.4297 20.504-9.4258z"/>
 <path d="m682.14 1068c38.129-3.9492 76.637 1.9453 111.84 17.113 30.93 16.227 68.152 14.785 97.738-3.7773 8.5977 9.1484 20.621 14.293 33.176 14.188 12.551-0.10547 24.488-5.4453 32.93-14.738 8.4414-9.2891 12.621-21.688 11.523-34.191s-7.3672-23.984-17.297-31.664c33.781-147.54-28.004-211.5-30.691-214.23-2.8867-2.8164-7.3008-3.3672-10.793-1.3438-3.4922 2.0195-5.2109 6.1211-4.207 10.031 0.16406 0.61328 16.078 61.785-8.3555 110.66v-0.003907c-16 30-17.594 65.621-4.332 96.93-1.707 1.5625-3.293 3.2539-4.7422 5.0547-147.55-33.781-211.5 27.988-214.23 30.691-2.7266 2.7188-3.4219 6.875-1.7266 10.336 1.6953 3.457 5.4062 5.4531 9.2266 4.9648zm241.86 9c-7.1602 0-14.027-2.8438-19.094-7.9062-5.0625-5.0664-7.9062-11.934-7.9062-19.094s2.8438-14.027 7.9062-19.094c5.0664-5.0625 11.934-7.9062 19.094-7.9062s14.027 2.8438 19.094 7.9062c5.0625 5.0664 7.9062 11.934 7.9062 19.094s-2.8438 14.027-7.9062 19.094c-5.0664 5.0625-11.934 7.9062-19.094 7.9062zm-9.9453-148.98c11.508-24.652 16.82-51.742 15.48-78.914 12.27 30.645 22.379 82.004 6 157.5-8.6641-2.3555-17.84-2-26.297 1.0195-10.121-25.961-8.3594-55.055 4.8164-79.605zm-33.555 110.54c-2.4727 9.1133-1.9453 18.781 1.5 27.57-24.293 15.027-54.719 16.098-80.012 2.8203-27.848-12.945-58.137-19.801-88.844-20.117 28.922-13.828 83.145-28.648 167.36-10.273z"/>
 <path d="m276 438c0-4.9688-4.0312-9-9-9s-9 4.0312-9 9v450c0 4.9688 4.0312 9 9 9s9-4.0312 9-9z"/>
 <path d="m285 1068h351c4.9688 0 9-4.0312 9-9s-4.0312-9-9-9h-351c-4.9688 0-9-4.0312-9-9v-99c0-4.9688-4.0312-9-9-9s-9 4.0312-9 9v99c0 7.1602 2.8438 14.027 7.9062 19.094 5.0664 5.0625 11.934 7.9062 19.094 7.9062z"/>
 <path d="m933 771c4.9688 0 9-4.0312 9-9v-603c0-7.1602-2.8438-14.027-7.9062-19.094-5.0664-5.0625-11.934-7.9062-19.094-7.9062h-348c-4.9688 0-9 4.0312-9 9s4.0312 9 9 9h348c4.9688 0 9 4.0312 9 9v603c0 2.3867 0.94922 4.6758 2.6367 6.3633s3.9766 2.6367 6.3633 2.6367z"/>
 <path d="m766.5 726c4.9688 0 9-4.0312 9-9s-4.0312-9-9-9h-333c-4.9688 0-9 4.0312-9 9s4.0312 9 9 9z"/>
 <path d="m375 789c0 4.9688 4.0312 9 9 9h432c4.9688 0 9-4.0312 9-9s-4.0312-9-9-9h-432c-2.3867 0-4.6758 0.94922-6.3633 2.6367s-2.6367 3.9766-2.6367 6.3633z"/>
 <path d="m825 861c0-4.9688-4.0312-9-9-9h-432c-4.9688 0-9 4.0312-9 9s4.0312 9 9 9h432c2.3867 0 4.6758-0.94922 6.3633-2.6367s2.6367-3.9766 2.6367-6.3633z"/>
 <path d="m276 915c0 4.9688-4.0312 9-9 9s-9-4.0312-9-9 4.0312-9 9-9 9 4.0312 9 9"/>
 <path d="m1014 519c0 4.9688-4.0312 9-9 9s-9-4.0312-9-9 4.0312-9 9-9 9 4.0312 9 9"/>
 <path d="m402 177c0 4.9688-4.0312 9-9 9s-9-4.0312-9-9 4.0312-9 9-9 9 4.0312 9 9"/>
</svg>
