<?xml version="1.0" encoding="UTF-8"?>
<svg width="1200pt" height="1200pt" version="1.1" viewBox="0 0 1200 1200" xmlns="http://www.w3.org/2000/svg">
 <path d="m539.68 509.86c9.3281 3.375 14.109 13.688 10.734 23.016s-13.688 14.109-23.016 10.734c-42.703-15.609-79.219-44.109-104.86-80.766-24.938-35.719-39.609-79.078-39.609-125.81 0-60.703 24.609-115.69 64.406-155.48s94.781-64.406 155.48-64.406 115.69 24.609 155.48 64.406 64.406 94.781 64.406 155.48c0 26.203-4.6406 51.469-13.172 74.953-8.8125 24.281-21.797 46.594-38.016 66-6.375 7.5938-17.719 8.625-25.312 2.25s-8.625-17.719-2.25-25.312c13.594-16.266 24.469-34.922 31.828-55.172 7.0312-19.453 10.922-40.594 10.922-62.719 0-50.766-20.578-96.75-53.859-130.03s-79.266-53.859-130.03-53.859-96.75 20.578-130.03 53.859-53.859 79.266-53.859 130.03c0 39.188 12.234 75.516 33 105.28 21.422 30.656 51.984 54.469 87.703 67.5zm115.27 492.56c102.09 1.8281 192.98 8.6719 259.69 18.703 80.859 12.141 130.4 32.625 130.4 58.828 0 27-53.766 48.047-140.63 60.281-78.188 11.016-185.86 17.812-304.4 17.812s-226.22-6.7969-304.4-17.812c-86.859-12.234-140.63-33.281-140.63-60.281 0-26.344 50.344-46.922 132.42-59.109 67.734-10.031 159.94-16.875 263.29-18.516l-222.19-556.64c-6.75-17.016-11.953-34.734-15.469-52.922-3.4688-18.141-5.2969-36.844-5.2969-55.781 0-81.422 33.047-155.16 86.438-208.55 53.391-53.438 127.18-86.484 208.64-86.484 81.422 0 155.16 33.047 208.55 86.438 53.438 53.484 86.484 127.22 86.484 208.64 0 18.938-1.8281 37.594-5.2969 55.734-3.4219 17.766-8.4844 35.156-15.047 51.844l-222.66 557.81zm-89.953 35.578c-106.88 1.2188-202.64 8.0625-272.34 18.422-63 9.3281-101.62 17.906-101.62 23.531 0 6.1875 41.859 15.188 109.55 24.703 76.312 10.734 182.21 17.391 299.44 17.391 117.28 0 223.13-6.6562 299.44-17.391 67.641-9.5156 109.55-18.516 109.55-24.703 0-5.4844-37.922-13.969-99.75-23.25-68.625-10.312-163.03-17.203-268.55-18.609l-21.188 53.062c-3.6562 9.1875-14.062 13.688-23.25 10.078-4.7812-1.9219-8.2969-5.625-10.078-10.078zm37.875-771.47c4.6406-6.1406 9.6094-11.391 15.188-15.891 13.5-10.781 29.25-16.172 49.781-16.172 22.828 0 43.594 9.3281 58.594 24.328 15.047 14.953 24.328 35.719 24.328 58.641 0 52.641-32.672 77.812-75.938 111.05-18.281 14.062-38.719 29.812-59.25 50.344-7.0312 7.0312-18.422 7.0312-25.453 0-20.531-20.531-41.016-36.281-59.25-50.344-43.266-33.281-75.938-58.406-75.938-111.05 0-22.875 9.2812-43.641 24.328-58.641l1.125-1.0312c14.953-14.391 35.25-23.25 57.516-23.25 20.531 0 36.234 5.3906 49.781 16.172 5.5781 4.4531 10.547 9.75 15.188 15.891zm37.594 12.094c-7.8281 6.2344-14.531 16.547-21.562 30.562-1.6875 3.3281-4.4062 6.1875-8.0156 8.0156-8.8594 4.4062-19.641 0.84375-24.047-8.0156-7.0312-14.016-13.734-24.328-21.562-30.562-6.7969-5.4375-15.469-8.1562-27.375-8.1562-12.609 0-24.047 4.9219-32.391 12.938l-0.79688 0.84375c-8.4844 8.4844-13.781 20.25-13.781 33.188 0 35.062 26.625 55.547 61.875 82.641 15.609 12 32.719 25.172 50.062 41.109 17.344-15.938 34.453-29.109 50.062-41.109 35.25-27.094 61.875-47.578 61.875-82.641 0-12.938-5.25-24.703-13.781-33.188-8.4375-8.5312-20.203-13.781-33.188-13.781-11.953 0-20.625 2.7188-27.375 8.1562zm145.64-124.78c-46.875-46.828-111.66-75.844-183.19-75.844-71.531 0-136.31 29.016-183.19 75.891-46.875 46.828-75.891 111.61-75.891 183.19 0 16.875 1.5938 33.281 4.5938 49.031 3.0469 15.844 7.4531 31.078 13.172 45.562l232.03 581.29 0.1875 0.42188 0.14062 0.42188 8.9531 22.453 8.8125-22.031 0.14062-0.42188 0.375-0.89062 231.37-579.71c5.9531-14.953 10.594-30.703 13.734-47.062 3-15.703 4.5938-32.109 4.5938-48.984 0-71.578-29.016-136.36-75.844-183.19zm-102.14 348.37c8.9062-4.3594 19.688-0.75 24.047 8.1562 4.3594 8.9062 0.75 19.688-8.1562 24.047-12.703 6.2344-26.109 11.344-39.984 15.047-13.547 3.6094-27.656 6-42.141 6.9844-9.8906 0.65625-18.469-6.8438-19.125-16.734s6.8438-18.469 16.734-19.125c12.094-0.79688 23.906-2.8125 35.25-5.8594 11.672-3.0938 22.828-7.3594 33.328-12.516z"/>
</svg>
