<?xml version="1.0" encoding="UTF-8"?>
<svg width="1200pt" height="1200pt" version="1.1" viewBox="0 0 1200 1200" xmlns="http://www.w3.org/2000/svg">
 <path d="m701.38 93.43c0.57031-1.5234 1.3008-2.9844 2.1758-4.3555 4.2305-5.7656 9.7422-12.816 16.406-11.023 6.6641 1.793 4.6133 10.766 5.2539 16.918 0 3.0742 0 6.5352 3.0742 8.332 3.0742 1.793 2.4336 3.332 1.1523 5.3828-11.023 18.199-15.379 39.859-30.758 57.418h0.003906c8.6875 1.2773 17.559 0.125 25.633-3.332 7.0508-1.1523 13.969 0 20.379-7.1758l-0.003907-0.003906c4.5586-3.9102 10.57-5.6875 16.523-4.8789 5.9531 0.80859 11.273 4.1211 14.621 9.1094 2.8281 5.8438 8.1562 10.086 14.484 11.535 2.0625 0.62109 4.0078 1.5742 5.7656 2.8203 6.4062 3.8438 15.379 7.9453 14.609 15.637s-11.277 5.8945-17.43 8.0742c-5.2031 1.3945-10.523 2.3359-15.891 2.8164-2.8203 0-5.6406 1.4102-4.4844 5 1.1523 3.5898 3.4609 6.9219 6.793 5.125 12.816-6.793 22.812-1.1523 33.449 4.4844v0.003906c4.7031 1.5195 9.7812 1.4258 14.426-0.26953s8.5898-4.8945 11.207-9.0859c4.9375-6.1719 6.9297-14.195 5.4492-21.957-1.4766-7.7656-6.2773-14.492-13.141-18.414-2.1641-0.95703-3.8203-2.7891-4.5508-5.0391-0.73438-2.25-0.47656-4.707 0.70703-6.7539 5.2539-14.227 3.0742-17.047-11.664-17.941-12.816-0.76953-12.816-1.0234-7.3047-11.277v-0.003906c2.0703-4.6914 3.7852-9.5312 5.1289-14.48 1.5078 0.28516 2.8125 1.2148 3.5781 2.5469 0.76172 1.3281 0.90625 2.9258 0.39453 4.375-1.0234 5.7656 0.76953 8.0742 6.793 9.9961 12.816 3.9727 15.125 7.9453 14.227 19.992-1.2188 6.3008 0.97266 12.777 5.7656 17.047 4.1094 4.3594 6.8555 9.8203 7.9023 15.715 1.0469 5.8984 0.34766 11.973-2.0078 17.48-4.4844 18.07-4.4844 18.711 13.844 23.195 19.625 6.0859 37.305 17.223 51.266 32.297 3.0742 2.9492 5.125 6.9219 9.2266 8.8438 4.6133-2.6914 3.8438-7.6914 5-11.535 9.0703-26.738 25.508-50.371 47.418-68.184 2.8203-2.5625 5.8945-5.2539 9.9961-3.4609 4.1016 1.793 3.0742 5.3828 2.8203 8.457v0.003906c-0.078126 23.406-2.918 46.723-8.457 69.465-2.8203 9.1016-8.457 16.918-13.586 29.605 32.684-18.711 63.312-16.148 94.328-8.5859 3.4609 0.89844 8.332 0.89844 8.7148 5.6406 0.38281 4.7422-3.5898 6.4062-6.9219 8.2031-21.66 10.895-42.68 23.324-67.797 24.734-3.1328-0.003906-6.1016 1.4102-8.0742 3.8438 11.281 6.8633 21.367 15.52 29.863 25.633 1.9219 2.8203 6.0234 0.76953 9.2266 0 7.043-2.7344 14.98-1.7812 21.18 2.5391 6.1953 4.3203 9.8359 11.441 9.707 18.992-0.20312 2.8125 0.37109 5.6289 1.6602 8.1367 1.2891 2.5078 3.2422 4.6172 5.6445 6.0898 9.8672 6.4062 17.301 13.84 8.7148 26.531h0.003907c-1.2188 1.8672-1.2188 4.2812 0 6.1484 3.7695 5.5781 4.9453 12.512 3.2266 19.02-1.7227 6.5078-6.168 11.957-12.199 14.945 8.332 11.148 21.402 17.176 27.301 29.734 1.4102 2.9492 5.8945 1.1523 8.9727 1.5391h-0.003906c11.668 0.67969 22.309 6.8984 28.621 16.734 6.3125 9.8398 7.5352 22.102 3.293 32.992-2.8242 4.5508-2.5156 10.379 0.76953 14.609 4.832 5.7266 6.9219 13.277 5.7109 20.672-1.207 7.3945-5.5898 13.891-11.992 17.777-4.043 1.7773-7.5195 4.6289-10.051 8.2461-2.5312 3.6133-4.0195 7.8555-4.3047 12.262-0.59375 4.043-2.2617 7.8555-4.832 11.035-2.5703 3.1797-5.9453 5.6094-9.7773 7.0352-5.125 2.5625-10.508 4.6133-16.406 7.3047 4.3594 4.8711 10.125 5.8945 12.816 10.766 2.1719 2.8086 3.3516 6.2578 3.3516 9.8047 0 3.5508-1.1797 7-3.3516 9.8047-5.6406 6.6641-2.8203 11.023 0 17.047 9.6133 16.148 6.6641 24.223-10.254 31.527-2.4336 1.0234-6.2812 0.76953-6.793 3.4609-1.8203 9.6719-8.0195 17.957-16.789 22.43-2.0508 1.1523-1.9219 3.8438-1.5391 6.0234h0.003906c0.24219 7.9883-1.8516 15.871-6.0234 22.684-3.5898 8.0742 9.9961 8.457 12.816 16.531v0.003906c1.8906 7.9023 0.95312 16.219-2.6523 23.504-3.6055 7.2812-9.6523 13.07-17.086 16.355-4.1094 1.7773-8.4102 3.0703-12.816 3.8438-11.535 2.6914-14.484 12.816-6.4062 21.789h-0.003907c4.9648 4.8359 7.5195 11.629 6.9766 18.539-0.54297 6.9102-4.1328 13.219-9.793 17.219-2.832 1.9648-4.9922 4.75-6.1836 7.9844-1.1914 3.2344-1.3594 6.7539-0.48438 10.086 0.875 5.7383-0.60156 11.59-4.1016 16.223-3.5 4.6328-8.7227 7.6562-14.48 8.3828-6.5352 1.4102-12.047 1.4102-13.715 10.383-1.668 8.9727-9.2266 10.254-16.531 10.508v0.003907c-7.4922-0.96875-15.105 0.09375-22.047 3.0742-4.2695 2.1289-9.4219 1.3047-12.816-2.0508-14.098-10.766-29.348-20.633-33.449-39.73-0.72656-1.7539-1.6289-3.4258-2.6914-5-7.5625 0.89844-11.535 7.1758-17.176 10.895-3.5898 2.3086-6.793 5.2539-10.508 7.4336-3.7148 2.1797-9.3555 1.5391-8.332-4.4844 4.2305-27.172-12.816-43.574-28.707-61.52-30.445-31.824-69.504-54.094-112.4-64.082-26.918-7.8516-54.508-13.172-82.41-15.891-12.816-1.0234-25.633 2.3086-38.449 2.5625-34.066 0.089843-67.988 4.3945-100.99 12.816-19.664 5.7109-38.793 13.129-57.164 22.172-7.6328 3.543-14.047 9.2656-18.426 16.453s-6.5312 15.508-6.1797 23.918c-0.16406 5.9297 0.30859 11.859 1.4102 17.688 2.9492 18.84 3.0742 18.84 22.301 23.453 8.4609 0.90625 16.258 5 21.809 11.453 5.5469 6.4531 8.4258 14.777 8.0508 23.281 0 2.5625 0 5.3828 2.5625 6.9219 4.1016 0 3.332-3.7148 3.5898-6.0234v-0.003906c2.4102-18.953 11.176-36.527 24.863-49.855 6.7773-7.8945 16.465-12.703 26.852-13.332 10.383-0.625 20.582 2.9805 28.262 10 21.02 17.301 24.734 38.449 11.793 58.316h-0.003906c-5.4258 8.375-13.141 15.02-22.223 19.152-9.0859 4.1328-19.16 5.582-29.043 4.1719-8.6016-0.74609-17.156-1.9453-25.633-3.5898-1.1562 8.9453 1.4922 17.969 7.3047 24.867 8.4102 12.652 20.047 22.828 33.707 29.477 1.4844 1.2461 3.4844 1.6836 5.3516 1.1719 1.8672-0.51172 3.3633-1.9102 4.0078-3.7344 2.0156-3.8086 4.5156-7.3398 7.4297-10.512 4.4297-4.8086 10.527-7.7422 17.047-8.2031 4.8242-0.87891 9.8047 0.082032 13.957 2.6914 4.1523 2.6094 7.1758 6.6797 8.4727 11.406 0.67969 4.8828-0.48047 9.8398-3.25 13.914-2.7734 4.0742-6.957 6.9727-11.746 8.1328-5.6484 1.8867-11.645 2.4961-17.559 1.793-6.9219-1.0234-9.1016 2.1797-6.1523 8.2031 4.9062 9.0664 11.891 16.84 20.379 22.684 22.773 16.168 51.48 21.555 78.566 14.738 4.2305-0.76953 10.895-5.7656 12.816 0 1.9219 5.7656-6.793 6.9219-11.664 7.9453v0.003906c-17.691 4.5391-36.273 4.2734-53.824-0.77344-17.555-5.0469-33.438-14.691-46.016-27.938-4.3711-4.125-7.3672-9.4922-8.5859-15.379-1.6875-9.2695-8.1836-16.934-17.047-20.121-22.375-10.539-38.539-30.926-43.703-55.109-0.30078-2.1406-0.81641-4.2461-1.5391-6.2812-1.0938-3.0625-3.7422-5.3047-6.9414-5.8867-3.1953-0.58203-6.4648 0.58594-8.5664 3.0664-5.4492 9.5-14.844 16.074-25.633 17.941-14.527 2.1445-29.363 0.14453-42.809-5.7656-11.645-4.4219-22.41-10.887-31.781-19.098-3.5898-3.7148-6.6641-3.8438-10.508 0.76953-18.328 22.043-11.918 54.598 2.1797 73.695 3.4609 4.7422 7.1758 2.8203 11.406 1.4102h-0.003906c10.73-4.1016 22.594-4.1016 33.324 0 10.508 4.2305 14.355 10.254 12.816 19.48-1.9219 16.66-10.508 21.66-25.633 14.355-7.6641-3.7812-15.074-8.0625-22.172-12.816-1.8594-1.6133-4.3086-2.3633-6.75-2.0703s-4.6445 1.6016-6.0664 3.6055c-16.594 15.789-27.426 36.68-30.762 59.34-1.9922 9.5195-2.6406 19.27-1.9219 28.965 4.7109 21.238 16.902 40.07 34.348 53.062 6.793 5.6406 15.508 9.6133 19.098 18.582-4.2305 3.332-6.6641 0-8.9727-1.4102-17.203-11.176-32.156-25.477-44.09-42.164-8.3203-12.676-11.949-27.867-10.25-42.934 2.0352-12.977 4.8594-25.816 8.457-38.449 5.6289-15.625 14.898-29.684 27.043-41.016 5.3828-6.2812 4.6133-9.8672 0-16.406v0.003907c-8.1016-11.277-12.715-24.688-13.262-38.566-0.54688-13.875 2.9961-27.605 10.188-39.488 0.77734-1.3711 1.6328-2.6953 2.5625-3.9727 3.4609-5 2.8203-9.6133-2.4336-12.816-5.2539-3.2031-6.6641 2.5625-8.2031 5.5117-5.125 10.125-10.254 20.25-14.355 30.758-1.0508 3.5938-3.3047 6.7148-6.3867 8.8398s-6.8008 3.1211-10.531 2.8242c-28.793-0.64062-56.578-10.73-79.078-28.707-3.7109-3.25-8.0859-5.6562-12.816-7.0508-22.637-5.2695-42.957-17.723-57.93-35.5-5.7656-6.4062-13.586-10.383-19.352-17.047-17.07-19.551-29.359-42.805-35.887-67.926-5.6953-15.656-12.461-30.902-20.25-45.629-5.3789-11.836-6.8594-25.074-4.2305-37.805 1.8203-7.3477 0.71484-15.113-3.0742-21.66-14.227-27.172-9.6133-55.496-3.4609-83.562 1.2812-5.6406 5-6.793 10.637-7.3047 28.066-2.8203 56.137-1.4102 84.203-2.9492 33.371-2.0391 66.465-7.3203 98.816-15.766 31.785-8.0742 46.523-31.785 57.547-58.57h-0.003906c14.887-36.031 24.512-74.016 28.582-112.79 5.3867-42.961 3.6992-86.516-5-128.93l-7.6914-33.066h0.003906c-7.8164-28.773-21.812-55.496-41.012-78.309-12.352-14.324-27.152-26.348-43.707-35.5-3.2031-2.0508-6.5352-3.8438-9.4844-6.1523-6.9219-5.2539-7.3047-8.5859-0.64062-14.098 13-10.566 27.809-18.684 43.707-23.965 6.6641-2.3086 13.715-3.332 16.406-10.125 5.2539 0 6.0234 4.2305 7.9453 6.6641 3.0703 4.3789 7.7656 7.3477 13.039 8.2383 5.2773 0.89062 10.688-0.36719 15.027-3.4961 5.125-4.8711 10.766-8.457 16.02-12.816 5.2539-4.3594 1.4102-8.2031-2.0508-11.535 8.7148-1.5391 18.711 2.0508 26.914-6.793-8.8086-6.5625-20.121-8.7773-30.758-6.0234-4.8711 1.1523-7.4336 4.1016-4.1016 9.2266h-3.332c-3.8438 0-8.2031 0-9.1016-4.4844s3.8438-7.1758 7.8164-8.5859l0.003906-0.003906c4.1523-1.3516 8.457-2.1719 12.816-2.4336 5.7656 0 11.793 1.1523 17.301-2.4336 5.5117-3.5898 8.332 3.332 14.098 3.4609 4.6133-11.664-5.8945-19.352-8.2031-30.375 6.2812 2.1797 7.4336 9.7422 14.227 10.254 3.7148-1.2812 2.9492-5.8945 4.8711-8.9727 1.9219-3.0742 2.3086-9.2266 8.2031-7.9453 5.8945 1.2812 10.254 2.0508 12.816 8.332v-0.003907c2.8984 4.5312 4.5039 9.7695 4.6367 15.145 0.13672 5.375-1.1992 10.688-3.8672 15.359 6.3008 1.7695 13.051 0.84375 18.641-2.5586s9.5156-8.9766 10.836-15.387c0.94141-3.6719 1.668-7.3945 2.1797-11.148 0.56641-2.1445 2.6914-3.4844 4.8711-3.0742 2.8203 0 4.1016 2.3086 3.0742 4.3594v-0.003906c-4.8125 9.7031-5.1875 21.016-1.0234 31.016 1.5391 4.2305-1.9219 6.9219-6.5352 6.6641-4.6133-0.25781-8.5859-0.76953-12.816-0.89844-4.2305-0.12891-6.1523 0-14.609 5.7656l-0.003907 0.003906c11.426 4.9219 24.102 6.1758 36.27 3.5898l1.2812 1.2812c-11.148 7.0508-11.664 7.3047-6.1523 19.223 3.0742 6.5352-1.4102 8.8438-4.2305 12.816h0.003906c-3.9609 5.0039-5.4648 11.523-4.0977 17.758 1.3633 6.2305 5.457 11.523 11.145 14.414 3.7188 2.457 8.3789 3.0117 12.57 1.5 4.1914-1.5156 7.418-4.9258 8.707-9.1914 1.2773-7.332 5.8398-13.68 12.387-17.227 6.543-3.5469 14.348-3.9023 21.191-0.97266 2.6484 0.87109 5.5195-0.47656 6.5352-3.0742 2.957-4.6914 7.5078-8.1484 12.816-9.7422-6.6367 8.7266-8.9062 20.02-6.1523 30.633 0.26953 1.5156-0.26562 3.0664-1.4062 4.0977-0.9375 0.57812-2.0781 0.72656-3.1328 0.41016-1.0547-0.32031-1.9219-1.0742-2.3789-2.0742-2.0508-3.0742-4.3594-6.1523-6.2812-9.3555-2.8203-5.2539-6.5352-8.9727-12.816-7.1758v-0.003906c-3.1602 0.64453-6.0586 2.1992-8.3398 4.4805-2.2773 2.2773-3.8359 5.1797-4.4766 8.3359-1.8203 6.8398-0.03125 14.133 4.7422 19.355 7.3047 6.9219 13.457 15.637 24.863 16.789 2.7227 0.30859 5.1211 1.9375 6.4102 4.3555 0 0.89844 0 2.1797-1.1523 2.8203-10.508 11.406-11.406 17.43-4.2305 26.402 3.5508 4.8398 8.793 8.1602 14.688 9.3008 5.8906 1.1406 11.996 0.015625 17.094-3.1484 4.8086-2.5742 8.8008-6.4336 11.535-11.148 3.2031-6.1523 5.3828-10.895 14.355-7.3047 6.0234 2.4336 9.8672-2.6914 10.508-8.9727 0.64062-6.2812-2.1797-10.254-9.3555-9.6133-2.2188 0.11328-4.4414 0.11328-6.6641 0 0-7.8164 6.793-7.9453 10.125-11.535 4.875-3.2266 7.6641-8.8047 7.3203-14.641-0.34375-5.8359-3.7656-11.051-8.9844-13.684-4.3086-2.3711-9.5352-2.3711-13.844 0-7.3047 3.4609-10.383 0-9.1016-6.9219 1.0234-5.6406-2.5625-11.406 0-16.789 5.3828 0 5.6406 3.332 7.1758 5.8945 1.5391 2.5625 1.0234 6.793 5.5117 6.9219 4.4844 0.12891 2.6914-4.2305 2.5625-6.793h0.003907c-0.44531-1.9062 0.16016-3.9102 1.5859-5.2539 1.4219-1.3477 3.4531-1.832 5.3359-1.2812 11.793 1.2812 23.711 3.9727 33.449-5.8945 11.918 2.9492 10.766-6.6641 12.816-13.84v-0.003907c1.9219 0.75781 3.3828 2.3594 3.9609 4.3398 0.57422 1.9805 0.20312 4.1172-1.0117 5.7852-7.9453 11.023 0 18.582 5.7656 25.633 5.7539 5.6836 12.113 10.711 18.969 14.996 5.8945 4.3594 10.125 3.4609 14.996-2.5625 8.5586-10.988 15.387-23.223 20.25-36.273 2.0508-5.125 2.4336-11.406 11.277-8.9727 2.5625 0.64062 4.3594-7.1758 9.4844-7.5625 0 3.5898-1.793 5.7656-3.5898 8.457l0.003906 0.003906c-12.824 18.539-22.16 39.254-27.559 61.137-0.89844 4.3594-2.4336 9.7422 1.0234 12.816 3.4609 3.0742 8.9727-1.5391 12.816-4.4844l0.003906-0.003906c3.7461-3.082 7.1055-6.6094 9.9961-10.508 14.215-19.031 22.59-41.785 24.094-65.492 0-2.8203 1.668-6.5352-2.8203-8.0742-6.2773 1.1523-8.9688 7.3047-14.992 7.1758zm169.82 810.38c18.809-11.453 35.535-26.016 49.473-43.062 3.6406-4.7031 6.2617-10.117 7.6875-15.895 1.668-6.2812 1.4102-10.895-6.5352-10.895v0.003906c-6.0312-0.039063-11.672-3-15.125-7.9492-6.7578-7.8125-10.766-17.625-11.406-27.938-1.0312-11.906 1.9453-23.816 8.4609-33.836 1.668-2.1797 3.0742-5.125 0.76953-7.3047-2.3086-2.1797-6.0234 0-8.332 1.668s-5.125 5.6406-7.9453 8.0742v-0.003907c-9.9414 10.066-22.66 16.938-36.527 19.738-7.8164 1.2812-11.148-1.793-8.2031-8.7148 7.2266-20.855 16.5-40.949 27.684-59.98 5.125-7.4336 16.406-12.816 13.84-22.301-2.5625-9.4844-14.484-10.254-22.684-14.098-23.84-11.023-39.73-31.145-57.801-48.703-3.0859-2.4922-4.1367-6.7383-2.5625-10.379 1.793-4.2305 6.0234-3.9727 9.7422-4.2305h-0.003907c2.1328-0.089843 4.2617 0.21094 6.2812 0.89453 17.547 2.9727 34.918 6.9102 52.035 11.793 5.3828 2.3086 8.8438-1.2812 6.2812-6.793-6.5352-14.738-12.816-29.992-31.398-33.965h-0.003906c-10.734-1.5195-20.055-8.1641-24.992-17.812-4.7617-9.6602-12.188-17.754-21.402-23.328-3.4609-2.8203-7.3047-5.2539-5.8945-10.383 5.6406-18.84-4.8711-34.605-9.7422-51.266v0.003906c-2.9102-8.7188-7.7773-16.652-14.227-23.199-1.0508 1.5156-1.9102 3.1484-2.5625 4.8711-2.4336 7.9453-5.125 15.891-14.867 17.047-6.2812 0.64062-14.355-9.9961-16.148-20.121 0-2.6914 0-5.3828-0.64063-8.0742-0.64062-2.6914 1.2812-9.4844-1.9219-13.84-8.5859 3.7148-16.789 7.8164-25.633 10.895-8.8438 3.0742-10.508-1.0234-8.0742-8.332 2.4336-7.3047 5.7656-13.715 9.2266-21.66v-0.003906c-9.7461-1.793-19.195-4.9453-28.07-9.3555-9.8672-4.6133-10.125-7.0508-2.1797-14.484 7.9453-7.4336 7.4336-7.3047 0-12.816-5.3828-3.4609-13.457-5.7656-13.715-12.816 0-11.918-7.6914-16.66-16.918-20.891l0.003906 0.003906c-4.1562-1.4141-7.6602-4.2812-9.8672-8.0742-4.1016-9.6133-11.918-9.7422-20.25-8.8438-4.8711 0-9.6133 1.2812-14.484 2.1797-4.8711 0.89844-9.3555-1.5391-7.8164-7.9453v-0.003906c2.4961-14.398 2.2383-29.145-0.76953-43.445-2.0469-16.207-9.2852-31.316-20.633-43.062-8.8555-9.4609-20.922-15.266-33.836-16.277-25.633-1.668-37.039-8.9727-41.398-33.324-1.0234-5.6406-1.9219-9.9961-7.6914-12.816-3.293-1.8828-5.9648-4.6914-7.6875-8.0742-1.6211-3.0742-4.0586-5.6484-7.0391-7.4336-2.9844-1.7852-6.4023-2.7148-9.8789-2.6914-7.3867-0.51562-14.445-3.2344-20.273-7.8047-5.8242-4.5703-10.148-10.777-12.41-17.828-0.94141-3.1094-2.0977-6.1484-3.457-9.0977-1.8906-4.3945-6.0664-7.375-10.84-7.7227-4.7695-0.35156-9.3359 1.9844-11.848 6.0547-2.7461 3.9805-5.7891 7.75-9.0977 11.277-7.4336 7.3047-11.406 6.6641-15.637-2.6914-2.4336-5.3828-4.1016-11.148-6.4062-16.531h-0.003906c-0.50781-1.8906-1.8555-3.4453-3.6523-4.2188s-3.8516-0.68359-5.5742 0.24609c-14.355 6.6641-29.734 2.8203-44.473 4.7422-4.5586 0.91797-9.2852-0.3125-12.816-3.332-7.5625-7.4336-15.766-5.125-24.094-2.8203-10.461 3.5664-20.312 8.7109-29.223 15.25-8.5859 5.3828-8.332 8.2031 0 14.098 2.5625 1.9219 5.3828 3.5898 8.0742 5.3828 31.391 21.418 55.422 51.98 68.824 87.535 21.188 56.355 29.125 116.83 23.199 176.74-3.3789 37.984-11.164 75.449-23.199 111.63-4.2188 16.824-11.902 32.582-22.559 46.266-4.6094 4.4453-7.5234 10.355-8.25 16.719-0.72656 6.3594 0.78906 12.777 4.2773 18.145 22.75 47.195 51.855 91.051 86.512 130.34 12.816 14.355 25.633 27.941 38.449 41.91 4.2031 5.9492 10.473 10.113 17.586 11.676 7.1133 1.5664 14.555 0.41797 20.863-3.2148 15.289-6.8164 31.402-11.602 47.934-14.227 32.953-5.7148 66.277-9.0156 99.711-9.8672 8.5078-0.95703 17.074-1.3438 25.633-1.1562 23.605 2.2891 46.973 6.5742 69.852 12.816 49.938 10.547 95.59 35.762 131.11 72.414 16.316 14.398 26.113 34.785 27.172 56.52zm-762.83-89.715c5.6914 21.598 16.059 41.68 30.375 58.828 2.1406 2.4414 4.5469 4.6328 7.1758 6.5352 4.7539 4.4688 11.035 6.957 17.559 6.957 6.5273 0 12.805-2.4883 17.559-6.957 6.1523-4.4844 11.918-9.3555 17.816-13.969 2.4336-1.793 4.1016-5.6406 8.8438-1.9219-2.5625 9.2266-11.277 12.816-17.301 19.867l-0.003906-0.003906c-6.7734 6.4922-15.051 11.203-24.094 13.715 10.172 11.383 22.914 20.168 37.168 25.633 5.2891 2.9805 11.523 3.8203 17.414 2.3398 5.8867-1.4766 10.988-5.1602 14.242-10.285 8.2188-8.582 14.973-18.453 19.992-29.223 0.5-1.293 1.5273-2.3125 2.8242-2.8008s2.7422-0.40234 3.9688 0.23828c3.332 1.668 1.2812 4.3594 0 6.793-8.793 15.457-19.375 29.824-31.527 42.805 12.031 10.254 25.848 18.203 40.758 23.457 8.5 3.3594 17.52 5.2227 26.656 5.5078 3.4766 0.38281 6.9766-0.47656 9.8828-2.4219 2.9062-1.9453 5.0352-4.8555 6.0078-8.2148 4.2148-12.266 9.9844-23.938 17.176-34.73 3.0117-4.0781 3.0117-9.6406 0-13.715-9.1953-16.727-11.93-36.246-7.6914-54.855 4.3594-28.582 16.531-52.164 45.754-63.184 3.8438-1.5391 8.5859-2.0508 10.895-6.2812 0-3.7148-2.5625-5.7656-4.4844-8.2031-12.863-15.281-24.848-31.285-35.887-47.93-4.7422-7.1758-8.8438-14.867-14.227-21.531v-0.003906c-20.348-25.129-38.086-52.27-52.93-80.996-6.5352-12.816-7.4336-12.816-19.867-9.8672v-0.003907c-35.645 8.707-72.125 13.562-108.81 14.484-19.992 1.1523-39.859 2.0508-59.852 2.8203-3.9727 0-7.6914 0-8.8438 5l-0.003906-0.003907c-7.7852 25.406-5.9141 52.789 5.2578 76.898 2.1797 4.3594 6.1523 5 10.766 5.3828 13.008 0.085938 25.961-1.7266 38.449-5.3828 5.6055-1.9141 11.617-2.3125 17.43-1.1523 1.4766 0.58594 2.6055 1.8125 3.0742 3.332 0.011719 1.5508-0.69922 3.0195-1.9219 3.9727-2.8516 1.5117-5.8594 2.7148-8.9727 3.5898-14.57 4.0781-29.598 6.3164-44.727 6.6641-4.2305 0-9.1016 0-10.637 5v-0.003906c-3.5859 8.0742-4.1758 17.164-1.668 25.633 4.2617 12.793 9.9805 25.047 17.047 36.527 3.4336 6.4258 9.25 11.246 16.199 13.426 6.9492 2.1797 14.48 1.5469 20.969-1.7617 6.9219-2.9492 12.816-7.4336 20.121-10.383 3.4609-1.4102 8.0742-6.6641 11.148-1.4102 3.0742 5.2539-2.8203 7.1758-6.4062 9.4844l-2.6914 1.5391c-15.129 8.3516-32.371 12.094-49.602 10.766zm663.12-453.45c20.25-12.816 38.449-15.508 53.699 6.6641 0.76953 1.1523 2.6914 1.5391 4.2305 2.0508 1.5391 0.51172 4.7422 1.2812 6.1523 0 5.3828-6.6641 12.816-11.918 14.867-20.762 1.2812-5.2539 0-7.8164-6.4062-8.2031h-0.003906c-12.973-0.98047-25.836-3.082-38.449-6.2773-3.5898-0.89844-8.332-0.89844-9.2266-5.2539-0.89844-4.3594 4.1016-5.5117 7.3047-7.1758 9.8672-5.3828 19.992-10.508 29.992-15.891v-0.003907c1.75-1.1719 3.418-2.4531 4.9961-3.8477-11.664-11.023 4.1016-14.996 6.4062-22.301h0.003906c3.1836-7.1836 2.4453-15.504-1.957-22.016s-11.848-10.301-19.703-10.023c-2.5625 0-5.3828 1.2812-8.5859-1.668 0.64453-5.0977-0.097657-10.281-2.1523-14.996-2.0508-4.7109-5.3398-8.7852-9.5117-11.789-12.816-10.508-19.48 1.9219-29.348 4.6133h-0.003907c-1.6875-2.7461-3.5273-5.3984-5.5078-7.9453-2.8008-2.8672-6.4805-4.7188-10.453-5.25-3.9727-0.53516-8.0078 0.27734-11.465 2.3008-5.5117 3.8438-5.5117 10.254 0 18.457 1.6445 2.1797 3.3984 4.2773 5.2539 6.2812 7.2891 8.7227 12.426 19.043 14.996 30.117 1.4102 6.5352 7.3047 15.125 1.5391 19.609s-12.816-2.9492-18.328-6.6641c-14.738-9.4844-32.168-14.484-44.855-27.555h-0.003906c-4.5508-4.2969-11.539-4.6758-16.531-0.89844-3.4609 2.1797-6.6641 4.8711-4.8711 8.9727 4.6133 10.637-2.9492 9.6133-9.3555 11.023-14.609 3.332-20.379 12.816-14.484 25.633v-0.003907c2.4336 4.1992 1.6367 9.5195-1.9219 12.816-4.4766 4.75-7.4219 10.734-8.457 17.176-0.89844 9.4844 2.5625 19.352 9.9961 19.609 12.816 0 12.816 8.5859 14.738 16.918 1.9219 8.332 5.7656 16.406 16.148 18.07 10.383 1.668 12.816-1.4102 11.406-11.535-0.1875-2.1328-0.1875-4.2773 0-6.4062 0-8.5859 3.332-10.895 10.766-6.4062v-0.003906c9.6602 4.4102 18.07 11.145 24.48 19.609 3.4531-9.2227 8.293-17.867 14.355-25.633 5-4.3594 7.0508-14.609 15.508-11.406 8.457 3.2031 1.9219 11.918 4.7422 19.992zm195.58 165.59c11.91 4.9766 25.062 6.1836 37.68 3.4609-9.6914-14.133-25.117-23.277-42.168-24.992-4.1016 4.7422 1.9219 11.023-1.9219 16.531-4.9883-4.707-7.418-11.523-6.5352-18.328 0-8.0742 1.2812-9.4844 9.4844-7.1758 10.125 3.0742 19.992 6.6641 31.527 10.383-14.098-22.941-39.219-25.633-54.086-6.5352v-0.003907c-2.1367 3.0742-4.4922 5.9844-7.0469 8.7148-2.3086 2.3086-5.125 4.3594-8.9727 0 6.4023-9.7969 14.84-18.102 24.734-24.348 3.0742-2.0508 6.9219-3.0742 8.9727-6.5352 7.6914-12.816-7.8164-42.809-23.07-42.551v-0.003906c-7.543 0.16016-15.004 1.6328-22.043 4.3594-13.969 5.5117-16.148 12.816-12.816 27.812 1.793 7.8164 5.2539 16.66-3.2031 23.711-3.0742-3.8438-1.668-7.6914-1.793-11.406l-0.003907-0.003907c-0.46094-5.9414-2.6953-11.609-6.4062-16.273-1.793-2.7148-4.332-4.8477-7.3125-6.1445-2.9805-1.2969-6.2734-1.6992-9.4766-1.1641-7.1758 0.76953-8.0742 5.7656-8.332 11.664 0.09375 3.9844-2.6445 7.4727-6.5352 8.332-10.895 2.0508-10.383 11.406-12.816 18.711-2.9492 10.508 0 15.508 11.148 18.711 6.4062 1.9219 12.816 3.0742 17.047 11.406-5.5977 1.2852-11.465 0.65625-16.66-1.793-4.0664-1.5859-8.5312-1.8594-12.758-0.77734-4.2305 1.082-8.0156 3.457-10.824 6.8008-7.6758 9.9727-10.496 22.852-7.6914 35.117 1.793 8.332 7.3047 16.789 14.867 17.047s21.02 3.8438 27.043-8.457c2.0508-4.2305 5.125-10.766 10.125-7.9453 5 2.8203-0.76953 8.457-1.9219 12.816v-0.003906c-1.2461 5.5117-0.97656 11.262 0.78516 16.633 1.7617 5.3711 4.9453 10.164 9.2109 13.871 4.8789 3.4297 10.742 5.1875 16.703 5 5.9648-0.18359 11.707-2.3008 16.363-6.0273 4.5977-3.7812 8.5-8.3359 11.535-13.457 10.895-17.43 11.023-18.969-1.668-35.375-3.0742-4.1016-7.3047-7.8164-5.5117-14.484 12.816 2.4336 16.789 11.793 21.273 20.891 8.457 17.43 25.633 18.711 38.449 2.6914 0-0.76953-1.1523-1.9219-2.0508-2.3086l0.003906 0.007812c-5.0625-1.8789-10.375-3.0039-15.766-3.332-8.9727-2.0508-10.508-6.1523-4.4844-12.816 1.7891-2.6836 4.332-4.7773 7.3047-6.0234 10.254-3.4609 6.2812-8.9727-0.38281-16.406zm49.984 51.266c-5.2539 9.4844-9.4844 17.559-13.969 25.633-1.668 2.8203-3.332 6.2812-7.3047 4.7422-3.9727-1.5391-2.8203-5.3828-2.6914-8.457l-0.003906-0.003906c1.6016-11.121 2.418-22.34 2.4375-33.578-4.7188 6.1211-10.09 11.711-16.023 16.66-6.1992 3.9727-10.707 10.102-12.648 17.203-1.9414 7.1055-1.1797 14.676 2.1406 21.246 2.1797 5.3828 4.1016 12.816 11.918 10.637 7.8164-2.1797 19.352 2.5625 22.941-10.383 1.0234-4.1016 0-10.125 7.5625-11.535 4.4844 5.2539 2.0508 12.816 4.6133 18.199 5 11.406 20.121 20.25 26.785 12.816 6.6641-7.4336 19.352-8.5859 19.352-21.66 0-3.9727 4.4844-3.5898 7.8164-2.3086l0.003906 0.007812c8.5352 3.0859 18.023 1.9961 25.633-2.9492 5.5664-3.5703 9.2383-9.4492 9.9961-16.02 1.2812-6.9219-4.4844-8.9727-8.457-12.816-0.89844-0.89844-0.76953-2.9492-1.1523-4.1016 2.8203-3.4609 6.2812-1.793 9.3555-1.793 4.8516 0.15625 9.6797-0.80859 14.098-2.8203 3.6719-1.7266 6.7617-4.4922 8.8789-7.957 2.1172-3.4609 3.1758-7.4688 3.0391-11.523-0.89844-6.9219-6.5352-11.023-16.789-12.816-1.6211-0.13281-3.25-0.13281-4.8711 0-2.6914 0-5.7656 0-6.5352-3.0742s2.3086-5.5117 5.3828-6.6641c3.0742-1.1523 4.3594-0.76953 6.2812-1.5391v-0.003906c6.1797-2.1992 10.91-7.2578 12.695-13.574 1.7812-6.3125 0.39453-13.102-3.7266-18.211-3.5664-4.5938-7.9023-8.5391-12.816-11.66-3.0586-2.7812-7.2031-4.0469-11.297-3.4531s-7.707 2.9883-9.8477 6.5273c-2.6602 3.3789-5.0156 6.9805-7.0508 10.766-1.5391 2.4336-3.5898 4.8711-6.4062 2.9492-2.2383-1.7344-2.8398-4.8633-1.4102-7.3047 1.4336-3.4727 3.2383-6.7852 5.3828-9.8711 3.6719-4.9961 3.2383-11.902-1.0273-16.402-3.0664-4.4531-7.043-8.2109-11.66-11.023-3.4062-2.7422-7.7539-4.0273-12.102-3.5703-4.3477 0.45703-8.3398 2.6172-11.098 6.0039-3.0742 2.5625-4.7422 7.4336-9.9961 7.0508-3.8438-3.4609-0.89844-7.0508 0-10.508 0.87109-3.6875 0.22266-7.5664-1.793-10.77-2.8984-4.5898-7.1758-8.1406-12.219-10.145-5.043-2.0039-10.594-2.3555-15.852-1.0039-9.8672 0.89844-17.688 2.9492-20.762 14.098-2.3594 5.4336-5.2344 10.625-8.5859 15.508-5.125 9.3555-5 9.7422 4.8711 12.816h-0.003907c4.7656 2.4414 10.027 3.7578 15.383 3.8438 3.4609-10.895 6.5352-21.66 10.383-32.297 2.0508-5.5117 6.4062-5.7656 9.3555 0h-0.003906c5.5391 9.8906 9.2344 20.703 10.895 31.914 0 3.8438-0.89844 8.8438 4.4844 11.535 2.9492-3.0742 5.6406-6.4062 8.8438-9.2266 5.6406-4.7422 10.766-15.766 17.047-12.816 8.9727 4.6133 1.9219 15.637 1.668 23.84-0.25781 8.2031-6.9219 12.816-5.3828 22.172v-0.003907c13.398-1.7305 26.969-1.7305 40.371 0 3.4609 0 8.457-0.89844 9.7422 3.7148 1.2812 4.6133-3.332 7.5625-6.9219 9.7422-9.4844 5.7656-19.223 11.277-29.348 17.176h-0.003907c4.0078 3.9727 7.6953 8.2578 11.023 12.816 3.2031 5.125 9.9961 10.383 5.125 17.176-4.8711 6.793-12.816 4.8711-19.609 3.7148-1.5234-0.57031-2.9844-1.3008-4.3555-2.1797-9.6133-3.8438-9.9961-3.5898-11.918 7.0508h-0.003906c-0.082031 5.9492-1.168 11.84-3.2031 17.43-1.5391 2.8203-2.8203 6.2812-6.6641 5.8945-3.8438-0.38281-4.1016-3.0742-5.3828-5.5117-3.8711-10.492-8.7656-20.582-14.609-30.117zm3.0742 184.68c4.5664-3.7773 10.598-5.2812 16.406-4.1016 6.1328 0.62891 11.918-2.9492 14.098-8.7148 2.0508-5.125 2.8203-11.918-2.1797-14.867-5-2.9492-11.535-9.4844-20.121-6.0234-6.418 3.543-14.043 4.168-20.953 1.7188-6.9062-2.4531-12.438-7.7422-15.188-14.535-2.6914-4.1016-5.2539-9.1016-10.383-9.3555-9.4219-2.0312-19.242-1.043-28.066 2.8203 1.2461 5.4297 3.6992 10.512 7.1758 14.867 3.0781 4.4453 5.375 9.3867 6.793 14.609 1.668 6.793 4.8711 10.125 12.816 8.332 7.9453-1.793 13.969 3.2031 17.816 10.637h-0.003907c2.4922 4.7578 3.8906 10.012 4.1016 15.379 0.9375 6.4062-1.0586 12.891-5.4336 17.66-4.3711 4.7734-10.66 7.3242-17.121 6.9492h-22.559c-4.082 0.089844-8.0508-1.3438-11.129-4.0195-3.082-2.6797-5.0547-6.4102-5.5312-10.465-0.76953-3.7148 0-7.5625 0-11.277 0-3.8281-2.0078-7.375-5.2891-9.3438s-7.3555-2.0703-10.73-0.26953c-8.3984 3.8242-14.879 10.906-17.949 19.609-3.0703 8.7031-2.4688 18.281 1.6719 26.531 2.8438 7.1445 9.207 12.297 16.789 13.586 8.875 2.875 18.57 1.6016 26.402-3.4609 4.7422-3.8438 9.7422-3.9727 9.7422 3.4609 0 7.4336 5.7656 13.457 11.406 18.328l-0.003906-0.003906c7.3242 5.4414 16.844 6.9648 25.5 4.0781 8.6523-2.8828 15.355-9.8125 17.949-18.559 0.49219-3.2109-0.60547-6.4609-2.9492-8.7148-3.0742-3.8438-10.508-7.8164-4.8711-12.816 5.6406-5 7.9453 3.2031 11.918 5.3828h0.003906c4.3164 2.625 9.3477 3.8281 14.387 3.4336 5.0352-0.39062 9.8203-2.3555 13.68-5.6133 3.8203-2.6289 6.7695-6.3398 8.457-10.656 1.6914-4.3203 2.0508-9.043 1.0273-13.566-2.3086-10.895-11.406-12.816-20.633-15.125-5.7695-1.4102-12.176-0.76953-17.047-6.4062zm-254.41-371.42c12.246-9.0586 27.699-12.633 42.68-9.8711 2.0508 0 4.3594 0 5.5117 2.4336 1.1523 2.4336 0 5.125-2.3086 6.9219-6.6641 6.1523-13.715 11.918-20.508 18.07-4.2305 3.9727-2.9492 6.793 2.3086 9.3555 5.2539 2.5625 8.7148-2.8203 12.816-4.2305 4.1016-1.4102 9.3555-2.9492 13.586 1.0234v0.007813c2.7969 2.6133 3.9727 6.5273 3.0781 10.25-1.1289 5.5547-4.1445 10.543-8.5391 14.117-4.3945 3.5781-9.8906 5.5156-15.559 5.4922-10.949-0.29688-21.758-2.5508-31.91-6.6641-0.74609 2.6094 0.42969 5.3828 2.8164 6.6641 14.672 10.484 24.328 26.594 26.66 44.473 0.87109 3.6445 1.9414 7.2383 3.2031 10.766 2.8203 8.332 10.766 10.125 17.559 12.816 3.332 1.2812 7.3047-2.0508 6.0234-5.2539-3.332-7.9453-1.0234-10.383 6.9219-10.766 5.2109 0.003906 9.4727-4.1484 9.6133-9.3555 0-7.0508 3.2031-9.6133 9.6133-12.816 9.4844-3.8438 9.7422-8.8438 2.4336-16.918-1.4102-1.5391-3.5898-2.5625-2.4336-5.2539 18.711-11.664 19.098-18.328 1.668-31.016-3.9727-2.9492-4.8711-5.5117-2.0508-9.2266h-0.003907c3.3242-3.5273 6.0156-7.6055 7.9453-12.051 3.8438-11.023-5.5117-25.633-16.406-23.582h0.003906c-5.1875 1.4062-10.699 0.96094-15.59-1.2617-4.8867-2.2227-8.8477-6.082-11.199-10.914-2.6641-4.3672-7.043-7.4141-12.066-8.3906-5.0273-0.97266-10.227 0.21094-14.336 3.2656-11.867 6.582-19.871 18.445-21.531 31.914zm213.01 520.6c2.0508 0 3.5898 0.76953 5 1.2812 11.277 4.1016 21.148 1.0234 24.352-7.5625s0-12.816-11.918-18.199h-1.5391c-1.9219-1.1523-3.5898-2.6914-3.332-5 0.25781-2.3086 3.0742-4.2305 5.8945-3.8438h-0.003906c5.2773 1.1523 10.742 1.1523 16.02 0 5.1367-1.1602 9.4648-4.5977 11.762-9.3359 2.293-4.7383 2.3047-10.266 0.03125-15.016-3.2031-7.1758-9.9961-8.5859-20.508-2.1797v0.003907c-4.2383 2.8633-9.2383 4.3945-14.352 4.3945-5.1172 0-10.117-1.5312-14.355-4.3945-6.1289-3.4102-11.703-7.7305-16.535-12.816-6.2812-7.0508-16.148-6.0234-18.199 2.6914-5.4375 17.527-15.59 33.223-29.348 45.367-3.1562 2.7891-4.4531 7.1289-3.3359 11.191 1.1172 4.0586 4.4531 7.1289 8.5898 7.9062 5.7656 1.5391 8.7148 4.4844 7.9453 9.9961s-2.5625 9.3555 2.9492 12.816c5.5117 3.4609 7.9453 5.3828 12.047 7.8164v0.003906c1.1484 0.80078 2.6055 1.0195 3.9375 0.58984 1.332-0.42578 2.3867-1.4531 2.8555-2.7695 3.0742-8.8438 6.793-4.7422 11.918-1.793 11.277 6.5352 19.738 1.0234 19.352-12.816h0.003906c-0.83594-2.7734-0.55859-5.7617 0.76953-8.332zm86.895-209.04c3.793 0.33984 7.6094 0.33984 11.406 0 6.793-1.5391 15.125-3.0742 15.637-11.406 0.44922-3.8203-0.48047-7.6719-2.6172-10.867-2.1406-3.1953-5.3477-5.5234-9.0469-6.5625l-3.0742-0.76953c-2.1797 0-4.3594-1.9219-4.6133-4.1016-0.25781-2.1797 1.9219-4.6133 4.8711-5.5117h-0.003906c2.0508-0.53516 4-1.3984 5.7695-2.5625 4.4375-2.4141 7.0469-7.207 6.6562-12.246-0.38672-5.0352-3.6953-9.375-8.4531-11.082-2.8828-1.4023-6.0977-1.9805-9.2891-1.6641-3.1914 0.31641-6.2305 1.5156-8.7812 3.4609-20.508 12.816-33.066 11.535-52.805-3.4609-1.668-1.2812-3.4609-3.8438-5.3828-2.5625-8.9375 3.4375-18.102 6.2617-27.426 8.457-5.7656 2.5625-6.0234 8.457-5.2539 14.098 0.76953 5.6406 3.9727 5.8945 8.332 5.125l-0.003906 0.003906c19.801-2.1172 39.824 0.070312 58.699 6.4062 3.5898 0.89844 8.332 0 8.9727 5s-3.0742 6.4062-6.4062 8.5859c-10.395 6.7344-21.535 12.238-33.195 16.406-8.7148 3.0742-9.4844 8.8438-9.1016 16.277 0 5.2539 1.4102 9.8672 7.1758 11.148h0.003906c6.6562 2.7227 14.273-0.26953 17.301-6.793 3.7148-7.6914 6.6641-8.2031 12.816-1.793 4.3086 3.125 9.2539 5.2695 14.48 6.2773 3.5547 1.1602 7.4453 0.60547 10.531-1.5039 3.0898-2.1055 5.0195-5.5273 5.2344-9.2617-0.51172-3.1055-1.3281-6.1523-2.4336-9.0977zm-725.66 198.91c23.367-33.215 49.613-64.309 78.434-92.918-6.8008-3.9922-13.234-8.582-19.223-13.715-2.625-2.6953-6.0391-4.4883-9.75-5.1094-3.7109-0.62109-7.5234-0.042968-10.887 1.6484-20.312 5.6719-36.172 21.578-41.781 41.91-7.6211 22.312-6.4727 46.684 3.207 68.184zm186.35 44.602c7.5 1.1641 15.172-0.11719 21.887-3.6445 6.7148-3.5312 12.117-9.1289 15.41-15.965 3.6094-5.9062 5.2695-12.801 4.7422-19.703-0.53125-6.9023-3.2227-13.461-7.6914-18.746-4.4336-6.168-10.801-10.68-18.094-12.816-7.2891-2.1367-15.086-1.7734-22.148 1.0234-9.9688 5.8633-18.203 14.266-23.855 24.355-5.6523 10.09-8.5234 21.5-8.3125 33.062 0.16406 4.3555 3.1992 8.0703 7.4336 9.1016 9.9805 2.6641 20.309 3.7891 30.629 3.332zm494.33-552.13c-8.8438-5.3828-16.789-8.5859-23.84-13.84s-9.2266-5.3828-9.3555 5.125c0 4.8711-1.2812 6.4062-5.5117 7.8164l0.003907 0.003907c-3.0234 0.57031-5.5664 2.6094-6.7734 5.4414-1.2109 2.8281-0.92969 6.0742 0.75 8.6562 1.5547 4.082 2.0391 8.4922 1.4102 12.816 0 13.969 0 14.227 14.867 13.84 19.863-1.9336 39.906 0.92188 58.441 8.332 8.9727 4.2305 11.793-5.5117 17.688-8.2031 5.8945-2.6914 1.2812-8.5859 0-12.816s-8.332-3.2031-8.5859-8.332c-0.25781-5.125 3.5898-4.3594 5.3828-6.2812 7.0508-7.6914 6.793-10.895-1.5391-16.531-2.1016-1.6797-4.5547-2.8633-7.1797-3.4609-9.2266-1.5391-11.664-5.2539-7.6914-14.355l0.003906 0.003906c0.75391-3.957 0.28516-8.0508-1.3398-11.734-1.625-3.6875-4.332-6.7891-7.7617-8.9023-3.4648-1.8633-7.7109-1.4609-10.766 1.0273-1.8633 1.293-2.4219 3.8047-1.2812 5.7656 7.1719 14.754 9.5039 31.395 6.6641 47.551 0.42188 4.9453-2.5156 9.5625-7.1758 11.277-4 2.0586-8.8984 0.98438-11.664-2.5625-3.0977-3.7109-3.0977-9.1055 0-12.816 1.5898-2.7148 3.3438-5.3242 5.2539-7.8203zm-588.02 563.92c9.2461-0.027344 17.801-4.8906 22.559-12.816 2.8203-4.7422 4.1016-8.332-1.5391-12.047-11.203-7.5508-21.074-16.906-29.223-27.684-2.8086-4.2031-7.8281-6.3633-12.816-5.5117-16.547 3.2266-31.758 11.301-43.703 23.199-3.8438 3.9727-2.5625 6.9219 1.5391 10.637 17.07 16.059 39.75 24.801 63.184 24.352zm-17.43-179.43c-1.8477-4.9336-4.8867-9.3359-8.8438-12.816l-24.734-27.684c-32.051-35.836-58.965-75.949-79.977-119.19-2.5625-5.3828-5.125-10.766-7.4336-16.148-2.3086-5.3828-5.6406-5.5117-10.254-3.0742-7.0508 3.7148-8.332 8.8438-2.3086 19.098l0.003906-0.003906c12.941 24.301 27.992 47.418 44.984 69.082 7.2109 7.4648 13.609 15.672 19.098 24.48 11.332 19.32 24.188 37.707 38.449 54.98 2.9531 5.3008 7.6914 9.3828 13.371 11.516 5.6797 2.1367 11.93 2.1875 17.645 0.14844zm400.77-449.86c10.383 1.4102 19.867 8.5859 29.605 0 2.0508-1.9219 5.2539 0 7.4336 1.1523v0.003907c3.5625 2.4492 7.7305 3.8672 12.047 4.0977 16.176 0.69922 32.34-1.6016 47.676-6.793 3.6016-1.0586 6.9297-2.8945 9.7422-5.3828 6.0234-5.6406 5.8945-7.9453-1.2812-11.664v0.003907c-3.9883-1.5273-7.8438-3.3711-11.535-5.5117-11.598-8.4492-26.773-10.199-39.988-4.6133-15.984 4.6719-31.312 11.348-45.625 19.863-2.9492 1.5391-7.1758 2.3086-8.0742 8.8438zm123.29-28.582v0.003906c15.254-12.367 26.766-28.738 33.238-47.277 6.4727-18.539 7.6562-38.516 3.418-57.691-6.4453 6.2812-12.441 13.004-17.945 20.121-17.43 25.25-31.785 51.395-18.711 84.848zm-97.148-73.566v0.003907c16.703 32.969 45.074 58.551 79.59 71.77 1.8789-5.3242 2.2734-11.055 1.1445-16.586-1.1289-5.5312-3.7383-10.652-7.5508-14.812-15.672-25.316-43.414-40.621-73.184-40.371zm51.266 191.48c33.195-12.816 53.699-59.34 39.73-89.715-28.195 9.4883-51.266 60.367-40.371 89.719zm-135.47-144.05c-2.293-18.461-11.012-35.527-24.625-48.203-13.617-12.68-31.262-20.16-49.84-21.133 3.7188 28.324 30.121 52.035 74.465 69.336zm-347.45 559.44c-1.5391 0-2.9492 0-3.4609 1.0234-19.805 21.195-38.293 43.582-55.367 67.031-1.2305 1.7383-2.2227 3.6367-2.9453 5.6406-1.6445 4.2188 0.11328 9 4.1016 11.148 3.8438 2.5625 5.7656-1.0234 7.9453-3.0742 11.988-10.992 26.523-18.832 42.293-22.812 8.8438-2.4336 11.664-6.2812 9.4844-14.484-3.6953-14.531-4.3906-29.664-2.0508-44.473zm194.68-518.81c0.89844 3.2031-3.0742 9.6133 4.1016 12.816 5.2539 2.1797 12.816 2.9492 14.867-1.0234 3.332-8.8438 9.9961-11.535 17.176-14.996 1.2109-0.625 2.1133-1.7188 2.5-3.0234s0.22656-2.7148-0.44922-3.8984c-1.0234-2.4336-3.0742-1.9219-5.3828-1.668-10.895 1.0234-12.047 0-12.816-9.3555-0.62109-6.3867-0.92188-12.805-0.89844-19.223 0-3.2031 0-6.5352-3.7148-8.0742-10.637-3.8438-7.3047-9.6133-2.0508-15.637 2.2188-2.3281 3.9609-5.0742 5.125-8.0742 1.5391-5.125 0-8.7148-6.2812-8.2031-6.6055 1.7148-13.598 1.1758-19.863-1.5352-7.0508-3.7148-12.816 4.3594-10.125 12.176 2.6914 7.8164 6.6641 14.738 10.125 21.918v-0.003906c1.2227 2.3633 3.2773 4.1875 5.7656 5.125 12.816 6.5352 15.125 15.125 6.9219 25.633-4.1367 4.6484-5.9688 10.902-5 17.047zm373.86 64.082c0-1.1523-1.4102-1.9219-2.8203-2.5625-2.6367-0.91406-5.5625 0.027344-7.1758 2.3047-3.7148 3.8438-5.8945 10.766-12.816 3.0742s-12.816-6.2812-17.688 5.2539v0.003906c-3.7422 8.1445-8.7109 15.664-14.738 22.301-2.5625 3.0742-7.8164 3.9727-6.2812 9.6133 1.2461 4.8242 5.418 8.3242 10.383 8.7148 14.805 0.1875 28.523 7.7969 36.527 20.25 3.0742 5.125 8.9727 2.3086 12.816-1.1523s2.4336-6.6641-1.9219-8.9727c-4.3594-2.3086-4.1016-7.0508-4.6133-11.277 0.085937-5.8984-0.47266-11.785-1.668-17.559-1.6484-3.7617-1.8945-7.9883-0.69531-11.914 1.1992-3.9258 3.7656-7.293 7.2305-9.4922 2.6445-1.7734 4-4.9336 3.4609-8.0742zm45.883 6.2812c-2.3086-33.965-44.73-71.258-79.973-62.289 16.02 33.707 48.188 45.883 80.102 62.801zm-230.57-198.14c-27.172-22.812-79.207-22.684-112.79 0 23.07 11.918 78.691 12.43 112.79 0zm238.77 489.97c-20.508-10.125-37.68-12.816-55.238-3.4609-1.9609 0.62891-4.0664 0.62891-6.0234 0-17.301-1.1523-27.684 10.508-38.449 21.273 34.859 10.641 66.004-0.125 99.711-17.812zm-371.68-482.02c-32.555-10.637-76.898 2.6914-92.789 26.914 31.656 7.0469 75.871-5.3828 92.531-26.914zm160.33 439.86c18.402 21.738 41.984 38.488 68.57 48.699 4.8711 1.668 11.277 6.0234 14.738 0s-1.9219-10.895-5.5117-15.508c-12.496-13.469-28.258-23.488-45.754-29.09-10.027-4.5547-21.191-5.9844-32.043-4.1016zm128.16-40.758c-20.094 21.195-32.27 48.672-34.477 77.797-0.76953 4.8711-2.1797 12.047 4.6133 13.969 6.793 1.9219 7.8164-4.4844 10.895-8.0742 20.637-23.582 21.02-51.906 19.484-83.691zm-283.75-386.29c-25.633 19.223-40.242 58.316-30.633 83.18 29.352-24.992 43.449-55.625 30.633-83.18zm380.65 78.051c-16.215-5.3906-33.582-6.2812-50.262-2.5781-16.68 3.6992-32.043 11.855-44.453 23.598 24.863 9.2266 71.645-0.76953 95.227-21.02zm-203.65 83.434c21.66 9.3555 25.633 17.816 18.199 39.473-1.1523 3.4609-4.1016 7.3047 0 9.8672 7.1758 4.1016 7.1758 12.816 11.148 18.711v0.003906c3.0156-1.8672 5.4609-4.5312 7.0664-7.6953 1.6016-3.1641 2.3086-6.707 2.0352-10.246-0.98438-13.906-0.035156-27.879 2.8164-41.523 1.3867-4.5391 0.15625-9.4688-3.2031-12.816-3.5898 0.89844-5.6406 5.3828-9.7422 3.9727-4.1016-1.4102-1.793-3.8438-2.1797-5.8945-2.0508-9.7422-5.2539-11.406-12.047-4.7422-3.7148 3.5859-9.8672 4.7383-14.094 10.891zm19.094 400.26c13.074-5.7305 24.848-14.059 34.605-24.48 9.5742-9.6797 15.812-22.16 17.816-35.629 1.1523-8.457-2.6914-10.895-10.508-7.6914h-0.003907c-8.6758 3.2578-15.996 9.3555-20.762 17.305-9.1562 15.871-16.262 32.84-21.148 50.496zm-204.16-591.48c-11.047-18.418-27.273-33.172-46.652-42.422-9.7812-6.2305-21.219-9.3555-32.809-8.9727 10.637 26.914 41.652 42.551 79.461 51.395zm309.26 605.96c-0.15234-16.234-3.4141-32.289-9.6094-47.293-4.3711-10.469-11.289-19.676-20.121-26.789-3.2031-2.3086-6.9219-4.4844-10.254-2.1797-3.332 2.3086-2.1797 5.8945-1.5391 9.1016 5.0156 26.77 19.82 50.711 41.523 67.16zm49.73-259.28c5.7969-19.285 3.6758-40.086-5.8984-57.801-11.789 23.324-10.379 41.141 5.8984 57.801zm-272.09-122.01c6.5625-5.8516 11.273-13.496 13.551-21.988 2.2773-8.4922 2.0195-17.469-0.73438-25.816-11.551 13.031-16.301 30.738-12.816 47.805zm-339.25 633.26c0.32812-3.3281-1.4688-6.5039-4.4844-7.9453-6.0039-3.7266-13.129-5.2227-20.121-4.2305-3.0742 0-7.1758 0-8.457 3.2031s2.1797 5.6406 4.7422 7.3047h-0.003906c4.8398 3.4258 9.9375 6.4688 15.25 9.1016 2.6133 1.957 6.1367 2.1758 8.9727 0.5625 2.8359-1.6094 4.4453-4.75 4.1016-7.9961zm394.88-648.38c-23.453 2.5625-37.297 10.766-42.551 24.352 17.008-1.668 32.492-10.531 42.551-24.352zm-403.59-299.52c-11.148 17.816-11.918 26.785-3.7148 39.473 12.688-15.25 13.457-21.016 3.7148-39.473zm640.82 452.68c25.633 4.3594 38.449 0.64062 46.781-12.047-17.816-4.7422-31.145 3.0742-47.809 12.047zm0 14.355c10.383 18.457 21.789 24.48 35.375 19.098-3.0312-6.5898-8.1211-12.012-14.5-15.457-6.3789-3.4414-13.707-4.7227-20.875-3.6406zm-474.21 459.72h4.7422c2.7422-0.15625 5.3867-1.0664 7.6445-2.625 2.2617-1.5625 4.0508-3.7109 5.1719-6.2188 1.25-3.1484-0.22656-6.7227-3.332-8.0742-2.4141-1.6562-5.2734-2.5469-8.2031-2.5469s-5.7891 0.89062-8.2031 2.5469c-0.92969 0.53125-1.793 1.1797-2.5625 1.9258-2.8203 3.0742-7.3047 5.8945-5.7656 10.508 1.5352 4.6133 6.6641 3.7148 10.508 4.4844zm401.54-459.59c6.6836 3.0352 14.234 3.5781 21.285 1.5352 7.0508-2.0469 13.141-6.5469 17.164-12.688-13.887-3.293-28.48 0.94141-38.449 11.152zm-204.55-131.75c10.246 7.0312 21.66 12.195 33.707 15.25 1.293 0.44922 2.707 0.36328 3.9336-0.23828 1.2305-0.60156 2.1641-1.668 2.6016-2.9648 1.1523-3.0742-1.4102-4.8711-3.7148-6.2812-10.742-7.1797-24.094-9.2891-36.527-5.7656zm-7.3047 47.293c5.4297-12.242 5.4297-26.207 0-38.449-0.76953-1.4102-1.668-3.332-3.4609-2.6914-1.3398 0.60938-2.3945 1.7109-2.9492 3.0742-2.5469 6.3203-3.2969 13.219-2.168 19.938 1.1328 6.7188 4.1016 12.992 8.5781 18.129zm273.25 64.082c13.48-11.586 22.086-27.836 24.094-45.5-13.816 11.426-22.492 27.898-24.094 45.754zm-563.92 392.44c-1.793-20.379-10.125-27.301-27.941-24.734 7.5977 9.8828 16.883 18.344 27.426 24.992zm575.2-332.46c4.7422-18.711-5.3828-28.195-16.277-37.426 1.668 13.793 7.3242 26.801 16.277 37.426zm-345.27-187.38c12.047 4.7422 21.918 9.6133 33.836 2.1797-4.6328-4.0039-10.445-6.3828-16.555-6.7773-6.1055-0.39453-12.176 1.2227-17.281 4.5977zm19.738-38.449c7.0508 10.125 5.8945 25.633 21.789 31.273 1.0234-17.562-11.023-24.227-21.789-31.66zm-296.7-277.73c-5.7656 0-6.0234 2.9492-4.8711 6.2812h0.003906c3.1992 6.793 8.9609 12.047 16.02 14.613 1.3828 0.62891 2.9727 0.62891 4.3555 0 1.8359-1.3398 2.2891-3.8828 1.0273-5.7695-3.1719-7.1172-9.1602-12.598-16.535-15.125zm-64.98 16.406h0.003906c6.3242 0.29688 12.59-1.3164 17.988-4.6289 5.3945-3.3164 9.6641-8.1758 12.258-13.953-12.262 1.6211-23.258 8.375-30.246 18.582zm56.266-66.516c-8.6406 8.8086-12 21.52-8.8438 33.449 8.082-9.1172 11.363-21.527 8.8438-33.449zm329.77 381.54c-14.484 0.76953-17.43 3.0742-21.402 17.301 8.3789-4.0273 15.707-9.9531 21.402-17.301zm-297.08 377.57c-8.8945-5.6758-19.184-8.7812-29.734-8.9688 9.8672 7.1758 16.148 14.867 29.734 8.9688zm284.39-594.68c3.5898 4.4844 5.8945 9.2266 11.793 7.3047 1.9219-0.64063 3.2031-3.9727 1.9219-5.3828-3.0781-4.4844-7.4336-5.2539-13.715-1.9219zm284.14 358.86c-4.1523 4.8438-5.4219 11.531-3.332 17.559 3.8477-4.9844 5.0859-11.508 3.332-17.559zm-406.02-400.26c-0.82812-0.11328-1.6523 0.22656-2.1562 0.89063-0.50391 0.66406-0.61328 1.5508-0.27734 2.3164 0.82422 2.5664 3.1953 4.3203 5.8945 4.3555 1.668 0 3.4609 0 3.2031-2.3086-0.25781-2.3047-4.3555-4.6133-6.6641-5.2539z"/>
 <path d="m507.08 70.875c4.0508-0.28516 8.0547 1.0312 11.148 3.668 3.0898 2.6367 5.0234 6.3828 5.3828 10.43-0.92188 6.4375-6.3164 11.293-12.816 11.535-4.0352 0.23828-8.0195-1.0312-11.168-3.5664-3.1523-2.5352-5.2461-6.1523-5.875-10.148-1.0273-7.1758 4.3555-11.789 13.328-11.918z"/>
 <path d="m550.79 171.36c0 7.3047-5.3828 15.25-10.895 15.766-5.5117 0.51172-11.918-7.3047-12.816-14.484 0-7.0781 5.7383-12.816 12.816-12.816 2.9805 0.066407 5.8086 1.3242 7.8555 3.4922s3.1406 5.0625 3.0391 8.043z"/>
 <path d="m333.93 51.266c-0.37891 3.4609-2.1523 6.6172-4.9062 8.7461-2.7578 2.125-6.2578 3.0391-9.7031 2.5312-3.293 0.023437-6.4414-1.3672-8.6445-3.8164-2.2031-2.4492-3.2578-5.7227-2.8906-9 1.6484-6.6094 8.1797-10.773 14.867-9.4844 7.3047 0.12891 11.664 4.2305 11.277 11.023z"/>
 <path d="m592.82 86.641c2.5625-8.9727 7.6914-14.738 0-22.172 8.2031 0 14.484 7.6914 21.02-1.2812-4.8711 9.8672-0.64062 17.816 0.76953 26.914-7.8203 1.0234-12.562-5.2578-21.789-3.4609z"/>
 <path d="m657.16 110.09c-0.41797 6.3047-5.3672 11.363-11.66 11.918-5.7266-0.27344-10.203-5.0352-10.125-10.766-0.1875-3.0039 0.98828-5.9297 3.2031-7.9688 2.2109-2.0352 5.2227-2.9688 8.2031-2.5391 5.3555-0.027343 9.8516 4.0234 10.379 9.3555z"/>
 <path d="m270.23 83.562c-4.3594-1.5391-9.1016-4.1016-8.7148-8.457 1.5391-14.355 0-29.348 9.7422-41.781-2.0508 11.664 1.2812 24.094-4.7422 35.246-2.9492 5.5117 2.5625 9.9961 3.332 15.25z"/>
 <path d="m761.23 107.4c3.9766 2.8906 8.6797 4.6211 13.586 4.9961-1.1602 6.6055-4.6641 12.566-9.8711 16.789-3.7148-7.0469-1.4062-13.84-3.7148-21.785z"/>
 <path d="m668.05 70.617c2.582 2.1758 4.4766 5.0508 5.457 8.2812 0.97656 3.2344 0.99609 6.6797 0.054687 9.918-5.2539-7.1758-1.0273-14.48-5.5117-18.199z"/>
 <path d="m269.85 83.82c8.3594 1.2305 15.828 5.8711 20.637 12.816-11.918 1.9219-14.227-8.457-20.25-12.816z"/>
 <path d="m637.17 66.516c3.9727 1.4102 9.2266 1.5391 8.332 7.0508-0.57422 1.4883-1.8906 2.5625-3.4609 2.8203-6.793-0.38672-3.5898-6.1523-4.8711-9.8711z"/>
 <path d="m531.95 33.965c2.2031 0.25781 3.8594 2.1367 3.8438 4.3555 0 2.8203-0.76953 5.5117-3.7148 6.0234-2.9492 0.51172-2.9492-2.3086-2.8203-4.2305s-0.51172-5.2539 2.6914-6.1484z"/>
 <path d="m580.65 44.09c2.1797 5.3828 2.9492 9.6133-2.5625 13.84-2.5664-6.0234-0.003907-9.4844 2.5625-13.84z"/>
 <path d="m478.25 40.371c0 0.76953-1.1523 2.8203-2.1797 3.0742-3.0742 0.76953-4.6133-1.2812-5.125-3.9727h-0.003906c-0.14844-0.80859 0.11719-1.6367 0.71094-2.207 0.59375-0.56641 1.4375-0.79688 2.2383-0.60938 1.0742-0.10938 2.1484 0.22656 2.9688 0.92969 0.82422 0.69922 1.3242 1.707 1.3906 2.7852z"/>
 <path d="m454.66 86.125c0-3.5898 0-6.4062 5-5.8945 0.89844 0 2.4336 1.0234 2.4336 1.5391 0 4.2305-3.0742 4.8711-6.1523 5.6406z"/>
 <path d="m339.19 590.32c95.867-114.32 124.83-247.74 114.32-394.88h-0.003907c5.6875 3.6445 9.0078 10.043 8.7148 16.789 1.2812 31.145 1.793 62.543 0 93.688-2.2266 30.078-7.3789 59.867-15.379 88.949-13.863 57.762-38.613 112.35-72.926 160.84-8.9141 13.934-20.766 25.742-34.73 34.605z"/>
 <path d="m389.3 637.62c1.668-2.5625 2.0508-3.8438 2.8203-4.2305 46.402-20.434 89.203-48.219 126.75-82.281 24.094-20.508 50.113-38.449 73.824-59.852 15.766-13.969 31.398-27.941 45.883-43.191 4.3008-5.6406 10-10.055 16.531-12.816 2.5625 6.5352-2.0508 9.8672-5.5117 13.586-23.887 25.688-49.586 49.629-76.898 71.641-24.094 19.738-49.598 38.449-73.438 58.059-20.211 16.98-42.266 31.641-65.746 43.707-14.199 6.5625-29.012 11.711-44.219 15.379z"/>
 <path d="m408.27 686.96c3.8281-7.5664 9.9219-13.75 17.43-17.688 52.691-33.902 109.85-60.301 169.82-78.438 36.527-11.406 74.078-19.098 110.48-30.633 12.918-4.0703 26.324-6.3984 39.859-6.918-1.5391 8.0742-7.3047 7.4336-11.793 8.457-28.965 6.1523-57.93 12.816-86.383 21.273v0.003906c-58.797 16.055-115.99 37.508-170.84 64.082-21.297 10.496-41.551 22.98-60.496 37.293-2.0508 1.668-3.7148 4.1016-8.0742 2.5664z"/>
 <path d="m569.24 333.23c3.5898 5.5117 0 10.125-2.1797 14.609-17.289 39.484-39.188 76.781-65.234 111.12-22.301 30.504-45.84 60.023-70.617 88.562l-0.003907-0.003906c-16.863 19.633-36.508 36.688-58.312 50.625-2.1797 1.2812-4.3594 3.2031-7.5625 1.4102 1.1523-5.2539 5.6406-7.4336 9.4844-9.8672 26.984-19.773 51.098-43.195 71.645-69.594 26.281-32.141 50.922-65.59 73.82-100.22 16.078-24.898 30.055-51.094 41.781-78.309 1.5391-3.4609 1.5391-8.332 7.1797-8.332z"/>
 <path d="m826.34 748.48c-51.266-9.1016-99.969-31.016-152.77-34.477s-103.3-10.637-155.34-6.1523c48.195-20.375 225.7 0.76953 308.11 40.629z"/>
 <path d="m478.63 680.42c8.2031-9.8672 20.633-10.254 31.527-13.715v0.003907c22.961-6.25 46.703-9.1406 70.492-8.5898 45.371-0.89844 90.484-6.1523 135.6-10.254v0.003906c22.516-1.668 45.102-2.1797 67.668-1.5391 1.668 0 3.332 0 4.1016 2.6914 0.76953 2.6914-2.3086 2.9492-4.1016 2.8203-39.93-1.2461-79.891 1.3711-119.32 7.8164-17.629 2.4766-35.391 3.9297-53.188 4.3594-39.395 0.625-78.617 5.3945-117.01 14.227-5.1836 1.5977-10.609 2.2461-16.023 1.9219z"/>
 <path d="m342.26 159.95c23.199 25.633 36.141 99.328 22.043 126.11-0.87891-22.109-3.0625-44.152-6.5352-66.004-4.8711-20.121-10.383-40.629-15.508-60.109z"/>
 <path d="m478.37 680.17c-19.242 8.8594-37.871 19.008-55.75 30.375 1.9219-9.7422 8.5859-16.789 23.453-22.684v-0.003906c9.6484-5.9844 21.008-8.5977 32.297-7.4336z"/>
 <path d="m273.95 736.82c5-19.609 15.766-28.836 30.504-29.094 2.1797 0 4.3594 0 5.2539 2.4336 0.45312 1.0156 0.41016 2.1836-0.11719 3.1602-0.52734 0.97656-1.4766 1.6562-2.5742 1.8398-12.766 4.1211-24.188 11.602-33.066 21.66z"/>
 <path d="m309.71 781.8c1.5625-13.141 9.4648-24.68 21.148-30.887 1.25-1.082 3.1055-1.082 4.3594 0 1.7617 1.457 2.0977 4.0312 0.76562 5.8945-1.6836 2.7578-3.7578 5.2617-6.1484 7.4336-6.5391 4.7422-13.461 11.023-20.125 17.559z"/>
 <path d="m263.31 640.82c0.22266 2.5195-0.64844 5.0156-2.3867 6.8516-1.7383 1.8398-4.1836 2.8438-6.7109 2.7617-11.793 0.76953-23.711 0.76953-35.5 0.89844l-0.003906-0.003906c-1.4727-0.22266-2.7539-1.125-3.4609-2.4336-0.27734-0.74609-0.20703-1.582 0.1875-2.2734 0.39453-0.69531 1.0781-1.1758 1.8633-1.3164 15.461 0.28906 30.898-1.2148 46.012-4.4844z"/>
 <path d="m244.47 685.42c3.2461-5.5352 8.0977-9.9453 13.914-12.648 5.8164-2.6992 12.32-3.5664 18.641-2.4766 1.5391 0 2.9492 1.4102 2.8203 3.332 0.039063 1.6484-1.0859 3.0977-2.6914 3.4609z"/>
 <path d="m771.36 310.41c-0.28906 2.7773-0.97656 5.4961-2.0508 8.0742-4.4844 8.5859-17.688 8.9727-30.246 1.1523-12.559-7.8164-14.738-16.789-8.7148-25.633s13.586-6.1523 20.633-6.6641c9.1016-0.25781 20.379 12.559 20.379 23.07z"/>
 <path d="m889.39 527.27c0.066407-4.293 1.8281-8.3867 4.9023-11.387 3.0742-3.0039 7.207-4.668 11.504-4.6328 4.4531 0.79297 8.5117 3.0508 11.531 6.4219 3.0195 3.3672 4.8281 7.6484 5.1289 12.164 0.14453 4.3398-1.6172 8.5273-4.8203 11.457-3.2031 2.9336-7.5312 4.3203-11.84 3.793-4.5117-0.26562-8.7422-2.2695-11.805-5.5938-3.0586-3.3242-4.7109-7.7031-4.6016-12.223z"/>
 <path d="m971.8 877.03c0 12.816-3.8438 17.047-15.637 17.301-11.793 0.25781-20.891-5.7656-20.891-17.301 0.51953-5.6992 3.1992-10.984 7.4883-14.773 4.2891-3.7852 9.8633-5.793 15.582-5.6055 9.2266 0.12891 13.328 6.4102 13.457 20.379z"/>
 <path d="m960.91 405.38c0 8.5859-4.2305 15.637-8.8438 14.738-4.6133-0.89844-7.8164-6.5352-8.332-12.047-0.51172-5.5117 3.332-8.5859 8.5859-9.3555h0.003907c2.0625-0.56641 4.2695-0.125 5.957 1.1836 1.6914 1.3125 2.6641 3.3438 2.6289 5.4805z"/>
 <path d="m299.33 102.53c-5.5781-4.9219-12.332-8.3242-19.609-9.8672h-1.5391c-3.3125-0.21094-6.5195-1.2227-9.3555-2.9492-4.2969-4.3398-6.5352-10.309-6.1523-16.406-1.1797-9.7031-0.4375-19.543 2.1797-28.965 1.4961-5.1172 4.4062-9.707 8.3984-13.246 3.9883-3.5352 8.8984-5.875 14.156-6.7461h5.2539c4.7422 0 7.6914 0 9.3555-1.9219h0.003906c0.77344-1.3125 1.3359-2.7422 1.6641-4.2305 0.32812-1.8438 0.84375-3.6445 1.5391-5.3828 3.5117-5.7695 9.2734-9.8125 15.891-11.148 12.816-4.4844 19.223-0.76953 21.918 3.0742 1 1.6719 1.7344 3.4883 2.1797 5.3828 0.64062 1.793 1.0234 3.332 2.0508 3.9727 1.0234 0.64062 4.1016 0 6.5352 0 10.895-3.5898 24.223-1.668 27.941 8.457v0.003906c0.88672 3.707 0.88672 7.5703 0 11.277-0.066406 0.85156-0.066406 1.7109 0 2.5625-0.70312 8.4297 1.5156 16.848 6.2773 23.84l-5.125 3.8438c-5.5703-8.2461-8.1484-18.152-7.3047-28.066-0.066407-0.89844-0.066407-1.7969 0-2.6914 0.64844-2.7422 0.64844-5.5938 0-8.332-2.4336-6.793-12.816-6.6641-19.867-4.6133-3.832 1.918-8.3438 1.918-12.176 0-2.3398-1.9141-3.9297-4.5938-4.4844-7.5625-0.34766-1.1992-0.82031-2.3594-1.4102-3.4609-2.6914-3.9727-10.125-2.0508-14.484 0-4.3594 2.0508-10.254 3.7148-12.047 7.6914-0.48047 1.0156-0.82422 2.0938-1.0234 3.2031-0.60156 1.9531-1.5547 3.7773-2.8203 5.3828-3.8047 3.5898-9.0625 5.1992-14.227 4.3594h-5c-3.9922 0.77734-7.6875 2.6523-10.676 5.4141-2.9883 2.7617-5.1484 6.3008-6.2383 10.219-2.3984 8.7148-3.1797 17.793-2.3086 26.789 0 4.3594 0.76953 9.3555 3.7148 11.535 1.9844 1.2422 4.2148 2.0312 6.5391 2.3047h1.668-0.003906c8.3398 1.7969 16.07 5.7266 22.43 11.406z"/>
 <path d="m591.03 98.172-4.4844-4.7422c3.5391-3.5078 6.043-7.9219 7.2422-12.758 1.1992-4.8398 1.043-9.9141-0.44922-14.668-1.2617-4.4648-4.6055-8.0469-8.9727-9.6133-1.332-0.4375-2.7695-0.4375-4.1016 0-0.90625 2.7344-2.1992 5.3242-3.8438 7.6914l-4.7422 6.0234-1.0234-7.6914c-0.34375-3.4961 1.043-6.9414 3.7148-9.2266l0.89844-0.76953c1.3125-4.4844 1.3711-9.2422 0.17578-13.762-1.1992-4.5195-3.6094-8.6211-6.9688-11.871-5.1719-3.8633-11.777-5.2695-18.07-3.8438-5.3359 1.1562-9.9688 4.4453-12.816 9.0977 0 7.6914-0.76953 15.508-1.668 23.199l-2.3086 20.762-4.1016-20.508 0.003907 0.003906c-2.2148-8.5039-1.6289-17.492 1.6641-25.633v-1.1562c0.48047-5.6094-0.96484-11.215-4.1016-15.891-4.4844-5.7656-12.816-6.6641-27.941-2.6914-9.3555 2.5625-19.098 6.1523-21.531 13.969-0.89062 5.1953-0.26562 10.531 1.7969 15.379 2.0898 5.3359 2.9219 11.082 2.4336 16.793l-1.2812 8.332-4.6133-7.0508c-5.1875-7.8281-8.9609-16.504-11.152-25.633-4.168 0.94922-7.9609 3.1094-10.902 6.2109-2.9414 3.1016-4.9023 7.0039-5.6289 11.219l-6.4062-0.89844h-0.003906c1.0547-6.168 4.1602-11.801 8.8125-15.988 4.6484-4.1836 10.578-6.6797 16.82-7.082h2.8203v2.6914c-0.015625-1.832 0.28906-3.6523 0.89844-5.3828 3.332-10.895 14.996-15.508 25.633-18.457 10.637-2.9492 26.402-5.6406 34.734 5h-0.003906c2.75 3.7266 4.3125 8.1914 4.4883 12.816 3.4492-2.9062 7.6055-4.8516 12.047-5.6367 8.1914-1.8555 16.781 0.023438 23.453 5.125 8.0938 7.0742 11.887 17.871 9.9961 28.453 1.1953-0.13281 2.3984-0.13281 3.5898 0 6.9219 1.8672 12.363 7.2109 14.355 14.098 1.8867 5.9062 2.0977 12.227 0.60547 18.246-1.4961 6.0195-4.6328 11.508-9.0664 15.844z"/>
 <path d="m687.54 113.55h-6.5352c0-9.3555 8.8438-15.125 15.637-19.738l1.1523-0.76953c4.6133-3.0742 11.664-10.125 8.8438-15.891-2.8086-3.7773-7.6094-5.4961-12.176-4.3594-4.5234 0.78516-8.7539 2.7656-12.246 5.7422-3.4961 2.9766-6.125 6.8359-7.6211 11.176-0.22266 1.3828-0.52344 2.75-0.89453 4.1016l-6.4062-1.2812h-0.003906c0.26953-1.5117 0.60938-3.0078 1.0273-4.4883 1.4062-6.8906 1.4062-13.996 0-20.891-0.17188-1.3125-0.60547-2.5742-1.2812-3.7148-1.1641-1.5312-2.8555-2.582-4.7422-2.9492-2.7109-0.66797-5.5547-0.53906-8.1914 0.37109-2.6367 0.91016-4.957 2.5625-6.6758 4.7578 3.1641 5.4961 3.7266 12.117 1.5352 18.07l-1.9219 4.8711-3.4609-3.8438v-0.003906c-4.375-5.082-5.7383-12.102-3.5859-18.453-0.83203-0.80469-1.7344-1.5352-2.6914-2.1797-2.7812-1.6875-6.0352-2.4258-9.2734-2.1016-3.2344 0.32422-6.2773 1.6914-8.6719 3.8945-0.81641 0.67969-1.4375 1.5625-1.793 2.5664-0.25781 1.3086-0.25781 2.6602 0 3.9727 1.668 11.535 3.7148 23.199 6.5352 34.605l-6.4062 1.5391c-2.6914-11.664-4.8711-23.453-6.5352-35.246l-0.003906-0.003906c-0.44531-2.2422-0.44531-4.5508 0-6.793 0.79297-1.9922 2.0703-3.7539 3.7188-5.125 3.4141-3.1523 7.7617-5.1055 12.387-5.5703 4.625-0.46094 9.2734 0.59375 13.246 3.0078l2.1797 1.668v-0.003906c2.5078-2.9492 5.8008-5.1289 9.5-6.2891 3.6953-1.1562 7.6445-1.2422 11.391-0.24609 3.4492 0.70312 6.4844 2.7266 8.457 5.6406 1.1719 1.8281 1.957 3.8789 2.3086 6.0234 0.64453 3.2539 1.0273 6.5508 1.1523 9.8672 4.6992-4.9883 10.918-8.2773 17.688-9.3555 3.5625-0.82031 7.293-0.50781 10.672 0.89063 3.375 1.4023 6.2344 3.8242 8.168 6.9258 4.4844 9.2266-3.0742 18.84-11.023 24.223l-1.1523 0.76953c-5.7656 4.2305-12.047 8.5898-12.305 14.613z"/>
 <path d="m798.78 135.6-1.9219-6.1523c5.2148-1.7266 9.8164-4.9375 13.23-9.2422 3.4141-4.3008 5.5-9.5078 5.9961-14.98 0.49219-1.9336 0.49219-3.9609 0-5.8945-0.95313-2.0469-2.6484-3.6523-4.7422-4.4883-3.1211-1.2812-6.6211-1.2812-9.7422 0-5.3516 2.7422-9.5742 7.2812-11.918 12.816v1.4102l-5.7656-2.9492v-0.89844l-0.003907 0.003906c0.14844-0.90625-0.082031-1.832-0.64062-2.5625-1.0117-1.6523-2.8008-2.668-4.7422-2.6914-4.1719 1.0195-7.375 4.3711-8.2031 8.5859-0.87109 3.7812-1.2148 7.6602-1.0234 11.535v4.2305h-6.4062c0.027343-6.125-0.66016-12.234-2.0508-18.199-1.2812-5.125-3.2031-8.2031-5.7656-9.2266l-0.003906-0.003906c-1.9062-0.33203-3.8594-0.33203-5.7656 0-4.3945 0.0625-8.7383 0.93359-12.816 2.5664-3.2305 1.4219-5.4727 4.4414-5.8984 7.9453h-6.5352c0.17188-2.9375 1.1445-5.7695 2.8164-8.1875 1.6758-2.4219 3.9805-4.332 6.668-5.5273 4.7188-1.9648 9.7578-3.0508 14.867-3.2031 2.8203-0.67969 5.7656-0.67969 8.5859 0 4.5273 2.0312 7.8477 6.0625 8.9727 10.895 2.3242-4.4453 6.6836-7.4648 11.664-8.0742 3.8672-0.23828 7.6016 1.4375 9.9961 4.4844 2.8164-4.25 6.7695-7.6211 11.406-9.7422 4.7266-1.9141 10.012-1.9141 14.738 0 3.6914 1.4414 6.6484 4.3047 8.2031 7.9492 1.0664 2.8164 1.4609 5.8438 1.1523 8.8438-0.44922 6.9922-3.0234 13.684-7.3711 19.18-4.3516 5.4961-10.273 9.5352-16.98 11.578z"/>
 <path d="m818.78 171.1c-7.3867-0.46094-14.512-2.8945-20.637-7.0469l3.332-5.6406c5.5898 4.043 12.328 6.1992 19.227 6.1523 3.4961-0.50391 6.6641-2.3398 8.8438-5.125 1.4023-1.7227 2.0078-3.9609 1.6641-6.1523l6.2812-1.1523v-0.003906c0.69141 3.9297-0.28516 7.9727-2.6914 11.152-3.0703 4.1758-7.6875 6.9453-12.816 7.6914z"/>
 <path d="m487.6 89.715h-10.895-11.535-11.277v-7.4336h8.8438-0.003906c-8.4883-3.2344-17.449-5.0547-26.527-5.3828v-6.4102c14.949 0.92578 29.395 5.7383 41.91 13.973z"/>
 <path d="m554.12 132.65c-2.0898-3.1719-2.7852-7.0625-1.9219-10.766l-15.637-9.3555c-1.082-0.71875-2.3047-1.1992-3.5898-1.4102-0.86328 0.12891-1.6914 0.43359-2.4336 0.89844-4.6328 2.6797-8.3438 6.6992-10.637 11.535l-5.8945-2.6914h-0.003906c2.7344-5.9961 7.1992-11.039 12.816-14.484 1.6797-1.0117 3.5625-1.625 5.5117-1.793 2.5273 0.15625 4.9648 1 7.0508 2.4336l20.633 12.816-1.4102 2.6914c-1.2891 2.1289-1.2891 4.7969 0 6.9219z"/>
 <path d="m600.51 128.16c-8.2148 0.48438-16.438-0.82812-24.094-3.8438-4.2422-1.8203-7.8398-4.8672-10.328-8.75-2.4922-3.8867-3.7578-8.4258-3.6406-13.039l6.5352 0.64062c0.070313 3.2227 1.0625 6.3594 2.8555 9.0391 1.793 2.6797 4.3164 4.7891 7.2695 6.0859 6.8516 2.6562 14.191 3.8359 21.531 3.457z"/>
</svg>
