<?xml version="1.0" encoding="UTF-8"?>
<svg width="1200pt" height="1200pt" version="1.1" viewBox="0 0 1200 1200" xmlns="http://www.w3.org/2000/svg">
 <path d="m490.88 653.55c-28.242-11.352-59.785-11.32-88.004 0.089844l-11.477-22.934v-0.003906c-1.5234-3.0508-4.6445-4.9805-8.0547-4.9766h-12.719c-2.3867 0-4.6758 0.94922-6.3594 2.6367l-50.91 50.91c-1.6914 1.6875-2.6406 3.9766-2.6406 6.3633v12.734c-0.003907 3.4102 1.9258 6.5312 4.9805 8.0547l22.949 11.477v-0.003906c-12.902 31.688-11.293 67.434 4.4102 97.828 15.703 30.395 43.922 52.395 77.227 60.207 33.309 7.8164 68.367 0.66016 95.949-19.582 32.105 21.391 71.832 28.023 109.14 18.223 37.316-9.8008 68.656-35.098 86.109-69.508 17.449-34.406 19.344-74.637 5.207-110.54s-42.961-64.031-79.188-77.297l6.6016-13.215c1.2656-2.5352 1.2656-5.5195 0-8.0547l-9-18c-1.5352-3.0625-4.6758-4.9844-8.1016-4.9648h-72c-3.4102 0-6.5312 1.9258-8.0547 4.9805l-9 18c-1.2695 2.5352-1.2695 5.5195 0 8.0547l6.6016 13.215c-20.566 7.582-38.98 20.035-53.672 36.301zm-147.48 46.59-14.684-7.3359v-3.4336l45.629-45.645h3.4336l7.3516 14.684zm33.586 131.86c-18.527-18.578-28.934-43.75-28.934-69.988 0-26.242 10.406-51.41 28.934-69.992 13.098-13.109 29.625-22.262 47.684-26.414 18.062-4.1523 36.926-3.1328 54.438 2.9414-18.301 27.074-26.137 59.871-22.051 92.293 4.082 32.422 19.809 62.25 44.25 83.941-19.043 12.453-41.785 17.98-64.418 15.652-22.633-2.3281-43.777-12.367-59.887-28.434zm138.55 1.3203c-22.48-18.926-36.996-45.637-40.645-74.797s3.8398-58.625 20.965-82.508c26.949 15.168 45.23 42.094 49.383 72.742 4.1523 30.645-6.3047 61.465-28.25 83.258-0.44922 0.48047-0.98828 0.83984-1.4375 1.3047zm45-224.32-4.5-9 4.5-9h60.871l4.5 9-4.5 9zm30.465 18c36.598-0.011719 71.094 17.102 93.223 46.25 22.133 29.148 29.348 66.973 19.504 102.22-9.8438 35.25-35.613 63.863-69.645 77.324-34.031 13.465-72.402 10.23-103.7-8.7422 25.074-25.492 37.113-61.047 32.688-96.531-4.4258-35.48-24.832-66.988-55.398-85.539 21.945-22.387 51.977-34.992 83.324-34.98z"/>
 <path d="m465 1050c0 11.934 4.7422 23.379 13.18 31.82 8.4414 8.4375 19.887 13.18 31.82 13.18s23.379-4.7422 31.82-13.18c8.4375-8.4414 13.18-19.887 13.18-31.82s-4.7422-23.379-13.18-31.82c-8.4414-8.4375-19.887-13.18-31.82-13.18s-23.379 4.7422-31.82 13.18c-8.4375 8.4414-13.18 19.887-13.18 31.82zm72 0c0 7.1602-2.8438 14.027-7.9062 19.094-5.0664 5.0625-11.934 7.9062-19.094 7.9062s-14.027-2.8438-19.094-7.9062c-5.0625-5.0664-7.9062-11.934-7.9062-19.094s2.8438-14.027 7.9062-19.094c5.0664-5.0625 11.934-7.9062 19.094-7.9062s14.027 2.8438 19.094 7.9062c5.0625 5.0664 7.9062 11.934 7.9062 19.094z"/>
 <path d="m978 195h-126v-54c-0.023438-21.477-8.5664-42.062-23.75-57.25-15.188-15.184-35.773-23.727-57.25-23.75h-522c-21.477 0.023438-42.062 8.5664-57.25 23.75-15.184 15.188-23.727 35.773-23.75 57.25v918c0.023438 21.477 8.5664 42.062 23.75 57.25 15.188 15.184 35.773 23.727 57.25 23.75h522c21.477-0.023438 42.062-8.5664 57.25-23.75 15.184-15.188 23.727-35.773 23.75-57.25v-152.25c0-4.9688-4.0312-9-9-9s-9 4.0312-9 9v152.25c0 16.707-6.6367 32.734-18.453 44.547-11.812 11.816-27.84 18.453-44.547 18.453h-522c-16.707 0-32.734-6.6367-44.547-18.453-11.816-11.812-18.453-27.84-18.453-44.547v-918c0-16.707 6.6367-32.734 18.453-44.547 11.812-11.816 27.84-18.453 44.547-18.453h522c16.707 0 32.734 6.6367 44.547 18.453 11.816 11.812 18.453 27.84 18.453 44.547v54h-27v-45c0-11.934-4.7422-23.379-13.18-31.82-8.4414-8.4375-19.887-13.18-31.82-13.18h-504c-11.934 0-23.379 4.7422-31.82 13.18-8.4375 8.4414-13.18 19.887-13.18 31.82v215.25c0 4.9688 4.0312 9 9 9s9-4.0312 9-9v-215.25c0-7.1602 2.8438-14.027 7.9062-19.094 5.0664-5.0625 11.934-7.9062 19.094-7.9062h153.9c2.0898 10.156 7.6172 19.285 15.648 25.844 8.0352 6.5586 18.082 10.145 28.453 10.156h108c10.371-0.011719 20.418-3.5977 28.453-10.156 8.0312-6.5586 13.559-15.688 15.648-25.844h153.9c7.1602 0 14.027 2.8438 19.094 7.9062 5.0625 5.0664 7.9062 11.934 7.9062 19.094v45h-153c-14.32 0-28.059 5.6875-38.184 15.816-10.129 10.125-15.816 23.863-15.816 38.184v153c0 14.32 5.6875 28.059 15.816 38.184 10.125 10.129 23.863 15.816 38.184 15.816h27v63c0.003906 3.668 2.2305 6.9688 5.6367 8.3398 3.4023 1.375 7.2969 0.54297 9.8438-2.1016l66.734-69.238h43.785v513h-558v-549c0-4.9688-4.0312-9-9-9s-9 4.0312-9 9v558c0 4.9688 4.0312 9 9 9h576c4.9688 0 9-4.0312 9-9v-522h27v396.75c0 4.9688 4.0312 9 9 9s9-4.0312 9-9v-396.75h126c14.32 0 28.059-5.6875 38.184-15.816 10.129-10.125 15.816-23.863 15.816-38.184v-153c0-14.32-5.6875-28.059-15.816-38.184-10.125-10.129-23.863-15.816-38.184-15.816zm-414-54h-108c-5.5898 0.007812-11.047-1.7188-15.613-4.9414-4.5703-3.2266-8.0234-7.7891-9.8867-13.059h159c-1.8633 5.2695-5.3164 9.832-9.8867 13.059-4.5664 3.2227-10.023 4.9492-15.613 4.9414zm450 261c0 9.5469-3.793 18.703-10.543 25.457-6.7539 6.75-15.91 10.543-25.457 10.543h-236.61c-2.4453 0-4.7852 0.99609-6.4805 2.7617l-53.91 55.934v-49.695c0-4.9688-4.0312-9-9-9h-36c-9.5469 0-18.703-3.793-25.457-10.543-6.75-6.7539-10.543-15.91-10.543-25.457v-153c0-9.5469 3.793-18.703 10.543-25.457 6.7539-6.75 15.91-10.543 25.457-10.543h342c9.5469 0 18.703 3.793 25.457 10.543 6.75 6.7539 10.543 15.91 10.543 25.457z"/>
 <path d="m942 258h-143.25c-4.9688 0-9 4.0312-9 9s4.0312 9 9 9h143.25c4.9688 0 9-4.0312 9-9s-4.0312-9-9-9z"/>
 <path d="m672 276h72.75c4.9688 0 9-4.0312 9-9s-4.0312-9-9-9h-72.75c-4.9688 0-9 4.0312-9 9s4.0312 9 9 9z"/>
 <path d="m942 312h-270c-4.9688 0-9 4.0312-9 9s4.0312 9 9 9h270c4.9688 0 9-4.0312 9-9s-4.0312-9-9-9z"/>
 <path d="m852 366h-180c-4.9688 0-9 4.0312-9 9s4.0312 9 9 9h180c4.9688 0 9-4.0312 9-9s-4.0312-9-9-9z"/>
 <path d="m231 393c0 4.9688-4.0312 9-9 9s-9-4.0312-9-9 4.0312-9 9-9 9 4.0312 9 9"/>
 <path d="m852 879c0 4.9688-4.0312 9-9 9s-9-4.0312-9-9 4.0312-9 9-9 9 4.0312 9 9"/>
 <path d="m780 267c0 4.9688-4.0312 9-9 9s-9-4.0312-9-9 4.0312-9 9-9 9 4.0312 9 9"/>
</svg>
