<?xml version="1.0" encoding="UTF-8"?>
<svg width="1200pt" height="1200pt" version="1.1" viewBox="0 0 1200 1200" xmlns="http://www.w3.org/2000/svg">
 <path d="m842.44 440.11c22.359 0-21.891-24.656-28.688-170.26 50.109 66.469 211.97 65.859 257.68 0.32812-3.0938 98.25-30 177.74-74.438 216.14-33.234 28.875-59.203 21.094-68.109 21.75-10.031 0-14.109 19.969 28.875 11.672 2.1094 36.797-4.3594 51.891 6.1406 51.891 10.688 0 4.0312-15.234 5.8594-55.453 93.094-32.578 116.44-181.13 114-281.21-2.1094-15.562 6.9844 4.3594-13.453-95.344-24-89.531-242.26-83.531-257.34 4.875-34.078 150.79 17.016 295.6 29.484 295.6zm125.02-133.78c-2.5781-0.65625-58.547 8.1094-109.64-16.688-54-25.969-48.984-62.109-39.422-112.55 38.109 71.344 209.34 70.547 247.31-0.14062 4.0312 24.469 6 53.344 5.8594 57.422-3.0938 45.375-55.594 66.75-104.11 71.953zm-108.14-199.97c111.23-61.969 275.21 31.641 165.56 92.578-78.797 43.969-213.56 7.4531-199.45-54.656 3.375-14.25 15.047-27.516 33.891-37.922z"/>
 <path d="m965.68 651.1c-53.531-152.9-183.56-230.9-298.36-252.47 13.312-69.094-93.891-99.891-143.86-50.766-14.578 14.25-19.969 32.906-15.891 52.359-128.58 26.906-235.64 114.14-288.32 252.66-237.1 190.03-45.234 471.74 372.47 471.74 243.89 0 540-125.21 466.36-348-15.516-47.859-52.031-93.938-92.391-125.53zm-403.92-311.53c16.031-4.6875 34.359-4.875 51.562 0 1.6406 2.4375 9.4219 4.875 9.2344 15.094-0.46875 29.859-70.359 29.859-70.031 0-0.046875-6.9844 3.375-11.203 9.2344-15.094zm-20.953 9.75c-10.688 54.328 103.12 52.359 93.422 0.32812 42.141 29.016 14.25 64.359-9.4219 120.32-3.5625 8.5781-6.1406 15.094-9.4219 22.031-6.3281 15.422-49.969 14.578-55.969 0-2.7656-6.4688-36.797-84.328-37.969-85.969-8.2031-22.5-1.0781-42.938 19.359-56.719zm-29.672 62.578c0.46875 0.79688 34.219 77.672 37.125 84.656 10.219 25.125 68.109 25.125 78.141 0.32812 2.9062-6.1406 5.5312-12.328 9.8906-22.875 0.79688-1.9688-0.14062 0 26.578-61.453l0.65625-1.4531c0-0.14062 0.14062-0.32812 0.14062-0.65625 111.42 20.578 237.89 96.141 290.11 244.36 0.14062 3.4219 21.234 49.969 24.328 132.98 0.65625 201.24-430.03 295.13-664.69 153.74-109.64-66-134.44-156-79.969-292.22 49.875-125.06 150.89-211.31 277.69-237.42zm404.44 624.98c-319.13 178.36-901.6 22.031-766.36-278.9l0.65625-1.4531c7.9688-16.688 18.656-31.453 19.641-33.75h0.14063c12.656-16.688 18.984-25.641 41.203-46.547-40.219 124.03-9.2344 212.26 96.328 275.68 241.64 145.64 683.86 49.312 683.21-164.26-1.4531-41.859-7.7812-79.969-17.859-114.47 120.61 107.48 122.9 263.81-56.953 363.71z"/>
 <path d="m826.36 920.9c2.5781 0.65625 5.0156-0.32812 6.4688-2.4375 185.53-263.53 42.141-286.87-7.6406-187.64-57.984-36.938-184.82 141.14 1.1719 190.08zm-3.375-176.11c2.9062 3.4219 8.4375 2.4375 10.219-1.6406 38.578-90.984 166.55-85.969-7.6406 164.9-169.92-50.859-37.312-202.82-2.5781-163.26z"/>
 <path d="m914.26 455.53c39.562 22.031 39.422 24.469 46.219 24.469 19.312 0 28.031-28.359 38.109-43.125 18.797-33.562-16.359-36.984-23.672-44.578l0.79688-1.4531c7.125-12.984 6.3281-26.766-2.25-32.25l-39.562-22.875c-21.422-11.859-37.969 31.969-44.906 41.531-18.984 33.422 17.531 37.641 23.672 44.578l-0.79687 1.4531c-6 10.828-7.8281 26.578 2.3906 32.25zm13.641-109.31 39.422 22.688c6.3281 4.2188-6.7969 24-5.8594 22.359-0.98438 1.6406-12.656 22.219-11.672 20.578 0 0.14062-1.125 1.9688-1.3125 1.9688-2.25 3.2344-8.9062 9.0938-11.344 7.7812l-39.562-22.875c-8.4375-4.3594 23.203-56.719 30.328-52.5zm9.8906 87.75c17.344 0 27.094-24.984 31.312-31.125l21.094 12.141c1.7812 1.125 2.5781 7.7812-1.9688 15.891-0.98437 1.6406-17.859 30.984-16.875 29.203-10.875 14.766-13.781 5.2031-51.094-15.094-2.9062-1.6406-0.65625-10.875 2.1094-15.562l0.79687-1.4531c6.375 2.9062 8.4844 6 14.625 6z"/>
</svg>
