<?xml version="1.0" encoding="UTF-8"?>
<svg width="1200pt" height="1200pt" version="1.1" viewBox="0 0 1200 1200" xmlns="http://www.w3.org/2000/svg">
 <path d="m613.44 164.4c4.9219 1.9219 8.5195 2.5195 11.16 4.4414 14.16 10.199 25.199 9.3594 40.078-2.3984 20.641-16.441 46.922-20.039 72.719-12.84 13.441 3.7188 18.719-0.60156 22.199-12.359 6.2383-21.359 16.199-40.441 34.922-54.121 6.2383 7.1992 2.8789 12.359-1.8008 16.441-14.879 13.199-17.398 32.398-25.078 49.32-6.1211 13.559 3.6016 17.641 10.68 24.602 7.3203 7.3203 12.238 5.2812 19.32-0.35938 14.16-11.398 31.32-12.84 48.48-10.441 12.359 1.6797 19.078-1.6797 22.32-14.039 2.2812-8.7617 4.5586-17.879 10.922-25.922 6.6016 15.602 7.4414 15.961 0.35938 32.641-4.6797 11.039-1.3203 16.922 4.9219 26.52 12.238 18.719 24.238 24.719 45 13.68 7.1992-3.8398 16.922-8.6406 27.84-2.3984-11.281 18-36.84 10.559-50.52 28.68 30.238 12 58.078 23.398 86.398 33.961 24.84 9.2383 48 21.238 69.48 36.719 26.039 18.84 40.801 43.441 49.441 74.398 14.281 50.52 7.9219 101.04 4.1992 151.44-1.8008 25.199-6.8398 50.281-16.559 74.16-9.6016 23.398-23.281 43.078-44.641 57.84 20.398 45.238 16.199 92.16 6.2383 138.6-4.3203 20.039-5.1602 40.32-8.6406 60.359-3.6016 20.52-13.078 35.52-30.961 43.559-14.879 6.6016-19.078 17.52-21 31.68-4.8008 36.961-8.1602 74.281-17.16 110.64-3.1211 12.602-8.0391 24.121-13.078 35.762-5.6406 12.961-14.641 22.68-27.602 28.559-20.039 9.2383-39.961 18.961-61.68 23.398-50.762 10.441-101.28 22.559-152.76 27.602-70.078 6.8398-140.76 11.641-210.6 0.96094-68.52-10.559-136.56-23.398-201.36-51.238-43.68-18.84-87.359-36.719-127.8-61.922-20.762-12.961-30.238-32.16-32.281-54.84-2.3984-27-3.4805-54.238-3.6016-81.48-0.23828-37.559-5.7617-74.398-12.238-111.24-9.4805-54.238-24.359-107.88-21.961-163.68 0.35938-8.7617-2.6406-13.441-11.281-16.801-19.32-7.4414-27.961-23.879-31.199-43.32-4.3164-21.965-3.7148-44.043-1.7969-66.125 2.8789-33.84 4.3203-67.801 3.7188-101.76-0.83984-40.922 16.078-75.84 40.078-107.52 12.602-16.68 31.801-25.559 50.52-33.238 56.52-23.281 113.88-44.281 174.96-52.922 15.359-2.1602 17.281-5.7617 11.039-19.68-8.2812-18.359-21.359-32.52-38.039-43.559-6-3.9609-14.16-6.6016-11.281-17.762 11.039-0.23828 18 9 28.68 11.879 7.1992-13.441 13.922-27.602 21.961-40.922 14.039-22.922 39.121-34.801 56.281-54.84 4.6797-5.5195 9-0.60156 11.52 4.3203 17.039 33.238-1.4414 81.602-36.961 96.359-10.801 4.4414-22.078 7.9219-35.281 12.602 5.6406 14.16 15.238 25.199 18.238 37.32 5.5195 2.7617 8.2812 1.1992 11.16-0.83984 25.441-18.84 53.398-21.359 82.078-10.441 10.922 4.1992 18.84 4.5586 27.719-3.2383 25.441-22.32 56.281-27.121 88.441-23.52 15.121 1.6797 23.039-3.1211 31.199-15 10.801-15.961 17.641-32.762 19.922-51.719 0.96094-8.3984 1.9219-16.68 3-26.52 13.328 22.68 8.7656 44.762-20.031 100.56zm297.96 76.32c-2.5195 25.078-2.6406 25.922 13.801 26.879 20.641 1.1992 37.32 11.281 53.52 21.961 15 9.9609 22.801 25.32 23.039 43.32 0.35938 31.68-14.641 56.039-41.398 71.281-25.199 14.281-52.559 19.801-79.801 3.2383-8.6406-5.2812-18.121-9.9609-25.441-16.801-7.5586-7.0781-13.199-7.9219-21.961-2.3984-20.762 13.078-43.801 13.922-66.238 6.4805-10.922-3.6016-18.121-2.7617-27.961 3.2383-35.398 21.961-73.68 24.961-112.2 9.7188-12.238-4.8008-18.961-4.9219-27.719 6-30 37.32-109.56 35.281-130.2-8.6406-6.8398-14.398-15.121-13.68-28.32-7.5586-26.879 12.48-54.961 10.199-81.238-1.5586-10.078-4.5586-16.68-4.1992-25.441 1.4414-13.68 8.8789-28.559 7.5586-44.281 4.3203-40.441-8.3984-56.762-37.078-63.84-73.559-4.6797-24.48-6.3594-25.68-29.16-15.48-9.7188 4.3203-17.281 10.559-22.441 19.922-3.6016 6.7188-7.3203 13.441-11.52 19.801-1.0781 1.5586-4.8008 2.8789-6.3594 2.1602-1.8008-0.83984-3.3594-4.0781-3.3594-6.2383 0.12109-3.2383 1.1992-6.7188 2.7617-9.6016 13.68-25.078 33.121-42.602 62.879-45.719 7.6797-0.83984 15.84-0.96094 19.559-9.3594 10.32-23.52 27.961-38.762 52.441-46.922-3.2383-1.3203-6-2.2812-8.1602-1.5586-43.199 12.719-85.559 27.84-126.36 46.922-14.039 6.6016-24.238 18-33.48 30.48-13.68 18.48-12.48 36.48 0.23828 54.121 11.879 16.559 25.078 31.199 43.199 42.359 26.879 16.441 56.398 27.602 83.762 42.84 22.441 12.48 46.801 19.441 71.641 25.68 46.441 11.762 93.602 15.48 141.12 16.441 19.32 0.35937 38.16 2.6406 56.879 8.2812-5.6406 2.3984-11.398 4.4414-17.039 4.1992-33.84-1.1992-67.922-0.60156-101.28-4.9219-58.801-7.6797-117.48-16.441-171.36-44.641-48.602-25.441-102.96-42.359-127.92-97.078-6 2.0391-7.4414 5.1602-7.5586 8.3984-1.4375 62.031-7.5586 123.83-6.1211 185.99 0.23828 12.121 3.8398 23.398 10.68 33.48 12.121 18.121 30.359 18.238 43.199 0.23828 6.1211-8.5195 8.8789-18.359 10.922-28.32 3.6016-16.922 13.441-29.039 27-38.641 13.32-9.3594 23.879-6.8398 30.121 8.3984 3.2383 7.8008 4.1992 16.441 7.0781 24.48 5.6406 15.238 11.16 17.16 26.52 10.559 8.6406-3.6016 16.922-7.6797 24.961-12.48 27.84-16.68 48.359-9.6016 59.52 21.359 4.5586 12.602 12.238 22.441 21.602 30.84 15.48 13.922 30.121 13.199 45-1.1992 6.7188-6.4805 13.078-13.32 19.441-20.16 29.16-30.602 60-26.762 79.801 9.8398 12.121 22.441 25.559 28.078 49.801 21.602 17.039-4.6797 30.121-15.359 42.359-27.238 7.3203-7.1992 14.398-14.398 24.238-18.359 18.359-7.3203 27.602-4.0781 38.281 12.602 6 9.4805 8.5195 20.281 12.84 30.359 9.4805 22.199 28.559 27 46.801 12.121 3.8398-3.1211 6.1211-8.0391 9.7188-11.641 16.078-15.961 26.039-37.559 48.238-48 27.84-13.199 33.359-12.48 49.559 13.199 16.441 26.039 48.238 26.879 67.078 1.8008 6.1211-8.1602 12-16.559 19.078-23.879 21.238-21.719 43.68-18.238 57 8.5195 3.3594 6.8398 6 14.039 9.1211 21 8.5195 18.602 17.879 36.48 33.238 50.879 12.602 11.879 27.359 14.52 42.48 10.199s26.16-16.32 33.359-30c11.52-21.84 19.559-45 24-69.48 6.3594-35.16 3-71.16 9.1211-106.44 1.6797-9.6016-1.5586-19.078-5.3984-29.281-55.441 60.719-132.84 100.8-163.32 84.84 12-3.7188 23.039-8.1602 34.559-10.441 39.121-8.0391 69.359-31.199 97.32-57.602 32.16-30.359 27.359-75.84-1.0781-103.8-44.875-44.391-103.55-58.551-160.92-82.793zm-391.08 629.4c-12.719-5.3984-22.199 0.60156-30.84 4.5586-43.441 19.801-89.641 30.602-135.6 41.762-24.84 6-50.281 8.6406-75.48 1.0781-15.48-4.5586-32.039-8.8789-39.359-25.199-6.2383-13.801-12.84-27.48-15.238-42.961-8.7617-57.84-6.8398-115.08 6.6016-171.84 8.2812-34.801 29.641-50.762 65.641-50.398 25.441 0.23828 50.879 3 75.359 9.6016 63.84 17.281 127.92 33.602 190.8 54.238 10.199 3.3594 20.398 7.4414 31.922 2.1602 22.32-10.199 45.961-11.762 69.719-6.6016 33.84 7.1992 65.879 3.3594 98.52-8.7617 54.121-20.039 111.12-30.602 167.16-43.922 9.6016-2.2812 20.281-0.48047 29.641-6.4805-7.5586-17.16-14.16-33.48-21.84-49.32-6.4805-13.32-14.281-14.879-26.398-6.2383-3.3594 2.3984-6.3594 5.5195-9.2383 8.6406-35.039 37.68-74.281 41.398-114 9.2383-8.3984-6.7188-13.801-6.4805-22.078-1.8008-15.961 8.8789-28.078 21.602-39.121 35.879-22.32 29.039-49.801 31.078-75.238 6.1211-7.3203-7.1992-13.078-15.359-18-24.359-10.559-18.961-21.238-21.121-38.52-7.4414-12 9.4805-24 18.961-37.801 25.801-26.762 13.441-61.68 6.8398-81.121-14.879-26.641-29.641-33.961-30-63.84-3.1211-1.3203 1.0781-2.5195 2.2812-3.7188 3.4805-25.441 27-72.84 19.559-94.199-12.84-23.281-35.281-26.281-36-65.16-18.48-18.84 8.3984-32.398 3.7188-42-14.762-0.35938-0.71875-0.60156-1.5586-0.96094-2.2812-9.8398-19.199-17.641-19.801-30.84-2.7617-5.2812 6.8398-8.7617 14.52-11.52 22.559-3.6016 10.801-8.6406 20.52-18.961 26.039-10.801 5.7617-11.641 15-11.879 25.801-0.71875 30.84 3.4805 61.078 9.2383 91.078 15.359 80.16 28.078 160.56 26.879 242.28-0.48047 29.52 12.48 48.121 36.121 61.922 48.602 28.441 100.92 48.602 154.8 64.078 18.719 5.3984 36.238 13.68 55.078 18.719 47.762 12.84 96.602 18 145.2 25.559 40.441 6.3594 81.238 1.0781 121.8 1.6797 26.039 0.35938 52.32-4.3203 78.359-7.8008 56.52-7.4414 111.72-21.121 165.12-40.922 22.078-8.1602 38.281-23.879 42.602-47.039 6.9609-36.602 11.039-73.801 16.68-110.76 1.5586-9.9609-1.8008-14.281-12-13.922-16.922 0.60156-34.441 3-50.762-1.8008-36.602-10.559-75.602-10.922-111-27-6.8398-3.1211-15-8.5195-24-4.4414-3.3594 6.1211-0.12109 11.762 1.3203 17.281 9.8398 39.48 19.078 79.078 30.602 118.08 3.1211 10.68 0.60156 15.84-6.6016 21.359-6.1211 4.6797-13.078 7.6797-20.641 9.6016-44.762 11.762-90.84 10.922-136.56 12.719-17.641 0.60156-35.52-3.3594-51.84-11.52-11.398-5.7617-27.602-10.199-31.078-20.52-5.8789-17.398-18.121-17.398-30.84-20.879-9.8398-2.6406-19.801-5.3984-28.922-9.7188-27.961-13.078-32.762-26.281-21.719-54.719 10.07-24.941 19.789-50.02 29.75-75.82zm536.52-140.88c-0.96094-12.719-1.5586-25.441-2.7617-38.039-1.9219-19.68-12.719-30.359-32.398-33-10.078-1.3203-20.16-3.2383-28.559-9.8398-10.199-7.8008-21.602-7.9219-33.84-6.2383-79.199 11.398-155.76 33.238-231.72 57.48-19.68 6.2383-20.398 8.2812-16.32 30.121 4.3203 22.801 5.5195 45.238 0.71875 68.16-4.5586 21.84-3.6016 22.32 16.801 33.602 53.16 29.641 110.76 46.801 169.8 59.641 29.16 6.3594 58.801 8.7617 88.559 5.5195 30.602-3.2383 45-17.398 49.922-47.16 1.9219-11.641 4.5586-23.281 6.9609-34.922 5.875-27.961 12.477-56.043 12.836-85.324zm-485.88 31.203c0-16.922-0.60156-27.961 0.12109-39 0.71875-10.922-2.5195-16.922-13.922-20.039-65.281-18.238-129.96-38.641-195.72-55.078-26.641-6.7188-54.84-11.398-83.039-3.7188-18.961 5.1602-30.359 15.121-35.039 35.398-6.7188 29.16-9 58.801-11.039 88.32-2.3984 33.961 1.5586 67.68 12.602 100.44 3.7188 10.801 8.7617 20.52 18.84 25.922 19.801 10.559 40.078 16.922 63.359 11.398 82.078-19.32 160.68-48.602 237.24-83.52 8.3984-3.8398 11.52-8.8789 10.559-17.762-1.8008-16.086-3-32.043-3.9609-42.363zm147.6 291.24v0.60156c8.3984-0.48047 17.039-0.35938 25.32-1.5586 10.922-1.5586 21.719-3.7188 32.398-6.2383 25.199-5.7617 29.16-11.398 23.879-37.441-6.1211-29.879-12.84-59.641-20.398-89.039-5.6406-22.078-15-39.961-35.762-55.078-23.879-17.281-44.398-26.879-73.441-17.281-10.922 3.6016-16.078 7.8008-16.801 18.121-0.60156 8.3984-0.60156 16.922-0.35938 25.441 0.60156 21.238 1.1992 42.359-1.3203 63.48-3 24.121-12.719 43.801-36.359 54.238-5.3984 2.3984-11.16 4.5586-15.84 8.0391-9.3594 6.8398-9.1211 15.602 0.71875 22.199 17.281 11.398 36 18.961 57.238 18 20.168-1.2031 40.449-2.4023 60.727-3.4844zm-81.84-153.36v-36.84c0-8.8789-5.1602-13.078-13.078-16.441-27.719-11.641-52.559-1.8008-77.281 9.3594-4.8008 2.1602-7.4414 6.9609-9.3594 11.762-11.16 28.32-22.801 56.52-33.121 85.078-5.5195 15.359-2.7617 21.238 12.121 28.68 25.801 12.961 53.039 16.078 81.48 10.68 18.961-3.6016 29.281-14.641 33.961-33.121 5.0391-19.918 6.8398-39.957 5.2773-59.156zm13.32-626.52c-14.281 1.4414-24.48 10.922-35.16 18.84-7.9219 5.8789-9.3594 13.441-2.8789 22.078 13.199 17.762 14.039 37.441 9.1211 58.199-4.1992 17.762-2.1602 22.078 14.762 29.039 24.602 10.078 49.922 9.9609 74.762 1.6797 42.961-14.398 58.32-41.879 50.398-86.641-2.8789-16.559-8.1602-31.078-23.762-39.961-18.48-10.559-38.398-12.84-59.16-10.199-8.2812 1.0781-12.48 10.68-7.8008 16.559 4.3203 5.2812 9.1211 1.5586 13.801 0.71875 8.2812-1.4414 12.602 2.8789 8.6406 9.7188-6.6016 11.398-19.32 16.078-30.84 21.48-7.5586 3.6016-15.238 6.2383-23.16 0.23828 17.758-24.949 17.758-24.949 11.277-41.75zm-65.641-94.922c-38.281-22.441-96 11.281-112.2 40.922-17.52 32.039-15.961 43.68 6.6016 70.68 6.1211 7.3203 9.8398 9 18.602 3.7188 29.039-17.762 58.922-19.922 88.68-1.3203 6.4805 3.9609 11.879 5.6406 17.641-1.4414 9.7188-12 22.078-20.879 35.762-27.961 5.7617-3 9.3594-7.5586 7.1992-14.398-5.7617-18.602-9.7188-37.68-18.121-55.441-4.3203-9.1211-13.32-10.078-21.121-11.879-8.7617-2.1602-10.922 6.3594-13.922 12.121-5.5195 10.68-11.039 21.359-1.0781 32.879 3.6016 4.0781 3.8398 9.7188-0.71875 13.801-3.3594 3-7.9219 2.2812-12 0.83984-12.961-4.3203-21.48-13.199-26.52-25.68-2.1602-5.2812-1.3203-11.762 5.2812-11.039 20.395 2.0391 21.836-12.719 25.914-25.801zm-41.16 250.32c41.16 3 76.559-41.641 69.719-84.238-3.7188-23.281-28.559-48.238-47.762-51-33.359-4.8008-73.078 15.602-88.922 45.48-7.9219 15-9 30.359-2.8789 46.441 11.406 29.879 30.484 41.879 69.844 43.316zm-135.84-34.801c-0.23828 0 3.9609 0.23828 8.1602 0 26.039-2.1602 35.398-10.922 37.68-37.199 1.1992-14.039 5.6406-26.281 14.641-37.078 3.6016-4.3203 8.7617-9.2383 4.0781-15.602-15.602-21.48-31.801-42.238-61.922-42.719-19.801-0.35938-22.32 3.6016-14.52 22.199 6 14.398 4.5586 20.281-6.4805 26.398-3.8398 2.1602-8.0391 3.4805-12 1.0781-4.0781-2.5195-4.4414-7.1992-3-11.281 2.1602-6.3594 5.8789-12.121 4.3203-19.441-1.3203-5.7617-3.7188-9.4805-10.32-7.4414-24.359 7.6797-44.16 46.68-36.48 71.039 8.8867 28.207 36.125 51.727 75.844 50.047zm294.48 379.92c-2.3984-18.48-4.6797-36.961-7.1992-55.441-1.0781-8.2812-4.9219-14.52-13.922-15.84-21.84-3.3594-43.922-5.6406-65.762-1.1992-12.602 2.5195-20.16 9.7188-22.68 23.762-4.0781 22.801-5.1602 45.602-3.2383 68.52 1.5586 19.078 10.68 28.32 29.398 32.16 5.7617 1.1992 11.762 1.8008 17.641 2.3984 46.441 4.1992 67.441-11.641 65.762-54.359zm218.16-366c10.559-0.60156 24.238-3.6016 35.762-10.441 28.441-16.801 50.762-58.199 18.602-90-21.602-21.359-48.48-30.121-79.32-21.961-11.039 2.8789-14.762 7.4414-12.961 19.68 2.7617 18.84-1.0781 36.961-12.719 53.039-13.922 19.199-13.078 24.719 6.9609 36.602 12.238 7.4414 25.559 13.32 43.676 13.082zm-601.44-159.36c-20.16 5.2812-45.359 4.8008-60.359 27.84-3.6016 5.6406-10.32 10.801-6.2383 17.879 3.4805 6.1211 10.68 8.5195 17.762 5.5195 9.9609-4.3203 12.602 1.3203 12.84 9.1211 0.35938 9.8398 2.7617 21.359-9 26.762-4.4414 2.0391-7.8008-2.2812-8.3984-6.9609-0.96094-8.5195-5.1602-14.039-12.961-17.281-6-2.5195-10.32-0.83984-11.16 5.5195-2.7617 22.32 1.5586 44.879 19.441 57.602 19.441 13.922 42.719 25.801 68.879 13.801 8.8789-4.0781 6.9609-8.8789 2.5195-15.961-22.199-35.52-20.16-60.359 6.2383-92.762 5.3984-6.6016 18.602-9.7188 12.719-21.719-5.5195-11.281-18.359-5.6406-27.359-9.1211-0.60156-0.48047-1.5625-0.23828-4.9219-0.23828zm508.44 15c-18.602-8.3984-33.719-3.9609-48.48 3.1211-16.078 7.6797-16.559 8.1602-10.199 24.84 10.199 26.641 11.039 52.68-1.9219 78.719-6.1211 12.359-3.9609 15.602 10.078 18.121 28.199 5.1602 50.762-4.9219 71.762-23.641 23.16-20.641 29.281-54.48 11.641-79.801-11.641-16.68-17.879-16.801-29.281 0-5.0391 7.4414-12.48 14.16-9.3594 25.078 1.6797 5.8789-2.1602 10.078-7.6797 10.922-9.1211 1.4414-14.52-4.5586-16.922-12.121-2.5195-7.9219-4.8008-20.641 5.5195-21.359 15.844-1.1992 19.203-10.918 24.844-23.879zm-85.32-91.922c-33-8.7617-60.602-3.4805-87.121 15.84 11.879 16.801 18.48 33.359 23.281 50.52 2.8789 9.9609 7.1992 13.922 17.16 13.922 17.16 0 33.602 3.6016 48.84 12 4.4414 2.5195 9.3594 4.8008 14.398 2.1602 29.16-15.602 39.121-34.922 21-63.48-5.8789-9.2383-13.68-16.801-23.879-22.441-9 9.8398-15.238 19.68-18.602 31.078-1.8008 6.2383-0.48047 15.121-10.199 14.641-9.7188-0.48047-18.238-4.4414-21.238-15.121-2.0391-7.0781 0.71875-13.68 7.8008-12.238 22.918 5.1602 21-13.316 28.559-26.879zm60.48 70.441c25.922 9.2383 48.48 9.7188 67.078-12.121 3.1211-3.6016 8.6406-5.1602 12.961-7.9219 2.8789-1.9219 5.7617-5.0391 4.6797-8.2812-2.6406-8.1602-7.8008-15.602-15.238-19.559-9-4.9219-10.559 5.1602-14.762 9.4805-2.8789 3-5.3984 6.4805-8.5195 9.3594-1.9219 1.8008-4.6797 1.6797-6.8398 0.23828-2.5195-1.6797-2.3984-4.1992-1.4414-6.7188 2.5195-7.5586 11.879-12 11.039-22.441-15.238-6-29.039-3.2383-42.359 2.5195-10.68 4.6797-15.719 13.078-11.039 24.602 3.9609 10.082 4.6836 20.883 4.4414 30.844zm-356.04 13.078c6-15.602 11.641-30.48 17.398-45.238 1.8008-4.5586 1.0781-7.9219-2.8789-10.922-17.641-13.078-67.441-3.8398-78.961 14.879-6.1211 10.078-1.4414 19.559 2.1602 28.922 2.8789 7.5586 9.9609 5.3984 15.359 4.5586 16.441-2.7578 31.684 1.5625 46.922 7.8008zm-31.922-191.4c-18.719 13.559-35.762 25.801-48.238 43.199-6 8.2812-11.16 16.922-12.961 27.121-1.0781 6.3594 1.8008 10.078 8.2812 8.6406 33.359-7.8008 69-29.52 52.918-78.961zm476.88 172.2c-10.32-0.23828-17.879 4.9219-24.602 11.16-3.9609 3.6016-11.52 6.8398-7.9219 13.68 4.1992 7.9219 9.8398 16.68 19.801 17.281 7.8008 0.48047 13.801-4.8008 16.078-13.199 2.7617-10.203 1.6836-19.68-3.3555-28.922zm-583.56-1.0781c13.559 1.5586 24.359 2.7617 35.281 4.0781 7.9219 0.83984 14.16-1.8008 13.801-10.441-0.35938-10.078-8.1602-6.2383-13.32-4.9219-11.16 2.7656-23.762 0.60547-35.762 11.285zm63.602 13.797c0.12109-1.8008-1.8008-3.7188-4.1992-3.2383-1.4414 0.35938-2.6406 3.3594-3 5.2812-0.48047 2.5195 0.60156 4.8008 3.8398 4.1992 2.5195-0.60156 3.5977-2.6406 3.3594-6.2422z"/>
 <path d="m887.64 500.16c-99.121 10.922-198.48 16.801-298.68 14.641 1.0781-7.9219 4.6797-8.8789 7.9219-8.8789 96.957 0 193.8-4.9219 290.76-5.7617z"/>
 <path d="m574.44 466.68c18.359-12.48 33.961-19.68 50.281-25.559 4.4414-1.6797 10.199-3.7188 12.961 2.6406 2.0391 4.6797-1.4414 7.9219-4.9219 10.32-16.203 11.039-32.883 20.277-58.32 12.598z"/>
 <path d="m959.28 440.52c-0.71875 1.4414-1.0781 3.2383-2.2812 4.3203-11.039 9.1211-22.078 18.238-33.48 27-2.3984 1.8008-6.3594 2.6406-9-0.96094-2.2812-3.1211-2.2812-6.6016 0.23828-9.2383 8.7617-9.1211 17.52-18.238 26.762-26.879 4.0781-3.7188 9.6016-2.0391 14.52-0.35938 2.7617 0.95703 3 3.4766 3.2422 6.1172z"/>
 <path d="m804.96 466.56c19.68-14.641 40.199-15 65.281-3.8398-23.402 12.602-44.523 6.4805-65.281 3.8398z"/>
 <path d="m702.84 441.24c13.078-13.199 25.922-20.398 41.16-23.16 3.8398-0.71875 9-1.8008 11.039 2.8789 1.8008 4.3203-0.48047 9.1211-4.5586 10.559-14.16 5.1641-26.039 19.926-47.641 9.7227z"/>
 <path d="m797.4 449.04c-6-0.71875-10.559-1.0781-12.238-5.7617-2.0391-5.5195 2.6406-7.1992 6.1211-9.2383 7.1992-4.4414 14.398-8.8789 21.719-13.078 4.3203-2.3984 8.6406-0.83984 11.281 2.7617 3 4.0781 0.96094 8.1602-2.6406 11.039-7.9219 6.1172-14.762 14.16-24.242 14.277z"/>
 <path d="m1071.1 386.4c-1.1992 10.801-17.398 30.121-26.641 32.16-2.0391 0.48047-4.9219-0.35938-6.7188-1.5586-2.2812-1.5586-2.0391-4.4414-0.71875-6.6016 6.3594-10.922 14.879-19.922 24.121-28.32 1.4414-1.3203 5.0391-1.6797 6.7188-0.83984 1.6758 0.72266 2.3984 3.7227 3.2383 5.1602z"/>
 <path d="m204.96 378c-1.0781 4.6797-1.3203 8.1602-2.5195 11.16-2.6406 6.2383-6.9609 6.9609-11.52 2.0391-1.6797-1.8008-2.1602-4.5586-3.1211-6.8398-3.6016-8.7617-6.4805-17.762 0.23828-26.398 1.3203-1.6797 4.6797-3.3594 6.3594-2.7617 11.762 4.1992 3.3633 17.16 10.562 22.801z"/>
 <path d="m1026.5 372.6c-4.9219 0.12109-8.6406 0.12109-9.8398-3.6016-1.1992-3.6016 0.71875-6.9609 4.0781-8.1602 10.922-4.1992 21.84-8.1602 33-11.641 1.5586-0.48047 5.0391 1.5586 6.1211 3.2383 1.6797 2.8789 1.6797 6.7188-1.8008 8.7617-10.438 5.7617-21.48 9.6016-31.559 11.402z"/>
 <path d="m391.68 439.56c-2.5195-1.6797-5.3984-2.5195-6.2383-4.3203-0.71875-1.6797 0-5.5195 1.3203-6.4805 9-5.8789 17.879-12.238 28.559-14.879 3.4805-0.96094 6.8398 0.12109 8.5195 3.3594 2.1602 4.0781 1.1992 8.6406-2.3984 11.16-9 6.1211-19.68 7.8008-29.762 11.16z"/>
 <path d="m445.44 472.92c-5.8789-0.12109-8.0391-3.8398-6.9609-8.2812 1.4414-6.4805 4.1992-12.84 6.2383-19.199 1.8008-5.7617 3.7188-12.602 11.641-9.3594 6.7188 2.7617 6.1211 9.6016 4.0781 15.359-3.1172 8.5195-4.1992 18.598-14.996 21.48z"/>
 <path d="m261.96 435.12c-4.3203 0.23828-8.6406-0.12109-10.32-4.9219-2.2812-6.6016 2.5195-8.8789 7.4414-10.68 2.3984-0.83984 4.9219-2.0391 7.3203-1.8008 6.4805 0.48047 16.441-8.7617 18.84 2.8789 1.6797 8.5195-8.7617 10.68-15.84 13.078-2.4023 0.72266-5.043 0.96484-7.4414 1.4453z"/>
 <path d="m510.24 475.8c-2.6406-0.23828-6.1211-0.23828-9.3594-1.0781-6.3594-1.8008-14.879-3.4805-13.078-12.238 1.5586-7.4414 9.3594-5.2812 15-4.5586 3.3594 0.35938 6.8398 1.0781 9.8398 2.3984 4.9219 2.1602 13.68 1.1992 12.602 9.4805-0.96094 7.7969-8.7617 5.5156-15.004 5.9961z"/>
 <path d="m343.08 423.72c7.4414 0.23828 9.6016 5.6406 10.68 11.641 1.3203 7.0781-0.96094 13.199-5.8789 18.238-2.6406 2.6406-5.8789 3-8.6406 0.35938-4.9219-4.6797-5.1602-23.52-0.35938-28.199 0.96094-1.1992 2.7617-1.4375 4.1992-2.0391z"/>
 <path d="m737.4 454.56c8.6406 0.23828 24.359 13.199 23.039 19.441-0.35938 2.0391-2.6406 4.4414-4.5586 5.1602-6.4805 2.1602-23.16-10.078-24.238-18-0.60156-3.7188 1.6797-6.3594 5.7578-6.6016z"/>
 <path d="m1036.7 317.04c-1.3203 6.6016-4.0781 10.199-8.8789 7.9219-6.8398-3.2383-12.961-7.8008-19.32-11.762-2.8789-1.8008-5.7617-3.9609-4.8008-7.9219 1.3203-5.3984 6.1211-5.6406 10.078-5.0391 11.043 1.6836 16.203 10.922 22.922 16.801z"/>
 <path d="m991.92 428.28c6.8398 2.5195 12.359 7.1992 13.199 15.48 0.48047 4.5586-2.2812 9.3594-6.7188 8.6406-8.6406-1.5586-11.16-9.3594-12.359-17.039-0.60156-3.2422 0.71875-6.6016 5.8789-7.082z"/>
 <path d="m672.48 480c-5.8789-1.9219-8.3984-6.9609-9.1211-12.602-0.60156-4.8008 3.6016-8.1602 7.5586-7.3203 6.7188 1.1992 8.1602 7.3203 7.8008 13.32-0.23828 3.3633-2.0391 6-6.2383 6.6016z"/>
 <path d="m862.68 417.72c6.1211-0.48047 6.9609 4.9219 8.6406 9.3594 1.0781 2.7617-0.48047 5.1602-2.8789 5.6406-5.8789 1.5586-9.3594-1.6797-10.441-7.3203-0.60156-3.1172-0.12109-6.3594 4.6797-7.6797z"/>
 <path d="m557.88 309.24c8.1602 0 14.762 1.6797 19.078 7.8008 5.3984 7.5586 12 15.84 4.8008 25.32-6.3594 8.3984-14.039 0.60156-21-0.48047-3.9609-0.60156-8.1602-2.7617-11.398-5.2812-6.2383-4.8008-11.281-11.16-7.9219-19.559 3.1211-7.6797 10.684-7.5586 16.441-7.8008z"/>
 <path d="m956.52 338.76c0.35938 6.7188-0.71875 12-6.1211 14.039-8.1602 3.1211-9.9609-3.9609-12.121-9.2383-3.7188-9-11.879-17.52-3.4805-28.078 2.1602-2.7617 5.3984-5.7617 8.3984-4.0781 10.926 6.2344 11.043 18.113 13.324 27.355z"/>
</svg>
