<?xml version="1.0" encoding="UTF-8"?>
<svg width="1200pt" height="1200pt" version="1.1" viewBox="0 0 1200 1200" xmlns="http://www.w3.org/2000/svg">
 <path d="m468.36 309c-18.121 23.52-38.641 36.84-62.52 45.238-8.3984 3-16.68 2.6406-25.078 1.1992-12-2.0391-21.238-8.2812-24.602-20.52-4.9219-18-15.48-32.641-27-46.559-10.441-12.48-8.3984-26.281-5.7617-40.078 1.3203-7.3203 7.8008-10.32 14.879-12.238 24.48-6.8398 49.68-10.441 74.762-14.398 15.719-2.5195 28.922-8.7617 42.719-17.398 20.641-12.961 35.52-30.719 52.078-47.281 15.602-15.602 32.398-29.762 48.719-44.641 3-2.6406 6-5.6406 10.199-5.6406 19.441 0.35938 27.238-14.281 30.48-28.559 4.0781-18.359 13.078-30.121 29.039-38.762 8.0391-4.3203 14.879-4.4414 22.199 0 12.238 7.3203 22.559 16.922 31.559 27.84 11.52 14.039 21.719 28.922 28.559 45.719 3.1211 7.6797 7.1992 14.039 15.719 16.32 4.5586 1.1992 8.2812 4.0781 10.68 7.9219 11.762 19.078 32.039 25.441 51.121 30.238 21.719 5.3984 36 17.641 47.641 34.922 5.5195 8.1602 6.9609 16.801 0.60156 25.199-10.922 14.398-22.078 28.68-33.238 42.84-3.8398 4.9219-8.5195 9-13.68 12.48-15 9.9609-28.801 9.8398-44.039-0.12109-13.32-8.7617-23.398-20.879-35.762-34.078-9.4805 28.199-18 54.84-29.762 80.762 6.3594 4.1992 13.199 4.0781 19.68 5.1602 36.719 6.4805 73.32 12.719 108.6 25.801 25.559 9.4805 41.398 27.121 52.199 51.48 15.121 34.441 16.32 69.961 12.121 106.32-1.3203 11.762-3.9609 23.641-13.559 32.039-4.6797 4.0781-3.6016 9.1211-3.3594 14.16 0.60156 21.48 1.0781 42.84 2.0391 64.32s-2.2812 42.84-2.6406 64.32c-0.12109 4.5586 0 9-0.23828 13.559-0.35938 7.8008 2.8789 10.199 10.922 11.16 25.199 2.7617 49.922 8.0391 74.16 16.441 25.078 8.7617 44.281 24.48 60.84 44.16 9.7188 11.52 11.16 27 17.52 40.199 12.961 27.238 16.199 57.48 23.52 86.398 3.3594 13.078 1.0781 27-0.71875 40.441-1.3203 9.6016-6.8398 16.922-14.398 22.199-7.0781 4.9219-7.9219 10.801-7.8008 18.84 0.35938 20.281 4.0781 40.559 2.2812 60.961-1.1992 13.559-2.6406 27-10.078 39-10.199 16.32-25.441 25.559-43.801 29.52-23.16 4.9219-46.559 9-69.719 13.801-32.641 6.7188-65.039 14.52-98.281 18-31.441 3.2383-62.879 5.8789-94.441 8.6406-9.6016 0.83984-19.199 0.60156-28.801 1.3203-35.52 2.8789-71.039 0.71875-106.56-0.96094-12.359-0.60156-24.84-0.12109-37.32-0.48047-62.641-1.8008-125.4-2.8789-187.56-12.84-27.359-4.3203-54.48-9.7188-81.121-17.16-12.961-3.6016-26.16-6.6016-39.359-9.7188-19.32-4.5586-29.16-15.84-31.801-36.238-2.6406-20.16-5.5195-40.199-4.3203-60.602 0.48047-8.6406-2.0391-14.398-10.922-18.359-12.961-5.8789-18.238-17.762-19.32-31.559-1.3203-17.039 0.35938-33.961 1.8008-50.762 2.7617-31.559 6.8398-62.879 10.68-94.32 2.3984-19.32 9.4805-37.078 17.762-54.48 8.0391-16.922 23.16-26.281 38.762-34.078 25.801-13.078 52.559-23.879 81.48-27.602 9.7188-1.1992 12.359-5.3984 11.879-14.16-2.2812-42.961 1.0781-85.801 1.0781-128.64 0-8.1602 2.0391-17.398-10.559-19.199-3.8398-0.60156-5.2812-5.3984-5.8789-9.4805-1.4414-9.4805-4.1992-18.961-2.8789-28.559 3.2383-22.922 5.0391-46.078 11.879-68.398 2.0391-6.6016 5.0391-12.719 9.6016-17.762 29.879-32.762 64.559-58.078 108.48-68.762 10.68-2.6406 21.238-2.7617 31.922-2.6406 7.4414 0 9.8398-2.7617 8.7617-10.32-1.3281-9.125-1.3281-18.125-2.0469-31.566zm165.72 843.84c22.68-1.3203 42.961-2.6406 63.238-3.6016 41.762-1.9219 83.398-6.2383 124.8-12 45.359-6.3594 89.398-19.32 134.64-26.641 12.238-1.9219 23.879-6.4805 33.359-15.602 17.879-17.281 21.359-39.359 20.281-62.281-0.48047-10.68-1.8008-21.359-1.5586-32.039 0.23828-8.5195-0.12109-15.121-11.16-16.68-7.5586-1.0781-12.238-7.5586-15.719-14.398-2.2812-4.5586-4.3203-9.3594-7.1992-13.441-5.0391-6.8398-13.559-6.6016-18.359 0.48047-2.2812 3.2383-2.6406 7.3203-3.9609 11.039-4.9219 14.281-3.6016 29.039-3.4805 43.559 0.12109 13.199-3.8398 24.121-11.641 34.441-14.281 19.078-36.719 17.52-47.039-3.7188-2.2812-4.6797-2.8789-9.7188-3.3594-14.762-1.0781-10.199-3.7188-19.922-7.3203-29.52-2.3984-6.1211-6.2383-10.559-11.52-14.16-8.2812-5.6406-11.16-5.2812-15.48 3.9609-3.6016 7.5586-6.3594 15.719-8.6406 23.879-5.6406 20.762-18.602 29.52-39.602 26.762-12.719-1.6797-21.48-7.9219-28.801-18.238-17.281-24.48-26.641-15.121-41.039 0.23828-1.5586 1.6797-2.7617 3.6016-3.6016 5.7617-6.3594 14.879-18.84 24.121-31.922 31.801-9.9609 5.7617-22.078 11.52-33.48 8.6406-16.199-4.0781-32.039-10.68-41.398-26.762-5.6406-9.6016-14.039-17.16-19.68-27-10.441-18-29.039-18.602-43.078-2.8789-5.7617 6.4805-10.078 13.559-13.32 21.48-5.8789 14.281-15.121 26.641-24.961 38.281-17.16 20.281-49.559 15.238-61.801-8.3984-8.5195-16.559-17.879-32.52-24.602-50.039-6.4805-16.922-23.641-20.398-38.52-9.8398-7.4414 5.2812-13.32 11.879-18.961 19.199-15.238 19.559-34.68 22.078-49.32 7.4414-3.2383-3.2383-5.1602-7.1992-6.9609-11.398-5.7617-13.199-7.0781-14.281-20.16-8.8789-10.559 4.4414-19.199 1.9219-26.039-5.3984-4.9219-5.1602-7.3203-12.48-9.2383-19.801-1.8008-6.9609-3.4805-15.48-12.121-16.68-7.4414-1.0781-9.1211 7.3203-13.078 11.762-12.602 14.16-22.32 31.801-43.559 35.641-6 1.0781-4.8008 6.8398-4.9219 11.16-0.35938 18.121 0.71875 36 4.1992 53.879 3.2383 16.441 11.641 25.801 27.48 30.602 14.039 4.3203 28.801 6.1211 42.602 10.559 22.68 7.1992 46.199 10.922 69.359 15.961 48.961 10.441 98.879 10.199 148.44 13.078 31.078 1.8008 62.16 0.83984 93.238 1.6797 19.082 0.23047 38.281 1.9102 54.961 2.8711zm219.72-428.16c6.1211 14.52 11.52 23.52 26.52 23.641 17.039 0.23828 32.52 16.32 33.719 32.52 0.83984 11.641-10.801 24-26.879 28.559-2.1602 0.60156-4.4414 1.3203-6.6016 1.4414-9.7188 0.60156-18.602 3.1211-26.52 9.4805-5.3984 4.3203-12.84 3.3594-19.559 4.1992-8.0391 0.96094-13.441-10.078-19.801-6-6.1211 3.9609-9.6016 12.121-15.719 17.16-1.3203 1.0781-2.5195 3-3.8398 3.1211-8.3984 1.0781-9.8398 7.8008-12.602 14.039-4.4414 9.8398-11.879 16.922-22.801 18-9.3594 0.83984-19.32 2.1602-28.078-3.3594-3.9609-2.5195-8.2812-3.7188-12.961-2.2812-16.199 5.0391-28.559 2.0391-35.641-15.238-3-7.1992-9.2383-6.8398-14.16-0.23828-3.9609 5.3984-7.0781 11.762-11.762 16.559-8.5195 8.7617-19.078 15.359-31.68 11.039-7.3203-2.5195-12.48-1.6797-18.961 1.6797-21.359 10.801-36.961 2.5195-47.52-17.398-3.3594-6.3594-6-8.2812-12.238-7.6797-5.0391 0.48047-10.199 0.23828-15.238 0.23828-9.1211 0.12109-17.641 0.83984-24.238 9.1211-5.5195 7.0781-14.16 5.5195-22.199 5.0391-9.3594-0.60156-14.039-8.7617-21.121-12.359-7.5586-3.9609-19.441 2.3984-26.039-3.9609-13.922-13.32-32.641-10.801-48.359-17.52-3.7188-1.5586-6.3594 0.96094-8.6406 3.6016-11.762 13.441-25.559 13.078-39.719 4.6797-6-3.4805-11.039-4.4414-17.398-1.5586-5.6406 2.6406-10.441 0.23828-15.602-2.8789-14.641-8.5195-21.238-23.16-27.359-37.078-4.3203-9.7188-7.8008-23.16 2.7617-31.68 14.398-11.641 16.801-31.922 32.762-42 2.7617-1.8008 3.1211-6.1211 1.0781-9.2383-1.8008-2.7617-4.9219-1.9219-7.6797-1.5586-32.398 4.3203-62.16 16.199-90.359 31.922-5.3984 3-10.199 7.1992-14.641 11.398-15.84 14.879-18.961 33-9.1211 52.078 2.8789 5.5195 6.1211 10.922 10.32 15.48 31.559 33.961 68.398 60.121 111.6 77.762 26.879 11.039 54.719 17.281 83.039 22.68 63.961 12.238 127.92 22.68 193.32 20.641 32.16-0.96094 64.32-1.9219 96.238-5.8789 39.84-4.9219 79.32-11.52 118.68-18.84 8.8789-1.6797 18.121-1.8008 26.641-4.4414 24.719-7.8008 49.441-15.961 73.68-25.199 23.762-9 47.398-18.719 66.238-36.84 10.441-10.078 17.16-21.719 19.441-36.48 4.3203-27.84-8.5195-47.16-29.52-62.039-32.285-23.293-69.965-29.891-111.48-34.332zm-672.24 86.039c-5.0391 9-5.3984 19.32-6.4805 29.16-3.8398 33.602-7.1992 67.32-10.32 101.04-0.96094 10.68-1.4414 21.602 0.83984 32.16 4.6797 21 20.641 28.68 39.602 19.078 9.8398-4.9219 18.121-11.398 23.398-21.359 2.0391-3.9609 4.6797-7.8008 7.5586-11.16 10.801-12.719 24.961-11.762 33.238 2.3984 4.1992 7.1992 6.8398 15.48 10.441 23.16 5.2812 11.281 7.5586 12.48 19.68 9.3594 5.3984-1.4414 10.68-3.6016 16.199-5.0391 12-3.1211 16.68-0.83984 21 10.441 2.0391 5.2812 2.7617 10.922 4.0781 16.441 2.1602 8.5195 6.2383 11.039 14.52 9.6016 6.3594-1.0781 9.1211-6.3594 12.602-10.68 8.3984-10.559 15.48-22.32 27.48-29.641 27.719-16.801 47.398-8.1602 61.801 20.039 1.1992 2.3984 1.4414 5.3984 2.1602 8.1602 2.3984 8.6406 5.3984 17.281 7.3203 26.039 3.3594 15.48 15.238 21.602 28.32 26.039 8.6406 2.8789 16.801 0.71875 23.52-5.6406 8.2812-7.8008 15.84-15.961 19.801-27 4.6797-12.961 12.121-24.48 21.359-34.32 17.762-18.602 45.48-23.16 61.922 4.6797 6 10.199 12.359 20.641 20.52 29.039 24.961 25.68 59.641 24 73.801-8.0391 7.0781-16.078 20.641-25.199 36.238-31.078 14.039-5.2812 26.879-0.83984 35.879 11.762 3.7188 5.1602 7.8008 9.7188 12.121 14.039 7.9219 7.8008 13.441 8.3984 22.441 2.5195 6.7188-4.4414 12.48-9.8398 13.441-18.602 0.83984-8.6406 5.2812-15.961 8.7617-23.762 3-6.8398 8.5195-10.078 15.961-10.559 12.602-0.83984 21.961 4.0781 28.32 14.879 5.2812 8.8789 7.9219 18.84 8.8789 28.922 0.96094 9.3594 4.1992 17.52 9 25.32 7.5586 12.359 15.602 12.84 25.199 1.8008 3.8398-4.4414 6.4805-9.3594 6.8398-15.238 0.48047-7.9219 0.71875-15.84 1.0781-23.641 0.60156-14.039-0.48047-28.32 1.8008-42.238 2.2812-13.441 10.68-20.762 23.52-23.16 11.879-2.2812 21 2.6406 27.719 12.238 2.5195 3.7188 4.5586 7.8008 6.9609 11.52 5.1602 8.1602 12.238 9.4805 19.441 3.2383 7.0781-6.1211 10.559-13.32 11.762-23.281 3.2383-26.762-6.1211-51.359-10.801-76.801-2.5195-13.68-7.9219-26.52-13.199-39.719-1.6797 1.1992-3.1211 1.8008-3.2383 2.5195-7.0781 27.48-26.879 43.801-50.398 56.281-25.441 13.559-51.961 24-79.801 32.398-24.84 7.4414-48.602 17.641-74.762 20.52-8.3984 0.96094-16.68 2.8789-24.961 4.1992-25.078 3.8398-50.039 9.4805-75.359 10.922-48.48 2.8789-97.078 4.4414-145.68 4.3203-17.52 0-34.922-0.60156-52.199-3.7188-12.84-2.2812-25.68-3.9609-38.52-5.3984-38.16-4.3203-75.961-11.039-113.04-21.121-68.285-18.719-126-53.879-167.77-113.04zm320.76-378.84c0.83984-1.9219 1.1992-3.7188 2.1602-4.9219 4.5586-5.2812 10.922-8.3984 17.039-10.801 11.16-4.4414 5.1602-12 4.4414-18.48-0.96094-8.5195-7.5586-9.2383-14.039-7.5586-7.8008 2.0391-15.48 3.2383-23.398 3-11.281-0.23828-14.762-4.0781-15.719-15.602-0.23828-3.3594 0.12109-6.8398 0-10.199-0.35938-10.801-0.60156-10.68-12.121-10.32-42.719 1.4414-78.48 19.32-109.8 47.16-16.078 14.281-17.641 29.16-5.2812 46.441 3.8398 5.5195 8.6406 10.801 14.039 14.641 18.121 12.719 37.922 22.199 59.52 27.719 51 13.078 103.08 12.359 154.92 10.32 37.199-1.4414 74.281-5.8789 111.24-9.9609 44.52-5.0391 87.602-15.602 128.64-34.559 18.121-8.2812 26.398-21.121 24.84-39.84-1.6797-20.762-6.9609-38.762-30.238-47.879-41.398-16.32-84.121-25.078-127.92-30.238-2.7617-0.35938-6.6016-0.96094-8.1602 0.48047-9.1211 8.0391-17.398 6.7188-27.719 1.5586-9.9609-4.9219-16.199-0.71875-19.922 10.559-6.8398 20.281-13.68 40.68-17.52 61.801-2.3984 12.961-5.5195 25.68 8.6406 34.559 2.7617 1.6797 4.9219 5.7617 1.8008 8.7617-4.4414 4.3203-7.1992-0.23828-9.2383-3.2383-6-9.2383-14.52-9.7188-24-7.5586-5.6406 1.3203-13.441 6.6016-15.602-1.8008-1.5586-6.1211 7.5586-8.0391 12.602-8.3984 10.559-0.83984 12.121-6.9609 13.32-15.719 3-21.84 7.1992-43.441 15.121-64.199 1.6797-4.5586 3.7188-9.3594 1.6797-15.602-13.922 2.0391-27.719 4.0781-41.641 6.1211-4.0781 0.60156-6.3594 2.6406-5.7617 6.7188 1.8008 11.52-6.1211 15.84-14.281 20.398-14.16 7.8008-14.16 8.3984-10.68 23.52 1.1992 5.2812 2.7617 9.1211 8.8789 10.801 5.2812 1.4414 10.078 4.9219 15 7.6797 2.3984 1.3203 5.1602 3.1211 3.6016 6.6016-1.4414 3.2383-4.3203 3-7.0781 1.8008-17.16-6.9609-33.121-3.6016-48.359 5.7617-2.1641 1.5547-4.5625 3.2344-9.0039 0.47266zm264.12 356.16c20.762-9.1211 25.922-7.8008 39.48 9.6016 4.1992 5.3984 8.3984 2.5195 10.441-1.3203 2.6406-4.9219 3.7188-10.559 7.4414-15.121 3.7188-4.5586 5.6406-8.7617 2.5195-15.238-3.7188-7.9219 0.23828-15.48 6.2383-21.359 3.6016-3.6016 8.1602-6.3594 8.8789-11.879 3.6016-24.48 5.0391-49.078 3-75.719-171.72 45.719-343.44 58.199-517.56 13.441v21c0.12109 17.281-2.2812 35.641 18.719 43.922 4.6797 10.32 12.121 10.32 22.199 8.0391 13.922-3 20.281 2.0391 25.441 15.719 1.3203 3.4805 0 8.2812 4.9219 9.9609 8.3984 2.8789 10.68 9.2383 10.199 17.398-0.48047 8.2812-3.6016 15.238-10.199 20.641-2.8789 2.3984-7.8008 2.7617-8.0391 9.1211 9.8398 4.0781 18.84 11.16 30.238 13.078 3.7188 0.60156 8.7617 2.1602 9.8398-3.3594 2.2812-11.16 18.121-18.359 9.4805-33-1.8008-3.1211 1.3203-7.6797 3.2383-11.039 7.5586-13.199 27.84-19.078 41.398-11.762 5.5195 3 9.7188 5.8789 16.922 2.7617 13.801-6.1211 23.879-0.35938 27.602 14.398 1.1992 4.9219 1.9219 9.1211 6.4805 12.84 8.8789 7.3203 8.7617 13.078 0.35938 20.641-5.0391 4.4414-10.922 7.9219-16.441 11.879-1.8008 1.3203-3.9609 2.5195-3.4805 5.2812 0.60156 3.2383 2.8789 5.0391 5.8789 5.0391 13.559 0.23828 27.48 2.0391 40.801-4.0781-11.398-18.84-8.0391-30.84 10.199-38.52 3-1.3203 6.6016-1.4414 9.8398-2.1602 9.8398-2.0391 19.801 7.0781 26.52 4.8008 7.6797-2.5195 13.68-12.719 22.801-16.199 17.52-6.6016 32.762 5.5195 31.922 24.121-0.23828 6.6016-5.1602 12.238-4.1992 19.922 6.6016-0.35938 12.238-0.83984 17.762-1.0781 5.6406-0.23828 8.2812-2.6406 7.5586-8.5195-1.8008-14.039 6.9609-20.879 18.121-25.078 7.1992-2.7617 11.879-5.8789 14.879-13.922 3.9609-10.441 13.559-16.68 25.32-17.039 10.801-0.35938 15.602 7.6797 19.68 15.961 1.1953 2.0234 2.1562 4.0664 3.5977 6.8242zm-104.28-245.04c-4.9219 10.559-7.4414 21.238-14.398 29.641-11.16 13.68-24.48 14.039-34.199-1.3203-2.0391-3.2383-3-7.3203-4.3203-11.039-5.7617-15.359-6.4805-15.602-18.121-3.4805-4.8008 5.0391-10.32 8.7617-16.078 12.359-4.4414 2.8789-9.3594 3.8398-14.52 3.8398-12.238 0-21.48-5.0391-28.801-14.879-12.961-17.52-26.16-19.922-45.121-8.6406-5.2812 3.1211-10.078 7.3203-15.602 10.199-17.641 9.4805-29.762 4.9219-41.641-6.1211-2.7617-2.6406-4.3203-6.4805-6.3594-9.8398-8.6406-14.281-13.32-16.199-29.16-11.039-8.7617 2.8789-18.359 5.8789-26.281 1.3203-10.559-6.1211-17.52-3.3594-24.719 4.4414-2.2812 2.5195-5.1602 4.3203-7.8008 6.4805-10.199 8.5195-10.078 15.719 1.1992 21.719 11.879 6.3594 24 13.078 36.719 17.16 38.16 12.359 77.398 20.641 117.36 25.199 38.281 4.4414 76.801 2.5195 115.08 3.3594 5.6406 0.12109 11.398 0 16.922-0.60156 38.641-4.9219 77.52-8.2812 116.16-13.078 34.078-4.1992 66-14.879 97.801-26.762 2.7617-1.0781 5.2812-2.2812 5.7617-5.3984 0.48047-3.2383-1.0781-5.3984-4.3203-6.2383-13.559-3.3594-16.441-13.68-17.762-25.68-0.60156-4.9219 0.35938-11.641-6.4805-13.922-0.96094 0.48047-1.5586 0.60156-1.9219 1.0781-3.1211 3.2383-1.8008 7.5586-2.8789 11.281-2.5195 9.8398-10.922 16.68-21.961 18.359-9.7188 1.4414-14.641-5.0391-19.078-11.52-2.8789-4.0781-4.6797-8.8789-8.0391-12.84-8.7617-10.078-12.602-10.68-21.121-0.23828-6.1211 7.3203-10.68 15.961-16.441 23.641-11.398 15-20.641 17.16-38.281 12.238-10.434-2.8789-16.914-9.2383-21.594-19.68zm-337.56-111.72c-10.801 23.281-10.68 45.719-15.359 67.078-2.2812 10.68 0.23828 21.359 0.35937 32.16 0.12109 7.1992 4.3203 8.6406 10.078 7.3203 8.1602-1.9219 12.359-7.9219 17.52-14.398 11.762-14.762 18.602-23.039 35.762-4.0781 5.2812 5.8789 11.52 6.6016 18.359 3 2.5195-1.3203 4.6797-3.1211 7.1992-4.4414 15.48-7.9219 23.762-5.6406 32.52 9.1211 2.6406 4.3203 4.5586 9.1211 7.4414 13.32 9.9609 14.641 21.84 16.441 35.762 5.6406 6.2383-4.8008 12.359-9.8398 18.602-14.762 18.602-14.879 31.32-10.68 45.84 7.5586 2.1602 2.6406 3.8398 5.6406 5.5195 8.5195 10.801 17.641 21.238 19.32 36.719 5.2812 5.7617-5.2812 10.441-11.879 16.078-17.398 3.9609-3.8398 8.8789-8.3984 14.879-5.8789 6.4805 2.7617 10.559 8.1602 10.922 15.719 0.35938 6.2383 0.96094 12.359 1.6797 18.602 0.48047 4.0781 1.6797 8.0391 6.8398 8.2812 3.8398 0.12109 6.3594-2.5195 7.5586-5.7617 2.2812-5.7617 4.0781-11.641 5.8789-17.641 1.1992-4.3203 1.5586-9 3-13.199 5.6406-16.199 19.922-18.602 30.84-5.1602 3.2383 3.9609 5.2812 8.7617 8.1602 12.84 6.7188 9.2383 16.32 9.7188 24.48 1.6797 3.3594-3.3594 4.9219-7.4414 6.7188-11.641 4.3203-10.199 12-17.879 20.762-24.121 15.121-10.68 29.16-6.8398 37.922 9.6016 1.0781 2.0391 1.6797 4.1992 2.8789 6.1211 3 4.5586 4.0781 12.48 10.32 12.359 6.6016-0.12109 6.7188-7.9219 8.7617-12.961 1.5586-3.6016 2.5195-7.5586 4.4414-10.922 3.9609-7.1992 10.199-10.078 18.48-8.5195 8.0391 1.6797 11.16 6.8398 11.281 14.52 0.12109 6.2383 0.83984 12.48 4.0781 18 6 9.8398 15.238 9.4805 20.641-0.83984 2.3984-4.4414 4.3203-9.1211 4.8008-14.398 3.3594-30.121-0.60156-59.762-6.2383-89.16-0.71875-3.6016-1.5586-7.0781-6.6016-9.1211 0.71875 21.48-10.559 33-28.199 41.039-21.719 9.8398-43.801 18.359-66.961 23.641-71.281 16.441-143.16 26.281-216.72 23.281-40.078-1.5586-80.281-0.12109-119.4-10.32-39.129-10.441-76.328-24.602-93.605-69.961zm3.8398 185.52c-3.1211 9.8398-1.4414 18.48-1.5586 26.879-0.12109 15.602 0.96094 17.281 15.238 22.078 23.641 7.9219 47.762 13.078 72.602 15.359 25.32 2.2812 50.762 4.1992 75.719 8.0391 34.559 5.3984 68.762 3.9609 103.08 2.3984 21.961-0.96094 44.039 0.23828 65.879-4.3203 33.719-7.1992 67.801-11.52 101.88-16.559 25.801-3.8398 50.762-10.559 75.359-19.199 7.1992-2.5195 10.199-6 9.7188-13.32-0.23828-3.9609-0.12109-7.9219-0.12109-11.879 0-5.2812-3.1211-6.9609-7.6797-6.1211-3.8398 0.71875-7.6797 2.0391-11.398 3-34.32 9.2383-68.762 18.121-103.8 24.238-46.32 8.1602-93.48 4.4414-140.04 9.7188-16.32 1.8008-32.762-0.96094-49.078-0.71875-44.398 0.83984-87.719-6.3594-130.92-14.641-25.797-4.6758-49.438-15.355-74.875-24.953zm263.76 33.719c33.238-1.5586 66.602-3 99.84-4.9219 9-0.48047 18.121-1.3203 26.879-3.1211 36.48-7.4414 72.961-14.762 108.6-25.801 18.359-5.6406 18.84-5.6406 17.281-24.238-1.1992-14.52-1.8008-14.879-16.801-10.32-19.922 6.1211-39.359 14.16-60 17.879-44.52 7.9219-89.398 12.48-134.28 16.922-27.719 2.7617-55.199 1.8008-82.922 1.1992-27.121-0.60156-54.238-0.60156-81.121-4.5586-40.199-6-80.039-13.559-117.48-30.121-5.1602-2.2812-10.441-4.4414-15.719-6.3594-2.6406-0.96094-5.3984-1.8008-7.5586 1.3203-4.8008 7.0781-0.83984 27.121 6.6016 31.559 17.16 10.199 35.762 17.398 54.84 22.199 66.359 16.562 133.8 21.125 201.84 18.363zm-258-376.08c0.48047 7.5586 3.9609 9.8398 6.2383 12.961 8.1602 11.398 17.281 22.078 21.719 36 6.6016 20.879 22.199 29.039 43.078 23.039 24.121-7.0781 42.719-21.84 58.199-41.398 18.121-22.922 18.238-27 2.0391-50.879-4.3203-6.3594-7.0781-7.4414-14.641-3.8398-29.641 14.039-60.121 25.559-93.84 24.121-7.1914-0.24609-14.512-0.003906-22.793-0.003906zm284.28-219.36c-8.1602 4.0781-9.1211 10.801-10.441 17.281-2.2812 10.68-6 21-13.922 28.559-7.0781 6.7188-12.602 14.398-18.238 22.199-7.0781 9.8398-6.7188 12.121 0 22.199 3.2383 4.9219 7.6797 8.0391 12.359 11.281 15 10.559 33.48 9.4805 49.922 14.879 18 6 31.32 5.3984 38.879-14.879 2.8789-7.5586 15.359-11.281 13.559-20.16-1.6797-8.5195-11.52-13.32-17.641-19.922-2.2812-2.5195-5.0391-4.4414-7.6797-6.7188-18.477-15.719-38.516-29.758-46.797-54.719zm197.88 179.76c-33.238-12.238-51.961-41.16-77.16-63-8.7617 12.84-19.559 21.121-29.879 29.762-11.879 9.9609-12.238 11.398-4.8008 24.961 9.6016 17.398 22.441 32.281 37.801 45 17.039 14.039 35.398 12.961 50.398-3.6016 8.7617-9.4805 16.801-19.562 23.641-33.121zm-506.04 560.28c-0.60156 2.1602-0.60156 3.4805-1.3203 4.1992-5.5195 6.7188-8.2812 13.801-1.9219 21.238 5.0391 5.8789 16.801 7.6797 24.48 2.5195 6.3594-4.3203 8.7617-1.6797 12 3 5.8789 8.3984 14.52 7.6797 22.922 5.8789 8.6406-1.9219 14.039-7.6797 13.922-16.68-0.12109-7.0781 3.3594-9.9609 9-12.238 5.2812-2.1602 9.6016-5.7617 12-11.281 1.9219-4.4414 2.1602-8.8789-1.4414-12.602-3.8398-4.1992-7.8008-3.2383-12-0.23828-2.1602 1.5586-4.9219 2.7617-7.5586 3.3594-2.1602 0.60156-4.4414 0-5.5195-2.5195-0.71875-1.8008 0.12109-3.2383 1.4414-4.4414 1.3203-1.0781 2.6406-2.1602 4.0781-2.8789 6.8398-3.3594 5.5195-9 4.1992-14.641-1.6797-6.9609-7.3203-8.3984-13.199-7.8008-9.4805 0.96094-19.32 1.8008-22.922 13.441-0.71875 2.3984-1.9219 6-5.6406 4.8008-4.3203-1.3203-3-5.3984-2.6406-8.5195 0.23828-2.1602 1.1992-4.3203 1.9219-6.3594 2.3984-6.7188 0.71875-12.359-5.2812-16.078-5.6406-3.6016-11.039-1.8008-15.238 2.6406-4.5586 4.8008-9.1211 9.4805-4.1992 17.52 6.1211 9.9609 5.3984 10.68-5.3984 11.762-1.0781 0.12109-2.2812-0.23828-3.3594-0.12109-9 1.1992-18.359 8.7617-17.762 15.359 1.0781 10.68 9.9609 8.5195 16.922 9.3594 0.83594 0.12109 1.3164 0.59766 2.5156 1.3203zm190.08-510.96c-15.48 0.12109-21.719 5.6406-22.922 20.879-0.60156 7.3203-1.0781 14.762 0.12109 21.961 2.3984 13.922 2.3984 28.078 3.2383 42 0.83984 14.281 3.3594 16.801 17.398 15.961 16.559-1.0781 31.199-7.1992 46.199-14.52 13.922-6.8398 14.879-11.398 9.2383-26.879-1.5586-4.1992-4.4414-7.8008-6.7188-11.641-9.4805-16.199-23.281-28.801-35.16-43.078-3.4727-4.082-6.9531-5.4023-11.395-4.6836zm138.84-92.641c-6.6016-6-13.922-7.0781-20.762-9-17.762-5.0391-36.602-6.9609-53.16-15.84-2.8789-1.5586-5.3984-1.1992-7.8008 0.48047-14.398 9.7188-29.52 18.719-41.398 31.801-3.4805 3.7188-6 7.6797-0.96094 11.281 12.961 9.2383 17.281 22.801 19.078 38.039 4.8008-1.3203 8.5195-2.5195 12.238-3.2383 11.52-2.2812 23.281-3.2383 28.559-16.801 1.3203-3.4805 6.8398-5.7617 10.801-7.5586 8.6406-4.0781 17.398-8.1602 26.398-11.281 10.449-3.7227 18.008-10.801 27.008-17.883zm119.4 613.92c-2.5195-9-1.0781-18.602-6.9609-26.281-3.9609-5.1602-8.5195-6.8398-14.762-4.4414-7.4414 2.8789-12.602 7.3203-13.078 15.84-0.35938 7.6797 4.8008 9.2383 10.922 9.8398 2.0391 0.23828 4.6797 0 4.8008 3.3594-1.6797 2.0391-3.6016 4.0781-5.0391 6.3594-1.4414 2.2812-1.3203 5.6406-5.2812 6.4805-3.1211-0.48047-3.1211-3.8398-4.5586-6-6.9609-9.9609-13.801-12-22.922-7.0781-9 4.9219-11.281 12-6.8398 23.039 1.6797 4.0781 4.9219 7.3203 3 12.48-2.2812 6-1.0781 11.398 5.8789 13.441 7.1992 2.0391 14.762 3.8398 18.961-5.1602 1.4414-3.1211 2.2812-7.1992 6.2383-6.8398 4.1992 0.23828 3.8398 4.6797 4.9219 7.8008 2.6406 7.9219 9.2383 10.922 20.16 9.8398 7.5586-0.71875 12-4.3203 13.68-12.359 1.4414-6.9609-5.8789-14.039-1.1992-19.199 4.4414-5.0391 12.719 0 19.32-2.1602 8.6406-2.7617 10.801-9 11.762-16.68 0.96094-7.8008-2.2812-13.32-9.2383-16.32-7.1992-3.1211-13.078 0-18.238 5.1602-2.8867 2.9961-4.207 8.0391-11.527 8.8789zm-96.719-617.04c-18.961 20.641-40.801 33.84-66 41.879-10.32 3.2383-12.961 14.281-5.7617 22.68 9.6016 11.039 19.68 21.602 29.16 32.762 4.0781 4.8008 7.9219 6 12.84 1.8008 3-2.5195 6.6016-4.6797 8.7617-7.8008 11.641-15.961 23.641-31.559 34.078-48.238 10.801-17.281 9.9609-18.238-4.0781-33.359-2.6406-2.8828-5.2812-5.7617-9-9.7227zm-69.602 647.64c-2.3984 6.6016-9.9609 6.7188-14.16 11.039-8.0391 8.0391-6 18.961 4.5586 22.922 12.84 4.8008 25.68-2.5195 28.922-16.441 0.48047-2.1602 0.96094-4.4414 3.7188-4.6797 2.7617 0.23828 3.7188 2.3984 5.1602 3.9609 8.8789 9.6016 19.441 10.922 29.879 3.4805 4.8008-3.4805 8.3984-7.4414 5.8789-14.281-2.2812-6.2383-6.8398-4.4414-11.281-3.8398-2.8789 0.35938-6.1211 0.83984-7.3203-2.3984-1.4414-3.7188 1.9219-4.5586 4.5586-5.6406 1.5586-0.60156 3.3594-0.96094 4.6797-1.9219 6.9609-5.0391 11.52-17.762 9.3594-25.801-1.8008-6.8398-7.5586-7.9219-13.078-9-9.3594-1.9219-18.48 2.2812-23.281 10.32-1.0781 1.8008-1.4414 4.1992-1.9219 6.3594-1.0781 6.6016-5.3984 5.7617-10.199 4.8008-3.7188-0.71875-5.5195-3.2383-8.0391-5.5195-9.1211-8.0391-21.602-6.9609-30 1.9219-4.0781 4.4414-6.8398 9.3594-4.0781 15.238 2.6406 5.5195 7.6797 8.1602 13.68 8.5195 4.3242 0.48047 8.6445-3.7188 12.965 0.96094zm-120.12-0.11719c0.60156 3.2383 0.71875 5.5195 1.5586 7.5586 3.2383 7.8008 18.719 13.32 25.801 9.3594 5.3984-3 6.9609-14.281 2.6406-21.84-1.4414-2.5195-3.3594-4.9219-1.5586-7.6797 1.9219-2.8789 4.6797-2.0391 7.4414-0.83984 2.0391 0.83984 4.3203 1.6797 6.4805 1.8008 6.9609 0.35938 18.84-7.0781 18.48-12.121-0.60156-8.6406-8.6406-7.0781-14.039-9-0.96094-0.35938-1.6797-1.4414-2.1602-1.9219-0.60156-2.8789 0.83984-4.5586 2.0391-6.4805 2.8789-5.1602 1.8008-9.6016-2.0391-13.801-4.5586-5.0391-9.1211-2.3984-13.801-0.35938-5.2812 2.2812-8.7617 6.3594-12.121 11.16-3.8398 5.3984-2.8789 13.32-9.8398 17.281-5.6406-8.0391-2.7617-15.359 0.83984-22.441 3.2383-6.4805 0.23828-9.4805-5.2812-11.52-7.6797-2.7617-20.281 2.1602-24.961 9.8398-4.8008 7.8008-2.0391 13.801 4.4414 19.078 1.1992 0.96094 1.9219 2.6406 2.8789 4.0781-4.1992 5.0391-11.16 5.7617-15 10.922-4.6797 6.1211-4.9219 12.359-0.96094 18.84 3.7188 5.8789 9.1211 5.8789 14.879 3.8398 4.3203-1.6758 8.4023-3.4766 14.281-5.7539zm146.64-531.6c10.199 15.121 19.199 25.559 32.16 32.16 7.0781 3.6016 11.641 3.4805 16.32-4.4414 16.078-27.719 25.441-57.602 31.441-88.68 1.0781-5.2812 1.1992-11.281-6.1211-14.879-13.441 25.199-32.039 46.078-50.52 67.199-5.2812 6.1211-11.16 11.398-23.281 8.6406zm-258.96-37.68c21.961 1.4414 42.48-4.9219 62.762-12.359 7.9219-2.8789 15.84-5.8789 23.762-9.1211 8.7617-3.4805 6.7188-9.3594 4.1992-16.441-2.6406-7.3203-6.6016-8.1602-12.84-5.6406-7.9219 3.2383-16.078 4.9219-24.48 6.2383-19.441 3.1211-38.879 6.7188-58.199 10.32-5.5195 1.0781-11.039 2.3984-16.199 4.5586-6.6016 2.7617-9 8.3984-7.5586 15.238 1.3203 6.3594 6.2383 7.0781 11.641 6.9609 5.6367 0.125 11.273 0.24609 16.914 0.24609zm135.36 3.1211c9.9609 2.0391 17.039-2.6406 20.16-9.9609 3.6016-8.5195 5.2812-18.121-0.48047-27.48-6.9609-11.281-15.961-20.281-26.281-28.32-9.3594-7.3203-15.602-6.7188-26.398 2.5195-6.6016 5.6406-7.6797 11.398-2.3984 21.121 6.2383 11.398 13.199 22.32 19.68 33.48 3.8398 6.3594 8.4023 10.68 15.719 8.6406zm350.28 501.36c-3.4805 6-10.078 8.7617-14.762 13.559-6.6016 6.8398-6.7188 16.199-0.71875 22.922 5.3984 6.1211 14.281 6.8398 20.52-1.0781 6.1211-7.8008 12.238-7.9219 20.52-6.2383 4.1992 0.83984 9 0 13.32-0.83984 8.0391-1.3203 14.879-4.6797 18.961-12.48 4.4414-8.5195-4.8008-9.8398-7.3203-14.52-6.1211-11.281-8.5195-11.762-19.199-5.8789-2.8789 1.5586-4.6797 4.9219-8.3984 5.1602-5.1602-0.96094-5.2812-7.1992-9.7188-9-5.6406-2.3984-6.9609-10.199-14.52-10.801-4.6797-0.35938-7.5586 0.23828-9.4805 4.5586-1.6797 3.8398-0.23828 6.4805 2.7617 8.6406 2.875 1.9141 6.8359 2.0352 8.0352 5.9961zm-282.24-429.36c16.441-2.3984 33-4.0781 49.199-7.6797 9.7188-2.0391 10.68-6.2383 5.3984-14.52-3.9609-6.2383-9-12.359-10.078-19.441-2.2812-14.879-11.879-24.602-21.121-34.922-1.0781-1.3203-2.2812-2.5195-3.2383-3.8398-9.9609-13.441-10.078-13.68-26.398-9.1211-3.3594 0.96094-7.9219-0.60156-10.559 3.9609 5.1602 6.7188 12.238 10.078 19.441 13.199 7.0781 3 12.602 7.8008 17.398 13.32 13.68 15.719 11.398 32.762-5.1602 45.121-5.043 3.7188-11.523 5.1602-14.883 13.922zm133.2-142.56c1.6797-0.71875 4.0781-1.0781 5.6406-2.5195 11.16-10.32 21.84-21.238 29.039-34.68 3.4805-6.4805-0.48047-14.281-9.3594-21.121-6-4.6797-12.238-5.0391-18.238 0-9.6016 7.9219-18.719 16.199-24.719 27.359-2.6406 4.8008-7.1992 9.6016-2.2812 15.238 5.5156 6.2422 10.316 13.562 19.918 15.723zm-112.32 105.96c-0.96094-13.32-9.2383-21.359-19.801-27.48-7.3203-4.3203-14.762-8.1602-22.32-12-3.7188-1.9219-7.4414-6.2383-11.641-0.60156-3.8398 5.2812-9.2383 9.6016-4.0781 17.762 8.1602 12.961 18.121 24.238 28.801 35.16 5.5195 5.6406 11.16 8.1602 17.762 4.6797 6.5977-3.6016 11.879-8.8789 11.277-17.52zm118.92-175.56c3.3594-3.7188 0.83984-6.8398-0.48047-9.7188-10.441-22.801-24-43.32-42.719-60.238-4.1992-3.7188-8.7617-7.0781-13.078-10.68-4.5586-3.7188-9.4805-3.6016-13.922-0.12109-5.1602 3.8398-3.2383 9-1.6797 13.922 1.1992 3.9609 4.4414 6.3594 7.0781 9.3594 18.719 20.398 41.039 36.84 60.48 56.398 0.96094 0.95703 3.0039 0.83594 4.3203 1.0781zm41.281 33c18.238 19.801 36.238 39.48 58.199 54.84 4.4414 3.1211 10.32 4.1992 15.602 6 5.2812 1.6797 8.3984-2.6406 11.641-5.2812 3-2.3984 2.5195-6.6016 0-9.1211-7.1992-7.0781-11.281-16.922-19.68-22.922-16.68-11.762-38.879-10.922-55.441-23.52-2.1602-1.5586-5.8789-3.1172-10.32 0.003906zm-189.12-38.281c-15.359 14.281-30.719 28.32-45.602 42.48-5.6406 5.3984-10.801 11.52-15.961 17.398-4.4414 5.1602-2.8789 8.7617 2.7617 12.121 6 3.6016 10.68 2.6406 14.879-2.3984 7.0781-8.1602 15.238-15.121 24.238-21 13.559-8.8789 26.039-18.121 20.039-37.441-1.0742-3 2.5273-6.2422-0.35547-11.16z"/>
</svg>
