<?xml version="1.0" encoding="UTF-8"?>
<svg width="1200pt" height="1200pt" version="1.1" viewBox="0 0 1200 1200" xmlns="http://www.w3.org/2000/svg">
 <path d="m382.31 352.22 15.938 45.797c2.1562 6.1875 8.9531 9.6094 15.281 7.4062 6.2812-2.1562 9.5625-9 7.4062-15.281l-15.938-45.797c-2.5781-7.4062-1.7344-15.516 1.7344-21.328l27.844-37.828c6.1875-8.4375-1.4531-15.984-6.3281-31.828-2.3906-6.1875-9.3281-9.3281-15.516-6.8906-6.1875 2.3906-9.2812 9.3281-6.8906 15.516l5.4844 14.297-24.562 33.422c-7.7344 12.844-9.375 28.312-4.4531 42.516z"/>
 <path d="m981.74 961.87 40.594-17.719c5.8594-2.5312 8.6719-9.2344 6.4219-15.234l-156.89-417.56c7.0781-52.266 13.406-115.83 10.219-159.42-1.5469-21.141-9.3281-35.766-23.109-43.5-42.188-23.625-122.29 29.766-181.22 57-61.219 28.312-89.766 21.469-90.75 21.188-6.2344-1.8281-12.891 1.5469-14.906 7.7812-2.0625 6.3281 1.4062 13.078 7.7344 15.141 3.6094 1.1719 37.219 10.453 108-22.312 31.734-14.719 69.75-36.984 105.05-50.719 4.0312 6.8906 17.484 34.125 11.109 80.625-3.6094 26.344-3 48 1.9219 64.453 0.9375 3.0938-0.9375 6.5156-4.2188 7.875-50.391 20.391-113.44 47.156-127.55 58.781-28.641 23.625-56.672 33.984-83.25 30.516-38.297-4.8281-61.922-36.75-62.109-37.031-2.8594-3.9844-7.8281-5.8125-12.609-4.6406-5.0156 1.2188-49.219 12.094-58.172 15.234-6.2344 2.2031-9.5156 9.0469-7.3125 15.328 2.2031 6.2344 9.0469 9.5156 15.328 7.3125 5.2031-1.8281 29.672-8.0625 48.562-12.75 39.328 44.156 95.766 55.312 151.69 21.141l-82.5 134.9c-7.7344 12-11.344 26.438-10.125 40.641l16.547 191.06-48 6.4688-34.266-217.08c-5.0156-31.922 7.7812-46.219 30.047-114.14 2.25-6.2344-1.0312-13.125-7.2656-15.328-6.2812-2.25-13.125 1.0312-15.328 7.2656l-24.281 68.203c-7.5469 18.281-9.9375 38.25-6.8438 57.797l36.094 228.66c1.0312 6.5625 7.1719 10.922 13.453 10.031l70.969-9.5625c6.375-0.84375 10.922-6.5625 10.359-12.938l-17.578-202.45c-0.75-8.9531 1.5-18 6.5156-25.781 21.656-35.484 105.75-172.78 107.86-176.68 21.422-10.359 55.828-25.266 98.766-42.609 14.859-6.0469 22.688-21.938 18.234-36.984-2.7188-9-5.1094-25.734-1.125-54.281 6.4219-46.594-4.875-77.625-11.766-91.453 31.125-7.6406 40.453 1.8281 42.141 24.656 5.9531 81.422-24.094 243.14-24.375 244.74-0.32812 1.6875-0.28125 3.4688 0.14062 5.1562 2.1094 8.3906 6.7969 35.344 0.70312 48.938-11.672 25.969-2.1562 60.75 19.547 71.625 3.0938 1.5469-0.32812 12.281-5.5312 9.7969-9.375-4.4531-30.562-22.5-55.5-47.25 3.4219-11.156 7.1719-37.031-21.422-59.156-3-2.2969-4.2656-4.2656-4.2188-5.1562 0.23438-3.2812 5.1562-9.8438 27.188-22.453 7.2656-4.125 11.625-6.6562 12.562-13.031 1.6875-11.531-0.046875-41.391-0.23438-44.766-0.375-6.6094-5.8125-11.766-12.703-11.25-6.6094 0.42188-11.672 6.0938-11.25 12.703 0.5625 9.6562 1.1719 25.688 0.84375 34.922-16.734 9.7031-39 22.594-40.359 42.234-0.46875 6.6562 1.5 16.547 13.453 25.828 15.891 12.281 15.844 25.078 13.031 33.609-2.6719 8.0625-0.65625 16.734 5.25 22.594 16.406 16.359 46.453 45 63.094 52.875 33.609 15.938 57.984-37.219 26.531-52.969-9.4688-4.7344-15.234-25.125-8.3906-40.312 9.4219-20.906 3.5156-52.266 1.3125-62.062 1.0312-5.7656 3.6562-20.344 6.7969-39.984l137.63 366.32c-28.266 11.531-31.219 15.375-32.625 12.188l-76.734-172.18c-2.7188-6.0469-9.7969-8.7656-15.844-6.0938-6.0469 2.7188-8.7656 9.7969-6.0938 15.844l76.734 172.18c5.8594 13.125 21.234 18.75 34.031 13.219z"/>
 <path d="m541.92 1028.1c4.7812-4.5938 4.875-12.188 0.28125-16.969s-12.188-4.875-16.969-0.28125c-62.156 62.109-69.797 61.922-71.531 78.375-2.3906 22.922 21.703 38.859 41.766 28.5l88.828-46.031c6 8.6719 19.781 10.031 38.438 3.6562 10.828-3.375 21.891-11.344 20.391-23.719-0.23438-1.8281-5.5781-44.625-23.297-57.562-5.3438-3.9375-12.844-2.7656-16.781 2.625-3.8906 5.3438-2.7188 12.844 2.625 16.781 4.0312 2.9531 10.453 19.875 13.125 37.594-4.0312 2.1094-11.484 3.7969-15.516 4.125-0.98438-1.9688-1.5-8.625-8.3438-11.391-9.1875-3.6094-6.7031 0.46875-110.53 52.641-4.5 2.3438-10.406-3.5625-4.2656-8.6719z"/>
 <path d="m301.13 518.06c7.9219-1.7812 33.703-9.0469 31.781-28.406-2.4375-24.75 0-41.344 7.2656-49.406 9.75-10.781 31.5-6.8906 48.562-8.2969 6.6094-0.51562 11.531-6.3281 10.969-12.938-0.51562-6.6094-6.2344-11.625-12.938-10.969-19.031 1.5-46.359-3.8438-64.406 16.078-11.859 13.125-16.312 34.547-13.594 65.438-2.4844 1.7344-8.0625 3.9375-12.891 5.0625-15.188 3.4688-10.5 26.812 5.25 23.438z"/>
 <path d="m1007.3 1084.5c11.812 8.7188 28.828 4.7344 35.297-8.7188 2.5781-8.4375 25.922-37.547 9.3281-75.703l-15.234-34.969c-2.625-6.0938-9.7031-8.9062-15.797-6.2344-6.0938 2.625-8.8594 9.7031-6.2344 15.797l15.234 34.969c11.25 25.781-4.9688 45-8.2969 55.547-6.1875-6.2344-33-16.734-33-47.906v-33.375c0-6.6094-5.3906-12-12-12s-12 5.3906-12 12v33.375c0 45.188 37.5 61.734 42.703 67.219z"/>
 <path d="m742.97 1040.9c13.734 5.4844 21.047 14.203 21.703 25.875 0.60938 11.062 7.0781 20.953 17.297 26.484 15.844 8.625 57.094 30.656 74.109 30.656 31.594 0 36.422-46.641 8.4375-59.812-17.203-8.0625-24.75-19.828-22.547-34.875 2.6719-18.422-7.5-39-11.906-52.031-1.5469-4.5938-2.2969-9.3281-2.25-14.016 0.28125-22.969 15.188-118.36-7.5-184.22-2.1562-6.2812-9-9.6562-15.281-7.4531-6.2812 2.1562-9.6094 9-7.4531 15.234 20.859 60.469 6.5156 151.78 6.1875 176.11-0.14062 12.469 2.9062 20.719 6.6562 30.469 3.8438 9.8906 9.0469 23.484 7.7812 32.438-3.75 25.641 9.4219 47.531 36.094 60.047 4.2656 2.0156 5.3438 8.2969 4.2188 11.906-0.75 2.3438-1.4531 2.4844-3.4688 2.1094-9.6094-1.5938-32.625-11.953-61.641-27.656-2.7656-1.5-4.5938-4.125-4.7812-6.75-0.70312-12.281-6.4219-34.688-36.75-46.828-3.7969-1.5-5.8125-3.1875-6-4.9219-0.9375-8.8594 16.547-27.375 22.781-31.734 2.1562-1.125 3.9844-2.9531 5.1094-5.1094 4.5-8.6719-13.547-63.375-24.703-95.25-10.969-31.312-23.906-104.95-2.8594-182.16 3.3281-12.141-3-24.469-14.531-28.734l-42.375-23.016c-5.8125-3.1406-13.125-1.0312-16.266 4.8281-3.1406 5.8125-0.98438 13.125 4.8281 16.266 47.016 25.453 43.5 23.766 45.234 24.328-19.781 72.562-12.562 150.94 3.375 196.4 5.625 16.125 19.406 60.422 23.625 76.734-29.203 24.75-42.094 60.703-7.125 74.672z"/>
 <path d="m198.37 664.5c39.375 4.6875 66.844-15.797 75.797-47.812 4.4062-0.9375 9.9844-1.2656 12 1.875 17.062 26.109 81.188 36.703 143.63-21.844 23.25-21.797 10.172-49.125 10.031-54 4.9688 0.046875-1.6875 1.5 79.266-30.562 9.4219-3.75 16.688-11.859 19.547-22.125 36.609-157.87 35.203-146.9 34.688-151.55 165.28-30.234 160.74-29.25 162.42-29.812 27.562-9.4219 40.172-41.062 26.859-67.078-24.938-48.703-90.469-91.453-144.37-112.17-32.203-12.375-67.828-11.578-100.27 2.3438l-31.453 13.453c-18.422 6.5156-47.156-3.2344-56.625-7.5938-1.1719-0.51562-2.3906-0.70312-3.6094-0.84375-14.484-28.547-57.188-76.547-115.97-55.5-45.703 16.453-70.5 53.109-78.469 81.938-9.1406 33.094 4.2188 48.516 33.562 48.516 4.5469 0 9.0938-0.60938 13.5-1.5469 17.484 35.484 54.141 89.906 90.797 75 34.969-14.203 41.109-53.156 41.344-54.797 0.98438-6.5156-3.5156-12.562-10.078-13.594s-12.656 3.5156-13.641 10.031c-0.046875 0.28125-4.5469 27.141-26.625 36.094-15.469 6.4688-44.297-31.594-59.672-62.203 7.7344-5.6719 7.1719-6.3281 14.625-12.281 5.8594 11.812 13.266 17.391 31.734 11.438 13.312-4.2656 18.703-15.891 19.594-18.047 1.9219-5.4844 5.25-11.812 7.6875-14.766 16.266 9.375 27.844 27.516 41.344 19.594 9.75-5.6719 8.3438-18.141 9.4219-24.938 12.562 4.8281 44.109 14.906 69.797 5.8125l32.156-13.734c26.719-11.391 55.875-12.141 82.266-1.9688 48.047 18.469 109.73 57.891 131.63 100.73 6.375 12.469 0.98438 28.078-12.469 33.141l-183.98 33.609c-9.1406 1.6875-18.047-3.8438-20.578-12.844-2.8125-10.078 3.4219-21.375 16.266-22.828l104.02-19.641c6.5156-1.2188 10.781-7.5 9.5625-14.016s-7.5938-10.781-14.016-9.5625l-103.08 19.406c-30.281 3.3281-47.625 37.266-30.797 64.125l-39.656 116.06c-2.0156 4.5469-5.9531 7.875-10.734 9.1875l-40.125 10.828c-13.5 3.6562-10.828 23.578 3.0938 23.578 2.9531 0 1.3125-0.09375 43.266-11.25 11.812-3.1875 21.469-11.438 26.812-23.625l37.031-108.33c8.1562 3.2812 15.328 3.7031 22.594 2.4844-35.203 143.68-30.234 143.72-38.297 146.9-31.219 12.562-71.859 28.547-75.469 30.469l-0.51562-2.25c-1.4531-6.4688-7.875-10.5-14.344-9.0469s-10.5 7.875-9.0469 14.344l8.3438 36.844c1.5469 6.8438-0.65625 14.109-5.8125 18.984-39.375 36.891-72.844 37.406-85.5 35.859-12.281-1.4531-19.312-6.0938-21.609-9.6562-11.859-18.094-35.156-14.297-47.062-9.1875-3.8438 1.6406-6.5625 5.2031-7.125 9.3281-0.23438 1.6406-6.2344 40.547-50.906 35.109-44.391-5.25-52.969-39.141-54.188-58.641 0.5625 0.09375 1.125 0.42188 1.7344 0.42188 4.3125 0 8.4844-2.3438 10.594-6.4219 6.2344-11.812 27.703-43.969 51.891-51.141 9-2.6719 17.578-1.6406 26.156 3.1875 20.438 11.438 21.375 27.656 21.375 28.172 0.046874 6.6094 5.4375 11.906 12 11.906h0.09375c6.6562-0.046875 11.953-5.4844 11.906-12.094 0-1.2188-0.65625-30.375-33.656-48.891-41.719-23.344-81.844 9.7969-106.97 50.672-7.8281-5.6719-17.719-0.23438-18.703 8.25-3.5625 30.562 7.5469 90.469 75 98.484zm203.53-507.47c-6-4.8281-12.75-10.031-20.109-13.359-17.109-7.8281-31.031 11.531-37.125 29.344 0 0.046875-1.6406 3-4.5938 3.9375-1.1719 0.375-2.1562 0.65625-2.9062 0.84375-3.1406-6.9375-6.3281-13.828-15.469-15.609-10.922-2.2031-19.875 6-31.219 16.312l-2.2031 2.0156c-5.3906 4.8281-16.359 7.7812-25.875 7.0781-5.5781-0.42188-8.8594-2.0156-9.0469-2.0156-0.84375-2.25-0.84375-13.312 6.4688-29.062 6.6094-14.203 23.016-39.891 58.594-52.688 47.297-17.016 77.625 28.359 84.891 40.922z"/>
 <path d="m213.79 782.26c32.812-3 84.422 56.344 110.44 99.609 6.9375 11.531 24.938 4.5 21.984-8.8125-0.79688-3.6094-19.969-88.922-43.828-119.95-34.078-44.297-65.859-41.438-70.172-44.719 0 0-0.84375-1.2188-1.125-5.9531-0.375-6.6094-6.2344-11.625-12.703-11.297-6.6094 0.375-11.672 6.0938-11.25 12.703 1.4531 24.656 16.734 27.844 29.062 30.375 16.875 3.4688 32.719 14.766 47.156 33.516 7.5938 9.8906 15.234 28.219 21.75 47.578-25.781-29.812-60.75-60.188-93.703-56.953-34.781 3.2344-22.5-28.641-19.594-54.328 0.98438-6.5625-3.5625-12.656-10.125-13.594-6.6562-0.89063-12.656 3.5625-13.594 10.125-3.5156 25.266-11.25 50.859 6.7031 69.797 9.0469 9.5156 22.172 13.547 39 11.906z"/>
 <path d="m1074.3 133.64c-13.078-51-64.5-57.141-100.36-24.281-38.109-28.922-86.625-20.578-96.375 30.375-14.156 73.922 68.016 116.58 93.516 127.87 7.1719 3.1406 15.188 2.8594 22.031-0.89062 23.766-12.844 99.797-60.422 81.188-133.08zm-92.578 111.98c-0.1875 0.09375-0.46875 0.1875-0.89062 0-21.422-9.5156-90.469-44.859-79.641-101.44 2.5781-13.5 8.3906-22.125 17.297-25.5 11.203-4.2656 27.656-0.32812 40.969 9.75 9.4219 7.1719 22.594 6.4688 31.312-1.6875 11.812-11.062 27.844-16.172 39.844-12.609 9.9844 2.9062 16.875 11.438 20.438 25.406 14.297 55.875-49.453 95.344-69.328 106.08z"/>
</svg>
