<?xml version="1.0" encoding="UTF-8"?>
<svg width="1200pt" height="1200pt" version="1.1" viewBox="0 0 1200 1200" xmlns="http://www.w3.org/2000/svg">
 <path d="m346.8 690.6c-7.9219 4.9219-13.922 11.879-20.762 17.762-8.8789 7.4414-17.641 15.121-26.281 23.039-20.52 18.84-35.039 41.762-45 67.559-8.0391 20.641-14.16 41.879-15.359 64.199 0 0.35938-0.12109 0.83984-0.23828 1.1992-1.8008 4.5586-0.12109 13.199-6.1211 12.84-6.2383-0.35938-3.3594-8.3984-3.8398-13.078-1.1992-14.039-2.3984-27.961-1.6797-42.121 1.8008-36.719 7.9219-72.719 22.801-106.56 16.559-37.559 44.398-63.359 84-75.719 4.9219-1.5586 9.7188-3 16.32-6.8398-25.559-0.48047-48.602-2.5195-71.762-1.4414-18.121 0.83984-36.121-1.6797-53.879-4.8008-18.359-3.2383-30.359-15.961-37.441-32.762-4.4414-10.68-0.60156-21.48 2.8789-31.68 7.9219-23.16 26.281-33 49.078-36.961 17.281-3 33.48 0.83984 49.32 7.1992 5.8789 2.3984 11.641 4.8008 18.961 7.6797-7.5586-23.398-10.559-46.078-11.398-68.762-1.5586-42.602-0.96094-85.078 7.4414-127.2 4.9219-24.84 13.199-48.719 19.559-73.199 6.8398-25.801 17.16-50.039 26.879-74.762 3.4805-9 8.8789-17.039 14.879-24.719 2.8789-3.6016 1.5586-5.8789-2.7617-6.7188-6.3594-1.1992-12.719-1.1992-19.199-1.0781-3.8398 0.12109-8.1602 1.5586-11.16-3 3.3594-4.6797 8.7617-5.0391 13.68-6.3594 3.1211-0.83984 6.3594-1.1992 9.3594-2.0391 31.32-8.5195 47.281-29.762 50.398-61.441 1.5586-16.32 5.1602-32.641 3.1211-49.199-0.12109-1.1992-0.12109-2.3984 0.23828-3.6016 0.12891-0.96094 0.96875-2.0391 2.2891-2.0391 1.1992 0 2.1602 0.71875 2.5195 2.0391 2.0391 6.6016 1.9219 13.441 2.1602 20.281 0.59766 16.918 3 33.48 7.918 49.68 3.3594 11.16 9.6016 15.961 21.359 16.68 31.078 2.0391 60.961 10.078 90.121 20.398 31.801 11.16 62.641 24.84 92.641 40.199 5.0391 2.5195 10.078 4.9219 14.762 8.0391 14.879 9.6016 21.719 23.039 19.078 41.039-1.1992 8.2812-1.8008 16.68-2.7617 24.602 3.9609 2.6406 6.9609 0.96094 9.8398 0 31.559-10.801 63.961-18.602 96.84-24 11.039-1.8008 22.32-3 33.602-1.4414 5.2812 0.71875 8.8789-0.96094 12.238-5.5195 11.762-15.719 16.441-32.879 12.84-52.199-1.0781-5.8789-2.2812-11.879-3.2383-17.762-0.60156-3.3594-0.60156-6.8398 3.7188-7.5586 4.0781-0.60156 4.0781 3.1211 4.5586 5.7617 1.4414 7.9219 3 15.84 3.9609 23.762 1.1992 10.68 5.6406 20.039 11.641 28.801 9.7188 14.281 26.16 19.32 42.359 13.078 4.6797-1.8008 9.1211-3.6016 12.961 1.6797-4.3203 4.0781-10.199 4.5586-15.359 6.6016-20.039 7.9219-37.078 34.559-27.121 58.559 11.52 27.961 16.32 57.84 26.281 86.16 7.6797 21.961 12.961 44.641 18.84 67.199 9 34.801 9.4805 70.559 14.52 105.84 1.1992 8.7617 1.6797 17.641 2.3984 26.398 0.83984 10.078 1.8008 10.559 10.199 5.3984 2.3984-1.4414 4.8008-2.8789 7.4414-3.9609 8.3984-3.3594 16.199-1.6797 21.602 5.3984 11.281 14.762 21 30.84 24.359 49.199 2.0391 10.801 1.1992 22.441-3.9609 32.879-10.559 21.238-25.68 37.801-48.48 46.078-13.922 5.0391-27.961 10.078-41.879 15.238-4.9219 1.8008-9.7188 3.6016-14.281 6.2383-10.801 6.2383-10.922 6-8.5195 18.602 0.60156 3.1211 1.5586 6.2383 2.2812 9.3594 5.3984 21.602 2.5195 17.641 24.121 24.602 17.16 5.5195 35.281 8.7617 50.879 18.359 29.641 18.121 58.078 37.68 74.16 70.199 6.4805 12.961 10.441 26.879 15.238 40.559 0.60156 1.8008 0.60156 3.9609 0.60156 6 0 1.0781-0.60156 2.5195-1.4414 3-1.5586 0.83984-3 0-3.8398-1.6797-2.0391-3.4805-3.9609-6.9609-6.1211-10.441-8.2812-13.922-21.48-22.559-34.441-31.32-18.359-12.359-38.281-21.84-58.441-31.078-10.559-4.8008-21-9.9609-31.559-14.762-3.6016-1.6797-6.8398-4.3203-11.879-4.8008 0.12109 7.1992 2.5195 13.559 4.9219 19.68 8.0391 21 16.32 41.762 26.16 62.039 7.6797 15.84 13.559 32.641 20.281 48.961 4.0781 9.9609 5.6406 10.922 16.199 8.8789 4.3203-0.83984 8.7617-1.8008 12.602-3.7188 8.8789-4.1992 18.238-6.1211 27.719-8.0391 22.922-4.5586 39.84 5.0391 53.281 22.559 17.762 23.039 9.3594 58.199-8.2812 76.32-10.559 10.922-22.199 21-33.961 30.719-14.16 11.762-28.68 23.16-43.32 34.441-13.32 10.199-24.48 23.16-38.762 32.398-14.281 9.2383-29.398 16.199-46.922 17.039-9.1211 0.48047-17.641-0.96094-25.32-5.7617-7.4414-4.6797-15.121-9.2383-22.078-14.52-5.6406-4.1992-8.2812-10.801-10.078-17.52-8.5195-31.801-4.4414-61.078 17.039-87.238 8.0391-9.8398 17.52-17.52 28.199-24.121 9.9609-6.1211 19.559-12.719 29.398-18.84 5.8789-3.6016 6.8398-8.2812 4.1992-14.281-3.1211-7.3203-6.1211-14.879-9.2383-22.199-6.9609-16.199-15.961-31.441-22.32-48.961-4.1992 3.9609-5.1602 8.2812-6.1211 12.359-3.3594 14.281-11.281 26.52-17.52 39.48-0.48047 1.0781-1.0781 2.1602-1.9219 3.1211-2.0391 2.2812-3.9609 6.3594-7.3203 4.9219-3.8398-1.6797-1.3203-5.6406-0.71875-8.5195 6.8398-37.32-0.48047-72.719-14.398-107.16-9.7188-24.121-12.719-48.719-7.4414-74.281 0.48047-2.2812 1.4414-4.6797-0.23828-7.5586-8.1602 3.2383-15.359 8.1602-21.84 14.039-28.32 26.16-55.801 53.16-82.32 81.238-16.922 17.762-35.879 32.879-58.801 43.32-18.961 8.5195-40.559-6.4805-42.84-24-2.0391-15.719 0.71875-30.238 8.3984-44.16 15.719-28.441 38.52-49.922 64.922-68.398 22.078-15.359 47.039-21.961 72.602-27.238 2.6406-0.60156 5.6406 0 8.7617-3.2383-29.281-11.879-52.559-31.441-73.801-55.441-2.1602 9.7188 0.60156 16.801 2.7617 24 0.83984 2.7617 1.4414 5.7617-2.1602 6.9609-3 0.96094-5.5195-0.12109-7.1992-2.7617-1.0781-1.6797-1.8008-3.6016-2.7617-5.2812-14.039-26.039-37.68-38.039-66.719-33.719-2.2812 0.35938-4.6797 1.3203-6.9609-1.3203 0-4.5586 3.9609-6.3594 6.9609-8.7617 24.359-19.078 31.801-53.641 20.52-82.441-10.078-25.559-22.199-50.398-28.801-77.281-1.5586-6.1211-3.3594-12.359-7.3203-19.32-15.719 24.84-33.48 46.801-53.039 66.961 3.3594 4.4414 7.3203 3.2383 10.68 3.6016 16.32 1.3203 31.559 6.7188 45.121 15.359 11.398 7.1992 17.52 18.48 19.559 31.922 4.6797 29.879-9.9609 43.441-34.199 53.039-14.16 5.5195-29.16 5.8789-44.039 3.3594-12.602-2.0391-25.078-4.9219-37.559-7.8008-25.078-5.7617-50.762-8.0391-75.961-12.602-7.0781-1.3203-14.281-1.1992-20.879 3.3594-4.3203 3-5.8789 5.8789-3.6016 10.922 6.3594 13.922 12.238 27.961 18.719 41.762 8.6406 18.238 15 37.078 19.801 56.641 3.6016 14.879 1.5586 29.641-0.71875 44.281-3.2383 21-8.2812 41.52-18.48 60.719-5.0391 9.4805-9.4805 19.559-10.199 30.719-0.12109 2.6406-1.5586 5.3984-2.7617 7.9219-0.35938 0.71875-1.9219 1.3203-3 1.3203-1.4414 0-2.0391-1.3203-2.0391-2.5195-0.12109-1.5586 0.12109-3.2383 0.35937-4.8008 5.6406-27.359 1.0781-54.359-3.4805-81.359-2.1602-13.078-5.5195-25.922-9.3594-38.52-1.0781-3.6016-1.1992-8.0391-6-11.039-5.3984 16.199-10.68 32.16-15.84 48-13.441 41.52-27 83.16-40.32 124.8-4.1992 13.199-3.3594 12.719 8.1602 20.879 21.121 15.121 45.602 23.52 68.762 34.441 4.8008 2.2812 9 4.9219 12.719 8.7617 5.7617 5.7617 6.9609 5.7617 12-0.96094 7.0781-9.4805 12-19.922 12-32.16 0-5.6406 0-11.281 1.6797-16.68 0.71875-2.5195 1.9219-4.4414 4.9219-3.9609s3.9609 2.3984 3.6016 5.1602c-1.0781 9.1211-1.8008 18.359-3.3594 27.48-2.3984 14.039 0.48047 27.121 6.1211 39.84 4.5586 10.441 12 17.762 22.801 21.84 3.7188 1.4414 7.5586 2.8789 10.922 5.0391 3.2383 2.0391 2.6406 6.2383-1.1992 7.1992-5.0391 1.1992-9.8398 3.4805-15.238 3.1211-3.1211-0.23828-6.3594-0.12109-9.4805 1.0781-3.3594 1.3203-5.8789 2.8789-3.8398 6.9609 6.4805 13.32 2.2812 25.801-3 38.16-2.8789 6.9609-7.9219 12-14.039 16.078-16.199 10.801-33.719 18.359-53.16 21.121-12.238 1.6797-24-0.96094-36-1.6797-20.762-1.0781-41.879-2.0391-62.039-7.1992-32.641-8.2812-65.281-17.16-93.719-36.359-11.762-7.9219-22.32-17.641-30.84-28.441-12.719-16.078-17.641-35.16-12.719-55.559 7.4414-30.961 25.801-52.922 56.398-63.719 5.7617-2.0391 11.762-2.5195 17.879-2.5195 5.2812 0 10.441 0.35938 15.719 0 11.641-0.60156 20.16-5.3984 25.801-16.559 10.559-20.762 18.961-42.48 28.078-63.84 22.441-52.68 38.52-107.28 50.281-163.08 0.48047-2.3984 1.0781-4.6797 1.6797-6.9609 0.23047-2.1484 1.0703-4.0703-0.12891-6.707zm64.918 384.24c-18.961 23.762-42.719 33.719-72.121 33.238-25.68-0.48047-50.281-5.5195-74.281-13.199-26.762-8.6406-49.922-23.398-66.84-46.68-6.7188-9.2383-7.1992-23.281-1.0781-32.879 1.1992-1.8008 2.2812-4.0781 5.0391-3.1211 0.96094 2.1602-0.35938 3.3594-0.96094 4.8008-4.9219 11.281-3.3594 21.121 4.4414 31.199 12.238 15.719 28.199 27.238 45.238 35.16 33.48 15.602 69.359 22.68 106.68 18.84 17.52-1.8008 31.801-10.922 43.68-23.398 7.1992-7.4414 6.2383-17.281-1.5586-24.359-7.0781-6.6016-14.52-12.719-24.359-14.762-1.9219-0.35938-3.8398-1.3203-5.5195-2.2812-0.96094-0.48047-1.8008-1.6797-2.0391-2.6406-0.60156-2.0391 1.0781-3.1211 2.5195-3.4805 6.2383-1.5586 12.48-2.7617 18.719-4.1992 9.3594-2.1602 17.641-6.4805 24.84-12.719-5.2812-8.2812-11.762-12.719-19.801-16.32-20.762-9.2383-42.602-16.68-60.84-31.078-3.4805-2.7617-7.9219-5.0391-12.602-5.6406-4.6797 7.5586-2.7617 16.801-7.6797 23.52-2.0391-0.60156-2.5195-1.6797-2.5195-2.8789 0.71875-11.281 2.6406-22.199 6.1211-32.879 5.0391-15.238 10.68-30.238 15.602-45.602 13.32-41.281 26.039-82.68 39.602-123.72 7.9219-24 8.5195-23.879 0.12109-47.16-7.1992-19.68-10.801-39.48-5.5195-60.121 0.23828-0.96094-0.48047-1.5586-2.1602-1.3203-2.3984 1.6797-4.5586 4.4414-5.7617 7.9219-2.5195 8.0391-5.3984 15.961-7.4414 24.121-5.1602 20.16-9.2383 40.68-15 60.719-9.6016 33.48-19.441 66.961-33 99.238-10.801 25.441-21.719 50.879-33.359 75.961-6.2383 13.441-13.922 26.16-21.602 38.879-3 4.9219-1.6797 8.0391 1.0781 11.879 3 4.1992 6.8398 6.3594 12.121 6.8398 6.1211 0.48047 12.238 1.8008 18.359 2.7617-9.8398 2.8789-19.199 2.7617-25.199 0.96094-12.961-3.8398-17.039-13.922-10.922-25.922 3.7188-7.3203 8.7617-14.039 11.879-23.398-13.078 3.7188-25.078 2.2812-36.961 2.8789-1.5586 0.12109-3.1211 0.60156-4.6797 0.96094-19.68 3.8398-33.719 15.121-45 31.559-19.32 28.441-18 63.602 6.9609 87.602 14.039 13.441 28.801 25.199 47.039 32.762 26.398 10.922 53.039 20.52 81.238 25.078 19.801 3.2383 40.078 2.7617 59.879 5.5195 23.281 3.2383 43.441-2.8789 63.359-13.559 12.84-6.8398 21.121-16.199 24.48-30.719 2.2812-9.9609 2.0391-18.719-2.6406-27.719-10.078 4.9219-14.16 8.5195-18.121 16.922-3.6016 7.6797-6 15.719-4.9219 24.48 0.48047 3.3594 0.96094 8.5195-3.4805 9.1211-4.6797 0.60156-4.5586-4.5586-5.0391-7.8008-0.83984-5.1602-1.1992-10.32-1.8008-15.602-0.70703-6.125 0.13281-11.887-4.1875-17.766zm295.44-438.96c-2.2812 1.9219-4.0781 3.7188-6 4.9219-12.48 7.9219-15.359 20.879-17.641 34.078-1.8008 10.441 7.3203 14.281 12.602 20.398 0.48047 0.60156 1.0781 1.1992 1.5586 1.8008 13.32 16.441 30 29.039 48.48 38.879 16.441 8.7617 33.961 14.52 53.16 12.48 6.3594-0.60156 11.641-2.2812 14.039-9.2383 1.6797-4.6797 5.1602-8.3984 9.7188-10.199 9.7188-3.9609 14.16-12.238 19.32-20.52 23.52-37.801 42.121-78.48 69.84-113.76 2.0391-2.6406 3-5.2812 2.6406-8.7617-2.7617-27.602-5.2812-55.078-7.9219-82.68-0.35938-3.8398-0.12109-7.8008-4.0781-12-3.7188 7.0781-7.4414 13.559-13.922 17.039-7.0781 3.7188-7.4414 8.5195-5.8789 15.84 2.3984 11.281 5.6406 22.68 5.6406 34.32 0 4.3203 0.83984 9.2383-4.6797 13.078-1.9219-18.719-3.2383-36.238-9-53.52-2.7617 0.60156-5.2812 0.71875-7.3203 1.8008-18.602 9.7188-38.398 15.961-58.078 22.922-29.879 10.441-59.879 20.52-90.719 27.961-29.762 7.0781-58.68 6.2383-87.359-4.3203-1.5586-0.60156-2.8789-1.4414-4.5586 1.0781 5.8789 11.281 10.199 23.762 14.52 36.238 6.7188 19.559 23.641 32.039 42.602 30.602 4.8008-0.35938 9.6016-0.60156 14.398-0.60156 2.3984 0.125 5.3984-1.3164 8.6367 2.1641zm-94.559-104.88c4.5586-7.3203 7.0781-12.121 11.16-16.199 17.879-17.641 38.039-31.922 60.719-42.602 39.238-18.48 81.359-26.879 123.84-33.48 14.16-2.2812 28.559-3.4805 43.801-5.2812-10.078-36.238-22.801-70.922-39.121-105.36 7.3203 1.1992 8.5195 6 10.441 9.7188 8.2812 16.559 15 33.719 21.121 51.121 4.3203 12.48 8.3984 25.078 12.602 37.68 1.0781 3.3594 1.9219 7.6797 6.4805 7.5586 10.32-0.23828 20.281 2.7617 30.48 3.9609 0.48047-5.5195-1.0781-9.6016-2.1602-13.801-8.7617-36.719-22.32-72-31.68-108.6-3.4805-13.441-9.9609-26.039-19.199-37.68-11.52 12.359-23.762 22.441-38.039 30-16.68 8.8789-34.078 15.961-51.602 23.039-29.879 12.121-60.359 21.121-92.641 23.762-22.68 1.8008-45.238 3.9609-67.922-1.5586-8.8789-2.1602-17.16-6.2383-25.68-7.8008-2.5195 2.5195-2.0391 5.0391-1.6797 7.3203 10.555 60.004 29.758 117.72 49.078 178.2zm-304.56-168.72c-2.5195 6.3594-2.5195 11.641-3.1211 16.801-3.3594 26.762-2.5195 53.762-2.7617 80.641-0.23828 23.039 3.3594 45.602 8.6406 67.922 2.6406 10.922 7.9219 20.16 18.84 26.398 24 13.801 41.879 34.559 57.84 56.879 1.1992 1.6797 2.2812 3.9609 4.4414 3.4805 10.441-2.5195 21.48-0.23828 30.961-9.6016 15.238-15 34.199-25.078 54.48-32.281 14.52-5.1602 29.52-7.5586 44.879-8.0391 6.1211-0.23828 10.441-1.9219 14.039-7.3203 3.7188-5.6406 8.8789-10.32 13.441-15.359 13.801-14.762 25.441-30.961 35.641-48.359 3.9609-6.8398 5.6406-14.039 2.3984-21.961-1.5586-3.9609-3.7188-5.6406-7.9219-5.7617-21.238-0.71875-42.48-1.8008-63.238-6.8398-6.6016-1.5586-13.078-3.7188-19.801-4.8008-32.16-5.0391-63.602-13.078-93.84-24.961-22.801-8.8789-45-18.961-65.398-32.762-1.5586-1.0781-3.1211-2.5195-6.3594-1.3203-7.4414 45.961-3.6016 92.16 3.6016 139.8-6.2383-3.8398-7.4414-8.6406-8.0391-13.199-2.3984-18.238-4.9219-36.602-5.1602-55.078-0.35937-24.121 0.60156-48.121 2.7617-72.121 0.35938-3.9609 1.4414-8.5195-1.5586-11.641-5.8828-5.6367-8.8828-13.316-14.766-20.516zm550.2 442.44c-1.4414 2.0391-1.1992 3.7188-0.71875 5.1602 7.8008 23.641 8.3984 48.238 8.8789 72.602 0.35937 14.52 3.2383 27.602 9.1211 40.559 8.8789 19.801 19.68 38.641 26.762 59.281 4.3203 12.48 8.8789 24.961 13.078 37.559 3.2383 9.8398 6.1211 10.801 16.32 8.7617 6.9609-1.4414 12.84-5.6406 20.039-6.4805-8.2812 8.2812-17.762 14.039-30.121 13.078-4.9219-0.35938-8.0391-2.7617-9.6016-7.6797-1.8008-6.1211-3.9609-12.238-6.2383-18.238-2.6406-7.1992-3.6016-7.5586-10.078-3.4805-12.602 7.9219-25.32 15.602-37.441 24.238-20.762 14.762-35.879 34.199-38.281 60-3.6016 39.48 4.0781 52.559 34.078 68.039 6.9609 3.6016 14.16 5.0391 22.078 4.4414 21.359-1.6797 39.121-11.281 55.078-24.719 9.2383-7.6797 17.52-16.68 27.121-23.879 23.52-17.641 45.961-36.359 68.16-55.559 8.6406-7.4414 15.84-16.078 19.441-27.121 5.5195-17.398 7.8008-35.039-4.5586-50.52-13.199-16.559-30.121-24-52.078-19.32-13.801 2.8789-25.801 11.52-40.32 11.641-3.4805 0-4.3203 2.6406-2.8789 6.1211 2.6406 6.3594 6.2383 12.121 9.9609 17.879 2.0391 3.2383 4.4414 6.3594 0.83984 11.039-8.6406-9.2383-14.52-19.32-18.359-30.121-18.359-50.641-44.52-98.039-60.121-149.64-3.2383-10.68-11.039-17.641-20.16-23.641zm-205.2-560.04c-1.6797-0.48047-3.1211 0-4.5586 0.83984-14.762 7.1992-30.359 10.199-46.68 8.1602-7.5586-0.96094-15.121-1.8008-22.68-2.2812-37.199-2.1602-71.039-15.602-103.92-31.801-8.5195-4.1992-16.199-10.441-24.48-15.359-11.641-6.8398-23.398-13.199-35.641-20.16-6 15-4.1992 28.68-0.23828 42.359 0.83984 3.1211 2.1602 6 3 9.1211 0.60156 2.0391 0.12109 4.1992-2.1602 4.9219-2.6406 0.96094-3.6016-1.3203-4.0781-3.1211-2.1602-7.3203-4.1992-14.641-6-22.078-3.9609-16.559-12.121-30.48-25.078-41.52-5.8789-4.9219-6.6016-4.6797-11.398 1.4414-4.4414 5.7617-8.1602 11.879-11.16 18.48-15.602 34.441-27.84 69.961-36.84 106.68-0.60156 2.6406-2.3984 5.2812 0.83984 7.9219 2.8789-0.60156 6-1.9219 9.1211-1.6797 10.078 0.96094 12.719-5.0391 14.641-13.32 3.6016-15.602 9-30.84 15-45.719 4.8008-11.879 10.32-23.52 17.281-34.32 1.3203-2.1602 2.6406-4.6797 8.0391-3.8398-18.48 30.238-29.641 62.039-37.559 96.359 74.16-0.35938 142.08 21.359 208.2 51.359 2.1602-5.5195 1.4414-9.4805 0.96094-13.32-1.9219-15.84 4.1992-28.32 16.199-38.039 5.2812-4.3203 11.039-8.0391 16.68-11.879 15.719-10.68 33.602-16.922 50.52-25.199 12.352-5.8867 14.031-8.7656 11.992-24.008zm-92.52 216h13.199c10.078 0 10.32-0.48047 7.8008-10.32-6.3594-24.48-13.199-48.84-18.719-73.441-1.9219-8.5195-5.7617-13.32-13.199-16.922-19.922-9.6016-40.68-16.922-61.441-24.48-15.121-5.5195-30.238-10.441-46.078-13.441-8.6406-1.5586-17.398-3.2383-26.039-4.6797-20.641-3.4805-41.281-6.1211-62.281-5.7617-5.1602 0.12109-8.6406 1.5586-9.7188 6.7188-3.8398 19.68-9 39.121-11.762 58.922-0.71875 5.2812 0.60156 9.1211 4.8008 12.719 6.8398 5.7617 14.039 10.801 21.961 14.641 10.801 5.2812 21.602 10.68 32.641 15.48 16.922 7.4414 34.441 13.199 52.078 18.359 23.398 6.9609 47.52 11.16 71.52 15.84 14.879 2.8867 29.758 6.8477 45.238 6.3672zm116.52 110.28c26.762 0.48047 45.961-6 65.398-10.801 23.039-5.6406 45-14.281 67.441-21.84 19.801-6.7188 39.359-13.68 57.961-23.16 4.9219-2.5195 6.3594-5.3984 5.2812-10.441-3.9609-18.84-8.7617-37.441-15.121-55.68-2.0391-5.7617-5.6406-7.4414-11.398-8.3984-9.9609-1.8008-19.199 0.96094-28.68 2.0391-38.398 4.4414-75.719 13.199-112.32 25.68-27.48 9.3594-50.879 25.441-73.078 43.441-6.6016 5.2812-12.84 11.879-14.281 21.48-2.6406 16.801 12.121 29.16 25.801 32.879 12.836 3.4805 26.156 4.3203 32.996 4.8008zm121.68-330.36c-4.4414-1.9219-8.3984-1.6797-12.359-1.5586-9.2383 0.23828-18.359 1.1992-27.48 2.8789-30.719 5.6406-61.078 12.84-90.719 23.039-18 6.1211-34.801 14.52-52.199 21.602-12.84 5.1602-24.359 12.359-35.398 20.281-6.2383 4.4414-11.398 10.199-15.121 16.922-3.8398 6.8398-3 10.922 3.3594 15.48 7.6797 5.6406 16.68 7.6797 25.801 9.6016 30.121 6.4805 60 1.6797 89.641-3.1211 28.68-4.5586 55.68-14.879 82.32-26.039 21.121-8.8789 42.121-18 59.641-33.238 4.5586-3.9609 10.078-8.6406 8.3984-14.879-1.8008-6.4805-7.5586-11.16-14.398-13.441-2.2812-0.71875-4.6797-1.4414-7.0781-1.5586-9.9609-0.48047-20.039-1.4414-29.641 2.8789-3.9609 1.8008-7.9219 2.7617-13.441 0 9.8359-6.7305 22.316-7.4492 28.676-18.848zm-361.08-110.64c8.6406 8.7617 16.922 18.238 30.84 17.281 4.0781-0.23828 7.9219 0.71875 11.879 1.8008 1.5586 0.48047 2.8789 1.3203 2.6406 3.3594-0.23828 2.0391-1.9219 2.5195-3.4805 2.5195-6.8398 0.12109-13.68 0.12109-20.52 0.12109-13.441 0-25.32 4.5586-34.922 13.801-7.3203 6.9609-7.0781 9 1.1992 14.762 20.52 14.039 41.52 27.359 63.961 38.16 17.398 8.3984 35.16 16.199 54 20.039 23.641 4.8008 47.641 7.0781 71.879 7.1992 10.32 0.12109 19.68-3.6016 28.801-7.8008 9.3594-4.1992 15.238-17.281 9.1211-27.48-3.6016-6-7.4414-11.281-12.961-15.48-6.3594-5.0391-13.922-7.9219-21-11.641-25.441-12.961-51.48-24.602-78-34.801-24.719-9.4805-50.641-15.359-76.68-20.398-8.5195-1.6836-17.277-3.8438-26.758-1.4414zm-25.199 511.08c18.359 1.4414 36 5.6406 53.879 8.0391 16.68 2.2812 33.238 5.0391 49.441 9.4805 10.559 2.8789 21.121 5.1602 31.922 5.2812 14.398 0.23828 28.801 0 41.762-8.3984 13.801-8.8789 15-15.602 3.6016-27.48-2.7617-2.8789-5.7617-5.8789-9.3594-7.5586-16.32-7.5586-32.52-15.961-50.879-17.039-40.801-2.3984-78.48 8.0391-113.76 28.32-3.3672 1.7969-6.4883 3.4766-6.6055 9.3555zm-176.52 201c1.5586-4.4414 2.5195-6.6016 3-8.8789 2.7617-11.762 5.5195-23.398 9.9609-34.68 10.801-27.602 25.559-52.68 48.961-71.879 7.4414-6.1211 14.641-12.48 21.84-18.961 16.801-15 33.48-30.121 46.922-48.359 4.1992-5.6406 9.2383-11.039 9.7188-19.078-2.0391-0.35938-3.4805-0.83984-5.0391-0.96094-26.281-0.96094-49.922 8.0391-71.281 22.199-18.359 12.121-31.078 30.121-41.039 49.559-13.922 27.238-18.121 57.238-23.52 86.762-1.5586 8.6406-1.9219 17.52-2.6406 26.281-0.36328 5.2773-0.60547 10.559 3.1172 17.996zm569.76-71.398c-15.238 1.1992-29.879 3.4805-43.801 8.7617-37.801 14.398-70.559 35.879-97.199 66.719-8.5195 9.8398-15.48 20.641-20.641 32.398-3.8398 8.7617-6.3594 18.238-6.4805 27.961 0 4.3203 2.0391 5.8789 6.1211 4.8008 5.5195-1.4414 10.441-4.0781 15.359-6.8398 17.52-10.199 32.398-23.641 46.199-38.398 18.359-19.68 37.559-38.52 57.121-57 14.039-13.082 27.359-27.004 43.32-38.402zm-393.96 92.16c2.5195-0.48047 3-2.5195 3.9609-4.3203 9.6016-18.84 13.559-39.238 17.039-59.879 3.1211-19.199-0.23828-37.32-5.7617-55.68-5.7617-19.32-15.238-37.078-23.039-55.441-3.8398-9.2383-9.3594-17.762-11.16-27.84-0.96094-5.5195-5.6406-6.8398-9.6016-7.5586-3.8398-0.71875-4.8008 3.6016-6 6.3594-3.1211 7.4414-5.0391 15.121-6.4805 23.039-3.7188 19.922 2.8789 38.281 9.9609 56.039 14.762 37.078 25.32 75.121 28.559 114.96 0.125 3.7188 0.24609 7.4414 2.5234 10.32zm-106.8-235.68c20.762 0.71875 41.762-1.0781 62.398 2.6406 1.9219 0.35938 3.9609 0.48047 6 0.48047 2.0391 0 4.1992-0.12109 4.9219-2.5195 0.60156-1.6797-0.83984-2.8789-1.8008-4.0781-4.6797-5.5195-10.199-10.441-16.441-13.801-25.559-14.039-50.879-28.32-79.922-35.16-18.48-4.3203-35.641-2.6406-52.801 4.4414-6.9609 2.8789-12.238 7.8008-14.879 14.879-7.4414 19.68-6.2383 22.32 13.68 28.078 14.281 4.0781 29.16 4.5586 44.039 5.0391 11.523 0.23828 23.164 0 34.805 0zm323.88 284.28c2.1602-21.359 9.1211-39.602 20.641-55.801 27.84-38.641 65.039-65.039 109.56-80.762 16.199-5.7617 33.359-8.6406 50.039-12.84 2.2812-0.60156 5.0391-0.96094 4.4414-4.3203-0.60156-3.3594-2.6406-4.6797-6.1211-4.0781-3.9609 0.71875-7.9219 2.0391-11.762 2.0391-22.559 0.12109-44.762 1.9219-66.719 7.1992-11.762 2.7617-23.281 6-33.602 12.48-28.922 17.879-54.84 38.762-72.961 68.398-9.2383 15.121-13.078 30.719-10.801 48 1.3242 9.4844 6.6055 15.965 17.285 19.684zm-245.64-292.8c-0.60156-4.4414-2.6406-7.3203-4.6797-10.078-8.8789-11.879-18.961-22.801-30-32.762-8.0391-7.1992-16.32-14.281-25.922-19.32-11.281-6-22.559-12-34.199-17.398-14.281-6.7188-28.801-9.9609-44.281-7.9219-24.238 3.2383-47.52 15.238-51.961 46.559-1.4414 9.7188 0.60156 17.879 7.5586 25.078 3.9609-2.5195 3.7188-6.6016 5.1602-9.7188 3.3594-7.4414 8.0391-14.52 15.359-18 17.762-8.3984 36.48-12.84 56.039-7.6797 37.559 9.8398 72.84 24.602 102.96 49.801 0.84375 0.60156 2.043 0.71875 3.9648 1.4414zm474.36 114.12c22.441-12.602 46.199-19.199 69.121-27.602 20.398-7.4414 35.281-19.922 45.602-38.762 4.1992-7.6797 6.1211-15.602 5.8789-24.238-0.23828-9.8398-1.5586-11.281-11.52-9.8398-21.961 3-41.762 10.441-58.078 26.16-18.961 18.238-34.801 38.762-47.52 61.68-2.043 3.6016-4.4453 6.9609-3.4844 12.602zm-440.52-107.64c0.83984-0.12109 1.6797-0.12109 2.3984-0.35938 1.4414-0.60156 2.8789-1.3203 4.3203-2.0391 29.16-15.602 60.359-23.398 93.238-24.961 11.762-0.60156 23.281-0.12109 34.559 3 15.121 4.1992 29.52 9.9609 42.48 19.078 5.7617 3.9609 7.9219 10.922 12.961 15.238 3.3594-3.1211 3.3594-6.7188 3.2383-10.441-0.71875-25.559-12.961-41.398-37.441-49.801-20.762-7.0781-41.879-5.7617-63.121-3.7188-35.398 3.4805-64.559 20.16-90.48 43.441-3.3516 3.125-4.3125 6.3633-2.1523 10.562zm600.84 264.12c-0.71875-2.6406-1.4414-5.2812-2.3984-7.9219-0.96094-2.6406-2.0391-5.2812-3.3594-7.6797-17.398-33.121-45.48-54.48-78.238-70.078-27.961-13.32-59.398-16.801-87.238-30.602-0.23828-0.12109-0.60156 0.23828-0.96094 0.48047-1.1992 2.1602 0.35938 3.7188 1.1992 5.3984 10.199 19.801 27.48 32.641 45.84 43.078 20.879 11.879 43.801 19.68 64.922 31.32 5.8789 3.2383 12.602 5.0391 18.238 9.1211 13.316 9.6055 27.715 17.523 41.996 26.883zm-177.24 62.762c10.441-14.641 16.078-30.602 18.84-47.52 2.8789-17.52 1.5586-35.039 0.48047-52.68-1.4414-25.922-8.2812-49.68-22.078-71.52-3-4.8008-3.8398-13.441-11.281-12.238-7.1992 1.1992-7.6797 9.6016-9.3594 15.48-6.8398 24.48-3.6016 48.359 5.7617 71.762 10.199 25.441 17.641 51.602 17.52 79.32 0.11719 5.7539 0.11719 11.512 0.11719 17.395zm6.7188-219.96c2.8789-1.1992 3.4805-4.3203 4.6797-6.6016 9.2383-17.879 20.039-34.559 32.641-50.398 20.52-25.68 44.762-44.52 78.48-48.719 3.8398-0.48047 7.6797-1.8008 12.359-3-3.7188-12.84-10.559-23.641-17.398-34.32-6.3594-9.8398-15-10.922-24.719-4.0781-16.559 11.52-29.039 26.879-38.281 44.16-15.602 29.398-33.84 57.121-49.801 86.281-4.5625 8.3945-4.8008 8.2773 2.0391 16.676zm-433.92-638.76c-3.7188 8.1602-6.1211 13.559-6.9609 19.32-1.1992 7.3203-4.4414 13.68-9.1211 19.32-6.8398 8.0391-14.762 14.52-24.48 18.961-3.6016 1.6797-8.3984 1.9219-11.16 7.5586 11.281-0.48047 18.359 5.7617 24.84 12 6.7188 6.4805 12.121 14.281 18.84 22.32 4.6797-10.441 7.1992-20.641 14.762-28.32 7.5586-7.6797 18-10.441 28.078-15.961-20.637-12.238-28.676-31.559-34.797-55.199zm228.72 526.56c-3.6016 11.762-6.4805 20.879-9.1211 30-2.7617 9.2383-10.801 15.121-16.078 24.359 23.879-0.12109 41.762 10.199 58.441 26.16 1.6797-21.359 1.3203-41.641 14.398-60.719-20.523 2.3984-35.402-3.6016-47.641-19.801zm-203.52 378.36c-6.4805 7.1992-11.52 12.84-16.559 18.602-1.5586 1.8008-2.1602 4.9219-4.6797 5.2812-10.922 1.5586-19.078 9.2383-30 11.641 7.5586 7.6797 15.961 13.078 22.922 20.398 7.1992 7.6797 8.3984 18.238 13.32 29.641 8.5195-22.801 26.641-27.84 48.48-32.762-25.086-10.801-29.047-31.199-33.484-52.801zm409.08-726.12c2.1602-16.441 11.039-28.199 21.602-39.719-8.2812-3.9609-15.48-7.1992-22.441-11.039-7.5586-4.1992-8.1602-14.281-15.961-20.281-4.9219 18.719-16.441 32.398-30.121 48.238 21.48-1.5586 34.562 9.1211 46.922 22.801zm21.359 168.12c-5.2812-0.60156-6 2.7617-4.5586 7.5586 5.5195 18 10.441 36.121 14.641 54.48 1.3203 5.7617 4.4414 5.0391 7.6797 2.0391 6.6016-6 12-12.961 14.641-21.719 6.5977-22.078-8.8828-42.84-32.402-42.359zm-542.76-64.441c4.9219-17.762 6-35.16 10.922-51.719 1.0781-3.6016 3.4805-8.5195-0.35938-11.281s-8.6406-0.35938-12.48 1.9219c-4.1992 2.3984-7.9219 5.6406-9.6016 10.441-4.4414 13.316-6.2422 36.238 11.52 50.637zm518.28 369.96c0-8.0391-5.0391-12.602-14.039-12.719-6.6016 0-12.238 6.6016-12.602 15-0.35938 6.6016 4.9219 11.398 12.602 11.281 6.8398-0.003907 13.922-6.8438 14.039-13.562zm-460.2-108.48c-0.23828 4.9219 0.35938 9.1211 4.8008 10.559 4.6797 1.5586 9.3594 1.3203 13.078-2.8789 2.8789-3.3594 4.9219-7.3203 6-11.52 1.0781-3.9609 3.2383-7.5586-2.3984-10.922-5.2812-3.1211-9.3594-5.1602-14.398-0.23828-4.3203 4.5625-7.6797 9.2422-7.082 15zm478.8 134.52c2.2812-9.3594-3-17.281-3.7188-25.68-0.12109-2.2812-0.23828-5.0391-3.6016-5.1602-2.6406-0.12109-4.1992 1.8008-5.5195 3.9609-9.6016 14.641-8.2812 19.078 7.8008 25.922 1.4375 0.59766 3.1172 0.59766 5.0391 0.95703z"/>
 <path d="m788.52 339.24c-22.801 14.52-47.398 24.84-72.961 31.078-28.68 6.9609-57.961 13.32-87.961 11.398-15.359-0.96094-29.879-5.8789-43.922-11.762-3-1.3203-6.4805-3.2383-6.1211-7.5586 1.8008-1.6797 3.3594-0.96094 4.5586-0.12109 18.359 11.641 38.641 15.602 59.879 14.641 41.641-2.0391 81.719-10.922 120.24-27 8.7695-3.5938 17.648-7.0742 26.289-10.676z"/>
 <path d="m1027.2 994.56c4.6797-1.0781 6 1.9219 6.8398 5.1602 2.8789 11.16 0.71875 21.359-5.3984 31.078-9.4805 14.879-22.68 26.16-36.602 36.238-24.121 17.52-50.039 31.801-77.16 44.039-9.8398 4.4414-19.801 6.2383-30.359 6.3594-16.922 0.23828-29.16-7.5586-37.441-21.961-4.4414-7.6797-5.3984-15.719-2.2812-24.359 4.4414-12.719 10.922-24.121 20.879-33.238 2.7617-2.5195 5.6406-5.6406 10.801-5.0391-1.0781 5.3984-5.1602 7.6797-7.8008 10.801-6.6016 7.6797-12.48 15.719-15.84 25.32-6.1211 17.281 4.5586 36.602 22.559 40.801 12.121 2.7617 24.238 1.5586 35.398-3 35.039-14.398 67.68-33.238 96-58.801 6-5.3984 11.398-11.398 15.719-18.121 6.4805-9.9609 8.7617-20.52 4.5586-32.039-0.46875-0.83594 0.007813-2.1562 0.12891-3.2383z"/>
 <path d="m428.04 203.16c22.922 12.238 45 26.039 69 36 23.52 9.8398 47.879 17.52 75.719 23.039-31.438 3.3594-121.08-34.68-144.72-59.039z"/>
</svg>
