<?xml version="1.0" encoding="UTF-8"?>
<svg width="1200pt" height="1200pt" version="1.1" viewBox="0 0 1200 1200" xmlns="http://www.w3.org/2000/svg">
 <path d="m646.03 949.82c-0.75-0.79688-86.297-1.875-190.13-2.4375-103.78-0.5625-204.05-1.9688-222.74-3.1875-18.75-1.2188-47.016-2.6719-62.812-3.1875-38.25-1.3125-87.797-5.3438-98.719-8.0625-6.5156-1.6406-12.375-5.9531-22.781-16.875-18.984-19.969-22.547-27.703-29.812-65.203-8.6719-44.906-10.688-72.797-9-125.26 3.2344-98.953 3-130.22-1.2188-174.71-2.25-23.578-4.6406-54.234-5.3906-68.109-0.70312-13.922-2.0156-34.734-2.8594-46.266-1.4062-18.891-0.70312-31.969 4.875-90.609 1.9219-20.062 8.625-37.172 17.672-45.141 9.1875-8.0625 35.297-16.547 61.547-20.016 10.828-1.4062 33.562-6.0938 50.531-10.359 50.625-12.844 126.74-19.641 210.05-18.844 28.406 0.28125 102.56 0.84375 164.81 1.3125 126.71 0.89062 169.22 3.7031 169.22 11.297 0 3.7031-4.1719 4.6406-28.594 6.5156-18.703 1.4531-40.453 1.4062-54.938-0.09375-7.5938-0.79688-122.16-1.1719-167.02-0.5625-12.703 0.1875-45.141-0.32812-72.094-1.0781s-57.609-0.51562-68.109 0.51562c-10.5 1.0781-35.906 3.0469-56.484 4.4531-31.125 2.1094-43.031 3.9844-71.344 11.297-18.703 4.8281-34.547 9.1406-35.25 9.5625s-11.484 1.9219-24 3.2812c-28.828 3.1875-45.188 9.0469-49.734 17.812-1.8281 3.5625-2.7656 7.4531-2.0156 8.625 0.70312 1.1719 0.42188 2.1094-0.65625 2.1094s-3.1875 2.2969-4.6875 5.1562c-2.25 4.2188-2.1562 6.6094 0.65625 13.219 4.4062 10.594 27.188 40.5 40.734 53.531 7.125 6.8438 38.906 27.844 48.516 32.062 19.312 8.4844 42.188 20.016 59.344 29.953 10.266 5.9531 26.109 14.062 35.156 18s22.688 10.922 30.234 15.516c7.5938 4.5938 14.859 8.3438 16.125 8.3438 1.3125 0 5.0156 1.4531 8.2031 3.1875 3.1875 1.7812 12.75 5.8594 21.234 9.1406s19.219 8.3438 23.859 11.25c21.422 13.453 73.594 36.797 99.375 44.438 7.3594 2.2031 16.641 5.6719 20.672 7.7344 6.9844 3.6094 7.2188 3.6094 5.625-0.32812-0.89062-2.25-4.0312-16.922-6.9844-32.625-4.3125-23.016-5.2031-33.703-4.5469-54.938 1.1719-37.828 3.1406-44.531 19.078-64.547 7.4062-9.3281 12.75-13.359 25.453-19.219 14.906-6.8906 17.719-7.4531 38.25-7.4531 42.656 0 67.594 14.438 88.875 51.328l6.1406 10.688 4.6875-8.4844c2.5781-4.6875 6.1406-11.25 7.875-14.625 6.0469-11.719 17.906-23.297 29.812-29.109 10.453-5.1094 14.062-5.7656 27.984-4.9688 19.453 1.0781 39.375 9.0469 60.188 24.141 11.672 8.4375 27.234 25.078 27.234 29.156 0 1.3125 1.6875 5.2969 3.7031 8.9531 2.8594 5.1562 3.6562 12.281 3.5625 32.953-0.046875 14.484-1.1719 30.844-2.4375 36.281-1.3125 5.4375-3.375 14.719-4.6406 20.625s-3.4219 12.094-4.7812 13.734c-5.9062 7.125 8.7188-0.1875 41.531-20.719 12.984-8.1094 27.281-16.641 31.828-18.938s8.25-5.0156 8.25-6.0469 1.3125-1.8281 2.9531-1.8281 4.6406-1.875 6.75-4.1719c2.0625-2.2969 11.391-8.625 20.672-14.062s22.359-15.141 29.016-21.656c13.828-13.406 21.188-19.453 23.672-19.453 0.9375 0 8.625-6.3281 17.062-14.016 8.4375-7.7344 23.812-19.453 34.125-26.109s22.125-15.75 26.297-20.25 14.484-13.734 22.969-20.531c15.328-12.328 22.875-19.828 23.016-22.875 0.09375-2.3906 5.9531-9.4688 22.219-26.859 7.9688-8.5312 15.562-16.969 16.969-18.75 15.281-20.062 23.391-28.734 33.234-35.625l11.625-8.1562-6.2812-1.7344c-17.062-4.6875-268.78-0.42188-300.74 5.1094-15.516 2.6719-28.5 3.0938-60.422 1.9688-62.859-2.2031-72.516-3.1875-72.516-7.5 0-1.125 10.641-2.6719 23.625-3.375 12.984-0.75 30.047-2.3438 37.922-3.5625 33.281-5.0625 189.66-10.969 293.68-10.969 91.594 0 106.12 2.6719 122.11 22.406 3.5625 4.4062 7.3125 11.297 8.3438 15.375s3.5156 13.359 5.5781 20.578c3.2344 11.625 3.5625 23.109 2.5312 97.781-1.0312 77.531-1.6406 89.812-4.9688 105.09-0.60938 2.8125-2.5312 17.156-4.2656 31.875-3.2344 27.797-5.3438 44.812-6.6562 54.234-1.6875 12.141-6.375 67.922-9.7031 115.5-2.0156 28.547-4.0781 48.75-10.078 97.688-1.125 9.1875-6.4688 31.922-9.2344 39.562-0.65625 1.8281-1.4531 4.3125-1.7344 5.5312-1.125 5.0156-13.875 23.016-19.875 28.031-8.1094 6.7969-24.891 15.188-40.5 20.297-6.6562 2.1562-18.516 6.8438-26.391 10.406-23.297 10.547-46.781 16.641-78.703 20.438-16.547 1.9688-36.516 4.4531-44.344 5.4844-27.703 3.6562-65.297 6.3281-105.47 7.5-82.125 2.4375-190.13 3.75-191.48 2.3438zm184.92-18.469c38.625-1.6406 80.531-4.7344 98.906-7.3125 17.531-2.4375 41.25-5.3438 52.734-6.4688 20.859-2.0156 46.359-9.1406 67.031-18.656 6.0469-2.7656 18.891-7.7344 28.594-10.969 9.6562-3.2344 20.156-7.7344 23.297-9.8906 10.312-7.1719 21.328-26.109 26.016-44.812 5.1094-20.25 14.672-82.359 16.406-106.59 0.65625-9.0469 1.7812-23.016 2.5312-31.031l1.3594-14.531-16.312-13.312c-15.938-12.984-30.234-27.562-30.234-30.797 0-2.3438-8.625-11.062-23.25-23.531-7.0781-6.0469-18.375-16.453-25.031-23.109-10.266-10.219-41.391-32.953-45.141-32.953-1.6875 0-31.266-21.516-43.172-31.359-5.625-4.6406-17.25-11.344-25.875-14.859-17.016-6.9375-19.453-6.75-33.516 2.625-32.016 21.281-68.719 42.281-116.11 66.562-22.641 11.578-28.078 15.328-31.031 21.375-15.094 30.984-23.625 46.359-31.5 56.766-5.0625 6.6562-13.547 18-18.891 25.266-5.3438 7.2188-18.562 21.891-29.344 32.578-17.391 17.203-22.406 20.766-44.531 31.359-24.891 11.906-37.172 14.578-44.625 9.7031-2.9531-1.9219-2.9531-2.3906 0-4.3125 1.8281-1.1719 4.4531-2.1562 5.9062-2.2031 6.5625-0.09375 4.3125-4.5469-4.2188-8.4844-5.1562-2.3906-13.828-8.5312-19.266-13.688s-16.641-14.578-24.938-20.953c-14.203-10.922-32.625-27.516-37.875-34.172-1.3125-1.6406-5.1094-7.6875-8.4844-13.406-5.2031-8.8594-19.875-29.25-27.562-38.297-1.2188-1.4531-2.25-3.1875-2.25-3.8906 0-2.3438-9.8906-16.5-11.578-16.5-0.9375 0-11.859-4.9688-24.281-11.016s-24.188-10.969-26.109-10.969-16.125-5.4375-31.547-12.094-28.781-12.094-29.672-12.094-13.875-6.8438-28.781-15.188c-14.953-8.3438-31.312-16.406-36.375-17.906-8.8125-2.5781-9.9375-2.2969-27.75 6.5156-10.219 5.0625-21.984 12.844-26.203 17.344-8.3438 8.8594-11.156 11.344-32.438 28.312-7.8281 6.2344-19.594 16.922-26.156 23.672-6.5156 6.75-19.359 17.625-28.594 24.094-9.1875 6.5156-18.422 13.875-20.531 16.406s-15.469 13.266-29.672 23.812-27.656 20.859-29.906 22.875c-2.2031 2.0625-8.3906 6.0469-13.734 8.8594-7.6875 4.0781-9.9844 6.6562-11.062 12.469-1.5469 8.2031 0.46875 96.984 2.5312 112.45 2.0625 15.188 5.8125 34.5 8.5781 43.594 0.60938 2.0156 1.5469 6.2344 2.0625 9.375 2.2969 13.312 11.062 28.547 23.062 39.938l12.422 11.859 18.656 1.6406c22.219 1.9219 107.25 5.625 174.71 7.5938 89.672 2.5781 481.55 1.4531 552.71-1.5938zm-217.08-197.02c13.219-7.3594 47.625-42.047 62.953-63.375 15.844-22.078 33.234-49.5 33.234-52.359 0-2.25 2.0625-6.6562 10.734-22.688 14.859-27.516 22.781-50.062 26.484-75.141 3.2344-21.938 2.9531-31.734-1.5-48.656-3.375-12.797-5.5312-16.359-17.203-28.031-12.234-12.281-33.188-25.078-41.062-25.078-5.4844 0-19.125 15.891-27.328 31.781-4.4062 8.5312-11.016 21.422-14.766 28.641-9.6094 18.609-21.891 23.344-38.484 14.859-7.4062-3.7969-9.5156-6.7969-26.719-39-13.734-25.688-17.156-29.812-29.062-35.203-23.062-10.453-37.734-9.1875-53.906 4.6406-14.344 12.281-23.672 34.547-24.891 59.484-0.60938 12.469 2.3438 57.984 3.9375 60.562 0.60938 0.98438 1.9219 6.4688 2.9531 12.188 6 33.562 13.219 52.031 30.328 77.719 5.9531 8.9062 13.594 21.422 16.969 27.75 3.5625 6.6094 13.781 18.703 24 28.359 9.7969 9.2344 25.359 24.094 34.641 33 9.2344 8.8594 17.297 16.125 17.859 16.125s5.4375-2.4844 10.875-5.4844zm-558.28-64.266c8.3906-6.9375 18.141-14.719 21.703-17.25s14.109-11.625 23.484-20.156 19.969-17.766 23.625-20.484c3.6094-2.7188 15.984-14.016 27.469-25.078s26.484-24.328 33.375-29.438c6.8438-5.1094 14.016-11.672 15.891-14.531 3.7969-5.7656 21.469-18.656 25.594-18.656 1.4531 0 7.9688-3.0469 14.531-6.7969l11.906-6.7969-10.172-6.4688c-5.5781-3.5625-23.203-12.891-39.094-20.719-15.938-7.875-36.938-19.031-46.781-24.844-9.7969-5.8125-22.172-12.281-27.469-14.344-32.109-12.703-65.109-38.859-85.172-67.5-4.125-5.9062-8.25-10.734-9.1406-10.734-3.2812 0-8.7188 17.906-8.7188 28.688 0 7.8281-0.98438 11.391-3.3281 12.281-3.5156 1.3594-3.1406 13.547 1.2188 40.359 1.9219 11.812 2.9062 20.438 5.3438 47.25 0.65625 7.2656 1.6875 16.641 2.3438 20.859 2.2031 14.859 4.2656 34.266 7.125 65.953 2.0156 22.406 1.6875 82.031-0.5625 93.891-0.75 3.9375-0.65625 7.2188 0.14062 7.2188 0.84375 0 8.3438-5.6719 16.734-12.656zm1097.1-41.812c0.70312-9.9844 1.7344-20.391 2.2969-23.062 0.5625-2.7188 1.5938-11.25 2.3438-19.031 0.70312-7.7812 1.7344-14.812 2.25-15.609 0.51562-0.84375 1.4062-6.3281 2.0156-12.281 1.7344-17.062 3.375-29.062 6.9844-51.422 4.125-25.266 4.875-183.56 0.9375-190.97-1.2656-2.3906-2.2969-6.3281-2.2969-8.7656 0-6.7969-7.2656-19.922-11.062-19.969-1.8281-0.046875-7.875 4.6406-13.453 10.406-8.4844 8.7656-47.484 47.625-53.016 52.781-0.9375 0.89062-6.375 6.6094-12.094 12.703s-16.828 15.375-24.656 20.578-16.219 12-18.656 15.094c-10.875 13.922-18.047 21.234-29.625 30.094-6.8438 5.25-14.719 12.844-17.531 16.875s-11.062 12.281-18.328 18.328c-21.469 17.812-32.344 27.891-32.344 30 0 1.0781 2.2031 2.9062 4.9688 4.0312 2.7188 1.125 12.656 5.1562 22.078 9 9.4219 3.7969 21.938 11.016 27.797 16.031s18.891 13.922 29.016 19.828c29.297 17.109 53.859 33.984 60.609 41.578 3.4219 3.8438 13.266 12.656 21.891 19.594 8.625 6.8906 19.453 17.297 24.094 23.016 11.297 13.969 21.141 22.969 22.969 20.953 0.84375-0.89062 2.1094-9.7969 2.8125-19.781zm-51.375-132.56c0-6.7969 8.4375-17.438 16.453-20.812 6.6094-2.7656 16.5-2.1562 16.5 0.98438 0 0.79688-5.4844 6.6094-12.188 12.938-12.938 12.188-20.766 14.766-20.766 6.8906zm-107.67-21.656c0-1.125 2.0156-3.4688 4.4531-5.2031s23.203-21.234 46.172-43.406c22.922-22.172 42.938-41.062 44.438-42 4.5938-2.9062 12.703-2.0156 14.062 1.5938 1.5938 4.2188-0.9375 7.0781-32.25 35.906-41.953 38.672-51.234 46.641-59.766 51-8.7188 4.5-17.109 5.5312-17.109 2.1094zm68.109-4.0312c0-4.3125 15.375-23.859 22.734-28.875 2.625-1.7812 5.5312-4.5 6.4688-6 2.0156-3.3281 15.516-6.1875 20.344-4.3594 5.2031 2.0156 0.28125 9.3281-9.7031 14.438-4.5938 2.3438-13.406 9.75-19.547 16.5-11.344 12.375-20.297 16.078-20.297 8.3438z"/>
</svg>
