<svg width="376" height="329" viewBox="0 0 376 329" fill="none" xmlns="http://www.w3.org/2000/svg">
<path fill-rule="evenodd" clip-rule="evenodd" d="M77.0187 83.7228L25.5097 101.676C25.369 101.725 25.2224 101.776 25.0817 101.825L25.0465 101.838C24.9117 101.885 24.7768 101.932 24.644 101.985L24.6089 101.997L24.5913 102.003C24.4564 102.05 24.3295 102.101 24.2026 102.152L24.1674 102.164L24.1381 102.174C24.0091 102.219 23.8842 102.276 23.7514 102.329L23.7221 102.339L23.6869 102.351C23.56 102.402 23.4331 102.453 23.3023 102.511L23.2789 102.52L23.2437 102.532C23.1109 102.585 22.986 102.641 22.8552 102.7L22.8435 102.704L22.8142 102.714C22.6835 102.773 22.5468 102.834 22.4161 102.893L22.1956 102.996L21.9966 103.085L21.9848 103.089C21.8541 103.148 21.7254 103.212 21.5908 103.279L21.5615 103.289L21.5498 103.293C21.4269 103.356 21.2962 103.415 21.1733 103.477L21.144 103.487L21.1226 103.501C20.9998 103.564 20.8769 103.627 20.7541 103.689L20.7248 103.699L20.6975 103.715C20.5746 103.778 20.4518 103.84 20.331 103.909L20.3075 103.917L20.2803 103.933C20.1574 103.996 20.0366 104.064 19.91 104.135L19.8924 104.141L19.871 104.155C19.7443 104.225 19.6176 104.296 19.4968 104.364L19.4851 104.368C19.228 104.517 18.965 104.668 18.7078 104.817L18.6902 104.823L18.6844 104.825C18.5656 104.899 18.439 104.97 18.3202 105.044L18.2967 105.052L18.2812 105.064C18.1624 105.138 18.0437 105.213 17.9249 105.287L17.9015 105.295L17.8821 105.315C17.7634 105.389 17.6505 105.461 17.5317 105.536L17.5083 105.544L17.4889 105.564C17.3701 105.638 17.2534 105.718 17.1347 105.793L17.1229 105.797L17.1015 105.811C16.9848 105.891 16.8623 105.973 16.7455 106.053L16.728 106.059C16.5121 106.213 16.2904 106.37 16.0746 106.524L15.991 106.586L15.886 106.662L15.7752 106.74L15.6974 106.8L15.6235 106.852L15.503 106.94L15.3766 107.03L15.3086 107.08L15.2502 107.12L15.12 107.218L14.986 107.324L14.9335 107.362L14.8927 107.396L14.7549 107.51L14.6053 107.628L14.5645 107.662L14.5393 107.684L14.3859 107.81L14.2267 107.937L14.2014 107.959L14.1838 107.966L14.0287 108.105L13.8559 108.251L13.8383 108.257L13.7143 108.373L13.4852 108.564L13.3028 108.72L13.1514 108.852L13.1397 108.856L13.1165 108.883L12.9517 109.033L12.81 109.155L12.7906 109.175L12.7557 109.207L12.6064 109.344L12.4823 109.46L12.4474 109.492L12.397 109.535L12.2632 109.661L12.1488 109.767L12.1042 109.809L12.0441 109.862L11.92 109.978L11.8212 110.072L11.7669 110.123L11.6933 110.195L11.5868 110.305L11.4976 110.388L11.4337 110.45L11.3504 110.532L11.2594 110.629L11.1858 110.701L11.1142 110.778L11.0233 110.876L10.942 110.963L10.8801 111.031L10.7988 111.119L10.6923 111.228L10.6266 111.304L10.5744 111.361L10.4834 111.459L10.3693 111.584L10.3133 111.65L10.2745 111.689L10.1739 111.797L10.0463 111.94L9.99787 111.99L9.96883 112.02L9.86643 112.141L9.7253 112.302L9.69244 112.34L9.67308 112.359L9.56481 112.483L9.41019 112.662L9.387 112.689L9.38114 112.691L9.29047 112.809L9.10502 113.031C9.00466 113.158 8.90226 113.279 8.8019 113.406L8.62818 113.625L8.53164 113.744L8.51992 113.748L8.50083 113.788L8.36201 113.974L8.26166 114.101L8.24434 114.127L8.21352 114.171L8.08821 114.339L7.99371 114.464L7.96671 114.5L7.92622 114.554L7.8144 114.704L7.72959 114.819L7.69495 114.871L7.64095 114.942L7.54468 115.081L7.46955 115.186L7.42524 115.248L7.3636 115.335L7.28083 115.456L7.21538 115.551L7.16342 115.628L7.09211 115.726L7.01902 115.837L6.96325 115.922L6.90366 116.015L6.8247 116.128L6.76511 116.221L6.71698 116.291L6.64771 116.394L6.56112 116.522L6.50917 116.6L6.47071 116.659L6.39381 116.778L6.30544 116.921L6.26317 116.988L6.2344 117.038L6.14985 117.172L6.05385 117.331L6.01922 117.382L5.99808 117.416L5.9059 117.566L5.80226 117.741L5.78317 117.78L5.77171 117.804L5.6719 117.97L5.56444 118.152L5.55299 118.176L5.54712 118.178L5.43994 118.38L5.33453 118.568L5.25025 118.722L5.11607 118.96L5.11048 118.982L5.01857 119.152L4.91138 119.354L4.89993 119.377L4.88465 119.409L4.80242 119.569L4.70874 119.753L4.68965 119.793L4.66469 119.834L4.59214 119.984L4.50609 120.153L4.47936 120.208L4.45264 120.263L4.38773 120.398L4.30931 120.55L4.27495 120.621L4.24058 120.692L4.18535 120.817L4.12248 120.957L4.08048 121.044L4.0423 121.123L3.9947 121.232L3.93947 121.356L3.89187 121.465L3.85192 121.558L3.81196 121.651L3.76436 121.759L3.70913 121.884L3.66536 121.985L3.63303 122.062L3.58926 122.163L3.52843 122.309L3.48288 122.423L3.46965 122.461C0.0905075 130.611 -0.424964 139.959 2.69864 148.921L56.5788 303.505C63.3228 322.853 84.4737 333.076 103.814 326.335L351.047 240.162C370.388 233.421 380.602 212.266 373.858 192.917L319.978 38.3333C316.855 29.3716 310.64 22.3687 302.953 18.1022L302.919 18.0811L302.812 18.0197L302.668 17.945L302.571 17.8933L302.498 17.853L302.401 17.8013L302.28 17.7381L302.169 17.6846L302.08 17.6367L301.991 17.5888L301.886 17.5333L301.766 17.4701L301.661 17.4145L301.582 17.3763L301.495 17.3343L301.353 17.2655L301.232 17.2023L301.161 17.1679L301.09 17.1335L300.939 17.0609L300.805 16.9959L300.75 16.9692L300.694 16.9424L300.522 16.8642L300.372 16.7916L300.327 16.7746L300.287 16.7555L300.099 16.6696L299.935 16.5952L299.904 16.5799L299.88 16.5685L299.671 16.477L299.493 16.4008L299.477 16.3932L299.222 16.2847L299.06 16.2162L298.861 16.1344L298.656 16.0547L298.65 16.0567L298.624 16.0394L298.427 15.9635L298.245 15.8952L298.221 15.8838L298.182 15.8647L297.992 15.7926L297.826 15.732L297.789 15.7187L297.73 15.6999L297.556 15.6354L297.406 15.5825L297.353 15.5616L297.278 15.5351L297.12 15.4783L296.986 15.433L296.919 15.4103L296.83 15.382L296.682 15.3349L296.564 15.2973L296.483 15.2728L296.378 15.2369L296.246 15.1974L296.142 15.1615L296.045 15.1294L295.919 15.0879L295.803 15.0561L295.714 15.0279L295.603 14.994L295.463 14.9507L295.361 14.9207L295.288 14.9L295.164 14.8644L295.002 14.8155L294.915 14.7931L294.856 14.7743L294.718 14.7369L294.537 14.6882L294.466 14.6735L294.423 14.6623L294.271 14.6231L294.068 14.5689L294.017 14.5538L293.987 14.5444L293.829 14.5073L293.599 14.4495L293.563 14.4421L293.552 14.4462L293.4 14.407L293.128 14.3439C292.971 14.3067 292.815 14.2755 292.657 14.2383L292.374 14.1793L292.232 14.1498L292.226 14.1518L292.189 14.1386L291.956 14.0946L291.795 14.0653L291.767 14.0618L291.718 14.0526L291.508 14.0142L291.352 13.9829L291.311 13.9776L291.242 13.9687L291.053 13.9359L290.907 13.9143L290.852 13.9072L290.768 13.8906L290.6 13.8634L290.469 13.8436L290.392 13.8309L290.293 13.8126L290.142 13.793L290.024 13.775L289.933 13.7605L289.815 13.7424L289.683 13.7226L289.579 13.7063L289.477 13.6959L289.345 13.6761L289.229 13.6639L289.141 13.6553L289.019 13.6452L288.867 13.6256L288.765 13.6152L288.69 13.6084L288.555 13.5964L288.385 13.583L288.305 13.5782L288.244 13.5731L288.089 13.5615L287.906 13.5463L287.839 13.5433L287.792 13.54L287.623 13.5265L287.42 13.5116L287.373 13.5083L287.346 13.5047L287.159 13.4974L286.937 13.4828L286.904 13.4813L286.892 13.4853L286.689 13.4704L286.45 13.4618L286.151 13.4541L285.984 13.4465L285.967 13.4527L285.739 13.44L285.532 13.433L285.515 13.4391L285.479 13.4317L285.275 13.4306L285.077 13.4274L285.043 13.4259L284.99 13.4246L284.8 13.4252L284.615 13.4238L284.562 13.4225L284.497 13.4254L284.327 13.4257L284.164 13.4299L284.093 13.4348L284.015 13.4358L283.859 13.4438L283.71 13.4498L283.62 13.4549L283.522 13.4562L283.381 13.466L283.251 13.4717L283.147 13.475C282.882 13.4884 282.617 13.5018 282.349 13.5232L282.331 13.5293C282.188 13.5332 282.041 13.545 281.901 13.5606L281.878 13.5688L281.864 13.567C281.723 13.5768 281.584 13.5924 281.445 13.608L281.421 13.6162L281.399 13.6106C281.26 13.6263 281.127 13.6398 280.988 13.6555L280.964 13.6636L280.937 13.6601C280.798 13.6757 280.658 13.6913 280.519 13.707L280.502 13.7131L280.476 13.7154C280.337 13.731 280.192 13.7487 280.055 13.7702L280.049 13.7723L280.031 13.7784C279.735 13.8158 279.441 13.859 279.143 13.9102L279.132 13.9143C278.989 13.9378 278.846 13.9614 278.703 13.9849L278.679 13.9931L278.66 13.9933C278.522 14.0148 278.387 14.0422 278.25 14.0637L278.221 14.0739L278.195 14.0762C278.06 14.1036 277.923 14.1251 277.788 14.1524L277.759 14.1626L277.727 14.167C277.592 14.1944 277.457 14.2217 277.322 14.2491L277.299 14.2573L277.267 14.2616C277.132 14.289 276.991 14.3184 276.858 14.3516L276.841 14.3577L276.811 14.3679C276.67 14.3973 276.531 14.4326 276.39 14.462L276.379 14.4661L276.167 14.52L275.944 14.578L275.932 14.5821C275.794 14.6174 275.649 14.6547 275.51 14.69L275.481 14.7002L275.469 14.7043C275.33 14.7396 275.199 14.7786 275.06 14.8139L275.025 14.8262L275.001 14.8344C274.87 14.8734 274.737 14.9067 274.6 14.9478L274.565 14.96L274.536 14.9703C274.405 15.0094 274.274 15.0485 274.137 15.0896L274.108 15.0998L274.072 15.1121C273.943 15.157 273.807 15.1982 273.676 15.2372L273.658 15.2434L273.623 15.2556C273.488 15.3026 273.353 15.3496 273.216 15.3908L273.204 15.3949L273.181 15.403C273.04 15.4521 272.894 15.5031 272.753 15.5522L221.244 33.5057C218.969 34.2985 217.766 36.7897 218.56 39.0653C218.887 40.0037 219.506 40.7614 220.275 41.2695C220.675 41.5313 221.112 41.7277 221.575 41.8491L221.669 41.8753L221.77 41.8995C222.524 42.0641 223.333 42.0257 224.112 41.7539L275.956 23.6839L276.067 23.6451L276.29 23.5675L276.427 23.5263L276.626 23.4569L276.771 23.4195L276.964 23.3521L277.117 23.3186L277.303 23.267L277.453 23.2277L277.639 23.176L277.796 23.1346L277.982 23.083L278.138 23.0416L278.32 22.9979L278.479 22.9624L278.661 22.9187L278.819 22.8831L279.003 22.8453L279.162 22.8098L279.346 22.7719L279.499 22.7384L279.683 22.7006L279.837 22.673L280.029 22.6389L280.178 22.6134L280.378 22.5832L280.515 22.5617L280.778 22.5228L280.852 22.51L280.946 22.4969L281.185 22.4662L281.336 22.4465L281.525 22.4204L281.689 22.4024L281.866 22.3804L282.03 22.3624L282.201 22.3425L282.374 22.3283L282.546 22.3142L282.719 22.3001L282.885 22.288L283.058 22.2739L283.225 22.2619L283.399 22.2536L283.56 22.2436L283.735 22.2353L283.898 22.2312L284.073 22.2229L284.23 22.2208L284.412 22.2163L284.569 22.2142L284.752 22.2098L284.903 22.2097L285.088 22.2111L285.233 22.2131L285.425 22.2184L285.551 22.2206L285.763 22.2256L285.791 22.2291L286.089 22.2369L286.37 22.2508L286.417 22.2541L286.64 22.2687L286.754 22.2751L286.962 22.288L287.084 22.2981L287.286 22.313L287.414 22.3211L287.618 22.3419L287.748 22.3559L287.947 22.3788L288.077 22.3927L288.275 22.4156L288.405 22.4295L288.604 22.4524L288.728 22.4684L288.928 22.4971L289.052 22.5131L289.261 22.5456L289.379 22.5637L289.587 22.5962L289.694 22.6184L289.91 22.6547L290.009 22.673L290.241 22.717L290.312 22.7318L290.566 22.7814L290.572 22.7793C290.991 22.8699 291.405 22.9625 291.815 23.0631L292.089 23.1321L292.138 23.1412L292.392 23.2104L292.457 23.2272L292.698 23.2947L292.77 23.3153L293.005 23.3848L293.078 23.4054L293.313 23.475L293.386 23.4956L293.622 23.5709L293.695 23.5916L293.934 23.6728L294.001 23.6955L294.248 23.7805L294.301 23.8014L294.555 23.8903L294.593 23.9035L294.863 24L294.869 23.998C295.266 24.1557 295.661 24.3075 296.048 24.4751C295.281 26.4064 293.953 29.6123 292.446 32.5908C277.478 62.1186 230.948 135.877 207.469 172.699C200.419 183.746 186.718 188.522 174.328 184.25C133.046 169.994 50.7503 141.138 20.6726 127.318C17.6433 125.927 14.61 124.241 12.8068 123.199C13.0059 122.827 13.2208 122.463 13.4357 122.098L13.4416 122.096L13.5913 121.847L13.6124 121.813L13.7566 121.585L13.7853 121.536L13.9257 121.316L13.9641 121.256L14.1006 121.044L14.1449 120.983L14.2835 120.777L14.3278 120.715L14.4684 120.515L14.5127 120.453L14.6533 120.253L14.6976 120.192L14.844 119.989L14.8845 119.936L15.0407 119.723L15.0677 119.688L15.2393 119.463C15.4958 119.124 15.7623 118.794 16.0366 118.469L16.0425 118.467L16.2086 118.264L16.2549 118.208L16.4096 118.029L16.4753 117.954L16.6223 117.791L16.6977 117.705L16.8408 117.55L16.9221 117.463L17.0653 117.308L17.1524 117.218L17.2918 117.071L17.3789 116.981L17.5203 116.84L17.6133 116.748L17.7547 116.607L17.8477 116.515L17.9891 116.374L18.0821 116.282L18.2293 116.139L18.3244 116.053L18.4737 115.916L18.5628 115.832L18.718 115.692L18.7975 115.619L18.9623 115.469L18.9972 115.437L19.2087 115.252L19.4378 115.06L19.4571 115.04L19.6202 114.904L19.7173 114.824L19.8648 114.701L19.9775 114.609L20.1212 114.493L20.2396 114.399L20.3854 114.289L20.5098 114.193L20.6555 114.083L20.7799 113.987L20.9218 113.885L21.052 113.787L21.1939 113.685L21.3262 113.593L21.4681 113.491L21.6063 113.396L21.7502 113.3L21.8884 113.206L22.0323 113.11L22.1705 113.016L22.3144 112.919L22.4605 112.829L22.6006 112.741L22.7525 112.648L22.8868 112.562L23.0504 112.466L23.1809 112.387L23.3873 112.263L23.4691 112.214L23.5354 112.178L23.7653 112.045L23.8861 111.977L24.0673 111.874L24.1998 111.802L24.3713 111.709L24.5097 111.635L24.6774 111.55L24.8179 111.481L24.9856 111.396L25.1318 111.326L25.2996 111.241L25.4458 111.17L25.6156 111.091L25.7619 111.021L25.9316 110.942L26.08 110.877L26.2576 110.802L26.406 110.737L26.5836 110.662L26.7261 110.599L26.9096 110.522L27.0562 110.471L27.2435 110.386L27.3842 110.337L27.5795 110.255L27.7143 110.208L27.935 110.125L28.0464 110.086L28.3806 109.97L79.8896 92.0162C82.1643 91.2233 83.3671 88.7322 82.574 86.4566C81.7808 84.1809 79.2901 82.9772 77.0154 83.77L77.0187 83.7228ZM303.613 29.1655C302.772 31.2413 301.645 33.7059 300.229 36.4886C285.182 66.1688 238.43 140.327 214.828 177.343C205.609 191.79 187.687 198.037 171.486 192.45C129.985 178.132 47.2665 149.101 17.0248 135.206C14.1832 133.901 11.7687 132.671 9.82149 131.573C8.95134 136.264 9.25731 141.235 10.9377 146.056L64.8178 300.64C69.9755 315.437 86.1471 323.258 100.944 318.1L348.177 231.927C362.969 226.772 370.783 210.597 365.623 195.794L311.741 41.2043C310.059 36.3774 307.21 32.2989 303.613 29.1655ZM165.145 113.914L104.365 84.5377C86.9302 76.1112 79.6221 55.1438 88.0436 37.7116C96.4632 20.2736 117.422 12.9683 134.851 21.397L136.424 22.1574L137.184 20.5837C145.604 3.14562 166.563 -4.15961 183.991 4.269C192.365 8.31605 198.789 15.5224 201.849 24.3022C204.909 33.0821 204.356 42.7201 200.319 51.0931L170.996 111.894C170.523 112.875 169.705 113.64 168.707 114.041L168.502 114.112C167.44 114.482 166.297 114.427 165.309 113.989L165.137 113.91L165.145 113.914ZM165.034 104.165L108.16 76.6768C95.0666 70.3482 89.5778 54.6007 95.901 41.5044C102.224 28.4081 117.965 22.9215 131.053 29.2521L136.557 31.9119C138.723 32.959 141.332 32.0497 142.384 29.8807L145.042 24.3765C151.365 11.2801 167.106 5.79354 180.2 12.1221C186.486 15.1602 191.312 20.5751 193.612 27.1732C195.912 33.7714 195.495 41.0072 192.459 47.2944L165.034 104.165Z" fill="#2D2D35"/>
</svg>
